<?xml version="1.0" standalone="yes"?>
<svg xmlns="http://www.w3.org/2000/svg" width="932" height="1450">
<path style="fill:#010101; stroke:none;" d="M0 0L0 1450L932 1450L932 0L0 0z"/>
<path style="fill:#ffffff; stroke:none;" d="M359 462C359 472.307 361.358 490.545 353.582 498.61C346.281 506.181 340.38 501.713 332 502.618C328.654 502.98 324.748 506.35 324.89 509.941C325.136 516.122 341.362 513.809 345.671 517.513C350.35 521.537 347.879 529.733 352.318 532.686C357.712 536.275 366.021 534.808 372 537.032C384.971 541.855 394.255 549.444 401 561L430 538C426.598 529.705 425.297 523.915 426 515C413.201 514.99 409.674 505.558 401.335 497.39C396.241 492.401 388.447 491.32 383.225 486.471C379.293 482.82 379.795 477.483 376.911 473.329C373.402 468.274 364.644 464.066 359 462z"/>
</svg>
