<?xml version="1.0" standalone="yes"?>
<svg xmlns="http://www.w3.org/2000/svg" width="932" height="1450">
<path style="fill:#010101; stroke:none;" d="M0 0L0 1450L932 1450L932 0L0 0z"/>
<path style="fill:#ffffff; stroke:none;" d="M400 620C394.717 620 387.907 618.872 383.004 621.14C374.159 625.23 371.958 640.306 378.318 647.572C391.341 662.448 412.764 663.857 427.697 675.086C430.542 677.225 430.097 680.777 431.988 683.471C437.117 690.778 441.031 693.485 443 703C453.09 697.891 458.709 686.027 466.329 678.213C469.467 674.995 474.095 673.941 477.1 670.61C485.5 661.296 489.297 652.588 503 652L503 639L514 648C519.266 640.64 517.672 636.872 519.688 629C520.608 625.411 523.43 622.618 524.262 619C525.098 615.361 522.818 611.517 524.774 608.089C530.211 598.56 541.755 597.402 549.682 591.722C554.113 588.548 549.732 582.319 552.607 578.174C556.025 573.246 562.505 570.848 566.61 566.536C571.891 560.988 572 554.156 572 547C562.64 548.932 553.334 554.539 544 555.629C540.157 556.077 537.01 552.589 533.21 553.373C527.885 554.47 527.68 564.169 520.996 562.342C506.16 558.285 499.548 536.981 486 530.831C480.281 528.235 476.141 537.246 470.424 536.505C464.073 535.681 460.786 527.088 454 526.568C444.816 525.865 439.762 532.111 432.999 536.779C425.165 542.187 418.611 544.512 412.13 551.999C409.75 554.749 404.362 558.53 403.458 562.089C402.366 566.384 408.802 571.911 411.104 575C416.583 582.352 419.812 588.825 417.295 598C414.256 609.077 406.43 602.807 401.01 608.603C398.227 611.58 399.72 616.419 400 620z"/>
</svg>
