<?xml version="1.0" standalone="yes"?>
<svg xmlns="http://www.w3.org/2000/svg" width="932" height="1450">
<path style="fill:#010101; stroke:none;" d="M0 0L0 1450L932 1450L932 0L0 0z"/>
<path style="fill:#ffffff; stroke:none;" d="M310 643C313.037 652.355 309.047 657.902 309.383 667C309.605 672.989 313.881 677.697 312.725 684C311.488 690.752 307.697 696.789 308.302 704C309.052 712.931 319.201 718.067 319.208 727C319.212 733.508 320.336 741.628 319.497 748C318.474 755.768 313.719 763.783 319.905 770.582C329.229 780.829 348.717 778.942 361 781.464C366.252 782.543 370.106 786.118 375 788C377.464 777.621 374.087 760.244 371.058 750C369.971 746.323 366.273 742.929 366.479 739C366.753 733.792 371.685 726.408 374.352 722.004C378.034 715.922 387.825 707.501 395 706.228C400.185 705.308 406.8 707.554 411.674 705.397C417.119 702.987 418.833 694.573 421.966 690.043C424.294 686.678 430.21 684.673 429.597 679.975C428.619 672.478 412.879 669.738 407 667.138C391.316 660.203 374.377 649.284 374 631L333 638.61L310 643z"/>
</svg>
