<?xml version="1.0" standalone="yes"?>
<svg xmlns="http://www.w3.org/2000/svg" width="932" height="1450">
<path style="fill:#010101; stroke:none;" d="M0 0L0 1450L932 1450L932 0L0 0z"/>
<path style="fill:#ffffff; stroke:none;" d="M278 624C282.909 623.898 289.95 621.217 293.307 626.204C296.642 631.157 293.077 642.997 303.04 642.656C318.689 642.121 333.208 635.392 348 632.123C355.799 630.4 364.22 631.905 371.896 629.686C376.333 628.403 378.894 622.921 383.001 620.653C387.688 618.064 393.828 619 399 619C398.682 614.463 397.88 608.745 403.105 606.603C407.216 604.919 411.813 607.259 414.721 602.852C424.587 587.899 409.233 574.575 402 563C395.644 565.255 387.498 563.716 382.015 567.264C376.866 570.596 373.064 580.804 366.961 581.803C361.17 582.751 351.855 574.755 345 574.188C336.685 573.501 328.315 577.239 320 576.61C315.398 576.262 309.558 572.346 305.039 574.201C300.311 576.142 297.532 581.995 293 584.637C288.172 587.451 280.526 588.5 278.009 594.105C273.945 603.159 277.595 614.708 278 624z"/>
</svg>
