<?xml version="1.0" standalone="yes"?>
<svg xmlns="http://www.w3.org/2000/svg" width="932" height="1450">
<path style="fill:#010101; stroke:none;" d="M0 0L0 1450L932 1450L932 0L0 0z"/>
<path style="fill:#ffffff; stroke:none;" d="M284 493C268.962 493 253.671 493.788 239 497.515C233.767 498.844 229.306 502.031 224 503.181C218.71 504.326 205.624 503.262 202.028 507.742C196.768 514.294 203.73 531.871 202.193 540C199.855 552.368 185.35 558.533 183.448 571C181.339 584.817 200.278 593.047 210.001 598.096C213.312 599.815 216.167 603.026 220 603.527C224.769 604.15 230.22 602.377 235 602C236.511 613.697 240.113 612.103 248.791 617.022C260.215 623.498 263.911 623.795 277 620C275.375 612.123 273.082 597.814 279.394 591.39C286.466 584.195 296.801 584.365 302.731 575C305.774 570.195 302.001 565.248 302.928 560C304.49 551.164 311.078 543.685 312.205 535C313.159 527.653 305.215 525.344 302.14 519.961C299.875 515.996 300.167 511.032 297.86 507.089C295.867 503.681 292.055 501.78 290.6 497.996C288.462 492.44 289.374 485.773 288 480C282.618 482.164 284 488.01 284 493z"/>
</svg>
