<?xml version="1.0" standalone="yes"?>
<svg xmlns="http://www.w3.org/2000/svg" width="932" height="1450">
<path style="fill:#010101; stroke:none;" d="M0 0L0 1450L932 1450L932 0L0 0z"/>
<path style="fill:#ffffff; stroke:none;" d="M594 261C602.035 280.729 574.303 277.537 570.322 292.184C569.003 297.037 571 303.909 571 309C571.001 320.685 569.343 332.518 569.347 344C569.35 352.196 575.806 361.287 565.816 366.972C557.73 371.573 541.791 366.694 533 366C532.532 372.265 526.949 375.274 525.914 381C524.596 388.29 532.803 397.322 527.972 404.581C525.353 408.517 517.184 409.171 513 410.695C503.733 414.071 492.678 419.441 485.279 426.043C478.504 432.087 481.751 444.277 478.648 452C473.736 464.224 461.29 474.85 457.817 487C456.129 492.905 460.062 499.822 459.37 506C458.759 511.462 455.153 519.468 456.773 524.829C458.399 530.209 468.567 537.293 474 535.12C477.624 533.671 482.276 527.946 486.285 530.546C497.873 538.06 506.83 558.709 520.985 561.664C528.185 563.167 527.863 552.93 534.043 552.596C537.626 552.402 540.232 555.632 544 555.081C559.275 552.849 572.985 543.256 587 537.994C592.873 535.789 600.073 537.914 605.7 534.683C612.121 530.995 613.981 522.799 621.004 519.324C631.556 514.103 653.304 507.152 657 495C651.343 492.3 648.403 488.728 646 483L689 484C684.957 474.806 679.269 469.192 690.004 461.513C692.708 459.579 696.826 459.332 698.86 456.57C702.075 452.206 701.568 445.053 703.482 440.043C705.172 435.621 709.676 435.25 711.971 431.61C715.167 426.541 709.459 418.031 708 413C711.904 411.377 718.444 409.714 721.258 406.49C726.732 400.22 721.726 390.986 722.56 384C723.142 379.127 726.641 374.719 728 370C707.125 364.854 687.354 352.87 671.83 338.21C667.711 334.32 659.986 332.24 657.564 326.896C654.262 319.612 661.088 316.491 661.179 310C661.249 305.017 657.05 300.106 658.067 295.039C658.969 290.547 664.755 287.909 667.61 284.714C671.536 280.32 674.383 273.612 676 268L655 263.088L629 248.567L612 257.2L594 261z"/>
</svg>
