<?xml version="1.0" standalone="yes"?>
<svg xmlns="http://www.w3.org/2000/svg" width="932" height="1450">
<path style="fill:#010101; stroke:none;" d="M0 0L0 1450L932 1450L932 0L0 0z"/>
<path style="fill:#ffffff; stroke:none;" d="M514 649L513 649L504 641L504 653C488.536 653.128 486.489 661.961 476.621 671.61C468.485 679.564 459.909 685.192 453 695C459.993 700.008 475.317 703.453 479.911 710.214C487.752 721.754 486.989 743.501 488.87 757C489.538 761.795 489.195 768.563 491.938 772.7C503.797 790.579 526.58 781.726 542.999 789.434C551.052 793.214 546.409 797.996 549.118 803.911C550.938 807.884 555.543 809.481 556.682 814.001C560.659 829.787 549.725 845.25 544 859C554.366 861.92 561.588 861.356 572 861.34C576.389 861.333 581.726 863.59 586 862.307C590.077 861.083 592.627 856.874 596 854.514C601.489 850.673 617.479 845.447 624 847.564C635.676 851.355 628.655 858.191 630.777 865.961C631.626 869.068 639.903 881.961 642.51 884.142C648.925 889.507 659.803 884.949 667 887.603C672.79 889.739 674.792 896.547 680.039 899.184C684.673 901.512 690.837 896.433 696 897.603C703.073 899.205 708.736 905.907 716 908C719.164 900.658 723.888 894.395 730 889.213C733.359 886.365 739.443 884.881 741.436 880.787C745.686 872.056 738.189 863.628 742.768 855C748.102 844.949 761.371 837.929 759.736 825C758.758 817.266 751.339 814.581 747.776 808.7C745.98 805.734 747.951 802.216 747.272 799C746.311 794.442 743.177 788.98 740.648 785.093C737.166 779.742 730.618 777.482 726.289 772.907C718.341 764.506 717.868 754.997 717 744C724.327 743.013 750.714 739.729 749.493 728.996C748.876 723.576 741.587 718.605 738.001 715C732.362 709.331 730.019 704.305 727.189 697C723.384 687.176 721.18 663.179 712.363 657.028C706.947 653.25 688.874 657 682 657C682 661.327 682.374 665.813 681.096 670C677.19 682.79 674.139 681.513 663 684.637C659.488 685.622 656.777 687.69 653 686.543C639.445 682.428 631.466 669.945 617 668.557C605.848 667.487 594.634 682.368 584.318 674.86C581.308 672.67 581.697 667.347 581.285 664C580.198 655.184 577 648.1 577 639C566.365 639.001 556.973 643.13 547 643.845C533.347 644.824 523.284 632.719 514 649z"/>
</svg>
