<?xml version="1.0" standalone="yes"?>
<svg xmlns="http://www.w3.org/2000/svg" width="932" height="1450">
<path style="fill:#010101; stroke:none;" d="M0 0L0 1450L932 1450L932 0L0 0z"/>
<path style="fill:#ffffff; stroke:none;" d="M498 1010C497.679 1019.88 487.28 1017.76 485.333 1025.21C484.039 1030.17 488.119 1034.84 487.056 1040C486.13 1044.5 482.689 1047.69 481.528 1052C480.431 1056.07 482.659 1060.01 480.679 1064C478.892 1067.6 475.226 1070.13 473.948 1074C472.625 1078.01 475.519 1081.93 474.643 1085.96C473.322 1092.03 464.929 1092.14 462.607 1097.38C459.994 1103.27 466.632 1109.23 466.532 1115C466.445 1119.99 461.724 1122.55 463.243 1128C466.451 1139.52 477.735 1143.98 482.972 1153.18C487.004 1160.27 482.749 1168.75 475 1169L478.273 1204L468 1225C472.372 1228.29 478.315 1235.63 484 1236.1C490.1 1236.6 498.297 1231.55 505 1231.09C527.269 1229.56 553.622 1230.12 572 1214.7C578.906 1208.91 582.225 1201.42 588.379 1195.39C592.337 1191.51 598.149 1190.84 601.204 1185.9C605.703 1178.61 611.496 1170.7 615.085 1163C616.884 1159.14 617.003 1153.63 620.419 1150.73C625.641 1146.3 629.686 1151.85 634.911 1151.01C640.61 1150.08 644.183 1144.54 651 1144C652.296 1151.97 658.088 1152.28 665 1151C662.49 1142.3 656.379 1134.99 652.258 1127C650.646 1123.87 649.226 1118.14 646.301 1116.03C642.162 1113.05 637.769 1118.67 633.576 1117.3C627.996 1115.46 622.028 1109.18 617.001 1105.95C610.33 1101.65 611.181 1090.23 602.999 1089.58C597.404 1089.13 594.525 1094.56 590.911 1097.78C584.057 1103.88 571.387 1109.17 563.394 1102.3C551.074 1091.71 558.655 1066.96 555.61 1053C552.479 1038.65 535.762 1038.78 526.419 1032.01C522.344 1029.06 522.858 1022.3 520.442 1018.21C515.951 1010.62 505.705 1010 498 1010z"/>
</svg>
