<?xml version="1.0" standalone="yes"?>
<svg xmlns="http://www.w3.org/2000/svg" width="932" height="1450">
<path style="fill:#010101; stroke:none;" d="M0 0L0 1450L932 1450L932 0L0 0z"/>
<path style="fill:#ffffff; stroke:none;" d="M507 234L507 265L465 252C464.24 261.627 467.034 285.21 455.999 289.238C450.916 291.093 438.063 288.95 432 289C431.102 277.638 426.918 275.47 416 274C415.586 264.387 411.116 264.337 405.637 257.79C403.396 255.112 402.432 249.943 398.787 248.773C392.962 246.904 380.577 249.136 374 249L373.397 263L368.607 272L371 286L341 286L336.02 304L340.638 316.895L334 327L347 331C349.574 324.18 349.767 320.097 358 320C357.978 328.079 358.72 336.146 358.733 344C358.741 348.662 356.254 352.264 359.14 356.787C362.331 361.789 369.628 364.653 375 366.341C389.091 370.769 404.338 375.458 419 373.429C423.052 372.868 429.077 375.167 432.61 372.968C435.338 371.27 436.094 367.593 438.39 365.43C440.947 363.021 444.692 362.891 447.24 360.487C450.026 357.859 451.372 354 454.326 351.514C458.227 348.23 464.676 349.823 468.147 346.262C474.71 339.529 475.999 326.423 482.43 320.704C487.719 316 494.114 320.974 500 320.407C505.508 319.877 512.105 313.024 515.39 308.911C519.248 304.081 525.29 294.397 525.217 288C525.183 285.012 522.171 282.351 522.723 279.424C524 272.657 533.465 269.141 534.998 262C536.057 257.071 531.865 253.528 529.123 250C522.424 241.38 517.888 237.157 507 234z"/>
</svg>
