<?xml version="1.0" standalone="yes"?>
<svg xmlns="http://www.w3.org/2000/svg" width="932" height="1450">
<path style="fill:#010101; stroke:none;" d="M0 0L0 1450L932 1450L932 0L0 0z"/>
<path style="fill:#ffffff; stroke:none;" d="M647 484C649.376 489.62 652.4 492.576 658 495C651.355 509.972 629.368 512.887 617.3 521.969C612.115 525.872 610.192 533.539 603.961 536.11C597.154 538.919 589.591 536.868 583 540.443C570.64 547.146 575.998 555.025 568.363 564.91C564.282 570.193 556.354 572.543 553.029 578.3C550.789 582.177 554.274 586.914 551.958 590.581C548.942 595.353 537.742 597.078 533 600.677C523.927 607.562 527.358 609.831 524.836 619C522.632 627.012 520.316 630.331 521 639L547 643.284L558 639.39L578 638C578 646.623 580.841 652.868 581.907 661C582.373 664.561 581.733 671.463 584.603 674.062C593.883 682.469 607.273 666.433 618 667.982C632.17 670.027 639.971 683.653 654 686.258C658.251 687.047 661.913 683.838 666 683.213C675.251 681.798 677.89 679.775 680.39 670C681.533 665.535 681 660.574 681 656L712 655C708.739 644.977 704.622 634.913 698.91 626C695.953 621.388 689.249 615.776 689.19 610C689.013 592.723 706.392 590.678 710.262 577C711.547 572.456 709.126 567.623 709.376 563C710.446 543.16 711.72 522.444 702.755 504C700.472 499.303 699.927 491.216 695.772 487.97C684.847 479.437 659.677 481.645 647 484z"/>
</svg>
