<?xml version="1.0" standalone="yes"?>
<svg xmlns="http://www.w3.org/2000/svg" width="932" height="1450">
<path style="fill:#010101; stroke:none;" d="M0 0L0 1450L932 1450L932 0L0 0z"/>
<path style="fill:#ffffff; stroke:none;" d="M181 405C193.022 410.006 195.535 420.554 192.391 433C191.436 436.78 188.495 441.015 188.893 445C189.547 451.549 197.494 455.79 199.501 462C203.748 475.144 201 492.332 201 506C228.646 500.791 254.504 492 283 492L283 481L278 481C277.99 468.15 266.563 464.584 259.56 454.625C256.327 450.026 259.773 444.124 258.721 439.005C257.444 432.796 243.926 425.826 238 425L239 417L230 419L230 413C226.145 412.921 220.775 413.028 217.225 411.401C213.975 409.911 213.985 405.938 211.49 403.738C208.45 401.057 203.621 401.644 200.04 400.121C190.239 395.954 185.284 390.128 181 405z"/>
</svg>
