<?xml version="1.0" standalone="yes"?>
<svg xmlns="http://www.w3.org/2000/svg" width="932" height="1450">
<path style="fill:#010101; stroke:none;" d="M0 0L0 1450L932 1450L932 0L0 0z"/>
<path style="fill:#ffffff; stroke:none;" d="M254 370C258.157 368.648 268.552 368.856 270.972 365.427C274.762 360.057 268.903 354.991 268.348 350C266.992 337.807 278.215 337.11 287 336C289.384 324.63 295.58 316.689 281 312.884C278.755 312.298 276.347 311.52 274 311.691C270.114 311.974 266.986 314.722 263 314.725C253.378 314.734 243.074 302.487 236.942 317.001C231.442 330.019 247.472 328.379 251.683 336.105C256.606 345.136 254 360.075 254 370z"/>
</svg>
