<?xml version="1.0" standalone="yes"?>
<svg xmlns="http://www.w3.org/2000/svg" width="932" height="1450">
<path style="fill:#010101; stroke:none;" d="M0 0L0 1450L932 1450L932 0L0 0z"/>
<path style="fill:#ffffff; stroke:none;" d="M258 203L259.103 216L253.593 227L255 252C262.064 256.123 270.691 258.938 276.786 264.529C282.632 269.89 281.954 277.245 291 279C293.97 274.025 297.317 272.469 303 272L309 300C317.76 300 335.37 306.84 339.397 295.999C340.623 292.698 340 288.467 340 285L370 285L373 249L363 248C363 232.971 358.432 222 342 222L342 208C331.706 208.812 319.94 209.471 310 212.301C304.686 213.814 299.691 218.42 294 218.121C285.04 217.65 280.156 210.533 273 206.394C268.591 203.845 262.959 203.627 258 203z"/>
</svg>
