<?xml version="1.0" standalone="yes"?>
<svg xmlns="http://www.w3.org/2000/svg" width="932" height="1450">
<path style="fill:#010101; stroke:none;" d="M0 0L0 1450L932 1450L932 0L0 0z"/>
<path style="fill:#ffffff; stroke:none;" d="M648 1114C649.471 1123.81 655.809 1132.63 660.799 1141C662.612 1144.04 664.229 1148.69 667.39 1150.57C675.819 1155.57 690.458 1154.52 700 1156.46C704.584 1157.4 720.771 1167.37 724.608 1160.4C726.094 1157.7 722.878 1153.71 722.48 1151C721.789 1146.3 723.312 1142.63 721.2 1138C718.78 1132.69 712.986 1128.55 711.453 1123C709.665 1116.53 715.391 1107.42 716.535 1101C718.133 1092.04 716 1081.21 716 1072L740 1078C741.913 1067.03 728.021 1064.13 727.383 1053C727.003 1046.38 728.754 1039.69 727.79 1033C727.205 1028.94 724.446 1025.19 724.995 1021C725.764 1015.13 730.165 1009.96 730.487 1004C731.005 994.405 727.477 986.19 729.225 976C730.312 969.663 736.28 965.517 736.888 959C737.57 951.694 732.095 946.787 730.695 940C729.538 934.387 731.873 928.465 733 923C728.193 920.869 721.479 920.138 717.318 916.914C714.561 914.779 715.574 911.102 713.397 908.637C710.311 905.144 702.341 900.51 698 898.858C692.268 896.676 686.687 901.738 681.425 900.339C674.906 898.606 673.385 889.297 666 888.148C658.992 887.058 648.52 889.671 642.419 885.062C639.822 883.1 630.645 867.977 630.067 864.996C628.666 857.77 634.819 849.838 623 848.144C615.802 847.113 602.212 851.151 596 854.858C592.366 857.026 589.959 861.2 586 862.802C580.781 864.914 565.934 863.804 560 863.53C552.472 863.183 542.304 856.355 537.028 865.301C535.501 867.89 536.074 871.23 534.914 874C532.438 879.917 527.453 884.281 527.044 891C526.325 902.802 530.107 918.608 522.005 928.697C517.173 934.715 506.415 931.237 500 931.043C490.493 930.756 484.633 937.3 482.005 946C479.269 955.057 488.61 961.653 489.941 970C491.243 978.167 481.385 983.378 484.603 991.995C486.261 996.434 490.353 997.096 493.581 999.839C496.129 1002 495.951 1006.05 498.563 1007.97C503.141 1011.34 511.434 1010.64 516.956 1014.32C523.268 1018.53 521.327 1026.87 526.513 1031.06C533.732 1036.9 544.497 1038.15 551.787 1045.33C565.785 1059.1 550.11 1085.85 562.699 1100.72C570.082 1109.45 584.947 1103.14 591.714 1096.78C594.923 1093.76 597.916 1088.55 603 1088.98C612.468 1089.78 608.721 1099.28 614.148 1103.64C618.614 1107.23 629.333 1116.76 635 1116.85C639.276 1116.92 643.467 1114.11 648 1114z"/>
</svg>
