<?xml version="1.0" standalone="yes"?>
<svg xmlns="http://www.w3.org/2000/svg" width="932" height="1450">
<path style="fill:#010101; stroke:none;" d="M0 0L0 1450L932 1450L932 0L0 0z"/>
<path style="fill:#ffffff; stroke:none;" d="M737 382C736.22 375.965 735.364 371.702 729 370C727.143 374.461 723.712 379.108 723.302 384C722.702 391.182 727.357 400.004 722.142 406.581C719.441 409.987 712.925 411.39 709 413C710.06 418.069 714.058 423.845 713.747 428.957C713.444 433.941 707.506 434.536 705.14 438.213C701.635 443.66 703.174 451.316 699.697 456.721C695.618 463.062 680.863 462.175 683.773 474C687.958 491.005 713.014 489.537 724.722 481.836C732.447 476.754 730.567 464.748 741 459.988C754.227 453.954 770.003 461.487 782.787 451.301C789.505 445.948 791.434 435.901 795.938 429.213C798.329 425.663 803.423 424.088 807 422L807.485 386L792 362L779.039 365.582L767 362.029L737 382z"/>
</svg>
