<?xml version="1.0" standalone="yes"?>
<svg xmlns="http://www.w3.org/2000/svg" width="932" height="1450">
<path style="fill:#010101; stroke:none;" d="M0 0L0 1450L932 1450L932 0L0 0z"/>
<path style="fill:#ffffff; stroke:none;" d="M699 489L710.61 527L712 551L724 545.458L736 545.141L765 534.464L785 537.313L799 529.14L820 531.486L832 525.873L853 528L867.247 482L882 461C873.882 457.502 866.83 453.73 866.613 444C866.382 433.705 875.546 415.084 859.895 409.052C855.958 407.535 851.538 410.331 848 411.85C839.585 415.461 829.937 421.882 821 423.595C812.663 425.193 804.858 420.921 797.564 427.966C791.083 434.226 790.298 447.393 781.895 452.586C768.317 460.977 753.185 454.963 740 460.988C729.958 465.577 732.75 476.427 725.581 482.143C719.448 487.033 706.51 486.889 699 489z"/>
</svg>
