<?xml version="1.0" standalone="yes"?>
<svg xmlns="http://www.w3.org/2000/svg" width="932" height="1450">
<path style="fill:#010101; stroke:none;" d="M0 0L0 1450L932 1450L932 0L0 0z"/>
<path style="fill:#ffffff; stroke:none;" d="M251 227C239.176 234.242 244.996 255.076 245 267C245.004 278.529 232.39 291.29 235.777 302.826C237.82 309.785 245.187 307.12 249.91 309.098C255.524 311.448 259.258 315.001 265.999 313.606C275.641 311.61 285.705 288.694 289 280C282.915 275.807 281.951 270.615 277.351 265.529C272.102 259.725 261.402 255.132 254 253C255.729 244.621 256.273 234.401 251 227z"/>
</svg>
