<?xml version="1.0" standalone="yes"?>
<svg xmlns="http://www.w3.org/2000/svg" width="932" height="1450">
<path style="fill:#010101; stroke:none;" d="M0 0L0 1450L932 1450L932 0L0 0z"/>
<path style="fill:#ffffff; stroke:none;" d="M244 231C234.612 230.806 225.798 228.859 218 223.366C208.696 216.814 199.158 205.242 186.105 207.488C182.031 208.188 180.333 213.761 178.757 217C172.612 229.629 177.37 243.507 173.034 256C171.092 261.595 165.859 270.391 170.028 276.363C171.571 278.573 174.766 279.591 177 280.923C180.564 283.048 184.56 286.468 189 286.215C196.374 285.796 201.359 276.215 209 274.808C219.975 272.786 227.226 285.432 236.961 283.593C242.304 282.583 243.91 276.625 243.995 272C244.247 258.34 243.999 244.649 244 231z"/>
</svg>
