<?xml version="1.0" standalone="yes"?>
<svg xmlns="http://www.w3.org/2000/svg" width="932" height="1450">
<path style="fill:#010101; stroke:none;" d="M0 0L0 1450L932 1450L932 0L0 0z"/>
<path style="fill:#ffffff; stroke:none;" d="M587 176L579 148L572.487 162.351L540 176C540.66 179.5 540.651 184.482 542.938 187.363C545.556 190.659 550.673 190.89 552.397 195.105C555.124 201.775 551.806 209.667 550 216C556.927 216.875 566.469 219.658 572.907 216.161C581.125 211.695 581.29 202.126 592 202L588 218C598.711 224.57 590.327 249.15 594 260C600.161 258.37 607.249 258.853 612.996 256.2C618.091 253.848 621.968 247.677 628 247.862C638.494 248.184 648.117 260.597 658 263.776C662.499 265.223 672.107 267.952 676.674 266.307C692.179 260.723 687.806 238.514 679.96 229.213C671.005 218.598 655.656 219.882 648 207C663.244 208.968 677.721 220.383 691.892 210.034C696.318 206.801 697.57 200.876 699.424 196C705.633 179.677 703.487 157.577 684 151.443C678.995 149.868 671.253 146.796 666 147.603C662.641 148.12 660.315 151.033 657 151.628C653.991 152.169 651.035 150.02 648.089 151.212C644.87 152.516 643.321 156.137 639.985 157.397C635.039 159.264 629.922 157.293 625.109 160.367C620.105 163.564 620.801 170.021 614.982 172.633C607.497 175.991 595.282 174.948 587 176z"/>
</svg>
