<?xml version="1.0" standalone="yes"?>
<svg xmlns="http://www.w3.org/2000/svg" width="932" height="1450">
<path style="fill:#010101; stroke:none;" d="M0 0L0 1450L932 1450L932 0L0 0z"/>
<path style="fill:#ffffff; stroke:none;" d="M245 399L245 417L240 417C237.997 428.416 251.748 428.21 257.427 435.133C262.288 441.059 256.919 447.456 259.6 453.625C264.576 465.077 278.851 466.639 279 480L289 479C289.757 483.715 291.356 485.751 296 487C298.193 484.089 302.087 480.701 302.748 477C303.42 473.239 299.902 469.436 298.785 466C296.664 459.469 295.189 451.85 294.684 445C293.804 433.076 305.414 421.699 301.566 409.109C300.029 404.079 293.314 404.056 289 404.004C282.05 403.92 273.775 404.226 267 402.697C257.716 400.601 255.274 397.064 245 399z"/>
</svg>
