<?xml version="1.0" standalone="yes"?>
<svg xmlns="http://www.w3.org/2000/svg" width="932" height="1450">
<path style="fill:#010101; stroke:none;" d="M0 0L0 1450L932 1450L932 0L0 0z"/>
<path style="fill:#ffffff; stroke:none;" d="M347 398C346.621 414.12 334.414 412 322 412C321.883 402.127 304.702 395.318 302.603 406.059C301.482 411.799 302.845 418.049 301.472 424C299.866 430.961 294.778 437.667 295.468 445C296.147 452.202 297.55 460.117 299.785 467C300.733 469.917 303.868 473.43 303.493 476.576C302.757 482.748 295.492 487.331 290 486C290.173 494.4 292.015 508.372 304 505.053C309.404 503.557 313.066 498.431 319 498.912C330.316 499.83 342.517 507.723 352.582 499.034C361.088 491.691 358 470.108 358 460C362.464 462.954 379.154 477.025 382.292 466.825C383.389 463.257 380.204 459.749 380.894 456C381.737 451.412 384.175 448.761 382.188 444.001C378.825 435.942 369.848 436.831 366.97 428.995C364.443 422.117 369.254 410.387 364.972 404.563C361.977 400.49 351.658 399.489 347 398z"/>
</svg>
