<?xml version="1.0" standalone="yes"?>
<svg xmlns="http://www.w3.org/2000/svg" width="932" height="1450">
<path style="fill:#010101; stroke:none;" d="M0 0L0 1450L932 1450L932 0L0 0z"/>
<path style="fill:#ffffff; stroke:none;" d="M470 348C457.088 349.667 455.773 353.785 446.674 361.487C444.293 363.503 440.938 363.657 438.637 365.728C435.931 368.163 435.436 372.958 431.787 374.357C428.628 375.568 424.347 373.903 421 374.093C407.941 374.837 397.874 372.656 385 370C384.128 373.536 383.979 377.768 381.486 380.621C375.455 387.524 368.526 386.687 367.285 397C366.263 405.503 364.188 423.294 368.457 430.891C372.337 437.797 381.051 436.502 383.435 446C384.508 450.274 381.29 453.786 381.398 458C381.475 461.004 383.825 463.904 382.764 466.911C381.656 470.05 378.578 471.286 378.897 475.015C380.049 488.441 391.136 488.667 399.826 495.637C410.45 504.158 411.852 514 427 514L430 537C434.932 535.716 437.249 532.443 441.17 529.498C444.933 526.672 451.038 527.519 454.258 524.262C463.312 515.104 454.724 498.143 457.017 488C459.693 476.162 472.901 464.813 477.648 453C480.711 445.377 478.04 435.239 482.857 428.184C488.455 419.986 503.959 413.526 513 410.065C516.805 408.608 524.51 407.957 526.972 404.487C531.925 397.507 523.727 388.074 525.503 381C526.943 375.267 532.662 372.636 531.782 366C529.808 351.103 514.024 332.512 502.715 323.514C498.831 320.424 488.728 317.782 484.144 320.322C479.46 322.917 480 329.869 477.273 333.961C473.776 339.208 470.552 341.308 470 348z"/>
</svg>
