<?xml version="1.0" standalone="yes"?>
<svg xmlns="http://www.w3.org/2000/svg" width="932" height="1450">
<path style="fill:#010101; stroke:none;" d="M0 0L0 1450L932 1450L932 0L0 0z"/>
<path style="fill:#ffffff; stroke:none;" d="M181 403C186.486 389.828 189.494 394.668 199.184 399.121C203.046 400.896 208.148 400.124 211.581 402.857C214.155 404.906 214.214 408.903 217.278 410.411C221.137 412.312 226.803 411.988 231 412L231 418L244 416L244 398L257 396L248 377L233 381C231.119 372.773 232.277 355.212 226.987 348.728C224.903 346.173 219.923 345.874 217 344.667C198.114 336.866 171.649 354.051 166.873 373C164.057 384.177 167.185 400.475 181 403z"/>
</svg>
