<?xml version="1.0" standalone="yes"?>
<svg xmlns="http://www.w3.org/2000/svg" width="932" height="1450">
<path style="fill:#010101; stroke:none;" d="M0 0L0 1450L932 1450L932 0L0 0z"/>
<path style="fill:#ffffff; stroke:none;" d="M282 859C287.119 877.173 272.635 891.47 280.89 909.815C284.092 916.932 293.417 916.652 298.961 920.564C301.808 922.573 303.626 926.198 307.039 927.357C314.141 929.77 322.528 926.31 329.907 930.314C334.513 932.814 335.773 939.33 342.004 938.515C350.283 937.433 356.777 929.568 365 928.345C369.85 927.624 374.244 932.196 379 930.853C389.915 927.77 404.095 915.197 416.787 918.89C427.516 922.011 409.678 934.976 420.185 940.346C429.866 945.295 441.162 934.322 451 934.475C461.12 934.631 469.277 945.98 480 948C484.029 941.096 486.521 933.194 495 930.649C504.672 927.746 518.741 936.692 523.676 923.995C528.221 912.302 522.94 899.533 526.699 888C534.45 864.22 562.89 841.061 555.682 813.015C554.645 808.979 550.665 807.418 548.777 803.961C546.678 800.118 549.971 795.832 546.667 792.303C538.691 783.783 518.391 788.089 508 784.66C497.137 781.074 490.186 769.816 479 766.444C470.828 763.981 467.359 769.686 460 771.181C455.667 772.062 451.356 769.738 447 770.418C438.133 771.802 424.113 777.407 416.213 781.652C407.99 786.071 404.305 801.541 399.146 808.79C393.305 816.996 380.38 819.641 373.618 826.965C370.821 829.995 372.598 836.864 370.2 840.945C367.31 845.863 357.15 849.245 352 851.688C337.941 858.356 334.869 846.699 323 845.163C310.086 843.491 293.061 853.109 282 859z"/>
</svg>
