<?xml version="1.0" standalone="yes"?>
<svg xmlns="http://www.w3.org/2000/svg" width="932" height="1450">
<path style="fill:#010101; stroke:none;" d="M0 0L0 1450L932 1450L932 0L0 0z"/>
<path style="fill:#ffffff; stroke:none;" d="M459 132C454.204 131.01 448.934 128.735 444 129.557C431.674 131.611 418.874 140.457 406 138.292C387.527 135.184 367.306 129.459 350 123.272C345.19 121.553 341.942 116.965 337 115.513C330.91 113.724 324.339 116.538 318 115.112C305.508 112.3 288.747 104.906 276 110.075C266.734 113.832 265.224 120.837 259.61 128C255.2 133.625 245.132 138.598 242.618 145.171C240.459 150.816 244.307 158.537 245.468 164C246.396 168.373 244.607 172.621 245.217 177C246.278 184.616 251.21 189.172 255.277 195.089C256.737 197.213 257.168 200.19 259.43 201.682C262.719 203.852 267.422 203.061 271 204.849C279.343 209.017 284.656 217.587 295 217.487C300.651 217.432 305.665 212.819 311 211.301C320.94 208.471 332.706 207.812 343 207L343 221C358.6 221 364 232.798 364 247L387 248.96L399.61 248.198L405.352 256.79L414.411 264.379L417.938 272.272L428.721 276.314L433 288C438.745 287.952 452.505 290.597 456.981 288.473C465.686 284.341 463.824 259.539 464 251L506 264L506 233C518.064 236.498 522.755 241.498 530.123 251C532.545 254.124 536.545 257.61 535.589 262C534.076 268.942 525.097 272.236 523.442 279C522.588 282.489 526.036 285.412 525.652 289C524.205 302.532 511.676 313.126 502 321L502 322C509.666 330.775 518.172 339.382 524.779 349C527.759 353.337 529.128 360.934 533.394 364.062C536.972 366.685 542.798 366.024 547 366.576C555.086 367.638 567.504 369.522 570.824 359.999C572.563 355.012 568.999 349.955 568.638 345C567.784 333.273 570.001 320.003 570 308C570 303.404 568.025 296.348 569.618 292.093C573.39 282.02 591.349 280.895 595.381 270.7C597.133 266.27 592.967 260.323 592.015 256C589.78 245.839 597.353 224.346 587 218L591 203C580.768 203.122 580.165 213.001 571.985 217.16C565.071 220.675 555.44 217.153 548 217C551.358 211.219 554.513 201.016 551.397 194.39C549.773 190.94 544.97 190.403 542.564 187.61C539.789 184.388 539.756 179.013 539 175C547.859 172.95 566.235 168.683 572.272 161.582C575.646 157.614 576.301 150.646 579 146L588 175C595.696 174.022 609.282 175.257 615.891 171.543C621.683 168.289 620.948 161.242 628.001 158.353C632.206 156.63 636.832 158.007 640.911 156.397C644.099 155.138 645.686 151.524 649.015 150.546C652.847 149.419 656.082 152.247 659.981 150.106C665.004 147.347 663.552 143.175 666.603 139.39C669.527 135.762 675.323 135.205 677.972 131.366C688.004 116.828 669.606 98.535 661 90L660 90C656.422 92.9034 651.54 95.864 649.434 100.089C643.672 111.645 643.354 129.145 628.985 135.485C620.734 139.126 619.975 130.572 613.816 128.148C603.657 124.15 591.98 132.414 582.39 124.297C571.509 115.087 580.09 96.7294 565 90.4993C559.673 88.2998 553.498 89.0723 548 87.3773C544.061 86.163 540.323 82.9398 536 83.7423C523.745 86.0173 519.248 94.606 506 91C507.14 86.9812 510.038 81.1888 509.096 77C506.311 64.6033 493.097 70.0369 487.184 76.105C472.038 91.6495 463.308 111.128 459 132z"/>
</svg>
