<?xml version="1.0" standalone="yes"?>
<svg xmlns="http://www.w3.org/2000/svg" width="932" height="1450">
<path style="fill:#010101; stroke:none;" d="M0 0L0 1450L932 1450L932 0L0 0z"/>
<path style="fill:#ffffff; stroke:none;" d="M233 958C232.685 954.013 232.589 948.618 229.566 945.637C224.927 941.063 211.636 934.776 211.636 927C211.636 923.491 215.455 921.391 217.274 918.83C219.233 916.071 219.837 912.817 222.228 910.289C227.716 904.487 238.21 900.751 233.633 891.059C230.85 885.165 223.831 887.987 219 884.853C209.543 878.716 198.909 870.436 187 869.731C181.942 869.431 177.357 873.644 173 875.677C161.951 880.832 153.943 879.768 145.807 890C142.206 894.529 136.541 902.796 139.114 909C140.99 913.523 147.394 916.756 147.434 922C147.503 930.998 131.413 941.485 127.274 950C125.367 953.923 126.858 960.316 124.357 963.363C121.241 967.159 114.375 968.469 110 970.204C101.418 973.606 92.992 977.763 86.044 983.921C75.8461 992.958 79.0552 1009.53 73.3194 1021C67.6614 1032.32 56.359 1036.41 49.348 1046.04C46.1761 1050.4 41.7306 1055.7 40.419 1061C39.0534 1066.52 40.2754 1072.42 38.4421 1077.96C36.8839 1082.66 30.2586 1084.19 31.6582 1090C33.8183 1098.97 44.3504 1096.93 51 1095.24C62.6488 1092.28 78.8838 1083.43 91 1086.05C103.405 1088.74 109.431 1101.23 121 1104.15C125.73 1105.35 135.254 1102.38 139.91 1100.77C145.299 1098.91 147.788 1092.46 153.001 1089.84C161.658 1085.49 170.656 1084.5 178.772 1078.03C183.392 1074.35 184.784 1068.51 190.001 1064.71C199.096 1058.08 211.436 1051.11 218.137 1042C223.257 1035.04 220.533 1026.01 226.1 1019C233.492 1009.69 248.726 1007.31 254.972 998.363C257.683 994.479 255.57 987.341 255.376 983C255.154 978.034 258.516 972.922 257.476 968.044C255.825 960.302 239.357 958.856 233 958z"/>
</svg>
