<?xml version="1.0" standalone="yes"?>
<svg xmlns="http://www.w3.org/2000/svg" width="932" height="1450">
<path style="fill:#010101; stroke:none;" d="M0 0L0 1450L932 1450L932 0L0 0z"/>
<path style="fill:#ffffff; stroke:none;" d="M299 507C300.306 511.636 300.794 517.784 303.728 521.7C306.833 525.844 312.936 527.981 312.857 534C312.715 544.815 295.492 560.911 306.51 571.437C317.433 581.872 337.991 571.223 351 574.63C355.961 575.93 362.835 582.724 367.826 581.049C373.614 579.106 376.972 570.499 382.004 566.943C385.961 564.147 399.068 566.653 399.292 560.891C399.596 553.062 392.055 548.286 386 545.792C380.948 543.712 377.202 539.272 372 537.72C365.757 535.857 356.679 536.99 351.318 532.911C346.401 529.17 350.773 521.11 344.671 517.303C339.874 514.311 319.602 517.433 325.444 507.025C326.425 505.278 327.868 503.655 329 502C315.797 497.529 311.207 504.439 299 507z"/>
</svg>
