<?xml version="1.0" standalone="yes"?>
<svg xmlns="http://www.w3.org/2000/svg" width="932" height="1450">
<path style="fill:#010101; stroke:none;" d="M0 0L0 1450L932 1450L932 0L0 0z"/>
<path style="fill:#ffffff; stroke:none;" d="M194 591C192.054 608.935 166.538 612.133 163.6 630C161.22 644.465 172.97 658.335 175.385 672C177.071 681.537 176.123 691.434 177.425 701C178.505 708.936 182.254 717.059 182.414 725C182.559 732.226 178.511 739.841 179.589 747C180.595 753.684 187.188 758.664 189.298 765C194.113 779.459 189.106 789.823 205 799C207.413 795.799 210.753 789.81 215.039 789.083C222.591 787.801 235.98 801.618 240.1 807.004C248.355 817.795 248.037 832.144 250.147 844.985C251.063 850.559 257.065 853.149 257.992 859C260.077 872.172 241.842 881.901 232 886C233.364 889.281 236.155 893.287 235.577 896.985C234.633 903.025 222.063 912.33 218.274 917.961C216.146 921.122 211.616 923.563 212.377 927.964C213.965 937.153 226.362 940.112 231.142 946.39C233.684 949.73 232.242 955.047 236.279 957.347C242.418 960.846 252.458 959.045 257.127 965.394C260.664 970.202 255.942 977.627 256.209 983C256.434 987.522 258.463 993.565 255.972 997.787C251.152 1005.96 236.233 1007.99 229.59 1015.1C220.218 1025.15 223.966 1038.26 212.985 1047.68C202.929 1056.3 184.916 1063.14 182 1077C192.529 1082.52 204.397 1078.14 215 1074.9C221.196 1073.01 227.471 1075.32 232.981 1071.14C238.509 1066.94 236.59 1062.43 239.314 1057C241.933 1051.78 246.959 1048.14 249.698 1043C252.353 1038.02 252.578 1032.11 255.263 1027C260.147 1017.7 269.233 1011.85 274.861 1003.62C281.451 993.99 282.307 982.042 295 976.514C311.629 969.272 322.655 994.95 334.015 1000.72C341.983 1004.77 355.337 997.957 364 996.562C371.351 995.378 378.542 992.366 386 992.039C393.216 991.723 400.904 994.48 408 992.351C418.273 989.27 427.055 978.699 438 977.677C453.795 976.202 466.106 990.699 482.675 983.397C490.679 979.869 490.32 969.482 486.951 963C480.7 950.974 469.794 942.04 457 936.513C444.753 931.223 432.559 946.47 421.04 941.333C408.426 935.706 426.654 922.967 416.786 919.773C403.797 915.569 389.423 929.471 378 931.454C373.132 932.299 368.985 927.81 364 929.07C356.339 931.008 349.027 939.175 341.004 939.265C335.225 939.331 333.852 932.316 328.907 930.533C321.992 928.04 314.593 930.051 308.004 928.227C304.081 927.141 302.229 922.98 298.91 920.938C293.517 917.618 287.101 917.177 282.279 912.471C270.475 900.952 281.499 884.224 283.446 872C284.187 867.345 282.249 862.433 281 858C294.466 854.317 306.771 844.35 321 844.228C327.44 844.173 330.533 850.674 336 852.897C344.123 856.201 361.487 848.196 367.61 843.262C373.346 838.639 369.095 830.974 373.357 826.637C378.787 821.113 407.703 810.401 398.643 799.29C393.371 792.825 387.614 795.758 381 793.4C374.707 791.157 370.599 784.902 364 782.942C350.341 778.886 327.43 782.704 318.252 768.956C313.698 762.136 317.824 755.297 318.685 748C319.455 741.479 318.401 733.643 318.515 727C318.671 717.882 308.623 712.803 307.56 704C306.648 696.445 311.458 690.171 311.944 683C312.378 676.619 308.095 671.14 308.77 665C309.46 658.729 313.473 652.347 310.195 646.148C307.533 641.114 300.788 644.79 297.044 639.941C293.674 635.576 295.441 629.055 292.382 625.587C289.029 621.786 281.39 624.909 277 625L277 621C269.513 622.566 262.841 626.125 255.105 622.968C252.294 621.82 251.239 618.85 248.61 617.599C245.021 615.889 241.449 616.491 238.279 613.467C235.647 610.957 236.012 606.058 233.262 604.067C229.186 601.118 221.92 605.68 217 602.944C209.992 599.046 202.037 591.262 194 591z"/>
</svg>
