<?xml version="1.0" standalone="yes"?>
<svg xmlns="http://www.w3.org/2000/svg" width="932" height="1450">
<path style="fill:#010101; stroke:none;" d="M0 0L0 1450L932 1450L932 0L0 0z"/>
<path style="fill:#ffffff; stroke:none;" d="M38 1098C41.822 1104.97 49.5284 1105.36 56 1108.9C66.1869 1114.49 77.9688 1122.46 85.7863 1131.09C91.7112 1137.63 94.7483 1150.33 93.2917 1159C92.142 1165.85 87.3479 1173.26 91.3711 1179.95C97.6205 1190.33 114.452 1185.42 122.961 1192.3C129.652 1197.72 132.566 1205.44 136.005 1212.98C138.187 1217.77 143.829 1219.92 145.106 1225.02C146.163 1229.23 144.18 1233.75 144.043 1238C143.578 1252.42 140.948 1263.76 138 1278L118 1272C115.161 1278.17 118.823 1283.58 117.851 1290C117.057 1295.25 111.651 1297.21 110.113 1302.01C107.711 1309.52 110.651 1318.82 107.757 1327C105.409 1333.63 96.3632 1340.35 100.434 1347.79C105.371 1356.81 119.924 1352.3 125.175 1362.02C129.898 1370.75 129.852 1384.1 118 1386C120.713 1400.8 137.868 1386.33 146 1384.81C151.065 1383.86 156.155 1387.44 160.576 1383.68C166.609 1378.55 174.616 1370.45 179.006 1363.91C181.176 1360.68 181.81 1355.15 185.39 1353.07C188.722 1351.12 194.153 1353.27 198 1352.21C214.254 1347.77 239.477 1344.97 256 1351.26C261.338 1353.29 263.911 1358.09 268.09 1361.61C275.094 1367.5 286.727 1371.91 295.961 1371.57C300.075 1371.41 302.13 1367.29 306.004 1366.32C311.306 1364.99 317.362 1369.76 322 1367.29C329.142 1363.49 338.338 1357.84 344.961 1352.96C348.598 1350.28 351.328 1346 356.001 1345.05C366.799 1342.85 378.194 1355.29 388 1357.94C393.026 1359.3 397.408 1355.3 402 1356.56C417.343 1360.76 409.772 1373.85 411.987 1383C413.62 1389.74 420.385 1391 424.397 1395.63C429.583 1401.62 425.334 1410.27 436 1412C435.04 1406.91 433.153 1400.97 435.434 1396C437.369 1391.78 443.551 1388.3 442.623 1383.09C440.998 1373.98 423.073 1372.76 419.598 1362C417.388 1355.16 423.644 1345.41 425.768 1339C427.573 1333.55 427 1327.67 427 1322C432.834 1323.1 440.239 1323.67 444.487 1328.39C450.626 1335.21 448.899 1343.64 460.956 1343.77C470.911 1343.88 463.403 1330.8 466.774 1326.47C469.227 1323.32 474.841 1325.22 478 1326C472.409 1308.33 457.358 1294.59 461.67 1275C462.978 1269.06 468.448 1259.9 472.513 1255.39C477.526 1249.82 482.874 1249.07 482.566 1240.04C482.3 1232.27 470.49 1231.09 468.665 1224.33C467.086 1218.49 476.544 1209.95 477.57 1204C479.509 1192.76 474.001 1179.5 474 1168C481.863 1167.91 486.693 1159.96 481.972 1152.52C476.489 1143.87 465.764 1138.93 462.617 1128C461.169 1122.97 465.505 1120.55 466.057 1116C466.769 1110.13 460.44 1104.98 461.422 1099.04C462.36 1093.37 470.118 1092.67 472.972 1088.39C475.681 1084.33 472.034 1079.31 473.158 1075C474.366 1070.37 479.146 1067.64 480.482 1063C481.445 1059.66 479.855 1056.32 480.603 1053C481.817 1047.61 486.238 1043.88 486.607 1038C486.875 1033.71 483.206 1029.26 484.647 1025.1C486.552 1019.61 495.074 1020.33 496.681 1014.79C500.729 1000.83 483.149 997.646 483 985C476.888 985 467.665 987.445 462 985.773C453.548 983.279 446.773 977.04 437 978.48C426.004 980.1 417.432 990.222 407 993.351C399.065 995.731 390.202 992.128 382 993.3C368.378 995.246 353.459 1002.51 340 1003C331.714 1003.3 327.101 994.573 322.705 989.105C317.213 982.273 303.832 974.097 295 977.148C282.463 981.479 281.578 993.459 275.861 1002.9C271.273 1010.47 262.29 1016.12 257.352 1024.04C253.809 1029.72 253.734 1036.3 250.698 1042C247.959 1047.14 242.933 1050.78 240.314 1056C236.799 1063.01 238.701 1067.8 231 1072.85C226.287 1075.94 221.205 1074.34 216 1075.38C207.554 1077.07 199.932 1080.91 191 1080.65C187.219 1080.53 183.824 1078.02 180 1078.74C174.452 1079.79 169.788 1084.21 165 1086.89C160.579 1089.37 155.42 1088.76 151.039 1091.37C147.179 1093.67 145.378 1097.84 141.826 1100.4C138.055 1103.12 128.633 1104.73 124 1105.06C112.511 1105.88 102.55 1088.55 90 1086.55C74.2076 1084.04 53.8853 1095.99 38 1098z"/>
</svg>
