<?xml version="1.0" standalone="yes"?>
<svg xmlns="http://www.w3.org/2000/svg" width="932" height="1450">
<path style="fill:#010101; stroke:none;" d="M0 0L0 1450L932 1450L932 0L0 0z"/>
<path style="fill:#ffffff; stroke:none;" d="M221 81C222.052 89.2837 224.888 98.7866 222.034 107C215.635 125.412 193.597 133.888 186.715 152C181.691 165.22 193.065 172.072 193.659 184C194.013 191.12 186.266 199.051 184 206C190.536 206.827 197.209 207.659 203 211.074C216.725 219.169 232.901 238.719 250.816 226.647C270.89 213.12 248.449 192.458 244.638 178C243.497 173.672 245.304 169.379 244.811 165C244.143 159.066 239.77 152.161 241.693 146.039C243.453 140.435 251.999 136.144 255.957 131.996C260.463 127.273 262.132 120.941 266.39 116.185C273.724 107.995 282.945 108 293 108C289.974 100.199 286.985 89.3712 280.471 83.6991C275.472 79.3452 267.045 80.1503 263.558 73.895C258.053 64.0215 260.673 47.9686 254.142 39.3904C250.412 34.4916 237.121 28.2736 231.564 32.9382C227.138 36.6541 228.273 45.1011 229.08 50C231.184 62.7631 234.649 74.6173 221 81z"/>
</svg>
