<?xml version="1.0" standalone="yes"?>
<svg xmlns="http://www.w3.org/2000/svg" width="932" height="1450">
<path style="fill:#010101; stroke:none;" d="M0 0L0 1450L932 1450L932 0L0 0z"/>
<path style="fill:#ffffff; stroke:none;" d="M401 801L402 801C406.46 795.462 409.688 785.919 415.213 781.728C421.513 776.949 440.075 770.366 448 769.549C452.026 769.133 455.985 771.142 460 770.517C465.406 769.675 469.277 764.534 475 764.882C480.541 765.219 484.997 769.107 490 771L484.155 730L478.487 709.419L453 695L452 695L443 705C442.306 701.971 441.455 698.982 440.576 696C440.003 694.058 439.475 691.97 438.442 690.21C427.812 672.092 418.425 702.211 411.816 705.972C406.482 709.007 398.802 705.912 393 707.43C380.905 710.594 369.657 726.206 367.1 738C366.065 742.77 370.769 746.643 372.058 751C374.692 759.907 375.458 770.748 376.557 780C376.953 783.336 375.335 787.863 377.618 790.682C380.566 794.323 386.058 792.373 390 793.314C394.338 794.35 397.828 798.081 401 801z"/>
</svg>
