<?xml version="1.0" standalone="yes"?>
<svg xmlns="http://www.w3.org/2000/svg" width="932" height="1450">
<path style="fill:#010101; stroke:none;" d="M0 0L0 1450L932 1450L932 0L0 0z"/>
<path style="fill:#ffffff; stroke:none;" d="M348 332L337 329L339 348C333.373 348 327.595 347.623 322 348.286C317.06 348.871 313.905 349.24 310.486 353.044C307.888 355.934 304.335 358.469 302.653 362.039C296.575 374.941 306.01 388.094 305 401C313.345 400.641 322.182 400.175 323 411C336.048 411 345.954 413.141 346 397L366 403C366.346 386.249 381.101 385.388 384 370C375.752 366.842 364.627 365.108 358.854 357.61C355.262 352.944 358.245 348.94 358.221 344C358.185 336.513 356.978 328.819 357 321C349.818 321.236 349.293 325.735 348 332z"/>
</svg>
