<?xml version="1.0" standalone="yes"?>
<svg xmlns="http://www.w3.org/2000/svg" width="1231" height="874">
<path style="fill:#010101; stroke:none;" d="M0 0L0 874L1231 874L1231 0L0 0z"/>
<path style="fill:#ffffff; stroke:none;" d="M719 430L716 454L721 462C727.213 466.908 728.363 474.998 738 473L738 476L739 476L738 474L739 474L740 488C747.686 488 759.791 486.191 763 495L774.715 488.393L789 495L791 484L817 464L816 461L817 460L820 461C821.421 456.517 823.321 451.29 819 448L819 447L821 445L817 444L813 448L812 448C809.682 445.26 807.129 445.732 804 447L800 442L799 449L788 467L785 466L784 470C767.168 465.933 779.793 460.084 785 450L782 451L780 455L781 451L773 450L772 450C770.834 444.559 764.012 448.944 760 448.944C750.896 448.944 749 445.374 749 437L741 438C740.124 431.371 724.324 431.347 719 430z"/>
<path style="fill:#fbfafb; stroke:none;" d="M732.333 434.667L732.667 435.333L732.333 434.667z"/>
<path style="fill:#f7f7f7; stroke:none;" d="M733 435L734 436L733 435z"/>
<path style="fill:#fbfafb; stroke:none;" d="M734.667 435.333L735.333 435.667L734.667 435.333M741.667 437.333L742.333 437.667L741.667 437.333z"/>
<path style="fill:#f7f7f7; stroke:none;" d="M743 437L744 438L743 437z"/>
<path style="fill:#fbfafb; stroke:none;" d="M743 439L744 440L743 439M804 444L804 447L806 446L806 445L804 444M819 444L820 445L819 444M816 445L817 446L816 445M748 446L749 447L748 446z"/>
<path style="fill:#f7f7f7; stroke:none;" d="M806 446L807 447L806 446M812.333 446.667L812.667 447.333L812.333 446.667z"/>
<path style="fill:#fbfafb; stroke:none;" d="M715.333 447.667L715.667 448.333L715.333 447.667M750 447L751 448L750 447M767 447L768 448L767 447M806.667 447.333L807.333 447.667L806.667 447.333M815.667 447.333L816.333 447.667L815.667 447.333z"/>
<path style="fill:#f7f7f7; stroke:none;" d="M819 447L820 448L819 447z"/>
<path style="fill:#fbfafb; stroke:none;" d="M820 447L821 448L820 447M772.333 448.667L772.667 449.333L772.333 448.667z"/>
<path style="fill:#f2f2f2; stroke:none;" d="M798 448L799 449L798 448z"/>
<path style="fill:#fbfafb; stroke:none;" d="M774 449L775 450L774 449M783 450L784 451L783 450M756 451L756 452L765 452L756 451M773 451L774 452L773 451M781 451L780 455L781 455L783 452L781 451M798.667 451.333L799.333 451.667L798.667 451.333M716 452L717 453L716 452M717 453L717 454L720 454L720 453L717 453z"/>
<path style="fill:#f7f7f7; stroke:none;" d="M781 453L782 454L781 453z"/>
<path style="fill:#fbfafb; stroke:none;" d="M778 456L779 457L778 456M821.333 456.667L821.667 457.333L821.333 456.667M719 458L720 459L719 458M795 458L796 459L795 458M793 459L794 460L793 459M820 459L821 460L820 459M720.667 460.333L721.333 460.667L720.667 460.333M816 463L819 460L816 463M772.667 461.333L773.333 461.667L772.667 461.333z"/>
<path style="fill:#f7f7f7; stroke:none;" d="M817 461L818 462L817 461z"/>
<path style="fill:#f2f2f2; stroke:none;" d="M790 462L791 463L790 462z"/>
<path style="fill:#fbfafb; stroke:none;" d="M726 464L726 466L728 464L726 464M812 464L813 465L812 464M787.333 465.667L787.667 466.333L787.333 465.667z"/>
<path style="fill:#f7f7f7; stroke:none;" d="M809 465L811 467L809 465M727 466L728 467L727 466z"/>
<path style="fill:#fbfafb; stroke:none;" d="M785 467L786 468L785 467z"/>
<path style="fill:#f2f2f2; stroke:none;" d="M728 468L729 469L728 468z"/>
<path style="fill:#fbfafb; stroke:none;" d="M731 468L732 469L731 468M782 468L782 470L784 470L782 468z"/>
<path style="fill:#f7f7f7; stroke:none;" d="M783 468L784 469L783 468z"/>
<path style="fill:#fbfafb; stroke:none;" d="M807 468L808 469L807 468M781 470L782 471L781 470M805 470L806 471L805 470z"/>
<path style="fill:#f7f7f7; stroke:none;" d="M772 471L773 472L772 471M804 471L805 472L804 471z"/>
<path style="fill:#fbfafb; stroke:none;" d="M730 472L731 473L730 472M733 473L734 474L733 473M735 475L738 473L735 475z"/>
<path style="fill:#f7f7f7; stroke:none;" d="M738 474L739 475L738 474z"/>
<path style="fill:#fbfafb; stroke:none;" d="M739.333 474.667L739.667 475.333L739.333 474.667M741.333 478.667L741.667 479.333L741.333 478.667M794 480L795 481L794 480M792 481L793 482L792 481M743.333 482.667L743.667 483.333L743.333 482.667z"/>
<path style="fill:#f7f7f7; stroke:none;" d="M772 484L773 485L772 484z"/>
<path style="fill:#fbfafb; stroke:none;" d="M791 484L792 485L791 484M788 485L789 486L788 485M790 485L791 486L790 485M755 488L756 489L755 488M769 488L770 489L769 488M760 490L762 495L763 495L760 490M768 490L769 491L768 490M782 492L783 493L782 492M784 492L784 493L788 493L784 492z"/>
</svg>
