<?xml version="1.0" standalone="yes"?>
<svg xmlns="http://www.w3.org/2000/svg" width="1231" height="874">
<path style="fill:#010101; stroke:none;" d="M0 0L0 874L1231 874L1231 0L0 0z"/>
<path style="fill:#fbfafb; stroke:none;" d="M786 502L787 503L786 502M783.667 503.333L784.333 503.667L783.667 503.333z"/>
<path style="fill:#ffffff; stroke:none;" d="M765 518L763 517L762 518L764 534L764 552L764 553L761 553L761 554L767 553C766.071 562.238 758.361 587.827 773 588L774 584C779.138 583.122 782.615 578.936 784 574C789.776 573.851 796.488 567.511 798 562L793 560L788 548L782.059 533L785 505L787 503C779.831 504.504 769.104 511.913 765 518z"/>
<path style="fill:#f6f6f6; stroke:none;" d="M785 505L787 507L785 505z"/>
<path style="fill:#fbfafb; stroke:none;" d="M779 506L778 508L779 506M785 506L786 507L785 506z"/>
<path style="fill:#f6f6f6; stroke:none;" d="M783 507L784 508L783 507z"/>
<path style="fill:#fbfafb; stroke:none;" d="M775 509L776 510L775 509M774 510L773 512L775 512L774 510M764 517L765 518L764 517M761 518L762 519L761 518M765 518L766 519L765 518z"/>
<path style="fill:#f6f6f6; stroke:none;" d="M764 519L765 520L764 519z"/>
<path style="fill:#f2f2f2; stroke:none;" d="M767 519L768 520L767 519z"/>
<path style="fill:#fbfafb; stroke:none;" d="M762.333 520.667L762.667 521.333L762.333 520.667M763.333 523.667L763.667 524.333L763.333 523.667M782 524L783 525L782 524M762.667 533.333L763.333 533.667L762.667 533.333M785 542L786 543L785 542M763 545L764 546L763 545M762 547L763 548L762 547M788.667 547.333L789.333 547.667L788.667 547.333M790 551L791 552L790 551M762 552L763 553L762 552z"/>
<path style="fill:#f2f2f2; stroke:none;" d="M763 552L764 553L763 552z"/>
<path style="fill:#fbfafb; stroke:none;" d="M765 553L765 556L766 556L765 553z"/>
<path style="fill:#f6f6f6; stroke:none;" d="M766 553L767 554L766 553M762 554L763 555L762 554M765 554L766 555L765 554z"/>
<path style="fill:#fbfafb; stroke:none;" d="M788 554L789 555L788 554M790 554L791 555L790 554M791 555L792 556L791 555M766 556L767 557L766 556M792 556L793 557L792 556M767 558L768 559L767 558M792 558L793 559L792 558M793 559L794 560L793 559M792 560L793 561L792 560M767 561L766 564L767 561M794 561L795 562L794 561M794 563L792 568L796 563L794 563M797.667 563.333L798.333 563.667L797.667 563.333M763 568L764 569L763 568M789 569L790 570L789 569M766 572L768 574L766 572z"/>
<path style="fill:#f6f6f6; stroke:none;" d="M788 572L789 573L788 572z"/>
<path style="fill:#fbfafb; stroke:none;" d="M784.333 574.667L784.667 575.333L784.333 574.667M782 576L783 577L782 576M780 578L781 579L780 578M765 580L765 584L766 584L765 580M766 584L767 585L766 584M774.333 584.667L774.667 585.333L774.333 584.667M772.667 586.333L773.333 586.667L772.667 586.333z"/>
</svg>
