<?xml version="1.0" standalone="yes"?>
<svg xmlns="http://www.w3.org/2000/svg" width="1231" height="874">
<path style="fill:#010101; stroke:none;" d="M0 0L0 874L1231 874L1231 0L0 0z"/>
<path style="fill:#fbfafb; stroke:none;" d="M930 403L931 404L930 403z"/>
<path style="fill:#ffffff; stroke:none;" d="M927 407C922.721 406.845 920.556 408.778 920 413C915.733 412.984 912.372 414.851 911 419L902 422L902 426L918 432C919.971 443.265 931.433 440.995 940 441L940 442L931 442L931 443C938.624 443.021 947.372 447.241 954.826 445.707C960.568 444.524 959.018 438.999 961.028 435.001C965.104 426.892 971.179 424.991 967 415C953.976 418.176 950.228 409.281 939.83 404.564C935.326 402.52 929.666 402.643 927 407z"/>
<path style="fill:#f7f7f7; stroke:none;" d="M926 406L927 407L926 406M927 407L928 408L927 407z"/>
<path style="fill:#fbfafb; stroke:none;" d="M941 407L942 408L941 407M921 408L922 409L921 408M922.667 409.333L923.333 409.667L922.667 409.333z"/>
<path style="fill:#f7f7f7; stroke:none;" d="M923 410L924 411L923 410z"/>
<path style="fill:#fbfafb; stroke:none;" d="M923 411L924 412L923 411M945 411L946 412L945 411M918.667 412.333L919.333 412.667L918.667 412.333M916.333 414.667L916.667 415.333L916.333 414.667M918 414L919 415L918 414M953 414L954 415L953 414M913 415L914 416L913 415M948 415L948 416L951 416L948 415M956 415L957 416L956 415M967 415L968 416L967 415M910 417L911 418L910 417M908 418L909 419L908 418z"/>
<path style="fill:#f7f7f7; stroke:none;" d="M910 418L911 419L910 418z"/>
<path style="fill:#fbfafb; stroke:none;" d="M962 418L962 419L965 419L962 418M906 419L907 420L906 419z"/>
<path style="fill:#efefef; stroke:none;" d="M960 419L961 420L960 419z"/>
<path style="fill:#fbfafb; stroke:none;" d="M902 423L903 424L902 423M906 424L905 426L906 424M968.667 425.333L969.333 425.667L968.667 425.333z"/>
<path style="fill:#f7f7f7; stroke:none;" d="M968 426L969 427L968 426z"/>
<path style="fill:#ffffff; stroke:none;" d="M969 426L969 428L971 428L971 426L969 426z"/>
<path style="fill:#fbfafb; stroke:none;" d="M968 427L969 428L968 427z"/>
<path style="fill:#f7f7f7; stroke:none;" d="M910 428L911 429L910 428M966 428L967 429L966 428z"/>
<path style="fill:#fbfafb; stroke:none;" d="M910.667 429.333L911.333 429.667L910.667 429.333z"/>
<path style="fill:#f7f7f7; stroke:none;" d="M961 429L963 431L961 429z"/>
<path style="fill:#fbfafb; stroke:none;" d="M912 430L913 431L912 430M913 431L914 432L913 431z"/>
<path style="fill:#f7f7f7; stroke:none;" d="M916 432L917 433L916 432z"/>
<path style="fill:#fbfafb; stroke:none;" d="M917 432L918 433L917 432M916 433L917 434L916 433M919 433L920 434L919 433M919 435L920 436L919 435M920 436L921 437L920 436z"/>
<path style="fill:#f7f7f7; stroke:none;" d="M922 436L923 437L922 436z"/>
<path style="fill:#fbfafb; stroke:none;" d="M921 437L922 438L921 437M923 437L924 438L923 437M929 441L929 442L940 442L929 441z"/>
<path style="fill:#f7f7f7; stroke:none;" d="M956 440L957 441L956 440z"/>
<path style="fill:#fbfafb; stroke:none;" d="M942 444L943 445L942 444M957 444L958 445L957 444z"/>
</svg>
