<?xml version="1.0" standalone="yes"?>
<svg xmlns="http://www.w3.org/2000/svg" width="1231" height="874">
<path style="fill:#010101; stroke:none;" d="M0 0L0 874L1231 874L1231 0L0 0z"/>
<path style="fill:#fdffff; stroke:none;" d="M872 461C875.481 459.18 879.14 453.675 883.039 453.441C887.332 453.184 890.377 457.96 894.907 455.778C908.957 449.007 899.46 430.679 899 420C891.285 416.937 891.46 406.364 883 404.476C879.538 403.704 868.11 402.767 865.039 404.219C852.506 410.145 849.751 433.569 854.704 444.985C857.799 452.119 867.613 454.159 872 461z"/>
<path style="fill:#ccffff; stroke:none;" d="M866 411L866 412C871.231 409.986 874.965 408.204 879 413C880.087 405.47 869.506 409.162 866 411z"/>
<path style="fill:#2e96cd; stroke:none;" d="M872 409L872 410L879 415L875 415L875 416L880 415C878.501 410.734 876.479 409.341 872 409M865 412L865 413L871 411L865 412z"/>
<path style="fill:#08a2f7; stroke:none;" d="M871 432C871.283 425.437 871.799 417.088 879 415C874.509 402.786 852.674 417.642 864.227 428.606C866.179 430.459 868.494 431.255 871 432z"/>
<path style="fill:#ccffff; stroke:none;" d="M859 424L860 424C860.119 419.095 861.088 416.101 865 413C859.221 411.748 859.036 419.993 859 424z"/>
<path style="fill:#2e96cd; stroke:none;" d="M863 413L864 414L863 413M862 414L863 415L862 414M861 415L862 416L861 415z"/>
<path style="fill:#ccffff; stroke:none;" d="M879 415L880 416L879 415M874 416L872 430L873 430L875 417L879 417L874 416z"/>
<path style="fill:#2e96cd; stroke:none;" d="M860 417C860.016 422.588 860.423 426.372 865 430L860 417M873 417L873 420L874 420L873 417M872 421L872 425L873 425L872 421z"/>
<path style="fill:#ccffff; stroke:none;" d="M897 428L897 427C895.03 427.712 892.143 430.16 890.063 429.988C884.353 429.517 891.331 422.408 896 423C886.448 415.924 883.9 434.485 891.714 431.691C893.576 431.026 895.398 429.129 897 428z"/>
<path style="fill:#2e96cd; stroke:none;" d="M893 428L892 428L891 431L889 431C888.185 426.036 890.193 423.982 895 423L894 428C897.288 423.456 892.007 420.439 888.608 424.434C885.283 428.342 889.895 433.456 893 428z"/>
<path style="fill:#08a2f7; stroke:none;" d="M889 431L891 431L895 423C889.8 423.586 887.607 425.755 889 431z"/>
<path style="fill:#ccffff; stroke:none;" d="M860.333 425.667L860.667 426.333L860.333 425.667M896 425L897 426L896 425z"/>
<path style="fill:#2e96cd; stroke:none;" d="M871 426L871 432L866 430L866 431L871 433L871 426z"/>
<path style="fill:#ccffff; stroke:none;" d="M861 427L861 429L863 429L861 427M863 429L864 430L863 429M865 430L866 431L865 430M866 431L867 432L866 431M867.667 432.333L868.333 432.667L867.667 432.333M871 432L872 433L871 432z"/>
</svg>
