<?xml version="1.0" standalone="yes"?>
<svg xmlns="http://www.w3.org/2000/svg" width="1231" height="874">
<path style="fill:#010101; stroke:none;" d="M0 0L0 874L1231 874L1231 0L0 0z"/>
<path style="fill:#fdfcfd; stroke:none;" d="M665 631L664 634L665 634L665 631z"/>
<path style="fill:#ffffff; stroke:none;" d="M665 632L658 638L652 638L654 641L652 654L653 656L648 673C641.412 674.506 635.229 674.35 634 682L639 684L638 682L640 685L644 684C646.141 691.23 656.294 693.096 663 694C665.194 684.547 670.279 681.579 679 678.414C684.06 676.578 690.977 677.129 692 671L693 671L693 675L694 675C696.236 668.788 695.179 664.206 688 663L690 660L686 660L679 648L664 636L665 632z"/>
<path style="fill:#f8f8f8; stroke:none;" d="M662.667 633.333L663.333 633.667L662.667 633.333z"/>
<path style="fill:#fdfcfd; stroke:none;" d="M661 634L662 635L661 634z"/>
<path style="fill:#f8f8f8; stroke:none;" d="M665 634L664 636L665 634z"/>
<path style="fill:#fdfcfd; stroke:none;" d="M660 635L661 636L660 635M662 635L663 636L662 635M665.667 635.333L666.333 635.667L665.667 635.333z"/>
<path style="fill:#f3f3f3; stroke:none;" d="M659 636L660 637L659 636z"/>
<path style="fill:#fdfcfd; stroke:none;" d="M657 637L658 638L657 637M668 637L669 638L668 637z"/>
<path style="fill:#f8f8f8; stroke:none;" d="M658 638L659 639L658 638z"/>
<path style="fill:#fdfcfd; stroke:none;" d="M670 639L671 640L670 639M655 640L655 643L656 643L657 640L655 640M653 641L654 642L653 641z"/>
<path style="fill:#f8f8f8; stroke:none;" d="M672 644L675 647L672 644z"/>
<path style="fill:#fdfcfd; stroke:none;" d="M674 644L675 645L674 644M675 645L676 646L675 645M675 647L676 648L675 647M677 648L678 649L677 648M678.667 649.333L679.333 649.667L678.667 649.333z"/>
<path style="fill:#f8f8f8; stroke:none;" d="M680 650L681 651L680 650z"/>
<path style="fill:#fdfcfd; stroke:none;" d="M681 650L682 651L681 650z"/>
<path style="fill:#f8f8f8; stroke:none;" d="M679 651L680 652L679 651z"/>
<path style="fill:#fdfcfd; stroke:none;" d="M682 651L683 652L682 651z"/>
<path style="fill:#f8f8f8; stroke:none;" d="M653 652L654 653L653 652z"/>
<path style="fill:#fdfcfd; stroke:none;" d="M653 653L654 654L653 653M652 655L653 656L652 655M684 655L685 656L684 655M686 657L688 659L688 657L686 657M685 658L686 659L685 658z"/>
<path style="fill:#f8f8f8; stroke:none;" d="M686.667 659.333L687.333 659.667L686.667 659.333z"/>
<path style="fill:#fdfcfd; stroke:none;" d="M688 662L689 663L688 662z"/>
<path style="fill:#f3f3f3; stroke:none;" d="M689 662L690 663L689 662z"/>
<path style="fill:#fdfcfd; stroke:none;" d="M690 662L691 663L690 662z"/>
<path style="fill:#f8f8f8; stroke:none;" d="M689 663L690 664L689 663z"/>
<path style="fill:#f3f3f3; stroke:none;" d="M693 666L694 667L693 666z"/>
<path style="fill:#f8f8f8; stroke:none;" d="M692 667L693 668L692 667z"/>
<path style="fill:#fdfcfd; stroke:none;" d="M651 668L648 672L652 671L651 668z"/>
<path style="fill:#f8f8f8; stroke:none;" d="M692.667 669.333L693.333 669.667L692.667 669.333z"/>
<path style="fill:#fdfcfd; stroke:none;" d="M693.667 670.333L694.333 670.667L693.667 670.333z"/>
<path style="fill:#f8f8f8; stroke:none;" d="M692 671L693 672L692 671z"/>
<path style="fill:#fdfcfd; stroke:none;" d="M647 672L648 673L647 672z"/>
<path style="fill:#f8f8f8; stroke:none;" d="M688 672L689 673L688 672z"/>
<path style="fill:#fdfcfd; stroke:none;" d="M692 672L693 673L692 672M694 672L695 673L694 672z"/>
<path style="fill:#f8f8f8; stroke:none;" d="M692.667 673.333L693.333 673.667L692.667 673.333z"/>
<path style="fill:#fdfcfd; stroke:none;" d="M646 676L649 675L646 676M692 674L693 675L692 674M643 675L644 676L643 675z"/>
<path style="fill:#f8f8f8; stroke:none;" d="M684 676L685 677L684 676z"/>
<path style="fill:#fdfcfd; stroke:none;" d="M676 677L677 678L676 677M681 677L682 678L681 677M634 678L635 679L634 678M678 678L679 679L678 678M636 680L638 682L638 680L636 680M639.667 680.333L640.333 680.667L639.667 680.333z"/>
<path style="fill:#f8f8f8; stroke:none;" d="M664 680L665 681L664 680z"/>
<path style="fill:#fdfcfd; stroke:none;" d="M672 680L673 681L672 680z"/>
<path style="fill:#f3f3f3; stroke:none;" d="M635 681L636 682L635 681z"/>
<path style="fill:#fdfcfd; stroke:none;" d="M666 681L665 683L666 681M638 682L640 684L640 682L638 682z"/>
<path style="fill:#f8f8f8; stroke:none;" d="M668 682L669 683L668 682M639 684L640 685L639 684z"/>
<path style="fill:#fdfcfd; stroke:none;" d="M641 684L644 687L644 684L641 684z"/>
<path style="fill:#f8f8f8; stroke:none;" d="M647 684L648 685L647 684M641 685L642 686L641 685M643 685L644 686L643 685z"/>
<path style="fill:#fdfcfd; stroke:none;" d="M645 685L647 687L645 685M665 685L666 686L665 685M650 688L651 689L650 688z"/>
<path style="fill:#f8f8f8; stroke:none;" d="M655 688L656 689L655 688M660 688L661 689L660 688z"/>
<path style="fill:#fdfcfd; stroke:none;" d="M662 689L661 691L662 689z"/>
<path style="fill:#f8f8f8; stroke:none;" d="M651 690L652 691L651 690z"/>
<path style="fill:#fdfcfd; stroke:none;" d="M660 692L661 693L660 692z"/>
</svg>
