<?xml version="1.0" standalone="yes"?>
<svg xmlns="http://www.w3.org/2000/svg" width="1231" height="874">
<path style="fill:#010101; stroke:none;" d="M0 0L0 874L1231 874L1231 0L0 0z"/>
<path style="fill:#ffffff; stroke:none;" d="M515 539C509.552 548.425 504.527 547.927 496 551.942C486.573 556.381 479.483 561.498 469 563.628C451.433 567.198 435.003 561.984 435 586C448.33 587.646 466.047 591.367 467 573L486 576.476L496 571.893L511.66 570.397L519.441 554L529 542L515 539z"/>
<path style="fill:#01a3ff; stroke:none;" d="M447 572L450 583C453.766 580.522 460.419 578.337 463.392 575.262C466.568 571.978 462.802 567.491 459.035 567.377C454.507 567.239 451.967 572.085 447 572z"/>
</svg>
