<?xml version="1.0" standalone="yes"?>
<svg xmlns="http://www.w3.org/2000/svg" width="1231" height="874">
<path style="fill:#010101; stroke:none;" d="M0 0L0 874L1231 874L1231 0L0 0z"/>
<path style="fill:#f9f9f9; stroke:none;" d="M586 599L587 600L586 599z"/>
<path style="fill:#fdfcfd; stroke:none;" d="M587 599L588 600L587 599z"/>
<path style="fill:#ffffff; stroke:none;" d="M579 601L579 602L582 602L582 603C575.148 604.833 575.827 610.5 570.786 614.262C564.093 619.257 554.283 616.453 547 615L550 614L550 613L540 616L540 621L549 623L546 625L546 626L547 628L564 630C565.89 633.442 568.072 634.907 572 635L577 640L586 627L585 627L585 629L584 629L586 626L585 624L587 624L586 621C593.25 618.256 606.666 611.257 608 603L609 603L611 605L613 604L618 600L618 599L593 602C589.965 597.763 583.553 600.408 579 601z"/>
<path style="fill:#fdfcfd; stroke:none;" d="M612 599L612 600L616 600L612 599z"/>
<path style="fill:#f4f4f4; stroke:none;" d="M616 599L617 600L616 599z"/>
<path style="fill:#fdfcfd; stroke:none;" d="M583 600L583 601L586 601L583 600M582 601L583 602L582 601M593 601L594 602L593 601M596 601L596 602L609 602L596 601M610 601L610 602L613 602L610 601z"/>
<path style="fill:#f9f9f9; stroke:none;" d="M614 601L615 602L614 601z"/>
<path style="fill:#fdfcfd; stroke:none;" d="M615 601L616 602L615 601M577 603L577 604L581 603L577 603z"/>
<path style="fill:#f9f9f9; stroke:none;" d="M579 602L580 603L579 602M581 602L582 603L581 602M578 603L579 604L578 603M592 603L593 604L592 603z"/>
<path style="fill:#fdfcfd; stroke:none;" d="M593 603L594 604L593 603z"/>
<path style="fill:#f9f9f9; stroke:none;" d="M594 603L595 604L594 603z"/>
<path style="fill:#f4f4f4; stroke:none;" d="M608 603L609 604L608 603z"/>
<path style="fill:#fdfcfd; stroke:none;" d="M611 603L612 604L611 603z"/>
<path style="fill:#f9f9f9; stroke:none;" d="M604 604L605 605L604 604z"/>
<path style="fill:#fdfcfd; stroke:none;" d="M608 604L609 605L608 604z"/>
<path style="fill:#f9f9f9; stroke:none;" d="M608 605L609 606L608 605M579 607L580 608L579 607z"/>
<path style="fill:#fdfcfd; stroke:none;" d="M600 608L600 612L601 612L604 609L600 608M605 608L606 609L605 608M604 609L605 610L604 609z"/>
<path style="fill:#f9f9f9; stroke:none;" d="M602 610L603 611L602 610z"/>
<path style="fill:#fdfcfd; stroke:none;" d="M575 612L573 616L574 616L577 616L575 612M547 614L547 615L550 615L550 614L547 614z"/>
<path style="fill:#f9f9f9; stroke:none;" d="M548 614L549 615L548 614M596 614L597 615L596 614z"/>
<path style="fill:#fdfcfd; stroke:none;" d="M542 615L543 616L542 615M546 615L547 616L546 615z"/>
<path style="fill:#f9f9f9; stroke:none;" d="M550 615L551 616L550 615M572 615L573 616L572 615z"/>
<path style="fill:#fdfcfd; stroke:none;" d="M590.667 616.333L591.333 616.667L590.667 616.333M588 617L589 618L588 617M551 621L564 620C560.353 618.47 553.758 617.844 551 621z"/>
<path style="fill:#f9f9f9; stroke:none;" d="M567 619L568 620L567 619z"/>
<path style="fill:#fdfcfd; stroke:none;" d="M541 620L543 623L541 620z"/>
<path style="fill:#f4f4f4; stroke:none;" d="M543 620L544 621L543 620z"/>
<path style="fill:#f9f9f9; stroke:none;" d="M584 620L584 623L585 623L584 620z"/>
<path style="fill:#fdfcfd; stroke:none;" d="M586 621L587 622L586 621M543 623L544 624L543 623M544 624L544 625L549 623L544 624z"/>
<path style="fill:#f4f4f4; stroke:none;" d="M585 624L586 625L585 624z"/>
<path style="fill:#fdfcfd; stroke:none;" d="M586 624L587 625L586 624z"/>
<path style="fill:#ffffff; stroke:none;" d="M544 625L545 626L544 625z"/>
<path style="fill:#f4f4f4; stroke:none;" d="M545 625L546 626L545 625z"/>
<path style="fill:#f9f9f9; stroke:none;" d="M586 625L587 626L586 625z"/>
<path style="fill:#fdfcfd; stroke:none;" d="M546.667 626.333L547.333 626.667L546.667 626.333z"/>
<path style="fill:#f9f9f9; stroke:none;" d="M584.333 626.667L584.667 627.333L584.333 626.667z"/>
<path style="fill:#fdfcfd; stroke:none;" d="M585 626L586 627L585 626M557 628L558 629L557 628M559 628L560 629L559 628z"/>
<path style="fill:#f4f4f4; stroke:none;" d="M584 628L585 629L584 628z"/>
<path style="fill:#fdfcfd; stroke:none;" d="M585 629L586 630L585 629z"/>
<path style="fill:#f9f9f9; stroke:none;" d="M563 630L564 631L563 630z"/>
<path style="fill:#fdfcfd; stroke:none;" d="M568 632L571 635L571 632L568 632M580 632L581 633L580 632M582 632L583 633L582 632z"/>
<path style="fill:#f9f9f9; stroke:none;" d="M581 633L582 634L581 633z"/>
<path style="fill:#f4f4f4; stroke:none;" d="M582 633L583 634L582 633z"/>
<path style="fill:#fdfcfd; stroke:none;" d="M580 634L581 635L580 634z"/>
<path style="fill:#f4f4f4; stroke:none;" d="M581 634L582 635L581 634z"/>
<path style="fill:#f9f9f9; stroke:none;" d="M571.333 635.667L571.667 636.333L571.333 635.667M579 636L580 637L579 636z"/>
<path style="fill:#fdfcfd; stroke:none;" d="M575 637L576 638L575 637z"/>
<path style="fill:#f9f9f9; stroke:none;" d="M578 637L579 638L578 637z"/>
<path style="fill:#fdfcfd; stroke:none;" d="M576 638L577 639L576 638z"/>
<path style="fill:#f9f9f9; stroke:none;" d="M577 638L578 639L577 638z"/>
<path style="fill:#fdfcfd; stroke:none;" d="M575 639L576 640L575 639z"/>
</svg>
