<?xml version="1.0" standalone="yes"?>
<svg xmlns="http://www.w3.org/2000/svg" width="1231" height="874">
<path style="fill:#010101; stroke:none;" d="M0 0L0 874L1231 874L1231 0L0 0z"/>
<path style="fill:#fcfcfc; stroke:none;" d="M838 321L840 323L838 321z"/>
<path style="fill:#ffffff; stroke:none;" d="M839 321L836 330C831.63 330.911 828.705 338.62 832 342L826 357L830 360L831 360L845 355L844 353L856 358L858 361C857.798 364.456 860.486 369.846 864 366C867.05 367.017 873.988 367.05 873 371L875 374L876 374L879 358L869 356L869 355L872 354L869 354L857.513 339.985L855.397 326.473L839 321z"/>
<path style="fill:#f9f9f9; stroke:none;" d="M838 322L839 323L838 322z"/>
<path style="fill:#f4f4f4; stroke:none;" d="M843 322L844 323L843 322z"/>
<path style="fill:#fcfcfc; stroke:none;" d="M846 323L847 324L846 323z"/>
<path style="fill:#f9f9f9; stroke:none;" d="M847 323L848 324L847 323z"/>
<path style="fill:#fcfcfc; stroke:none;" d="M848 323L853 325L853 324L848 323z"/>
<path style="fill:#f9f9f9; stroke:none;" d="M838.667 324.333L839.333 324.667L838.667 324.333z"/>
<path style="fill:#fcfcfc; stroke:none;" d="M839 325L840 326L839 325M835 326L836 327L835 326M837 326L837 328L839 328L837 326M834 328L835 329L834 328z"/>
<path style="fill:#f9f9f9; stroke:none;" d="M835.333 328.667L835.667 329.333L835.333 328.667z"/>
<path style="fill:#fcfcfc; stroke:none;" d="M834.333 330.667L834.667 331.333L834.333 330.667M832 331L833 332L832 331z"/>
<path style="fill:#f9f9f9; stroke:none;" d="M856 339L857 340L856 339z"/>
<path style="fill:#fcfcfc; stroke:none;" d="M831 340L832 341L831 340M856 341L859 344L859 343L856 341M831 342L832 343L831 342M860 344L861 345L860 344z"/>
<path style="fill:#f9f9f9; stroke:none;" d="M860 346L861 347L860 346z"/>
<path style="fill:#fcfcfc; stroke:none;" d="M861 347L862 348L861 347M863 347L864 348L863 347z"/>
<path style="fill:#f9f9f9; stroke:none;" d="M831 349L832 350L831 349M864 349L865 350L864 349z"/>
<path style="fill:#fcfcfc; stroke:none;" d="M831 350L830 352L832 352L831 350M864 350L864 352L866 352L864 350z"/>
<path style="fill:#f9f9f9; stroke:none;" d="M829 351L830 352L829 351M866 351L867 352L866 351z"/>
<path style="fill:#fcfcfc; stroke:none;" d="M827 352L828 353L827 352z"/>
<path style="fill:#f4f4f4; stroke:none;" d="M845 352L846 353L845 352z"/>
<path style="fill:#f9f9f9; stroke:none;" d="M846 352L847 353L846 352z"/>
<path style="fill:#fcfcfc; stroke:none;" d="M868 352L869 353L868 352M844.667 353.333L845.333 353.667L844.667 353.333M869 353L870 354L869 353M868 354L869 355L868 354z"/>
<path style="fill:#f9f9f9; stroke:none;" d="M826 355L827 356L826 355z"/>
<path style="fill:#fcfcfc; stroke:none;" d="M869 355L870 356L869 355z"/>
<path style="fill:#f9f9f9; stroke:none;" d="M870 355L871 356L870 355z"/>
<path style="fill:#fcfcfc; stroke:none;" d="M871.667 355.333L872.333 355.667L871.667 355.333M827.667 356.333L828.333 356.667L827.667 356.333z"/>
<path style="fill:#f9f9f9; stroke:none;" d="M830.667 356.333L831.333 356.667L830.667 356.333z"/>
<path style="fill:#fcfcfc; stroke:none;" d="M854.333 356.667L854.667 357.333L854.333 356.667M833 357L834 358L833 357z"/>
<path style="fill:#f9f9f9; stroke:none;" d="M876 357L877 358L876 357z"/>
<path style="fill:#fcfcfc; stroke:none;" d="M877.667 357.333L878.333 357.667L877.667 357.333M828 358L829 359L828 358z"/>
<path style="fill:#f9f9f9; stroke:none;" d="M855.333 358.667L855.667 359.333L855.333 358.667z"/>
<path style="fill:#fcfcfc; stroke:none;" d="M879 358L880 359L879 358M877 359L877 363L878 363L877 359M855 360L856 361L855 360z"/>
<path style="fill:#f9f9f9; stroke:none;" d="M877 360L878 361L877 360z"/>
<path style="fill:#fcfcfc; stroke:none;" d="M856.667 361.333L857.333 361.667L856.667 361.333z"/>
<path style="fill:#f9f9f9; stroke:none;" d="M859 361L860 362L859 361z"/>
<path style="fill:#fcfcfc; stroke:none;" d="M858 362L859 363L858 362M859 364L860 365L859 364M868.667 364.333L869.333 364.667L868.667 364.333z"/>
<path style="fill:#f9f9f9; stroke:none;" d="M858 365L859 366L858 365M864 366L865 367L864 366M859 367L860 368L859 367z"/>
<path style="fill:#fcfcfc; stroke:none;" d="M874 367L876 370L874 367z"/>
<path style="fill:#f4f4f4; stroke:none;" d="M877.667 368.333L878.333 368.667L877.667 368.333z"/>
<path style="fill:#fcfcfc; stroke:none;" d="M873 369L874 370L873 369M878.333 369.667L878.667 370.333L878.333 369.667z"/>
<path style="fill:#f9f9f9; stroke:none;" d="M874 370L875 371L874 370z"/>
<path style="fill:#fcfcfc; stroke:none;" d="M874 371L875 372L874 371z"/>
<path style="fill:#f9f9f9; stroke:none;" d="M877 371L878 372L877 371z"/>
<path style="fill:#fcfcfc; stroke:none;" d="M877 372L878 373L877 372z"/>
</svg>
