<?xml version="1.0" standalone="yes"?>
<svg xmlns="http://www.w3.org/2000/svg" width="1231" height="874">
<path style="fill:#010101; stroke:none;" d="M0 0L0 874L1231 874L1231 0L0 0z"/>
<path style="fill:#f8f8f8; stroke:none;" d="M775 489L776 490L775 489z"/>
<path style="fill:#ffffff; stroke:none;" d="M739 490C739.37 494.635 737.664 506.857 743 508L743 509L740 510L748 512L750 520L756 519L756 516L762 516L762 514C769.073 514.41 772.315 510.769 772 504L776 504L776 505L773 508L774 508L788 500L788 499L782 499L782 498L784 496L779 496L776 493C775.593 489.795 772.433 489.867 772 493L769 496L768 496L767 494L766 498L756.37 491.299L739 490z"/>
<path style="fill:#fdfcfd; stroke:none;" d="M739 491L740 492L739 491M756 491L757 492L756 491z"/>
<path style="fill:#f8f8f8; stroke:none;" d="M739 492L740 493L739 492z"/>
<path style="fill:#f4f4f4; stroke:none;" d="M770 492L771 493L770 492z"/>
<path style="fill:#fdfcfd; stroke:none;" d="M771 492L772 493L771 492M776 492L777 493L776 492z"/>
<path style="fill:#f8f8f8; stroke:none;" d="M777 492L778 493L777 492z"/>
<path style="fill:#f4f4f4; stroke:none;" d="M768 494L769 495L768 494z"/>
<path style="fill:#fdfcfd; stroke:none;" d="M770 494L771 495L770 494z"/>
<path style="fill:#f8f8f8; stroke:none;" d="M777 494L778 495L777 494M779 494L780 495L779 494M756 495L757 496L756 495z"/>
<path style="fill:#fdfcfd; stroke:none;" d="M768 495L769 496L768 495z"/>
<path style="fill:#f4f4f4; stroke:none;" d="M776 495L777 496L776 495z"/>
<path style="fill:#fdfcfd; stroke:none;" d="M779.667 495.333L780.333 495.667L779.667 495.333z"/>
<path style="fill:#f8f8f8; stroke:none;" d="M765 496L764 498L766 498L765 496z"/>
<path style="fill:#fdfcfd; stroke:none;" d="M761 497L761 498L764 498L761 497M782 498L782 499L788 499L788 497L782 498z"/>
<path style="fill:#ffffff; stroke:none;" d="M788 497L789 498L788 497z"/>
<path style="fill:#fdfcfd; stroke:none;" d="M766 498L768 500L766 498z"/>
<path style="fill:#f8f8f8; stroke:none;" d="M739 499L740 500L739 499z"/>
<path style="fill:#fdfcfd; stroke:none;" d="M763 499L764 500L763 499M739.333 500.667L739.667 501.333L739.333 500.667z"/>
<path style="fill:#f8f8f8; stroke:none;" d="M776 500L777 501L776 500z"/>
<path style="fill:#fdfcfd; stroke:none;" d="M785 500L786 501L785 500M778 501L777 503L778 501M772 504L772 509L773 509L776 505L772 504z"/>
<path style="fill:#f8f8f8; stroke:none;" d="M774 506L775 507L774 506z"/>
<path style="fill:#fdfcfd; stroke:none;" d="M740 508L741 509L740 508z"/>
<path style="fill:#f8f8f8; stroke:none;" d="M741 508L742 509L741 508z"/>
<path style="fill:#fdfcfd; stroke:none;" d="M742 508L743 509L742 508z"/>
<path style="fill:#f8f8f8; stroke:none;" d="M768 508L769 509L768 508z"/>
<path style="fill:#fdfcfd; stroke:none;" d="M743 509L744 510L743 509M742 510L743 511L742 510M743 511L744 512L743 511M745 512L745 513L747 515L748 515L745 512z"/>
<path style="fill:#f4f4f4; stroke:none;" d="M764 512L765 513L764 512z"/>
<path style="fill:#fdfcfd; stroke:none;" d="M765 512L766 513L765 512z"/>
<path style="fill:#ffffff; stroke:none;" d="M746 513L747 514L746 513z"/>
<path style="fill:#fdfcfd; stroke:none;" d="M760 513L761 514L760 513z"/>
<path style="fill:#f8f8f8; stroke:none;" d="M761 513L762 514L761 513z"/>
<path style="fill:#fdfcfd; stroke:none;" d="M762 514L763 515L762 514z"/>
<path style="fill:#f8f8f8; stroke:none;" d="M764 514L765 515L764 514z"/>
<path style="fill:#f4f4f4; stroke:none;" d="M760 515L761 516L760 515z"/>
<path style="fill:#fdfcfd; stroke:none;" d="M754 516L752 519L754 516M756.333 516.667L756.667 517.333L756.333 516.667z"/>
<path style="fill:#f8f8f8; stroke:none;" d="M755 517L756 518L755 517M757 517L758 518L757 517z"/>
<path style="fill:#fdfcfd; stroke:none;" d="M750 518L751 519L750 518z"/>
<path style="fill:#f8f8f8; stroke:none;" d="M751 519L752 520L751 519z"/>
</svg>
