<?xml version="1.0" standalone="yes"?>
<svg xmlns="http://www.w3.org/2000/svg" width="1231" height="874">
<path style="fill:#010101; stroke:none;" d="M0 0L0 874L1231 874L1231 0L0 0z"/>
<path style="fill:#fbfbfb; stroke:none;" d="M621 345L620 351L621 351L621 345z"/>
<path style="fill:#ffffff; stroke:none;" d="M620 347L619 351L620 348L617 351L614 350L614 352L610 351L609 351L612 358C609.111 361.33 612.43 368.365 614 372C617.977 369.804 619.661 367.562 620 363L623 364L622 354L624 355L624 354L620 347z"/>
<path style="fill:#f7f7f7; stroke:none;" d="M621 347L622 348L621 347z"/>
<path style="fill:#fbfbfb; stroke:none;" d="M617 349L618 350L617 349M613 350L612 352L614 352L613 350M616 350L617 351L616 350z"/>
<path style="fill:#f7f7f7; stroke:none;" d="M619 350L620 351L619 350z"/>
<path style="fill:#fbfbfb; stroke:none;" d="M610.333 351.667L610.667 352.333L610.333 351.667z"/>
<path style="fill:#f7f7f7; stroke:none;" d="M608 352L609 353L608 352z"/>
<path style="fill:#fbfbfb; stroke:none;" d="M621.333 352.667L621.667 353.333L621.333 352.667M609 353L610 354L609 353M622 354L622 356L624 356L622 354M610.667 357.333L611.333 357.667L610.667 357.333M624.333 357.667L624.667 358.333L624.333 357.667M623 360L624 361L623 360M620 361L620 362L623 362L623 361L620 361M620 363L620 366L622 365L622 364L620 363M614 367L614 370L615 370L614 367M617 369L618 370L617 369M613 370L615 373L613 370z"/>
<path style="fill:#efefef; stroke:none;" d="M615 371L616 372L615 371z"/>
</svg>
