<?xml version="1.0" standalone="yes"?>
<svg xmlns="http://www.w3.org/2000/svg" width="1231" height="874">
<path style="fill:#010101; stroke:none;" d="M0 0L0 874L1231 874L1231 0L0 0z"/>
<path style="fill:#ffffff; stroke:none;" d="M882 358L882 367L882 372L875 376L871 401L871 402L878 401L878 402L876 402L876 403L879 400L887 402L890 380L893 379L892 376L895 377L896 372L898 360L882 358z"/>
<path style="fill:#fdfcfd; stroke:none;" d="M881 359L882 360L881 359M883 359L883 360L888 360L883 359M883 361L885 364L883 361z"/>
<path style="fill:#f6f6f6; stroke:none;" d="M883 364L884 365L883 364z"/>
<path style="fill:#fdfcfd; stroke:none;" d="M881 365L882 366L881 365M881.333 367.667L881.667 368.333L881.333 367.667M883 369L882 374L883 369z"/>
<path style="fill:#f9f9f9; stroke:none;" d="M881 370L882 371L881 370z"/>
<path style="fill:#fdfcfd; stroke:none;" d="M881 371L882 372L881 371M896 372L897 373L896 372M878 374L879 375L878 374z"/>
<path style="fill:#f9f9f9; stroke:none;" d="M896 374L897 375L896 374z"/>
<path style="fill:#fdfcfd; stroke:none;" d="M892 376L894 378L892 376z"/>
<path style="fill:#f9f9f9; stroke:none;" d="M893 376L894 377L893 376z"/>
<path style="fill:#fdfcfd; stroke:none;" d="M875 377L876 378L875 377z"/>
<path style="fill:#f9f9f9; stroke:none;" d="M892 377L893 378L892 377z"/>
<path style="fill:#fdfcfd; stroke:none;" d="M874 378L875 379L874 378z"/>
<path style="fill:#f9f9f9; stroke:none;" d="M890 380L891 381L890 380M888 384L889 385L888 384z"/>
<path style="fill:#fdfcfd; stroke:none;" d="M888.333 385.667L888.667 386.333L888.333 385.667M888 390L889 391L888 390M875.333 391.667L875.667 392.333L875.333 391.667z"/>
<path style="fill:#f6f6f6; stroke:none;" d="M888 391L889 392L888 391z"/>
<path style="fill:#fdfcfd; stroke:none;" d="M888 392L888 396L889 396L888 392M873 393L874 394L873 393M875.333 394.667L875.667 395.333L875.333 394.667z"/>
<path style="fill:#f9f9f9; stroke:none;" d="M874 395L875 396L874 395z"/>
<path style="fill:#fdfcfd; stroke:none;" d="M887 396L888 397L887 396M884 397L885 398L884 397z"/>
<path style="fill:#f9f9f9; stroke:none;" d="M871.333 399.667L871.667 400.333L871.333 399.667M875 399L876 400L875 399z"/>
<path style="fill:#fdfcfd; stroke:none;" d="M872 400L873 401L872 400z"/>
<path style="fill:#f6f6f6; stroke:none;" d="M874 400L876 402L874 400z"/>
<path style="fill:#fdfcfd; stroke:none;" d="M879.333 400.667L879.667 401.333L879.333 400.667M886 400L887 401L886 400M873 401L876 404L873 401M876.667 401.333L877.333 401.667L876.667 401.333z"/>
<path style="fill:#f6f6f6; stroke:none;" d="M878 402L879 403L878 402M885 402L886 403L885 402z"/>
<path style="fill:#f9f9f9; stroke:none;" d="M886 402L887 403L886 402z"/>
<path style="fill:#f6f6f6; stroke:none;" d="M876 403L877 404L876 403z"/>
</svg>
