<?xml version="1.0" standalone="yes"?>
<svg xmlns="http://www.w3.org/2000/svg" width="1231" height="874">
<path style="fill:#010101; stroke:none;" d="M0 0L0 874L1231 874L1231 0L0 0z"/>
<path style="fill:#fdfcfd; stroke:none;" d="M763 392L762 396L763 396L763 392z"/>
<path style="fill:#ffffff; stroke:none;" d="M763 393L764 395L760 396L760 395L763 394C753.555 395.766 745.019 408.167 735.961 411.381C727.048 414.544 717.261 404.988 712 418L715 417L713 419L713 420C720.798 425.514 723.037 431.991 735 430L740 432C747.341 441.643 756.551 422.848 762 420L761 417L766 419L768 416L767 418L770 417L767 415L767 413L771 406L777 407L776 393L763 393z"/>
<path style="fill:#f9f9f9; stroke:none;" d="M774 393L773 396L774 396L774 393z"/>
<path style="fill:#fdfcfd; stroke:none;" d="M774 394L775 395L774 394M760 395L761 396L760 395z"/>
<path style="fill:#f9f9f9; stroke:none;" d="M761 395L762 396L761 395M775 395L776 396L775 395z"/>
<path style="fill:#fdfcfd; stroke:none;" d="M759 397L760 398L759 397M776 398L777 399L776 398M771 404L772 405L771 404M774 404L775 405L774 404M768 405L769 406L768 405M743 406L742 408L743 406z"/>
<path style="fill:#f9f9f9; stroke:none;" d="M775 406L776 407L775 406M739 409L740 410L739 409M738 410L739 411L738 410M717 411L718 412L717 411M737 411L738 412L737 411M768 412L769 413L768 412z"/>
<path style="fill:#fdfcfd; stroke:none;" d="M769 412L770 413L769 412z"/>
<path style="fill:#f9f9f9; stroke:none;" d="M764.333 413.667L764.667 414.333L764.333 413.667z"/>
<path style="fill:#fdfcfd; stroke:none;" d="M715 414L716 415L715 414M712 416L713 417L712 416M764 416L765 417L764 416z"/>
<path style="fill:#f9f9f9; stroke:none;" d="M765 418L768 417L765 418M714 417L713 419L714 417z"/>
<path style="fill:#f4f4f4; stroke:none;" d="M761 417L763 419L761 417z"/>
<path style="fill:#fdfcfd; stroke:none;" d="M762 417L763 418L762 417M766.333 417.667L766.667 418.333L766.333 417.667M769 417L770 418L769 417M712 418L713 419L712 418M714 418L715 419L714 418M761 418L762 419L761 418M763 418L764 419L763 418M762 419L763 420L762 419M714 420L715 421L714 420z"/>
<path style="fill:#f9f9f9; stroke:none;" d="M715.333 420.667L715.667 421.333L715.333 420.667z"/>
<path style="fill:#fdfcfd; stroke:none;" d="M756 420L756 422L758 420L756 420M759 420L760 421L759 420M758 421L759 422L758 421z"/>
<path style="fill:#f4f4f4; stroke:none;" d="M756 423L757 424L756 423z"/>
<path style="fill:#f9f9f9; stroke:none;" d="M719 426L720 427L719 426M733 428L733 429L736 429L733 428z"/>
<path style="fill:#fdfcfd; stroke:none;" d="M748 428L748 432L749 432L752 429L748 428M734 430L735 431L734 430z"/>
<path style="fill:#f9f9f9; stroke:none;" d="M750 430L751 431L750 430M739 432L740 433L739 432z"/>
</svg>
