<?xml version="1.0" standalone="yes"?>
<svg xmlns="http://www.w3.org/2000/svg" width="1231" height="874">
<path style="fill:#010101; stroke:none;" d="M0 0L0 874L1231 874L1231 0L0 0z"/>
<path style="fill:#ffffff; stroke:none;" d="M576 289L576 290L581 292L578 292L578 321C573.415 325.011 578.242 332.123 581 336L582 336L587 328L586 328L586 332L585 332L584 327L585 325L590.318 307.588L600 310L604 312C604.682 316.093 607.783 318.771 610 316L614 320L617 342L625 343L630 338C630 334.297 638.572 335.93 641.167 337.333C649.946 342.083 650.531 351.681 657.167 357.667C660.753 360.901 665.468 356.273 665 353L668 354C670.308 346.701 673.322 332.412 666 327C667.33 317.855 655.825 316.383 651 310C647.327 312.295 643.12 310.853 639 310.167C635.543 309.591 631.432 310.892 628.167 309.5C621.251 306.552 617.547 298.522 610.833 295C602.151 290.446 585.562 289 576 289z"/>
<path style="fill:#fbfafb; stroke:none;" d="M583 288L584 289L583 288M582 289L582 292L583 292L582 289M584 289L585 290L584 289M578 290L577 291L581 292L581 291L578 290z"/>
<path style="fill:#f7f7f7; stroke:none;" d="M579 291L580 292L579 291z"/>
<path style="fill:#fbfafb; stroke:none;" d="M584.667 291.333L585.333 291.667L584.667 291.333M578 293L579 294L578 293M598 294L599 295L598 294z"/>
<path style="fill:#f7f7f7; stroke:none;" d="M604 294L605 295L604 294z"/>
<path style="fill:#fbfafb; stroke:none;" d="M609 294L610 295L609 294z"/>
<path style="fill:#f7f7f7; stroke:none;" d="M596 295L597 296L596 295z"/>
<path style="fill:#fbfafb; stroke:none;" d="M612 296L613 297L612 296M612 298L612 299L616 300L616 299L612 298M617 300L618 301L617 300M617 302L616 304L617 302M619 302L620 303L619 302z"/>
<path style="fill:#f7f7f7; stroke:none;" d="M620 303L621 304L620 303M579 305L580 306L579 305z"/>
<path style="fill:#fbfafb; stroke:none;" d="M620 306L623 308L623 307L620 306z"/>
<path style="fill:#f2f2f2; stroke:none;" d="M621 306L622 307L621 306z"/>
<path style="fill:#fbfafb; stroke:none;" d="M624 307L625 308L624 307M627 309L627 310L632 310L627 309M599 310L600 311L599 310M625.333 310.667L625.667 311.333L625.333 310.667M648 310L650 312L650 310L648 310M627 311L628 312L627 311z"/>
<path style="fill:#f7f7f7; stroke:none;" d="M643 311L644 312L643 311z"/>
<path style="fill:#fbfafb; stroke:none;" d="M644 311L645 312L644 311M603.333 312.667L603.667 313.333L603.333 312.667M605.667 313.333L606.333 313.667L605.667 313.333M655 315L656 316L655 315M607 316L608 317L607 316M609.333 316.667L609.667 317.333L609.333 316.667M656 316L657 317L656 316M657 317L658 320L659 320L657 317z"/>
<path style="fill:#f7f7f7; stroke:none;" d="M659 317L660 318L659 317z"/>
<path style="fill:#fbfafb; stroke:none;" d="M660 317L661 318L660 317M579 318L578 320L579 318M610 318L611 319L610 318M577 320L578 321L577 320z"/>
<path style="fill:#f2f2f2; stroke:none;" d="M579 320L580 321L579 320z"/>
<path style="fill:#fbfafb; stroke:none;" d="M612 320L614 322L614 320L612 320M577.333 322.667L577.667 323.333L577.333 322.667z"/>
<path style="fill:#f2f2f2; stroke:none;" d="M615 322L616 323L615 322z"/>
<path style="fill:#fbfafb; stroke:none;" d="M579 323L580 324L579 323M615 323L616 324L615 323M585 325L586 326L585 325M664.333 325.667L664.667 326.333L664.333 325.667M666 326L667 327L666 326M584 327L585 332L586 332L584 327z"/>
<path style="fill:#f2f2f2; stroke:none;" d="M585 327L586 328L585 327z"/>
<path style="fill:#f7f7f7; stroke:none;" d="M664 327L665 328L664 327z"/>
<path style="fill:#fbfafb; stroke:none;" d="M579 330L580 331L579 330M619 331L619 340L620 340L619 331z"/>
<path style="fill:#f7f7f7; stroke:none;" d="M668 331L669 332L668 331z"/>
<path style="fill:#fbfafb; stroke:none;" d="M583 332L584 333L583 332z"/>
<path style="fill:#f7f7f7; stroke:none;" d="M586 332L587 333L586 332M582 333L583 334L582 333z"/>
<path style="fill:#fbfafb; stroke:none;" d="M585 333L586 334L585 333z"/>
<path style="fill:#f7f7f7; stroke:none;" d="M581 334L582 335L581 334z"/>
<path style="fill:#fbfafb; stroke:none;" d="M583 334L584 335L583 334M580 335L581 336L580 335M582 335L583 336L582 335M629 336L629 337L633 337L629 336z"/>
<path style="fill:#f7f7f7; stroke:none;" d="M639 336L640 337L639 336z"/>
<path style="fill:#fbfafb; stroke:none;" d="M642 336L643 337L642 336M644 336L645 337L644 336M628.333 337.667L628.667 338.333L628.333 337.667M641 337L642 338L641 337M668 338L669 339L668 338M647 339L648 340L647 339z"/>
<path style="fill:#f7f7f7; stroke:none;" d="M670.333 339.667L670.667 340.333L670.333 339.667z"/>
<path style="fill:#fbfafb; stroke:none;" d="M622 340L623 341L622 340M625 340L624 342L625 340z"/>
<path style="fill:#f7f7f7; stroke:none;" d="M619 341L620 342L619 341z"/>
<path style="fill:#fbfafb; stroke:none;" d="M668 341L669 342L668 341M649 342L650 343L649 342z"/>
<path style="fill:#f7f7f7; stroke:none;" d="M651 343L652 344L651 343z"/>
<path style="fill:#fbfafb; stroke:none;" d="M668 345L669 346L668 345M651 348L652 349L651 348z"/>
<path style="fill:#f7f7f7; stroke:none;" d="M654 348L655 349L654 348z"/>
<path style="fill:#fbfafb; stroke:none;" d="M654.333 349.667L654.667 350.333L654.333 349.667M654 352L654 354L656 354L654 352M665.667 353.333L666.333 353.667L665.667 353.333z"/>
<path style="fill:#f7f7f7; stroke:none;" d="M655 354L656 355L655 354z"/>
<path style="fill:#fbfafb; stroke:none;" d="M661 356L660 358L661 356M663 356L664 357L663 356z"/>
<path style="fill:#f2f2f2; stroke:none;" d="M658 358L659 359L658 358z"/>
</svg>
