<?xml version="1.0" standalone="yes"?>
<svg xmlns="http://www.w3.org/2000/svg" width="1231" height="874">
<path style="fill:#010101; stroke:none;" d="M0 0L0 874L1231 874L1231 0L0 0z"/>
<path style="fill:#ffffff; stroke:none;" d="M788 507C787.24 516.3 781.979 526.628 784.43 536C785.654 540.68 794.529 559.115 799.044 560.828C804.882 563.043 819.286 548.691 822 544C817.069 542.87 809.835 541.787 807.183 536.895C804.868 532.624 807.891 528.394 807.678 524.019C807.397 518.238 797.053 511.642 792 511L788 507z"/>
<path style="fill:#f2f2f2; stroke:none;" d="M792 510L793 511L792 510M803 518L804 519L803 518M806 524L805 526L806 524M817 545L819 547L817 545M820 546L821 547L820 546z"/>
<path style="fill:#010915; stroke:none;" d="M391.667 597.333L392.333 597.667L391.667 597.333z"/>
<path style="fill:#010c23; stroke:none;" d="M400 600L401 601L400 600M387 601L388 602L387 601M401 602L402 603L401 602z"/>
<path style="fill:#010915; stroke:none;" d="M401 603L402 604L401 603z"/>
<path style="fill:#010c23; stroke:none;" d="M386 604L387 605L386 604M401 605L402 606L401 605M386 607L387 608L386 607z"/>
<path style="fill:#010915; stroke:none;" d="M386 608L387 609L386 608z"/>
<path style="fill:#010c23; stroke:none;" d="M387 609L388 610L387 609M388 610L389 611L388 610M397 610L398 611L397 610M389 611L390 612L389 611M395 611L396 612L395 611M391 612L392 613L391 612z"/>
</svg>
