<?xml version="1.0" standalone="yes"?>
<svg xmlns="http://www.w3.org/2000/svg" width="1231" height="874">
<path style="fill:#010101; stroke:none;" d="M0 0L0 874L1231 874L1231 0L0 0z"/>
<path style="fill:#ffffff; stroke:none;" d="M669 354L663 361L648 359C647.538 362.437 646.962 366.356 651 367L651 368C642.051 374.356 641.43 387.732 651 394L650 402L662 400C665.151 403.467 671.104 399.801 674.292 404.394C677.577 409.127 670.089 415.921 672.862 421.482C673.909 423.582 676.148 425.047 678.04 426.304C693.087 436.305 699.743 420.719 706 410L705 408L707 408L709 389C697.333 393.199 688.002 394.402 688 380L690 381L691 359L688 360C686.123 353.268 674.358 357.379 669 354z"/>
<path style="fill:#f7f7f7; stroke:none;" d="M668 355L669 356L668 355z"/>
<path style="fill:#fbfafb; stroke:none;" d="M670 355L671 356L670 355M684 356L685 357L684 356M677 358L678 359L677 358M688 358L688 360L690 358L688 358M667 359L668 360L667 359M672 359L673 360L672 359M674 359L675 360L674 359M679 359L680 360L679 359M662 360L663 361L662 360M689 360L688 362L690 362L689 360z"/>
<path style="fill:#f7f7f7; stroke:none;" d="M691 360L692 361L691 360M647 361L648 362L647 361z"/>
<path style="fill:#fbfafb; stroke:none;" d="M656.667 362.333L657.333 362.667L656.667 362.333z"/>
<path style="fill:#f7f7f7; stroke:none;" d="M690 362L691 363L690 362z"/>
<path style="fill:#fbfafb; stroke:none;" d="M647 363L648 364L647 363z"/>
<path style="fill:#efefef; stroke:none;" d="M659 363L660 364L659 363z"/>
<path style="fill:#f7f7f7; stroke:none;" d="M688 363L689 364L688 363z"/>
<path style="fill:#fbfafb; stroke:none;" d="M648 365L649 366L648 365z"/>
<path style="fill:#f7f7f7; stroke:none;" d="M649 367L650 368L649 367z"/>
<path style="fill:#fbfafb; stroke:none;" d="M650 367L651 368L650 367M651 369L651 372L652 372L651 369M647 372L648 373L647 372M688 375L689 376L688 375M688 380L688 384L689 384L688 380M643 383L644 384L643 383M646 384L647 387L648 387L646 384z"/>
<path style="fill:#f7f7f7; stroke:none;" d="M647 387L648 388L647 387z"/>
<path style="fill:#fbfafb; stroke:none;" d="M707 389L708 390L707 389M690 391L691 392L690 391z"/>
<path style="fill:#f7f7f7; stroke:none;" d="M692 391L693 392L692 391z"/>
<path style="fill:#fbfafb; stroke:none;" d="M705 391L706 395L707 395L708 392L705 391z"/>
<path style="fill:#f7f7f7; stroke:none;" d="M705 393L706 394L705 393M650 394L651 395L650 394z"/>
<path style="fill:#fbfafb; stroke:none;" d="M651 395L652 396L651 395z"/>
<path style="fill:#f7f7f7; stroke:none;" d="M651 396L652 397L651 396z"/>
<path style="fill:#fbfafb; stroke:none;" d="M704 396L705 397L704 396M650 397L651 398L650 397z"/>
<path style="fill:#f7f7f7; stroke:none;" d="M651 400L652 401L651 400z"/>
<path style="fill:#fbfafb; stroke:none;" d="M661 400L662 401L661 400M663 400L664 401L663 400M672.667 400.333L673.333 400.667L672.667 400.333M675 404L676 405L675 404M704 406L705 407L704 406z"/>
<path style="fill:#f7f7f7; stroke:none;" d="M705 406L706 407L705 406M705 408L706 409L705 408z"/>
<path style="fill:#fbfafb; stroke:none;" d="M706.333 408.667L706.667 409.333L706.333 408.667M704 410L704 413L706 413L706 410L704 410z"/>
<path style="fill:#ffffff; stroke:none;" d="M705 411L706 412L705 411z"/>
<path style="fill:#fbfafb; stroke:none;" d="M674 412L675 413L674 412z"/>
<path style="fill:#f7f7f7; stroke:none;" d="M675 413L676 414L675 413z"/>
<path style="fill:#fbfafb; stroke:none;" d="M674 414L675 415L674 414M672 415L673 416L672 415M700 417L701 418L700 417M700 419L701 420L700 419M671.333 420.667L671.667 421.333L671.333 420.667M697 421L698 422L697 421M673 422L674 423L673 422M677 424L678 425L677 424M693 424L692 428L693 428L693 424M678 426L679 427L678 426z"/>
</svg>
