<?xml version="1.0" standalone="yes"?>
<svg xmlns="http://www.w3.org/2000/svg" width="1231" height="874">
<path style="fill:#010101; stroke:none;" d="M0 0L0 874L1231 874L1231 0L0 0z"/>
<path style="fill:#ffffff; stroke:none;" d="M827 394L819 399L811 396L810 404L799 404L800 411L797 414C790.718 414.271 789.892 418.86 792 424L808 430L811 434L810 432L811 432L812 437L824 443L825 443L826 445C831.825 433.321 840.835 433.427 852 437C851.961 422.998 847.786 421.75 838 414L840 415L840 414L836 406C836.746 403.763 837.309 395.35 833 393C830.062 391.397 828.558 394.389 827 394z"/>
<path style="fill:#fbfafb; stroke:none;" d="M828 394L829 395L828 394z"/>
<path style="fill:#eeeeee; stroke:none;" d="M831 394L832 395L831 394z"/>
<path style="fill:#fbfafb; stroke:none;" d="M824 395L824 396L827 396L824 395z"/>
<path style="fill:#f5f5f5; stroke:none;" d="M827 395L828 396L827 395z"/>
<path style="fill:#fbfafb; stroke:none;" d="M818 397L818 399L820 397L818 397M812 399L812 400L815 400L812 399z"/>
<path style="fill:#f5f5f5; stroke:none;" d="M820 399L821 400L820 399z"/>
<path style="fill:#fbfafb; stroke:none;" d="M835 399L836 400L835 399M810 401L811 402L810 401M809 403L810 404L809 403z"/>
<path style="fill:#f5f5f5; stroke:none;" d="M836 403L837 404L836 403z"/>
<path style="fill:#fbfafb; stroke:none;" d="M798.667 405.333L799.333 405.667L798.667 405.333M836 405L837 406L836 405M836 407L837 408L836 407z"/>
<path style="fill:#f5f5f5; stroke:none;" d="M799 410L800 411L799 410z"/>
<path style="fill:#fbfafb; stroke:none;" d="M795.667 413.333L796.333 413.667L795.667 413.333M837 413L838 414L837 413M794 414L793 416L794 414M838.333 414.667L838.667 415.333L838.333 414.667z"/>
<path style="fill:#f5f5f5; stroke:none;" d="M796 415L797 416L796 415M839.667 415.333L840.333 415.667L839.667 415.333M791 419L792 420L791 419z"/>
<path style="fill:#fbfafb; stroke:none;" d="M845 419L846 420L845 419M847 419L848 420L847 419z"/>
<path style="fill:#eeeeee; stroke:none;" d="M795 420L796 421L795 420z"/>
<path style="fill:#f5f5f5; stroke:none;" d="M797 420L798 421L797 420z"/>
<path style="fill:#fbfafb; stroke:none;" d="M796 421L797 422L796 421M798 421L799 422L798 421M794.667 422.333L795.333 422.667L794.667 422.333z"/>
<path style="fill:#f5f5f5; stroke:none;" d="M799 422L800 423L799 422z"/>
<path style="fill:#fbfafb; stroke:none;" d="M848 422L849 423L848 422M850 422L851 423L850 422M801 424L802 425L801 424M849 424L849 427L850 427L849 424M800 426L801 427L800 426M801 427L802 428L801 427M804 428L805 429L804 428M806.667 428.333L807.333 428.667L806.667 428.333z"/>
<path style="fill:#f5f5f5; stroke:none;" d="M848 428L849 429L848 428z"/>
<path style="fill:#fbfafb; stroke:none;" d="M849.333 428.667L849.667 429.333L849.333 428.667M803 429L804 430L803 429M807 430L808 431L807 430M810.667 432.333L811.333 432.667L810.667 432.333M842 432L843 433L842 432z"/>
<path style="fill:#f5f5f5; stroke:none;" d="M811.333 433.667L811.667 434.333L811.333 433.667M843 434L844 435L843 434z"/>
<path style="fill:#fbfafb; stroke:none;" d="M811 435L812 436L811 435M815 436L816 437L815 436M828 436L829 437L828 436M813.667 437.333L814.333 437.667L813.667 437.333M830 437L831 438L830 437M815 438L816 439L815 438M818 440L819 441L818 440M823 440L822 442L823 440M825.333 440.667L825.667 441.333L825.333 440.667z"/>
<path style="fill:#eeeeee; stroke:none;" d="M824 443L825 444L824 443z"/>
<path style="fill:#fbfafb; stroke:none;" d="M824 444L825 445L824 444z"/>
<path style="fill:#f5f5f5; stroke:none;" d="M826 444L827 445L826 444z"/>
</svg>
