<?xml version="1.0" standalone="yes"?>
<svg xmlns="http://www.w3.org/2000/svg" width="1231" height="874">
<path style="fill:#010101; stroke:none;" d="M0 0L0 874L1231 874L1231 0L0 0z"/>
<path style="fill:#ffffff; stroke:none;" d="M981 428C970.672 425.982 960.474 433.276 963 444L940 447C934.675 440.905 922.617 443.465 919 450C908.736 447.502 908.369 463.344 916 466L919 471C920.285 477.163 932.747 478.341 937.985 480.731C944.119 483.531 950.357 489.927 956.961 491.213C971.455 494.037 985.731 482.027 986 468C994.681 464.708 995.088 471.389 1003 472L994.301 455L985 424L981 428z"/>
<path style="fill:#f5f5f5; stroke:none;" d="M986 426L987 427L986 426M980 427L981 428L980 427M987 427L988 428L987 427M973.667 430.333L974.333 430.667L973.667 430.333M924 443L925 444L924 443M962 443L963 444L962 443M988 443L989 444L988 443M963 445L961 448L964 448L963 445M940 446L941 447L940 446M928 447L929 448L928 447M943 447L944 448L943 447M915 449L916 450L915 449M918 449L919 450L918 449M911 461L912 462L911 461M914.667 466.333L915.333 466.667L914.667 466.333M996 466L997 467L996 466M918.667 468.333L919.333 468.667L918.667 468.333M986 468L987 469L986 468M998 468L999 469L998 468M918 471L919 472L918 471M922 472L923 473L922 472M941 480L942 481L941 480M942 482L943 483L942 482M946 484L947 485L946 484M948 484L949 485L948 484M950 485L952 487L950 485M948 486L949 487L948 486M957 489L957 491L959 491L959 489L957 489M960 490L961 491L960 490z"/>
<path style="fill:#010915; stroke:none;" d="M391.667 597.333L392.333 597.667L391.667 597.333z"/>
<path style="fill:#010c23; stroke:none;" d="M400 600L401 601L400 600M387 601L388 602L387 601M401 602L402 603L401 602z"/>
<path style="fill:#010915; stroke:none;" d="M401 603L402 604L401 603z"/>
<path style="fill:#010c23; stroke:none;" d="M386 604L387 605L386 604M401 605L402 606L401 605M386 607L387 608L386 607z"/>
<path style="fill:#010915; stroke:none;" d="M386 608L387 609L386 608z"/>
<path style="fill:#010c23; stroke:none;" d="M387 609L388 610L387 609M388 610L389 611L388 610M397 610L398 611L397 610M389 611L390 612L389 611M395 611L396 612L395 611M391 612L392 613L391 612z"/>
</svg>
