<?xml version="1.0" standalone="yes"?>
<svg xmlns="http://www.w3.org/2000/svg" width="1231" height="874">
<path style="fill:#010101; stroke:none;" d="M0 0L0 874L1231 874L1231 0L0 0z"/>
<path style="fill:#ffffff; stroke:none;" d="M646 580L646 582L628 585L624 586L624 587L627 587L627 588L623 588L622 594L624 593L624 594L622 597L624 597L622 601L624 605L644 592L644 586L645 586L647 591L648 586L648 585L645 586L645 583L648 584L648 580L646 580z"/>
<path style="fill:#f4f4f4; stroke:none;" d="M645 581L646 582L645 581z"/>
<path style="fill:#f9f9f9; stroke:none;" d="M647.333 581.667L647.667 582.333L647.333 581.667z"/>
<path style="fill:#fdfcfd; stroke:none;" d="M641 582L642 583L641 582M645 583L647 585L645 583M627 584L627 587L634 585L627 584z"/>
<path style="fill:#f9f9f9; stroke:none;" d="M645 584L646 585L645 584M647 584L648 585L647 584z"/>
<path style="fill:#fdfcfd; stroke:none;" d="M626 585L627 586L626 585z"/>
<path style="fill:#f4f4f4; stroke:none;" d="M645 585L646 586L645 585z"/>
<path style="fill:#fdfcfd; stroke:none;" d="M624 587L624 588L627 588L624 587M644.333 586.667L644.667 587.333L644.333 586.667M646 586L647 587L646 586z"/>
<path style="fill:#f9f9f9; stroke:none;" d="M625 587L626 588L625 587M644 588L644 591L645 591L644 588z"/>
<path style="fill:#fdfcfd; stroke:none;" d="M646 589L647 590L646 589M644 591L645 592L644 591M641 592L642 593L641 592M623 593L622 595L623 593M635.667 593.333L636.333 593.667L635.667 593.333z"/>
<path style="fill:#f4f4f4; stroke:none;" d="M623 594L624 595L623 594z"/>
<path style="fill:#fdfcfd; stroke:none;" d="M637 594L638 595L637 594z"/>
<path style="fill:#f4f4f4; stroke:none;" d="M622 595L623 596L622 595z"/>
<path style="fill:#fdfcfd; stroke:none;" d="M636 595L637 596L636 595M623 596L619 601L619 602L624 605L622 601L623 596M634 598L635 599L634 598z"/>
<path style="fill:#f9f9f9; stroke:none;" d="M629 601L630 602L629 601z"/>
<path style="fill:#ffffff; stroke:none;" d="M618 602L619 604L618 604L611 607L610 607L608 612L601 614L598 618L599 616L598 616C589.655 622.479 585.978 629.004 588 640L584 640L583 647L593 653L593 652L591 650L595 651L594 648L597 650L612 628L616 625C622.778 625.109 623.005 611.357 620 607L623 606L618 602z"/>
<path style="fill:#f9f9f9; stroke:none;" d="M619 602L620 603L619 602M617 603L618 604L617 603z"/>
<path style="fill:#fdfcfd; stroke:none;" d="M618 603L619 604L618 603M611 606L611 609L613 608L613 607L611 606z"/>
<path style="fill:#f9f9f9; stroke:none;" d="M613 606L614 607L613 606z"/>
<path style="fill:#fdfcfd; stroke:none;" d="M614.333 606.667L614.667 607.333L614.333 606.667M621 606L620 608L622 608L621 606M609 608L608 610L610 610L609 608M607 610L606 612L608 612L607 610M600 615L601 616L600 615z"/>
<path style="fill:#f9f9f9; stroke:none;" d="M601 615L602 616L601 615M599 616L600 617L599 616z"/>
<path style="fill:#fdfcfd; stroke:none;" d="M598.667 617.333L599.333 617.667L598.667 617.333M595 618L596 619L595 618M597 618L596 620L598 620L597 618z"/>
<path style="fill:#f9f9f9; stroke:none;" d="M598 619L599 620L598 619z"/>
<path style="fill:#fdfcfd; stroke:none;" d="M599.333 619.667L599.667 620.333L599.333 619.667z"/>
<path style="fill:#f9f9f9; stroke:none;" d="M591 621L592 622L591 621M589 622L590 623L589 622M591 624L592 625L591 624z"/>
<path style="fill:#fdfcfd; stroke:none;" d="M589 625L590 626L589 625M616 625L617 626L616 625z"/>
<path style="fill:#f9f9f9; stroke:none;" d="M589 626L590 627L589 626M616.667 626.333L617.333 626.667L616.667 626.333M588 627L589 628L588 627z"/>
<path style="fill:#fdfcfd; stroke:none;" d="M588.333 628.667L588.667 629.333L588.333 628.667M608 628L609 629L608 628M610 628L611 629L610 628M612 628L613 629L612 628z"/>
<path style="fill:#f9f9f9; stroke:none;" d="M609 629L610 630L609 629z"/>
<path style="fill:#f4f4f4; stroke:none;" d="M610 629L611 630L610 629z"/>
<path style="fill:#fdfcfd; stroke:none;" d="M608 630L609 631L608 630z"/>
<path style="fill:#f4f4f4; stroke:none;" d="M609 630L610 631L609 630z"/>
<path style="fill:#f9f9f9; stroke:none;" d="M604 632L605 633L604 632z"/>
<path style="fill:#fdfcfd; stroke:none;" d="M586 633L587 634L586 633M606 633L605 635L606 633M587 634L588 635L587 634M583 641L581 640L582 643L580 642L584 646L584 640L588 640L587 635L583 641z"/>
<path style="fill:#f9f9f9; stroke:none;" d="M606 636L607 637L606 636z"/>
<path style="fill:#f4f4f4; stroke:none;" d="M581 638L582 639L581 638z"/>
<path style="fill:#ffffff; stroke:none;" d="M583 638L584 639L583 638z"/>
<path style="fill:#fdfcfd; stroke:none;" d="M605 638L606 639L605 638z"/>
<path style="fill:#ffffff; stroke:none;" d="M580 639L579 643L582 643L580 639z"/>
<path style="fill:#f9f9f9; stroke:none;" d="M581 639L582 640L581 639z"/>
<path style="fill:#ffffff; stroke:none;" d="M582.333 639.667L582.667 640.333L582.333 639.667z"/>
<path style="fill:#fdfcfd; stroke:none;" d="M600 640L601 641L600 640M602 640L603 641L602 640z"/>
<path style="fill:#f9f9f9; stroke:none;" d="M578 641L579 642L578 641M601 641L602 642L601 641z"/>
<path style="fill:#f4f4f4; stroke:none;" d="M602 641L603 642L602 641z"/>
<path style="fill:#fdfcfd; stroke:none;" d="M600 642L601 643L600 642z"/>
<path style="fill:#f4f4f4; stroke:none;" d="M601 642L602 643L601 642z"/>
<path style="fill:#ffffff; stroke:none;" d="M580 643L581 644L580 643M581 644L582 645L581 644z"/>
<path style="fill:#f4f4f4; stroke:none;" d="M584 644L585 645L584 644z"/>
<path style="fill:#f9f9f9; stroke:none;" d="M587 644L588 645L587 644z"/>
<path style="fill:#fdfcfd; stroke:none;" d="M597 644L598 645L597 644M601 644L602 645L601 644z"/>
<path style="fill:#f9f9f9; stroke:none;" d="M582 645L583 646L582 645z"/>
<path style="fill:#fdfcfd; stroke:none;" d="M600 645L601 646L600 645M584 646L585 647L584 646z"/>
<path style="fill:#f9f9f9; stroke:none;" d="M596 647L597 648L596 647z"/>
<path style="fill:#fdfcfd; stroke:none;" d="M588.667 648.333L589.333 648.667L588.667 648.333z"/>
<path style="fill:#f9f9f9; stroke:none;" d="M591 648L592 649L591 648z"/>
<path style="fill:#f4f4f4; stroke:none;" d="M594 648L595 649L594 648z"/>
<path style="fill:#fdfcfd; stroke:none;" d="M595 648L595 651L596 651L595 648z"/>
<path style="fill:#f4f4f4; stroke:none;" d="M589 650L590 651L589 650z"/>
<path style="fill:#fdfcfd; stroke:none;" d="M591 650L594 654L595 651L591 650z"/>
<path style="fill:#f4f4f4; stroke:none;" d="M592 650L593 651L592 650z"/>
<path style="fill:#f9f9f9; stroke:none;" d="M593 651L594 652L593 651z"/>
</svg>
