<?xml version="1.0" standalone="yes"?>
<svg xmlns="http://www.w3.org/2000/svg" width="1231" height="874">
<path style="fill:#010101; stroke:none;" d="M0 0L0 874L1231 874L1231 0L0 0z"/>
<path style="fill:#ffffff; stroke:none;" d="M821 462L802 478C795.683 479.102 787.082 494.36 792 500L789 505L812 524L812 525C807.903 527.811 805.836 536.759 812 538C820.891 548.581 837.196 537.03 848 537C846.655 530.199 841.326 523.174 834 523L818.844 499L814 477C818.491 474.275 823.223 467.372 821 462z"/>
<path style="fill:#f6f6f6; stroke:none;" d="M821 464L822 465L821 464M817.667 465.333L818.333 465.667L817.667 465.333M820 465L821 466L820 465M814 467L815 468L814 467M819 468L820 469L819 468M815 469L815 470L818 470L815 469M811.667 471.333L812.333 471.667L811.667 471.333M815 471L816 472L815 471M806 473L807 474L806 473M813 476L812 478L813 476M801 477L802 478L801 477M814 477L815 478L814 477M800 479L799 481L800 479M803 479L804 480L803 479M793 487L794 488L793 487M795 491L796 492L795 491M812 491L813 492L812 491M790 498L791 499L790 498M818 499L819 500L818 499M790.667 500.333L791.333 500.667L790.667 500.333M817 501L818 502L817 501M819 503L821 505L819 503M790 504L791 505L790 504M793 504L794 505L793 504M795 506L796 507L795 506M794 508L795 509L794 508M798 508L800 510L798 508M824 508L825 509L824 508M796 509L797 510L796 509M798 511L799 512L798 511M801 513L802 514L801 513M824 515L825 516L824 515M807 517L808 518L807 517M828 517L829 518L828 517M834 522L835 523L834 522M810.667 524.333L811.333 524.667L810.667 524.333M811 527L812 528L811 527M808 531L809 532L808 531M847 535L848 536L847 535M832 536L832 537L835 537L832 536M811 538L812 539L811 538M816 540L817 541L816 540M823 542L824 543L823 542M824 543L825 544L824 543z"/>
<path style="fill:#010915; stroke:none;" d="M391.667 597.333L392.333 597.667L391.667 597.333z"/>
<path style="fill:#010c23; stroke:none;" d="M400 600L401 601L400 600M387 601L388 602L387 601M401 602L402 603L401 602z"/>
<path style="fill:#010915; stroke:none;" d="M401 603L402 604L401 603z"/>
<path style="fill:#010c23; stroke:none;" d="M386 604L387 605L386 604M401 605L402 606L401 605M386 607L387 608L386 607z"/>
<path style="fill:#010915; stroke:none;" d="M386 608L387 609L386 608z"/>
<path style="fill:#010c23; stroke:none;" d="M387 609L388 610L387 609M388 610L389 611L388 610M397 610L398 611L397 610M389 611L390 612L389 611M395 611L396 612L395 611M391 612L392 613L391 612z"/>
</svg>
