<?xml version="1.0" standalone="yes"?>
<svg xmlns="http://www.w3.org/2000/svg" width="1231" height="874">
<path style="fill:#010101; stroke:none;" d="M0 0L0 874L1231 874L1231 0L0 0z"/>
<path style="fill:#ffffff; stroke:none;" d="M247 600C247.631 607.178 252.293 613.68 251.671 621C250.448 635.41 235.712 652.051 242.919 665.907C245.495 670.86 251.189 671.979 254.401 676.21C258.027 680.985 258.032 685.976 264 689C265.005 684.66 266.268 679.778 268.969 676.144C270.635 673.903 274.421 672.73 275.022 669.856C277.182 659.524 265.103 649.786 263.545 640C262.423 632.951 268 622.911 268 615L273 615C276.324 596.75 259.028 598.472 247 600z"/>
</svg>
