<?xml version="1.0" standalone="yes"?>
<svg xmlns="http://www.w3.org/2000/svg" width="1231" height="874">
<path style="fill:#010101; stroke:none;" d="M0 0L0 874L1231 874L1231 0L0 0z"/>
<path style="fill:#ffffff; stroke:none;" d="M645 595C638.799 595.443 634.479 600.592 632 606L624 607L623.278 622.778L618 631L617 631L617 629L616 629L608 642L606 641L595 656L598 658L600 657L605 662L604 660L605 660L607 664L610 665C610.5 670.425 614.574 673.992 620 674L629 678L632 676L632 677L630 680L632 674L634 675C634 670.577 641.746 674.354 644.833 671.667C648.248 668.695 653.861 645.573 650 644C650.633 637.774 652.442 635.345 659 634L663 628C667.412 627.445 665.2 623.219 664.389 620C662.748 613.488 656.072 607.009 650 604L649 601L648 593L645 595z"/>
<path style="fill:#f2f2f2; stroke:none;" d="M644 594L645 595L644 594z"/>
<path style="fill:#fbfafb; stroke:none;" d="M647 594L648 595L647 594M641 595L642 596L641 595M643 595L642 597L643 595z"/>
<path style="fill:#f7f7f7; stroke:none;" d="M648 595L649 596L648 595z"/>
<path style="fill:#fbfafb; stroke:none;" d="M639 596L640 597L639 596M640 597L641 598L640 597M649 597L650 598L649 597z"/>
<path style="fill:#f7f7f7; stroke:none;" d="M639 598L640 599L639 598z"/>
<path style="fill:#fbfafb; stroke:none;" d="M636 599L637 600L636 599z"/>
<path style="fill:#f7f7f7; stroke:none;" d="M638 599L639 600L638 599z"/>
<path style="fill:#fbfafb; stroke:none;" d="M649 600L650 601L649 600z"/>
<path style="fill:#f2f2f2; stroke:none;" d="M650 600L651 601L650 600z"/>
<path style="fill:#fbfafb; stroke:none;" d="M635 603L636 604L635 603M650.667 603.333L651.333 603.667L650.667 603.333z"/>
<path style="fill:#f7f7f7; stroke:none;" d="M631 605L632 606L631 605z"/>
<path style="fill:#fbfafb; stroke:none;" d="M630 607L631 608L630 607M653 610L654 611L653 610M660.333 613.667L660.667 614.333L660.333 613.667M623.333 614.667L623.667 615.333L623.333 614.667M662 615L663 616L662 615M623 620L623 624L624 624L623 620M664 623L665 624L664 623M664.333 625.667L664.667 626.333L664.333 625.667M666.333 625.667L666.667 626.333L666.333 625.667z"/>
<path style="fill:#f7f7f7; stroke:none;" d="M620 627L621 628L620 627z"/>
<path style="fill:#fbfafb; stroke:none;" d="M622 627L623 628L622 627M619 628L620 629L619 628M660 628L660 630L662 628L660 628M663.333 628.667L663.667 629.333L663.333 628.667M617.333 629.667L617.667 630.333L617.333 629.667z"/>
<path style="fill:#ffffff; stroke:none;" d="M614 630L615 631L614 630z"/>
<path style="fill:#fbfafb; stroke:none;" d="M615 630L616 631L615 630M613 631L614 632L613 631z"/>
<path style="fill:#f7f7f7; stroke:none;" d="M614.667 631.333L615.333 631.667L614.667 631.333z"/>
<path style="fill:#fbfafb; stroke:none;" d="M618 631L619 632L618 631M660.667 631.333L661.333 631.667L660.667 631.333z"/>
<path style="fill:#f7f7f7; stroke:none;" d="M652 632L653 633L652 632z"/>
<path style="fill:#fbfafb; stroke:none;" d="M656 632L657 633L656 632M659 632L660 633L659 632M611 633L612 634L611 633M657 633L658 634L657 633M656 634L657 635L656 634M609 635L610 636L609 635M611 635L612 636L611 635M651 636L652 637L651 636M610 638L611 639L610 638M649 638L650 639L649 638z"/>
<path style="fill:#f2f2f2; stroke:none;" d="M608 639L609 640L608 639z"/>
<path style="fill:#f7f7f7; stroke:none;" d="M607 640L608 641L607 640z"/>
<path style="fill:#fbfafb; stroke:none;" d="M607 641L608 642L607 641M607 643L608 644L607 643M650 643L651 644L650 643M602 646L603 647L602 646z"/>
<path style="fill:#f2f2f2; stroke:none;" d="M603 648L604 649L603 648z"/>
<path style="fill:#fbfafb; stroke:none;" d="M601.333 650.667L601.667 651.333L601.333 650.667M603 651L604 652L603 651M597 652L598 653L597 652M599 652L597 655L599 652M650 652L651 653L650 652M596 653L597 654L596 653M596 655L597 656L596 655M597 656L598 657L597 656z"/>
<path style="fill:#f7f7f7; stroke:none;" d="M603 656L604 657L603 656z"/>
<path style="fill:#fbfafb; stroke:none;" d="M599 657L600 658L599 657M604 660L606 662L604 660z"/>
<path style="fill:#f7f7f7; stroke:none;" d="M605 660L606 661L605 660z"/>
<path style="fill:#fbfafb; stroke:none;" d="M606.667 662.333L607.333 662.667L606.667 662.333M608 664L609 665L608 664M610 664L611 668L612 668L610 664z"/>
<path style="fill:#f7f7f7; stroke:none;" d="M644 664L645 665L644 664z"/>
<path style="fill:#fbfafb; stroke:none;" d="M609 665L610 666L609 665M615 668L616 669L615 668M646 668L647 669L646 668M635 672L633 673L633 674L635 672M619 674L620 675L619 674M632 674L633 675L632 674z"/>
<path style="fill:#f7f7f7; stroke:none;" d="M632 675L633 676L632 675z"/>
<path style="fill:#fbfafb; stroke:none;" d="M623 676L624 677L623 676M629 676L628 679L629 676z"/>
<path style="fill:#f7f7f7; stroke:none;" d="M630 676L631 677L630 676z"/>
<path style="fill:#fbfafb; stroke:none;" d="M631 676L632 677L631 676M626 677L627 678L626 677z"/>
</svg>
