<?xml version="1.0" standalone="yes"?>
<svg xmlns="http://www.w3.org/2000/svg" width="1231" height="874">
<path style="fill:#010101; stroke:none;" d="M0 0L0 874L1231 874L1231 0L0 0z"/>
<path style="fill:#fdfcfd; stroke:none;" d="M620 153L621 154L620 153z"/>
<path style="fill:#f8f8f8; stroke:none;" d="M614 154L614 156L616 154L614 154z"/>
<path style="fill:#ffffff; stroke:none;" d="M611 175L611 176L601 184L604 186L599 185L598 189L600 192L597 190L597 206L606.397 208.603L608.742 219.786L619 227L619 231L621 231L626 224L627 224L629 226L628 224L629 224L631 228C636.581 229.815 641.923 232.138 644 225L648 223C652.475 223.247 662.945 222.932 664 218C669.534 216.789 663.142 210 660 210L661 207L658 208C659.018 202.748 655.55 198.325 651 196L651 192L649 193L648 193C648.206 188.381 646.487 185.381 642 184L642 183L644 182L629 162C624.157 161.193 623.89 150.713 616 154C607.856 157.393 612.842 170.158 609 174C607.598 175.402 610.799 174.96 611 175z"/>
<path style="fill:#fdfcfd; stroke:none;" d="M613 155L614 156L613 155M620.667 155.333L621.333 155.667L620.667 155.333M615.333 156.667L615.667 157.333L615.333 156.667M613 158L614 159L613 158z"/>
<path style="fill:#f8f8f8; stroke:none;" d="M612.667 159.333L613.333 159.667L612.667 159.333z"/>
<path style="fill:#fdfcfd; stroke:none;" d="M615 159L616 160L615 159M624.333 160.667L624.667 161.333L624.333 160.667z"/>
<path style="fill:#f8f8f8; stroke:none;" d="M626 160L628 162L626 160z"/>
<path style="fill:#fdfcfd; stroke:none;" d="M626 161L627 162L626 161z"/>
<path style="fill:#f8f8f8; stroke:none;" d="M628 163L629 164L628 163z"/>
<path style="fill:#fdfcfd; stroke:none;" d="M626 164L627 165L626 164M628 165L631 168L631 167L628 165z"/>
<path style="fill:#f4f4f4; stroke:none;" d="M629 166L630 167L629 166z"/>
<path style="fill:#fdfcfd; stroke:none;" d="M633 170L634 171L633 170M610 173L611 174L610 173M611 174L612 175L611 174M636 174L638 176L636 174M609.667 175.333L610.333 175.667L609.667 175.333M637 179L638 180L637 179M639 179L641 181L639 179z"/>
<path style="fill:#f8f8f8; stroke:none;" d="M640 181L641 182L640 181z"/>
<path style="fill:#fdfcfd; stroke:none;" d="M603 182L604 183L603 182z"/>
<path style="fill:#f4f4f4; stroke:none;" d="M641 182L642 183L641 182z"/>
<path style="fill:#fdfcfd; stroke:none;" d="M600 186L604 186L603 183L600 186z"/>
<path style="fill:#f8f8f8; stroke:none;" d="M642 183L643 184L642 183z"/>
<path style="fill:#fdfcfd; stroke:none;" d="M643 183L644 184L643 183M598 189L599 192L600 192L600 189L598 189z"/>
<path style="fill:#f8f8f8; stroke:none;" d="M599 190L600 191L599 190M648 191L649 192L648 191z"/>
<path style="fill:#fdfcfd; stroke:none;" d="M649 191L650 192L649 191M648 192L649 193L648 192M648 194L649 195L648 194M650 194L651 195L650 194M651.667 195.333L652.333 195.667L651.667 195.333M652 197L653 198L652 197M595 198L596 199L595 198M597 204L598 205L597 204M600 204L600 205L604 205L600 204M605 204L606 205L605 204M607 204L608 205L607 204z"/>
<path style="fill:#f8f8f8; stroke:none;" d="M599 205L600 206L599 205z"/>
<path style="fill:#fdfcfd; stroke:none;" d="M658 205L660 207L660 205L658 205M657 206L658 207L657 206z"/>
<path style="fill:#f8f8f8; stroke:none;" d="M658.667 207.333L659.333 207.667L658.667 207.333z"/>
<path style="fill:#fdfcfd; stroke:none;" d="M607 208L608 209L607 208M656 208L657 209L656 208z"/>
<path style="fill:#f8f8f8; stroke:none;" d="M660 208L661 209L660 208z"/>
<path style="fill:#fdfcfd; stroke:none;" d="M661 208L662 209L661 208M660 209L661 210L660 209M663 211L664 212L663 211M664 213L665 214L664 213z"/>
<path style="fill:#f8f8f8; stroke:none;" d="M665 216L666 217L665 216z"/>
<path style="fill:#fdfcfd; stroke:none;" d="M664.667 218.333L665.333 218.667L664.667 218.333z"/>
<path style="fill:#f8f8f8; stroke:none;" d="M615 220L616 221L615 220z"/>
<path style="fill:#fdfcfd; stroke:none;" d="M649 220L650 221L649 220M611 221L612 222L611 221M613 221L615 223L613 221M652 221L653 222L652 221M654 221L655 222L654 221z"/>
<path style="fill:#f8f8f8; stroke:none;" d="M662 221L663 222L662 221z"/>
<path style="fill:#fdfcfd; stroke:none;" d="M610 222L611 223L610 222M648 223L649 224L648 223z"/>
<path style="fill:#f8f8f8; stroke:none;" d="M617 224L618 225L617 224z"/>
<path style="fill:#fdfcfd; stroke:none;" d="M624 224L625 225L624 224z"/>
<path style="fill:#f8f8f8; stroke:none;" d="M626 224L627 225L626 224z"/>
<path style="fill:#fdfcfd; stroke:none;" d="M628 224L630 226L628 224z"/>
<path style="fill:#f4f4f4; stroke:none;" d="M629 224L630 225L629 224z"/>
<path style="fill:#fdfcfd; stroke:none;" d="M645 224L646 225L645 224z"/>
<path style="fill:#f8f8f8; stroke:none;" d="M621 225L623 227L621 225z"/>
<path style="fill:#fdfcfd; stroke:none;" d="M622 225L623 226L622 225z"/>
<path style="fill:#f8f8f8; stroke:none;" d="M625 225L626 226L625 225z"/>
<path style="fill:#fdfcfd; stroke:none;" d="M644.333 225.667L644.667 226.333L644.333 225.667M621 226L622 227L621 226z"/>
<path style="fill:#f8f8f8; stroke:none;" d="M630 226L631 227L630 226z"/>
<path style="fill:#fdfcfd; stroke:none;" d="M631 226L632 227L631 226z"/>
<path style="fill:#f8f8f8; stroke:none;" d="M617 227L618 228L617 227z"/>
<path style="fill:#fdfcfd; stroke:none;" d="M618 227L619 228L618 227z"/>
<path style="fill:#f4f4f4; stroke:none;" d="M620 228L621 229L620 228z"/>
<path style="fill:#fdfcfd; stroke:none;" d="M638 228L640 230L638 228z"/>
<path style="fill:#f8f8f8; stroke:none;" d="M641 228L642 229L641 228M640 229L641 230L640 229z"/>
</svg>
