<?xml version="1.0" standalone="yes"?>
<svg xmlns="http://www.w3.org/2000/svg" width="1231" height="874">
<path style="fill:#010101; stroke:none;" d="M0 0L0 874L1231 874L1231 0L0 0z"/>
<path style="fill:#ffffff; stroke:none;" d="M441 500C437.552 514.344 431.866 509.97 422 507C421.915 516.434 412.352 520.856 412.832 529.945C413.05 534.076 417.449 533.564 419.083 536.509C420.483 539.031 417.456 542.155 417.951 544.957C419.211 552.087 427.257 552.368 424 561C426.384 562.814 428.564 564.968 431.002 566.694C441.071 573.826 445.085 556.437 451.21 552.098C456.129 548.613 462.867 551.454 467.471 547.436C471.633 543.805 471.964 538.817 473.61 534C475.113 529.604 478.912 525.766 479.219 521C479.724 513.153 471.486 500.877 468 494L454.985 504.356L441 500z"/>
</svg>
