<?xml version="1.0" standalone="yes"?>
<svg xmlns="http://www.w3.org/2000/svg" width="1231" height="874">
<path style="fill:#010101; stroke:none;" d="M0 0L0 874L1231 874L1231 0L0 0z"/>
<path style="fill:#ffffff; stroke:none;" d="M779 416L772 415L767 422C759.949 421.024 760.004 426.388 760 432L756 432L756 431L759 431L759 428C753.847 430.323 745.634 442.262 754.148 445.968C759.785 448.421 764.597 444.642 770.039 445.462C775.285 446.253 780.627 451.89 785 446L790 447L789 455L787 452L784 455L787 457C782.008 456.285 779.081 459.71 777 464L780 464L780 465L775 465L775 466C781.941 467.734 792.137 461.583 792 454L793 452L798.513 441.961L808 441C808.91 445.246 813.141 444.12 816 442L813 439L811 440C810.561 437.803 806.866 430.668 806 435L805 435L794 425L795 428L788 425L790 423L788 415L779 416z"/>
<path style="fill:#fbfafb; stroke:none;" d="M776 415L777 416L776 415z"/>
<path style="fill:#f7f7f7; stroke:none;" d="M777 415L778 416L777 415z"/>
<path style="fill:#fbfafb; stroke:none;" d="M778 415L779 416L778 415z"/>
<path style="fill:#f7f7f7; stroke:none;" d="M788 420L789 421L788 420z"/>
<path style="fill:#fbfafb; stroke:none;" d="M763 421L764 422L763 421M766 421L767 422L766 421z"/>
<path style="fill:#f2f2f2; stroke:none;" d="M788 422L789 423L788 422M764 423L765 424L764 423z"/>
<path style="fill:#fbfafb; stroke:none;" d="M765 423L766 424L765 423M768.667 423.333L769.333 423.667L768.667 423.333M788.667 424.333L789.333 424.667L788.667 424.333z"/>
<path style="fill:#f7f7f7; stroke:none;" d="M759 425L760 426L759 425z"/>
<path style="fill:#fbfafb; stroke:none;" d="M790 425L791 426L790 425M759 426L759 431L756 431L756 432L760 432L759 426M793 426L793 428L795 428L793 426z"/>
<path style="fill:#f2f2f2; stroke:none;" d="M789 427L790 428L789 427z"/>
<path style="fill:#fbfafb; stroke:none;" d="M790 427L791 428L790 427M796 427L796 430L797 430L796 427M798 429L799 430L798 429M800 430L801 431L800 430M753 431L754 432L753 431M798.667 431.333L799.333 431.667L798.667 431.333M802 431L803 432L802 431z"/>
<path style="fill:#f7f7f7; stroke:none;" d="M751 432L752 433L751 432z"/>
<path style="fill:#fbfafb; stroke:none;" d="M805 432L806 433L805 432M751.333 433.667L751.667 434.333L751.333 433.667z"/>
<path style="fill:#f7f7f7; stroke:none;" d="M805 433L806 434L805 433z"/>
<path style="fill:#fbfafb; stroke:none;" d="M805 434L806 435L805 434M807 434L808 435L807 434M809 437L810 438L809 437M808 438L809 439L808 438z"/>
<path style="fill:#f7f7f7; stroke:none;" d="M751 439L752 440L751 439z"/>
<path style="fill:#fbfafb; stroke:none;" d="M811 439L812 440L811 439M804 440L805 441L804 440M813 440L814 441L813 440M797 441L798 442L797 441M805 441L808 444L805 441z"/>
<path style="fill:#f7f7f7; stroke:none;" d="M807 441L808 442L807 441z"/>
<path style="fill:#fbfafb; stroke:none;" d="M816 442L817 443L816 442M813 443L814 444L813 443M757 444L757 445L764 445L757 444M773 444L774 445L773 444z"/>
<path style="fill:#f7f7f7; stroke:none;" d="M784 444L785 445L784 444z"/>
<path style="fill:#fbfafb; stroke:none;" d="M785.667 444.333L786.333 444.667L785.667 444.333z"/>
<path style="fill:#f7f7f7; stroke:none;" d="M791 444L792 445L791 444z"/>
<path style="fill:#fbfafb; stroke:none;" d="M796 444L797 445L796 444M765 445L766 446L765 445M789 445L791 447L789 445M775 446L776 447L775 446M785 446L786 447L785 446M789.333 447.667L789.667 448.333L789.333 447.667M780 448L781 449L780 448z"/>
<path style="fill:#f2f2f2; stroke:none;" d="M791 448L792 449L791 448z"/>
<path style="fill:#fbfafb; stroke:none;" d="M787 451L789 455L787 451M791 451L792 452L791 451M793 452L794 453L793 452M792.667 454.333L793.333 454.667L792.667 454.333M784 455L784 456L787 457L784 455M791 456L788 458L788 459L791 456M783 457L781 459L781 460L785 460L783 457z"/>
<path style="fill:#f7f7f7; stroke:none;" d="M790 459L791 460L790 459z"/>
<path style="fill:#fbfafb; stroke:none;" d="M779 460L780 461L779 460z"/>
<path style="fill:#f7f7f7; stroke:none;" d="M788 460L789 461L788 460z"/>
<path style="fill:#fbfafb; stroke:none;" d="M789 460L790 461L789 460M788 461L789 462L788 461M779 462L780 463L779 462M784 462L785 463L784 462z"/>
<path style="fill:#f2f2f2; stroke:none;" d="M786 462L787 463L786 462z"/>
<path style="fill:#fbfafb; stroke:none;" d="M775 464L775 465L780 465L775 464z"/>
<path style="fill:#f7f7f7; stroke:none;" d="M780 466L781 467L780 466z"/>
</svg>
