<?xml version="1.0" standalone="yes"?>
<svg xmlns="http://www.w3.org/2000/svg" width="1231" height="874">
<path style="fill:#010101; stroke:none;" d="M0 0L0 874L1231 874L1231 0L0 0z"/>
<path style="fill:#fbfafb; stroke:none;" d="M702 540L703 541L702 540z"/>
<path style="fill:#ffffff; stroke:none;" d="M703 540C700.854 543.005 698.975 546.735 704 547L704 555L703 555L702 552L692.815 567.956L678 584L658 578C654.574 574.019 647.476 574.453 644 578L649 576L649 579L652 579L650 585L654 585L654 586L649 586L650 589L655 588L656 585L660 584C660.443 586.68 662.717 585.723 665 585C668.252 594.31 669.975 599.765 681 600L696 580L714 583L714 588L720 575C710.28 567.848 713.553 557.403 714 547L703 540z"/>
<path style="fill:#f7f7f7; stroke:none;" d="M701 541L702 542L701 541z"/>
<path style="fill:#fbfafb; stroke:none;" d="M702 542L702 545L703 545L702 542M705 543L706 544L705 543M708 544L709 545L708 544z"/>
<path style="fill:#f7f7f7; stroke:none;" d="M708 546L710 548L708 546z"/>
<path style="fill:#fbfafb; stroke:none;" d="M703.333 547.667L703.667 548.333L703.333 547.667M712 547L713 548L712 547M703 551L703 555L704 555L703 551M702 555L703 556L702 555z"/>
<path style="fill:#f7f7f7; stroke:none;" d="M698 562L699 563L698 562z"/>
<path style="fill:#fbfafb; stroke:none;" d="M699 562L700 563L699 562M695 569L696 570L695 569M693 571L694 572L693 571M713.333 571.667L713.667 572.333L713.333 571.667M715 571L716 572L715 571M683 573L684 574L683 573M717 573L718 574L717 573M682.333 574.667L682.667 575.333L682.333 574.667M718 574L719 575L718 574z"/>
<path style="fill:#f2f2f2; stroke:none;" d="M652 575L653 576L652 575z"/>
<path style="fill:#f7f7f7; stroke:none;" d="M716 575L717 576L716 575z"/>
<path style="fill:#fbfafb; stroke:none;" d="M648 576L648 578L650 578L648 576M650 576L653 578L653 577L650 576M683 576L684 577L683 576z"/>
<path style="fill:#f7f7f7; stroke:none;" d="M647 577L648 578L647 577z"/>
<path style="fill:#fbfafb; stroke:none;" d="M658 577L659 578L658 577M650 578L650 580L652 580L650 578M656.667 578.333L657.333 578.667L656.667 578.333M662 578L663 579L662 578M683 578L684 579L683 578M716 578L717 579L716 578z"/>
<path style="fill:#f2f2f2; stroke:none;" d="M658 579L659 580L658 579M660 579L661 580L660 579z"/>
<path style="fill:#fbfafb; stroke:none;" d="M661 579L662 580L661 579M663 579L664 580L663 579M680 579L681 580L680 579M679.333 580.667L679.667 581.333L679.333 580.667M692 580L692 583L695 580L692 580z"/>
<path style="fill:#f7f7f7; stroke:none;" d="M696 580L697 581L696 580z"/>
<path style="fill:#fbfafb; stroke:none;" d="M697 580L698 581L697 580M714 580L715 581L714 580z"/>
<path style="fill:#f7f7f7; stroke:none;" d="M694 581L695 582L694 581z"/>
<path style="fill:#fbfafb; stroke:none;" d="M668.667 582.333L669.333 582.667L668.667 582.333z"/>
<path style="fill:#f7f7f7; stroke:none;" d="M693 582L694 583L693 582z"/>
<path style="fill:#fbfafb; stroke:none;" d="M704 582L704 583L711 583L704 582M716 582L717 583L716 582z"/>
<path style="fill:#f2f2f2; stroke:none;" d="M671 583L672 584L671 583z"/>
<path style="fill:#fbfafb; stroke:none;" d="M676.667 583.333L677.333 583.667L676.667 583.333M658 584L658 586L660 584L658 584M650 585L651 587L652 587L653 585L650 585z"/>
<path style="fill:#f7f7f7; stroke:none;" d="M653 585L654 586L653 585M656 585L657 586L656 585z"/>
<path style="fill:#fbfafb; stroke:none;" d="M664 585L665 586L664 585z"/>
<path style="fill:#f2f2f2; stroke:none;" d="M667 585L668 586L667 585z"/>
<path style="fill:#fbfafb; stroke:none;" d="M654 586L655 587L654 586M656.667 586.333L657.333 586.667L656.667 586.333M665 586L666 587L665 586M667 586L668 587L667 586M652 587L653 588L652 587z"/>
<path style="fill:#f7f7f7; stroke:none;" d="M688 587L689 588L688 587z"/>
<path style="fill:#fbfafb; stroke:none;" d="M649 588L650 589L649 588M666 589L667 590L666 589M667 590L668 591L667 590M667.333 592.667L667.667 593.333L667.333 592.667M686 592L687 593L686 592M673.667 596.333L674.333 596.667L673.667 596.333z"/>
<path style="fill:#f7f7f7; stroke:none;" d="M675 596L676 597L675 596z"/>
<path style="fill:#fbfafb; stroke:none;" d="M681 597L681 599L683 597L681 597z"/>
</svg>
