<?xml version="1.0" standalone="yes"?>
<svg xmlns="http://www.w3.org/2000/svg" width="1231" height="874">
<path style="fill:#010101; stroke:none;" d="M0 0L0 874L1231 874L1231 0L0 0z"/>
<path style="fill:#ffffff; stroke:none;" d="M276 665C277.555 669.927 276.871 674.213 271 675L265 692C271.698 693.609 276.99 697.425 281 703L301.91 695.055L310.633 703.987L331 710C331.486 703.062 326.236 696.299 327.073 690.104C327.576 686.376 332.857 685.311 330.338 681.024C325.878 673.433 315.237 671.076 311.179 662.999C308.23 657.13 314.597 642.567 303.996 642.448C291.523 642.309 285.155 659.129 276 665z"/>
</svg>
