<?xml version="1.0" standalone="yes"?>
<svg xmlns="http://www.w3.org/2000/svg" width="1231" height="874">
<path style="fill:#010101; stroke:none;" d="M0 0L0 874L1231 874L1231 0L0 0z"/>
<path style="fill:#f8f8f8; stroke:none;" d="M854 449L855 450L854 449z"/>
<path style="fill:#ffffff; stroke:none;" d="M842 472C841.992 477.309 847.656 488.789 852 492C850.783 501.851 858.373 510.56 865 516L867 516L867 514L868 514C868.513 516.475 868.604 516.575 871 516L875 519L876 516C881.833 514.499 880.002 506.702 880 502C879.995 491.478 876.063 472.317 864 469L865 466C860.537 463.27 860.668 457.831 861 453C858.856 452.495 856.427 450.285 854.166 450.829C848.955 452.084 836.376 467.186 842 472z"/>
<path style="fill:#f8f8f8; stroke:none;" d="M855 451L856 452L855 451M858 452L859 453L858 452M856 453L857 454L856 453M859 453L860 454L859 453M850 454L851 455L850 454M860 454L861 455L860 454M858 455L859 456L858 455M847 457L848 458L847 457M846 458L847 459L846 458M845 459L846 460L845 459M861 462L862 463L861 462M843 464L844 465L843 464M862 464L862 466L864 466L862 464M841 466L842 467L841 466M843 466L844 467L843 466M840 467L841 468L840 467M864.667 468.333L865.333 468.667L864.667 468.333M864 470L864 472L866 472L864 470M867 470L868 471L867 470M841 472L842 473L841 472M868.333 472.667L868.667 473.333L868.333 472.667M869 475L870 476L869 475M871 475L872 476L871 475M847 476L848 477L847 476M873 477L874 478L873 477M874 478L875 479L874 478M872 480L872 483L873 483L872 480M875 483L876 484L875 483M851 485L852 486L851 485M876 485L877 486L876 485M877 486L878 487L877 486M849 487L850 488L849 487M876 488L877 489L876 488M876 490L877 491L876 490M879 491L880 492L879 491M851 492L852 493L851 492M855 498L856 499L855 498M855 504L856 505L855 504M859 504L860 505L859 504M857 508L858 509L857 508M864 512L866 514L864 512M878 512L876 515L878 512M864 514L865 515L864 514M867.333 514.667L867.667 515.333L867.333 514.667M870 516L871 517L870 516M875.333 516.667L875.667 517.333L875.333 516.667M872 517L873 518L872 517z"/>
<path style="fill:#010915; stroke:none;" d="M391.667 597.333L392.333 597.667L391.667 597.333z"/>
<path style="fill:#010c23; stroke:none;" d="M400 600L401 601L400 600M387 601L388 602L387 601M401 602L402 603L401 602z"/>
<path style="fill:#010915; stroke:none;" d="M401 603L402 604L401 603z"/>
<path style="fill:#010c23; stroke:none;" d="M386 604L387 605L386 604M401 605L402 606L401 605M386 607L387 608L386 607z"/>
<path style="fill:#010915; stroke:none;" d="M386 608L387 609L386 608z"/>
<path style="fill:#010c23; stroke:none;" d="M387 609L388 610L387 609M388 610L389 611L388 610M397 610L398 611L397 610M389 611L390 612L389 611M395 611L396 612L395 611M391 612L392 613L391 612z"/>
</svg>
