<?xml version="1.0" standalone="yes"?>
<svg xmlns="http://www.w3.org/2000/svg" width="1231" height="874">
<path style="fill:#010101; stroke:none;" d="M0 0L0 874L1231 874L1231 0L0 0z"/>
<path style="fill:#ffffff; stroke:none;" d="M562 176L557 174L558 179L557 179L557 177L556 177L552 182L550 198L553 227L557 237L560 237L558 248C565.282 246.985 570.954 251.396 577 255C577.677 248.292 582.929 233.181 577 228L570 205L572 196C574.19 196 573.262 176.913 569 176L570 173L562 176z"/>
<path style="fill:#fdfcfd; stroke:none;" d="M567 173L568 174L567 173M558 174L559 175L558 174z"/>
<path style="fill:#f9f9f9; stroke:none;" d="M563 174L564 175L563 174z"/>
<path style="fill:#fdfcfd; stroke:none;" d="M566 174L565 176L566 174M568 174L569 175L568 174z"/>
<path style="fill:#f9f9f9; stroke:none;" d="M570.333 174.667L570.667 175.333L570.333 174.667z"/>
<path style="fill:#fdfcfd; stroke:none;" d="M557 175L557 179L558 179L557 175M560.667 175.333L561.333 175.667L560.667 175.333M569 175L570 176L569 175z"/>
<path style="fill:#f9f9f9; stroke:none;" d="M559 177L560 178L559 177z"/>
<path style="fill:#fdfcfd; stroke:none;" d="M559 178L560 179L559 178z"/>
<path style="fill:#f5f5f5; stroke:none;" d="M555 179L556 180L555 179z"/>
<path style="fill:#fdfcfd; stroke:none;" d="M558 179L559 180L558 179z"/>
<path style="fill:#f9f9f9; stroke:none;" d="M554 183L555 184L554 183z"/>
<path style="fill:#f5f5f5; stroke:none;" d="M572 188L573 189L572 188z"/>
<path style="fill:#fdfcfd; stroke:none;" d="M572 190L573 191L572 190z"/>
<path style="fill:#f9f9f9; stroke:none;" d="M555 192L556 193L555 192z"/>
<path style="fill:#f5f5f5; stroke:none;" d="M555 193L556 194L555 193z"/>
<path style="fill:#fdfcfd; stroke:none;" d="M551 194L552 195L551 194z"/>
<path style="fill:#f9f9f9; stroke:none;" d="M553 194L552 196L553 194z"/>
<path style="fill:#fdfcfd; stroke:none;" d="M555 194L556 195L555 194M553 195L554 196L553 195z"/>
<path style="fill:#f5f5f5; stroke:none;" d="M572 196L573 197L572 196z"/>
<path style="fill:#fdfcfd; stroke:none;" d="M572 197L573 198L572 197M572 199L573 200L572 199z"/>
<path style="fill:#f5f5f5; stroke:none;" d="M572 200L573 201L572 200z"/>
<path style="fill:#fdfcfd; stroke:none;" d="M551 201L552 202L551 201M555 204L556 205L555 204z"/>
<path style="fill:#f9f9f9; stroke:none;" d="M568 204L569 205L568 204z"/>
<path style="fill:#fdfcfd; stroke:none;" d="M568.333 205.667L568.667 206.333L568.333 205.667M570 205L571 206L570 205M555 206L556 207L555 206z"/>
<path style="fill:#f9f9f9; stroke:none;" d="M570 208L571 209L570 208z"/>
<path style="fill:#fdfcfd; stroke:none;" d="M568 209L569 210L568 209M570.333 212.667L570.667 213.333L570.333 212.667z"/>
<path style="fill:#f5f5f5; stroke:none;" d="M572 222L573 223L572 222z"/>
<path style="fill:#fdfcfd; stroke:none;" d="M572 223L573 224L572 223M574 223L575 224L574 223z"/>
<path style="fill:#f5f5f5; stroke:none;" d="M553.667 224.333L554.333 224.667L553.667 224.333z"/>
<path style="fill:#fdfcfd; stroke:none;" d="M555 225L556 226L555 225z"/>
<path style="fill:#f5f5f5; stroke:none;" d="M554 227L555 228L554 227z"/>
<path style="fill:#fdfcfd; stroke:none;" d="M555 227L556 228L555 227M577 227L578 228L577 227z"/>
<path style="fill:#ffffff; stroke:none;" d="M554 228L555 229L554 228z"/>
<path style="fill:#f9f9f9; stroke:none;" d="M555.333 228.667L555.667 229.333L555.333 228.667z"/>
<path style="fill:#fdfcfd; stroke:none;" d="M554 229L555 230L554 229M557 233L560 235L560 234L557 233z"/>
<path style="fill:#f9f9f9; stroke:none;" d="M557 235L558 236L557 235M558 236L559 237L558 236z"/>
<path style="fill:#fdfcfd; stroke:none;" d="M558.667 237.333L559.333 237.667L558.667 237.333M559 240L559 244L560 244L559 240z"/>
<path style="fill:#f9f9f9; stroke:none;" d="M560.667 244.333L561.333 244.667L560.667 244.333z"/>
<path style="fill:#fdfcfd; stroke:none;" d="M562.667 244.333L563.333 244.667L562.667 244.333M566.333 248.667L566.667 249.333L566.333 248.667M571 249L572 250L571 249z"/>
<path style="fill:#f9f9f9; stroke:none;" d="M575 252L576 253L575 252z"/>
<path style="fill:#fdfcfd; stroke:none;" d="M577 252L578 253L577 252M576 253L577 254L576 253z"/>
</svg>
