<?xml version="1.0" standalone="yes"?>
<svg xmlns="http://www.w3.org/2000/svg" width="1231" height="874">
<path style="fill:#010101; stroke:none;" d="M0 0L0 874L1231 874L1231 0L0 0z"/>
<path style="fill:#ffffff; stroke:none;" d="M559 332C559 337.159 557.862 342.965 554 342C556.464 352.47 553.681 357.175 564 364L564 365C558.964 368.194 552.708 375.828 553 382C550.962 381.185 545.238 396.648 552 398L549 409L551 409C551.527 413.669 569.388 411.027 572.718 408.31C574.718 406.678 574.054 394.943 574 392C580.375 386.833 577.653 374.255 579 367L578 367L575 370L564 353C565.684 346.334 563.274 337.342 559 332z"/>
<path style="fill:#fbfbfb; stroke:none;" d="M560 338L556 344L558 342L560 338M562 338L563 339L562 338z"/>
<path style="fill:#f7f7f7; stroke:none;" d="M562 339L563 340L562 339z"/>
<path style="fill:#fbfbfb; stroke:none;" d="M561 341L563 343L561 341M555 342L556 343L555 342z"/>
<path style="fill:#f7f7f7; stroke:none;" d="M560 343L561 344L560 343z"/>
<path style="fill:#fbfbfb; stroke:none;" d="M564 347L565 348L564 347z"/>
<path style="fill:#f7f7f7; stroke:none;" d="M564 352L565 353L564 352z"/>
<path style="fill:#fbfbfb; stroke:none;" d="M564.333 354.667L564.667 355.333L564.333 354.667M557 356L558 357L557 356M557 358L558 359L557 358M559 358L560 359L559 358M564 358L566 360L564 358M566 358L567 359L566 358M567 359L568 360L567 359M560 360L561 361L560 360M568 360L568 366L569 366L568 360M561 362L564 365L561 362z"/>
<path style="fill:#f7f7f7; stroke:none;" d="M562 362L563 363L562 362z"/>
<path style="fill:#f2f2f2; stroke:none;" d="M561 363L562 364L561 363z"/>
<path style="fill:#f7f7f7; stroke:none;" d="M562 364L563 365L562 364z"/>
<path style="fill:#fbfbfb; stroke:none;" d="M577 369L579 366L577 369z"/>
<path style="fill:#f2f2f2; stroke:none;" d="M568 367L569 368L568 367z"/>
<path style="fill:#fbfbfb; stroke:none;" d="M569 369L571 371L569 369M574 369L575 370L574 369M576 369L577 370L576 369z"/>
<path style="fill:#f7f7f7; stroke:none;" d="M563 371L564 372L563 371M568 371L569 372L568 371z"/>
<path style="fill:#fbfbfb; stroke:none;" d="M578 372L578 380L579 380L578 372M558 373L557 375L558 373M555 374L556 375L555 374M554.333 375.667L554.667 376.333L554.333 375.667z"/>
<path style="fill:#f7f7f7; stroke:none;" d="M559 375L560 376L559 375z"/>
<path style="fill:#fbfbfb; stroke:none;" d="M555 377L556 378L555 377M552.333 380.667L552.667 381.333L552.333 380.667M577 380L576 382L577 380M578 382L579 383L578 382M577 384L576 386L577 384M551 385L552 386L551 385z"/>
<path style="fill:#f7f7f7; stroke:none;" d="M577 385L578 386L577 385z"/>
<path style="fill:#fbfbfb; stroke:none;" d="M550 386L551 387L550 386z"/>
<path style="fill:#f7f7f7; stroke:none;" d="M550 387L551 388L550 387z"/>
<path style="fill:#fbfbfb; stroke:none;" d="M576 388L577 389L576 388M551 389L549 391L549 392L552 398L553 398L551 393L551 389z"/>
<path style="fill:#ffffff; stroke:none;" d="M550 391L551 392L550 391z"/>
<path style="fill:#fbfbfb; stroke:none;" d="M548 392L549 393L548 392M572 392L574 394L572 392M574 392L575 393L574 392M549 393L550 394L549 393M550 396L551 397L550 396M551.333 398.667L551.667 399.333L551.333 398.667M550 400L551 401L550 400M548 402L549 403L548 402M550 402L551 403L550 402z"/>
<path style="fill:#f7f7f7; stroke:none;" d="M547 403L548 404L547 403z"/>
<path style="fill:#fbfbfb; stroke:none;" d="M551 404L550 407L553 405L551 404z"/>
<path style="fill:#f7f7f7; stroke:none;" d="M551 406L552 407L551 406M549 407L550 408L549 407z"/>
<path style="fill:#fbfbfb; stroke:none;" d="M574 407L575 408L574 407z"/>
<path style="fill:#f7f7f7; stroke:none;" d="M551 408L552 409L551 408z"/>
<path style="fill:#f2f2f2; stroke:none;" d="M559 408L560 409L559 408z"/>
<path style="fill:#fbfbfb; stroke:none;" d="M560.667 408.333L561.333 408.667L560.667 408.333M550 409L551 410L550 409M556 409L557 410L556 409z"/>
<path style="fill:#f7f7f7; stroke:none;" d="M560 409L561 410L560 409z"/>
<path style="fill:#fbfbfb; stroke:none;" d="M564 409L564 410L570 410L564 409M562 410L563 411L562 410M556 411L557 412L556 411M553 412L554 413L553 412z"/>
</svg>
