<?xml version="1.0" standalone="yes"?>
<svg xmlns="http://www.w3.org/2000/svg" width="1231" height="874">
<path style="fill:#010101; stroke:none;" d="M0 0L0 874L1231 874L1231 0L0 0z"/>
<path style="fill:#fdfcfd; stroke:none;" d="M508 276L507 281L513 280L513 279L508 276z"/>
<path style="fill:#ffffff; stroke:none;" d="M509 276L512 279L512 278L509 276z"/>
<path style="fill:#f9f9f9; stroke:none;" d="M510 277L511 278L510 277z"/>
<path style="fill:#ffffff; stroke:none;" d="M507 278L504 285L505 285L507 282C505.27 289.513 502.276 300.101 514 300L516 302C515.32 305.52 518.04 321.013 522.148 321.804C525.503 322.45 531.662 319.067 535 318C538.59 321.93 542.635 315.557 543 312C545.843 312.555 566.67 312.069 559.218 304.897C556.206 301.999 549.84 304.554 546 302.272C541.157 299.395 538.051 293.123 532 294C529.114 289.279 522.179 288.668 517 288L516 286L514 279L507 281L507 278z"/>
<path style="fill:#f9f9f9; stroke:none;" d="M514 280L514 282L516 282L514 280z"/>
<path style="fill:#fdfcfd; stroke:none;" d="M506 282L507 283L506 282M513 282L512 284L513 282z"/>
<path style="fill:#f9f9f9; stroke:none;" d="M506.667 283.333L507.333 283.667L506.667 283.333z"/>
<path style="fill:#fdfcfd; stroke:none;" d="M516 283L517 284L516 283M504 287L507 284L504 287M516 285L517 286L516 285z"/>
<path style="fill:#f9f9f9; stroke:none;" d="M517 285L518 286L517 285z"/>
<path style="fill:#fdfcfd; stroke:none;" d="M517.667 287.333L518.333 287.667L517.667 287.333M519 288L520 289L519 288z"/>
<path style="fill:#f4f4f4; stroke:none;" d="M532.667 292.333L533.333 292.667L532.667 292.333z"/>
<path style="fill:#fdfcfd; stroke:none;" d="M532 293L533 294L532 293M535 294L536 295L535 294z"/>
<path style="fill:#f9f9f9; stroke:none;" d="M532 295L533 296L532 295M534 295L535 296L534 295M536 295L537 296L536 295M507 296L508 297L507 296z"/>
<path style="fill:#fdfcfd; stroke:none;" d="M508 296L509 297L508 296M510 296L511 297L510 296M536 296L537 297L536 296M538 296L539 297L538 296M509 297L510 298L509 297M537 297L538 298L537 297M539 297L540 298L539 297M510 298L511 299L510 298M538 298L539 299L538 298z"/>
<path style="fill:#f9f9f9; stroke:none;" d="M511 299L512 300L511 299z"/>
<path style="fill:#fdfcfd; stroke:none;" d="M539 299L540 300L539 299M512 300L515 304L512 300z"/>
<path style="fill:#f9f9f9; stroke:none;" d="M513 300L514 301L513 300z"/>
<path style="fill:#fdfcfd; stroke:none;" d="M540 300L539 302L541 302L540 300M542 301L543 302L542 301z"/>
<path style="fill:#f9f9f9; stroke:none;" d="M515 302L516 303L515 302z"/>
<path style="fill:#fdfcfd; stroke:none;" d="M541 302L542 303L541 302z"/>
<path style="fill:#f9f9f9; stroke:none;" d="M545 302L546 303L545 302z"/>
<path style="fill:#fdfcfd; stroke:none;" d="M542.667 303.333L543.333 303.667L542.667 303.333z"/>
<path style="fill:#f9f9f9; stroke:none;" d="M547 303L548 304L547 303z"/>
<path style="fill:#fdfcfd; stroke:none;" d="M548 303L548 304L556 304L548 303M518 308L519 309L518 308M557 308L558 309L557 308M560.333 308.667L560.667 309.333L560.333 308.667M517 310L518 311L517 310M556 311L557 312L556 311M541 312L540 314L541 312M543.667 312.333L544.333 312.667L543.667 312.333M548 312L548 313L556 313L548 312z"/>
<path style="fill:#f9f9f9; stroke:none;" d="M518 313L519 314L518 313z"/>
<path style="fill:#fdfcfd; stroke:none;" d="M540 315L541 316L540 315M529 316L529 317L532 317L529 316z"/>
<path style="fill:#f9f9f9; stroke:none;" d="M533 316L533 317L537 317L533 316z"/>
<path style="fill:#fdfcfd; stroke:none;" d="M538 317L537 319L538 317M534 318L535 319L534 318M526 320L527 321L526 320z"/>
</svg>
