<?xml version="1.0" standalone="yes"?>
<svg xmlns="http://www.w3.org/2000/svg" width="1231" height="874">
<path style="fill:#010101; stroke:none;" d="M0 0L0 874L1231 874L1231 0L0 0z"/>
<path style="fill:#f8f8f8; stroke:none;" d="M828 368L829 369L828 368z"/>
<path style="fill:#ffffff; stroke:none;" d="M826 376L822 382L822 383L824 383L824 384L822 384L824 388L823 388C819.926 384.956 815.069 390.225 812 392L812 394L818 395L816 391L820 390L819 395L830 391L833 388L833 389L831 390L836 391L837 392L836 394C842.03 403.364 837.926 411.419 849 418L850 418L856 407L857 407L858 409C861.193 404.105 861.116 399.518 856 396C856.882 389.852 854.013 377.45 847.957 374.5C841.944 371.571 824.688 364.647 826 376z"/>
<path style="fill:#fdfcfd; stroke:none;" d="M829 369L830 370L829 369M835.667 371.333L836.333 371.667L835.667 371.333M827 372L828 373L827 372M840 372L841 373L840 372z"/>
<path style="fill:#f8f8f8; stroke:none;" d="M827 373L828 374L827 373z"/>
<path style="fill:#fdfcfd; stroke:none;" d="M841 373L841 376L842 376L841 373M844 373L844 374L848 374L844 373M826 374L827 375L826 374M825 375L826 376L825 375z"/>
<path style="fill:#f8f8f8; stroke:none;" d="M848 375L849 376L848 375M848 379L849 380L848 379z"/>
<path style="fill:#fdfcfd; stroke:none;" d="M823 381L824 382L823 381M853 382L854 383L853 382M822.667 383.333L823.333 383.667L822.667 383.333z"/>
<path style="fill:#f8f8f8; stroke:none;" d="M821.333 384.667L821.667 385.333L821.333 384.667z"/>
<path style="fill:#fdfcfd; stroke:none;" d="M822.667 385.333L823.333 385.667L822.667 385.333M854 385L855 386L854 385z"/>
<path style="fill:#f8f8f8; stroke:none;" d="M823 386L824 387L823 386z"/>
<path style="fill:#fdfcfd; stroke:none;" d="M820 387L819 389L820 387M823 387L824 388L823 387M853 387L854 388L853 387z"/>
<path style="fill:#f8f8f8; stroke:none;" d="M829 390L832 389L829 390z"/>
<path style="fill:#fdfcfd; stroke:none;" d="M832 388L833 389L832 388M834 388L834 391L835 391L834 388M854 388L855 389L854 388M830.333 389.667L830.667 390.333L830.333 389.667M853 389L854 392L855 392L853 389M855 389L856 390L855 389M815 390L816 391L815 390z"/>
<path style="fill:#f8f8f8; stroke:none;" d="M817.667 390.333L818.333 390.667L817.667 390.333z"/>
<path style="fill:#fdfcfd; stroke:none;" d="M819 390L820 391L819 390M816 391L816 392L819 393L816 391z"/>
<path style="fill:#f8f8f8; stroke:none;" d="M835 391L836 392L835 391M852 391L853 392L852 391z"/>
<path style="fill:#fdfcfd; stroke:none;" d="M823.333 392.667L823.667 393.333L823.333 392.667M835.667 392.333L836.333 392.667L835.667 392.333M815 393L816 394L815 393z"/>
<path style="fill:#f8f8f8; stroke:none;" d="M818 393L819 394L818 393M820 393L821 394L820 393M822 393L823 394L822 393z"/>
<path style="fill:#fdfcfd; stroke:none;" d="M838.667 393.333L839.333 393.667L838.667 393.333M813 394L814 395L813 394M818 394L819 395L818 394M836.667 394.333L837.333 394.667L836.667 394.333z"/>
<path style="fill:#f8f8f8; stroke:none;" d="M837.333 395.667L837.667 396.333L837.333 395.667z"/>
<path style="fill:#fdfcfd; stroke:none;" d="M839 395L840 396L839 395z"/>
<path style="fill:#f8f8f8; stroke:none;" d="M856 395L857 396L856 395z"/>
<path style="fill:#fdfcfd; stroke:none;" d="M839 397L840 398L839 397M856 398L857 401L858 401L856 398M858 398L859 399L858 398M859 399L860 400L859 399M860 400L861 401L860 400M838 401L839 402L838 401M839 402L840 403L839 402M860 402L862 404L862 402L860 402M857 403L859 407L857 403z"/>
<path style="fill:#f8f8f8; stroke:none;" d="M839 404L840 405L839 404z"/>
<path style="fill:#fbf4f9; stroke:none;" d="M856 407L857 408L856 407z"/>
<path style="fill:#f8f8f8; stroke:none;" d="M843 408L844 409L843 408z"/>
<path style="fill:#fdfcfd; stroke:none;" d="M856 408L857 409L856 408z"/>
<path style="fill:#fbf4f9; stroke:none;" d="M856 409L857 410L856 409z"/>
<path style="fill:#fdfcfd; stroke:none;" d="M856 410L857 411L856 410z"/>
<path style="fill:#f8f8f8; stroke:none;" d="M847 412L848 413L847 412z"/>
<path style="fill:#fdfcfd; stroke:none;" d="M852 412L853 413L852 412z"/>
<path style="fill:#f8f8f8; stroke:none;" d="M854.333 412.667L854.667 413.333L854.333 412.667M852 413L853 414L852 413M850.333 416.667L850.667 417.333L850.333 416.667z"/>
<path style="fill:#fdfcfd; stroke:none;" d="M851.667 416.333L852.333 416.667L851.667 416.333M848 417L849 418L848 417z"/>
<path style="fill:#ffffff; stroke:none;" d="M851.333 417.667L851.667 418.333L851.333 417.667z"/>
<path style="fill:#fdfcfd; stroke:none;" d="M850 418L851 419L850 418z"/>
</svg>
