<?xml version="1.0" standalone="yes"?>
<svg xmlns="http://www.w3.org/2000/svg" width="1231" height="874">
<path style="fill:#010101; stroke:none;" d="M0 0L0 874L1231 874L1231 0L0 0z"/>
<path style="fill:#f6f6f6; stroke:none;" d="M1053 462L1054 463L1053 462z"/>
<path style="fill:#ffffff; stroke:none;" d="M1024 488C1021.09 482.098 1014.08 479.676 1008 478L1009 485C1002.71 483.653 996.113 482.975 997 475L987 473L982 485L987 494L998 493L999 493L1002 500C1011.86 497.45 1017.79 498.209 1027 502C1030.76 493.725 1037.49 483.834 1045 478.569C1047.88 476.553 1056.53 475.827 1057 473C1059.51 473.518 1062.03 473.905 1060 471L1063 468C1066.19 467.366 1066.48 466.15 1066 463C1045.51 462.334 1036.5 472.212 1024 488z"/>
<path style="fill:#f6f6f6; stroke:none;" d="M1062 462L1063 463L1062 462M1050 463L1051 464L1050 463M1064 463L1065 464L1064 463M1065 465L1064 468L1065 468L1065 465M1063.33 468.667L1063.67 469.333L1063.33 468.667M1042 469L1043 470L1042 469M1043 470L1044 471L1043 470M1062 470L1063 471L1062 470M1040 471L1041 472L1040 471M1060.67 471.333L1061.33 471.667L1060.67 471.333M1039 473L1038 475L1039 473M1049 473L1051 475L1049 473M1057 473L1059 475L1059 473L1057 473M1036 475L1035 477L1036 475M996 477L997 478L996 477M1041 477L1043 479L1041 477M1031 479L1032 480L1031 479M1034 479L1035 480L1034 479M1011 480L1013 484L1011 480M1029 480L1030 481L1029 480M1016 481L1017 482L1016 481M1028 481L1029 482L1028 481M1030 481L1029 483L1030 481M1004 484L1005 485L1004 484M1036.33 484.667L1036.67 485.333L1036.33 484.667M1020 485L1023 488L1020 485M1004.67 486.333L1005.33 486.667L1004.67 486.333M1011 487L1012 488L1011 487M1024 487L1025 488L1024 487M1032 489L1033 490L1032 489M1002 491L1003 492L1002 491M991 492L992 493L991 492M998.333 493.667L998.667 494.333L998.333 493.667M1030 493L1029 495L1030 493M1021 496L1022 497L1021 496M1003 499L1004 500L1003 499z"/>
<path style="fill:#010915; stroke:none;" d="M391.667 597.333L392.333 597.667L391.667 597.333z"/>
<path style="fill:#010c23; stroke:none;" d="M400 600L401 601L400 600M387 601L388 602L387 601M401 602L402 603L401 602z"/>
<path style="fill:#010915; stroke:none;" d="M401 603L402 604L401 603z"/>
<path style="fill:#010c23; stroke:none;" d="M386 604L387 605L386 604M401 605L402 606L401 605M386 607L387 608L386 607z"/>
<path style="fill:#010915; stroke:none;" d="M386 608L387 609L386 608z"/>
<path style="fill:#010c23; stroke:none;" d="M387 609L388 610L387 609M388 610L389 611L388 610M397 610L398 611L397 610M389 611L390 612L389 611M395 611L396 612L395 611M391 612L392 613L391 612z"/>
</svg>
