<?xml version="1.0" standalone="yes"?>
<svg xmlns="http://www.w3.org/2000/svg" width="1231" height="874">
<path style="fill:#010101; stroke:none;" d="M0 0L0 874L1231 874L1231 0L0 0z"/>
<path style="fill:#f8f8f8; stroke:none;" d="M607 431L608 432L607 431z"/>
<path style="fill:#ffffff; stroke:none;" d="M608 433L605 432L604 433L604 442L612 445C612.383 453.578 632.172 464.818 636 453L642 455L636 447L633 448C634.057 442.545 626.439 431.411 623 440L618 439C616.39 435.399 612.039 428.453 608 433z"/>
<path style="fill:#f5f5f5; stroke:none;" d="M606 432L607 433L606 432z"/>
<path style="fill:#fdfcfd; stroke:none;" d="M607 432L608 433L607 432z"/>
<path style="fill:#f5f5f5; stroke:none;" d="M604 434L605 435L604 434z"/>
<path style="fill:#fdfcfd; stroke:none;" d="M606 434L607 435L606 434M604 435L605 436L604 435M613 435L614 436L613 435M616 437L617 438L616 437M622 437L622 440L623 440L622 437z"/>
<path style="fill:#f8f8f8; stroke:none;" d="M623 437L624 438L623 437z"/>
<path style="fill:#fdfcfd; stroke:none;" d="M628 437L629 438L628 437z"/>
<path style="fill:#f5f5f5; stroke:none;" d="M618 438L619 439L618 438z"/>
<path style="fill:#fdfcfd; stroke:none;" d="M620 438L621 439L620 438M619 439L620 440L619 439M630 439L631 440L630 439M604 440L605 441L604 440M607 440L608 441L607 440z"/>
<path style="fill:#f5f5f5; stroke:none;" d="M628 440L629 441L628 440z"/>
<path style="fill:#fdfcfd; stroke:none;" d="M605 441L606 442L605 441M606 442L607 443L606 442M608 442L609 443L608 442z"/>
<path style="fill:#f5f5f5; stroke:none;" d="M632 442L633 443L632 442z"/>
<path style="fill:#fdfcfd; stroke:none;" d="M628 443L629 444L628 443z"/>
<path style="fill:#f8f8f8; stroke:none;" d="M609 444L610 445L609 444z"/>
<path style="fill:#fdfcfd; stroke:none;" d="M611.333 445.667L611.667 446.333L611.333 445.667M633 445L634 448L635 448L633 445z"/>
<path style="fill:#f5f5f5; stroke:none;" d="M634 445L635 446L634 445M633 447L634 448L633 447z"/>
<path style="fill:#fdfcfd; stroke:none;" d="M613 448L614 449L613 448z"/>
<path style="fill:#f8f8f8; stroke:none;" d="M615 448L616 449L615 448M614 450L615 451L614 450z"/>
<path style="fill:#fdfcfd; stroke:none;" d="M616 450L617 451L616 450M636 450L638 452L636 450z"/>
<path style="fill:#f8f8f8; stroke:none;" d="M623 452L624 453L623 452M636 453L636 456L639 455L639 454L636 453z"/>
<path style="fill:#f5f5f5; stroke:none;" d="M637 453L638 454L637 453z"/>
<path style="fill:#fdfcfd; stroke:none;" d="M636 454L637 455L636 454M639 454L640 455L639 454z"/>
<path style="fill:#f8f8f8; stroke:none;" d="M640 454L641 455L640 454z"/>
<path style="fill:#ffffff; stroke:none;" d="M637.667 455.333L638.333 455.667L637.667 455.333z"/>
<path style="fill:#fdfcfd; stroke:none;" d="M625 457L626 458L625 457z"/>
</svg>
