<?xml version="1.0" standalone="yes"?>
<svg xmlns="http://www.w3.org/2000/svg" width="1231" height="874">
<path style="fill:#010101; stroke:none;" d="M0 0L0 874L1231 874L1231 0L0 0z"/>
<path style="fill:#fbfafb; stroke:none;" d="M624 364L624 367L628 368L624 364z"/>
<path style="fill:#ffffff; stroke:none;" d="M624 365L625 366L624 365M626 365L627 366L626 365M623 366L616 374L616 375L624 378L624 381C629.803 381 633.435 390.986 641 388L643 389L643 391L646 391L640 386C642.074 379.508 642.986 373.75 637.981 368.218C635.875 365.889 628.622 364.266 628 368L623 366M625 366L626 367L625 366z"/>
<path style="fill:#fbfafb; stroke:none;" d="M636.333 368.667L636.667 369.333L636.333 368.667M622 369L621 371L622 369M619 370L620 371L619 370M618 371L619 372L618 371M617 372L618 373L617 372M618 373L619 374L618 373M616 375L617 376L616 375M621.667 376.333L622.333 376.667L621.667 376.333z"/>
<path style="fill:#f6f6f6; stroke:none;" d="M619 377L620 378L619 377M623 378L624 379L623 378z"/>
<path style="fill:#fbfafb; stroke:none;" d="M622 379L623 380L622 379z"/>
<path style="fill:#f1f1f1; stroke:none;" d="M623 379L624 380L623 379z"/>
<path style="fill:#fbfafb; stroke:none;" d="M624 379L625 380L624 379M625.333 380.667L625.667 381.333L625.333 380.667M640 380L641 381L640 380M634.333 384.667L634.667 385.333L634.333 384.667z"/>
<path style="fill:#f6f6f6; stroke:none;" d="M640 384L641 385L640 384z"/>
<path style="fill:#fbfafb; stroke:none;" d="M641 384L642 385L641 384z"/>
<path style="fill:#f6f6f6; stroke:none;" d="M633 385L634 386L633 385z"/>
<path style="fill:#fbfafb; stroke:none;" d="M640 385L641 386L640 385M635 387L636 388L635 387M641 387L642 388L641 387M643 387L644 388L643 387M640 388L641 389L640 388z"/>
<path style="fill:#f1f1f1; stroke:none;" d="M640 389L641 390L640 389z"/>
<path style="fill:#fbfafb; stroke:none;" d="M642 389L643 390L642 389z"/>
<path style="fill:#f6f6f6; stroke:none;" d="M644 390L645 391L644 390z"/>
</svg>
