<?xml version="1.0" standalone="yes"?>
<svg xmlns="http://www.w3.org/2000/svg" width="938" height="1450">
<path style="fill:#010101; stroke:none;" d="M0 0L0 1450L938 1450L938 0L0 0z"/>
<path style="fill:#ffffff; stroke:none;" d="M566 522C566.724 529.025 564.92 538.15 572.39 542.566C576.799 545.173 582.656 543.586 586.602 547.43C591.215 551.924 585.466 558.469 589.616 562.062C593.448 565.379 601.285 564.566 606 565.938C614.758 568.487 623.655 571.741 633 571.985C639.471 572.154 646.848 568.983 653 569.949C657.61 570.673 661.299 574.152 666 575L664.209 553L666.712 541L661.719 530L664.852 517L661.129 499L667.521 469L665.152 441.018L671 431C665.827 433.739 655.287 436.709 650 434C639.631 446.264 636.238 451.745 635 468L630 474C635.111 481.972 624.578 482.174 620 484L622 487L607 488L607 492C595.01 491.672 592.755 484.108 597 475C587.235 469.073 578.913 475.741 575 462C578.833 460.988 580.836 459.873 582 456C570.586 454.559 562.311 451.289 552 457L557 466L540 468L541 471C536.096 470.986 518.975 468.413 519.921 460.961C520.439 456.885 526.045 454.174 529 452L529 451L523 438C516.511 433.854 525.618 426.403 531 432C534.301 430.385 539.824 431.828 542.258 429.393C544.664 426.986 544.264 422.117 544.964 419C547.126 409.371 549.243 402.146 536 400L535 407L534 407C527.87 393.79 536.214 387.499 542 376C531.1 367.95 526.518 368.941 514 368C514.482 363.631 512.849 361.788 510.968 358C509.606 355.257 509.823 351.197 507.411 349.089C497.886 340.762 489.623 347.512 482.621 353.438C479.94 355.706 476.595 355.854 474.709 359.134C471.715 364.339 474.045 369.739 471.722 375C469.24 380.621 462.911 384.449 461.468 390.043C459.386 398.116 463.514 405.716 461.679 412.896C460.842 416.168 457.477 417.836 456.345 421.043C453.932 427.878 459.484 436.307 463.352 441.787C466.495 446.239 473.046 446.178 475.987 450.418C478.33 453.796 476.607 459.051 480.317 461.61C486.944 466.178 495.042 466.209 500.363 473.09C505.979 480.354 511.573 492.035 513.603 501C514.849 506.5 511.104 510.538 514.971 515.867C524.817 529.437 552.597 522.037 566 522M645 397L627 406L626 402C617.186 403.851 618.19 397.936 613 393L611 397L601 391L605 397L605 398L598 397L598 400L588 399L587 403L578 398L573 404L573 409L568 412L567 412L568.094 399.313L560 390L556 393L550 392L554 410C560.064 409.315 559.883 412.826 563.637 416.486C566.414 419.193 570.625 419.351 573.571 422.058C577.081 425.283 577.82 430.24 581 433L584 450L585 450C588.588 443.914 593.236 439.986 600 438L601 444L607 443C610.074 434.652 618.137 424.595 627 422L630 429L629 421L633 426L637 424L636 427L644 428C648.936 422.054 657.682 425.77 662.107 420.566C668.414 413.148 648.642 394.601 667 394L667 389L664 389C663.49 381.651 656.54 371.13 649.232 379.11C645.327 383.374 645.049 391.462 645 397z"/>
</svg>
