<?xml version="1.0" standalone="yes"?>
<svg xmlns="http://www.w3.org/2000/svg" width="938" height="1450">
<path style="fill:#010101; stroke:none;" d="M0 0L0 1450L938 1450L938 0L0 0z"/>
<path style="fill:#ffffff; stroke:none;" d="M689 88C681.491 96.9796 674.851 106.051 662 103C658.672 118.122 645.248 117.252 634 121.108C628.96 122.836 624.735 126.356 620 128.73C614.574 131.45 607.892 132.608 606 139C590.077 139.046 555.491 172.533 547 146L545 146C538.365 153.324 530.262 143.561 522 145.715C509.368 149.01 503.576 156.957 492.957 162.544C489.31 164.462 484.943 163.736 481.259 165.495C475.025 168.473 472.574 172.911 465 173L466 177L438 187L435 197C438.729 199.32 439.168 204.045 434.02 205.558C431.195 206.388 426.851 203.627 424 203C423.304 206.36 424.249 209.934 422.324 212.985C419.239 217.875 413.743 220.578 413.383 227C412.972 234.313 413.928 246.908 415.885 253.957C416.928 257.712 422.02 258.855 422.23 262.873C422.538 268.754 418.147 275.58 416.333 281C413.568 289.262 410.392 298.858 400 298L394 312C401.778 316.365 397.291 320.974 392 325L405.292 329.749L405 340C412.151 338.055 417.353 340.493 422.776 345.514C425.113 347.677 426.552 351.604 430.055 352.12C433.386 352.61 436.073 349.802 439 348.722C449.105 344.993 456.974 335.685 466 329C465.299 326.562 463.026 322.97 463.665 320.424C464.573 316.805 469.232 314.201 471.487 311.424C476.03 305.828 476.355 293.081 482.148 289.383C487.967 285.668 496.658 289.974 494 297L494 298C503.325 306.237 509.163 294.693 514.698 288.386C517.286 285.437 521.138 284.003 523.722 280.957C525.617 278.723 526.46 274.537 528.992 272.994C531.988 271.169 538.823 275.257 543 274.137C547.66 272.886 550.393 268.471 555 267.318C560.325 265.986 565.739 268.604 571 267.595C579.779 265.912 599.771 253.045 603 245C590.957 238.642 608.615 229.475 608.467 222.039C608.396 218.504 605.122 216.314 604.314 212.985C602.745 206.519 605.036 199.51 603.391 193C602.406 189.1 598.926 184.152 599.952 180.039C601.524 173.74 619.236 161.683 625 158.984C632.266 155.583 647.775 158.793 653.961 163.357C657.474 165.949 660.077 171.707 664.961 172.029C675.267 172.71 674.229 149.044 688.772 160.628C690.339 161.876 691.065 163.292 692 165L704 165C705.975 155.946 712.598 152.531 720 148L720 151L721 151L740.853 142.648L755 130C754.145 127.159 753.044 125.45 749.981 124.576C747.005 123.728 743.96 124.833 741 124.128C733.34 122.304 716.752 111.526 726 103C721.097 86.6853 709.476 103.508 700.108 99.9521C694.749 97.9183 694.691 90.6464 689 88z"/>
</svg>
