<?xml version="1.0" standalone="yes"?>
<svg xmlns="http://www.w3.org/2000/svg" width="938" height="1450">
<path style="fill:#010101; stroke:none;" d="M0 0L0 1450L938 1450L938 0L0 0z"/>
<path style="fill:#ffffff; stroke:none;" d="M404 341L403 326L392 327L387 337C380.975 337.941 380.551 341.785 379 347C383.621 351.679 377.094 355.441 376.568 361.001C375.819 368.908 376.505 377.008 375.2 385.004C374.117 391.634 371.094 394.932 373.773 401.891C378.347 413.772 393.786 402.081 394 393C403.754 393.087 415.509 401.276 416.171 412C416.499 417.322 413.999 422.597 414.008 428C414.023 437.635 415.764 445.152 414.034 455C413.32 459.063 409.445 461.944 409.174 466C408.709 472.937 414.546 485.081 418 491L421 490C421.14 495.811 424.319 507.718 430 510C425.467 521.771 429.937 521.086 435 530C449.445 533.383 446.031 539.045 446.559 550C446.938 557.887 448.666 564.562 448 573C458.255 574.997 457.53 581.434 465 587L465 569L473 576L470 577L471 588L476 585L474 595C484.819 596.492 507.396 582.542 509.004 571C509.505 567.405 506.1 564.219 505.033 561C503.722 557.043 503.91 548.13 504.679 544C507.032 531.367 514.248 515.066 513.256 502C512.567 492.925 503.408 474.446 495.957 469.249C491.005 465.795 482.791 465.537 478.603 461.273C475.617 458.233 477.519 452.907 474.411 449.815C466.786 442.228 458.114 439.181 455.132 427C453.446 420.113 459.991 417.735 460.848 411.957C462.032 403.97 457.727 397.407 461.032 389.043C463.437 382.956 469.948 379.886 471.992 373C473.524 367.837 471.43 363.215 474.532 358.144C477.266 353.676 482.902 354.112 485.467 348.981C488.032 343.849 494.925 323.367 485.956 322.164C464.762 319.319 450.891 348.522 432.001 352.471C426.883 353.541 424.951 347.748 421.776 345.04C415.889 340.021 411.266 338.963 404 341z"/>
</svg>
