<?xml version="1.0" standalone="yes"?>
<svg xmlns="http://www.w3.org/2000/svg" width="938" height="1450">
<path style="fill:#010101; stroke:none;" d="M0 0L0 1450L938 1450L938 0L0 0z"/>
<path style="fill:#ffffff; stroke:none;" d="M811 37C806.722 36.2203 798.854 37.8666 795.429 40.7377C792.442 43.2416 792.242 47.1082 787.981 48.3079C763.501 55.1995 735.758 51.2561 713.742 67.0216C708.475 70.793 696.38 74.7819 697 82L690 88C694.924 90.7008 695.818 97.9568 701.055 99.4121C712.102 102.482 720.039 86.4546 727 103L723 105C724.948 114.406 730.415 120.483 740 123.259C744.024 124.424 752.659 121.411 754.503 127.184C755.801 131.249 748.679 133.481 746.599 135.785C740.572 142.458 729.65 147.526 727.907 157C726.626 163.963 732.678 165.261 736.026 170.104C740.244 176.205 742.999 186.662 743 194C749.472 193.981 753.877 191.173 760 189.938C775.986 186.714 795.36 184.621 809 176C806.843 165.545 810.18 162.592 812.332 153C814.29 144.272 814.907 134.068 819.417 126.015C824.77 116.458 841.476 110.198 852 109.649C856.24 109.428 859.914 111.96 864 112.671C872.636 114.174 882.964 113.13 891 109.662C894.613 108.103 900.932 105.39 901.493 100.91C903.062 88.3837 889.059 82.6494 886.728 72C884.919 63.7371 893.692 60.2231 893.598 52.9961C893.456 42.0973 884.516 41.2672 878.318 35.3627C875.849 33.0103 876.469 27.8339 872.852 26.7886C867.851 25.3433 859.067 29.0367 853.424 28.7732C840.484 28.1689 818.453 20.9374 811 37z"/>
</svg>
