<?xml version="1.0" standalone="yes"?>
<svg xmlns="http://www.w3.org/2000/svg" width="938" height="1450">
<path style="fill:#010101; stroke:none;" d="M0 0L0 1450L938 1450L938 0L0 0z"/>
<path style="fill:#ffffff; stroke:none;" d="M511 513C510.969 524.211 506.749 533.494 505.367 544C504.801 548.307 504.521 556.853 505.664 561C506.498 564.031 509.368 566.794 509.404 570C509.505 579.097 494.034 588.673 487 592L491 601L513 589C514.26 598.108 523.583 601.428 528.526 609C531.88 614.137 530.862 619.106 537 622C543.237 611.327 551.246 610.327 559.61 602.39C567.792 594.625 569.969 586.671 582 582.658C591.38 579.53 598.138 592.332 606.61 588.396C611.874 585.95 612.2 574.903 614 570C607.209 566.568 593.557 567.351 588.677 561.786C584.868 557.444 591.45 551.275 585.606 547.14C581.416 544.175 575.383 545.86 571.39 542.436C568.855 540.263 566.075 535.557 565.369 532.286C564.753 529.432 567.012 525.341 563.566 523.604C558.64 521.122 552.102 525.547 547 525.325C531.979 524.67 522.822 520.666 511 513z"/>
</svg>
