<?xml version="1.0" standalone="yes"?>
<svg xmlns="http://www.w3.org/2000/svg" width="938" height="1450">
<path style="fill:#010101; stroke:none;" d="M0 0L0 1450L938 1450L938 0L0 0z"/>
<path style="fill:#ffffff; stroke:none;" d="M492 750C491.066 759.982 469.161 770.595 460 772.201C456.086 772.888 450.191 769.611 446.966 772.618C441.779 777.455 445.07 783.263 443.922 789C442.433 796.445 435.292 803.28 429 807C429.813 827.515 406.521 822.553 395.185 830.086C390.135 833.442 388.231 841.633 386 847L395 851L389 864C392.96 866.303 394.918 867.485 399 865C397.629 873.923 404.435 873.493 411 876.198C424.106 881.599 436.542 883.764 450 887.645C456.542 889.532 463.044 897.122 469.258 889.582C471.752 886.557 471.654 881.537 473.374 878C477.821 868.859 490.248 857.519 489.432 847.004C489.016 841.644 483.451 841.061 481.603 836.787C480.034 833.156 481.892 828.833 480.397 825.17C477.792 818.79 465.426 815.555 465.609 808C465.858 797.734 477.562 798.096 483.942 795.272C487.464 793.713 487.835 790.08 490.429 787.649C493.564 784.711 497.991 784.407 500.676 780.786C508.659 770.021 498.101 763.177 498 751L492 750z"/>
</svg>
