<?xml version="1.0" standalone="yes"?>
<svg xmlns="http://www.w3.org/2000/svg" width="938" height="1450">
<path style="fill:#010101; stroke:none;" d="M0 0L0 1450L938 1450L938 0L0 0z"/>
<path style="fill:#ffffff; stroke:none;" d="M284 953C269.385 976.469 250.219 999.181 231.014 1019C220.839 1029.5 212.429 1039.89 223 1052L224 1052C230.036 1046.65 232.926 1040.97 234 1033L272 1040L273 1034C281.687 1035.82 288.96 1040.61 297 1044.14C301.334 1046.04 305.927 1045.48 310.089 1047.32C320.408 1051.87 333.69 1065.38 338.011 1076C343.169 1088.68 328.433 1101.22 321.839 1108.64C318.741 1112.12 317.63 1116.91 312.999 1119.07C309.673 1120.63 305.417 1118.5 302 1118C303.167 1122.92 307.195 1128.92 306.664 1134C306.182 1138.61 301.056 1141.32 300.819 1146C300.406 1154.18 304.856 1161.87 299.272 1169.91C294.536 1176.73 284.97 1176.58 281.6 1185.17C277.219 1196.33 283.868 1208.29 279 1220L309.996 1229L326 1246C314.923 1257.42 322.292 1270.47 315.543 1282.95C312.314 1288.91 302.242 1290.22 297.148 1294.89C293.821 1297.93 294.782 1301.3 292.976 1305C288.348 1314.48 283.899 1322.34 281.514 1333C280.849 1335.97 279.203 1341.59 281.042 1344.32C289.802 1357.32 307.997 1360.18 318.61 1370.42C323.46 1375.1 323.064 1385.08 327.603 1388.84C342.628 1401.27 361.951 1400.57 363 1425C374.386 1427.15 383.303 1425.58 394 1420.89C398.589 1418.88 401.847 1414.9 407 1414.19C414.661 1413.13 429.23 1415.62 435.397 1410.06C438.665 1407.12 436.982 1400.8 439.024 1397.09C440.661 1394.12 443.987 1392.62 445.686 1389.7C449.095 1383.83 452.373 1372.6 454.351 1366C457.27 1356.27 445.201 1345.67 449.194 1338.11C452.728 1331.42 463.483 1333.69 468.57 1328.47C472.918 1324 472.619 1316.21 476.109 1311.01C478.727 1307.11 483.544 1305.29 485.972 1301.48C492.161 1291.76 497.331 1279.85 502.753 1269C506.176 1262.15 510.89 1254.73 506.442 1247.21C501.441 1238.76 488.106 1243.23 481.67 1235.89C477.54 1231.18 477.37 1226.5 475.111 1221.09C470.987 1211.22 466.397 1203.94 463.881 1193C461.345 1181.97 462.495 1171.58 449 1171C448.682 1161.22 441.457 1163.67 435.09 1159.27C430.344 1156 427.585 1150.44 422.961 1146.93C410.927 1137.79 401.566 1139.33 403 1121C389.654 1121.11 387.062 1120.29 376 1112.51C373.343 1110.64 368.91 1110.35 367.028 1107.57C365.245 1104.94 366.208 1100.98 365.363 1098C362.981 1089.61 360.186 1083.01 360 1074L354 1074C354.057 1067.59 360.635 1056.77 351 1056C351.56 1048.84 350.827 1045.6 346 1040L352 1038L349 1031L335.961 1024.17L310 1022L313 999C296.746 991.593 312.842 986.505 310.593 975.094C309.779 970.968 305.124 970.43 302.728 967.585C296.194 959.826 294.997 956.008 284 953z"/>
</svg>
