<?xml version="1.0" standalone="yes"?>
<svg xmlns="http://www.w3.org/2000/svg" width="938" height="1450">
<path style="fill:#010101; stroke:none;" d="M0 0L0 1450L938 1450L938 0L0 0z"/>
<path style="fill:#ffffff; stroke:none;" d="M461 668C454.888 667.738 444.912 664.691 439.564 668.988C434.311 673.21 433.933 685.936 432.391 692C428.185 708.539 418.49 723.772 413 740L433 738C434.614 747.888 444.573 740.331 451 742.442C457.273 744.503 460.957 749.022 466.285 752.308C470.008 754.603 477.598 756.752 481.996 758.592C488.208 761.19 491.643 754.051 491 749L499 750C499.006 758.54 499.277 765.112 507 770L509.775 757L507.103 747L512.281 736L510.415 720L516.595 703L520.67 684L520.504 675.001L529 664C523.256 662.365 518.635 657.858 512.996 656.724C507.889 655.696 503.042 657.894 498.019 655.633C493.197 653.462 493.663 647.604 489.581 645.603C473.828 637.883 462.746 655.046 461 668z"/>
</svg>
