<?xml version="1.0" standalone="yes"?>
<svg xmlns="http://www.w3.org/2000/svg" width="938" height="1450">
<path style="fill:#010101; stroke:none;" d="M0 0L0 1450L938 1450L938 0L0 0z"/>
<path style="fill:#ffffff; stroke:none;" d="M389 840C392.932 819.68 431.88 830.449 428 807C434.631 803.769 441.921 796.52 443.3 789C444.414 782.926 441.358 777.563 446.637 772.357C450.458 768.59 456.427 772.433 461 771.397C467.948 769.824 475.481 764.079 482 761L482 759C476.784 755.569 472.117 755.572 467.09 753.076C461.052 750.079 457.159 744.235 450 742.728C445.563 741.794 441.414 744.822 437.019 744.047C433.506 743.428 432.699 739.945 429.701 738.829C426.399 737.599 414.479 740.166 411.966 742.603C405.632 748.747 402.808 761.017 399.548 769C394.079 782.392 384.982 794.304 380.613 808C379.088 812.783 373.252 816.936 372.881 821.911C372.568 826.111 384.947 838.934 389 840z"/>
</svg>
