<?xml version="1.0" standalone="yes"?>
<svg xmlns="http://www.w3.org/2000/svg" width="938" height="1450">
<path style="fill:#010101; stroke:none;" d="M0 0L0 1450L938 1450L938 0L0 0z"/>
<path style="fill:#ffffff; stroke:none;" d="M142 1129L121 1147.73L85.7585 1162.84L60.24 1199.9L44 1213C53.0051 1215.34 56.6389 1219.9 59.4406 1229C60.3354 1231.91 58.9639 1236.71 61.6034 1238.82C66.3911 1242.65 76.1962 1240.95 81.9853 1243.91C90.8255 1248.42 97.0766 1261.17 103.104 1268.79C105.391 1271.68 109.911 1272.78 111.397 1276.21C113.624 1281.36 110.972 1290.38 111.001 1296C111.064 1308.11 118.631 1325.87 130 1331.23C141.112 1336.47 157.828 1328.05 169.956 1330.41C175.664 1331.52 175.261 1338.77 178.086 1342.61C185.42 1352.57 197.923 1362.98 210.957 1360.85C216.897 1359.88 223.646 1350.37 227.665 1346.12C231.289 1342.29 236.036 1341.35 238.031 1336C242.48 1324.04 235.868 1317.93 233.807 1307C230.843 1291.29 231.593 1278.6 223.012 1264.91C220.5 1260.9 223.546 1255.28 220.396 1251.97C217.681 1249.11 210.763 1242.75 206.91 1242.15C198.286 1240.82 189.14 1246.24 182.317 1237.94C174.803 1228.8 178.568 1215.33 174.891 1205.01C173.124 1200.06 168.813 1197.31 165 1194C178.318 1188.45 178.039 1181.12 173 1169L166 1167L161 1169C159.845 1165 156.339 1161.35 155.622 1157.42C154.942 1153.7 159.077 1150.75 158.759 1147C158.229 1140.75 146.8 1132.38 142 1129z"/>
</svg>
