<?xml version="1.0" standalone="yes"?>
<svg xmlns="http://www.w3.org/2000/svg" width="938" height="1450">
<path style="fill:#010101; stroke:none;" d="M0 0L0 1450L938 1450L938 0L0 0z"/>
<path style="fill:#ffffff; stroke:none;" d="M214 1043L190 1076C198.433 1078.67 208.244 1079.72 216.985 1078.27C224.468 1077.02 228.086 1069.33 235 1077C226.181 1079.65 228 1087.3 228 1095L233 1089L262.91 1087.51L276 1101L269 1106C278.267 1103.03 282.605 1107.85 286 1116C294.607 1114.25 305.98 1121.49 312.995 1118.79C317.756 1116.95 318.429 1111.75 321.509 1108.39C328.25 1101.03 342.09 1088.59 337.76 1076C336.61 1072.66 333.169 1069.94 331.244 1067C329.559 1064.42 328.284 1061.04 325.61 1059.3C319.383 1055.26 309.035 1057 302 1057C287.635 1056.99 273.379 1054.01 259 1054C256.631 1043.15 242.703 1053.72 236.424 1053.73C231.34 1053.73 228.725 1048.92 224 1053L223 1053L214 1043z"/>
</svg>
