<?xml version="1.0" standalone="yes"?>
<svg xmlns="http://www.w3.org/2000/svg" width="938" height="1450">
<path style="fill:#010101; stroke:none;" d="M0 0L0 1450L938 1450L938 0L0 0z"/>
<path style="fill:#ffffff; stroke:none;" d="M143 1128L143 1129L159.335 1146.58L156.225 1157L161 1167L166 1166L167 1169C175.066 1168.58 180.49 1178.76 176.682 1185.98C174.349 1190.41 169.633 1191.99 166 1195C182.251 1206.72 171.974 1223.75 182.6 1237.86C188.975 1246.32 200.124 1238.62 207.91 1241.61C211.073 1242.82 221.244 1250.92 222.307 1254.1C223.372 1257.3 221.617 1260.64 223.013 1263.91C224.569 1267.55 228.479 1269.25 229.852 1273.04C233.703 1283.69 232.876 1296.14 234.48 1307C235.372 1313.03 240.373 1317.75 240.725 1324C241.252 1333.36 231.779 1344.24 242.515 1350.97C245.001 1352.53 248.33 1351.89 251 1351.25C257.622 1349.67 273.537 1350 278.012 1344.44C283.607 1337.47 282.468 1322.41 286.569 1314C289.158 1308.69 292.78 1298.39 297.059 1294.67C301.59 1290.72 311.562 1288.46 314.543 1283.72C318.026 1278.19 316.521 1269.23 317.286 1263C318.129 1256.14 321.248 1252.05 324 1246L310.956 1230L278 1220C284.487 1208.83 277.375 1198.7 280.317 1187.01C282.993 1176.38 294.214 1177.4 298.86 1169.83C303.7 1161.94 299.671 1153.95 300.361 1146C300.734 1141.71 305.183 1139.12 306.062 1135C308.825 1122.05 296.85 1113.96 286 1117C282.372 1108.29 277.694 1103.55 268 1107L274 1101C263.997 1079.42 250.889 1093.3 234 1090L227 1096L227.603 1081.21L233 1074L210 1079.95L188.015 1078.69L172.718 1095L143 1128z"/>
</svg>
