<?xml version="1.0" standalone="yes"?>
<svg xmlns="http://www.w3.org/2000/svg" width="938" height="1450">
<path style="fill:#010101; stroke:none;" d="M0 0L0 1450L938 1450L938 0L0 0z"/>
<path style="fill:#ffffff; stroke:none;" d="M529 272C525.624 279.43 520.814 282.587 515.495 288.374C508.317 296.183 504.15 306.613 493 298L493 297C496.956 291.209 488.161 286.68 483.148 289.472C477.301 292.729 476.7 305.444 472.487 310.714C470.036 313.781 465.556 316.023 464.418 320C463.603 322.848 465.658 325.675 467 328C473.082 325.929 490.63 314.448 491.664 328.001C492.097 333.683 488.004 339.774 488 346C503.208 341.768 513.638 352.113 515 367L528 366.714L543 375C546.314 367.039 551.408 357.633 558 352L554 345L554 344L567 341L568 346L569 346L567 332L560 334L561 329C556.28 327.249 556.693 324.556 557 320L563 319L562 325C577.177 330.217 567.786 319.652 568 313L581 322C588.626 319.395 588.653 308.368 599 313L599 314C593.158 318.067 585.904 322.857 584 330L590 327L598 342L601 338C602.408 343.219 607.026 346.21 612 343L613 343C615.642 346.556 628.862 359.038 633.184 359.535C640.123 360.333 649.676 351.417 653 346L649 339C657.578 337.769 669.153 336.768 675.652 330.405C679.898 326.248 676.846 321.121 678.224 316C679.594 310.907 686.022 304.007 685.694 299.043C685.385 294.354 675.748 290.033 672.004 288.418C665.425 285.582 665.015 292.648 659.981 295.146C656.183 297.03 649.236 297.069 645 296.941C637.734 296.72 635.413 290.071 636 284C631.73 282.006 623.721 279.218 621.564 274.787C617.947 267.356 624.85 256.657 615 254L619 246C610.743 248.429 598.497 251.54 591 255.554C584.29 259.147 579.403 265.616 572 268.019C566.265 269.881 559.909 266.839 554 268.318C542.275 271.252 541.99 277.399 529 272z"/>
</svg>
