<?xml version="1.0" standalone="yes"?>
<svg xmlns="http://www.w3.org/2000/svg" width="938" height="1450">
<path style="fill:#010101; stroke:none;" d="M0 0L0 1450L938 1450L938 0L0 0z"/>
<path style="fill:#ffffff; stroke:none;" d="M728 149L719 152L719 150C710.842 152.583 705.716 157.312 705 166L692 166C691.258 164.4 690.663 162.874 689.348 161.628C676.503 149.455 674.232 172.73 664.985 172.387C660.085 172.205 657.555 166.01 653.911 163.617C650.357 161.284 639.338 158.38 635 158.144C627.784 157.752 622.321 160.595 617 165.131C612.554 168.921 602.842 173.543 600.786 179.174C599.112 183.757 603.286 189.627 604.391 194C605.955 200.191 604.167 206.721 605.147 212.961C605.734 216.694 609.341 219.071 609.087 223C608.743 228.33 600.518 236.573 598 242L604 244L601 252L620 244L617 254C624.988 256.939 619.57 267.172 622.148 273.895C624.025 278.788 630.146 279.731 633.812 282.904C637.385 285.997 635.591 291.153 639.344 294.343C646.808 300.689 663.662 295.594 665 286C672.938 286.818 682.289 292.655 687 299L698 290L701 269C716.011 267.762 727.538 247.713 743 249L744 245L751 249L752 245C762.979 249.003 775.429 252.14 786 246L786 252C792.273 251.177 800.462 252.922 803 246L806 247L805 238L807 242C819.656 239.742 830.956 220.328 831 208C825.525 209.538 821.627 211.971 818 206C824.409 205.413 829.277 199.522 829 193L821 198L820 198C815.167 192.339 811.515 188.746 814 181L809 177L759 190.938L742 195C742 186.943 740.117 177.054 735.632 170.209C733.356 166.735 728.795 165.053 727.328 160.996C725.913 157.082 728.909 152.977 728 149z"/>
</svg>
