<?xml version="1.0" standalone="yes"?>
<svg xmlns="http://www.w3.org/2000/svg" width="938" height="1450">
<path style="fill:#010101; stroke:none;" d="M0 0L0 1450L938 1450L938 0L0 0z"/>
<path style="fill:#ffffff; stroke:none;" d="M385 848L375 866L393 868L388 864L393 851L385 848M370 887C369.979 881.114 369.379 878.353 363 878L344 896L343 896C340.6 892.594 336.522 886.667 332.015 886.06C318.711 884.269 328.597 903.554 332 907L333 907L336 903L337 903C338.128 907.633 335.015 913.985 329.21 910.932C326.094 909.293 324.408 905.012 323 902C312.144 910.308 304.043 924.923 296.141 936C292.405 941.238 287.5 946.672 286 953L312 973L320 964L323 977L337 974C337.003 977.707 340.564 985.107 339.659 987.826C338.682 990.762 334.425 991.871 332.564 994.213C329.194 998.455 326.381 1014.66 328.618 1019.7C330.676 1024.32 340.486 1025.44 344 1031L350 1030L353 1039L348 1040L352 1055L357 1055L355 1073L361 1073C361.052 1091.97 366.954 1114.07 387 1120.35C392.366 1122.03 398.497 1120.05 404 1120C402.59 1137.87 409.569 1136.8 421.996 1145.93C426.747 1149.42 429.597 1154.84 434.286 1158.27C440.402 1162.75 448.545 1160.6 450 1170L459 1171C460.41 1160.8 470.056 1160.52 473.618 1151.99C476.778 1144.42 471.056 1128.94 469.338 1121C468.263 1116.03 467.457 1110.2 463.772 1106.44C458.245 1100.8 446.369 1098.01 447.588 1088C448.745 1078.5 462.369 1079.86 464.937 1070.98C466.178 1066.69 464.345 1061.59 465.081 1057C466.494 1048.19 471.954 1036.55 471.456 1028C471.048 1021 465.7 1012.9 467.294 1006C470.368 992.695 483.612 982.802 483.487 968C483.38 955.362 468.271 958.398 465.789 949.787C464.794 946.336 467.773 942.572 467.596 939C467.098 928.957 461.639 919.071 460.282 909C459.687 904.579 460.663 896.831 458.307 893.109C453.695 885.823 440.272 887.08 433 885.24C421.514 882.334 407.674 871.758 396 871.897C384.127 872.039 378.457 881.862 370 887z"/>
</svg>
