<?xml version="1.0" standalone="yes"?>
<svg xmlns="http://www.w3.org/2000/svg" width="938" height="1450">
<path style="fill:#010101; stroke:none;" d="M0 0L0 1450L938 1450L938 0L0 0z"/>
<path style="fill:#ffffff; stroke:none;" d="M465 571L465 588L464 588C461.121 583.768 455.626 570.969 448.495 575.117C443.815 577.84 444.436 583.375 438 584C439.232 586.486 441.775 589.049 440.914 592.015C439.46 597.029 431.886 600.249 433.118 605.981C434.61 612.922 444.216 610.49 446.486 618.001C450.93 632.699 441.972 652.595 439 667C443.282 666.816 456.188 668.234 459.272 665.958C465.219 661.568 464.01 648.915 472.105 645.603C476.046 643.991 487.149 642.73 490.581 645.603C493.9 648.382 493.665 653.07 498.055 654.991C502.861 657.094 508.081 654.897 512.999 656.032C518.653 657.338 524.344 661.891 530 664C533.182 659.13 536.318 653.056 535.532 647C534.828 641.586 530.915 636.705 531.603 631C531.998 627.73 534.663 624.942 536 622L527.526 608L512 591L490 602L486 593C479.01 595.706 473.558 597.482 474 588L470 590L472 576L465 571z"/>
</svg>
