<?xml version="1.0" standalone="yes"?>
<svg xmlns="http://www.w3.org/2000/svg" width="955" height="1450">
<path style="fill:#010101; stroke:none;" d="M0 0L0 1450L955 1450L955 0L0 0z"/>
<path style="fill:#ffffff; stroke:none;" d="M352 456L360 475C350.312 475.308 341.261 484.787 337 493C330.699 490.102 325.023 493.603 319 496L325 525C335.623 525.713 333.728 533.646 339.853 539.396C342.945 542.298 347.501 538.728 350.397 541.527C352.607 543.663 351.422 547.045 352.6 549.586C354.138 552.904 357.641 554.011 358.543 558.005C360.701 567.555 356.469 577.455 358 587C350.301 587.158 340.736 582.128 334.228 587.133C323.076 595.709 324.121 618.979 308.17 623.245C304.926 624.112 300.403 620.54 297 620L297 621C303.029 625.789 303.273 633.969 306 641C298.299 643.219 287.643 648.297 282 654L281 654C277.6 649.115 265.268 635.726 260.647 648.214C259.434 651.491 262.254 654.664 261.097 658C259.229 663.391 254.65 667.284 253 673C258.329 675.365 276.181 693.817 277 675C287.827 677.578 280.48 685.371 286.576 689.988C292.967 694.827 310.306 699.161 318 696.138C324.958 693.405 329.501 687.445 337 685C343.071 694.591 356.634 694.709 364.682 701.075C367.642 703.416 366.948 707.88 369.032 710.896C372.323 715.661 375.844 716.574 375 723L399 721.047L426 739L435 719C439.453 729.32 450.213 737.03 447 749C456.856 746.573 463.251 752.932 473 751.826C478.147 751.241 481.34 747.841 486 746.162C490.735 744.457 500.877 743.884 506 744.098C511.333 744.32 522.552 759.399 527.254 749.686C531.447 741.023 520.665 738.408 516.965 733.772C513.467 729.389 511.818 724.286 506.961 720.966C495.378 713.048 470.199 709.747 468.141 693C467.023 683.901 474.281 681.099 479.441 676.273C481.445 674.398 481.922 671.53 484.228 669.857C487.571 667.432 492.176 667.918 495.815 666.146C499.169 664.512 508.507 654.004 510.347 650.722C514.762 642.847 506.489 641.398 505.036 634.985C502.939 625.725 504.05 610.861 507.507 602.001C511.451 591.893 518.208 596.478 526 594.359C531.198 592.945 535.55 588.836 541 588.252C544.865 587.838 549.2 590.49 552.852 588.592C555.764 587.078 556.009 583.555 557.58 580.999C561.27 574.997 567.206 568.201 569.848 561.896C570.943 559.281 569.892 554.865 572.238 552.951C574.441 551.154 583.83 552.25 587 552L574.394 516L575 494C571.079 493.875 566.691 490.673 563.051 491.376C558.465 492.261 557.208 498.822 552.025 498.129C546.558 497.398 537.405 487.392 531.564 491.222C523.814 496.304 532.609 511.014 527.592 516.441C522.674 521.762 518.434 515.692 512.996 516.728C508.175 517.647 504.084 520.386 499 520.54C494.277 520.683 489.692 518.224 485 518.588C477.611 519.161 474.393 523.006 467 519C464.725 523.274 461.758 530.312 456.012 530.312C450.897 530.312 443.334 516.956 440 527C432.792 522.578 438.803 516.209 440 510C428.473 505.969 430.935 498.576 428.056 489.015C426.564 484.058 423.178 481.482 423 476C416.008 474.761 397.03 473.24 391 476C387.73 470.616 380.836 470.461 375 470C374.425 456.818 364.197 449.877 352 456z"/>
</svg>
