<?xml version="1.0" standalone="yes"?>
<svg xmlns="http://www.w3.org/2000/svg" width="955" height="1450">
<path style="fill:#010101; stroke:none;" d="M0 0L0 1450L955 1450L955 0L0 0z"/>
<path style="fill:#ffffff; stroke:none;" d="M672 1023C664.128 1015.56 650.728 1013.86 640.089 1015.16C637.198 1015.51 634.942 1017.86 631.985 1017.79C625.186 1017.65 622.6 1009.05 615.999 1008.72C608.138 1008.34 602.999 1018.02 595.961 1020.01C592 1021.12 588.902 1017.43 585.108 1018.13C581.171 1018.86 580.06 1024.23 575.982 1025.42C571.922 1026.6 568.174 1023.56 564.001 1024.65C555.252 1026.94 555.675 1041.53 557 1049C549.35 1049.63 535.293 1054.96 534 1063C521.316 1058.27 512.384 1054.75 500 1060.45C495.935 1062.32 492.471 1062.34 491 1067C501.354 1069.11 499.655 1079.95 498 1088C506.291 1092.27 499.509 1095.21 501.937 1101.89C503.649 1106.6 509.956 1107.09 511.99 1112.02C514.343 1117.72 510.358 1124.32 514.843 1129.57C518.614 1133.98 523.509 1129.93 528 1129.9C535.196 1129.86 541.841 1135.03 549 1136C549.502 1132.03 547.979 1121.2 551.423 1118.89C555.311 1116.28 560.331 1125.1 563.039 1127.05C568.138 1130.73 571.912 1126.79 576.957 1128.64C581.707 1130.39 583.308 1136.83 587 1140C591.503 1132.18 595.666 1140.6 601.945 1139.04C606.769 1137.85 607.456 1131.04 608 1127C617.557 1128.29 624.612 1137.73 634 1135.9C638.109 1135.1 644.061 1132.74 646.174 1128.82C647.962 1125.49 645.411 1120.86 646.819 1117C651.101 1105.27 663.216 1093.42 659 1080L665 1074C679.168 1076.92 690.995 1073.22 702.826 1064.09C707.314 1060.64 709.505 1056.17 715 1054L715 1052C710.767 1049.02 702.447 1043.33 701.361 1037.96C700.528 1033.84 703.687 1030.07 703.852 1026C704.012 1022.06 701.618 1018.83 701.302 1015C701.056 1012 702.856 1008.22 700.968 1005.51C698.071 1001.36 692.245 1003.65 689 1005.77C680.869 1011.1 674.083 1012.94 672 1023z"/>
</svg>
