<?xml version="1.0" standalone="yes"?>
<svg xmlns="http://www.w3.org/2000/svg" width="955" height="1450">
<path style="fill:#010101; stroke:none;" d="M0 0L0 1450L955 1450L955 0L0 0z"/>
<path style="fill:#ffffff; stroke:none;" d="M415 999C407.058 999.071 399.386 1006.04 392 1005.23C385.632 1004.53 383.326 997.67 377.91 995.607C365.734 990.97 359.973 1005.4 358 1014C350.224 1012.79 348.807 1017.37 342.896 1020.86C336.469 1024.66 328.009 1027.28 321 1030L334.867 1042.04L346 1066C338.361 1067.77 328.873 1069.1 322.001 1072.91C317.139 1075.6 315.569 1080.03 311.61 1083.42C302.985 1090.79 291.203 1096.76 281.044 1101.47C273.013 1105.19 272.644 1111.41 262 1111.54C249.488 1111.7 241.552 1106.2 231 1101.26C224.788 1098.36 219.37 1097.38 214.12 1092.46C210.509 1089.07 213.638 1082.75 209.566 1080.22C205.999 1078 200.99 1081.6 197 1080.86C190.772 1079.69 186.006 1072.6 180.957 1072.03C177.017 1071.59 173.716 1076.15 170 1077.04C166.507 1077.88 163.411 1075.2 160 1076.15C154.145 1077.79 148.841 1083.57 143 1086L141 1079C135.921 1078.34 129.98 1074.91 125.001 1075.45C120.474 1075.94 119.011 1079.76 115.625 1082.01C106.709 1087.94 97.903 1096.99 94 1108C96.8673 1110.27 102.714 1114.27 103.413 1118.09C105.025 1126.91 94.1393 1138.3 98.1289 1147.96C101.973 1157.26 117.868 1152.86 124.589 1158.86C127.159 1161.15 125.205 1165.05 125.621 1168C127.518 1181.45 121.149 1191.63 116 1204C143.6 1216.22 154.261 1181.18 179 1182.85C199.434 1184.24 193.18 1210.76 202.564 1221.61C209.063 1229.12 219.016 1223 227 1222.61C232.639 1222.34 235.765 1224.14 241 1221C243.872 1226.89 249.325 1229.87 256 1229.74C265.283 1229.55 269.165 1222.06 277 1218.84C281.195 1217.11 284.736 1218.91 289 1218.61C295.362 1218.17 301.609 1215.79 308 1215.17C315.711 1214.42 322.679 1215.87 323 1206L316 1205L315 1199L333 1205.97L354 1207.61L381 1194C380.247 1185.5 383.606 1175.64 392.001 1171.57C396.406 1169.44 401.736 1169.79 405.455 1166.2C412.827 1159.08 415.807 1149.2 427 1146.43C433.414 1144.85 444.972 1156.24 450.124 1150.97C452.442 1148.6 447.53 1142.58 446.859 1140C444.67 1131.57 446 1119.85 446 1111L458 1111.62L468 1108.16L480 1111C479.272 1107.44 478.552 1104.3 480.844 1101.11C484.03 1096.67 488.888 1098.41 492.61 1095.4C501.926 1087.86 501.163 1069.56 489 1067C493.687 1061.18 504.302 1060.81 507.092 1053.83C511.45 1042.91 494.223 1029.7 496 1017C488.104 1011.39 478.656 1008.44 471.019 1003.4C466.766 1000.59 466.658 995.843 463.487 992.394C458.455 986.921 451.196 991.043 446 994C446.028 984.103 449.89 969.486 440.571 961.742C435.251 957.322 406.743 962.048 404.708 969.043C402.073 978.101 413.882 989.836 415 999z"/>
</svg>
