<?xml version="1.0" standalone="yes"?>
<svg xmlns="http://www.w3.org/2000/svg" width="955" height="1450">
<path style="fill:#010101; stroke:none;" d="M0 0L0 1450L955 1450L955 0L0 0z"/>
<path style="fill:#ffffff; stroke:none;" d="M592 353C591.678 356.143 589.503 359.929 589.993 362.996C590.86 368.425 598.563 371.548 601.397 376.001C603.349 379.068 603.009 382.849 604.879 386C611.246 396.728 622.507 407.258 624.802 420C626.017 426.741 625.664 437.07 621.333 442.816C618.361 446.757 613.466 448.642 610.859 453.004C608.334 457.227 610.772 460.617 609.938 464.896C609.204 468.66 605.675 470.848 605 475C599.734 473.286 593.512 469.63 588 469.387C582.709 469.153 578.033 472.282 573 473.198C568.334 474.047 564.001 472.768 561.5 478.044C559.773 481.688 561.804 486.165 562 490L576 493L575.394 517L588 553L571 553C571.811 560.716 569.064 562.42 565.135 568.375C561.449 573.962 558.957 585.568 552.941 588.933C549.023 591.125 544.229 588.622 540 589.217C534.898 589.934 530.812 593.465 526 595.019C521.783 596.381 517.263 593.985 513.185 595.743C507.521 598.185 504.962 612.465 504.6 618C504.332 622.11 504.634 633.286 506.437 636.871C507.705 639.395 510.503 640.604 511.733 643.129C514.835 649.498 517.66 658.577 526.089 661.153C530.368 662.46 545.352 659.995 549.725 658.266C557.449 655.214 557.641 641.005 567.004 638.183C583.877 633.098 602.085 647.205 612 626C614.635 628.139 617.188 630.537 620 632.438C621.93 633.743 623.677 634.384 626 634.481C629.288 634.619 633.844 635.264 636.272 632.562C642.285 625.875 635.073 613.941 648 614C649.711 600.751 656.279 591.806 671 597.367C676.199 599.33 680.817 605.171 686 606.249C690.798 607.247 693.896 601.063 698 599.643C702.906 597.947 706.49 602.463 711 603.116C714.002 603.55 716.939 601.469 719.911 602.492C724.209 603.972 726.503 609.55 730.089 612.196C734.823 615.688 739.206 613.012 744 615.052C749.249 617.285 755.306 625.465 761 625.669C764.37 625.79 767.468 622.088 770 620.304C774.289 617.282 779.631 616.078 783.722 612.756C786.064 610.855 786.894 607.826 789.278 605.994C795.007 601.59 802.517 603.012 809 601.214C818.303 598.635 825.254 588.288 827.054 579C828.333 572.401 817.459 568.81 819.176 565.375C822.575 558.575 830.143 562.382 831 552C840.041 553.672 849.436 552.83 850 542C861.566 540.538 880.187 540.116 874.352 523.054C873.442 520.395 871.279 518.453 870 516L875 516C874.915 511.881 874.077 508.051 873.439 504C872.967 501.001 873.116 497.872 872.005 495.005C869.193 487.744 862.287 486.89 856.015 490.533C844.024 497.497 835.049 511.688 820 512L814 501L813 501L816 508C805.422 508.787 785.484 498.809 780.573 488.957C778.519 484.836 779.813 480.36 780 476C775.058 476.23 771.785 477.103 770 482C763.5 479.172 748.674 485.302 745.106 478.852C741.988 473.214 749.512 455.807 751.621 450C753.098 445.934 750.526 442.288 751.692 438.576C754.752 428.838 760.038 420.797 760.892 410C761.357 404.119 756.636 398.781 758.894 393.039C760.666 388.536 765.672 386.213 769 383C758.417 375.734 739.934 380.879 734 368C724.926 370.68 723.788 379.466 715.714 383.602C710.634 386.203 706.747 380.898 703 387L689.957 380.164L670 385.306L646 372.366L633.21 371.731L617.999 357.797L592 353z"/>
</svg>
