<?xml version="1.0" standalone="yes"?>
<svg xmlns="http://www.w3.org/2000/svg" width="955" height="1450">
<path style="fill:#010101; stroke:none;" d="M0 0L0 1450L955 1450L955 0L0 0z"/>
<path style="fill:#ffffff; stroke:none;" d="M353 328C348.844 335.12 349.485 343.367 345.972 349.911C343.464 354.584 337.761 356.761 334.858 361.17C330.453 367.859 332.529 380.661 333.667 388C334.897 395.929 337.902 404.763 341.637 411.896C343.015 414.528 347.232 416.711 346.824 420C346.331 423.98 340.754 425.955 338.228 428.468C335.185 431.494 335.037 434.955 335 439C343.42 439.64 347.417 449.269 351 456C363.356 450.275 374.059 454.665 376 469C381.737 470.081 387.093 470.264 391 475L424 475C424.022 481.205 427.188 483.478 428.822 489.015C431.537 498.222 428.563 507.126 441 509L438 526C445.909 518.173 447.368 527.96 455.035 529.472C461.456 530.739 464.843 522.615 467 518C474.037 523.042 478.557 518.152 486 517.914C491.493 517.738 496.395 520.324 502 519.38C508.515 518.283 514.656 513.285 520 519L529 516L529 492L509 486L510 481L505 472C515.835 464.618 490.808 448.553 490.631 438.996C490.517 432.861 497.452 425.596 491.297 419.599C486.928 415.343 473.815 418.12 468 418C465.881 407.981 453.22 409.207 448.009 401.787C445.098 397.642 446.719 392.566 445.351 388C442.768 379.378 437.178 369.76 431.112 363.148C426.925 358.586 421.284 360.926 416.001 358.968C409.206 356.449 408.038 348.526 400.999 346.225C392.799 343.543 383.986 348.303 376 345.397C366.098 341.795 363.597 331.074 353 328z"/>
</svg>
