<?xml version="1.0" encoding="UTF-8"?>
<svg version="1.1" xmlns="http://www.w3.org/2000/svg" width="955" height="1450">
<path d="M0 0 C2.92421652 -0.38440405 4.73059181 -0.41524814 7.55859375 0.484375 C12.0203539 4.54564055 16.09534294 9.3024696 18.6328125 14.8203125 C18.93832031 15.36945312 19.24382812 15.91859375 19.55859375 16.484375 C25.67692333 18.10053753 30.94634848 17.02869163 37.10546875 15.96875 C44.72380833 14.90011413 51.99235994 15.22333603 59.55859375 16.484375 C61.53859375 26.384375 61.53859375 26.384375 63.55859375 36.484375 C60.07341725 37.1814103 57.16224334 37.60238181 53.68359375 37.796875 C47.34921708 38.41807687 43.62260114 40.42036761 39.05859375 44.984375 C35.98366698 48.94512505 33.63786343 53.40514561 31.20703125 57.77734375 C29.55859375 60.484375 29.55859375 60.484375 27.82421875 61.98046875 C26.26895179 63.50652804 26.26895179 63.50652804 26.51953125 66.2265625 C26.65617187 67.26039063 26.7928125 68.29421875 26.93359375 69.359375 C27.65515048 75.00449531 27.65515048 75.00449531 27.0390625 78.06640625 C26.49087929 80.82514938 26.80860684 82.58736777 27.49609375 85.296875 C27.69074219 86.08707031 27.88539063 86.87726563 28.0859375 87.69140625 C28.24191406 88.28308594 28.39789062 88.87476563 28.55859375 89.484375 C27.67107422 89.93876953 27.67107422 89.93876953 26.765625 90.40234375 C21.90916614 92.97713841 18.41540712 95.53349301 14.55859375 99.484375 C10.00428061 102.99928915 5.52004436 106.17492139 0.18359375 108.359375 C-2.39346176 109.52287729 -3.24213903 110.04989432 -4.4375 112.65625 C-4.84162109 113.87054687 -4.84162109 113.87054687 -5.25390625 115.109375 C-6.140625 117.515625 -6.140625 117.515625 -7.44140625 119.484375 C-10.13553985 120.38693232 -12.65230048 120.61779148 -15.4765625 120.89453125 C-20.6791904 121.92957316 -24.34224564 125.28366055 -28.44140625 128.484375 C-30.93364447 129.73049411 -32.84735295 129.66259312 -35.62890625 129.796875 C-41.06141003 130.28814992 -44.21487531 130.96226588 -48.44140625 134.484375 C-50.85137137 138.8105971 -51.69880626 142.24027497 -50.69140625 147.109375 C-50.44140625 150.484375 -50.44140625 150.484375 -51.8515625 152.2265625 C-53.75390625 153.984375 -53.75390625 153.984375 -55.6796875 155.515625 C-59.64293688 159.94462209 -59.86186283 166.404469 -60.37890625 172.109375 C-60.51167969 173.38039063 -60.64445312 174.65140625 -60.78125 175.9609375 C-60.73826773 179.61027532 -60.73826773 179.61027532 -58.27734375 182.36328125 C-55.37755902 184.53212851 -53.66633603 185.27805197 -50.12890625 185.796875 C-48.80439453 186.00763672 -48.80439453 186.00763672 -47.453125 186.22265625 C-46.45732422 186.35220703 -46.45732422 186.35220703 -45.44140625 186.484375 C-43.29928823 192.02868046 -43.29928823 192.02868046 -44.046875 194.42578125 C-44.67167974 196.54816796 -44.67167974 196.54816796 -43.40234375 198.52734375 C-42.87898438 199.23503906 -42.355625 199.94273437 -41.81640625 200.671875 C-39.10948892 204.46030895 -36.88426381 208.275112 -34.8125 212.44140625 C-33.4817868 214.69002376 -33.4817868 214.69002376 -30.83203125 216.30859375 C-28.44140625 218.484375 -28.44140625 218.484375 -27.8046875 221.796875 C-27.78792969 223.01375 -27.77117187 224.230625 -27.75390625 225.484375 C-27.7991521 231.3353225 -27.7991521 231.3353225 -25.44140625 236.484375 C-23.1852952 238.10297944 -20.84416131 239.4418325 -18.4375 240.82421875 C-16.44140625 242.484375 -16.44140625 242.484375 -15.5546875 244.81640625 C-15.41825905 248.02953158 -16.06945046 250.22623267 -17.19140625 253.234375 C-17.536875 254.19859375 -17.88234375 255.1628125 -18.23828125 256.15625 C-19.44140625 258.484375 -19.44140625 258.484375 -22.44140625 259.484375 C-31.02153159 260.35814402 -31.02153159 260.35814402 -34.87890625 257.984375 C-36.2809151 255.74116084 -37.03890452 253.90079314 -37.87890625 251.421875 C-38.90398108 248.45192848 -39.35205594 247.56196869 -41.81640625 245.421875 C-44.98355433 244.29075069 -46.25050158 244.49671403 -49.44140625 245.484375 C-50.69953125 245.835 -51.95765625 246.185625 -53.25390625 246.546875 C-54.30578125 246.85625 -55.35765625 247.165625 -56.44140625 247.484375 C-56.50969906 244.06973434 -56.56789367 241.00182355 -55.75390625 237.671875 C-55.19696067 231.99103013 -57.52091213 226.76138677 -59.62890625 221.546875 C-60.44140625 219.484375 -60.44140625 219.484375 -60.44140625 216.484375 C-66.70413678 214.39679816 -72.80220973 215.43053245 -79.01171875 216.98828125 C-81.73058966 217.54342049 -84.35959096 217.70552415 -87.12890625 217.859375 C-92.10410759 218.23565073 -94.61254951 219.34274895 -98.44140625 222.484375 C-99.10140625 222.814375 -99.76140625 223.144375 -100.44140625 223.484375 C-101.10140625 222.164375 -101.76140625 220.844375 -102.44140625 219.484375 C-106.67238284 220.03970538 -106.67238284 220.03970538 -110.56640625 221.671875 C-112.44140625 222.484375 -112.44140625 222.484375 -114.56640625 221.796875 C-116.44140625 220.484375 -116.44140625 220.484375 -118.44140625 217.484375 C-123.16794448 214.71762092 -128.24212829 213.11348209 -133.44140625 211.484375 C-133.13203125 210.99066406 -132.82265625 210.49695313 -132.50390625 209.98828125 C-130.05959028 204.22796309 -129.75635003 196.69612954 -130.44140625 190.484375 C-131.77070577 187.26251346 -133.346101 184.62834345 -135.26953125 181.734375 C-136.44140625 179.484375 -136.44140625 179.484375 -135.31640625 175.796875 C-134.38828125 174.6521875 -134.38828125 174.6521875 -133.44140625 173.484375 C-136.08140625 173.484375 -138.72140625 173.484375 -141.44140625 173.484375 C-141.77140625 171.834375 -142.10140625 170.184375 -142.44140625 168.484375 C-143.76140625 168.814375 -145.08140625 169.144375 -146.44140625 169.484375 C-146.11140625 170.474375 -145.78140625 171.464375 -145.44140625 172.484375 C-145.37337658 174.21232852 -145.3564498 175.94272865 -145.37890625 177.671875 C-145.38792969 178.57292969 -145.39695312 179.47398437 -145.40625 180.40234375 C-145.42365234 181.43294922 -145.42365234 181.43294922 -145.44140625 182.484375 C-149.96383398 184.52676172 -154.5959749 185.53756658 -159.44140625 186.484375 C-160.39660156 186.68417969 -161.35179687 186.88398437 -162.3359375 187.08984375 C-165.68063473 187.51476755 -168.37158224 187.28489858 -171.69140625 186.734375 C-172.7278125 186.57453125 -173.76421875 186.4146875 -174.83203125 186.25 C-177.44140625 185.484375 -177.44140625 185.484375 -179.44140625 182.484375 C-182.20631977 181.27941343 -182.20631977 181.27941343 -185.37890625 180.359375 C-186.43980469 180.02679687 -187.50070312 179.69421875 -188.59375 179.3515625 C-189.53347656 179.06539062 -190.47320312 178.77921875 -191.44140625 178.484375 C-192.43140625 178.154375 -193.42140625 177.824375 -194.44140625 177.484375 C-194.99828125 178.04125 -195.55515625 178.598125 -196.12890625 179.171875 C-196.89203125 179.935 -197.65515625 180.698125 -198.44140625 181.484375 C-199.16328125 182.2475 -199.88515625 183.010625 -200.62890625 183.796875 C-203.70824609 186.73935529 -206.98876918 189.17190757 -210.453125 191.640625 C-212.79573465 193.81294671 -213.65185401 195.39794352 -214.44140625 198.484375 C-214.06263742 200.52333701 -214.06263742 200.52333701 -213.06640625 202.296875 C-212.53015625 203.34875 -211.99390625 204.400625 -211.44140625 205.484375 C-214.9577073 205.17411314 -216.27158039 204.65225523 -218.828125 202.125 C-223.44158477 198.16199266 -229.32085737 197.57429171 -235.12890625 196.421875 C-256.78958765 191.97514512 -256.78958765 191.97514512 -262.62890625 187.046875 C-268.73281874 182.33688483 -278.15583827 179.3328897 -285.8671875 179.60546875 C-287.84959823 179.89010968 -289.8314248 180.17886414 -291.8125 180.47265625 C-295.81765641 180.49050984 -297.90626957 178.7069047 -300.8203125 176.125 C-301.35527344 175.58359375 -301.89023437 175.0421875 -302.44140625 174.484375 C-302.96605469 174.00484375 -303.49070312 173.5253125 -304.03125 173.03125 C-307.03366927 169.73773744 -307.81553018 166.22904549 -308.51171875 161.90625 C-308.68574219 160.82730469 -308.85976563 159.74835938 -309.0390625 158.63671875 C-309.21308594 157.51394531 -309.38710938 156.39117188 -309.56640625 155.234375 C-309.74816406 154.12707031 -309.92992187 153.01976562 -310.1171875 151.87890625 C-311.0420715 146.03057961 -311.86829067 140.40567503 -311.44140625 134.484375 C-310.10807292 132.81770833 -308.77473958 131.15104167 -307.44140625 129.484375 C-306.68652605 123.72841348 -307.62107864 120.55548457 -310.42578125 115.578125 C-311.88009284 112.58000572 -312.39974019 109.53836799 -312.94921875 106.26953125 C-313.11164063 105.68042969 -313.2740625 105.09132813 -313.44140625 104.484375 C-314.10140625 104.154375 -314.76140625 103.824375 -315.44140625 103.484375 C-314.22883245 99.76004118 -312.93280646 96.10634694 -311.44140625 92.484375 C-313.63383244 90.01703644 -315.42280704 89.02185621 -318.50390625 87.921875 C-321.09056036 86.6711851 -322.19306545 86.04366352 -323.37109375 83.390625 C-323.91506926 80.74606713 -324.22370538 78.17560814 -324.44140625 75.484375 C-324.58449219 74.02064453 -324.58449219 74.02064453 -324.73046875 72.52734375 C-324.905154 70.66320258 -325.06191608 68.7972374 -325.1953125 66.9296875 C-325.42095659 64.68757322 -325.83208897 62.64971739 -326.44140625 60.484375 C-325.12140625 59.494375 -323.80140625 58.504375 -322.44140625 57.484375 C-322.64378906 56.89011719 -322.84617187 56.29585937 -323.0546875 55.68359375 C-324.90317793 49.04348568 -324.22675456 44.74683293 -321.0546875 38.625 C-319.44140625 36.484375 -319.44140625 36.484375 -316.19140625 35.671875 C-314.95390625 35.61 -313.71640625 35.548125 -312.44140625 35.484375 C-310.04463274 34.08831621 -307.86927381 32.52407339 -305.65234375 30.859375 C-303.08701269 29.26397477 -301.47335444 28.56833664 -298.44140625 28.484375 C-295.94140625 30.1015625 -295.94140625 30.1015625 -293.44140625 32.359375 C-290.12031555 35.33797822 -287.95411313 37.09778397 -283.44140625 37.484375 C-276.69574078 36.04912703 -272.3793861 31.94411107 -268.44140625 26.484375 C-267.42433594 26.86529297 -267.42433594 26.86529297 -266.38671875 27.25390625 C-261.60008555 29.02403238 -256.88647762 30.65278589 -251.94140625 31.921875 C-247.65987326 33.15667448 -247.65987326 33.15667448 -245.81640625 35.921875 C-245.36265625 36.7675 -244.90890625 37.613125 -244.44140625 38.484375 C-238.95535521 42.66293968 -233.15127309 43.24515916 -226.44140625 42.484375 C-225.78140625 42.154375 -225.12140625 41.824375 -224.44140625 41.484375 C-217.65902547 40.62602391 -213.28397212 42.08506395 -207.44140625 45.484375 C-206.12140625 43.504375 -204.80140625 41.524375 -203.44140625 39.484375 C-200.44140625 40.484375 -200.44140625 40.484375 -199.2734375 42.69921875 C-198.93699219 43.59769531 -198.60054688 44.49617187 -198.25390625 45.421875 C-197.90972656 46.31777344 -197.56554687 47.21367188 -197.2109375 48.13671875 C-196.44140625 50.484375 -196.44140625 50.484375 -196.44140625 52.484375 C-195.49265625 52.566875 -194.54390625 52.649375 -193.56640625 52.734375 C-190.22923996 53.17170526 -187.611326 54.25884193 -184.56640625 55.671875 C-180.045611 57.56177136 -177.56317842 57.52280974 -172.94140625 56.14453125 C-169.83954723 55.3254466 -166.82353253 55.01604406 -163.62890625 54.734375 C-162.01048828 54.58742188 -162.01048828 54.58742188 -160.359375 54.4375 C-157.44140625 54.484375 -157.44140625 54.484375 -155.57080078 55.47167969 C-153.04649292 56.67218749 -151.23704754 56.68456481 -148.453125 56.734375 C-141.50257882 57.26077411 -136.27951504 60.16780656 -130.25390625 63.484375 C-120.85354001 68.64931406 -120.85354001 68.64931406 -110.44140625 70.484375 C-109.78140625 72.464375 -109.12140625 74.444375 -108.44140625 76.484375 C-104.83148246 75.82852311 -104.83148246 75.82852311 -101.44140625 74.484375 C-99.86148108 74.3053547 -98.27707735 74.16459907 -96.69140625 74.046875 C-92.6823732 73.68664304 -89.20999863 72.97197726 -85.44140625 71.484375 C-84.85359375 72.20560547 -84.85359375 72.20560547 -84.25390625 72.94140625 C-81.93501272 74.91546432 -80.45155994 74.97030221 -77.44140625 75.171875 C-76.57515625 75.23761719 -75.70890625 75.30335938 -74.81640625 75.37109375 C-73.02637675 75.45647345 -71.23347078 75.484375 -69.44140625 75.484375 C-69.33828125 74.329375 -69.23515625 73.174375 -69.12890625 71.984375 C-68.66530973 68.18825856 -67.63988321 64.95575778 -66.16015625 61.44140625 C-64.41929385 56.72931524 -64.41929385 56.72931524 -65.47265625 51.94921875 C-65.95734375 51.11519531 -66.44203125 50.28117188 -66.94140625 49.421875 C-69.50625032 44.99479043 -69.50625032 44.99479043 -69.16796875 42.33203125 C-68.5915253 40.86612936 -67.96279971 39.42080491 -67.31640625 37.984375 C-66.23481031 35.63425718 -66.23481031 35.63425718 -66.87890625 33.7734375 C-67.65591175 30.61145677 -67.57319409 27.61075193 -67.56640625 24.359375 C-67.56898438 23.11929688 -67.5715625 21.87921875 -67.57421875 20.6015625 C-67.44140625 17.484375 -67.44140625 17.484375 -66.44140625 15.484375 C-63.37890625 14.859375 -63.37890625 14.859375 -60.44140625 14.484375 C-61.10140625 12.504375 -61.76140625 10.524375 -62.44140625 8.484375 C-60.04156889 5.61243848 -58.15356502 4.93899542 -54.50390625 4.296875 C-53.64925781 4.13832031 -52.79460937 3.97976563 -51.9140625 3.81640625 C-49.44140625 3.484375 -49.44140625 3.484375 -45.44140625 3.484375 C-45.44140625 4.144375 -45.44140625 4.804375 -45.44140625 5.484375 C-39.30984301 8.13586181 -32.084246 8.71083251 -25.71484375 6.56640625 C-23.39911179 5.58696859 -23.39911179 5.58696859 -21.62890625 3.921875 C-18.44084387 1.82686258 -15.14532064 1.79358277 -11.44140625 1.484375 C-9.9829545 1.29779829 -8.52462272 1.11028173 -7.06640625 0.921875 C-5.93912109 0.82132813 -5.93912109 0.82132813 -4.7890625 0.71875 C-2.41432932 0.51968919 -2.41432932 0.51968919 0 0 Z " fill="#FFFFFF" transform="translate(503.44140625,744.515625)"/>
</svg>
