<?xml version="1.0" standalone="yes"?>
<svg xmlns="http://www.w3.org/2000/svg" width="955" height="1450">
<path style="fill:#010101; stroke:none;" d="M0 0L0 1450L955 1450L955 0L0 0z"/>
<path style="fill:#ffffff; stroke:none;" d="M182 1070L182 1071C186.619 1075.96 191.761 1080.3 199 1080.46C202.537 1080.55 206.265 1077.64 209.721 1079.41C214.599 1081.91 210.722 1087.97 213.614 1091.46C218.167 1096.95 225.18 1097.64 231 1100.76C234.842 1102.83 237.849 1106.47 242 1107.95C249.134 1110.5 265.828 1112.82 272.726 1108.68C276.077 1106.67 277.297 1102.78 281.015 1100.92C291.338 1095.74 302.206 1090.39 311.367 1083.03C315.016 1080.1 316.905 1075.81 321.001 1073.11C328.219 1068.34 337.208 1068.45 345 1065C342.607 1058.29 337.821 1043.66 331.981 1039.73C328.734 1037.54 322.268 1032.89 318.741 1031.77C315.246 1030.66 311.719 1032.45 308.39 1030.06C304.149 1027.02 302.044 1021.1 298.201 1017.6C293.868 1013.65 289.004 1016.06 287 1009L242 1026.85L215.105 1032.56L199.251 1057.87L182 1070z"/>
</svg>
