<?xml version="1.0" standalone="yes"?>
<svg xmlns="http://www.w3.org/2000/svg" width="955" height="1450">
<path style="fill:#010101; stroke:none;" d="M0 0L0 1450L955 1450L955 0L0 0z"/>
<path style="fill:#ffffff; stroke:none;" d="M49 904C48.9661 916.301 51.1827 922.001 57.429 932.775C59.9771 937.171 64.9187 937.239 66.0525 943.004C67.5071 950.4 58.9588 953.192 57.8434 960C57.4608 962.335 56.8609 970.369 58.6466 971.977C62.5747 975.514 68.9497 974.567 71.9769 980.058C74.5596 984.743 72.4172 991.324 75.8935 995.582C85.3775 1007.2 108.923 1009.03 115.802 1024.18C119.678 1032.72 109.57 1035.17 105.738 1039.51C101.694 1044.1 103.215 1053.08 106.278 1057.77C109.383 1062.52 116.349 1061.11 120.907 1063.43C125.865 1065.96 125.782 1071.7 129.56 1074.99C135.019 1079.75 139.884 1077.69 144 1085C158.304 1079.04 160.221 1071.5 160.222 1057C160.222 1053.93 158.101 1051.18 159.423 1048.1C163.057 1039.64 176.503 1036.41 179.257 1027C181.345 1019.86 173.5 1014.72 173.708 1008.04C173.874 1002.69 182.599 993.796 184.605 988C186.667 982.042 183.762 969.394 182.787 963C181.042 951.559 173.423 942.281 168.839 932C165.923 925.46 166.359 918.529 162.147 912.043C160.236 909.102 156.733 907.714 154.901 904.791C152.793 901.425 155.185 897.541 153.304 894.058C149.856 887.671 140.983 887.767 138.118 879.714C135.088 871.197 148.852 853.238 157 863C167.339 855.651 167.548 841.97 172.133 831.001C173.558 827.593 177.204 825.282 178.228 821.83C180.392 814.531 174.299 807.846 181 802C179.405 795.29 173.314 791.91 171.569 785.985C170.538 782.488 173.041 778.748 172.305 775C170.832 767.496 166.164 761.77 163.135 755C159.322 746.478 160.128 742.172 152.715 735.143C142.918 725.855 129.64 737.904 123 724C110.712 725.561 106.628 736.596 99.3627 745.907C95.3939 750.993 83.9187 752.184 81.608 757.303C79.1422 762.767 87.3769 773.909 86.956 781C86.3408 791.366 75.7372 799.296 72.5918 809C70.8224 814.459 76.5675 818.778 75.3349 823.56C74.4612 826.95 69.6674 828.8 67 830.46C61.2658 834.029 55.592 838.53 51.5579 844C45.2665 852.53 53.9532 858.15 51.25 867C50.3197 870.046 49.1561 874.072 46.5818 876.146C43.8893 878.314 39.2568 877.948 37.6034 881.394C31.2983 894.534 34.5238 902.848 49 904z"/>
</svg>
