<?xml version="1.0" standalone="yes"?>
<svg xmlns="http://www.w3.org/2000/svg" width="955" height="1450">
<path style="fill:#010101; stroke:none;" d="M0 0L0 1450L955 1450L955 0L0 0z"/>
<path style="fill:#ffffff; stroke:none;" d="M720 167C719.582 171.506 713.898 177.354 718 181L718 182C716.097 185.085 718.042 189.887 714.59 192.012C709.375 195.223 684.489 188.112 685.465 197.954C685.729 200.611 688.284 202.491 689.019 205.038C689.736 207.521 689.891 209.609 691 212C676.247 213.865 663.552 216.665 649.104 212.096C641.454 209.677 634.541 203.305 626 201.822C611.945 199.381 598.22 203.887 585 200C583.527 205.381 582.26 209.707 576 209C571.982 216.495 565.839 221.258 569 230L561 236L561 237C565.291 243.62 560.286 246.407 558.684 253C557.355 258.47 557.536 263.78 554.954 268.995C552.623 273.702 547.709 276.159 545.573 281.005C543.382 285.971 545.982 294.019 547.574 298.995C549.705 305.655 554.498 303.043 558.298 307.318C563.418 313.077 562.543 320.921 569.594 326.062C574.116 329.359 580.393 327.328 584.811 331.303C591.236 337.085 585.656 346.73 593.213 352.146C600.303 357.227 609.618 353.711 617 356.811C624.425 359.929 626.755 367.611 633.184 370.933C636.769 372.785 641.117 370.165 645 371.442C653.631 374.28 660.754 381.564 669 384.382C676.522 386.953 682.913 379.351 689.985 379.361C694.559 379.368 698.5 384.66 703 386C706.893 381.388 709.923 383.443 715 385L732.973 366.441L737 356L737 355C728.15 349.291 717.065 338.141 720.144 326C722.271 317.611 734.414 307.547 741.089 302.438C746.348 298.413 751.32 301.859 755 295C758.53 295.85 767.074 298.694 769.836 295.396C773.021 291.591 770.644 284.608 776.109 282.201C780.548 280.247 784.692 284.798 789 284.864C793.294 284.931 795.279 281.744 799 285C805.716 283.078 808.489 280.44 811 274C806.244 270.093 804.825 264.205 801.367 259.305C796.414 252.288 781.645 243.314 773 245C770.555 241.318 765.785 242.377 763.457 237.977C759.145 229.829 764.132 215.509 772.093 211.179C775.594 209.275 780.208 210.121 784 209C778.67 192.456 774.883 176.792 767.248 160.911C764.838 155.897 762.806 147.4 755.961 147.078C747.263 146.669 747.755 159.638 740.999 163.856C733.983 168.236 727.127 163.575 720 167z"/>
</svg>
