<?xml version="1.0" standalone="yes"?>
<svg xmlns="http://www.w3.org/2000/svg" width="955" height="1450">
<path style="fill:#010101; stroke:none;" d="M0 0L0 1450L955 1450L955 0L0 0z"/>
<path style="fill:#ffffff; stroke:none;" d="M564 762L568 782C561.438 782.936 555.168 781.437 549 784.765C531.285 794.322 528.143 817.755 533 835C523.706 837.209 508.365 847.951 501.509 854.649C498.945 857.154 498.544 861.103 495.66 863.4C485.828 871.233 469.445 871.078 459.044 877.059C451.699 881.282 454.267 887.358 452.382 894C449.615 903.749 440.862 910.025 443.357 921.999C445.16 930.654 455.267 927.051 458.887 933.147C460.669 936.149 459.368 939.822 461.032 943C464.86 950.313 472.635 957.675 475.397 965.015C476.946 969.132 475.196 973.79 477.009 977.907C479.292 983.09 486.577 984.361 487.958 990.015C489.423 996.014 484.69 1002.15 480 1005C483.923 1010 490.669 1011.33 494.513 1016.3C497.188 1019.76 497.038 1025.87 498.544 1030C501.712 1038.69 509.368 1045.21 508 1055L533 1062C535.869 1054.78 548.549 1049.62 556 1048C554.788 1039.47 554.688 1025.67 565 1023.74C568.823 1023.03 572.172 1026.12 575.957 1024.89C579.953 1023.59 581.402 1017.88 585.591 1017.38C589.179 1016.95 592.033 1020.32 595.911 1019.39C602.849 1017.71 607.719 1008.81 615 1008.2C621.587 1007.65 624.671 1016.18 630.986 1017.17C634.756 1017.77 637.371 1014.49 641.015 1014.23C652.318 1013.43 662.06 1016.6 672 1021C673.347 1012.06 687.577 1004.29 696 1002L689.909 976L693 960C685.931 962.43 679.97 959.598 673 958C678.091 944.342 670.117 934.894 669.058 922C668.267 912.364 673.999 904.883 674 895L679 894C676.77 872.198 710.648 886.1 721.891 881.258C734.216 875.949 716.718 868.016 711 868L710 852L687 856.954L669 844L667 848C657.766 840.985 640.995 831.199 640 818C629.958 817.671 626.801 803.431 618.826 798.074C614.819 795.382 608.434 789.437 603.961 788.322C596.391 786.434 588.748 789.276 581.184 784.98C571.128 779.268 571.269 768.716 564 762z"/>
</svg>
