<?xml version="1.0" standalone="yes"?>
<svg xmlns="http://www.w3.org/2000/svg" width="955" height="1450">
<path style="fill:#010101; stroke:none;" d="M0 0L0 1450L955 1450L955 0L0 0z"/>
<path style="fill:#ffffff; stroke:none;" d="M283 713L290 726L308 726L309 726C315.405 739.622 318.141 741.97 332 736L336 749L345 746L339 745C347.177 734.421 355.866 745.071 365 739.397C379.73 730.245 375.822 722.017 368.032 709.985C366.267 707.259 366.389 703.234 363.682 701.228C355.615 695.25 344.084 694.242 337 686C328.752 687.909 322.7 696.691 315 697.552C307.094 698.435 290.1 688.79 284.515 693.742C277.389 700.06 295.325 705.866 283 713z"/>
</svg>
