<?xml version="1.0" standalone="yes"?>
<svg xmlns="http://www.w3.org/2000/svg" width="955" height="1450">
<path style="fill:#010101; stroke:none;" d="M0 0L0 1450L955 1450L955 0L0 0z"/>
<path style="fill:#ffffff; stroke:none;" d="M685 19C678.768 30.2367 669.226 37.7858 657 42.0339C646.783 45.5841 634.024 46.9584 627.109 57.0402C622.584 63.637 625.693 68.0005 625.973 75C626.085 77.8102 623.962 80.2169 624.25 82.9607C624.995 90.0645 634.964 94.6868 641 95C638.443 101.383 634.448 107.942 627 108L624 112L624 113C626.835 121.344 610.326 131.351 625 133C619.991 141.943 625.479 142.232 626.73 150.043C627.164 152.752 625.394 155.275 625.6 158C626.243 166.478 633.904 168.976 641 169C640.623 173.781 642.097 185.078 639.243 188.682C635.677 193.184 625.041 189.156 626.167 197.911C627.084 205.032 636.146 204.406 640.985 206.098C644.122 207.195 645.981 210.271 649.089 211.326C662.073 215.736 675.903 214.873 689 211C688.5 206.469 683.326 197.625 686.337 194.398C693.23 187.011 707.077 196.483 714.524 190.972C717.82 188.533 715.265 182.386 715.502 179C715.75 175.463 718.445 170.532 720.343 167.533C724.136 161.541 733.221 166.732 739 164.386C750.3 159.8 744.971 146.05 759 146C756.861 139.439 754.277 130.259 747 128L745 105L741 106L741 100C736.331 99.6449 734.518 97.8333 732 94L736 86C727.969 84.6948 707.582 61.1088 714 54L714 53C708.832 47.842 709.291 42.156 701 41C700.572 33.1771 692.756 21.2953 685 19z"/>
</svg>
