<?xml version="1.0" standalone="yes"?>
<svg xmlns="http://www.w3.org/2000/svg" width="955" height="1450">
<path style="fill:#010101; stroke:none;" d="M0 0L0 1450L955 1450L955 0L0 0z"/>
<path style="fill:#ffffff; stroke:none;" d="M490 166L501.362 213L498.326 236L508.135 262L499 282C503.697 284.34 507.896 287.432 510.647 292.004C512.736 295.474 513.6 301.374 517.278 303.501C528.822 310.177 536.979 302.19 548 304C546.922 297.636 542.693 289.474 544.374 283C545.933 276.998 551.317 274.937 553.954 269.942C556.985 264.199 556.132 257.89 558.263 252C560.343 246.251 565.189 242.544 560 237L560 236L568 230C565.613 220.658 572.621 216.693 575 208C567.091 204.707 551.846 198.639 546.667 191.815C544.485 188.939 544.583 185.136 542.874 182C540.623 177.869 536.513 174.784 534.545 170.856C533.567 168.905 534.269 165.487 532.361 164.117C530.023 162.439 525.817 164.323 523.089 163.683C511.385 160.938 502.391 165.022 490 166z"/>
</svg>
