<?xml version="1.0" standalone="yes"?>
<svg xmlns="http://www.w3.org/2000/svg" width="955" height="1450">
<path style="fill:#010101; stroke:none;" d="M0 0L0 1450L955 1450L955 0L0 0z"/>
<path style="fill:#ffffff; stroke:none;" d="M340 144C334.932 151.56 324.437 152.571 319.643 160.093C316.05 165.731 324.259 172.517 317.796 177.142C313.277 180.375 306.983 178.159 302.015 180.367C294.519 183.7 293.923 192.607 287.895 197.362C282.803 201.379 274.605 201.222 270.937 207.105C267.68 212.328 270.407 226.919 271.237 233C272.193 240.007 269.011 247.439 270.397 254C272.494 263.921 280.203 265.175 286.985 270.419C289.67 272.496 291.423 275.889 294.375 277.566C301.182 281.433 313.566 275.931 319.57 280.757C322.527 283.134 322.496 287.761 323.97 290.996C325.768 294.941 329.717 297.159 331.486 301.039C332.994 304.347 332.305 308.614 334.317 311.682C337.362 316.324 346.634 314.001 351 319C359.629 317.134 353.993 310.676 357.042 305.213C361.28 297.622 368.459 294.916 370.457 285C372.431 275.199 366.515 263.439 369.563 254C371.136 249.131 373.61 238.109 376.603 234.39C380.307 229.79 385.2 228.832 388 223C395.91 228.127 402.072 220.307 408.089 215.374C422.18 203.823 421.852 186.164 443 184C444.618 194.176 451.733 192.11 458.985 196.14C465.272 199.633 470.897 205.165 479 204.337C485.41 203.682 490.242 199.159 497 199C496.991 184.665 490.651 171.848 487.576 158C486.29 152.214 485.772 145.105 479 144C477.579 134.29 478.693 123.295 474.856 114.015C473.173 109.946 468.837 107.949 467.198 103.985C464.582 97.663 466.516 87.9576 456.985 85.446C444.13 82.0583 443.658 102.774 434.996 107.094C427.197 110.984 420.278 106.769 412 111.312C407.029 114.04 401.161 117.022 397.184 121.105C393.596 124.789 391.664 129.937 386.96 132.443C378.33 137.041 371.019 133.683 363 136.392C354.961 139.107 348.82 145.449 340 144z"/>
</svg>
