<?xml version="1.0" standalone="yes"?>
<svg xmlns="http://www.w3.org/2000/svg" width="955" height="1450">
<path style="fill:#010101; stroke:none;" d="M0 0L0 1450L955 1450L955 0L0 0z"/>
<path style="fill:#ffffff; stroke:none;" d="M875 534C868.388 542.704 861.764 538.576 853.302 542.742C850.323 544.209 849.995 548.322 847.606 550.486C843.565 554.147 836.96 553.88 832 553C831.349 556.286 830.941 559.642 827.853 561.558C825.764 562.853 820.456 563.177 819.921 566.134C819.419 568.913 826.215 571.285 827.37 574.044C830.18 580.76 822.207 591.908 818.099 596.775C811.211 604.935 799.546 600.962 791.108 605.569C787.91 607.315 786.672 610.882 783.867 613.096C779.674 616.406 774.414 617.716 770 620.61C767.533 622.227 764.502 626.001 761.424 626.269C757.121 626.645 749.771 618.694 746 616.56C742.28 614.455 738.837 616.243 735 615.208C728.78 613.529 724.601 606.858 721 602C717.855 602.651 714.226 604.174 711 603.566C706.915 602.795 703.404 599.253 699 599.839C694.219 600.476 690.889 607.812 686 606.658C681.241 605.534 676.785 600.254 672 598.353C656.999 592.391 649.612 600.78 649 615C635.353 613.174 643.393 626.844 636.487 633.333C628.683 640.664 618.359 630.672 612 627C604.861 640.341 591.843 640.57 578 639.895C574.384 639.719 570.626 637.853 567.015 638.743C557.586 641.066 557.582 653.573 550.725 658.231C547.121 660.679 528.975 663.278 525.209 661.577C519.639 659.062 517.551 652.946 511 651C507.089 655.269 501.433 662.942 496.815 666.146C493.344 668.553 488.891 668.063 485.228 669.879C482.408 671.277 482.419 674.267 480.412 676.349C475.536 681.406 469.285 682.28 468.691 691C468.3 696.748 472.74 702.77 477.09 706.057C485.072 712.088 497.208 714.162 505.996 719.966C511.705 723.737 513.527 730.153 518.39 734.441C525.59 740.789 535.206 749.875 520 754C525.714 769.404 549.243 755.487 561.995 760.589C570.583 764.024 571.657 778.445 580.514 783.98C587.803 788.535 595.514 785.793 602.996 787.357C607.457 788.29 615.04 794.877 618.91 797.699C627.015 803.61 630.195 816.872 641 817C641.153 829.922 656.683 841.286 667 847C673.138 840.518 680.084 855.296 687 856.392C692.638 857.285 704.065 852.417 710 851C706.414 838.364 696.352 823.535 700.653 810.004C703.738 800.296 713.704 804.145 719.297 798.436C722.391 795.278 721.032 790.878 722.602 787.209C723.98 783.987 729.648 776.817 732.39 774.603C735.383 772.188 740.406 772.71 744 771.7C752.922 769.192 763.777 763.607 773 763.346C776.916 763.235 779.968 766.219 784 765.319C791.761 763.586 800.915 754.728 808.996 755.531C815.981 756.225 820.96 765.9 829 767.38C838.008 769.039 845.93 762.719 855 766.352C860.699 768.634 868.346 770.731 871.867 776.019C879.509 787.494 879.278 805.508 894.371 811.381C907.416 816.458 903.043 789.891 908.106 786.801C913.046 783.786 916.729 792.655 923 791L919 784C933.87 783.64 933.974 760.934 920 758C923.2 743.242 910.318 753.699 904.832 747.397C901.853 743.975 904.486 735.069 905 731C900.45 726.693 904.708 725.634 904.675 720.83C904.649 716.938 900.486 714.168 900.363 710C900.105 701.296 909.355 692.04 901.914 683.492C897.9 678.88 891.754 691.364 890.139 693.999C881.482 708.122 865.741 720.016 863 737C845.706 729.206 867.946 718.414 865 706C868.79 703.545 869.533 697.636 867 694L867 693L869 686L870 686C872.135 689.872 879.511 691.633 879.172 685.089C878.894 679.729 870.346 681.685 872.013 674.995C874.012 666.974 882.247 660.562 881 652L878 654L877 654L869 651C870.476 647.373 870.918 642.377 872.907 639.143C876.544 633.233 881.354 632.621 878.27 624.104C876.768 619.956 872.302 618.53 871 614C881.12 616.171 881.494 603.752 890 600L890 598C882.407 596.234 881.159 592.67 881 585C892.689 582.585 886.237 571.266 878 569C881.076 558.19 885.712 540.197 875 534z"/>
</svg>
