<?xml version="1.0" standalone="yes"?>
<svg xmlns="http://www.w3.org/2000/svg" width="955" height="1450">
<path style="fill:#010101; stroke:none;" d="M0 0L0 1450L955 1450L955 0L0 0z"/>
<path style="fill:#ffffff; stroke:none;" d="M316 1200C317.544 1203.94 319.938 1204.63 324 1205C323.548 1223.68 290.019 1215.35 278 1219.01C269.7 1221.53 264.772 1228.7 256 1231C263.71 1244.47 287.486 1250.86 302 1249.96C306.986 1249.65 311.057 1245.86 316 1246.23C324.369 1246.85 324.586 1250.97 323 1258C326.496 1256.75 332.594 1255.27 335.093 1252.44C339.122 1247.87 337.805 1241.74 344.039 1237.86C351.307 1233.33 361.878 1236.52 367.926 1228.61C372.296 1222.89 374.54 1210.44 366.61 1206.12C362.994 1204.15 358.542 1207.61 355 1208.19C349.765 1209.06 340.406 1207.36 335 1206.82C327.286 1206.06 324.719 1198.48 316 1200z"/>
</svg>
