<?xml version="1.0" standalone="yes"?>
<svg xmlns="http://www.w3.org/2000/svg" width="955" height="1450">
<path style="fill:#010101; stroke:none;" d="M0 0L0 1450L955 1450L955 0L0 0z"/>
<path style="fill:#ffffff; stroke:none;" d="M857 402L839.985 413.454L826.089 415.514L809 425C808.962 411.133 801.859 412.817 791 417L790 414C780.456 417.961 770.76 416.557 761 413L757.438 429L752.243 439L749.135 461L745.937 479.397L769 481C770.924 478.193 775.618 472.915 779.357 476.643C782.175 479.453 779.503 486.04 781.573 489.791C785.881 497.599 805.402 508.656 814 507L814 499L821 511C838.114 510.645 847.732 492.293 863 487C860.254 478.631 850.358 463.957 853 456L850 455L852 439L864 439L863 435L866 434C856.458 424.792 864.76 411.758 857 402z"/>
</svg>
