<?xml version="1.0" standalone="yes"?>
<svg xmlns="http://www.w3.org/2000/svg" width="955" height="1450">
<path style="fill:#010101; stroke:none;" d="M0 0L0 1450L955 1450L955 0L0 0z"/>
<path style="fill:#ffffff; stroke:none;" d="M561 1238C561 1229.05 565.736 1214.8 577.957 1217.77C582.808 1218.94 584.594 1224.11 590.001 1224.61C594.384 1225.01 598.599 1222.98 603 1223.21C609.342 1223.54 613.265 1226.68 619 1228.5C623.53 1229.94 628.512 1229.39 633 1230.97C641.472 1233.94 647.399 1241.07 656 1244C653.966 1236.12 649.487 1229.66 650.526 1221.02C651.76 1210.76 667.769 1213.43 673 1218L687 1221L675 1230L678.437 1240.35L688.552 1246.34L694 1257L692 1263L696 1261C696.548 1265.27 697.383 1267.8 702 1268L701 1264L707 1262L706 1259L715 1260C714.946 1255.17 714.108 1249.8 709.536 1247.03C706.525 1245.2 696.976 1248.9 697.921 1242.2C698.355 1239.13 703.444 1235.93 705 1233L709 1235C707.57 1230.41 703.031 1228.35 700.919 1224C695.902 1213.65 692.627 1202.55 688.22 1192C685.664 1185.88 682.765 1175.13 688 1170C684.734 1159.67 674.44 1169.23 672 1175C663.345 1172.46 664.667 1167.92 660.583 1161.1C654.342 1150.69 648.05 1143.4 651 1130L630 1137.09L609 1128C604.939 1142.31 600.868 1138.12 589 1136L586 1142C584.203 1138.15 581.774 1131.45 577.787 1129.41C574.526 1127.75 571.34 1130.24 568 1129.75C562.244 1128.91 557.829 1122.52 555 1118C547.958 1120.14 548.176 1140.32 551.714 1146C553.918 1149.53 558.738 1152.67 559.067 1157.01C559.34 1160.61 559.332 1170.83 557.357 1173.7C554.285 1178.16 548.802 1179.34 547.01 1185C544.377 1193.32 552.448 1198.8 553.972 1206C555.499 1213.21 547.935 1221.49 551.282 1228.9C552.891 1232.45 557.973 1235.64 561 1238z"/>
</svg>
