<?xml version="1.0" standalone="yes"?>
<svg xmlns="http://www.w3.org/2000/svg" width="955" height="1450">
<path style="fill:#010101; stroke:none;" d="M0 0L0 1450L955 1450L955 0L0 0z"/>
<path style="fill:#ffffff; stroke:none;" d="M290 505C282.091 506.874 259.515 510.626 255.028 517.529C249.479 526.066 259.002 535.085 257.992 543C256.646 553.553 252.351 566.145 255.317 576.871C257.297 584.031 264.467 588.639 265.699 597C266.622 603.266 263.53 608.025 263.355 614C262.923 628.723 270.992 642.512 281 653L282 653L305 640C302.562 633.714 302.831 624.402 296 622L296 620C300.564 619.638 304.758 623.795 309 622.41C324.785 617.257 322.931 593.095 336.015 585.534C341.866 582.153 350.139 586.541 357 586C355.611 576.673 364.123 554.728 351 552L350 540C334.728 544.029 338.551 526.162 324 526L318 496C315.03 496.837 311.004 497.233 308.51 499.14C302.466 503.759 299.281 514.514 290 505z"/>
</svg>
