<?xml version="1.0" standalone="yes"?>
<svg xmlns="http://www.w3.org/2000/svg" width="955" height="1450">
<path style="fill:#010101; stroke:none;" d="M0 0L0 1450L955 1450L955 0L0 0z"/>
<path style="fill:#ffffff; stroke:none;" d="M428 187C420.353 198.344 416.562 207.928 406.424 217.17C400.976 222.137 395.387 227.474 388 224L377.028 234.637L369.724 256L371.175 285L357.607 305.39L357 319L353 320L353 327L375 344.397L397 344.471L413.108 357.062L426.961 359.603L435 368C447.001 360.682 431.4 350.44 442 344C449.972 355.758 479.338 344.191 485 334C467.303 325.55 466.635 303.328 471 287L463 288C462.132 275.068 470.807 276.446 480 272.487C484.01 270.76 486.441 267.552 491 267.044C494.817 266.619 504.284 268.1 506.539 264.678C510.495 258.677 498.994 243.014 497.518 236C495.247 225.212 506.078 211.38 497.066 201.603C491.911 196.012 482.871 205.896 477 204.833C469.43 203.463 465.489 199.734 458.961 196.653C455.464 195.003 451.355 195.222 448.019 193.143C445.166 191.365 443.633 186.781 440.586 185.708C437.122 184.489 432.004 187.536 428 187z"/>
</svg>
