<svg version="1.1" id="Layer_1" xmlns="http://www.w3.org/2000/svg" xmlns:xlink="http://www.w3.org/1999/xlink" x="0px" y="0px"
	 width="100%" viewBox="0 0 955 1450" enable-background="new 0 0 955 1450" xml:space="preserve">
<path fill="#000000" opacity="1.000000" stroke="none" 
	d="
M949.058350,1451.000000 
	C632.712402,1451.000000 316.880951,1451.000000 1.024738,1451.000000 
	C1.024738,967.686035 1.024738,484.372009 1.024738,1.029016 
	C319.312103,1.029016 637.624207,1.029016 955.968140,1.029016 
	C955.968140,484.309235 955.968140,967.618469 955.968140,1451.000000 
	C953.857788,1451.000000 951.715332,1451.000000 949.058350,1451.000000 
M286.185425,787.000000 
	C284.205322,787.103882 282.091553,786.792908 280.267426,787.380798 
	C270.488190,790.532410 263.212006,788.449402 257.219727,780.750854 
	C256.266998,779.526855 254.658905,778.534546 253.156952,778.065552 
	C247.241486,776.218506 241.247421,774.623169 235.089355,772.879761 
	C235.003494,773.025757 234.524002,773.861145 234.025818,774.685181 
	C230.923187,779.817139 226.297668,783.234802 220.482666,783.611023 
	C218.051193,783.768311 215.286667,781.084167 212.910583,779.364441 
	C205.311142,773.864258 202.441925,773.716858 196.580856,777.798950 
	C193.296982,780.086060 189.467712,781.590149 185.884140,783.447021 
	C184.022522,784.921753 182.494125,787.422180 181.480606,790.116272 
	C180.789001,791.954712 179.918274,794.553528 180.686523,795.962219 
	C183.258347,800.678040 183.675888,804.356384 178.748962,806.067261 
	C179.221024,810.278442 179.466843,813.776489 180.029968,817.222656 
	C181.196136,824.359436 180.247452,832.661133 190.284531,834.856323 
	C193.908081,835.648804 194.295212,838.229919 192.290756,841.386292 
	C190.928314,843.531799 190.042831,845.980164 189.246536,847.656372 
	C190.344254,849.288635 191.439285,850.417419 191.950470,851.767212 
	C193.759262,856.543335 195.375946,861.392456 197.050781,866.218994 
	C198.310944,869.850586 199.187073,873.289917 195.954315,876.633057 
	C192.787048,879.908630 192.350952,883.828125 193.585968,888.375244 
	C194.893570,893.189636 195.828476,898.260315 195.877518,903.229431 
	C195.981369,913.752197 201.350906,920.560974 209.995697,925.426270 
	C210.733932,925.841736 211.941132,925.985291 212.715286,925.690430 
	C222.509018,921.959045 231.732956,925.714600 239.174652,930.521240 
	C247.778473,936.078613 256.939758,938.435669 266.348816,941.038818 
	C274.120178,943.188965 282.853699,942.940552 288.807800,949.905334 
	C289.542694,950.765015 291.336670,950.719360 292.646393,951.095032 
	C291.404022,947.941284 288.984650,944.844482 289.565247,942.486267 
	C290.257629,939.674133 293.141724,936.930847 295.757965,935.171204 
	C299.904358,932.382385 304.261536,930.115906 306.457855,925.220459 
	C306.903595,924.226746 308.672729,922.927307 309.472687,923.137207 
	C314.860443,924.551208 320.691071,925.443481 325.321472,928.248962 
	C329.927521,931.039734 339.468170,933.928772 344.429260,931.982422 
	C346.792633,931.055237 349.435913,930.847473 351.811066,929.942810 
	C354.292664,928.997559 357.552826,928.180725 358.722656,926.248352 
	C359.881714,924.333801 359.638275,920.738892 358.617004,918.523010 
	C356.921661,914.844482 359.462952,914.876892 361.518127,913.852661 
	C362.273285,915.698608 362.972046,917.406616 363.584290,918.903137 
	C366.477570,918.501038 369.009674,918.149109 372.811035,917.620728 
	C367.587646,922.869507 368.763824,927.174377 372.089996,931.706970 
	C373.547455,933.692993 374.965973,936.429871 374.823517,938.727844 
	C374.446564,944.809021 373.207977,950.836792 372.465179,955.853149 
	C379.221771,959.688721 386.247101,963.676880 393.214020,967.631897 
	C395.219208,966.514771 397.420593,964.383667 399.678345,964.322205 
	C401.424042,964.274719 403.240295,966.819519 404.401337,967.725159 
	C407.795715,966.165894 411.102081,964.010254 414.718719,963.131165 
	C420.513214,961.722656 426.564636,961.404419 432.413208,960.176392 
	C439.272827,958.736023 443.193604,960.818787 445.042389,967.397522 
	C445.334167,968.435791 446.443817,969.270447 446.646362,970.303040 
	C447.574341,975.033936 448.622437,979.777283 449.000793,984.565674 
	C449.212585,987.245972 448.202271,990.022766 447.582214,993.709961 
	C449.474304,992.730591 450.152283,992.340759 450.861053,992.018616 
	C461.026703,987.397888 464.537537,989.192566 468.230011,999.599976 
	C469.046356,1001.900818 472.515259,1004.591492 474.930817,1004.765198 
	C485.793030,1005.546021 485.018707,1003.727722 488.135773,994.908813 
	C489.902313,989.911011 487.474121,987.571045 484.009644,985.606201 
	C479.917847,983.285645 476.376953,980.710510 476.034210,975.591187 
	C475.845367,972.770752 476.240021,969.898743 475.907715,967.105225 
	C475.715881,965.492310 474.848236,963.802917 473.849396,962.475525 
	C471.763702,959.703735 469.067169,957.355774 467.208496,954.457336 
	C464.361237,950.017578 462.009613,945.259888 460.238403,942.064026 
	C459.979401,937.916992 459.800842,935.058472 459.675018,933.043640 
	C455.012482,931.645508 451.158386,931.203247 448.100128,929.406433 
	C443.439789,926.668457 443.187592,922.428528 443.610596,916.831726 
	C444.264038,908.186096 446.544708,901.253723 453.471924,896.011902 
	C453.712341,895.830078 453.809845,895.459290 453.776947,895.515930 
	C453.206726,893.282593 451.971283,891.169434 452.346466,889.397217 
	C453.427948,884.288940 454.420502,878.789612 460.586548,876.973755 
	C463.167389,876.213806 465.818359,875.695190 468.416077,874.988464 
	C471.305511,874.202332 474.306824,873.632202 477.016510,872.423462 
	C481.923157,870.234619 486.448181,866.359741 491.505829,865.565430 
	C496.943878,864.711304 498.330963,861.898743 500.209076,857.761475 
	C501.302765,855.352173 504.432404,853.779968 506.818359,852.071899 
	C508.740906,850.695557 511.061066,849.869507 512.962891,848.470398 
	C519.321655,843.792908 525.571838,838.967773 532.438904,833.763062 
	C532.293945,829.800171 528.198242,824.799805 531.913696,819.429565 
	C532.273743,818.909180 531.380493,817.633118 531.325500,816.692871 
	C531.165344,813.953125 530.167358,810.722595 531.247864,808.557983 
	C533.818604,803.407837 537.650818,798.905029 540.509399,793.876831 
	C545.067322,785.859802 554.602051,781.294434 563.756348,782.810608 
	C564.924500,783.004089 567.682739,780.981812 567.574219,780.354614 
	C566.514160,774.228271 565.001038,768.180420 563.684998,762.408936 
	C552.239197,759.632141 541.342590,761.486389 530.460510,763.946228 
	C529.408875,764.183899 527.834473,764.137939 527.129456,763.514771 
	C524.617981,761.294800 521.969604,759.046143 520.105469,756.309448 
	C512.425354,745.034241 510.851013,744.347046 497.660950,747.658142 
	C496.295959,748.000793 494.598511,748.127930 493.350128,747.624329 
	C489.088135,745.904968 485.546326,747.752625 482.576782,750.104492 
	C476.200867,755.154114 469.279114,755.819153 462.686035,751.957153 
	C457.606628,748.981812 453.211395,749.413879 448.127808,750.903259 
	C441.428436,752.866028 441.287231,752.840881 444.006592,759.778809 
	C437.971100,759.904968 436.330322,763.431152 436.978790,768.793030 
	C437.428375,772.510803 437.761200,776.247986 437.972809,779.986328 
	C438.049774,781.345703 438.108215,783.151489 437.344269,784.036011 
	C434.045532,787.854736 435.472687,791.391113 437.496399,794.994568 
	C438.437439,796.670105 439.732361,798.198425 440.376007,799.971619 
	C440.818970,801.191956 440.791443,802.859009 440.330261,804.084045 
	C438.271118,809.553589 435.980591,814.935974 433.439728,821.169006 
	C428.169312,823.431519 422.671112,821.812439 418.616119,817.387512 
	C414.930359,818.369263 411.867462,819.178162 408.808594,820.001892 
	C405.912445,820.781738 403.054810,821.787598 400.110748,822.267517 
	C398.840027,822.474670 396.380829,821.883057 396.191620,821.185181 
	C394.900818,816.425293 391.787628,815.409058 387.420013,815.911255 
	C386.439301,816.024109 385.314484,815.208008 384.307495,814.714539 
	C378.386139,811.812683 372.677826,808.334473 366.517059,806.100037 
	C359.355377,803.502563 351.803497,801.979187 344.413818,800.016418 
	C343.946960,799.892517 343.397003,799.908142 342.921570,800.016479 
	C338.700378,800.977722 334.526703,802.249390 330.257507,802.861145 
	C327.570465,803.246094 324.631012,803.086365 322.009521,802.394897 
	C318.948517,801.587341 316.182739,799.087463 313.160278,798.829651 
	C307.354187,798.334595 306.490204,793.824341 304.548553,790.036133 
	C304.193176,789.342773 304.320740,788.399658 303.958466,787.712585 
	C303.573181,786.981873 302.966949,786.229858 302.261841,785.869629 
	C301.955688,785.713196 300.957886,786.381287 300.619873,786.900024 
	C297.804474,791.221375 294.700897,792.398254 290.622650,788.318359 
	C289.807556,787.502869 288.258484,787.421082 286.185425,787.000000 
z"/>
<path fill="#FFFFFF" opacity="1.000000" stroke="none" d="M286.616638,787.000488 C288.258484,787.421082 289.807556,787.502869 290.622650,788.318359 C294.700897,792.398254 297.804474,791.221375 300.619873,786.900024 C300.957886,786.381287 301.955688,785.713196 302.261841,785.869629 C302.966949,786.229858 303.573181,786.981873 303.958466,787.712585 C304.320740,788.399658 304.193176,789.342773 304.548553,790.036133 C306.490204,793.824341 307.354187,798.334595 313.160278,798.829651 C316.182739,799.087463 318.948517,801.587341 322.009521,802.394897 C324.631012,803.086365 327.570465,803.246094 330.257507,802.861145 C334.526703,802.249390 338.700378,800.977722 342.921570,800.016479 C343.397003,799.908142 343.946960,799.892517 344.413818,800.016418 C351.803497,801.979187 359.355377,803.502563 366.517059,806.100037 C372.677826,808.334473 378.386139,811.812683 384.307495,814.714539 C385.314484,815.208008 386.439301,816.024109 387.420013,815.911255 C391.787628,815.409058 394.900818,816.425293 396.191620,821.185181 C396.380829,821.883057 398.840027,822.474670 400.110748,822.267517 C403.054810,821.787598 405.912445,820.781738 408.808594,820.001892 C411.867462,819.178162 414.930359,818.369263 418.616119,817.387512 C422.671112,821.812439 428.169312,823.431519 433.439728,821.169006 C435.980591,814.935974 438.271118,809.553589 440.330261,804.084045 C440.791443,802.859009 440.818970,801.191956 440.376007,799.971619 C439.732361,798.198425 438.437439,796.670105 437.496399,794.994568 C435.472687,791.391113 434.045532,787.854736 437.344269,784.036011 C438.108215,783.151489 438.049774,781.345703 437.972809,779.986328 C437.761200,776.247986 437.428375,772.510803 436.978790,768.793030 C436.330322,763.431152 437.971100,759.904968 444.006592,759.778809 C441.287231,752.840881 441.428436,752.866028 448.127808,750.903259 C453.211395,749.413879 457.606628,748.981812 462.686035,751.957153 C469.279114,755.819153 476.200867,755.154114 482.576782,750.104492 C485.546326,747.752625 489.088135,745.904968 493.350128,747.624329 C494.598511,748.127930 496.295959,748.000793 497.660950,747.658142 C510.851013,744.347046 512.425354,745.034241 520.105469,756.309448 C521.969604,759.046143 524.617981,761.294800 527.129456,763.514771 C527.834473,764.137939 529.408875,764.183899 530.460510,763.946228 C541.342590,761.486389 552.239197,759.632141 563.684998,762.408936 C565.001038,768.180420 566.514160,774.228271 567.574219,780.354614 C567.682739,780.981812 564.924500,783.004089 563.756348,782.810608 C554.602051,781.294434 545.067322,785.859802 540.509399,793.876831 C537.650818,798.905029 533.818604,803.407837 531.247864,808.557983 C530.167358,810.722595 531.165344,813.953125 531.325500,816.692871 C531.380493,817.633118 532.273743,818.909180 531.913696,819.429565 C528.198242,824.799805 532.293945,829.800171 532.438904,833.763062 C525.571838,838.967773 519.321655,843.792908 512.962891,848.470398 C511.061066,849.869507 508.740906,850.695557 506.818359,852.071899 C504.432404,853.779968 501.302765,855.352173 500.209076,857.761475 C498.330963,861.898743 496.943878,864.711304 491.505829,865.565430 C486.448181,866.359741 481.923157,870.234619 477.016510,872.423462 C474.306824,873.632202 471.305511,874.202332 468.416077,874.988464 C465.818359,875.695190 463.167389,876.213806 460.586548,876.973755 C454.420502,878.789612 453.427948,884.288940 452.346466,889.397217 C451.971283,891.169434 453.206726,893.282593 453.776947,895.515930 C453.809845,895.459290 453.712341,895.830078 453.471924,896.011902 C446.544708,901.253723 444.264038,908.186096 443.610596,916.831726 C443.187592,922.428528 443.439789,926.668457 448.100128,929.406433 C451.158386,931.203247 455.012482,931.645508 459.675018,933.043640 C459.800842,935.058472 459.979401,937.916992 460.238403,942.064026 C462.009613,945.259888 464.361237,950.017578 467.208496,954.457336 C469.067169,957.355774 471.763702,959.703735 473.849396,962.475525 C474.848236,963.802917 475.715881,965.492310 475.907715,967.105225 C476.240021,969.898743 475.845367,972.770752 476.034210,975.591187 C476.376953,980.710510 479.917847,983.285645 484.009644,985.606201 C487.474121,987.571045 489.902313,989.911011 488.135773,994.908813 C485.018707,1003.727722 485.793030,1005.546021 474.930817,1004.765198 C472.515259,1004.591492 469.046356,1001.900818 468.230011,999.599976 C464.537537,989.192566 461.026703,987.397888 450.861053,992.018616 C450.152283,992.340759 449.474304,992.730591 447.582214,993.709961 C448.202271,990.022766 449.212585,987.245972 449.000793,984.565674 C448.622437,979.777283 447.574341,975.033936 446.646362,970.303040 C446.443817,969.270447 445.334167,968.435791 445.042389,967.397522 C443.193604,960.818787 439.272827,958.736023 432.413208,960.176392 C426.564636,961.404419 420.513214,961.722656 414.718719,963.131165 C411.102081,964.010254 407.795715,966.165894 404.401337,967.725159 C403.240295,966.819519 401.424042,964.274719 399.678345,964.322205 C397.420593,964.383667 395.219208,966.514771 393.214020,967.631897 C386.247101,963.676880 379.221771,959.688721 372.465179,955.853149 C373.207977,950.836792 374.446564,944.809021 374.823517,938.727844 C374.965973,936.429871 373.547455,933.692993 372.089996,931.706970 C368.763824,927.174377 367.587646,922.869507 372.811035,917.620728 C369.009674,918.149109 366.477570,918.501038 363.584290,918.903137 C362.972046,917.406616 362.273285,915.698608 361.518127,913.852661 C359.462952,914.876892 356.921661,914.844482 358.617004,918.523010 C359.638275,920.738892 359.881714,924.333801 358.722656,926.248352 C357.552826,928.180725 354.292664,928.997559 351.811066,929.942810 C349.435913,930.847473 346.792633,931.055237 344.429260,931.982422 C339.468170,933.928772 329.927521,931.039734 325.321472,928.248962 C320.691071,925.443481 314.860443,924.551208 309.472687,923.137207 C308.672729,922.927307 306.903595,924.226746 306.457855,925.220459 C304.261536,930.115906 299.904358,932.382385 295.757965,935.171204 C293.141724,936.930847 290.257629,939.674133 289.565247,942.486267 C288.984650,944.844482 291.404022,947.941284 292.646393,951.095032 C291.336670,950.719360 289.542694,950.765015 288.807800,949.905334 C282.853699,942.940552 274.120178,943.188965 266.348816,941.038818 C256.939758,938.435669 247.778473,936.078613 239.174652,930.521240 C231.732956,925.714600 222.509018,921.959045 212.715286,925.690430 C211.941132,925.985291 210.733932,925.841736 209.995697,925.426270 C201.350906,920.560974 195.981369,913.752197 195.877518,903.229431 C195.828476,898.260315 194.893570,893.189636 193.585968,888.375244 C192.350952,883.828125 192.787048,879.908630 195.954315,876.633057 C199.187073,873.289917 198.310944,869.850586 197.050781,866.218994 C195.375946,861.392456 193.759262,856.543335 191.950470,851.767212 C191.439285,850.417419 190.344254,849.288635 189.246536,847.656372 C190.042831,845.980164 190.928314,843.531799 192.290756,841.386292 C194.295212,838.229919 193.908081,835.648804 190.284531,834.856323 C180.247452,832.661133 181.196136,824.359436 180.029968,817.222656 C179.466843,813.776489 179.221024,810.278442 178.748962,806.067261 C183.675888,804.356384 183.258347,800.678040 180.686523,795.962219 C179.918274,794.553528 180.789001,791.954712 181.480606,790.116272 C182.494125,787.422180 184.022522,784.921753 185.884140,783.447021 C189.467712,781.590149 193.296982,780.086060 196.580856,777.798950 C202.441925,773.716858 205.311142,773.864258 212.910583,779.364441 C215.286667,781.084167 218.051193,783.768311 220.482666,783.611023 C226.297668,783.234802 230.923187,779.817139 234.025818,774.685181 C234.524002,773.861145 235.003494,773.025757 235.089355,772.879761 C241.247421,774.623169 247.241486,776.218506 253.156952,778.065552 C254.658905,778.534546 256.266998,779.526855 257.219727,780.750854 C263.212006,788.449402 270.488190,790.532410 280.267426,787.380798 C282.091553,786.792908 284.205322,787.103882 286.616638,787.000488z"/>
</svg>