<?xml version="1.0" standalone="yes"?>
<svg xmlns="http://www.w3.org/2000/svg" width="955" height="1450">
<path style="fill:#010101; stroke:none;" d="M0 0L0 1450L955 1450L955 0L0 0z"/>
<path style="fill:#ffffff; stroke:none;" d="M112 615C114.117 620.084 116.489 627.671 120.418 631.581C123.176 634.326 127.696 634.351 130.143 637.419C139.135 648.692 139.601 663.121 139.87 677C139.979 682.601 136.682 687 134.695 692C131.571 699.86 129.902 707.894 127.698 716C126.641 719.888 122.936 722.704 124.978 726.941C128.326 733.886 137.156 729.564 143 730.294C149.621 731.121 157.554 737.52 160.988 743.209C163.093 746.698 162.359 751.255 163.723 755C166.252 761.943 171.497 767.507 173.032 775C174.656 782.927 168.704 787.975 179 792C181.37 783.772 194.454 771.838 204 773.383C208.803 774.161 211.713 779.1 216 780.948C223.725 784.276 231.253 776.227 234 770C223.952 760.272 234.458 732.652 247 747L271.956 745.657L279.434 734.773L290 735C289.994 725.897 286.745 720.572 282 713C294.848 705.948 275.842 700.265 286 692L285 679L278 676L279 679L267.004 684.127L252 673C254.191 667.772 259.205 663.248 260.799 658C261.763 654.823 259.185 652.218 259.531 649.105C260.093 644.055 268.068 642.823 272 642C270.948 635.829 264.087 632.473 263.144 625.985C261.506 614.711 267.047 603.995 264.073 593C262.255 586.28 254.615 581.209 254.059 574.985C252.684 559.613 262.637 538.794 251.973 525.742C250.228 523.606 246.455 523.973 244 523.561C237.599 522.486 231.646 516.204 225 518.859C220.673 520.587 217.777 525.996 213 526.469C209.376 526.828 205.402 524.042 202 523.043C188.514 519.083 178.004 512.205 175 497C167.998 499.717 162.655 502.649 155 500.649C149.267 499.151 146.868 493.791 141.816 491.937C136.356 489.933 123.17 494.909 119.279 498.809C115.01 503.086 116 509.453 116 515C116 526.873 113.257 537.927 125.001 545.397C132.66 550.268 148.616 550.435 153.59 559.015C157.068 565.016 148.608 573.549 144.835 577.83C140.531 582.714 134.411 589.198 131.028 594.518C128.569 598.384 129.917 602.986 126.467 606.775C122.951 610.636 116.582 612.59 112 615z"/>
</svg>
