<?xml version="1.0" standalone="yes"?>
<svg xmlns="http://www.w3.org/2000/svg" width="955" height="1450">
<path style="fill:#010101; stroke:none;" d="M0 0L0 1450L955 1450L955 0L0 0z"/>
<path style="fill:#ffffff; stroke:none;" d="M158 864L157 864C149.813 852.513 137.022 870.539 138.694 878.83C140.241 886.505 148.095 887.193 152.3 892.144C155.653 896.093 153.314 899.58 154.936 903.791C156.515 907.89 161.579 910.014 163.701 914.001C167.045 920.283 166.982 926.894 169.825 933C177.406 949.284 188.743 966.844 185.659 986C184.379 993.949 175.617 1000.23 174.422 1007.21C173.162 1014.58 183.063 1020.33 179.387 1028C175.667 1035.75 166.057 1040.06 160.861 1046.63C158.19 1050.01 160.733 1053.34 160.733 1057C160.733 1063.33 156.909 1073.81 166.019 1076.31C173.18 1078.27 180.392 1070.35 185.17 1066.17C189.607 1062.29 195.936 1061.44 199.702 1056.87C205.764 1049.5 207.575 1038.43 215.043 1032.3C221.745 1026.8 233.841 1028.14 242 1026.1C257.963 1022.12 271.923 1010.51 288 1008C288.625 1016.19 293.753 1012.47 298.302 1016.6C302.465 1020.38 304.599 1027.81 310.105 1030.11C318.198 1033.49 336.82 1024.34 343.625 1019.86C348.57 1016.61 350.406 1012.64 357 1013C360.131 1005.72 365.918 989.141 377.961 995.043C383.234 997.628 385.446 1003.93 392 1004.55C399.351 1005.25 406.416 998.393 414 998L401 964L391.015 966.443L369 956C377.522 941.974 365.392 930.892 369 918L362 920L360 914L359 914C358.369 917.727 359.956 922.447 357.972 925.856C355.75 929.673 350.781 929.578 347 930.514C340.581 932.103 333.617 933.472 327.209 930.505C321.855 928.025 316.452 923.081 310.044 923.068C306.169 923.06 302.062 929.743 298.995 932C295.743 934.393 291.204 936.807 290.046 941.004C289.036 944.666 291.977 948.285 292 952C278.326 943.423 265 942.026 250 936.652C242.563 933.987 236.696 928.741 229 926.438C217.593 923.025 207.314 927.293 198.638 916.791C193.518 910.592 190.04 889.938 191.318 882C191.914 878.297 194.926 875.644 195.693 872C196.888 866.327 191.63 851.246 187 848L190.867 837.214L179 824C169.471 829.226 169.521 844.828 165.348 854C163.636 857.762 160.353 860.646 158 864z"/>
</svg>
