<?xml version="1.0" standalone="yes"?>
<svg xmlns="http://www.w3.org/2000/svg" width="955" height="1450">
<path style="fill:#010101; stroke:none;" d="M0 0L0 1450L955 1450L955 0L0 0z"/>
<path style="fill:#ffffff; stroke:none;" d="M666 1075L660 1080C663.208 1094.61 650.677 1105.09 647.175 1118C645.554 1123.98 649.637 1125.79 650.644 1131.04C651.987 1138.05 651.188 1146.04 654.148 1152.9C655.737 1156.58 659.62 1158.51 661.583 1162.02C664.974 1168.07 664.324 1172.31 672 1174C673.666 1170.25 684.221 1158.93 687.674 1167.36C688.771 1170.04 685.959 1176.46 686.424 1180C688.149 1193.13 693.635 1203.04 698.525 1215C701.333 1221.87 701.56 1227.65 709 1231L706 1223L724 1232C726.768 1217.68 717.969 1207.4 705 1202L713.387 1187L711.968 1176L716 1162L718 1162L723 1167C721.329 1171.95 719.031 1175.58 724 1179C719.812 1181.73 720.452 1184.65 722 1189L718 1193L722 1194L722 1195C707.272 1198.07 731.647 1204.97 736 1206L742 1193C753.989 1198.44 752.051 1192.21 761 1185L760 1200C766.774 1199.28 775.267 1198.66 782 1199.17C785.719 1199.46 791.568 1200.66 793.882 1196.58C799.002 1187.57 780.441 1183.43 776.186 1179.61C772.808 1176.57 770.795 1171.78 777.008 1171.71C779.412 1171.68 781.603 1171.71 784 1171.38C786.967 1170.97 789.11 1171.46 792 1171.98C795.895 1172.69 799.986 1171.59 804 1172L810 1168C803.616 1155.37 789.698 1162.68 779.127 1158.41C773.452 1156.12 778.706 1148.57 770 1150L772 1126L783.039 1134.03L797.896 1136.46L813 1152L815 1152C820.999 1143.91 829.361 1137.29 839 1134C836.445 1131.24 830.55 1124.09 826.907 1123.61C821.734 1122.93 816.178 1127.22 811.148 1124.5C805.938 1121.69 809.986 1114.32 804.772 1111.51C800.234 1109.08 782.867 1103.06 790.41 1095.42C796.227 1089.52 802.361 1095.35 809 1094.57C819.068 1093.38 836.265 1083.27 841 1074C830.532 1074.22 822.702 1083.67 813 1082.89C803.516 1082.13 793.251 1077.35 784 1075.05C780.037 1074.06 776.063 1075.99 772 1075.56C756.211 1073.9 741.296 1070.66 727 1079L715 1055C708.917 1056.62 706.816 1061.59 701.961 1065.09C690.618 1073.28 679.453 1077.78 666 1075z"/>
</svg>
