<?xml version="1.0" standalone="yes"?>
<svg xmlns="http://www.w3.org/2000/svg" width="955" height="1450">
<path style="fill:#010101; stroke:none;" d="M0 0L0 1450L955 1450L955 0L0 0z"/>
<path style="fill:#ffffff; stroke:none;" d="M712 867C717.053 867.122 722.305 868.564 725.214 873.174C728.781 878.824 722.867 888.554 727.028 894.49C734.268 904.819 755.976 894.857 755 914C765.888 913.775 776.786 912.553 786.91 918.028C795.372 922.604 802.521 931.169 812.015 934.582C818.457 936.898 826.579 932.562 834 934L832 927C838.632 927.507 846.25 932.749 852.004 932.396C862.084 931.778 868.676 916.617 867 908L856 914C850.076 902.022 854.694 903.022 859 892C854.861 889.596 848.985 886.398 844 886.924C837.091 887.652 827.322 892.643 820.301 888.227C817.022 886.164 815.863 882.042 813.367 879.275C809.408 874.887 803.85 873.904 801.14 867.999C799.439 864.293 800.604 859.886 798.142 856.464C795.094 852.227 789.791 844.056 785.775 840.97C781.88 837.976 775.895 838.952 772.893 834.852C767.694 827.748 766.816 816.683 761.006 809.39C755.238 802.151 739.407 795.337 738 786C723.02 777.3 726.621 790.559 720.005 798.686C715.47 804.257 705.433 800.488 702.009 808.105C693.278 827.527 717.13 847.43 712 867z"/>
</svg>
