<?xml version="1.0" standalone="yes"?>
<svg xmlns="http://www.w3.org/2000/svg" width="955" height="1450">
<path style="fill:#010101; stroke:none;" d="M0 0L0 1450L955 1450L955 0L0 0z"/>
<path style="fill:#ffffff; stroke:none;" d="M791 413L792 416C802.284 412.038 809.713 410.521 810 424L828.004 414.149L840.896 412.529L857 402L847.79 386.603L830.144 383.686L813 361L814 357L811 353L807 354L806 350L803 353C790.993 343.556 788.892 365.84 784.157 372.956C778.748 381.086 765.422 382.323 760.318 391.3C757.921 395.515 759.537 399.849 760.969 404C761.81 406.437 761.386 410.235 763.028 412.258C768.36 418.828 784.762 415.593 791 413z"/>
</svg>
