<?xml version="1.0" standalone="yes"?>
<svg xmlns="http://www.w3.org/2000/svg" width="955" height="1450">
<path style="fill:#010101; stroke:none;" d="M0 0L0 1450L955 1450L955 0L0 0z"/>
<path style="fill:#ffffff; stroke:none;" d="M680 895C673.466 896.426 675.852 901.89 673.586 906.911C665.649 924.488 680.519 939.478 674 957C680.043 959.6 686.805 961.93 693 959L690.552 976L697.757 1000.73L702.593 1007.11L704.682 1026L702.322 1038.83L714.411 1052.29L719.328 1065.99L727 1077L740 1072.56L783 1074.28L814 1081.98L842 1073C839.997 1063.79 827.596 1066.69 822 1071L821 1071C816.772 1065.14 812.101 1063.06 805 1063L807 1056L804 1055L806 1050L821 1058L819 1049C826.228 1053.04 843.363 1049.41 842 1039C852.012 1038.28 853.448 1044.45 862 1037L857 1026L853 1027L853 1023C859.684 1022.47 868.631 1021.44 872 1015C865.198 1013.13 852.056 1014.69 848 1021L842 1019L841 1026L835 1024C836.71 1013.61 825.427 1016.55 819 1016L819 1015C828.296 1012.18 827.481 1003.52 818 1002L820 995L833 1000L834 1000L835 997L836 997C838.078 1000.55 839.908 1001.52 844 1001C843.284 997.305 843.758 990.583 841.887 987.498C838.047 981.171 826.005 974.911 819 973C823.266 965.977 828.541 970.286 835 969.748C847.698 968.689 858.006 961.334 871 964C875.371 953.275 877.296 940.205 888 934C881.188 927.487 877.444 938.037 871.957 940.592C868.343 942.274 864.71 939.599 861.105 940.833C857.011 942.233 856.442 947.901 851.957 948.647C844.556 949.879 838.159 943.68 835 954C822.058 947.165 824.934 944.418 833 935C825.331 932.405 818.948 937.549 812.015 935.242C802.716 932.147 795.682 923.72 787.699 919.028C777.136 912.819 765.445 914.764 754 915C756.084 896.806 737.112 903.521 727.318 895.914C723.618 893.041 725.223 886.137 724 882C711.481 884.324 677.449 874.251 680 895z"/>
</svg>
