<?xml version="1.0" standalone="yes"?>
<svg xmlns="http://www.w3.org/2000/svg" width="955" height="1450">
<path style="fill:#010101; stroke:none;" d="M0 0L0 1450L955 1450L955 0L0 0z"/>
<path style="fill:#ffffff; stroke:none;" d="M176 261C175.924 269.512 169.269 276.102 169.213 284C169.144 293.726 178.034 299.228 173.647 310C169.775 319.51 155.366 323.464 154.093 334C153.14 341.894 160.037 351.34 159.62 360C158.719 378.724 155.727 397.567 157.09 417C157.539 423.412 160.992 428.823 161.772 435C162.896 443.893 160.603 451.878 163.564 461C164.753 464.662 167.746 467.406 169.137 471C171.317 476.638 175.015 483.157 176.273 489C178.718 500.355 177.865 511.502 189.425 519.157C193.404 521.792 210.568 526.876 215 525.381C219.885 523.733 222.57 517.913 228 517.387C231.793 517.02 234.692 520.008 238 521.312C242.683 523.16 248.086 523.087 253 524C253.454 510.052 279.171 507.664 290 504C292.312 507.218 298.86 509.38 302.581 506.968C305.476 505.092 305.574 500.904 308.278 498.728C313.871 494.224 330.362 489.885 337 492L360 470C350.165 462.073 348.996 440.179 334 440C334.043 435.295 334.548 431.725 338.109 428.301C340.447 426.052 346.139 423.68 346.248 419.939C346.353 416.356 338.577 406.068 336.796 402C332.701 392.649 330.054 375.914 332.329 366C333.904 359.14 340.552 356.835 344.397 351.575C346.683 348.446 345.62 344.564 346.39 341C347.659 335.133 354.599 328.231 352.512 322.015C349.358 312.625 339.906 318.36 334.703 313.397C331.233 310.087 332.435 304.216 330.486 300.17C328.637 296.33 324.768 293.984 322.97 290C321.689 287.162 321.606 282.831 318.697 281.042C313.856 278.067 303.617 280.289 298.004 279.427C292.626 278.602 291.012 273.565 286.957 270.702C283.174 268.031 278.876 267.533 275.669 263.892C262.826 249.311 276.012 226.648 268 210C246.502 216.829 232.788 206.58 223 188C212.175 189.983 218.951 197.806 213.397 203.258C208.925 207.646 198.697 206.853 193.005 211.239C184.403 217.867 185.74 228.487 180.633 236.957C178.134 241.1 152.18 255.922 170.015 260.682C171.909 261.188 174.061 260.993 176 261z"/>
</svg>
