<?xml version="1.0" standalone="yes"?>
<svg xmlns="http://www.w3.org/2000/svg" width="955" height="1450">
<path style="fill:#010101; stroke:none;" d="M0 0L0 1450L955 1450L955 0L0 0z"/>
<path style="fill:#ffffff; stroke:none;" d="M729 781L739 785C737.99 794.584 756.788 802.574 762.006 810.105C767.071 817.415 768.541 827.721 773.318 834.682C776.103 838.74 783.755 837.889 787.49 841.637C790.83 844.989 798.397 854.771 800.107 859.039C801.537 862.611 800.647 866.517 802.653 869.957C805.098 874.149 809.213 874.767 812.61 877.699C815.816 880.467 817.831 885.396 820 889L846 886.454L861 891L873 867C879.646 871.528 877.951 875.144 876 882C886.651 885.236 891.07 882.318 894 872L895 872C898.65 880.122 906.893 882.49 912.306 873.826C914.792 869.849 911.759 862.784 912.753 858.015C914.515 849.565 923.456 843.547 921.542 834C919.598 824.3 910.298 822.73 903.83 829.043C893.952 838.685 889 842.298 889 857C880.335 850.889 878.817 853.034 875 862C872.983 857.083 871.831 850.009 866 849C865.271 843.402 857.027 835.353 860.782 830.313C863.128 827.163 872.091 822.164 875.83 823.924C879.414 825.61 887.855 833.509 891.972 828.393C894.125 825.717 892.378 821.037 892.255 818C892.149 815.35 892.813 812.679 891.504 810.209C888.977 805.44 883.188 802.864 880.363 798C871.74 783.148 872.918 770.696 853 766.39C844.295 764.509 836.482 770.045 828 767.955C820.728 766.163 815.005 755.808 807.996 756.272C799.179 756.855 791.659 765.097 783 766.139C779.527 766.557 776.504 764.072 773 764.16C769.031 764.26 765.784 766.775 762 767.61C751.92 769.835 733.342 770.765 729 781z"/>
</svg>
