<?xml version="1.0" standalone="yes"?>
<svg xmlns="http://www.w3.org/2000/svg" width="955" height="1450">
<path style="fill:#010101; stroke:none;" d="M0 0L0 1450L955 1450L955 0L0 0z"/>
<path style="fill:#ffffff; stroke:none;" d="M515 96L514 96C512.386 93.5886 509.743 88.8263 506.146 89.7515C500.679 91.1576 500.852 100.091 498.272 103.985C494.196 110.137 483.799 116.388 477 119C478.188 125.305 476.993 133.098 478.819 138.942C480.177 143.288 484.702 145.402 486.25 150.001C487.469 153.621 487.551 161.552 490.738 163.958C493.78 166.253 501.641 163.675 505 162.87C513.334 160.873 516.141 161.79 524.039 162.852C526.599 163.196 530.22 161.833 532.527 163.198C535.05 164.69 533.913 168.448 535.211 170.701C536.489 172.921 539.072 173.851 540.367 176.144C543.369 181.458 544.354 190.117 549.214 193.891C554.831 198.254 571.605 208.98 578.867 208.353C583.318 207.97 582.693 200.227 587.043 200.587C589.296 200.774 590.686 203.071 593.089 203.022C597.196 202.94 600.626 199.943 605 200.349C610.146 200.826 617.756 203.708 622.682 200.667C625.786 198.752 625 194.227 628.148 192.009C631.174 189.878 637.556 191.219 639.243 187.682C641.136 183.715 639.631 174.671 640 170C633.251 169.8 625.705 165.561 625.017 158C624.746 155.02 626.935 152.164 626.073 149.209C624.022 142.172 620.791 142.355 623 134C609.595 128.448 627.908 121.982 623 113L623 112L640 96C632.704 94.6986 626.608 89.3723 623 83C616.814 86.5757 609.588 91.7794 604.184 96.4182C601.743 98.5144 599.724 103.394 595.96 103.098C581.4 101.954 574.438 89.2683 562.895 82.905C546.84 74.0543 526.21 85.1556 515 96z"/>
</svg>
