<?xml version="1.0" standalone="yes"?>
<svg xmlns="http://www.w3.org/2000/svg" width="955" height="1450">
<path style="fill:#010101; stroke:none;" d="M0 0L0 1450L955 1450L955 0L0 0z"/>
<path style="fill:#ffffff; stroke:none;" d="M497 1089C492.256 1099.78 476.643 1096.85 481 1111L468 1108.67L447 1112C447 1120.96 445.619 1132.41 447.859 1141C448.578 1143.76 453.204 1149.1 450.433 1151.57C444.776 1156.61 433.987 1146.03 427 1147.23C416.163 1149.09 412.712 1159.84 405.701 1166.47C401.474 1170.47 395.918 1170.14 391.015 1172.57C382.623 1176.74 381.227 1186.95 382 1195C373.891 1195.19 372.403 1199.1 367 1204C368.722 1207.27 370.716 1210.48 371.916 1214C378.721 1233.95 352.494 1232.68 343.171 1238.86C337.586 1242.56 339.139 1248.36 335.388 1252.7C332.633 1255.88 326.722 1257.1 323 1259L322 1258C324.15 1251.2 323.219 1247.01 315 1246.74C308.611 1246.53 303.051 1251.35 296 1251.03C288.183 1250.66 270.608 1245.7 264.129 1241.04C260.527 1238.45 258.323 1234.32 254.714 1231.69C249.452 1227.85 244.647 1228.16 241 1222C235.719 1224.23 232.426 1223.07 227 1223.38C218.577 1223.86 207.197 1230.2 201.14 1220.79C193.675 1209.19 198.126 1186.33 180 1183.62C163.584 1181.17 158.92 1193.88 147 1201.15C136.271 1207.69 126.594 1207.68 115 1205C111.829 1209.41 105.446 1214.13 103.618 1219.09C100.924 1226.4 106.282 1246.74 109 1254C116.338 1251.93 125.33 1249.11 133 1250.47C148.566 1253.23 161.249 1268.23 174 1276.26C179.883 1279.97 186.019 1276.94 191.895 1278.98C196.387 1280.55 197.073 1286.48 201 1289C205.029 1281.74 210.528 1287.86 216 1290.78C227.111 1296.7 236.741 1310.26 243 1321C249.39 1317.08 261.253 1313.48 268.985 1315.32C272.747 1316.22 274.886 1319.99 279.015 1319.81C282.656 1319.65 285.495 1316.98 289 1316.28C293.052 1315.47 297.002 1316.95 301 1316.55C316.282 1315.03 339.136 1310.64 345.557 1330C348.268 1338.17 337.11 1349.77 330 1352.4C326.591 1353.66 321.7 1351.88 320.052 1356.15C319.117 1358.57 319.632 1361.6 322.152 1362.8C324.599 1363.96 327.34 1362.31 329.815 1363.33C332.409 1364.39 340.585 1372.65 341.802 1375.21C344.069 1379.99 340.309 1385.87 344.564 1390.36C353.163 1399.44 364.005 1392.04 373 1396.29C378.624 1398.95 383.972 1404.31 386.468 1410C388.258 1414.08 387.917 1420.18 392.224 1422.68C397.027 1425.48 400.34 1421.45 404.015 1418.9C412.823 1412.78 419.715 1404.43 417 1393C401.849 1393.23 411 1366.97 411 1357C423.592 1354.26 409.435 1341.81 415.345 1335.11C424.05 1325.24 437.341 1327.63 446.301 1320.97C450.105 1318.15 449.945 1311.76 452.588 1308.09C458.217 1300.28 469.246 1299.22 477.996 1300.43C485.696 1301.5 487.554 1314.29 491.951 1319.79C494.819 1323.37 499.468 1324.46 502.775 1327.53C506.721 1331.19 509.515 1338.97 511.298 1344C514.234 1352.28 504.632 1354.36 504.636 1360.95C504.639 1366.23 511.789 1367.58 515.576 1368.18C524.033 1369.5 530.871 1373.28 540 1374C540.966 1366.35 538.297 1358.14 539.65 1351C540.505 1346.48 545.698 1343.42 545.704 1339C545.712 1332.99 537.059 1329.92 539.863 1323C544.846 1310.69 564.431 1300.28 565.394 1287C565.729 1282.37 561.663 1278.65 561.657 1274C561.652 1269.86 564.304 1266.1 564.815 1262C565.698 1254.9 563.449 1247.55 560.86 1241C558.73 1235.61 551.63 1233.23 550.383 1227.96C548.553 1220.21 555.228 1212.24 553.182 1205C551.553 1199.23 546.521 1195.39 545.962 1189C545.23 1180.63 553.568 1179.33 556.958 1173.53C558.542 1170.82 558.813 1159.37 558.393 1156.09C557.434 1148.6 547.854 1145.85 549 1137C542.02 1135.54 535.18 1130.63 528 1130.54C523.385 1130.48 518.759 1134.71 514.702 1130.49C509.35 1124.91 513.796 1117.31 510.991 1111.11C508.947 1106.59 502.586 1106.71 501.137 1101.9C499.307 1095.81 505.743 1091.36 497 1089z"/>
</svg>
