<?xml version="1.0" standalone="yes"?>
<svg xmlns="http://www.w3.org/2000/svg" width="955" height="1450">
<path style="fill:#010101; stroke:none;" d="M0 0L0 1450L955 1450L955 0L0 0z"/>
<path style="fill:#ffffff; stroke:none;" d="M434 720L427 740L400 722.033L376 724C377.667 729.873 374.278 731.875 369.996 735.374C367.26 737.611 364.685 740.941 361 741.512C352.69 742.801 347.938 737.858 340 743L340 744L347 746L335 750L332 737L315 741L309 727C299.688 731.163 291.012 720.022 291 736L279 734C275.193 749.404 262.905 750.089 249.09 747.032C244.505 746.017 240.247 741.085 235.429 744.862C227.768 750.867 228.363 767.085 237.019 771.622C242.291 774.385 248.82 774.151 253.907 777.139C259.129 780.207 261.533 785.213 268 786.61C273.691 787.838 278.492 784.871 284 785.151C288.334 785.372 292.119 788.328 296 790L300 783C308.722 790.776 309.696 798.157 323 801.174C328.717 802.471 335.19 798.927 341 798.468C346.372 798.044 356.931 800.315 362 802.352C371.638 806.224 381.452 810.642 390.896 814.6C397.524 817.378 396.064 820.2 404 818.414C407.464 817.634 413.557 816.096 417 816.603C421.45 817.26 427.809 822.777 432.066 818.258C434.787 815.367 439.114 802.746 438.293 799C437.514 795.444 434.447 792.681 434.078 789C433.723 785.46 436.458 782.608 436.201 779C435.607 770.656 432.217 761.934 442 758C440.189 750.865 447.021 750.219 447.421 743.985C447.92 736.212 438.839 725.549 434 720z"/>
</svg>
