<?xml version="1.0" standalone="yes"?>
<svg xmlns="http://www.w3.org/2000/svg" width="955" height="1450">
<path style="fill:#010101; stroke:none;" d="M0 0L0 1450L955 1450L955 0L0 0z"/>
<path style="fill:#ffffff; stroke:none;" d="M464 287L472 287C466.127 302.755 468.748 326.529 486 334C478.918 344.54 451.976 355.836 442 345L440 345C435.882 354.826 445.891 360.074 436 368C439.371 374.815 444.153 381.666 446.351 389C447.848 393.997 445.796 399.481 450.228 403.363C454.824 407.388 467.323 416.076 473.043 417.365C478.773 418.656 487.61 413.951 492.005 419.318C498.221 426.909 489.185 433.803 491.622 440.911C494.516 449.35 514.051 464.443 506 472L511 480L510 485C521.227 489.969 531.917 488.917 542.985 492.899C546.695 494.234 551.392 499.213 555.535 496.932C564.314 492.1 557.395 482.544 561.985 476.214C565.206 471.772 569.451 473.389 574 472.328C586.737 469.357 591.403 469.901 604 474L610 467C609.48 463.132 607.688 458.782 609.357 455C614.065 444.336 624.857 441.616 625.235 428C625.672 412.23 612.701 398.231 604.533 386C602.231 382.552 602.587 378.388 600.397 375.015C597.67 370.815 591.983 368.674 589.993 363.996C588.743 361.058 590.737 357.989 590.852 355C591.015 350.759 588.659 337.683 586.678 334.058C583.175 327.646 575.439 330.487 570.209 327.062C563.753 322.836 561.66 308.131 555.775 306.317C545.777 303.235 538.977 308.604 530 307.608C514.778 305.92 516.546 299.363 508.363 289.174C506.05 286.294 499.541 283.842 499.176 279.896C498.824 276.091 503.615 271.536 505 268C493.522 265.877 488.02 270.391 478 273.852C470.053 276.597 462.1 276.069 464 287z"/>
</svg>
