<?xml version="1.0" standalone="yes"?>
<svg xmlns="http://www.w3.org/2000/svg" width="955" height="1450">
<path style="fill:#010101; stroke:none;" d="M0 0L0 1450L955 1450L955 0L0 0z"/>
<path style="fill:#ffffff; stroke:none;" d="M755 296C750.62 301.965 745.33 299.297 740.286 303.434C733.823 308.734 723.6 316.792 721.009 325C717.064 337.498 728.533 349.563 738 355L738 356C734.324 359.923 733.038 370.064 738.303 373.547C747.459 379.604 759.703 375.731 769 383L770 383C773.72 379.663 779.174 378.097 782.49 374.582C788.021 368.719 794.285 351.847 795 344C774.659 328.627 780.825 305.933 789 286C785.21 284.453 777.407 279.764 774.164 284.322C771.536 288.017 773.283 294.421 768.772 296.933C765.245 298.897 758.747 296.698 755 296z"/>
</svg>
