<?xml version="1.0" standalone="yes"?>
<svg xmlns="http://www.w3.org/2000/svg" width="1285" height="1450">
<path style="fill:#010101; stroke:none;" d="M0 0L0 1450L1285 1450L1285 0L0 0z"/>
<path style="fill:#ffffff; stroke:none;" d="M394 395C392.48 403.065 391.768 406.074 385.104 410.965C382.271 413.045 380.957 416.897 377.787 418.436C360.177 426.982 341.723 416 324 416C324.573 422.055 319.225 433.884 312.385 435.27C308.701 436.016 306.216 430.768 302.285 432.828C297.617 435.275 295.468 441.315 290.961 444.143C283.854 448.602 273.036 448 265 448L265.609 463L270.154 478L262.979 502L273.2 518L277 537C281.653 536.409 287.507 534.22 291.985 536.333C295.059 537.782 296.841 541.266 300.09 542.307C306.007 544.204 311.236 540.701 316.334 546.147C321.047 551.182 323.15 562.472 328.419 565.972C336.434 571.297 349.413 563.651 357.961 565.889C365.908 567.969 368.396 577.315 378 578.7C394.325 581.053 409.924 576.169 426 576.004C440.29 575.857 456.908 580.022 471 576.582C476.424 575.258 480.515 570.837 486 569.532C495.381 567.301 504.658 572.076 513.957 568.007C517.625 566.402 518.536 563.001 521.39 560.564C525.155 557.349 531.784 553.636 536.09 550.857C541.481 547.379 549.09 547.886 555 545.522C563.447 542.143 570.282 534.855 579 532.228C590.418 528.789 597.546 546.489 611 541.262C625.054 535.801 637.919 528.869 652 523.696C657.07 521.833 665.677 522.539 669.772 519.397C674.278 515.939 674.406 508.416 678.329 504.105C683.051 498.916 688.513 497.136 691.149 490C693.046 484.864 687.855 481.82 689.037 477.043C690.815 469.855 701.011 463.681 696.397 454.43C694.301 450.229 683.02 448.418 679.055 444.71C673.006 439.053 673.933 430.69 669.521 424.105C666.101 419.001 659.508 419.075 655.702 414.61C645.511 402.653 642.32 375.131 624 370.404C618.45 368.972 608.595 377.254 604 380.015C584.518 391.721 574.49 415.594 552 422.307C545.788 424.161 537.878 419.91 532 418.377C521.837 415.728 511.375 415.001 501 415.384C497.236 415.522 491.255 417.539 488.723 420.419C486.371 423.094 486.013 427.062 481.981 427.958C470.655 430.473 456.946 420.462 445.326 425.603C434.313 430.476 435.494 445.159 419.104 438.397C401.846 431.277 409.027 403.242 394 395z"/>
</svg>
