<?xml version="1.0" standalone="yes"?>
<svg xmlns="http://www.w3.org/2000/svg" width="1285" height="1450">
<path style="fill:#010101; stroke:none;" d="M0 0L0 1450L1285 1450L1285 0L0 0z"/>
<path style="fill:#ffffff; stroke:none;" d="M276 756C279.281 767.39 287.859 769.778 298 774C296.522 778.18 294.928 781.085 289.996 780.926C280.572 780.622 274.442 772.059 264.059 776.403C257.365 779.203 259.896 789.547 264.39 793.436C268.101 796.646 275.284 797.365 280 798L286.431 819L282.598 829L276 854C282.179 854.837 284.924 856.608 288 862C292.139 860.343 293.657 858.457 294 854L305 857L303 867C308.443 869.869 316.902 871.172 318.856 878.004C320.687 884.408 315.074 892.544 321.314 897.891C329.376 904.8 341.74 898.001 351 898C350.714 891.342 347.83 884.521 347.905 878C347.988 870.869 357.943 853.783 364.104 850.303C373.068 845.241 385.541 848.793 393.681 841.753C397.006 838.878 394.823 834.722 396.009 831.001C397.728 825.61 402.321 822.61 407 820C405.751 810.681 409.244 805.032 410.229 796C410.532 793.227 408.801 790.206 409.707 787.576C411.054 783.664 415.237 780.492 417.441 777C419.921 773.07 420.775 767.978 425.105 765.558C429.642 763.022 436.816 760.625 442 760.224C445.155 759.979 448.758 761.612 451.787 760.382C457.869 757.912 458.302 747.472 466.576 747.286C471.316 747.18 476.986 750.375 482 750.829C487.443 751.323 492.624 748.962 498 749.927C502.779 750.786 510.445 753.852 513.958 748.501C518.886 740.991 505.458 738.028 504.183 731.996C502.639 724.696 512.019 716.232 508.382 708.43C506.51 704.413 497.64 703.946 494 704.775C479.726 708.025 464.72 710.763 450 712.17C439.337 713.189 437.625 717.196 428.985 722.012C423.78 724.913 417.323 723.431 412 726.264C405.001 729.989 400.218 737.205 393.625 740.961C387.821 744.269 380.727 740.189 374.174 744.966C363.926 752.436 361.611 765.152 348 768.944C338.369 771.628 327.812 765.138 319 762.637C305.451 758.793 290.008 759.938 276 756z"/>
</svg>
