<?xml version="1.0" standalone="yes"?>
<svg xmlns="http://www.w3.org/2000/svg" width="1285" height="1450">
<path style="fill:#010101; stroke:none;" d="M0 0L0 1450L1285 1450L1285 0L0 0z"/>
<path style="fill:#ffffff; stroke:none;" d="M722 206C720.643 213.284 722.335 228.284 716.362 233.382C713.278 236.014 708.613 233.401 705.005 234.942C698.958 237.524 698.306 244.714 691.995 247.03C685.882 249.273 679.324 246.359 673 247.301C655.771 249.867 658.123 266.04 659.715 279C660.676 286.818 661.143 292.112 668 297L668 298C657.666 305.285 647.028 327.176 650.309 340C653.081 350.832 670.921 367.042 683 363.926C696.715 360.388 703.928 352.006 706.61 339C708.183 331.365 701.135 317.931 713 316C713.835 322.174 717.327 327.068 718.61 333C719.414 336.719 718.162 341.322 720.318 344.683C722.06 347.399 725.744 347.31 727.583 350.148C729.727 353.455 729.885 359.736 733.499 361.883C737.663 364.356 743.738 360.044 748 359.858C752.957 359.641 756.229 363.451 759 367C763.917 365.832 774.218 363.25 776.933 358.61C778.262 356.339 777.162 353.465 777.738 351C778.838 346.296 782.671 340.815 785.61 337.039C789.864 331.573 798.711 327.847 799.112 320C799.403 314.295 792.726 311.205 791.402 306C789.338 297.885 798.871 286.302 804.3 281.279C808.43 277.457 814.78 277.589 820 276.346C826.011 274.914 832.92 268.418 839 269.318C851.268 271.134 859.163 280.682 870 284.411C880.533 288.036 892.491 280.181 899.787 273.334C911.806 262.055 900.07 256.659 897.317 245.996C892.519 227.41 894.119 213.844 878 200.414C874.865 197.802 871.275 193.85 867 193.337C861.484 192.675 858.638 198.626 854.961 201.606C850.529 205.198 844.8 205.853 841.638 211.043C836.671 219.196 836.453 229.604 828.621 236.487C817.833 245.969 800.336 229.17 788 234.431C784.841 235.779 780.218 238.269 778.514 241.379C775.972 246.016 776.319 253.388 769 253.532C760.818 253.692 740.091 244.411 736.514 236.907C731.895 227.217 735.039 209.486 722 206z"/>
</svg>
