<?xml version="1.0" standalone="yes"?>
<svg xmlns="http://www.w3.org/2000/svg" width="1285" height="1450">
<path style="fill:#010101; stroke:none;" d="M0 0L0 1450L1285 1450L1285 0L0 0z"/>
<path style="fill:#ffffff; stroke:none;" d="M196 707C196 710.899 197.888 718.257 195.933 721.61C193.112 726.446 185.691 725.807 181 726.424C168.073 728.127 152.318 726.458 140 729.652C130.26 732.178 130.396 737.043 125.411 743.826C121.211 749.542 116.121 751.655 114 759C122.428 757.336 135.24 738.748 142 750C152.617 747.81 164.645 741.489 175 740.641C190.288 739.39 207.027 751.114 219 759L210.637 740L207 706L196 707z"/>
</svg>
