<?xml version="1.0" standalone="yes"?>
<svg xmlns="http://www.w3.org/2000/svg" width="1285" height="1450">
<path style="fill:#010101; stroke:none;" d="M0 0L0 1450L1285 1450L1285 0L0 0z"/>
<path style="fill:#ffffff; stroke:none;" d="M567 93C570.195 104.253 575.305 104.257 582.436 111.649C584.809 114.109 584.764 117.966 585.979 121C588.787 128.013 595.133 133.99 595.157 142C595.173 147.593 589.676 152.614 586.748 157C581.071 165.505 573.175 181.329 576.643 192C578.898 198.941 587.331 202.681 591.682 208.089C595.046 212.272 592.954 217.556 595.564 222C601.385 231.909 613.292 238.187 616.995 249C623.732 268.67 608.003 286.814 615.714 307C620.203 318.749 640.382 327.596 641.535 339.985C642.096 346.021 631.978 348.797 628.148 351.619C624.361 354.41 623.575 361.536 624.163 365.999C625.168 373.632 638.385 383.54 643.115 390C648.462 397.302 650.594 406.698 655.843 413.786C659.439 418.644 666.264 418.84 669.892 424.043C673.521 429.248 673.412 435.559 676.303 440.961C680.354 448.528 689.344 450.42 697 452C700.899 446.216 704.092 439.156 709.184 434.326C715.58 428.26 723.115 425.006 727.773 417C733.322 407.462 731.844 395.034 735.89 385.015C739.138 376.969 751.054 370.289 759 368C750.784 354.128 743.109 367.971 733.418 362.802C729.697 360.818 729.429 354.47 727.443 351.148C725.517 347.927 721.415 348.123 719.573 344.852C717.342 340.892 718.526 336.24 717.61 332C716.499 326.863 713.479 322.101 712 317C701.92 320.174 709.222 331.802 707.363 339C703.837 352.646 697.845 358.915 684 364.071C671.698 368.653 651.908 350.525 649.5 339.286C646.553 325.531 657.761 307.246 667 298L667 297C658.577 288.476 654.281 269.783 658.483 258.001C659.864 254.127 664.173 251.755 665.096 247.911C666.014 244.092 663.364 239.933 663.637 236C664.265 226.982 667.941 218.645 669.595 210C670.558 204.964 669.022 200.18 670.379 195C672.422 187.201 681.03 183.409 682.667 176C683.853 170.631 679.624 165.287 677 161L687 157L678.914 130.015L667.603 117L668 90C661.037 93.7069 649.576 108.991 641.094 106.444C634.305 104.404 637.886 95.8514 635.851 91.105C634.27 87.4167 620.599 76.5118 616.911 75.4213C607.9 72.7573 597.795 91.7648 589.17 94.3618C584.847 95.6633 581.92 90.8195 578 89.9128C574.317 89.0609 570.221 91.4937 567 93z"/>
</svg>
