<?xml version="1.0" standalone="yes"?>
<svg xmlns="http://www.w3.org/2000/svg" width="1285" height="1450">
<path style="fill:#010101; stroke:none;" d="M0 0L0 1450L1285 1450L1285 0L0 0z"/>
<path style="fill:#ffffff; stroke:none;" d="M1135 1180C1138.42 1178.67 1142.23 1176.48 1146 1177.58C1152.12 1179.37 1151.77 1185.84 1156.34 1189.06C1161.3 1192.55 1175.41 1191.86 1178.97 1186.47C1180.71 1183.83 1179.83 1179.97 1180.1 1177C1180.4 1173.81 1181.4 1171.2 1181 1168C1178.28 1169.27 1171.77 1174.75 1168.81 1172.98C1161.95 1168.87 1171.78 1147.85 1158 1154.27C1156.5 1154.97 1154.77 1155.76 1153.6 1156.97C1150.79 1159.87 1151.36 1163.97 1148 1167L1140 1146L1153 1138C1126.86 1127.16 1134.4 1166.09 1135 1180z"/>
</svg>
