<?xml version="1.0" standalone="yes"?>
<svg xmlns="http://www.w3.org/2000/svg" width="1285" height="1450">
<path style="fill:#010101; stroke:none;" d="M0 0L0 1450L1285 1450L1285 0L0 0z"/>
<path style="fill:#ffffff; stroke:none;" d="M167 152C163.586 139.311 137.339 144.759 130.76 152.213C122.479 161.594 126.056 170.243 123 181C128.072 183.635 129.715 188.502 130 194C123.651 194.578 112.291 205.958 118.671 212.411C125.034 218.847 142.631 214.995 151 217.303C155.934 218.664 157.327 222.893 160.545 226.24C165.165 231.047 171.989 236.533 177.285 240.583C181.274 243.632 185.912 243.061 189.826 247.091C194.875 252.29 201.987 261.698 190 262C193.184 271.593 215.93 263.458 223 262C218.103 269.26 213.04 276.718 214.228 286C215.344 294.722 219.991 300.631 219 310L210 309C210.301 315.883 216.42 325.347 224.044 325.938C234.154 326.72 238.034 318.276 246 329L247 329L250 319L251 319C257.518 330.281 258.991 348.868 259 362C275.507 361.291 276.706 348.209 287.39 339.603C292.964 335.114 301.479 340.607 307.772 338.682C311.824 337.442 310.52 332.273 312.858 329.513C315.651 326.215 323.885 325.065 328 324.879C333.841 324.615 339.132 329.915 344 332.557C352.18 336.996 369.684 338.57 376.357 330.363C380.203 325.632 372.968 320.86 372.503 316.424C371.936 311.009 378.154 306.131 377.584 300C376.803 291.601 367.777 281.231 369.467 273C370.403 268.437 377.126 260.226 382.004 259.983C385.798 259.794 390.027 262.69 393.714 260.883C401.141 257.243 406.096 248.208 414 244C407.172 219.034 388.916 221.354 368 224L369 143C358.038 145.254 347.962 137.704 338 139.731C326.337 142.104 321.578 154.319 309 156.536C302.746 157.639 294.604 152.441 289.228 154.758C282.516 157.651 286.921 169.965 279.942 174.204C271.509 179.325 260.725 186.519 251 188.478C246.953 189.294 243 187.609 239 188.408C235.466 189.115 232.641 191.874 229 192.118C222.957 192.523 216.785 186.977 211.015 187.982C205.91 188.871 204.282 195.628 198.999 196.638C195.745 197.26 193.117 195.084 190 194.823C184.244 194.342 179.048 198.251 173.279 194.683C169.792 192.527 169.715 187.365 167.951 184C161.683 172.045 153.694 162.382 167 152M250 360L246 365C246.487 371.106 250.776 371.015 256 372L259 366L250 360z"/>
</svg>
