<?xml version="1.0" standalone="yes"?>
<svg xmlns="http://www.w3.org/2000/svg" width="1285" height="1450">
<path style="fill:#010101; stroke:none;" d="M0 0L0 1450L1285 1450L1285 0L0 0z"/>
<path style="fill:#ffffff; stroke:none;" d="M377 135C367.551 139.802 371 149.329 371 158C371 178.878 363.398 203.113 369 223C378.415 221.809 390.145 217.746 399 222.843C409.261 228.748 410.837 242.957 423 243L424 235L438 233L441.848 207.015L435.394 190L441 150C433.011 145.543 432.367 140.827 429 133C421.593 135.368 409.334 136.683 403.785 142.419C400.722 145.584 395.716 157.81 390.537 157.257C382.664 156.416 379.031 141.004 377 135z"/>
</svg>
