<?xml version="1.0" standalone="yes"?>
<svg xmlns="http://www.w3.org/2000/svg" width="1285" height="1450">
<path style="fill:#010101; stroke:none;" d="M0 0L0 1450L1285 1450L1285 0L0 0z"/>
<path style="fill:#ffffff; stroke:none;" d="M167 605C163.572 593.737 147.308 598.489 139 602L139 604L147 606L147 617L122 620L122 621L143 633C142.854 639.86 141.588 644.752 134 645C141.076 662.604 174.184 626.59 173 652L168 652L168 664C172.608 664.582 179.483 666.879 183.961 665.357C187.724 664.078 190.165 659.75 193.015 657.184C196.415 654.123 201.366 652.147 204.142 648.482C206.226 645.731 205.735 642.062 207.317 639.093C209.805 634.424 217.796 625.832 222.174 622.854C229.782 617.678 252.174 611.435 248.552 599.148C245.44 588.592 222.164 599.449 216 600.026C207.246 600.846 205.51 589.402 197.975 587.782C194.061 586.941 192.335 590.32 188.961 591.312C185.779 592.247 182.365 590.227 179.329 592.032C174.283 595.031 172.635 601.63 167 605z"/>
</svg>
