<?xml version="1.0" standalone="yes"?>
<svg xmlns="http://www.w3.org/2000/svg" width="1285" height="1450">
<path style="fill:#010101; stroke:none;" d="M0 0L0 1450L1285 1450L1285 0L0 0z"/>
<path style="fill:#ffffff; stroke:none;" d="M541 335C539.559 328.025 524.216 318.798 517 319.862C513.002 320.451 510.062 323.911 506 324.437C500.039 325.208 493.989 322.522 488 323.304C482.613 324.008 476.452 327.155 471 326.189C462.743 324.726 460.418 315.603 451.999 315.214C445.257 314.902 439.537 319.859 433 320.79C426.535 321.711 422.49 318.715 417 316C415.167 320.498 415.047 327.092 412.397 330.942C409.587 335.025 404.775 334.919 401.039 337.564C396.201 340.99 383.331 356.112 391.514 361.972C394.142 363.855 398.941 363 402 363L394 394C405.887 401.969 403.951 418.296 411.711 429C413.804 431.886 415.533 436.558 419.21 437.686C423.254 438.927 431.763 440.333 435.24 437.397C439.247 434.012 440.497 427.695 445.184 425.028C448.825 422.956 454.953 423.915 459 424.015C465.951 424.185 476.26 429.294 482.856 427.226C486.625 426.044 486.775 420.537 490.133 418.417C497.842 413.549 509.279 414.597 518 414.6C528.957 414.605 542.215 425.076 553 421.382C573.629 414.316 583.968 394.196 601 381.609C606.895 377.252 617.754 374.421 621.973 368.366C625.151 363.805 622.076 356.818 626.318 352.61C630.077 348.879 640.327 347.019 640.793 340.896C641.196 335.605 635.264 330.461 631.961 327C624.429 319.109 617.461 311.998 613 302C608.255 302.979 600.373 303.564 596.653 306.854C593.341 309.783 594.837 314.406 592.972 317.961C590.754 322.188 584.972 326.448 581 328.968C569.272 336.41 554.065 335.001 541 335z"/>
</svg>
