<?xml version="1.0" standalone="yes"?>
<svg xmlns="http://www.w3.org/2000/svg" width="1285" height="1450">
<path style="fill:#010101; stroke:none;" d="M0 0L0 1450L1285 1450L1285 0L0 0z"/>
<path style="fill:#ffffff; stroke:none;" d="M352 898C368.145 898.046 375.951 910.591 389 917.566C396.49 921.57 404.509 915.699 412 918.279C417.292 920.101 424.247 927.461 425.532 933C426.243 936.067 424.143 938.951 425.198 942C426.506 945.783 429.448 949.186 431 953L433 953C434.877 949.122 435.013 944.572 437.514 941C440.441 936.82 445.565 933.9 447.397 929C455.187 908.166 453.727 880.581 451 859C476.548 855.754 478.946 830.612 501 820.597C509.724 816.636 518.489 824.731 527 824.726C535.988 824.721 541.797 819.677 550 818.044C563.108 815.434 575.859 816.991 589 817L589.933 799.514L573.004 794.08L559.621 779.607L547 780C546.139 773.223 545.099 769.422 550 764L550 763C543.299 756.808 539.888 760.382 532 759.44C526.127 758.739 519.71 754.37 516 750C505.927 752.385 492.402 752.831 482 751.711C476.932 751.165 470.833 747.624 466 748.039C457.426 748.777 457.809 760.195 450.895 761.593C442.063 763.377 429.775 759.922 422.699 768.278C419.247 772.355 411.271 782.968 410.244 788C409.643 790.944 411.198 793.95 410.765 797C410.075 801.855 407.078 806.211 406.563 811C406.287 813.567 407.68 816.338 406.672 818.816C404.936 823.083 399.371 824.574 397.368 829.04C395.727 832.698 397.687 837.451 395.357 840.621C388.503 849.949 373.445 846.256 364.21 850.854C360.416 852.743 358.476 857.537 356.4 861C353.61 865.652 349.108 871.45 348.575 877C347.952 883.477 351.475 891.35 352 898z"/>
</svg>
