<?xml version="1.0" standalone="yes"?>
<svg xmlns="http://www.w3.org/2000/svg" width="1285" height="1450">
<path style="fill:#010101; stroke:none;" d="M0 0L0 1450L1285 1450L1285 0L0 0z"/>
<path style="fill:#ffffff; stroke:none;" d="M679 161C679.882 165.574 684.29 170.284 683.577 175C682.658 181.077 675.144 184.526 672.652 190C669.663 196.564 671.494 202.388 670.52 209C668.516 222.605 661.735 234.044 667 248C675.257 245.68 683.019 248.461 690.996 246.606C696.968 245.217 698.438 239.097 703.018 235.724C707.22 232.631 711.739 235.345 715.606 232.958C721.136 229.543 720.517 211.117 721 205C738.669 208.888 729.825 234.389 743.005 242.396C748.817 245.927 764.067 254.928 770.981 252.852C777 251.045 775.35 244.336 778.589 240.379C781.358 236.996 786.522 236.039 788.972 232.391C798.131 218.755 790.917 196.376 780.099 185.513C770.741 176.116 757.64 185.704 748 187.062C744.404 187.569 740.447 185.988 737 185.127C722.895 181.601 719.046 179.191 717 164C713.401 164.845 709.741 167.996 706 167.615C694.477 166.442 691.706 156.718 679 161z"/>
</svg>
