<?xml version="1.0" standalone="yes"?>
<svg xmlns="http://www.w3.org/2000/svg" width="1285" height="1450">
<path style="fill:#010101; stroke:none;" d="M0 0L0 1450L1285 1450L1285 0L0 0z"/>
<path style="fill:#ffffff; stroke:none;" d="M441 108L430.575 132L434.564 145.24L441.002 153.04L436.214 190L442.757 207.015L439 234L425 236L424 244C407.917 244.002 405.892 254.131 393.83 261.226C389.131 263.99 383.861 258.902 379.17 261.118C366.581 267.065 370.96 278.329 374.576 288C375.785 291.234 376.519 296.865 379.51 298.972C382.594 301.145 394.162 304.403 398 304.617C401.455 304.81 405.501 302.677 408.816 304.198C415.368 307.204 416.461 316.564 424.001 319.272C434.428 323.018 442.229 313.982 452 314.394C460.431 314.75 462.601 324.318 471 325.519C477.269 326.416 483.741 322.505 490 322.263C495.562 322.048 501.489 324.563 507 323.567C510.896 322.863 513.992 319.351 518 319.286C527.94 319.126 535.567 329.732 543.414 333.401C553.557 338.144 569.292 333.055 579 329.475C583.568 327.791 590.541 322.536 592.397 317.911C593.85 314.293 592.871 310.499 595.653 307.279C599.591 302.719 609.807 304.824 612.396 299.57C614.431 295.44 611.581 289.53 612.519 285C615.384 271.152 622.704 256.792 613.914 243.171C608.712 235.108 599.607 229.584 594.564 221C592.195 216.967 594.075 212.008 591.397 208.17C587.241 202.214 577.79 198.372 575.773 191C570.7 172.455 589.83 160.23 594.183 145C596.617 136.484 588.633 128.065 585.41 121C584.04 117.997 583.964 114.086 581.486 111.699C578.544 108.865 574.459 108.176 571.684 104.895C568.415 101.031 567.953 94.9951 563.856 91.9707C554.843 85.3176 552.828 96.4492 546.787 99.9716C541.443 103.087 533.958 98.5299 528.015 101.009C522.693 103.23 522.052 109.874 516.895 111.852C497.272 119.379 475.08 116.736 455 113.401C449.832 112.542 446.54 108.372 441 108z"/>
</svg>
