<?xml version="1.0" standalone="yes"?>
<svg xmlns="http://www.w3.org/2000/svg" width="1285" height="1450">
<path style="fill:#010101; stroke:none;" d="M0 0L0 1450L1285 1450L1285 0L0 0z"/>
<path style="fill:#ffffff; stroke:none;" d="M717 162C718.048 167.08 718.681 175.431 721.938 179.566C724.277 182.537 729.585 182.536 733 183.374C737.601 184.504 743.222 186.957 748 186.436C758.63 185.277 765.384 177.634 776.957 182.854C786.537 187.176 794.354 206.951 794.107 217C793.997 221.474 789.322 225.979 791.604 230.566C793.08 233.534 798.183 233.441 801 233.921C808.963 235.276 821.043 242.114 828.391 236.146C840.696 226.152 836.142 208.752 853 203L853 201C839.492 192.059 842.369 182.337 838.351 169C836.538 162.982 830.49 158.379 829.846 152C829.174 145.34 832.728 138.678 832.657 132C832.572 124.116 828.503 115.915 827.425 108C826.299 99.7256 827.889 91.2516 826.7 83C825.532 74.8958 821.551 67.5349 818.615 60C816.719 55.1326 817.12 46.5466 813.836 42.6034C811.4 39.6791 806.157 41.757 803 41.8958C794.379 42.2749 784.35 36.5378 776.105 40.6528C772.225 42.5892 771.661 47.7191 767.787 49.3966C762.934 51.4979 758.681 47.7574 754 47.78C747.022 47.8137 733.889 50.9108 727 53.0934C719.856 55.3567 710.924 58.3585 705.39 63.6096C701.61 67.1973 700.971 72.9259 695.957 75.348C687.954 79.2134 672.196 80.4537 669.318 91.0903C667.61 97.4039 665.989 113.057 669.028 118.985C672.063 124.908 678.711 127.457 681.289 134C683.997 140.872 684.21 149.32 687.652 155.79C693.694 167.147 707.909 168.127 717 162z"/>
</svg>
