<?xml version="1.0" standalone="yes"?>
<svg xmlns="http://www.w3.org/2000/svg" width="1285" height="1450">
<path style="fill:#010101; stroke:none;" d="M0 0L0 1450L1285 1450L1285 0L0 0z"/>
<path style="fill:#ffffff; stroke:none;" d="M789 1197C781.337 1209.92 790.832 1219.82 790.377 1233C790.04 1242.73 783.545 1247.5 781 1256L796.683 1269.09L793 1292C803.894 1297.09 815.345 1302.21 826 1307.78C834.235 1312.09 841.294 1317.73 851 1317.99C858.619 1318.18 866.949 1319.63 872 1313L873 1313L884 1329L885 1329L886 1323L903 1331.38L914.786 1325.21L919 1330C928.558 1324.74 941.572 1325.6 952 1327L951 1336L958 1336C956.97 1342.33 965.208 1347.1 961.392 1352.96C953.927 1364.4 938.321 1359.21 934 1375L940 1378C936.042 1384.02 937.463 1393.91 946.907 1391.26C954.404 1389.16 951.083 1379.59 957.144 1376.62C964.256 1373.13 967.584 1382.62 974.001 1382.62C979.419 1382.62 981.715 1376.83 987 1376L986 1368C976.54 1361.03 966.6 1347.58 971.603 1335.1C973.698 1329.88 979.924 1326.45 982.446 1321C984.978 1315.53 984.426 1307.82 989.228 1303.64C999.574 1294.63 1017.61 1293.87 1019 1277C1026.18 1277.54 1030.2 1283.41 1037.91 1280.77C1049.06 1276.96 1057.13 1263.96 1067.99 1259C1073.57 1256.44 1077.09 1252.12 1082 1258L1114 1235C1107.92 1229.13 1095.49 1228.08 1091.09 1221.78C1084.54 1212.42 1095.51 1200.52 1088.26 1191.39C1081.53 1182.92 1071.76 1189.49 1064 1185.43C1059.33 1182.98 1056.87 1176.57 1050.99 1177.23C1046.94 1177.69 1040.33 1180.55 1037.6 1183.64C1035.13 1186.44 1036.54 1190.6 1035.03 1193.83C1029.88 1204.79 1021.88 1215.54 1023.1 1228C1023.65 1233.54 1034.5 1242.25 1030.59 1246.43C1028.06 1249.14 1024.26 1248.07 1021.51 1250.03C1016.62 1253.5 1018.39 1262.78 1010 1262.51C1001.98 1262.25 998.682 1252.72 989.09 1255.32C985.391 1256.32 983.94 1260.12 980.826 1262.01C976.231 1264.8 967.37 1267.72 962.17 1269.33C955.3 1271.45 946.328 1267.81 939 1269.39C933.991 1270.47 929.233 1275.35 924 1274.97C913.905 1274.24 912.833 1259.07 903.91 1258.24C897.862 1257.67 894.204 1261.58 889 1263.4C885.496 1264.63 881.599 1263.61 878 1264.39C866.445 1266.89 862.36 1271.09 850 1267.07C843.821 1265.06 830.181 1253.28 828.279 1246.99C825.912 1239.15 827.783 1229.36 823.063 1222.21C820.593 1218.47 814.305 1208.62 810.61 1206.43C807.171 1204.4 802.687 1205.33 799 1203.97C795.175 1202.56 792.287 1199.3 789 1197M1004 1328C1000.26 1332.28 984.02 1344.79 991.029 1352.15C993.12 1354.35 997.47 1351.48 1000 1351.54C1006.6 1351.7 1013.14 1354.86 1020 1355C1020.06 1362.42 1020.04 1369.43 1028 1372L1027 1362C1033.6 1367.43 1038.79 1363.43 1041 1356C1046.13 1359.05 1049.66 1356.28 1055 1355L1062 1341C1050.83 1342.31 1039.18 1334.66 1028 1332.7C1016.66 1330.72 1013.07 1338.73 1004 1328z"/>
</svg>
