<?xml version="1.0" standalone="yes"?>
<svg xmlns="http://www.w3.org/2000/svg" width="1285" height="1450">
<path style="fill:#010101; stroke:none;" d="M0 0L0 1450L1285 1450L1285 0L0 0z"/>
<path style="fill:#ffffff; stroke:none;" d="M176 427L172.973 443.816L163 457L159 456L159 467L176 467L176 468L158.17 474.797L146 485L141 482C142.654 486.127 145.34 489.74 150 490.682C158.062 492.312 167.599 489.166 176 490.184C186.969 491.515 195.036 499.435 206 495L207 502L238 494C244.505 509.096 257.695 511.923 264.547 495C270.296 480.802 267.148 474.931 264.379 461C263.609 457.128 265.175 451.835 262.972 448.39C260.567 444.63 255.689 444.195 252 445.92C239.228 451.892 225.953 457.81 211.105 453.682C205.254 452.056 203.724 442.454 200.363 438.089C194.393 430.339 185.384 427.403 176 427z"/>
</svg>
