<?xml version="1.0" standalone="yes"?>
<svg xmlns="http://www.w3.org/2000/svg" width="1285" height="1450">
<path style="fill:#010101; stroke:none;" d="M0 0L0 1450L1285 1450L1285 0L0 0z"/>
<path style="fill:#ffffff; stroke:none;" d="M245 543C239.905 549.239 233.415 547.883 227.637 552.024C224.864 554.012 224.583 558.154 221.61 559.958C218.7 561.722 215.361 559.341 212.434 560.642C205.276 563.823 217.635 569.981 220 571L207.599 579.918L202 587C210.546 612.343 231.008 586.277 246.772 596.027C255.052 601.149 246.308 620.053 246.731 627C247.171 634.243 250.995 640.38 251 648L299.96 654.742L316 660C316.055 640.933 332.812 647.765 342.034 635.787C348.934 626.824 344.596 616.234 347.928 606C351.242 595.823 367.423 583.988 377 580L377 579C368.242 577.681 365.371 567.733 357.91 566.488C351.361 565.394 334.207 566.328 328 568.603C319.971 571.547 317.437 575.68 308 574.907C293.47 573.715 289.595 560.596 278.61 554.514C273.19 551.513 264.988 552.318 259 550.749C253.704 549.362 249.669 545.66 245 543z"/>
</svg>
