<?xml version="1.0" standalone="yes"?>
<svg xmlns="http://www.w3.org/2000/svg" width="1285" height="1450">
<path style="fill:#010101; stroke:none;" d="M0 0L0 1450L1285 1450L1285 0L0 0z"/>
<path style="fill:#ffffff; stroke:none;" d="M207 503L215.486 512.637L219.314 521.566L233 524C233.204 533.902 236.323 536.697 246 538C247.267 554.454 269.25 547.9 278.787 553.988C288.154 559.968 291.887 570.734 304 573.471C310.355 574.907 324.513 575.791 326.018 566.999C327.164 560.299 318.949 546.519 312.826 544.148C308.684 542.544 303.945 544.431 300.039 542.803C296.176 541.193 294.449 537.11 289.996 536.383C286.222 535.768 281.794 538.289 278.214 536.686C272.049 533.925 272.677 516.111 267.877 510.001C260.16 500.18 259.282 508.895 250.424 508.573C244.492 508.358 240.12 499.533 238 495L207 503z"/>
</svg>
