<?xml version="1.0" standalone="yes"?>
<svg xmlns="http://www.w3.org/2000/svg" width="1285" height="1450">
<path style="fill:#010101; stroke:none;" d="M0 0L0 1450L1285 1450L1285 0L0 0z"/>
<path style="fill:#ffffff; stroke:none;" d="M887 980C894.574 999.729 872.377 992.416 863.105 997.825C855.359 1002.34 855.409 1013.7 848.787 1019.37C843.765 1023.66 835.33 1028.47 829 1030.37C824.836 1031.61 819.21 1030.74 816.109 1034.32C809.629 1041.79 815.008 1047.19 815.095 1055C815.143 1059.29 812.953 1063.84 812 1068L831 1083C827.624 1088.78 825.292 1097.95 819.787 1102.01C815.349 1105.28 802.849 1105.23 801.524 1111.11C799.361 1120.71 808.51 1129.57 812.651 1137C816.132 1143.25 817.152 1150.95 821.075 1156.9C823.243 1160.18 829.218 1161.43 830.253 1165.21C831.22 1168.75 827.285 1181.01 826.137 1184.96C822.967 1195.86 805.356 1189.32 798 1187.67C794.554 1186.9 789.5 1187.64 789.592 1192.06C789.866 1205.29 803.586 1201.11 810.787 1205.94C814.934 1208.72 820.018 1217.3 823.276 1221.39C828.966 1228.52 826.681 1239.73 829.279 1247.91C830.899 1253.01 840.686 1261.23 845.089 1264.27C856.968 1272.47 866.382 1266.93 878 1263.64C881.911 1262.53 886.174 1263.74 890 1262.4C894.605 1260.79 897.689 1257.27 902.985 1257.43C912.456 1257.73 913.561 1273.71 924 1274.4C929.623 1274.76 934.628 1269.55 940 1268.39C947.219 1266.83 955.127 1270.2 962 1268.75C966.834 1267.72 977.395 1263.73 981.536 1261.01C984.341 1259.17 985.779 1255.86 989.039 1254.6C998.48 1250.97 1001.99 1262.32 1010 1262.07C1017.75 1261.83 1016.52 1253.56 1020.7 1249.6C1023.23 1247.2 1028.73 1247.39 1032 1246C1029.86 1235.62 1020.17 1231.7 1022.15 1219C1023.76 1208.63 1037.97 1197.84 1034.68 1186.11C1032.41 1177.99 1017.28 1181.25 1015.36 1172.9C1014.47 1169.04 1016.44 1164.99 1015.61 1161C1014.7 1156.61 1011.29 1152.56 1011.27 1148C1011.24 1141.95 1013.21 1137.34 1011.81 1131C1009.73 1121.6 999.541 1116.51 995.648 1108C991.042 1097.94 987.335 1081.84 985.73 1071C985.049 1066.4 986.226 1057.1 983.933 1053.32C981.601 1049.47 973.586 1047.65 970.144 1043.91C964.268 1037.53 966.178 1026.83 963.069 1019C962.152 1016.69 962.256 1012.76 959.682 1011.53C956.506 1010.02 948.202 1013.8 944 1013.57C939.39 1013.32 935.626 1016.56 932 1019C928.348 1011.13 929.556 1002.48 926.397 995.213C924.954 991.896 920.8 991.075 918.418 988.61C909.057 978.923 901.068 972.509 887 980z"/>
</svg>
