<?xml version="1.0" standalone="yes"?>
<svg xmlns="http://www.w3.org/2000/svg" width="1285" height="1450">
<path style="fill:#010101; stroke:none;" d="M0 0L0 1450L1285 1450L1285 0L0 0z"/>
<path style="fill:#ffffff; stroke:none;" d="M1230 576C1216.45 583.228 1210.51 599.808 1196 605.867C1185.85 610.106 1171.98 615.024 1161 615.907C1149.64 616.82 1136.84 614.034 1126.02 618.634C1119.02 621.608 1121.77 627.491 1118.06 632.61C1113.33 639.132 1106.3 643.152 1102.3 651C1094.22 666.871 1105.4 689.83 1115.35 702.697C1120.73 709.66 1150.98 712.949 1146 698L1131 698C1131.75 694.36 1132.21 689.327 1134.73 686.43C1140.09 680.273 1145.28 684.392 1144 674C1153.08 676.558 1163.55 678.313 1172 682.558C1180.98 687.067 1183.11 692.999 1194 693C1196.18 681.239 1200.49 668.808 1201.66 657C1202.29 650.603 1198.31 643.564 1203.35 638.148C1213.68 627.031 1215.38 653.558 1226.62 648.397C1229.5 647.076 1230.73 643.431 1232.61 641.093C1234.37 638.906 1237.25 637.291 1238.4 634.675C1244.61 620.476 1230.42 604.007 1227.32 591C1225.94 585.221 1231.68 581.524 1230 576z"/>
</svg>
