<?xml version="1.0" standalone="yes"?>
<svg xmlns="http://www.w3.org/2000/svg" width="1285" height="1450">
<path style="fill:#010101; stroke:none;" d="M0 0L0 1450L1285 1450L1285 0L0 0z"/>
<path style="fill:#ffffff; stroke:none;" d="M1067 703C1067.19 707.394 1068.45 711.697 1067.04 716C1064.88 722.637 1057.76 732.865 1060.18 740C1063.66 750.25 1080.1 750.446 1082.25 760.039C1083.27 764.587 1077.17 767.446 1075.43 771.039C1072.94 776.209 1075.29 781.72 1076 787C1082.67 784.779 1084.47 780.689 1085 774C1090.37 774.679 1098.94 777.785 1103.7 774.142C1113.48 766.649 1109.47 745.132 1098 742L1095 756C1090.85 748.714 1091.85 742.226 1089.36 735.17C1088.11 731.651 1084.36 729.769 1083.37 725.999C1082.31 721.954 1085.41 718.907 1085.47 715C1085.65 704.901 1074.37 704.388 1067 703M994 776L986 772C979.006 789.576 974.828 805.994 988.76 821.787C992.8 826.366 999.391 826.154 1003.47 830.303C1007.54 834.449 1006.53 841.248 1010.51 845.046C1017.76 851.949 1027.6 853.308 1023.47 866C1021.92 870.736 1017.79 873.738 1015.41 878C1007.35 892.478 996.453 913.438 980 920.361C970.088 924.532 965.698 913.67 956.999 915.395C949.352 916.912 939.799 923.591 937.032 931C935.152 936.031 936.039 942.082 933.566 946.896C929.851 954.13 925.194 954.609 925 964C912.824 964 903.049 961.68 898 975L913.606 980.699L919.418 989.034L927.397 995.213L932 1018L951 1013.21L958.576 1010.45L971 1013.41L981 1009L997 1006C1000.29 1013.03 1008.69 1024.77 1017 1026.11C1027.2 1027.76 1042.08 1019.14 1028 1011C1032.73 997.498 1050.28 986.295 1063 981C1064.56 984.821 1065.11 992.108 1068.32 994.647C1075.78 1000.56 1089.21 996.612 1095.14 1004.39C1098.49 1008.78 1096.67 1015.08 1098.6 1019.91C1100.95 1025.75 1108.54 1028.74 1112.03 1034C1114.01 1036.98 1115.4 1042.06 1119.19 1043.23C1128.04 1045.94 1130.43 1035.36 1137.01 1032.99C1140.57 1031.7 1151.88 1034.5 1156 1035.39C1160.3 1036.32 1167.38 1039.25 1169.68 1043.21C1171.67 1046.63 1170.56 1051.29 1174.28 1053.7C1178.95 1056.72 1188.95 1058.42 1193.44 1054.26C1195.88 1052 1195.54 1047.97 1198.42 1046.03C1204.19 1042.14 1208.98 1042.03 1214 1036L1214 1035C1211.1 1030.14 1215.72 1027.69 1217.3 1023C1221.1 1011.69 1222.3 1003.92 1230.46 994C1233.76 990.001 1240.31 985.875 1238.69 980.001C1235.9 969.872 1215.9 967.363 1207 964.86C1202.84 963.69 1198.09 962.444 1194.6 965.97C1190.56 970.051 1195.5 977.363 1196 982C1186.44 979.286 1169.09 976.555 1163.09 967.787C1156.38 957.999 1159.44 944.383 1154 934C1140.28 938.235 1140.53 930.073 1132.36 922.728C1128.53 919.285 1122.31 920.358 1118.64 916.57C1109.97 907.627 1111.47 893.989 1105.78 884C1100.07 874.004 1087.94 867.403 1078 862.258C1072.43 859.374 1064.79 857.261 1062.25 850.985C1059.17 843.376 1056.99 829.159 1057.91 821C1058.42 816.454 1061.08 812.743 1060.9 808C1060.6 800.393 1056.29 793.472 1056.34 786C1056.38 780.878 1059.81 775.086 1058.31 770C1057.09 765.857 1052.94 763.393 1052.05 759C1050.87 753.185 1054.57 749.016 1051.44 743.039C1049.81 739.928 1046.57 736.608 1043 735.889C1038.63 735.008 1034.51 738.018 1030 736.802C1021.33 734.466 1000.86 716.1 992.933 728.133C990.309 732.115 992.747 738.634 993.424 743C995.21 754.506 994 764.43 994 776z"/>
</svg>
