<?xml version="1.0" standalone="yes"?>
<svg xmlns="http://www.w3.org/2000/svg" width="1285" height="1450">
<path style="fill:#010101; stroke:none;" d="M0 0L0 1450L1285 1450L1285 0L0 0z"/>
<path style="fill:#ffffff; stroke:none;" d="M1029 1011C1041.39 1020.72 1028.14 1029.08 1017 1026.55C1009.03 1024.74 1000.63 1013.79 997 1007L980 1009.73L963 1013C963.127 1018.29 965.931 1021.98 966.775 1027C967.765 1032.88 966.016 1038.85 970.303 1043.83C973.994 1048.11 982.612 1049.14 984.802 1054.06C987.117 1059.26 986.049 1068.2 987.015 1074C988.722 1084.24 992.467 1097.05 995.904 1107C999.059 1116.14 1008.97 1121.05 1012.28 1130C1014.9 1137.1 1011.03 1142.41 1011.85 1149C1012.46 1153.92 1016.21 1158.02 1016.75 1163C1017.17 1166.9 1014.54 1172.02 1017.6 1175.3C1021.12 1179.07 1033.05 1183.43 1038 1181.99C1042.65 1180.64 1046.98 1176.35 1051.99 1176.36C1057.14 1176.38 1059.56 1182.94 1064.01 1184.91C1069.22 1187.21 1074.69 1184.15 1080 1185.97C1097.39 1191.93 1087.36 1203.36 1089.56 1216C1090.8 1223.15 1107.03 1232.21 1114 1232.99C1124.69 1234.19 1127.67 1219.31 1137 1219C1133.92 1204.74 1114.92 1218.35 1108 1220.28C1104.49 1221.26 1100.61 1221.54 1097 1222C1104.94 1214.41 1116.39 1207.99 1125.83 1202.44C1128.14 1201.09 1131.44 1202.82 1133.3 1201.19C1136.41 1198.46 1133.25 1190.81 1140.05 1190.18C1143.72 1189.84 1144.6 1194.45 1147.27 1195.93C1149.55 1197.2 1152.57 1196.3 1155 1196C1157.35 1180.94 1145.75 1176.44 1134 1181C1133.88 1166.36 1125.6 1142.58 1143.71 1134.95C1148.85 1132.79 1153.59 1138.17 1160 1135L1163 1115L1171 1131C1174.3 1125.02 1174.12 1114.71 1166.95 1111.37C1161.58 1108.86 1154.7 1111.17 1152.53 1103.98C1147.77 1088.27 1182.28 1082.12 1192 1084L1191 1080C1198.32 1078.58 1201.39 1080.62 1203 1088C1209.25 1084.06 1214.91 1076.76 1214 1069L1205 1076L1204 1076L1194 1056C1187.44 1057.27 1177.98 1058.62 1172.56 1053.3C1165.99 1046.84 1169.54 1039.91 1158 1036.64C1153.87 1035.46 1140.54 1032.15 1137.04 1033.43C1130.48 1035.82 1128.65 1045.87 1120.04 1043.96C1114.82 1042.8 1113.24 1035.82 1110.36 1032.09C1106.76 1027.41 1099.78 1024.66 1097.6 1018.99C1095.86 1014.42 1097.54 1008.45 1094.26 1004.39C1088.3 997.028 1074.53 1001.24 1067.32 994.363C1064.34 991.52 1064.38 985.789 1063 982C1050.64 985.56 1032.16 997.976 1029 1011z"/>
</svg>
