<?xml version="1.0" standalone="yes"?>
<svg xmlns="http://www.w3.org/2000/svg" width="1285" height="1450">
<path style="fill:#010101; stroke:none;" d="M0 0L0 1450L1285 1450L1285 0L0 0z"/>
<path style="fill:#ffffff; stroke:none;" d="M693 487C689.13 496.294 682.234 498.452 677.133 506.043C673.978 510.74 674.017 516.99 668.956 520.397C665.497 522.725 660.898 521.775 657 522.76C644.301 525.968 641.123 534.265 641.43 547C641.765 560.922 660.604 552.804 667.363 560.279C670.062 563.264 676.197 572.409 675.374 576.576C674.393 581.545 668.022 584.045 669.337 589.91C670.282 594.125 675.42 596.462 677.647 600.039C684.054 610.327 689.41 627.537 682.676 637.985C679.019 643.658 672.65 645.793 667 649C652.112 657.451 634.109 665.715 618 671.23C614.838 672.312 612.148 670.501 609 670.513C602.418 670.538 597.48 676.063 594 681L593 681C587.566 672.312 576.467 662.165 565 664.735C561.351 665.552 558.871 669.46 555 669.445C550.753 669.429 545.87 665.611 542 664C538.639 670.315 536.459 677.946 532.86 683.895C528.902 690.439 520.277 688.466 515.699 693.433C508.838 700.877 511.085 712.249 508.034 721C506.675 724.898 503.483 728.653 505.052 732.981C506.66 737.416 510.827 738.423 515 739C516.033 763.057 537.174 753.433 551 763L551 764C547.485 766.686 543.357 775.509 549.434 778.382C553.064 780.098 557.084 776.873 560.621 779.607C566.165 783.893 566.71 791.285 574.004 793.892C578.716 795.576 586.812 794.708 590.357 798.703C593.682 802.45 590.201 813.326 590 818C576.199 817.991 562.765 816.304 549 819.044C541.45 820.547 536.193 825.158 528 825.471C519.204 825.808 510.033 817.532 501 821.1C485.67 827.156 482.474 841.46 471.787 851.485C465.881 857.025 459.496 858.153 452 860C454.654 881.002 455.98 907.721 448.397 928C444.87 937.433 437.05 941.117 435 952L455 948L463 961L454 966L455 972L462 977C466.506 976.054 469.608 975.101 472 971L483.892 975.804L489.934 985.57L503 993L508 985L509 985C515.401 999.008 502.97 1012.17 500 1025L495 1023L498 1012L496 1011L495 1011L491 1028C494.836 1029.55 499.845 1033.35 504 1033.11C516.287 1032.42 522.067 1007.96 530.089 1000.06C536.206 994.032 542.962 992.333 548.613 985C555.387 976.211 558.818 963.441 565.703 955.394C571.303 948.848 581.611 951.556 587.695 946.486C593.246 941.861 592.734 934.291 594.785 928C596.342 923.228 599.789 919.445 602 915L603 915C603.04 928.879 616.072 933.258 618.667 945C620.616 953.822 610.426 966.515 608 975C620.166 982.696 610.543 989.195 615.067 998.996C621.346 1012.6 645.206 1016.64 657 1010L663 1028C671.43 1027.83 680.001 1025.9 687.907 1030.3C701.119 1037.67 704.283 1061.5 693 1071L693 1072C704.539 1081.76 715.778 1069.64 727.996 1072.87C737.837 1075.47 743.128 1088.82 754 1091.7C760.722 1093.49 770.7 1085.54 778 1085.04C784.069 1084.61 786.268 1092.1 792 1092.07C795.23 1092.06 806.781 1089.77 809.363 1087.97C814.063 1084.7 815.132 1079.59 821 1077C818.817 1072.15 815.83 1070.03 811 1068C812.35 1063.78 814.855 1058.49 814.425 1054C813.664 1046.05 809.495 1041.63 815.789 1034.15C819.39 1029.87 825.116 1030.83 830 1029.37C835.991 1027.57 843.85 1023.11 848.61 1019.05C855.339 1013.3 855.17 1002.21 863.043 997.363C872.989 991.237 894.305 999.529 886 979L905.184 964.028L924 963C924.68 954.464 930.034 953.519 932.968 946.79C934.975 942.19 934.276 936.701 936.032 932C938.878 924.379 949.778 915.519 957.999 914.449C966.546 913.337 970.597 923.785 981 919.362C996.512 912.766 1006.79 892.694 1014.41 879C1016.79 874.733 1020.9 871.733 1022.47 867C1027.14 852.838 1016.88 852.875 1009.51 844.61C1005.98 840.643 1007.14 834.406 1003.2 830.563C996.25 823.793 988.813 823.491 983.069 814C973.173 797.651 982.784 786.374 985 770L993 774L991 732C980.893 733.802 974.673 740.903 966 745.097C961.684 747.185 955.761 744.392 951.039 745.148C947.563 745.705 945.479 748.872 941.985 749.258C933.808 750.16 922.274 745.63 916.015 740.61C911.08 736.651 908.552 731.551 902 730.019C890.015 727.218 871.195 725.666 859 727.228C849.497 728.444 845.251 732.931 835 731C830.741 740.106 825.236 745.266 819.001 753C816.497 756.106 813.755 761.126 809.911 762.686C805.529 764.463 800.662 761.544 796 763.356C786.091 767.206 777.338 773.616 770 763C781.26 760.537 782.429 749.446 778.03 740.018C773.62 730.567 757.579 735.093 753.604 725.787C750.824 719.277 759.826 712.149 761.572 706C763.758 698.301 762.365 690.199 764.103 683C765.11 678.827 769.17 676.397 769.852 672C770.866 665.461 769.284 659.555 771 653L790 658C795.385 645.487 795.51 635.044 796.104 622C796.31 617.483 798.771 612.484 797.092 608.043C795.536 603.928 790.946 601.874 788.824 597.985C784.907 590.806 782.936 583.579 775.999 578.43C768.109 572.573 753.164 575.625 746.966 567.772C741.667 561.059 745.237 554.354 746.536 547C747.741 540.178 746.819 531.213 743.722 525C734.169 505.832 708.869 499.633 693 487z"/>
</svg>
