<?xml version="1.0" standalone="yes"?>
<svg xmlns="http://www.w3.org/2000/svg" width="1285" height="1450">
<path style="fill:#010101; stroke:none;" d="M0 0L0 1450L1285 1450L1285 0L0 0z"/>
<path style="fill:#ffffff; stroke:none;" d="M311 340C304.342 340 295.599 337.429 289.213 339.318C285.247 340.491 283.984 346.03 281.61 348.985C274.545 357.777 264.42 362.322 262 374L290 370C281.717 382.328 271.606 379.639 260 384.796C254.852 387.084 249.668 393.205 244 393.272C238.491 393.338 234.159 390.642 229 389.534C217.843 387.138 195.276 390.446 190 401L201.215 404.693L202 419C208.696 419.079 211.189 421.719 215 427C210.513 427.016 207.488 426.944 205 431C200.681 423.949 196.474 426.64 190.174 422.988C184.99 419.983 183.426 416.837 177 416L176 426C186.044 426.794 195.196 430.616 201.363 439.015C204.18 442.852 205.562 450.373 210.213 452.397C225.571 459.078 240.568 448.525 254 444.627C258.105 443.435 261.946 446.497 266 446.895C273.267 447.608 280.98 446.699 287.996 444.745C294.835 442.841 297.394 432.99 303.615 431.73C306.622 431.121 308.883 434.812 311.91 434.694C320.166 434.373 323.762 421.202 323 415C335.503 415 345.826 420.941 358 420.921C369.638 420.903 384.53 416.399 390.683 405.787C396.903 395.059 398.694 376.242 401 364C388.846 363.999 384.95 356.107 393.044 346C398.236 339.517 406.836 337.287 411.397 331.697C416.669 325.235 417.626 309.782 409.482 305.067C406.187 303.16 401.576 305.657 398 305.323C392.34 304.795 386.411 298.637 380.43 301.603C377.057 303.276 372.38 314.519 373.516 318C374.653 321.485 378.965 324.751 378.067 328.787C377.129 333.005 367.75 336.256 364 336.783C350.016 338.75 343.095 328.496 331 325.739C319.75 323.175 312.286 329.879 311 340z"/>
</svg>
