<?xml version="1.0" standalone="yes"?>
<svg xmlns="http://www.w3.org/2000/svg" width="1285" height="1450">
<path style="fill:#010101; stroke:none;" d="M0 0L0 1450L1285 1450L1285 0L0 0z"/>
<path style="fill:#ffffff; stroke:none;" d="M246 654C241.855 655.837 235.813 656.51 232.418 659.563C222.912 668.111 228.757 676.448 229.146 686C229.373 691.585 226.744 697.474 226 703C222.046 703.312 211.579 703.312 209.067 706.742C206.76 709.891 209.482 718.345 209.83 722C211.042 734.729 211.819 760.939 229 761L225 781C228.331 784.225 227.763 788.101 229.988 791.911C234.073 798.903 240.728 799.322 236 808L247.883 819.001L249.032 828.363L257.582 834.39L275 853C283.779 837.888 288.497 815.174 278.683 800.43C273.533 792.694 255.047 796.209 259.322 780.108C264.271 761.467 292.315 791.366 297 774C286.407 769.596 274.758 765.666 273.854 752C273.46 746.033 277.89 741.006 275.633 735C274.332 731.536 272.361 726.635 268.787 725.029C262.901 722.383 251.981 722.936 249.144 715.892C240.87 695.343 254.409 674.039 246 654z"/>
</svg>
