<?xml version="1.0" standalone="yes"?>
<svg xmlns="http://www.w3.org/2000/svg" width="1285" height="1450">
<path style="fill:#010101; stroke:none;" d="M0 0L0 1450L1285 1450L1285 0L0 0z"/>
<path style="fill:#ffffff; stroke:none;" d="M667 1145C657.402 1145 645.654 1138.95 637 1142.82C630.559 1145.7 619.419 1155.46 618.758 1163C618.296 1168.29 623.278 1172.57 621.258 1178C617.468 1188.2 610.732 1194.19 604.988 1202.52C602.613 1205.96 602.553 1211.16 600.738 1215C597.681 1221.47 593.377 1225.57 589 1231C596.318 1233.48 601.063 1231.69 608 1229L610 1234L623 1231L623 1242C630.452 1242.01 633.934 1243.52 638 1250L646 1248L652 1260L648 1262L648 1263C659.706 1271.38 672.894 1270.64 686 1273.47C690.954 1274.54 694.737 1277.81 700 1278.57C705.864 1279.42 712.402 1278.53 718 1280.85C721.786 1282.43 724.416 1285.79 728 1287.7C731.305 1289.46 735.701 1289.12 738.606 1291.59C742.702 1295.08 740.547 1301.19 746 1303L747 1292L763.004 1289.9L786 1298C789.203 1290.22 800.761 1278.03 795.883 1268.3C793.13 1262.81 782.943 1261.14 781.681 1254.91C780.946 1251.29 785.181 1248.65 786.69 1245.83C788.732 1242.02 790 1235.29 789.585 1231C788.746 1222.31 782.586 1213.05 784.897 1204C785.626 1201.14 788.027 1190.62 789.693 1188.73C796.35 1181.15 813.889 1194.51 822.697 1188.82C827.045 1186.01 825.804 1178.38 827.129 1174C827.95 1171.29 830.341 1168.16 829.339 1165.21C828.055 1161.44 822.545 1160.35 820.414 1156.9C814.017 1146.52 811.321 1135.19 804 1125C797.302 1126.58 792.305 1124.81 786 1125.63C782.762 1126.06 779.436 1128.72 776.17 1127.07C770.369 1124.13 768.822 1114.06 762.787 1112.32C757.732 1110.86 753.649 1114.28 749 1115.27C743.321 1116.49 734.849 1115.38 729 1114.91C723.334 1114.45 718.517 1111.29 713 1110.33C708.053 1109.47 702.938 1110.61 698 1109.78C694.457 1109.18 690.896 1105.78 687.228 1106.43C682.825 1107.2 683.421 1114.67 681.146 1117.61C678.463 1121.07 673.511 1121.51 670.564 1124.64C666.602 1128.84 667.114 1139.5 667 1145z"/>
</svg>
