<?xml version="1.0" standalone="yes"?>
<svg xmlns="http://www.w3.org/2000/svg" width="1285" height="1450">
<path style="fill:#010101; stroke:none;" d="M0 0L0 1450L1285 1450L1285 0L0 0z"/>
<path style="fill:#ffffff; stroke:none;" d="M656 1011C647.56 1015.76 648.58 1019.92 642.571 1027C639.1 1031.09 633.908 1034.74 632.228 1040C630.397 1045.74 634.081 1057.16 628.851 1060.63C624.483 1063.52 604.738 1063.43 600 1061.34C594.637 1058.98 590.945 1054.61 585 1053.29C577.645 1051.65 569.597 1054.12 563 1050.38C557.791 1047.43 553.691 1037.55 548.787 1036.36C538.959 1033.96 533.188 1046.23 524 1045.85C515.647 1045.5 515.311 1037.2 513 1031L484 1029L485 1036L476 1034L473 1042L472 1042L459.852 1023.6L439 1023L445 1030L443 1038L449 1040C446.688 1047.87 436.521 1048.91 435.423 1056C434.187 1063.99 443.239 1069.84 449 1073.13C463.678 1081.5 488.686 1078.16 498 1093C512.266 1092.9 505.839 1105.61 507 1115L511 1114L503 1132L509 1135C507.771 1139.19 504.394 1142.28 503.314 1146.21C499.381 1160.52 508.151 1173.21 522 1175C522.434 1185.12 527.727 1192.59 538 1186C540.18 1196.52 556.152 1210.81 568 1209.01C571.611 1208.46 574.572 1204.42 577 1202C576.727 1208.36 576.191 1213.19 570 1216C572.01 1227.87 575.162 1229.51 586 1225L587 1230C598.867 1224.97 598.719 1214.14 603.514 1204.09C605.177 1200.61 608.894 1199.3 611.301 1196.48C614.85 1192.33 619.078 1183.17 620.821 1178C622.636 1172.62 617.57 1168.23 618.256 1163C619.288 1155.14 631.203 1144.85 638 1141.82C645.546 1138.45 657.354 1144 666 1144L668.988 1125.39L679.57 1118.36L684 1105L730 1113.99L749 1114.57L762.895 1111.61L776 1128L803 1124C802.137 1119.82 799.1 1113.34 801.357 1109.28C803.94 1104.63 813.528 1104.92 817.957 1102.47C823.926 1099.16 827.852 1089.44 829 1083L822 1077C815.488 1079.74 814.59 1084.39 809.61 1088.4C807.031 1090.47 795.348 1092.71 792 1092.49C786.318 1092.13 784.285 1084.99 778 1085.72C771.356 1086.51 760.601 1093.92 754.576 1092.52C743.797 1090.02 738.55 1076.59 728.961 1073.86C715.017 1069.89 705.908 1081.35 692 1072L692 1071C703.78 1063.38 700.212 1038.45 688.671 1031.3C680.617 1026.31 670.716 1028.82 662 1029C661.859 1022.19 660.982 1015.96 656 1011z"/>
</svg>
