<?xml version="1.0" standalone="yes"?>
<svg xmlns="http://www.w3.org/2000/svg" width="1285" height="1450">
<path style="fill:#010101; stroke:none;" d="M0 0L0 1450L1285 1450L1285 0L0 0z"/>
<path style="fill:#ffffff; stroke:none;" d="M247 610C232.791 615.362 218.088 625.035 208.857 637.514C206.603 640.562 207.267 644.687 205.142 647.816C201.919 652.561 189.106 663.617 183.985 665.883C179.327 667.943 171.959 665.213 167 665L167 653C159.653 656.654 147.85 659.296 149 669L139 671L141 680L119 686L120 693L129 690L133 705L137 703C138.715 709.459 139.848 725.431 129.999 726.535C125.276 727.064 119.78 718.481 115.013 723.604C111.294 727.601 115.57 732.684 115.824 737C116.225 743.814 111.431 749.512 112 757C123.047 749.792 125.117 735.799 137 730.263C148.294 725.001 167.359 727.206 180 725.714C184.367 725.199 192.296 725.917 194.958 721.606C197.122 718.099 195 710.128 195 706C201.701 705.862 220.469 706.136 224.86 700.486C231.514 691.925 225.481 683.502 225.247 675C225.134 670.893 228.003 665.591 229.904 662.044C233.786 654.802 243.324 657.482 247.991 651.581C254.078 643.884 246.464 634.82 246.151 627C245.892 620.532 250.508 616.599 247 610z"/>
</svg>
