<?xml version="1.0" standalone="yes"?>
<svg xmlns="http://www.w3.org/2000/svg" width="1285" height="1450">
<path style="fill:#010101; stroke:none;" d="M0 0L0 1450L1285 1450L1285 0L0 0z"/>
<path style="fill:#ffffff; stroke:none;" d="M601 918C594.58 926.445 595.961 938.353 588.695 945.867C582.97 951.787 573.488 949.435 567.279 954.699C560.328 960.592 555.919 975.2 550.363 983C538.761 999.29 516.922 1005.89 513.85 1029C513.047 1035.04 517.335 1044.83 524.001 1045.27C533.091 1045.87 539.538 1032.6 548.895 1035.69C554.2 1037.45 556.601 1046.28 562.004 1049.38C568.817 1053.29 576.496 1050.62 584 1052.29C590.571 1053.75 594.739 1059.54 601 1061.21C605.192 1062.32 609.693 1060.07 614 1060.46C618.579 1060.89 624.636 1063.2 628.681 1059.99C632.897 1056.65 629.595 1046.12 631.228 1041C633.79 1032.97 644.087 1029.19 646.306 1021C649.3 1009.95 634.844 1013.64 630 1012.06C624.949 1010.42 618.398 1004.26 615.357 999.996C608.955 991.029 620.286 981.693 607 975C610.45 966.59 619.963 953.292 617.681 944C615.642 935.694 605.076 926.211 601 918z"/>
</svg>
