<?xml version="1.0" standalone="yes"?>
<svg xmlns="http://www.w3.org/2000/svg" width="1285" height="1450">
<path style="fill:#010101; stroke:none;" d="M0 0L0 1450L1285 1450L1285 0L0 0z"/>
<path style="fill:#ffffff; stroke:none;" d="M317 661C309.585 660.999 306.937 656.566 300.816 655.488C290.596 653.687 279.471 653.271 269 651.589C264.748 650.906 254.415 647.567 250.653 650.067C242.77 655.306 250.64 674.61 249.125 682C247.065 692.051 241.573 710.911 252.303 718.775C257.787 722.795 266.751 721.321 271.363 726.303C274.263 729.437 277.411 735.67 277.038 740C276.684 744.108 272.395 750.622 275.757 754.272C279.282 758.099 289.13 758.253 294 759.081C301.541 760.364 309.652 759.802 317 761.39C325.884 763.311 333.68 767.219 343 768.394C361.128 770.68 365.329 748.025 379 741.8C383.845 739.594 389.344 742.331 393.715 739.972C400.677 736.214 405.856 729.066 413 725.264C418.039 722.582 423.891 723.804 428.961 721.486C433.385 719.463 435.357 714.331 440.001 712.603C446.103 710.333 453.644 711.659 460 710.536C476.724 707.581 492.236 702.54 509 706L516.394 691.857L531.272 685.362L542 663C545.809 665.223 552.401 670.184 557 668.799C560.693 667.686 562.895 664.126 567 663.918C578.35 663.343 586.47 671.982 593 680L594 680C597.85 676.152 602.157 670.438 608 669.897C611.484 669.575 614.521 671.925 618 670.809C622.872 669.248 627.126 665.53 632 663.684C648.793 657.324 676.875 650.408 685.081 633C688.554 625.632 681.065 605.809 676.647 599.174C674.575 596.061 670.695 594.262 669.047 590.91C666.538 585.805 672.57 582.172 674.273 578C675.713 574.472 673.258 570.987 671.576 568C669.813 564.87 668.208 560.52 664.787 558.879C658.704 555.961 650.411 559.118 645.174 554.682C637.623 548.285 641.94 537.381 643 529C629.71 529.12 620.108 541.328 607 543.066C596.241 544.492 590.699 531.073 581 532.487C572.623 533.708 565.227 540.556 558 544.561C551.196 548.332 542.782 547.627 536.174 551.314C528.4 555.651 522.431 564.488 514.895 568.351C505.803 573.012 496.493 568.987 487 570.185C480.543 571 476.124 576.087 470 577.582C457.575 580.615 442.591 577.323 430 577.015C420.113 576.772 410.789 579.746 401 579.985C391.902 580.208 381.429 578.249 373 582.263C360.903 588.024 349.668 599.978 346.892 613C345.033 621.719 348.718 627.893 342.363 635.895C336.63 643.113 324.21 642.071 319.148 648.318C316.351 651.77 317 656.86 317 661z"/>
</svg>
