<svg version="1.1" id="Layer_1" xmlns="http://www.w3.org/2000/svg" xmlns:xlink="http://www.w3.org/1999/xlink" x="0px" y="0px"
	 width="100%" viewBox="0 0 1450 800" enable-background="new 0 0 1450 800" xml:space="preserve">
							<path fill="#000000" opacity="1.000000" stroke="none" d="M955.000000,801.000000 C636.701904,801.000000 318.903839,801.000000 1.052883,801.000000 C1.052883,534.398193 1.052883,267.796356 1.052883,1.097253 C484.214874,1.097253 967.429749,1.097253 1450.822266,1.097253 C1450.822266,267.666565 1450.822266,534.333252 1450.822266,801.000000 C1285.796021,801.000000 1120.648071,801.000000 955.000000,801.000000 M124.263977,267.967712 C132.337234,267.023163 140.406204,266.038147 148.489014,265.184052 C149.523346,265.074738 150.636444,265.621399 151.700821,265.909271 C152.933258,266.242706 154.453125,267.283234 155.328705,266.882294 C161.552322,264.032318 165.775681,267.646698 170.439133,270.814087 C175.903183,274.525208 181.730286,277.701782 187.069138,280.911346 C190.333405,278.686157 193.988617,275.858978 197.956848,273.575836 C202.732407,270.828186 207.565750,273.476013 207.943878,278.953339 C208.218674,282.933807 208.323975,286.988708 207.837982,290.928131 C207.643372,292.505463 205.799210,294.008484 204.456314,295.282227 C202.777100,296.874939 200.727951,298.077911 199.050674,299.672302 C197.686234,300.969360 196.634338,302.595184 195.443848,304.075195 C195.233536,303.878845 195.023239,303.682465 194.812943,303.486084 C193.547592,306.000702 192.282242,308.515289 190.939697,311.183289 C189.823334,310.336365 189.080597,309.772888 189.076294,309.769623 C186.446350,311.539703 184.153946,313.094940 181.845917,314.626617 C181.324844,314.972443 180.240555,315.315002 180.273300,315.525909 C181.035660,320.437073 177.520386,321.988892 173.991653,323.187561 C175.087097,326.294434 176.049301,329.001282 176.996033,331.713531 C178.552750,336.173370 178.902634,341.855194 181.922623,344.821259 C186.809586,349.621033 186.191437,354.591248 185.596878,360.035706 C192.310440,363.794098 193.555801,363.870667 201.243286,360.899292 C200.546600,359.432953 199.631653,358.048248 199.221909,356.527405 C198.468521,353.731110 199.105026,351.568756 201.979706,349.940674 C204.861008,348.308899 208.325409,346.499420 209.776321,343.816986 C212.292740,339.164642 215.155045,338.435669 219.632172,340.199280 C223.185135,341.598877 225.190323,340.417877 226.137360,336.439514 C226.799713,333.656982 228.674225,331.162994 230.364563,327.837341 C232.411179,330.048950 233.589645,331.322388 234.780258,332.608978 C238.491562,330.573029 241.449310,330.723694 243.861252,335.079529 C244.685318,336.567749 247.286255,337.119568 249.131516,337.978546 C250.411530,338.574402 251.890366,338.784637 253.101456,339.479126 C256.678894,341.530670 259.653748,340.887665 261.284271,337.074554 C262.473938,334.292389 263.061737,331.242920 263.780426,328.279297 C263.897888,327.794861 263.411377,326.725189 263.021881,326.623535 C258.461548,325.433105 257.278290,322.285095 256.063293,317.930145 C254.549072,312.502563 254.043991,311.934753 261.019989,309.893982 C260.067505,305.444183 258.925842,300.939178 258.212646,296.367340 C257.930725,294.560089 257.905731,291.917480 258.966797,290.841003 C262.545807,287.210083 265.184113,283.541565 265.574158,278.125977 C265.735016,275.892334 268.193665,273.790741 269.703613,271.698669 C270.844025,270.118622 272.397003,268.790405 273.315308,267.104431 C276.280396,261.660645 281.132721,259.195374 286.920563,259.092987 C293.657196,258.973846 300.405029,259.814087 307.153839,259.949829 C311.974396,260.046814 316.988770,253.825012 314.708923,249.575134 C312.427246,245.321838 313.735168,242.035934 315.334412,237.449112 C310.062958,237.755081 305.556671,238.016647 300.583588,238.305298 C295.563934,225.714172 284.230225,215.104477 285.963806,200.045532 C282.448700,198.575333 279.469635,196.526230 276.287720,196.137497 C262.515717,194.454971 251.160278,189.119141 243.915604,176.706680 C243.534210,176.053223 242.870117,175.386368 242.184006,175.116821 C235.474716,172.481033 230.436432,174.197510 225.892609,180.569534 C223.721359,183.614380 217.079651,185.787949 213.482162,184.856003 C210.899521,184.186966 208.226303,183.867599 205.598572,183.393158 C204.501541,189.269119 204.080048,189.552902 197.788742,190.223251 C195.616028,193.767258 193.773941,196.424683 192.336548,199.285461 C191.751968,200.448929 191.404694,202.735275 192.050049,203.344086 C195.315475,206.424622 194.402451,209.685257 192.672699,212.740860 C187.994370,221.005005 181.186417,226.868073 171.241928,230.170425 C172.553925,231.398727 173.574142,232.353867 173.690643,232.462936 C178.725372,229.756760 182.900421,227.512680 188.268173,224.627518 C187.510300,232.549637 183.779999,236.910736 178.969574,239.843414 C175.270355,242.098648 170.676254,242.966965 166.396530,244.149612 C164.656387,244.630463 162.466553,244.818863 160.935364,244.130432 C160.221802,243.809616 160.589783,241.083191 160.432114,238.973267 C151.524612,242.341904 155.995255,232.019699 152.309296,229.749329 C150.138763,232.039963 148.382309,235.472412 146.590897,235.490753 C141.020767,235.547729 141.312454,239.443375 140.819046,242.489227 C137.224014,244.089539 132.315903,242.153854 130.760696,247.447144 C132.682724,248.086578 134.033829,248.876816 135.410614,248.924362 C138.433929,249.028809 141.026779,250.389191 140.752960,253.220459 C140.554169,255.276123 138.432388,257.700928 136.507446,258.905426 C133.565689,260.746216 130.048859,261.663544 126.786194,262.997498 C124.565674,263.905365 121.966690,264.591217 124.263977,267.967712 z"/>
							<path fill="#FFFFFF" opacity="1.000000" stroke="none" d="M123.857574,267.977966 C121.966690,264.591217 124.565674,263.905365 126.786194,262.997498 C130.048859,261.663544 133.565689,260.746216 136.507446,258.905426 C138.432388,257.700928 140.554169,255.276123 140.752960,253.220459 C141.026779,250.389191 138.433929,249.028809 135.410614,248.924362 C134.033829,248.876816 132.682724,248.086578 130.760696,247.447144 C132.315903,242.153854 137.224014,244.089539 140.819046,242.489227 C141.312454,239.443375 141.020767,235.547729 146.590897,235.490753 C148.382309,235.472412 150.138763,232.039963 152.309296,229.749329 C155.995255,232.019699 151.524612,242.341904 160.432114,238.973267 C160.589783,241.083191 160.221802,243.809616 160.935364,244.130432 C162.466553,244.818863 164.656387,244.630463 166.396530,244.149612 C170.676254,242.966965 175.270355,242.098648 178.969574,239.843414 C183.779999,236.910736 187.510300,232.549637 188.268173,224.627518 C182.900421,227.512680 178.725372,229.756760 173.690643,232.462936 C173.574142,232.353867 172.553925,231.398727 171.241928,230.170425 C181.186417,226.868073 187.994370,221.005005 192.672699,212.740860 C194.402451,209.685257 195.315475,206.424622 192.050049,203.344086 C191.404694,202.735275 191.751968,200.448929 192.336548,199.285461 C193.773941,196.424683 195.616028,193.767258 197.788742,190.223251 C204.080048,189.552902 204.501541,189.269119 205.598572,183.393158 C208.226303,183.867599 210.899521,184.186966 213.482162,184.856003 C217.079651,185.787949 223.721359,183.614380 225.892609,180.569534 C230.436432,174.197510 235.474716,172.481033 242.184006,175.116821 C242.870117,175.386368 243.534210,176.053223 243.915604,176.706680 C251.160278,189.119141 262.515717,194.454971 276.287720,196.137497 C279.469635,196.526230 282.448700,198.575333 285.963806,200.045532 C284.230225,215.104477 295.563934,225.714172 300.583588,238.305298 C305.556671,238.016647 310.062958,237.755081 315.334412,237.449112 C313.735168,242.035934 312.427246,245.321838 314.708923,249.575134 C316.988770,253.825012 311.974396,260.046814 307.153839,259.949829 C300.405029,259.814087 293.657196,258.973846 286.920563,259.092987 C281.132721,259.195374 276.280396,261.660645 273.315308,267.104431 C272.397003,268.790405 270.844025,270.118622 269.703613,271.698669 C268.193665,273.790741 265.735016,275.892334 265.574158,278.125977 C265.184113,283.541565 262.545807,287.210083 258.966797,290.841003 C257.905731,291.917480 257.930725,294.560089 258.212646,296.367340 C258.925842,300.939178 260.067505,305.444183 261.019989,309.893982 C254.043991,311.934753 254.549072,312.502563 256.063293,317.930145 C257.278290,322.285095 258.461548,325.433105 263.021881,326.623535 C263.411377,326.725189 263.897888,327.794861 263.780426,328.279297 C263.061737,331.242920 262.473938,334.292389 261.284271,337.074554 C259.653748,340.887665 256.678894,341.530670 253.101456,339.479126 C251.890366,338.784637 250.411530,338.574402 249.131516,337.978546 C247.286255,337.119568 244.685318,336.567749 243.861252,335.079529 C241.449310,330.723694 238.491562,330.573029 234.780258,332.608978 C233.589645,331.322388 232.411179,330.048950 230.364563,327.837341 C228.674225,331.162994 226.799713,333.656982 226.137360,336.439514 C225.190323,340.417877 223.185135,341.598877 219.632172,340.199280 C215.155045,338.435669 212.292740,339.164642 209.776321,343.816986 C208.325409,346.499420 204.861008,348.308899 201.979706,349.940674 C199.105026,351.568756 198.468521,353.731110 199.221909,356.527405 C199.631653,358.048248 200.546600,359.432953 201.243286,360.899292 C193.555801,363.870667 192.310440,363.794098 185.596878,360.035706 C186.191437,354.591248 186.809586,349.621033 181.922623,344.821259 C178.902634,341.855194 178.552750,336.173370 176.996033,331.713531 C176.049301,329.001282 175.087097,326.294434 173.991653,323.187561 C177.520386,321.988892 181.035660,320.437073 180.273300,315.525909 C180.240555,315.315002 181.324844,314.972443 181.845917,314.626617 C184.153946,313.094940 186.446350,311.539703 189.076294,309.769623 C189.080597,309.772888 189.823334,310.336365 190.939697,311.183289 C192.282242,308.515289 193.547592,306.000702 194.812943,303.486084 C195.023239,303.682465 195.233536,303.878845 195.443848,304.075195 C196.634338,302.595184 197.686234,300.969360 199.050674,299.672302 C200.727951,298.077911 202.777100,296.874939 204.456314,295.282227 C205.799210,294.008484 207.643372,292.505463 207.837982,290.928131 C208.323975,286.988708 208.218674,282.933807 207.943878,278.953339 C207.565750,273.476013 202.732407,270.828186 197.956848,273.575836 C193.988617,275.858978 190.333405,278.686157 187.069138,280.911346 C181.730286,277.701782 175.903183,274.525208 170.439133,270.814087 C165.775681,267.646698 161.552322,264.032318 155.328705,266.882294 C154.453125,267.283234 152.933258,266.242706 151.700821,265.909271 C150.636444,265.621399 149.523346,265.074738 148.489014,265.184052 C140.406204,266.038147 132.337234,267.023163 123.857574,267.977966 z"/>
</svg>