<?xml version="1.0" standalone="yes"?>
<svg xmlns="http://www.w3.org/2000/svg" width="1450" height="800">
                        <path onclick = "Mie()" class = "Mie" style = "fill:#010101; stroke:none;" d="M0 0L0 800L1450 800L1450 0L1286 0L1242 0C1237.63 0 1229.37 -1.57941 1225.64 1.02777C1214.92 8.51514 1224.7 24.7883 1222 35C1235.46 33.4104 1245.94 43.1397 1257 49.9391C1261.27 52.5664 1266.58 54.4733 1269 59L1270 59L1271 57L1272 60L1273 60L1273 57C1275.99 60.353 1278.97 70.4164 1284 67L1285 67C1288.04 72.5493 1287.23 76.029 1286 82C1281.05 80.9391 1278.11 81.785 1277 87L1281 87L1283 104C1276.43 104.856 1267.43 112.04 1263 104C1267.85 103.96 1274.15 104.268 1276 99C1264.31 98.8943 1260.45 96.0679 1249 101L1252 89C1237.97 90.0583 1244.53 109.805 1227 103L1226 108L1218 105C1216.45 118.821 1191.52 115.637 1183.23 124.214C1177.88 129.741 1185.53 137.399 1180.69 141.454C1177.32 144.273 1175.77 139.378 1175 137L1166 145C1175.19 150.649 1178.37 155.371 1175 166L1167 162C1168.32 176.425 1156.75 175.252 1148.81 184.108C1140.59 193.267 1137.84 203.465 1135 215C1130.87 213.024 1128.13 213.024 1124 215C1119.72 205.269 1100.97 193.595 1109.65 181.237C1114.56 174.252 1127.08 177.388 1129 168C1136.47 166.753 1131.11 159.657 1136.23 155.696C1139.98 152.792 1146.19 157.504 1148.78 153.551C1153.88 145.778 1149.93 129.944 1151.07 121C1151.63 116.595 1154.35 112.589 1153.73 108C1153.27 104.571 1150.82 101.808 1149 99C1158.09 93.7645 1144.29 85.0202 1147.56 77.0008C1151.68 66.8995 1163.18 72.8987 1168.14 65.8519C1172.24 60.0352 1170.37 49.7776 1162 52C1159.26 41.847 1145.76 48.7508 1142.17 39.892C1140.86 36.6646 1144.21 32.2191 1144.86 29C1146.64 20.3466 1145.29 6.52765 1136.61 1.02777C1132.04 -1.86969 1122.26 0 1117 0L1067 0L880 0L0 0z"/>
                        <path onclick = "Mie()" class = "Mie" style = "fill:#d0d0d0; stroke:none;" d="M1137 0L1138 1L1137 0z"/>
                        <path onclick = "Mie()" class = "Mie" style = "fill:#ffffff; stroke:none;" d="M1138 0C1139.96 7.52087 1146.48 13.6737 1146.27 22C1146.14 27.0824 1139.63 36.3019 1142.07 40.6064C1146.68 48.7331 1158.39 41.4932 1162 52C1170.01 49.954 1172.27 59.0105 1168.26 64.9413C1164.34 70.7343 1157.39 68.0235 1152.1 71.0239C1141.25 77.1863 1150.73 89.5026 1154 97C1148.33 100.249 1154.04 104.861 1153.67 110C1153.39 113.838 1151.12 117.212 1150.91 121C1150.39 130.375 1153.1 144.207 1148.8 152.836C1146.52 157.415 1140.75 153.112 1137.11 155.043C1132.15 157.678 1133.81 163.495 1134 168C1129.72 168.697 1128.58 171.871 1124.9 173.593C1120.39 175.702 1114.52 176.902 1110.51 180.008C1098.38 189.42 1120.34 206.345 1123 214L1135 215C1138.56 203.297 1140.91 193.603 1149.46 184.058C1157.36 175.248 1169.37 176.779 1167 162L1175 166C1179.23 155.983 1174.97 148.657 1165 145L1176 137C1176.2 139.596 1177.86 144.938 1181.39 141.377C1184.93 137.802 1179.15 132.276 1181.07 128.004C1184.97 119.309 1208.22 112.279 1217 112L1218 104L1225 108L1228 102C1238.38 113.511 1242.88 91.6041 1251 88L1250 100L1262 95.8997L1276 99C1273.28 103.671 1268.03 103.896 1263 104C1265.83 112.526 1277.37 105.276 1283 104L1281 87L1277 87C1278.43 82.2001 1281.27 81.3802 1286 82C1287.63 76.2128 1288.69 72.1313 1285 67L1284 67C1278.35 68.5308 1277.07 60.2125 1273 57L1273 60L1272 60L1269 59C1267.38 54.054 1261.22 52.5215 1257 49.9391C1245.57 42.9506 1236.04 33.5158 1222 35L1220.15 13.9962L1225 0L1138 0z"/>
                        <path onclick = "Mie()" class = "Mie" style = "fill:#e2e2e2; stroke:none;" d="M1224 1L1225 2L1224 1z"/>
                        <path onclick = "Mie()" class = "Mie" style = "fill:#d0d0d0; stroke:none;" d="M1138 2L1139 3L1138 2z"/>
                        <path onclick = "Mie()" class = "Mie" style = "fill:#e2e2e2; stroke:none;" d="M1223 3L1224 4L1223 3M1222 5L1223 6L1222 5z"/>
                        <path onclick = "Mie()" class = "Mie" style = "fill:#d0d0d0; stroke:none;" d="M1140 6L1141 7L1140 6M1141 7L1142 8L1141 7z"/>
                        <path onclick = "Mie()" class = "Mie" style = "fill:#e2e2e2; stroke:none;" d="M1221 7L1222 8L1221 7z"/>
                        <path onclick = "Mie()" class = "Mie" style = "fill:#d0d0d0; stroke:none;" d="M1142 8L1143 9L1142 8M1143 9L1144 10L1143 9z"/>
                        <path onclick = "Mie()" class = "Mie" style = "fill:#e2e2e2; stroke:none;" d="M1220 10L1221 11L1220 10M1144 11L1145 12L1144 11M1144 16L1145 17L1144 16M1220 18L1221 19L1220 18M1221 19L1222 20L1221 19M1146 23L1147 24L1146 23M1145 24L1146 25L1145 24M1144 31L1145 32L1144 31M1222 32L1223 33L1222 32M1225 34L1226 35L1225 34M1228.67 34.3333L1229.33 34.6667L1228.67 34.3333M1234 35L1235 36L1234 35M1141 36L1142 37L1141 36M1237 36L1238 37L1237 36z"/>
                        <path onclick = "Mie()" class = "Mie" style = "fill:#d0d0d0; stroke:none;" d="M1241 40L1242 41L1241 40z"/>
                        <path onclick = "Mie()" class = "Mie" style = "fill:#e2e2e2; stroke:none;" d="M1143 42L1144 43L1143 42z"/>
                        <path onclick = "Mie()" class = "Mie" style = "fill:#d0d0d0; stroke:none;" d="M1145 43L1146 44L1145 43z"/>
                        <path onclick = "Mie()" class = "Mie" style = "fill:#bfe7fd; stroke:none;" d="M1244 43L1245 44L1244 43z"/>
                        <path onclick = "Mie()" class = "Mie" style = "fill:#d0d0d0; stroke:none;" d="M1148 44L1149 45L1148 44z"/>
                        <path onclick = "Mie()" class = "Mie" style = "fill:#bfe7fd; stroke:none;" d="M1247 44L1248 45L1247 44z"/>
                        <path onclick = "Mie()" class = "Mie" style = "fill:#e2e2e2; stroke:none;" d="M1153 45L1153 46L1156 46L1153 45z"/>
                        <path onclick = "Mie()" class = "Mie" style = "fill:#d0d0d0; stroke:none;" d="M1156.67 45.3333L1157.33 45.6667L1156.67 45.3333z"/>
                        <path onclick = "Mie()" class = "Mie" style = "fill:#e2e2e2; stroke:none;" d="M1158 45L1159 46L1158 45z"/>
                        <path onclick = "Mie()" class = "Mie" style = "fill:#bfe7fd; stroke:none;" d="M1249 45L1250 46L1249 45M1251 46L1252 47L1251 46M1253 47L1254 48L1253 47M1254 48L1255 49L1254 48z"/>
                        <path onclick = "Mie()" class = "Mie" style = "fill:#e2e2e2; stroke:none;" d="M1161 49L1162 50L1161 49z"/>
                        <path onclick = "Mie()" class = "Mie" style = "fill:#bfe7fd; stroke:none;" d="M1256 49L1257 50L1256 49z"/>
                        <path onclick = "Mie()" class = "Mie" style = "fill:#e2e2e2; stroke:none;" d="M1165.67 50.3333L1166.33 50.6667L1165.67 50.3333z"/>
                        <path onclick = "Mie()" class = "Mie" style = "fill:#bfe7fd; stroke:none;" d="M1257 50L1258 51L1257 50z"/>
                        <path onclick = "Mie()" class = "Mie" style = "fill:#d0d0d0; stroke:none;" d="M1168 51L1169 52L1168 51z"/>
                        <path onclick = "Mie()" class = "Mie" style = "fill:#bfe7fd; stroke:none;" d="M1259 51L1260 52L1259 51M1261 52L1262 53L1261 52z"/>
                        <path onclick = "Mie()" class = "Mie" style = "fill:#d0d0d0; stroke:none;" d="M1169 53L1170 54L1169 53z"/>
                        <path onclick = "Mie()" class = "Mie" style = "fill:#bfe7fd; stroke:none;" d="M1263 53L1264 54L1263 53z"/>
                        <path onclick = "Mie()" class = "Mie" style = "fill:#e2e2e2; stroke:none;" d="M1270 57L1271 58L1270 57M1271 58L1272 59L1271 58M1169 63L1170 64L1169 63z"/>
                        <path onclick = "Mie()" class = "Mie" style = "fill:#d0d0d0; stroke:none;" d="M1157 69L1158 70L1157 69z"/>
                        <path onclick = "Mie()" class = "Mie" style = "fill:#e2e2e2; stroke:none;" d="M1158 69L1159 70L1158 69z"/>
                        <path onclick = "Mie()" class = "Mie" style = "fill:#d0d0d0; stroke:none;" d="M1148 74L1149 75L1148 74z"/>
                        <path onclick = "Mie()" class = "Mie" style = "fill:#e2e2e2; stroke:none;" d="M1147 76L1148 77L1147 76M1146 78L1147 79L1146 78M1147 82L1148 83L1147 82M1277 83L1278 84L1277 83M1148 85L1149 86L1148 85M1149 88L1150 89L1149 88M1249.67 88.3333L1250.33 88.6667L1249.67 88.3333M1245 90L1246 91L1245 90M1244 91L1245 92L1244 91M1153 94L1154 95L1153 94M1251 95L1252 96L1251 95M1260 95L1260 96L1264 96L1260 95M1153 96L1154 97L1153 96M1266 97L1267 98L1266 97M1150 98L1151 99L1150 98M1250 98L1251 99L1250 98M1254 98L1255 99L1254 98M1149.33 99.6667L1149.67 100.333L1149.33 99.6667M1242 99L1243 100L1242 99M1252 99L1253 100L1252 99M1249.67 100.333L1250.33 100.667L1249.67 100.333M1150 101L1151 102L1150 101M1241 101L1242 102L1241 101M1151 102L1152 103L1151 102M1228 102L1229 103L1228 102M1240 102L1241 103L1240 102M1152 103L1153 104L1152 103M1239 103L1240 104L1239 103M1218 104L1219 105L1218 104M1237 104L1238 105L1237 104z"/>
                        <path onclick = "Mie()" class = "Mie" style = "fill:#d0d0d0; stroke:none;" d="M1153 105L1154 106L1153 105z"/>
                        <path onclick = "Mie()" class = "Mie" style = "fill:#e2e2e2; stroke:none;" d="M1226 105L1227 106L1226 105M1221 106L1222 107L1221 106M1225 107L1226 108L1225 107M1217 109L1218 110L1217 109M1213 112L1213 113L1216 113L1213 112M1208 114L1209 115L1208 114M1206 115L1207 116L1206 115M1152 116L1153 117L1152 116M1202 116L1203 117L1202 116M1199 117L1200 118L1199 117M1195 118L1196 119L1195 118M1150 119L1151 120L1150 119M1191 119L1192 120L1191 119M1151 124L1152 125L1151 124z"/>
                        <path onclick = "Mie()" class = "Mie" style = "fill:#d0d0d0; stroke:none;" d="M1151 125L1152 126L1151 125z"/>
                        <path onclick = "Mie()" class = "Mie" style = "fill:#e2e2e2; stroke:none;" d="M1151 126L1152 127L1151 126M1180 127L1181 128L1180 127z"/>
                        <path onclick = "Mie()" class = "Mie" style = "fill:#d0d0d0; stroke:none;" d="M1150.33 132.667L1150.67 133.333L1150.33 132.667z"/>
                        <path onclick = "Mie()" class = "Mie" style = "fill:#e2e2e2; stroke:none;" d="M1180 132L1181 133L1180 132M1181 134L1182 135L1181 134M1182 136L1183 137L1182 136M1175.33 137.667L1175.67 138.333L1175.33 137.667M1171 138L1172 139L1171 138M1170 139L1171 140L1170 139M1169 140L1170 141L1169 140M1176 142L1177 143L1176 142z"/>
                        <path onclick = "Mie()" class = "Mie" style = "fill:#d0d0d0; stroke:none;" d="M1166 143L1167 144L1166 143z"/>
                        <path onclick = "Mie()" class = "Mie" style = "fill:#e2e2e2; stroke:none;" d="M1178.67 143.333L1179.33 143.667L1178.67 143.333M1165 144L1166 145L1165 144M1168 146L1169 147L1168 146M1170 147L1171 148L1170 147M1173 149L1174 150L1173 149M1174 150L1175 151L1174 150M1175 151L1176 152L1175 151M1139 153L1140 154L1139 153z"/>
                        <path onclick = "Mie()" class = "Mie" style = "fill:#d0d0d0; stroke:none;" d="M1140 153L1141 154L1140 153M1149 153L1150 154L1149 153M1142 154L1143 155L1142 154z"/>
                        <path onclick = "Mie()" class = "Mie" style = "fill:#e2e2e2; stroke:none;" d="M1135 155L1136 156L1135 155z"/>
                        <path onclick = "Mie()" class = "Mie" style = "fill:#d0d0d0; stroke:none;" d="M1144 155L1145 156L1144 155M1147 155L1148 156L1147 155z"/>
                        <path onclick = "Mie()" class = "Mie" style = "fill:#e2e2e2; stroke:none;" d="M1134 156L1135 157L1134 156M1133 158L1134 159L1133 158z"/>
                        <path onclick = "Mie()" class = "Mie" style = "fill:#d0d0d0; stroke:none;" d="M1133 162L1134 163L1133 162z"/>
                        <path onclick = "Mie()" class = "Mie" style = "fill:#e2e2e2; stroke:none;" d="M1171 163L1172 164L1171 163M1133 167L1134 168L1133 167z"/>
                        <path onclick = "Mie()" class = "Mie" style = "fill:#d0d0d0; stroke:none;" d="M1129 168L1130 169L1129 168z"/>
                        <path onclick = "Mie()" class = "Mie" style = "fill:#e2e2e2; stroke:none;" d="M1120 174L1121 175L1120 174z"/>
                        <path onclick = "Mie()" class = "Mie" style = "fill:#d0d0d0; stroke:none;" d="M1124 174L1125 175L1124 174z"/>
                        <path onclick = "Mie()" class = "Mie" style = "fill:#e2e2e2; stroke:none;" d="M1118 175L1119 176L1118 175M1117 176L1118 177L1117 176M1111 178L1112 179L1111 178z"/>
                        <path onclick = "Mie()" class = "Mie" style = "fill:#d0d0d0; stroke:none;" d="M1115 178L1116 179L1115 178z"/>
                        <path onclick = "Mie()" class = "Mie" style = "fill:#e2e2e2; stroke:none;" d="M1158 178L1159 179L1158 178M1152 180L1153 181L1152 180M1108 182L1109 183L1108 182M1149 183L1150 184L1149 183M1108 190L1108 193L1109 193L1108 190M1143 191L1144 192L1143 191z"/>
                        <path onclick = "Mie()" class = "Mie" style = "fill:#d0d0d0; stroke:none;" d="M1108 193L1109 194L1108 193z"/>
                        <path onclick = "Mie()" class = "Mie" style = "fill:#e2e2e2; stroke:none;" d="M1140 196L1141 197L1140 196z"/>
                        <path onclick = "Mie()" class = "Mie" style = "fill:#d0d0d0; stroke:none;" d="M1110 198L1111 199L1110 198z"/>
                        <path onclick = "Mie()" class = "Mie" style = "fill:#e2e2e2; stroke:none;" d="M1139 198L1140 199L1139 198z"/>
                        <path onclick = "Mie()" class = "Mie" style = "fill:#d0d0d0; stroke:none;" d="M1113 199L1114 200L1113 199M1114 200L1115 201L1114 200M1115 202L1116 203L1115 202z"/>
                        <path onclick = "Mie()" class = "Mie" style = "fill:#e2e2e2; stroke:none;" d="M1137 203L1138 204L1137 203M1116 205L1117 206L1116 205M1136 207L1137 208L1136 207M1120 208L1121 209L1120 208M1121 209L1122 210L1121 209M1122 211L1123 212L1122 211M1132 213L1133 214L1132 213M1124 214L1125 215L1124 214z"/>
</svg>
