<?xml version="1.0" standalone="yes"?>
<svg xmlns="http://www.w3.org/2000/svg" width="1450" height="800">
                        <path onclick = "Hiroshima()" class = "Hiroshima" style = "fill:#010101; stroke:none;" d="M0 0L0 800L1450 800L1450 0L684 0L689.037 24L688.728 34.9962L697.745 49L697 74C689.967 71.5289 687.596 75.2331 687 82C672.281 81.8766 662.868 75.3359 648 79.3665C639.822 81.5835 636.09 81.0389 636 91C620.234 91 609.188 91.5349 595 99C590.944 91.6933 586.91 102.014 582 104C581.48 115.4 553.278 117.685 545 117L549 110C545.069 107.382 542.291 104.676 540.939 100C539.875 96.322 540.848 90.926 536.772 89.0286C521.747 82.0361 509.434 89.6385 500.196 101C496.13 106 491.373 109.285 494 116L479 111L474.879 92.456L467.6 83.9105L467.376 67L463.299 55.4676L473.991 43.9854L479.592 22.0008L480.002 13.8195L494 0L0 0z"/>
                        <path onclick = "Hiroshima()" class = "Hiroshima" style = "fill:#ffffff; stroke:none;" d="M494 0L480.07 13.3896L479.863 21.2855L475.652 32L474.413 42.9992L463.423 55.1852L467.52 68L467.318 83.8303L474.991 93.1697L479.514 108.698L489 117L494 116L491 112L491 111C504.634 101.193 508.512 84.7599 528 87.1559C531.276 87.5587 536.037 87.8991 538.397 90.5139C544.166 96.908 539.027 105.403 549 110L545 117C548.89 117.8 551.224 116.052 555 115.679C561.963 114.991 582.43 115.047 582 104C587.414 102.247 590.034 93.4988 595 99C609.944 93.3456 619.771 91 636 91C636.225 81.6993 640.316 81.5079 648 79.5054C651.758 78.526 654.983 76.3537 659 76.3472C668.5 76.332 677.24 81.9731 687 82C687.931 75.2666 690.106 72.6794 697 73L697.606 49L688.963 35L689.228 24L684 0L494 0z"/>
                        <path onclick = "Hiroshima()" class = "Hiroshima" style = "fill:#a3a3a3; stroke:none;" d="M501.667 0.333313L502.333 0.666687L501.667 0.333313z"/>
                        <path onclick = "Hiroshima()" class = "Hiroshima" style = "fill:#c7c7c7; stroke:none;" d="M503 0L504 1L503 0M489 7L490 8L489 7z"/>
                        <path onclick = "Hiroshima()" class = "Hiroshima" style = "fill:#dcdcdc; stroke:none;" d="M485 9L486 10L485 9M483 10L484 11L483 10M481 11L482 12L481 11M684 14L685 15L684 14M478 15L479 16L478 15M480 19L481 20L480 19M687 20L688 21L687 20M688 21L689 22L688 21M689 22L690 23L689 22M479 23L480 24L479 23M478 25L479 26L478 25M477 27L478 28L477 27M476 29L477 30L476 29M687.333 30.6667L687.667 31.3333L687.333 30.6667M475 37L476 38L475 37z"/>
                        <path onclick = "Hiroshima()" class = "Hiroshima" style = "fill:#c7c7c7; stroke:none;" d="M475.333 38.6667L475.667 39.3333L475.333 38.6667z"/>
                        <path onclick = "Hiroshima()" class = "Hiroshima" style = "fill:#dcdcdc; stroke:none;" d="M690 38L691 39L690 38z"/>
                        <path onclick = "Hiroshima()" class = "Hiroshima" style = "fill:#c7c7c7; stroke:none;" d="M691 39L692 40L691 39z"/>
                        <path onclick = "Hiroshima()" class = "Hiroshima" style = "fill:#dcdcdc; stroke:none;" d="M475 40L476 41L475 40M693 41L694 42L693 41M694 42L695 43L694 42M474 43L475 44L474 43z"/>
                        <path onclick = "Hiroshima()" class = "Hiroshima" style = "fill:#c7c7c7; stroke:none;" d="M695 43L696 44L695 43z"/>
                        <path onclick = "Hiroshima()" class = "Hiroshima" style = "fill:#dcdcdc; stroke:none;" d="M473 45L474 46L473 45M696 45L697 46L696 45M697 47L698 48L697 47M469 49L470 50L469 49M698.333 49.6667L698.667 50.3333L698.333 49.6667M464 52L465 53L464 52z"/>
                        <path onclick = "Hiroshima()" class = "Hiroshima" style = "fill:#c7c7c7; stroke:none;" d="M462 55L463 56L462 55z"/>
                        <path onclick = "Hiroshima()" class = "Hiroshima" style = "fill:#dcdcdc; stroke:none;" d="M463 58L464 59L463 58M466 64L467 65L466 64M697.333 65.6667L697.667 66.3333L697.333 65.6667M467 66L468 67L467 66M690 72L691 73L690 72M692 72L693 73L692 72M696 73L697 74L696 73M688 74L689 75L688 74M656.667 76.3333L657.333 76.6667L656.667 76.3333M661 76L662 77L661 76M652 77L653 78L652 77M650 78L651 79L650 78M671 79L672 80L671 79M468 86L469 87L468 86M519 86L519 87L523 87L519 86M514 87L515 88L514 87M530 87L531 88L530 87M512 88L513 89L512 88M535 88L536 89L535 88M472 90L473 91L472 90M539 90L540 91L539 90M475 92L476 93L475 92M603 94L604 95L603 94M601 95L602 96L601 95M502 98L503 99L502 98M540 98L541 99L540 98M588 98L589 99L588 98M477 103L478 104L477 103M498 103L499 104L498 103M583 103L584 104L583 103M497 104L498 105L497 104M478 105L479 106L478 105M582 105L583 106L582 105M582 107L583 108L582 107M479 110L480 111L479 110M483 111L484 112L483 111M491 111L492 112L491 111M485 112L486 113L485 112M487 113L488 114L487 113M488 114L489 115L488 114M492 116L493 117L492 116z"/>
</svg>
