<?xml version="1.0" standalone="yes"?>
<svg xmlns="http://www.w3.org/2000/svg" width="1450" height="800">
                            <path style="fill:#010101; stroke:none;" d="M0 0L0 800L1137 800L1136 798C1143.54 797.65 1159.16 783.756 1148 779L1148 778C1157.12 778.72 1166.34 786.396 1175 784.61C1195.36 780.411 1200.99 763.109 1204.45 746C1206.05 738.047 1209.91 729.439 1208.73 721.015C1208.15 716.864 1204.36 713.942 1203 710L1222 703C1224.17 710.877 1233.97 726.534 1243 723L1259 747C1240.53 750.334 1244.08 767.518 1237.67 781C1234.45 787.782 1228.68 792.942 1226 800L1450 800L1450 0L0 0z"/>
                            <path style="fill:#01a5ff; stroke:none;" d="M1206.67 124.333L1207.33 124.667L1206.67 124.333z"/>
                            <path style="fill:#019aff; stroke:none;" d="M1208.67 124.333L1209.33 124.667L1208.67 124.333M1223.67 124.333L1224.33 124.667L1223.67 124.333z"/>
                            <path style="fill:#01a5ff; stroke:none;" d="M1225.67 124.333L1226.33 124.667L1225.67 124.333M1202 125L1203 126L1202 125z"/>
                            <path style="fill:#019aff; stroke:none;" d="M1203 125L1204 126L1203 125M1229 125L1230 126L1229 125z"/>
                            <path style="fill:#01a5ff; stroke:none;" d="M1230 125L1231 126L1230 125M1199 126L1200 127L1199 126z"/>
                            <path style="fill:#019aff; stroke:none;" d="M1200 126L1201 127L1200 126z"/>
                            <path style="fill:#01a5ff; stroke:none;" d="M1232.67 126.333L1233.33 126.667L1232.67 126.333M1196 127L1197 128L1196 127z"/>
                            <path style="fill:#019aff; stroke:none;" d="M1197 127L1198 128L1197 127M1235 127L1236 128L1235 127z"/>
                            <path style="fill:#01a5ff; stroke:none;" d="M1236 127L1237 128L1236 127M1194 128L1195 129L1194 128M1238 128L1239 129L1238 128M1192 129L1193 130L1192 129M1240 129L1241 130L1240 129M1190 130L1191 131L1190 130M1242 130L1243 131L1242 130M1187 132L1188 133L1187 132M1245 132L1246 133L1245 132M1184 134L1182 137L1184 134M1248 134L1249 135L1248 134z"/>
                            <path style="fill:#019aff; stroke:none;" d="M1249 135L1250 136L1249 135M1250 136L1251 137L1250 136z"/>
                            <path style="fill:#01a5ff; stroke:none;" d="M1252 137L1258 143L1252 137M1177 141L1175 144L1177 141M1258 144L1262 148L1258 144M1173 146L1174 147L1173 146M1171 149L1172 150L1171 149M1262 149L1264 151L1262 149M1170 151L1171 152L1170 151M1169 153L1170 154L1169 153M1265 153L1267 155L1265 153M1168.33 155.667L1168.67 156.333L1168.33 155.667M1267 156L1268 157L1267 156M1167.33 158.667L1167.67 159.333L1167.33 158.667M1269 159L1270 160L1269 159M1435 160L1435 161L1438 161L1435 160M1449 160L1450 161L1449 160M1166.33 161.667L1166.67 162.333L1166.33 161.667M1270 161L1271 162L1270 161M1430.67 161.333L1431.33 161.667L1430.67 161.333M1427.67 162.333L1428.33 162.667L1427.67 162.333M1271 163L1274 166L1271 163M1424.67 163.333L1425.33 163.667L1424.67 163.333M1422 164L1423 165L1422 164M1420 165L1421 166L1420 165M1165 166L1165 169L1166 169L1165 166M1275 166L1283 174L1275 166M1418 166L1419 167L1418 166M1415 168L1416 169L1415 168M1412 170L1410 173L1412 170M1283 175L1284 176L1283 175z"/>
                            <path style="fill:#019aff; stroke:none;" d="M1284 176L1285 177L1284 176z"/>
                            <path style="fill:#01a5ff; stroke:none;" d="M1285 177L1286 178L1285 177M1405 177L1403 180L1405 177M1165 180L1165 183L1166 183L1165 180M1287 180L1288 181L1287 180M1361 182L1361 183L1364 183L1361 182z"/>
                            <path style="fill:#019aff; stroke:none;" d="M1364 182L1365 183L1364 182z"/>
                            <path style="fill:#01a5ff; stroke:none;" d="M1381 182L1381 183L1385 183L1381 182M1401 182L1402 183L1401 182M1289 183L1290 184L1289 183M1356 183L1356 184L1359 184L1356 183z"/>
                            <path style="fill:#019aff; stroke:none;" d="M1387 183L1388 184L1387 183z"/>
                            <path style="fill:#01a5ff; stroke:none;" d="M1388 183L1389 184L1388 183M1352 184L1352 185L1355 185L1352 184z"/>
                            <path style="fill:#019aff; stroke:none;" d="M1390 184L1391 185L1390 184z"/>
                            <path style="fill:#01a5ff; stroke:none;" d="M1391 184L1392 185L1391 184z"/>
                            <path style="fill:#01ffff; stroke:none;" d="M1290 185L1291 186L1290 185z"/>
                            <path style="fill:#01a5ff; stroke:none;" d="M1348 185L1348 186L1351 186L1348 185z"/>
                            <path style="fill:#019aff; stroke:none;" d="M1393 185L1394 186L1393 185z"/>
                            <path style="fill:#01a5ff; stroke:none;" d="M1394 185L1395 186L1394 185M1399 185L1400 186L1399 185M1166.33 186.667L1166.67 187.333L1166.33 186.667M1291 186L1292 187L1291 186M1345.67 186.333L1346.33 186.667L1345.67 186.333M1396 186L1397 187L1396 186M1292 187L1293 188L1292 187M1341 187L1342 188L1341 187z"/>
                            <path style="fill:#019aff; stroke:none;" d="M1342 187L1343 188L1342 187z"/>
                            <path style="fill:#01ffff; stroke:none;" d="M1343 187L1344 188L1343 187z"/>
                            <path style="fill:#01a5ff; stroke:none;" d="M1398 187L1399 188L1398 187M1337.67 188.333L1338.33 188.667L1337.67 188.333z"/>
                            <path style="fill:#019aff; stroke:none;" d="M1339 188L1340 189L1339 188M1167 189L1168 190L1167 189z"/>
                            <path style="fill:#01a5ff; stroke:none;" d="M1333 189L1333 190L1336 190L1333 189M1167 190L1168 191L1167 190M1294 190L1298 194L1294 190M1330.67 190.333L1331.33 190.667L1330.67 190.333M1326 191L1327 192L1326 191z"/>
                            <path style="fill:#019aff; stroke:none;" d="M1327 191L1328 192L1327 191z"/>
                            <path style="fill:#01ffff; stroke:none;" d="M1328 191L1329 192L1328 191z"/>
                            <path style="fill:#01a5ff; stroke:none;" d="M1168.33 192.667L1168.67 193.333L1168.33 192.667M1322.67 192.333L1323.33 192.667L1322.67 192.333z"/>
                            <path style="fill:#019aff; stroke:none;" d="M1324 192L1325 193L1324 192z"/>
                            <path style="fill:#01a5ff; stroke:none;" d="M1318 193L1318 194L1321 194L1318 193M1314 194L1314 195L1317 195L1314 194M1169 195L1170 196L1169 195M1298 195L1299 196L1298 195M1311.67 195.333L1312.33 195.667L1311.67 195.333z"/>
                            <path style="fill:#01ffff; stroke:none;" d="M1299 196L1300 197L1299 196z"/>
                            <path style="fill:#01a5ff; stroke:none;" d="M1307 196L1308 197L1307 196z"/>
                            <path style="fill:#019aff; stroke:none;" d="M1308 196L1309 197L1308 196z"/>
                            <path style="fill:#01ffff; stroke:none;" d="M1309 196L1310 197L1309 196z"/>
                            <path style="fill:#01a5ff; stroke:none;" d="M1170 197L1171 198L1170 197M1301 197L1302 198L1301 197M1303.67 197.333L1304.33 197.667L1303.67 197.333z"/>
                            <path style="fill:#019aff; stroke:none;" d="M1305 197L1306 198L1305 197M1171 199L1172 200L1171 199M1172 201L1173 202L1172 201M1173 203L1174 204L1173 203M1174 205L1175 206L1174 205M1175 207L1176 208L1175 207z"/>
                            <path style="fill:#01a5ff; stroke:none;" d="M1176 209L1177 210L1176 209M1177 211L1178 212L1177 211M1178 213L1179 214L1178 213M1179 215L1180 216L1179 215z"/>
                            <path style="fill:#019aff; stroke:none;" d="M1180 216L1181 217L1180 216z"/>
                            <path style="fill:#01a5ff; stroke:none;" d="M1181 218L1182 219L1181 218z"/>
                            <path style="fill:#019aff; stroke:none;" d="M1182 220L1183 221L1182 220M1183 222L1184 223L1183 222z"/>
                            <path style="fill:#01a5ff; stroke:none;" d="M1184 224L1185 225L1184 224M1185 226L1186 227L1185 226M1186 228L1187 229L1186 228M1187 230L1188 231L1187 230z"/>
                            <path style="fill:#019aff; stroke:none;" d="M1188 231L1189 232L1188 231z"/>
                            <path style="fill:#01a5ff; stroke:none;" d="M1189 233L1190 234L1189 233z"/>
                            <path style="fill:#019aff; stroke:none;" d="M1190 235L1191 236L1190 235M1191 237L1192 238L1191 237z"/>
                            <path style="fill:#01a5ff; stroke:none;" d="M1192 239L1193 240L1192 239M1193 241L1194 242L1193 241M1194 243L1195 244L1194 243M1195 245L1196 246L1195 245z"/>
                            <path style="fill:#019aff; stroke:none;" d="M1196 246L1197 247L1196 246z"/>
                            <path style="fill:#01a5ff; stroke:none;" d="M1197 248L1198 249L1197 248z"/>
                            <path style="fill:#019aff; stroke:none;" d="M1198 250L1199 251L1198 250M1199 252L1200 253L1199 252z"/>
                            <path style="fill:#01a5ff; stroke:none;" d="M1200 254L1201 255L1200 254M1201 256L1202 257L1201 256M1202 258L1203 259L1202 258M1203 260L1204 261L1203 260z"/>
                            <path style="fill:#019aff; stroke:none;" d="M1204 261L1205 262L1204 261z"/>
                            <path style="fill:#01a5ff; stroke:none;" d="M1205 263L1206 264L1205 263z"/>
                            <path style="fill:#019aff; stroke:none;" d="M1206 265L1207 266L1206 265M1207 267L1208 268L1207 267z"/>
                            <path style="fill:#01a5ff; stroke:none;" d="M1208 269L1209 270L1208 269M1209 271L1210 272L1209 271M1210 273L1211 274L1210 273M1211 275L1212 276L1211 275z"/>
                            <path style="fill:#019aff; stroke:none;" d="M1212 276L1213 277L1212 276z"/>
                            <path style="fill:#01a5ff; stroke:none;" d="M1213 278L1214 279L1213 278z"/>
                            <path style="fill:#019aff; stroke:none;" d="M1214 280L1215 281L1214 280M1215 282L1216 283L1215 282z"/>
                            <path style="fill:#01a5ff; stroke:none;" d="M1216 284L1217 285L1216 284M1217 286L1218 287L1217 286M1218 288L1219 289L1218 288M1219 290L1220 291L1219 290z"/>
                            <path style="fill:#019aff; stroke:none;" d="M1220 291L1221 292L1220 291z"/>
                            <path style="fill:#01a5ff; stroke:none;" d="M1221 293L1222 294L1221 293z"/>
                            <path style="fill:#019aff; stroke:none;" d="M1222 295L1223 296L1222 295M1223 297L1224 298L1223 297z"/>
                            <path style="fill:#01a5ff; stroke:none;" d="M1224 299L1225 300L1224 299M1225 301L1226 302L1225 301M1226 303L1227 304L1226 303M1227 305L1228 306L1227 305z"/>
                            <path style="fill:#019aff; stroke:none;" d="M1228 306L1229 307L1228 306z"/>
                            <path style="fill:#01a5ff; stroke:none;" d="M1229 308L1230 309L1229 308z"/>
                            <path style="fill:#019aff; stroke:none;" d="M1230 310L1231 311L1230 310M1231 312L1232 313L1231 312z"/>
                            <path style="fill:#01a5ff; stroke:none;" d="M1232 314L1233 315L1232 314M1233 316L1234 317L1233 316M1234 318L1235 319L1234 318M1235 320L1236 321L1235 320z"/>
                            <path style="fill:#019aff; stroke:none;" d="M1236 321L1237 322L1236 321z"/>
                            <path style="fill:#01a5ff; stroke:none;" d="M1237 323L1238 324L1237 323z"/>
                            <path style="fill:#019aff; stroke:none;" d="M1238 325L1239 326L1238 325M1239 327L1240 328L1239 327z"/>
                            <path style="fill:#01a5ff; stroke:none;" d="M1240 329L1241 330L1240 329M1241 331L1242 332L1241 331M1242 333L1243 334L1242 333M1243 335L1244 336L1243 335z"/>
                            <path style="fill:#019aff; stroke:none;" d="M1244 336L1245 337L1244 336z"/>
                            <path style="fill:#01a5ff; stroke:none;" d="M1245 338L1246 339L1245 338z"/>
                            <path style="fill:#019aff; stroke:none;" d="M1246 340L1247 341L1246 340M1247 342L1248 343L1247 342z"/>
                            <path style="fill:#01a5ff; stroke:none;" d="M1248 344L1249 345L1248 344M1249 346L1250 347L1249 346M1250 348L1251 349L1250 348M1250 350L1251 351L1250 350M1248 351L1249 352L1248 351M1246 352L1247 353L1246 352M1243 354L1244 355L1243 354M1241 355L1240 357L1241 355M1237 358L1236 360L1237 358M1234 360L1232 363L1234 360M1230 363L1228 366L1230 363M1226 366L1227 367L1226 366z"/>
                            <path style="fill:#019aff; stroke:none;" d="M1225 367L1226 368L1225 367z"/>
                            <path style="fill:#01a5ff; stroke:none;" d="M1223 368L1224 369L1223 368M1220 370L1221 371L1220 370M1217 372L1216 374L1217 372M1214 374L1215 375L1214 374z"/>
                            <path style="fill:#019aff; stroke:none;" d="M1213 375L1214 376L1213 375z"/>
                            <path style="fill:#01a5ff; stroke:none;" d="M1210 377L1211 378L1210 377M1207 379L1208 380L1207 379z"/>
                            <path style="fill:#019aff; stroke:none;" d="M1206 380L1207 381L1206 380z"/>
                            <path style="fill:#01a5ff; stroke:none;" d="M1205 381L1206 382L1205 381M1203 382L1200 386L1203 382M1199 387L1200 388L1199 387z"/>
                            <path style="fill:#019aff; stroke:none;" d="M1198 388L1199 389L1198 388M1197 389L1198 390L1197 389z"/>
                            <path style="fill:#01a5ff; stroke:none;" d="M1196 390L1197 391L1196 390M1195 391L1196 392L1195 391M1194 392L1195 393L1194 392M1193 393L1194 394L1193 393M1192 394L1193 395L1192 394M1191 395L1192 396L1191 395M1190 396L1191 397L1190 396M1189 397L1190 398L1189 397M1188 399L1186 402L1188 399M1184 404L1185 405L1184 404M1182 407L1183 408L1182 407z"/>
                            <path style="fill:#019aff; stroke:none;" d="M1181 409L1182 410L1181 409z"/>
                            <path style="fill:#01a5ff; stroke:none;" d="M1180 410L1181 411L1180 410M1179 412L1180 413L1179 412M1178 414L1179 415L1178 414M1177 416L1176 418L1177 416M1175 419L1176 420L1175 419M1174 421L1175 422L1174 421M1173 423L1174 424L1173 423M1172 425L1173 426L1172 425M1171 427L1172 428L1171 427M1170 429L1171 430L1170 429M1169 431L1170 432L1169 431M1168 433L1169 434L1168 433M1167 435L1168 436L1167 435M1166 437L1167 438L1166 437z"/>
                            <path style="fill:#019aff; stroke:none;" d="M1166 438L1167 439L1166 438z"/>
                            <path style="fill:#01a5ff; stroke:none;" d="M1165.33 440.667L1165.67 441.333L1165.33 440.667M1164 443L1165 444L1164 443z"/>
                            <path style="fill:#019aff; stroke:none;" d="M1164 444L1165 445L1164 444z"/>
                            <path style="fill:#01a5ff; stroke:none;" d="M1163 447L1163 451L1164 451L1163 447M1162 457L1162 460L1163 460L1162 457M1161 463L1161 467L1162 467L1161 463M1160 473L1161 474L1160 473M1159 475L1160 476L1159 475M1157 478L1158 479L1157 478M1156 480L1155 482L1156 480z"/>
                            <path style="fill:#019aff; stroke:none;" d="M1154 483L1155 484L1154 483z"/>
                            <path style="fill:#01a5ff; stroke:none;" d="M1153 484L1154 485L1153 484M1152 485L1153 486L1152 485M1095 488L1095 489L1099 489L1095 488z"/>
                            <path style="fill:#019aff; stroke:none;" d="M1124 488L1125 489L1124 488z"/>
                            <path style="fill:#01a5ff; stroke:none;" d="M1125 488L1125 489L1128 489L1125 488M1149 488L1147 491L1149 488M1091.67 489.333L1092.33 489.667L1091.67 489.333M1130.67 489.333L1131.33 489.667L1130.67 489.333M1085 491L1085 492L1089 491L1085 491z"/>
                            <path style="fill:#019aff; stroke:none;" d="M1089 490L1090 491L1089 490M1141 490L1142 491L1141 490z"/>
                            <path style="fill:#01a5ff; stroke:none;" d="M1142 490L1142 491L1145 491L1142 490M1082.67 492.333L1083.33 492.667L1082.67 492.333M1080 493L1081 494L1080 493M1078 494L1079 495L1078 494M1076 495L1077 496L1076 495M1073 497L1074 498L1073 497M1070 499L1071 500L1070 499z"/>
                            <path style="fill:#019aff; stroke:none;" d="M1069 500L1070 501L1069 500M1068 501L1069 502L1068 501z"/>
                            <path style="fill:#01a5ff; stroke:none;" d="M1066 502L1061 508L1066 502z"/>
                            <path style="fill:#019aff; stroke:none;" d="M1060 508L1061 509L1060 508z"/>
                            <path style="fill:#01a5ff; stroke:none;" d="M1059 509L1060 510L1059 509z"/>
                            <path style="fill:#019aff; stroke:none;" d="M1058 510L1059 511L1058 510z"/>
                            <path style="fill:#01a5ff; stroke:none;" d="M1056 511L1047 521L1056 511M1046 522L1043 526L1046 522z"/>
                            <path style="fill:#01ffff; stroke:none;" d="M1042 527L1043 528L1042 527z"/>
                            <path style="fill:#01a5ff; stroke:none;" d="M1041 528L1042 529L1041 528M1040 529L1041 530L1040 529M1038 532L1039 533L1038 532M1036 535L1037 536L1036 535z"/>
                            <path style="fill:#019aff; stroke:none;" d="M1035 537L1036 538L1035 537z"/>
                            <path style="fill:#01a5ff; stroke:none;" d="M1034 538L1035 539L1034 538M1033 540L1030 544L1033 540z"/>
                            <path style="fill:#01ffff; stroke:none;" d="M1029 545L1030 546L1029 545z"/>
                            <path style="fill:#01a5ff; stroke:none;" d="M1028 546L1029 547L1028 546M1027 547L1028 548L1027 547M1026 548L1027 549L1026 548z"/>
                            <path style="fill:#01ffff; stroke:none;" d="M1025 550L1026 551L1025 550z"/>
                            <path style="fill:#01a5ff; stroke:none;" d="M1024 551L1025 552L1024 551M946 552L946 553L949 553L946 552z"/>
                            <path style="fill:#019aff; stroke:none;" d="M949 552L950 553L949 552z"/>
                            <path style="fill:#01a5ff; stroke:none;" d="M998 552L998 553L1002 553L998 552M1023 552L1024 553L1023 552M942.667 553.333L943.333 553.667L942.667 553.333z"/>
                            <path style="fill:#019aff; stroke:none;" d="M1004 553L1005 554L1004 553z"/>
                            <path style="fill:#01a5ff; stroke:none;" d="M1005 553L1006 554L1005 553M1022 553L1023 554L1022 553M938 554L938 555L941 555L938 554z"/>
                            <path style="fill:#019aff; stroke:none;" d="M1007 554L1008 555L1007 554z"/>
                            <path style="fill:#01a5ff; stroke:none;" d="M1008 554L1009 555L1008 554M936 555L937 556L936 555z"/>
                            <path style="fill:#01ffff; stroke:none;" d="M937 555L938 556L937 555z"/>
                            <path style="fill:#019aff; stroke:none;" d="M1010 555L1011 556L1010 555z"/>
                            <path style="fill:#01a5ff; stroke:none;" d="M1011 555L1012 556L1011 555M1021 555L1020 557L1021 555M929 556L929 557L932 557L929 556z"/>
                            <path style="fill:#019aff; stroke:none;" d="M932 556L933 557L932 556z"/>
                            <path style="fill:#01a5ff; stroke:none;" d="M1013 556L1014 557L1013 556M924 557L924 558L927 558L924 557M1015 557L1016 558L1015 557M921.667 558.333L922.333 558.667L921.667 558.333M1017 558L1018 559L1017 558M917.667 559.333L918.333 559.667L917.667 559.333z"/>
                            <path style="fill:#01ffff; stroke:none;" d="M919 559L920 560L919 559z"/>
                            <path style="fill:#01a5ff; stroke:none;" d="M914.667 560.333L915.333 560.667L914.667 560.333z"/>
                            <path style="fill:#01ffff; stroke:none;" d="M916 560L917 561L916 560z"/>
                            <path style="fill:#01a5ff; stroke:none;" d="M911 561L912 562L911 561z"/>
                            <path style="fill:#019aff; stroke:none;" d="M912 561L913 562L912 561z"/>
                            <path style="fill:#01ffff; stroke:none;" d="M913 561L914 562L913 561z"/>
                            <path style="fill:#01a5ff; stroke:none;" d="M907 562L907 563L910 563L907 562M904.667 563.333L905.333 563.667L904.667 563.333M901 564L902 565L901 564z"/>
                            <path style="fill:#019aff; stroke:none;" d="M902 564L903 565L902 564z"/>
                            <path style="fill:#01a5ff; stroke:none;" d="M898.667 565.333L899.333 565.667L898.667 565.333M681.667 566.333L682.333 566.667L681.667 566.333z"/>
                            <path style="fill:#019aff; stroke:none;" d="M683.667 566.333L684.333 566.667L683.667 566.333M698.667 566.333L699.333 566.667L698.667 566.333z"/>
                            <path style="fill:#01a5ff; stroke:none;" d="M700.667 566.333L701.333 566.667L700.667 566.333M896 566L897 567L896 566M677.667 567.333L678.333 567.667L677.667 567.333z"/>
                            <path style="fill:#019aff; stroke:none;" d="M704 567L705 568L704 567z"/>
                            <path style="fill:#01a5ff; stroke:none;" d="M705 567L706 568L705 567M894 567L895 568L894 567M674.667 568.333L675.333 568.667L674.667 568.333z"/>
                            <path style="fill:#019aff; stroke:none;" d="M707 568L708 569L707 568z"/>
                            <path style="fill:#01a5ff; stroke:none;" d="M708 568L709 569L708 568M892 568L893 569L892 568M671.667 569.333L672.333 569.667L671.667 569.333z"/>
                            <path style="fill:#019aff; stroke:none;" d="M710 569L711 570L710 569z"/>
                            <path style="fill:#01a5ff; stroke:none;" d="M711 569L712 570L711 569M669 570L670 571L669 570M713 570L714 571L713 570M889 570L890 571L889 570M666.667 571.333L667.333 571.667L666.667 571.333M715 571L716 572L715 571M887 571L886 573L887 571M663.667 572.333L664.333 572.667L663.667 572.333M717 572L718 573L717 572M660.667 573.333L661.333 573.667L660.667 573.333M884 573L885 574L884 573M657.667 574.333L658.333 574.667L657.667 574.333M720 574L721 575L720 574M654.667 575.333L655.333 575.667L654.667 575.333M881 575L882 576L881 575M651.667 576.333L652.333 576.667L651.667 576.333z"/>
                            <path style="fill:#01ffff; stroke:none;" d="M653 576L654 577L653 576z"/>
                            <path style="fill:#01a5ff; stroke:none;" d="M723 576L726 579L723 576M649 577L650 578L649 577z"/>
                            <path style="fill:#01ffff; stroke:none;" d="M650 577L651 578L650 577z"/>
                            <path style="fill:#01a5ff; stroke:none;" d="M878 577L877 579L878 577M646.667 578.333L647.333 578.667L646.667 578.333M644 579L645 580L644 579M875 579L872 583L875 579M642 580L643 581L642 580z"/>
                            <path style="fill:#019aff; stroke:none;" d="M640 581L641 582L640 581M638 582L639 583L638 582M636 583L637 584L636 583z"/>
                            <path style="fill:#01a5ff; stroke:none;" d="M730 583L733 586L730 583M870 583L869 585L870 583z"/>
                            <path style="fill:#019aff; stroke:none;" d="M634 584L635 585L634 584M632 585L633 586L632 585M868 585L869 586L868 585M630 586L631 587L630 586z"/>
                            <path style="fill:#01a5ff; stroke:none;" d="M867 586L868 587L867 586z"/>
                            <path style="fill:#019aff; stroke:none;" d="M628 587L629 588L628 587z"/>
                            <path style="fill:#01a5ff; stroke:none;" d="M866 587L867 588L866 587z"/>
                            <path style="fill:#019aff; stroke:none;" d="M626 588L627 589L626 588z"/>
                            <path style="fill:#01a5ff; stroke:none;" d="M734 588L735 589L734 588M864 588L858 595L864 588z"/>
                            <path style="fill:#019aff; stroke:none;" d="M624 589L625 590L624 589M622 590L623 591L622 590M620 591L621 592L620 591z"/>
                            <path style="fill:#01a5ff; stroke:none;" d="M736 591L737 592L736 591M618 592L619 593L618 592M616 593L617 594L616 593M737 593L738 594L737 593M614 594L615 595L614 594M738 595L739 596L738 595M611 596L612 597L611 596M857 596L855 599L857 596M739.333 597.667L739.667 598.333L739.333 597.667M608 598L606 601L608 598M740.333 600.667L740.667 601.333L740.333 600.667M604 601L601 605L604 601M853 601L854 602L853 601M786.667 602.333L787.333 602.667L786.667 602.333z"/>
                            <path style="fill:#019aff; stroke:none;" d="M788.667 602.333L789.333 602.667L788.667 602.333M803.667 602.333L804.333 602.667L803.667 602.333z"/>
                            <path style="fill:#01a5ff; stroke:none;" d="M805.667 602.333L806.333 602.667L805.667 602.333M741.333 603.667L741.667 604.333L741.333 603.667M781 603L781 604L784 604L781 603z"/>
                            <path style="fill:#019aff; stroke:none;" d="M809 603L810 604L809 603z"/>
                            <path style="fill:#01a5ff; stroke:none;" d="M810 603L811 604L810 603M778.667 604.333L779.333 604.667L778.667 604.333z"/>
                            <path style="fill:#019aff; stroke:none;" d="M812 604L813 605L812 604z"/>
                            <path style="fill:#01a5ff; stroke:none;" d="M813 604L814 605L813 604M851 604L852 605L851 604z"/>
                            <path style="fill:#019aff; stroke:none;" d="M600 605L601 606L600 605z"/>
                            <path style="fill:#01a5ff; stroke:none;" d="M774.667 605.333L775.333 605.667L774.667 605.333z"/>
                            <path style="fill:#01ffff; stroke:none;" d="M776 605L777 606L776 605z"/>
                            <path style="fill:#019aff; stroke:none;" d="M815 605L816 606L815 605z"/>
                            <path style="fill:#01a5ff; stroke:none;" d="M816 605L817 606L816 605M599 606L600 607L599 606M771.667 606.333L772.333 606.667L771.667 606.333M818 606L819 607L818 606M850 606L851 607L850 606M598 607L599 608L598 607M768.667 607.333L769.333 607.667L768.667 607.333M820 607L821 608L820 607M596 608L571 634C578.145 628.967 593.926 616.557 596 608M742 608L742 611L743 611L742 608M765.667 608.333L766.333 608.667L765.667 608.333z"/>
                            <path style="fill:#01ffff; stroke:none;" d="M767 608L768 609L767 608z"/>
                            <path style="fill:#01a5ff; stroke:none;" d="M822 608L823 609L822 608M849 608L848 610L849 608M763 609L764 610L763 609z"/>
                            <path style="fill:#01ffff; stroke:none;" d="M764 609L765 610L764 609z"/>
                            <path style="fill:#01a5ff; stroke:none;" d="M760.667 610.333L761.333 610.667L760.667 610.333M825 610L826 611L825 610M758 611L759 612L758 611M847 611L848 612L847 611M756 612L757 613L756 612M828 612L831 615L828 612z"/>
                            <path style="fill:#019aff; stroke:none;" d="M754 613L755 614L754 613z"/>
                            <path style="fill:#01a5ff; stroke:none;" d="M846 613L847 614L846 613z"/>
                            <path style="fill:#019aff; stroke:none;" d="M752 614L753 615L752 614M750 615L751 616L750 615z"/>
                            <path style="fill:#01a5ff; stroke:none;" d="M845 615L846 616L845 615z"/>
                            <path style="fill:#019aff; stroke:none;" d="M748 616L749 617L748 616M746 617L747 618L746 617z"/>
                            <path style="fill:#01a5ff; stroke:none;" d="M844 617L845 618L844 617z"/>
                            <path style="fill:#019aff; stroke:none;" d="M744 618L745 619L744 618z"/>
                            <path style="fill:#01a5ff; stroke:none;" d="M835 619L838 622L835 619M843 619L844 620L843 619M842.333 621.667L842.667 622.333L842.333 621.667M839 624L840 625L839 624M841.333 624.667L841.667 625.333L841.333 624.667M570 635L567 639L570 635M566 640L564 643L566 640M563 644L561 647L563 644M558 649L555 653L558 649z"/>
                            <path style="fill:#019aff; stroke:none;" d="M554 653L555 654L554 653z"/>
                            <path style="fill:#01a5ff; stroke:none;" d="M553 654L554 655L553 654M552 655L553 656L552 655M550 656L539 668L550 656M536 669L537 670L536 669M534 670L533 672L534 670M530 673L529 675L530 673z"/>
                            <path style="fill:#01ffff; stroke:none;" d="M528 675L529 676L528 675z"/>
                            <path style="fill:#01a5ff; stroke:none;" d="M526 676L523 680L526 676M521 680L519 683L521 680z"/>
                            <path style="fill:#019aff; stroke:none;" d="M518 683L519 684L518 683z"/>
                            <path style="fill:#01a5ff; stroke:none;" d="M517 684L518 685L517 684M516 685L517 686L516 685M514 686L509 692L514 686z"/>
                            <path style="fill:#019aff; stroke:none;" d="M508 692L509 693L508 692z"/>
                            <path style="fill:#01a5ff; stroke:none;" d="M507 693L508 694L507 693M506 694L507 695L506 694M504 695L500 700L504 695M498 700L496 703L498 700M494 703L492 706L494 703z"/>
                            <path style="fill:#ffffff; stroke:none;" d="M1203 710C1203.93 714.529 1208.21 717.453 1208.6 722.004C1209.34 730.582 1205.36 738.014 1203.91 746C1203.35 749.051 1204.83 751.892 1204.05 755C1200.7 768.335 1187.74 782.098 1174 784.595C1166.22 786.008 1156.69 778.373 1148 778L1148 779C1157.36 785.039 1143.43 797.326 1136 798L1136 799C1143.43 801.198 1152.28 800 1160 800L1204 800C1209.71 800 1221.65 802.264 1226.24 798.397C1243.43 783.902 1236.28 753.684 1259 747C1256.71 734.841 1248.77 732.773 1243 723C1233.92 725.151 1225.01 710.623 1222 703L1203 710z"/>
                            <path style="fill:#01ffff; stroke:none;" d="M491 706L492 707L491 706z"/>
                            <path style="fill:#01a5ff; stroke:none;" d="M489 707L490 708L489 707z"/>
                            <path style="fill:#019aff; stroke:none;" d="M488 708L489 709L488 708z"/>
                            <path style="fill:#01a5ff; stroke:none;" d="M487 709L488 710L487 709M485 710L483 713L485 710z"/>
                            <path style="fill:#01ffff; stroke:none;" d="M482 713L483 714L482 713z"/>
                            <path style="fill:#01a5ff; stroke:none;" d="M480 714L479 716L480 714M476 717L477 718L476 717M474 718L475 719L474 718z"/>
                            <path style="fill:#019aff; stroke:none;" d="M473 719L474 720L473 719z"/>
                            <path style="fill:#01a5ff; stroke:none;" d="M471 720L472 721L471 720M469 721L470 722L469 721M467 722L466 724L467 722M464 724L465 725L464 724M462 725L463 726L462 725M459 727L460 728L459 727M456 729L454 732L456 729M452 732L437 748C441.996 744.481 450.529 738.07 452 732z"/>
                            <path style="fill:#019aff; stroke:none;" d="M436 748L437 749L436 748z"/>
                            <path style="fill:#01a5ff; stroke:none;" d="M435 749L436 750L435 749M434 750L435 751L434 750M432 751L427 757L432 751z"/>
                            <path style="fill:#019aff; stroke:none;" d="M426 757L427 758L426 757z"/>
                            <path style="fill:#01a5ff; stroke:none;" d="M423 759L421 762L423 759M416 766L414 769L416 766M412 771L413 772L412 771M410 774L411 775L410 774M409 776L410 777L409 776M408 778L409 779L408 778M407.333 780.667L407.667 781.333L407.333 780.667M406.333 783.667L406.667 784.333L406.333 783.667M405.333 786.667L405.667 787.333L405.333 786.667M404 791L404 794L405 794L404 791z"/>
</svg>
