<?xml version="1.0" standalone="yes"?>
<svg xmlns="http://www.w3.org/2000/svg" width="1450" height="800">
                            <path style="fill:#010101; stroke:none;" d="M0 0L0 800L312 800L401 800C411.714 800 429.12 803.325 439 799.062C445.286 796.349 449.093 789.961 453.439 785.039C459.813 777.822 467.834 769.598 475.09 763.274C485.476 754.221 498.989 747.583 508.711 737.935C517.272 729.438 521.617 718.162 531 710.464C540.174 702.938 553.497 699.893 561.671 691.671C570.986 682.301 566.38 673.309 560 665C565.78 663.336 582.48 663.348 579 656C592.507 653.977 602.538 645.325 617 648C617.619 639.991 622.641 643.791 627.675 640.482C631.995 637.643 633.313 634.088 639 634L639 628L647 638C657.113 635.158 667.624 634.074 678 636L678 637C665.43 639.334 644.981 637.011 644.849 653.714C644.832 655.891 643.394 658.335 644.874 660.305C650.132 667.299 657.029 661.579 663 662.828C679.419 666.262 673.224 672.633 672.113 684C671.737 687.842 673.883 692.172 672.958 695.852C671.05 703.432 653.166 701.338 648.851 707.4C645.918 711.521 653.928 713.579 653.605 717.911C653.371 721.051 649.618 722.782 648.008 725.184C645.754 728.549 645.723 733.12 645 737C639.648 735.729 635.406 738.245 630.424 737.664C626.951 737.259 624.72 733.74 621 733.939C618.197 734.089 615.921 735.994 613 735.714C608.429 735.278 604.837 730.582 600.043 733.032C595.737 735.233 594.772 740.284 592.305 744C588.761 749.339 583.921 754.259 579.576 758.956C575.256 763.626 562.354 764.848 562.342 772.895C562.334 777.582 570.409 779.246 571 785L545 793.84L527.108 791.461L519 798C516.09 793.165 506.054 794.765 503 799L502 799C499.019 792.739 494.904 794.583 492 800L1450 800L1450 0L0 0z"/>
                            <path style="fill:#ffffff; stroke:none;" d="M639 628L639 634C632.842 633.218 631.63 637.437 626.961 640.383C621.703 643.7 617.273 639.782 617 648L579 656C581.076 663.454 565.823 662.579 560 665C564.658 674.132 571.249 679.456 562.61 689.96C553.58 700.939 536.507 703.804 526.043 714.09C518.803 721.207 514.685 731.311 507.486 738.805C498.23 748.441 484.275 754.327 474.428 763.302C462.132 774.51 452.292 788.873 439 799L439 800C454.656 800 470.343 800.293 485.996 799.995C491.96 799.882 497.268 791.028 501 798L520.791 796.102L528.043 791.725L541 794.546L571 784C570.198 779.044 562.392 776.964 562.731 772.892C563.428 764.503 575.018 764.703 579.486 759.867C585.961 752.86 592.349 737.399 600.185 732.851C604.183 730.531 608.087 735.147 612 735.768C615.579 736.336 618.587 734.074 622 734.387C625.245 734.685 627.653 737.423 631 737.591C635.902 737.837 639.909 736.069 645 737C646.446 729.237 651.115 725.635 653.353 718.915C655.075 713.743 647.94 713.018 648.63 708.997C649.706 702.728 668.874 699.562 674 698C673.122 693.34 671.325 687.733 672.306 683C673.263 678.39 678.184 673.423 674.972 668.533C667.906 657.775 654.748 667.259 646.283 660.965C642.398 658.077 644.911 646.313 648.38 643.617C656.126 637.599 668.95 639.155 678 637L678 636L647.529 636.508L639 628z"/>
                            <path style="fill:#d5d5d5; stroke:none;" d="M646 636L647 637L646 636M629 638L630 639L629 638M621 641L622 642L621 641M607 647L607 648L610 648L607 647M611 647L611 648L615 648L611 647M600 648L601 649L600 648M596 649L597 650L596 649M586 652L587 653L586 652M584 653L585 654L584 653z"/>
                            <path style="fill:#01a3ff; stroke:none;" d="M607 671C610.735 669.934 614.299 668.374 618 667.177L624.999 664.996C627.953 664.001 636.023 660.031 630.667 656.314C624.199 651.827 614.61 654.545 608 656.711C605.778 657.44 601.601 657.672 600.733 660.314C599.351 664.519 604.589 668.385 607 671z"/>
                            <path style="fill:#d5d5d5; stroke:none;" d="M676 670L677 671L676 670M675 676L676 677L675 676M672 680L673 681L672 680M566.333 682.667L566.667 683.333L566.333 682.667M563 689L564 690L563 689M559 693L560 694L559 693M556 695L557 696L556 695M673 695L674 696L673 695M554 696L555 697L554 696M552 697L553 698L552 697M550 698L551 699L550 698M666 699L667 700L666 699M545 700L546 701L545 700M664 700L665 701L664 700M663 701L664 702L663 701M541 702L542 703L541 702M661 702L662 703L661 702M656 703L657 704L656 703M653 704L654 705L653 704M537 705L538 706L537 705M534 707L535 708L534 707M647 708L648 709L647 708M530 710L531 711L530 710M647 710L648 711L647 710M650.667 712.333L651.333 712.667L650.667 712.333M654.333 717.667L654.667 718.333L654.333 717.667M653 720L654 721L653 720M520 721L521 722L520 721M650 722L651 723L650 722M647 725L648 726L647 725M646 727L647 728L646 727M601 731L601 732L604 732L601 731M599 732L600 733L599 732M598 733L599 734L598 733M622 733L623 734L622 733M645 734L646 735L645 734M628 737L629 738L628 737M630 738L631 739L630 738z"/>
                            <path style="fill:#c1e9ff; stroke:none;" d="M507 739L508 740L507 739M506 740L507 741L506 740M504 741L505 742L504 741M502 742L503 743L502 742z"/>
                            <path style="fill:#d5d5d5; stroke:none;" d="M593 742L594 743L593 742z"/>
                            <path style="fill:#c1e9ff; stroke:none;" d="M501 743L502 744L501 743M499 744L500 745L499 744z"/>
                            <path style="fill:#d5d5d5; stroke:none;" d="M592 744L593 745L592 744z"/>
                            <path style="fill:#c1e9ff; stroke:none;" d="M496 745L497 746L496 745z"/>
                            <path style="fill:#d5d5d5; stroke:none;" d="M591 745L592 746L591 745M590 746L591 747L590 746z"/>
                            <path style="fill:#c1e9ff; stroke:none;" d="M495 747L496 748L495 747z"/>
                            <path style="fill:#d5d5d5; stroke:none;" d="M589 747L590 748L589 747z"/>
                            <path style="fill:#c1e9ff; stroke:none;" d="M494 748L495 749L494 748M493 749L494 750L493 749M491 750L492 751L491 750M490 751L491 752L490 751z"/>
                            <path style="fill:#d5d5d5; stroke:none;" d="M586 751L587 752L586 751z"/>
                            <path style="fill:#c1e9ff; stroke:none;" d="M489 752L490 753L489 752M488 753L489 754L488 753z"/>
                            <path style="fill:#d5d5d5; stroke:none;" d="M584 753L585 754L584 753z"/>
                            <path style="fill:#c1e9ff; stroke:none;" d="M487 754L488 755L487 754z"/>
                            <path style="fill:#d5d5d5; stroke:none;" d="M583 754L584 755L583 754z"/>
                            <path style="fill:#c1e9ff; stroke:none;" d="M485 755L486 756L485 755z"/>
                            <path style="fill:#d5d5d5; stroke:none;" d="M582 755L583 756L582 755z"/>
                            <path style="fill:#c1e9ff; stroke:none;" d="M484 756L485 757L484 756M482 758L483 759L482 758M481 759L482 760L481 759M479 760L480 761L479 760z"/>
                            <path style="fill:#d5d5d5; stroke:none;" d="M574 763L575 764L574 763M473 764L474 765L473 764M472 765L473 766L472 765M565 767L566 768L565 767M468 770L469 771L468 770M467 771L468 772L467 771M466 772L467 773L466 772M561 772L562 773L561 772M562 775L563 776L562 775M564 776L565 777L564 776M461 777L462 778L461 777M460 778L461 779L460 778M568 778L569 779L568 778M456 781L457 782L456 781M571.333 782.667L571.667 783.333L571.333 782.667M453 784L454 785L453 784M570 784L571 785L570 784M558 786L559 787L558 786M560 786L561 787L560 786M450 788L451 789L450 788M449 789L450 790L449 789M526.667 790.333L527.333 790.667L526.667 790.333M551 791L552 792L551 791M549 792L550 793L549 792M497.667 793.333L498.333 793.667L497.667 793.333M546 793L547 794L546 793M495 794L496 795L495 794M514 794L515 795L514 794M516 794L517 795L516 794M535 794L536 795L535 794M541.667 794.333L542.333 794.667L541.667 794.333M494 795L495 796L494 795M500 795L501 796L500 795M506.667 795.333L507.333 795.667L506.667 795.333M512 795L513 796L512 795M522 796L523 797L522 796M441 797L442 798L441 797M503 797L504 798L503 797M519.667 797.333L520.333 797.667L519.667 797.333M492 798L493 799L492 798M502 798L503 799L502 798z"/>
</svg>
