<?xml version="1.0" standalone="yes"?>
<svg xmlns="http://www.w3.org/2000/svg" width="1450" height="800">
                        <path onclick = "Tokushima()" class = "Tokushima" style = "fill:#010101; stroke:none;" d="M0 0L0 800L1450 800L1450 0L0 0z"/>
                        <path onclick = "Tokushima()" class = "Tokushima" style = "fill:#ffffff; stroke:none;" d="M895 109C887.361 114.328 877.182 116.804 868 118C867.59 121.545 867.677 127.075 862.952 127.371C859.451 127.59 856.441 125.027 853 124.845C843.413 124.338 830.497 123.54 821.109 126.434C816.798 127.762 817.195 132.915 813.853 135.397C810.705 137.734 806.517 136.54 803.015 137.893C798.878 139.491 796.323 143.462 791.996 144.848C786.54 146.596 782.668 142.793 781 138C767.392 140.807 754.015 144.761 745.121 155.73C743.565 157.649 740.522 158.739 739.788 161.224C737.336 169.53 741.748 176.428 736 185C745.635 192.346 756.13 188.007 765.911 191.757C770.193 193.399 772.162 198.715 776.996 199.377C782.825 200.177 783.851 192.735 788.926 192.302C802.546 191.14 806.107 211.306 804 221C811.531 220.958 831.396 223.503 820 235L826 247L846 249L857 236L855 236L855 234L918 194L918 193L900 190C902.456 183.713 913.964 178.167 910.396 170.39C908.639 166.56 903.41 163.818 901 160L896 162C889.928 146.232 897.996 129.213 900 113L895 109z"/>
                        <path onclick = "Tokushima()" class = "Tokushima" style = "fill:#e7e7e7; stroke:none;" d="M877 114L878 115L877 114z"/>
                        <path onclick = "Tokushima()" class = "Tokushima" style = "fill:#f2f2f2; stroke:none;" d="M878 114L879 115L878 114M875 115L876 116L875 115z"/>
                        <path onclick = "Tokushima()" class = "Tokushima" style = "fill:#dcdcdc; stroke:none;" d="M871 117L872 118L871 117z"/>
                        <path onclick = "Tokushima()" class = "Tokushima" style = "fill:#e7e7e7; stroke:none;" d="M872 117L873 118L872 117z"/>
                        <path onclick = "Tokushima()" class = "Tokushima" style = "fill:#f2f2f2; stroke:none;" d="M867 121L868 122L867 121M833 124L834 125L833 124M837 124L838 125L837 124z"/>
                        <path onclick = "Tokushima()" class = "Tokushima" style = "fill:#e7e7e7; stroke:none;" d="M851 124L852 125L851 124M867 124L868 125L867 124z"/>
                        <path onclick = "Tokushima()" class = "Tokushima" style = "fill:#f2f2f2; stroke:none;" d="M830 125L831 126L830 125M842 125L843 126L842 125z"/>
                        <path onclick = "Tokushima()" class = "Tokushima" style = "fill:#dcdcdc; stroke:none;" d="M843 125L844 126L843 125z"/>
                        <path onclick = "Tokushima()" class = "Tokushima" style = "fill:#f2f2f2; stroke:none;" d="M849 125L850 126L849 125M855 125L856 126L855 125M819 126L820 127L819 126M858 126L859 127L858 126z"/>
                        <path onclick = "Tokushima()" class = "Tokushima" style = "fill:#dcdcdc; stroke:none;" d="M861 127L862 128L861 127z"/>
                        <path onclick = "Tokushima()" class = "Tokushima" style = "fill:#e7e7e7; stroke:none;" d="M865 127L866 128L865 127z"/>
                        <path onclick = "Tokushima()" class = "Tokushima" style = "fill:#f2f2f2; stroke:none;" d="M817 128L818 129L817 128M816 133L817 134L816 133z"/>
                        <path onclick = "Tokushima()" class = "Tokushima" style = "fill:#e7e7e7; stroke:none;" d="M896 135L897 136L896 135z"/>
                        <path onclick = "Tokushima()" class = "Tokushima" style = "fill:#dcdcdc; stroke:none;" d="M803 137L804 138L803 137z"/>
                        <path onclick = "Tokushima()" class = "Tokushima" style = "fill:#f2f2f2; stroke:none;" d="M895 137L896 138L895 137M778 138L779 139L778 138z"/>
                        <path onclick = "Tokushima()" class = "Tokushima" style = "fill:#dcdcdc; stroke:none;" d="M773 139L774 140L773 139z"/>
                        <path onclick = "Tokushima()" class = "Tokushima" style = "fill:#f2f2f2; stroke:none;" d="M774 139L775 140L774 139z"/>
                        <path onclick = "Tokushima()" class = "Tokushima" style = "fill:#dcdcdc; stroke:none;" d="M766 140L767 141L766 140z"/>
                        <path onclick = "Tokushima()" class = "Tokushima" style = "fill:#e7e7e7; stroke:none;" d="M781 140L782 141L781 140M894 140L895 141L894 140z"/>
                        <path onclick = "Tokushima()" class = "Tokushima" style = "fill:#f2f2f2; stroke:none;" d="M764 141L765 142L764 141z"/>
                        <path onclick = "Tokushima()" class = "Tokushima" style = "fill:#e7e7e7; stroke:none;" d="M763 142L764 143L763 142z"/>
                        <path onclick = "Tokushima()" class = "Tokushima" style = "fill:#f2f2f2; stroke:none;" d="M782 142L783 143L782 142M797 142L798 143L797 142M783 143L784 144L783 143z"/>
                        <path onclick = "Tokushima()" class = "Tokushima" style = "fill:#dcdcdc; stroke:none;" d="M795 143L796 144L795 143z"/>
                        <path onclick = "Tokushima()" class = "Tokushima" style = "fill:#f2f2f2; stroke:none;" d="M893 143L894 144L893 143z"/>
                        <path onclick = "Tokushima()" class = "Tokushima" style = "fill:#e7e7e7; stroke:none;" d="M893.333 144.667L893.667 145.333L893.333 144.667M755.667 145.333L756.333 145.667L755.667 145.333z"/>
                        <path onclick = "Tokushima()" class = "Tokushima" style = "fill:#dcdcdc; stroke:none;" d="M787 145L788 146L787 145z"/>
                        <path onclick = "Tokushima()" class = "Tokushima" style = "fill:#f2f2f2; stroke:none;" d="M791 145L792 146L791 145z"/>
                        <path onclick = "Tokushima()" class = "Tokushima" style = "fill:#dcdcdc; stroke:none;" d="M753 146L754 147L753 146z"/>
                        <path onclick = "Tokushima()" class = "Tokushima" style = "fill:#f2f2f2; stroke:none;" d="M759 146L760 147L759 146z"/>
                        <path onclick = "Tokushima()" class = "Tokushima" style = "fill:#dcdcdc; stroke:none;" d="M752 147L753 148L752 147z"/>
                        <path onclick = "Tokushima()" class = "Tokushima" style = "fill:#e7e7e7; stroke:none;" d="M751 148L752 149L751 148z"/>
                        <path onclick = "Tokushima()" class = "Tokushima" style = "fill:#f2f2f2; stroke:none;" d="M750 149L751 150L750 149z"/>
                        <path onclick = "Tokushima()" class = "Tokushima" style = "fill:#e7e7e7; stroke:none;" d="M893 154L894 155L893 154z"/>
                        <path onclick = "Tokushima()" class = "Tokushima" style = "fill:#f2f2f2; stroke:none;" d="M893 155L894 156L893 155z"/>
                        <path onclick = "Tokushima()" class = "Tokushima" style = "fill:#dcdcdc; stroke:none;" d="M745 156L746 157L745 156M741 158L742 159L741 158z"/>
                        <path onclick = "Tokushima()" class = "Tokushima" style = "fill:#e7e7e7; stroke:none;" d="M894 158L895 159L894 158z"/>
                        <path onclick = "Tokushima()" class = "Tokushima" style = "fill:#f2f2f2; stroke:none;" d="M739 159L740 160L739 159M861 159L862 160L861 159M864 159L865 160L864 159M867 159L868 160L867 159M870 159L871 160L870 159M895 160L896 161L895 160z"/>
                        <path onclick = "Tokushima()" class = "Tokushima" style = "fill:#e7e7e7; stroke:none;" d="M898 160L899 161L898 160z"/>
                        <path onclick = "Tokushima()" class = "Tokushima" style = "fill:#f2f2f2; stroke:none;" d="M896 161L897 162L896 161M901 161L902 162L901 161M902 162L903 163L902 162M739 163L740 164L739 163z"/>
                        <path onclick = "Tokushima()" class = "Tokushima" style = "fill:#dcdcdc; stroke:none;" d="M739 164L740 165L739 164z"/>
                        <path onclick = "Tokushima()" class = "Tokushima" style = "fill:#e7e7e7; stroke:none;" d="M904 165L905 166L904 165z"/>
                        <path onclick = "Tokushima()" class = "Tokushima" style = "fill:#f2f2f2; stroke:none;" d="M740 166L741 167L740 166z"/>
                        <path onclick = "Tokushima()" class = "Tokushima" style = "fill:#dcdcdc; stroke:none;" d="M740 172L741 173L740 172z"/>
                        <path onclick = "Tokushima()" class = "Tokushima" style = "fill:#f2f2f2; stroke:none;" d="M739 178L740 179L739 178M738 181L739 182L738 181z"/>
                        <path onclick = "Tokushima()" class = "Tokushima" style = "fill:#e7e7e7; stroke:none;" d="M906 181L907 182L906 181z"/>
                        <path onclick = "Tokushima()" class = "Tokushima" style = "fill:#f2f2f2; stroke:none;" d="M737 183L738 184L737 183M903 183L904 184L903 183M902 184L903 185L902 184z"/>
                        <path onclick = "Tokushima()" class = "Tokushima" style = "fill:#dcdcdc; stroke:none;" d="M741 188L742 189L741 188M746 189L747 190L746 189z"/>
                        <path onclick = "Tokushima()" class = "Tokushima" style = "fill:#f2f2f2; stroke:none;" d="M749 190L750 191L749 190z"/>
                        <path onclick = "Tokushima()" class = "Tokushima" style = "fill:#dcdcdc; stroke:none;" d="M752 191L753 192L752 191z"/>
                        <path onclick = "Tokushima()" class = "Tokushima" style = "fill:#f2f2f2; stroke:none;" d="M753 191L754 192L753 191M760 191L761 192L760 191z"/>
                        <path onclick = "Tokushima()" class = "Tokushima" style = "fill:#dcdcdc; stroke:none;" d="M761 191L762 192L761 191z"/>
                        <path onclick = "Tokushima()" class = "Tokushima" style = "fill:#e7e7e7; stroke:none;" d="M790 191L791 192L790 191z"/>
                        <path onclick = "Tokushima()" class = "Tokushima" style = "fill:#f2f2f2; stroke:none;" d="M768 192L769 193L768 192z"/>
                        <path onclick = "Tokushima()" class = "Tokushima" style = "fill:#e7e7e7; stroke:none;" d="M793 194L794 195L793 194M796 194L797 195L796 194z"/>
                        <path onclick = "Tokushima()" class = "Tokushima" style = "fill:#dcdcdc; stroke:none;" d="M770 195L771 196L770 195z"/>
                        <path onclick = "Tokushima()" class = "Tokushima" style = "fill:#f2f2f2; stroke:none;" d="M783 196L784 197L783 196M775 199L776 200L775 199z"/>
                        <path onclick = "Tokushima()" class = "Tokushima" style = "fill:#e7e7e7; stroke:none;" d="M779 199L780 200L779 199z"/>
                        <path onclick = "Tokushima()" class = "Tokushima" style = "fill:#dcdcdc; stroke:none;" d="M777 200L778 201L777 200z"/>
                        <path onclick = "Tokushima()" class = "Tokushima" style = "fill:#f2f2f2; stroke:none;" d="M803 205L803 208L804 208L803 205z"/>
                        <path onclick = "Tokushima()" class = "Tokushima" style = "fill:#e7e7e7; stroke:none;" d="M895 206L896 207L895 206z"/>
                        <path onclick = "Tokushima()" class = "Tokushima" style = "fill:#f2f2f2; stroke:none;" d="M892 208L893 209L892 208z"/>
                        <path onclick = "Tokushima()" class = "Tokushima" style = "fill:#e7e7e7; stroke:none;" d="M891 209L892 210L891 209z"/>
                        <path onclick = "Tokushima()" class = "Tokushima" style = "fill:#dcdcdc; stroke:none;" d="M803 210L804 211L803 210M804 214L805 215L804 214z"/>
                        <path onclick = "Tokushima()" class = "Tokushima" style = "fill:#f2f2f2; stroke:none;" d="M881 218L882 219L881 218M804 219L805 220L804 219M880 219L881 220L880 219M811 220L812 221L811 220z"/>
                        <path onclick = "Tokushima()" class = "Tokushima" style = "fill:#e7e7e7; stroke:none;" d="M879 220L880 221L879 220z"/>
                        <path onclick = "Tokushima()" class = "Tokushima" style = "fill:#f2f2f2; stroke:none;" d="M804.667 221.333L805.333 221.667L804.667 221.333z"/>
                        <path onclick = "Tokushima()" class = "Tokushima" style = "fill:#e7e7e7; stroke:none;" d="M806 221L807 222L806 221z"/>
                        <path onclick = "Tokushima()" class = "Tokushima" style = "fill:#dcdcdc; stroke:none;" d="M815 221L816 222L815 221z"/>
                        <path onclick = "Tokushima()" class = "Tokushima" style = "fill:#f2f2f2; stroke:none;" d="M820 222L821 223L820 222M876 222L877 223L876 222z"/>
                        <path onclick = "Tokushima()" class = "Tokushima" style = "fill:#e7e7e7; stroke:none;" d="M821 223L822 224L821 223M873 224L874 225L873 224M871 225L872 226L871 225M869 226L870 227L869 226M865 228L866 229L865 228M863 229L864 230L863 229z"/>
                        <path onclick = "Tokushima()" class = "Tokushima" style = "fill:#f2f2f2; stroke:none;" d="M861 230L862 231L861 230M859 231L860 232L859 231M822 233L823 234L822 233M856 233L857 234L856 233M855 234L856 235L855 234z"/>
                        <path onclick = "Tokushima()" class = "Tokushima" style = "fill:#e7e7e7; stroke:none;" d="M855 235L856 236L855 235z"/>
                        <path onclick = "Tokushima()" class = "Tokushima" style = "fill:#f2f2f2; stroke:none;" d="M856 238L857 239L856 238z"/>
                        <path onclick = "Tokushima()" class = "Tokushima" style = "fill:#dcdcdc; stroke:none;" d="M823 240L824 241L823 240z"/>
                        <path onclick = "Tokushima()" class = "Tokushima" style = "fill:#f2f2f2; stroke:none;" d="M855 240L856 241L855 240M853 242L854 243L853 242M851 243L852 244L851 243z"/>
                        <path onclick = "Tokushima()" class = "Tokushima" style = "fill:#e7e7e7; stroke:none;" d="M825 244L826 245L825 244z"/>
                        <path onclick = "Tokushima()" class = "Tokushima" style = "fill:#f2f2f2; stroke:none;" d="M849 244L850 245L849 244z"/>
                        <path onclick = "Tokushima()" class = "Tokushima" style = "fill:#e7e7e7; stroke:none;" d="M848 245L849 246L848 245M847 246L848 247L847 246z"/>
                        <path onclick = "Tokushima()" class = "Tokushima" style = "fill:#dcdcdc; stroke:none;" d="M829 247L830 248L829 247z"/>
                        <path onclick = "Tokushima()" class = "Tokushima" style = "fill:#f2f2f2; stroke:none;" d="M846 247L847 248L846 247z"/>
                        <path onclick = "Tokushima()" class = "Tokushima" style = "fill:#e7e7e7; stroke:none;" d="M832 248L833 249L832 248z"/>
                        <path onclick = "Tokushima()" class = "Tokushima" style = "fill:#f2f2f2; stroke:none;" d="M838 248L839 249L838 248z"/>
                        <path onclick = "Tokushima()" class = "Tokushima" style = "fill:#dcdcdc; stroke:none;" d="M844 249L845 250L844 249z"/>
                        <path onclick = "Tokushima()" class = "Tokushima" style = "fill:#e7e7e7; stroke:none;" d="M845 249L846 250L845 249z"/>
</svg>
