<?xml version="1.0" standalone="yes"?>
<svg xmlns="http://www.w3.org/2000/svg" width="1450" height="800">
                            <path style="fill:#010101; stroke:none;" d="M0 0L0 800L1450 800L1450 0L0 0z"/>
                            <path style="fill:#dbdbdb; stroke:none;" d="M853.667 628.333L854.333 628.667L853.667 628.333z"/>
                            <path style="fill:#ffffff; stroke:none;" d="M665 647L667 641C663.438 641.967 658.322 643.082 659.801 648.005C662.417 656.712 672.501 658.989 677.397 665.274C682.574 671.921 674.749 678.5 674.384 685C674.152 689.14 677.004 693.819 675.382 697.856C672.915 703.994 655.691 705.765 650 709L650 710C663.065 714.021 649.033 729.56 647 738L670 740C672.542 730.376 681.747 734.047 688.678 729.387C693.078 726.429 687.535 721.17 690.043 717.333C691.288 715.43 707.721 714.104 711 714C708.185 703.602 712.392 708.094 716.581 700.852C719.433 695.921 718.909 687.047 724.144 683.773C728.267 681.196 732.962 684.292 737 685.228C748.355 687.859 757.182 689.303 763 701C766.767 699.106 767.082 696.373 769.723 693.43C775.866 686.583 795.524 673.151 795 690C814.615 690 817.574 698.51 821 716C826.023 715.105 830.101 712.009 835 710.843C838.875 709.92 842.806 711.792 846.576 710.08C850.253 708.411 853.71 702.588 857.224 701.877C859.978 701.32 862.376 703.839 865 704.204C869.046 704.765 874.894 699.631 876.972 696.406C879.548 692.409 877.129 684.761 878 680C872.384 675.574 874.77 672.515 871.934 667.259C868.044 660.053 864.578 655.791 863.035 647C862.042 641.347 863.154 631.779 855.942 629.518C846.463 626.545 842.29 634.862 835.895 638.911C831.069 641.967 823.577 642.923 818 643.714C809.357 644.94 800.453 643.557 792 644.768C779.228 646.597 767.148 650.536 754 649.961C742.707 649.467 731.082 644.441 720 644.728C714.193 644.879 705.673 646.832 701.04 650.43C697.904 652.865 695.935 657.953 691.907 658.971C681.858 661.512 672.265 652.056 665 647z"/>
                            <path style="fill:#dbdbdb; stroke:none;" d="M846 630L847 631L846 630M858 630L859 631L858 630M843 631L844 632L843 631M840 633L841 634L840 633M860.333 633.667L860.667 634.333L860.333 633.667z"/>
                            <path style="fill:#9f9f9f; stroke:none;" d="M668 638L669 639L668 638z"/>
                            <path style="fill:#dbdbdb; stroke:none;" d="M835 639L836 640L835 639M832 640L833 641L832 640M828 641L829 642L828 641M666 642L667 643L666 642M824 642L825 643L824 642M793 643L794 644L793 643M818.667 643.333L819.333 643.667L818.667 643.333z"/>
                            <path style="fill:#c2c2c2; stroke:none;" d="M658 644L659 645L658 644z"/>
                            <path style="fill:#dbdbdb; stroke:none;" d="M794 644L795 645L794 644M810.667 644.333L811.333 644.667L810.667 644.333M667 645L668 646L667 645M789 645L790 646L789 645M862 645L863 646L862 645M665 646L666 647L665 646M729 646L730 647L729 646M785 646L786 647L785 646M734 647L735 648L734 647M780 647L781 648L780 647M862 647L863 648L862 647M703 648L704 649L703 648M740 648L741 649L740 648M774 648L775 649L774 648M749 649L749 650L754 650L749 649M761 649L761 650L765 650L761 649M700 650L701 651L700 650M699 651L700 652L699 651M864 651L865 652L864 651M671 652L672 653L671 652M698 652L699 653L698 652M674 654L675 655L674 654M696 655L697 656L696 655M678 656L679 657L678 656M865 657L866 658L865 657M684 658L685 659L684 658z"/>
                            <path style="fill:#c2c2c2; stroke:none;" d="M668 659L669 660L668 659z"/>
                            <path style="fill:#dbdbdb; stroke:none;" d="M691 659L691 660L694 660L691 659z"/>
                            <path style="fill:#9f9f9f; stroke:none;" d="M669 660L670 661L669 660z"/>
                            <path style="fill:#dbdbdb; stroke:none;" d="M670 660L671 661L670 660z"/>
                            <path style="fill:#c2c2c2; stroke:none;" d="M670 661L671 662L670 661z"/>
                            <path style="fill:#9f9f9f; stroke:none;" d="M671 661L672 662L671 661z"/>
                            <path style="fill:#c2c2c2; stroke:none;" d="M672 662L673 663L672 662z"/>
                            <path style="fill:#dbdbdb; stroke:none;" d="M866 662L867 663L866 662M868 664L869 665L868 664M871 665L872 666L871 665M872 666L873 667L872 666M872 671L873 672L872 671M678.333 672.667L678.667 673.333L678.333 672.667z"/>
                            <path style="fill:#c2c2c2; stroke:none;" d="M678 674L679 675L678 674M872 675L873 676L872 675z"/>
                            <path style="fill:#dbdbdb; stroke:none;" d="M875 678L876 679L875 678M675 680L676 681L675 680M790.667 680.333L791.333 680.667L790.667 680.333M793 680L794 681L793 680M674 682L675 683L674 682M724 682L725 683L724 682M786 682L787 683L786 682M877 682L878 683L877 682M733 683L734 684L733 683M782 683L782 684L785 684L782 683z"/>
                            <path style="fill:#c2c2c2; stroke:none;" d="M795 684L796 685L795 684z"/>
                            <path style="fill:#dbdbdb; stroke:none;" d="M721 685L722 686L721 685M736 685L737 686L736 685M740 685L741 686L740 685M744 685L745 686L744 685M674 687L675 688L674 687M749 687L750 688L749 687M779 687L780 688L779 687M794.333 687.667L794.667 688.333L794.333 687.667M877 688L878 689L877 688M720 689L721 690L720 689M752 689L753 690L752 689M775 690L776 691L775 690M798 690L798 691L803 691L798 690z"/>
                            <path style="fill:#c2c2c2; stroke:none;" d="M803 690L804 691L803 690z"/>
                            <path style="fill:#dbdbdb; stroke:none;" d="M809 690L810 691L809 690M756 691L757 692L756 691z"/>
                            <path style="fill:#c2c2c2; stroke:none;" d="M771 691L772 692L771 691z"/>
                            <path style="fill:#dbdbdb; stroke:none;" d="M810 691L811 692L810 691M675.333 692.667L675.667 693.333L675.333 692.667M719 692L720 693L719 692M769 692L770 693L769 692M811 692L812 693L811 692M814 694L815 695L814 694M718 695L719 696L718 695M760 695L761 696L760 695M761 697L762 698L761 697M876 697L877 698L876 697M717 698L717 701L718 701L717 698M817 698L818 699L817 698M874 698L875 699L874 698M675 699L676 700L675 699M674 700L675 701L674 700M668 701L668 702L671 702L668 701M855 701L856 702L855 701M664 703L665 704L664 703z"/>
                            <path style="fill:#c2c2c2; stroke:none;" d="M854 703L855 704L854 703z"/>
                            <path style="fill:#dbdbdb; stroke:none;" d="M864 704L865 705L864 704z"/>
                            <path style="fill:#c2c2c2; stroke:none;" d="M657 705L658 706L657 705z"/>
                            <path style="fill:#dbdbdb; stroke:none;" d="M708 706L709 707L708 706M820 706L821 707L820 706M652 707L653 708L652 707M650 708L651 709L650 708M848 708L849 709L848 708M709 709L710 710L709 709M847 709L848 710L847 709M653 710L654 711L653 710M820 710L821 711L820 710M834 710L835 711L834 710M838 710L839 711L838 710M840 711L840 712L847 712L840 711M830 712L831 713L830 712M655 713L656 714L655 713M704 714L705 715L704 714M820 714L821 715L820 714M656 715L657 716L656 715M694 715L695 716L694 715M824 715L825 716L824 715M696 716L697 717L696 716M822.667 716.333L823.333 716.667L822.667 716.333M656 720L657 721L656 720M654 722L655 723L654 722M689 722L690 723L689 722M651 724L652 725L651 724M650 725L651 726L650 725M691 727L692 728L691 727M648.333 728.667L648.667 729.333L648.333 728.667M689 729L690 730L689 729M685 730L686 731L685 730M671 734L672 735L671 734M647 736L648 737L647 736M662 737L663 738L662 737M670 737L671 738L670 737M647 738L648 739L647 738M655 738L656 739L655 738M668 740L669 741L668 740z"/>
</svg>
