<?xml version="1.0" standalone="yes"?>
<svg xmlns="http://www.w3.org/2000/svg" width="1450" height="800">
                            <path style="fill:#010101; stroke:none;" d="M0 0L0 800L1450 800L1450 0L0 0z"/>
                            <path style="fill:#e0e0e0; stroke:none;" d="M1404 339L1405 340L1404 339z"/>
                            <path style="fill:#ffffff; stroke:none;" d="M1309 344C1304.91 344.014 1301.85 344.635 1298 345.969C1294.77 347.09 1291.48 346.997 1288.58 348.993C1276.92 357.012 1280.01 374.045 1276.43 385.981C1275.27 389.851 1270.85 390.736 1269.71 394.224C1268.62 397.551 1271.21 401.465 1270.77 405C1270.2 409.633 1266.63 413.333 1266.31 418C1265.96 422.933 1270.88 425.897 1270.65 430.3C1270.2 438.872 1265.84 448.737 1266.05 457C1266.13 460.502 1268.83 463.346 1268.8 467C1268.76 472.487 1265.46 476.379 1267 482C1272.64 479.658 1272.1 473.602 1277.06 471.063C1287.52 465.708 1297.85 475.844 1296 486L1309 477C1308.58 468.297 1320.43 452.688 1329 450.117C1331.97 449.227 1334.14 451.094 1337 451.207C1342.85 451.438 1356.42 442.257 1355 455C1358.61 453.847 1362.32 449.922 1365.94 449.591C1369.28 449.287 1371.15 454.582 1374.06 455.923C1378.17 457.816 1381.99 455.302 1386 456.621C1390.77 458.188 1394.16 464.474 1399.91 462.381C1410.5 458.526 1408.85 442.311 1419 437C1418.53 434.224 1416.95 430.785 1418.13 428.043C1419.9 423.946 1425.33 423.147 1426.7 418.815C1431.92 402.295 1426.92 384.178 1424.3 368C1423.47 362.881 1422.98 352.465 1419.4 348.559C1408.85 337.046 1396.24 339.959 1383 345.478C1367.37 351.992 1373.8 372.443 1360 382.2C1353.46 386.823 1347.41 385.597 1340 385.09C1326.47 384.163 1304.56 382.2 1300.62 365C1299.24 358.975 1306.42 349.474 1309 344z"/>
                            <path style="fill:#e0e0e0; stroke:none;" d="M1408 339L1409 340L1408 339M1400 340L1401 341L1400 340M1409 340L1410 341L1409 340M1396 341L1397 342L1396 341z"/>
                            <path style="fill:#d1d1d1; stroke:none;" d="M1410 341L1411 342L1410 341z"/>
                            <path style="fill:#e0e0e0; stroke:none;" d="M1392 342L1393 343L1392 342M1411 343L1412 344L1411 343z"/>
                            <path style="fill:#d1d1d1; stroke:none;" d="M1300 344L1301 345L1300 344z"/>
                            <path style="fill:#e0e0e0; stroke:none;" d="M1299 345L1300 346L1299 345z"/>
                            <path style="fill:#d1d1d1; stroke:none;" d="M1413 345L1414 346L1413 345z"/>
                            <path style="fill:#e0e0e0; stroke:none;" d="M1291 346L1292 347L1291 346z"/>
                            <path style="fill:#d1d1d1; stroke:none;" d="M1292 346L1293 347L1292 346M1296 346L1297 347L1296 346z"/>
                            <path style="fill:#e0e0e0; stroke:none;" d="M1297 346L1298 347L1297 346M1307 346L1308 347L1307 346M1415 346L1416 347L1415 346z"/>
                            <path style="fill:#d1d1d1; stroke:none;" d="M1419 347L1420 348L1419 347z"/>
                            <path style="fill:#e0e0e0; stroke:none;" d="M1306.33 348.667L1306.67 349.333L1306.33 348.667M1288 349L1289 350L1288 349M1285 351L1286 352L1285 351M1305 352L1306 353L1305 352M1421 353L1421 356L1422 356L1421 353M1282 354L1283 355L1282 354z"/>
                            <path style="fill:#d1d1d1; stroke:none;" d="M1422 359L1423 360L1422 359M1281 361L1282 362L1281 361M1423 361L1424 362L1423 361z"/>
                            <path style="fill:#e0e0e0; stroke:none;" d="M1424 364L1424 370L1425 370L1424 364M1279 366L1280 367L1279 366M1370 367L1371 368L1370 367z"/>
                            <path style="fill:#d1d1d1; stroke:none;" d="M1278 368L1279 369L1278 368z"/>
                            <path style="fill:#e0e0e0; stroke:none;" d="M1301 368L1302 369L1301 368M1302 369L1303 370L1302 369M1303 370L1304 371L1303 370M1369 370L1370 371L1369 370z"/>
                            <path style="fill:#d1d1d1; stroke:none;" d="M1277 371L1278 372L1277 371z"/>
                            <path style="fill:#e0e0e0; stroke:none;" d="M1304 371L1305 372L1304 371M1277 372L1277 375L1278 375L1277 372M1305 372L1306 373L1305 372M1368 372L1369 373L1368 372M1306 373L1307 374L1306 373M1425 373L1426 374L1425 373M1307 374L1308 375L1307 374M1367 374L1368 375L1367 374z"/>
                            <path style="fill:#d1d1d1; stroke:none;" d="M1277 375L1278 376L1277 375z"/>
                            <path style="fill:#e0e0e0; stroke:none;" d="M1308 375L1309 376L1308 375M1426 375L1427 376L1426 375M1277.33 376.667L1277.67 377.333L1277.33 376.667z"/>
                            <path style="fill:#d1d1d1; stroke:none;" d="M1427 376L1428 377L1427 376z"/>
                            <path style="fill:#e0e0e0; stroke:none;" d="M1365 377L1366 378L1365 377M1313 379L1314 380L1313 379M1316 381L1317 382L1316 381M1361 381L1362 382L1361 381z"/>
                            <path style="fill:#d1d1d1; stroke:none;" d="M1428 381L1429 382L1428 381z"/>
                            <path style="fill:#e0e0e0; stroke:none;" d="M1318 382L1319 383L1318 382M1428 382L1429 383L1428 382M1358 383L1359 384L1358 383M1324.67 384.333L1325.33 384.667L1324.67 384.333M1337 384L1337 385L1340 385L1337 384M1356 384L1357 385L1356 384M1343 385L1344 386L1343 385M1353 385L1354 386L1353 385M1428 385L1429 386L1428 385M1276 386L1277 387L1276 386M1275 389L1276 390L1275 389M1274 390L1275 391L1274 390z"/>
                            <path style="fill:#d1d1d1; stroke:none;" d="M1271 391L1272 392L1271 391z"/>
                            <path style="fill:#e0e0e0; stroke:none;" d="M1269 392L1270 393L1269 392M1427 393L1428 394L1427 393z"/>
                            <path style="fill:#d1d1d1; stroke:none;" d="M1427 394L1428 395L1427 394M1269 397L1270 398L1269 397z"/>
                            <path style="fill:#e0e0e0; stroke:none;" d="M1427 397L1428 398L1427 397z"/>
                            <path style="fill:#d1d1d1; stroke:none;" d="M1270 399L1271 400L1270 399z"/>
                            <path style="fill:#e0e0e0; stroke:none;" d="M1428 402L1429 403L1428 402M1270 407L1271 408L1270 407z"/>
                            <path style="fill:#d1d1d1; stroke:none;" d="M1428 410L1429 411L1428 410M1268 411L1269 412L1268 411z"/>
                            <path style="fill:#e0e0e0; stroke:none;" d="M1267 413L1268 414L1267 413M1427 413L1428 414L1427 413M1266 415L1267 416L1266 415M1266 421L1267 422L1266 421M1425 421L1426 422L1425 421M1305.67 423.333L1306.33 423.667L1305.67 423.333M1267 424L1268 425L1267 424M1420 424L1421 425L1420 424z"/>
                            <path style="fill:#d1d1d1; stroke:none;" d="M1417 427L1418 428L1417 427z"/>
                            <path style="fill:#e0e0e0; stroke:none;" d="M1271 428L1272 429L1271 428M1417 431L1418 432L1417 431M1418 433L1419 434L1418 433z"/>
                            <path style="fill:#d1d1d1; stroke:none;" d="M1269 434L1270 435L1269 434z"/>
                            <path style="fill:#e0e0e0; stroke:none;" d="M1417 437L1418 438L1417 437M1268 438L1269 439L1268 438z"/>
                            <path style="fill:#d1d1d1; stroke:none;" d="M1415 438L1416 439L1415 438z"/>
                            <path style="fill:#e0e0e0; stroke:none;" d="M1268 441L1269 442L1268 441z"/>
                            <path style="fill:#d1d1d1; stroke:none;" d="M1268 442L1269 443L1268 442M1410 445L1411 446L1410 445M1349.67 448.333L1350.33 448.667L1349.67 448.333z"/>
                            <path style="fill:#e0e0e0; stroke:none;" d="M1365 448L1366 449L1365 448M1341 449L1342 450L1341 449z"/>
                            <path style="fill:#d1d1d1; stroke:none;" d="M1355 449L1356 450L1355 449z"/>
                            <path style="fill:#e0e0e0; stroke:none;" d="M1409 449L1410 450L1409 449M1268 450L1269 451L1268 450z"/>
                            <path style="fill:#d1d1d1; stroke:none;" d="M1363 450L1364 451L1363 450z"/>
                            <path style="fill:#e0e0e0; stroke:none;" d="M1325 451L1326 452L1325 451M1335 451L1336 452L1335 451M1336 452L1337 453L1336 452z"/>
                            <path style="fill:#d1d1d1; stroke:none;" d="M1337 452L1338 453L1337 452z"/>
                            <path style="fill:#e0e0e0; stroke:none;" d="M1355 452L1356 453L1355 452M1360 452L1361 453L1360 452z"/>
                            <path style="fill:#d1d1d1; stroke:none;" d="M1359 453L1360 454L1359 453z"/>
                            <path style="fill:#e0e0e0; stroke:none;" d="M1266 454L1267 455L1266 454M1357 454L1358 455L1357 454M1370 454L1371 455L1370 454M1265 455L1266 456L1265 455M1372 455L1373 456L1372 455M1406 455L1407 456L1406 455z"/>
                            <path style="fill:#d1d1d1; stroke:none;" d="M1320 456L1321 457L1320 456z"/>
                            <path style="fill:#e0e0e0; stroke:none;" d="M1375 456L1376 457L1375 456M1380 456L1381 457L1380 456M1319 457L1320 458L1319 457M1377 457L1378 458L1377 457M1379 457L1380 458L1379 457z"/>
                            <path style="fill:#d1d1d1; stroke:none;" d="M1389 458L1390 459L1389 458z"/>
                            <path style="fill:#e0e0e0; stroke:none;" d="M1404 458L1405 459L1404 458M1390 459L1391 460L1390 459M1403 459L1404 460L1403 459M1267 460L1268 461L1267 460M1317 460L1318 461L1317 460z"/>
                            <path style="fill:#d1d1d1; stroke:none;" d="M1391 460L1392 461L1391 460z"/>
                            <path style="fill:#e0e0e0; stroke:none;" d="M1316 462L1317 463L1316 462z"/>
                            <path style="fill:#d1d1d1; stroke:none;" d="M1394 462L1395 463L1394 462z"/>
                            <path style="fill:#e0e0e0; stroke:none;" d="M1268 463L1269 464L1268 463M1397 463L1397 464L1400 464L1397 463z"/>
                            <path style="fill:#d1d1d1; stroke:none;" d="M1268 464L1269 465L1268 464z"/>
                            <path style="fill:#e0e0e0; stroke:none;" d="M1310 467L1311 468L1310 467M1309 469L1310 470L1309 469M1268 470L1269 471L1268 470M1276 470L1277 471L1276 470M1281 470L1282 471L1281 470M1283 470L1284 471L1283 470z"/>
                            <path style="fill:#d1d1d1; stroke:none;" d="M1288 470L1289 471L1288 470z"/>
                            <path style="fill:#e0e0e0; stroke:none;" d="M1308 473L1309 474L1308 473M1266 475L1267 476L1266 475M1296 477L1297 478L1296 477M1307 477L1308 478L1307 477z"/>
                            <path style="fill:#d1d1d1; stroke:none;" d="M1308 477L1309 478L1308 477z"/>
                            <path style="fill:#e0e0e0; stroke:none;" d="M1272 478L1273 479L1272 478M1266 481L1267 482L1266 481M1268 481L1269 482L1268 481M1302 482L1303 483L1302 482z"/>
                            <path style="fill:#d1d1d1; stroke:none;" d="M1301 483L1302 484L1301 483z"/>
                            <path style="fill:#75ccff; stroke:none;" d="M1160 706L1161 707L1160 706M1157 708L1158 709L1157 708M1154 709L1155 710L1154 709M1151 710L1152 711L1151 710M1148 711L1149 712L1148 711M1144 712L1145 713L1144 712z"/>
</svg>
