<?xml version="1.0" standalone="yes"?>
<svg xmlns="http://www.w3.org/2000/svg" width="1450" height="800">
<path style="fill:#010101; stroke:none;" d="M0 0L0 800L777 800L998 800L1061 800C1068.11 800 1080.26 802.351 1086.77 799.397C1091.15 797.411 1088.98 792.12 1087.2 789.054C1083.21 782.197 1075.43 768.641 1067 768C1069.05 756.243 1059.18 757.201 1056 767L1059 770C1047.66 767.282 1050.19 760.84 1043.68 754.43C1039.75 750.562 1033.06 751.003 1028 751C1026.87 738.209 1034.11 719.366 1012 723L1007 715L997 719C995.604 714.123 996.349 709.968 991 708C992.515 692.932 981.682 701.145 974 700.174C968.621 699.494 952.75 690.079 950.742 684.985C943.751 667.248 962.683 677.218 968.686 670.772C973.718 665.368 971.404 652.668 970.281 646.058C968.521 635.706 955.904 647.35 951.414 644.289C941.037 637.213 943.282 627.929 941 618C945.272 619.042 948.894 619.716 952.996 617.557C956.851 615.528 958.642 611.522 962.209 609.275C969.304 604.806 978.419 602.456 986 598.755C989.34 597.125 994.141 594.029 998 594.389C1006.89 595.218 1012.84 608.402 1013 616C1005.19 615.406 994.704 633.75 993 641C999.809 639.892 1009.18 627.081 1002 642L1016 646L1015 659L1029 653L1029 649L1022 649L1019 645L1039 631C1038.56 638.324 1036.88 651.091 1040 657.829C1041.72 661.55 1045.53 664.16 1047.87 667.464C1049.62 669.927 1049.77 674.072 1052.43 675.747C1056.9 678.562 1064.04 677.344 1069 679.133C1077.28 682.119 1082.21 684.009 1091 681C1094.08 686.403 1099.99 696.218 1106 698C1101.75 708.424 1105.13 715.448 1104.98 726C1104.84 736.003 1099.34 743.649 1102.42 754C1103.48 757.551 1106.4 759.76 1107.98 763C1112.21 771.713 1105.43 782.697 1121 779C1123.94 788.869 1133.96 788.487 1134 800L1450 800L1450 0L0 0z"/>
<path style="fill:#ffffff; stroke:none;" d="M941 618C942.621 627.83 940.257 638.735 951.414 644.917C956.554 647.765 967.051 635.824 969.833 646.055C971.551 652.371 973.52 665.445 968.57 670.606C961.192 678.298 949.601 664.874 950.022 681C950.075 683.016 950.267 685.038 951.318 686.812C953.744 690.908 969.369 700.574 974 700.852C978.563 701.126 982.066 695.819 986.892 698.222C992.223 700.876 995.356 712.57 996 718L1008 717L1007 715L1008 715L1012 723C1018.98 722.438 1029.83 725.237 1030.05 734C1030.2 740.158 1027.22 744.388 1028 751C1032.99 751.014 1038.85 750.927 1042.85 754.43C1049.96 760.645 1047 767.86 1059 770L1056 767C1059.67 758.604 1068.83 756.087 1067 768C1076.31 769.449 1091.03 791.093 1088 800L1134 800C1133.99 788.338 1125.72 788 1120 779C1105.51 783.608 1111.47 769.407 1107.82 762C1106.4 759.112 1103.77 757.035 1102.59 754C1098.76 744.14 1104.57 736.667 1104.96 727C1105.41 715.951 1102.84 709.065 1106 698L1091 681C1080.46 684.288 1075.96 679.977 1066 678.198C1061.98 677.481 1055.65 677.816 1052.28 675.322C1049.18 673.025 1048.37 668.029 1045.95 665.015C1040.33 658.022 1035.47 646.489 1041 638L1041 637L1039 631C1034.02 634.25 1025.6 636.652 1021.61 640.811C1016.62 646.002 1025.08 648.815 1029 648L1028 654C1022 652.421 1018.45 656.396 1014 660L1016 646C1012.24 646.171 998.882 642.201 1006 638C1005.13 627.054 997.784 640.22 993 641C995.044 634.102 1005.49 615.87 1013 616C1012.94 608.265 1007.59 594.084 998 593.846C989.081 593.626 968.47 604.714 961.184 609.842C958.079 612.028 956.336 615.518 952.96 617.441C948.902 619.753 945.281 619.044 941 618z"/>
<path style="fill:#e3e3e3; stroke:none;" d="M977 602L978 603L977 602M975 603L976 604L975 603M973 604L974 605L973 604M971 605L972 606L971 605M968 606L969 607L968 606M966 607L967 608L966 607M963 608L964 609L963 608M960 609L961 610L960 609M956 615L957 616L956 615M953 617L954 618L953 617M943 618L944 619L943 618M951 618L952 619L951 618M945 619L946 620L945 619M947 619L948 620L947 619M1005 620L1006 621L1005 620M998 630L999 631L998 630M1002 632L1003 633L1002 632M1004 632L1005 633L1004 632z"/>
<path style="fill:#d6d6d6; stroke:none;" d="M996 633L997 634L996 633z"/>
<path style="fill:#e3e3e3; stroke:none;" d="M995 634L996 635L995 634M1000 634L1001 635L1000 634M1006 635L1007 636L1006 635z"/>
<path style="fill:#d6d6d6; stroke:none;" d="M994 636L995 637L994 636z"/>
<path style="fill:#e3e3e3; stroke:none;" d="M998 638L999 639L998 638M1003 638L1004 639L1003 638M1040 638L1041 639L1040 638M1002 639L1003 640L1002 639M1023 639L1024 640L1023 639z"/>
<path style="fill:#d6d6d6; stroke:none;" d="M1039 639L1040 640L1039 639z"/>
<path style="fill:#e3e3e3; stroke:none;" d="M997 640L998 641L997 640M963 641L964 642L963 641M965 641L966 642L965 641M1003 642L1004 643L1003 642M1007 643L1008 644L1007 643M956 644L957 645L956 644M1019 644L1020 645L1019 644M1010 645L1011 646L1010 645M1022 648L1023 649L1022 648M1027.67 648.333L1028.33 648.667L1027.67 648.333M1039 652L1040 653L1039 652M1021 653L1022 654L1021 653M1027 653L1028 654L1027 653M1020 654L1021 655L1020 654M970 655L971 656L970 655M1015 655L1016 656L1015 655M1019 655L1020 656L1019 655M1018 656L1019 657L1018 656M1017 657L1018 658L1017 657z"/>
<path style="fill:#d6d6d6; stroke:none;" d="M1014 658L1015 659L1014 658z"/>
<path style="fill:#01a3ff; stroke:none;" d="M1014 659L1015 660L1014 659z"/>
<path style="fill:#d6d6d6; stroke:none;" d="M1040 659L1041 660L1040 659M1042 660L1043 661L1042 660z"/>
<path style="fill:#e3e3e3; stroke:none;" d="M1043 662L1044 663L1043 662M971 664L972 665L971 664M1045 664L1046 665L1045 664z"/>
<path style="fill:#d6d6d6; stroke:none;" d="M1046 665L1047 666L1046 665M1048 667L1049 668L1048 667z"/>
<path style="fill:#e3e3e3; stroke:none;" d="M1049 669L1049 672L1050 672L1049 669M969 670L970 671L969 670M968 671L969 672L968 671M959 673L960 674L959 673M950 674L951 675L950 674z"/>
<path style="fill:#d6d6d6; stroke:none;" d="M1050 674L1051 675L1050 674M1052 676L1053 677L1052 676z"/>
<path style="fill:#e3e3e3; stroke:none;" d="M1055 676L1056 677L1055 676z"/>
<path style="fill:#d6d6d6; stroke:none;" d="M1057 676L1058 677L1057 676z"/>
<path style="fill:#e3e3e3; stroke:none;" d="M1070 679L1071 680L1070 679M1072 680L1073 681L1072 680M1084 682L1085 683L1084 682z"/>
<path style="fill:#d6d6d6; stroke:none;" d="M1085 682L1086 683L1085 682z"/>
<path style="fill:#e3e3e3; stroke:none;" d="M1087 682L1088 683L1087 682M1091 682L1092 683L1091 682M951 687L952 688L951 687M1096 688L1097 689L1096 688M953 689L954 690L953 689M1097 689L1098 690L1097 689M1098 690L1099 691L1098 690z"/>
<path style="fill:#d6d6d6; stroke:none;" d="M1099 691L1100 692L1099 691z"/>
<path style="fill:#e3e3e3; stroke:none;" d="M1100 694L1101 695L1100 694M1101 696L1102 697L1101 696M982 697L983 698L982 697M986 697L987 698L986 697M977 699L978 700L977 699M989 699L990 700L989 699M991 704L992 705L991 704M991 707L992 708L991 707M1102 709L1103 710L1102 709M995 715L996 716L995 715M1006 716L1007 717L1006 716M1103 716L1104 717L1103 716M997 718L998 719L997 718M1011 718L1012 719L1011 718M1104 719L1105 720L1104 719M1104 731L1105 732L1104 731M1030.33 733.667L1030.67 734.333L1030.33 733.667M1029 738L1030 739L1029 738M1028 740L1029 741L1028 740M1101 740L1102 741L1101 740M1100 744L1101 745L1100 744M1027 746L1028 747L1027 746M1101 748L1102 749L1101 748M1102 755L1103 756L1102 755M1058 759L1059 760L1058 759z"/>
<path style="fill:#d6d6d6; stroke:none;" d="M1108 762L1109 763L1108 762z"/>
<path style="fill:#e3e3e3; stroke:none;" d="M1067 765L1068 766L1067 765M1051 767L1052 768L1051 767M1053 768L1054 769L1053 768M1108 772L1109 773L1108 772z"/>
<path style="fill:#d6d6d6; stroke:none;" d="M1108 773L1109 774L1108 773z"/>
<path style="fill:#e3e3e3; stroke:none;" d="M1108 776L1109 777L1108 776M1111 779L1112 780L1111 779M1120 779L1121 780L1120 779M1114 780L1114 781L1117 781L1114 780M1121 781L1122 782L1121 781M1080 782L1081 783L1080 782M1122 783L1123 784L1122 783z"/>
<path style="fill:#d6d6d6; stroke:none;" d="M1126 787L1127 788L1126 787M1131 789L1132 790L1131 789z"/>
<path style="fill:#e3e3e3; stroke:none;" d="M1088 791L1089 792L1088 791M1089 793L1090 794L1089 793z"/>
</svg>
