<?xml version="1.0" standalone="yes"?>
<svg xmlns="http://www.w3.org/2000/svg" width="1450" height="800">
                        <path class = "L2Border" style = "fill:#010101; stroke:none;" d="M0 0L0 800L455 800L452.417 784.357L461.397 780.678L463.648 765L466.407 757L454 730L439.394 721.945L427.985 705.816L381 690.833L372.178 683.96L368.682 676.816L356 680.671L337 680L337 678C343.504 678.822 350.445 679.786 357 678.787C360.806 678.207 365.038 674.552 368.941 675.708C374.291 677.293 373.739 686.239 380.001 689.135C394.144 695.675 410.342 695.586 424 702.274C439.457 709.844 441.302 732.366 463 730.152C470.535 729.383 486 718.868 489.958 712.582C491.768 709.707 490.324 705.28 491.482 702C492.767 698.364 496.073 694.19 495.381 690.133C494.646 685.827 488.814 685.82 488.163 680.982C486.84 671.149 494.338 662.253 490.258 652.015C488.604 647.865 484.231 646.338 481.702 642.896C476.493 635.804 472.021 619.744 473.19 611C473.853 606.036 477.554 603.243 479.698 599C482.851 592.756 483.406 585.911 487.637 580C491.317 574.86 496.318 571.36 498.072 565C500.312 556.875 495.859 552.491 495.307 545C494.897 539.427 498.819 534.173 502 530L502 529C499.098 526.327 493.365 523.014 492.346 518.997C490.129 510.258 502.849 512.3 507 513C509.803 500.102 501.258 484.769 502.97 471C503.553 466.312 507.473 463.43 508.552 459C509.833 453.745 506.716 448.298 508.742 443C510.908 437.34 517.33 435.208 519.969 429.985C522.501 424.974 519.936 418.356 521.434 413.015C522.41 409.535 526.061 408.058 527.085 404.791C531.385 391.065 520.989 390 511 390L511 389C514.772 388.969 519.328 387.596 522.981 388.473C528.473 389.792 527.915 395.536 528.42 400C529.253 407.375 512.57 427.582 527.059 433.397C539.704 438.472 544.596 420.884 554 417.939C562.96 415.133 572.189 407.108 580.985 405.531C584.849 404.838 587.041 409.18 591.015 408.639C597.356 407.775 603.357 400.967 610 401.527C614.525 401.908 617.048 406.467 621.995 404.808C627.524 402.954 626.697 397.888 630.317 394.513C634.176 390.916 641.389 389.008 646 386C641.801 391.154 636.224 391.264 631.513 395.089C627.213 398.58 627.687 405.016 621 406.369C616.256 407.328 612.89 402.586 608 403.409C602.061 404.408 595.701 410.161 590.015 410.253C586.459 410.311 584.683 406.207 580.961 406.963C571.883 408.805 563.115 416.503 554.005 419.443C541.642 423.432 537.919 443.191 522 432L521 432C516.179 436.112 510.259 439.13 509.319 446C508.725 450.346 510.837 454.699 509.835 459C508.889 463.058 505.412 465.93 504.42 470C503.077 475.509 504.7 483.316 505.09 489C505.505 495.058 510.61 505.334 508.382 510.898C505.969 516.924 495.694 509.01 493.752 517.101C492.512 522.265 500.414 524.553 501.553 529.004C502.594 533.069 497.724 537.826 497.189 542C495.941 551.726 502.409 557.781 498.235 568C495.884 573.756 490.701 576.906 487.468 582.015C484.088 587.355 483.898 593.635 480.914 599C478.24 603.808 474.397 607.07 474.459 613C474.549 621.603 477.591 633.596 482.086 640.96C485.934 647.264 491.94 648.759 492.826 657C493.722 665.329 488.472 672.881 489.238 680.892C489.707 685.808 496.622 685.619 496.639 691.015C496.657 696.75 488.6 704.671 493.028 710.4C497.869 716.664 513.053 719.193 519.985 723.479C523.778 725.824 526.419 729.93 531.004 730.772C537.219 731.913 545.161 727.809 550.852 731.179C558.083 735.462 550.309 747.471 560.015 753.387C569.476 759.153 574.01 751.808 582 747.839C588.03 744.844 596.132 751.644 600.387 747.639C607.618 740.833 608.753 726.182 610.424 717C611.109 713.241 611.915 706.041 616.214 704.569C619.264 703.524 626.946 705.894 630 706.966C633.119 708.061 635.708 709.683 638 712C635.115 710.324 632.239 708.819 629 707.927C625.879 707.066 619.292 704.589 616.279 706.132C612.68 707.975 612.269 714.513 611.611 718C609.856 727.303 608.394 739.257 602.362 746.941C596.909 753.886 591.721 745.996 585 747.816C578.744 749.509 574.495 756.926 568 757.277C561.873 757.608 552.89 751.013 551.684 745C550.77 740.44 555.047 734.161 548.941 731.757C543.012 729.423 536.07 734.259 530 732.092C519.242 728.25 506.635 711.992 494 713.589C484.246 714.821 478.684 724.089 471 728.856C465.766 732.102 459.774 731.625 454 733C457.393 740.614 465.755 747.815 467.633 756C468.479 759.69 465.196 763.438 464.48 767C462.641 776.141 465.774 783.849 453 784L456 800L1450 800L1450 0L0 0z"/>
                        <path class = "L2Border" style = "fill:#909090; stroke:none;" d="M505 370L506 371L505 370z"/>
                        <path class = "L2Border" style = "fill:#797979; stroke:none;" d="M506 370L506 371L509 371L509 370L506 370z"/>
                        <path class = "L2Border" style = "fill:#686868; stroke:none;" d="M507 370L508 371L507 370z"/>
                        <path class = "L2Border" style = "fill:#909090; stroke:none;" d="M509 370L510 375L511 375L509 370z"/>
                        <path class = "L2Border" style = "fill:#797979; stroke:none;" d="M503 371L504 372L503 371z"/>
                        <path class = "L2Border" style = "fill:#686868; stroke:none;" d="M410 387L410 388C416.707 386.962 419.72 379.593 427 380.229C435.66 380.986 444.71 389.158 452.285 392.782C456.252 394.679 459.149 390.798 463 390.847C467.385 390.903 470.242 394.544 475 393.605C490.121 390.619 494.697 377.753 507 372C500.674 370.339 497.401 379.036 493.7 382.815C489.254 387.354 480.286 391.34 474 392.388C470.097 393.039 467.625 390.075 464 389.537C460.42 389.006 457.506 392.392 454.039 391.569C445.244 389.483 437.352 380.357 428 379.193C419.713 378.161 416.96 385.006 410 387M508.667 371.333L509.333 371.667L508.667 371.333z"/>
                        <path class = "L2Border" style = "fill:#909090; stroke:none;" d="M504 372L505 373L504 372z"/>
                        <path class = "L2Border" style = "fill:#686868; stroke:none;" d="M510.333 372.667L510.667 373.333L510.333 372.667M509 374L510 375L509 374z"/>
                        <path class = "L2Border" style = "fill:#797979; stroke:none;" d="M499 375L500 376L499 375z"/>
                        <path class = "L2Border" style = "fill:#bababa; stroke:none;" d="M509 375L510 376L509 375z"/>
                        <path class = "L2Border" style = "fill:#797979; stroke:none;" d="M499 377L500 378L499 377M497 378L498 379L497 378M421 379L422 380L421 379z"/>
                        <path class = "L2Border" style = "fill:#909090; stroke:none;" d="M430 379L431 380L430 379M496 379L497 380L496 379M418 380L419 381L418 380z"/>
                        <path class = "L2Border" style = "fill:#797979; stroke:none;" d="M422 380L423 381L422 380z"/>
                        <path class = "L2Border" style = "fill:#909090; stroke:none;" d="M423 380L424 381L423 380M428 380L429 381L428 380z"/>
                        <path class = "L2Border" style = "fill:#797979; stroke:none;" d="M429 380L430 381L429 380z"/>
                        <path class = "L2Border" style = "fill:#909090; stroke:none;" d="M497 380L498 381L497 380z"/>
                        <path class = "L2Border" style = "fill:#797979; stroke:none;" d="M370 381L372 383L372 381L370 381z"/>
                        <path class = "L2Border" style = "fill:#909090; stroke:none;" d="M372 381L373 382L372 381M417 381L418 382L417 381M419 381L420 382L419 381z"/>
                        <path class = "L2Border" style = "fill:#797979; stroke:none;" d="M432 381L433 382L432 381z"/>
                        <path class = "L2Border" style = "fill:#909090; stroke:none;" d="M434 381L435 382L434 381z"/>
                        <path class = "L2Border" style = "fill:#797979; stroke:none;" d="M496 381L497 382L496 381z"/>
                        <path class = "L2Border" style = "fill:#686868; stroke:none;" d="M349 389L349 390C360.058 391.398 362.245 389.212 371 383L360.985 388.971L349 389M372 382L372 383C380.356 387.498 384.08 390 394 390L394 389L372 382z"/>
                        <path class = "L2Border" style = "fill:#797979; stroke:none;" d="M374 382L375 383L374 382z"/>
                        <path class = "L2Border" style = "fill:#909090; stroke:none;" d="M418 382L419 383L418 382M433 382L434 383L433 382M435 382L436 383L435 382z"/>
                        <path class = "L2Border" style = "fill:#797979; stroke:none;" d="M494 382L495 383L494 382z"/>
                        <path class = "L2Border" style = "fill:#909090; stroke:none;" d="M434 383L435 384L434 383z"/>
                        <path class = "L2Border" style = "fill:#797979; stroke:none;" d="M493 383L494 384L493 383M375 384L376 385L375 384z"/>
                        <path class = "L2Border" style = "fill:#909090; stroke:none;" d="M415 384L416 385L415 384z"/>
                        <path class = "L2Border" style = "fill:#797979; stroke:none;" d="M438 384L439 385L438 384M492 384L493 385L492 384M365 385L366 386L365 385M376 385L377 386L376 385z"/>
                        <path class = "L2Border" style = "fill:#909090; stroke:none;" d="M416 385L417 386L416 385z"/>
                        <path class = "L2Border" style = "fill:#797979; stroke:none;" d="M441 385L442 386L441 385M364 386L365 387L364 386M415 386L416 387L415 386z"/>
                        <path class = "L2Border" style = "fill:#909090; stroke:none;" d="M440 386L441 387L440 386z"/>
                        <path class = "L2Border" style = "fill:#797979; stroke:none;" d="M445 386L446 387L445 386z"/>
                        <path class = "L2Border" style = "fill:#909090; stroke:none;" d="M489 386L490 387L489 386M644 386L644 389L645 389L644 386z"/>
                        <path class = "L2Border" style = "fill:#686868; stroke:none;" d="M645 386L646 387L645 386z"/>
                        <path class = "L2Border" style = "fill:#909090; stroke:none;" d="M365 387L366 388L365 387M405 387L405 388L408 388L405 387z"/>
                        <path class = "L2Border" style = "fill:#797979; stroke:none;" d="M408 387L411 389L408 387M414 387L415 388L414 387M444 387L445 388L444 387M448 387L449 388L448 387z"/>
                        <path class = "L2Border" style = "fill:#909090; stroke:none;" d="M487 387L488 388L487 387z"/>
                        <path class = "L2Border" style = "fill:#797979; stroke:none;" d="M490 387L491 388L490 387M643 387L642 389L643 387z"/>
                        <path class = "L2Border" style = "fill:#686868; stroke:none;" d="M644 387L645 388L644 387z"/>
                        <path class = "L2Border" style = "fill:#909090; stroke:none;" d="M349 388L350 389L349 388z"/>
                        <path class = "L2Border" style = "fill:#797979; stroke:none;" d="M364 388L365 389L364 388M383.667 388.333L384.333 388.667L383.667 388.333z"/>
                        <path class = "L2Border" style = "fill:#909090; stroke:none;" d="M385 388L385 389L392 389L385 388z"/>
                        <path class = "L2Border" style = "fill:#797979; stroke:none;" d="M392 388L392 389L397 390L397 389L392 388z"/>
                        <path class = "L2Border" style = "fill:#686868; stroke:none;" d="M395 388L395 389L409 389L395 388z"/>
                        <path class = "L2Border" style = "fill:#909090; stroke:none;" d="M411.667 388.333L412.333 388.667L411.667 388.333M484 388L485 389L484 388z"/>
                        <path class = "L2Border" style = "fill:#797979; stroke:none;" d="M488 388L489 389L488 388z"/>
                        <path class = "L2Border" style = "fill:#909090; stroke:none;" d="M518.667 388.333L519.333 388.667L518.667 388.333z"/>
                        <path class = "L2Border" style = "fill:#797979; stroke:none;" d="M520 388L520 389L524 389L520 388z"/>
                        <path class = "L2Border" style = "fill:#909090; stroke:none;" d="M524 388L525 389L524 388z"/>
                        <path class = "L2Border" style = "fill:#686868; stroke:none;" d="M643 388L644 389L643 388z"/>
                        <path class = "L2Border" style = "fill:#797979; stroke:none;" d="M353 389L354 390L353 389z"/>
                        <path class = "L2Border" style = "fill:#909090; stroke:none;" d="M381 389L382 390L381 389z"/>
                        <path class = "L2Border" style = "fill:#797979; stroke:none;" d="M382 389L383 390L382 389z"/>
                        <path class = "L2Border" style = "fill:#909090; stroke:none;" d="M397.667 389.333L398.333 389.667L397.667 389.333z"/>
                        <path class = "L2Border" style = "fill:#797979; stroke:none;" d="M450 389L451 390L450 389z"/>
                        <path class = "L2Border" style = "fill:#909090; stroke:none;" d="M460 389L461 390L460 389z"/>
                        <path class = "L2Border" style = "fill:#797979; stroke:none;" d="M465 389L466 390L465 389M481 389L482 390L481 389M485 389L486 390L485 389z"/>
                        <path class = "L2Border" style = "fill:#bababa; stroke:none;" d="M511 389L512 390L511 389z"/>
                        <path class = "L2Border" style = "fill:#909090; stroke:none;" d="M512 389L513 390L512 389z"/>
                        <path class = "L2Border" style = "fill:#797979; stroke:none;" d="M513 389L514 390L513 389z"/>
                        <path class = "L2Border" style = "fill:#686868; stroke:none;" d="M514 389L514 390C519.84 390 525.874 388.941 527 396C530.293 387.495 519.215 389 514 389M528 398L527 398C527.88 405.678 522.473 407.254 521.228 414.004C520.307 419 522.599 425.375 520.088 429.961C517.55 434.594 511.746 436.277 509.318 441.039C506.471 446.624 509.601 452.311 508.682 458C507.96 462.474 504.022 465.508 503.228 470C501.897 477.519 503.085 489.531 504.669 497C505.438 500.626 508.646 506.129 507.303 509.809C505.427 514.949 491.867 508.296 491.867 518.001C491.867 522.781 498.491 524.725 499.833 529.001C501.121 533.1 495.875 538.68 495.366 543C494.53 550.081 500.089 555.467 498.482 563C496.7 571.355 490.257 575.174 485.994 582C482.891 586.968 482.555 592.939 479.864 598C477.067 603.263 473.111 606.591 473.079 613C473.037 621.693 476.557 634.54 481.086 641.96C484.49 647.537 490.202 648.856 491 656L492 656C491.563 648.024 485.802 647 482.086 640.957C477.805 633.996 473.454 620.219 474.228 612C474.687 607.128 478.425 604.116 480.559 600C483.381 594.556 483.76 588.288 487.133 583C491.423 576.274 497.721 572.239 499.482 564C501.16 556.151 495.59 550.115 496.623 543C497.298 538.356 502.856 533.687 501.98 529.039C501.128 524.523 492.794 522.069 494.207 517.044C496.424 509.158 506.994 517.261 508.643 509.941C509.67 505.382 506.655 500.339 505.68 496C504.179 489.319 504.14 480.858 504.055 474C503.983 468.178 508.189 465.23 509.566 460C510.962 454.701 507.975 449.318 509.653 444.004C511.453 438.302 517.593 435.616 521 431L522 431C533.448 444.308 542.149 426.911 550.278 421.089C554.144 418.319 559.698 418.366 564 416.471C570.996 413.39 577.033 408.253 584 405C588.855 415.433 599.189 405.94 607 403.392C612.784 401.505 616.244 407.745 621.999 406.177C628.312 404.456 627.349 399.212 631.317 395.513C634.297 392.735 639.436 392.006 643 390C630.307 388.747 630.378 403.507 620.999 405.049C616.79 405.741 614.08 401.554 610 401.441C603.218 401.254 597.41 407.776 591.015 408.677C587.271 409.205 585.606 404.726 581.961 405.017C573.158 405.721 561.995 415.531 553.005 418.304C545.44 420.637 534.647 443.395 524.589 431.606C514.811 420.146 529.97 408.818 528 398z"/>
                        <path class = "L2Border" style = "fill:#bababa; stroke:none;" d="M350 390L351 391L350 390z"/>
                        <path class = "L2Border" style = "fill:#909090; stroke:none;" d="M351 390L352 391L351 390z"/>
                        <path class = "L2Border" style = "fill:#797979; stroke:none;" d="M352 390L353 391L352 390z"/>
                        <path class = "L2Border" style = "fill:#909090; stroke:none;" d="M458 390L459 391L458 390z"/>
                        <path class = "L2Border" style = "fill:#797979; stroke:none;" d="M461 390L462 391L461 390z"/>
                        <path class = "L2Border" style = "fill:#909090; stroke:none;" d="M464 390L465 391L464 390M467 390L468 391L467 390z"/>
                        <path class = "L2Border" style = "fill:#797979; stroke:none;" d="M527 390L528 391L527 390z"/>
                        <path class = "L2Border" style = "fill:#909090; stroke:none;" d="M639 390L640 391L639 390M357 391L357 392L361 392L357 391z"/>
                        <path class = "L2Border" style = "fill:#797979; stroke:none;" d="M450 391L451 392L450 391M457 391L458 392L457 391M459 391L460 392L459 391z"/>
                        <path class = "L2Border" style = "fill:#909090; stroke:none;" d="M466 391L467 392L466 391z"/>
                        <path class = "L2Border" style = "fill:#797979; stroke:none;" d="M468 391L469 392L468 391M477 391L478 392L477 391z"/>
                        <path class = "L2Border" style = "fill:#909090; stroke:none;" d="M526 391L527 392L526 391M637 391L638 392L637 391M640 391L641 392L640 391M455 392L456 393L455 392z"/>
                        <path class = "L2Border" style = "fill:#797979; stroke:none;" d="M469 392L470 393L469 392M633 392L634 393L633 392M638 392L639 393L638 392M452 393L453 394L452 393M456 393L457 394L456 393M630 393L631 394L630 393z"/>
                        <path class = "L2Border" style = "fill:#909090; stroke:none;" d="M634 393L635 394L634 393M470 394L470 395L473 395L470 394M526 394L527 395L526 394z"/>
                        <path class = "L2Border" style = "fill:#797979; stroke:none;" d="M629 394L630 395L629 394z"/>
                        <path class = "L2Border" style = "fill:#909090; stroke:none;" d="M631 394L632 395L631 394z"/>
                        <path class = "L2Border" style = "fill:#797979; stroke:none;" d="M526 395L528 398L526 395z"/>
                        <path class = "L2Border" style = "fill:#909090; stroke:none;" d="M628 395L629 396L628 395z"/>
                        <path class = "L2Border" style = "fill:#797979; stroke:none;" d="M629 396L630 397L629 396z"/>
                        <path class = "L2Border" style = "fill:#909090; stroke:none;" d="M629 397L630 398L629 397M526 398L527 399L526 398M528 400L529 401L528 400z"/>
                        <path class = "L2Border" style = "fill:#797979; stroke:none;" d="M527 401L528 402L527 401z"/>
                        <path class = "L2Border" style = "fill:#909090; stroke:none;" d="M607 401L608 402L607 401z"/>
                        <path class = "L2Border" style = "fill:#797979; stroke:none;" d="M612 401L613 402L612 401M627 401L628 402L627 401z"/>
                        <path class = "L2Border" style = "fill:#909090; stroke:none;" d="M527 402L528 403L527 402z"/>
                        <path class = "L2Border" style = "fill:#797979; stroke:none;" d="M605 402L606 403L605 402M608 402L609 403L608 402z"/>
                        <path class = "L2Border" style = "fill:#909090; stroke:none;" d="M609 402L609 403L612 403L609 402z"/>
                        <path class = "L2Border" style = "fill:#797979; stroke:none;" d="M626 402L627 403L626 402z"/>
                        <path class = "L2Border" style = "fill:#909090; stroke:none;" d="M603 403L604 404L603 403M606 403L607 404L606 403z"/>
                        <path class = "L2Border" style = "fill:#797979; stroke:none;" d="M613 403L614 404L613 403M625 403L626 404L625 403z"/>
                        <path class = "L2Border" style = "fill:#909090; stroke:none;" d="M581 404L582 405L581 404M601 404L602 405L601 404M604 404L605 405L604 404z"/>
                        <path class = "L2Border" style = "fill:#797979; stroke:none;" d="M614 404L615 405L614 404M623 404L624 405L623 404M527 405L528 406L527 405M582.667 405.333L583.333 405.667L582.667 405.333M602 405L603 406L602 405M615 405L616 406L615 405z"/>
                        <path class = "L2Border" style = "fill:#909090; stroke:none;" d="M617 405L618 406L617 405M620 405L621 406L620 405M624 405L625 406L624 405M528 406L529 407L528 406z"/>
                        <path class = "L2Border" style = "fill:#797979; stroke:none;" d="M578 406L579 407L578 406M580 406L581 407L580 406M584 406L585 407L584 406M595 406L596 407L595 406M597 406L598 407L597 406z"/>
                        <path class = "L2Border" style = "fill:#909090; stroke:none;" d="M616 406L617 407L616 406z"/>
                        <path class = "L2Border" style = "fill:#797979; stroke:none;" d="M621 406L622 407L621 406M525 407L526 408L525 407M527 407L528 408L527 407z"/>
                        <path class = "L2Border" style = "fill:#909090; stroke:none;" d="M576 407L577 408L576 407M579 407L580 408L579 407z"/>
                        <path class = "L2Border" style = "fill:#797979; stroke:none;" d="M594 407L595 408L594 407M523 408L524 409L523 408z"/>
                        <path class = "L2Border" style = "fill:#909090; stroke:none;" d="M526 408L527 409L526 408M574 408L575 409L574 408z"/>
                        <path class = "L2Border" style = "fill:#797979; stroke:none;" d="M577 408L578 409L577 408M585 408L586 409L585 408M522 409L523 410L522 409z"/>
                        <path class = "L2Border" style = "fill:#909090; stroke:none;" d="M524 409L525 410L524 409M575 409L576 410L575 409z"/>
                        <path class = "L2Border" style = "fill:#797979; stroke:none;" d="M588 409L589 410L588 409z"/>
                        <path class = "L2Border" style = "fill:#909090; stroke:none;" d="M589 409L590 410L589 409z"/>
                        <path class = "L2Border" style = "fill:#797979; stroke:none;" d="M590 409L591 410L590 409M593 409L594 410L593 409z"/>
                        <path class = "L2Border" style = "fill:#909090; stroke:none;" d="M523 410L524 411L523 410z"/>
                        <path class = "L2Border" style = "fill:#797979; stroke:none;" d="M571 410L572 411L571 410M573 410L574 411L573 410z"/>
                        <path class = "L2Border" style = "fill:#909090; stroke:none;" d="M587 410L588 411L587 410M591 410L592 411L591 410M521 411L522 412L521 411z"/>
                        <path class = "L2Border" style = "fill:#797979; stroke:none;" d="M522 412L523 413L522 412M568 412L569 413L568 412M570 412L571 413L570 412z"/>
                        <path class = "L2Border" style = "fill:#909090; stroke:none;" d="M566 413L567 414L566 413z"/>
                        <path class = "L2Border" style = "fill:#797979; stroke:none;" d="M567 414L568 415L567 414M563 415L564 416L563 415M560 416L561 417L560 416z"/>
                        <path class = "L2Border" style = "fill:#909090; stroke:none;" d="M555 417L556 418L555 417z"/>
                        <path class = "L2Border" style = "fill:#797979; stroke:none;" d="M556 417L557 418L556 417M561 417L562 418L561 417z"/>
                        <path class = "L2Border" style = "fill:#909090; stroke:none;" d="M551 418L552 419L551 418M557 418L558 419L557 418z"/>
                        <path class = "L2Border" style = "fill:#797979; stroke:none;" d="M549 419L550 420L549 419z"/>
                        <path class = "L2Border" style = "fill:#909090; stroke:none;" d="M553 419L554 420L553 419M550 420L551 421L550 420z"/>
                        <path class = "L2Border" style = "fill:#797979; stroke:none;" d="M548 421L549 422L548 421z"/>
                        <path class = "L2Border" style = "fill:#909090; stroke:none;" d="M520.333 422.667L520.667 423.333L520.333 422.667M546 422L547 423L546 422z"/>
                        <path class = "L2Border" style = "fill:#797979; stroke:none;" d="M546 423L547 424L546 423M547 424L548 425L547 424z"/>
                        <path class = "L2Border" style = "fill:#909090; stroke:none;" d="M547 425L548 426L547 425M522 426L523 427L522 426z"/>
                        <path class = "L2Border" style = "fill:#797979; stroke:none;" d="M545 426L546 427L545 426M521 427L522 428L521 427z"/>
                        <path class = "L2Border" style = "fill:#909090; stroke:none;" d="M521 428L522 429L521 428M542 428L543 429L542 428M543 429L544 430L543 429z"/>
                        <path class = "L2Border" style = "fill:#797979; stroke:none;" d="M520 430L521 431L520 430z"/>
                        <path class = "L2Border" style = "fill:#909090; stroke:none;" d="M539 430L540 431L539 430M519 431L520 432L519 431z"/>
                        <path class = "L2Border" style = "fill:#797979; stroke:none;" d="M521 431L522 432L521 431M523 431L524 432L523 431z"/>
                        <path class = "L2Border" style = "fill:#909090; stroke:none;" d="M538 431L539 432L538 431z"/>
                        <path class = "L2Border" style = "fill:#797979; stroke:none;" d="M540 431L541 432L540 431z"/>
                        <path class = "L2Border" style = "fill:#909090; stroke:none;" d="M518 432L519 433L518 432z"/>
                        <path class = "L2Border" style = "fill:#797979; stroke:none;" d="M520 432L521 433L520 432z"/>
                        <path class = "L2Border" style = "fill:#909090; stroke:none;" d="M522 432L523 433L522 432z"/>
                        <path class = "L2Border" style = "fill:#797979; stroke:none;" d="M524 432L525 433L524 432M537 432L538 433L537 432z"/>
                        <path class = "L2Border" style = "fill:#909090; stroke:none;" d="M539 432L540 433L539 432z"/>
                        <path class = "L2Border" style = "fill:#797979; stroke:none;" d="M517 433L518 434L517 433z"/>
                        <path class = "L2Border" style = "fill:#909090; stroke:none;" d="M519 433L520 434L519 433M523 433L524 434L523 433M535 433L536 434L535 433M518 434L519 435L518 434z"/>
                        <path class = "L2Border" style = "fill:#797979; stroke:none;" d="M525 434L526 435L525 434M528 434L529 435L528 434z"/>
                        <path class = "L2Border" style = "fill:#909090; stroke:none;" d="M529 434L529 435L533 435L529 434z"/>
                        <path class = "L2Border" style = "fill:#797979; stroke:none;" d="M536 434L537 435L536 434z"/>
                        <path class = "L2Border" style = "fill:#909090; stroke:none;" d="M514 435L515 436L514 435M527 435L528 436L527 435z"/>
                        <path class = "L2Border" style = "fill:#797979; stroke:none;" d="M533 435L534 436L533 435z"/>
                        <path class = "L2Border" style = "fill:#909090; stroke:none;" d="M534 435L535 436L534 435z"/>
                        <path class = "L2Border" style = "fill:#797979; stroke:none;" d="M513 436L514 437L513 436M515 436L516 437L515 436M512 438L513 439L512 438M511 439L512 440L511 439z"/>
                        <path class = "L2Border" style = "fill:#909090; stroke:none;" d="M508 442L509 443L508 442z"/>
                        <path class = "L2Border" style = "fill:#797979; stroke:none;" d="M509 443L510 444L509 443z"/>
                        <path class = "L2Border" style = "fill:#909090; stroke:none;" d="M509 444L510 445L509 444M509 451L510 452L509 451z"/>
                        <path class = "L2Border" style = "fill:#797979; stroke:none;" d="M509 452L510 453L509 452z"/>
                        <path class = "L2Border" style = "fill:#909090; stroke:none;" d="M508 453L509 454L508 453M510.333 457.667L510.667 458.333L510.333 457.667M508 460L509 461L508 460z"/>
                        <path class = "L2Border" style = "fill:#797979; stroke:none;" d="M509 461L510 462L509 461M506 463L507 464L506 463M505 464L506 465L505 464z"/>
                        <path class = "L2Border" style = "fill:#909090; stroke:none;" d="M504 465L505 466L504 465M506 465L507 466L506 465M505 466L506 467L505 466z"/>
                        <path class = "L2Border" style = "fill:#797979; stroke:none;" d="M503 467L504 468L503 467z"/>
                        <path class = "L2Border" style = "fill:#909090; stroke:none;" d="M504 468L505 469L504 468M502.333 471.667L502.667 472.333L502.333 471.667M504 477L505 478L504 477z"/>
                        <path class = "L2Border" style = "fill:#797979; stroke:none;" d="M504 478L505 479L504 478M503 479L504 480L503 479z"/>
                        <path class = "L2Border" style = "fill:#909090; stroke:none;" d="M503 480L504 481L503 480M505 492L505 495L506 495L505 492z"/>
                        <path class = "L2Border" style = "fill:#797979; stroke:none;" d="M505 495L506 496L505 495z"/>
                        <path class = "L2Border" style = "fill:#909090; stroke:none;" d="M504 496L505 497L504 496z"/>
                        <path class = "L2Border" style = "fill:#797979; stroke:none;" d="M506 499L507 500L506 499z"/>
                        <path class = "L2Border" style = "fill:#909090; stroke:none;" d="M505 500L506 501L505 500z"/>
                        <path class = "L2Border" style = "fill:#797979; stroke:none;" d="M508 505L509 506L508 505z"/>
                        <path class = "L2Border" style = "fill:#909090; stroke:none;" d="M507 506L508 507L507 506z"/>
                        <path class = "L2Border" style = "fill:#797979; stroke:none;" d="M497 511L498 512L497 511z"/>
                        <path class = "L2Border" style = "fill:#909090; stroke:none;" d="M507 511L508 512L507 511M495 512L496 513L495 512M498 512L499 513L498 512z"/>
                        <path class = "L2Border" style = "fill:#797979; stroke:none;" d="M501 512L502 513L501 512z"/>
                        <path class = "L2Border" style = "fill:#909090; stroke:none;" d="M508 512L509 513L508 512z"/>
                        <path class = "L2Border" style = "fill:#797979; stroke:none;" d="M494 513L495 514L494 513M496 513L497 514L496 513M507 513L508 514L507 513z"/>
                        <path class = "L2Border" style = "fill:#909090; stroke:none;" d="M505.667 514.333L506.333 514.667L505.667 514.333M491 516L492 517L491 516z"/>
                        <path class = "L2Border" style = "fill:#797979; stroke:none;" d="M492.333 517.667L492.667 518.333L492.333 517.667z"/>
                        <path class = "L2Border" style = "fill:#909090; stroke:none;" d="M491 519L492 520L491 519z"/>
                        <path class = "L2Border" style = "fill:#797979; stroke:none;" d="M494 522L495 523L494 522M495 523L496 524L495 523M497 523L498 524L497 523z"/>
                        <path class = "L2Border" style = "fill:#909090; stroke:none;" d="M496 524L497 525L496 524z"/>
                        <path class = "L2Border" style = "fill:#797979; stroke:none;" d="M498 524L499 525L498 524M502 528L503 529L502 528M501 530L502 531L501 530z"/>
                        <path class = "L2Border" style = "fill:#909090; stroke:none;" d="M500 531L501 532L500 531z"/>
                        <path class = "L2Border" style = "fill:#797979; stroke:none;" d="M501 532L502 533L501 532M498 534L499 535L498 534z"/>
                        <path class = "L2Border" style = "fill:#909090; stroke:none;" d="M499 535L500 536L499 535z"/>
                        <path class = "L2Border" style = "fill:#797979; stroke:none;" d="M496 538L497 539L496 538z"/>
                        <path class = "L2Border" style = "fill:#909090; stroke:none;" d="M497 539L498 540L497 539z"/>
                        <path class = "L2Border" style = "fill:#797979; stroke:none;" d="M495 541L496 542L495 541M496 542L497 543L496 542z"/>
                        <path class = "L2Border" style = "fill:#909090; stroke:none;" d="M496 543L496 546L497 546L496 543z"/>
                        <path class = "L2Border" style = "fill:#797979; stroke:none;" d="M496 546L497 547L496 546z"/>
                        <path class = "L2Border" style = "fill:#909090; stroke:none;" d="M495 547L496 548L495 547z"/>
                        <path class = "L2Border" style = "fill:#797979; stroke:none;" d="M497 549L498 550L497 549M497 551L498 552L497 551M499 552L500 553L499 552z"/>
                        <path class = "L2Border" style = "fill:#909090; stroke:none;" d="M500 555L500 560L501 560L500 555M498 563L499 564L498 563z"/>
                        <path class = "L2Border" style = "fill:#797979; stroke:none;" d="M499 564L500 565L499 564M498 567L499 568L498 567M496 569L497 570L496 569z"/>
                        <path class = "L2Border" style = "fill:#909090; stroke:none;" d="M497 570L498 571L497 570z"/>
                        <path class = "L2Border" style = "fill:#797979; stroke:none;" d="M495 571L496 572L495 571z"/>
                        <path class = "L2Border" style = "fill:#909090; stroke:none;" d="M494 572L495 573L494 572M493 573L494 574L493 573z"/>
                        <path class = "L2Border" style = "fill:#797979; stroke:none;" d="M495 573L496 574L495 573z"/>
                        <path class = "L2Border" style = "fill:#909090; stroke:none;" d="M492 574L493 575L492 574z"/>
                        <path class = "L2Border" style = "fill:#797979; stroke:none;" d="M494 574L495 575L494 574z"/>
                        <path class = "L2Border" style = "fill:#909090; stroke:none;" d="M491 575L492 576L491 575M493 575L494 576L493 575z"/>
                        <path class = "L2Border" style = "fill:#797979; stroke:none;" d="M490 576L491 577L490 576z"/>
                        <path class = "L2Border" style = "fill:#909090; stroke:none;" d="M492 576L493 577L492 576z"/>
                        <path class = "L2Border" style = "fill:#797979; stroke:none;" d="M489 577L490 578L489 577M488 578L489 579L488 578z"/>
                        <path class = "L2Border" style = "fill:#909090; stroke:none;" d="M487 579L488 580L487 579M488 580L489 581L488 580z"/>
                        <path class = "L2Border" style = "fill:#797979; stroke:none;" d="M486 583L487 584L486 583M485 585L486 586L485 585M483 587L484 588L483 587z"/>
                        <path class = "L2Border" style = "fill:#909090; stroke:none;" d="M482 589L483 590L482 589z"/>
                        <path class = "L2Border" style = "fill:#797979; stroke:none;" d="M483 590L484 591L483 590M481 593L482 594L481 593M482 594L483 595L482 594z"/>
                        <path class = "L2Border" style = "fill:#909090; stroke:none;" d="M482 595L483 596L482 595M480 597L481 598L480 597z"/>
                        <path class = "L2Border" style = "fill:#797979; stroke:none;" d="M481 598L482 599L481 598M480 600L481 601L480 600z"/>
                        <path class = "L2Border" style = "fill:#909090; stroke:none;" d="M474 605L475 606L474 605z"/>
                        <path class = "L2Border" style = "fill:#797979; stroke:none;" d="M475 606L476 607L475 606M473 608L474 609L473 608M474 609L475 610L474 609z"/>
                        <path class = "L2Border" style = "fill:#909090; stroke:none;" d="M474 610L475 611L474 610M474.333 614.667L474.667 615.333L474.333 614.667z"/>
                        <path class = "L2Border" style = "fill:#797979; stroke:none;" d="M474 616L475 617L474 616M473 617L474 618L473 617z"/>
                        <path class = "L2Border" style = "fill:#909090; stroke:none;" d="M473 618L474 619L473 618M475 621L476 622L475 621z"/>
                        <path class = "L2Border" style = "fill:#797979; stroke:none;" d="M474 622L475 623L474 622M476 625L477 626L476 625z"/>
                        <path class = "L2Border" style = "fill:#909090; stroke:none;" d="M475 626L476 627L475 626z"/>
                        <path class = "L2Border" style = "fill:#797979; stroke:none;" d="M477 628L478 629L477 628z"/>
                        <path class = "L2Border" style = "fill:#909090; stroke:none;" d="M476 629L477 630L476 629z"/>
                        <path class = "L2Border" style = "fill:#797979; stroke:none;" d="M478 631L479 632L478 631z"/>
                        <path class = "L2Border" style = "fill:#909090; stroke:none;" d="M477 632L478 633L477 632M479 634L480 635L479 634z"/>
                        <path class = "L2Border" style = "fill:#797979; stroke:none;" d="M478 635L479 636L478 635z"/>
                        <path class = "L2Border" style = "fill:#909090; stroke:none;" d="M480 637L481 638L480 637z"/>
                        <path class = "L2Border" style = "fill:#797979; stroke:none;" d="M479 638L480 639L479 638z"/>
                        <path class = "L2Border" style = "fill:#909090; stroke:none;" d="M481 640L482 641L481 640z"/>
                        <path class = "L2Border" style = "fill:#797979; stroke:none;" d="M480 641L481 642L480 641M482 642L483 643L482 642z"/>
                        <path class = "L2Border" style = "fill:#909090; stroke:none;" d="M481 643L482 644L481 643M483 643L484 644L483 643z"/>
                        <path class = "L2Border" style = "fill:#797979; stroke:none;" d="M482 644L483 645L482 644M484 644L485 645L484 644z"/>
                        <path class = "L2Border" style = "fill:#909090; stroke:none;" d="M483 645L484 646L483 645M486 645L487 646L486 645z"/>
                        <path class = "L2Border" style = "fill:#797979; stroke:none;" d="M485 646L486 647L485 646z"/>
                        <path class = "L2Border" style = "fill:#909090; stroke:none;" d="M489 647L490 648L489 647M488 648L489 649L488 648M490 648L491 649L490 648M489 649L490 650L489 649z"/>
                        <path class = "L2Border" style = "fill:#797979; stroke:none;" d="M491 650L492 651L491 650z"/>
                        <path class = "L2Border" style = "fill:#909090; stroke:none;" d="M490 651L491 652L490 651M492 654L493 655L492 654z"/>
                        <path class = "L2Border" style = "fill:#797979; stroke:none;" d="M492 655L491 658L492 655z"/>
                        <path class = "L2Border" style = "fill:#686868; stroke:none;" d="M492 657C491.935 664.913 487.136 673.351 488.163 680.982C488.816 685.836 494.98 686.38 495.353 691.044C495.602 694.142 491.411 711.144 489.397 713.301C486.413 716.494 481.336 717.916 478 721.042C472.615 726.089 466.193 732.469 458 730.348C452.946 729.04 444.054 725.701 440.558 721.775C435.987 716.643 435.897 710.069 429.995 705.61C418.618 697.014 403.642 699.44 391 694.124C386.084 692.057 378.924 689.839 375.318 685.786C372.893 683.061 373.661 678.045 370.566 676.043C366.797 673.605 360.716 677.93 357 679L357 680L369.566 677.133L374.318 686.786L389 694.688L428.985 706.789L439.419 722.775L455 730C450.873 738.158 462.76 747.501 465.768 755C467.331 758.897 464.081 762.275 463.343 766C461.182 776.912 464.495 780.772 452 783L452 784C465.653 783.245 461.99 777.785 464.394 767C465.302 762.925 468.715 759.375 467.24 755C464.583 747.119 457.785 740.336 454 733C460.132 731.539 466.57 732.101 472 728.348C479.024 723.493 485.471 713.809 495 713.488C499.713 713.329 503.966 717.583 508 719.508C519.926 725.199 527.551 732 541 732L541 731C522.568 731 510.365 712.393 492 712L496.678 690.055L489.243 678.995L492 657z"/>
                        <path class = "L2Border" style = "fill:#909090; stroke:none;" d="M491.333 658.667L491.667 659.333L491.333 658.667M491 663L492 664L491 663z"/>
                        <path class = "L2Border" style = "fill:#797979; stroke:none;" d="M491 664L492 665L491 664z"/>
                        <path class = "L2Border" style = "fill:#909090; stroke:none;" d="M492 665L493 666L492 665M490 668L491 669L490 668z"/>
                        <path class = "L2Border" style = "fill:#797979; stroke:none;" d="M490 669L491 670L490 669z"/>
                        <path class = "L2Border" style = "fill:#909090; stroke:none;" d="M491 670L492 671L491 670z"/>
                        <path class = "L2Border" style = "fill:#797979; stroke:none;" d="M489 672L490 673L489 672z"/>
                        <path class = "L2Border" style = "fill:#909090; stroke:none;" d="M365 675L366 676L365 675M488 675L489 676L488 675M363 676L364 677L363 676z"/>
                        <path class = "L2Border" style = "fill:#797979; stroke:none;" d="M366 676L367 677L366 676M370 676L371 677L370 676M489 676L490 677L489 676z"/>
                        <path class = "L2Border" style = "fill:#909090; stroke:none;" d="M361 677L362 678L361 677z"/>
                        <path class = "L2Border" style = "fill:#797979; stroke:none;" d="M364 677L365 678L364 677M372 677L373 678L372 677z"/>
                        <path class = "L2Border" style = "fill:#909090; stroke:none;" d="M489 677L490 678L489 677z"/>
                        <path class = "L2Border" style = "fill:#bababa; stroke:none;" d="M337.333 678.667L337.667 679.333L337.333 678.667z"/>
                        <path class = "L2Border" style = "fill:#686868; stroke:none;" d="M338 678L338 679L356 681L356 680L338 678z"/>
                        <path class = "L2Border" style = "fill:#797979; stroke:none;" d="M339 678L340 679L339 678z"/>
                        <path class = "L2Border" style = "fill:#909090; stroke:none;" d="M340 678L341 679L340 678M359 678L360 679L359 678z"/>
                        <path class = "L2Border" style = "fill:#797979; stroke:none;" d="M362 678L363 679L362 678z"/>
                        <path class = "L2Border" style = "fill:#909090; stroke:none;" d="M371.333 678.667L371.667 679.333L371.333 678.667z"/>
                        <path class = "L2Border" style = "fill:#797979; stroke:none;" d="M338 679L339 680L338 679M350.667 679.333L351.333 679.667L350.667 679.333z"/>
                        <path class = "L2Border" style = "fill:#909090; stroke:none;" d="M352 679L352 680L355 680L352 679z"/>
                        <path class = "L2Border" style = "fill:#797979; stroke:none;" d="M355 679L358 681L355 679M360 679L361 680L360 679z"/>
                        <path class = "L2Border" style = "fill:#909090; stroke:none;" d="M346.667 680.333L347.333 680.667L346.667 680.333z"/>
                        <path class = "L2Border" style = "fill:#797979; stroke:none;" d="M348.667 680.333L349.333 680.667L348.667 680.333M371 680L371 683L372 683L371 680z"/>
                        <path class = "L2Border" style = "fill:#909090; stroke:none;" d="M371 683L372 684L371 683z"/>
                        <path class = "L2Border" style = "fill:#797979; stroke:none;" d="M488 684L489 685L488 684z"/>
                        <path class = "L2Border" style = "fill:#909090; stroke:none;" d="M490 684L491 685L490 684z"/>
                        <path class = "L2Border" style = "fill:#797979; stroke:none;" d="M372 685L373 686L372 685M489 685L490 686L489 685z"/>
                        <path class = "L2Border" style = "fill:#909090; stroke:none;" d="M493 685L494 686L493 685z"/>
                        <path class = "L2Border" style = "fill:#797979; stroke:none;" d="M373 686L374 687L373 686M492 686L493 687L492 686M374 687L375 688L374 687M376 687L377 688L376 687M496 687L497 688L496 687M378 688L379 689L378 688z"/>
                        <path class = "L2Border" style = "fill:#909090; stroke:none;" d="M495 688L496 689L495 688M377 689L378 690L377 689z"/>
                        <path class = "L2Border" style = "fill:#797979; stroke:none;" d="M380 689L381 690L380 689z"/>
                        <path class = "L2Border" style = "fill:#909090; stroke:none;" d="M383 690L384 691L383 690z"/>
                        <path class = "L2Border" style = "fill:#797979; stroke:none;" d="M382 691L383 692L382 691z"/>
                        <path class = "L2Border" style = "fill:#909090; stroke:none;" d="M385 691L386 692L385 691M384 692L385 693L384 692z"/>
                        <path class = "L2Border" style = "fill:#797979; stroke:none;" d="M387 692L388 693L387 692z"/>
                        <path class = "L2Border" style = "fill:#909090; stroke:none;" d="M495 692L496 693L495 692M386 693L387 694L386 693z"/>
                        <path class = "L2Border" style = "fill:#797979; stroke:none;" d="M389 693L390 694L389 693M496 693L497 694L496 693z"/>
                        <path class = "L2Border" style = "fill:#909090; stroke:none;" d="M388 694L389 695L388 694z"/>
                        <path class = "L2Border" style = "fill:#797979; stroke:none;" d="M391 694L392 695L391 694z"/>
                        <path class = "L2Border" style = "fill:#909090; stroke:none;" d="M390 695L391 696L390 695z"/>
                        <path class = "L2Border" style = "fill:#797979; stroke:none;" d="M394 695L395 696L394 695M494 695L495 696L494 695z"/>
                        <path class = "L2Border" style = "fill:#909090; stroke:none;" d="M393 696L394 697L393 696z"/>
                        <path class = "L2Border" style = "fill:#797979; stroke:none;" d="M398 696L399 697L398 696z"/>
                        <path class = "L2Border" style = "fill:#909090; stroke:none;" d="M399 696L400 697L399 696z"/>
                        <path class = "L2Border" style = "fill:#797979; stroke:none;" d="M397 697L398 698L397 697z"/>
                        <path class = "L2Border" style = "fill:#909090; stroke:none;" d="M404.667 697.333L405.333 697.667L404.667 697.333z"/>
                        <path class = "L2Border" style = "fill:#797979; stroke:none;" d="M493 697L494 698L493 697z"/>
                        <path class = "L2Border" style = "fill:#909090; stroke:none;" d="M402 698L403 699L402 698z"/>
                        <path class = "L2Border" style = "fill:#797979; stroke:none;" d="M403 698L404 699L403 698z"/>
                        <path class = "L2Border" style = "fill:#909090; stroke:none;" d="M410 698L411 699L410 698M408 699L409 700L408 699z"/>
                        <path class = "L2Border" style = "fill:#797979; stroke:none;" d="M409 699L410 700L409 699M415 699L416 700L415 699M492 699L493 700L492 699z"/>
                        <path class = "L2Border" style = "fill:#909090; stroke:none;" d="M413 700L414 701L413 700z"/>
                        <path class = "L2Border" style = "fill:#797979; stroke:none;" d="M414 700L415 701L414 700z"/>
                        <path class = "L2Border" style = "fill:#909090; stroke:none;" d="M420 700L421 701L420 700M418 701L419 702L418 701z"/>
                        <path class = "L2Border" style = "fill:#797979; stroke:none;" d="M419 701L420 702L419 701M491 701L492 702L491 701z"/>
                        <path class = "L2Border" style = "fill:#909090; stroke:none;" d="M492 702L493 703L492 702z"/>
                        <path class = "L2Border" style = "fill:#797979; stroke:none;" d="M426 703L427 704L426 703z"/>
                        <path class = "L2Border" style = "fill:#909090; stroke:none;" d="M616.667 703.333L617.333 703.667L616.667 703.333M425 704L426 705L425 704M428 704L429 705L428 704M490 704L491 705L490 704z"/>
                        <path class = "L2Border" style = "fill:#797979; stroke:none;" d="M614 704L615 705L614 704z"/>
                        <path class = "L2Border" style = "fill:#686868; stroke:none;" d="M542 730L542 731C558.291 731.147 547.315 746.371 559.001 754.146C570.978 762.114 575.389 749.404 586 747.663C590.558 746.915 594.488 751.614 598.895 750.292C607.921 747.584 610.179 725.675 611.576 718C612.207 714.529 612.508 707.943 616.278 706.237C621.771 703.751 632.617 709.531 638 711C635.332 708.846 632.327 707.65 629 706.757C625.536 705.827 618.599 703.189 615.278 705.068C611.32 707.307 611.126 714.076 610.389 718C608.634 727.345 607.113 739.214 600.895 746.836C596.805 751.851 591.255 745.601 586 746.348C578.943 747.351 574.85 755.29 568 755.758C561.993 756.168 553.651 750.12 553.049 744C552.699 740.454 554.968 736.579 552.968 733.228C550.754 729.518 545.703 730.011 542 730z"/>
                        <path class = "L2Border" style = "fill:#797979; stroke:none;" d="M619 704L620 705L619 704z"/>
                        <path class = "L2Border" style = "fill:#909090; stroke:none;" d="M427 705L428 706L427 705z"/>
                        <path class = "L2Border" style = "fill:#797979; stroke:none;" d="M490.333 705.667L490.667 706.333L490.333 705.667z"/>
                        <path class = "L2Border" style = "fill:#909090; stroke:none;" d="M615 705L616 706L615 705M431 706L432 707L431 706z"/>
                        <path class = "L2Border" style = "fill:#797979; stroke:none;" d="M614 706L615 707L614 706M628 706L629 707L628 706z"/>
                        <path class = "L2Border" style = "fill:#909090; stroke:none;" d="M629 706L630 707L629 706M430 707L431 708L430 707z"/>
                        <path class = "L2Border" style = "fill:#797979; stroke:none;" d="M432 707L433 708L432 707z"/>
                        <path class = "L2Border" style = "fill:#909090; stroke:none;" d="M490 707L491 708L490 707M627 707L628 708L627 707z"/>
                        <path class = "L2Border" style = "fill:#797979; stroke:none;" d="M631 707L632 708L631 707M433 708L434 709L433 708M612 708L613 709L612 708z"/>
                        <path class = "L2Border" style = "fill:#909090; stroke:none;" d="M434 709L435 710L434 709M613 709L614 710L613 709z"/>
                        <path class = "L2Border" style = "fill:#797979; stroke:none;" d="M633 709L634 710L633 709z"/>
                        <path class = "L2Border" style = "fill:#909090; stroke:none;" d="M433 710L434 711L433 710z"/>
                        <path class = "L2Border" style = "fill:#797979; stroke:none;" d="M635 710L636 711L635 710z"/>
                        <path class = "L2Border" style = "fill:#909090; stroke:none;" d="M492 711L493 712L492 711M611 711L612 712L611 711M637 711L638 712L637 711M498 712L499 713L498 712z"/>
                        <path class = "L2Border" style = "fill:#797979; stroke:none;" d="M612 712L613 713L612 712M436 713L437 714L436 713M490 713L491 714L490 713z"/>
                        <path class = "L2Border" style = "fill:#909090; stroke:none;" d="M492 713L493 714L492 713M496 713L497 714L496 713z"/>
                        <path class = "L2Border" style = "fill:#797979; stroke:none;" d="M497 713L498 714L497 713z"/>
                        <path class = "L2Border" style = "fill:#909090; stroke:none;" d="M612 713L613 714L612 713M435 714L436 715L435 714M488 714L489 715L488 714z"/>
                        <path class = "L2Border" style = "fill:#797979; stroke:none;" d="M502 714L503 715L502 714z"/>
                        <path class = "L2Border" style = "fill:#909090; stroke:none;" d="M485 715L486 716L485 715z"/>
                        <path class = "L2Border" style = "fill:#797979; stroke:none;" d="M489 715L490 716L489 715z"/>
                        <path class = "L2Border" style = "fill:#909090; stroke:none;" d="M437 716L438 717L437 716M483 716L484 717L483 716z"/>
                        <path class = "L2Border" style = "fill:#797979; stroke:none;" d="M486 716L487 717L486 716z"/>
                        <path class = "L2Border" style = "fill:#909090; stroke:none;" d="M610 716L611 717L610 716z"/>
                        <path class = "L2Border" style = "fill:#797979; stroke:none;" d="M436 717L437 718L436 717z"/>
                        <path class = "L2Border" style = "fill:#909090; stroke:none;" d="M484 717L485 718L484 717z"/>
                        <path class = "L2Border" style = "fill:#797979; stroke:none;" d="M504 717L505 718L504 717M506 717L507 718L506 717M610 717L611 718L610 717M508 718L509 719L508 718z"/>
                        <path class = "L2Border" style = "fill:#909090; stroke:none;" d="M611 718L612 719L611 718z"/>
                        <path class = "L2Border" style = "fill:#797979; stroke:none;" d="M438 719L439 720L438 719M481 719L482 720L481 719z"/>
                        <path class = "L2Border" style = "fill:#909090; stroke:none;" d="M507 719L508 720L507 719M511 719L512 720L511 719z"/>
                        <path class = "L2Border" style = "fill:#797979; stroke:none;" d="M480 720L481 721L480 720M510 720L511 721L510 720M513 720L514 721L513 720M479 721L480 722L479 721z"/>
                        <path class = "L2Border" style = "fill:#909090; stroke:none;" d="M516 721L517 722L516 721z"/>
                        <path class = "L2Border" style = "fill:#797979; stroke:none;" d="M440 722L441 723L440 722M478 722L479 723L478 722z"/>
                        <path class = "L2Border" style = "fill:#909090; stroke:none;" d="M515 722L516 723L515 722z"/>
                        <path class = "L2Border" style = "fill:#797979; stroke:none;" d="M518 722L519 723L518 722M609 722L610 723L609 722M441 723L442 724L441 723M477 723L478 724L477 723M520 723L521 724L520 723M610 723L611 724L610 723z"/>
                        <path class = "L2Border" style = "fill:#909090; stroke:none;" d="M443 724L444 725L443 724z"/>
                        <path class = "L2Border" style = "fill:#797979; stroke:none;" d="M476 724L477 725L476 724z"/>
                        <path class = "L2Border" style = "fill:#909090; stroke:none;" d="M519 724L520 725L519 724M610 724L611 725L610 724z"/>
                        <path class = "L2Border" style = "fill:#797979; stroke:none;" d="M442 725L443 726L442 725z"/>
                        <path class = "L2Border" style = "fill:#909090; stroke:none;" d="M446 725L447 726L446 725M473 725L474 726L473 725z"/>
                        <path class = "L2Border" style = "fill:#797979; stroke:none;" d="M475 725L476 726L475 725M521 725L522 726L521 725z"/>
                        <path class = "L2Border" style = "fill:#909090; stroke:none;" d="M523 725L524 726L523 725z"/>
                        <path class = "L2Border" style = "fill:#797979; stroke:none;" d="M445 726L446 727L445 726z"/>
                        <path class = "L2Border" style = "fill:#909090; stroke:none;" d="M472 726L473 727L472 726z"/>
                        <path class = "L2Border" style = "fill:#797979; stroke:none;" d="M474 726L475 727L474 726z"/>
                        <path class = "L2Border" style = "fill:#909090; stroke:none;" d="M522 726L523 727L522 726M524 726L525 727L524 726M451 727L452 728L451 727z"/>
                        <path class = "L2Border" style = "fill:#797979; stroke:none;" d="M471 727L472 728L471 727z"/>
                        <path class = "L2Border" style = "fill:#909090; stroke:none;" d="M473 727L474 728L473 727M523 727L524 728L523 727M608 727L609 728L608 727z"/>
                        <path class = "L2Border" style = "fill:#797979; stroke:none;" d="M450 728L451 729L450 728M453 728L454 729L453 728z"/>
                        <path class = "L2Border" style = "fill:#909090; stroke:none;" d="M469 728L470 729L469 728z"/>
                        <path class = "L2Border" style = "fill:#797979; stroke:none;" d="M524 728L525 729L524 728M609 728L610 729L609 728z"/>
                        <path class = "L2Border" style = "fill:#909090; stroke:none;" d="M452 729L453 730L452 729z"/>
                        <path class = "L2Border" style = "fill:#797979; stroke:none;" d="M455 729L456 730L455 729M467 729L468 730L467 729z"/>
                        <path class = "L2Border" style = "fill:#909090; stroke:none;" d="M470 729L471 730L470 729M454.333 730.667L454.667 731.333L454.333 730.667z"/>
                        <path class = "L2Border" style = "fill:#797979; stroke:none;" d="M457 730L458 731L457 730z"/>
                        <path class = "L2Border" style = "fill:#909090; stroke:none;" d="M458.667 730.333L459.333 730.667L458.667 730.333M461.667 730.333L462.333 730.667L461.667 730.333z"/>
                        <path class = "L2Border" style = "fill:#797979; stroke:none;" d="M463 730L464 731L463 730z"/>
                        <path class = "L2Border" style = "fill:#909090; stroke:none;" d="M468 730L469 731L468 730M528 730L529 731L528 730M540 730L541 731L540 730z"/>
                        <path class = "L2Border" style = "fill:#797979; stroke:none;" d="M541.333 730.667L541.667 731.333L541.333 730.667M550 730L551 731L550 730M464 731L465 732L464 731M527 731L528 732L527 731z"/>
                        <path class = "L2Border" style = "fill:#909090; stroke:none;" d="M542.667 731.333L543.333 731.667L542.667 731.333M549 731L550 732L549 731M552 731L553 732L552 731M607 731L608 732L607 731M455 732L456 733L455 732M530 732L531 733L530 732z"/>
                        <path class = "L2Border" style = "fill:#797979; stroke:none;" d="M531 732L531 733L534 733L531 732z"/>
                        <path class = "L2Border" style = "fill:#909090; stroke:none;" d="M534.667 732.333L535.333 732.667L534.667 732.333M551 732L552 733L551 732M553 732L554 733L553 732z"/>
                        <path class = "L2Border" style = "fill:#797979; stroke:none;" d="M608 732L609 733L608 732M552 733L553 734L552 733M606 735L607 736L606 735M455 736L456 737L455 736M456 737L457 738L456 737z"/>
                        <path class = "L2Border" style = "fill:#909090; stroke:none;" d="M552 737L553 738L552 737M605 737L606 738L605 737M455 738L456 739L455 738M457 738L458 739L457 738z"/>
                        <path class = "L2Border" style = "fill:#797979; stroke:none;" d="M552 738L553 739L552 738M606 738L607 739L606 738z"/>
                        <path class = "L2Border" style = "fill:#909090; stroke:none;" d="M456 739L457 740L456 739z"/>
                        <path class = "L2Border" style = "fill:#797979; stroke:none;" d="M553 739L554 740L553 739M457 740L458 741L457 740z"/>
                        <path class = "L2Border" style = "fill:#909090; stroke:none;" d="M604 740L605 741L604 740M605 741L606 742L605 741M460 742L461 743L460 742M551 742L552 743L551 742M459 743L460 744L459 743z"/>
                        <path class = "L2Border" style = "fill:#797979; stroke:none;" d="M551 743L552 744L551 743M604 743L605 744L604 743z"/>
                        <path class = "L2Border" style = "fill:#909090; stroke:none;" d="M461 744L462 745L461 744M552 744L553 745L552 744M602 744L603 745L602 744z"/>
                        <path class = "L2Border" style = "fill:#797979; stroke:none;" d="M460 745L461 746L460 745M552 745L553 746L552 745M603 745L604 746L603 745M551 746L552 747L551 746z"/>
                        <path class = "L2Border" style = "fill:#909090; stroke:none;" d="M584 746L585 747L584 746M601 746L602 747L601 746z"/>
                        <path class = "L2Border" style = "fill:#797979; stroke:none;" d="M553 747L554 748L553 747M585 747L586 748L585 747M592 747L593 748L592 747z"/>
                        <path class = "L2Border" style = "fill:#909090; stroke:none;" d="M602 747L603 748L602 747M462 748L463 749L462 748M554 748L555 749L554 748z"/>
                        <path class = "L2Border" style = "fill:#797979; stroke:none;" d="M582 748L583 749L582 748z"/>
                        <path class = "L2Border" style = "fill:#909090; stroke:none;" d="M594 748L595 749L594 748M461 749L462 750L461 749M463 749L464 750L463 749z"/>
                        <path class = "L2Border" style = "fill:#797979; stroke:none;" d="M553 749L554 750L553 749z"/>
                        <path class = "L2Border" style = "fill:#909090; stroke:none;" d="M578 749L579 750L578 749M593 749L594 750L593 749M596 749L597 750L596 749z"/>
                        <path class = "L2Border" style = "fill:#797979; stroke:none;" d="M599 749L600 750L599 749z"/>
                        <path class = "L2Border" style = "fill:#909090; stroke:none;" d="M462 750L463 751L462 750M464 750L465 751L464 750z"/>
                        <path class = "L2Border" style = "fill:#797979; stroke:none;" d="M554 750L555 751L554 750M577 750L578 751L577 750z"/>
                        <path class = "L2Border" style = "fill:#909090; stroke:none;" d="M579 750L580 751L579 750z"/>
                        <path class = "L2Border" style = "fill:#797979; stroke:none;" d="M595 750L596 751L595 750z"/>
                        <path class = "L2Border" style = "fill:#909090; stroke:none;" d="M463 751L464 752L463 751M465 751L466 752L465 751z"/>
                        <path class = "L2Border" style = "fill:#797979; stroke:none;" d="M555 751L556 752L555 751z"/>
                        <path class = "L2Border" style = "fill:#909090; stroke:none;" d="M557 751L558 752L557 751z"/>
                        <path class = "L2Border" style = "fill:#797979; stroke:none;" d="M464 752L465 753L464 752z"/>
                        <path class = "L2Border" style = "fill:#909090; stroke:none;" d="M556 752L557 753L556 752z"/>
                        <path class = "L2Border" style = "fill:#797979; stroke:none;" d="M558 752L559 753L558 752M465 753L466 754L465 753M467 754L468 755L467 754M559 754L560 755L559 754M561 754L562 755L561 754z"/>
                        <path class = "L2Border" style = "fill:#909090; stroke:none;" d="M572 754L573 755L572 754z"/>
                        <path class = "L2Border" style = "fill:#797979; stroke:none;" d="M574 754L575 755L574 754z"/>
                        <path class = "L2Border" style = "fill:#909090; stroke:none;" d="M564 755L565 756L564 755z"/>
                        <path class = "L2Border" style = "fill:#797979; stroke:none;" d="M571 755L572 756L571 755M573 755L574 756L573 755z"/>
                        <path class = "L2Border" style = "fill:#909090; stroke:none;" d="M468 756L469 757L468 756z"/>
                        <path class = "L2Border" style = "fill:#797979; stroke:none;" d="M563 756L564 757L563 756M468 757L469 758L468 757z"/>
                        <path class = "L2Border" style = "fill:#909090; stroke:none;" d="M566 757L567 758L566 757z"/>
                        <path class = "L2Border" style = "fill:#797979; stroke:none;" d="M567 757L568 758L567 757z"/>
                        <path class = "L2Border" style = "fill:#909090; stroke:none;" d="M568.667 757.333L569.333 757.667L568.667 757.333M468 758L469 759L468 758z"/>
                        <path class = "L2Border" style = "fill:#797979; stroke:none;" d="M466 759L467 760L466 759M465 760L466 761L465 760z"/>
                        <path class = "L2Border" style = "fill:#909090; stroke:none;" d="M466 761L467 762L466 761M463 764L464 765L463 764z"/>
                        <path class = "L2Border" style = "fill:#797979; stroke:none;" d="M464 765L465 766L464 765z"/>
                        <path class = "L2Border" style = "fill:#909090; stroke:none;" d="M464 766L465 767L464 766M464.333 774.667L464.667 775.333L464.333 774.667z"/>
                        <path class = "L2Border" style = "fill:#797979; stroke:none;" d="M464 776L464 779L465 779L464 776M461 781L462 782L461 781M452 782L453 783L452 782M455 782L456 783L455 782z"/>
                        <path class = "L2Border" style = "fill:#909090; stroke:none;" d="M451 783L452 784L451 783M453.667 783.333L454.333 783.667L453.667 783.333z"/>
                        <path class = "L2Border" style = "fill:#797979; stroke:none;" d="M460 783L461 784L460 783M451.667 784.333L452.333 784.667L451.667 784.333z"/>
                        <path class = "L2Border" style = "fill:#909090; stroke:none;" d="M451 785L452 786L451 785z"/>
                        <path class = "L2Border" style = "fill:#686868; stroke:none;" d="M452 785L455 800L456 800L452 785z"/>
                        <path class = "L2Border" style = "fill:#797979; stroke:none;" d="M453 787L454 788L453 787M455 791L456 792L455 791z"/>
                        <path class = "L2Border" style = "fill:#909090; stroke:none;" d="M454 792L455 793L454 792z"/>
</svg>
