<?xml version="1.0" standalone="yes"?>
<svg xmlns="http://www.w3.org/2000/svg" width="1450" height="800">
                        <path onclick = "Ehime()" class = "Ehime" style = "fill:#010101; stroke:none;" d="M0 0L0 800L1450 800L1450 0L0 0z"/>
                        <path onclick = "Ehime()" class = "Ehime" style = "fill:#ffffff; stroke:none;" d="M612 132L605 136L605 137L611 139C607.626 148.064 592.01 156.339 583 160L582 179C572.478 179.231 575.645 183.237 573.111 190C569.08 200.757 571.395 212.164 563.239 221.816C556.125 230.234 544.7 232.015 536.184 238.247C531.281 241.835 528.395 247.691 523.961 251.826C517.371 257.971 508.968 261.769 501 265.753C486.809 272.849 469.455 277.578 460 291L472 285L471 288C477.328 289.167 479.477 284.045 484.039 280.637C488.542 277.275 494.103 276.494 498.83 273.723C502.141 271.782 504.315 268.431 508.001 267.024C512.296 265.384 521.669 266.472 522.577 272.044C523.381 276.973 519.238 282.802 519 288L524 288L518 298L542 298L535 305L535 306C537.303 307.865 542.755 310.099 543.539 313.133C545.124 319.268 531.483 327.711 527 330C528.273 334.286 530.665 335.515 535 336C532.602 348.914 534.866 358.643 543 369L537 368L537 376C534.043 377.92 534.117 379.696 535 383L541 382C538.107 370.595 552.776 372.394 554 380L564 379C565.88 367.069 570.753 354.17 564.286 342C562.691 339 554.937 330.248 558.704 326.635C561.358 324.089 567.982 331.411 570 333L571 333L583 321C583.055 314.907 584.317 309.437 590.015 306.135C593.953 303.854 603.951 301.391 604.534 295.896C605.317 288.515 583.12 276.051 592.206 267.434C600.259 259.796 615.251 271.849 624.385 262.772C633.28 253.931 628.801 230.673 642 228C642.913 221.131 649.331 206.629 655.376 202.732C657.999 201.041 661.105 203.121 663.787 201.343C666.349 199.644 667.12 195.668 670.213 194.732C680.242 191.699 693.801 194.808 704 192.602C709.394 191.435 711.4 186.252 716.089 184.312C721.288 182.163 732.123 185.754 735.686 180.566C741.918 171.493 738.552 152.173 725 153.618C717.874 154.378 714.422 163.873 707 165.051C695.463 166.883 684.292 159.644 672 163.305C662.003 166.282 654.691 176.307 643.004 172.03C635.441 169.262 634.082 161.389 630.677 155C626 146.226 620.198 137.775 612 132z"/>
                        <path onclick = "Ehime()" class = "Ehime" style = "fill:#d6d6d6; stroke:none;" d="M723 152L724 153L723 152M633 161L634 162L633 161M714 161L715 162L714 161M691.667 162.333L692.333 162.667L691.667 162.333M634 163L635 164L634 163M670 163L671 164L670 163M697 163L698 164L697 163M711 163L712 164L711 163M701 164L702 165L701 164M709 164L710 165L709 164M635 165L636 166L635 165M707 165L708 166L707 165M737 166L738 167L737 166M663 168L664 169L663 168M659 170L660 171L659 170M583 171L584 172L583 171M643 172L644 173L643 172M653 172L654 173L653 172M736 179L737 180L736 179M734 182L735 183L734 182M715 183L716 184L715 183M723 183L724 184L723 183M720.667 184.333L721.333 184.667L720.667 184.333M692 191L693 192L692 191M695 191L696 192L695 191M707 191L708 192L707 191M697 192L698 193L697 192M682.667 193.333L683.333 193.667L682.667 193.333M687 193L688 194L687 193M668 194L669 195L668 194M673 194L674 195L673 194M570 195L571 196L570 195M570.333 198.667L570.667 199.333L570.333 198.667M658 201L659 202L658 201M664 201L665 202L664 201M663 202L664 203L663 202M653 204L654 205L653 204z"/>
                        <path onclick = "Ehime()" class = "Ehime" style = "fill:#75ccff; stroke:none;" d="M570 206L571 207L570 206z"/>
                        <path onclick = "Ehime()" class = "Ehime" style = "fill:#d6d6d6; stroke:none;" d="M615 208L616 209L615 208z"/>
                        <path onclick = "Ehime()" class = "Ehime" style = "fill:#75ccff; stroke:none;" d="M569 209L570 210L569 209M568 212L569 213L568 212z"/>
                        <path onclick = "Ehime()" class = "Ehime" style = "fill:#d6d6d6; stroke:none;" d="M648 212L649 213L648 212M647 214L648 215L647 214z"/>
                        <path onclick = "Ehime()" class = "Ehime" style = "fill:#75ccff; stroke:none;" d="M567 215L568 216L567 215z"/>
                        <path onclick = "Ehime()" class = "Ehime" style = "fill:#d6d6d6; stroke:none;" d="M646 216L647 217L646 216z"/>
                        <path onclick = "Ehime()" class = "Ehime" style = "fill:#b7e5ff; stroke:none;" d="M566 217L567 218L566 217z"/>
                        <path onclick = "Ehime()" class = "Ehime" style = "fill:#75ccff; stroke:none;" d="M565 218L566 219L565 218z"/>
                        <path onclick = "Ehime()" class = "Ehime" style = "fill:#b7e5ff; stroke:none;" d="M564 220L565 221L564 220z"/>
                        <path onclick = "Ehime()" class = "Ehime" style = "fill:#75ccff; stroke:none;" d="M563 221L564 222L563 221z"/>
                        <path onclick = "Ehime()" class = "Ehime" style = "fill:#b7e5ff; stroke:none;" d="M562 223L563 224L562 223z"/>
                        <path onclick = "Ehime()" class = "Ehime" style = "fill:#d6d6d6; stroke:none;" d="M642 223L643 224L642 223z"/>
                        <path onclick = "Ehime()" class = "Ehime" style = "fill:#b7e5ff; stroke:none;" d="M559 225L560 226L559 225M556 227L557 228L556 227z"/>
                        <path onclick = "Ehime()" class = "Ehime" style = "fill:#75ccff; stroke:none;" d="M554 228L555 229L554 228z"/>
                        <path onclick = "Ehime()" class = "Ehime" style = "fill:#d6d6d6; stroke:none;" d="M638.667 228.333L639.333 228.667L638.667 228.333z"/>
                        <path onclick = "Ehime()" class = "Ehime" style = "fill:#75ccff; stroke:none;" d="M553 229L554 230L553 229M549 231L550 232L549 231z"/>
                        <path onclick = "Ehime()" class = "Ehime" style = "fill:#d6d6d6; stroke:none;" d="M543 234L544 235L543 234M633 239L634 240L633 239M631 242L632 243L631 242M531 243L532 244L531 243M631 253L632 254L631 253M628 257L629 258L628 257M624 262L625 263L624 262M599.667 265.333L600.333 265.667L599.667 265.333M621 265L622 266L621 265M607.667 266.333L608.333 266.667L607.667 266.333M615 266L615 267L618 267L615 266M521 268L522 269L521 268M589 269L590 270L589 269M592 278L593 279L592 278M593 280L594 281L593 280M519 282L520 283L519 282M596 284L597 285L596 284M599 288L600 289L599 288M602 290L603 291L602 290M603 291L604 292L603 291M537 297L537 298L540 298L537 297M532 298L533 299L532 298M541.333 298.667L541.667 299.333L541.333 298.667M602 299L603 300L602 299M598 301L599 302L598 301M538 302L539 303L538 302M597 302L598 303L597 302M594 304L595 305L594 304M590 305L591 306L590 305M535 306L536 307L535 306M588 306L589 307L588 306M536 307L537 308L536 307M537 308L538 309L537 308M539 309L540 310L539 309M583 313L584 314L583 313M544 314L545 315L544 314M543 316L544 317L543 316M577 323L578 324L577 323M535 324L536 325L535 324M560 324L561 325L560 324M563 327L564 328L563 327M557 329L558 330L557 329M565 329L566 330L565 329M568 331L569 332L568 331M569 332L570 333L569 332M559 334L560 335L559 334M564 349L565 350L564 349M564 351L565 352L564 351M567 356L568 357L567 356M568.333 368.667L568.667 369.333L568.333 368.667M543 369L544 370L543 369M552 374L553 375L552 374M564 374L565 375L564 374M559 379L560 380L559 379z"/>
</svg>
