<?xml version="1.0" standalone="no"?>
<!DOCTYPE svg PUBLIC "-//W3C//DTD SVG 20010904//EN"
 "http://www.w3.org/TR/2001/REC-SVG-20010904/DTD/svg10.dtd">
<svg version="1.0" xmlns="http://www.w3.org/2000/svg"
 width="1450.000000pt" height="800.000000pt" viewBox="0 0 1450.000000 800.000000"
 preserveAspectRatio="xMidYMid meet">

<g transform="translate(0.000000,800.000000) scale(0.100000,-0.100000)"
fill="#000000" stroke="none">
<path d="M5043 4290 c-12 -5 -39 -33 -61 -62 -56 -75 -80 -95 -142 -117 -30 -10 -69 -25 -87 -32 -28 -11 -36 -10 -77 12 l-46 24 -46 -25 -46 -24 -27 31 c-17 20 -43 35 -74 43 -27 7 -65 24 -85 38 -24 17 -56 27 -90 30 -51 4 -54 3 -91 -37 l-38 -41 -134 -10 c-154 -12 -183 -8 -224 30 -53 49 -71 48 -120 -6 l-44 -47 -63 6 c-39 3 -55 2 -43 -3 11 -5 43 -9 71 -9 47 -1 53 2 83 39 39 49 64 51 107 9 41 -39 77 -44 249 -31 108 8 132 13 142 29 38 57 40 58 96 58 42 0 62 -6 93 -27 21 -15 60 -32 87 -39 33 -8 54 -20 68 -40 24 -34 51 -37 86 -9 14 11 33 20 43 20 10 0 29 -9 43 -20 31 -25 67 -25 115 -1 20 10 50 21 66 25 44 11 79 39 135 111 43 55 56 65 82 65 26 0 30 -3 24 -17 -5 -14 -4 -15 6 -6 10 10 9 15 -1 28 -14 17 -25 18 -57 5z"/>

<path d="M6417 4111 c-20 -15 -54 -31 -76 -35 -41 -6 -61 -27 -61 -64 0 -24 -37 -59 -72 -67 -21 -6 -35 -1 -59 19 -37 31 -53 32 -102 6 -20 -11 -45 -20 -56 -20 -10 0 -29 -8 -42 -18 -44 -34 -58 -34 -88 -1 l-29 31 -68 -40 c-38 -21 -85 -49 -105 -61 -21 -12 -68 -29 -105 -39 -63 -16 -71 -20 -87 -54 -20 -40 -96 -102 -138 -113 -15 -4 -41 0 -61 8 -40 17 -48 43 -48 155 0 63 1 66 55 111 13 10 16 23 11 50 -3 20 -6 55 -6 79 0 52 -21 63 -96 53 l-49 -6 65 -5 65 -5 1 -40 c0 -22 3 -54 8 -71 7 -30 -11 -64 -33 -64 -19 0 -32 -59 -30 -139 l2 -86 -33 -25 c-100 -77 -95 -68 -95 -177 0 -93 -2 -102 -28 -136 l-28 -37 6 -133 c4 -85 14 -157 27 -203 30 -107 26 -115 -58 -98 -24 5 -36 0 -62 -24 -18 -17 -32 -36 -32 -42 0 -7 25 -36 55 -64 l55 -51 -31 -46 c-41 -64 -47 -107 -20 -162 12 -24 21 -63 21 -88 0 -56 -39 -140 -77 -167 -36 -26 -78 -101 -97 -176 -9 -33 -28 -72 -45 -92 -53 -60 -53 -114 0 -289 31 -101 35 -107 120 -179 28 -23 32 -120 9 -210 -12 -43 -20 -95 -18 -114 3 -30 8 -37 38 -47 19 -6 37 -20 38 -29 2 -10 -9 -46 -24 -79 -17 -39 -28 -80 -28 -112 -1 -48 -2 -50 -41 -69 -22 -10 -68 -44 -102 -76 -47 -45 -72 -60 -112 -70 -49 -12 -56 -11 -134 21 -93 37 -131 70 -147 128 -23 88 -114 139 -300 171 -107 18 -140 28 -230 73 l-105 52 -3 40 c-6 70 -32 81 -105 43 -34 -18 -57 -21 -126 -20 -46 1 -92 4 -102 7 -11 4 -19 2 -19 -3 0 -13 169 -24 205 -13 17 5 45 17 64 27 44 22 66 10 67 -39 1 -20 6 -43 13 -51 6 -7 58 -34 114 -60 78 -34 135 -51 233 -70 190 -35 250 -70 285 -165 25 -71 47 -93 114 -115 61 -20 85 -35 68 -43 -21 -8 -15 -33 21 -76 18 -23 37 -53 41 -67 4 -14 21 -41 36 -61 34 -44 35 -48 9 -96 -15 -28 -20 -57 -20 -109 0 -86 -18 -110 -71 -99 -42 9 -52 -8 -32 -54 9 -20 19 -56 23 -81 l7 -45 1 45 c1 25 -5 56 -13 70 -26 45 -20 59 23 53 58 -8 77 19 74 105 -2 55 2 76 21 112 27 51 25 63 -13 105 -15 17 -30 41 -33 55 -4 14 -23 47 -43 72 -20 26 -33 51 -30 56 3 5 33 12 66 15 69 6 125 35 184 96 22 22 63 52 93 66 61 30 92 28 143 -10 18 -14 64 -36 102 -51 46 -17 82 -40 107 -65 42 -44 60 -47 181 -35 59 6 79 4 95 -7 18 -14 19 -19 8 -72 -15 -72 -3 -100 63 -144 69 -45 115 -43 178 9 26 22 65 45 86 51 34 10 43 9 75 -10 20 -11 45 -21 55 -21 43 0 97 124 130 299 27 145 36 165 69 156 15 -3 47 -10 73 -15 25 -5 60 -16 77 -24 16 -9 36 -16 43 -16 26 1 -66 42 -116 51 -28 6 -63 12 -78 16 -38 7 -52 -21 -81 -167 -28 -142 -58 -229 -92 -268 l-24 -27 -40 23 c-22 12 -49 22 -61 22 -33 0 -81 -24 -128 -64 -53 -44 -88 -46 -148 -11 -62 37 -86 74 -74 116 15 51 12 84 -9 103 -17 15 -32 17 -126 10 l-106 -7 -42 41 c-25 23 -69 51 -107 66 -35 15 -81 38 -102 52 -20 14 -55 28 -77 31 -41 6 -41 6 -41 50 0 27 10 63 26 94 35 70 30 109 -16 124 -44 15 -48 37 -21 140 35 132 23 211 -38 252 -19 13 -40 31 -46 41 -26 37 -78 228 -79 288 -1 57 2 64 35 101 25 28 39 55 44 84 10 61 56 147 100 189 75 70 97 179 54 267 -25 51 -20 81 22 147 16 26 29 51 29 55 0 5 -22 28 -50 51 -27 23 -50 50 -50 60 0 27 49 63 75 55 51 -16 67 -17 76 -4 13 21 11 58 -10 124 -11 37 -21 110 -25 192 l-7 132 31 34 c29 34 30 36 27 132 l-2 97 55 48 c30 27 59 50 64 50 5 0 18 -8 29 -17 12 -12 35 -18 66 -18 39 0 55 7 101 42 30 23 61 57 70 75 13 28 24 35 90 54 44 12 109 42 159 72 46 29 89 52 94 52 5 0 21 -12 34 -26 27 -29 58 -27 101 7 14 10 35 19 48 19 12 0 25 4 29 9 3 5 21 15 40 21 32 11 38 9 66 -14 17 -14 41 -26 53 -26 37 0 89 41 97 76 9 45 14 50 64 63 25 6 60 25 78 41 41 38 31 39 -16 1z"/>
</g>
</svg>
