<?xml version="1.0" standalone="yes"?>
<svg xmlns="http://www.w3.org/2000/svg" width="1450" height="800">
                        <path onclick = "Kanagawa()" class = "Kanagawa" style = "fill:#010101; stroke:none;" d="M0 0L0 800L1450 800L1450 0L0 0z"/>
                        <path onclick = "Kanagawa()" class = "Kanagawa" style = "fill:#ffffff; stroke:none;" d="M213 616C213.001 625.525 215.835 636.511 209.298 644.786C199.96 656.607 183.319 655.827 177 671C180.171 670.724 183.841 669.115 186.981 669.618C202.673 672.129 187.465 698.111 188.106 705C188.769 712.134 195.178 715.578 197 722L218 725C215.743 719.726 212.787 714.951 214.653 709C216.868 701.935 224.02 698.913 230 695.692C245.971 687.091 269.911 682.279 284.96 695.329C288.942 698.781 293.297 704.652 294.178 710C294.952 714.693 291.178 724.857 299.87 724.994C305.183 725.077 302.092 716.961 303.777 714.109C307.177 708.355 313.771 709.438 316 702C292.86 690.113 302 675.163 302 654C309.166 653.847 320.439 651.808 324 645C319.531 643.115 312.927 644.939 309.259 642.357C300.595 636.259 294.075 620.758 280.09 623.371C277.151 623.92 274.681 626.727 272 628C272.905 631.797 277.088 647.278 270.826 648.369C266.735 649.081 258.674 635.147 254.999 632.703C247.795 627.912 239.124 631.84 232.043 628.802C225.389 625.948 220.487 618.979 213 616z"/>
                        <path onclick = "Kanagawa()" class = "Kanagawa" style = "fill:#ededed; stroke:none;" d="M214 616L215 617L214 616M219 620L220 621L219 620M221 621L222 622L221 621M285 624L286 625L285 624M270 626L271 627L270 626M271 627L272 628L271 627M274 627L275 628L274 627M293 627L294 628L293 627M243 629L244 630L243 629M299 630L300 631L299 630M302 633L303 634L302 633M213 634L214 635L213 634M272.333 635.667L272.667 636.333L272.333 635.667M303 635L304 636L303 635M262 640L263 641L262 640M307 641L308 642L307 641M265 643L266 644L265 643M309 643L310 644L309 643M266 644L267 645L266 644M273 646L274 647L273 646M199 650L200 651L199 650M317 650L318 651L317 650M314 651L315 652L314 651M311 652L312 653L311 652z"/>
                        <path onclick = "Kanagawa()" class = "Kanagawa" style = "fill:#c1e9ff; stroke:none;" d="M302 654L303 655L302 654z"/>
                        <path onclick = "Kanagawa()" class = "Kanagawa" style = "fill:#ededed; stroke:none;" d="M234.333 666.667L234.667 667.333L234.333 666.667z"/>
                        <path onclick = "Kanagawa()" class = "Kanagawa" style = "fill:#c1e9ff; stroke:none;" d="M301 666L302 667L301 666z"/>
                        <path onclick = "Kanagawa()" class = "Kanagawa" style = "fill:#ededed; stroke:none;" d="M220 668L222 670L220 668M184 669L185 670L184 669z"/>
                        <path onclick = "Kanagawa()" class = "Kanagawa" style = "fill:#c1e9ff; stroke:none;" d="M300 670L301 671L300 670z"/>
                        <path onclick = "Kanagawa()" class = "Kanagawa" style = "fill:#ededed; stroke:none;" d="M219.667 672.333L220.333 672.667L219.667 672.333z"/>
                        <path onclick = "Kanagawa()" class = "Kanagawa" style = "fill:#c1e9ff; stroke:none;" d="M299 675L300 676L299 675z"/>
                        <path onclick = "Kanagawa()" class = "Kanagawa" style = "fill:#b1d9ef; stroke:none;" d="M299 686L300 687L299 686z"/>
                        <path onclick = "Kanagawa()" class = "Kanagawa" style = "fill:#ededed; stroke:none;" d="M258 687L258 688L267 688L258 687M299 687L300 688L299 687M251.667 688.333L252.333 688.667L251.667 688.333M271 688L272 689L271 688M246 689L247 690L246 689M275 689L276 690L275 689M242 690L243 691L242 690M277 690L278 691L277 690M238 691L239 692L238 691M301 691L302 692L301 691M235 692L236 693L235 692M281 692L282 693L281 692M233 693L234 694L233 693M284 694L285 695L284 694M285 695L286 696L285 695M286 696L287 697L286 696M226 697L227 698L226 697M287 697L288 698L287 697M224 698L225 699L224 698M288 698L289 699L288 698M222 699L223 700L222 699M219 701L220 702L219 701M290 701L291 702L290 701M291 703L292 704L291 703M216 704L217 705L216 704M292 705L293 706L292 705M293 707L294 708L293 707M214 708L215 709L214 708M294.333 709.667L294.667 710.333L294.333 709.667M294 712L295 713L294 712M191 713L192 714L191 713M194 716L195 717L194 716M214 718L215 719L214 718M216 721L217 722L216 721M211 722L212 723L211 722M213 723L214 724L213 723M217 723L218 724L217 723M215 724L216 725L215 724M217.667 725.333L218.333 725.667L217.667 725.333z"/>
</svg>
