<?xml version="1.0" standalone="yes"?>
<svg xmlns="http://www.w3.org/2000/svg" width="1450" height="800">
                        <path onclick = "Nagasaki()" class = "Nagasaki" style = "fill:#010101; stroke:none;" d="M0 0L0 800L1450 800L1450 0L0 0z"/>
                        <path onclick = "Nagasaki()" class = "Nagasaki" style = "fill:#ffffff; stroke:none;" d="M57 285C51.9741 288.317 47.7535 288.068 42 287C42.582 292.592 40.1739 297.914 46 301C41.0653 312.775 39.838 315.018 45 327L54 324L53 329C59.3699 332.272 58.8783 334.731 57 341C64.0345 340.207 63.5943 335.885 65 330L67 330L68 335L72 334L69 343L76 351C78.519 346.709 81.9336 348.641 86 350L84 354C92.1542 351.656 103.426 351.853 104.948 363.715C105.517 368.149 102.449 372.284 103.225 377C104.089 382.247 110.112 387.242 106.82 392.775C101.699 401.386 85.7261 397.604 85 388L80 388L78 373L82 377L83 377C84.7958 367.321 81.8444 355.891 70 362C70.8993 357.139 67.1994 338.021 58.5887 345.643C54.9699 348.847 55.7978 356.688 54.8549 361C53.9965 364.925 51.7351 367.771 52.1898 372C52.8612 378.244 57.2642 382.893 60.4452 388C67.6282 399.532 71.2151 411.396 85 415L84 419L89 419L82.6914 425.274L80.5826 437L70 449C74.077 448.191 76.0016 448.476 76 453C79.6728 452.197 78.332 449.844 77 447C82.5347 444.637 84.3618 440.444 88.3789 436.375C95.6965 428.963 105.723 422.488 106 411C117.403 418.133 134.186 395.596 145.487 406.474C156.037 416.629 139.584 421.82 137.126 429.209C135.262 434.811 140.99 440.003 144 444C151.173 442.28 154.124 437.449 160.09 433.988C163.982 431.729 169.199 432.314 172.244 428.467C180.182 418.436 179.127 398.761 168.867 390.514C160.368 383.683 149.906 396.534 143.552 388.877C138.735 383.07 146.823 378.817 148 373C132.232 372.191 120.957 364.452 110.505 353.594C106.131 349.05 101.753 346.763 101 340C105.238 338.809 104.403 335.803 104 332C97.7798 331.948 85.4695 329.959 82.179 323.941C80.5296 320.925 81.5631 317.316 80.0123 314.285C75.7016 305.862 69.6937 300.955 79 293L78 289C68.1669 289.082 63.8907 293.608 57 285z"/>
                        <path onclick = "Nagasaki()" class = "Nagasaki" style = "fill:#dddddd; stroke:none;" d="M74 288L74 289L77 289L74 288M70 289L71 290L70 289M78 291L79 292L78 291M76 294L77 295L76 294M75 295L76 296L75 295M74 297L75 298L74 297M73 300L74 301L73 300M74 306L75 307L74 306M75 308L76 309L75 308M77 311L78 312L77 311M78 312L79 313L78 312M80 313L81 314L80 313M81 323L82 324L81 323M51 324L52 325L51 324M49 325L50 326L49 325M53 327L54 328L53 327M89 328L90 329L89 328M53 329L54 330L53 329M55.6667 330.333L56.3333 330.667L55.6667 330.333M65.6667 330.333L66.3333 330.667L65.6667 330.333M93 330L94 331L93 330M58 331L59 332L58 331M64.3333 331.667L64.6667 332.333L64.3333 331.667M96 331L96 332L99 332L96 331M70 334L71 335L70 334M59 335L60 336L59 335M68.6667 335.333L69.3333 335.667L68.6667 335.333M104 335L105 336L104 335M58 336L59 337L58 336M57 338L58 339L57 338M71.3333 338.667L71.6667 339.333L71.3333 338.667M104 338L105 339L104 338M61 340L62 341L61 340M101 340L102 341L101 340M58 341L59 342L58 341M69.6667 342.333L70.3333 342.667L69.6667 342.333M58 344L59 345L58 344M62.6667 344.333L63.3333 344.667L62.6667 344.333M101 344L102 345L101 344M57 345L58 346L57 345M102 346L103 347L102 346M79 347L80 348L79 347M71 348L72 349L71 348M76 348L76 351L77 351L76 348M84 349L85 350L84 349M69 350L70 351L69 350M73.6667 350.333L74.3333 350.667L73.6667 350.333M85 351L86 352L85 351M94 351L95 352L94 351M107 351L108 352L107 351M70 352L71 353L70 352M84 352L85 353L84 352M88 352L89 353L88 352M109 352L110 353L109 352M86 353L87 354L86 353M97 353L98 354L97 353M112 356L113 357L112 356M70 359L70 362L71 362L70 359M74.6667 359.333L75.3333 359.667L74.6667 359.333M77.6667 359.333L78.3333 359.667L77.6667 359.333M72 360L73 361L72 360M104 360L105 361L104 360M115 360L116 361L115 360M118 361L119 362L118 361M82 363L83 364L82 363M105 364L106 365L105 364M83.3333 365.667L83.6667 366.333L83.3333 365.667M125 367L126 368L125 367M127 368L128 369L127 368M103 369L104 370L103 369M131 369L132 370L131 369M137 370L138 371L137 370M102 372L102 377L103 377L102 372M142 372L143 373L142 372M78 373L79 374L78 373M77 374L77 380L78 380L77 374M83.3333 374.667L83.6667 375.333L83.3333 374.667M81 375L82 376L81 375M103 379L104 380L103 379M142 381L143 382L142 381M81.3333 382.667L81.6667 383.333L81.3333 382.667M105 382L106 383L105 382M140 384L141 385L140 384M141 386L142 387L141 386z"/>
                        <path onclick = "Nagasaki()" class = "Nagasaki" style = "fill:#74ccff; stroke:none;" d="M107 387L108 388L107 387z"/>
                        <path onclick = "Nagasaki()" class = "Nagasaki" style = "fill:#dddddd; stroke:none;" d="M156 388L157 389L156 388z"/>
                        <path onclick = "Nagasaki()" class = "Nagasaki" style = "fill:#b7e5ff; stroke:none;" d="M61 389L62 390L61 389z"/>
                        <path onclick = "Nagasaki()" class = "Nagasaki" style = "fill:#dddddd; stroke:none;" d="M143 389L144 390L143 389M154 389L155 390L154 389M144 390L145 391L144 390z"/>
                        <path onclick = "Nagasaki()" class = "Nagasaki" style = "fill:#74ccff; stroke:none;" d="M62 391L63 392L62 391z"/>
                        <path onclick = "Nagasaki()" class = "Nagasaki" style = "fill:#dddddd; stroke:none;" d="M145 391L146 392L145 391M151 391L152 392L151 391z"/>
                        <path onclick = "Nagasaki()" class = "Nagasaki" style = "fill:#74ccff; stroke:none;" d="M107 392L108 393L107 392z"/>
                        <path onclick = "Nagasaki()" class = "Nagasaki" style = "fill:#dddddd; stroke:none;" d="M147.667 392.333L148.333 392.667L147.667 392.333z"/>
                        <path onclick = "Nagasaki()" class = "Nagasaki" style = "fill:#74ccff; stroke:none;" d="M63 394L64 395L63 394z"/>
                        <path onclick = "Nagasaki()" class = "Nagasaki" style = "fill:#b7e5ff; stroke:none;" d="M106 394L107 395L106 394M64 395L65 396L64 395z"/>
                        <path onclick = "Nagasaki()" class = "Nagasaki" style = "fill:#74ccff; stroke:none;" d="M104 395L105 396L104 395M89 396L90 397L89 396M101 396L102 397L101 396M65 397L66 398L65 397z"/>
                        <path onclick = "Nagasaki()" class = "Nagasaki" style = "fill:#b7e5ff; stroke:none;" d="M66 398L67 399L66 398z"/>
                        <path onclick = "Nagasaki()" class = "Nagasaki" style = "fill:#74ccff; stroke:none;" d="M67 400L68 401L67 400z"/>
                        <path onclick = "Nagasaki()" class = "Nagasaki" style = "fill:#b7e5ff; stroke:none;" d="M68 401L69 402L68 401M71 404L72 405L71 404z"/>
                        <path onclick = "Nagasaki()" class = "Nagasaki" style = "fill:#dddddd; stroke:none;" d="M141 404L141 405L144 405L141 404M129 405L130 406L129 405M136 405L137 406L136 405M138 405L139 406L138 405z"/>
                        <path onclick = "Nagasaki()" class = "Nagasaki" style = "fill:#74ccff; stroke:none;" d="M72 406L73 407L72 406z"/>
                        <path onclick = "Nagasaki()" class = "Nagasaki" style = "fill:#dddddd; stroke:none;" d="M126 406L127 407L126 406M146 406L147 407L146 406M124 407L125 408L124 407M122 408L123 409L122 408M120 409L121 410L120 409M147.333 409.667L147.667 410.333L147.333 409.667M118 410L119 411L118 410M117 411L118 412L117 411z"/>
                        <path onclick = "Nagasaki()" class = "Nagasaki" style = "fill:#74ccff; stroke:none;" d="M76 412L77 413L76 412z"/>
                        <path onclick = "Nagasaki()" class = "Nagasaki" style = "fill:#b7e5ff; stroke:none;" d="M78 413L79 414L78 413z"/>
                        <path onclick = "Nagasaki()" class = "Nagasaki" style = "fill:#dddddd; stroke:none;" d="M147 419L148 420L147 419M146 420L147 421L146 420M145 421L146 422L145 421z"/>
</svg>
