<?xml version="1.0" standalone="yes"?>
<svg xmlns="http://www.w3.org/2000/svg" width="1450" height="800">
                        <path onclick = "Aomori()" class = "Aomori" style = "fill:#010101;" d="M0 0L0 800L1450 800L1450 0L0 0z"/>
                        <path onclick = "Aomori()" class = "Aomori" style = "fill:#ffffff;" d="M475 129L476 126C464.091 130.396 459.934 148.525 452.761 158C450.087 161.533 444.743 165.474 447 170L443 174L446 175L444 178L456 177L454 180C470.172 178.333 479.896 147.761 487 135L484 135L484 134L488 129L484 129L486 125L475 129M556 198C566.022 200.409 574.138 211 576.385 221C577.628 226.535 572.901 234.41 571.804 240C568.257 258.082 568.483 285.657 546 291C542.956 280.753 535.068 281.545 528.278 275.49C521.024 269.021 520.257 261.687 509 260C508.072 266.312 506.59 272.716 505.382 279C502.282 295.126 484.897 307.097 474.996 287.996C468.583 275.623 468.102 255.752 468.005 242C467.946 233.747 471.216 225.198 465.606 218.004C454.698 204.018 449.65 217.756 437.424 215.733C430.997 214.669 424.236 206.691 418 204L414.258 226.866L402 234C422.545 244.055 414.538 271.258 409.025 289C406.535 297.016 405.411 304.368 397.996 309.304C392.725 312.813 386.58 317.655 380 317.867C374.034 318.058 369.368 312.607 364.04 317.164C358.083 322.258 355.489 330.054 350.482 335.907C344.486 342.916 328.902 353.945 348 354C349.211 362.237 351.192 369.539 350.985 378C350.918 380.747 349.212 385.758 351.618 387.836C359.609 394.738 364.367 382.273 371.001 381.662C375.596 381.239 378.781 386.419 383 387.566C390.556 389.621 401.307 387.761 408.996 386.891C416.243 386.071 418.949 377.738 427 378.534C436.746 379.497 445.015 389.328 454.09 391.177C457.57 391.886 460.45 388.546 464 389.042C467.638 389.551 470.081 392.683 474 392.078C480.496 391.075 489.376 386.599 493.907 381.957C497.353 378.426 499.968 372.341 505.004 370.8C513.69 368.143 521.323 378.514 519 386L514 383L515 388C525.473 388.001 532.196 393.085 528.923 404.946C527.445 410.301 523.093 411.587 523.004 418C522.923 423.788 521.614 432.062 529.015 433.59C539.273 435.708 542.827 424.546 549.143 419.703C553.08 416.685 558.583 416.951 563 414.964C568.891 412.316 573.849 407.325 579.999 405.272C584.681 403.71 586.69 408.93 591.039 408.153C597.395 407.018 603.189 400.755 610 401.101C614.413 401.326 617.276 405.728 621.981 404.278C627.111 402.696 626.665 397.85 629.703 394.419C632.335 391.447 636.69 391.343 639.98 389.442C641.668 388.467 643.723 387.051 643.883 384.907C644.788 372.772 623.547 367.131 617.185 361.682C607.075 353.024 603.817 335.328 601.211 323C595.87 297.739 596.146 273.424 596.957 248C597.21 240.066 594.471 231.902 595.304 224C597.445 203.7 607.424 184.391 608 164C602.722 168.763 598.45 175.176 592 178.558C571.351 189.387 561.975 168.575 548.999 158.529C542.559 153.543 535.312 152.678 528.043 149.74C524.022 148.115 520.85 138.652 516.263 139.832C512.887 140.701 511.671 154.555 509.719 158C500.692 173.938 490.863 194.36 490.039 213C489.777 218.932 488.924 230.061 496.044 232.673C499.946 234.104 503.201 229.62 506 227.637C511.346 223.849 519.865 219.906 526 217.742C530.476 216.162 534.567 219.03 539 218.407C548.477 217.077 555.232 206.743 556 198z"/>
                        <path onclick = "Aomori()" class = "Aomori" style = "fill:#dadada;" d="M526 149L527 150L526 149M530.667 150.333L531.333 150.667L530.667 150.333M534 151L535 152L534 151M512.333 152.667L512.667 153.333L512.333 152.667M537 152L538 153L537 152M540 153L541 154L540 153M542 154L543 155L542 154M510 156L511 157L510 156M547 157L548 158L547 157M509 158L510 159L509 158M508 160L509 161L508 160M556 166L557 167L556 166M503 170L504 171L503 170M559 170L560 171L559 170M502 172L503 173L502 172z"/>
                        <path onclick = "Aomori()" class = "Aomori" style = "fill:#cbcbcb;" d="M561 172C563.374 176.08 566.427 177.311 571 178L571 177L561 172z"/>
                        <path onclick = "Aomori()" class = "Aomori" style = "fill:#dadada;" d="M561 173L562 174L561 173M501 174L502 175L501 174M562 175L563 176L562 175M564 176L565 177L564 176M566.667 177.333L567.333 177.667L566.667 177.333M569 178L570 179L569 178z"/>
                        <path onclick = "Aomori()" class = "Aomori" style = "fill:#cbcbcb;" d="M572 178L573 179L572 178z"/>
                        <path onclick = "Aomori()" class = "Aomori" style = "fill:#dadada;" d="M499 179L500 180L499 179M573 179L574 180L573 179M590 179L591 180L590 179M577.667 180.333L578.333 180.667L577.667 180.333M585.667 180.333L586.333 180.667L585.667 180.333M498 181L499 182L498 181M497 184L498 185L497 184M496 187L497 188L496 187M495 189L496 190L495 189M493 196L494 197L493 196M556 198L556 199L559 199L556 198M492 199L493 200L492 199M561 199L562 200L561 199M600 199L601 200L600 199M563 200L564 201L563 200z"/>
                        <path onclick = "Aomori()" class = "Aomori" style = "fill:#cbcbcb;" d="M564 201L565 202L564 201z"/>
                        <path onclick = "Aomori()" class = "Aomori" style = "fill:#dadada;" d="M555 202L556 203L555 202M491 203L492 204L491 203z"/>
                        <path onclick = "Aomori()" class = "Aomori" style = "fill:#cbcbcb;" d="M555 203L556 204L555 203z"/>
                        <path onclick = "Aomori()" class = "Aomori" style = "fill:#dadada;" d="M567 204L568 205L567 204M599 204L600 205L599 204M554 205L555 206L554 205M568 205L569 206L568 205M553 207L554 208L553 207z"/>
                        <path onclick = "Aomori()" class = "Aomori" style = "fill:#cbcbcb;" d="M569 207L570 208L569 207z"/>
                        <path onclick = "Aomori()" class = "Aomori" style = "fill:#dadada;" d="M490 208L491 209L490 208M570 208L571 209L570 208M598 208L599 209L598 208z"/>
                        <path onclick = "Aomori()" class = "Aomori" style = "fill:#cbcbcb;" d="M552 209L553 210L552 209z"/>
                        <path onclick = "Aomori()" class = "Aomori" style = "fill:#dadada;" d="M551 210L552 211L551 210M571 210L572 211L571 210M430 211L431 212L430 211M450 211L451 212L450 211M550 211L551 212L550 211M572 212L573 213L572 212M445 213L446 214L445 213M597 213L598 214L597 213M546 214L547 215L546 214M573 214L574 215L573 214M435 215L436 216L435 215M440 215L441 216L440 215M489 215L489 221L490 221L489 215M437 216L438 217L437 216M464 216L465 217L464 216M543 216L544 217L543 216M574 216L575 217L574 216M525 217L526 218L525 217M532 217L533 218L532 217M596 217L597 218L596 217M536 218L537 219L536 218M540 218L541 219L540 218M575 218L576 219L575 218M467 220L468 221L467 220M576 220L577 221L576 220z"/>
                        <path onclick = "Aomori()" class = "Aomori" style = "fill:#cbcbcb;" d="M576 221L577 222L576 221z"/>
                        <path onclick = "Aomori()" class = "Aomori" style = "fill:#dadada;" d="M468 222L469 223L468 222M517 222L518 223L517 222M595 222L596 223L595 222M513 223L514 224L513 223M577 223L578 224L577 223M415 225L416 226L415 225M505 227L506 228L505 227M575 227L576 228L575 227M504 228L505 229L504 228M595.333 228.667L595.667 229.333L595.333 228.667M412 229L413 230L412 229M573 232L574 233L573 232M468 234L468 249L469 249L468 234M572 236L573 237L572 236M596 237L596 242L597 242L596 237M410 238L411 239L410 238M571.333 240.667L571.667 241.333L571.333 240.667M412 241L413 242L412 241M413 243L414 244L413 243M414.333 246.667L414.667 247.333L414.333 246.667M570.333 246.667L570.667 247.333L570.333 246.667M596 252L596 256L597 256L596 252M469 253L469 258L470 258L469 253M569 256L569 259L570 259L569 256M414 260L414 263L415 263L414 260M595 262L596 263L595 262M470 264L470 270L471 270L470 264M568 264L569 265L568 264M567 266L568 267L567 266M413 267L413 270L414 270L413 267M523 267L524 268L523 267M566 268L567 269L566 268M565 270L566 271L565 270M525 271L526 272L525 271M564.333 272.667L564.667 273.333L564.333 272.667M595 273L595 276L596 276L595 273M526 274L527 275L526 274M412 275L412 278L413 278L412 275M471 275L471 278L472 278L471 275M563 275L564 276L563 275M528 276L529 277L528 276M531 277L532 278L531 277M562 277L563 278L562 277M505 278L506 279L505 278M534 278L535 279L534 278M536 279L537 280L536 279M561 279L562 280L561 279M538 280L539 281L538 280M411 281L412 282L411 281M472 281L473 282L472 281M540 281L541 282L540 281M560 281L561 282L560 281M504.333 282.667L504.667 283.333L504.333 282.667M541 282L542 283L541 282M542 283L543 284L542 283M410 284L411 285L410 284M473 284L474 285L473 284M558 284L559 285L558 284M503 285L504 286L503 285M557 285L558 286L557 285M596.333 285.667L596.667 286.333L596.333 285.667M544 286L545 287L544 286M556 286L557 287L556 286M409 287L410 288L409 287M474 287L475 288L474 287M555 287L556 288L555 287M502 288L503 289L502 288z"/>
                        <path onclick = "Aomori()" class = "Aomori" style = "fill:#cbcbcb;" d="M545 288L546 289L545 288z"/>
                        <path onclick = "Aomori()" class = "Aomori" style = "fill:#dadada;" d="M553 288L554 289L553 288M475 289L476 290L475 289M551 289L552 290L551 289M408 290L409 291L408 290z"/>
                        <path onclick = "Aomori()" class = "Aomori" style = "fill:#cbcbcb;" d="M476 290L477 291L476 290z"/>
                        <path onclick = "Aomori()" class = "Aomori" style = "fill:#dadada;" d="M546 290L546 291L549 291L546 290z"/>
                        <path onclick = "Aomori()" class = "Aomori" style = "fill:#cbcbcb;" d="M499.333 291.667L499.667 292.333L499.333 291.667z"/>
                        <path onclick = "Aomori()" class = "Aomori" style = "fill:#dadada;" d="M500 291L501 292L500 291M477 292L478 293L477 292M407.333 293.667L407.667 294.333L407.333 293.667M478 293L479 294L478 293z"/>
                        <path onclick = "Aomori()" class = "Aomori" style = "fill:#cbcbcb;" d="M481 295L482 296L481 295z"/>
                        <path onclick = "Aomori()" class = "Aomori" style = "fill:#dadada;" d="M497 295L498 296L497 295z"/>
                        <path onclick = "Aomori()" class = "Aomori" style = "fill:#01a3ff;" d="M584 317L577 318C577.375 324.797 586.635 328.61 590.436 321.682C592.963 317.077 590.385 312.641 590.183 308C590.008 303.991 591.882 300.072 592 296C576.957 295.397 579.728 305.926 584 317z"/>
                        <path onclick = "Aomori()" class = "Aomori" style = "fill:#dadada;" d="M406.333 296.667L406.667 297.333L406.333 296.667z"/>
                        <path onclick = "Aomori()" class = "Aomori" style = "fill:#cbcbcb;" d="M483 296L484 297L483 296z"/>
                        <path onclick = "Aomori()" class = "Aomori" style = "fill:#dadada;" d="M496 296L497 297L496 296M597.333 296.667L597.667 297.333L597.333 296.667M485 297L486 298L485 297z"/>
                        <path onclick = "Aomori()" class = "Aomori" style = "fill:#cbcbcb;" d="M486 297L487 298L486 297z"/>
                        <path onclick = "Aomori()" class = "Aomori" style = "fill:#dadada;" d="M495 297L496 298L495 297M490 298L490 299L494 299L490 298M405 300L406 301L405 300M404 303L405 304L404 303z"/>
                        <path onclick = "Aomori()" class = "Aomori" style = "fill:#cbcbcb;" d="M403 304L404 305L403 304z"/>
                        <path onclick = "Aomori()" class = "Aomori" style = "fill:#dadada;" d="M598.333 304.667L598.667 305.333L598.333 304.667M402 306L403 307L402 306M399 308L400 309L399 308z"/>
                        <path onclick = "Aomori()" class = "Aomori" style = "fill:#cbcbcb;" d="M599 308L600 309L599 308z"/>
                        <path onclick = "Aomori()" class = "Aomori" style = "fill:#dadada;" d="M396 310L397 311L396 310M394 311L395 312L394 311M599.333 312.667L599.667 313.333L599.333 312.667M391 313L392 314L391 313z"/>
                        <path onclick = "Aomori()" class = "Aomori" style = "fill:#cbcbcb;" d="M600.333 314.667L600.667 315.333L600.333 314.667z"/>
                        <path onclick = "Aomori()" class = "Aomori" style = "fill:#dadada;" d="M388 315L389 316L388 315M372.667 316.333L373.333 316.667L372.667 316.333M386 316L387 317L386 316M375.667 317.333L376.333 317.667L375.667 317.333M382.667 317.333L383.333 317.667L382.667 317.333M600.333 318.667L600.667 319.333L600.333 318.667z"/>
                        <path onclick = "Aomori()" class = "Aomori" style = "fill:#cbcbcb;" d="M601 319L601 322L602 322L601 319M602 323L602 327L603 327L602 323z"/>
                        <path onclick = "Aomori()" class = "Aomori" style = "fill:#dadada;" d="M601 324L602 325L601 324M602.333 327.667L602.667 328.333L602.333 327.667M603.333 332.667L603.667 333.333L603.333 332.667M604.333 335.667L604.667 336.333L604.333 335.667M350 336L351 337L350 336M605.333 339.667L605.667 340.333L605.333 339.667M606 342L607 343L606 342M607 345L608 346L607 345M608 347L609 348L608 347M609 350L610 351L609 350M610 352L611 353L610 352M612 355L613 356L612 355M613 357L614 358L613 357M349 360L350 361L349 360M615 360L616 361L615 360M616 361L617 362L616 361M617 362L618 363L617 362M618 363L619 364L618 363M350 365L351 366L350 365M502 371L503 372L502 371z"/>
                        <path onclick = "Aomori()" class = "Aomori" style = "fill:#cbcbcb;" d="M500 373L501 374L500 373z"/>
                        <path onclick = "Aomori()" class = "Aomori" style = "fill:#dadada;" d="M499 374L500 375L499 374z"/>
                        <path onclick = "Aomori()" class = "Aomori" style = "fill:#cbcbcb;" d="M497 377L498 378L497 377z"/>
                        <path onclick = "Aomori()" class = "Aomori" style = "fill:#dadada;" d="M423 378L423 379L428 379L423 378M419 379L420 380L419 379M432 379L433 380L432 379M494 381L495 382L494 381M350.333 382.667L350.667 383.333L350.333 382.667M367 382L368 383L367 382z"/>
                        <path onclick = "Aomori()" class = "Aomori" style = "fill:#cbcbcb;" d="M375 382L376 383L375 382z"/>
                        <path onclick = "Aomori()" class = "Aomori" style = "fill:#dadada;" d="M493 382L494 383L493 382M643 382L644 383L643 382M415 383L416 384L415 383M492 383L493 384L492 383M644 383L645 384L644 383M365 384L366 385L365 384M440 384L441 385L440 384M491 384L492 385L491 384M364 385L365 386L364 385z"/>
                        <path onclick = "Aomori()" class = "Aomori" style = "fill:#cbcbcb;" d="M443 385L444 386L443 385z"/>
                        <path onclick = "Aomori()" class = "Aomori" style = "fill:#dadada;" d="M412 386L413 387L412 386M447 386L448 387L447 386M488 386L489 387L488 386M381 387L382 388L381 387M398.667 387.333L399.333 387.667L398.667 387.333z"/>
                        <path onclick = "Aomori()" class = "Aomori" style = "fill:#cbcbcb;" d="M400 387L401 388L400 387M486 387L487 388L486 387z"/>
                        <path onclick = "Aomori()" class = "Aomori" style = "fill:#dadada;" d="M351 388L352 389L351 388M362 388L363 389L362 388M462 388L462 389L465 389L462 388M482 388L483 389L482 388M641 388L642 389L641 388M356 389L357 390L356 389M360 389L361 390L360 389z"/>
                        <path onclick = "Aomori()" class = "Aomori" style = "fill:#cbcbcb;" d="M459 389L460 390L459 389z"/>
                        <path onclick = "Aomori()" class = "Aomori" style = "fill:#dadada;" d="M527 389L528 390L527 389M638 390L639 391L638 390z"/>
                        <path onclick = "Aomori()" class = "Aomori" style = "fill:#cbcbcb;" d="M456 391L457 392L456 391z"/>
                        <path onclick = "Aomori()" class = "Aomori" style = "fill:#dadada;" d="M469 391L470 392L469 391M528 391L529 392L528 391M634 391L635 392L634 391M470 392L471 393L470 392z"/>
                        <path onclick = "Aomori()" class = "Aomori" style = "fill:#cbcbcb;" d="M473 392L474 393L473 392z"/>
                        <path onclick = "Aomori()" class = "Aomori" style = "fill:#dadada;" d="M629 393L630 394L629 393M528 394L529 395L528 394M627 398L628 399L627 398M609.667 400.333L610.333 400.667L609.667 400.333M529 402L530 403L529 402M625 402L626 403L625 402M602 403L603 404L602 403M580 404L581 405L580 404M586 406L587 407L586 406M594 406L595 407L594 406M528 407L529 408L528 407M593 407L594 408L593 407M527 408L528 409L527 408M573 408L574 409L573 408M587 408L588 409L587 408M591 408L592 409L591 408M523 411L524 412L523 411M565 413L566 414L565 413M553 417L554 418L553 417M522 419L522 425L523 425L522 419M544 426L545 427L544 426M541 428L542 429L541 428M523 430L524 431L523 430M525 432L526 433L525 432M527 433L528 434L527 433z"/>
</svg>
