<?xml version="1.0" standalone="yes"?>
<svg xmlns="http://www.w3.org/2000/svg" width="1450" height="800">
                            <path style="fill:#010101; stroke:none;" d="M0 0L0 800L1039 800L1035 773L1041 768L1023.64 759.787L1020 747C1025.28 746.532 1024.43 750.327 1028.3 752.486C1032.6 754.882 1039.06 752.809 1042.31 757.279C1044.76 760.641 1043.56 764.492 1047.11 767.607C1049.57 769.764 1057.14 774.359 1060.2 771.215C1062.14 769.229 1060.23 762.961 1061 760L1066 762C1063.16 770.316 1069.55 769.268 1073.83 775.019C1076.3 778.335 1077.39 782.534 1080.23 785.545C1084.02 789.56 1089.01 793.927 1084 799L1084 800L1450 800L1450 0L0 0z"/>
                            <path style="fill:#019fff; stroke:none;" d="M1014 659L1015 660L1014 659z"/>
                            <path style="fill:#ffffff; stroke:none;" d="M1021 746C1022.64 750.425 1021.21 758.042 1024.44 761.2C1027.7 764.394 1038.42 764.214 1039.37 769.005C1039.78 771.064 1037.31 772.444 1036.77 774.259C1034.97 780.271 1032.83 792.995 1037.77 797.682C1044.35 803.918 1066.26 800.014 1075 800C1078.33 799.995 1084.85 800.726 1086.34 796.721C1088.45 791.049 1074.03 775.274 1071 770C1064.75 769.823 1064.83 766.397 1065 761L1061 761L1059 766C1065.71 773.304 1052.86 771.182 1049 768.363C1044.17 764.834 1045.45 760.473 1042.22 756.653C1039.05 752.905 1033.13 754.699 1029.14 752.566C1025.67 750.707 1025.02 747.215 1021 746z"/>
                            <path style="fill:#d1d1d1; stroke:none;" d="M1024 746L1025 747L1024 746M1020 747L1021 748L1020 747z"/>
                            <path style="fill:#dfdfdf; stroke:none;" d="M1023 750L1024 751L1023 750z"/>
                            <path style="fill:#d1d1d1; stroke:none;" d="M1023.33 751.667L1023.67 752.333L1023.33 751.667M1031 753L1032 754L1031 753z"/>
                            <path style="fill:#dfdfdf; stroke:none;" d="M1022 755L1023 756L1022 755z"/>
                            <path style="fill:#d1d1d1; stroke:none;" d="M1041 755L1042 756L1041 755z"/>
                            <path style="fill:#dfdfdf; stroke:none;" d="M1043 757L1044 758L1043 757M1022 759L1023 760L1022 759z"/>
                            <path style="fill:#d1d1d1; stroke:none;" d="M1043 760L1044 761L1043 760M1061 760L1062 761L1061 760z"/>
                            <path style="fill:#dfdfdf; stroke:none;" d="M1024 761L1025 762L1024 761z"/>
                            <path style="fill:#d1d1d1; stroke:none;" d="M1060.33 761.667L1060.67 762.333L1060.33 761.667z"/>
                            <path style="fill:#dfdfdf; stroke:none;" d="M1065.33 762.667L1065.67 763.333L1065.33 762.667z"/>
                            <path style="fill:#d1d1d1; stroke:none;" d="M1043 763L1044 764L1043 763z"/>
                            <path style="fill:#dfdfdf; stroke:none;" d="M1060 763L1061 764L1060 763M1030 764L1031 765L1030 764M1035 765L1036 766L1035 765z"/>
                            <path style="fill:#d1d1d1; stroke:none;" d="M1038 766L1039 767L1038 766z"/>
                            <path style="fill:#dfdfdf; stroke:none;" d="M1060 766L1061 767L1060 766z"/>
                            <path style="fill:#d1d1d1; stroke:none;" d="M1061 767L1062 768L1061 767M1064 768L1065 769L1064 768M1040 770L1041 771L1040 770M1061 770L1062 771L1061 770z"/>
                            <path style="fill:#dfdfdf; stroke:none;" d="M1066.67 770.333L1067.33 770.667L1066.67 770.333M1039 771L1040 772L1039 771z"/>
                            <path style="fill:#d1d1d1; stroke:none;" d="M1054 771L1055 772L1054 771z"/>
                            <path style="fill:#dfdfdf; stroke:none;" d="M1071 771L1072 772L1071 771M1036 772L1037 773L1036 772M1056 772L1057 773L1056 772M1059 772L1060 773L1059 772M1035 773L1036 774L1035 773z"/>
                            <path style="fill:#d1d1d1; stroke:none;" d="M1035 774L1036 775L1035 774z"/>
                            <path style="fill:#dfdfdf; stroke:none;" d="M1073 774L1074 775L1073 774z"/>
                            <path style="fill:#d1d1d1; stroke:none;" d="M1074 775L1075 776L1074 775z"/>
                            <path style="fill:#dfdfdf; stroke:none;" d="M1036 776L1037 777L1036 776M1077 781L1078 782L1077 781M1036 782L1037 783L1036 782M1035 784L1036 785L1035 784M1079 785L1080 786L1079 785M1083 787L1084 788L1083 787z"/>
                            <path style="fill:#d1d1d1; stroke:none;" d="M1084 789L1085 790L1084 789M1085 791L1086 792L1085 791z"/>
                            <path style="fill:#dfdfdf; stroke:none;" d="M1038 798L1039 799L1038 798M1083 799L1084 800L1083 799z"/>
</svg>
