<?xml version="1.0" standalone="yes"?>
<svg xmlns="http://www.w3.org/2000/svg" width="1450" height="800">
                        <path onclick = "Kumamoto()" class = "Kumamoto" style = "fill:#010101; stroke:none;" d="M0 0L0 800L1450 800L1450 0L0 0z"/>
                        <path onclick = "Kumamoto()" class = "Kumamoto" style = "fill:#d0d5d8; stroke:none;" d="M293.667 325.333L294.333 325.667L293.667 325.333z"/>
                        <path onclick = "Kumamoto()" class = "Kumamoto" style = "fill:#ffffff; stroke:none;" d="M229 331C224.537 342.805 222.276 337.583 213.17 342.063C208.213 344.502 204.908 350.126 200 353C201.732 358.315 202.085 360.896 197 364C200.441 372.92 204.545 383.284 203 393C220.255 395.598 221.459 419.132 208.7 428.402C202.079 433.212 188.704 434.984 184.457 442.213C179.395 450.829 192.492 456.68 190 443C202.681 441.942 213.526 441.021 211 456C200.545 457.816 211.457 470.848 209.686 477C207.948 483.037 201.435 488.579 198.208 494C194.733 499.84 194.08 506.681 189.671 511.996C184.452 518.285 178.384 521.743 176 530C179.095 532.627 181.315 537.749 185.105 539.243C190.281 541.284 204.273 534.887 208.957 532.2C211.004 531.025 213.698 527.161 216.12 527.203C222.301 527.309 228.284 540.09 235 542.196C246.596 545.832 255.758 540.351 266 537.703C269.749 536.734 273.228 539.814 276.957 537.957C280.737 536.074 281.955 531.219 286.043 529.782C290.107 528.355 296.139 533.735 299.353 530.378C304.377 525.13 290.165 515.751 291.056 510.059C291.908 504.617 301.24 505.25 299.918 498C297.18 482.986 282.194 477.524 285.329 460C286.136 455.493 289.072 449.53 293.184 447.179C295.571 445.814 299.126 446.585 301.012 444.397C303.734 441.237 303.006 435.67 305.14 432.058C308.623 426.161 315.684 420.043 320.581 415.139C328.17 407.539 323.81 398.604 337 396C334.042 391.623 328.767 390.435 326.664 384.996C324.319 378.934 327.011 372.762 325.234 367C322.6 358.462 315.855 351.847 312.309 344C309.05 336.789 308.461 328.305 299 326.098C296.699 325.561 294.312 325.658 292 326.054C268.815 330.021 300.872 350.94 281.985 357.824C278.605 359.056 270.052 352.611 267.285 350.45C255.486 341.232 241.684 337.433 229 331z"/>
                        <path onclick = "Kumamoto()" class = "Kumamoto" style = "fill:#d0d5d8; stroke:none;" d="M296.667 325.333L297.333 325.667L296.667 325.333M301 326L302 327L301 326M286 327L287 328L286 327M303 327L304 328L303 327M304 328L305 329L304 328M305 329L306 330L305 329M229 330L230 331L229 330M230 331L231 332L230 331M237.667 332.333L238.333 332.667L237.667 332.333M227.333 334.667L227.667 335.333L227.333 334.667M241 336L242 337L241 336M242 337L243 338L242 337M283 337L284 338L283 337M226 339L227 340L226 339M249 339L250 340L249 339M311 339L312 340L311 339M214 340L215 341L214 340M225 340L226 341L225 340M251 340L252 341L251 340M212 341L213 342L212 341M217 341L218 342L217 341M223 341L224 342L223 341M311 341L311 344L312 344L311 341M254 342L255 343L254 342M257 344L258 345L257 344M260.667 345.333L261.333 345.667L260.667 345.333M288.333 345.667L288.667 346.333L288.333 345.667M316 349L317 350L316 349M266 350L267 351L266 350M317 350L318 351L317 350M203 351L204 352L203 351M200 352L201 353L200 352M269 352L270 353L269 352M273 353L274 354L273 353M200.333 354.667L200.667 355.333L200.333 354.667M319 354L320 355L319 354M276 356L277 357L276 356M278 358L279 359L278 358M320 358L321 359L320 358M202.333 359.667L202.667 360.333L202.333 359.667M322 362L323 363L322 362M323 363L324 364L323 363M324 364L325 365L324 364M325 378L325 381L326 381L325 378M203 388L204 389L203 388M329 390L330 391L329 390M203 391L204 392L203 391M332 392L333 393L332 392M206 393L207 394L206 393M335 393L336 394L335 393M337 395L338 396L337 395M334.667 396.333L335.333 396.667L334.667 396.333M329 397L330 398L329 397M214 398L215 399L214 398M215 400L216 401L215 400M326 400L327 401L326 400M325 402L326 403L325 402M216 404L217 405L216 404M324 406L325 407L324 406M320 415L321 416L320 415M318 416L319 417L318 416z"/>
                        <path onclick = "Kumamoto()" class = "Kumamoto" style = "fill:#74cbfe; stroke:none;" d="M216 417L217 418L216 417z"/>
                        <path onclick = "Kumamoto()" class = "Kumamoto" style = "fill:#d0d5d8; stroke:none;" d="M216 418L217 419L216 418M215 421L216 422L215 421M313 421L314 422L313 421M214 422L215 423L214 422z"/>
                        <path onclick = "Kumamoto()" class = "Kumamoto" style = "fill:#74cbfe; stroke:none;" d="M213 423L214 424L213 423z"/>
                        <path onclick = "Kumamoto()" class = "Kumamoto" style = "fill:#d0d5d8; stroke:none;" d="M312 423L313 424L312 423M212 425L213 426L212 425M216 425L217 426L216 425M311 427L312 428L311 427M209 428L210 429L209 428M307 428L308 429L307 428z"/>
                        <path onclick = "Kumamoto()" class = "Kumamoto" style = "fill:#74cbfe; stroke:none;" d="M207 429L208 430L207 429M204 430L205 431L204 430z"/>
                        <path onclick = "Kumamoto()" class = "Kumamoto" style = "fill:#d0d5d8; stroke:none;" d="M203 431L204 432L203 431z"/>
                        <path onclick = "Kumamoto()" class = "Kumamoto" style = "fill:#74cbfe; stroke:none;" d="M201 432L202 433L201 432z"/>
                        <path onclick = "Kumamoto()" class = "Kumamoto" style = "fill:#d0d5d8; stroke:none;" d="M304 432L305 433L304 432z"/>
                        <path onclick = "Kumamoto()" class = "Kumamoto" style = "fill:#74cbfe; stroke:none;" d="M198 433L199 434L198 433z"/>
                        <path onclick = "Kumamoto()" class = "Kumamoto" style = "fill:#d0d5d8; stroke:none;" d="M197 434L198 435L197 434z"/>
                        <path onclick = "Kumamoto()" class = "Kumamoto" style = "fill:#74cbfe; stroke:none;" d="M195 435L196 436L195 435z"/>
                        <path onclick = "Kumamoto()" class = "Kumamoto" style = "fill:#01a3ff; stroke:none;" d="M222 436L221 441L226 437L222 436z"/>
                        <path onclick = "Kumamoto()" class = "Kumamoto" style = "fill:#74cbfe; stroke:none;" d="M209 443L210 444L209 443z"/>
                        <path onclick = "Kumamoto()" class = "Kumamoto" style = "fill:#d0d5d8; stroke:none;" d="M211 444L212 445L211 444z"/>
                        <path onclick = "Kumamoto()" class = "Kumamoto" style = "fill:#74cbfe; stroke:none;" d="M212 446L213 447L212 446z"/>
                        <path onclick = "Kumamoto()" class = "Kumamoto" style = "fill:#d0d5d8; stroke:none;" d="M297 446L297 447L300 447L297 446M291 447L292 448L291 447M289 450L290 451L289 450M287 453L288 454L287 453M286 455L287 456L286 455M206 457L207 458L206 457M285 458L286 459L285 458M206.333 462.667L206.667 463.333L206.333 462.667M207 466L208 467L207 466M208 469L209 470L208 469M285.333 471.667L285.667 472.333L285.333 471.667M209 472L210 473L209 472M287 479L288 480L287 479M206 482L207 483L206 482M203 486L204 487L203 486M200 490L201 491L200 490M295 491L296 492L295 491M198 493L199 494L198 493M197 495L198 496L197 495M300 497L301 498L300 497M195 498L196 499L195 498M300 499L301 500L300 499M194 500L194 503L195 503L194 500M298 503L299 504L298 503M193 506L194 507L193 506M292 506L293 507L292 506M291 507L292 508L291 507M192 508L193 509L192 508M190 511L191 512L190 511M189 512L190 513L189 512M290 512L291 513L290 512M184 517L185 518L184 517M294 517L295 518L294 517M178 523L179 524L178 523M177 525L178 526L177 525M214 526L215 527L214 526M217 526L218 527L217 526M300 526L301 527L300 526M176 527L177 528L176 527M218 527L219 528L218 527M290 529L291 530L290 529M293 530L294 531L293 530M178 531L179 532L178 531M179 532L180 533L179 532M204 534L205 535L204 534M198 535L198 536L202 536L198 535M181 536L182 537L181 536M195 536L196 537L195 536M279 536L280 537L279 536M269 537L270 538L269 537M278 537L279 538L278 537M184 539L185 540L184 539M190 539L191 540L190 539M232 541L233 542L232 541M235 542L236 543L235 542M248 542L248 543L253 543L248 542M257 542L258 543L257 542z"/>
</svg>
