<?xml version="1.0" standalone="yes"?>
<svg xmlns="http://www.w3.org/2000/svg" width="1450" height="800">
<path style="fill:#d1d1d1; stroke:none;" d="M1346 450L1347 451L1346 450M1351 450L1352 451L1351 450z"/>
<path style="fill:#ffffff; stroke:none;" d="M1352 450C1347.79 451.248 1342.23 453.423 1338 453.978C1333.24 454.604 1330.66 450.779 1326.01 454.319C1316.15 461.838 1307.94 491.359 1293 487C1296.63 473.644 1286.48 473 1276 473C1275.17 478.478 1273.27 481.909 1268 484C1269.81 487.307 1274.41 489.629 1275.44 493.104C1277.21 499.053 1268.7 509.429 1264 512C1265.64 523.269 1256.51 532.198 1257.15 543C1258.15 559.884 1282.14 566.309 1267.2 584.852C1263.92 588.929 1259.47 587.337 1255 588.418C1244.49 590.962 1234.18 590.999 1223.09 592.595C1220.3 592.996 1218.45 595.802 1215.56 595.536C1207.99 594.838 1195.57 587.768 1189.33 594.394C1186.91 596.967 1187.99 599.89 1187.34 603C1186.17 608.675 1180 614.738 1181.36 620.856C1182.98 628.151 1188.68 629.526 1187 639C1190.01 639.706 1194 637.431 1196.42 639.461C1200.73 643.092 1199.39 647.309 1200.36 652C1201.66 658.328 1210.35 673.93 1203 678L1198 705C1207.32 708.924 1212.36 700.571 1220.9 701.163C1225.33 701.47 1235.35 718.105 1238 722L1245 721C1243.29 708.81 1249.12 700.083 1254.69 690C1256.77 686.224 1258.28 680.079 1262.13 677.708C1265.16 675.845 1268.74 677.991 1272 677.852C1276.67 677.653 1281.42 674.989 1286 673.949C1289.62 673.126 1294.52 666.308 1297.74 667.344C1306.5 670.157 1312.64 684.289 1316 692C1325.15 690.951 1328.12 698.713 1336 699.469C1341.69 700.015 1344.69 693.512 1350 693.04C1357.2 692.401 1368.41 701.822 1374 706L1375 706C1382.38 699.285 1398.93 693.653 1401.6 683C1402.65 678.825 1399.96 674.888 1399 671L1407 671L1403.18 661L1406.25 648.213L1396 634C1385.22 630.301 1391.91 625.349 1390.25 618C1389.14 613.06 1382.99 603.478 1379.81 599.274C1376.31 594.635 1369.84 594.294 1367 589C1351.19 588.944 1357.47 573.149 1367.04 567.367C1371.88 564.445 1375.23 566.137 1380 568C1387.46 554.956 1401.77 546.592 1403 531C1390.69 525.24 1396.87 518.859 1399.31 509.83C1401.25 502.666 1399.65 499.269 1404.19 492C1407.57 486.586 1412.92 481.435 1408.74 475.019C1404.99 469.274 1391.45 460.318 1385 458.735C1377.78 456.961 1370.02 461.621 1367 451C1359.52 455.609 1355.62 459.337 1352 450z"/>
<path style="fill:#d1d1d1; stroke:none;" d="M1353 450L1354 451L1353 450M1330.67 451.333L1331.33 451.667L1330.67 451.333M1365 451L1366 452L1365 451z"/>
<path style="fill:#dfdfdf; stroke:none;" d="M1367.33 451.667L1367.67 452.333L1367.33 451.667M1341 452L1342 453L1341 452z"/>
<path style="fill:#d1d1d1; stroke:none;" d="M1364 452L1365 453L1364 452M1326 453L1327 454L1326 453z"/>
<path style="fill:#dfdfdf; stroke:none;" d="M1340 453L1341 454L1340 453M1352.33 453.667L1352.67 454.333L1352.33 453.667z"/>
<path style="fill:#ededed; stroke:none;" d="M1363 453L1364 454L1363 453z"/>
<path style="fill:#d1d1d1; stroke:none;" d="M1367 453L1368 454L1367 453z"/>
<path style="fill:#ededed; stroke:none;" d="M1325 454L1326 455L1325 454z"/>
<path style="fill:#d1d1d1; stroke:none;" d="M1338 454L1339 455L1338 454z"/>
<path style="fill:#ededed; stroke:none;" d="M1367 454L1368 455L1367 454M1324 455L1325 456L1324 455z"/>
<path style="fill:#d1d1d1; stroke:none;" d="M1360 455L1361 456L1360 455z"/>
<path style="fill:#ededed; stroke:none;" d="M1323 456L1324 457L1323 456M1353 456L1354 457L1353 456z"/>
<path style="fill:#dfdfdf; stroke:none;" d="M1322 457L1323 458L1322 457z"/>
<path style="fill:#ededed; stroke:none;" d="M1370 457L1371 458L1370 457z"/>
<path style="fill:#d1d1d1; stroke:none;" d="M1374 458L1375 459L1374 458z"/>
<path style="fill:#ededed; stroke:none;" d="M1386 458L1387 459L1386 458z"/>
<path style="fill:#d1d1d1; stroke:none;" d="M1380 459L1381 460L1380 459M1387 459L1388 460L1387 459z"/>
<path style="fill:#ededed; stroke:none;" d="M1320 460L1321 461L1320 460M1378 460L1379 461L1378 460z"/>
<path style="fill:#d1d1d1; stroke:none;" d="M1390 462L1391 463L1390 462z"/>
<path style="fill:#ededed; stroke:none;" d="M1391 463L1392 464L1391 463z"/>
<path style="fill:#d1d1d1; stroke:none;" d="M1393 464L1394 465L1393 464z"/>
<path style="fill:#ededed; stroke:none;" d="M1317 465L1318 466L1317 465M1395 465L1396 466L1395 465M1316 466L1317 467L1316 466M1313 467L1314 468L1313 467M1401 469L1402 470L1401 469M1405 470L1406 471L1405 470M1311 471L1312 472L1311 471z"/>
<path style="fill:#dfdfdf; stroke:none;" d="M1278 472L1279 473L1278 472z"/>
<path style="fill:#ededed; stroke:none;" d="M1279 472L1280 473L1279 472z"/>
<path style="fill:#d1d1d1; stroke:none;" d="M1285 472L1286 473L1285 472z"/>
<path style="fill:#dfdfdf; stroke:none;" d="M1286 472L1287 473L1286 472z"/>
<path style="fill:#d1d1d1; stroke:none;" d="M1287 472L1288 473L1287 472z"/>
<path style="fill:#dfdfdf; stroke:none;" d="M1289 473L1290 474L1289 473z"/>
<path style="fill:#ededed; stroke:none;" d="M1407 473L1408 474L1407 473z"/>
<path style="fill:#dfdfdf; stroke:none;" d="M1275 474L1276 475L1275 474z"/>
<path style="fill:#ededed; stroke:none;" d="M1408 474L1409 475L1408 474M1275.33 475.667L1275.67 476.333L1275.33 475.667z"/>
<path style="fill:#dfdfdf; stroke:none;" d="M1409 475L1410 476L1409 475z"/>
<path style="fill:#ededed; stroke:none;" d="M1293 477L1294 478L1293 477M1410 477L1411 478L1410 477M1294 479L1295 480L1294 479z"/>
<path style="fill:#d1d1d1; stroke:none;" d="M1309 479L1310 480L1309 479z"/>
<path style="fill:#ededed; stroke:none;" d="M1273 481L1274 482L1273 481M1294 481L1295 482L1294 481z"/>
<path style="fill:#dfdfdf; stroke:none;" d="M1305 481L1306 482L1305 481M1294 482L1295 483L1294 482z"/>
<path style="fill:#d1d1d1; stroke:none;" d="M1410 482L1411 483L1410 482z"/>
<path style="fill:#ededed; stroke:none;" d="M1270 483L1271 484L1270 483z"/>
<path style="fill:#dfdfdf; stroke:none;" d="M1268 485L1269 486L1268 485M1293 485L1294 486L1293 485M1302 485L1303 486L1302 485z"/>
<path style="fill:#ededed; stroke:none;" d="M1293 486L1294 487L1293 486z"/>
<path style="fill:#dfdfdf; stroke:none;" d="M1407 486L1408 487L1407 486z"/>
<path style="fill:#d1d1d1; stroke:none;" d="M1270 488L1271 489L1270 488z"/>
<path style="fill:#dfdfdf; stroke:none;" d="M1296.67 488.333L1297.33 488.667L1296.67 488.333z"/>
<path style="fill:#ededed; stroke:none;" d="M1298 488L1299 489L1298 488M1272 489L1273 490L1272 489z"/>
<path style="fill:#dfdfdf; stroke:none;" d="M1405 489L1406 490L1405 489z"/>
<path style="fill:#ededed; stroke:none;" d="M1276.33 492.667L1276.67 493.333L1276.33 492.667z"/>
<path style="fill:#dfdfdf; stroke:none;" d="M1402 494L1403 495L1402 494z"/>
<path style="fill:#d1d1d1; stroke:none;" d="M1275 496L1276 497L1275 496z"/>
<path style="fill:#dfdfdf; stroke:none;" d="M1400 497L1401 498L1400 497z"/>
<path style="fill:#d1d1d1; stroke:none;" d="M1274 498L1275 499L1274 498z"/>
<path style="fill:#dfdfdf; stroke:none;" d="M1273 500L1274 501L1273 500M1398 500L1399 501L1398 500z"/>
<path style="fill:#ededed; stroke:none;" d="M1272 502L1273 503L1272 502M1399 506L1400 507L1399 506z"/>
<path style="fill:#d1d1d1; stroke:none;" d="M1269 507L1270 508L1269 507z"/>
<path style="fill:#ededed; stroke:none;" d="M1400.33 508.667L1400.67 509.333L1400.33 508.667M1268 509L1269 510L1268 509z"/>
<path style="fill:#dfdfdf; stroke:none;" d="M1267 510L1268 511L1267 510z"/>
<path style="fill:#d1d1d1; stroke:none;" d="M1264 511L1265 512L1264 511z"/>
<path style="fill:#ededed; stroke:none;" d="M1265 511L1266 512L1265 511z"/>
<path style="fill:#dfdfdf; stroke:none;" d="M1399 511L1400 512L1399 511z"/>
<path style="fill:#ededed; stroke:none;" d="M1263 512L1264 513L1263 512M1397 512L1398 513L1397 512M1396 513L1397 514L1396 513z"/>
<path style="fill:#dfdfdf; stroke:none;" d="M1395 515L1396 516L1395 515z"/>
<path style="fill:#d1d1d1; stroke:none;" d="M1265 517L1266 518L1265 517z"/>
<path style="fill:#dfdfdf; stroke:none;" d="M1265 518L1266 519L1265 518z"/>
<path style="fill:#ededed; stroke:none;" d="M1394 520L1394 523L1395 523L1394 520M1263 522L1264 523L1263 522z"/>
<path style="fill:#dfdfdf; stroke:none;" d="M1262 523L1263 524L1262 523z"/>
<path style="fill:#ededed; stroke:none;" d="M1395 525L1396 526L1395 525z"/>
<path style="fill:#d1d1d1; stroke:none;" d="M1261 526L1262 527L1261 526M1396 526L1397 527L1396 526z"/>
<path style="fill:#ededed; stroke:none;" d="M1400 530L1401 531L1400 530z"/>
<path style="fill:#dfdfdf; stroke:none;" d="M1260 533L1261 534L1260 533M1258 535L1259 536L1258 535z"/>
<path style="fill:#ededed; stroke:none;" d="M1402 535L1403 536L1402 535z"/>
<path style="fill:#dfdfdf; stroke:none;" d="M1257 537L1258 538L1257 537z"/>
<path style="fill:#ededed; stroke:none;" d="M1257 538L1258 539L1257 538z"/>
<path style="fill:#d1d1d1; stroke:none;" d="M1401 542L1402 543L1401 542z"/>
<path style="fill:#ededed; stroke:none;" d="M1400 543L1401 544L1400 543z"/>
<path style="fill:#dfdfdf; stroke:none;" d="M1399 544L1400 545L1399 544z"/>
<path style="fill:#d1d1d1; stroke:none;" d="M1398 545L1399 546L1398 545M1257 546L1258 547L1257 546M1395 547L1396 548L1395 547z"/>
<path style="fill:#ededed; stroke:none;" d="M1393 548L1394 549L1393 548z"/>
<path style="fill:#d1d1d1; stroke:none;" d="M1260 550L1261 551L1260 550z"/>
<path style="fill:#dfdfdf; stroke:none;" d="M1391 552L1392 553L1391 552z"/>
<path style="fill:#ededed; stroke:none;" d="M1261 554L1262 555L1261 554M1390 554L1391 555L1390 554M1264 555L1265 556L1264 555z"/>
<path style="fill:#dfdfdf; stroke:none;" d="M1265 556L1266 557L1265 556z"/>
<path style="fill:#ededed; stroke:none;" d="M1386 557L1387 558L1386 557M1266 558L1267 559L1266 558z"/>
<path style="fill:#d1d1d1; stroke:none;" d="M1385 558L1386 559L1385 558M1266 559L1267 560L1266 559M1384 559L1385 560L1384 559z"/>
<path style="fill:#ededed; stroke:none;" d="M1383 560L1384 561L1383 560M1267 561L1268 562L1267 561z"/>
<path style="fill:#dfdfdf; stroke:none;" d="M1382 563L1383 564L1382 563M1270 564L1271 565L1270 564z"/>
<path style="fill:#ededed; stroke:none;" d="M1370 565L1371 566L1370 565M1375 565L1376 566L1375 565z"/>
<path style="fill:#dfdfdf; stroke:none;" d="M1381 565L1382 566L1381 565z"/>
<path style="fill:#ededed; stroke:none;" d="M1271 566L1272 567L1271 566z"/>
<path style="fill:#dfdfdf; stroke:none;" d="M1364 568L1365 569L1364 568M1363 569L1364 570L1363 569M1272 571L1273 572L1272 571M1362 571L1363 572L1362 571z"/>
<path style="fill:#d1d1d1; stroke:none;" d="M1361 575L1362 576L1361 575z"/>
<path style="fill:#dfdfdf; stroke:none;" d="M1359 577L1360 578L1359 577z"/>
<path style="fill:#ededed; stroke:none;" d="M1357 578L1358 579L1357 578z"/>
<path style="fill:#dfdfdf; stroke:none;" d="M1268 582L1269 583L1268 582M1267 585L1268 586L1267 585M1256 587L1257 588L1256 587z"/>
<path style="fill:#ededed; stroke:none;" d="M1257 587L1258 588L1257 587z"/>
<path style="fill:#dfdfdf; stroke:none;" d="M1258 587L1259 588L1258 587z"/>
<path style="fill:#d1d1d1; stroke:none;" d="M1259 587L1260 588L1259 587z"/>
<path style="fill:#dfdfdf; stroke:none;" d="M1265 587L1266 588L1265 587M1362.67 588.333L1363.33 588.667L1362.67 588.333z"/>
<path style="fill:#d1d1d1; stroke:none;" d="M1364 588L1365 589L1364 588z"/>
<path style="fill:#ededed; stroke:none;" d="M1239 589L1240 590L1239 589z"/>
<path style="fill:#dfdfdf; stroke:none;" d="M1241 589L1242 590L1241 589z"/>
<path style="fill:#ededed; stroke:none;" d="M1232.67 590.333L1233.33 590.667L1232.67 590.333z"/>
<path style="fill:#d1d1d1; stroke:none;" d="M1236 590L1237 591L1236 590z"/>
<path style="fill:#dfdfdf; stroke:none;" d="M1242 590L1243 591L1242 590z"/>
<path style="fill:#ededed; stroke:none;" d="M1250 590L1251 591L1250 590z"/>
<path style="fill:#dfdfdf; stroke:none;" d="M1193 591L1194 592L1193 591z"/>
<path style="fill:#d1d1d1; stroke:none;" d="M1244 591L1245 592L1244 591M1247 591L1248 592L1247 591z"/>
<path style="fill:#ededed; stroke:none;" d="M1248 591L1249 592L1248 591M1367 591L1368 592L1367 591z"/>
<path style="fill:#dfdfdf; stroke:none;" d="M1191 592L1192 593L1191 592z"/>
<path style="fill:#d1d1d1; stroke:none;" d="M1200 592L1201 593L1200 592z"/>
<path style="fill:#dfdfdf; stroke:none;" d="M1220 592L1221 593L1220 592z"/>
<path style="fill:#ededed; stroke:none;" d="M1224 592L1225 593L1224 592z"/>
<path style="fill:#dfdfdf; stroke:none;" d="M1229 592L1230 593L1229 592z"/>
<path style="fill:#ededed; stroke:none;" d="M1368 592L1369 593L1368 592z"/>
<path style="fill:#d1d1d1; stroke:none;" d="M1189 593L1190 594L1189 593z"/>
<path style="fill:#ededed; stroke:none;" d="M1203 593L1204 594L1203 593z"/>
<path style="fill:#d1d1d1; stroke:none;" d="M1204 593L1205 594L1204 593z"/>
<path style="fill:#dfdfdf; stroke:none;" d="M1371 593L1372 594L1371 593z"/>
<path style="fill:#ededed; stroke:none;" d="M1188 594L1189 595L1188 594M1219 594L1220 595L1219 594M1373 594L1374 595L1373 594z"/>
<path style="fill:#dfdfdf; stroke:none;" d="M1187 595L1188 596L1187 595z"/>
<path style="fill:#ededed; stroke:none;" d="M1214 595L1215 596L1214 595M1374 595L1375 596L1374 595M1216 596L1217 597L1216 596z"/>
<path style="fill:#dfdfdf; stroke:none;" d="M1379 597L1380 598L1379 597z"/>
<path style="fill:#ededed; stroke:none;" d="M1187 599L1188 600L1187 599z"/>
<path style="fill:#d1d1d1; stroke:none;" d="M1187 600L1188 601L1187 600M1380 600L1381 601L1380 600M1187 602L1188 603L1187 602z"/>
<path style="fill:#dfdfdf; stroke:none;" d="M1187 603L1188 604L1187 603z"/>
<path style="fill:#ededed; stroke:none;" d="M1325 603L1326 604L1325 603M1328 603L1329 604L1328 603M1331 603L1332 604L1331 603M1334 603L1335 604L1334 603M1337 603L1338 604L1337 603z"/>
<path style="fill:#d1d1d1; stroke:none;" d="M1383 605L1384 606L1383 605z"/>
<path style="fill:#ededed; stroke:none;" d="M1186 606L1187 607L1186 606z"/>
<path style="fill:#dfdfdf; stroke:none;" d="M1384 608L1385 609L1384 608z"/>
<path style="fill:#d1d1d1; stroke:none;" d="M1183 611L1184 612L1183 611z"/>
<path style="fill:#ededed; stroke:none;" d="M1385 611L1386 612L1385 611M1183 612L1184 613L1183 612z"/>
<path style="fill:#d1d1d1; stroke:none;" d="M1182 614L1183 615L1182 614M1181 616L1182 617L1181 616M1390 616L1391 617L1390 616z"/>
<path style="fill:#ededed; stroke:none;" d="M1180 618L1181 619L1180 618M1391 618L1392 619L1391 618z"/>
<path style="fill:#dfdfdf; stroke:none;" d="M1180 619L1181 620L1180 619M1391 619L1392 620L1391 619z"/>
<path style="fill:#d1d1d1; stroke:none;" d="M1181 623L1182 624L1181 623z"/>
<path style="fill:#ededed; stroke:none;" d="M1388 623L1389 624L1388 623z"/>
<path style="fill:#dfdfdf; stroke:none;" d="M1186 625L1187 626L1186 625M1389 630L1390 631L1389 630M1187 631L1188 632L1187 631z"/>
<path style="fill:#d1d1d1; stroke:none;" d="M1390 631L1391 632L1390 631z"/>
<path style="fill:#ededed; stroke:none;" d="M1391 632L1392 633L1391 632M1393 633L1394 634L1393 633z"/>
<path style="fill:#d1d1d1; stroke:none;" d="M1394 633L1395 634L1394 633z"/>
<path style="fill:#ededed; stroke:none;" d="M1396 634L1397 635L1396 634z"/>
<path style="fill:#d1d1d1; stroke:none;" d="M1396 635L1397 636L1396 635z"/>
<path style="fill:#dfdfdf; stroke:none;" d="M1187 636L1188 637L1187 636M1193 637L1194 638L1193 637M1192 638L1193 639L1192 638z"/>
<path style="fill:#d1d1d1; stroke:none;" d="M1396 638L1397 639L1396 638M1187 639L1188 640L1187 639M1189.67 640.333L1190.33 640.667L1189.67 640.333z"/>
<path style="fill:#ededed; stroke:none;" d="M1197 640L1198 641L1197 640z"/>
<path style="fill:#dfdfdf; stroke:none;" d="M1400 643L1401 644L1400 643z"/>
<path style="fill:#d1d1d1; stroke:none;" d="M1200 644L1201 645L1200 644z"/>
<path style="fill:#dfdfdf; stroke:none;" d="M1402 644L1403 645L1402 644z"/>
<path style="fill:#ededed; stroke:none;" d="M1404 645L1405 646L1404 645z"/>
<path style="fill:#d1d1d1; stroke:none;" d="M1200 647L1201 648L1200 647M1406 647L1407 648L1406 647M1199.33 651.667L1199.67 652.333L1199.33 651.667z"/>
<path style="fill:#ededed; stroke:none;" d="M1200 654L1201 655L1200 654z"/>
<path style="fill:#d1d1d1; stroke:none;" d="M1406 654L1407 655L1406 654z"/>
<path style="fill:#dfdfdf; stroke:none;" d="M1201 655L1202 656L1201 655z"/>
<path style="fill:#d1d1d1; stroke:none;" d="M1405 656L1406 657L1405 656z"/>
<path style="fill:#dfdfdf; stroke:none;" d="M1404 657L1405 658L1404 657z"/>
<path style="fill:#ededed; stroke:none;" d="M1204 658L1205 659L1204 658z"/>
<path style="fill:#dfdfdf; stroke:none;" d="M1403 658L1404 659L1403 658z"/>
<path style="fill:#ededed; stroke:none;" d="M1402 659L1403 660L1402 659z"/>
<path style="fill:#d1d1d1; stroke:none;" d="M1204 661L1205 662L1204 661M1402 662L1403 663L1402 662z"/>
<path style="fill:#dfdfdf; stroke:none;" d="M1203 664L1204 665L1203 664z"/>
<path style="fill:#d1d1d1; stroke:none;" d="M1404 664L1405 665L1404 664z"/>
<path style="fill:#dfdfdf; stroke:none;" d="M1299 667L1300 668L1299 667z"/>
<path style="fill:#d1d1d1; stroke:none;" d="M1406 667L1407 668L1406 667z"/>
<path style="fill:#dfdfdf; stroke:none;" d="M1293 668L1294 669L1293 668z"/>
<path style="fill:#d1d1d1; stroke:none;" d="M1293 669L1294 670L1293 669z"/>
<path style="fill:#ededed; stroke:none;" d="M1300 670L1301 671L1300 670M1402 670L1402 671L1406 671L1402 670M1206 671L1207 672L1206 671M1291 671L1292 672L1291 671z"/>
<path style="fill:#d1d1d1; stroke:none;" d="M1399 671L1400 672L1399 671M1290 672L1291 673L1290 672z"/>
<path style="fill:#ededed; stroke:none;" d="M1303 673L1304 674L1303 673z"/>
<path style="fill:#dfdfdf; stroke:none;" d="M1282 674L1283 675L1282 674z"/>
<path style="fill:#d1d1d1; stroke:none;" d="M1283 674L1284 675L1283 674z"/>
<path style="fill:#dfdfdf; stroke:none;" d="M1304 674L1305 675L1304 674z"/>
<path style="fill:#d1d1d1; stroke:none;" d="M1279 675L1280 676L1279 675z"/>
<path style="fill:#ededed; stroke:none;" d="M1306 675L1307 676L1306 675z"/>
<path style="fill:#dfdfdf; stroke:none;" d="M1206 676L1207 677L1206 676z"/>
<path style="fill:#ededed; stroke:none;" d="M1262 676L1263 677L1262 676z"/>
<path style="fill:#d1d1d1; stroke:none;" d="M1264 676L1265 677L1264 676z"/>
<path style="fill:#dfdfdf; stroke:none;" d="M1265 676L1266 677L1265 676z"/>
<path style="fill:#ededed; stroke:none;" d="M1308 676L1309 677L1308 676z"/>
<path style="fill:#d1d1d1; stroke:none;" d="M1401 676L1402 677L1401 676z"/>
<path style="fill:#ededed; stroke:none;" d="M1205 677L1206 678L1205 677z"/>
<path style="fill:#d1d1d1; stroke:none;" d="M1267 677L1268 678L1267 677z"/>
<path style="fill:#dfdfdf; stroke:none;" d="M1275 677L1276 678L1275 677z"/>
<path style="fill:#d1d1d1; stroke:none;" d="M1309 677L1310 678L1309 677M1270 678L1271 679L1270 678z"/>
<path style="fill:#ededed; stroke:none;" d="M1271.67 678.333L1272.33 678.667L1271.67 678.333z"/>
<path style="fill:#dfdfdf; stroke:none;" d="M1273 678L1274 679L1273 678z"/>
<path style="fill:#ededed; stroke:none;" d="M1310 678L1311 679L1310 678z"/>
<path style="fill:#d1d1d1; stroke:none;" d="M1259 679L1260 680L1259 679z"/>
<path style="fill:#ededed; stroke:none;" d="M1401 680L1402 681L1401 680M1203 682L1204 683L1203 682z"/>
<path style="fill:#dfdfdf; stroke:none;" d="M1203 683L1204 684L1203 683z"/>
<path style="fill:#ededed; stroke:none;" d="M1312 683L1313 684L1312 683z"/>
<path style="fill:#d1d1d1; stroke:none;" d="M1203 684L1204 685L1203 684z"/>
<path style="fill:#dfdfdf; stroke:none;" d="M1313 684L1314 685L1313 684M1203 685L1204 686L1203 685z"/>
<path style="fill:#ededed; stroke:none;" d="M1203 686L1204 687L1203 686M1399 686L1400 687L1399 686z"/>
<path style="fill:#d1d1d1; stroke:none;" d="M1313 687L1314 688L1313 687M1314 689L1315 690L1314 689M1201 690L1202 691L1201 690z"/>
<path style="fill:#ededed; stroke:none;" d="M1315 690L1316 691L1315 690z"/>
<path style="fill:#dfdfdf; stroke:none;" d="M1395 690L1396 691L1395 690z"/>
<path style="fill:#ededed; stroke:none;" d="M1319 691L1320 692L1319 691M1323 691L1324 692L1323 691z"/>
<path style="fill:#d1d1d1; stroke:none;" d="M1200 692L1201 693L1200 692M1317 692L1318 693L1317 692z"/>
<path style="fill:#ededed; stroke:none;" d="M1349.67 692.333L1350.33 692.667L1349.67 692.333M1252 693L1253 694L1252 693z"/>
<path style="fill:#dfdfdf; stroke:none;" d="M1346 693L1347 694L1346 693z"/>
<path style="fill:#ededed; stroke:none;" d="M1354 693L1355 694L1354 693M1394 693L1395 694L1394 693z"/>
<path style="fill:#d1d1d1; stroke:none;" d="M1327 694L1328 695L1327 694z"/>
<path style="fill:#ededed; stroke:none;" d="M1328 694L1329 695L1328 694z"/>
<path style="fill:#dfdfdf; stroke:none;" d="M1345 694L1346 695L1345 694M1356 694L1357 695L1356 694z"/>
<path style="fill:#ededed; stroke:none;" d="M1389 694L1390 695L1389 694M1344 695L1345 696L1344 695z"/>
<path style="fill:#dfdfdf; stroke:none;" d="M1249 697L1250 698L1249 697z"/>
<path style="fill:#d1d1d1; stroke:none;" d="M1331 697L1332 698L1331 697M1342 697L1343 698L1342 697z"/>
<path style="fill:#ededed; stroke:none;" d="M1387 697L1388 698L1387 697z"/>
<path style="fill:#d1d1d1; stroke:none;" d="M1360 698L1361 699L1360 698z"/>
<path style="fill:#ededed; stroke:none;" d="M1386 698L1387 699L1386 698M1248 699L1249 700L1248 699z"/>
<path style="fill:#d1d1d1; stroke:none;" d="M1362 699L1362 700L1365 700L1362 699z"/>
<path style="fill:#dfdfdf; stroke:none;" d="M1365 699L1366 700L1365 699M1384 699L1385 700L1384 699z"/>
<path style="fill:#d1d1d1; stroke:none;" d="M1199 700L1200 701L1199 700z"/>
<path style="fill:#ededed; stroke:none;" d="M1219 700L1220 701L1219 700z"/>
<path style="fill:#dfdfdf; stroke:none;" d="M1222 700L1223 701L1222 700M1335 700L1336 701L1335 700z"/>
<path style="fill:#ededed; stroke:none;" d="M1367 700L1368 701L1367 700M1381 700L1382 701L1381 700z"/>
<path style="fill:#dfdfdf; stroke:none;" d="M1218 701L1219 702L1218 701M1223 701L1224 702L1223 701z"/>
<path style="fill:#d1d1d1; stroke:none;" d="M1247 701L1248 702L1247 701z"/>
<path style="fill:#ededed; stroke:none;" d="M1198 702L1199 703L1198 702z"/>
<path style="fill:#dfdfdf; stroke:none;" d="M1217 702L1218 703L1217 702z"/>
<path style="fill:#ededed; stroke:none;" d="M1368 702L1369 703L1368 702z"/>
<path style="fill:#d1d1d1; stroke:none;" d="M1378 702L1379 703L1378 702M1246 703L1247 704L1246 703z"/>
<path style="fill:#dfdfdf; stroke:none;" d="M1370 703L1371 704L1370 703z"/>
<path style="fill:#d1d1d1; stroke:none;" d="M1377 703L1378 704L1377 703M1210 704L1211 705L1210 704M1372 704L1373 705L1372 704z"/>
<path style="fill:#ededed; stroke:none;" d="M1376 704L1377 705L1376 704M1199 705L1200 706L1199 705z"/>
<path style="fill:#dfdfdf; stroke:none;" d="M1208 705L1209 706L1208 705z"/>
<path style="fill:#d1d1d1; stroke:none;" d="M1225 705L1226 706L1225 705M1373 705L1374 706L1373 705z"/>
<path style="fill:#ededed; stroke:none;" d="M1375 705L1376 706L1375 705z"/>
<path style="fill:#dfdfdf; stroke:none;" d="M1200 706L1201 707L1200 706z"/>
<path style="fill:#ededed; stroke:none;" d="M1206 706L1207 707L1206 706z"/>
<path style="fill:#d1d1d1; stroke:none;" d="M1207 706L1208 707L1207 706z"/>
<path style="fill:#dfdfdf; stroke:none;" d="M1202 707L1203 708L1202 707z"/>
<path style="fill:#ededed; stroke:none;" d="M1226 707L1227 708L1226 707M1227 709L1228 710L1227 709M1229 711L1230 712L1229 711M1231 712L1232 713L1231 712M1245 712L1246 713L1245 712M1244 715L1245 716L1244 715z"/>
<path style="fill:#dfdfdf; stroke:none;" d="M1234 716L1235 717L1234 716M1244 716L1245 717L1244 716z"/>
<path style="fill:#d1d1d1; stroke:none;" d="M1244 717L1245 718L1244 717z"/>
<path style="fill:#dfdfdf; stroke:none;" d="M1244 718L1245 719L1244 718z"/>
<path style="fill:#ededed; stroke:none;" d="M1236 719L1237 720L1236 719M1240 720L1241 721L1240 720z"/>
<path style="fill:#d1d1d1; stroke:none;" d="M1241 720L1242 721L1241 720z"/>
<path style="fill:#ededed; stroke:none;" d="M1243 720L1244 721L1243 720M1237 721L1238 722L1237 721z"/>
<path style="fill:#d1d1d1; stroke:none;" d="M1239 721L1240 722L1239 721z"/>
</svg>
