<?xml version="1.0" standalone="yes"?>
<svg xmlns="http://www.w3.org/2000/svg" width="1450" height="800">
                        <path onclick = "Fukushima()" class = "Fukushima" style = "fill:#010101; stroke:none;" d="M0 0L0 800L1450 800L1450 0L0 0z"/>
                        <path onclick = "Fukushima()" class = "Fukushima" style = "fill:#ffffff; stroke:none;" d="M409 130C407.335 136.972 405.745 145.828 406.144 153C406.648 162.059 412.691 172.833 398 175.566C393.591 176.386 383.042 179.016 379 178.102C375.136 177.227 372.668 173.827 369 172.614C365.698 171.522 362.247 173.286 359.005 171.782C354.841 169.849 353.68 164.226 349.66 162.644C344.733 160.703 335.485 162.99 330 162.606C326.06 162.331 323.113 159.805 319 160.728C304.265 164.033 302.368 179.609 295.66 189.96C292.85 194.295 286.892 196.505 286.163 202.004C285.401 207.752 292.409 220.974 288.381 225.272C282.997 231.018 273.433 224.978 267.004 226.398C261.368 227.643 260.587 233.245 255.945 235.682C248.387 239.651 236.19 237.139 229.333 242.857C225.616 245.957 232.042 260.901 230.25 267C228.518 272.895 221.653 276.994 221.242 283C220.679 291.244 230.517 293.229 233.106 300.001C234.843 304.542 233.029 309.344 233.029 314C233.03 320.174 235.22 325.781 234.424 332C233.964 335.592 231.148 344.406 233.782 347.258C235.763 349.402 251.605 351.509 254.996 351.728C260.932 352.112 266.019 344.058 271 341.313C284.011 334.146 297.352 326.626 311 320.719C316.248 318.448 321.176 315.01 327 315C334.903 297.033 355.606 300.111 371 305.915C382.58 310.281 395.992 320.776 401.567 332.054C403.696 336.36 402.243 342.613 405.024 346.49C408.039 350.693 415.087 352.667 418.787 357.001C424.354 363.523 428.909 371.337 438 373.767C443.552 375.251 455.278 365.487 455.762 359.996C456.029 356.974 453.171 348.456 458.225 347.631C462.167 346.988 464.32 353.293 467.209 354.972C473.799 358.801 486.255 361.497 494 363C497.756 348.621 520.251 351.589 525.529 336C527.15 331.212 524.175 325.974 525.279 320.91C531.366 292.998 537.649 262.993 536.985 234C536.681 220.686 532.935 207.332 532.025 194C531.021 179.295 530.337 166.016 521.85 153.911C519.791 150.975 519.201 146.113 515.775 144.362C505.03 138.869 507.458 157.043 505.168 160.956C501.784 166.738 493.98 167.56 488 166.7C483.207 166.011 476.304 164.261 474.694 158.985C472.835 152.894 477.905 147.518 469.981 143.804C462.107 140.113 454.02 143.667 446.001 142.566C438.733 141.568 439.754 133.233 433.891 131.434C425.179 128.759 417.981 134.191 409 130z"/>
                        <path onclick = "Fukushima()" class = "Fukushima" style = "fill:#dedede; stroke:none;" d="M430 130L431 131L430 130z"/>
                        <path onclick = "Fukushima()" class = "Fukushima" style = "fill:#e6e6e6; stroke:none;" d="M431.667 130.333L432.333 130.667L431.667 130.333M408 131L409 132L408 131M411 131L412 132L411 131M435 131L436 132L435 131M420 132L421 133L420 132M407 139L408 140L407 139M444 142L445 143L444 142M448.667 142.333L449.333 142.667L448.667 142.333M469 143L470 144L469 143M511 143L512 144L511 143M518 146L519 147L518 146z"/>
                        <path onclick = "Fukushima()" class = "Fukushima" style = "fill:#dedede; stroke:none;" d="M406 147L407 148L406 147z"/>
                        <path onclick = "Fukushima()" class = "Fukushima" style = "fill:#e6e6e6; stroke:none;" d="M406 148L407 149L406 148M475 149L476 150L475 149M475 151L476 152L475 151M520 152L521 153L520 152M522 155L523 156L522 155M406 156L407 157L406 156M523 156L524 157L523 156z"/>
                        <path onclick = "Fukushima()" class = "Fukushima" style = "fill:#dedede; stroke:none;" d="M506 157L507 158L506 157z"/>
                        <path onclick = "Fukushima()" class = "Fukushima" style = "fill:#e6e6e6; stroke:none;" d="M407 158L408 159L407 158M321 159L322 160L321 159M506 159L507 160L506 159M474 160L475 161L474 160z"/>
                        <path onclick = "Fukushima()" class = "Fukushima" style = "fill:#dedede; stroke:none;" d="M528 160L529 161L528 160z"/>
                        <path onclick = "Fukushima()" class = "Fukushima" style = "fill:#e6e6e6; stroke:none;" d="M314 162L315 163L314 162M332 162L333 163L332 162M340 163L341 164L340 163M342 163L343 164L342 163M351 163L352 164L351 163M477 163L478 164L477 163z"/>
                        <path onclick = "Fukushima()" class = "Fukushima" style = "fill:#dedede; stroke:none;" d="M479 164L480 165L479 164M353 167L354 168L353 167z"/>
                        <path onclick = "Fukushima()" class = "Fukushima" style = "fill:#e6e6e6; stroke:none;" d="M407 169L408 170L407 169M529.333 169.667L529.667 170.333L529.333 169.667z"/>
                        <path onclick = "Fukushima()" class = "Fukushima" style = "fill:#dedede; stroke:none;" d="M359 172L360 173L359 172z"/>
                        <path onclick = "Fukushima()" class = "Fukushima" style = "fill:#e6e6e6; stroke:none;" d="M363 172L364 173L363 172M303 173L304 174L303 173M371 173L372 174L371 173z"/>
                        <path onclick = "Fukushima()" class = "Fukushima" style = "fill:#dedede; stroke:none;" d="M403 173L404 174L403 173M302 174L303 175L302 174z"/>
                        <path onclick = "Fukushima()" class = "Fukushima" style = "fill:#e6e6e6; stroke:none;" d="M372 174L373 175L372 174M387 175L388 176L387 175M386 176L387 177L386 176M530.333 176.667L530.667 177.333L530.333 176.667M385 177L386 178L385 177M379 178L380 179L379 178z"/>
                        <path onclick = "Fukushima()" class = "Fukushima" style = "fill:#dedede; stroke:none;" d="M381 178L382 179L381 178z"/>
                        <path onclick = "Fukushima()" class = "Fukushima" style = "fill:#e6e6e6; stroke:none;" d="M382 178L383 179L382 178M531.333 187.667L531.667 188.333L531.333 187.667M296 189L297 190L296 189M293 193L294 194L293 193M532.333 197.667L532.667 198.333L532.333 197.667M533 206L533 209L534 209L533 206M287 212L288 213L287 212M534.333 214.667L534.667 215.333L534.333 214.667z"/>
                        <path onclick = "Fukushima()" class = "Fukushima" style = "fill:#01a3ff; stroke:none;" d="M381 226C379.671 217.86 368.61 218.652 365.032 225.174C363.006 228.866 365.374 232.719 367.062 236C368.426 238.65 369.643 241.579 371.613 243.853C383.292 257.338 395.349 229.061 381 226z"/>
                        <path onclick = "Fukushima()" class = "Fukushima" style = "fill:#e6e6e6; stroke:none;" d="M535 222L536 223L535 222M289 225L290 226L289 225M278 227L279 228L278 227z"/>
                        <path onclick = "Fukushima()" class = "Fukushima" style = "fill:#dedede; stroke:none;" d="M282 227L283 228L282 227z"/>
                        <path onclick = "Fukushima()" class = "Fukushima" style = "fill:#e6e6e6; stroke:none;" d="M283 227L284 228L283 227M536 228L537 229L536 228M260 230L261 231L260 230M259 233L260 234L259 233z"/>
                        <path onclick = "Fukushima()" class = "Fukushima" style = "fill:#dedede; stroke:none;" d="M253 236L254 237L253 236z"/>
                        <path onclick = "Fukushima()" class = "Fukushima" style = "fill:#e6e6e6; stroke:none;" d="M254 236L255 237L254 236M243 238L244 239L243 238M236 240L237 241L236 240M536 242L536 245L537 245L536 242z"/>
                        <path onclick = "Fukushima()" class = "Fukushima" style = "fill:#dedede; stroke:none;" d="M228 249L229 250L228 249z"/>
                        <path onclick = "Fukushima()" class = "Fukushima" style = "fill:#e6e6e6; stroke:none;" d="M230 253L231 254L230 253M535 253L535 256L536 256L535 253M231 257L232 258L231 257z"/>
                        <path onclick = "Fukushima()" class = "Fukushima" style = "fill:#dedede; stroke:none;" d="M231 258L232 259L231 258z"/>
                        <path onclick = "Fukushima()" class = "Fukushima" style = "fill:#e6e6e6; stroke:none;" d="M231 261L232 262L231 261M534 265L534 268L535 268L534 265M228 272L229 273L228 272M533 277L533 280L534 280L533 277M221 286L222 287L221 286M532 286L533 287L532 286M223 290L224 291L223 290M531 290L532 291L531 290M228 293L229 294L228 293M530 295L531 296L530 295M233 300L234 301L233 300M349 301L350 302L349 301M357 302L358 303L357 302M529 303L529 310L530 310L529 303z"/>
                        <path onclick = "Fukushima()" class = "Fukushima" style = "fill:#dedede; stroke:none;" d="M334 304L335 305L334 304z"/>
                        <path onclick = "Fukushima()" class = "Fukushima" style = "fill:#e6e6e6; stroke:none;" d="M370 305L371 306L370 305z"/>
                        <path onclick = "Fukushima()" class = "Fukushima" style = "fill:#dedede; stroke:none;" d="M233 306L234 307L233 306z"/>
                        <path onclick = "Fukushima()" class = "Fukushima" style = "fill:#e6e6e6; stroke:none;" d="M233.333 307.667L233.667 308.333L233.333 307.667M377 308L378 309L377 308z"/>
                        <path onclick = "Fukushima()" class = "Fukushima" style = "fill:#dedede; stroke:none;" d="M329 309L330 310L329 309z"/>
                        <path onclick = "Fukushima()" class = "Fukushima" style = "fill:#e6e6e6; stroke:none;" d="M379 309L380 310L379 309M384 312L385 313L384 312z"/>
                        <path onclick = "Fukushima()" class = "Fukushima" style = "fill:#dedede; stroke:none;" d="M327 313L328 314L327 313z"/>
                        <path onclick = "Fukushima()" class = "Fukushima" style = "fill:#e6e6e6; stroke:none;" d="M324.667 314.333L325.333 314.667L324.667 314.333M527 314L528 315L527 314M319 316L320 317L319 316M526 316L527 317L526 316M313 319L314 320L313 319M525 319L526 320L525 319M306 322L307 323L306 322M393 322L394 323L393 322M234.333 324.667L234.667 325.333L234.333 324.667M524 324L525 325L524 324M395 325L396 326L395 325z"/>
                        <path onclick = "Fukushima()" class = "Fukushima" style = "fill:#dedede; stroke:none;" d="M234.333 326.667L234.667 327.333L234.333 326.667z"/>
                        <path onclick = "Fukushima()" class = "Fukushima" style = "fill:#e6e6e6; stroke:none;" d="M296 327L297 328L296 327M294 328L295 329L294 328M399 328L400 329L399 328z"/>
                        <path onclick = "Fukushima()" class = "Fukushima" style = "fill:#dedede; stroke:none;" d="M234 330L235 331L234 330M291 330L292 331L291 330z"/>
                        <path onclick = "Fukushima()" class = "Fukushima" style = "fill:#e6e6e6; stroke:none;" d="M234 331L235 332L234 331M286 333L287 334L286 333M402 334L403 335L402 334M276 338L277 339L276 338z"/>
                        <path onclick = "Fukushima()" class = "Fukushima" style = "fill:#dedede; stroke:none;" d="M274 339L275 340L274 339z"/>
                        <path onclick = "Fukushima()" class = "Fukushima" style = "fill:#e6e6e6; stroke:none;" d="M233 340L234 341L233 340z"/>
                        <path onclick = "Fukushima()" class = "Fukushima" style = "fill:#dedede; stroke:none;" d="M403 340L404 341L403 340M268 342L269 343L268 342M457 346L458 347L457 346z"/>
                        <path onclick = "Fukushima()" class = "Fukushima" style = "fill:#e6e6e6; stroke:none;" d="M234 348L235 349L234 348M241.667 348.333L242.333 348.667L241.667 348.333z"/>
                        <path onclick = "Fukushima()" class = "Fukushima" style = "fill:#dedede; stroke:none;" d="M243 348L244 349L243 348z"/>
                        <path onclick = "Fukushima()" class = "Fukushima" style = "fill:#e6e6e6; stroke:none;" d="M244 348L245 349L244 348M261 348L262 349L261 348M248 349L249 350L248 349z"/>
                        <path onclick = "Fukushima()" class = "Fukushima" style = "fill:#dedede; stroke:none;" d="M455 349L456 350L455 349z"/>
                        <path onclick = "Fukushima()" class = "Fukushima" style = "fill:#e6e6e6; stroke:none;" d="M512 349L513 350L512 349M463 350L464 351L463 350M510 350L511 351L510 350z"/>
                        <path onclick = "Fukushima()" class = "Fukushima" style = "fill:#dedede; stroke:none;" d="M252 351L253 352L252 351z"/>
                        <path onclick = "Fukushima()" class = "Fukushima" style = "fill:#e6e6e6; stroke:none;" d="M508 351L509 352L508 351M255.667 352.333L256.333 352.667L255.667 352.333M505 352L506 353L505 352M503 353L504 354L503 353M416 354L417 355L416 354M498 354L499 355L498 354M495 357L496 358L495 357M456.333 359.667L456.667 360.333L456.333 359.667M494 360L494 363L495 363L494 360M424 365L425 366L424 365M425 366L426 367L425 366M451 366L452 367L451 366z"/>
                        <path onclick = "Fukushima()" class = "Fukushima" style = "fill:#dedede; stroke:none;" d="M444 371L445 372L444 371M435 372L436 373L435 372z"/>
</svg>
