<?xml version="1.0" standalone="yes"?>
<svg xmlns="http://www.w3.org/2000/svg" width="1450" height="1164">
<path style="fill:#010101; stroke:none;" d="M0 0L0 1164L1450 1164L1450 0L0 0z"/>
<path style="fill:#ffffff; stroke:none;" d="M977 926L978 930C966.087 928.174 953.64 946.075 947 931C934.752 933.584 934.215 960.393 946 964L944 969L936 966L935 970L914 964C907.417 976.514 894.603 995.023 878 993.602C872.97 993.171 870.749 986.85 865.961 986.951C857.756 987.126 845.569 992.741 847 1002C858.956 995.456 876.744 1006.64 883.451 1017C886.66 1021.96 887.383 1029.18 892.214 1032.89C897.427 1036.89 907.481 1035.62 913.996 1037.44C919.672 1039.02 921.688 1045.44 927.039 1046.84C940.04 1050.24 937.438 1030.03 937.878 1024C938.344 1017.63 940.721 1011.5 941 1005C968.19 1002.14 958.381 1043.72 983 1045L992.401 1056.38L997.148 1062.95L1005.81 1064.53L1010.62 1075.83L1024 1090L1025 1090C1028.62 1083.8 1030.96 1075.99 1038 1072.82C1047.44 1068.56 1064.52 1069.39 1071.14 1059.86C1076.13 1052.67 1069.73 1047.31 1067.25 1041C1064.23 1033.31 1057.81 1025.61 1055.73 1018C1054.25 1012.61 1057.57 1007.43 1056.6 1002.17C1055.83 998.04 1051.67 993.991 1050 990C1042.47 990.951 1031.33 993.356 1024 991.359C1014.72 988.833 1007.3 981.063 998 978.498C990.502 976.43 975.388 971.771 972.774 962.896C970.641 955.653 978.604 954.122 982.363 950.363C988.572 944.152 987.524 937.652 983.046 931.044C981.298 928.464 979.88 927.088 977 926z"/>
</svg>
