<?xml version="1.0" standalone="yes"?>
<svg xmlns="http://www.w3.org/2000/svg" width="1450" height="1164">
<path style="fill:#010101; stroke:none;" d="M0 0L0 1164L1450 1164L1450 0L0 0z"/>
<path style="fill:#ffffff; stroke:none;" d="M530 454L524.559 478L531.796 492L547 521L548 521C563.854 501.775 573.927 531.12 572.447 545C571.952 549.644 570.133 554.266 571.318 559C573.066 565.983 585.281 569.787 581.503 577.985C576.614 588.595 549.531 596.068 552.022 610C552.522 612.801 554.081 623.389 557.148 623.828C562.999 624.666 571.481 611.502 577.434 617.607C579.811 620.046 577.355 624.164 577.111 627C576.751 631.191 578.096 635.271 580.044 638.941C587.473 652.94 598.897 633.156 605.105 632.465C609.007 632.031 613.262 636.279 617 637.355C625.96 639.935 631.401 637.957 640 637.944C643.058 637.939 646.669 641.066 649.57 639.184C652.802 637.087 654.549 629.492 656 626L665 630C669.977 622.569 677.519 616.79 678.426 607C678.884 602.049 675.874 596.873 675.17 592C672.731 575.126 673.772 554.247 690 545L686 528C672.543 531.079 673.535 506.27 670 499L664 503L663 503L654 466L658 466C657.977 459.614 655.861 458.685 652.769 453.675C649.606 448.552 653.945 441.494 648.362 436.859C644.784 433.888 639.187 436.11 635 435.956C629.169 435.742 615.812 433.518 611.015 430.397C606.863 427.695 605.798 422.894 602.363 419.702C595.895 413.692 573.539 404.801 565.059 409.318C553.659 415.39 569.404 426.877 567.6 434.366C566.085 440.656 555.367 438.027 551.018 439.858C545.075 442.361 546.456 448.646 542.348 452.397C539.422 455.068 533.654 454 530 454z"/>
</svg>
