<?xml version="1.0" standalone="yes"?>
<svg xmlns="http://www.w3.org/2000/svg" width="1450" height="1164">
<path style="fill:#010101; stroke:none;" d="M0 0L0 1164L1450 1164L1450 0L0 0z"/>
<path style="fill:#ffffff; stroke:none;" d="M994 162L989 161C981.627 177.108 1004.72 179.813 1015 176.103C1018.5 174.841 1020.62 171.401 1024 170.036C1029.82 167.687 1036.27 172.434 1037 163C1047.82 166.912 1054.6 160.067 1052 149L1046 150C1044.16 146.63 1041.16 146.246 1038.65 143.571C1034.73 139.388 1034.8 134.199 1028.98 131.529C1022.38 128.499 1014.18 129.253 1008 125.272C1003.4 122.308 1000.35 113.987 994.945 113.152C983.527 111.387 975.357 131.038 976.607 140.961C977.603 148.86 991.032 153.3 994 162z"/>
</svg>
