<?xml version="1.0" standalone="yes"?>
<svg xmlns="http://www.w3.org/2000/svg" width="1450" height="1164">
<path style="fill:#010101; stroke:none;" d="M0 0L0 1164L1450 1164L1450 0L0 0z"/>
<path style="fill:#ffffff; stroke:none;" d="M1237 375C1237.67 382.15 1229.95 392.617 1222 392.728C1203.61 392.984 1186.42 383.175 1168 389C1173.59 398.817 1164.35 413.208 1153 411L1150.24 424L1141 441C1155.92 440.876 1167.54 446.318 1182 447.811C1189.01 448.535 1188.3 441.489 1194.04 440.908C1204.56 439.845 1211.07 447.313 1220 448.802C1232.18 450.834 1244.84 440.293 1256.72 445.536C1260.43 447.173 1260.32 453.617 1261.13 457C1263.41 466.526 1268.3 482.754 1253 481L1257 511L1252 513C1253.69 516.644 1257.05 518.657 1258.81 522.104C1261 526.396 1261.84 534.967 1263.35 540C1264.51 543.858 1262.7 550.356 1267.23 552.397C1275.51 556.131 1278.95 548.689 1285.04 545.569C1287.78 544.163 1292.06 544.176 1293.97 541.487C1297.51 536.52 1295.33 529.186 1303.01 526.623C1307.37 525.168 1310.26 529.094 1314 530.401C1318.69 532.044 1325.43 531.092 1330 529.451C1338.89 526.257 1339.53 516.99 1346.17 511.314C1349.63 508.365 1354.02 508.815 1358 507.161C1365.25 504.146 1370.42 498.265 1379 501.148C1386.2 503.567 1391.44 509.819 1399 512L1402.64 496L1397 468C1389.31 469.491 1376.56 474 1369 472.627C1364.13 471.742 1360.46 467.165 1356 465.213C1350.02 462.594 1343.16 462.376 1337 460.239C1332.79 458.78 1329.34 455.437 1325 454.423C1316.4 452.413 1313.63 461.91 1306.95 461.933C1299.27 461.959 1285.89 454.336 1282.03 447.787C1279.79 444.005 1281.7 439.84 1277.85 436.649C1272.92 432.56 1262.57 432.91 1259.03 427.581C1252.07 417.117 1258.17 404.047 1254 393C1244.8 392.052 1246.05 378.831 1237 375z"/>
</svg>
