<?xml version="1.0" standalone="yes"?>
<svg xmlns="http://www.w3.org/2000/svg" width="1450" height="1164">
<path style="fill:#010101; stroke:none;" d="M0 0L0 1164L1450 1164L1450 0L0 0z"/>
<path style="fill:#ffffff; stroke:none;" d="M311 611C309.253 616.262 310.582 618.774 315 622L315 623L305 631L326 644C323.963 654.503 324.334 669.792 330.894 678.787C333.673 682.599 340.643 683.227 341.894 688.105C343.602 694.771 338.06 704.638 336.638 711C335.555 715.847 338.334 721.191 338.826 726C339.512 732.716 337.654 750.758 348.105 752.279C358.684 753.82 356.936 739.018 361.652 734.603C367.75 728.893 375.526 733.212 381.698 730.393C386.868 728.03 385.807 722.116 393 722C398.868 710.488 409.703 718.005 417.49 711.258C422.127 707.239 421.656 699.088 425.086 694.228C427.397 690.953 431.641 690.707 434.816 688.633C438.731 686.077 445.309 678.896 447.501 674.791C450.967 668.298 448.043 662.535 446.576 656C442.754 638.972 433.204 626.417 428 610C417.958 613.179 405.505 625.843 394.015 619.972C387.312 616.547 382.789 605.233 375.895 603.318C367.331 600.939 345.928 606.501 352 590C342.893 583.566 333.607 587.908 323 586.829C311.818 585.693 305.723 578.741 294.001 584.688C271.693 596.004 298.944 609.375 311 611z"/>
</svg>
