<?xml version="1.0" standalone="yes"?>
<svg xmlns="http://www.w3.org/2000/svg" width="1450" height="1164">
<path style="fill:#010101; stroke:none;" d="M0 0L0 1164L1450 1164L1450 0L0 0z"/>
<path style="fill:#ffffff; stroke:none;" d="M1148 478C1156.51 478.872 1164.11 484.355 1172 487.382C1180.4 490.608 1190.03 492.029 1197.96 496.442C1201.3 498.304 1202.68 503.039 1206.21 504.231C1214.36 506.98 1222.38 504.161 1229.96 505.906C1234.01 506.839 1234.26 510.651 1237.42 512.566C1242.26 515.505 1251.08 512.706 1256 511L1252 480C1270.11 482.277 1262.05 455.429 1257 445L1251 447C1247.87 443.417 1224.89 447.697 1222 451C1211.14 445.375 1203.44 442.581 1191 441C1185.25 462.049 1153.93 430.581 1140.8 443.027C1135.36 448.18 1155.24 456.152 1155.56 460.619C1155.94 465.994 1149.01 472.381 1148 478z"/>
</svg>
