<?xml version="1.0" standalone="yes"?>
<svg xmlns="http://www.w3.org/2000/svg" width="1450" height="1164">
<path style="fill:#010101; stroke:none;" d="M0 0L0 1164L1450 1164L1450 0L0 0z"/>
<path style="fill:#ffffff; stroke:none;" d="M1024 481L1017 478C1012.8 492.573 1006.64 496.85 992 495C993.871 502.329 992.358 505.87 986 510C985.792 514.171 983.2 517.835 983.406 522C983.713 528.198 988.657 534.616 984.062 540.59C980.019 545.845 974.74 539.548 970.015 539.824C966.517 540.028 964.774 543.482 961.911 544.976C958.984 546.503 955.193 546 952 546C954.68 558.643 977.733 564.299 966 577L966 578C972.892 585.519 990.654 575.211 990.323 589.998C990.271 592.326 989.467 594.729 989 597L996 600L1001.32 584.049L1016 584L1018.36 571L1013.11 559.104L1017.11 552.791L1025 529C1014.02 524.102 1008.45 520.463 1013 508L1015 508C1018.92 517.271 1026.02 518.361 1035 515L1035 514C1024.72 513.908 1024.85 509.991 1021 502C1029.69 503.996 1034.05 501.31 1038 511C1051.71 503.828 1057.4 481.598 1042 475.035C1039.37 473.914 1037.14 471.962 1034.09 472.631C1030.12 473.503 1027.08 478.539 1024 481z"/>
</svg>
