<?xml version="1.0" standalone="yes"?>
<svg xmlns="http://www.w3.org/2000/svg" width="1450" height="1164">
<path style="fill:#010101; stroke:none;" d="M0 0L0 1164L1450 1164L1450 0L0 0z"/>
<path style="fill:#ffffff; stroke:none;" d="M577 344L602 341.562L640 362C638.071 367.002 632.279 380.875 640.148 383.897C648.084 386.945 654.643 379.448 661.039 377.148C672.751 372.937 681.933 375.783 691 383C691.492 371.72 697.98 356.594 707.015 349.533C710.335 346.939 715.29 346.738 718.272 344.062C723.179 339.659 720.06 329.636 730 334L742.348 319L744.009 298L753.468 285L767 244C761.976 244 755.471 242.902 751.105 245.893C740.687 253.033 741.766 263.928 726 263.921C709.672 263.914 713.093 252.025 704.995 243.603C702.243 240.741 696.557 242.206 693.043 240.427C686.721 237.228 684.614 229.749 677 227.562C672.789 226.352 670.332 230.227 667 232.012C660.141 235.686 650.526 237.15 643 239.29C639.883 240.177 635.382 240.51 634.318 244.144C632.759 249.471 633.397 258.531 634.213 264C634.683 267.149 637.035 270.612 635.577 273.787C633.485 278.344 626.851 278.558 623.39 281.649C618.962 285.604 618.408 292.173 615.006 296.787C602.417 313.864 577.528 318.561 577 344z"/>
<path style="fill:#010101; stroke:none;" d="M665 277L674 288L675 288L678 283L676 330C669.13 332.912 667.917 336.901 667 344L688 337L688 336C681.804 330.099 685.975 320.035 688 313C679.595 305.501 685.393 294.7 684.953 285C684.719 279.843 682.055 275.041 681 270L665 277M720 312C713.696 317.658 702.491 320.831 701 330L714 326C714.792 320.976 718.043 318.855 722 316L720 312z"/>
</svg>
