<?xml version="1.0" standalone="yes"?>
<svg xmlns="http://www.w3.org/2000/svg" width="1450" height="1164">
<path style="fill:#010101; stroke:none;" d="M0 0L0 1164L1450 1164L1450 0L0 0z"/>
<path style="fill:#ffffff; stroke:none;" d="M584 411C589.497 413.255 597.125 415.033 601.787 418.702C605.711 421.791 606.445 427.531 611.043 429.972C625.982 437.902 652.791 426.591 653 450C663.359 449.993 667.768 446.775 676 441C674.284 435.562 667.537 436.273 665.797 430.956C663.786 424.811 671.338 422.666 672.678 417.791C674.076 412.708 669.766 407.995 671.471 403.004C674.396 394.444 695.262 394.541 689.307 383.015C684.616 373.936 667.348 374.58 659.286 378.513C656.269 379.985 654.353 382.772 650.999 383.697C641.602 386.288 634.991 380.286 626.004 381.305C615.554 382.49 604.341 397.629 595 403.075C590.757 405.549 585.911 406.126 584 411z"/>
</svg>
