<?xml version="1.0" standalone="yes"?>
<svg xmlns="http://www.w3.org/2000/svg" width="1450" height="1164">
<path style="fill:#010101; stroke:none;" d="M0 0L0 1164L1450 1164L1450 0L0 0z"/>
<path style="fill:#ffffff; stroke:none;" d="M367 306C355.452 308.673 353.848 314.475 345.787 321.366C335.054 330.541 323.099 338.057 310 343C312.117 354.403 307.124 365.141 308.34 377C309.26 385.979 317.54 386.745 320.397 394.039C322.404 399.161 325.613 408.481 325.498 414C325.364 420.373 321.858 424.178 323.2 431C325.882 444.632 338.313 456.201 334 469C344.931 474.722 355.668 470.923 367 471.85C373.723 472.399 380.175 475.707 387 474.327C394.977 472.714 392.883 465.551 398.264 463.481C400.548 462.603 403.877 465.25 406 466L409.289 445L416.577 430L417 415C423.171 416.145 442.868 415.888 436.667 404.189C434.343 399.806 428.253 400.325 425.904 395.941C422.309 389.237 425.529 379.211 416.671 374.438C411.316 371.553 404.597 378.227 399 379C400.931 373.654 400.991 370.616 395 369C399.903 359.55 406.977 357.001 417 357C417.207 348.194 424.015 343.907 425.693 336C427.092 329.409 419.757 323.343 427 319C417.79 293.731 436.914 268.146 443.696 245C446.276 236.197 440.775 229.229 441.998 221C442.765 215.846 447.945 214.067 449.289 209.675C450.88 204.478 442.766 196.851 440 193C432.364 195.72 426.045 206.025 420.715 211.996C410.632 223.291 395.872 231.884 389.603 246.325C386.808 252.762 386.932 261.443 382.973 267.61C380.45 271.541 374.497 273.988 371.105 277.286C362.883 285.28 361.399 296.357 367 306z"/>
</svg>
