<?xml version="1.0" standalone="yes"?>
<svg xmlns="http://www.w3.org/2000/svg" width="1450" height="1164">
<path style="fill:#010101; stroke:none;" d="M0 0L0 1164L1450 1164L1450 0L0 0z"/>
<path style="fill:#ffffff; stroke:none;" d="M1043 340C1041.93 349.599 1032.58 346.468 1029 354L1028 354C1028 347.616 1027.75 344.49 1021 343C1015.47 350.825 1016.45 363.232 1005 365L1009 354L1000 352C995.584 363.019 989.084 352.139 989 345L968 343.299L944 347.451L914 341.781L902 344.957L873 344.464L844 351C845.486 356.741 846.164 363.169 850.529 367.61C858.423 375.639 871.46 374.121 881 375.811C885.616 376.629 889.809 380.043 894 382C891.698 387.659 891.343 391.088 893 397L889 399C892.28 405.933 897.84 411.302 901.446 418C902.641 420.22 903.101 424.408 905.513 425.688C909.78 427.953 919.813 420.845 925 420.905C938.492 421.062 938.97 434.34 944 443L946 443C947.908 439.321 952.921 431.27 957.895 431.921C962.234 432.49 962.236 438.868 965.418 440.972C968.214 442.821 972.002 441.489 974.985 443.028C978.624 444.906 979.551 448.801 982.495 451.258C986.556 454.647 991.765 454.903 996 459L997 459C1007.39 451.978 1010.52 467.612 1015.92 473.853C1018.23 476.518 1021.59 477.487 1024 480C1027.67 477.917 1030.6 472.135 1035.01 471.886C1041.23 471.536 1047.28 478.51 1054 476.019C1063.58 472.469 1072.31 465.453 1082 461.97C1089.45 459.294 1096.47 459.642 1104 455.957C1108.39 453.808 1111.48 449.711 1116 447.879C1122.59 445.204 1130.74 448.969 1136.78 445.012C1145.68 439.173 1135.08 428.69 1136.73 421C1137.66 416.65 1141.88 412.65 1141.13 408C1140.62 404.812 1137.98 401.725 1134.98 400.604C1125.58 397.081 1113.42 411.049 1104 413C1107.09 403.507 1105.27 382.398 1094 379.045C1086.64 376.857 1072.48 378.804 1066.84 372.486C1063.82 369.103 1057.42 360.837 1055.51 356.895C1051.6 348.786 1053.02 343.501 1043 340z"/>
</svg>
