<?xml version="1.0" standalone="yes"?>
<svg xmlns="http://www.w3.org/2000/svg" width="1450" height="1164">
<path style="fill:#010101; stroke:none;" d="M0 0L0 1164L1450 1164L1450 0L0 0z"/>
<path style="fill:#ffffff; stroke:none;" d="M1065 138L1065 149L1053 149C1054.81 159.188 1048.76 167.698 1038 164C1036.64 172.314 1030.76 168.86 1025 170.025C1020.65 170.906 1018.23 175.665 1014 176.972C1009.61 178.332 1004.71 176.066 1000.39 178.514C989.226 184.853 1005.17 191.1 1010 192.336C1013.39 193.203 1016.52 194.479 1020 195C1019.36 203.168 1022.83 205.58 1024.36 213.001C1025.49 218.468 1024.16 222.645 1026.49 228C1027.67 230.713 1027.41 235.924 1030.32 237.434C1036.5 240.647 1050.42 224.672 1054.34 239.579C1055.98 245.84 1047.84 253.398 1044.99 258C1040.36 265.479 1038.27 276.383 1037 285C1041.94 285.019 1047.78 279.874 1052.58 283.028C1058.31 286.792 1061.13 301.101 1068.91 301.963C1071.68 302.27 1079.41 288.037 1083.09 285.6C1093.35 278.795 1111.53 285.545 1120 292L1121 292C1131.43 283.038 1129.38 268.464 1137.51 259.39C1141.31 255.155 1146.18 256.309 1150.83 254.397C1154.39 252.934 1156.33 249.151 1160 247.742C1169.35 244.155 1179.37 246.572 1180 233C1172.42 233.085 1167.31 238.696 1160 239.117C1150.16 239.684 1134.86 226.335 1136.62 216.001C1137.92 208.366 1150.65 206.21 1149.16 198C1148.1 192.223 1142.67 187.86 1141.39 182C1138.56 169.075 1145.03 160.254 1145.32 148C1145.45 142.951 1141.34 138.964 1140.94 134C1140.58 129.549 1143.8 125.178 1145 121C1137.23 118.811 1129.74 113.975 1122 112.394C1115.22 111.009 1108.8 114.274 1102 111.181C1095.95 108.428 1095.01 95.7661 1087.98 97.5293C1076.87 100.32 1071.03 114.547 1070.77 125C1070.67 129.164 1075.19 133.696 1073.49 137.809C1071.98 141.473 1067.48 138.98 1065 138z"/>
</svg>
