<?xml version="1.0" standalone="yes"?>
<svg xmlns="http://www.w3.org/2000/svg" width="1450" height="1164">
<path style="fill:#010101; stroke:none;" d="M0 0L0 1164L1450 1164L1450 0L0 0z"/>
<path style="fill:#ffffff; stroke:none;" d="M859 737L846 733L844 737C860.273 744.178 852.474 757.619 857.985 770C861.556 778.024 868.276 777.335 873.397 782.702C878.43 787.976 875.577 797.102 874 803L887 808C888.909 805.106 890.543 801.016 893.39 798.938C898.256 795.384 905.116 795.313 909.502 790.61C913.588 786.227 914.699 779.292 921.985 778.921C927.288 778.652 933.028 785.763 939 787C943.868 776.882 935.895 772.731 932.563 764C930.038 757.384 934.47 743.14 928.852 739.367C908.485 725.689 871.985 757.555 866 724C860.718 725.711 860.293 732.126 859 737z"/>
</svg>
