<?xml version="1.0" standalone="yes"?>
<svg xmlns="http://www.w3.org/2000/svg" width="1450" height="1164">
<path style="fill:#010101; stroke:none;" d="M0 0L0 1164L1450 1164L1450 0L0 0z"/>
<path style="fill:#ffffff; stroke:none;" d="M545 443C549.402 440.299 564.836 438.643 566.608 434.697C570.569 425.876 552.299 417.029 564.995 408.859C566.571 407.844 568.22 407.465 570 407C565.568 396.551 555.58 398.792 547 402.727C544.978 403.654 541.438 403.679 540.067 405.603C538.164 408.273 540.587 413.003 540.54 416C540.458 421.217 537.377 426.85 538.612 432C539.592 436.087 543.101 439.315 545 443z"/>
</svg>
