<?xml version="1.0" standalone="yes"?>
<svg xmlns="http://www.w3.org/2000/svg" width="1450" height="1164">
<path style="fill:#010101; stroke:none;" d="M0 0L0 1164L1450 1164L1450 0L0 0z"/>
<path style="fill:#ffffff; stroke:none;" d="M913 870L924 877C926.76 871.428 929.275 866.654 936 867L934 894C939.66 892.95 956.029 896.539 957.079 903.915C957.756 908.665 950.809 911.6 952 918L968 909C964.523 896.1 949.043 873.172 972 870.479C975.008 870.126 978.005 870.766 981 871L977 840C971.905 841.432 967.08 842.738 962 840.442C955.21 837.374 949.494 830.339 941.148 831.604C936.424 832.321 939.283 839.811 937.386 843C930.985 853.761 919.871 859.98 913 870z"/>
</svg>
