<?xml version="1.0" standalone="yes"?>
<svg xmlns="http://www.w3.org/2000/svg" width="1450" height="1164">
<path style="fill:#010101; stroke:none;" d="M0 0L0 1164L1450 1164L1450 0L0 0z"/>
<path style="fill:#ffffff; stroke:none;" d="M1026 815C1033.07 829.303 1015.85 839.963 1003 840C1005.37 848.083 1015.42 854.807 1005 861C1006.9 870.1 1022.1 877.651 1028 885C1034.54 883.239 1047.74 889.818 1049.69 897.015C1050.83 901.22 1048.37 905.77 1048.26 910C1048.13 915.085 1050.43 920.051 1051.32 925C1053 934.317 1049.81 940.433 1060 946.103C1071.32 952.396 1076.46 934.405 1081.52 929.603C1084.42 926.856 1089.6 928.192 1093 929L1095.9 911L1100.6 897.375L1109.48 887.999L1111.64 877.702L1124 871L1122 865L1129 858C1121.29 853.714 1122.38 846.146 1119.26 839.213C1117.87 836.124 1114.25 834.851 1112.53 831.895C1108.08 824.239 1105.44 812.569 1103 804L1101 804L1100 805L1101 810C1092.63 801.699 1082.41 793.062 1070 799L1065 790L1054 789.417L1044 796.107L1036.02 798.742L1026 815z"/>
</svg>
