<?xml version="1.0" standalone="yes"?>
<svg xmlns="http://www.w3.org/2000/svg" width="1450" height="1164">
<path style="fill:#010101; stroke:none;" d="M0 0L0 1164L1450 1164L1450 0L0 0z"/>
<path style="fill:#ffffff; stroke:none;" d="M846 365L819.183 392.054L813.671 411L806 430C801.895 429.016 798.098 426.084 794 425.526C781.928 423.884 780.431 437.761 773.907 443.787C769.781 447.598 761.789 448.959 762.453 456.004C763.274 464.713 774.653 468.523 777.883 476C779.12 478.863 777.824 482.043 778.857 485C783.506 498.301 786.295 511.693 786 526C781.999 526.172 775.067 528.744 771.429 526.803C766.744 524.304 760.421 514.107 753.279 516.662C748.864 518.241 750.373 525.497 749.61 529C748.001 536.383 741.796 546.37 736.79 551.961C733.633 555.486 728.979 559.815 724.015 560.222C717.88 560.725 715.973 556.706 710 561C708.533 554.278 701.587 556 696 556L691 545C666.021 556.87 679.257 585.813 679.096 606C679.057 610.811 675.434 618.973 672.355 622.625C670.215 625.163 666.268 627.044 666.662 630.946C667.214 636.412 676.241 636.335 679.985 638.303C684.861 640.866 686.997 646.949 692.169 648.963C696.575 650.679 697.9 647.473 701.665 646.646C706.728 645.533 716.25 647.001 722 647C722.831 636.233 734.023 636.987 742 638C746.844 632.48 753.398 637.944 758.682 633.056C765.336 626.902 764.859 603.474 775.972 602.315C779.949 601.9 781.343 607.064 784.213 608.836C788.255 611.331 793.839 610.599 797.606 613.728C805.509 620.291 806.867 632.107 819 634.606C834.296 637.756 853.053 630.082 868 627.464C884.801 624.521 900.356 626.886 917 629C919.267 656.717 955.14 653.561 974 661.196C977.729 662.705 980.335 666.306 984 668.084C995.056 673.449 1006.56 676.718 1017 683.749C1021.19 686.57 1023.42 692.299 1027.31 694.562C1030.69 696.526 1043.09 693.109 1046.6 691.397C1051.47 689.02 1047.29 682.748 1047.2 679C1046.98 670.013 1047.16 660.589 1052 653C1048.64 650.36 1047.14 646.118 1043.79 643.623C1041.21 641.708 1038.07 641.971 1036.31 638.902C1029.56 627.086 1042.61 613.469 1048 604C1038.5 599.076 1036.56 588.38 1028.79 583.418C1023.44 580.007 1020.22 583.517 1015 584.542C1011.07 585.314 1006.93 582.451 1003.15 583.833C999.111 585.308 997.94 597.029 997 601L988 597C993.86 576.14 975.252 586.563 965 578L965 577C975.123 569.288 966.102 565.875 960.637 560.487C956.755 556.658 952.993 550.618 950 546C953.698 545.313 958.385 545.781 961.83 544.397C964.842 543.188 966.582 539.713 970.004 539.38C974.164 538.975 978.508 544.395 982.486 541.214C989.194 535.853 982.27 527.199 982.691 521C982.991 516.589 985.626 513.616 985 509C990.912 507.206 992.95 504.087 992 498L986 495L973 499L971 495C965.049 496.451 960.684 494.04 955 494.575C951.567 494.898 948.619 497.544 945.043 496.639C941.492 495.74 939.732 489.863 935.895 490.751C925.045 493.26 916.804 506.524 905 508.821C899.084 509.972 895.576 503.547 890 503.252C884.769 502.976 881.123 506.896 876.059 503.293C868.021 497.576 874.246 477.009 871.681 468.147C870.59 464.376 865.794 464.994 863.974 461.772C857.475 450.266 855.858 435.167 850.925 423C848.679 417.46 842.884 412.763 841.529 407C840.471 402.498 844.888 396.983 846.572 393C850.066 384.736 852.01 373.333 848 365L846 365z"/>
</svg>
