<?xml version="1.0" standalone="yes"?>
<svg xmlns="http://www.w3.org/2000/svg" width="1450" height="1164">
<path style="fill:#010101; stroke:none;" d="M0 0L0 1164L1450 1164L1450 0L0 0z"/>
<path style="fill:#ffffff; stroke:none;" d="M1243 322L1237 322L1243 295L1234 288C1238.04 286.835 1241.47 284.933 1245 282.656C1248.37 280.48 1253.63 278.384 1255.68 274.787C1259.33 268.404 1254.51 262.653 1250.66 258.001C1242.1 247.646 1223.09 241.133 1210 240.383C1201.52 239.897 1199.43 246.674 1192.96 247.474C1182.12 248.814 1170.89 245.416 1160 248.434C1155.78 249.604 1153.9 253.863 1149.96 255.397C1146.09 256.905 1141.89 255.898 1138.51 258.97C1132.92 264.069 1131.83 278.096 1127.65 284.996C1124.06 290.931 1115.01 294.644 1114.17 301.995C1113.27 309.881 1127.26 312.062 1128.4 321C1130.05 333.941 1125.62 354.312 1134.33 365C1142.48 375.003 1152.21 386.232 1166 387.585C1172.63 388.235 1179.43 384.151 1186 385.674C1190.14 386.633 1193.73 389.176 1198 389.79C1202.71 390.468 1207.36 388.758 1212 389.368C1216.53 389.964 1220.3 393.385 1224.99 391.59C1234.35 387.998 1233.2 380.491 1237.69 374.303C1239.65 371.612 1243.47 371.76 1245.15 368.721C1251.23 357.715 1243.55 348.652 1242.03 338C1241.33 333.134 1243 327.058 1243 322z"/>
</svg>
