<?xml version="1.0" standalone="yes"?>
<svg xmlns="http://www.w3.org/2000/svg" width="1450" height="1164">
<path style="fill:#010101; stroke:none;" d="M0 0L0 1164L1450 1164L1450 0L0 0z"/>
<path style="fill:#ffffff; stroke:none;" d="M197 518C198.275 522.471 201.598 528.171 199.688 532.911C198.25 536.478 194.293 538.313 192.873 542.004C191.468 545.653 193.394 549.396 191.552 553C189.537 556.94 185.438 559.584 184.317 564C181.998 573.132 184.534 585.486 175 591L185 615C188.277 614.248 193.293 610.021 196.482 610.727C200.251 611.561 201.786 618.051 203.965 620.701C209.156 627.019 222.479 635.803 230.961 634.812C236.2 634.2 238.492 628.369 242.17 625.318C245.383 622.652 249.538 623.695 252.83 621.397C261.614 615.263 264.55 602.796 277 604C280.187 593.125 296.292 577.628 309 581.223C316.013 583.207 336.835 592.286 342.968 583.486C346.393 578.572 339.02 558.542 337 553C346.581 548.685 355.153 536.374 356 526C346.384 527.009 343.134 519.805 335 516C336.914 510.378 339.187 503.302 342.299 498.274C344.197 495.207 347.906 494.292 347.408 490.028C346.942 486.033 342.96 484.477 341.603 480.957C339.175 474.661 340.631 472.117 333 470C318.648 487.859 306.581 468.517 290 469.888C286.469 470.18 283.671 472.746 280 472.931C274.537 473.205 268.635 470.72 263.213 472.318C259.895 473.296 258.772 478.558 254.957 478.079C247.424 477.133 243.756 464.204 235 466.099C228.228 467.565 212.252 471.204 208.314 477.39C200.745 489.281 208.999 508.114 197 518z"/>
</svg>
