<?xml version="1.0" standalone="yes"?>
<svg xmlns="http://www.w3.org/2000/svg" width="1450" height="1164">
<path style="fill:#010101; stroke:none;" d="M0 0L0 1164L1450 1164L1450 0L0 0z"/>
<path style="fill:#ffffff; stroke:none;" d="M1257 264C1258.69 277.658 1247.61 282.99 1236 288L1236 291L1244 294L1238 321L1244 321L1242.74 339L1248.73 359.576L1246 372L1238 373C1239.85 375.847 1243.07 377.203 1244.91 380.105C1248.28 385.418 1246.67 393.068 1255 392C1257.07 402.044 1252.53 420.217 1260.6 428.157C1265.71 433.181 1274.71 432.13 1279.68 438.105C1282.31 441.261 1280.88 445.282 1283.03 448.363C1287.58 454.889 1298.2 460.363 1305.96 461.222C1312.76 461.976 1316.52 451.146 1325 453.718C1334.19 456.505 1346.12 460.323 1355 464.213C1359.77 466.302 1363.74 471.311 1369 472.141C1376.75 473.364 1390.07 468.539 1398 467L1391.96 387L1389.26 372L1389.9 345L1381.46 312L1380 275L1347 257.39L1299 257.863L1282 253.118L1257 264z"/>
</svg>
