<?xml version="1.0" standalone="yes"?>
<svg xmlns="http://www.w3.org/2000/svg" width="1450" height="1164">
<path style="fill:#010101; stroke:none;" d="M0 0L0 1164L1450 1164L1450 0L0 0z"/>
<path style="fill:#ffffff; stroke:none;" d="M1038 642C1045.84 641.754 1047.06 649.567 1053 653C1045.56 661.587 1046.16 687.893 1051 698C1060.99 697.062 1059.76 704.632 1066.42 708.806C1070.63 711.451 1077.56 706.442 1081.17 710.603C1084.98 714.997 1078.88 723.828 1079.81 729C1081.44 738.015 1090.39 742.742 1093 751L1112.79 742.673L1122.02 733.854L1139.15 726.7L1142.3 710L1148 677C1143.68 677.546 1136.13 676.028 1132.43 677.643C1126.74 680.121 1123.45 694.846 1114.27 687.333C1107.45 681.749 1109.92 674.179 1108.6 667C1108.03 663.946 1106.11 661.221 1106.99 658.015C1109.42 649.287 1119.37 639.971 1110.49 630.314C1103.11 622.295 1086.07 623.264 1077 620.258C1068.61 617.476 1063.61 607.021 1055 605.279C1038.91 602.025 1033.55 631.532 1038 642z"/>
</svg>
