<?xml version="1.0" standalone="yes"?>
<svg xmlns="http://www.w3.org/2000/svg" width="1450" height="1164">
<path style="fill:#010101; stroke:none;" d="M0 0L0 1164L1450 1164L1450 0L0 0z"/>
<path style="fill:#ffffff; stroke:none;" d="M724 702C721.264 705.201 715.339 706.724 713.589 710.278C706.127 725.431 727.708 732.674 735.486 741.39C739.158 745.505 739.187 753.052 742 758L743 758L745 748L763.625 761.387L778 774C774.692 783.964 785.901 787.338 794 788C793.567 798.086 790.988 809.449 785.452 818C778.393 828.905 769.009 833.989 769 848C756.843 845.784 763.759 859.101 751 854C752.057 867.277 759.077 871.566 770 878.071C773.589 880.209 778.641 881.226 780.821 885.108C786.418 895.077 781.404 910.928 790.058 918.671C801.141 928.586 829.321 909.789 823 936L833 939C838.533 930.641 845.222 927.697 855 926.3C858.453 925.807 863.566 927.037 866.566 924.972C869.226 923.142 868.638 919.733 869.309 917C871.648 907.479 873.637 893.344 887 895.145C890.91 895.672 894.118 898.23 898 899L897 888L906 886L906 883L893 880C896.331 874.062 905.067 872.299 910.996 869.366C919.031 865.391 936.966 849.365 937.762 840C938.363 832.943 934.677 831.918 929 830.613C925.989 829.921 923.172 827.832 920 828.027C913.343 828.437 907.525 834.205 901 834.206C891.747 834.207 882.699 829.265 873 829.275C868.048 829.28 863.865 832.638 859.185 829.269C854.152 825.645 856.237 818.047 852.258 815.066C847.795 811.725 838.703 813.104 836.665 805.385C835.646 801.526 840.141 793.161 841 789C835.614 788.46 812.139 782.058 814.497 774.069C815.639 770.202 821.755 769.354 825 768.341C836.543 764.738 844.866 764.372 856 769C856 759.737 857.516 746.17 848.815 739.975C840.779 734.252 825.207 742.858 815.039 739.13C800.131 733.663 788.079 723.58 773 719.005C765.734 716.801 757.825 720.782 750.043 717.736C746.141 716.209 744.94 712.383 741.787 709.966C736.92 706.236 729.847 703.671 724 702z"/>
</svg>
