<?xml version="1.0" standalone="yes"?>
<svg xmlns="http://www.w3.org/2000/svg" width="1450" height="1164">
<path style="fill:#010101; stroke:none;" d="M0 0L0 1164L1450 1164L1450 0L0 0z"/>
<path style="fill:#ffffff; stroke:none;" d="M274 681L253 676C253.298 681.741 255.368 689.834 257.949 695C259.388 697.88 262.739 700.367 263.374 703.576C264.965 711.615 243.089 737.386 264 739L251.43 760.259L248.566 772.896L240.773 782.015L238.633 794.891L227.124 803.62L216.957 818.602L202.105 821.049L193.787 829.987L179 834C182.352 839.073 187.096 843.609 187.61 850C188.054 855.522 183.551 862.985 186.643 867.957C190.804 874.649 200.432 874.349 205.362 880.213C209.169 884.741 212.671 894.108 213.198 900C213.479 903.14 210.812 906.669 212.287 909.61C213.813 912.653 218.426 914.246 220.895 916.468C224.983 920.146 229.932 927.016 232.254 932C234.034 935.822 231.776 939.188 231.209 943C229.304 955.82 228.788 964.356 241 972C244.31 968.026 253.776 965.417 259 966.657C262.94 967.591 265.628 971.42 270 969.627C274.945 967.6 277.872 962.416 283 960.525C288.587 958.465 295.764 960.09 300.671 956.272C304.28 953.465 305.356 948.468 309.185 945.858C313.505 942.914 319.462 944.174 323.772 940.995C327.663 938.125 327.494 932.495 332.044 930.078C342.183 924.69 366.152 935.429 361 913L384 904.363L393.297 901.972L397.728 893.213L409 886.147L418 885.327L429 879.724L457 874.812L480 859.341L507 863C506.778 853.531 499.292 838.81 505.638 831.213C510.718 825.131 520.487 817.724 528 815.109C532.087 813.686 539.282 813.858 539.758 807.995C540.008 804.926 531.218 791.005 528.682 789.332C524.097 786.305 519.836 788.417 517.179 781.999C512.327 770.276 536.113 767.299 531.468 755.043C530.215 751.737 526.69 750.508 524.212 748.367C520.98 745.573 519.729 740.928 515.957 738.696C513.451 737.213 510.565 738.294 508 737.073C502.28 734.347 497.83 727.836 496 722C484.263 723.588 453.951 737.249 457 714L420 710C412.417 717.586 397.291 710.541 394 723C385.69 721.909 387.902 727.457 382.57 730.968C379.188 733.196 373.571 730.737 370 730C367.562 732.709 363.06 733.474 361.179 736.317C359.521 738.824 360.448 742.12 358.972 744.714C350.942 758.832 342.302 749.924 338.391 739C336.483 733.672 334.92 717.61 335.838 712C336.97 705.082 342.282 696.176 341.353 689.043C340.692 683.964 333.453 682.538 330.573 678.895C327.643 675.191 324.716 664.706 324 660C313.278 662.892 313.052 664.601 302 660L302 665C299.004 663.051 295.393 657.91 291.897 657.451C286.793 656.782 286.168 661.519 283.992 664.613C279.149 671.499 275.214 671.444 274 681z"/>
</svg>
