<?xml version="1.0" standalone="yes"?>
<svg xmlns="http://www.w3.org/2000/svg" width="1450" height="1164">
<path style="fill:#010101; stroke:none;" d="M0 0L0 1164L1450 1164L1450 0L0 0z"/>
<path style="fill:#ffffff; stroke:none;" d="M848 1004C857.201 1006.73 867.997 1016.86 872.862 1025.09C876.641 1031.49 876.656 1038.44 883.09 1043.43C890.857 1049.45 904.164 1044.34 909.427 1054.02C915.055 1064.37 908.409 1081.24 917.603 1091.35C923.516 1097.86 932.086 1094.63 939 1096.95C943.216 1098.36 946.319 1102.38 950 1104.74C957.691 1109.67 963.375 1110.22 969.424 1118C972.573 1122.05 976.756 1133.69 982.988 1132.62C991.643 1131.14 995.032 1114.91 1000.42 1109.39C1006.05 1103.63 1026 1103.56 1022.91 1090C1021.5 1083.76 1013.94 1080.63 1010.36 1075.91C1007.93 1072.71 1009.35 1068.26 1006.42 1065.36C1003.57 1062.54 999.414 1065.02 996.148 1062.95C993.238 1061.1 993.192 1057.43 990.683 1055.24C985.034 1050.32 976.324 1046.33 971.637 1040.79C964.44 1032.27 961.99 1009.82 950.985 1006.31C934.888 1001.19 941.016 1029.71 938.697 1037.99C937.595 1041.92 931.538 1048.39 927.015 1047.23C922.641 1046.1 920.914 1040.78 916.826 1039.03C908.542 1035.48 896.652 1038.31 890.394 1031.67C883.243 1024.08 883.871 1014.7 873.996 1008.65C867.915 1004.93 853.338 994.321 848 1004z"/>
</svg>
