<?xml version="1.0" standalone="yes"?>
<svg xmlns="http://www.w3.org/2000/svg" width="1450" height="1164">
<path style="fill:#010101; stroke:none;" d="M0 0L0 1164L1450 1164L1450 0L0 0z"/>
<path style="fill:#ffffff; stroke:none;" d="M1069 995C1069 987.381 1067.92 980.014 1064.65 973.015C1060.63 964.427 1050.68 956.71 1062 949L1062 948C1050.51 939.483 1047.13 924.429 1047.46 910C1047.56 905.76 1050.1 901.259 1049.17 897.043C1047.84 890.932 1039.01 889.506 1036 884L1027 886C1025.44 881.645 1022.47 880.372 1019.1 877.471C1016.05 874.844 1014.48 870.518 1010.81 868.654C1002.37 864.355 992.479 871.578 984 871.953C976.792 872.271 964.502 868.557 960.219 877.105C958.259 881.017 961.29 885.148 961.957 889C964.02 900.919 970.505 913.553 977.135 923.625C980.21 928.296 984.734 931.591 986.979 937C992.288 949.791 969.383 952.918 973.643 963.625C977.527 973.39 991.045 974.907 999 978.213C1007.32 981.671 1015.15 988.738 1024 990.609C1031.66 992.228 1040.21 988.005 1047.9 990.028C1052.29 991.184 1052.24 996.996 1056.21 998.607C1059.95 1000.12 1065.24 995.725 1069 995z"/>
</svg>
