<?xml version="1.0" standalone="yes"?>
<svg xmlns="http://www.w3.org/2000/svg" width="1450" height="1164">
<path style="fill:#010101; stroke:none;" d="M0 0L0 1164L1450 1164L1450 0L0 0z"/>
<path style="fill:#ffffff; stroke:none;" d="M447 514L452.84 535.985L462.431 545.819L461.715 554.001L465.653 568L459.06 584L449.826 602.362L429 609C431.383 621.649 439.552 629.668 444.11 641.015C448.398 651.688 449.561 664.896 449 676C458.515 673.635 468.081 685.039 477 681.451C487.23 677.336 481.929 670.627 487.199 664.286C493.44 656.777 504.454 657.234 510.576 649.521C514.89 644.084 512.216 636.009 515.318 630.044C518.226 624.452 524.553 626.267 528.012 622.262C530.393 619.504 529.36 615.29 532.314 612.702C537.506 608.152 545.279 608.944 550.985 605.973C555.411 603.668 556.72 598.616 560.213 595.39C566.468 589.614 580.085 585.772 581.512 576C582.597 568.562 572.887 565.22 570.603 559C568.905 554.372 571.207 549.596 571.66 545C572.333 538.191 571.202 526.148 567.547 520.225C562.469 511.994 552.073 515.566 548 522L547 522L533.799 496L523.961 478L529 454C507.233 454 483.885 450.122 467.785 468.727C464.755 472.229 469.466 478.901 469.374 483C469.085 495.908 461.277 513.95 447 514z"/>
</svg>
