<?xml version="1.0" standalone="yes"?>
<svg xmlns="http://www.w3.org/2000/svg" width="1450" height="1164">
<path style="fill:#010101; stroke:none;" d="M0 0L0 1164L1450 1164L1450 0L0 0z"/>
<path style="fill:#ffffff; stroke:none;" d="M1099 807L1103 802C1105.41 811.007 1108.39 822.826 1112.71 830.957C1114.62 834.55 1118.73 836.274 1120.26 840.043C1123.08 846.994 1122.08 854.266 1130 858L1123 865C1125.01 875.614 1114.42 872.184 1111.69 879.278C1110.54 882.277 1111.73 885 1109.84 888C1107.39 891.873 1102.54 894.373 1100.59 898.375C1095.72 908.323 1096.76 919.58 1094 930C1080.7 926.833 1083.12 933.5 1074.99 940.816C1070.41 944.94 1060.07 948.261 1057.76 954.105C1055 961.076 1061.6 966.717 1064.64 972.015C1070.71 982.602 1070.44 995.07 1076.1 1006C1080.95 1015.39 1088.28 1028.35 1098 1033.16C1104.91 1036.58 1111.05 1033.12 1118 1034.15C1125.95 1035.32 1136.43 1040.33 1144 1043.45C1152.66 1047.02 1158.11 1057.31 1167 1059.27C1170.98 1060.15 1175 1058.29 1179 1058.47C1192.43 1059.09 1211.29 1063.22 1218 1075L1222 1074C1217.38 1061.95 1220.5 1051.98 1226.26 1041C1228.72 1036.31 1232.88 1032.44 1233 1027C1237.79 1027.45 1241.27 1024.28 1246 1024.14C1249.58 1024.03 1253.4 1026.47 1256.83 1024.78C1260.7 1022.86 1262.36 1018.18 1266.09 1016.01C1270.92 1013.19 1280.49 1012.39 1278 1005L1296 997L1298 993L1299 993L1300 996L1301 996L1302 993L1312 998L1310 998C1317.39 1006.26 1325.07 985.038 1334 983L1336 977C1347.78 977.188 1347.08 960.952 1350.57 954.043C1352.35 950.534 1355.77 948.92 1359 947C1353.48 920.253 1352.36 898.056 1358.43 871C1360.14 863.366 1362.06 854.084 1365.65 847.108C1367.36 843.785 1371.05 842.703 1372.14 838.945C1373.85 833.025 1371.74 826.131 1372.04 820C1372.62 808.238 1374.28 798.001 1373.39 786C1373.13 782.451 1375.21 777.699 1372.97 774.51C1365.93 764.455 1348.56 772.106 1340 768.871C1330.07 765.118 1323.55 752.993 1312 755C1310.72 749.138 1303.93 741.006 1297.9 739.317C1291.74 737.595 1283.6 739.416 1279.55 732.949C1276.98 728.856 1283.71 719.843 1282.67 714C1281.31 706.323 1274.34 702.338 1282 696L1284 687L1263.96 701.072L1251 702.302L1238 708.106L1218 698L1219.87 679.302L1211 669C1205.53 670.71 1187.17 668.512 1182.3 665.307C1176.68 661.611 1172.58 651.994 1170 646C1164.95 647.382 1154.37 649.332 1151.01 653.43C1145.92 659.621 1150.91 665.462 1150 672C1148.82 680.406 1145.72 687.921 1144.48 696C1143.1 704.982 1145.15 716.647 1140.7 724.961C1135.91 733.892 1128.24 730.922 1121.1 734.84C1116.96 737.113 1115.13 741.776 1110.98 744.254C1104.21 748.305 1090.6 749.707 1086.65 757.213C1084.59 761.133 1086.56 765.011 1085.6 769C1084.85 772.111 1082.39 774.629 1082.56 777.985C1082.77 782.22 1087.1 785.898 1088.42 789.986C1091.03 798.032 1091.41 801.806 1099 807z"/>
<path style="fill:#010101; stroke:none;" d="M1232 1026L1233 1027L1232 1026z"/>
</svg>
