<?xml version="1.0" standalone="yes"?>
<svg xmlns="http://www.w3.org/2000/svg" width="1450" height="1164">
<path style="fill:#010101; stroke:none;" d="M0 0L0 1164L1450 1164L1450 0L0 0z"/>
<path style="fill:#ffffff; stroke:none;" d="M50 565C55.6526 569.413 56.0669 575.796 60.6991 580.436C63.6492 583.391 68.4353 582.346 71.4707 585.317C80.8967 594.543 79.6712 611.362 76.6821 622.985C75.2477 628.563 68.6356 630.193 67.3403 636.015C65.8085 642.899 62.9962 651.179 62.2523 658C61.5197 664.718 63.289 670.752 59.2724 677C49.3563 692.425 29.5451 699.772 26.4182 720C24.4741 732.577 38.6869 742.629 44.7554 752C46.7891 755.14 48.3791 762.132 53.0278 762.248C58.1296 762.376 59.9651 754.782 61 751C67.1619 754.586 66.3271 765.413 73.1736 767.582C80.3772 769.863 85.3005 754.317 91.2269 758.546C95.6889 761.731 94.6059 767.36 95.6806 772C96.9601 777.525 105.462 789.621 111.043 791.333C124.613 795.493 141.218 785.038 155 785C155.945 792.526 154.887 795.302 148 799C149.797 806.769 151.49 824.679 156.564 830.471C164.821 839.895 174.329 834.473 184 831.619C187.198 830.675 191.6 831.004 194.363 828.987C197.231 826.893 197.925 822.987 201.105 821.049C206.171 817.96 211.771 822.225 216.895 818.346C221.017 815.227 221.735 810.08 224.634 806.089C228.206 801.173 234.756 799.522 237.991 794.856C240.849 790.733 238.668 786.256 240.313 782.004C241.832 778.078 246.341 776.586 247.968 772.791C249.664 768.834 248.538 764.118 250.51 760.224C254.24 752.857 260.519 748.72 263 740C243.12 736.765 263.299 712.699 262.774 704C262.542 700.157 258.589 697.281 256.949 694C254.367 688.835 252.298 680.74 252 675L273 680C275.104 671.462 278.218 671.004 283.031 664.61C285.399 661.464 286.903 656.363 291.895 656.596C295.352 656.758 297.638 661.727 301 663L301 659C312.105 663.623 313.243 663.212 324 659L325 645L304 630L314 623L314 622C310.86 618.675 309.025 616.634 310 612C298.933 608.86 288.354 607.257 285 595C279.568 596.159 278.689 599.913 278 605C264.701 603.365 261.999 614.371 252.91 621.682C249.68 624.281 245.523 623.273 242.286 625.603C238.314 628.464 236.187 634.623 230.985 635.593C216.529 638.287 203.482 619.828 197 610L185 617L173 591C184.649 586.942 180.273 573.109 183.603 564C185.146 559.776 189.319 557.144 191.058 553C192.57 549.396 190.684 545.551 192.357 542.001C193.986 538.545 198.133 536.477 199.227 532.83C200.527 528.497 198.322 521.501 194.786 518.819C190.136 515.29 171.71 510.183 166.039 511.774C161.296 513.104 159.249 518.276 154 519.362C145.452 521.13 135.829 519.718 127 521.225C122.341 522.02 119.312 525.738 115 527.272C110.6 528.838 104.672 528.575 100 529.296C90.0569 530.83 75.9722 527.018 66.5177 533.028C59.0255 537.79 59.4183 548.69 56.8519 555.996C55.5589 559.677 52.3707 562.045 50 565z"/>
</svg>
