<?xml version="1.0" standalone="yes"?>
<svg xmlns="http://www.w3.org/2000/svg" width="1450" height="1164">
<path style="fill:#010101; stroke:none;" d="M0 0L0 1164L1450 1164L1450 0L0 0z"/>
<path style="fill:#ffffff; stroke:none;" d="M348 486L336 516C343.182 519.846 347.298 528.115 356 524C357.559 534.976 347.382 548.017 338 553C340.594 562.804 341.346 574.463 345.589 583.7C346.788 586.311 349.771 587.543 350.868 590.174C352.096 593.116 350.441 595.953 352.672 598.772C355.652 602.536 360.718 601.998 365 602C379.098 602.005 386.896 596.762 391.88 583C393.662 578.079 387.936 573.586 386.89 569C385.581 563.254 387.425 551.777 388.904 546C391.681 535.151 403.127 528.849 406.167 519C407.47 514.779 404.862 509.175 404 505L428 502L428 500C422.306 495.622 418.817 489.24 412 486.363C391.451 477.693 368.941 485.942 348 486z"/>
</svg>
