<?xml version="1.0" standalone="yes"?>
<svg xmlns="http://www.w3.org/2000/svg" width="1450" height="1164">
<path style="fill:#010101; stroke:none;" d="M0 0L0 1164L1450 1164L1450 0L0 0z"/>
<path style="fill:#ffffff; stroke:none;" d="M656 627L636.711 654L630.772 669.996L621.693 680.3L622 693L611 692C612.08 697.22 615.884 703.729 614.466 709C611.935 718.411 600.682 724.435 601.104 734C601.423 741.228 605.163 742.464 609.61 747.205C628.083 766.9 650.684 759.141 673 753.413C679.667 751.702 684.888 747.225 692 747C692 743.359 691.248 738.445 693.742 735.429C695.721 733.036 699.211 732.745 700.746 729.856C702.168 727.179 701.287 723.875 702.667 721.148C704.418 717.691 707.739 719.042 710.258 716.973C712.51 715.122 711.505 711.685 713.027 709.419C714.637 707.022 722.244 703.118 725.089 702.618C735.704 700.754 742.085 713.848 750.043 716.968C757.681 719.962 765.852 716.07 773 718.443C788.214 723.495 799.619 733.588 815.089 738.447C822.211 740.684 832.939 740.648 839.961 737.968C842.561 736.975 844.391 734.264 847.089 733.657C850.294 732.935 854.81 735.333 858 736C860.386 731.127 860.533 723.878 867 723L868 717C860.703 716.404 856.419 711.971 849.911 710.314C836.39 706.871 824.31 704.193 811 699.384C801.55 695.97 791.286 695.2 782 692.475C767.323 688.166 754.486 679.669 743 669.969C738.165 665.886 734.354 667.634 729.213 665.397C724.538 663.363 717.078 652.898 716 648L701 646C692.909 655.731 688.639 644.433 681.83 639.854C678.058 637.317 673.119 637.407 669.129 635.352C664.198 632.812 661.73 628.655 656 627z"/>
</svg>
