<?xml version="1.0" standalone="yes"?>
<svg xmlns="http://www.w3.org/2000/svg" width="1450" height="1164">
<path style="fill:#010101; stroke:none;" d="M0 0L0 1164L1450 1164L1450 0L0 0z"/>
<path style="fill:#ffffff; stroke:none;" d="M1266 164C1266 171.556 1266.69 178.535 1267.52 186C1268.05 190.689 1268.06 200.076 1264.68 203.656C1257.56 211.213 1235.65 207.359 1227 204.188C1219.56 201.461 1211.78 196.318 1204 200C1208.02 206.806 1215.04 209.933 1220.95 214.888C1223.02 216.63 1226.25 219.615 1224.21 222.563C1221.94 225.833 1216.9 224.249 1214 222.965C1205.16 219.055 1195.77 216.325 1186 215.549C1181.83 215.217 1176.3 218.794 1172.39 216.802C1165.24 213.154 1163 200.066 1152.04 201.503C1148.98 201.905 1147.12 204.765 1144.91 206.615C1131.42 217.945 1139.52 229.313 1153 236.556C1162.97 241.916 1171.01 232.111 1181 232L1174 246C1178.25 248.033 1190.21 248.271 1194.61 246.381C1201.01 243.633 1202.28 238.177 1211 239.807C1222.35 241.93 1233.96 245.199 1243.99 251.352C1248.91 254.371 1251.86 262.118 1258 262.713C1266.16 263.502 1274.56 253.038 1282.58 252.365C1287.77 251.929 1293.4 256.838 1299 256.944C1302.81 257.017 1306.32 254.713 1310 254.961C1312.9 255.157 1315.09 257.749 1318 257.688C1322.25 257.6 1325.35 253.911 1330 254.106C1343.52 254.674 1358.68 259.167 1369 268.169C1371.25 270.135 1376.66 276.269 1379.82 272.392C1386.36 264.386 1377.34 244.02 1372.15 237.609C1369.82 234.735 1366.06 233.619 1364.6 229.96C1359.29 216.693 1364.17 199.039 1361.85 185.044C1361.22 181.225 1358.26 179.749 1356 183C1365.01 185.846 1360.01 214 1359 222L1348 215C1349.21 209.148 1354.99 190.952 1349.68 186.758C1346.61 184.33 1340.79 186.008 1337 185L1337 183C1343.18 181.043 1351.19 183.612 1354 177L1340.7 168.693L1314.42 168.729L1297 163.171L1266 164z"/>
</svg>
