<?xml version="1.0" standalone="yes"?>
<svg xmlns="http://www.w3.org/2000/svg" width="1450" height="1164">
<path style="fill:#010101; stroke:none;" d="M0 0L0 1164L1450 1164L1450 0L0 0z"/>
<path style="fill:#ffffff; stroke:none;" d="M1343 164L1339 164L1339 163L1342 162L1342 160L1338 158L1338 157L1341 156L1341 154L1337 153L1341 150L1341 148L1340 147L1334 152L1333 152L1322 113C1311.59 115.458 1308.75 111.111 1299 109.43C1293.63 108.505 1286.12 110.6 1281 112.22C1270.82 115.439 1267.14 123.587 1268.91 134C1269.46 137.238 1272.34 139.567 1272.26 143C1272.13 148.854 1261.17 156.407 1266.86 162.142C1271.15 166.472 1281.7 162.144 1287 162.015C1297.19 161.765 1303.59 165.971 1313 167.821C1317.03 168.614 1320.83 165.887 1325 166.305C1331.04 166.91 1339.01 170.331 1343 164z"/>
</svg>
