<?xml version="1.0" standalone="yes"?>
<svg xmlns="http://www.w3.org/2000/svg" width="1450" height="1164">
<path style="fill:#010101; stroke:none;" d="M0 0L0 1164L1450 1164L1450 0L0 0z"/>
<path style="fill:#ffffff; stroke:none;" d="M530 624C525.85 624.536 519.668 624.875 516.858 628.419C512.508 633.905 515.886 642.802 512.101 648.624C506.824 656.741 495.431 656.606 488.973 662.773C483.876 667.64 487.605 673.782 481.977 678.671C471.751 687.553 464.596 676.438 454 675.782C445.885 675.279 442.187 681.741 437.482 686.787C434.37 690.124 429.641 690.532 426.51 693.56C422.98 696.974 421.549 704.42 420 709L446 712.714L456.223 714.603L456 723L475 728.165L497 721C497.87 727.297 501.718 734.285 508 736.792C510.685 737.864 513.404 736.822 515.985 738.502C519.679 740.907 521.152 745.245 524.39 748.049C527.092 750.391 531.065 752.038 532.289 755.718C534.926 763.65 522.5 769.136 518.938 773.637C515.199 778.363 518.467 783.729 521 788C535.358 786.612 531.32 805.401 543.213 807.512C550.024 808.72 555.721 802.751 562 801.826C566.797 801.12 570.261 805.668 575 805.598C581.17 805.507 586.72 800.637 593 800.228C598.261 799.885 603.859 802.936 609 804L608.267 778L621 756C611.884 753.001 596.466 740.178 600.894 729.043C603.986 721.27 612.691 717.412 614.177 708C614.956 703.072 611.346 696.742 610 692L621 692L621.198 680.174L630.312 669.985L634.518 657L648 641C638.244 637.244 629.416 641.404 619 638.622C614.697 637.473 609.559 632.562 605.105 633.377C597.286 634.806 594.911 646.627 584.105 643.681C578.843 642.247 575.597 631.866 576.239 627C576.567 624.516 579.566 620.175 577.203 618.029C570.758 612.177 562.464 626.183 556.635 624.391C551.629 622.853 554.291 613.183 550.271 609.603C541.016 601.362 530.165 616.024 530 624z"/>
</svg>
