<?xml version="1.0" standalone="yes"?>
<svg xmlns="http://www.w3.org/2000/svg" width="1450" height="1164">
<path style="fill:#010101; stroke:none;" d="M0 0L0 1164L1450 1164L1450 0L0 0z"/>
<path style="fill:#ffffff; stroke:none;" d="M941 452L923 450C925.668 458.646 922.002 462.303 914 465.547C906.944 468.408 901.848 465.968 895 467.282C890.739 468.1 888.009 471.749 884 473.056C880.4 474.23 876.195 472.269 873.708 476.149C871.105 480.209 872.634 501.177 877.059 503.424C882.204 506.037 886.065 501.503 891 502.693C898.352 504.466 900.774 510.565 909 506.737C918.761 502.194 929.801 490.573 940 489C942.938 503.401 964.25 488.73 973 498L986 493L992 497L991 494C995.754 494.601 1001.23 495.913 1005.98 494.682C1019.44 491.2 1015.12 473.679 1010.32 466C1007.11 460.861 1003.1 453.845 997 460C992.353 455.504 986.962 455.713 982.418 452.142C979.589 449.919 979.194 445.875 975.892 444.028C972.651 442.214 968.51 443.982 965.394 441.972C962.09 439.842 962.14 432.957 957.786 432.466C950.587 431.654 942.397 446.206 941 452z"/>
</svg>
