<?xml version="1.0" standalone="yes"?>
<svg xmlns="http://www.w3.org/2000/svg" width="1450" height="1164">
<path style="fill:#010101; stroke:none;" d="M0 0L0 1164L1450 1164L1450 0L0 0z"/>
<path style="fill:#ffffff; stroke:none;" d="M768 244L754.945 283L745.009 297L743.606 317L735 333L757 338L755 343C746.513 339.883 722.026 333.55 720 346C704.556 346.673 696.268 361.13 692.9 375C691.623 380.255 692.57 386.09 689.583 390.867C685.563 397.292 675.638 394.443 672.383 402.044C670.095 407.387 673.984 415.142 674 421C669.011 422.029 662.853 428.153 667.742 433.272C669.743 435.367 675.593 435.373 675.654 439.044C675.815 448.706 658.519 450.996 652 451L658.397 459.21L662 471C669.399 466.459 673.866 458.633 681.004 454.825C690.273 449.879 716.349 446.177 722.618 457.043C725.843 462.633 720.355 469.031 724.449 473.837C728.559 478.663 737.332 474.535 742.772 478.013C748.024 481.372 746.318 488.503 753 491C751.551 494.649 748.092 497.941 748.243 502.015C748.72 514.864 757.527 515.558 766.772 520.513C769.499 521.974 769.888 525.901 773.144 526.397C776.837 526.959 781.319 525.466 785 525C786.125 510.741 782.006 497.335 777.932 484C777.02 481.014 778.339 477.902 776.958 475C773.635 468.019 762.946 464.07 761.819 456.001C760.817 448.832 769.727 447.278 773.815 443.61C780.589 437.531 781.068 422.947 794 424.923C797.732 425.493 801.24 428.099 805 429L812.945 411L815.637 397L833 379.911L847 364L843.34 349L841.991 333.43L830.043 328.971L822.61 321.966L808.604 311.896L810.917 296L806.117 271.108L816.688 260.956L810.79 253.357L795 252.711L768 244z"/>
</svg>
