<?xml version="1.0" standalone="yes"?>
<svg xmlns="http://www.w3.org/2000/svg" width="1450" height="1164">
<path style="fill:#010101; stroke:none;" d="M0 0L0 1164L1450 1164L1450 0L0 0z"/>
<path style="fill:#ffffff; stroke:none;" d="M423 152L408 162C412.083 161.966 418.972 158.626 422.467 159.662C425.944 160.693 426.66 167.067 429.228 169.471C435.363 175.215 451.27 181.12 441 192C442.817 197.478 449.459 202.309 449.979 207.96C450.4 212.53 443.334 215.943 442.633 221.001C441.532 228.957 447.175 235.53 444.696 244C437.674 267.997 418.463 293.834 428 320L423.954 324.059L426.654 335L418 358C408.367 358 400.924 358.536 396 368C401.1 370.623 401.917 372.579 400 378C404.9 377.323 411.316 371.606 415.907 373.492C427.473 378.245 421.349 397.336 432 399L432 394L438 398C444.153 396.726 450.019 391.525 456 391.227C462.499 390.903 472.319 399.644 478.218 394.012C481.058 391.299 476.798 379.869 476.464 376C475.239 361.807 485.142 357.3 497 355L498 365C492.971 361.945 489.023 361.17 485 366C492.753 370.124 491.06 375.686 489 383L514.892 385.588L521.51 394.196L539.089 402.57L558 398.468L583 410C588.035 404.27 596.565 402.108 602.911 397.826C614.763 389.828 620.193 377.56 636 382L639 362L603 342.558L576 345C576.494 321.192 599.453 312.36 613.582 297.61C617.397 293.627 618.195 287.434 621.637 283.105C625.034 278.834 634.581 277.887 635.353 271.957C635.748 268.929 633.658 265.951 633.213 263C632.279 256.807 635.069 248.109 632.397 242.39C630.761 238.89 625.814 237.111 623.43 233.985C618.613 227.669 614.901 217.389 611.811 210C609.154 203.646 612.345 195.427 608.012 189.418C605.982 186.605 601.713 185.688 599 183.607C596.857 181.963 594.789 179.133 592.059 178.461C587.675 177.382 586.453 187.89 582.815 189.972C578.54 192.419 562.091 194.355 557 194.146C547.543 193.757 544.583 181.123 535 181.511C527.934 181.797 515.803 188.378 510 192.329C507.012 194.364 503.08 199.203 499.094 198.825C494.949 198.432 494.187 192.999 492.585 190.104C490.402 186.16 483.214 179.157 478.996 177.604C469.728 174.192 456.341 189.343 448.637 183.307C444.357 179.954 436.226 169.763 433.529 164.96C430.486 159.538 429.833 153.421 423 152z"/>
</svg>
