<?xml version="1.0" standalone="yes"?>
<svg xmlns="http://www.w3.org/2000/svg" width="1450" height="1164">
<path style="fill:#010101; stroke:none;" d="M0 0L0 1164L1450 1164L1450 0L0 0z"/>
<path style="fill:#ffffff; stroke:none;" d="M723 648L717 648C719.357 662.676 735.023 662.974 744 670.719C763.863 687.858 786.194 691.137 810 698.515C822.786 702.477 833.407 707.825 846.999 709.058C854.716 709.758 859.312 716.859 867.996 715.542C876.433 714.261 880.179 701.654 883.654 694.83C885.412 691.376 886.492 686.222 891.043 685.604C896.735 684.832 915.907 690.704 916.839 697.044C917.598 702.201 910.92 708.435 909 713L919.83 715.242L931 712.103L947.57 720.728L953.279 729.821L966 731.213L996 734L997.742 719.225L1016.73 710.301L1030 697C1024.48 693.754 1023.28 688.367 1018 684.749C1007.62 677.639 996.043 674.443 985 669.084C981.283 667.281 978.703 663.755 975 662.066C962.547 656.384 946.951 656.996 934 650.742C928.482 648.076 923.239 645.16 919.652 639.999C916.555 635.543 917.083 630.262 910.982 628.939C896.785 625.86 881.319 625.956 867 628.464C852.095 631.075 836.353 636.994 821 635.698C808.739 634.662 805.16 621.362 797.582 614.563C793.9 611.26 788.301 612.08 784.213 609.686C780.798 607.686 778.376 600.193 773.393 603.786C765.099 609.766 766.247 623.966 760.397 631.7C752.097 642.675 723.607 629.453 723 648z"/>
</svg>
