<?xml version="1.0" standalone="yes"?>
<svg xmlns="http://www.w3.org/2000/svg" width="1450" height="1164">
<path style="fill:#010101; stroke:none;" d="M0 0L0 1164L1450 1164L1450 0L0 0z"/>
<path style="fill:#ffffff; stroke:none;" d="M1040 286C1041.38 291.424 1036.71 295.05 1037.79 300C1040.53 312.581 1050.24 324.985 1058 335L1049 341C1055.81 351.012 1058.54 363.813 1067.7 372.258C1074.06 378.12 1086.48 375.902 1094 378.367C1104.99 381.971 1108.11 402.342 1105 412C1114.18 410.099 1137.89 388.365 1141.6 408C1142.46 412.558 1138.18 416.654 1137.43 421C1136.54 426.151 1139.12 431.375 1141 436L1142 436L1153 410C1160.76 412.153 1173.51 402.111 1169.71 393.044C1167.5 387.752 1159.65 386.685 1155 384.557C1149.86 382.206 1145.92 378.141 1142.17 374C1137.94 369.332 1131.76 364.094 1129.7 358C1125.69 346.133 1130.99 330.66 1127.36 319C1125.07 311.656 1114.97 310.992 1113.45 304.942C1112.16 299.8 1117.37 295.753 1120 292C1111.41 286.337 1092.08 279.711 1082.29 286.6C1078.54 289.235 1073.23 302.451 1069.87 302.503C1065.99 302.563 1063.42 297.615 1061.41 295C1055.03 286.706 1050.75 279.469 1040 286z"/>
</svg>
