<?xml version="1.0" standalone="yes"?>
<svg xmlns="http://www.w3.org/2000/svg" width="1450" height="1164">
<path style="fill:#010101; stroke:none;" d="M0 0L0 1164L1450 1164L1450 0L0 0z"/>
<path style="fill:#ffffff; stroke:none;" d="M997 735C986.339 735 977.316 733.769 967 732.213C962.803 731.58 957.946 732.925 954.055 730.821C950.414 728.853 950.319 725.277 948.066 722.303C944.853 718.062 929.376 710.235 924.438 713.434C920.507 715.979 924.586 724.81 924 729L931 730C933.545 741.134 926.808 762.537 937.214 770.577C940.94 773.456 947.122 769.61 951 768.323C962.043 764.659 975.447 756.855 987 755.356C992.986 754.58 998.497 761.243 1004 763L1015.97 739L1015.09 727L1020 710L998.179 719.419L997 735z"/>
</svg>
