<?xml version="1.0" standalone="yes"?>
<svg xmlns="http://www.w3.org/2000/svg" width="1450" height="1164">
<path style="fill:#010101; stroke:none;" d="M0 0L0 1164L1450 1164L1450 0L0 0z"/>
<path style="fill:#ffffff; stroke:none;" d="M844 38C834.323 51.6844 847.01 61.5372 845.439 76C844.481 84.8217 836.11 90.5942 834.498 99C833.568 103.845 835.935 108.273 836.447 113C836.99 118.021 834.945 123.005 835.299 128C835.564 131.748 837.548 135.186 837.501 139C837.388 148.171 831.196 161.042 834.009 170C837.525 181.195 849.463 190.42 856 200C847.94 204.06 849.386 210.97 843.867 216.957C840.609 220.49 835.81 221.923 832.637 225.39C829.012 229.353 827.083 234.814 823.535 238.961C820.457 242.559 816.039 245.306 814.472 250.001C812.822 254.946 818.399 258.188 817.323 262.532C816.181 267.143 809.117 266.385 807.132 270.278C804.088 276.248 810.778 287.908 811.656 294C812.551 300.213 806.755 306.435 809.603 312.621C811.461 316.655 817.477 318.14 820.957 320.352C823.973 322.269 825.407 325.802 828.39 327.567C831.555 329.441 835.646 329.064 838.957 330.653C846.819 334.425 844.545 343.101 844 350L878 343.039L930 342.679L944 346.701L968 342.546L990 344C990.005 350.648 996.95 363.588 999 351L1011 353L1006 364C1017 362.302 1012.91 351.507 1019.47 345.238C1024.86 340.087 1028.82 345.603 1029 351L1030 351C1035.34 345.48 1041.77 348.571 1042 339L1053 345C1055.83 335.118 1059.97 325.378 1064.14 316C1065.86 312.126 1068.86 307.276 1066.97 303C1064.78 298.02 1056.68 285.839 1051.73 283.603C1047.81 281.834 1037.83 288.15 1037.08 282.873C1035.78 273.699 1042.54 260.84 1047.82 254C1050.38 250.684 1055.48 242.386 1053.18 238.108C1046.54 225.753 1035.47 243.021 1029.23 237.303C1019.79 228.656 1025 207.093 1017.93 196.699C1014.33 191.406 1003.39 192.664 998.319 188.864C994.743 186.187 997.086 181.457 998 178C989.264 177.62 986.276 167.153 988 160L993 161C989.883 151.891 979.475 150.126 976.317 141.961C974.597 137.512 977.941 131.9 979.741 128C984.502 117.683 983.235 112.116 997 112C984.933 97.0343 979.08 85.4935 986 66C979.721 64.2051 973.484 60.4055 967 59.4791C962.533 58.8409 958.382 60.8577 954 58.8604C947.011 55.6752 928.575 30.2854 924.428 50.0154C923.719 53.391 922.882 56.6671 922 60L907 56.6366L891 61.0162L844 38z"/>
<path style="fill:#efefef; stroke:none;" d="M1049 340L1050 341L1049 340z"/>
<path style="fill:#fbfbfb; stroke:none;" d="M1016 346L1017 347L1016 346z"/>
</svg>
