<?xml version="1.0" standalone="yes"?>
<svg xmlns="http://www.w3.org/2000/svg" width="1450" height="1164">
<path style="fill:#010101; stroke:none;" d="M0 0L0 1164L1450 1164L1450 0L0 0z"/>
<path style="fill:#ffffff; stroke:none;" d="M693 748L648 761.775L622 757L608.749 778L610 804C617.278 806.787 626.141 810.434 634 810.737C640.892 811.003 647.016 808.612 654 809.934C659.509 810.978 668.184 812.652 672.815 815.854C675.999 818.056 677.198 822.379 681.104 823.566C691.097 826.603 703.491 824.727 713 827.894C728.33 832.999 739.42 854.602 756.938 855.973C761.792 856.353 758.982 850.875 760.236 848.438C761.679 845.632 765.571 846.607 768 847C768.109 834.776 777.375 829.3 783.779 820C789.791 811.27 792.55 799.485 793 789C785.843 787.503 775.094 784.069 777 775L745 749L744 759C737.285 755.189 739.23 748.049 735.683 742.39C731.576 735.839 721.295 730.61 715.228 726.006C711.998 723.556 710.72 717.135 705.302 719.608C700.743 721.689 703.209 729.041 699.592 732.277C693.413 737.804 693 739.331 693 748z"/>
</svg>
