<?xml version="1.0" standalone="yes"?>
<svg xmlns="http://www.w3.org/2000/svg" width="1450" height="1164">
<path style="fill:#010101; stroke:none;" d="M0 0L0 1164L1450 1164L1450 0L0 0z"/>
<path style="fill:#ffffff; stroke:none;" d="M1379 662C1379.1 649.938 1385.91 654.158 1390.97 646.581C1392.88 643.717 1392.52 638.356 1393.08 635C1394.62 625.893 1402.97 608.794 1399.11 600.213C1394.5 589.988 1381.65 596.954 1374 596.321C1368.4 595.857 1363.48 591.801 1358 590.649C1343.92 587.685 1331.11 590.366 1318 595.046C1314.52 596.289 1307.31 595.21 1305.18 598.322C1299.13 607.152 1306.28 623.005 1313.03 629.4C1316.53 632.716 1322.62 630.016 1326.61 632.938C1330.12 635.511 1330.44 640.485 1334.11 643.121C1338.53 646.301 1344.14 645.438 1349 647.39C1359.45 651.591 1368.63 657.681 1379 662z"/>
</svg>
