<?xml version="1.0" standalone="yes"?>
<svg xmlns="http://www.w3.org/2000/svg" width="1450" height="1164">
<path style="fill:#010101; stroke:none;" d="M0 0L0 1164L1450 1164L1450 0L0 0z"/>
<path style="fill:#ffffff; stroke:none;" d="M814 777C822.608 782.307 831.563 787.756 842 788C840.023 797.576 833.24 806.093 844 812.397C846.878 814.082 850.969 812.744 853.258 815.357C856.757 819.353 854.171 825.469 859.329 828.86C863.196 831.401 886.349 830.215 886.566 824.941C886.725 821.079 887.283 810.696 884.397 807.904C881.704 805.299 876.944 806.537 874.979 802.796C872.633 798.331 875.986 790.706 873.786 785.133C872.171 781.042 867.295 780.808 864.104 778.351C860.633 775.678 858.819 771.695 854.985 769.353C846.13 763.943 816.667 764.501 814 777z"/>
</svg>
