<?xml version="1.0" standalone="yes"?>
<svg xmlns="http://www.w3.org/2000/svg" width="1450" height="1164">
<path style="fill:#010101; stroke:none;" d="M0 0L0 1164L1450 1164L1450 0L0 0z"/>
<path style="fill:#ffffff; stroke:none;" d="M1051 478C1051.03 490.38 1052.48 493.097 1045.07 503.325C1043.44 505.569 1042.32 509.747 1039.1 510.23C1036.03 510.691 1035.66 505.569 1033.57 504.183C1030.66 502.254 1026.21 503.747 1023 504C1025.14 512.52 1028.1 512.115 1036 514L1036 516C1026.72 517.914 1019.47 519.071 1015 509L1013 509C1011.97 513.167 1009.93 518.807 1013.32 522.316C1016.01 525.088 1024.1 526.036 1024.62 530.144C1025.87 539.859 1015.99 550.043 1013.73 558.375C1012.63 562.432 1017.72 566.321 1018.75 570C1019.9 574.105 1017.11 578.153 1016 582L1017 583C1022.81 581.06 1027.99 580.317 1032.01 586.105C1036.43 592.484 1038.38 598.744 1046 602.543C1050.24 604.656 1054.84 603.744 1058.91 606.515C1064.59 610.378 1069.44 616.969 1076 619.272C1079.67 620.561 1083.31 618.887 1086.99 619.658C1093.11 620.943 1109.88 627.418 1112.68 633.005C1117.81 643.236 1111.06 648.401 1107.91 657.089C1105.77 662.965 1109.32 681.65 1113.81 686.346C1121.11 693.967 1129.09 682.603 1130 676C1132.7 676.116 1135.31 676.586 1138 676.829C1156.59 678.512 1143.17 662.131 1150.65 653.228C1154.63 648.495 1163.59 647.88 1169 645C1167.12 639.212 1165.89 632.306 1162.92 627C1160.44 622.581 1156.38 619.105 1155.14 614C1154.38 610.862 1152.65 599.461 1153.66 596.714C1154.96 593.152 1158.22 590.647 1159.44 587C1162.05 579.2 1163.27 569.208 1174.58 569.275C1179.05 569.302 1181.6 573.771 1184.59 576.302C1188.17 579.319 1194.64 581.942 1199 583.664C1206.03 586.441 1216.54 589.838 1224 590.437C1229.66 590.892 1235.11 588.231 1241 589.225C1248.89 590.556 1254.78 597.158 1263 598C1263.18 590.597 1269.1 586.041 1269.7 579C1271.09 562.483 1264.25 547.321 1259.16 532C1256.77 524.794 1259.11 518.716 1250.62 514.218C1247.33 512.475 1243.55 515.075 1240.02 514.233C1235.38 513.128 1234.38 507.971 1229.95 506.739C1222.53 504.682 1212.99 508.725 1205.39 504.802C1202.43 503.272 1201.7 499.248 1198.79 497.442C1191.23 492.762 1181.22 491.539 1173 488.382C1164.41 485.086 1156.41 479.221 1147 479C1148.05 473.17 1155.76 465.865 1154.84 460.213C1154.41 457.552 1150.91 456.097 1149 454.65C1139.84 447.725 1137.69 448.344 1127 447.54C1114.67 446.612 1107.56 454.862 1097 459.741C1091.69 462.192 1086.31 461.062 1081 462.97C1070.57 466.72 1061.15 473.709 1051 478z"/>
</svg>
