<?xml version="1.0" standalone="yes"?>
<svg xmlns="http://www.w3.org/2000/svg" width="1450" height="1164">
<path style="fill:#010101; stroke:none;" d="M0 0L0 1164L1450 1164L1450 0L0 0z"/>
<path style="fill:#ffffff; stroke:none;" d="M74 770C82.8846 776.586 96.3916 791.981 96.6535 804C96.7667 809.191 91.6809 813.124 90.3549 818C87.5028 828.488 86.1554 843.124 86.2778 854C86.3275 858.422 89.5539 861.785 90.4529 866C91.3755 870.326 89.6105 874.619 90.5185 879C91.8555 885.451 95.7874 891.372 96.2762 898C96.8243 905.431 91.3275 916.007 90.2894 924C88.8866 934.8 92.1494 945.309 91.7369 956C91.2793 967.861 83.7847 974.186 78.7569 984C76.6018 988.207 73.2358 993.257 75.5386 998C82.8397 1013.04 90.4416 998.664 101 1003.14C108.105 1006.15 113.836 1005.6 121 1007.64C126.568 1009.22 131.033 1012.47 137 1012.91C142.406 1013.31 149.037 1009.75 153.957 1011.08C157.785 1012.12 159.421 1016.44 163.043 1017.99C167.333 1019.83 171.686 1017.87 176 1018.87C181.592 1020.16 186.672 1024.77 192 1027C194.663 1020.31 197.117 1012.2 205 1010.14C209.027 1009.09 214.081 1012.2 217.581 1009.38C222.037 1005.79 221.595 998.534 226.108 994.515C230.441 990.656 237.022 988.058 238.697 981.999C242.141 969.54 229.242 967.294 228.677 956C228.315 948.788 234.511 938.615 231.82 932C229.838 927.127 224.688 920.223 220.787 916.681C218.1 914.241 212.714 912.637 211.593 908.895C210.826 906.332 212.634 903.614 212.568 901C212.419 895.104 208.951 886.049 205.637 881.213C200.849 874.226 190.026 874.992 185.777 866.996C181.38 858.723 189.875 849.275 183.058 840.019C177.03 831.834 166.533 838.825 158.058 832.211C150.647 826.428 149.907 807.935 147 799C151.517 796.881 160.616 786.572 149.956 786.098C138.156 785.574 118.988 799.008 108.213 790.346C103.583 786.625 96.5021 777.706 94.9282 772C93.8507 768.093 95.1523 759.77 89.9452 758.461C85.9302 757.452 77.1681 767.335 74 770z"/>
</svg>
