<?xml version="1.0" standalone="yes"?>
<svg xmlns="http://www.w3.org/2000/svg" width="1450" height="1164">
<path style="fill:#010101; stroke:none;" d="M0 0L0 1164L1450 1164L1450 0L0 0z"/>
<path style="fill:#ffffff; stroke:none;" d="M1306 665L1292 671C1293.08 682.366 1279.74 690.121 1278.45 701.089C1277.99 704.964 1281.58 708.555 1282.87 712C1283.7 714.238 1283.68 717.546 1285.6 719.214C1289.82 722.89 1296.05 715.672 1300 714.513C1305.97 712.762 1313.91 715.508 1320 716.103C1332.94 717.368 1346.14 715.433 1359 716.836C1365.27 717.519 1374.39 721.53 1380.57 718.397C1384.7 716.299 1383.02 705.99 1383.89 702C1387.57 685.099 1395.79 665.408 1392 648C1383 651.468 1380.01 652.867 1380 663C1369.63 658.682 1360.43 652.584 1350 648.39C1345.46 646.564 1340.36 647.181 1336 644.721C1330.79 641.775 1329.58 634.291 1323.96 632.573C1300.83 625.507 1300.1 650.805 1306 665z"/>
</svg>
