<?xml version="1.0" standalone="yes"?>
<svg xmlns="http://www.w3.org/2000/svg" width="1450" height="1164">
<path style="fill:#010101; stroke:none;" d="M0 0L0 1164L1450 1164L1450 0L0 0z"/>
<path style="fill:#ffffff; stroke:none;" d="M418 416L417.305 429.576L410.785 442L407 467L401 463C393.364 465.474 394.844 475.05 384 475.529C377.878 475.8 372.059 472.623 366 472.485C361.183 472.374 348.473 471.539 344.318 472.812C339.987 474.14 341.848 482.765 345.148 484.258C353.715 488.133 367.359 482.824 376 481.44C394.813 478.425 420.165 484.842 429 503L405 506C405.749 509.631 407.843 514.299 406.958 518C404.857 526.783 393.691 533.802 390.482 543C388.316 549.21 386.338 562.6 387.572 569C388.371 573.144 392.789 576.837 392.698 581C392.534 588.508 383.438 597.793 378 602L378 603C380.26 606.135 382.167 609.171 385.09 611.745C387.871 614.195 390.519 618.041 394.039 619.397C406.674 624.263 418.356 612.703 429 608.479C436.405 605.541 445.269 606.679 451.33 600.61C456.672 595.261 461.971 580.329 464.061 573C466.131 565.739 462.183 560.835 461.117 554C460.678 551.182 462.787 548.029 461.608 545.39C459.751 541.236 453.986 539.722 451.8 534.996C448.694 528.281 448.768 520.138 446 513C460.982 512.998 468.447 497.11 468.642 483C468.7 478.834 466.324 475.113 466.202 471C465.822 458.218 469.103 448.913 455 443C461.436 431.916 455.595 417.274 441 420C436.091 412.252 425.734 417.415 418 416z"/>
</svg>
