<?xml version="1.0" standalone="yes"?>
<svg xmlns="http://www.w3.org/2000/svg" width="1450" height="1164">
<path style="fill:#010101; stroke:none;" d="M0 0L0 1164L1450 1164L1450 0L0 0z"/>
<path style="fill:#ffffff; stroke:none;" d="M1070 798C1073.83 796.636 1086.78 798.803 1088.6 795.397C1091.74 789.496 1081.46 782.583 1081.99 776.999C1082.27 774.084 1084.53 771.825 1085.12 769C1085.9 765.263 1084 761.77 1085.67 758.043C1087.02 755.018 1091.04 753.319 1091.38 749.911C1091.95 744.233 1082.13 736.571 1079.91 731C1077.4 724.657 1083.35 718.244 1081.23 712.318C1079.53 707.594 1070.61 711.424 1067.11 709.731C1063.62 708.045 1063 703.833 1060.58 701.149C1058.33 698.658 1047.32 693.344 1043.96 693.059C1025.21 691.473 1017.82 709.63 1016.17 725C1015.69 729.524 1017.65 734.7 1016.4 739C1014.17 746.693 1005.03 753.907 1005.39 762C1005.63 767.437 1011.13 772.948 1014.75 776.61C1018.19 780.101 1023.19 781.348 1026.89 784.529C1031.16 788.199 1032.85 794.362 1039 795.671C1045.73 797.102 1048.5 791.443 1053.71 788.992C1060.54 785.786 1067.03 793.09 1070 798z"/>
</svg>
