<?xml version="1.0" standalone="yes"?>
<svg xmlns="http://www.w3.org/2000/svg" width="1450" height="1164">
<path style="fill:#010101; stroke:none;" d="M0 0L0 1164L1450 1164L1450 0L0 0z"/>
<path style="fill:#ffffff; stroke:none;" d="M437 399L433 395L436 415L441 419C456.397 417.685 460.997 430.96 456 443C468.325 448.422 465.95 455.953 468 467C476.76 464.433 481.16 456.135 490 453.637C494.316 452.418 497.796 454.356 502 454.235C510.859 453.978 519.683 453 529 453C533.394 453 540.882 454.526 543.346 449.852C547.316 442.323 539.923 438.391 537.983 432C536.575 427.359 539.31 421.708 539.674 417C540.02 412.533 538.297 408.494 539 404L523.055 395.852L516.915 387.603L503 382.481L488 384C490.173 376.286 492.702 369.922 484 366C488.614 361.737 491.089 361.176 497 363L496 356C484.43 358.244 476.027 362.332 477.3 376C477.707 380.371 481.728 391.107 478.473 394.411C472.739 400.231 462.605 391.92 456 392.095C449.546 392.265 443.526 397.649 437 399z"/>
</svg>
