<?xml version="1.0" standalone="yes"?>
<svg xmlns="http://www.w3.org/2000/svg" width="1450" height="1164">
<path style="fill:#010101; stroke:none;" d="M0 0L0 1164L1450 1164L1450 0L0 0z"/>
<path style="fill:#ffffff; stroke:none;" d="M1212 668L1220.61 679.228L1219 698L1238 707.427L1253 700.869L1263.9 700.788L1272.1 691.637L1286.1 684.437L1292.77 671.329L1305 664C1299.98 651.911 1297.79 638.784 1312 632C1309.72 617.741 1299.15 612.034 1305 596C1300.53 594.679 1295.36 596.084 1291.09 594.397C1288.05 593.193 1286.67 589.872 1283.7 588.603C1273.5 584.243 1264.03 588.237 1264 599C1255.78 598.158 1249.89 591.556 1242 590.225C1236.17 589.241 1230.71 591.108 1225 591.107C1217.71 591.106 1205.72 587.254 1199 584.248C1187.78 579.226 1177.16 564.814 1165.14 573.966C1160.44 577.551 1162.04 583.283 1159.57 588C1157.97 591.046 1155.04 593.573 1154.22 597C1151.25 609.342 1160.58 619.691 1164.87 630C1169.07 640.103 1171.88 659.022 1182.46 664.933C1186.07 666.949 1193.74 666.43 1198 667.198C1203.54 668.195 1206.39 669.994 1212 668z"/>
</svg>
