<?xml version="1.0" standalone="yes"?>
<svg xmlns="http://www.w3.org/2000/svg" width="1450" height="1164">
<path style="fill:#010101; stroke:none;" d="M0 0L0 1164L1450 1164L1450 0L0 0z"/>
<path style="fill:#ffffff; stroke:none;" d="M930 867L924 878C914.809 871.397 902.156 867.636 894 879L908 883L898 889C904.109 905.175 884.048 892.051 876.148 898.724C869.301 904.506 874.063 919.221 867.347 925.397C864.333 928.168 858.732 926.774 855 927.174C845.362 928.206 837.564 931.066 833 940C827.293 937.799 815.972 934.204 817.384 945.001C817.907 948.995 821.176 952.008 821.549 956C821.896 959.724 819.654 963.245 820.353 967C820.87 969.78 823.37 972.088 823.173 975C822.931 978.56 819.385 980.868 818.102 984C816.894 986.946 817.523 990.833 817 994C824.011 996.701 835.675 1007.51 842.851 1004.26C846.777 1002.48 844.568 998.48 846.678 995.633C850.478 990.508 858.843 987.244 864.996 986.627C869.14 986.212 870.83 990.101 874.089 991.82C877.91 993.836 885.105 992.718 888.791 990.688C894.625 987.473 902.926 982.079 906.926 976.625C909.584 973 910.288 967.336 914.329 964.777C920.702 960.741 932.328 976.247 935 964L943 968L944 964C935.427 959.233 933.682 936.981 943.158 931.89C948.094 929.239 948.855 937.415 953.105 937.694C960.571 938.183 968.674 928.71 977 929C975.971 924.016 974.71 912.174 968.815 910.446C963.696 908.945 955.303 916.868 952 920C950.109 912.156 956.404 910.319 956.365 903.968C956.342 900.222 951.609 899.86 949.104 898.576C942.14 895.006 940.172 893.021 932 896L935 868L930 867z"/>
</svg>
