<?xml version="1.0" standalone="yes"?>
<svg xmlns="http://www.w3.org/2000/svg" width="1450" height="1164">
<path style="fill:#010101; stroke:none;" d="M0 0L0 1164L1450 1164L1450 0L0 0z"/>
<path style="fill:#ffffff; stroke:none;" d="M940 773C942.555 782.66 940.548 796.934 928 796C921.097 807.465 907.663 815.328 912 830C921.772 827.191 938.963 828.29 949 832.144C960.809 836.677 964.437 842.812 978 839L982 871L1005 866L1009.98 854.907L1002 839C1011.58 838.999 1037.08 828.95 1025 816L1025 815L1037 797C1030.46 788.401 1022.83 784.629 1015.32 777.61C1007.57 770.358 1000.91 757.472 989 755.851C983.773 755.14 977.688 760.097 973 761.985C962.338 766.277 950.963 768.526 940 773z"/>
</svg>
