<?xml version="1.0" standalone="yes"?>
<svg xmlns="http://www.w3.org/2000/svg" width="1450" height="1164">
<path style="fill:#010101; stroke:none;" d="M0 0L0 1164L1450 1164L1450 0L0 0z"/>
<path style="fill:#ffffff; stroke:none;" d="M932 740L930 731C922.021 730.17 925.62 723.118 921.297 718.513C918.164 715.176 911.309 714.58 907 714C909.987 709.829 916.993 702.627 916.342 697.109C915.633 691.097 894.708 684.434 889.39 686.643C885.727 688.164 882 698.439 880.181 702.015C875.216 711.778 856.678 732.69 876.3 740.673C879.15 741.832 881.351 739.134 884 738.64C889.203 737.67 894.449 736.363 899.714 735.383C908.581 733.734 923.728 736.562 932 740z"/>
</svg>
