<?xml version="1.0" standalone="yes"?>
<svg xmlns="http://www.w3.org/2000/svg" width="1450" height="1164">
<path style="fill:#010101; stroke:none;" d="M0 0L0 1164L1450 1164L1450 0L0 0z"/>
<path style="fill:#ffffff; stroke:none;" d="M1376 540C1383.5 544.593 1390.15 546.817 1399 547L1400.87 526L1399 513C1388.94 508.79 1380.77 498.706 1369 501.928C1364.47 503.169 1361.24 506.397 1357 508.161C1353.52 509.607 1349.4 509.207 1346.3 511.589C1339.22 517.038 1339.09 526.382 1330 530.069C1319.08 534.499 1314.66 527.113 1305 527.117C1296.85 527.121 1294.55 537.547 1296.57 543.895C1299.56 553.279 1313.25 548.332 1320 549.468C1339.08 552.682 1365.27 564.394 1376 540z"/>
</svg>
