<?xml version="1.0" standalone="yes"?>
<svg xmlns="http://www.w3.org/2000/svg" width="1450" height="1164">
<path style="fill:#010101; stroke:none;" d="M0 0L0 1164L1450 1164L1450 0L0 0z"/>
<path style="fill:#ffffff; stroke:none;" d="M851 370C851 377.647 850.591 384.859 847.572 392C845.779 396.24 840.967 402.213 841.941 407C842.938 411.905 847.931 416.667 850.38 421C852.824 425.323 852.134 429.604 853.854 434C857.068 442.214 864.715 452.968 863 462C870.061 465.482 872.97 466.47 873 475C877.141 472.808 880.867 473.66 885 472.131C888.924 470.679 891.723 466.962 896 466.322C907.463 464.606 928.018 468.025 922 449L940 451C944.826 440.605 938.953 421.386 925 421.538C919.694 421.595 909.876 428.442 905.279 425.983C902.541 424.519 902.163 420.536 900.951 418C898.403 412.665 885.591 402.026 892 397L893 382L872 377.002L851 370z"/>
</svg>
