<?xml version="1.0" standalone="yes"?>
<svg xmlns="http://www.w3.org/2000/svg" width="1151" height="1450">
<path style="fill:#010101; stroke:none;" d="M0 0L0 1450L1151 1450L1151 0L0 0z"/>
<path style="fill:#ffffff; stroke:none;" d="M1049 796C1047.2 800.334 1045.52 808.107 1042.27 811.411C1037.61 816.161 1026.93 817.099 1021.05 820.442C1016.47 823.05 1009.49 834.865 1008 840L1013 849C1006.93 849.286 990.919 844.048 987.352 838.867C983.573 833.377 981.922 822.909 976.363 819.028C971.066 815.33 962.746 820.04 957 819.446C952.039 818.933 935.645 810.888 934.466 821.053C933.987 825.184 940.449 827.088 942.812 829.468C945.347 832.021 949.66 841.43 950.128 844.996C950.755 849.776 943.889 855.496 942 860L933 855C930.291 862.151 937.385 864.564 937.434 871C937.461 874.525 934.482 877.64 933.677 881C932.328 886.627 932.326 902.209 935.564 907C941.492 915.772 958.651 917.352 959 928C951.658 928.933 940.69 931.546 947 941L948 941L954 938L953 949L944 948C944 956.903 942.118 965.492 953 967C953.909 979.036 952.473 990.813 955.708 1003C957.505 1009.77 962.818 1015.24 964.755 1022C966.041 1026.49 964.411 1034.28 963.891 1039C962.091 1055.34 943.773 1072.67 948.043 1090C953.42 1111.82 986.783 1120.55 1001.47 1102.91C1017.1 1084.14 1011.5 1058.06 1014.5 1036C1016.94 1018.14 1028.8 1007.16 1038.03 993C1042.74 985.794 1041.91 975.568 1046.6 969.185C1050.76 963.524 1059.97 961.16 1066 958C1064.13 949.077 1074.44 948.59 1073.72 941.957C1073.06 935.818 1066.87 930.19 1065.38 924C1063.04 914.283 1067.91 906.384 1066.81 897C1065.43 885.142 1059.16 873.236 1060.3 861C1062.32 839.417 1073.86 808.365 1049 796z"/>
</svg>
