<?xml version="1.0" standalone="yes"?>
<svg xmlns="http://www.w3.org/2000/svg" width="1151" height="1450">
<path style="fill:#010101; stroke:none;" d="M0 0L0 1450L1151 1450L1151 0L0 0z"/>
<path style="fill:#ffffff; stroke:none;" d="M620 494C613.159 513.207 640.661 530.685 646.33 547C649.125 555.043 638.902 566.353 642.212 574.999C644.611 581.265 650.94 581.358 655.786 584.303C658.908 586.2 659.537 590.037 662.275 592.298C666.14 595.49 672.048 595.377 675.411 599.39C678.395 602.951 677.906 608.82 679.799 613C682.429 618.805 687.26 623.281 689.86 629C691.88 633.442 690.602 638.529 692.849 642.999C699.42 656.074 715.753 656.519 728 653.884C732.77 652.858 738.525 653.13 742.981 651.066C757.199 644.478 741.013 631.758 742.423 623.043C743.096 618.881 748.158 617.366 750.895 614.787C755.231 610.703 759.11 603.355 761.698 598C765.387 590.365 758.923 583.564 758.39 576C757.987 570.276 761.471 566.073 763.34 561C765.997 553.791 765.806 549.045 775 551L777 546C769.492 540.422 772.34 538.094 777 532C768.087 529.18 757.515 528.988 749 525.181C737.769 520.16 721.579 503.216 714.97 492.996C710.355 485.86 710.509 476.571 706.124 469C701.857 461.631 694.365 457.496 689.938 450.791C687.485 447.075 688.96 442.175 685.682 438.903C679.543 432.774 668.58 432.155 661 428.177C654.281 424.65 649.169 418.77 643 414.44C635.968 409.504 627.912 406.196 621.044 400.96C611.671 393.814 616.758 379.842 604 375.479C588.936 370.328 563.751 386.4 555.768 397.985C553.682 401.011 547.817 404.114 547.955 408.043C548.349 419.238 561.136 424.801 565.987 433.17C568.752 437.94 567.583 444.063 570.367 449C573.892 455.253 579.756 459.45 584.101 465.015C590.047 472.63 594.756 483.037 603.039 488.38C608.343 491.802 614.216 491.892 620 494z"/>
</svg>
