<?xml version="1.0" standalone="yes"?>
<svg xmlns="http://www.w3.org/2000/svg" width="1151" height="1450">
<path style="fill:#010101; stroke:none;" d="M0 0L0 1450L1151 1450L1151 0L0 0z"/>
<path style="fill:#ffffff; stroke:none;" d="M483 1304L479.667 1317.77L471 1327L475 1329C470.777 1330.76 462.549 1332.63 459.758 1336.3C454.959 1342.62 461.922 1348.53 452 1353L450 1346C442.059 1347.73 445 1360.56 445 1367C436.799 1368.33 429.93 1382.05 437 1388C441.615 1380.2 447.8 1381.15 454.536 1376.98C459.281 1374.03 461.267 1368.32 468 1370.59C473.859 1372.57 478.431 1381.38 485 1380.88C499.776 1379.76 516.033 1363.22 529 1356.75C533.653 1354.43 541.914 1352.58 544.567 1347.79C549.235 1339.36 545.723 1327.26 545.956 1318C546.037 1314.77 545.391 1310.22 541.039 1310.88C533.44 1312.03 538.942 1327.02 529.956 1328.57C526.019 1329.25 521.971 1325.6 518 1325.2C504.887 1323.87 489.781 1326.74 497 1308L483 1304z"/>
</svg>
