<?xml version="1.0" standalone="yes"?>
<svg xmlns="http://www.w3.org/2000/svg" width="1151" height="1450">
<path style="fill:#010101; stroke:none;" d="M0 0L0 1450L1151 1450L1151 0L0 0z"/>
<path style="fill:#ffffff; stroke:none;" d="M559 1126C557.369 1130.48 558.368 1138.16 555.397 1141.68C551.758 1146 544.721 1142.85 540.043 1144.74C535.789 1146.46 531.557 1152.59 528.317 1155.86C524.413 1159.8 526.449 1166.32 522.362 1170.57C517.108 1176.03 505.109 1180.36 501.603 1187.43C499.137 1192.4 501.836 1198.68 498.146 1203.62C494.652 1208.3 486.717 1208.7 484.028 1213.16C480.769 1218.57 486.111 1223.66 486.002 1228.96C485.871 1235.32 477.205 1242.73 476.336 1249.96C475.779 1254.6 481.725 1256.34 481.067 1261C480.157 1267.46 472.74 1272.2 471.395 1279C470.126 1285.42 475.827 1286.74 477.338 1292.01C479.546 1299.72 467.786 1304.7 462 1305L462 1309C452.654 1310.46 454.051 1315.43 449.412 1321.71C445.914 1326.45 440.183 1329.87 438.742 1336C436.759 1344.44 443.492 1347.59 450 1344L453 1352C461.024 1347.54 455.158 1342.17 459.052 1336.23C461.679 1332.22 468.944 1331.31 473 1329L470 1327L478.817 1317.7L482 1303L498 1307C497.109 1309.31 496.106 1311.61 495.444 1314C491.539 1328.09 510.613 1323.37 518 1324.37C522.073 1324.92 526.771 1329.56 530.867 1327.71C537.989 1324.51 533.06 1313.31 540.058 1310.67C544.639 1308.94 546.943 1313.1 546.941 1317C546.936 1327.96 546.865 1338.13 546 1349C559.138 1343.9 581.818 1339.77 590.363 1328C596.915 1318.97 596.701 1308.01 600.615 1298C602.763 1292.5 608.329 1286.68 609.187 1281C610.008 1275.56 606.019 1270.03 604.634 1265C602.711 1258.01 605.157 1246.26 609.139 1240.22C613.32 1233.89 624.674 1233.75 630.961 1230.44C636.839 1227.35 641.499 1220.96 647 1217L655.302 1230.4L667.61 1231.77L676 1248C689.721 1242.28 691.554 1222.93 689.772 1209C689.277 1205.13 686.548 1201.91 686.317 1198C686.015 1192.89 689.497 1188.15 689.49 1183C689.481 1176.34 686.001 1170.04 686 1163C681.52 1164.88 681.055 1167.37 681 1172L676 1172C675.411 1164.88 670.911 1158.01 663 1161C663.682 1163.34 666.017 1166.94 665.323 1169.38C663.903 1174.36 651.707 1179.11 647.043 1177.51C642.485 1175.95 640.264 1169.6 636 1167C632.532 1170.93 629.832 1172.02 626 1168L610 1177C609.494 1170.59 610.355 1160.76 606.86 1155.19C600.67 1145.33 579.378 1147.13 571 1152C569.08 1144.98 564.887 1130.02 559 1126z"/>
</svg>
