<?xml version="1.0" standalone="yes"?>
<svg xmlns="http://www.w3.org/2000/svg" width="1151" height="1450">
<path style="fill:#010101; stroke:none;" d="M0 0L0 1450L1151 1450L1151 0L0 0z"/>
<path style="fill:#ffffff; stroke:none;" d="M491 601C497.498 601 506.019 599.963 512 603.024C517.669 605.925 521.27 611.916 527 614.951C534.473 618.908 543.322 620.431 551 624.27C558.534 628.038 564.4 634.161 572 637.691C581.251 641.986 590.763 642.596 600 646.143C607.525 649.034 612.392 653.999 620.957 654.513C625.118 654.763 626.989 650.022 631.015 650.711C634.924 651.38 638.11 654.94 642 656.061C647.773 657.725 654.096 657.331 660 658.324C670.446 660.081 679.489 659.353 690 660.089C701.794 660.916 710.525 664.408 721 657L721 656C709.742 657.392 696.113 652.232 691.394 641C689.636 636.814 690.724 632.099 688.86 628C686.26 622.281 681.429 617.805 678.799 612C677.047 608.131 677.504 602.006 674.411 598.969C671.132 595.749 665.847 595.71 662.225 593.005C659.389 590.889 658.736 587.098 655.775 585.139C650.791 581.841 644.832 581.171 641.928 575C637.628 565.859 649.176 554.305 645.5 546C638.388 529.93 614.31 513.236 619 494C599.813 489.42 595.058 478.715 583.101 464.089C578.63 458.621 572.894 454.258 569.367 448C566.633 443.151 567.786 437.06 564.987 432.424C559.577 423.464 551.467 416.367 546 407C515.234 415.863 537.425 451.838 528.736 473.957C524.169 485.584 503.415 484.896 497.175 494.303C489.774 505.461 481.102 520.946 480.213 535C479.618 544.398 483.457 554.023 485.471 563C488.25 575.384 488.675 588.476 491 601z"/>
</svg>
