<?xml version="1.0" standalone="yes"?>
<svg xmlns="http://www.w3.org/2000/svg" width="1151" height="1450">
<path style="fill:#010101; stroke:none;" d="M0 0L0 1450L1151 1450L1151 0L0 0z"/>
<path style="fill:#ffffff; stroke:none;" d="M250 683C251.187 689.395 254.863 706.366 252.096 711.999C249.859 716.556 244.759 718.911 241.39 722.464C237.955 726.086 237.754 730.909 235.146 734.911C230.871 741.47 222.891 745.588 221.43 754C219.994 762.269 226.08 770.76 230.626 777C233.021 780.287 236.752 784.597 234.099 788.787C229.906 795.409 217.451 799.081 211.039 803.44C207.571 805.798 205.425 809.963 201.826 811.972C198.096 814.054 189.507 811.4 188.377 817.214C187.399 822.245 194.228 827.601 196.12 832L205.633 854C206.856 856.863 206.4 860.976 208.603 863.298C215.975 871.066 231.203 870.454 238.348 879.213C244.862 887.199 247.425 899.022 252.443 907.996C254.856 912.311 260.389 915.364 261.686 920.04C263.948 928.196 262.596 942.243 267.804 948.791C274.519 957.234 285.377 972.501 296 976.052C305.006 979.064 314.379 972.047 322.715 980.144C336.901 993.924 343.531 1016.21 364 1023L365 1022C363.327 1013.87 363.84 992.529 373.213 988.201C376.812 986.54 381.726 989.664 385 991C389.245 985.849 393.311 986.934 399 984.648C405.29 982.12 411.92 976.571 419 976.84C427.624 977.169 432.05 984.421 439 988.2C445.311 991.632 454.865 992.582 462 993.496C471.911 994.766 481.744 987.718 491.91 992.514C500.792 996.704 506.936 1013.31 518 1013.78C531.881 1014.37 528.117 998.462 526 991L542 980L551 986C554.628 977.568 554.819 970.816 553 962C561.136 963.579 574.389 968.557 581.066 960.486C584.12 956.794 582.044 950.979 584.831 947.564C589.411 941.953 596.62 942.106 595.433 932C594.495 924.02 585.364 919.689 583.826 912C582.796 906.853 592.88 892.888 588.577 889.828C586.093 888.062 582.458 890.996 580 891.582C573.822 893.055 566.436 890.384 563.009 884.957C560.471 880.937 561.623 876.272 560.005 872C558.699 868.551 554.77 864.972 555.428 861.044C556.599 854.06 573.308 853.158 560.671 844.009C555.611 840.345 547.823 841.435 542 839.84C538.334 838.837 534.793 836.125 531.039 835.704C526.317 835.175 524.074 840.168 519.105 836.986C509.574 830.883 509.303 812.522 498.957 807.993C489.368 803.796 475.543 811.854 468.394 804.61C460.024 796.128 470.286 787.808 470.778 779C471.154 772.275 460.956 767.456 457.984 762C454.686 755.945 460.485 749.686 452.956 745.076C447.178 741.538 439.347 748.611 433 748.656C420.311 748.746 405.54 742.805 394 738C391.33 741.479 385.09 745.796 386.337 750.79C387.459 755.284 393.553 754.568 396.296 757.513C402.049 763.687 394.323 772.545 389.714 776.721C379.228 786.221 366.559 774.044 358.91 767.329C354.206 763.199 348.949 764.346 344 761.436C335.324 756.336 328.506 747.335 321 740.714C308.675 729.844 304.6 717.294 304.6 701C304.6 695.497 308.238 689.386 305.846 684.015C302.81 677.201 295.484 676.42 289 675.911C275.439 674.846 263.331 678.784 250 683z"/>
</svg>
