<?xml version="1.0" standalone="yes"?>
<svg xmlns="http://www.w3.org/2000/svg" width="1151" height="1450">
<path style="fill:#010101; stroke:none;" d="M0 0L0 1450L1151 1450L1151 0L0 0z"/>
<path style="fill:#ffffff; stroke:none;" d="M683 984C676.865 995.643 673.951 1001.83 664 1011.09C661.628 1013.3 658.176 1018.43 654.576 1018.4C647.561 1018.35 640.897 1011.18 633 1011L630 1036L636 1034L637.318 1055.72L646.502 1065.02L642 1088L651 1091L654 1085C659.23 1087.03 663.718 1089.1 666.867 1094C668.542 1096.61 669.044 1101.08 671.563 1102.98C676.954 1107.03 691.996 1106.89 698 1105L700 1109L708.722 1099.98L712.083 1080L718.301 1068L725.26 1038.02L738.319 1027.61L746 1010L725.61 995.599L708.576 992.54L683 984z"/>
</svg>
