<?xml version="1.0" standalone="yes"?>
<svg xmlns="http://www.w3.org/2000/svg" width="1151" height="1450">
<path style="fill:#010101; stroke:none;" d="M0 0L0 1450L1151 1450L1151 0L0 0z"/>
<path style="fill:#ffffff; stroke:none;" d="M904 365C898.172 375.891 892.871 376.658 882 378.507C878.828 379.046 876.364 381.252 873 380.412C866.671 378.831 862.066 373.006 856 370.858C848.551 368.22 839.101 374.155 834.005 379.043C827.289 385.484 827.832 394.432 820.982 400.409C814.378 406.171 798.946 408.658 795.028 416.044C789.344 426.759 807.622 428.027 805.798 437.003C804.824 441.794 799.494 443.764 796.938 447.464C794.664 450.757 795.42 455.554 792.347 458.397C789.619 460.922 785.493 459.725 783.303 463.228C778.805 470.424 782.993 478.575 781.468 486C779.138 497.343 758.285 503.396 749.105 497.86C741.755 493.428 741.696 483.071 739.007 476C734.614 464.45 726.945 454.679 721 444L695 454C700.221 461.441 706.41 467.545 710.204 476C712.809 481.804 712.374 488.58 715.97 493.961C731.146 516.669 752.766 527.667 779 531L771 538L778 546L775 552C783.341 557.218 786.181 564.853 792.61 571.61C796.863 576.08 803.021 574.714 807.582 577.988C812.167 581.281 813.995 587.808 819 591.362C824.884 595.54 834.383 592.605 837.382 585.621C838.754 582.425 837.071 577.429 837 574C848.914 573.06 869.07 578.027 879 572L876 556C893.049 556.141 903.81 564.131 919 570.01C925.151 572.391 931.781 572.466 938 575C953.274 553.759 976.434 540.982 982 514L999 528L1017 497C1020.92 496.691 1025.08 495.31 1029 495.677C1031.52 495.912 1033.77 497.146 1036 498.248C1050.27 505.294 1042.73 513.21 1042.21 526C1041.98 531.633 1044.62 540.607 1046.47 546C1049.51 554.819 1063.81 576.014 1075 571.184C1089.58 564.888 1080.75 541.47 1082.29 529C1084.79 508.637 1072.08 496.443 1069.3 477C1068.16 468.984 1071.52 460.963 1071.74 453C1072.07 441.364 1070.91 426.377 1068.35 415C1064.72 398.827 1059.04 371.953 1080 365C1077.01 357.937 1064.14 349.893 1056 352.353C1051.42 353.737 1048.28 359.252 1043 358.461C1037.62 357.656 1032.34 352.801 1027 351.093C1018.17 348.272 1010.69 350.992 1002 350.335C995.045 349.809 990.266 346.288 983 348.155C978.655 349.272 973.035 350.134 969.76 353.419C966.292 356.898 963.625 364.028 958.424 365.335C953.91 366.469 949.402 361.054 944.438 363.603C941.278 365.226 942.893 370.17 941.991 373C940.281 378.36 932.873 388.765 926.999 389.731C911.488 392.281 911.969 371.672 904 365z"/>
</svg>
