<?xml version="1.0" standalone="yes"?>
<svg xmlns="http://www.w3.org/2000/svg" width="1151" height="1450">
<path style="fill:#010101; stroke:none;" d="M0 0L0 1450L1151 1450L1151 0L0 0z"/>
<path style="fill:#ffffff; stroke:none;" d="M605 990L613.478 1012L614 1026C605.347 1029.6 599.389 1033.02 603 1043C597.368 1044.36 592.48 1047.41 593.232 1054C593.796 1058.95 597.731 1063 598.012 1068C598.338 1073.81 592.642 1093.85 589.062 1098.58C586.561 1101.88 581.562 1102.01 578.143 1103.92C569.94 1108.48 561.935 1116.75 560 1126L571 1150C581.818 1148.08 600.732 1143.59 607.86 1156.04C611.159 1161.8 609.819 1169.64 611 1176L625 1167L626 1167L628 1171L636 1166L637 1166C639.375 1168.91 642.828 1175.45 646.153 1176.98C650.357 1178.91 661.868 1174.37 664.292 1170.68C666.28 1167.65 660.206 1159.73 666.597 1159.2C674.007 1158.58 674.665 1169.44 680 1171C680.64 1162.58 689.986 1160.28 693.528 1153C695.737 1148.46 692.558 1143.75 693.239 1139C694.739 1128.54 701.98 1116.82 697 1106C691.513 1107.62 675.145 1107.74 670.728 1103.4C663.601 1096.39 665.804 1089.23 654 1086L651 1092L641 1089C642.99 1081.94 647.653 1071.36 645.427 1064.05C643.99 1059.34 638.636 1059.72 636.434 1055.78C633.351 1050.26 635 1041.11 635 1035L629 1038C630.695 1029.79 636.013 1014.02 630.258 1006.47C626.764 1001.88 620.463 1000.95 616.213 997.363C611.702 993.554 611.906 988.546 605 990z"/>
</svg>
