<?xml version="1.0" standalone="yes"?>
<svg xmlns="http://www.w3.org/2000/svg" width="1151" height="1450">
<path style="fill:#010101; stroke:none;" d="M0 0L0 1450L1151 1450L1151 0L0 0z"/>
<path style="fill:#ffffff; stroke:none;" d="M1000 530L983 515C975.982 533.741 963.869 552.759 947.039 565.089C943.955 567.349 940.457 574.204 936.536 574.446C915.887 575.722 898.528 557.178 877 557C877.003 560.921 879.616 568.518 878.007 571.811C875.903 576.115 870.867 575.409 867 575.074C857.27 574.233 847.703 573.199 838 575C838.517 600.052 865.438 587.443 878.461 601.563C883.522 607.05 874.355 623.644 877.428 631C879.557 636.094 883.433 643.79 888.3 646.697C896.108 651.361 907.069 649.692 914.775 655.086C919.387 658.313 918.482 669.538 925.105 669.718C929.725 669.844 933.303 665.347 937 663.224C942.25 660.209 949.123 659.213 955 658C956.681 664.144 960.573 669.081 962.529 675C967.441 689.864 968.086 715.911 988 720.063C996.484 721.832 1007.18 714.51 1016 717.06C1023.85 719.329 1025.17 727.27 1034 728C1036.14 716.413 1031.45 702.901 1044.19 694.988C1057.31 686.833 1078.45 689.653 1093 683.427C1101.45 679.81 1109.43 674.53 1108.79 664C1107.43 641.893 1089.36 637.595 1078.99 621C1070.25 607.004 1077.08 589.851 1070.12 575.21C1068.23 571.22 1063.29 569.903 1060.38 566.79C1055.56 561.633 1048.6 552.436 1045.84 546C1043.29 540.034 1040.81 529.346 1041.76 523C1042.58 517.526 1047.11 508.311 1043.26 503.39C1038.64 497.489 1024.94 493.341 1018.7 498.858C1015.14 502.005 1014.23 508.141 1011.36 511.961C1006.19 518.852 1001.24 520.763 1000 530z"/>
</svg>
