<?xml version="1.0" standalone="yes"?>
<svg xmlns="http://www.w3.org/2000/svg" width="1151" height="1450">
<path style="fill:#010101; stroke:none;" d="M0 0L0 1450L1151 1450L1151 0L0 0z"/>
<path style="fill:#ffffff; stroke:none;" d="M816 724C811.808 728.421 808.546 741.109 802.895 742.682C784.488 747.807 773.749 722.295 754.001 735.699C738.422 746.273 761.982 768.647 740 773L743.343 798L758 823L774 820C775.652 830.303 782.137 822.678 786.362 828.272C792.609 836.543 789.884 851.474 801.171 856.883C808.682 860.482 818.583 852.246 826 851.817C831.063 851.524 833.869 856.909 838 859L838.817 832.419L826 823L854.721 823.529L863 810C867.471 819.621 868.634 830.434 881 831C879.072 823.935 879.567 811.781 875.991 806.019C872.305 800.081 865.501 800.236 862 806C857.839 801.503 852.624 791.441 853.407 785C854.08 779.468 858.331 774.909 858.595 769C858.827 763.808 854.552 753.841 852.146 749.152C850.395 745.74 847.196 747.349 844.637 745.308C841.049 742.445 840.768 737.09 836.787 734.363C830.019 729.728 822.749 729.356 816 724z"/>
</svg>
