<?xml version="1.0" standalone="yes"?>
<svg xmlns="http://www.w3.org/2000/svg" width="1151" height="1450">
<path style="fill:#010101; stroke:none;" d="M0 0L0 1450L1151 1450L1151 0L0 0z"/>
<path style="fill:#ffffff; stroke:none;" d="M583 957C580.409 969.435 562.506 964.651 554 963L552 987L542 981L527 991L528.922 1005.99L519.033 1017.09L519.617 1035.91L524.74 1045L540.699 1075.62L553.1 1087L564 1108L565 1108C571.253 1103.51 585.528 1104.53 589.121 1096.87C592.24 1090.21 597.009 1076.2 597.411 1069C598.105 1056.59 585.696 1050.13 602 1042C598.878 1032.9 605.274 1029.23 613 1026L613.154 1013L604 989L610 988L595 959L589 963L583 957z"/>
</svg>
