<?xml version="1.0" standalone="yes"?>
<svg xmlns="http://www.w3.org/2000/svg" width="1151" height="1450">
<path style="fill:#010101; stroke:none;" d="M0 0L0 1450L1151 1450L1151 0L0 0z"/>
<path style="fill:#ffffff; stroke:none;" d="M365 228C368.251 247.716 348.46 254.406 333 254.348C328.74 254.332 324.196 251.505 320.004 253.029C312.157 255.879 313.001 265.581 306.892 270.034C299.923 275.114 288.649 272.997 282.76 278.514C277.764 283.194 275.968 291.264 269.907 294.86C261.205 300.023 249.542 296.482 241 301.499C234.781 305.151 229.362 314.618 222 315.832C217.07 316.644 212.487 310.735 208 309.253C202.675 307.495 188.943 311.08 184.059 313.988C176.527 318.473 181.353 328.744 177.397 335C171.913 343.673 161.017 346.018 154.703 353.518C149.7 359.46 151.062 368.936 145.468 374.812C139.711 380.86 127.001 373.422 119.043 378.62C108.829 385.292 110.163 399.908 103.2 408.895C98.1569 415.403 87.6382 415.507 83.1397 422.329C80.0096 427.075 83.3737 433.461 80.3573 437.671C77.4749 441.693 71.8955 441.19 68.6528 444.513C62.5653 450.751 64.5236 465.036 60.7492 473C59.5067 475.622 58.2937 478.882 60.0285 481.606C62.6979 485.799 69.0324 485.264 72.8156 487.853C82.7978 494.686 89.8407 502.407 102 506.283C106.566 507.739 115.916 512.464 114.252 518.787C113.449 521.842 109.072 523.447 107.363 526.105C104.813 530.072 104.583 535.159 101.57 538.829C97.5334 543.747 91.5278 546.491 88.0324 552.001C84.3396 557.822 87.8218 565.263 83.3472 570.787C79.7541 575.223 73.4608 576.048 69.213 579.637C65.5091 582.767 63.1298 588.575 61.3519 593C58.3322 600.515 61.9672 616.706 67.5718 622.581C70.3185 625.46 75.6894 625.364 77.3966 629.225C79.7972 634.654 75.483 639.937 74.3904 645C73.335 649.891 74.3576 655.05 73.5602 660C70.4834 679.102 50.1307 687.998 43.4074 705C41.3752 710.139 44.19 718.107 42.9961 724C40.6747 735.458 34.325 746.385 33.3287 758C32.3851 769.001 35 781.686 35 793C40.7521 794.084 48.0921 794.396 52.581 798.638C57.8068 803.577 57.1461 808.675 65 811.452C74.6366 814.86 85.4084 813.385 95 816.499C101.521 818.617 105.083 825.123 112 826.825C118.722 828.479 122.7 822.926 129 822.908C135.171 822.891 139.951 828.349 146 828.613C152.846 828.913 158.527 823.515 165 822.137C170.739 820.914 176.091 823.929 181.981 821.941C186.908 820.279 187.347 814.985 192.019 813.009C195.353 811.599 199.434 812.847 202.536 810.972C208.953 807.095 214.225 800.99 221 797.011C224.788 794.786 231.376 792.558 233.667 788.61C236.226 784.201 232.089 779.38 229.626 776C225.014 769.673 218.02 760.294 221.382 752C224.096 745.305 230.209 741.434 234.146 735.714C236.846 731.792 237.129 726.897 240.39 723.174C243.774 719.311 249.818 716.977 251.799 711.996C253.932 706.632 250.512 687.22 248 682C264.83 679.862 285.968 666.706 301.826 678.699C309.993 684.875 305.964 691.716 305.39 700C304.843 707.918 306.715 720.656 309.854 728C314.397 738.628 333.083 754.606 343 760.436C346.746 762.638 351.209 761.838 355 764.148C360.632 767.581 363.808 773.311 370.001 775.985C380.074 780.334 401.601 777.75 397.387 761.044C395.827 754.858 386.125 756.398 385.466 749.961C385.073 746.118 390.308 741.56 393.116 739.516C396.567 737.004 401.549 741.12 405 742.251C412.774 744.798 426.939 748.649 435 747.685C439.858 747.104 446.303 742.312 450.999 743.824C461.955 747.352 454.948 758.169 460.345 765C463.273 768.706 471.135 773.422 471.492 778.424C472.094 786.839 462.077 793.673 467.457 802.787C472.056 810.579 479.448 805.387 486 805.044C491.583 804.751 496.704 806.497 502 808C504.543 803.642 506.331 797.956 511.043 795.457C514.762 793.484 520.246 795.081 523.397 792.142C527.278 788.523 526.319 783.304 532.001 780.299C537.589 777.345 551.327 775.42 554.196 769.867C557.017 764.405 554.611 758.669 554.075 753C553.496 746.876 553.558 739.734 551.147 734C549.353 729.735 545.204 726.615 544.179 722C543.33 718.176 544.973 714.009 544.42 710C543.365 702.36 541.167 694.111 546.086 687.163C548.946 683.122 557.473 684.431 561.961 681.647C566.111 679.073 569.113 671.872 574.036 671.086C579.512 670.213 583.975 679.682 590 681L591 678C595.131 680.84 595.941 683.062 596 688L609 687L608.607 671.015L623 656L600 646.799L571 637.726L552 625.27L529 616.446L513 604.024L490 602C488.963 588.864 487.344 574.801 484.471 562C482.352 552.554 477.795 541.834 479.892 532C482.361 520.422 487.142 513.827 492.991 504C495.178 500.324 494.738 495.453 498.228 492.564C506.007 486.126 521.12 484.639 527.062 475.787C536.01 462.455 527.412 439.584 528.019 425C528.26 419.234 533.352 416.229 534.021 411C534.441 407.714 531.825 404.174 531.123 401C529.963 395.749 531.365 388.763 528.972 384.001C525.35 376.792 515.778 372.286 510 366.911C503.241 360.623 501.22 354.65 496.698 347.213C494.803 344.098 489.181 342.816 488.631 338.971C487.896 333.827 498.342 328.8 498.787 322C499.204 315.627 501.802 305.931 501.177 300C500.676 295.233 496.383 290.99 497.361 286.015C499.165 276.836 509.633 269.361 511.444 259C513.491 247.283 510.821 234.198 515.032 223.001C520.974 207.201 544.812 218.319 555.985 211.185C562.732 206.877 561.863 201.049 565.853 195.209C568.65 191.116 572.861 188.384 575.536 184C581.366 174.445 583.011 163.612 586 153C571.335 152.998 557.368 145.348 543 147.29C531.749 148.811 529.863 156.883 522.621 163.57C519.218 166.713 511.389 169.565 507 171.154C503.003 172.6 499.07 170.723 495 171.148C491.363 171.528 488.515 173.948 485 174.737C478.427 176.213 471.55 175.667 465.001 177.305C459.185 178.759 456.74 184.844 450.999 186.237C446.105 187.424 441.845 184.632 437 186.919C431.946 189.305 422.376 192.74 419.14 197.39C416.125 201.722 417.296 208.61 413.298 212.397C409.887 215.627 402.375 213.7 398 215.093C386.003 218.913 378.083 226.338 365 228z"/>
<path style="fill:#010101; stroke:none;" d="M196 660L200 664L207 661L220 639C202.971 636.707 194.221 627.583 179.91 620.314C176.059 618.358 172.045 619.634 168 619.911C159.611 620.484 129.6 616.653 136.693 634.582C139.936 642.779 150.142 640.117 156 641.167C160.094 641.902 163.664 644.612 168 644.309C172.39 644.003 174.741 641.333 179.074 643.793C182.853 645.939 185.719 649.439 184.401 654C183.728 656.331 180.53 659.695 182.801 662.012C186.775 666.066 192.625 662.606 196 660z"/>
</svg>
