<?xml version="1.0" standalone="yes"?>
<svg xmlns="http://www.w3.org/2000/svg" width="1151" height="1450">
<path style="fill:#010101; stroke:none;" d="M0 0L0 1450L1151 1450L1151 0L0 0z"/>
<path style="fill:#ffffff; stroke:none;" d="M691 661C698.513 679.044 710.915 694.512 721.193 711C725.233 717.481 730.564 723.438 732.485 731C734.872 740.394 730.259 765.318 740.394 770.882C745.311 773.582 750.081 767.319 750.4 763C751.241 751.603 741.407 745.929 753.001 736.225C754.835 734.689 756.81 733.565 759 732.62C776.568 725.038 787.471 748.639 803.775 741.397C809.311 738.938 815.286 723.201 819.39 718C827.476 707.752 838.717 698.153 845.86 687.621C848.83 683.243 846.66 677.367 849.603 673.104C854.402 666.152 861.913 660.299 863.15 651C863.794 646.159 861.003 640.193 861 635C874.791 632.881 875.544 623.086 877.213 612C877.655 609.062 880.727 604.558 878.214 601.934C870.933 594.328 861.614 595.929 853 593.86C847.95 592.648 843.398 588.293 838 588.434C831.901 588.594 828.33 596.624 822 593.574C815.29 590.341 812.965 583.127 807.505 578.938C802.533 575.123 796.088 576.322 791.61 570.895C786.308 564.471 780.552 550.186 770.058 550.824C765.539 551.099 765.525 556.799 764.34 560C762.192 565.802 758.532 570.438 759.315 577C760.049 583.154 765.471 589.834 763.142 596C760.982 601.719 756.115 609.543 751.895 613.957C749.556 616.403 745.013 618.267 743.607 621.39C740.006 629.392 751.8 636.325 748.848 644.985C745.918 653.584 736.277 653.002 729 654.464C722.489 655.772 718.168 660.959 712 662.57C705.149 664.36 697.776 661.875 691 661z"/>
</svg>
