<?xml version="1.0" standalone="yes"?>
<svg xmlns="http://www.w3.org/2000/svg" width="1151" height="1450">
<path style="fill:#010101; stroke:none;" d="M0 0L0 1450L1151 1450L1151 0L0 0z"/>
<path style="fill:#ffffff; stroke:none;" d="M883 831C887.958 835.467 887.954 847.974 884.973 854C883.196 857.592 879.363 859.903 878.523 864C877.41 869.43 880.083 875.49 879.791 881C879.156 892.975 873.169 904.136 872.188 916C871.422 925.275 875.708 933.698 875 943C861.866 943.882 864.833 932.631 863.076 923C862.451 919.576 860.124 912.2 855.143 914.832C848.968 918.095 852.959 925.985 851.573 931C849.893 937.075 849.193 944.177 847.121 950C846.024 953.083 843.206 955.667 842.892 959C842.597 962.135 844.912 964.857 844.691 968C844.104 976.361 834.64 982.51 848 986C850.868 975.927 858.489 971.282 866 981C875.321 975.096 868.879 966.806 874.086 958.005C878.144 951.144 900.177 946.417 908 947L909 940C925.957 942.154 934.29 942.023 947.39 930.513C949.81 928.386 959.282 928.203 957.338 923.258C956.163 920.271 950.599 919.102 948 917.737C942.415 914.805 935.094 909.254 933.072 903C931.708 898.782 931.863 885.298 933.056 881C934.037 877.464 937.542 873.831 937.01 870C936.503 866.349 928.3 860.078 932.369 856.373C934.794 854.164 939.635 857.98 942 859C943.77 854.979 948.034 851.829 949.307 847.83C950.532 843.983 945.696 833.578 943.362 830.468C940.96 827.268 933.962 826.291 933.466 821.935C932.742 815.574 950.432 812.235 942.243 802.513C937.745 797.173 927.851 799.411 922 799.816C916.71 800.181 911.377 796.814 906.213 799.033C899.925 801.735 904.116 807.103 902.008 811.424C897.935 819.771 886.07 822.895 883 831z"/>
</svg>
