<?xml version="1.0" standalone="yes"?>
<svg xmlns="http://www.w3.org/2000/svg" width="1151" height="1450">
<path style="fill:#010101; stroke:none;" d="M0 0L0 1450L1151 1450L1151 0L0 0z"/>
<path style="fill:#ffffff; stroke:none;" d="M535 410C549.692 407.381 552.268 396.914 562.21 388.638C567.57 384.177 575.779 382.347 582 379.247C588.158 376.178 594.904 372.269 602 374.188C617.022 378.252 611.062 391.994 620.228 399.96C626.378 405.305 634.297 408.242 641 412.749C647.907 417.394 653.454 424 661 427.676C667.702 430.941 675.729 431.903 681.999 435.815C687.966 439.538 687.879 451.247 693.144 452.777C698.737 454.402 714.799 444.983 721 443C726.392 454.398 734.41 464.349 739.586 476C742.44 482.423 741.938 491.157 747.637 496.272C755.641 503.456 773.566 497.405 779.261 489.895C784.546 482.926 777.215 471.361 782.854 463.109C785.313 459.511 789.538 460.191 792.262 457.4C794.617 454.987 794.16 450.961 795.938 448.174C798.41 444.299 803.533 442.582 805.048 437.989C808.154 428.568 789.188 426.927 794.032 417.004C798.32 408.222 812.738 407.141 819.982 401.065C827.974 394.36 828.308 383.58 837 376.213C841.637 372.283 849.802 367.713 856 370.317C861.979 372.829 868.139 380.358 875 380.191C881.653 380.03 893.87 377.708 898.621 372.696C901.681 369.469 902.761 363.45 906.418 361.028C909.937 358.697 915.116 360.868 918.258 357.436C925.755 349.246 914.126 333.323 920.367 323.044C925.449 314.675 938.988 322.662 939.721 311.999C939.984 308.186 939.197 294.473 936.397 291.933C928.919 285.152 916.754 299.942 915 306C902.898 298.979 893.698 307.458 887 291L875 297C877.961 303.872 880.679 307.354 879 315C872.45 313.081 869.792 308.173 863.985 305.328C853.493 300.187 842.539 299.308 833.001 291.532C819.931 280.877 813.265 265.625 805.062 252.043C802.753 248.22 798.367 246.809 795.39 243.671C792.794 240.934 791.823 237.149 789.363 234.329C783.117 227.17 772.447 224.108 765.301 218.436C761.505 215.423 760.218 209.942 755.815 207.652C747.627 203.394 735.874 206.25 729.314 198.811C723.238 191.921 727.032 180.253 725.787 172C725.161 167.853 722.495 164.328 723.664 160C725.694 152.488 732.558 146.264 732.485 138C732.363 124.06 715.61 127.08 710.419 117.995C704.507 107.647 709.671 99.8612 713.401 90.8302C715.213 86.4454 713.818 81.2018 718.228 78.0093C722.418 74.9757 728.3 76.0909 733 74.4507C738.209 72.6328 742.356 67.9016 747 65C736.428 58.5413 720.1 54.1162 708 57.4252C702.028 59.0585 695.8 64.3645 690 65.0225C682.517 65.8712 677.583 57.533 670 58.4691C662.604 59.3822 656.038 64.2942 649 66.3665C645.167 67.495 640.645 67.0126 637.089 69.0131C633.595 70.9791 631.76 74.8148 627.996 76.4861C623.275 78.5822 617.777 78.4102 613 80.5294C604.106 84.4747 598.907 90.5428 591.79 96.3511C588.249 99.2416 584.033 99.6941 581.709 104.044C576.353 114.069 583.376 117.795 584.632 127C587.191 145.764 587.17 164.655 577.124 182C574.181 187.081 569.253 190.548 566.313 195.375C561.435 203.386 561.257 210.332 551 214.184C541.46 217.767 525.511 210.195 517.564 219.303C509.919 228.065 514.199 248.179 512.15 259C510.233 269.122 500.608 276.044 498.322 285.089C496.944 290.541 501.216 294.851 501.706 300C502.09 304.034 499.567 307.98 499.177 312C498.752 316.395 500.321 320.652 499.053 324.996C497.472 330.416 489.611 332.944 488.921 338.046C488.331 342.413 495.721 343.93 497.57 347.213C500.184 351.853 500.581 356.719 504.213 361C511.33 369.388 522.092 374.248 528.682 383.001C533.527 389.435 531.775 402.085 535 410z"/>
</svg>
