<?xml version="1.0" standalone="yes"?>
<svg xmlns="http://www.w3.org/2000/svg" width="1151" height="1450">
<path style="fill:#010101; stroke:none;" d="M0 0L0 1450L1151 1450L1151 0L0 0z"/>
<path style="fill:#ffffff; stroke:none;" d="M206 864C201.86 873.877 188.736 893.385 178.985 898.146C172.714 901.207 161.338 893.779 157.139 900.152C154.25 904.536 152.296 913.022 154.151 918C155.706 922.173 159.425 925.184 158.59 930C155.865 945.729 135.02 957.589 137.148 974C137.733 978.509 141.262 981.859 142.881 986C144.64 990.499 144.389 995.816 146.857 1000C149.39 1004.29 154.005 1007.43 153.435 1013C152.695 1020.24 146.286 1027.27 139 1027.79C135.972 1028 132.072 1026.29 129.318 1028.04C125.75 1030.31 125.831 1040.97 125 1045C129.52 1047.62 135.569 1047.43 139.606 1050.03C143.572 1052.58 143.395 1057.26 149.005 1057.77C157.407 1058.53 161.656 1049.97 169 1049.13C175.63 1048.38 187.353 1062.53 191.536 1067.1C199.639 1075.97 199.75 1084.41 205.225 1094C212.191 1106.2 223.81 1115.92 230.232 1128C234.665 1136.34 236.882 1148.93 239.991 1158C241.698 1162.98 238.143 1166.53 236.61 1171C233.826 1179.11 234.165 1189.47 240.444 1195.85C244.879 1200.36 250.511 1197.7 256 1197.17C264.413 1196.36 271.604 1198.73 280 1197C275.393 1208.23 269.618 1221.94 273 1234C268.089 1236.28 259.359 1236.52 255.518 1239.6C237.611 1253.97 254.52 1273.12 270 1279.07C276.687 1281.64 281.481 1274.27 286.775 1276.46C291.435 1278.39 290.871 1285.34 296.019 1287.75C307.023 1292.9 320.443 1288.93 332 1289.08C342.205 1289.22 346.604 1294.46 357 1289C356.005 1283.87 355.182 1278.64 352.648 1274C351.382 1271.68 348.012 1268.46 348.691 1265.59C350.538 1257.79 361.883 1250.48 366.062 1243.83C369.552 1238.28 367.941 1230.77 371.225 1225C373.374 1221.22 382.479 1211.4 375.682 1207.41C371.682 1205.06 362.92 1208.58 358 1208L351.381 1168L348.076 1153L369.397 1134.9L372.529 1125L387 1087C379.758 1081.32 377.512 1071.55 375.373 1063C374.49 1059.47 374.127 1053.49 371.272 1050.94C361.97 1042.61 348.563 1038.59 339.213 1030.39C321.957 1015.26 310.656 996.196 296.363 978.17C287.553 967.059 273.781 959.169 266.148 946.985C261.231 939.136 264.256 927.013 260.397 918.325C258.552 914.169 253.756 911.181 251.443 907C246.641 898.321 244.062 887.224 237.995 879.39C232.094 871.773 215.045 866.469 206 864z"/>
</svg>
