<?xml version="1.0" standalone="yes"?>
<svg xmlns="http://www.w3.org/2000/svg" width="1151" height="1450">
<path style="fill:#010101; stroke:none;" d="M0 0L0 1450L1151 1450L1151 0L0 0z"/>
<path style="fill:#ffffff; stroke:none;" d="M910 941L909 948C901.011 947.062 895.652 951.155 888 952.536C884.099 953.239 879.487 952.263 876.419 955.318C870.006 961.703 874.827 969.406 872.012 975.911C870.99 978.271 868.562 979.653 867.603 982.089C862.227 995.752 865.197 1013.64 863.83 1028C863.023 1036.49 859.508 1045.66 859.444 1054C859.382 1061.93 863.532 1070.1 863.852 1078C864.069 1083.37 860.381 1087.87 859.38 1093C858.541 1097.29 859.815 1101.69 860 1106C870.068 1102.3 879.315 1105.61 889 1109.31C893.305 1110.95 896.659 1116.66 901.895 1114.89C909.485 1112.32 910.366 1098.75 917.015 1093.94C922.351 1090.09 928.721 1089.74 935 1090.75C937.917 1091.22 943.734 1093.2 945.933 1090.26C947.357 1088.35 946.246 1085.21 946.727 1083C948.063 1076.86 950.772 1070.1 952.509 1064C956.456 1050.14 966.499 1038.44 964.408 1023C963.382 1015.42 956.647 1009.3 954.708 1002C953.024 995.657 951.137 985.874 951.317 979.424C951.399 976.486 953.272 974.185 952.409 971.109C951.239 966.939 946.35 967.212 944.318 963.772C941.689 959.323 943 951.975 943 947L952 948L953 939L948 942C939.13 934.499 936.036 942.169 927 943.295C921.608 943.966 915.362 941.681 910 941z"/>
</svg>
