<?xml version="1.0" standalone="yes"?>
<svg xmlns="http://www.w3.org/2000/svg" width="1151" height="1450">
<path style="fill:#010101; stroke:none;" d="M0 0L0 1450L1151 1450L1151 0L0 0z"/>
<path style="fill:#ffffff; stroke:none;" d="M124 1046C115.352 1061.51 101.972 1074.06 92.5594 1089C89.0454 1094.58 88.5477 1101.19 85.7114 1107C83.2855 1111.97 78.7048 1115.4 77.483 1121C74.5049 1134.64 76.8912 1154.88 86.3904 1165.83C91.8718 1172.15 99.6824 1175.98 105.996 1181.32C110.306 1184.97 113.354 1189.83 118.004 1193.1C123.972 1197.28 135.386 1197.12 139.392 1203.06C145.068 1211.47 127.749 1212.12 129.607 1221C131.399 1229.57 141.867 1236.07 146.702 1242.96C149.483 1246.92 148.172 1251.58 150 1256C159.799 1252.24 159.063 1258.58 166.213 1262.68C169.459 1264.54 173.54 1263.73 176.985 1265.03C185.848 1268.39 185.024 1276.69 183 1284L208 1283.8L232 1276.39L257 1273C255.346 1266.95 248.955 1265.56 247.073 1259.96C244.868 1253.41 251.312 1241.17 257.093 1238.03C261.481 1235.64 267.221 1236.4 272 1234C269.513 1221.78 274.361 1209.31 279 1198C271.042 1199.62 245.831 1201.72 240.29 1195.94C233.987 1189.36 232.686 1180.51 235.61 1172C237.262 1167.19 240.893 1163.41 239.347 1158C236.777 1149.01 233.59 1135.2 229.232 1127C223.093 1115.45 212.027 1105.3 204.84 1094C199.265 1085.23 199.482 1076.55 192.116 1068.1C187.915 1063.29 174.901 1048.21 168 1049.78C160.752 1051.44 156.494 1059.96 148.015 1058.48C143.066 1057.61 143.153 1053.4 139.582 1051.03C135.953 1048.62 128.334 1047.25 124 1046z"/>
</svg>
