<?xml version="1.0" standalone="yes"?>
<svg xmlns="http://www.w3.org/2000/svg" width="1151" height="1450">
<path style="fill:#010101; stroke:none;" d="M0 0L0 1450L1151 1450L1151 0L0 0z"/>
<path style="fill:#ffffff; stroke:none;" d="M610 688L595 689C594.959 677.304 589.962 684.596 583.39 679.272C580.118 676.621 578.733 670.178 573.167 671.778C567.77 673.329 564.368 681.059 559 683.721C554.985 685.713 548.309 683.921 546.109 688.149C542.264 695.537 544.271 702.3 545.267 710C545.794 714.07 543.98 718.114 544.742 722C545.732 727.046 550.213 730.402 552.147 735C554.425 740.418 554.49 747.204 555 753C555.534 759.072 557.781 765.139 554.442 770.856C550.516 777.579 535.425 777.264 529.148 782.513C525.529 785.539 527.003 791.082 522.852 793.427C514.871 797.937 504.463 794.762 503.603 808C503.308 812.547 506.821 818.33 509.208 822C512.21 826.614 515.331 835.648 521.029 837.328C524.977 838.492 527.28 834.822 531.015 835.163C534.393 835.471 537.704 837.938 541 838.84C549.015 841.035 558.571 839.291 563.89 847.043C570.736 857.02 557.628 853.809 555.967 861.055C555.01 865.225 559.623 869.351 561.005 873C562.347 876.543 561.513 880.474 563.009 883.957C565.718 890.262 573.871 891.794 580 890.775C583.003 890.277 587.154 886.902 589.639 890.086C592.988 894.379 584.119 905.48 584.387 911C584.812 919.734 595.754 924.308 596.142 933C596.641 944.189 585.145 945.626 584 956L589 961L595 957C597.101 966.074 603.079 972.857 608.277 980.184C611.343 984.506 611.247 990.351 614.353 994.787C619.221 1001.74 633.252 1008.66 641 1011.62C645.041 1013.16 650.658 1018.05 655 1017.75C658.991 1017.47 662.311 1012.59 665 1010.09C674.248 1001.48 678.629 995.35 682 983L708 991.709L725.787 995.026L746 1009C746.143 1002.06 748.934 994.772 748.596 988C748.375 983.574 744.909 978.307 746.928 974C754.463 957.93 777.372 967.225 787 974L788 966C797.57 965.682 793.226 958.705 793.819 952C794.541 943.821 797.813 940.802 795.627 932C793.997 925.441 793.7 918.374 791.452 912C789.537 906.569 786.08 901.816 785.236 896C784.313 889.634 788.428 883.624 787.829 877C786.03 857.084 780.018 838.898 773 821L757 824L741.71 795L741.481 780L733.174 753L730.896 728L703.695 685L690.363 662.603L668 661.1L642 656.751L629.209 651.376L621.957 657.831L609.603 670.089L610 688z"/>
</svg>
