<?xml version="1.0" standalone="yes"?>
<svg xmlns="http://www.w3.org/2000/svg" width="1151" height="1450">
<path style="fill:#010101; stroke:none;" d="M0 0L0 1450L1151 1450L1151 0L0 0z"/>
<path style="fill:#ffffff; stroke:none;" d="M837 961C840.617 979.598 823.109 985.976 808 986C803.942 986.006 797.848 987.097 794.21 984.972C787.082 980.81 786.108 969.601 777 967.318C769.727 965.494 754.406 965.209 749.163 971.059C744.434 976.334 749.101 982.013 749.327 988C749.694 997.732 747.214 1012.15 743.085 1021C739.371 1028.96 730.209 1029.62 726.652 1036.21C721.659 1045.47 722.457 1057.33 719.301 1067C717.695 1071.92 713.297 1075.79 712.483 1081C711.732 1085.8 712.996 1090.14 711.402 1095C708.933 1102.54 702.021 1105.21 699.549 1112C695.268 1123.77 696.763 1138.01 694.972 1150C694.176 1155.33 688.617 1158.67 687.394 1164C685.764 1171.11 690.002 1176.31 690.157 1183C690.38 1192.59 686.019 1197.23 690 1207L691 1207C692.477 1202.47 693.818 1197.7 697.214 1194.19C707.415 1183.62 725.707 1187.13 736.721 1178.18C741.46 1174.33 737.96 1169.71 739.492 1165C741.268 1159.54 749.991 1152.8 755 1150.32C765.469 1145.14 784.373 1162.77 790 1144C799.916 1149.2 805.821 1143.91 816 1143C824.675 1142.23 836.088 1145.59 844 1142.39C851.119 1139.51 862.3 1131.54 862.562 1123C862.801 1115.19 858.546 1105.52 858.213 1097C857.961 1090.57 862.765 1085.38 862.941 1079C863.177 1070.46 858.175 1061.51 858.812 1053C860.127 1035.46 862.846 1017.73 864.089 1000C864.515 993.936 868.128 985.96 864.821 980.185C858.729 969.548 850.048 979.262 849 987C833.581 982.975 845.705 970.996 842 960L837 961z"/>
</svg>
