<?xml version="1.0" standalone="yes"?>
<svg xmlns="http://www.w3.org/2000/svg" width="1151" height="1450">
<path style="fill:#010101; stroke:none;" d="M0 0L0 1450L1151 1450L1151 0L0 0z"/>
<path style="fill:#ffffff; stroke:none;" d="M861 811L855.721 823.333L828 824L839.782 833.108L839 860C834.832 858.016 831.856 852.504 826.996 852.448C818.964 852.356 807.761 862.333 800.171 856.593C792.771 850.996 789.913 841.454 787.622 833.004C786.9 830.341 785.777 826.199 782.103 827.238C772.158 830.05 785.232 852.968 786.247 859C787.419 865.97 789.408 873.92 788.812 881C788.373 886.21 785.033 890.7 785.931 896C788.428 910.734 799.169 925.335 798.118 941C797.874 944.644 795.027 947.402 794.563 951C793.71 957.622 798.51 965.496 789 967L787 974L787 975C788.968 977.92 791.044 982.862 794.379 984.397C810.456 991.795 841.85 982.083 836 961C846.975 956.133 849.264 940.872 851.262 930C852.256 924.589 848.462 917.14 855.734 914.037C858.792 912.732 861.541 916.694 862.684 919.004C864.878 923.441 863.053 945.941 871.737 942.087C878.567 939.056 870.446 919.551 871.889 913C874.152 902.728 877.933 892.53 878.826 882C879.316 876.231 876.304 869.615 877.912 864C880.332 855.55 890.623 844.871 885.396 834.434C883.48 830.608 875.592 831.897 872.188 829.297C866.951 825.296 865.901 816.678 863 811L861 811z"/>
</svg>
