<?xml version="1.0" standalone="yes"?>
<svg xmlns="http://www.w3.org/2000/svg" width="1151" height="1450">
<path style="fill:#010101; stroke:none;" d="M0 0L0 1450L1151 1450L1151 0L0 0z"/>
<path style="fill:#ffffff; stroke:none;" d="M862 636C862.003 640.982 864.6 647.359 863.435 652C861.088 661.352 852.766 666.428 849.603 674.108C847.767 678.568 849.418 683.596 846.272 687.79C840.675 695.254 832.621 704.15 825.986 711C823.078 714.003 817.498 718.243 817.958 722.995C818.736 731.032 831.706 730.265 836.895 733.969C840.465 736.518 841.187 740.572 843.966 743.667C846.057 745.997 849.113 744.812 851.297 746.692C854.852 749.753 857.014 760.504 858.609 765C860.995 771.727 856.342 776.927 854.563 783C852.813 788.974 857.431 801.207 862 805C867.251 798.635 874.066 800.734 877.529 808C880.259 813.73 878.914 822.476 881 829L883 829C888.191 822.945 895.97 820.095 900.578 813C903.508 808.488 899.53 803.7 904.391 799.56C908.579 795.994 913.286 798.275 918 798.815C925.659 799.691 933.818 795.957 940.887 800.854C946.908 805.025 940.968 813.433 948.059 816.438C956.53 820.027 970.055 813.324 976.61 818.603C982.019 822.96 983.541 832.232 987.352 837.891C990.741 842.924 1006.19 848.894 1012 848C1011.71 844.203 1007.98 840.572 1008.68 836.99C1009.33 833.695 1012.3 832.086 1014.08 829.545C1016.36 826.295 1016.47 822.701 1020.11 820.367C1026.12 816.504 1037.38 815.887 1042.07 810.436C1047.17 804.496 1046.5 795.582 1049.2 789C1051.22 784.053 1056.65 781.859 1056.9 776C1057.17 769.905 1056.16 761.216 1052.86 756.015C1050.8 752.774 1046.99 750.583 1045.6 746.961C1043.85 742.402 1046.77 736.371 1042.68 732.699C1038.32 728.776 1031.83 730.124 1027.21 727.062C1022.55 723.974 1021.33 718.4 1015 717.481C1001.04 715.454 991.05 724.594 978.109 715.035C974.637 712.47 973.975 708.531 971.87 705C963.124 690.324 962.091 674.174 954 659C948.123 660.213 941.249 661.209 936 664.224C932.715 666.11 929.143 670.596 925.043 670.404C918.279 670.086 919.014 659.199 914.721 655.843C907.561 650.246 896.767 651.932 889.09 647.697C882.881 644.271 878.882 635.173 876 629L862 636z"/>
</svg>
