<?xml version="1.0" standalone="yes"?>
<svg xmlns="http://www.w3.org/2000/svg" width="1151" height="1450">
<path style="fill:#010101; stroke:none;" d="M0 0L0 1450L1151 1450L1151 0L0 0z"/>
<path style="fill:#ffffff; stroke:none;" d="M298 978C300.219 985.703 304.773 989.867 309.363 996.039C322.279 1013.41 334.479 1026.15 353 1036.93C360.897 1041.53 362.961 1048.56 373 1049C374.499 1060.13 377.5 1080.93 388 1087C383.956 1099.65 379.094 1111.96 373.529 1124C372.044 1127.21 372.342 1131 370.397 1133.98C364.947 1142.34 349.151 1143.27 348.41 1155C348.143 1159.23 350.966 1163 351.957 1167C354.006 1175.28 355.586 1183.76 357.582 1192C358.62 1196.29 356.931 1201.66 359.434 1205.57C363.398 1211.76 378.664 1200.34 378.638 1212.01C378.627 1217.06 373.779 1220.79 371.688 1225C368.916 1230.58 370.253 1237.59 367.062 1242.96C362.696 1250.3 352.057 1256.72 349.457 1265.09C348.285 1268.86 352.61 1272.88 354.168 1276C355.894 1279.45 355.858 1284.41 358.164 1287.44C361.55 1291.88 372.827 1295.77 378 1298C374.668 1309.86 375.397 1324.61 385.465 1333.36C394.064 1340.84 403.416 1340.91 406 1354C408.658 1352.15 411.635 1348.7 415 1348.38C425.15 1347.4 440.468 1356.02 439 1367C445.574 1365.57 444.224 1358.56 443.981 1353C443.695 1346.48 436.149 1343.11 438.179 1336C439.904 1329.96 445.844 1326.63 449.012 1321.58C450.655 1318.95 450.615 1315.69 452.564 1313.19C455.528 1309.38 460.108 1309.16 461 1304C467.51 1303.94 479.81 1300.24 476.392 1291.09C474.959 1287.25 470.375 1285.52 470.361 1281C470.338 1273.32 478.547 1268.81 480.317 1262C481.572 1257.18 476.703 1255.85 475.732 1251.9C474.302 1246.06 481.293 1234.81 486 1232C485.306 1226.87 480.863 1220.03 482.619 1215.01C484.595 1209.36 492.748 1208.97 496.57 1204.57C501.078 1199.38 500 1191.37 500 1185C509.09 1183.75 508 1178.44 514.228 1174.09C517.539 1171.77 521.399 1171.88 523.543 1167.94C525.452 1164.44 523.966 1159.69 526.603 1156.63C529.783 1152.95 536.519 1145.48 541.004 1143.74C544.804 1142.27 552.245 1144.84 554.972 1141.4C557.146 1138.65 555.831 1133.31 556.965 1130C560.533 1119.59 564.927 1114.12 574 1108L574 1106C569.987 1105.31 567.812 1106.06 565 1109L564 1109C559.873 1101.77 557.901 1093.78 552.841 1087.01C549.231 1082.19 543.414 1080.12 539.843 1075.61C534.779 1069.22 529.513 1058.46 526.046 1051C524.134 1046.89 519.854 1040.13 519.063 1035.96C517.908 1029.87 519.507 1022.36 517.308 1016.32C516.217 1013.33 512.346 1011.3 510 1009.39C504.479 1004.87 498.879 996.664 492.7 993.514C482.381 988.253 471.185 995.869 461 994.072C454.192 992.871 446.106 992.52 440 989.2C432.871 985.323 428.623 978.68 420 977.608C411.837 976.593 404.303 983.493 397 986.034C393.735 987.17 386.64 990.347 383.536 990.45C380.151 990.562 376.885 987.378 373.39 988.694C363.866 992.279 364.452 1015.5 366 1023C359.21 1022.91 354.902 1018.05 349.985 1013.92C332.678 999.385 326.351 969.035 298 978M406 1356C409.725 1368.91 421.614 1375.69 432 1383L433 1380C421.475 1376.78 413.245 1364.61 406 1356z"/>
</svg>
