<?xml version="1.0" standalone="yes"?>
<svg xmlns="http://www.w3.org/2000/svg" width="1151" height="1450">
<path style="fill:#010101; stroke:none;" d="M0 0L0 1450L1151 1450L1151 0L0 0z"/>
<path style="fill:#ffffff; stroke:none;" d="M878 314C880.794 307.236 877.556 302.811 874 297L888 290C891.295 305.705 902.48 301.811 915 304C917.643 298.042 928.336 286.535 935.852 291.067C939.973 293.552 941.318 308.518 940.338 312.999C938.053 323.45 926.457 314.818 921.367 322.225C914.26 332.567 922.947 343.14 920.656 353.985C918.802 362.757 909.149 357.323 906.172 362.603C904.736 365.151 908.24 368.799 909.186 371C912.91 379.662 914.297 388.604 925.999 389.186C932.52 389.51 939.824 378.65 941.348 373C942.171 369.95 940.891 365.985 943.473 363.603C948.423 359.039 953.931 366.039 958.996 364.582C964.405 363.026 966.461 355.903 970.326 352.419C973.974 349.13 980.3 347.915 985 346.914C991.3 345.571 995.971 349.337 1002 349.62C1010.05 349.999 1016.79 347.484 1025 349.785C1036.69 353.06 1044.91 363.353 1055.49 351.334C1059.44 346.846 1056.37 342.002 1057.82 337C1059.62 330.75 1067.67 327.166 1066.83 320.039C1066.28 315.278 1061.12 313.112 1061.16 308C1061.21 302.362 1065.62 297.801 1064.46 292C1063.15 285.537 1056.41 279.828 1057.02 273C1057.7 265.301 1067.11 261.623 1068.15 254C1068.59 250.773 1066.53 247.966 1065.63 245.001C1065.02 242.982 1065.09 240.295 1063.4 238.782C1059.76 235.535 1052.18 240.564 1048 240.907C1032.29 242.194 1022.52 245.828 1011.32 231C1006.32 224.379 1009.93 218.166 1009.5 211C1009.15 205.136 1005 200.528 1003.68 195C1002.8 191.329 1004.62 187.591 1002.68 184.105C1000.11 179.493 993.439 177.956 989 175.752C979.639 171.105 969.013 165.167 961.148 158.239C955.249 153.043 958.87 142.639 953.61 136.004C947.275 128.016 938.53 128.84 931.209 123.301C921.808 116.188 913.778 103.429 903 98.4336C896.998 95.6519 891.141 98.8131 885 98.53C877.377 98.1786 870.359 94.0781 863 92.5177C858.741 91.6146 854.195 92.6628 850.015 91.4275C843.008 89.3567 842.151 80.4673 834.985 78.1705C824.326 74.7538 812.348 69.1791 801 69.1791C793.698 69.1791 786.239 73.0182 779 72.3118C769.238 71.3591 759.915 64.9376 750 64.9445C743.7 64.9489 739.17 71.7961 734 74.5679C729.437 77.0144 723.543 75.5852 719.144 78.1782C716.094 79.9763 710.246 94.4707 709.318 98.0393C707.696 104.275 708.08 117.03 713.483 121.397C720.097 126.742 732.678 125.734 733.139 138C733.43 145.76 726.717 151.987 724.65 159C723.128 164.161 726.045 168.08 726.787 173C727.938 180.632 724.643 190.913 728.988 197.811C733.771 205.402 747.588 203.123 754.96 206.652C760.02 209.074 761.095 214.975 765.468 218.062C772.867 223.287 782.022 226.775 788.787 233.329C805.326 249.354 812.847 271.168 829.17 287.91C838.917 297.907 851.237 298.704 862.999 304.328C868.798 307.1 871.641 312.121 878 314z"/>
</svg>
