<?xml version="1.0" standalone="yes"?>
<svg xmlns="http://www.w3.org/2000/svg" width="1450" height="1258">
<path style="fill:#010101; stroke:none;" d="M0 0L0 1258L1450 1258L1450 0L0 0z"/>
<path style="fill:#ffffff; stroke:none;" d="M862 264C854.837 266.88 853.303 274.192 851 281L863 283C863 294.047 863.999 304.999 864 316C864 322.983 863.123 332.475 865.938 339C870.428 349.405 882.636 356.014 893 359C898.835 348.54 912.442 345.008 924 345C924.013 349.568 923.609 356.426 925.603 360.61C928.447 366.577 941.754 368.279 946.96 365.427C954.551 361.268 957.829 351.309 968 351.681C978.393 352.062 999.043 364.406 1007.57 357.157C1012.53 352.938 1010.07 344.484 1010.5 339C1011 332.627 1014.96 326.026 1017 320C999.373 315.439 980.944 310.701 965 302C969.816 297.68 977.527 295.792 979.347 288.996C981.216 282.018 976.012 275.597 972.7 270C970.741 266.69 971.172 261.5 968.972 258.738C966.09 255.12 951.491 253.145 947 253.383C936.621 253.934 938.773 265.039 931.892 269.648C925.72 273.782 919.609 273.667 913 275.966C905.379 278.617 897.649 284.939 889 283.181C882.557 281.872 880.48 276.409 875.586 273.316C869.314 269.354 865.321 272.065 862 264z"/>
</svg>
