<?xml version="1.0" standalone="yes"?>
<svg xmlns="http://www.w3.org/2000/svg" width="1450" height="1258">
<path style="fill:#010101; stroke:none;" d="M0 0L0 1258L1450 1258L1450 0L0 0z"/>
<path style="fill:#ffffff; stroke:none;" d="M821 470C817.795 477.64 813.302 478.59 807.318 483.352C804.493 485.6 805.086 489.456 801.852 491.468C790.212 498.706 769.226 492 756 492L758 484L744 480L742 486C733.66 486 724.924 483.92 718.213 489.9C708.813 498.275 709.691 512.508 694.911 515.992C691.079 516.895 680.815 519.205 677.43 516.968C671.138 512.811 673.052 503.293 663 501.663C656.537 500.615 654.997 507.29 649.896 509.016C642.641 511.471 636.985 504.166 630.344 511.214C626.489 515.305 629.236 521.497 624.848 524.648C615.335 531.479 602.929 531.14 601.159 546C599.382 560.925 608.055 558.104 616.787 564.728C620.645 567.654 621.283 573.391 625.468 575.972C632.156 580.098 639.857 577.632 637 589C645.811 592.719 654.772 591.728 664 591C666.772 609.346 697.233 589.977 707.682 600.533C717.572 610.524 707.513 631.37 722 640C725.262 635.988 730.711 635.368 733.468 630.942C742.338 616.696 748.236 589.898 766 582.89C780.982 576.979 799.745 582.985 813 590.312C820.501 594.459 830.418 603.788 839.996 600.022C848.133 596.824 852.766 580.755 855 573C873.181 578.057 885.928 558.363 889.385 543C890.149 539.604 888.242 536.407 888.893 533C889.634 529.119 892.649 525.914 893.149 522C893.95 515.73 890.074 511.976 892 505C899.62 506.394 910.271 505.471 911 496L882 479.221L839 479.83L821 470z"/>
</svg>
