<?xml version="1.0" standalone="yes"?>
<svg xmlns="http://www.w3.org/2000/svg" width="1450" height="1258">
<path style="fill:#010101; stroke:none;" d="M0 0L0 1258L1450 1258L1450 0L0 0z"/>
<path style="fill:#ffffff; stroke:none;" d="M166 1029C174.852 1020.98 180.122 1026.16 190 1029L190 1002L158.896 1025.57L142 1029L144 1023L141 1021L140 1021C127.051 1033.28 116.541 1027.09 101 1025L96.0733 1006L102.096 991L101.519 972L105.953 958.329L88 952L85 968L96 972C90.6134 977.567 90 981.502 90 989L80 990L78 983L77 983C74.7463 987.958 72.3017 988.937 67 989L69 976L57 983L60 967L66 966C66.8102 959.764 68.6173 956.407 74 953L73 949C55.4726 952.618 30.4419 971.614 41.3171 993C47.8108 1005.77 59.6635 1007.63 61.9151 1023C63.3115 1032.53 54.1279 1035.26 50.6528 1043C44.8483 1055.93 59.038 1075.99 72 1078.65C84.1344 1081.14 89.824 1066.87 100 1064.58C105.363 1063.37 108.715 1069.36 114 1069.31C129.991 1069.16 145.052 1058.97 160 1055.04C166.799 1053.26 173.206 1057.66 179.895 1053.72C188.43 1048.69 189.047 1036.4 180.96 1031.03C176.622 1028.15 170.959 1029 166 1029z"/>
</svg>
