<?xml version="1.0" standalone="yes"?>
<svg xmlns="http://www.w3.org/2000/svg" width="1450" height="1258">
<path style="fill:#010101; stroke:none;" d="M0 0L0 1258L1450 1258L1450 0L0 0z"/>
<path style="fill:#ffffff; stroke:none;" d="M715 491L726 485.127L738.776 484.683L745.133 480.44L759 483L757 491C769.503 491.001 788.581 497.331 799.941 491.752C803.758 489.878 803.495 486.303 806.317 483.637C809.216 480.899 813.52 480.197 816.363 477.363C818.574 475.158 819.972 469.594 823.938 470.211C829.381 471.058 830.735 478.124 838 478.83C852.983 480.288 868.534 473.266 883 478.927C887.981 480.876 893.845 483.457 897.711 487.213C900.73 490.147 903.648 495.983 908.775 494.663C914.723 493.132 910.592 483.879 910.854 480C911.115 476.152 913.546 472.496 915 469C910.901 467.788 904.853 468.889 901.728 465.486C897.804 461.215 899.599 453.971 892.985 451.618C890.05 450.574 886.944 452.035 884 450.972C878.879 449.123 875.597 444.867 870 443.671C866.049 442.826 861.778 444.324 858.004 442.951C853.766 441.41 851.301 437.283 846.985 435.789C838.37 432.807 828.609 432.912 820.039 429.853C815.862 428.361 813.519 424.138 808.999 423.283C802.173 421.993 799.916 430.159 793.996 429.334C783.437 427.864 758.418 421.765 758 409L741.862 413.575L733.633 432.957L724.638 441.329L714.573 462L708.029 475L715 491z"/>
</svg>
