<?xml version="1.0" standalone="yes"?>
<svg xmlns="http://www.w3.org/2000/svg" width="1450" height="1258">
<path style="fill:#010101; stroke:none;" d="M0 0L0 1258L1450 1258L1450 0L0 0z"/>
<path style="fill:#ffffff; stroke:none;" d="M966 302L980 306.712L1018 319C1014.06 330.635 1006.66 347.631 1011.37 360C1015.24 370.173 1031.33 402.364 1043.65 382.957C1045.42 380.172 1046.74 377.034 1048 374L1068 378.585L1085 387.069L1095 386.693L1117 399.641L1141 396C1141.04 384.656 1151.95 380.966 1158.87 373.001C1166.25 364.5 1173.87 368.074 1181.91 362.411C1193.86 354 1202.49 340.357 1214 331.394C1218.02 328.266 1227.21 327.514 1229.4 322.725C1237.97 303.921 1214.2 293.385 1202.1 288.11C1198.81 286.675 1197.8 283.045 1194.79 281.318C1191.32 279.33 1185.92 279.309 1182 279C1187.55 252.107 1157.7 247.197 1141.09 234.363C1136.7 230.969 1134.51 224.389 1128.91 222.728C1114.34 218.406 1095.91 232.474 1081 230.812C1072.97 229.917 1071.18 215.486 1062.17 219.037C1052.54 222.833 1048.15 238.37 1037.96 241.772C1032.62 243.555 1028.12 240.878 1023 241.714C1017.44 242.622 1012.43 246.311 1007 247.845C996.553 250.795 983.609 251.07 974.148 256.709C963.476 263.069 981.338 278.715 980.436 287C979.493 295.664 970.754 296.469 966 302z"/>
</svg>
