<?xml version="1.0" standalone="yes"?>
<svg xmlns="http://www.w3.org/2000/svg" width="1450" height="1258">
<path style="fill:#010101; stroke:none;" d="M0 0L0 1258L1450 1258L1450 0L0 0z"/>
<path style="fill:#ffffff; stroke:none;" d="M765 93L764 105C783.848 101.263 773.381 112.298 776 125C763.293 126.614 763.842 133.086 756.391 141.791C753.383 145.306 748.801 147.554 749.604 153C750.841 161.383 759.509 164.533 757 174C768.099 175.403 779.787 177.09 791 175.892C794.758 175.49 799.048 171.052 802.576 171.73C808.212 172.814 811.825 181.409 817 183.972C824.35 187.611 834.582 180.242 835 193C850.517 190.076 863.826 196.33 877.895 188.945C889.406 182.903 892.864 166.837 907 165C907 155.478 910.199 142.158 907.682 133.105C906.417 128.555 900.381 127.393 897.569 123.895C889.985 114.463 885.452 98.9438 873.826 92.5687C865.412 87.9545 851.424 91.2358 844.318 85.2616C840.575 82.1147 842.53 76.288 841.853 72.0895C840.483 63.6008 832.42 52.8184 823 53.6034C815.853 54.199 808.142 64.2522 803 68.7184C791.684 78.5461 777.776 85.0437 765 93z"/>
</svg>
