<?xml version="1.0" standalone="yes"?>
<svg xmlns="http://www.w3.org/2000/svg" width="1450" height="1258">
<path style="fill:#010101; stroke:none;" d="M0 0L0 1258L1450 1258L1450 0L0 0z"/>
<path style="fill:#ffffff; stroke:none;" d="M711 217C702.816 210.504 696.077 205.839 686 203C678.561 218.904 667.535 234.366 653.999 245.852C649.585 249.598 643.205 247.766 639.434 252.148C636.651 255.381 636.876 260.196 635.204 264C630.644 274.378 622.773 286.222 612 291L608 323C597.439 323.82 602.347 339.804 597.367 347C592.469 354.076 594.723 358.822 591.581 366C588.211 373.699 580.316 383.714 574.535 389.867C565.637 399.338 550.928 400.587 547 414C558.49 420.119 578.416 431.965 591 425L586.68 413L594 392C597.725 395.892 601.021 400.191 605.004 403.83C607.131 405.774 609.454 408.013 612 409.397C629.409 418.856 634.903 384.313 643.39 377.858C646.996 375.115 652.751 376 657 376C658.8 390.167 664.084 386.694 673.911 393.703C677.178 396.034 679.006 399.855 682.289 402.146C690.795 408.079 702.816 406.587 712 404C721.843 427.642 741.455 413.052 759 408C759.164 421.84 782.794 426.744 793.985 428.887C799.783 429.996 801.852 421.6 808 422.337C812.853 422.919 815.539 427.801 820.089 429.137C828.738 431.677 838.625 431.741 846.996 435.144C851.16 436.837 853.681 441.05 858.015 442.333C862.592 443.687 867.269 441.832 872 443.482C876.427 445.027 879.528 449.139 884 450.397C887.975 451.514 891.321 449.464 894.956 452.322C899.418 455.83 898.806 461.826 902.564 465.258C905.573 468.005 912.13 467.281 916 468L912 495C925.625 494.559 925.778 484.129 933.329 476.133C938.714 470.432 957.194 465.333 965 466.48C979.005 468.538 1001.47 478.661 1012.79 486.995C1021.38 493.319 1021.91 507.425 1036.94 506.188C1045.62 505.473 1031.28 494.669 1031 491L1039 490L1039 467C1028.74 460.523 1029.85 454.967 1034 445C1020.45 437.466 1029.85 425.139 1031.38 415C1031.95 411.177 1029.74 407.783 1029.79 404C1029.85 399.341 1032.06 394.553 1033 390C1021.57 383.628 1014.94 369.81 1010 358C994.121 361.672 982.014 351.409 966 352.383C956.632 352.953 953.359 362.615 945.996 366.424C930.895 374.235 923.241 357.667 923 346C911.708 346.008 898.086 349.256 893 360C882.174 355.492 869.89 349.476 864.938 338C858.826 323.834 862 299.313 862 284C852.96 282.297 831.249 287.549 830.475 274.999C830.271 271.684 831.373 268.231 832 265C816.366 259.147 796.238 268.189 780.004 260.566C775.818 258.601 773.577 254.346 769.961 251.637C762.455 246.016 754.018 242.505 748.854 234C744.786 227.298 745.664 218.492 739.61 212.685C733.885 207.195 719.014 218.05 719.483 207.989C719.576 205.99 719.914 204.008 720 202C713.487 203.12 712.3 211.38 711 217z"/>
</svg>
