<?xml version="1.0" standalone="yes"?>
<svg xmlns="http://www.w3.org/2000/svg" width="1450" height="1258">
<path style="fill:#010101; stroke:none;" d="M0 0L0 1258L1450 1258L1450 0L0 0z"/>
<path style="fill:#ffffff; stroke:none;" d="M594 393L587.383 413L589.508 425.612L579.996 425.803L547 415C544.29 419.56 538.599 423.915 537.487 429.04C535.257 439.319 543.542 456.39 552.184 461.975C555.588 464.175 559.682 462.492 562.867 465.252C567.007 468.841 566.494 474.492 569.367 478.787C571.498 481.971 575.173 483.195 576.442 487.043C582.411 505.139 573.346 524.115 577.904 542C580.183 550.944 588.337 558.022 594 565L595 565C602.619 558.121 598.765 554.668 600.343 546C601.084 541.926 604.982 535.762 607.299 532.279C610.773 527.053 619.952 528.204 624.678 524.034C628.238 520.893 626.51 514.964 630.19 511.105C637.253 503.697 642.308 510.991 649.896 508.219C654.806 506.425 656.715 499.912 663 501.067C672.306 502.777 671.732 511.728 677.563 515.971C681.554 518.876 691.938 515.402 697 516C703.089 508.245 714.224 504.156 714.219 492C714.217 485.238 705.125 479.643 707.929 472.83C711.713 463.636 717.406 451.254 722.969 443.04C729.727 433.062 735 432.465 735 419C722.639 418.469 716.933 416.849 712 405C702.605 406.939 691.862 408.872 683.089 403.146C679.417 400.749 677.534 396.449 673.829 394.089C669.742 391.485 664.209 391.844 660.303 388.914C656.19 385.829 658.661 378.148 652.891 377.148C633.143 373.727 635.756 415.091 615 410.961C606.396 409.25 600.556 398.014 594 393z"/>
</svg>
