<?xml version="1.0" standalone="yes"?>
<svg xmlns="http://www.w3.org/2000/svg" width="1450" height="1258">
<path style="fill:#010101; stroke:none;" d="M0 0L0 1258L1450 1258L1450 0L0 0z"/>
<path style="fill:#ffffff; stroke:none;" d="M545 739L540.325 747.039L542 760L545 761C544.001 763.599 542.054 766.988 542.927 769.851C544.966 776.532 548.893 769.255 549 766L545 767L552 759L553 759C558.956 771.763 567.892 798.691 550 805L553 810L553 811L547 827C550.262 828.254 553.809 827.056 556.895 828.421C560.892 830.189 568.045 841.739 568.508 846C569.418 854.36 555.922 870.02 547.043 867.893C541.925 866.666 539.971 859.161 538 855C531.937 857.573 524.519 872.4 524 879C510.581 879.12 498.767 892.568 489.681 878C487.602 874.668 487.081 872.803 488 869L475 869L474 881C469.514 876.747 464.334 872.235 458.39 876.97C455.142 879.557 452.775 885.732 447.576 884.524C440.602 882.904 432.696 874.977 441 870C439.064 864.225 433.219 868.479 429.148 864.762C425.627 861.546 427.249 856.814 424.397 853.572C422.004 850.853 418.069 851.034 415.015 849.567C407.609 846.012 406.881 842.879 398 844C401.725 849.917 413.893 852.674 419.606 857.698C425.563 862.936 426.733 873.337 430.934 879.829C435.475 886.847 442.724 887.772 444 897L460 891L463 897L467 896L464 885L473 882L473 894L481 891L481 897C487.961 894.552 483.386 884.64 484 879L486 879C488.268 883.887 490.649 888.474 490.942 894C491.265 900.086 488.353 905.436 492.279 911C501.574 924.174 517.745 918.621 522.699 936C524.545 942.476 523.786 949.727 525.966 956C528.492 963.268 534.855 970.128 535.347 978C535.739 984.269 530.253 987.582 528.528 993C527.293 996.876 533.258 1012.2 535.934 1015.57C539.267 1019.76 547.346 1018.99 552 1020.88C556.616 1022.76 559.296 1028.25 564 1029.58C566.226 1030.21 587.682 1025.25 589.03 1023.68C593.261 1018.76 592.582 1011.21 596.43 1006C600.611 1000.34 607.787 996.203 609.581 989C612.932 975.542 605.893 964.461 605.498 952C605.04 937.497 616.528 928.689 607.468 914.148C603.04 907.042 591.314 912.938 587.619 902C585.97 897.119 590.388 892.734 590.892 888C591.569 881.635 589.21 876.167 588.879 870C588.518 863.295 590.982 858.115 589.551 851C588.464 845.596 580.496 834.536 581.771 830.105C583.486 824.143 592.196 817.698 595 811C588.602 804.759 592.507 796.542 593.497 789C594.757 779.405 592.962 769.038 594.282 759C595.114 752.671 597.709 744.778 592.362 739.654C587.577 735.068 582.178 739.885 577 740.802C565.947 742.758 555.151 743.71 545 739z"/>
</svg>
