<?xml version="1.0" standalone="yes"?>
<svg xmlns="http://www.w3.org/2000/svg" width="1450" height="1258">
<path style="fill:#010101; stroke:none;" d="M0 0L0 1258L1450 1258L1450 0L0 0z"/>
<path style="fill:#ffffff; stroke:none;" d="M191 1030C198.843 1026.73 203.712 1023.3 210 1031C220.205 1020.84 223.526 1006.7 227 994C222.513 993.984 219.488 994.056 217 990L233 984.252L241.486 979.731L250 989L254 986L254 985L252 978L245 976L245 962L248 958L224 971.401L205.618 982.843L203.357 991.272L190.782 998.144L193.081 1011L191 1030M74 1080C74.8366 1083.53 75.8176 1087.85 78.4992 1090.49C80.7542 1092.71 85.1361 1092.92 86.2269 1096.22C87.7773 1100.92 84.5186 1109.89 91.2245 1112.31C97.7393 1114.66 106.457 1107.71 112.301 1113.56C119.592 1120.87 113.962 1129.66 114.383 1138C114.56 1141.49 116.513 1144.41 116.305 1148C116.035 1152.66 113.943 1157.63 117.653 1161.57C123.535 1167.81 143.786 1165.08 152 1166.09C159.622 1167.03 165.495 1173.62 173 1174.44C177.393 1174.92 181.571 1172.4 186 1172.61C199.254 1173.26 210.628 1176.1 223 1180.81C233.739 1184.89 245.724 1187.22 256 1192.27C261.829 1195.14 268.275 1201.34 275 1201.5C285.256 1201.73 291.656 1194.05 300.715 1192.39C304.232 1191.74 307.625 1194.95 311 1195.59C319.261 1197.18 324.771 1192.39 329 1186L330 1186L349 1197C353.235 1187.45 358.198 1179.32 364.76 1171.04C368.185 1166.72 373.311 1165.17 373.652 1159C374.339 1146.56 360.147 1149.72 355.074 1142.77C344.231 1127.93 329.567 1117.94 310 1120.29C303.722 1121.04 298.975 1125.42 293 1125.94C281.439 1126.94 274.829 1119.76 264 1118.43C257.816 1117.67 254.675 1122 249 1122.73C239.242 1123.98 225.245 1115.73 218 1110L217 1110C208.701 1116.2 193.847 1123.03 184.39 1115.27C179.886 1111.58 177.196 1103.27 175 1098C187.743 1097.45 197.895 1088.13 210 1084.51C215.708 1082.81 222.865 1082.92 227.396 1078.19C230.995 1074.43 226.955 1069.47 224 1067L224 1066C232.015 1059.45 229.075 1052.05 229 1043C225.262 1043 220.512 1043.75 217.09 1041.98C211.418 1039.04 208.262 1034.34 201 1035.56C186.749 1037.95 187.965 1052.65 175.999 1055.94C170.579 1057.43 165.344 1054.44 160 1055.67C144.869 1059.18 131.015 1068.79 115 1069.88C109.261 1070.27 105.735 1063.71 100 1065.07C92.9555 1066.75 91.2682 1072.77 85.7901 1075.97C82.2032 1078.07 77.7839 1077.7 74 1080z"/>
</svg>
