<?xml version="1.0" standalone="yes"?>
<svg xmlns="http://www.w3.org/2000/svg" width="1450" height="1258">
<path style="fill:#010101; stroke:none;" d="M0 0L0 1258L1450 1258L1450 0L0 0z"/>
<path style="fill:#ffffff; stroke:none;" d="M706 101C706.398 117.456 714.008 135.377 725 148L708 146C710.167 153.969 706.265 158.016 703 165L707 166L713 162L708 173L711 174C705.548 180.111 700.938 177.978 694 176C691.412 182.006 685.144 188.364 684.691 195C684.166 202.703 704.34 212.791 711 215C712.423 208.853 713.993 202.107 721 201L721.042 211.381L732 209.579L740.61 213.302L752.133 238L769.985 251.39L780.015 259.968L833 264C830.746 275.622 834.442 290.977 849.501 279.988C856.281 275.04 853.459 266.364 863 263C864.768 271.015 870.631 271.418 878 272C880.231 285.72 896.703 283.155 906 278.738C914.272 274.809 924.502 274.553 931.867 269.034C937.988 264.446 936.408 255.573 945.001 253.059C952.893 250.751 961.948 256.842 970 256.644C975.089 256.519 980.119 253.458 985 252.155C996.199 249.165 1007.22 247.422 1018 243C1012.75 231.73 1000.71 227.008 993.728 217.787C990.646 213.717 991.598 205.005 985.787 203.319C981.818 202.167 977.046 203.886 973 203.985C965.736 204.163 958.175 202.211 951 203.134C944.031 204.03 940.224 208.63 933 204.581C921.25 197.995 918.51 189.328 913.663 178C912.063 174.26 909.705 166.605 904.896 166.319C893.298 165.627 886.881 184.487 877.957 189.468C867.106 195.524 862.958 192.121 852 191.299C846.253 190.869 839.639 192.938 834 194C833.842 180.647 824.484 189.028 817 184.393C812.155 181.392 808.66 173.877 803 172.447C798.845 171.397 794.284 176.434 790 176.892C778.601 178.11 767.318 175.486 756 175C759.294 164.308 749.536 161.418 748.898 152.001C748.538 146.686 753.155 144.983 756.096 141.61C763.718 132.87 762.735 127.024 775 124C773.367 115.944 782.846 102.817 769.005 104.924C766.994 105.23 764.998 105.624 763 106L764 95L747 103.292L729 98.5872L718 102.001L706 101M700 100L699 105L703 105L702 100L700 100z"/>
</svg>
