<?xml version="1.0" standalone="yes"?>
<svg xmlns="http://www.w3.org/2000/svg" width="1450" height="1258">
<path style="fill:#010101; stroke:none;" d="M0 0L0 1258L1450 1258L1450 0L0 0z"/>
<path style="fill:#ffffff; stroke:none;" d="M395 848L397 857L399 857L402 851L411 859L405 859C405.128 869.747 414.963 863.63 417.225 871.13C418.288 874.651 413.818 877.218 412.497 880.039C410.746 883.779 412.465 887.528 414 891L424 889C425.356 895.523 429.691 896.113 435 893L437 922L429 922L420 942L397 929C398.054 948.488 422.226 949.367 430.976 964.039C437.401 974.814 418.748 978.961 416.404 988C415.333 992.127 419.57 997.364 421.127 1001C425.096 1010.27 429.675 1022.93 424.486 1032.78C422.23 1037.06 407.665 1041.49 403.184 1039.67C395.357 1036.49 383.565 1019.07 379 1038C382.893 1040.89 388.687 1044.03 391.307 1048.17C396.765 1056.8 397.402 1069.91 405.108 1077.91C415.305 1088.49 431.126 1085.93 438.16 1100C443.641 1110.96 427.601 1131.61 441.144 1140.2C450.657 1146.24 468.216 1139.09 472.285 1128.96C474.736 1122.86 473.566 1114.46 477.564 1109.17C482.118 1103.15 494.458 1100.97 497.396 1094.61C499.909 1089.16 493.951 1085.74 493.066 1081C492.18 1076.25 494.389 1068.69 495.503 1064C501.245 1039.85 515.838 1018.49 519 994C546.7 993.902 527.071 965.309 524.39 953C522.437 944.032 523.784 933.77 517.363 926.214C512.573 920.578 505.368 923.794 500.015 919.682C494.007 915.067 489.09 908.626 489 901C485.87 902.448 477.651 904.622 483 899L483 898L480 892L463 899L476 909L473 914C475.116 914.519 477.845 914.683 479.398 916.404C485.567 923.242 472.972 933.884 471 921L470 921L459 930L471.945 930.963L480 939C469.084 951.859 452.683 943.179 449 929L456 923C453.223 922.035 442.344 913.853 448.086 910.846C450.93 909.358 454.668 913.041 456.932 909.551C458.915 906.494 457.481 899.934 459 896L462 897L460 892L443 898C442.563 888.015 435.838 887.119 430.563 879.911C421.139 867.029 416.557 844.628 395 848M386 849L387 858L388 849L386 849z"/>
</svg>
