<?xml version="1.0" standalone="yes"?>
<svg xmlns="http://www.w3.org/2000/svg" width="1450" height="1258">
<path style="fill:#010101; stroke:none;" d="M0 0L0 1258L1450 1258L1450 0L0 0z"/>
<path style="fill:#ffffff; stroke:none;" d="M679 694C680.323 703.766 686.918 712.7 676.956 720.682C673.767 723.237 669.901 723.035 667 726C683.505 736.188 677.311 761.209 661 768C663.175 776.486 669.842 796.134 658 798L659 814C649.816 816.725 643.55 827.485 632.105 825.512C626.018 824.463 627.43 815.295 625.161 811.09C621.883 805.017 607.914 800.847 609.086 793.014C609.737 788.658 615.191 784.303 617 780L624 784C627.492 771.822 621.603 762.534 618.99 751C617.942 746.377 618.882 742.515 616.737 738C612.62 729.336 605.022 723.333 606 713L618 725C617.823 716.241 612.586 711.897 607.698 705.788C605.284 702.771 604.052 697.433 599.012 699.248C594.134 701.005 593.185 706.229 589.61 709.301C585.956 712.44 580.875 713.352 577.213 716.681C571.777 721.622 567.002 729.363 562 735L561 735C555.17 729.47 549.147 732.277 546 739C555.188 743.619 568.013 741.568 578 739.802C584.266 738.693 589.232 734.342 594.03 741.105C600.242 749.862 593.71 766.932 593.209 777C593.006 781.084 594.781 784.907 594.244 789C593.345 795.848 589.034 805.995 596 811C593.529 815.19 591.495 820.046 588.367 823.791C586.444 826.092 582.546 827.809 582.056 831.043C581.31 835.972 589.367 846.113 590.551 852C591.877 858.591 589.563 862.77 589.513 869C589.464 875.127 592.555 880.675 591.892 887C591.28 892.836 585.945 897.926 589.028 903.995C593.104 912.022 599.826 907.301 605.606 911.028C609.081 913.268 611.016 920.207 612.081 924C614.52 932.687 606.887 942.043 606.329 951C605.793 959.595 611 968.725 611 978C618.728 977.936 627.552 974.22 634.999 975.164C640.758 975.894 642.754 982.178 649.001 981.695C659.091 980.915 657.23 972.283 665.043 969.392C671.114 967.146 681.159 975.317 687 977L688.674 948L694 917L737 928.939L751 935L749.218 918L754.312 905L751.507 883L741.419 864L732.411 826.001L717.191 809.985L731 777C724.007 771.356 730.526 768.197 727.296 762C724.191 756.044 716.952 752.376 714.603 746C712.975 741.579 714.715 736.528 713.351 732C710.736 723.32 703.291 716.144 699.402 708C697.638 704.305 697.254 699.47 693.66 696.938C689.911 694.297 683.429 694.56 679 694z"/>
</svg>
