<?xml version="1.0" standalone="yes"?>
<svg xmlns="http://www.w3.org/2000/svg" width="1450" height="1258">
<path style="fill:#010101; stroke:none;" d="M0 0L0 1258L1450 1258L1450 0L0 0z"/>
<path style="fill:#ffffff; stroke:none;" d="M912 496C910.608 504.943 900.817 507.289 893 506C889.172 512.947 894.452 515.382 893.64 522C893.164 525.88 890.248 529.12 889.573 533C888.98 536.404 890.917 539.653 890.007 543C886.128 557.265 873.89 578.607 856 574L847.468 592.996L840.643 602.089L840.57 611L839 624C843.179 623.469 847.794 621.925 852 622.698C856.292 623.487 860.513 626.783 865 626.153C870.366 625.4 875.301 617.958 880.424 618.589C886.68 619.358 889.265 628.069 894.274 628.944C897.505 629.508 899.946 625.821 902.714 624.823C909.234 622.47 920.475 625.716 924.667 631.089C927.417 634.614 925.419 638.12 926.579 642C927.57 645.317 930.373 647.707 931.436 651C933.507 657.414 932.366 662.744 936 669C942.092 666.464 951.304 657.957 958 659.322C962.604 660.26 965.882 664.684 970 666.697C973.202 668.262 976.931 667.623 979.961 669.603C983.97 672.222 987.107 678.142 992.697 674.681C995.609 672.879 995.856 668.705 997.703 666.039C1002.71 658.815 1008.44 655.99 1006.85 646.015C1005.6 638.134 992.788 631.847 1005 625C1000.91 610.669 1007.46 604.776 1009.15 591C1009.64 587.057 1006.27 584.201 1006.27 580.424C1006.27 576.138 1009.4 568.343 1010.64 564C1011.98 559.286 1016.24 554.89 1016.72 550.001C1017.6 540.944 1001.9 539.594 1006.89 528.105C1011.89 516.602 1032.73 520.428 1036 507C1030.83 505.314 1023.41 503.779 1019.65 499.606C1016.49 496.105 1016.57 490.755 1012.78 487.702C1003.36 480.137 987.404 475.046 976 471.252C971.667 469.81 967.72 467.027 963 467.213C955.437 467.511 940.13 470.535 934.329 475.513C925.672 482.943 926.418 494.956 912 496z"/>
</svg>
