<?xml version="1.0" standalone="yes"?>
<svg xmlns="http://www.w3.org/2000/svg" width="1450" height="1258">
<path style="fill:#010101; stroke:none;" d="M0 0L0 1258L1450 1258L1450 0L0 0z"/>
<path style="fill:#ffffff; stroke:none;" d="M595 566L631.425 604.999L652.301 624.089L662.055 647.961L678.738 676L679 693C683.729 693.879 689.864 693.488 693.812 696.564C697.822 699.689 698.349 704.701 700.402 709C704.291 717.144 711.736 724.32 714.351 733C715.715 737.528 713.975 742.579 715.603 747C717.945 753.357 725.49 756.758 728.01 763C730.476 769.11 724.724 771.418 731 777L732 777C740.87 771.146 762.984 765.4 772.61 772.854C779.73 778.369 779.433 786.636 789 790.637C804.192 796.99 821.564 798.886 837 804.927C842.858 807.219 855.884 819.607 860.996 818.542C876.049 815.406 869.524 794.469 874.14 786.004C876.369 781.917 880.616 779.628 883.363 775.961C886.557 771.695 887.818 766.191 891.39 762.184C893.934 759.332 898.562 757.716 899.682 753.816C906.22 731.054 895.436 710.344 903.548 688C908.807 673.516 928.213 685.958 933.759 670C936.558 661.948 927.536 648.385 925.654 641C924.783 637.582 926.587 634.352 924.393 631.171C920.45 625.454 909.407 623.907 903 625.327C900.091 625.972 898.058 629.032 895.055 629.269C889.925 629.675 886.507 619.391 880 619.213C874.538 619.063 870.53 625.823 865 626.655C859.812 627.435 855.176 623.263 850 623.274C846.136 623.282 839.479 626.213 837.708 620.927C836.181 616.367 839.715 607.66 839 602C821.193 598.645 808.15 585.73 790 582.465C765.708 578.094 750.883 593.482 740.558 614C737.991 619.101 737.36 625.028 734.468 629.995C731.302 635.433 725.078 635.859 722 641C714.049 634.452 711.774 624.984 710.299 615C709.68 610.809 710.464 604.136 707.397 600.803C700.825 593.66 689.886 599.818 682 599.821C678.389 599.822 670.316 600.479 667.225 598.883C664.593 597.524 664.315 593.774 661.582 592.693C655.13 590.141 643.453 591.704 636 590C639.655 576.834 631.157 581.86 624.468 575.682C616.879 568.674 606.113 552.414 595 566z"/>
</svg>
