<?xml version="1.0" standalone="yes"?>
<svg xmlns="http://www.w3.org/2000/svg" width="1450" height="1258">
<path style="fill:#010101; stroke:none;" d="M0 0L0 1258L1450 1258L1450 0L0 0z"/>
<path style="fill:#ffffff; stroke:none;" d="M395 925L386 933L405.061 955.004L413 968L404 977C401.977 972.231 400.11 970.141 395 969C396.313 975.968 397.616 980.305 390 983L388 978L381 985L380 985L368 972L374 969C371.089 961.286 354.915 948.221 347 947C347.428 952.421 347.767 956.511 353 959C345.368 975.777 333.149 947.272 334 939L299.209 933.689L283.891 949.251L272 961C277.652 964.431 282.064 962.225 288 963.789C301.06 967.232 301.686 979.134 300 991C311.033 990.907 316.52 986.15 317 975C324.952 973.974 333.018 972.61 340.998 971.978C343.854 971.752 348.023 972.984 345.843 976.702C343.004 981.543 335.818 977.48 333.032 982.163C330.562 986.313 333.581 992.302 331.867 997C330.115 1001.8 326.182 1005.32 324.227 1010C322.41 1014.34 322.936 1019.38 318.867 1022.59C315.397 1025.33 309.967 1024.92 306.039 1027.35C301.193 1030.35 299.088 1034.54 293 1035L293 1030L286 1026C276.928 1028.61 266.893 1038.08 258 1029L248 1025L247 1025C240.384 1032.38 241.762 1042.39 230 1043C230.027 1052.69 231.828 1058.08 225 1066L225 1067C227.216 1069.63 231.236 1073.84 228.954 1077.58C225.705 1082.9 215.399 1084.1 210 1085.27C197.724 1087.96 188.336 1097.43 176 1099C178.011 1103.83 180.355 1110.95 184.39 1114.44C193.168 1122.01 210.002 1116.42 217 1109L218 1109C224.166 1115.92 240.484 1123.34 250 1121.77C254.015 1121.11 256.919 1117.73 261 1117.4C270.127 1116.65 275.522 1124.44 284 1124.96C301.355 1126.01 313.955 1114.88 332 1122.35C343.558 1127.13 348.069 1135.64 356.498 1143.44C359.332 1146.06 363.758 1145.85 366.985 1147.85C374.157 1152.3 376.618 1156.32 385.999 1154.85C399.701 1152.71 388.074 1133.56 395.318 1126.64C404.536 1117.83 423.691 1124.51 435 1125C435.206 1116.23 441.48 1108.91 437.633 1100C432.221 1087.46 419.453 1089.77 410 1082.33C398.402 1073.21 397.295 1060.08 390.934 1048.3C388.426 1043.66 381.082 1042.17 379.557 1036.91C377.913 1031.24 384.361 1027.84 389 1028.8C395.518 1030.15 398.917 1034.47 402 1040C405.734 1039.5 409.368 1038.59 413 1037.58C430.851 1032.61 426.227 1015.02 420.547 1001C419.172 997.607 414.818 992.197 415.65 988.424C417.732 978.992 436.486 975.435 430.539 964.089C425.21 953.923 412.964 952.317 405.325 945.57C398.478 939.524 398.158 932.509 395 925z"/>
</svg>
