<?xml version="1.0" standalone="yes"?>
<svg xmlns="http://www.w3.org/2000/svg" width="1414" height="1450">
<path style="fill:#010101; stroke:none;" d="M0 0L0 1450L1414 1450L1414 0L0 0z"/>
<path style="fill:#ffffff; stroke:none;" d="M976 453C977.943 458.956 981.705 467.03 989 467.854C993.163 468.324 997.312 464.07 1001 462.61C1010.45 458.868 1020.94 454.242 1031 452.464C1056.92 447.884 1080.28 459.195 1102 471.096C1116.9 479.261 1127.42 479.429 1132 498C1138.72 496.107 1148.35 498.321 1154 495.883C1164.08 491.529 1165.25 477.9 1171.13 470C1174.18 465.9 1183.32 457.556 1181.45 452C1179.51 446.208 1172.14 442.133 1168.02 437.985C1160.29 430.222 1151.51 417.192 1151 406C1144.34 406 1137.24 403.286 1131 403.592C1121.99 404.034 1113.24 405.792 1104 403.997C1096 402.444 1090.97 393.519 1082 393.743C1074.06 393.942 1068.26 403.923 1061 406.576C1053.15 409.446 1043.38 413.478 1035 414.149C1029.71 414.573 1025.26 410.315 1020 412.458C1000.84 420.26 995.419 447.474 976 453z"/>
</svg>
