<?xml version="1.0" standalone="yes"?>
<svg xmlns="http://www.w3.org/2000/svg" width="1414" height="1450">
<path style="fill:#010101; stroke:none;" d="M0 0L0 1450L1414 1450L1414 0L0 0z"/>
<path style="fill:#ffffff; stroke:none;" d="M477 813L467.786 830.363L453.619 838.279L458.821 860L451 888C460.491 882.063 467.213 872.976 476.039 866.514C480.947 862.92 487.722 863.097 493 859.641C499.39 855.458 505.045 847.642 513 851C515.034 845.568 512.798 834.702 516.603 830.703C521.812 825.229 532.477 827.887 539 825.265C547.931 821.677 555.411 813.106 565 811.759C569.879 811.074 575.039 812.975 580 812.999C600.135 813.096 621.379 815.076 641 810L634.613 788L641 759L621.001 758.907L609.961 765.973L595 766.891L581 759.558L564 756C570.291 745.71 571.496 730.131 574 718C569.651 716.099 565.7 712.143 561 711.293C551.665 709.606 545.418 716.96 537 717.697C524.883 718.758 509.412 717.656 499.379 726.637C490.135 734.912 487.438 749.409 482.004 760C475.483 772.708 440.959 793.899 466.001 807.255C469.662 809.207 473.189 811.358 477 813z"/>
</svg>
