<?xml version="1.0" standalone="yes"?>
<svg xmlns="http://www.w3.org/2000/svg" width="1414" height="1450">
<path style="fill:#010101; stroke:none;" d="M0 0L0 1450L1414 1450L1414 0L0 0z"/>
<path style="fill:#ffffff; stroke:none;" d="M630 882L632 877C641.214 882.385 638.171 883.188 640.774 891.826C641.817 895.287 646.415 896.273 647.335 899.666C650.732 912.193 631.459 911 625 911C625 916.644 621.825 926.566 623.693 931.625C625.905 937.615 636.138 942.5 640.061 948C646.429 956.927 649.89 970.558 653.096 981C655.483 988.777 652.874 1004.78 660.638 1009.96C664.517 1012.55 673.806 1009.35 678 1008.42C683.979 1007.11 694.588 1007.45 699.582 1003.99C708.98 997.468 710.404 981.513 716.857 973.419C720.127 969.318 727.541 970.513 730.172 965.775C732.063 962.372 728.184 958.72 726.61 956C723.895 951.312 723.239 945.296 722.44 940C719.371 919.673 719.916 888.652 736.104 872.09C745.031 862.958 757.599 863.191 769 859.239C780.438 855.274 786.961 848.713 799.996 849.947C806.19 850.533 811.06 854.857 818 855L809 893C818.696 898.837 833.538 903.075 838.583 914C841.415 920.131 840.788 927.471 842 934C865.177 922.423 863.006 883.258 870.6 862C872.916 855.514 879.973 852.002 882.972 846C884.545 842.853 883.415 839.166 885.027 836.039C886.579 833.03 889.789 831.367 890.682 827.961C891.729 823.967 890.627 820.591 893.318 817C899.485 808.77 908.545 803.419 913.239 794C919.981 780.473 904.467 768.222 921 759C914.94 746.831 908.01 738.341 908 724C904.689 724.766 899.124 725.525 897.028 728.51C892.629 734.774 898.83 741.46 888.999 745.03C881.906 747.606 874.312 743.663 867 745.904C850.252 751.039 834.935 761.511 819 768.694C804.948 775.029 790.038 777.863 776 784.309C769.889 787.115 763.006 790.26 758.39 795.3C754.127 799.956 753.369 805.443 746.996 808.069C734.973 813.023 718.791 817.378 706 819.607C702.007 820.302 697.902 818.257 694 819.603C685.027 822.698 681.462 834.353 672.996 837.393C665.876 839.949 659.048 832.001 651.213 834.318C640.993 837.34 641.173 858.303 636.006 865.907C633.538 869.538 628.307 871.211 626.608 875.296C625.185 878.72 627.075 880.824 630 882z"/>
<path style="fill:#010101; stroke:none;" d="M855 800C850.705 807.485 843.716 801.22 837.133 804.149C832.81 806.073 833.939 810.346 831.825 813.775C828.536 819.109 821.288 819.084 816 818L814 823L800 824C800.036 834.246 809.499 842.892 819.363 835.062C822.689 832.421 822.92 827.437 827.105 825.588C834.558 822.296 842.389 822.202 850 820C852.459 826.178 863.679 832.779 870 832L872 819C865.743 817.117 867.176 812.074 864.567 807.184C862.664 803.617 858.49 801.651 855 800M732 840L750.853 848.647L758 855C762.4 848.709 767.419 846.026 775 845L777 833L732 840M659 871L660 861L669 864L661 850C650.661 852.996 651.007 864.875 659 871z"/>
</svg>
