<?xml version="1.0" standalone="yes"?>
<svg xmlns="http://www.w3.org/2000/svg" width="1414" height="1450">
<path style="fill:#010101; stroke:none;" d="M0 0L0 1450L1414 1450L1414 0L0 0z"/>
<path style="fill:#ffffff; stroke:none;" d="M992 263C992.676 271.876 993.368 285.591 990.64 294C988.491 300.629 981.683 307.006 981.388 314C981.096 320.927 988.182 323.039 989.682 329.004C991.241 335.2 986.483 339.223 986.062 345C985.273 355.859 995.393 366.191 989.146 376.999C981.471 390.279 959.829 387.388 947 392.4C942.108 394.311 933.562 394.645 933.062 401.019C930.88 428.868 966.215 431.488 976 452C995.983 447.859 1001.27 418.147 1021 411.603C1025.54 410.098 1029.49 413.597 1034 413.515C1042.73 413.355 1055.08 408.649 1063 405.185C1069.56 402.318 1075.43 392.893 1083 393.178C1091.07 393.482 1095.74 401.294 1103 403.207C1112.16 405.62 1121.98 403.403 1131 402.999C1136.98 402.731 1143.69 405 1150 405C1149.46 398.151 1151.49 388.273 1149.27 382C1145.46 371.248 1134.91 363.637 1132.39 352C1129.65 339.306 1134.73 325.168 1128.09 313.104C1124.38 306.343 1115.31 304.892 1110.64 298.907C1103.89 290.253 1100.53 278.479 1095 269L1043.09 279.303L1029 294C1024.28 284.078 1017.61 284.778 1010.17 278.581C1003.66 273.161 999.98 266.775 992 263z"/>
</svg>
