<?xml version="1.0" standalone="yes"?>
<svg xmlns="http://www.w3.org/2000/svg" width="1414" height="1450">
<path style="fill:#010101; stroke:none;" d="M0 0L0 1450L1414 1450L1414 0L0 0z"/>
<path style="fill:#ffffff; stroke:none;" d="M1183 455C1177.96 460.83 1172.46 467.287 1168.64 474C1164.28 481.653 1163.44 488.782 1156 494.812C1148.13 501.187 1130.74 490.673 1129.57 506.996C1129.06 514.266 1137.49 514.58 1141.49 518.637C1144.93 522.136 1144.35 527.919 1146.85 531.996C1150.06 537.206 1156.11 539.855 1159.4 545.001C1162.55 549.939 1159.87 557.727 1165.15 561.204C1174.26 567.2 1188.29 564.746 1195.53 573.055C1204.37 583.185 1199.17 591.69 1197.32 603C1193.83 624.395 1197.08 651.325 1223 653.801C1232.11 654.671 1241.82 652.025 1251 652C1252.44 663.342 1253.88 673.627 1254.02 685C1254.07 688.77 1255.83 693.387 1253.97 696.91C1249.94 704.531 1242.54 700.809 1236 701.326C1220.02 702.587 1205.54 711.934 1191 704C1187.69 707.762 1177.47 708.785 1176.36 713.228C1173.65 723.985 1181.67 726.691 1187.49 732.637C1191.28 736.514 1190.28 743.236 1192.65 747.892C1197.38 757.167 1206.39 752.946 1201 766C1211.88 767.375 1221.26 764.605 1232 763.286C1241.59 762.108 1251.4 763.834 1261 762.895C1265.18 762.486 1268.82 760.109 1273 759.677C1279.26 759.031 1282.8 765.601 1289 765.927C1304.59 766.746 1328.2 750.038 1333.93 736C1337.05 728.344 1335.35 714.767 1333.06 707C1331.9 703.085 1327.82 699.27 1328.43 695.004C1329.66 686.329 1341.95 682.38 1341.87 672C1341.78 660.584 1335.25 650.82 1332.68 640C1330.17 629.479 1331.91 619.377 1329.9 609C1328.82 603.391 1324.21 598.577 1323.83 593C1322.98 580.341 1336.32 569.514 1346 564L1346 563L1306 532.934L1264 522.741L1231 501.926L1200.21 481.829L1183 455z"/>
</svg>
