<?xml version="1.0" standalone="yes"?>
<svg xmlns="http://www.w3.org/2000/svg" width="1414" height="1450">
<path style="fill:#010101; stroke:none;" d="M0 0L0 1450L1414 1450L1414 0L0 0z"/>
<path style="fill:#ffffff; stroke:none;" d="M922 255C923.097 264.345 914.194 283.595 907.606 290.674C902.057 296.638 895.115 298.7 891.994 307C888.947 315.102 890.003 325.492 890 334C889.994 350.016 890.314 366.026 886 381C874.307 376.132 853.014 369.079 840.518 377.028C832.827 381.92 837.536 389.211 837.374 396C837.261 400.765 834.704 405.747 832.769 410C830.691 414.569 829.112 419.95 825.61 423.674C822.465 427.017 817.777 428.614 814.994 432.326C810.846 437.857 808.851 445.801 805.753 452C798.982 465.55 787.783 480.52 786.569 496C786.074 502.304 791.421 504.897 793.4 510.089C796.072 517.096 792.28 525.643 794.317 532.791C795.43 536.695 800.035 538.409 799.998 542.961C799.936 550.49 786.475 552.363 784.929 560C784.244 563.386 786.533 567.747 787.37 571C790.398 582.758 796.606 593.96 801.782 605C803.628 608.938 805.606 615.229 809.39 617.697C814.139 620.794 822.493 620.886 828 621C828.647 636.07 831.839 643.935 848 646.671C852.554 647.441 858.735 644.501 862.61 647.604C868.954 652.686 867 663.917 867 671C878.725 667.654 878.669 655.85 889.001 651.367C893.544 649.396 898.469 650.013 902.996 647.722C907.49 645.448 910.299 640.779 915.004 639.032C919.696 637.291 924.4 639.702 929 638.283C944.595 633.472 964.334 620.596 970.521 605C975.874 591.506 970.065 580.309 971.174 567C972.225 554.388 983.157 547.999 984.635 536C986.707 519.183 979.572 501.281 982.213 484C983.045 478.559 986.858 473.97 989 469C977.752 461.995 979.075 453.228 971.351 444.518C958.992 430.581 928.393 424.598 932.152 400.044C933.036 394.268 940.537 394.184 945 392.564C956.18 388.506 980.464 389.063 987.517 378.945C995.202 367.92 984.7 357.073 985.099 346C985.332 339.514 990.537 335.118 988.682 328.039C987.322 322.85 981.059 320.809 980.697 315C980.31 308.796 986.769 302.598 988.931 297C991.709 289.811 992.56 275.682 991.656 268.001C990.728 260.118 980.381 252.221 973 251.286C956.07 249.141 938.731 251.883 922 255z"/>
</svg>
