<?xml version="1.0" standalone="yes"?>
<svg xmlns="http://www.w3.org/2000/svg" width="1414" height="1450">
<path style="fill:#010101; stroke:none;" d="M0 0L0 1450L1414 1450L1414 0L0 0z"/>
<path style="fill:#ffffff; stroke:none;" d="M726 237C722.126 245.989 716.178 253.713 709.714 260.996C706.924 264.139 702.078 266.984 700.618 271.039C698.92 275.758 700.799 282.779 699.919 288C697.917 299.882 692.596 311.921 692.259 324C692.033 332.095 695.729 339.897 692.411 347.961C688.712 356.953 675.617 360.964 670.109 369.039C664.351 377.479 670.868 385.772 667.698 393.791C663.699 403.909 656.19 416.662 650.035 425.999C647.558 429.756 641.974 432.664 640.777 437.039C639.366 442.198 642.95 450.704 643.728 456C644.596 461.907 642.319 468.496 643.677 473.996C646.409 485.056 662.523 487.994 672 488L671 501C678.572 502.656 679.658 507.48 684.379 512.83C689.17 518.26 694.461 522.823 698.452 529C702.095 534.638 703.839 541.427 709.105 545.87C716.171 551.83 731.076 555.393 735.068 564.004C737.624 569.518 730.873 580.088 730 586L754 585.52L767 580.935L789 581C787.835 575.355 782.948 565.54 784.546 560C786.291 553.947 794.862 548.927 800 546C799.176 539.919 794.699 537.274 793.317 531.957C791.506 524.989 794.567 517.116 792.683 510.17C791.24 504.852 785.56 502.167 785.879 496C786.679 480.528 799.035 464.53 805.752 451C808.704 445.054 810.502 437.39 814.649 432.184C817.57 428.518 822.241 426.918 825.363 423.482C828.875 419.617 830.607 413.714 832.691 409C836.919 399.438 831.525 381.526 841.184 376.028C853.99 368.739 873.142 375.063 885 380C890.358 370.818 888.015 365 888 355C887.978 340.83 887.217 323.848 890.393 310C892.58 300.462 900.275 297.343 906.606 291.24C911.535 286.49 921.154 267.712 921.696 261C922.937 245.632 904.694 246.301 899.027 236.787C893.825 228.054 899.412 214.716 892.486 206.301C883.088 194.882 866.753 196.553 854 194.561C836.833 191.88 820.961 182.677 803 184.174C789.071 185.334 782.409 191.878 772 200.561C768.756 203.267 763.464 205.504 761.317 209.213C756.21 218.037 756.558 245.289 740 243.062C735.173 242.412 730.464 238.859 726 237z"/>
</svg>
