<?xml version="1.0" standalone="yes"?>
<svg xmlns="http://www.w3.org/2000/svg" width="1414" height="1450">
<path style="fill:#010101; stroke:none;" d="M0 0L0 1450L1414 1450L1414 0L0 0z"/>
<path style="fill:#ffffff; stroke:none;" d="M350 415L361 432L311 446C315.689 458.18 309.645 460.917 303.843 471C300.298 477.159 301.274 484.173 296.521 489.985C282.363 507.296 263.21 496.835 246 504L246 505C256.533 509.539 266.154 518.134 270.381 529C272.387 534.156 271.89 541.106 274.938 545.7C278.587 551.197 287.137 555.853 293 558.601C302.004 562.822 317.612 563.651 325.682 556.752C331.321 551.932 327.801 542.664 339 543.798C346.883 544.596 356.32 547.345 363 551.684C367.763 554.778 371.475 559.649 377 561.467C384.401 563.902 392.373 558.781 399 561.488C410.562 566.211 417.255 577.468 431 578.428C436.223 578.793 440.093 574.305 445 573.135C462.717 568.91 480.145 563.131 498 559L498 558C467.748 553.923 464.174 500.172 491 489L498 500C503.953 495.807 508.42 489.976 514 485.326C518.051 481.95 523.523 479.742 526.084 474.907C531.367 464.931 531.095 453.141 535.781 443C539.518 434.913 544.295 415.469 535.656 408.603C533.221 406.668 529.879 407.098 527 406.482C524.028 405.847 521.107 404.29 518 404.574C502.043 406.032 500.155 423.162 488.985 431.363C476.351 440.638 461.606 442.729 454 458C444.241 449.01 438.59 436.592 431.876 425C429.46 420.83 427.921 415.048 424.363 411.699C415.807 403.647 405.625 410.027 396 410.606C389.113 411.021 385.264 404.105 379 403.82C370.762 403.446 357.203 411.211 350 415z"/>
</svg>
