<?xml version="1.0" standalone="yes"?>
<svg xmlns="http://www.w3.org/2000/svg" width="1414" height="1450">
<path style="fill:#010101; stroke:none;" d="M0 0L0 1450L1414 1450L1414 0L0 0z"/>
<path style="fill:#ffffff; stroke:none;" d="M514 853C505.534 846.949 499.168 855.949 492 860.641C486.992 863.919 480.891 863.782 476.09 866.858C467.088 872.625 457.973 882.656 450 890C450 875.728 461.197 865.589 456.402 851C455.59 848.53 454.278 844.714 451.61 843.693C448.334 842.44 443.374 844.504 440 844.83C431.676 845.636 420.733 841.167 413 843.742C407.369 845.617 403.018 851.021 398 854.073C393.17 857.012 385.731 858.046 381.637 861.728C366.86 875.017 350.821 904.451 362.525 924.999C366.943 932.754 372.636 931.319 378.667 936.089C381.549 938.368 379.311 941.66 381.067 944.312C384.698 949.798 393.289 949.999 399 950C397.857 955.892 396.46 960.184 401.059 964.957C404.886 968.928 413.86 970.708 413.656 977.015C413.294 988.228 408.293 999.671 398.985 1006.35C391.898 1011.44 383.884 1011.96 380.086 1021C373.841 1035.86 384.092 1052.34 372.581 1066.96C367.644 1073.23 354.676 1082.8 346 1080.43C339.04 1078.52 331.797 1069.97 324.004 1072.07C310.043 1075.84 313.22 1089.93 310.363 1100C308.3 1107.27 303.34 1113.48 302 1121C306.737 1123.46 309.416 1128.28 314.039 1130.69C328.15 1138.04 348.54 1137.97 347 1160C352.763 1160.74 357.586 1164.64 363 1165.27C369.258 1166 381.128 1162.71 387 1160.39C395.205 1157.15 398.563 1150.52 405.171 1145.56C412.115 1140.35 427.319 1136.1 436 1135.17C449.427 1133.74 451.958 1142.25 462.174 1147.35C469.279 1150.89 486.692 1142.84 491.682 1137.38C497.69 1130.82 489.384 1124.61 488.564 1118C487.904 1112.68 492.036 1096.44 494.971 1092.04C508.317 1072.02 531.764 1060.6 535 1035C540.222 1035.41 552.924 1038.89 556.443 1033.68C566.554 1018.72 553.772 1000.76 561.514 987C566.509 978.125 575.864 974.8 582.561 967.816C589.713 960.357 592.33 950.12 600.004 943.105C605.775 937.829 616.452 937.206 621.142 931.501C625.135 926.644 624 916.867 624 911C621.984 911.838 620.027 912.857 617.995 913.65C612.211 915.909 607.352 912.416 609.446 906.001C611.448 899.867 618.12 898.503 620 893L615 893C615.347 886.308 617.578 880.618 625 881C625.268 872.752 631.687 871.973 635.586 865.816C639.314 859.93 639.212 853.184 641.803 847C643.657 842.576 647.263 838.787 648.272 834C649.964 825.974 642.025 818.89 641 811L583 814L564 812.684L541 824.999L517.028 831.513L514 853z"/>
</svg>
