<?xml version="1.0" standalone="yes"?>
<svg xmlns="http://www.w3.org/2000/svg" width="1414" height="1450">
<path style="fill:#010101; stroke:none;" d="M0 0L0 1450L1414 1450L1414 0L0 0z"/>
<path style="fill:#ffffff; stroke:none;" d="M524 651C525.366 658.694 529.781 665.945 529.54 674C529.009 691.764 516.487 704.419 510 720L528 716.34L540 716.35L560 710.368L575 718L566 755C582.892 760.718 599.812 772.506 616.089 760.508C618.983 758.376 624.395 758.247 624.682 753.891C625.455 742.18 615.803 725.534 608.56 717.004C605.385 713.264 600.281 710.378 598.028 705.985C596.088 702.204 592.21 692.1 592.103 688C592.004 684.241 594.917 680.717 593.858 677.015C592.803 673.327 589.068 671.252 587.317 667.961C585.623 664.776 586.73 660.487 583.682 658.075C573.985 650.401 565.67 661.17 556 660.898C550.266 660.737 546.851 655.599 542 653.299C536.484 650.685 529.939 651 524 651z"/>
</svg>
