<?xml version="1.0" standalone="yes"?>
<svg xmlns="http://www.w3.org/2000/svg" width="1414" height="1450">
<path style="fill:#010101; stroke:none;" d="M0 0L0 1450L1414 1450L1414 0L0 0z"/>
<path style="fill:#ffffff; stroke:none;" d="M671 502C671.64 510.111 677.167 518.294 676.852 526C676.373 537.735 668.094 545.083 672.728 558C676.421 568.295 682.668 576.093 685.633 587C686.567 590.431 688.917 594.142 687.393 597.787C681.257 612.458 656.897 613.979 646.564 623.966C640.705 629.629 643.225 645.251 640 653L656 655C652.221 660.608 650.795 667.462 647.146 672.826C639.441 684.152 631.312 686.507 637.711 701.96C642.691 713.988 659.686 713.862 668.826 720.702C681.445 730.144 682.423 754.175 669 762L669 763C688.453 773.356 707.406 795.878 715 816C725.458 813.054 740.862 812.076 749.895 805.995C753.511 803.56 754.674 799.3 757.39 796.09C761.471 791.269 767.435 788.031 773 785.248C785.123 779.186 797.586 776.907 810 772.074C824.218 766.538 837.403 759.047 851 752.248C857.274 749.112 864.915 744.694 872 744.108C878.77 743.548 886.589 747.255 892.682 742.633C897.503 738.975 895.592 721.561 894.79 716C892.878 702.745 880.524 708.21 875.024 698.815C871.012 691.962 866.737 676.973 866.093 669C865.597 662.855 867.956 653.467 863.03 648.603C859.57 645.187 853.244 648.291 849 647.657C832.266 645.154 828.898 637.018 827 622C821.378 621.556 812.794 621.445 808.39 617.487C798.9 608.956 800.518 591.396 790.532 583.603C780.122 575.479 764.379 584.236 754 586.193C745.202 587.852 737.166 585.418 728 588C729.857 582.293 736.994 569.72 734.787 564.015C731.926 556.622 717.138 552.297 711.004 547.625C700.196 539.395 693.656 523.25 684.209 512.911C679.502 507.759 678.535 503.051 671 502z"/>
</svg>
