<?xml version="1.0" standalone="yes"?>
<svg xmlns="http://www.w3.org/2000/svg" width="1414" height="1450">
<path style="fill:#010101; stroke:none;" d="M0 0L0 1450L1414 1450L1414 0L0 0z"/>
<path style="fill:#ffffff; stroke:none;" d="M555 1037C550.898 1037 539.91 1034.73 536.742 1037.07C534.427 1038.78 535.311 1042.59 534.397 1044.99C532.613 1049.66 527.665 1057.43 524.86 1061.79C522.477 1065.49 517.378 1066.95 514.043 1069.68C509.278 1073.58 508.153 1079.26 504.363 1083.79C500.65 1088.23 495.223 1089.77 493.677 1096C492.201 1101.95 488.777 1111.87 489.303 1118C490.066 1126.87 499.277 1131.47 489.981 1139.19C484.984 1143.34 470.565 1150.78 464.015 1148.69C459.468 1147.24 457.495 1142.64 453.826 1139.97C447.882 1135.64 440.043 1135.22 433 1136.46C424.763 1137.92 412.244 1141.38 405.289 1145.94C396.783 1151.51 392.992 1160.16 382 1162.55C376.619 1163.71 368.418 1166.75 363 1165.81C359.001 1165.11 350.888 1158.14 347.013 1162.62C342.342 1168.02 342.946 1181.48 343.715 1188C345.663 1204.52 348.435 1216.17 356.796 1231C359.553 1235.88 364.683 1238.78 366.867 1244C375.573 1264.83 371.559 1291.23 382.263 1310.98C387.421 1320.5 398.696 1314.02 406.91 1319.73C417.527 1327.11 417.657 1343.8 428.105 1350.85C439.397 1358.47 459.139 1352.4 472 1354.8C480.045 1356.31 486.757 1358.39 494 1362.31C497.876 1364.4 502.311 1368.17 506.996 1366.93C513.484 1365.2 515.427 1358.22 518.312 1353C522.511 1345.4 531.592 1330.76 539.043 1326.42C545.42 1322.7 558.271 1322.1 559.413 1313C560.236 1306.44 555.085 1298.7 554.293 1292C553.49 1285.2 555.285 1278.92 553.789 1272C550.125 1255.05 541.969 1238.9 537.994 1222C535.429 1211.1 544.264 1199.24 543.985 1188C543.638 1174.02 534.589 1161.45 533.668 1148C532.524 1131.29 553.101 1123.01 557.363 1108C559.504 1100.46 557.612 1091.64 557.089 1084C556.024 1068.44 555 1052.6 555 1037z"/>
</svg>
