<?xml version="1.0" standalone="yes"?>
<svg xmlns="http://www.w3.org/2000/svg" width="1414" height="1450">
<path style="fill:#010101; stroke:none;" d="M0 0L0 1450L1414 1450L1414 0L0 0z"/>
<path style="fill:#ffffff; stroke:none;" d="M149 607C157.049 605.977 163.621 600.769 171 599.715C180.359 598.379 187.385 604.81 196 605.748C212.855 607.581 229.248 604.236 246 605.83C258.158 606.987 271.926 602.884 278.174 617C280.029 621.193 277.63 625.739 277.174 630C276.518 636.117 279.434 643.261 277.558 649C274.906 657.113 267.914 666.493 271 675C277.55 673.559 285.491 661.906 292.27 664.67C303.194 669.123 298.727 685.418 306.314 690.721C312.278 694.891 318.567 691.952 324.424 693.717C330.222 695.464 335.633 703.099 342.674 700.357C347.657 698.417 348.635 690.142 355.001 690.38C357.877 690.487 360.257 692.863 363 693.57C372.557 696.035 393.089 697.339 399 688L400 688C401.512 691.686 402.849 696.447 405.649 699.367C409.214 703.084 415.335 709.101 420.015 711.146C432.291 716.509 441.182 710.812 453 710.028C457.643 709.72 466.458 713.267 471 714.85C475.456 716.404 480.219 719.812 482.442 724.039C484.398 727.759 484.71 736.323 490.806 735.493C494.513 734.988 496.1 729.626 498.379 727.213C501.232 724.192 505.471 723.254 508.363 720.363C512.733 715.992 515.666 708.301 518.935 703C524.345 694.229 529.581 682.609 528.671 672C528.049 664.751 523.85 658.047 523.303 651C522.734 643.655 526.714 636.687 525.892 629C525.275 623.229 520.491 619.503 519.138 614C517.383 606.862 520.01 599.875 518.606 593C516.231 581.373 507.933 568.36 501 559C482.058 562.92 463.833 570.126 445 573.938C439.738 575.003 435.512 579.657 430 579.004C417.267 577.494 410.739 567.343 400 562.356C393.394 559.289 385.327 564.866 378 562.467C372.475 560.658 368.76 555.777 364 552.684C356.795 548.004 346.516 545.173 338 544.472C328.126 543.66 331.49 551.629 326.682 556.39C318.829 564.168 303.351 563.985 294 559.601C287.516 556.561 277.76 551.136 273.938 544.91C266.774 533.238 269.684 521.292 256.985 511.61C245.406 502.78 230.888 499.573 219.093 490.363C212.699 485.369 210.425 477.385 202.999 473.214C194 468.159 181.781 469.878 174.702 460.79C168.652 453.023 170.813 441.874 168 433C154.046 435.698 147.326 451.678 138 461C127.87 471.126 105.864 478.192 100.718 492.004C96.6716 502.866 110.912 511.586 114.312 521C119.012 534.016 112.842 548.972 118.032 561.911C120.479 568.013 128.131 571.783 132.1 577.001C138.896 585.932 143.73 597.098 149 607z"/>
</svg>
