<?xml version="1.0" standalone="yes"?>
<svg xmlns="http://www.w3.org/2000/svg" width="1414" height="1450">
<path style="fill:#010101; stroke:none;" d="M0 0L0 1450L1414 1450L1414 0L0 0z"/>
<path style="fill:#ffffff; stroke:none;" d="M520 404C525.693 405.301 533.604 405.164 537.427 410.059C547.73 423.246 535.673 442.641 532.651 456C531.125 462.743 529.772 471.256 525.351 476.816C518.325 485.651 506.209 492.791 498 501L491 490C464.897 497.519 471.916 538.283 486.904 553.487C490.08 556.708 495.144 556.26 498.961 558.303C504.541 561.29 508.591 568.366 510.985 574C513.668 580.312 519.124 588.17 519.698 595C520.26 601.696 515.861 615.47 523.228 619.972C526.731 622.113 533.142 621.124 537 620.572C543.125 619.695 550.542 619.229 555.787 615.637C559.184 613.311 559.89 609.261 562.637 606.43C565.263 603.724 569.601 603.283 573 602C569.972 591.252 565.152 579.959 563.326 569C561.503 558.066 563.625 547.842 559.921 537C557.214 529.075 547.947 514.369 551.604 506C558.233 490.834 568.541 505.026 576.686 498.975C584.114 493.457 576.262 483.656 577.236 477C578.965 465.185 596.542 459.078 595.33 447C594.793 441.639 593.842 429.466 589.567 425.843C580.577 418.226 571.39 424.811 569.684 409C568.216 395.385 577.381 384.56 579.409 372C579.967 368.543 581.829 361.559 579.933 358.418C577.671 354.67 569.849 353.14 566 351.6C555.818 347.527 541.893 343.875 536.607 358.039C534.507 363.667 537.156 369.01 534.243 375C529.802 384.131 521.797 394.043 520 404z"/>
</svg>
