<?xml version="1.0" standalone="yes"?>
<svg xmlns="http://www.w3.org/2000/svg" width="1414" height="1450">
<path style="fill:#010101; stroke:none;" d="M0 0L0 1450L1414 1450L1414 0L0 0z"/>
<path style="fill:#ffffff; stroke:none;" d="M399 689C391.755 697.429 374.168 697.209 364 694.57C360.608 693.69 357.702 690.363 354.015 690.88C347.991 691.725 347.276 699.659 341.907 701.226C334.253 703.46 328.609 692.385 322.09 694.458C318.494 695.601 316.782 700.146 313.826 702.272C310.96 704.335 307.083 704.239 304.39 706.564C299.436 710.842 297.121 719.511 293.56 725C291.305 728.477 285.491 732.709 285.302 737C285.035 743.066 290.153 752.306 291 759C302.656 756.225 315.959 758.884 327 763C318.661 782.382 329.197 801.8 334.363 820C335.723 824.793 333.72 830.483 336.028 834.985C338.335 839.486 343.66 841.476 345.973 846.004C348.126 850.219 346.768 855.531 348.6 859.826C350.67 864.681 362.692 873.034 368 873.191C376.015 873.428 377.16 864.568 382.213 860.728C386.57 857.416 393.156 856.44 398 853.663C403.205 850.679 407.458 845.463 413 843.179C417.749 841.222 424.068 843.573 429 843.911C436.823 844.446 444.338 843.444 452 842C452.686 833.115 461.934 834.795 467.606 830.034C472.002 826.344 473.868 818.196 476 813C471.938 811.103 467.952 808.895 464.015 806.738C442.824 795.122 470.313 775.758 477.66 766C483.446 758.315 488.341 746.229 491 737L485 736C482.964 720.894 476.327 717.945 463 713.779C459.756 712.766 456.507 710.381 453 710.603C442.313 711.28 435.417 716.164 424 713.1C411.936 709.863 406.022 697.691 399 689z"/>
</svg>
