<?xml version="1.0" standalone="yes"?>
<svg xmlns="http://www.w3.org/2000/svg" width="1414" height="1450">
<path style="fill:#010101; stroke:none;" d="M0 0L0 1450L1414 1450L1414 0L0 0z"/>
<path style="fill:#ffffff; stroke:none;" d="M346 79C343.809 84.6719 339.991 89.4261 337.864 95C335.498 101.201 336.025 108.269 332.03 113.895C328.312 119.132 321.424 120.124 318.278 126.043C313.704 134.65 314.973 145.227 310.573 154C307.564 159.997 302.169 164.342 298.664 170C294.578 176.594 293.401 184.363 288.907 191C282.115 201.031 272.667 209.03 265.774 219C260.866 226.099 261.243 234.977 257.012 241.816C254.238 246.297 248.73 248.455 245.699 253.015C243.386 256.495 241.783 263.622 237.775 265.397C231.116 268.347 224.294 262.384 220.104 257.961C210.466 247.787 194.074 213.492 175.43 229.966C169.192 235.478 167.819 253.084 164.808 261C161.999 268.386 156.983 273.173 153.558 280C151.134 284.832 150.727 290.323 147.881 295C144.299 300.887 138.694 305.753 135.768 312C132.198 319.619 137.555 327.763 133.618 335C127.557 346.142 106.069 358.188 111.111 374C115.423 387.523 124.133 382.488 132.829 388.603C147.584 398.979 156.407 415.409 174 423C167.525 431.196 167.738 455.299 177.225 462.756C184.762 468.681 194.079 467.785 202 472.214C216.101 480.098 222.167 497.426 239 502.556C246.448 504.825 250.09 499.841 257 499.101C271.863 497.509 287.333 504.794 297.656 487.996C300.5 483.368 299.983 477.781 302.31 473C307.984 461.343 315.334 458.851 310 445L359 431L349 415C356.914 411.305 369.999 402.705 379 403.365C385.211 403.82 389.074 410.188 396 409.786C405.97 409.208 415.867 402.988 424.61 411.418C437.497 423.845 438.961 447.044 454 457C463.422 441.87 478.369 440.424 490.83 429.61C497.227 424.058 499.015 414.85 505.213 409.638C509.645 405.911 516.089 405.64 519.676 400.787C525.724 392.604 531.705 381.626 535.034 372C536.476 367.83 534.658 364.091 535.407 360.001C536.352 354.845 543.598 349.644 548 347.41C556.401 343.145 572.878 353.85 581 357C581.007 347.701 586.161 346.555 589.436 338.961C593.48 329.585 586.148 318.216 598.039 312.434C605.329 308.889 617.144 313.266 623.366 308.972C631.037 303.678 629.487 291.569 635.419 285.39C639.621 281.013 646.032 281.454 650.7 278.146C655.864 274.486 657.356 267.5 662.213 263.703C665.674 260.997 670.045 261.233 672.276 256.942C674.033 253.564 675.898 244.017 672.397 241.175C669.86 239.116 666.138 239.931 663.637 237.486C660.788 234.7 658.815 229.656 657.352 226C653.018 215.172 656.948 195.448 661 185C653.139 180.338 647.963 170.455 639 168.059C630.61 165.817 622.181 174.74 614 175.31C605.07 175.933 598.309 168.363 590 167.575C582.13 166.828 574.929 173.791 567 173.352C559.36 172.928 550.276 170.133 543 167.783C538.746 166.41 534.675 163.376 530.044 165.048C525.899 166.544 525.356 170.723 522.582 173.61C519.855 176.449 516.204 177.855 513.709 181.043C510.645 184.959 510.801 189.88 508.143 193.826C502.408 202.341 488.874 203.725 480 200.78C466.842 196.412 451.452 180.777 452.275 166C453.028 152.465 461.674 135.359 451.272 122.515C438.649 106.927 413.925 102.989 396 97.5609C388.244 95.2124 381.515 90.4017 374 87.4637C365.039 83.9603 355.186 81.9891 346 79z"/>
</svg>
