<?xml version="1.0" standalone="yes"?>
<svg xmlns="http://www.w3.org/2000/svg" width="1414" height="1450">
<path style="fill:#010101; stroke:none;" d="M0 0L0 1450L1414 1450L1414 0L0 0z"/>
<path style="fill:#ffffff; stroke:none;" d="M301 1120C303.606 1113.73 307.511 1107.53 309.363 1101C312.439 1090.16 309.43 1077.51 323.004 1071.94C331.066 1068.64 338.758 1078.03 346 1079.93C353.989 1082.01 366.785 1073.59 371.581 1067.83C383.482 1053.55 372.928 1036.67 379.086 1022C383.377 1011.78 392.078 1011.24 399.91 1005.35C408.49 998.901 412.683 987.489 412.772 977.019C412.816 971.81 407.396 970.662 404 967.786C397.705 962.456 396.494 958.797 398 951L379 946C380.066 932.359 363.98 932.735 359.251 919C354.577 905.426 363.467 886.917 367 874C361.113 870.723 351.343 865.997 348.027 859.91C345.594 855.444 347.348 849.537 344.973 845.039C342.625 840.592 337.319 838.56 335.028 833.999C332.747 829.461 334.729 823.813 333.363 819C327.914 799.803 319.414 783.598 326 763C315.649 760.09 300.038 755.643 290 761C289.886 755.461 289.359 749.233 287.441 744C286.518 741.485 283.801 738.344 285.021 735.576C286.557 732.089 290.451 729.251 292.56 726C296.426 720.041 298.717 711.503 303.637 706.43C308.772 701.136 315.724 703.673 318 695C313.593 694.088 305.799 693.272 303.564 688.775C300.372 682.353 301.059 666.053 290.985 665.043C283.056 664.248 277.573 674.347 270 676C267.969 665.564 275.209 657.803 277.272 648C278.406 642.614 275.571 636.646 276.174 631C276.698 626.084 279.726 620.775 277.308 616.001C272 605.524 261.912 607.047 252 606.999C233.698 606.911 212.799 610.595 195 606.323C186.131 604.195 171.336 594.62 163.603 604.468C158.579 610.868 160.132 629.3 163.938 636C166.175 639.937 170.52 642.448 171.683 647C173.166 652.804 172.271 659.156 173.518 665C174.832 671.159 178.393 676.641 178.907 683C179.541 690.853 177.166 698.311 177.354 706C177.496 711.795 180.834 717.442 182.24 723C183.555 728.198 182.929 733.859 184.509 739C187.648 749.214 199.733 752.324 202.225 763C203.978 770.513 200.124 778.37 201.444 786C203.038 795.219 211.969 800.321 213.244 810C214.5 819.539 206.594 827.976 204.669 837C201.741 850.725 205.674 865.167 202.317 879C199.195 891.867 185.2 896.717 184.329 910C183.752 918.812 191.961 928.443 195.73 936C201.629 947.829 203.435 958.005 201.41 971C200.671 975.742 200.519 981.771 198.062 985.985C195.56 990.276 190.861 992.601 188.417 997.004C184.931 1003.28 184.67 1010.89 180.87 1017C177.083 1023.09 170.614 1028.64 169.179 1036C166.518 1049.64 186.473 1055.01 191.86 1064.09C195.855 1070.83 199.858 1087.22 198.492 1095C197.714 1099.43 194.074 1102.78 192.699 1107C190.37 1114.15 194.76 1124.12 198.966 1129.89C202.032 1134.1 207.748 1135.49 212 1138.24C217.733 1141.95 224.51 1150.87 232 1150.4C243.059 1149.7 245.045 1138.43 252.184 1132.64C258.356 1127.63 265.928 1127.96 273 1125.53C285.148 1121.35 287.186 1114.37 301 1120z"/>
</svg>
