<?xml version="1.0" standalone="yes"?>
<svg xmlns="http://www.w3.org/2000/svg" width="1414" height="1450">
<path style="fill:#010101; stroke:none;" d="M0 0L0 1450L1414 1450L1414 0L0 0z"/>
<path style="fill:#ffffff; stroke:none;" d="M909 723C909 733.499 911.531 753.342 923.174 757.852C934.203 762.124 946.956 757.503 958 760.637C966.755 763.122 978.257 773.069 984.362 779.43C995.108 790.627 981.546 804.667 981.194 816C980.919 824.887 982.183 836.92 986.049 845C989.172 851.526 993.967 855.487 995 863C1020.07 863.017 1015.79 887.835 1025.81 904C1030.2 911.08 1035.48 919.426 1045 918.815C1051.82 918.376 1067.7 916.56 1071.97 910.49C1074.66 906.673 1073.84 898.493 1074.04 894C1074.51 883.618 1075.76 863.109 1083.39 855.39C1094.1 844.567 1113.35 841.413 1125.79 832.648C1134.26 826.68 1131.7 813.657 1138.51 807.857C1142.57 804.404 1150.1 805.089 1155 803.467C1160.22 801.739 1170.41 794.958 1174.57 791.272C1178.73 787.581 1177.17 778.982 1180.35 774.058C1185.35 766.316 1203.98 771.109 1203.18 758.105C1202.87 753.166 1195.46 752.937 1192.85 749.606C1189.46 745.267 1190.67 738.788 1187.84 734.213C1185.68 730.733 1181.17 729.876 1178.57 726.787C1174.96 722.492 1177.54 713.34 1172.68 710.438C1167.74 707.488 1162.61 712.031 1158 713.363C1150.74 715.461 1142.87 716.655 1136 720.1C1128.64 723.79 1120.25 730.638 1111.04 727.508C1097.18 722.795 1102.73 696.526 1102.99 686C1103.12 680.599 1104.59 672.904 1097.98 671.103C1089.34 668.748 1080.05 681.943 1074 686.613C1057.56 699.306 1035.94 708.82 1017 717.204C993.442 727.632 976.086 709.281 954 708.043C937 707.09 925.42 720.787 909 723z"/>
</svg>
