<?xml version="1.0" standalone="yes"?>
<svg xmlns="http://www.w3.org/2000/svg" width="1414" height="1450">
<path style="fill:#010101; stroke:none;" d="M0 0L0 1450L1414 1450L1414 0L0 0z"/>
<path style="fill:#ffffff; stroke:none;" d="M867 672C869.57 679.899 871.54 692.741 876.024 699.471C879.426 704.577 886.187 702.887 890.606 705.988C896.735 710.289 896 720.53 896 727C905.215 724.001 915.282 721.949 924 717.742C931.562 714.092 939.388 707.534 948 707.043C962.819 706.199 974.88 716.884 989 719.432C1005.93 722.487 1025.3 713.538 1040 706.19C1054.22 699.08 1070.02 689.906 1082 679.576C1086.96 675.297 1092.65 667.896 1099.94 671.124C1105.45 673.561 1104.18 680.997 1103.96 686C1103.5 696.441 1098.64 719.421 1109.29 726.306C1112.48 728.371 1123.41 726.646 1127 725.411C1131.1 724.002 1134.02 720.354 1138 718.637C1146.95 714.778 1157.59 711.398 1167 709.14C1175.49 707.101 1184.9 712.137 1191 703C1201.94 711.085 1206.13 704.126 1217 703.055C1223.84 702.381 1231.15 700.278 1238 700.456C1241.93 700.558 1246.22 702.533 1249.94 700.527C1255.36 697.606 1253.62 691.949 1253.17 687C1252.28 677.13 1255.34 664.665 1250.27 655.318C1247.87 650.889 1238.08 653.935 1234 654.003C1222.35 654.198 1206.88 654.237 1200.3 641.961C1194.86 631.799 1194.5 615.151 1196.32 604C1197.92 594.249 1202.85 586.8 1197.9 577.001C1190.94 563.212 1169.65 571.576 1162.03 558.787C1159.63 554.758 1161.15 549.208 1158.98 545.004C1156.21 539.658 1149.97 536.888 1146.51 531.999C1143.97 528.412 1144.18 523.817 1141.86 520.213C1138.94 515.669 1131.79 515.669 1129.41 510.787C1127.57 507.018 1130.23 502.795 1130.59 499C1131.11 493.468 1129.17 487.251 1125.52 483.105C1119.88 476.703 1110.2 476.043 1103 472.096C1072.2 455.22 1043.82 446.66 1010 460.652C1003.77 463.23 997.709 463.874 992.104 468.093C974.802 481.119 984.348 514.889 985.478 533C986.151 543.78 975.439 548.598 973.264 558C969.731 573.269 977.191 587.746 971.893 603C966.178 619.453 944.479 634.849 928 639.208C923.41 640.422 918.714 638.232 914.039 640.032C909.438 641.805 906.487 646.475 902 648.722C897.472 650.99 892.53 650.359 888.015 652.367C878.631 656.541 877.651 667.883 867 672z"/>
</svg>
