<?xml version="1.0" standalone="yes"?>
<svg xmlns="http://www.w3.org/2000/svg" width="1414" height="1450">
<path style="fill:#010101; stroke:none;" d="M0 0L0 1450L1414 1450L1414 0L0 0z"/>
<path style="fill:#ffffff; stroke:none;" d="M982 835C981.721 828.503 979.064 820.351 980.688 814C983.182 804.249 991.278 792.59 985.543 782.058C983.655 778.591 980.023 777.93 977.17 775.571C973.413 772.466 971.081 768.029 966.911 765.352C957.398 759.245 947.548 761.96 937 760.714C929.865 759.872 917.478 756.535 913.603 765.326C911.784 769.454 913.975 784.18 917.728 786.958C920.294 788.857 924.096 786.747 927 788.067C930.769 789.781 933.403 793.543 937 795.637C942.476 798.823 951.208 799.725 954.987 805.213C961.705 814.971 944.297 823.372 955.059 832.721C962.295 839.008 973.554 836.591 982 835z"/>
</svg>
