<?xml version="1.0" standalone="yes"?>
<svg xmlns="http://www.w3.org/2000/svg" width="1414" height="1450">
<path style="fill:#010101; stroke:none;" d="M0 0L0 1450L1414 1450L1414 0L0 0z"/>
<path style="fill:#ffffff; stroke:none;" d="M701 1005C707.298 1004.2 714.697 1002.52 721 1003.48C739.128 1006.24 746.685 1025.29 747.91 1042C748.609 1051.54 748.425 1064.25 758.174 1069.99C770.514 1077.25 777.06 1064.1 786.004 1059.14C794.031 1054.68 805.964 1053.39 815 1053C818.161 1036.04 821.557 1017.28 819.829 1000C818.812 989.82 812.343 977.098 813.949 967C816.111 953.41 833.95 947.53 839.968 936.714C841.715 933.575 840.255 929.366 840.025 926C838.703 906.648 823.832 900.841 808 893C812.043 880.597 816.998 869.245 817 856C805.538 855.094 798.089 849.89 786 851.253C779.604 851.974 774.836 857.604 769 859.881C760.434 863.224 750.019 863.024 742 867.638C728.015 875.684 727.178 892.077 723.761 906C722.82 909.833 719.647 914.044 719.82 918C719.981 921.67 723.283 924.317 723.683 928C724.569 936.165 723.309 943.693 725.519 952C726.508 955.719 731.994 960.846 731.269 964.56C730.144 970.329 721 969.823 717.738 973.51C715.259 976.313 715.617 980.77 713.86 984C709.779 991.505 704.209 996.728 701 1005z"/>
</svg>
