<?xml version="1.0" standalone="yes"?>
<svg xmlns="http://www.w3.org/2000/svg" width="1414" height="1450">
<path style="fill:#010101; stroke:none;" d="M0 0L0 1450L1414 1450L1414 0L0 0z"/>
<path style="fill:#ffffff; stroke:none;" d="M925 917L918 940L955 953C952.936 959.453 946.819 972.144 948.777 978.826C950.39 984.332 960.613 989.331 965 992.627C976.372 1001.17 986.641 1008.18 999 1014.76C1005.72 1018.34 1010.86 1022.37 1019 1021.67C1035.41 1020.25 1044.66 1004.3 1060 1001C1061.04 987.829 1070.44 983.261 1074.4 972C1075.86 967.84 1073.92 963.265 1074.1 959C1074.66 946.485 1077.64 933.95 1088 926C1080.15 908.388 1069.22 914.578 1055 918.239C1050.41 919.421 1044.45 918.574 1040.29 921.024C1033.75 924.87 1030.31 932.398 1023 935.876C1016.29 939.071 1002.43 941.223 995 941.657C976.251 942.751 994.974 918.613 980.997 915.657C973.349 914.04 973.84 922.451 970.298 926.61C967.456 929.945 962.206 931.53 958 932.033C946.576 933.399 935.696 920.146 925 917z"/>
<path style="fill:#010101; stroke:none;" d="M1039 956C1033.55 956.064 1030.85 957.23 1028 962L1031 963C1025.46 966.999 1016.87 967.352 1011.22 963.03C1008.95 961.291 1008.16 957.85 1005.58 956.603C1000.63 954.206 983.033 952.142 978.044 954.371C963.754 960.757 985.802 979.037 991.609 984.487C995.501 988.139 1002.03 988 1007 988C1025.25 988 1042.72 975.162 1039 956z"/>
</svg>
