<?xml version="1.0" standalone="yes"?>
<svg xmlns="http://www.w3.org/2000/svg" width="1414" height="1450">
<path style="fill:#010101; stroke:none;" d="M0 0L0 1450L1414 1450L1414 0L0 0z"/>
<path style="fill:#ffffff; stroke:none;" d="M1313 759C1306.58 761.423 1295.74 767.394 1289 766.812C1283.21 766.312 1280 760.071 1274 760.348C1269.08 760.575 1264.84 763.422 1260 763.895C1235.46 766.295 1211.21 765.648 1187.02 770.29C1174.61 772.67 1182.22 787.556 1173.79 792.697C1168.18 796.115 1160.96 801.699 1155 804.121C1150.27 806.045 1142.51 805.033 1138.73 808.738C1132 815.334 1134.3 827.717 1124.96 833.648C1115.63 839.569 1104.89 844.301 1095 849.247C1090.04 851.725 1083.89 853.639 1081.48 859.043C1076.53 870.13 1075.5 885.026 1074.96 897C1074.78 901.074 1073.14 905.756 1074.32 909.787C1075.28 913.057 1084.93 921.628 1088.09 922.748C1092.28 924.232 1098.01 918.681 1101 916.331C1110.29 909.029 1117.73 900.375 1130 898.326C1134.51 897.572 1139.78 899.034 1144 896.976C1153.08 892.546 1159.24 883.836 1169 879.93C1175.14 877.472 1181.85 873.33 1188 871.513C1192.03 870.322 1195.98 871.775 1199.39 868.682C1206.21 862.478 1217.04 852.572 1221.93 844.911C1225.08 839.959 1224.35 830.52 1229.28 827.14C1240.95 819.135 1262.53 821.24 1276 817.281C1282.4 815.401 1287.12 809.655 1292 805.424C1307.54 791.946 1317.03 780.116 1313 759z"/>
</svg>
