<?xml version="1.0" standalone="yes"?>
<svg xmlns="http://www.w3.org/2000/svg" width="1414" height="1450">
<path style="fill:#010101; stroke:none;" d="M0 0L0 1450L1414 1450L1414 0L0 0z"/>
<path style="fill:#ffffff; stroke:none;" d="M816 1053L938 1036.84L965 1024.31L990 1012C979.795 1004.66 970.056 996.669 960 989.127C956.437 986.454 950.001 983.252 948.328 978.91C945.945 972.726 952.064 960.055 954 954L917 941C919.867 933.611 922.44 926.904 923.572 919C924.778 910.577 923.452 902.631 931.184 896.699C943.081 887.572 963.222 886.619 977 880.575C982.368 878.22 990.265 874.735 992.517 868.907C996.444 858.745 990.039 853.227 985.557 845C984.191 842.492 983.796 837.825 980.721 836.773C970.243 833.188 961.184 841.656 952.318 829.995C945.759 821.368 962.434 811.924 952.772 803.649C948.976 800.399 943.362 799.485 939 797.176C932.2 793.576 925.341 783.639 916.637 790.013C913.557 792.269 912.26 797.082 909.787 800C904.744 805.951 896.547 810.962 893.028 818C888.915 826.225 888.124 836.69 883.972 845C881.121 850.705 874.791 854.159 872.013 860C868.785 866.787 867.055 877.5 864.598 885C861.049 895.834 862.78 907.887 856.985 918C848.876 932.148 835.042 939.904 824.576 952C821.028 956.101 815.999 960.484 814.739 966C812.419 976.163 819.792 990.621 820.829 1001C822.555 1018.26 818.155 1035.96 816 1053z"/>
</svg>
