<?xml version="1.0" standalone="yes"?>
<svg xmlns="http://www.w3.org/2000/svg" width="1414" height="1450">
<path style="fill:#010101; stroke:none;" d="M0 0L0 1450L1414 1450L1414 0L0 0z"/>
<path style="fill:#ffffff; stroke:none;" d="M1040 919C1030.72 913.824 1021.81 902.315 1018.65 892C1015.84 882.817 1018.04 871.359 1007.91 865.839C995.78 859.235 991.906 872.449 983 877.935C967.455 887.51 948.976 887.895 933.093 896.055C927.154 899.106 923.381 907.22 925.318 913.787C926.515 917.845 932.65 919.928 936 921.85C945.982 927.58 955.249 935.458 966.945 928.583C972.61 925.253 971.97 913.824 980.004 914.799C995.657 916.698 980.73 930.98 988.303 938.513C993.34 943.523 999.253 939.496 1005 938.286C1020.47 935.031 1031.24 934.229 1040 919z"/>
</svg>
