<?xml version="1.0" standalone="yes"?>
<svg xmlns="http://www.w3.org/2000/svg" width="1450" height="1114">
<path style="fill:#010101; stroke:none;" d="M0 0L0 1114L1450 1114L1450 0L0 0z"/>
<path style="fill:#ffffff; stroke:none;" d="M867 180C862.047 186.87 857.473 188.688 850 192L854.748 204L854.854 217L869 248L859 249C865.184 265.057 864.123 285.528 887 286C887.622 294.012 898.054 296.872 898.092 306C898.157 321.942 883.22 333.398 880 349L944 333L940.593 291.209L927.731 265L930 224C925.524 224.04 920.31 226.055 916.004 224.693C912.125 223.466 909.973 219.127 905.961 218.488C902.493 217.935 897.725 220.869 894.703 218.307C891.458 215.556 891.133 208.79 889.536 205C884.868 193.929 878.939 182.464 867 180z"/>
</svg>
