<?xml version="1.0" standalone="yes"?>
<svg xmlns="http://www.w3.org/2000/svg" width="1450" height="1114">
<path style="fill:#010101; stroke:none;" d="M0 0L0 1114L1450 1114L1450 0L0 0z"/>
<path style="fill:#ffffff; stroke:none;" d="M841.015 21.6921C833.254 23.8375 828.648 39.8755 824.397 45.895C820.486 51.4336 810.694 51.7202 810.478 59.9614C810.296 66.8773 823.962 74.3024 827.085 81C830.348 87.9984 829.934 96.0322 832.839 103C834.769 107.627 838.807 111 840.022 116C841.382 121.603 838.026 126.542 841.368 131.895C845.711 138.852 854.456 139.669 859.3 145.133C863.688 150.084 858.96 152.738 859.915 158C860.587 161.701 863.781 164.725 865.446 168C870.645 178.222 872 184.27 885.996 180.556C890.374 179.395 891.755 176.282 895.209 173.853C898.821 171.313 903.439 170.993 906.397 167.33C908.536 164.681 907.761 161.1 908.637 158C910.993 149.668 913.118 138.807 911.305 130C909.709 122.247 904.369 116.105 903.235 108C901.979 99.0192 911.621 92.9746 905.442 84C902.466 79.6771 897.714 72.0822 892.816 69.8896C885.823 66.7599 877.029 67.4913 871.699 60.787C867.647 55.6897 866.288 46.3503 866.129 40C866.053 36.9696 867.985 32.3833 865.968 29.7277C863.605 26.6154 856.476 26.2505 853 24.6404C849.272 22.9136 845.292 20.51 841.015 21.6921z"/>
</svg>
