<?xml version="1.0" standalone="yes"?>
<svg xmlns="http://www.w3.org/2000/svg" width="1450" height="1114">
<path style="fill:#010101; stroke:none;" d="M0 0L0 1114L1450 1114L1450 0L0 0z"/>
<path style="fill:#ffffff; stroke:none;" d="M421 390C422.925 396.06 425.216 403.564 424.44 410C423.933 414.205 421.059 417.734 420.558 422C419.791 428.529 420.229 435.776 416.012 441.581C410.596 449.036 390.116 445.73 396.036 461.985C400.314 473.731 407.541 465.668 414.91 466.163C418.069 466.375 420.499 470.675 422.072 473C426.017 478.83 423.897 484.662 425.724 490.999C427.938 498.679 441.987 507.198 450 506.425C461.715 505.294 462.448 495.044 466.554 487C469.053 482.103 472.809 479.17 476.676 475.487C479.035 473.24 481.235 468.938 485.015 469.161C490.871 469.507 495.22 477.263 500 480C502.155 471.036 507.353 463.407 508.787 454C509.524 449.164 508.562 442.174 513.394 439.027C521.588 433.69 530.835 440.109 539 440.49C544.458 440.744 549.322 438.4 555 439L559 457C567.114 456.143 576.543 459.727 581.566 450.675C584.777 444.891 581.539 433.948 588.144 430.183C591.696 428.158 596.174 430.082 600 429.895C609.411 429.436 616.227 426.208 622 419L622 418C612.952 406.562 605.239 405.514 593 399.088C586.657 395.758 580.611 391.041 573 391.522C565.801 391.977 562.44 397.316 555.999 398.845C551.812 399.839 548.221 396.826 544 398.457C535.701 401.662 525.934 404.511 518 408.374C513.962 410.34 508.851 415.172 504.285 415.442C501.041 415.634 497.94 411.988 495 410.864C482.639 406.14 474.139 400.438 471 386C458.857 389.95 452.949 383.44 441 383.263C434.506 383.167 426.788 387.293 421 390z"/>
</svg>
