<?xml version="1.0" standalone="yes"?>
<svg xmlns="http://www.w3.org/2000/svg" width="1450" height="1114">
<path style="fill:#010101; stroke:none;" d="M0 0L0 1114L1450 1114L1450 0L0 0z"/>
<path style="fill:#ffffff; stroke:none;" d="M1199 413C1202.66 414.465 1205.16 415.817 1204 420C1209.64 422.051 1226.39 425.016 1232 422.926C1237.4 420.912 1241.42 415.93 1247 414.225C1252.46 412.557 1259.84 414.453 1264.62 411.062C1271.33 406.308 1273.55 394.926 1280.89 390.994C1283.59 389.548 1286.36 392.389 1289 392.755C1292.27 393.21 1294.6 390.945 1297 389.094C1302.12 385.146 1310.96 380.788 1317 378.603C1324.46 375.902 1337.91 378.197 1329 366C1332.93 364.969 1339.98 368.058 1341.97 363.768C1346.75 353.471 1334.27 339.727 1330.34 330C1327.85 323.846 1332.35 317.272 1331.34 311C1329.22 297.904 1321.5 288.39 1314.53 278C1312.59 275.108 1314.35 269.299 1311.52 267.564C1297.63 259.044 1298.25 282.337 1288.96 283.852C1278.96 285.481 1270.99 274.092 1261.02 279.943C1253.67 284.251 1257.27 291.252 1254.4 297.787C1253.02 300.914 1248.99 301.354 1247.61 304.39C1245.95 308.032 1248.6 312.226 1248.06 316C1247.33 321.183 1243.82 329.2 1241.57 334C1237.66 342.324 1229.61 344.014 1223.44 349.43C1219.8 352.621 1217.79 357.587 1213.83 360.397C1210.72 362.598 1206.52 361.532 1204.32 365.148C1201.51 369.764 1203.01 377.805 1203 383C1202.98 393.69 1201.9 402.872 1199 413z"/>
</svg>
