<?xml version="1.0" standalone="yes"?>
<svg xmlns="http://www.w3.org/2000/svg" width="1450" height="1114">
<path style="fill:#010101; stroke:none;" d="M0 0L0 1114L1450 1114L1450 0L0 0z"/>
<path style="fill:#ffffff; stroke:none;" d="M203 920L199 921L169 950L180 961C173.253 961.936 164.083 974.051 164 981L160 982L157 990L157 991C161.506 991.946 164.608 992.899 167 997C161.633 997.015 149.073 996.858 147 1002L154 1008L159 1008L151 1014L151 1016C158.403 1022.35 154.448 1026.2 147 1029C151.549 1034.32 158.107 1030.67 164 1029L162 1020L179 1014.18L188.996 1013.64L198.209 1004.85L208 999C218.322 1005.72 226.984 1015.7 235.306 1025.41C238.059 1028.63 238.489 1033.38 241.637 1036.34C245.62 1040.09 249.259 1037.54 250 1033L266 1037C263.22 1023.52 262.228 1015 253.926 1003.14C251.456 999.617 242.874 999.231 242.613 994.34C242.437 991.06 247.394 992.596 249 993C252.306 986.013 252.787 982.238 250 975L255 976L257 971L229 963L230 950C223.645 948.173 221.371 941.694 219 936L207 941C204.968 936.211 203.332 934.177 198 934L203 920M38 994L40 997L35 1001L46 1002L47 995L38 994M139 1029L146 1027L146 1020L139 1029M84 1040L86 1055L82 1057L83 1060L77 1061L89 1079L80 1083L81 1086C85.9621 1084.5 100.712 1078.68 102.825 1073.83C104.097 1070.9 100.597 1068.64 100.066 1065.96C98.5536 1058.31 104.198 1051.67 92 1051L93 1046L84 1040M125 1045L129 1049L128 1045L125 1045M42 1050L37 1056L37 1057C41.2954 1056.8 44.5744 1056.4 46 1052L42 1050z"/>
</svg>
