<?xml version="1.0" standalone="yes"?>
<svg xmlns="http://www.w3.org/2000/svg" width="1450" height="1114">
<path style="fill:#010101; stroke:none;" d="M0 0L0 1114L1450 1114L1450 0L0 0z"/>
<path style="fill:#ffffff; stroke:none;" d="M944 200C955.459 196.865 972.641 185.677 980.277 176.406C986.464 168.894 987.611 163.115 997 157.85C1006.06 152.769 1011.54 162.599 1018.83 160.553C1025.17 158.773 1027.95 148.297 1033.17 144.603C1036.93 141.948 1041.73 144.26 1045.49 141.976C1053 137.406 1053.83 130.805 1059.07 125.005C1062.87 120.809 1068.57 119.969 1072.16 116.272C1074.48 113.881 1075.31 109.823 1077.09 107C1080.19 102.105 1084.33 97.9462 1085.29 92C1086.73 83.0269 1076.74 71.252 1070.83 65.4244C1067.7 62.3414 1064.54 57.442 1060.7 55.3218C1053.98 51.6152 1045.47 59.8892 1039 61.2732C1031.6 62.8582 1025.04 58.401 1018 58.1945C1010.57 57.9766 1002.25 62.574 995 61.0107C988.628 59.6359 987.426 51.9247 981.815 50.3179C966.96 46.0642 952.984 48.96 939 39.7507C932.21 35.2791 929.784 23.8461 922.895 21.0325C912.705 16.871 909.228 26.2554 900.985 27.5718C897.092 28.1936 893.339 24.3965 890 22.905C883.705 20.0929 871.981 22.6251 868.589 29.3904C864.787 36.9716 866.849 56.3627 873.418 62.0339C879.173 67.0016 886.7 65.9999 892.907 69.3171C898.117 72.1022 905.082 81.7532 907.679 87C911.1 93.9123 903.513 99.2404 903.677 106C903.91 115.633 911.613 122.9 912.359 132C912.751 136.79 913.004 145.347 912.189 150C911.302 155.068 907.723 159.307 909.318 164.79C910.592 169.172 916.634 170.83 919.787 173.609C922.569 176.061 923.672 179.729 926.39 182.211C933.633 188.825 939.755 190.148 944 200z"/>
</svg>
