<?xml version="1.0" standalone="yes"?>
<svg xmlns="http://www.w3.org/2000/svg" width="1450" height="1114">
<path style="fill:#010101; stroke:none;" d="M0 0L0 1114L1450 1114L1450 0L0 0z"/>
<path style="fill:#ffffff; stroke:none;" d="M1087 89L1074 118C1057.07 120.282 1058.08 135.648 1044.82 142.976C1040.95 145.111 1036.11 142.805 1032.46 145.603C1027.82 149.165 1024.39 160.053 1018.39 161.27C1015.62 161.83 1012.52 158.54 1010 157.702C1005.12 156.078 999.304 156.818 995 159.468C986.549 164.67 986.625 171.065 980.502 177.201C971.297 186.424 956.07 196.309 944 201C939.386 189.977 931.477 189.105 924.637 180.816C920.754 176.11 915.546 167.136 908 168.121C897.378 169.508 889.66 180.241 879 183L890.931 207L895.513 217.883L905.985 217.889L916.015 224.042L931 223L928.649 267L941 297C947.597 292.14 948.14 282.904 955.005 278.938C962.866 274.396 970.904 281.459 979 280.395C993.404 278.503 1020.42 250.141 1029 271C1039.74 267.577 1041.75 259.328 1049.17 252.133C1051.49 249.884 1055.86 248.725 1057.25 245.722C1058.62 242.764 1056.51 239.21 1058.12 236.419C1060.08 232.999 1067.54 229.685 1070.63 226.227C1077.94 218.057 1091.26 218.179 1097 227L1107 224L1108 232L1122 234.226L1144.1 218.514L1177.3 187.485L1182.32 176.419L1203 167C1210.24 173.088 1233.12 173.215 1233.85 159.996C1234.23 153.04 1228.34 145.033 1226.89 138C1225.27 130.148 1228.3 121.966 1226.32 114.015C1225.14 109.292 1221.22 107.769 1219.03 103.826C1216.05 98.4736 1213.97 92.6093 1210.78 87C1207.86 81.8665 1212.53 73.9524 1207.35 69.6473C1203.63 66.561 1189.47 74.4371 1184 74.358C1174.75 74.2242 1176.34 61.7872 1168.95 61.3179C1163.41 60.9668 1151.15 63.5023 1148.74 69.108C1145.48 76.6969 1147.68 90.3943 1137.9 94.3966C1132.29 96.6908 1117.93 101.682 1112.01 100.236C1107.32 99.0905 1105.68 94.4852 1101.83 92.1396C1097.71 89.6366 1091.68 89.5918 1087 89z"/>
</svg>
