<?xml version="1.0" standalone="yes"?>
<svg xmlns="http://www.w3.org/2000/svg" width="1450" height="1114">
<path style="fill:#010101; stroke:none;" d="M0 0L0 1114L1450 1114L1450 0L0 0z"/>
<path style="fill:#ffffff; stroke:none;" d="M440 382C452.282 384.314 459.579 389.04 472 385C473.277 400.485 483.138 404.908 495 410.275C498.205 411.725 501.207 415.269 505 414.703C511.313 413.76 516.835 407.7 523 405.775C529.872 403.629 539.256 402.843 544.393 397.096C549.448 391.439 541.003 383.814 539.028 379C537.642 375.622 538.52 369.64 538.814 366C539.126 362.147 538.662 352.368 540.269 349.274C543.91 342.26 553.947 338.859 557.973 332.61C561.749 326.748 560.663 321.945 567 317C563.465 304.303 575.004 308.804 578 298L587 301C589.46 287.944 586.027 278.906 599 272C597.626 265.341 593.388 254.715 595.782 248.043C597.53 243.168 603.587 242.71 603.926 236.985C604.334 230.087 599.18 224.603 598.214 218C597.525 213.294 600.726 206.596 597.972 202.418C596.138 199.635 591.684 198.598 589 196.776C580.784 191.199 569.626 186.474 562.213 180.351C556.991 176.038 555.439 158.072 547.985 158.306C536.489 158.668 537.698 173.389 535.092 179.892C532.611 186.083 523.834 183.986 520.8 190.055C515.901 199.855 521 210.49 514.006 219.775C507.848 227.953 494.066 221.41 486.43 228.649C481.742 233.093 478.933 249.898 480.667 256C481.782 259.927 487.615 264.533 485.839 268.826C481.5 279.316 465.652 281.584 463.725 295C462.288 305 480.299 313.19 475.323 325.985C472.731 332.65 463.967 336.366 459.279 341.428C455.959 345.013 456.135 349.836 453.95 354C448.86 363.701 440.944 370.455 440 382z"/>
</svg>
