<?xml version="1.0" standalone="yes"?>
<svg xmlns="http://www.w3.org/2000/svg" width="1450" height="1114">
<path style="fill:#010101; stroke:none;" d="M0 0L0 1114L1450 1114L1450 0L0 0z"/>
<path style="fill:#ffffff; stroke:none;" d="M1228 191L1227 191C1224.76 194.631 1218.41 201.728 1222.03 206.258C1225.24 210.286 1238.15 209.894 1233.64 219C1231.72 222.873 1226.5 231.179 1222.85 233.471C1217.79 236.647 1209.97 237.593 1205.64 241.588C1199.78 246.995 1195.17 260.451 1193 268C1206.72 276.71 1192.99 283.026 1189.12 292.004C1187.39 296.003 1190.24 300.523 1192 304C1208.86 298.73 1201.3 320.143 1206.73 326.867C1211.31 332.543 1218.26 330.22 1223.96 333.178C1227.7 335.121 1231 341.539 1235.98 339.759C1241.49 337.789 1241.47 330.53 1243.35 326C1244.7 322.737 1247.04 319.583 1247.44 316C1247.83 312.385 1245.37 308.65 1246.64 305.105C1247.96 301.431 1252.53 300.727 1253.7 296.895C1254.95 292.783 1253.69 287.072 1256.03 283.39C1266.01 267.702 1280.42 289.353 1291.58 281.972C1295.12 279.635 1301.57 267.081 1300.96 263C1300.24 258.304 1296.49 252.921 1297.92 248.043C1299.81 241.563 1311.11 239.868 1315.36 234.7C1316.63 233.162 1317.91 231.08 1317.76 228.999C1317.51 225.609 1314.13 223.284 1313.32 220C1311.99 214.643 1317.11 205.495 1314.29 201.39C1309.87 194.943 1302 198.881 1296 197.603C1289.99 196.323 1285.91 190.88 1280 189.419C1271.96 187.431 1261.97 190.736 1254 192.081C1246.05 193.424 1232.87 199.678 1228 191z"/>
</svg>
