<?xml version="1.0" standalone="yes"?>
<svg xmlns="http://www.w3.org/2000/svg" width="1450" height="1114">
<path style="fill:#010101; stroke:none;" d="M0 0L0 1114L1450 1114L1450 0L0 0z"/>
<path style="fill:#ffffff; stroke:none;" d="M655 284C658.407 295.828 671.235 312.543 684 312.12C687.728 311.996 693.201 314.609 695.821 310.682C698.446 306.748 696.187 300.359 696 296C702.984 299.174 701.036 304.378 704.89 309.895C709.889 317.053 722.509 323.856 731 325L725 348C739.132 347.708 748.769 341.95 754 358C760.315 355.256 768.045 352.789 770.914 345.999C772.613 341.979 771.67 337.819 774.147 334C779.928 325.092 787.83 315.416 779.767 305.148C775.67 299.93 770.417 303.569 765 303.093C760.757 302.719 749.887 299.516 746.015 297.427C741.27 294.867 728.612 282.964 730.644 277.093C732.422 271.954 740.059 270.942 738.476 264.143C737.599 260.376 733.04 260.755 730.649 258.436C727.701 255.578 725.312 249.049 725.148 245C724.501 229.02 739.927 222.392 751 215.681C758.383 211.207 766.972 210.746 763.442 200.043C758.978 186.508 737.242 198.821 729 202C728.373 198.464 729.832 192.543 727.958 189.61C726.248 186.934 722.587 185.864 720.39 183.621C714.144 177.245 704.222 165.385 701.032 156.961C697.139 146.682 704.745 136.326 702.916 126C701.848 119.972 697.985 116.466 696.027 111C694.874 107.783 696.6 104.397 694.393 101.464C690.582 96.3991 683.698 93.0432 679.043 88.7137C676.37 86.2279 674.655 82.2775 671.61 80.3032C668.212 78.0999 663.632 78.1357 660 76.3195C652.441 72.54 648.252 65.8728 639.004 67.7732C626.4 70.3632 627.174 84.7125 623.387 94C620.84 100.246 614.956 104.013 609 106.651C604.975 108.434 598.304 110.986 594 109.186C588.191 106.756 583.478 99.597 576.213 101.357C568.215 103.295 567.53 121.987 562.351 127.582C557.583 132.732 550.521 132.261 547.993 140.001C544.782 149.834 549.41 154.493 553.861 162.093C557.172 167.747 556.822 175.569 562.39 180.006C565.985 182.87 571.042 183.656 575 185.954C580.068 188.898 584.056 193.32 589 196.441C592.027 198.351 596.96 199.243 598.971 202.394C601.279 206.008 598.947 211.968 599.019 216C599.156 223.675 606.676 231.296 604.678 238.895C603.64 242.843 599.174 243.23 597.18 246.39C594.564 250.536 596.663 266.871 600.564 270.012C607.462 275.564 611.624 268.179 617.04 265.654C621.799 263.434 629.507 264.332 633.995 266.938C644.537 273.06 637.544 289.88 655 284z"/>
</svg>
