<?xml version="1.0" standalone="yes"?>
<svg xmlns="http://www.w3.org/2000/svg" width="1450" height="1114">
<path style="fill:#010101; stroke:none;" d="M0 0L0 1114L1450 1114L1450 0L0 0z"/>
<path style="fill:#ffffff; stroke:none;" d="M658 294C651.438 300.871 654.823 308.704 655 317L664 315C665.506 322.177 670.418 324.829 673.428 331.004C677.891 340.161 674.052 348.547 686 352L682 365C696.582 369.096 709.9 356.648 725 356L729.848 329.109L722 323.147L704.572 309.957L697 297C697.18 301.191 698.749 305.927 696.99 309.941C694.478 315.674 689.647 312.846 685 312.699C674.194 312.359 665.066 302.365 658 294z"/>
</svg>
