<?xml version="1.0" standalone="yes"?>
<svg xmlns="http://www.w3.org/2000/svg" width="1450" height="1114">
<path style="fill:#010101; stroke:none;" d="M0 0L0 1114L1450 1114L1450 0L0 0z"/>
<path style="fill:#ffffff; stroke:none;" d="M779 220C774.288 218.025 769.502 211.812 764.911 210.982C759.935 210.083 753.002 214.901 749 217.305C738.014 223.902 724.793 230.387 726.109 246C726.435 249.866 728.31 255.618 731.418 258.147C734.298 260.49 738.728 260.489 739.262 265.018C740.174 272.768 725.71 275.717 732.858 284.363C740.903 294.093 750.933 299.177 763 302.231C772.612 304.665 780.367 297.7 783.868 312C786.145 321.3 777.342 327.65 773.988 335C771.442 340.583 772.7 345.709 768.239 350.856C765.179 354.387 757.882 354.325 756.418 359.058C754.003 366.87 765.75 371.332 769.891 375.301C774.401 379.622 772.669 383.836 774.742 388.957C776.868 394.207 786.032 400.683 791 403L791 397C795.793 400.499 798.842 400.64 804 397.536C818.362 388.892 831.454 381.801 847 375.283C852.571 372.948 860.886 372.396 863 366C855.083 367.335 848.761 368.256 849 358C844.814 355.58 839.177 348.393 842.043 343.213C844.506 338.763 849.101 338.686 850 333L846 330C849.94 328.416 849.953 325.986 850 322L853 326L857 322L858 322L855 351L860 351L854 364C862.655 362.597 875.231 354.817 879.348 346.867C881.791 342.15 882.079 336.619 884.994 332.004C890.085 323.943 898.456 315.863 897.425 305C896.603 296.337 887.192 294.309 886 287C863.677 285.221 864.106 263.855 858 248L868 247C866.166 237.543 863.095 221.825 852.826 217.603C847.437 215.388 841.319 220.336 836.279 216.896C829.552 212.305 830.078 201.937 818.185 204.407C812.845 205.517 812.497 213.29 806.96 214.678C795.466 217.56 786.659 204.763 779 220z"/>
</svg>
