<?xml version="1.0" standalone="yes"?>
<svg xmlns="http://www.w3.org/2000/svg" width="1450" height="1114">
<path style="fill:#010101; stroke:none;" d="M0 0L0 1114L1450 1114L1450 0L0 0z"/>
<path style="fill:#ffffff; stroke:none;" d="M512 675C508.581 669.445 502.504 671.963 497 673L497 689C495.063 688.211 493.051 687.118 490.996 686.678C477.954 683.884 489.417 711.118 473 710.73C470.237 710.665 467.546 708.935 465 708C457.957 724.911 447.119 712.538 435 719.368C425.366 724.798 418.275 738.727 407 739C407.104 751.544 402.441 759.92 400.171 772C398.974 778.367 401.348 784.068 400.637 789.985C399.967 795.549 391.567 797.581 393.137 804C395.629 814.196 402.751 813.688 408.57 819.434C412.766 823.576 411.502 844.23 424.772 834.837C428.051 832.516 428.249 828.322 430.069 825.039C436.559 813.339 435.404 798.228 447.185 788.638C455.935 781.516 463.314 784.204 473 785.077C476.31 785.376 478.763 783.617 482 785.333C486.694 787.822 492.333 797.081 498.681 795.048C502.309 793.886 499.409 785.081 500.019 782C501.821 772.906 507.394 767.92 510.084 760C511.434 756.026 508.026 751.627 509 747L512 748C516.572 736.598 531.871 738.512 536.941 727.96C538.776 724.139 538.645 719.869 540.302 716C542.628 710.566 547.958 704.079 548.076 698C548.205 691.366 541.332 688.281 545.382 681.015C549.227 674.117 556.922 668.493 561.686 662C563.735 659.208 565.097 654.275 560.852 652.643C552.037 649.254 542.722 658.577 536.791 663.035C530.345 667.879 519.68 672.751 512 675z"/>
</svg>
