<?xml version="1.0" standalone="yes"?>
<svg xmlns="http://www.w3.org/2000/svg" width="1450" height="1114">
<path style="fill:#010101; stroke:none;" d="M0 0L0 1114L1450 1114L1450 0L0 0z"/>
<path style="fill:#ffffff; stroke:none;" d="M448 544L428 540C423.798 549.613 414.484 554.933 414 566C409.065 561.066 401.939 557.053 397.652 551.787C394.346 547.726 395.185 541.322 391.348 537.727C382.131 529.092 364.883 525.749 353 523C347.819 545.6 317.07 556.042 297 562.66C282.311 567.503 270.986 568.566 265 584L276.347 595L280.318 603.958L294 603C295.388 609.77 292.344 614.399 292.109 621C291.954 625.332 294.595 628.781 294.853 633C295.08 636.726 292.492 642.202 295.603 645.258C297.761 647.377 301.367 646.8 304 647.937C310.575 650.775 315.536 656.128 323 657.286C326.227 657.787 330.623 654.601 333.4 656.847C337.992 660.561 333.988 668.374 336.117 672.83C341.927 684.989 364.381 692.357 377 692.179C381.524 692.115 385.083 687.668 389 685.85C391.65 684.621 395.113 685.335 397.502 683.887C400.056 682.338 400.604 678.819 403.214 677.14C408.215 673.921 416.329 674.774 422 675.019C429.037 675.324 428.996 681.011 434.274 683.397C437.37 684.796 440.839 683.097 444 683.889C448.367 684.984 451.311 689.656 455 692.031C463.06 697.219 472.164 696.129 467 708C474.339 712.303 481.771 708.52 483.297 700C485.009 690.445 482.746 682.637 496 688L496 672C501.969 671.528 507.619 668.869 512 674C526.541 670.949 535.855 658.738 549 653.954C553.395 652.354 562.639 648.808 564.248 656.019C565.059 659.65 561.239 662.555 559.208 665C552.884 672.614 535.227 688.22 551 696C552.222 692.137 552.295 687.555 554.728 684.174C564.151 671.075 584.481 658.378 587 683L597 679C595.918 672.906 592.979 669.038 598 664L598 662L591 656L587 657C587.037 643.423 597.485 640.112 610 640L606 634C610.948 622.178 621.145 615.909 621 603C614.253 603.909 605.332 607.731 599.015 603.848C594.311 600.955 592.703 595.323 587.957 592.558C583.008 589.674 575.825 589.313 573.619 582.985C571.299 576.331 574.544 561.059 576 554C570.89 550.768 565.078 544.544 562.495 538.985C561.112 536.008 562.592 531.461 558.849 530.076C551.339 527.299 551.558 536.892 548.272 540.487C545.486 543.535 538.911 544.428 535 545.022C522.473 546.923 517.913 535.972 508 532L506 538C493.92 535.465 491.97 525.765 483.505 518.742C480.328 516.107 475.481 518.606 472.696 515.593C470.057 512.738 471.83 509.047 473 506L481 508C480.425 490.657 456.957 498.576 451.042 508.39C447.775 513.811 453.267 522.351 453.373 528C453.48 533.647 449.521 538.721 448 544z"/>
</svg>
