<?xml version="1.0" standalone="yes"?>
<svg xmlns="http://www.w3.org/2000/svg" width="1450" height="1114">
<path style="fill:#010101; stroke:none;" d="M0 0L0 1114L1450 1114L1450 0L0 0z"/>
<path style="fill:#ffffff; stroke:none;" d="M264 585L256.48 603L257 633C250.562 633.867 238.067 634.835 233.333 639.569C230.102 642.799 230.31 651.495 228.1 656C224.764 662.797 218.289 666.13 214.413 672.184C210.333 678.557 203.949 681.789 199.994 688.004C198.267 690.718 197.194 695.983 192.996 695.534C188.936 695.1 186.905 689.95 184.331 687.39C178.925 682.016 173.073 676.77 167.536 671.379C161.169 665.179 154.655 662.717 151 654C129.872 656.862 145.437 673.413 148.741 684C150.179 688.607 147.384 694.297 147 699C158.551 701.287 156.471 712.049 165.185 717.586C169.724 720.471 175.328 721.397 180 724.06C186.294 727.649 191.134 732.886 198 735.648C201.887 737.212 206.274 736.547 209.981 738.573C214.536 741.062 213.704 745.897 217.318 748.633C223.041 752.965 234.222 755.628 241 759L232 775C243.141 780.93 251.552 780.034 264 780.595C267.579 780.756 271.323 777.833 274.787 779.423C280.316 781.96 279.982 790.286 283.702 794.367C285.841 796.713 290.193 797.995 290.62 801.591C291.151 806.055 286.748 810.122 287.484 815C288.529 821.926 293.301 828.86 294.88 836C296.331 842.563 291.815 848.594 292.567 855C293.246 860.786 297.762 866.082 299 872C324.501 872 346.196 865.46 370.895 875.603C377.732 878.411 380.611 890.444 385.637 895.567C388.37 898.352 393.354 899.033 397 900C405.201 885.97 421.197 896.153 433 900L427 880C416.96 878.696 413.008 873.224 410 864L425 875L428.087 868.209L421.653 857L432 837L412.272 833.925L408.86 820.434L401.21 816.976L392.785 804L400.071 790.911L399.015 774L406.596 751L406 738C419.849 737.96 425.35 722.044 438 717.457C444.787 714.995 452.996 720.292 459.61 715.976C463.294 713.572 470.92 702.713 467.253 698.563C464.901 695.901 460.034 695.397 457 693.637C452.812 691.206 449.672 686.095 445 684.693C441.495 683.641 437.698 685.915 434.225 684.396C430.997 682.984 430.733 678.804 427.775 677.028C423.173 674.263 409.922 675.117 405.044 677.032C401.27 678.514 401.093 682.001 398.302 684.307C396.307 685.955 393.356 685.083 391 685.677C385.715 687.009 381.588 692.968 376 692.657C362.206 691.891 343.085 685.609 335.773 672.911C333.435 668.85 337.09 660.005 332.411 657.133C329.849 655.56 325.901 658.314 323 657.886C315.52 656.782 310.766 650.839 304 648.56C300.431 647.358 295.355 648.037 293.618 643.786C292.183 640.274 294.234 635.718 293.888 632C293.496 627.783 290.842 624.355 291.319 620C291.985 613.933 295.439 610.122 293 604C289.338 604.69 283.716 606.727 280.228 604.782C276.68 602.802 277.357 598.227 275.861 595.001C273.562 590.044 269.198 586.353 264 585z"/>
</svg>
