<?xml version="1.0" standalone="yes"?>
<svg xmlns="http://www.w3.org/2000/svg" width="1450" height="1114">
<path style="fill:#010101; stroke:none;" d="M0 0L0 1114L1450 1114L1450 0L0 0z"/>
<path style="fill:#ffffff; stroke:none;" d="M1281 390C1274.84 398.574 1269.97 408.443 1263.91 416.721C1261.66 419.806 1257.5 419.832 1255.38 423.144C1252.24 428.033 1251.8 436.507 1248.4 440.363C1245.54 443.597 1240.45 443.928 1237.75 447.39C1235.37 450.437 1236.68 454.658 1234.31 457.787C1228.41 465.56 1208.92 468.952 1213 482C1231.93 480.053 1233.87 501.774 1245.21 511.363C1251.69 516.833 1260.3 517.72 1264.55 526C1268.26 533.238 1264.23 547.244 1272 550C1280.15 541.463 1287.03 549.278 1292.39 555.996C1296.83 561.557 1303.04 566.067 1306.7 572.259C1310.82 579.232 1313.57 588.461 1317 596C1327.5 586.745 1324.52 567.126 1325.63 554C1326.78 540.492 1332.97 527.709 1333.91 514C1334.64 503.307 1334.88 486.392 1344 479C1343.47 472.952 1341.52 462.725 1342.95 457C1345.8 445.612 1355.22 435.961 1357.8 425C1358.76 420.9 1355.81 417.017 1355.42 413C1355.13 410.133 1356.44 406.978 1355.24 404.228C1353.6 400.435 1347.66 399.492 1345.09 395.956C1340.92 390.209 1339.24 379.411 1331 378.268C1320.48 376.808 1308.85 382.386 1300 387.278C1296.91 388.987 1294.04 393.008 1290.42 393.505C1287.45 393.914 1283.67 391.112 1281 390z"/>
</svg>
