<?xml version="1.0" standalone="yes"?>
<svg xmlns="http://www.w3.org/2000/svg" width="1450" height="1114">
<path style="fill:#010101; stroke:none;" d="M0 0L0 1114L1450 1114L1450 0L0 0z"/>
<path style="fill:#ffffff; stroke:none;" d="M365 876L361.131 897.961L357.634 905L361.683 913.015L361 927C355.658 927.249 352.649 928.347 352 934L335 933.903L309 942.782L289.3 937.486L279.985 928.532L267 930L264 961L251 970L258 971L256 977L251 976C253.765 983.233 251.699 986.848 250 994L242 993C244.857 998.137 249.686 997.562 253.351 1001.43C257.217 1005.51 261.633 1013.94 264.228 1019C267.998 1026.35 263.759 1035.36 270.049 1042.49C273.589 1046.5 278.212 1044.72 279 1040L288 1041L289 1040C289.529 1034.5 292.86 1033.17 298 1033L297 1030L301 1031L306 1016L313 1018C313.521 1011.1 317.828 1008.81 324 1007L325 1010L329 1009L330 1029C336.071 1025.54 338.387 1016.79 334 1011L334 1010L339 1006L340 1009C348.341 1008.01 361.01 1007.56 367 1014C374.038 1012.69 385.324 1007.69 387 1018C378.108 1019.45 384.132 1026.08 388 1030L389 1030C393.88 1023.33 392.004 1016.33 402 1020L402 1021C394.867 1023.19 394.837 1029.41 394 1036C398.735 1037.52 400.143 1039.49 402 1044L404 1043L404 1063C418.515 1057.41 420.934 1065.77 434 1068.09C437.097 1068.64 440.827 1067.15 444 1067C443.82 1058.35 435.247 1038.95 442 1033C433.361 1017.02 422.981 1000.07 402 1000C399.843 989.8 387.683 987.56 392 975L399 973C396.29 967.427 386.019 942.467 397 945C402.601 936.851 414.659 939.793 423 942L429 933L427 928C435.206 924.548 438.117 909.108 432.062 901.51C424.705 892.279 402.38 889.82 397 901C393.441 899.693 388.408 899.199 385.637 896.486C377.963 888.97 377.597 876.045 365 876z"/>
</svg>
