<?xml version="1.0" standalone="yes"?>
<svg xmlns="http://www.w3.org/2000/svg" width="1450" height="1114">
<path style="fill:#010101; stroke:none;" d="M0 0L0 1114L1450 1114L1450 0L0 0z"/>
<path style="fill:#ffffff; stroke:none;" d="M665 429L658 407C649.309 408.549 643.597 414.751 635.911 418.15C631.573 420.067 626.166 418.016 622.3 420.067C618.242 422.22 616.707 426.522 611.996 428.072C605.619 430.17 592.21 427.749 587.564 431.179C582.415 434.98 585.4 445.648 582.062 450.816C576.197 459.892 568.402 456.174 560 458L560 475C564.655 475.039 569.369 476.287 574 475.891C580.688 475.319 591.181 471.524 597.682 475.269C600.682 476.997 600.842 483.15 602.978 486C609.12 494.196 618.667 505.648 628 510C627.724 504.537 628.527 493.265 624 490C627.513 483.387 635.315 479.881 642 477L638 470L648.778 465.697L652 451L657 466L649 471L655 478L671 471C672.815 479.262 672.536 486.982 663 488L667 491L659 495L659 496L669 496L677 489C675.159 484.327 676.08 481.97 679 478L679 477C670.502 460.991 703.031 449.072 713 462L715 455C726.304 453.478 736.022 459.984 739 447L752 448C753.999 443.24 756.22 443.278 761 444L754 429C748.354 429.724 746.263 426.069 743 422C738.971 427.947 732.811 432.38 734 440C727.909 434.975 719.291 436.14 719 445L707 434C706.865 440.566 706.643 447.806 699 449C701.741 442.96 697.844 441.781 693 439L706.039 430.742L720 428C724.754 435.122 733.114 425.451 734 420L729 420L728 415C734.142 414.538 739.983 417.876 744 412L745 412L753 421C753 417.293 752.983 413.672 752.41 410C748.877 387.379 729.096 399.961 717.209 407.934C714.514 409.741 713.144 413.331 709.957 414.454C705.573 415.998 702.565 410.186 698.225 411.662C694.746 412.845 694.255 417.787 690.892 419.504C687.518 421.227 683.557 419.747 680 420.973C674.65 422.817 670.197 426.757 665 429M654 489L655 494L657 489L654 489z"/>
</svg>
