<?xml version="1.0" standalone="yes"?>
<svg xmlns="http://www.w3.org/2000/svg" width="1450" height="1114">
<path style="fill:#010101; stroke:none;" d="M0 0L0 1114L1450 1114L1450 0L0 0z"/>
<path style="fill:#ffffff; stroke:none;" d="M588 302L579 299C577.794 301.242 576.792 304.51 574.582 305.972C572.287 307.491 568.715 306.344 566.847 308.603C565.063 310.761 566.942 313.5 566.346 315.911C565.576 319.027 562.249 321.024 561.009 324.015C559.885 326.727 560.566 330.119 558.972 332.61C556.877 335.884 552.243 336.552 549.637 339.39C541.35 348.416 539.14 356.632 539.691 369C540.029 376.611 542.494 394.46 551.058 397.836C556.887 400.134 560.564 395.436 565.089 392.815C567.602 391.36 572.151 391.625 573.958 389.258C575.783 386.868 573.984 382.777 574.418 380C575.672 371.982 583.03 365.901 578 358L591 354.725L615 363C615.264 351.775 623.855 350.243 627.218 341.787C629.431 336.226 624.422 329.717 625.129 324C626.861 310.003 645.376 315.904 654 317C653.931 308.722 650.588 300.153 658 294L654 285C637.542 290.362 643.582 272.107 633.981 267.434C622.172 261.686 618.408 269.26 608.907 272.308C602.47 274.373 594.709 270.933 590.042 278.529C587.525 282.627 588.423 296.648 588 302z"/>
</svg>
