<?xml version="1.0" standalone="yes"?>
<svg xmlns="http://www.w3.org/2000/svg" width="1450" height="1114">
<path style="fill:#010101; stroke:none;" d="M0 0L0 1114L1450 1114L1450 0L0 0z"/>
<path style="fill:#ffffff; stroke:none;" d="M1232 166C1222.77 171.367 1212.89 175.477 1204 168L1203 168L1182.6 176.703L1178.3 186.816L1166.65 196.515L1160.61 206.674L1145.1 218.039L1122 234.683L1107 233L1106 225L1089 237C1090.84 251.219 1089.39 266.272 1075 273L1075 274C1082.85 278.402 1086.9 296.551 1084.31 304.961C1082.83 309.741 1077.73 312.984 1075.97 318C1071.68 330.206 1075.79 339.176 1061 344L1058 338C1053.54 341.412 1047.92 346.284 1047 352C1054.32 353.515 1059.82 358.212 1067 359.789C1087.96 364.388 1117.55 364.2 1133.83 380.185C1144.08 390.262 1136.36 405.489 1148 415C1151.88 409.518 1153.21 402.17 1157.42 397.174C1160.18 393.9 1165.82 391.875 1167.31 387.7C1169.33 382.024 1171.84 374.049 1173.32 368C1174.24 364.257 1172.96 360.61 1175.09 357.093C1177.52 353.084 1182.29 351.306 1185.32 347.816C1189.12 343.426 1189.34 337.613 1192.65 333.039C1195.47 329.145 1200.31 327.033 1202.7 322.829C1207.17 314.952 1202.71 300.106 1192 305L1188.07 294L1196.14 283.714L1199 272L1192 268C1195.3 260.083 1199.19 246.401 1205.64 240.6C1214.95 232.218 1229.28 233.146 1233.8 218C1236.94 207.467 1218.94 211.368 1220.48 201.996C1222.54 189.419 1238.12 180.592 1232 166z"/>
</svg>
