<?xml version="1.0" standalone="yes"?>
<svg xmlns="http://www.w3.org/2000/svg" width="1450" height="1114">
<path style="fill:#010101; stroke:none;" d="M0 0L0 1114L1450 1114L1450 0L0 0z"/>
<path style="fill:#ffffff; stroke:none;" d="M809 63C804.39 66.4114 800.584 66.9905 795 66C789.362 78.7396 793.173 90.7906 802 101C796.157 103.592 794.422 108.583 789.624 112.143C784.774 115.741 774.707 119.931 769 122.362C759.743 126.305 750.214 123.639 741 125.405C733.601 126.823 727.226 132.312 720 134.363C715.343 135.684 709.615 133.626 705.228 135.603C700.578 137.7 700.784 148.67 701.091 152.999C702.164 168.136 720.411 178.551 728.357 189.379C730.557 192.376 728.977 197.438 730 201C738.698 197.645 754.431 188.155 762.436 196.637C770.117 204.777 764.873 214.921 779 219C787.259 205.916 794.159 214.865 805.96 213.938C812.965 213.387 812.988 203.654 820.015 203.576C831.778 203.447 829.806 212.512 837.228 216.667C841.384 218.994 848.366 216.039 853 216C853.21 205.837 852.975 200.547 849 191C859.91 188.476 869.703 182.769 865.671 170C864.317 165.714 860.366 162.366 859.476 158C858.515 153.283 862.983 149.728 859.042 145.318C853.458 139.069 842.999 138.833 839.458 128.999C837.919 124.727 840.239 120.391 839.302 116C838.066 110.21 833.322 106.449 831.474 101C825.943 84.6945 825.723 72.6556 809 63z"/>
</svg>
