<?xml version="1.0" standalone="yes"?>
<svg xmlns="http://www.w3.org/2000/svg" width="1450" height="1114">
<path style="fill:#010101; stroke:none;" d="M0 0L0 1114L1450 1114L1450 0L0 0z"/>
<path style="fill:#ffffff; stroke:none;" d="M616 364C601.594 364.709 594.408 352.257 579 358C582.473 365.696 577.474 370.584 575.61 378C574.532 382.292 575.814 386.669 576 391C587.003 393.301 603.613 400.509 612.957 406.966C617.945 410.413 619.594 417.154 626.015 418.513C632.555 419.898 636.879 416.507 642.089 413.336C653.399 406.454 662.061 401.397 668.558 389C671.343 383.687 670.591 377.293 673.442 372.015C677.386 364.716 682.282 361.501 685 353C673.687 346.385 677.657 340.421 672.428 330.039C669.808 324.837 665.295 321.638 663 316C653.803 317.897 629.698 310.354 626.029 322.015C624.013 328.421 630.69 335.681 627.731 341.895C623.398 350.997 616.035 351.843 616 364z"/>
</svg>
