<?xml version="1.0" standalone="yes"?>
<svg xmlns="http://www.w3.org/2000/svg" width="1450" height="1114">
<path style="fill:#010101; stroke:none;" d="M0 0L0 1114L1450 1114L1450 0L0 0z"/>
<path style="fill:#ffffff; stroke:none;" d="M1330 366L1332 377L1346.09 396.772L1355.78 404.109L1359 422L1360 422C1360.54 417.15 1363.58 414.411 1365.11 410C1366.68 405.477 1364.48 400.664 1366.51 396C1370.6 386.614 1378.98 377.399 1384.89 369C1390.08 361.622 1394.69 352.234 1403 348L1403 347L1397 347L1405 327L1411 327L1410 324L1416 321C1414.15 316.407 1410.22 317.195 1406 315.688C1391.61 310.549 1380.29 319.939 1366 316.467C1358.9 314.742 1355.09 307.155 1348 305.612C1323.75 300.334 1331.9 335.409 1337.32 345.961C1339.05 349.334 1343.09 351.195 1343.97 355.015C1346.79 367.242 1337.28 365.007 1330 366z"/>
</svg>
