<?xml version="1.0" standalone="yes"?>
<svg xmlns="http://www.w3.org/2000/svg" width="1450" height="1114">
<path style="fill:#010101; stroke:none;" d="M0 0L0 1114L1450 1114L1450 0L0 0z"/>
<path style="fill:#ffffff; stroke:none;" d="M1203 324L1186.32 346.96L1175.15 358.093L1167.8 387.826L1157.7 397.3L1148 416L1175 430C1178.47 425.49 1183.84 422.976 1187.15 418.621C1192.69 411.325 1190.92 403.532 1202 402C1200.91 393.313 1198.69 371.116 1204.57 364.148C1207.19 361.054 1210.56 361.832 1213.7 359.973C1218.12 357.36 1220.22 351.676 1224.17 348.43C1227.77 345.468 1231.7 345.388 1234 341L1223.9 333.741L1203 324z"/>
</svg>
