<?xml version="1.0" standalone="yes"?>
<svg xmlns="http://www.w3.org/2000/svg" width="1450" height="1114">
<path style="fill:#010101; stroke:none;" d="M0 0L0 1114L1450 1114L1450 0L0 0z"/>
<path style="fill:#ffffff; stroke:none;" d="M1058 249C1047.58 249.946 1046.72 258.135 1040.58 264.621C1037.23 268.164 1032.12 270.467 1028 273C1026.87 264.867 1020.91 261.47 1013 264.469C1001.02 269.009 992.407 279.312 979 281.077C970.679 282.172 962.104 274.932 954.059 279.938C950.572 282.108 950.398 285.704 948.571 289C946.642 292.478 942.836 295.127 941.692 299C939.008 308.086 943.159 322.665 944 332L948 329L949 334C961.734 331.601 979.458 328.373 991.957 333.589C999.082 336.562 996.964 352.941 1007.79 350.184C1015.02 348.341 1016.51 334.29 1019.85 329.039C1024.79 321.286 1035.49 319.904 1041.36 312.714C1045.14 308.09 1043.54 300.643 1047.25 297.058C1053.51 291.022 1060.5 298.453 1066.58 293.58C1072.22 289.055 1085.39 279.42 1074 274C1077.24 271.644 1081.5 269.787 1084.03 266.621C1090.16 258.943 1087.17 247.583 1089.04 239.104C1090.26 233.541 1099.84 229.154 1093.35 222.654C1084.6 213.899 1072.19 227.695 1066.61 232.272C1064.43 234.063 1060.66 234.047 1059.07 236.513C1057.32 239.204 1058.41 245.689 1058 249z"/>
</svg>
