<?xml version="1.0" standalone="yes"?>
<svg xmlns="http://www.w3.org/2000/svg" width="1450" height="1114">
<path style="fill:#010101; stroke:none;" d="M0 0L0 1114L1450 1114L1450 0L0 0z"/>
<path style="fill:#ffffff; stroke:none;" d="M175 723L177.486 748L170.418 767.985L183.991 784L186.641 804L192.041 819L191.695 829L197.767 844L186.487 866.272L168 873L168 886L175 885L176 888L184 884L184 888L191 889L196 883L202 890L211 881L211 908L214 907L214 914L206 912L217 930L211 926L205 928L206 920L205 920L199 933C203.509 933.713 205.191 935.935 207 940L219 935C221.526 941.067 223.659 948.433 231 949L230 962L248.831 969.226L263 961C260.962 951.975 268.332 942.071 266.184 934.313C265.57 932.095 262.358 931.314 260.904 929.687C252.86 920.687 248.5 911.952 257.835 902.85C260.201 900.542 261.83 898.929 265 898C265.104 906.793 271.957 910.322 280 907C275.395 892.814 284.657 895.15 292.427 886.61C295.227 883.533 296.669 876.07 297.415 872C298.683 865.082 292.165 860.434 291.857 854C291.584 848.292 295.104 842.808 294.441 837C293.529 829.013 287.278 821.596 286.694 814C286.347 809.482 290.662 805.423 289.867 801.105C289.273 797.88 285.445 796.751 283.418 794.61C279.745 790.732 280.011 784.067 275.61 780.758C271.797 777.892 267.215 781.661 263 781.23C259.352 780.856 255.716 779.296 252 779.563C248.849 779.79 246.245 782.1 243 781.309C238.799 780.284 234.919 776.832 231 775L240 759L217.148 749.03L211.682 740.148L198 736.204L175 723M193 891L192 896C196.853 896.982 201.15 898.853 203 893L193 891M169 892L167 896L171 895L169 892z"/>
</svg>
