<?xml version="1.0" standalone="yes"?>
<svg xmlns="http://www.w3.org/2000/svg" width="1450" height="1114">
<path style="fill:#010101; stroke:none;" d="M0 0L0 1114L1450 1114L1450 0L0 0z"/>
<path style="fill:#ffffff; stroke:none;" d="M281 908C273.117 909.732 264.316 908.667 264 899C251.572 902.991 251.043 913.8 257.05 923C258.695 925.519 260.065 929.241 263.171 930.283C268.737 932.151 273.606 926.901 278.576 927.507C283.39 928.094 285.896 934.548 289.464 937.143C293.489 940.07 303.07 941.653 308 942.181C316.936 943.139 327.011 935.933 335 933.487C339.466 932.12 346.097 933.62 351 933L352 927C360.515 926.296 363.534 919.318 360.401 911.17C359.474 908.758 356.658 906.924 357.326 904.075C359.271 895.772 368.127 886.3 363.486 877.21C357.533 865.55 343.226 870.618 334 871.359C329.904 871.688 326.044 869.26 322 869.73C318.363 870.153 315.773 873.025 312 873.197C308.022 873.378 301.956 871.603 298.434 874.028C294.454 876.766 295.815 883.967 291.811 887.61C282.812 895.796 276.465 894.058 281 908z"/>
</svg>
