<?xml version="1.0" standalone="yes"?>
<svg xmlns="http://www.w3.org/2000/svg" width="1450" height="1114">
<path style="fill:#010101; stroke:none;" d="M0 0L0 1114L1450 1114L1450 0L0 0z"/>
<path style="fill:#ffffff; stroke:none;" d="M413 564L428 539L447 543C451.947 534.523 455.919 515.95 447.411 507.843C441.341 502.058 431.803 501.543 426.564 493.985C420.767 485.623 426.916 474.731 417.334 467.623C413.752 464.965 410.529 468.869 407 469.596C401.686 470.692 395.76 464.96 394.829 460C392.046 445.171 409.495 448.305 415.062 441.487C419.911 435.549 419.021 428.784 419.854 422C421.332 409.973 425.276 402.423 420 390C393.188 398.724 364.62 394.725 337 391.83C320.489 390.1 304.069 382.986 289.044 395.394C287.797 396.423 286.564 397.635 285.703 399.015C278.513 410.537 292.64 408.06 295.991 416.018C298.246 421.375 296.065 427.475 297.303 433C298.118 436.636 300.969 439.33 301.721 443C302.743 447.986 301.274 452.629 305.483 456.567C309.051 459.906 315.167 458.641 317.822 463.144C321.486 469.36 318.779 479.789 324.513 485.031C330.597 490.593 339.582 490.173 345.1 497.043C348.705 501.531 352.308 507.456 353.995 513C354.968 516.199 353.226 520.495 356.322 522.721C359.686 525.141 364.217 524.532 368 525.637C374.5 527.537 385.43 532.61 390.786 536.727C395.367 540.248 394.646 546.264 397.442 550.787C400.445 555.645 408.332 560.712 413 564z"/>
</svg>
