<?xml version="1.0" standalone="yes"?>
<svg xmlns="http://www.w3.org/2000/svg" width="1450" height="1114">
<path style="fill:#010101; stroke:none;" d="M0 0L0 1114L1450 1114L1450 0L0 0z"/>
<path style="fill:#ffffff; stroke:none;" d="M500 482C496.417 477.901 491.11 469.874 485.04 469.658C481.321 469.526 479.178 473.449 476.819 475.68C469.924 482.202 465.78 487.195 465 497C473.613 496.35 481.677 499.066 482 509L473 507L473 517C488.927 515.031 489.782 533.807 505 537L507 531C516.934 534.909 521.58 545.73 534 544.446C537.829 544.05 544.557 542.993 547.437 540.272C551.267 536.653 551.102 527.134 558.938 529.373C563.79 530.759 561.613 536.35 563.46 539.911C566.246 545.28 571.635 551.297 577 554C575.102 560.754 572.046 577.471 574.604 583.906C576.739 589.275 583.702 589.404 587.985 592.144C592.336 594.929 593.918 600.035 598.105 602.852C603.64 606.575 611.865 603.775 618 603L618 602L615 602C614.811 597.215 613.792 592.125 620 592L626 587C623.054 579.771 622.014 575.38 625 568C620.017 565.757 618.376 569.883 614.154 569.083C609.837 568.266 612.974 557.095 613 554L609 554L608 548L618 545L616 541L624 538L624 537C621.144 535.602 617.867 535.18 615.093 533.687C613.11 532.619 611.831 530.914 610.255 529.371C608.855 528 606.787 526.961 605.647 525.367C603.286 522.066 607.197 519.323 610.005 518.344C615.571 516.403 625.035 518.228 622.968 509C621.598 502.882 613.218 497.309 609.015 493C604.924 488.807 601.391 478.932 597.397 476.067C595.317 474.574 591.439 475.663 589 475.346C579.437 474.102 568.957 476.007 559 476C561.969 465.432 558.035 459.851 555.404 450C554.585 446.935 555.181 441.327 551.686 439.782C547.266 437.827 541.764 441.839 537 440.867C529.939 439.425 520.357 435.294 513.419 440.024C509.332 442.81 510.423 448.831 509.787 453C508.192 463.464 502.338 471.898 500 482z"/>
</svg>
