<?xml version="1.0" standalone="yes"?>
<svg xmlns="http://www.w3.org/2000/svg" width="1450" height="1114">
<path style="fill:#010101; stroke:none;" d="M0 0L0 1114L1450 1114L1450 0L0 0z"/>
<path style="fill:#ffffff; stroke:none;" d="M724 349L726 357L692 366.944L677.214 368.01L670.437 386L659.059 404L665 428C670.843 426.281 675.25 421.807 681 420.008C684.225 419 687.835 420.457 690.867 418.806C694.115 417.039 694.588 411.689 698.214 410.751C702.84 409.554 705.855 416.247 710.787 413.638C722.458 407.465 730.226 392.497 744.996 397.171C757.335 401.075 748.503 419.709 759 422C762.016 407.717 766.093 415.22 775.961 411.808C781.05 410.048 783.405 405.13 789 404L775.009 390.787L770.566 376.301L758.352 366.892L747.775 347.618L724 349z"/>
</svg>
