<?xml version="1.0" standalone="yes"?>
<svg xmlns="http://www.w3.org/2000/svg" width="1450" height="753">
<path style="fill:#010101; stroke:none;" d="M0 0L0 753L1450 753L1450 0L0 0z"/>
<path style="fill:#ffffff; stroke:none;" d="M241 499L242 499C247.473 494.283 255.852 493.509 257.863 485.999C259.708 479.106 250.599 472.475 256.41 466.394C263.074 459.418 279.383 461.411 282.721 450.91C288.58 432.483 276.635 414.542 282.928 396.019C287.293 383.174 320.226 399.155 308 378C318.745 377.962 324.261 364.756 326 355C322.393 353.571 320.095 352.288 317 355L316 355C311.905 350.455 307.864 350.005 302 350C301.988 331.758 288.687 332.512 276.09 325.977C268.281 321.926 259.805 312.332 251.83 309.693C243.828 307.045 234.237 317.238 228 320.987C225.803 322.307 222.631 322.73 220.843 324.599C218.236 327.325 218.393 331.646 215.581 334.367C207.545 342.141 197.793 345.541 195.405 358C194.115 364.728 197.086 372.186 196.726 379C196.43 384.613 192.295 390.273 193.603 396C195.012 402.165 202.09 405.634 203.059 412C203.869 417.321 200.511 422.689 201.738 428C203.224 434.429 208.764 439.506 210.323 446C211.069 449.107 209.388 452.673 211.042 455.536C215.808 463.786 226.428 459.47 230.644 466.059C235.193 473.17 229.591 477.96 230.864 485C231.81 490.233 237.755 495.012 241 499z"/>
</svg>
