<?xml version="1.0" standalone="yes"?>
<svg xmlns="http://www.w3.org/2000/svg" width="1450" height="753">
<path style="fill:#010101; stroke:none;" d="M0 0L0 753L1450 753L1450 0L0 0z"/>
<path style="fill:#ffffff; stroke:none;" d="M841 147C834.753 162.095 815.764 155.718 804 157.148C794.298 158.328 784.904 161.133 775 162.572C770.893 163.168 765.134 162.332 761.637 164.988C757.64 168.025 756.919 174.541 755.561 179C753.417 186.042 749.011 191.531 748 199L761 197C764.068 203.203 767.924 209.602 766.662 216.961C765.523 223.598 760.339 230.53 763.603 237.726C766.33 243.736 775.54 248.075 780.788 251.302C785.728 254.341 785.17 261.632 791.044 263.606C798.757 266.198 802.9 260.761 810 259.472C823.229 257.07 838.56 256.302 852 258L849.204 243L853.018 229L848.493 218L856.112 190L858.589 174.004L866.648 163.961L874 142C864.542 138.485 862.101 144.934 854 147.842C850.101 149.241 844.977 147.503 841 147z"/>
<path style="fill:#010101; stroke:none;" d="M786 196C775.706 200.29 774.542 211.903 787.945 213.11C791.759 213.454 793.023 209.022 796.093 207.583C799.725 205.882 802.222 205.493 803.322 200.996C804.865 194.685 798.766 193.861 796.877 188.956C795.535 185.469 797.762 182.167 799 179C788.615 176.78 781.684 186.628 786 196z"/>
</svg>
