<?xml version="1.0" standalone="yes"?>
<svg xmlns="http://www.w3.org/2000/svg" width="1450" height="753">
<path style="fill:#010101; stroke:none;" d="M0 0L0 753L1450 753L1450 0L0 0z"/>
<path style="fill:#ffffff; stroke:none;" d="M1248 34L1242 38L1244 48L1244 49C1230.18 59.9674 1215.94 52.5624 1200.04 59.0286C1193.08 61.8601 1198.33 68.187 1194.78 73.0695C1191.04 78.2138 1186.16 76.5599 1181 79L1196.49 92.3287L1200.94 104.961L1213 123L1230 128L1227.11 149L1226.73 168L1222 187C1232.6 189.094 1238.04 201.647 1250 197.4C1267.36 191.237 1274.26 167.238 1293.96 170.488C1300.31 171.536 1300.26 180.587 1304.64 184.062C1310.73 188.898 1318.79 182.006 1325.89 186.414C1332.4 190.449 1331.78 200.113 1338 205C1339.52 192.987 1333.1 186.99 1331.48 176C1330.83 171.609 1334.1 165.415 1331.88 161.39C1328.76 155.723 1319.5 156.78 1318.36 148.996C1317.51 143.176 1323.41 137.545 1324.61 132C1326.64 122.622 1325.81 109.575 1324.94 100.018C1324.18 91.5698 1312.95 94.1909 1309.43 87.7863C1305.23 80.1474 1310.58 70.9446 1308.69 63C1305.06 47.7877 1285.16 41.0437 1272 38C1268.77 43.4142 1256.37 47.3612 1250.9 42.473C1248.47 40.3002 1249.04 36.7675 1248 34z"/>
</svg>
