<?xml version="1.0" standalone="yes"?>
<svg xmlns="http://www.w3.org/2000/svg" width="1450" height="753">
<path style="fill:#010101; stroke:none;" d="M0 0L0 753L1450 753L1450 0L0 0z"/>
<path style="fill:#ffffff; stroke:none;" d="M768 269C765.841 273.566 763.079 279.019 758.896 282.034C754.11 285.483 748.221 286.323 745.443 292.043C741.051 301.089 735.662 313.102 734.239 323C733.14 330.648 735.965 343.151 729.682 349.39C723.396 355.633 713.852 355.758 707.375 360.738C701.882 364.961 693.828 371.708 689.728 377.286C687.678 380.074 687.573 383.763 684.721 386.006C676.896 392.163 666.253 396.292 664 407C671.144 410.184 674.753 417.155 681.17 421.012C687.145 424.603 695.389 422.629 699.914 429.213C709.678 443.419 715.389 480.392 738 479.775C745.961 479.557 745.474 474.249 749.419 469C754.592 462.116 763.02 457.049 764.556 448C765.662 441.477 761.439 434.469 767.193 429.314C772.357 424.688 781.695 425.601 787.961 422.867C795.277 419.674 799.756 413.392 808 411.159C813.573 409.649 821.933 410.564 826.697 407.062C833.766 401.865 828.367 387.252 834.415 380.204C839.012 374.849 845.344 380.566 850.896 376.436C856.032 372.616 857.26 365.71 863.015 362.368C869.136 358.813 876.33 361.907 883 360.482C889.174 359.163 893.29 354.76 899 352.728C904.848 350.647 913.046 351.895 919 353C921.706 348.335 920.863 341.051 924.242 337.468C931.131 330.159 941.508 332.12 946 322L912 306.637L892 304C897.826 297.855 902.876 289.885 900.57 281C899.334 276.237 896.281 273.144 896 268L882 264.718L870.043 265.758L862.791 260.56L837 257.213L798 264.987L787 264.48L768 269z"/>
</svg>
