<?xml version="1.0" standalone="yes"?>
<svg xmlns="http://www.w3.org/2000/svg" width="1450" height="753">
<path style="fill:#010101; stroke:none;" d="M0 0L0 753L1450 753L1450 0L0 0z"/>
<path style="fill:#ffffff; stroke:none;" d="M1178 232C1174.35 250.453 1157.2 251.041 1144.33 260.086C1139.2 263.691 1137.1 270.671 1131.91 274.436C1128.31 277.048 1123.25 277.2 1119 278C1119 284.061 1117.85 291.555 1121.97 296.61C1126.07 301.639 1134.36 303.025 1136.46 310C1138.54 316.942 1134.12 325.729 1135.21 333C1136.34 340.484 1141.96 346.932 1144.45 354C1147.26 361.972 1146.39 371.041 1149.48 378.895C1151.03 382.824 1154.93 383.364 1157.4 386.39C1159.97 389.533 1158.63 394.213 1161.01 397.348C1163.26 400.314 1167.86 400.116 1170.62 402.513C1174.48 405.855 1176.64 411.769 1182 413.227C1188.6 415.022 1191.73 409.994 1196.21 406.724C1200.31 403.731 1211.01 399.901 1216 399.848C1227.4 399.726 1246.8 414.097 1257.58 406.972C1266.74 400.919 1263.23 381.862 1263.93 373.04C1264.37 367.549 1271.3 366.525 1273.99 362.482C1280.41 352.837 1272.99 344.142 1285 337L1288 344C1292.98 340.41 1293.95 327.473 1292 322C1300.45 318.481 1306.04 311.276 1314 307.652C1320.94 304.492 1328.97 305.215 1334.77 299.532C1338.19 296.182 1338.75 291.159 1340.81 287C1348.11 272.259 1350.61 260.892 1344 245L1319.01 251.762L1305.99 245.023L1282 246C1278.79 255.396 1265.47 264.477 1255 263.833C1250.58 263.562 1246.99 259.945 1243 258.378C1238.95 256.785 1234.93 259.024 1231 257.523C1224.93 255.208 1220.81 249.156 1215 246.303C1210.75 244.219 1202.59 240.704 1198 240.159C1194.05 239.69 1189.9 241.805 1186.06 240.254C1182.27 238.723 1181.48 234.124 1178 232z"/>
</svg>
