<?xml version="1.0" standalone="yes"?>
<svg xmlns="http://www.w3.org/2000/svg" width="1450" height="753">
<path style="fill:#010101; stroke:none;" d="M0 0L0 753L1450 753L1450 0L0 0z"/>
<path style="fill:#ffffff; stroke:none;" d="M729 196C727.02 206.656 725.122 224.179 710.043 218.518C705.177 216.692 702.408 211.768 697 210.742C692.023 209.797 687.848 214.619 683 213.471C676.382 211.905 665.341 206.205 658.286 210.694C652.186 214.575 652.412 220.559 649.231 225.911C645.821 231.65 636.562 238.407 631 242.034C625.267 245.773 618.781 250.842 612.911 253.973C609.807 255.628 606.156 255.043 603 256.854C597.659 259.919 593.552 264.983 588 267.697C582.662 270.305 576.525 267.901 571.004 269.653C564.796 271.623 555.472 281.51 550.43 285.966C541.453 293.899 541.87 309.12 531.999 316.581C526.044 321.082 518.722 319.327 512 321.499C506.133 323.395 502.142 328.406 496 330.112C485.654 332.985 477.54 331.894 476 344L480 343C492.131 372.109 526.188 364.653 550 376.049C559.386 380.541 565.694 388.886 576 392.096C588.632 396.031 593.926 387.309 606 388.044C611.905 388.404 616.5 392.447 622 394.251C628.881 396.507 635.902 396.435 642.999 397.059C650.302 397.7 653.041 408.869 660.773 406.677C664.317 405.673 665.207 400.206 668.105 397.951C673.184 393.997 681.225 389.296 685.273 384.582C692.217 376.496 698.552 366.523 707.39 359.856C713.662 355.125 726.477 356.009 730.397 347.621C734.147 339.598 731.861 331.048 733.458 323C735.447 312.969 740.191 301.174 744.905 292.015C748.12 285.771 754.592 285.129 759.621 281.034C763.474 277.896 766.07 272.473 768 268C775.177 270.447 780.819 266.608 787 263C783.298 253.458 776.832 250.09 769.536 243.417C767.37 241.437 763.858 240.609 762.603 237.775C759.56 230.902 764.328 224.157 765.698 217.83C767.136 211.188 764.289 203.545 761 198L729 196z"/>
</svg>
