<?xml version="1.0" standalone="yes"?>
<svg xmlns="http://www.w3.org/2000/svg" width="1450" height="753">
<path style="fill:#010101; stroke:none;" d="M0 0L0 753L1450 753L1450 0L0 0z"/>
<path style="fill:#ffffff; stroke:none;" d="M1345 245C1347.33 253.083 1351.2 264.429 1348.84 273C1347.46 278.004 1343.5 282.306 1341.32 287C1338.78 292.493 1338.04 297.357 1332.98 301.316C1326.69 306.248 1318.74 305.463 1312 309.14C1305.11 312.899 1300.53 318.866 1293 322L1292 344L1287 345L1285 339C1273.75 341.061 1279 352.955 1275.44 360.907C1273.5 365.217 1267.93 367.811 1264 370C1265.8 383.942 1264.09 394.881 1259 408C1263.74 411.084 1266.17 416.566 1271.04 419.16C1275.97 421.782 1282.58 420.568 1286.43 425.147C1292.03 431.82 1293.5 456.565 1291.61 465C1290.48 470.009 1286.93 473.865 1286 479C1301.49 474.591 1297.57 483.013 1308.21 489.86C1312.9 492.875 1319.16 492.401 1324 495.343C1327.92 497.724 1331.99 503.471 1337 503.084C1343.06 502.615 1346.67 496.542 1352 494.603C1356.98 492.791 1362.22 494.408 1366.99 491.272C1373.35 487.08 1378.59 479.407 1384 474C1395.09 462.915 1406.63 452.327 1420 444C1418.32 436.922 1414.95 430.328 1414.17 423C1413.54 416.962 1415.81 411.003 1414.62 405C1413.34 398.555 1409.35 392.776 1409.5 386C1409.71 375.591 1417.51 361.594 1414.05 351C1411.37 342.8 1402.69 335.93 1395 333.05C1388.08 330.458 1378.78 329.002 1376.4 320.996C1373.9 312.553 1379.63 301.34 1381.33 293C1382.73 286.153 1380.94 278.872 1380.3 272C1379.93 268.054 1382.11 262.976 1379.26 259.637C1375.35 255.065 1366.49 251.671 1361 249.453C1355.94 247.409 1350.39 245.793 1345 245z"/>
</svg>
