<?xml version="1.0" standalone="yes"?>
<svg xmlns="http://www.w3.org/2000/svg" width="1450" height="753">
<path style="fill:#010101; stroke:none;" d="M0 0L0 753L1450 753L1450 0L0 0z"/>
<path style="fill:#ffffff; stroke:none;" d="M297 298C288.927 299.679 291.431 306.923 286.298 311.308C282.18 314.826 275.686 315.688 271 320L271 321C281.223 331.82 302.814 328.394 303 349L316 354L317 354L328 355C323.509 362.695 320.15 378.228 310 379C310.502 380.804 311.482 382.848 311.63 384.719C312.699 398.207 288.384 385.725 284.018 395.147C278.135 407.841 282.929 420.014 284.17 433C284.748 439.05 286.234 447.451 282.397 452.826C277.356 459.889 265.815 462.453 258 465L269.482 477.278L281 495C285.55 494.387 293.799 493.874 297.401 490.86C301.07 487.792 302.756 482.61 307 479.289C312.132 475.274 318.752 473.497 323.7 469.363C327.128 466.498 329.143 462.335 332.3 459.213C336.613 454.949 343.093 453.871 345.86 447.985C349.521 440.199 341.572 428.387 346.408 422.188C348.835 419.078 352.746 418.319 355.83 416.16C362.847 411.25 370.039 405.244 376.907 399.957C380.841 396.928 382.862 391.443 387.174 389.028C392.337 386.135 399.413 389.334 404.363 385.146C413.375 377.521 409.159 366.466 414.028 358.213C416.436 354.131 423.059 352.3 427 350C425.457 341.808 422.246 332.347 422.612 324C422.812 319.434 426.793 314.426 424.303 310.015C413.665 291.165 380.382 293.488 362 296.131C357.424 296.789 350.449 296.322 346.302 297.773C341.886 299.318 339.652 304.391 334 306L333 302C324.705 304.11 316.255 303.645 308.225 298.697C305.443 296.983 304.594 290.641 301 290.752C297.512 290.859 297.229 295.502 297 298z"/>
</svg>
