<?xml version="1.0" standalone="yes"?>
<svg xmlns="http://www.w3.org/2000/svg" width="1450" height="753">
<path style="fill:#010101; stroke:none;" d="M0 0L0 753L1450 753L1450 0L0 0z"/>
<path style="fill:#ffffff; stroke:none;" d="M52 534C58.3493 533.999 68.4681 528.88 73.9066 531.449C80.4984 534.562 83.9259 544.51 85.6289 551C87.0067 556.251 90.6305 561.578 90.8519 567C91.1995 575.515 81.7576 588.731 76.331 594.892C67.3432 605.096 52.0122 602.325 46.9282 618C42.833 630.627 44.721 643.389 43.3117 656C42.663 661.805 39.6636 667.286 38.5216 673C36.908 681.074 41.1868 687.588 34 694L42 707C47.7821 705.419 53.1298 701.801 59 700.699C64.5983 699.648 70.3652 702.277 76 701.812C83.4366 701.197 90.437 698.2 98 698.015C107.286 697.787 117.038 700.465 125.981 699.926C133.676 699.462 131.98 688.561 142 689.299C149.463 689.849 155.985 695.896 159.648 702C161.909 705.767 164.312 712.843 170.001 711.636C188.843 707.639 187.123 695.02 188.711 680C189.578 671.793 185.346 664.659 196 661.256C205.146 658.335 213.071 669.154 222 668.59C229.184 668.136 231.365 660.038 238 658.666C243.335 657.563 248.521 661.593 254 660.758C260.745 659.729 265.758 653.121 272 650.613C284.807 645.466 303.012 650.656 309.651 634.996C314.026 624.678 308.11 617.165 303.781 608C297.958 595.672 292.921 583.693 294 570C287.919 571.237 282.4 567.995 277.059 568.982C272.341 569.854 268.13 585.622 268 590C260.259 589.749 259.265 583.531 252.961 581.241C248.78 579.722 245.28 584.545 241 583.176C236.099 581.608 232.03 576.105 228 573.04C217.865 565.331 195.493 556.42 192.218 542.999C190.684 536.714 195.686 530.557 198 525C211.728 538.292 221.594 529.565 236 523.99C242.942 521.303 249.724 522.567 252.756 514C254.417 509.307 249.514 499.776 248 495L242 500C238.186 495.859 230.897 489.864 230.233 484C229.45 477.083 234.923 471.961 229.647 465.319C227.123 462.14 223.34 464.062 220 462.771C216.767 461.521 214.407 458.238 211 457.442C206.016 456.278 198.569 462.812 194 464.648C187.735 467.165 179.693 466.687 173 468.25C167.232 469.597 161.757 467.327 156 469.232C147.151 472.161 140.565 479.224 132 482.007C104.565 490.921 54.744 499.23 52 534z"/>
</svg>
