<?xml version="1.0" standalone="yes"?>
<svg xmlns="http://www.w3.org/2000/svg" width="1450" height="753">
<path style="fill:#010101; stroke:none;" d="M0 0L0 753L1450 753L1450 0L0 0z"/>
<path style="fill:#ffffff; stroke:none;" d="M621 166C621.622 173.614 621.845 180.35 621.505 188C621.37 191.042 619.309 193.94 619.941 197C621.16 202.912 629.093 207.031 626.393 213.895C625.008 217.417 620.982 218.3 618.379 220.637C613.258 225.234 607.349 231.394 602.61 236.39C598.172 241.069 596.814 248.159 591.79 252.363C584.843 258.177 576.107 258.297 573 268C577.721 268 583.534 268.901 588 267.146C594.459 264.608 598.804 258.334 605 255.303C619.755 248.085 634.664 240.734 646.848 228.41C652.124 223.072 651.22 214.036 659.089 209.904C666.953 205.775 675.88 211.608 683 213.059C687.892 214.056 691.972 209.145 697 210.176C705.397 211.898 710.795 218.76 720 220C724.882 211.42 727.215 204.944 728 195L747 199L757 164L655 168.039L621 166z"/>
</svg>
