<?xml version="1.0" standalone="yes"?>
<svg xmlns="http://www.w3.org/2000/svg" width="1450" height="753">
<path style="fill:#010101; stroke:none;" d="M0 0L0 753L1450 753L1450 0L0 0z"/>
<path style="fill:#ffffff; stroke:none;" d="M329 208C333.34 209.973 333.742 214.358 337.317 216.272C341.662 218.599 347.586 216.805 351.362 220.514C354.185 223.288 354.654 227.576 356.994 230.671C361.918 237.184 371.113 244.728 379 247C373.712 265.583 359.91 275.354 342 280C342.78 284.139 342.569 292.111 345.742 295.142C350.231 299.432 360.704 295.484 366 294.729C377.309 293.117 387.817 294.711 399 295.829C403.636 296.293 408.004 295.367 412 298.314C416.142 301.368 423.975 306.871 425.454 312C426.493 315.599 423.763 319.444 423.415 323C422.83 328.983 424.779 344.883 428.742 349.501C432.739 354.16 443.306 356.074 449 358L457.945 337L461.589 321.638L483 313L480.637 298L483.309 284L473 259C488.13 255.53 492.584 240.108 495.754 227.039C497.8 218.605 496.939 211.567 498.325 203C499.235 197.376 502.646 191.726 502.515 186C502.287 175.975 499.165 165.096 499.933 155.004C500.299 150.187 506.027 146.449 508 142C503.471 138.797 494.217 131.166 488.957 130.434C484.521 129.818 480.366 132.501 476 132.726C471.698 132.948 468.219 131.639 464 133.353C458.012 135.784 454.444 141.648 448 142.897C443.531 143.762 439.328 141.551 435.09 142.356C426.269 144.033 417.294 147.536 408 149.33C404.657 149.976 400.447 148.397 397.379 149.643C393.918 151.049 392.384 156.149 389.79 158.674C385.452 162.898 379.436 166.161 374 168.737C368.049 171.557 361.992 169.884 356 171.966C340.18 177.463 333.248 193.248 329 208z"/>
</svg>
