<?xml version="1.0" standalone="yes"?>
<svg xmlns="http://www.w3.org/2000/svg" width="1450" height="753">
<path style="fill:#010101; stroke:none;" d="M0 0L0 753L1450 753L1450 0L0 0z"/>
<path style="fill:#ffffff; stroke:none;" d="M508 143C506.156 146.526 501.845 149.352 500.774 153.089C498.003 162.754 503.859 176.987 503.182 187C502.285 200.265 498.675 214.541 496.402 227.089C494.323 238.57 488.184 256.232 475 259C476.63 267.452 482.972 275.34 483.899 284C484.444 289.089 481.348 293.926 481.347 299C481.347 303.146 484.766 308.797 482.226 312.621C477.124 320.302 463.467 316.082 460.724 325.043C457.348 336.07 461.85 347.295 475 345C477.034 328.992 488.667 333.231 501 327.786C505.648 325.734 508.98 321.496 514 320.239C521.422 318.381 529.027 319.893 534.867 313.892C541.792 306.775 542.46 293.785 549.43 286.39C552.246 283.403 556.549 282.405 559.561 279.61C566.068 273.568 571.174 265.035 578.093 259.637C582.423 256.26 588.411 255.194 592.39 251.363C597.054 246.872 598.392 239.807 603.21 235.39C608.488 230.552 612.996 225.179 618.21 220.39C620.609 218.187 624.694 217.195 625.681 213.787C627.752 206.638 621.004 203.055 619.529 197C617.283 187.776 626.635 173.971 618.436 165.653C608.792 155.869 586.011 161.891 574 160.907C561.919 159.916 553.821 152.203 543 148.439C531.972 144.603 519.425 144.412 508 143z"/>
</svg>
