<?xml version="1.0" standalone="yes"?>
<svg xmlns="http://www.w3.org/2000/svg" width="1450" height="753">
<path style="fill:#010101; stroke:none;" d="M0 0L0 753L1450 753L1450 0L0 0z"/>
<path style="fill:#ffffff; stroke:none;" d="M128 186L139 185C143.968 177.022 149.274 171.634 158 168L147 144L154 141C152.633 133.983 151.323 132.026 144 132L143 125C150.986 123.834 162.207 116.044 164 108C158.061 108.053 153.644 110.853 148 111.671C139.52 112.899 130.547 109.883 122 112.97C117.128 114.729 114.023 118.573 110 121.582C105.193 125.177 97.9976 126.275 98.4128 133.946C98.5759 136.958 101.204 138.512 102.277 141.129C104.38 146.255 103.846 153.067 108.419 157.034C112.844 160.872 118.612 162.216 122.362 167.09C127.033 173.163 125.483 179.547 128 186M112 163C110.901 170.291 114.115 179.798 121 183C124.414 174.429 120.451 166.798 112 163z"/>
</svg>
