<?xml version="1.0" standalone="yes"?>
<svg xmlns="http://www.w3.org/2000/svg" width="1450" height="753">
<path style="fill:#010101; stroke:none;" d="M0 0L0 753L1450 753L1450 0L0 0z"/>
<path style="fill:#ffffff; stroke:none;" d="M1174 407L1173 407C1168.61 410.793 1159.91 419.383 1154 419.748C1145.26 420.286 1128.75 413.667 1121 417.654C1115.56 420.453 1114.38 425.485 1110.42 429.272C1108.31 431.288 1104.8 431.085 1103.02 433.513C1099.32 438.564 1100.77 443.347 1093 444.699C1084.87 446.114 1068.7 451.844 1061 449.61C1056.92 448.428 1049.21 435.679 1045.03 440.747C1035.7 452.035 1054.24 459.917 1052.83 468.001C1051.7 474.485 1040.24 492.373 1046.19 497.639C1051.74 502.547 1062.43 493.008 1065.9 503.019C1069.48 513.357 1058.02 524.052 1058.13 534C1058.24 543.295 1063.87 547.301 1067.72 555C1070.42 560.387 1070.88 567.044 1071 573C1076.41 572.985 1086.23 573.641 1090.32 569.682C1094.83 565.315 1096.51 555.993 1102.21 553.117C1108.66 549.864 1119.55 552.236 1127 549.15C1131.08 547.459 1134.08 544.066 1138 542.1C1142.48 539.854 1147.67 539.693 1152 537.005C1155.57 534.795 1158.13 530.777 1162 529.117C1171.86 524.887 1173.02 539.069 1180.1 541.275C1185.75 543.035 1191.46 540.092 1197 539.3C1204.61 538.213 1212.35 539.157 1220 537.87C1231.62 535.917 1237.57 522.189 1246.09 515.637C1253.87 509.65 1265.7 508.619 1272.61 501.61C1276.57 497.589 1275.99 491.608 1278.85 487.039C1289.55 470.002 1292.73 458.354 1288.67 438C1287.91 434.236 1288.72 429.522 1286.68 426.147C1283.69 421.204 1275.65 422.349 1271.02 419.633C1267.06 417.315 1265.59 412.697 1261.79 410.457C1256.52 407.356 1247.94 408.714 1242 407.788C1231.97 406.222 1223.89 398.633 1213 400.679C1196.73 403.736 1188.82 421.761 1174 407z"/>
</svg>
