<?xml version="1.0" standalone="yes"?>
<svg xmlns="http://www.w3.org/2000/svg" width="1450" height="753">
<path style="fill:#010101; stroke:none;" d="M0 0L0 753L1450 753L1450 0L0 0z"/>
<path style="fill:#ffffff; stroke:none;" d="M297 290C304.487 289.29 302.899 293.122 307.51 297.272C314.06 303.168 326.249 304.755 333 300L335 305C347.684 301.273 342.925 289.219 341 279C358.997 276.676 372.968 265.684 378 248L356.649 230.815L349.786 220.175L334 217C333.845 212.263 332.817 210.005 328 209C323.391 220.071 316.785 224.649 305 226.995C299.824 228.026 295.482 226.868 291 230L290 227L289 227L278 252L265 249C266.132 243.162 272.803 226.342 268.254 221.603C265.544 218.781 259.51 220.151 256 219.911C247.348 219.317 238.248 217.45 230 214.783C214.3 209.707 195.876 199.794 183 189.55C176.392 184.293 166.933 171.67 159 169.418C150.258 166.937 139.384 181.731 138.523 189C137.486 197.761 150.359 204.368 155.787 209.39C168.637 221.279 178.437 235.038 194 244.066C200.515 247.845 211.025 245.911 216.605 250.6C223.116 256.071 219.454 268.363 218.09 275C216.991 280.349 220.938 286.376 220.617 292C219.99 303.003 212.3 307.403 219.529 318.852C225.527 328.351 240.583 309.422 247.999 308.813C255.62 308.187 259.267 318.086 267 319.258C271.684 319.968 274.476 316.291 278 313.901C280.419 312.261 284.138 312.322 286.157 310.362C289.744 306.88 296.553 294.878 297 290M162 221C163.41 230.136 173.037 236.684 181 240L182 237L162 221z"/>
</svg>
