<?xml version="1.0" standalone="yes"?>
<svg xmlns="http://www.w3.org/2000/svg" width="1450" height="753">
<path style="fill:#010101; stroke:none;" d="M0 0L0 753L1450 753L1450 0L0 0z"/>
<path style="fill:#ffffff; stroke:none;" d="M1180 80L1177.23 91.6713L1156 102.85L1096 122L1099 129C1094.9 127.291 1090.5 124.02 1086 123.691C1079.15 123.188 1070.62 126.97 1064 128.627C1050.98 131.882 1037.26 134.668 1024 136.572C1012.33 138.247 1000.72 135.392 989.089 138.313C972.163 142.564 956.311 149.084 938 146.08C933.484 145.34 926.974 145.319 923.303 142.272C919.077 138.765 915.817 128.059 913 123C906.812 126.386 906.019 131.404 906 138C899.539 138.821 891.871 142.359 886 139L885 139L875.14 143.603L870.218 158L859.589 173.039L854.873 198L848.836 220L853.364 229L849.753 243L853 258L870.043 265.066L881 264.087L897 267L901.941 285L894 304L912 305.966L947 321C942.354 332.051 931.046 332.578 922 339C923.669 347.139 920.644 369.66 916.108 377C912.219 383.293 899.303 392.994 905.859 401.606C909.626 406.556 917.46 406.688 923 407.424C930.022 408.358 937.149 408.077 944 410.221C948.986 411.781 953.723 415.849 959 416.258C961.798 416.475 964.033 414.541 966.714 414.564C969.792 414.591 971.675 417.551 975.001 417.052C982.379 415.944 987.036 406.955 995 408.407C1007.16 410.622 1012.75 427.087 1021.43 434.57C1029.62 441.628 1040.25 435.403 1048.91 439.198C1054.15 441.493 1055.6 448.598 1062 449.281C1069.8 450.113 1080.11 445.537 1088 444.424C1091.29 443.96 1095.68 444.249 1098.43 442.062C1101.28 439.786 1100.19 436.149 1102.03 433.419C1103.77 430.83 1107.18 430.908 1109.46 429.066C1114.22 425.203 1116.43 418.439 1123 416.477C1126.52 415.424 1130.48 417.487 1134 417.823C1146.07 418.972 1163.94 420.483 1171.18 407.704C1174.47 401.904 1164.02 400.828 1161.32 398.348C1157.88 395.2 1159.54 390.133 1156.99 386.637C1154.65 383.443 1150.63 382.878 1148.85 378.957C1145.39 371.295 1146.28 361.986 1143.78 354C1141.43 346.502 1135.32 339.836 1134.22 332C1133.24 325.069 1138.22 315.375 1135.79 309.001C1133.36 302.649 1125.64 301.558 1121.64 296.787C1117 291.254 1118 283.704 1118 277C1133.26 275.794 1133.48 267.853 1144.19 259.702C1156.23 250.531 1175.49 249.982 1177 231C1181.22 232.92 1182.33 238.356 1186.15 239.566C1190.07 240.807 1194.07 238.635 1198 239.343C1202.43 240.142 1208.71 243.139 1213 244.853C1219.46 247.434 1223.68 253.856 1230 256.657C1233.66 258.282 1237.26 256.212 1241 257.143C1245.66 258.303 1249.22 262.398 1254 263.177C1265.35 265.025 1279.23 254.107 1282 244C1290.4 250.141 1296.8 243.495 1306 244.073C1310.99 244.387 1312.19 248.661 1316.3 250.396C1322.84 253.156 1335.49 248.79 1340.68 244.648C1344.8 241.364 1342.48 234.371 1341.75 230C1339.82 218.372 1336.17 195.674 1326.72 187.699C1319.99 182.02 1314.93 187.868 1308.02 186.233C1300.37 184.425 1301.57 173.012 1294.79 171.357C1282.21 168.287 1279.31 175.389 1272.36 182.57C1267.61 187.487 1254.7 197.041 1248 198.683C1237.07 201.362 1231.8 188.861 1221 188L1225.73 169L1226.22 149L1229 129L1212 124L1199.94 103.996L1195.49 91.7894L1180 80z"/>
<path style="fill:#010101; stroke:none;" d="M1033 159L1035 168C1046.04 176.275 1055.49 171.023 1068 170L1078 158L1067 157C1070.71 134.038 1039.49 154.319 1033 159z"/>
</svg>
