<?xml version="1.0" standalone="yes"?>
<svg xmlns="http://www.w3.org/2000/svg" width="1450" height="753">
<path style="fill:#010101; stroke:none;" d="M0 0L0 753L1450 753L1450 0L0 0z"/>
<path style="fill:#ffffff; stroke:none;" d="M458 339L450 359C440.977 355.948 421 344.792 414.603 358.39C410.411 367.302 413.701 379.045 403.787 386.146C398.717 389.777 392.52 387.354 387.3 389.603C383.226 391.359 381.211 396.655 377.907 399.482C371.058 405.341 363.042 411.014 355.91 416.491C352.878 418.819 347.942 419.485 346.118 423.188C343.63 428.24 348.521 437.192 347.891 443C347.274 448.686 342.285 452.073 344.816 457.999C348.896 467.556 359.61 471.055 365.436 479.09C369.57 484.79 366.464 495.405 371.728 500.062C379.963 507.347 387.163 493.165 395 494.471C399.143 495.161 402.752 498.174 407 498.411C410.556 498.61 413.623 496.365 417 495.649C421.643 494.665 426.268 496.529 431 495.291C435.587 494.091 438.698 490.543 443 488.854C447.218 487.199 453.608 489.693 457.035 486.397C467.217 476.599 468.703 462.057 470.285 449C471.532 438.714 474.717 429.109 476.535 419C477.765 412.167 476.784 405.75 479.001 399C481.407 391.673 483.096 382.662 487.085 376.039C489.499 372.031 495.03 369.152 495.191 364C495.444 355.882 483.123 351.446 480 344C469.426 346.827 467.161 344.27 458 339z"/>
</svg>
