<?xml version="1.0" standalone="yes"?>
<svg xmlns="http://www.w3.org/2000/svg" width="1450" height="753">
<path style="fill:#010101; stroke:none;" d="M0 0L0 753L1450 753L1450 0L0 0z"/>
<path style="fill:#ffffff; stroke:none;" d="M300 492L282.184 494.672L271.329 480.055L257 466C250.938 473.747 267.418 493.397 249 494C249.999 499.301 255.011 509.139 253.138 514C249.581 523.231 242.64 522.033 235 524.99C219.085 531.149 213.752 536.912 198 526C196.181 530.369 192.552 535.156 192.513 540C192.405 553.53 214.412 563.464 224 569.89C229.382 573.496 234.727 581.099 241 582.849C244.996 583.964 248.106 579.814 251.996 580.665C258.241 582.031 259.611 588.76 267 589C267.618 584.373 272.132 569.885 277.019 568.637C282.447 567.252 286.843 572.112 292.787 569.146C301.38 564.858 303.277 557.492 315 561.228C327.182 565.111 336.274 576.444 351 574.532C370.191 572.039 385.126 554.782 404 551.779C410.63 550.725 421.481 561.547 425.393 558.777C429.42 555.925 424.437 544.548 423.348 541C421.145 533.822 422.219 525.711 418.2 519.108C415.718 515.03 410.632 514.19 408.318 509.956C405.569 504.927 408.182 500.458 401.981 497.619C389.822 492.053 382.656 502.542 370 502L365.062 479.17L342 454C332.955 457.767 330.208 464.723 322.91 470.363C314.239 477.063 300.157 478.747 300 492z"/>
</svg>
