<?xml version="1.0" standalone="yes"?>
<svg xmlns="http://www.w3.org/2000/svg" width="1231" height="874">
<path style="fill:#010101; stroke:none;" d="M0 0L0 874L1231 874L1231 0L0 0z"/>
<path style="fill:#ffffff; stroke:none;" d="M530 186L521 189L523 218L530 222L529 225L530 227L537 225L538 225L539 225C543.145 231.494 547.756 238.404 542 246L543 244L542 244L539 246L539 247L543 247L543 248L539 248L542 254L550 258L548 257L555 264L561 258C564.682 257.338 565.799 255.491 567 252L565 254L564 254L562 249L556 250C556 243.765 556.886 238.516 552 234L554 234C550.374 228.265 555.226 209.334 549 208L549 207L551 206C546.406 200.541 544.726 197.84 537 196L534 188L530 186z"/>
<path style="fill:#fbfbfb; stroke:none;" d="M531 186L531 188L533 188L531 186z"/>
<path style="fill:#ffffff; stroke:none;" d="M532 186L533 187L532 186z"/>
<path style="fill:#fbfbfb; stroke:none;" d="M528 187L529 188L528 187z"/>
<path style="fill:#f6f6f6; stroke:none;" d="M530 187L531 188L530 187z"/>
<path style="fill:#fbfbfb; stroke:none;" d="M521 190L522 191L521 190z"/>
<path style="fill:#f6f6f6; stroke:none;" d="M523 190L524 191L523 190z"/>
<path style="fill:#fbfbfb; stroke:none;" d="M525 190L526 191L525 190M532 190L533 191L532 190M534 190L535 191L534 190M523 191L524 192L523 191z"/>
<path style="fill:#f6f6f6; stroke:none;" d="M527 191L528 192L527 191z"/>
<path style="fill:#fbfbfb; stroke:none;" d="M538 194L537 196L539 196L538 194M540.667 197.333L541.333 197.667L540.667 197.333M544 198L544 199L548 199L544 198M523 200L523 216L524 216L523 200M548 204L549 205L548 204M549 205L550 206L549 205M548 206L549 207L548 206M549.667 207.333L550.333 207.667L549.667 207.333M524 216L525 217L524 216M526 216L527 217L526 216M526 218L529 221L526 218M530.667 221.333L531.333 221.667L530.667 221.333M529.333 222.667L529.667 223.333L529.333 222.667M531 223L531 224L536 225L536 224L531 223z"/>
<path style="fill:#f0f0f0; stroke:none;" d="M548 224L549 225L548 224z"/>
<path style="fill:#fbfbfb; stroke:none;" d="M530 225L531 226L530 225M537.667 225.333L538.333 225.667L537.667 225.333M542 226L544 228L542 226M549 226L548 231L551 230L549 226z"/>
<path style="fill:#f6f6f6; stroke:none;" d="M549 230L550 231L549 230M543 231L544 232L543 231z"/>
<path style="fill:#fbfbfb; stroke:none;" d="M544 231L544 237L545 237L544 231M552 231L552 233L554 233L552 231M552 234L553 235L552 234z"/>
<path style="fill:#f6f6f6; stroke:none;" d="M553 234L554 235L553 234z"/>
<path style="fill:#fbfbfb; stroke:none;" d="M554 234L554 237L555 237L554 234z"/>
<path style="fill:#f0f0f0; stroke:none;" d="M552 236L553 237L552 236z"/>
<path style="fill:#fbfbfb; stroke:none;" d="M554.333 238.667L554.667 239.333L554.333 238.667M552 239L553 240L552 239M543 243L542 246L543 243M539 247L539 248L543 248L539 247M560 251L560 258L564 257L560 251M540 252L540 253L543 253L540 252M544 252L547 255L547 252L544 252M565 252L566 253L565 252M543 253L544 254L543 253M564 253L565 254L564 253M547 255L550 258L547 255z"/>
<path style="fill:#ffffff; stroke:none;" d="M561 255L562 256L561 255z"/>
<path style="fill:#fbfbfb; stroke:none;" d="M550 258L554 261L554 260L550 258M561 258L562 259L561 258M560 259L561 260L560 259M553 262L554 263L553 262M555.333 262.667L555.667 263.333L555.333 262.667M553.667 264.333L554.333 264.667L553.667 264.333z"/>
</svg>
