<?xml version="1.0" standalone="yes"?>
<svg xmlns="http://www.w3.org/2000/svg" width="1231" height="874">
<path style="fill:#010101; stroke:none;" d="M0 0L0 874L1231 874L1231 0L0 0z"/>
<path style="fill:#ffffff; stroke:none;" d="M913 469C913.705 472.458 914.458 474.323 918 475L918 474L915 474L916 472L914 472L915 470L913 469z"/>
<path style="fill:#f5f5f5; stroke:none;" d="M914 471L915 472L914 471M915 473L917 475L917 473L915 473M917.667 475.333L918.333 475.667L917.667 475.333z"/>
<path style="fill:#ffffff; stroke:none;" d="M918 476L918 477L924 479C923.217 484.325 925.19 489.361 930 492L932 501L919 507C912.779 506.383 911.536 518.859 909 524L902 526C903.713 536.66 915.057 532.022 923 532C924.97 522.249 931.68 524.618 939 527L938 530L940 530L937 532C940.89 539.435 948.95 537.887 956 538C953.029 527.454 952.867 521.503 955 511L951 512L943 507C945.471 502.2 952.219 495.615 946 491L947 489C938.27 481.998 928.873 478.494 918 476z"/>
<path style="fill:#f5f5f5; stroke:none;" d="M921 478L924 480L921 478M928 479L929 480L928 479M939 483L940 484L939 483M924 484L925 485L924 484M942.667 487.333L943.333 487.667L942.667 487.333M945 488L946 489L945 488M946 490L947 491L946 490M929 492L930 493L929 492M948 495L949 496L948 495M948 497L949 498L948 497M927 502L928 503L927 502M940.333 505.667L940.667 506.333L940.333 505.667M918 506L919 507L918 506M917 507L918 508L917 507M920 507L921 508L920 507M923 507L924 508L923 507M947 509L948 510L947 509M951.333 510.667L951.667 511.333L951.333 510.667M914 511L915 512L914 511M954 512L955 513L954 512M952 513L953 514L952 513M924 520L925 521L924 520M931 520L932 521L931 520M908 523L909 524L908 523M935 524L936 525L935 524M903 525L904 526L903 525M905 527L906 528L905 527M938 530L938 533L939 533L940 530L938 530M939 534L940 535L939 534M943 537L944 538L943 537M954 537L955 538L954 537z"/>
<path style="fill:#010915; stroke:none;" d="M391.667 597.333L392.333 597.667L391.667 597.333z"/>
<path style="fill:#010c23; stroke:none;" d="M400 600L401 601L400 600M387 601L388 602L387 601M401 602L402 603L401 602z"/>
<path style="fill:#010915; stroke:none;" d="M401 603L402 604L401 603z"/>
<path style="fill:#010c23; stroke:none;" d="M386 604L387 605L386 604M401 605L402 606L401 605M386 607L387 608L386 607z"/>
<path style="fill:#010915; stroke:none;" d="M386 608L387 609L386 608z"/>
<path style="fill:#010c23; stroke:none;" d="M387 609L388 610L387 609M388 610L389 611L388 610M397 610L398 611L397 610M389 611L390 612L389 611M395 611L396 612L395 611M391 612L392 613L391 612z"/>
</svg>
