<?xml version="1.0" standalone="yes"?>
<svg xmlns="http://www.w3.org/2000/svg" width="1231" height="874">
<path style="fill:#010101; stroke:none;" d="M0 0L0 874L1231 874L1231 0L0 0z"/>
<path style="fill:#ffffff; stroke:none;" d="M757 556L758 560L756 558L753 560L739.643 561.473L738.991 569.83L736 580C731.436 583.716 730.464 591.609 732 597L744 596L744 601L749 600L752 603L753 605L754 610C760.252 606.067 766.967 596.62 770 590C759.325 588.333 760.725 565.464 765 558L757 556z"/>
<path style="fill:#fbfafb; stroke:none;" d="M756 557L755 560L758 560L756 557z"/>
<path style="fill:#f7f7f7; stroke:none;" d="M759 557L760 558L759 557z"/>
<path style="fill:#fbfafb; stroke:none;" d="M758 558L758 559L762 561L762 560L758 558z"/>
<path style="fill:#ffffff; stroke:none;" d="M759 558L760 559L759 558z"/>
<path style="fill:#f3f3f3; stroke:none;" d="M760 558L761 559L760 558z"/>
<path style="fill:#f7f7f7; stroke:none;" d="M761 558L763 560L761 558z"/>
<path style="fill:#fbfafb; stroke:none;" d="M742 559L743 560L742 559M749.667 559.333L750.333 559.667L749.667 559.333M752 559L753 560L752 559z"/>
<path style="fill:#ffffff; stroke:none;" d="M761 559L762 560L761 559z"/>
<path style="fill:#fbfafb; stroke:none;" d="M764 559L765 560L764 559M763 560L764 561L763 560M760 561L760 564L761 564L760 561M762 561L763 562L762 561z"/>
<path style="fill:#f7f7f7; stroke:none;" d="M760 567L761 568L760 567z"/>
<path style="fill:#fbfafb; stroke:none;" d="M760 573L761 574L760 573z"/>
<path style="fill:#f7f7f7; stroke:none;" d="M735 575L736 576L735 575M739 575L740 576L739 575z"/>
<path style="fill:#fbfafb; stroke:none;" d="M735 576L736 577L735 576M735.333 578.667L735.667 579.333L735.333 578.667z"/>
<path style="fill:#f3f3f3; stroke:none;" d="M734 579L735 580L734 579z"/>
<path style="fill:#fbfafb; stroke:none;" d="M760 580L760 586L761 586L760 580M733.333 582.667L733.667 583.333L733.333 582.667z"/>
<path style="fill:#f7f7f7; stroke:none;" d="M733 584L734 585L733 584z"/>
<path style="fill:#fbfafb; stroke:none;" d="M735 584L733 591L734 591L735 584M735 587L736 588L735 587M731 591L732 592L731 591z"/>
<path style="fill:#f7f7f7; stroke:none;" d="M768 591L769 592L768 591z"/>
<path style="fill:#f3f3f3; stroke:none;" d="M739 592L740 593L739 592M765 592L764 594L765 592z"/>
<path style="fill:#fbfafb; stroke:none;" d="M741 593L743 595L741 593z"/>
<path style="fill:#f7f7f7; stroke:none;" d="M742 593L743 594L742 593M741 594L742 595L741 594z"/>
<path style="fill:#fbfafb; stroke:none;" d="M736 595L737 596L736 595M733 596L733 598L735 596L733 596M743 596L744 597L743 596z"/>
<path style="fill:#f7f7f7; stroke:none;" d="M760 599L761 600L760 599z"/>
<path style="fill:#fbfafb; stroke:none;" d="M748 600L749 601L748 600z"/>
<path style="fill:#f7f7f7; stroke:none;" d="M748 601L749 602L748 601z"/>
<path style="fill:#fbfafb; stroke:none;" d="M761 601L762 602L761 601M749 602L750 603L749 602z"/>
<path style="fill:#f7f7f7; stroke:none;" d="M750 603L751 604L750 603z"/>
<path style="fill:#fbfafb; stroke:none;" d="M751 603L752 604L751 603M752 605L753 606L752 605M753 606L754 607L753 606M757 606L758 607L757 606z"/>
<path style="fill:#f7f7f7; stroke:none;" d="M755 607L756 608L755 607z"/>
<path style="fill:#f3f3f3; stroke:none;" d="M757 607L758 608L757 607z"/>
<path style="fill:#fbfafb; stroke:none;" d="M753 608L754 609L753 608M755.333 609.667L755.667 610.333L755.333 609.667z"/>
</svg>
