<?xml version="1.0" standalone="yes"?>
<svg xmlns="http://www.w3.org/2000/svg" width="1231" height="874">
<path style="fill:#010101; stroke:none;" d="M0 0L0 874L1231 874L1231 0L0 0z"/>
<path style="fill:#fdfcfd; stroke:none;" d="M719 636L724 638L724 637L719 636z"/>
<path style="fill:#ffffff; stroke:none;" d="M720 636L720 637L723 638L720 636M717 637L716 640L702 644C700.873 641.994 700.127 641.994 699 644L687 643L683 647L685 649C685.966 654.39 696.127 665.552 701 668C701.192 671.934 702.513 674.141 706 676L707 678L708 683L716 684C717.475 686.792 723.774 688.727 725.5 684.889C729.441 676.123 724.663 666.243 730 657L728 655L731 656L731 652L737 643L717 637z"/>
<path style="fill:#f8f8f8; stroke:none;" d="M724 637L725 638L724 637z"/>
<path style="fill:#fdfcfd; stroke:none;" d="M726 638L727 639L726 638M715 639L716 640L715 639z"/>
<path style="fill:#f8f8f8; stroke:none;" d="M718 639L719 640L718 639z"/>
<path style="fill:#fdfcfd; stroke:none;" d="M720.333 639.667L720.667 640.333L720.333 639.667M727 639L728 640L727 639M710 641L711 642L710 641z"/>
<path style="fill:#f8f8f8; stroke:none;" d="M711 641L712 642L711 641z"/>
<path style="fill:#fdfcfd; stroke:none;" d="M731 641L732 642L731 641z"/>
<path style="fill:#f8f8f8; stroke:none;" d="M732 641L733 642L732 641z"/>
<path style="fill:#fdfcfd; stroke:none;" d="M698.333 642.667L698.667 643.333L698.333 642.667M729.333 642.667L729.667 643.333L729.333 642.667M734 642L735 643L734 642M702 643L703 644L702 643M710 643L711 644L710 643M731 643L732 644L731 643M686.667 644.333L687.333 644.667L686.667 644.333z"/>
<path style="fill:#f8f8f8; stroke:none;" d="M732 644L733 645L732 644z"/>
<path style="fill:#fdfcfd; stroke:none;" d="M684.333 646.667L684.667 647.333L684.333 646.667z"/>
<path style="fill:#f8f8f8; stroke:none;" d="M687 646L686 648L687 646z"/>
<path style="fill:#fdfcfd; stroke:none;" d="M687 647L689 650L687 647z"/>
<path style="fill:#f8f8f8; stroke:none;" d="M734 648L735 649L734 648z"/>
<path style="fill:#fdfcfd; stroke:none;" d="M684 649L685 650L684 649M685 650L686 651L685 650z"/>
<path style="fill:#f8f8f8; stroke:none;" d="M687 651L688 652L687 651z"/>
<path style="fill:#fdfcfd; stroke:none;" d="M689 651L690 652L689 651M691 652L690 654L691 652M731.667 652.333L732.333 652.667L731.667 652.333M728 653L728 654L731 654L731 653L728 653M688 654L691 657L688 654M728.333 655.667L728.667 656.333L728.333 655.667z"/>
<path style="fill:#f8f8f8; stroke:none;" d="M689 656L690 657L689 656M729 656L730 657L729 656M728 657L729 658L728 657M691 659L692 660L691 659M728 659L729 660L728 659z"/>
<path style="fill:#fdfcfd; stroke:none;" d="M692 660L693 661L692 660z"/>
<path style="fill:#f8f8f8; stroke:none;" d="M693 660L694 661L693 660z"/>
<path style="fill:#fdfcfd; stroke:none;" d="M694 660L696 662L694 660M727 660L728 661L727 660z"/>
<path style="fill:#ffffff; stroke:none;" d="M693 661L695 663L693 661z"/>
<path style="fill:#f4f4f4; stroke:none;" d="M694 661L695 662L694 661z"/>
<path style="fill:#fdfcfd; stroke:none;" d="M724 661L724 664L727 661L724 661z"/>
<path style="fill:#f8f8f8; stroke:none;" d="M695 662L696 663L695 662z"/>
<path style="fill:#fdfcfd; stroke:none;" d="M695 663L696 664L695 663M698 665L699 666L698 665z"/>
<path style="fill:#f8f8f8; stroke:none;" d="M699 668L700 669L699 668z"/>
<path style="fill:#fdfcfd; stroke:none;" d="M700 668L701 669L700 668M702.333 668.667L702.667 669.333L702.333 668.667z"/>
<path style="fill:#f8f8f8; stroke:none;" d="M703 669L704 670L703 669M702 670L703 671L702 670z"/>
<path style="fill:#fdfcfd; stroke:none;" d="M701 671L702 672L701 671z"/>
<path style="fill:#f8f8f8; stroke:none;" d="M703 673L704 674L703 673z"/>
<path style="fill:#fdfcfd; stroke:none;" d="M704.667 676.333L705.333 676.667L704.667 676.333z"/>
<path style="fill:#f8f8f8; stroke:none;" d="M707 677L708 678L707 677z"/>
<path style="fill:#fdfcfd; stroke:none;" d="M706 678L707 679L706 678z"/>
<path style="fill:#f8f8f8; stroke:none;" d="M707 679L708 680L707 679z"/>
<path style="fill:#fdfcfd; stroke:none;" d="M708 680L709 681L708 680z"/>
<path style="fill:#f8f8f8; stroke:none;" d="M710 680L711 681L710 680z"/>
<path style="fill:#fdfcfd; stroke:none;" d="M724.333 680.667L724.667 681.333L724.333 680.667z"/>
<path style="fill:#f8f8f8; stroke:none;" d="M726 680L727 681L726 680z"/>
<path style="fill:#fdfcfd; stroke:none;" d="M726 681L727 682L726 681z"/>
<path style="fill:#f8f8f8; stroke:none;" d="M709 682L710 683L709 682M711 683L712 684L711 683z"/>
<path style="fill:#f4f4f4; stroke:none;" d="M714 684L715 685L714 684z"/>
<path style="fill:#fdfcfd; stroke:none;" d="M715 684L716 685L715 684z"/>
<path style="fill:#f8f8f8; stroke:none;" d="M717 685L718 686L717 685z"/>
<path style="fill:#fdfcfd; stroke:none;" d="M725 685L726 686L725 685z"/>
</svg>
