<?xml version="1.0" standalone="yes"?>
<svg xmlns="http://www.w3.org/2000/svg" width="1231" height="874">
<path style="fill:#010101; stroke:none;" d="M0 0L0 874L1231 874L1231 0L0 0z"/>
<path style="fill:#ffffff; stroke:none;" d="M505 299C503.654 303.553 502.134 313.622 506 317L504 334L507 329L508 329L503 336C504.349 342.151 509.482 347.776 516 348L514 351L515 352C523.68 348.386 528.606 346.57 538 349L540 347C539.705 338.747 552.272 340.991 557 339L558 326L558 325L556 325L556 324L556 321L559 321L561 314L560 313L556 317L544 315L542 318L543 321C541.189 320.958 538.775 321.347 541 323L541 324C534.635 323.138 529.036 318.303 525 326L516 323C517.757 315.353 514.756 308.574 511 302L508 303L505 299z"/>
<path style="fill:#fdfcfd; stroke:none;" d="M508 301L509 302L508 301z"/>
<path style="fill:#f8f8f8; stroke:none;" d="M508 302L509 303L508 302z"/>
<path style="fill:#f3f3f3; stroke:none;" d="M511 303L512 304L511 303z"/>
<path style="fill:#fdfcfd; stroke:none;" d="M512 304L513 305L512 304z"/>
<path style="fill:#f8f8f8; stroke:none;" d="M512 306L513 307L512 306z"/>
<path style="fill:#fdfcfd; stroke:none;" d="M512 308L513 309L512 308z"/>
<path style="fill:#f8f8f8; stroke:none;" d="M512 309L513 310L512 309z"/>
<path style="fill:#fdfcfd; stroke:none;" d="M513 310L514 311L513 310M560 313L561 314L560 313M557 314L558 315L557 314M559 314L558 316L559 314M516 315L517 316L516 315M548 315L548 316L556 317L548 315M560 315L561 316L560 315M507 316L507 319L508 319L507 316M543 316L543 319L544 319L543 316M559 316L560 317L559 316M505 317L506 318L505 317M556 317L557 318L556 317M558 317L559 318L558 317M541 319L543 321L543 319L541 319z"/>
<path style="fill:#f8f8f8; stroke:none;" d="M557 320L558 321L557 320z"/>
<path style="fill:#fdfcfd; stroke:none;" d="M516.333 321.667L516.667 322.333L516.333 321.667M532 321L533 322L532 321M543 321L544 322L543 321M556 321L558 323L558 321L556 321M531.333 322.667L531.667 323.333L531.333 322.667M536 322L540 324L536 322M528.667 323.333L529.333 323.667L528.667 323.333z"/>
<path style="fill:#f8f8f8; stroke:none;" d="M530 323L531 324L530 323z"/>
<path style="fill:#fdfcfd; stroke:none;" d="M533 323L534 324L533 323z"/>
<path style="fill:#f8f8f8; stroke:none;" d="M540 323L541 324L540 323z"/>
<path style="fill:#fdfcfd; stroke:none;" d="M542 323L543 324L542 323M556.667 324.333L557.333 324.667L556.667 324.333M521 325L523 327L521 325M524 325L525 326L524 325M526 325L525 328L526 328L526 325z"/>
<path style="fill:#f8f8f8; stroke:none;" d="M556 326L557 327L556 326M520 327L521 328L520 327M527 327L528 328L527 327z"/>
<path style="fill:#fdfcfd; stroke:none;" d="M556 328L557 329L556 328M507.333 329.667L507.667 330.333L507.333 329.667M505 330L504 332L506 332L505 330M556 330L557 331L556 330z"/>
<path style="fill:#f8f8f8; stroke:none;" d="M507 331L508 332L507 331z"/>
<path style="fill:#fdfcfd; stroke:none;" d="M504 336L508 332L504 336z"/>
<path style="fill:#f8f8f8; stroke:none;" d="M503 335L504 336L503 335z"/>
<path style="fill:#fdfcfd; stroke:none;" d="M556 336L557 337L556 336M503 337L504 338L503 337z"/>
<path style="fill:#f8f8f8; stroke:none;" d="M502 338L503 339L502 338z"/>
<path style="fill:#fdfcfd; stroke:none;" d="M502 339L505 342L502 339z"/>
<path style="fill:#f8f8f8; stroke:none;" d="M502 340L503 341L502 340M504 340L505 341L504 340M544 340L545 341L544 340z"/>
<path style="fill:#fdfcfd; stroke:none;" d="M506 341L507 342L506 341M506 343L508 345L506 343z"/>
<path style="fill:#f8f8f8; stroke:none;" d="M507 343L508 344L507 343z"/>
<path style="fill:#fdfcfd; stroke:none;" d="M510 344L511 345L510 344M524 344L524 345L528 345L524 344z"/>
<path style="fill:#f3f3f3; stroke:none;" d="M528 344L529 345L528 344z"/>
<path style="fill:#fdfcfd; stroke:none;" d="M538 344L539 345L538 344M509 345L510 346L509 345M530.667 345.333L531.333 345.667L530.667 345.333M539.667 345.333L540.333 345.667L539.667 345.333M531 347L532 348L531 347z"/>
<path style="fill:#f8f8f8; stroke:none;" d="M537.667 347.333L538.333 347.667L537.667 347.333z"/>
<path style="fill:#fdfcfd; stroke:none;" d="M514 348L514 350L516 348L514 348M536 348L537 349L536 348M516 349L517 350L516 349M517 350L518 351L517 350M516 351L517 352L516 351z"/>
</svg>
