<?xml version="1.0" standalone="yes"?>
<svg xmlns="http://www.w3.org/2000/svg" width="1231" height="874">
<path style="fill:#010101; stroke:none;" d="M0 0L0 874L1231 874L1231 0L0 0z"/>
<path style="fill:#ffffff; stroke:none;" d="M312 645C319.355 632.398 324.668 609.16 341 606C337.736 603.04 334.769 604.853 331.17 603.088C327.589 601.331 325.542 597.414 321 597.758C317.357 598.035 314.694 601.199 311 601.471C308.283 601.672 300.816 596.958 299.306 600.369C296.507 606.694 310.136 606.851 310.404 612.108C310.61 616.161 306.216 619.428 304.858 623C302.31 629.702 307.076 640.535 312 645z"/>
</svg>
