<?xml version="1.0" standalone="yes"?>
<svg xmlns="http://www.w3.org/2000/svg" width="1231" height="874">
<path style="fill:#010101; stroke:none;" d="M0 0L0 874L1231 874L1231 0L0 0z"/>
<path style="fill:#ffffff; stroke:none;" d="M587 549L587 550L592 551L592 552L589 552C588.98 559.256 587.315 567.143 582.582 572.945C579.135 577.171 573.274 577.965 573 584L572 585L570 584L571 586L570 586C564.166 587.117 560.887 598.556 561 604L554 610L556 612L552 611C554.283 617.879 567.478 615.531 571.352 610.853C573.863 607.82 574.419 603.44 577.474 600.819C579.89 598.745 582.993 598.518 585 596C591.395 598.182 606.31 602.638 611 596L620 597L622 584L641 580L639 576L643 576L643 575C632.494 575 632.789 569.255 624.588 565.778C622.082 564.715 621.251 565.939 621 568L618 571L605 571L597 568L594 562L600 558L597 558C594.926 553.007 592.655 549.436 587 549z"/>
<path style="fill:#fbfafb; stroke:none;" d="M588 551L588 552L592 552L588 551z"/>
<path style="fill:#f2f2f2; stroke:none;" d="M594 555L595 556L594 555z"/>
<path style="fill:#fbfafb; stroke:none;" d="M597.333 556.667L597.667 557.333L597.333 556.667M599 557L600 560L601 560L599 557z"/>
<path style="fill:#f7f7f7; stroke:none;" d="M600 557L601 558L600 557z"/>
<path style="fill:#fbfafb; stroke:none;" d="M598 558L599 559L598 558z"/>
<path style="fill:#f7f7f7; stroke:none;" d="M596 559L597 560L596 559z"/>
<path style="fill:#fbfafb; stroke:none;" d="M592 560L591 562L592 560z"/>
<path style="fill:#f7f7f7; stroke:none;" d="M594 560L595 561L594 560z"/>
<path style="fill:#fbfafb; stroke:none;" d="M596 560L597 561L596 560M599 560L600 561L599 560z"/>
<path style="fill:#f7f7f7; stroke:none;" d="M593 561L594 562L593 561z"/>
<path style="fill:#fbfafb; stroke:none;" d="M589 562L590 563L589 562M594 562L595 563L594 562z"/>
<path style="fill:#f2f2f2; stroke:none;" d="M592 564L593 565L592 564z"/>
<path style="fill:#fbfafb; stroke:none;" d="M594.333 566.667L594.667 567.333L594.333 566.667M623 566L622 568L624 568L623 566M625 566L626 567L625 566M587 567L588 568L587 567z"/>
<path style="fill:#f7f7f7; stroke:none;" d="M592 567L593 568L592 567z"/>
<path style="fill:#fbfafb; stroke:none;" d="M597 567L598 568L597 567M620 567L621 568L620 567z"/>
<path style="fill:#f7f7f7; stroke:none;" d="M600 568L601 569L600 568z"/>
<path style="fill:#fbfafb; stroke:none;" d="M601 568L602 569L601 568M606.333 569.667L606.667 570.333L606.333 569.667M613.667 569.333L614.333 569.667L613.667 569.333M619 569L620 570L619 569z"/>
<path style="fill:#f7f7f7; stroke:none;" d="M605 570L606 571L605 570M615 570L616 571L615 570M617 570L618 571L617 570z"/>
<path style="fill:#fbfafb; stroke:none;" d="M587 571L588 572L587 571M600 571L601 572L600 571M602 571L603 572L602 571M616 571L617 572L616 571M618 571L619 572L618 571M628 573L630 575L630 573L628 573M582 575L583 576L582 575M579 578L578 580L580 580L579 578M640 578L641 579L640 578M576 579L577 580L576 579M636 579L637 580L636 579M641 579L642 580L641 579z"/>
<path style="fill:#ffffff; stroke:none;" d="M642 579L643 580L642 579z"/>
<path style="fill:#fbfafb; stroke:none;" d="M626 580L627 581L626 580M571 581L569 584L572 585L573 581L571 581M574 581L574 582L577 582L574 581z"/>
<path style="fill:#f7f7f7; stroke:none;" d="M570 582L571 583L570 582z"/>
<path style="fill:#f2f2f2; stroke:none;" d="M572 583L573 584L572 583z"/>
<path style="fill:#fbfafb; stroke:none;" d="M575 583L576 584L575 583z"/>
<path style="fill:#f2f2f2; stroke:none;" d="M569 584L570 585L569 584z"/>
<path style="fill:#fbfafb; stroke:none;" d="M622 584L623 585L622 584M569.667 585.333L570.333 585.667L569.667 585.333M620 585L621 586L620 585z"/>
<path style="fill:#f2f2f2; stroke:none;" d="M571 587L572 588L571 587z"/>
<path style="fill:#f7f7f7; stroke:none;" d="M567 590L568 591L567 590z"/>
<path style="fill:#fbfafb; stroke:none;" d="M564 591L565 592L564 591M566.333 591.667L566.667 592.333L566.333 591.667M620 592L621 593L620 592M565 594L566 595L565 594M563 595L564 596L563 595z"/>
<path style="fill:#f7f7f7; stroke:none;" d="M576 596L577 597L576 596z"/>
<path style="fill:#fbfafb; stroke:none;" d="M585.333 596.667L585.667 597.333L585.333 596.667M594 596L595 597L594 596M608 596L609 597L608 596z"/>
<path style="fill:#f7f7f7; stroke:none;" d="M611 596L612 597L611 596z"/>
<path style="fill:#f2f2f2; stroke:none;" d="M611 597L612 598L611 597z"/>
<path style="fill:#f7f7f7; stroke:none;" d="M595 598L596 599L595 598M572 600L573 601L572 600z"/>
<path style="fill:#fbfafb; stroke:none;" d="M576 600L577 601L576 600M563 602L564 603L563 602M560 603L561 604L560 603M574 604L575 605L574 604M558 605L559 606L558 605M557 607L558 608L557 607z"/>
<path style="fill:#f7f7f7; stroke:none;" d="M568 608L569 609L568 608z"/>
<path style="fill:#fbfafb; stroke:none;" d="M553 610L553 611L556 612L556 609L553 610M551.333 611.667L551.667 612.333L551.333 611.667z"/>
<path style="fill:#f7f7f7; stroke:none;" d="M554 611L555 612L554 611z"/>
<path style="fill:#fbfafb; stroke:none;" d="M570 612L571 613L570 612M569 613L570 614L569 613z"/>
</svg>
