<?xml version="1.0" standalone="yes"?>
<svg xmlns="http://www.w3.org/2000/svg" width="1231" height="874">
<path style="fill:#010101; stroke:none;" d="M0 0L0 874L1231 874L1231 0L0 0z"/>
<path style="fill:#f7f7f7; stroke:none;" d="M1006 272L1007 273L1006 272z"/>
<path style="fill:#fbfbfb; stroke:none;" d="M1005.33 273.667L1005.67 274.333L1005.33 273.667z"/>
<path style="fill:#ffffff; stroke:none;" d="M1006 273L1004 274L1003 275L1004 277L1002 281L990.397 299.517L983.184 302.903L970 317L972 317L969 320C967.306 317.515 961.16 325.554 959.222 327.361C953.588 332.615 950.228 339.466 944.778 344.917C940.596 349.099 936.366 349.296 936 356L933 358L931 355L930 359L930 360L900 361L900 363L914 363L914 364L900 364L909 378L912 376L914 384L916 383C917.744 387.017 923.148 393.221 927 388C933.728 389.592 941.403 382.563 942 376L944 366L945 366L945 369L946 369C950.116 356.864 963.318 345.134 972.261 336.335C976.375 332.287 984.107 325.949 984 320L992 314L992 313L989 316L988 316L988 312L992 309L993 309L993 312L998 309L996 303L999 302L1001 289L1004 290L1006 282L1009 281L1006 273z"/>
<path style="fill:#fbfbfb; stroke:none;" d="M1007 273L1008 274L1007 273M1007 275L1008 276L1007 275M1003 276L1004 277L1003 276M1008 279L1009 280L1008 279M1001 280L1002 281L1001 280z"/>
<path style="fill:#f3f3f3; stroke:none;" d="M1003 280L1004 281L1003 280z"/>
<path style="fill:#f7f7f7; stroke:none;" d="M1005 280L1006 281L1005 280z"/>
<path style="fill:#fbfbfb; stroke:none;" d="M1006 280L1007 281L1006 280z"/>
<path style="fill:#f7f7f7; stroke:none;" d="M1007 280L1008 281L1007 280z"/>
<path style="fill:#fbfbfb; stroke:none;" d="M1002.67 281.333L1003.33 281.667L1002.67 281.333z"/>
<path style="fill:#f3f3f3; stroke:none;" d="M1005 281L1006 282L1005 281z"/>
<path style="fill:#fbfbfb; stroke:none;" d="M999.333 282.667L999.667 283.333L999.333 282.667M1004.33 282.667L1004.67 283.333L1004.33 282.667M1006 282L1007 283L1006 282M1001 283L1002 284L1001 283z"/>
<path style="fill:#f7f7f7; stroke:none;" d="M1003 283L1004 284L1003 283z"/>
<path style="fill:#fbfbfb; stroke:none;" d="M998 284L999 285L998 284z"/>
<path style="fill:#f3f3f3; stroke:none;" d="M997 285L998 286L997 285z"/>
<path style="fill:#f7f7f7; stroke:none;" d="M998 285L999 286L998 285z"/>
<path style="fill:#fbfbfb; stroke:none;" d="M996 287L997 288L996 287M1003 288L1004 289L1003 288z"/>
<path style="fill:#f7f7f7; stroke:none;" d="M1001 289L1003 291L1001 289z"/>
<path style="fill:#fbfbfb; stroke:none;" d="M1002 289L1003 290L1002 289M1001 290L1002 291L1001 290M1003 290L1004 291L1003 290M1000 291L1001 292L1000 291M1002 292L1003 293L1002 292z"/>
<path style="fill:#f7f7f7; stroke:none;" d="M998 300L999 301L998 300z"/>
<path style="fill:#fbfbfb; stroke:none;" d="M987 302L982 307L984 304L987 302M990 302L990 303L993 303L990 302M997 302L997 308L998 308L997 302M980 307L981 308L980 307M978 308L979 309L978 308z"/>
<path style="fill:#f3f3f3; stroke:none;" d="M993 308L994 309L993 308z"/>
<path style="fill:#fbfbfb; stroke:none;" d="M994.667 308.333L995.333 308.667L994.667 308.333z"/>
<path style="fill:#f3f3f3; stroke:none;" d="M992 309L993 310L992 309z"/>
<path style="fill:#fbfbfb; stroke:none;" d="M976 310L977 311L976 310M978 310L980 312L978 310M992 310L988 312L988 316L989 316L992 310M973 313L974 314L973 313M975 313L976 314L975 313M990 314L991 315L990 314M971 315L972 316L971 315M973 315L974 316L973 315z"/>
<path style="fill:#f7f7f7; stroke:none;" d="M984 316L985 317L984 316z"/>
<path style="fill:#fbfbfb; stroke:none;" d="M989 316L990 317L989 316M969 320L970 320L972 318C969.86 316.882 969.473 317.749 969 320M966 320L967 321L966 320M968 320L969 321L968 320M984 320L986 322L986 320L984 320M964 322L965 323L964 322M966 322L967 323L966 322M962 324L963 325L962 324M980 324L981 325L980 324z"/>
<path style="fill:#f7f7f7; stroke:none;" d="M981 324L982 325L981 324z"/>
<path style="fill:#fbfbfb; stroke:none;" d="M961 325L962 326L961 325M963 325L964 326L963 325M960 326L961 327L960 326M980 326L981 327L980 326M961 327L962 328L961 327M976 328L977 329L976 328M957 329L958 330L957 329M959 329L960 330L959 329M957 331L958 332L957 331M972 335L975 332L972 335M969 336L968 338L969 336M971 336L972 337L971 336M950 339L951 340L950 339M968 339L969 340L968 339M951 340L947 346L948 346L951 340M964 343L967 340L964 343M951 343L951 345L953 343L951 343M945 344L946 345L945 344z"/>
<path style="fill:#f7f7f7; stroke:none;" d="M960 344L961 345L960 344z"/>
<path style="fill:#fbfbfb; stroke:none;" d="M961 344L962 345L961 344z"/>
<path style="fill:#f3f3f3; stroke:none;" d="M962 344L963 345L962 344z"/>
<path style="fill:#fbfbfb; stroke:none;" d="M942 347L945 345L942 347z"/>
<path style="fill:#f7f7f7; stroke:none;" d="M946 345L947 346L946 345z"/>
<path style="fill:#fbfbfb; stroke:none;" d="M960 345L961 346L960 345z"/>
<path style="fill:#f7f7f7; stroke:none;" d="M945 346L946 347L945 346z"/>
<path style="fill:#f3f3f3; stroke:none;" d="M960 346L961 347L960 346z"/>
<path style="fill:#fbfbfb; stroke:none;" d="M941 347L942 348L941 347M944.667 347.333L945.333 347.667L944.667 347.333M959 348L960 349L959 348M939 350L938 352L940 352L939 350z"/>
<path style="fill:#f7f7f7; stroke:none;" d="M958 350L959 351L958 350z"/>
<path style="fill:#fbfbfb; stroke:none;" d="M936 351L937 352L936 351M956 351L957 352L956 351z"/>
<path style="fill:#ffffff; stroke:none;" d="M934 352L932 354L932 355L934 352z"/>
<path style="fill:#fbfbfb; stroke:none;" d="M935 352C933.413 354.185 929.714 356.155 933 358L936 356L935 352M957 352L958 353L957 352M933 353L934 354L933 353z"/>
<path style="fill:#f7f7f7; stroke:none;" d="M953 356L952 358L953 356z"/>
<path style="fill:#fbfbfb; stroke:none;" d="M954 356L955 357L954 356M929 357L930 358L929 357M953 357L954 358L953 357M922 359L922 360L930 360L922 359M952 358L953 359L952 358M912.667 360.333L913.333 360.667L912.667 360.333M900 363L900 364L914 364L900 363M944 364L945 365L944 364z"/>
<path style="fill:#f3f3f3; stroke:none;" d="M944 366L945 367L944 366z"/>
<path style="fill:#fbfbfb; stroke:none;" d="M944 367L944 370L945 370L944 367M901 368L902 369L901 368M944.333 371.667L944.667 372.333L944.333 371.667M907 372L908 373L907 372M910 376L912 379L910 376z"/>
<path style="fill:#f7f7f7; stroke:none;" d="M911 376L912 377L911 376z"/>
<path style="fill:#fbfbfb; stroke:none;" d="M940 376L942 378L940 376M942 376L943 377L942 376M936 380L936 384L937 384L940 381L936 380M912 381L913 382L912 381M913 382L914 383L913 382M938 382L939 383L938 382M915.333 383.667L915.667 384.333L915.333 383.667z"/>
<path style="fill:#f7f7f7; stroke:none;" d="M918 384L920 386L918 384z"/>
<path style="fill:#f3f3f3; stroke:none;" d="M919 384L920 385L919 384z"/>
<path style="fill:#fbfbfb; stroke:none;" d="M916 385L917 386L916 385z"/>
<path style="fill:#f7f7f7; stroke:none;" d="M933 385L934 386L933 385z"/>
<path style="fill:#fbfbfb; stroke:none;" d="M935 385L936 386L935 385M917 386L918 387L917 386M918 387L919 388L918 387M933 387L934 388L933 387M924 388L925 389L924 388M927 388L927 389L930 389L930 388L927 388M920 389L921 390L920 389M922 389L922 391L924 391L922 389z"/>
<path style="fill:#f3f3f3; stroke:none;" d="M927 389L928 390L927 389z"/>
<path style="fill:#f7f7f7; stroke:none;" d="M929 389L930 390L929 389z"/>
</svg>
