<?xml version="1.0" standalone="yes"?>
<svg xmlns="http://www.w3.org/2000/svg" width="1231" height="874">
<path style="fill:#010101; stroke:none;" d="M0 0L0 874L1231 874L1231 0L0 0z"/>
<path style="fill:#ffffff; stroke:none;" d="M762 298L752 311L751 312C745.823 312.934 744.402 318.367 743 323L746 322C744.143 326.644 748.14 323.38 750 324C752.053 324.685 752.775 328.408 757 327C761.042 325.653 758.934 322.234 762 323L766 320L766 321L764 322L768 323L768 324C766.187 325.556 766.187 326.444 768 328L768 329C763.631 331.652 762.146 342.288 768 344L766 347L782 340L782 338L784 339L786.872 323.239L776 312L778 313C775.904 309.501 774.732 307.632 777 304L778 304C779.459 306.455 780.43 306.288 782 304C778.079 303.898 770.101 298.968 769 304L768 304L762 298z"/>
<path style="fill:#f7f7f7; stroke:none;" d="M761 299L762 300L761 299z"/>
<path style="fill:#fbfafb; stroke:none;" d="M762 299L763 300L762 299M764 299L765 300L764 299M759 301L760 302L759 301z"/>
<path style="fill:#f7f7f7; stroke:none;" d="M768 301L769 302L768 301z"/>
<path style="fill:#fbfafb; stroke:none;" d="M768.333 302.667L768.667 303.333L768.333 302.667M770 302L771 303L770 302M757 303L758 304L757 303z"/>
<path style="fill:#f7f7f7; stroke:none;" d="M759 303L760 304L759 303M770 303L771 304L770 303z"/>
<path style="fill:#fbfafb; stroke:none;" d="M773 303L774 304L773 303M776 303L777 304L776 303M777.333 304.667L777.667 305.333L777.333 304.667M780 304L781 305L780 304M782 304L782 307L783 307L782 304z"/>
<path style="fill:#f7f7f7; stroke:none;" d="M773 305L774 306L773 305M782 305L783 306L782 305z"/>
<path style="fill:#ffffff; stroke:none;" d="M783 305L786 307L783 305z"/>
<path style="fill:#f2f2f2; stroke:none;" d="M781 306L782 307L781 306z"/>
<path style="fill:#fbfafb; stroke:none;" d="M772 307L773 308L772 307M750 310L750 312L752 310L750 310M773 310L774 311L773 310M776 310L777 311L776 310M776 312L778 316L779 316L776 312z"/>
<path style="fill:#f7f7f7; stroke:none;" d="M776 313L777 314L776 313M777 314L778 315L777 314z"/>
<path style="fill:#fbfafb; stroke:none;" d="M747.333 315.667L747.667 316.333L747.333 315.667z"/>
<path style="fill:#f7f7f7; stroke:none;" d="M776 316L777 317L776 316M745 317L746 318L745 317z"/>
<path style="fill:#fbfafb; stroke:none;" d="M776 317L777 318L776 317M746 318L746 321L747 321L748 318L746 318M761 321L761 322L766 321L761 321M784 320L785 321L784 320M766 321L767 322L766 321M744.667 322.333L745.333 322.667L744.667 322.333M760 322L761 323L760 322z"/>
<path style="fill:#f7f7f7; stroke:none;" d="M747 323L748 324L747 323M760 323L761 324L760 323z"/>
<path style="fill:#fbfafb; stroke:none;" d="M766.667 323.333L767.333 323.667L766.667 323.333z"/>
<path style="fill:#f7f7f7; stroke:none;" d="M781 323L782 324L781 323z"/>
<path style="fill:#fbfafb; stroke:none;" d="M746 324L747 325L746 324M748 325L751 327L750 324L748 325z"/>
<path style="fill:#f7f7f7; stroke:none;" d="M757 324L758 325L757 324M784 324L785 325L784 324z"/>
<path style="fill:#fbfafb; stroke:none;" d="M786 324L787 325L786 324M785 325L786 326L785 325z"/>
<path style="fill:#f7f7f7; stroke:none;" d="M751 326L752 327L751 326z"/>
<path style="fill:#fbfafb; stroke:none;" d="M757 326L758 327L757 326z"/>
<path style="fill:#f7f7f7; stroke:none;" d="M784 326L785 327L784 326M766.667 328.333L767.333 328.667L766.667 328.333z"/>
<path style="fill:#fbfafb; stroke:none;" d="M767.333 331.667L767.667 332.333L767.333 331.667M765 334L766 335L765 334M764 335L765 336L764 335M780 337L781 338L780 337z"/>
<path style="fill:#f7f7f7; stroke:none;" d="M781 337L782 338L781 337z"/>
<path style="fill:#fbfafb; stroke:none;" d="M782 338L783 339L782 338z"/>
<path style="fill:#f2f2f2; stroke:none;" d="M780 339L781 340L780 339z"/>
<path style="fill:#fbfafb; stroke:none;" d="M767 340L767 343L768 343L767 340M772 340L773 341L772 340M774 341L775 342L774 341M766 344L766 346L768 344L766 344M771 344L772 345L771 344z"/>
<path style="fill:#f7f7f7; stroke:none;" d="M769 345L770 346L769 345z"/>
<path style="fill:#fbfafb; stroke:none;" d="M770 345L771 346L770 345z"/>
</svg>
