<?xml version="1.0" standalone="yes"?>
<svg xmlns="http://www.w3.org/2000/svg" width="1231" height="874">
<path style="fill:#010101; stroke:none;" d="M0 0L0 874L1231 874L1231 0L0 0z"/>
<path style="fill:#ffffff; stroke:none;" d="M791 310L791 311L801 313L791 310z"/>
<path style="fill:#fbfafb; stroke:none;" d="M800 311L801 312L800 311M801 312L802 313L801 312z"/>
<path style="fill:#ffffff; stroke:none;" d="M802 312L802 313L815 320L815 321C810.999 324.558 818.314 328.23 819.288 332.001C820.307 335.948 816.419 341.189 814 344L815 342C806.477 347.125 788.616 349.487 791 362L788 366L786 367L778 360L776 361L767 355L768 369C763.776 370.23 763.313 374.029 764 378C756.954 379.197 744.284 378.328 740 385C736.072 385.093 733.89 386.558 732 390L722 392C722.103 398.013 722.399 402.528 715 401L714 404L713 404L714 400C711.158 399.782 704.717 400.117 709 404L708 411L709 414L707 414L710 417L717 408C723.304 408.694 738.583 413.105 739 404L740 403L742 404C745.536 400.82 749.8 400.766 753.812 398.57C756.862 396.901 758.051 393.393 761.13 391.724C774 384.745 798.447 379.096 800 401L809 401C809.415 391.936 814.621 390.585 819.298 383.957C823.717 377.694 826.203 368.847 830 362C822.12 355.79 827.065 353.853 828.606 346.089C830.511 336.489 831.827 330.182 836 321L833 322C828.317 314.563 810.112 314.1 802 312z"/>
<path style="fill:#fbfafb; stroke:none;" d="M803 312L804 313L803 312M813 316L814 317L813 316M815 318L816 319L815 318M824 318L825 319L824 318M828 318L829 319L828 318M832 319L833 320L832 319z"/>
<path style="fill:#f6f6f6; stroke:none;" d="M814 320L815 321L814 320z"/>
<path style="fill:#fbfafb; stroke:none;" d="M833 320L833 321L836 321L833 320z"/>
<path style="fill:#f6f6f6; stroke:none;" d="M833 321L834 322L833 321z"/>
<path style="fill:#fbfafb; stroke:none;" d="M832.333 322.667L832.667 323.333L832.333 322.667z"/>
<path style="fill:#f1f1f1; stroke:none;" d="M814 323L815 324L814 323z"/>
<path style="fill:#f6f6f6; stroke:none;" d="M815 324L816 325L815 324z"/>
<path style="fill:#fbfafb; stroke:none;" d="M816 324L817 325L816 324M819 324L820 325L819 324M833 325L834 326L833 325M819 327L820 328L819 327M828 330L829 331L828 330M819 335L820 336L819 335M818 337L819 338L818 337M815 341L816 342L815 341z"/>
<path style="fill:#f6f6f6; stroke:none;" d="M815 342L816 343L815 342z"/>
<path style="fill:#fbfafb; stroke:none;" d="M814.667 343.333L815.333 343.667L814.667 343.333M828 343L829 344L828 343z"/>
<path style="fill:#f6f6f6; stroke:none;" d="M811 344L812 345L811 344z"/>
<path style="fill:#fbfafb; stroke:none;" d="M807 346L808 347L807 346M811 346L812 347L811 346M809 347L810 348L809 347M801.667 348.333L802.333 348.667L801.667 348.333M799.667 349.333L800.333 349.667L799.667 349.333M794.667 351.333L795.333 351.667L794.667 351.333z"/>
<path style="fill:#f1f1f1; stroke:none;" d="M800 351L801 352L800 351z"/>
<path style="fill:#fbfafb; stroke:none;" d="M803 351L804 352L803 351M824 353L825 354L824 353M766 355L767 356L766 355z"/>
<path style="fill:#f6f6f6; stroke:none;" d="M768 355L769 356L768 355z"/>
<path style="fill:#fbfafb; stroke:none;" d="M791 357L792 358L791 357M790 358L791 359L790 358z"/>
<path style="fill:#f6f6f6; stroke:none;" d="M767 359L768 360L767 359z"/>
<path style="fill:#fbfafb; stroke:none;" d="M773 359L774 360L773 359z"/>
<path style="fill:#f6f6f6; stroke:none;" d="M790 359L791 360L790 359z"/>
<path style="fill:#fbfafb; stroke:none;" d="M824 359L825 360L824 359M776 360L777 361L776 360M789 360L789 362L791 362L789 360M778 361L779 362L778 361M788.333 362.667L788.667 363.333L788.333 362.667z"/>
<path style="fill:#f6f6f6; stroke:none;" d="M824 363L825 364L824 363z"/>
<path style="fill:#fbfafb; stroke:none;" d="M780 364L781 365L780 364M787.333 364.667L787.667 365.333L787.333 364.667M825.333 364.667L825.667 365.333L825.333 364.667M828 364L829 365L828 364M780 366L781 367L780 366M782 366L784 368L782 366M785 366L786 367L785 366M766 367L766 369L768 369L768 367L766 367M786 367L787 368L786 367M767.333 370.667L767.667 371.333L767.333 370.667z"/>
<path style="fill:#f6f6f6; stroke:none;" d="M766 371L767 372L766 371z"/>
<path style="fill:#fbfafb; stroke:none;" d="M820 372L820 375L821 375L820 372M762 376L764 378L764 376L762 376M752.667 380.333L753.333 380.667L752.667 380.333M743 381L744 382L743 381M746 381L745 383L746 381M755 382L754 384L755 382M742 383L743 384L742 383z"/>
<path style="fill:#f6f6f6; stroke:none;" d="M747 383L748 384L747 383z"/>
<path style="fill:#fbfafb; stroke:none;" d="M752 383L753 384L752 383M739 384L740 385L739 384M789 384L791 386L789 384M738 385L736 388L739 388L738 385z"/>
<path style="fill:#f6f6f6; stroke:none;" d="M769 385L771 387L769 385z"/>
<path style="fill:#fbfafb; stroke:none;" d="M770 385L771 386L770 385M769 386L770 387L769 386M762 388L763 389L762 388M768 388L769 389L768 388M795 388L796 389L795 388M811 388L810 390L811 388z"/>
<path style="fill:#f6f6f6; stroke:none;" d="M731 389L732 390L731 389z"/>
<path style="fill:#fbfafb; stroke:none;" d="M769 389L770 390L769 389M797 389L799 391L797 389M808 389L809 390L808 389M796 390L797 391L796 390M724 391L725 392L724 391M730 391L731 392L730 391M797 391L798 392L797 391z"/>
<path style="fill:#f6f6f6; stroke:none;" d="M758 392L759 393L758 392M798 393L799 394L798 393M799 394L800 395L799 394M748 396L749 397L748 396z"/>
<path style="fill:#fbfafb; stroke:none;" d="M799 396L800 397L799 396z"/>
<path style="fill:#f6f6f6; stroke:none;" d="M752 397L753 398L752 397M799 397L800 398L799 397z"/>
<path style="fill:#fbfafb; stroke:none;" d="M798 398L799 402L800 402L798 398z"/>
<path style="fill:#ffffff; stroke:none;" d="M798 399L797 403L798 403L798 399z"/>
<path style="fill:#fbfafb; stroke:none;" d="M712 400L713 401L712 400M714 400L715 401L714 400M743 400L744 401L743 400z"/>
<path style="fill:#f6f6f6; stroke:none;" d="M797 400L798 401L797 400M803 400L804 401L803 400M714 401L713 403L714 401z"/>
<path style="fill:#fbfafb; stroke:none;" d="M716 401L716 402L720 402L716 401M714 402L715 403L714 402M723 402L722 404L723 402M742 402L743 403L742 402M713 403L714 404L713 403M715 403L716 404L715 403M740 403L739 405L740 403M708 404L709 405L708 404z"/>
<path style="fill:#f6f6f6; stroke:none;" d="M740 404L741 405L740 404z"/>
<path style="fill:#fbfafb; stroke:none;" d="M709 405L712 407L712 406L709 405M736 405L737 406L736 405M738 405L739 406L738 405z"/>
<path style="fill:#f6f6f6; stroke:none;" d="M709 407L710 408L709 407z"/>
<path style="fill:#fbfafb; stroke:none;" d="M736.333 407.667L736.667 408.333L736.333 407.667M709 408L709 411L710 411L709 408M711.667 408.333L712.333 408.667L711.667 408.333M717 408L718 409L717 408M731 408L732 409L731 408M714 409L712 410L712 411L714 409M710 411L709 413L710 411z"/>
<path style="fill:#f6f6f6; stroke:none;" d="M712 412L713 413L712 412z"/>
<path style="fill:#fbfafb; stroke:none;" d="M708 413L709 414L708 413M711 413L712 414L711 413M710 414L711 415L710 414M707 415L708 416L707 415M709 415L710 416L709 415z"/>
</svg>
