<?xml version="1.0" standalone="yes"?>
<svg xmlns="http://www.w3.org/2000/svg" width="1231" height="874">
<path style="fill:#010101; stroke:none;" d="M0 0L0 874L1231 874L1231 0L0 0z"/>
<path style="fill:#fbfbfb; stroke:none;" d="M645 252L643 257L648 257L648 256L645 256L645 252z"/>
<path style="fill:#ffffff; stroke:none;" d="M645 253L645 256L647 253L645 253M643 255L644 256L643 255M642 257L643 263L640 262L630 266L630 284L627 288L640 292L636 294L643.238 308.322L654 309L657 312L663 313L665 317L665 309L668 310C670.215 303.008 668.898 290.961 662 287L666 257C661.992 257.802 651.935 255.323 651 260L647 260L650 258L642 257z"/>
<path style="fill:#fbfbfb; stroke:none;" d="M650 257L647 260L651 260L650 257M653 257L654 258L653 257M664 257L665 258L664 257M642 258L643 259L642 258z"/>
<path style="fill:#efefef; stroke:none;" d="M652 258L653 259L652 258z"/>
<path style="fill:#fbfbfb; stroke:none;" d="M655 258L655 259L664 259L655 258M641 259L642 263L643 263L641 259M643 259L644 260L643 259z"/>
<path style="fill:#f6f6f6; stroke:none;" d="M649 259L650 260L649 259z"/>
<path style="fill:#fbfbfb; stroke:none;" d="M660 260L660 263L661 263L660 260M643 261L644 262L643 261M633 262L634 263L633 262z"/>
<path style="fill:#f6f6f6; stroke:none;" d="M634 262L635 263L634 262M641 262L642 263L641 262z"/>
<path style="fill:#fbfbfb; stroke:none;" d="M632 263L633 264L632 263z"/>
<path style="fill:#f6f6f6; stroke:none;" d="M636.667 263.333L637.333 263.667L636.667 263.333z"/>
<path style="fill:#fbfbfb; stroke:none;" d="M638.667 263.333L639.333 263.667L638.667 263.333M631 264L631 267L632 267L631 264M631 282L632 283L631 282M629 283L630 284L629 283M661 285L662 286L661 285M662 286L663 287L662 286M626 287L627 288L626 287M632 288L633 289L632 288M634 289L635 290L634 289z"/>
<path style="fill:#f6f6f6; stroke:none;" d="M635 289L636 290L635 289z"/>
<path style="fill:#fbfbfb; stroke:none;" d="M664 289L665 290L664 289z"/>
<path style="fill:#f6f6f6; stroke:none;" d="M635 291L636 292L635 291z"/>
<path style="fill:#fbfbfb; stroke:none;" d="M666 291L667 292L666 291M635 292L635 293L638 295L640 292L635 292z"/>
<path style="fill:#f6f6f6; stroke:none;" d="M638 292L639 293L638 292M636 293L637 294L636 293z"/>
<path style="fill:#fbfbfb; stroke:none;" d="M665 293L667 295L665 293M639 295L640 296L639 295z"/>
<path style="fill:#f6f6f6; stroke:none;" d="M664 295L665 296L664 295M639 298L640 299L639 298z"/>
<path style="fill:#fbfbfb; stroke:none;" d="M668.333 302.667L668.667 303.333L668.333 302.667M640 304L641 305L640 304M641 305L644 308L644 305L641 305M641 308L642 309L641 308M646 308L647 309L646 308M651.667 308.333L652.333 308.667L651.667 308.333M654 308L655 312L656 312L654 308M653 309L654 310L653 309z"/>
<path style="fill:#f6f6f6; stroke:none;" d="M665 309L667 311L665 309z"/>
<path style="fill:#fbfbfb; stroke:none;" d="M666 309L667 310L666 309M668 309L669 310L668 309M665 310L666 311L665 310M667 310L668 311L667 310M666 311L667 312L666 311M656 312L657 313L656 312M659.667 312.333L660.333 312.667L659.667 312.333M659 314L659 315L663 315L659 314z"/>
<path style="fill:#f6f6f6; stroke:none;" d="M662 313L663 314L662 313M661 314L662 315L661 314z"/>
<path style="fill:#fbfbfb; stroke:none;" d="M664.333 314.667L664.667 315.333L664.333 314.667z"/>
</svg>
