<?xml version="1.0" standalone="yes"?>
<svg xmlns="http://www.w3.org/2000/svg" width="1231" height="874">
<path style="fill:#010101; stroke:none;" d="M0 0L0 874L1231 874L1231 0L0 0z"/>
<path style="fill:#ffffff; stroke:none;" d="M593 220L592 220L591 218L584 226L581 226C581.594 235.232 577.134 249.704 580.05 257.988C582.96 266.254 592.058 264.387 592 256L609 253.148L622 256L622 258L627 256L626 259C633.099 256.892 637.785 239.9 640 233L639 232C633.034 231.705 625.059 223.488 623 233C617.637 233 614.336 228.656 615 226C609.034 225.548 606.513 221.638 606 216L593 220z"/>
<path style="fill:#f1f1f1; stroke:none;" d="M592 218L593 219L592 218z"/>
<path style="fill:#fcfbfc; stroke:none;" d="M594 218L595 219L594 218z"/>
<path style="fill:#f7f7f7; stroke:none;" d="M592 219L593 220L592 219z"/>
<path style="fill:#fcfbfc; stroke:none;" d="M589 220L588 222L590 222L589 220M591 220L592 221L591 220z"/>
<path style="fill:#f7f7f7; stroke:none;" d="M604 222L605 223L604 222z"/>
<path style="fill:#fcfbfc; stroke:none;" d="M605 223L606 224L605 223M607 223L608 224L607 223M583 225L584 226L583 225M609 225L610 226L609 225z"/>
<path style="fill:#f7f7f7; stroke:none;" d="M611.667 225.333L612.333 225.667L611.667 225.333M610.333 226.667L610.667 227.333L610.333 226.667z"/>
<path style="fill:#fcfbfc; stroke:none;" d="M612 226L613 227L612 226M581 227L582 228L581 227M608 227L608 229L610 227L608 227M614 227L615 228L614 227M582 228L582 249L583 249L582 228M629 228L630 229L629 228z"/>
<path style="fill:#f7f7f7; stroke:none;" d="M628 229L629 230L628 229M622 231L623 232L622 231z"/>
<path style="fill:#fcfbfc; stroke:none;" d="M630 231L631 232L630 231M616 232L617 233L616 232M622 232L623 233L622 232M636 232L637 233L636 232z"/>
<path style="fill:#f7f7f7; stroke:none;" d="M620 234L621 235L620 234z"/>
<path style="fill:#fcfbfc; stroke:none;" d="M618.667 235.333L619.333 235.667L618.667 235.333M622 235L623 236L622 235M636 235L637 236L636 235z"/>
<path style="fill:#f7f7f7; stroke:none;" d="M638 236L639 237L638 236z"/>
<path style="fill:#fcfbfc; stroke:none;" d="M636 237L637 238L636 237M638 237L639 238L638 237z"/>
<path style="fill:#f7f7f7; stroke:none;" d="M634 244L635 245L634 244z"/>
<path style="fill:#fcfbfc; stroke:none;" d="M632 245L633 246L632 245M634 245L635 246L634 245M580 249L581 250L580 249M632 249L633 250L632 249M580 251L581 252L580 251z"/>
<path style="fill:#f7f7f7; stroke:none;" d="M582 251L583 252L582 251z"/>
<path style="fill:#fcfbfc; stroke:none;" d="M582.333 252.667L582.667 253.333L582.333 252.667z"/>
<path style="fill:#f7f7f7; stroke:none;" d="M619 252L620 253L619 252M628 252L629 253L628 252z"/>
<path style="fill:#fcfbfc; stroke:none;" d="M600 253L601 254L600 253M613 253L614 254L613 253M615 253L616 254L615 253M581.333 254.667L581.667 255.333L581.333 254.667M602 254L603 255L602 254z"/>
<path style="fill:#f1f1f1; stroke:none;" d="M579 256L580 257L579 256z"/>
<path style="fill:#fcfbfc; stroke:none;" d="M592 256L592 257L596 257L592 256z"/>
<path style="fill:#f7f7f7; stroke:none;" d="M596 256L597 257L596 256z"/>
<path style="fill:#fcfbfc; stroke:none;" d="M621 256L622 257L621 256M624 258L627 257L624 258M579 257L580 258L579 257z"/>
<path style="fill:#f7f7f7; stroke:none;" d="M623 257L624 258L623 257M625 257L626 258L625 257z"/>
<path style="fill:#fcfbfc; stroke:none;" d="M630 257L631 258L630 257z"/>
<path style="fill:#f7f7f7; stroke:none;" d="M582 260L584 262L582 260z"/>
<path style="fill:#fcfbfc; stroke:none;" d="M589 260L590 261L589 260M590 262L591 263L590 262M584 263L585 264L584 263z"/>
</svg>
