<?xml version="1.0" standalone="yes"?>
<svg xmlns="http://www.w3.org/2000/svg" width="1231" height="874">
<path style="fill:#010101; stroke:none;" d="M0 0L0 874L1231 874L1231 0L0 0z"/>
<path style="fill:#ffffff; stroke:none;" d="M743 327L743 328C737.173 329.184 732.488 333.701 730 339C726.796 337.918 719.636 335.423 719 340L702 343L696 361L693 362L694 364L691 365L692 368C688.479 371.094 691.479 379.614 692 384L690 389C696.509 389.212 713.312 385.486 709 395L709 396L712 398L712 396L721 399L720 390C728.862 390.201 736.291 382.717 744 379.124C747.596 377.449 751.437 377.678 755 376L754 379L757 377L760 378C763.664 363.411 768.15 348.686 760 334L763 334L764 328L764 324L763 324L759 330C755.113 328.67 743.789 330.116 743 324C740.304 324.989 739.695 326.599 743 327z"/>
<path style="fill:#fbfafb; stroke:none;" d="M743.333 325.667L743.667 326.333L743.333 325.667M762 325L763 326L762 325M745 326L746 327L745 326M763 326L764 327L763 326z"/>
<path style="fill:#f6f6f6; stroke:none;" d="M739 327L740 328L739 327z"/>
<path style="fill:#fbfafb; stroke:none;" d="M740 327L740 328L743 328L740 327M760 327L761 328L760 327M738.667 328.333L739.333 328.667L738.667 328.333z"/>
<path style="fill:#f6f6f6; stroke:none;" d="M761 328L763 331L761 328z"/>
<path style="fill:#fbfafb; stroke:none;" d="M762.333 328.667L762.667 329.333L762.333 328.667z"/>
<path style="fill:#f6f6f6; stroke:none;" d="M763 328L764 329L763 328z"/>
<path style="fill:#fbfafb; stroke:none;" d="M737 329L738 330L737 329M742 329L743 330L742 329M750 329L750 330L756 330L750 329M758 329L759 330L758 329z"/>
<path style="fill:#ffffff; stroke:none;" d="M763.333 329.667L763.667 330.333L763.333 329.667z"/>
<path style="fill:#fbfafb; stroke:none;" d="M736.333 330.667L736.667 331.333L736.333 330.667M738 332L741 331L738 332M748.667 330.333L749.333 330.667L748.667 330.333z"/>
<path style="fill:#f1f1f1; stroke:none;" d="M751 331L752 332L751 331M756 331L757 332L756 331z"/>
<path style="fill:#fbfafb; stroke:none;" d="M757 331L758 332L757 331M759 331L760 332L759 331M762 331L763 332L762 331z"/>
<path style="fill:#f1f1f1; stroke:none;" d="M761 333L762 334L761 333z"/>
<path style="fill:#fbfafb; stroke:none;" d="M735 334L734 336L735 334M760 334L761 336L762 336L763 334L760 334M731 337L732 338L731 337M720 338L721 339L720 338M729 338L730 339L729 338M716 339L716 340L719 340L716 339M728 339L729 340L728 339z"/>
<path style="fill:#f6f6f6; stroke:none;" d="M715 342L714 344L715 342z"/>
<path style="fill:#fbfafb; stroke:none;" d="M703 343L704 344L703 343M711 343L712 344L711 343M703 347L703 352L704 352L703 347M701 349L701 352L702 352L701 349z"/>
<path style="fill:#f1f1f1; stroke:none;" d="M703 352L704 353L703 352z"/>
<path style="fill:#fbfafb; stroke:none;" d="M699 357L700 358L699 357M697 359L698 360L697 359M694.667 360.333L695.333 360.667L694.667 360.333M694 362L695 363L694 362z"/>
<path style="fill:#f6f6f6; stroke:none;" d="M692 363L693 364L692 363z"/>
<path style="fill:#fbfafb; stroke:none;" d="M693 363L694 364L693 363M692 364L693 365L692 364M764 364L765 365L764 364M690.667 367.333L691.333 367.667L690.667 367.333M761.333 368.667L761.667 369.333L761.333 368.667z"/>
<path style="fill:#f1f1f1; stroke:none;" d="M760 371L761 372L760 371z"/>
<path style="fill:#fbfafb; stroke:none;" d="M760 372L761 373L760 372M760 374L761 375L760 374z"/>
<path style="fill:#f6f6f6; stroke:none;" d="M740 376L741 377L740 376z"/>
<path style="fill:#fbfafb; stroke:none;" d="M753 376L753 378L755 376L753 376z"/>
<path style="fill:#f6f6f6; stroke:none;" d="M757 377L758 378L757 377z"/>
<path style="fill:#fbfafb; stroke:none;" d="M758.333 377.667L758.667 378.333L758.333 377.667M744 378L745 379L744 378M736 382L737 383L736 382M691 383L692 384L691 383z"/>
<path style="fill:#f1f1f1; stroke:none;" d="M708 384L709 385L708 384z"/>
<path style="fill:#fbfafb; stroke:none;" d="M711 384L712 385L711 384z"/>
<path style="fill:#f6f6f6; stroke:none;" d="M705 385L707 387L705 385z"/>
<path style="fill:#fbfafb; stroke:none;" d="M706 385L707 386L706 385M705 386L706 387L705 386M730 386L731 387L730 386M691 388L692 389L691 388M710 388L711 389L710 388M720 390L721 391L720 390M711 394L712 395L711 394M709 396L710 397L709 396z"/>
<path style="fill:#f6f6f6; stroke:none;" d="M710 396L711 397L710 396M712 396L713 397L712 396z"/>
<path style="fill:#f1f1f1; stroke:none;" d="M712 397L713 398L712 397z"/>
<path style="fill:#f6f6f6; stroke:none;" d="M720 399L721 400L720 399z"/>
</svg>
