<?xml version="1.0" standalone="yes"?>
<svg xmlns="http://www.w3.org/2000/svg" width="1231" height="874">
<path style="fill:#010101; stroke:none;" d="M0 0L0 874L1231 874L1231 0L0 0z"/>
<path style="fill:#ffffff; stroke:none;" d="M902 428C904.009 437.609 907.45 452.556 894.985 457.716C890.438 459.598 887.373 454.652 883.089 455.102C879.362 455.493 875.31 461.319 873 464L863 455C863.253 465.738 871.947 469.992 876.417 478.83C882.036 489.939 882 499.83 882 512C890.47 512.388 895.826 516.78 900 524C911.868 521.846 908.011 515.399 912.757 508.058C915.328 504.081 920.444 503.857 923 500L930 500L922 488C922.574 480.599 914.312 475.452 910 470L910 469C911.941 467.181 911.08 466.305 909 465L908 463L909 449L914 446C924.487 448.319 920.208 435.365 912 435L902 428z"/>
<path style="fill:#f6f6f6; stroke:none;" d="M902 430L903 431L902 430M906 431L907 432L906 431M912.333 433.667L912.667 434.333L912.333 433.667M911 435L912 436L911 435M917 438L918 439L917 438M913 445L914 446L913 445M917.667 445.333L918.333 445.667L917.667 445.333M914 446L915 447L914 446M903 447L904 448L903 447M912 447L913 448L912 447M902 449L903 450L902 449M909 449L910 450L909 449M903 450L904 451L903 450M903 452L904 453L903 452M899 454L900 455L899 454M896 457L897 458L896 457M897 458L899 460L897 458M884 459L885 460L884 459M889 459L890 460L889 459M908 459L909 460L908 459M878 461L877 463L878 461M868 462L866 465L868 462M908 462L909 463L908 462M872 463L873 464L872 463M909 464L910 465L909 464M908 467L909 468L908 467M870 468L871 469L870 468M910 469L911 470L910 469M875 472L874 474L875 472M879 476L880 477L879 476M877 477L878 478L877 477M912 478L914 480L912 478M877 480L878 481L877 480M922 487L923 488L922 487M924 493L925 494L924 493M920 500L921 501L920 500M923 500L924 501L923 500M917 501L919 503L917 501M915 504L916 505L915 504M908 508L909 509L908 508M893.667 513.333L894.333 513.667L893.667 513.333M908 513L909 514L908 513M908 515L909 516L908 515M898 516L900 518L898 516M910 518L911 519L910 518M908 519L909 520L908 519M904 520L905 521L904 520M901 521L903 523L901 521z"/>
<path style="fill:#010915; stroke:none;" d="M391.667 597.333L392.333 597.667L391.667 597.333z"/>
<path style="fill:#010c23; stroke:none;" d="M400 600L401 601L400 600M387 601L388 602L387 601M401 602L402 603L401 602z"/>
<path style="fill:#010915; stroke:none;" d="M401 603L402 604L401 603z"/>
<path style="fill:#010c23; stroke:none;" d="M386 604L387 605L386 604M401 605L402 606L401 605M386 607L387 608L386 607z"/>
<path style="fill:#010915; stroke:none;" d="M386 608L387 609L386 608z"/>
<path style="fill:#010c23; stroke:none;" d="M387 609L388 610L387 609M388 610L389 611L388 610M397 610L398 611L397 610M389 611L390 612L389 611M395 611L396 612L395 611M391 612L392 613L391 612z"/>
</svg>
