<?xml version="1.0" standalone="yes"?>
<svg xmlns="http://www.w3.org/2000/svg" width="1231" height="874">
<path style="fill:#010101; stroke:none;" d="M0 0L0 874L1231 874L1231 0L0 0z"/>
<path style="fill:#ffffff; stroke:none;" d="M838 368L844 368L843 371L849 370L860 392L864 402L865 402L869 401L870 393C875.475 388.216 873.099 372.39 868 368L865 369L866 372L860 372L860 371L864 371L864 370L854 365C853.811 361.011 851.888 359.861 848 360L846 357L850 356C846.647 354.406 834.181 358.911 832.763 362.895C831.599 366.166 835.114 370.226 838 368z"/>
<path style="fill:#fdfcfd; stroke:none;" d="M847 356L848 360L852 360L850 356L847 356z"/>
<path style="fill:#f9f9f9; stroke:none;" d="M846 357L847 358L846 357z"/>
<path style="fill:#ffffff; stroke:none;" d="M850 357L851 358L850 357z"/>
<path style="fill:#f7f7f7; stroke:none;" d="M836.667 358.333L837.333 358.667L836.667 358.333z"/>
<path style="fill:#fdfcfd; stroke:none;" d="M838 358L839 359L838 358z"/>
<path style="fill:#f9f9f9; stroke:none;" d="M845 358L846 359L845 358z"/>
<path style="fill:#ffffff; stroke:none;" d="M851 358L852 359L851 358z"/>
<path style="fill:#fdfcfd; stroke:none;" d="M834 359L835 360L834 359z"/>
<path style="fill:#f9f9f9; stroke:none;" d="M836 359L837 360L836 359z"/>
<path style="fill:#fdfcfd; stroke:none;" d="M837 359L838 360L837 359M842 359L843 360L842 359M844.667 359.333L845.333 359.667L844.667 359.333M833 360L834 361L833 360M832 361L833 362L832 361z"/>
<path style="fill:#f9f9f9; stroke:none;" d="M834 361L833 363L834 361z"/>
<path style="fill:#fdfcfd; stroke:none;" d="M831 363L830 367L831 367L831 363z"/>
<path style="fill:#f9f9f9; stroke:none;" d="M832 364L833 365L832 364M835 364L836 365L835 364z"/>
<path style="fill:#fdfcfd; stroke:none;" d="M854 364L855 365L854 364M852 365L852 366L855 367L852 365M855 365L856 366L855 365z"/>
<path style="fill:#f9f9f9; stroke:none;" d="M831.667 366.333L832.333 366.667L831.667 366.333z"/>
<path style="fill:#f7f7f7; stroke:none;" d="M852 367L853 368L852 367z"/>
<path style="fill:#fdfcfd; stroke:none;" d="M838.333 368.667L838.667 369.333L838.333 368.667M840 368L841 369L840 368z"/>
<path style="fill:#f9f9f9; stroke:none;" d="M842 368L841 370L843 370L842 368z"/>
<path style="fill:#fdfcfd; stroke:none;" d="M843 368L844 369L843 368M867 368L868 369L867 368z"/>
<path style="fill:#f7f7f7; stroke:none;" d="M843 369L844 370L843 369z"/>
<path style="fill:#f9f9f9; stroke:none;" d="M856 369L857 370L856 369z"/>
<path style="fill:#f7f7f7; stroke:none;" d="M864.333 369.667L864.667 370.333L864.333 369.667M867 369L868 370L867 369z"/>
<path style="fill:#fdfcfd; stroke:none;" d="M869 369L870 370L869 369z"/>
<path style="fill:#f9f9f9; stroke:none;" d="M844 370L845 371L844 370z"/>
<path style="fill:#fdfcfd; stroke:none;" d="M845 370L845 371L849 371L845 370M856 370L858 372L856 370z"/>
<path style="fill:#f9f9f9; stroke:none;" d="M866 370L867 371L866 370z"/>
<path style="fill:#fdfcfd; stroke:none;" d="M868 370L869 371L868 370z"/>
<path style="fill:#f9f9f9; stroke:none;" d="M856 371L857 372L856 371M858 371L859 372L858 371z"/>
<path style="fill:#fdfcfd; stroke:none;" d="M860 371L860 372L866 372L860 371M867 371L868 372L867 371M871 371L872 372L871 371M851 372L852 373L851 372z"/>
<path style="fill:#f7f7f7; stroke:none;" d="M855 372L856 373L855 372z"/>
<path style="fill:#f9f9f9; stroke:none;" d="M872 375L873 376L872 375z"/>
<path style="fill:#fdfcfd; stroke:none;" d="M855 377L856 378L855 377M855 379L856 380L855 379z"/>
<path style="fill:#f9f9f9; stroke:none;" d="M855 380L856 381L855 380z"/>
<path style="fill:#fdfcfd; stroke:none;" d="M859.333 392.667L859.667 393.333L859.333 392.667z"/>
<path style="fill:#f9f9f9; stroke:none;" d="M868 392L869 393L868 392z"/>
<path style="fill:#fdfcfd; stroke:none;" d="M868.333 393.667L868.667 394.333L868.333 393.667M870 393L871 394L870 393M859 395L860 396L859 395M860 396L861 397L860 396M862 396L864 398L862 396M861 397L862 398L861 397M869 397L870 398L869 397z"/>
<path style="fill:#f9f9f9; stroke:none;" d="M863 398L864 399L863 398z"/>
<path style="fill:#fdfcfd; stroke:none;" d="M863 399L864 400L863 399z"/>
<path style="fill:#f9f9f9; stroke:none;" d="M864 400L865 401L864 400z"/>
<path style="fill:#fdfcfd; stroke:none;" d="M866.667 400.333L867.333 400.667L866.667 400.333z"/>
</svg>
