<?xml version="1.0" standalone="yes"?>
<svg xmlns="http://www.w3.org/2000/svg" width="1231" height="874">
<path style="fill:#010101; stroke:none;" d="M0 0L0 874L1231 874L1231 0L0 0z"/>
<path style="fill:#ffffff; stroke:none;" d="M742 513L742 516L739 520L734 519L737 540L731 544C741.462 542.811 742.711 555.027 751.093 556.214C765.491 558.252 761.364 527.46 760 520L753 522L753 524L750 524L749 523L750 521L744 518L745 515L742 513z"/>
<path style="fill:#fbfafb; stroke:none;" d="M743 514L744 515L743 514M741 515L742 516L741 515z"/>
<path style="fill:#f6f6f6; stroke:none;" d="M744 516L745 517L744 516z"/>
<path style="fill:#fbfafb; stroke:none;" d="M745 516L746 517L745 516M744 517L745 518L744 517M735 519L736 520L735 519z"/>
<path style="fill:#f6f6f6; stroke:none;" d="M738 519L739 520L738 519z"/>
<path style="fill:#fbfafb; stroke:none;" d="M745 519L746 520L745 519M747 519L748 520L747 519z"/>
<path style="fill:#f6f6f6; stroke:none;" d="M759 519L760 520L759 519z"/>
<path style="fill:#fbfafb; stroke:none;" d="M748 520L749 521L748 520M749 522L749 523L752 523L752 522L749 522z"/>
<path style="fill:#f6f6f6; stroke:none;" d="M750 522L751 523L750 522z"/>
<path style="fill:#f2f2f2; stroke:none;" d="M752 522L753 523L752 522z"/>
<path style="fill:#fbfafb; stroke:none;" d="M754 522L755 523L754 522z"/>
<path style="fill:#f6f6f6; stroke:none;" d="M752 523L753 524L752 523z"/>
<path style="fill:#fbfafb; stroke:none;" d="M755 523L756 524L755 523z"/>
<path style="fill:#f2f2f2; stroke:none;" d="M756 523L757 524L756 523z"/>
<path style="fill:#fbfafb; stroke:none;" d="M759 523L760 524L759 523M735 524L736 525L735 524M736 528L737 529L736 528M760.333 528.667L760.667 529.333L760.333 528.667M739 529L738 531L739 529M738 536L738 538L740 538L738 536M735.333 539.667L735.667 540.333L735.333 539.667z"/>
<path style="fill:#f6f6f6; stroke:none;" d="M736 539L737 540L736 539z"/>
<path style="fill:#fbfafb; stroke:none;" d="M738 539L739 540L738 539M734 541L735 542L734 541M732 543L733 544L732 543M734 543L735 544L734 543M741 544L742 545L741 544M743 544L744 545L743 544M743 546L744 547L743 546M760 546L761 547L760 546M746 550L747 551L746 550z"/>
<path style="fill:#f6f6f6; stroke:none;" d="M745 551L746 552L745 551z"/>
<path style="fill:#fbfafb; stroke:none;" d="M747 552L748 553L747 552z"/>
<path style="fill:#f6f6f6; stroke:none;" d="M758 552L759 553L758 552M753 553L755 555L753 553z"/>
<path style="fill:#fbfafb; stroke:none;" d="M754 553L755 554L754 553M747 554L748 555L747 554M753 554L754 555L753 554M748.667 556.333L749.333 556.667L748.667 556.333z"/>
<path style="fill:#f2f2f2; stroke:none;" d="M750 556L751 557L750 556z"/>
</svg>
