<?xml version="1.0" standalone="yes"?>
<svg xmlns="http://www.w3.org/2000/svg" width="1231" height="874">
<path style="fill:#010101; stroke:none;" d="M0 0L0 874L1231 874L1231 0L0 0z"/>
<path style="fill:#ffffff; stroke:none;" d="M628 345L624 345L626 360L628 364L642 368L644 372L643 369L647 368L647 367L646 364L644 364C645.53 361.357 648.02 357.487 644 357L644 356L655 358L655 357L650 353L646 345L644 341L645 345L644 345L643 340L641 339L638 340C634.1 335.613 629.194 340.849 628 345z"/>
<path style="fill:#fdfcfd; stroke:none;" d="M636 339L637 340L636 339M638 339L639 340L638 339M629 340L630 341L629 340M641 340L642 341L641 340M628 341L629 342L628 341M629 343L632 342L629 343M642 341L645 344L642 341z"/>
<path style="fill:#f9f9f9; stroke:none;" d="M643 341L644 342L643 341z"/>
<path style="fill:#fdfcfd; stroke:none;" d="M627.333 343.667L627.667 344.333L627.333 343.667z"/>
<path style="fill:#f9f9f9; stroke:none;" d="M631 343L632 344L631 343z"/>
<path style="fill:#fdfcfd; stroke:none;" d="M640.667 343.333L641.333 343.667L640.667 343.333z"/>
<path style="fill:#f9f9f9; stroke:none;" d="M644 344L645 345L644 344M646 344L647 345L646 344z"/>
<path style="fill:#fdfcfd; stroke:none;" d="M626 345L627 346L626 345M624.333 347.667L624.667 348.333L624.333 347.667M626 347L627 348L626 347z"/>
<path style="fill:#f3f3f3; stroke:none;" d="M644 347L645 348L644 347z"/>
<path style="fill:#f9f9f9; stroke:none;" d="M648.333 347.667L648.667 348.333L648.333 347.667z"/>
<path style="fill:#fdfcfd; stroke:none;" d="M649 349L650 350L649 349M626 350L627 351L626 350z"/>
<path style="fill:#f9f9f9; stroke:none;" d="M648 350L649 351L648 350M625 352L626 353L625 352M648 352L649 353L648 352z"/>
<path style="fill:#fdfcfd; stroke:none;" d="M650 352L651 353L650 352M652 354L653 355L652 354z"/>
<path style="fill:#f3f3f3; stroke:none;" d="M648 355L649 356L648 355z"/>
<path style="fill:#fdfcfd; stroke:none;" d="M644 356L645 357L644 356z"/>
<path style="fill:#f9f9f9; stroke:none;" d="M645 356L646 357L645 356z"/>
<path style="fill:#fdfcfd; stroke:none;" d="M646.667 356.333L647.333 356.667L646.667 356.333M653 356L654 357L653 356M645 359L646 360L645 359M626 360L628 363L626 360z"/>
<path style="fill:#f9f9f9; stroke:none;" d="M627 360L628 361L627 360z"/>
<path style="fill:#ffffff; stroke:none;" d="M626 362L627 363L626 362z"/>
<path style="fill:#fdfcfd; stroke:none;" d="M644 363L645 364L644 363M637 364L639 366L639 364L637 364M645.333 365.667L645.667 366.333L645.333 365.667M639 366L640 367L639 366M641 368L642 369L641 368M643 370L644 371L647 368L643 370z"/>
<path style="fill:#ffffff; stroke:none;" d="M646 369L647 370L646 369M645 370L646 371L645 370z"/>
<path style="fill:#f9f9f9; stroke:none;" d="M644 371L645 372L644 371z"/>
<path style="fill:#fdfcfd; stroke:none;" d="M643 372L644 373L643 372z"/>
</svg>
