<?xml version="1.0" standalone="yes"?>
<svg xmlns="http://www.w3.org/2000/svg" width="1231" height="874">
<path style="fill:#010101; stroke:none;" d="M0 0L0 874L1231 874L1231 0L0 0z"/>
<path style="fill:#ffffff; stroke:none;" d="M687 526L688 532L683 538L684 548L678 548L675 563C668.493 559.523 657.932 556.066 651 559L652 567L650 570L648 570L648 573L654 572C659.56 578.857 680.099 584.624 680 571C684.745 571.505 688.508 570.915 690 566C693.395 565.606 693.225 563.908 692 561L696 562L701 549L697 548L701 535L698 536L691 530L693 531L689 529L687 526z"/>
<path style="fill:#fbfbfb; stroke:none;" d="M687 527L688 528L687 527M689 528L690 529L689 528M686 530L687 531L686 530M691 530L695 532L695 531L691 530z"/>
<path style="fill:#f7f7f7; stroke:none;" d="M687 532L688 533L687 532z"/>
<path style="fill:#fbfbfb; stroke:none;" d="M698.333 534.667L698.667 535.333L698.333 534.667M687 536L686 539L687 536M683.333 539.667L683.667 540.333L683.333 539.667z"/>
<path style="fill:#f7f7f7; stroke:none;" d="M697 540L698 541L697 540z"/>
<path style="fill:#f1f1f1; stroke:none;" d="M699 540L700 541L699 540z"/>
<path style="fill:#fbfbfb; stroke:none;" d="M698 541L699 542L698 541M697 542L698 543L697 542M696 546L697 547L696 546M697.667 547.333L698.333 547.667L697.667 547.333M678 549L679 550L678 549M679 550L680 551L679 550M697 552L698 553L697 552M699 552L700 553L699 552M679 554L680 555L679 554M696 554L697 555L696 554M677 555L678 556L677 555z"/>
<path style="fill:#f7f7f7; stroke:none;" d="M697 556L698 557L697 556z"/>
<path style="fill:#fbfbfb; stroke:none;" d="M697 557L698 558L697 557M660.667 558.333L661.333 558.667L660.667 558.333M696 558L697 559L696 558M655 559L655 560L660 560L655 559M650 560L650 563L651 563L652 560L650 560M694 560L693 563L694 560z"/>
<path style="fill:#ffffff; stroke:none;" d="M650 561L651 562L650 561z"/>
<path style="fill:#f7f7f7; stroke:none;" d="M692 561L693 562L692 561M651 562L652 563L651 562z"/>
<path style="fill:#fbfbfb; stroke:none;" d="M672 562L673 563L672 562M674 562L675 563L674 562M664 563L665 564L664 563M666 563L667 564L666 563M651 564L652 565L651 564M688 564L689 565L688 564M693 564L694 565L693 564M691 565L692 566L691 565M650.667 566.333L651.333 566.667L650.667 566.333M690.333 566.667L690.667 567.333L690.333 566.667M649 567L650 568L649 567M688 567L689 568L688 567M681 568L681 571L684 568L681 568M649 569L650 570L649 569M650 570L651 571L650 570z"/>
<path style="fill:#f1f1f1; stroke:none;" d="M648 571L649 572L648 571z"/>
<path style="fill:#fbfbfb; stroke:none;" d="M680.333 571.667L680.667 572.333L680.333 571.667M647 572L648 573L647 572M653.333 572.667L653.667 573.333L653.333 572.667M658 572L659 573L658 572z"/>
<path style="fill:#f7f7f7; stroke:none;" d="M663 572L664 573L663 572M676 572L677 573L676 572z"/>
<path style="fill:#fbfbfb; stroke:none;" d="M659 574L660 575L659 574M665 576L666 577L665 576M676 576L676 578L678 578L676 576M678 576L679 577L678 576M666 577L667 578L666 577z"/>
<path style="fill:#f7f7f7; stroke:none;" d="M671 577L672 578L671 577z"/>
<path style="fill:#fbfbfb; stroke:none;" d="M677 579L678 580L677 579M676 580L677 581L676 580z"/>
</svg>
