<?xml version="1.0" standalone="yes"?>
<svg xmlns="http://www.w3.org/2000/svg" width="1231" height="874">
<path style="fill:#010101; stroke:none;" d="M0 0L0 874L1231 874L1231 0L0 0z"/>
<path style="fill:#fbfafb; stroke:none;" d="M562 81L563 82L562 81z"/>
<path style="fill:#f7f7f7; stroke:none;" d="M563 81L564 82L563 81z"/>
<path style="fill:#ffffff; stroke:none;" d="M560 84L557 83C550.951 86.6743 549.025 88.5954 549 96L556 100L553 101L555 103L556 108L556 109C551.014 112.524 554.47 120.743 555 126L551 136C559.865 136 569.806 134.061 577 140C579.1 134.647 575.335 132.031 575.982 127.089C577.028 119.103 587.398 119.631 593 119L596 122L593 117C592.414 109.976 585.196 101.049 578 100C579.021 94.5532 574.662 89.3815 570 87C569.645 82.2149 560.883 78.5908 560 84z"/>
<path style="fill:#fbfafb; stroke:none;" d="M564 82L565 83L564 82M556 83L555 85L557 85L556 83M558 83L559 84L558 83z"/>
<path style="fill:#f7f7f7; stroke:none;" d="M559 83L560 84L559 83z"/>
<path style="fill:#fbfafb; stroke:none;" d="M568 83L569 84L568 83M551 85L552 86L551 85M554 85L555 86L554 85M550.333 86.6667L550.667 87.3333L550.333 86.6667M570 86L571 87L570 86M552 87L553 88L552 87z"/>
<path style="fill:#f7f7f7; stroke:none;" d="M553 87L554 88L553 87M572 89L573 90L572 89z"/>
<path style="fill:#fbfafb; stroke:none;" d="M551 94L552 95L551 94M576 95L577 96L576 95M551 96L552 97L551 96z"/>
<path style="fill:#f7f7f7; stroke:none;" d="M554 96L555 97L554 96z"/>
<path style="fill:#fbfafb; stroke:none;" d="M553 97L556 100L553 97M578 97L582 100L578 97M577 98L578 99L577 98z"/>
<path style="fill:#f7f7f7; stroke:none;" d="M578.667 99.3333L579.333 99.6667L578.667 99.3333z"/>
<path style="fill:#f2f2f2; stroke:none;" d="M553.667 100.333L554.333 100.667L553.667 100.333z"/>
<path style="fill:#fbfafb; stroke:none;" d="M582.333 100.667L582.667 101.333L582.333 100.667M580.667 102.333L581.333 102.667L580.667 102.333z"/>
<path style="fill:#f7f7f7; stroke:none;" d="M554 103L555 104L554 103M580 103L581 104L580 103z"/>
<path style="fill:#fbfafb; stroke:none;" d="M584 103L585 104L584 103M584 105L587 108L587 107L584 105z"/>
<path style="fill:#f2f2f2; stroke:none;" d="M585 106L586 107L585 106M554 108L555 109L554 108z"/>
<path style="fill:#fbfafb; stroke:none;" d="M555 108L556 109L555 108M590 110L591 111L590 110M589 111L590 112L589 111M592 113L593 114L592 113M592 115L589 116L589 117L593 118L592 115M585 116L585 117L588 117L585 116M593 116L594 117L593 116M555 117L556 118L555 117z"/>
<path style="fill:#f2f2f2; stroke:none;" d="M555 118L556 119L555 118z"/>
<path style="fill:#fbfafb; stroke:none;" d="M592 119L593 120L592 119M555 120L556 121L555 120M596.333 120.667L596.667 121.333L596.333 120.667z"/>
<path style="fill:#ffffff; stroke:none;" d="M597.333 121.667L597.667 122.333L597.333 121.667z"/>
<path style="fill:#fbfafb; stroke:none;" d="M576 122L577 123L576 122z"/>
<path style="fill:#f2f2f2; stroke:none;" d="M554 123L555 124L554 123z"/>
<path style="fill:#fbfafb; stroke:none;" d="M572 124L572 127L573 127L572 124z"/>
<path style="fill:#f7f7f7; stroke:none;" d="M554 125L555 126L554 125z"/>
<path style="fill:#fbfafb; stroke:none;" d="M554 127L555 128L554 127M552 129L553 130L552 129z"/>
<path style="fill:#f7f7f7; stroke:none;" d="M554 129L555 130L554 129z"/>
<path style="fill:#fbfafb; stroke:none;" d="M554 130L555 131L554 130z"/>
<path style="fill:#f7f7f7; stroke:none;" d="M572 131L573 132L572 131M551 132L552 133L551 132z"/>
<path style="fill:#fbfafb; stroke:none;" d="M576 133L577 134L576 133z"/>
</svg>
