<?xml version="1.0" standalone="yes"?>
<svg xmlns="http://www.w3.org/2000/svg" width="1231" height="874">
<path style="fill:#010101; stroke:none;" d="M0 0L0 874L1231 874L1231 0L0 0z"/>
<path style="fill:#ffffff; stroke:none;" d="M823 447L823.578 466L819 478C811.637 483.63 821.384 503.619 828 507L829 509C829.005 512.914 830.353 514.618 834 516L832 518L850 532C850.394 540.209 862.735 536.288 868 535L870 537C869.847 541.328 871.608 543.425 876 543L878 544L889 547L876.618 531L873.667 521.133L855 512L850 500L838 464L853 448C851.098 438.231 842.699 432.478 833.108 438.6C828.721 441.4 828.646 446.1 823 447z"/>
<path style="fill:#f6f6f6; stroke:none;" d="M840 436L841 437L840 436M835 437L836 438L835 437M831 439L832 440L831 439M839 439L840 440L839 439M849 439L850 440L849 439M829 441L830 442L829 441M848 443L849 444L848 443M830 446L831 447L830 446M828 447L829 448L828 447M823 448L824 449L823 448M851 448L852 449L851 448M850 450L851 451L850 450M844 452L845 453L844 452M840 456L841 457L840 456M838 464L839 465L838 464M823 467L824 468L823 467M823 472L824 473L823 472M836 473L837 474L836 473M819 474L820 475L819 474M817.667 477.333L818.333 477.667L817.667 477.333M816.333 479.667L816.667 480.333L816.333 479.667M840 483L841 484L840 483M844 485L845 486L844 485M844 491L845 492L844 491M819 495L820 496L819 495M823 498L824 499L823 498M821 499L822 500L821 499M850 499L851 500L850 499M822 500L823 501L822 500M852 503L853 504L852 503M827 504L828 505L827 504M827 507L828 508L827 507M828 509L829 510L828 509M829 510L830 511L829 510M852 510L853 511L852 510M831 511L832 512L831 511M855 511L856 512L855 511M831 515L832 516L831 515M858 515L859 516L858 515M832.667 516.333L833.333 516.667L832.667 516.333M872 520L873 521L872 520M874 522L875 523L874 522M846 525L847 526L846 525M872 527L873 528L872 527M849 532L850 533L849 532M865 532L866 533L865 532M867 532L868 533L867 532M867 535L868 536L867 535M870 536L871 537L870 536M869 537L870 538L869 537M871 541L872 542L871 541M873 541L874 542L873 541M875.333 543.667L875.667 544.333L875.333 543.667M877 544L878 545L877 544M879 544L880 545L879 544M883 546L884 547L883 546z"/>
<path style="fill:#010915; stroke:none;" d="M391.667 597.333L392.333 597.667L391.667 597.333z"/>
<path style="fill:#010c23; stroke:none;" d="M400 600L401 601L400 600M387 601L388 602L387 601M401 602L402 603L401 602z"/>
<path style="fill:#010915; stroke:none;" d="M401 603L402 604L401 603z"/>
<path style="fill:#010c23; stroke:none;" d="M386 604L387 605L386 604M401 605L402 606L401 605M386 607L387 608L386 607z"/>
<path style="fill:#010915; stroke:none;" d="M386 608L387 609L386 608z"/>
<path style="fill:#010c23; stroke:none;" d="M387 609L388 610L387 609M388 610L389 611L388 610M397 610L398 611L397 610M389 611L390 612L389 611M395 611L396 612L395 611M391 612L392 613L391 612z"/>
</svg>
