<?xml version="1.0" standalone="yes"?>
<svg xmlns="http://www.w3.org/2000/svg" width="1231" height="874">
<path style="fill:#010101; stroke:none;" d="M0 0L0 874L1231 874L1231 0L0 0z"/>
<path style="fill:#ffffff; stroke:none;" d="M523 221L518 255C514.545 259.145 526.748 265.934 531 264L530 267C533.641 265.935 536.14 259.608 536 256L539 255L536 244C543.942 242.344 541.682 235.274 541 229C534.897 229.575 529.882 228.979 527 223L524 225L523 224L525 221L523 221z"/>
<path style="fill:#fcfbfc; stroke:none;" d="M524 222L524 225L526 224L526 223L524 222z"/>
<path style="fill:#f9f9f9; stroke:none;" d="M525 222L526 223L525 222M523 223L524 224L523 223z"/>
<path style="fill:#fcfbfc; stroke:none;" d="M524 226L525 227L524 226M526 226L528 228L526 226z"/>
<path style="fill:#f9f9f9; stroke:none;" d="M528 228L529 229L528 228z"/>
<path style="fill:#fcfbfc; stroke:none;" d="M522 229L523 230L522 229M529 229L530 230L529 229M536 229L537 230L536 229M539 229L540 230L539 229M523 230L522 232L523 230M529 231L530 232L529 231M531 231L532 232L531 231M541 234L542 235L541 234z"/>
<path style="fill:#f7f7f7; stroke:none;" d="M536 240L537 241L536 240z"/>
<path style="fill:#fcfbfc; stroke:none;" d="M519 242L520 243L519 242z"/>
<path style="fill:#f9f9f9; stroke:none;" d="M519 243L520 244L519 243M536 244L537 245L536 244z"/>
<path style="fill:#fcfbfc; stroke:none;" d="M537 244L538 245L537 244M537 251L538 252L537 251M519 253L519 256L520 256L519 253M517 254L518 255L517 254M537 254L538 255L537 254M517 256L518 257L517 256M536.667 256.333L537.333 256.667L536.667 256.333M519 258L520 259L519 258M521 260L522 261L521 260M534.333 260.667L534.667 261.333L534.333 260.667M523 262L524 263L523 262M533 262L534 263L533 262M532 263L533 264L532 263z"/>
<path style="fill:#f9f9f9; stroke:none;" d="M527 264L528 265L527 264z"/>
<path style="fill:#fcfbfc; stroke:none;" d="M529 264L531 266L531 264L529 264z"/>
<path style="fill:#f9f9f9; stroke:none;" d="M529 265L530 266L529 265z"/>
</svg>
