<?xml version="1.0" standalone="yes"?>
<svg xmlns="http://www.w3.org/2000/svg" width="1231" height="874">
<path style="fill:#010101; stroke:none;" d="M0 0L0 874L1231 874L1231 0L0 0z"/>
<path style="fill:#f8f8f8; stroke:none;" d="M949 366L950 367L949 366z"/>
<path style="fill:#ffffff; stroke:none;" d="M950 366L951 368L948 367L946 374L947 379L945 377C943.069 383.382 938.338 386.187 933.028 390.167C930.771 391.858 926.984 391.559 927 394L923 393L923 404L923 405L926 402L944 403C946.048 415.016 960.518 410.806 967.657 414.212C972.174 416.368 969.803 427.32 976 424L984 422.492L996 424L995 422L996 422L1000 426L1000 431L1001 431L1003 429L1001 422L998 423L999 421L989 422L989 421L991 420L989 420L989 419L991 419L991 418C988.095 417.159 985.507 413.817 985 418L984 418L984 415C980.354 415.13 979.766 410.527 977.667 408C967.495 395.756 969.272 388.809 972 374L950 366z"/>
<path style="fill:#fcfcfc; stroke:none;" d="M951 366L952 367L951 366M949.667 367.333L950.333 367.667L949.667 367.333M956 368L957 369L956 368M957 369L958 370L957 369M956 370L957 371L956 370M960 370L961 371L960 370z"/>
<path style="fill:#f8f8f8; stroke:none;" d="M947 371L948 372L947 371z"/>
<path style="fill:#fcfcfc; stroke:none;" d="M947 373L948 374L947 373z"/>
<path style="fill:#f8f8f8; stroke:none;" d="M967 373L968 374L967 373z"/>
<path style="fill:#fcfcfc; stroke:none;" d="M968 374L969 375L968 374M970 374L971 375L970 374M946 375L946 379L947 379L946 375M968 376L968 382L969 382L968 376M944 379L941 384L944 379z"/>
<path style="fill:#f8f8f8; stroke:none;" d="M943 380L944 381L943 380z"/>
<path style="fill:#ffffff; stroke:none;" d="M942 381L943 382L942 381z"/>
<path style="fill:#f8f8f8; stroke:none;" d="M943 382L944 383L943 382M930.667 391.333L931.333 391.667L930.667 391.333z"/>
<path style="fill:#fcfcfc; stroke:none;" d="M933 391L934 392L933 391M930 392L931 393L930 392z"/>
<path style="fill:#f8f8f8; stroke:none;" d="M925 393L926 394L925 393z"/>
<path style="fill:#fcfcfc; stroke:none;" d="M926 393L927 394L926 393M922.333 394.667L922.667 395.333L922.333 394.667M924 394L927 397L924 394z"/>
<path style="fill:#f8f8f8; stroke:none;" d="M922 396L923 397L922 396z"/>
<path style="fill:#fcfcfc; stroke:none;" d="M968 398L969 399L968 398M970 398L971 399L970 398z"/>
<path style="fill:#f8f8f8; stroke:none;" d="M970 399L971 400L970 399z"/>
<path style="fill:#fcfcfc; stroke:none;" d="M923 400L923 404L924 404L923 400z"/>
<path style="fill:#f8f8f8; stroke:none;" d="M929 400L930 401L929 400z"/>
<path style="fill:#fcfcfc; stroke:none;" d="M932 400L933 401L932 400z"/>
<path style="fill:#f8f8f8; stroke:none;" d="M925 401L926 402L925 401z"/>
<path style="fill:#fcfcfc; stroke:none;" d="M943.667 401.333L944.333 401.667L943.667 401.333M926 402L927 403L926 402z"/>
<path style="fill:#f4f4f4; stroke:none;" d="M924 403L925 404L924 403z"/>
<path style="fill:#fcfcfc; stroke:none;" d="M943 403L944 404L943 403M973 403L974 404L973 403M945 404L946 405L945 404z"/>
<path style="fill:#f8f8f8; stroke:none;" d="M946 405L947 406L946 405z"/>
<path style="fill:#fcfcfc; stroke:none;" d="M972 405L974 407L974 405L972 405M947 406L948 407L947 406M947 408L948 409L947 408M950 408L951 409L950 408M976.333 408.667L976.667 409.333L976.333 408.667M950 410L951 411L950 410z"/>
<path style="fill:#f8f8f8; stroke:none;" d="M951 410L952 411L951 410z"/>
<path style="fill:#fcfcfc; stroke:none;" d="M978 411L979 412L978 411z"/>
<path style="fill:#f8f8f8; stroke:none;" d="M980 411L984 415L980 411M955 412L956 413L955 412z"/>
<path style="fill:#fcfcfc; stroke:none;" d="M970 412L972 414L970 412M980 412L980 414L982 414L980 412M958 413L959 414L958 413M960 413L961 414L960 413M962 414L963 415L962 414z"/>
<path style="fill:#f8f8f8; stroke:none;" d="M971 414L972 415L971 414z"/>
<path style="fill:#fcfcfc; stroke:none;" d="M982.333 414.667L982.667 415.333L982.333 414.667M971 415L972 416L971 415M984 415L984 418L985 418L984 415M970 416L971 417L970 416z"/>
<path style="fill:#f8f8f8; stroke:none;" d="M970 417L971 418L970 417M986 417L987 418L986 417z"/>
<path style="fill:#fcfcfc; stroke:none;" d="M988 417L989 418L988 417M985 421L988 420L985 421z"/>
<path style="fill:#f8f8f8; stroke:none;" d="M989 419L990 420L989 419z"/>
<path style="fill:#f4f4f4; stroke:none;" d="M990 419L991 420L990 419z"/>
<path style="fill:#fcfcfc; stroke:none;" d="M991 419L989 421L989 422L993 419L991 419z"/>
<path style="fill:#f8f8f8; stroke:none;" d="M993 419L994 420L993 419M971 420L972 421L971 420z"/>
<path style="fill:#fcfcfc; stroke:none;" d="M982 420L983 421L982 420z"/>
<path style="fill:#f8f8f8; stroke:none;" d="M986 420L987 421L986 420z"/>
<path style="fill:#fcfcfc; stroke:none;" d="M996 420L997 421L996 420M970 421L971 422L970 421z"/>
<path style="fill:#f8f8f8; stroke:none;" d="M984 421L985 422L984 421M994 421L995 422L994 421z"/>
<path style="fill:#fcfcfc; stroke:none;" d="M997 421L998 422L997 421z"/>
<path style="fill:#f4f4f4; stroke:none;" d="M971 422L972 423L971 422z"/>
<path style="fill:#fcfcfc; stroke:none;" d="M980 422L981 423L980 422z"/>
<path style="fill:#f8f8f8; stroke:none;" d="M986 422L987 423L986 422z"/>
<path style="fill:#fcfcfc; stroke:none;" d="M995 422L997 424L997 422L995 422z"/>
<path style="fill:#f8f8f8; stroke:none;" d="M998.667 422.333L999.333 422.667L998.667 422.333z"/>
<path style="fill:#fcfcfc; stroke:none;" d="M987 423L988 424L987 423M1000.67 423.333L1001.33 423.667L1000.67 423.333z"/>
<path style="fill:#f8f8f8; stroke:none;" d="M973 424L974 425L973 424z"/>
<path style="fill:#f4f4f4; stroke:none;" d="M975 424L976 425L975 424z"/>
<path style="fill:#fcfcfc; stroke:none;" d="M978 424L979 425L978 424z"/>
<path style="fill:#f8f8f8; stroke:none;" d="M979 424L980 425L979 424z"/>
<path style="fill:#fcfcfc; stroke:none;" d="M975 425L976 426L975 425z"/>
<path style="fill:#f8f8f8; stroke:none;" d="M998.333 425.667L998.667 426.333L998.333 425.667z"/>
<path style="fill:#fcfcfc; stroke:none;" d="M999 426L1000 427L999 426M1001 428L1000 430L1001 428z"/>
<path style="fill:#f8f8f8; stroke:none;" d="M1001 429L1002 430L1001 429z"/>
</svg>
