<?xml version="1.0" standalone="yes"?>
<svg xmlns="http://www.w3.org/2000/svg" width="1231" height="874">
<path style="fill:#010101; stroke:none;" d="M0 0L0 874L1231 874L1231 0L0 0z"/>
<path style="fill:#f4f4f4; stroke:none;" d="M725 272L726 273L725 272z"/>
<path style="fill:#f8f8f8; stroke:none;" d="M724 273L725 274L724 273z"/>
<path style="fill:#fdfcfd; stroke:none;" d="M725 273L726 274L725 273z"/>
<path style="fill:#ffffff; stroke:none;" d="M726 273C720.631 276.579 705.26 289.565 699 288L699 289C701.979 291.76 714.542 300.904 714.922 304.043C715.394 307.943 711.071 312.867 709.588 316.385C707.555 321.207 707.583 326.848 706.87 332C706.527 334.472 704.717 341.275 709.059 341.369C712.864 341.451 719.418 335.742 723 334C724.68 336.916 727.322 336.162 728 333L729 333L730 336L730 333C737.33 329.117 744.053 319.508 744 311C747.882 309.77 751.28 307.028 752 303L758 300L757 295L751 296L751 295L753 294L746 292L745 288L732 283L736 283L736 282L732 282L734 279L730 273L729 273L725 277L726 273z"/>
<path style="fill:#fdfcfd; stroke:none;" d="M727 273L727 274L730 275L727 273M723 274L724 275L723 274z"/>
<path style="fill:#f8f8f8; stroke:none;" d="M726 274L726 275L729 275L726 274z"/>
<path style="fill:#fdfcfd; stroke:none;" d="M722 275L723 276L722 275M725 275L725 277L727 275L725 275M719 278L718 280L720 280L719 278z"/>
<path style="fill:#f8f8f8; stroke:none;" d="M715 280L716 281L715 280z"/>
<path style="fill:#fdfcfd; stroke:none;" d="M732 280L735 282L732 280M714 281L715 282L714 281M715 282L715 283L720 282L715 282M712 282L712 284L714 282L712 282z"/>
<path style="fill:#f8f8f8; stroke:none;" d="M710.667 283.333L711.333 283.667L710.667 283.333M713 283L714 284L713 283z"/>
<path style="fill:#fdfcfd; stroke:none;" d="M732 283L740 285L740 284L732 283z"/>
<path style="fill:#f8f8f8; stroke:none;" d="M735 283L736 284L735 283z"/>
<path style="fill:#ffffff; stroke:none;" d="M737 283L738 284L737 283z"/>
<path style="fill:#fdfcfd; stroke:none;" d="M705.667 285.333L706.333 285.667L705.667 285.333z"/>
<path style="fill:#f8f8f8; stroke:none;" d="M707 286L708 287L707 286z"/>
<path style="fill:#fdfcfd; stroke:none;" d="M742 286L743 287L742 286M700.333 287.667L700.667 288.333L700.333 287.667z"/>
<path style="fill:#f8f8f8; stroke:none;" d="M743 287L744 288L743 287z"/>
<path style="fill:#fdfcfd; stroke:none;" d="M744 289L745 290L744 289z"/>
<path style="fill:#f8f8f8; stroke:none;" d="M745 289L746 290L745 289z"/>
<path style="fill:#fdfcfd; stroke:none;" d="M701 290L702 291L701 290z"/>
<path style="fill:#f8f8f8; stroke:none;" d="M746 290L747 291L746 290z"/>
<path style="fill:#fdfcfd; stroke:none;" d="M703 291L704 292L703 291M746 291L747 292L746 291M751 293L752 294L751 293M753 294L751 295L751 296L753 294z"/>
<path style="fill:#f8f8f8; stroke:none;" d="M748 295L749 296L748 295z"/>
<path style="fill:#fdfcfd; stroke:none;" d="M749.333 295.667L749.667 296.333L749.333 295.667z"/>
<path style="fill:#f8f8f8; stroke:none;" d="M754 295L755 296L754 295z"/>
<path style="fill:#fdfcfd; stroke:none;" d="M755 295L756 296L755 295z"/>
<path style="fill:#f8f8f8; stroke:none;" d="M706 296L708 298L706 296M757 296L758 297L757 296z"/>
<path style="fill:#fdfcfd; stroke:none;" d="M756 297L756 298L760 298L756 297z"/>
<path style="fill:#ffffff; stroke:none;" d="M758 297L759 298L758 297z"/>
<path style="fill:#fdfcfd; stroke:none;" d="M708.667 298.333L709.333 298.667L708.667 298.333z"/>
<path style="fill:#f8f8f8; stroke:none;" d="M757 298L758 299L757 298z"/>
<path style="fill:#fdfcfd; stroke:none;" d="M753 300L752 302L753 300M755 300L756 301L755 300z"/>
<path style="fill:#f8f8f8; stroke:none;" d="M756 300L757 301L756 300M755 301L756 302L755 301z"/>
<path style="fill:#fdfcfd; stroke:none;" d="M754 302L755 303L754 302M752 303L753 304L752 303z"/>
<path style="fill:#f8f8f8; stroke:none;" d="M753 303L754 304L753 303z"/>
<path style="fill:#fdfcfd; stroke:none;" d="M715.333 304.667L715.667 305.333L715.333 304.667z"/>
<path style="fill:#f8f8f8; stroke:none;" d="M749 305L750 306L749 305z"/>
<path style="fill:#fdfcfd; stroke:none;" d="M715.333 307.667L715.667 308.333L715.333 307.667z"/>
<path style="fill:#f4f4f4; stroke:none;" d="M744 308L745 309L744 308z"/>
<path style="fill:#fdfcfd; stroke:none;" d="M747.667 308.333L748.333 308.667L747.667 308.333z"/>
<path style="fill:#f8f8f8; stroke:none;" d="M713 309L714 310L713 309M715 309L716 310L715 309M745 309L746 310L745 309M747 309L748 310L747 309z"/>
<path style="fill:#fdfcfd; stroke:none;" d="M744 311L745 312L744 311z"/>
<path style="fill:#f8f8f8; stroke:none;" d="M745 311L746 312L745 311M740 312L741 313L740 312z"/>
<path style="fill:#fdfcfd; stroke:none;" d="M742 313L741 315L742 313M710 315L711 316L710 315z"/>
<path style="fill:#f8f8f8; stroke:none;" d="M709 316L710 317L709 316z"/>
<path style="fill:#fdfcfd; stroke:none;" d="M742 316L743 317L742 316z"/>
<path style="fill:#f8f8f8; stroke:none;" d="M711 317L710 319L711 317M708 319L709 320L708 319z"/>
<path style="fill:#fdfcfd; stroke:none;" d="M710 319L711 320L710 319z"/>
<path style="fill:#f4f4f4; stroke:none;" d="M740 321L741 322L740 321z"/>
<path style="fill:#f8f8f8; stroke:none;" d="M736 324L737 325L736 324M707 327L708 328L707 327z"/>
<path style="fill:#fdfcfd; stroke:none;" d="M732 331L733 331L735 329C732.86 327.882 732.473 328.749 732 331z"/>
<path style="fill:#f8f8f8; stroke:none;" d="M716 332L717 333L716 332z"/>
<path style="fill:#fdfcfd; stroke:none;" d="M729 332L730 333L729 332M731 332L732 333L731 332M718 333L717 335L718 333M728 333L729 334L728 333M730 333L731 334L730 333M722 334L723 335L722 334z"/>
<path style="fill:#f8f8f8; stroke:none;" d="M728 334L729 335L728 334z"/>
<path style="fill:#fdfcfd; stroke:none;" d="M728 335L729 336L728 335M711.667 337.333L712.333 337.667L711.667 337.333M713 338L714 339L713 338M712 339L713 340L712 339M705 340L706 341L705 340M708 340L709 341L708 340z"/>
<path style="fill:#f8f8f8; stroke:none;" d="M709 340L710 341L709 340z"/>
<path style="fill:#fdfcfd; stroke:none;" d="M710 340L711 341L710 340M706 341L707 342L706 341z"/>
</svg>
