<?xml version="1.0" standalone="yes"?>
<svg xmlns="http://www.w3.org/2000/svg" width="1231" height="874">
<path style="fill:#010101; stroke:none;" d="M0 0L0 874L1231 874L1231 0L0 0z"/>
<path style="fill:#ffffff; stroke:none;" d="M568 541L560 555L564 559L562 562L553 584C548.944 586.614 547.785 590.431 549 595L547 600C541.205 598.492 531.755 602.402 533.333 609.995C534.692 616.542 541.069 615.245 544 611C549.875 612.237 557.53 605.495 559.667 600C560.865 596.918 559.109 590 563 590L582 568C588.652 563.447 587.329 554.122 584 548L590 547C582.689 535.302 580.418 537.807 568 541z"/>
<path style="fill:#fbfafb; stroke:none;" d="M584 538L585 539L584 538M572 539L573 540L572 539M575.667 539.333L576.333 539.667L575.667 539.333M581 539L581 540L584 542L585 542L581 539M571 540L572 541L571 540M570 541L571 542L570 541M568 543L569 544L568 543M570 543L571 544L570 543z"/>
<path style="fill:#f6f6f6; stroke:none;" d="M588 545L589 546L588 545M584 548L585 549L584 548z"/>
<path style="fill:#fbfafb; stroke:none;" d="M567 549L568 550L567 549M563 550L564 551L563 550z"/>
<path style="fill:#f6f6f6; stroke:none;" d="M566 550L567 551L566 550z"/>
<path style="fill:#fbfafb; stroke:none;" d="M585.333 550.667L585.667 551.333L585.333 550.667M565 551L566 552L565 551M561 552L560 554L562 554L561 552M563 552L562 555L563 552M584 552L584 560L585 560L584 552M560.667 555.333L561.333 555.667L560.667 555.333M562 556L564 558L564 556L562 556M563 559L562 561L564 561L563 559M563 562L564 563L563 562M563 565L562 568L563 565M582 568L583 569L582 568M580 569L581 570L580 569M559 572L558 576L559 576L559 572M557 574L558 575L557 574M556 575L557 576L556 575z"/>
<path style="fill:#f6f6f6; stroke:none;" d="M569 577L571 579L569 577z"/>
<path style="fill:#fbfafb; stroke:none;" d="M570 577L571 578L570 577M569 578L570 579L569 578M554 579L555 580L554 579M555 580L556 581L555 580M567 580L564 584L567 580M555 582L556 583L555 582M567 582L568 583L567 582M552 583L553 584L552 583M566 583L567 584L566 583M551 586L552 587L551 586M549 587L550 588L549 587z"/>
<path style="fill:#f6f6f6; stroke:none;" d="M561 589L562 590L561 589z"/>
<path style="fill:#fbfafb; stroke:none;" d="M560 590L561 594L562 594L563 591L560 590M551 591L552 592L551 591z"/>
<path style="fill:#ffffff; stroke:none;" d="M561 591L562 592L561 591z"/>
<path style="fill:#f6f6f6; stroke:none;" d="M561 592L562 593L561 592z"/>
<path style="fill:#fbfafb; stroke:none;" d="M549 593L550 594L549 593M548 594L549 595L548 594M560 594L561 595L560 594M560 596L561 597L560 596z"/>
<path style="fill:#f1f1f1; stroke:none;" d="M547 597L548 598L547 597z"/>
<path style="fill:#fbfafb; stroke:none;" d="M546.333 598.667L546.667 599.333L546.333 598.667M543 599L544 600L543 599M556 600L558 602L556 600M539 601L540 602L539 601M553 605L554 606L553 605z"/>
<path style="fill:#f6f6f6; stroke:none;" d="M533 606L534 607L533 606z"/>
<path style="fill:#f1f1f1; stroke:none;" d="M532 608L533 609L532 608z"/>
<path style="fill:#fbfafb; stroke:none;" d="M545 608L546 609L545 608M545 610L546 611L545 610M535 611L536 612L535 611M544 611L545 612L544 611M536 613L537 614L536 613M539 613L540 614L539 613M541 613L542 614L541 613M537 616L538 617L537 616z"/>
</svg>
