<?xml version="1.0" standalone="yes"?>
<svg xmlns="http://www.w3.org/2000/svg" width="1231" height="874">
<path style="fill:#010101; stroke:none;" d="M0 0L0 874L1231 874L1231 0L0 0z"/>
<path style="fill:#ffffff; stroke:none;" d="M1008 285L1008 288L1009 288L1008 285z"/>
<path style="fill:#fcfcfc; stroke:none;" d="M1007 287L1007 289L1009 289L1007 287z"/>
<path style="fill:#ffffff; stroke:none;" d="M1006 289L1005 295L1003 303L993 316L996 318L996 319L997 322L998 322L1000 311L1008 296L1009 289L1006 289z"/>
<path style="fill:#fcfcfc; stroke:none;" d="M1006 290L1007 291L1006 290M1008 290L1009 291L1008 290M1005 291L1006 292L1005 291M1007 291L1008 294L1007 291M1004 294L1005 295L1004 294z"/>
<path style="fill:#f8f8f8; stroke:none;" d="M1007 294L1006 296L1007 294z"/>
<path style="fill:#fcfcfc; stroke:none;" d="M1007 295L1008 296L1007 295M1004 296L1005 297L1004 296z"/>
<path style="fill:#f8f8f8; stroke:none;" d="M1005 296L1006 297L1005 296M1002 298L1003 299L1002 298z"/>
<path style="fill:#fcfcfc; stroke:none;" d="M1006 298L1007 299L1006 298M1002 299L1003 302L1002 299z"/>
<path style="fill:#f5f5f5; stroke:none;" d="M1006 299L1007 300L1006 299z"/>
<path style="fill:#f8f8f8; stroke:none;" d="M1006 300L1007 301L1006 300M1001 301L1002 302L1001 301z"/>
<path style="fill:#fcfcfc; stroke:none;" d="M1005 301L1006 302L1005 301z"/>
<path style="fill:#f8f8f8; stroke:none;" d="M1002 302L1003 303L1002 302M1004 303L1005 304L1004 303z"/>
<path style="fill:#fcfcfc; stroke:none;" d="M1001.33 308.667L1001.67 309.333L1001.33 308.667z"/>
<path style="fill:#f8f8f8; stroke:none;" d="M1003 308L1004 309L1003 308M999 309L1000 310L999 309z"/>
<path style="fill:#fcfcfc; stroke:none;" d="M998 310L999 311L998 310z"/>
<path style="fill:#f5f5f5; stroke:none;" d="M1002 310L1003 311L1002 310z"/>
<path style="fill:#f8f8f8; stroke:none;" d="M997 311L998 312L997 311z"/>
<path style="fill:#fcfcfc; stroke:none;" d="M1000 311L1002 313L1002 311L1000 311M1000 314L1001 315L1000 314z"/>
<path style="fill:#f5f5f5; stroke:none;" d="M1000 315L1001 316L1000 315z"/>
<path style="fill:#fcfcfc; stroke:none;" d="M992 316L992 320L997 320L996 317L998 318L992 316z"/>
<path style="fill:#f8f8f8; stroke:none;" d="M999 316L1000 317L999 316M991 317L992 318L991 317z"/>
<path style="fill:#f5f5f5; stroke:none;" d="M996 317L997 318L996 317z"/>
<path style="fill:#fcfcfc; stroke:none;" d="M999 317L1000 318L999 317M990 318L988 322L990 318z"/>
<path style="fill:#ffffff; stroke:none;" d="M991 318L988 323L990 322L990 323L983 327L980 334L978 332L969 345C965.52 345.593 962.756 347.276 964 351L960 351L957 360L952 364L955 365L955 362L959 366L958 364L964 368L973 371L972 368C975.24 367.488 974.697 363.702 974 361C978.009 357.763 980.362 350.03 980 345L981 345L982 348L982 345C987.22 341.868 992.244 335.237 992 329L995 329L996 320L991 318z"/>
<path style="fill:#f8f8f8; stroke:none;" d="M998 318L999 319L998 318z"/>
<path style="fill:#f5f5f5; stroke:none;" d="M997 319L998 320L997 319z"/>
<path style="fill:#f8f8f8; stroke:none;" d="M991 320L990 322L991 320M996 320L997 321L996 320z"/>
<path style="fill:#fcfcfc; stroke:none;" d="M991 321L992 322L991 321M996 321L997 322L996 321z"/>
<path style="fill:#f5f5f5; stroke:none;" d="M987 322L988 323L987 322z"/>
<path style="fill:#f8f8f8; stroke:none;" d="M989 322L986 324L986 325L989 322M996 322L997 323L996 322z"/>
<path style="fill:#fcfcfc; stroke:none;" d="M987 323L988 324L987 323M989 323L990 324L989 323z"/>
<path style="fill:#f8f8f8; stroke:none;" d="M985 325L986 326L985 325M993 325L995 327L993 325z"/>
<path style="fill:#fcfcfc; stroke:none;" d="M994 325L995 326L994 325z"/>
<path style="fill:#f8f8f8; stroke:none;" d="M984.333 326.667L984.667 327.333L984.333 326.667M987 326L986 328L987 326z"/>
<path style="fill:#fcfcfc; stroke:none;" d="M993 326L994 327L993 326M987 327L988 328L987 327z"/>
<path style="fill:#f8f8f8; stroke:none;" d="M982 328L983 329L982 328z"/>
<path style="fill:#fcfcfc; stroke:none;" d="M983 328L984 329L983 328M993 328L992 331L993 328z"/>
<path style="fill:#f8f8f8; stroke:none;" d="M981 329L982 330L981 329M980 330L979 332L980 330z"/>
<path style="fill:#fcfcfc; stroke:none;" d="M983 330L984 331L983 330M980 331L981 332L980 331M979.333 332.667L979.667 333.333L979.333 332.667M988 332L989 333L988 332M990 332L991 333L990 332z"/>
<path style="fill:#f8f8f8; stroke:none;" d="M989 333L990 334L989 333z"/>
<path style="fill:#f5f5f5; stroke:none;" d="M990 333L991 334L990 333M978 334L979 335L978 334z"/>
<path style="fill:#fcfcfc; stroke:none;" d="M988 334L989 335L988 334z"/>
<path style="fill:#f5f5f5; stroke:none;" d="M989 334L990 335L989 334z"/>
<path style="fill:#fcfcfc; stroke:none;" d="M976.333 335.667L976.667 336.333L976.333 335.667z"/>
<path style="fill:#f8f8f8; stroke:none;" d="M977 335L978 336L977 335z"/>
<path style="fill:#fcfcfc; stroke:none;" d="M989 336L990 337L989 336z"/>
<path style="fill:#f8f8f8; stroke:none;" d="M975 337L976 338L975 337z"/>
<path style="fill:#fcfcfc; stroke:none;" d="M975 338L974 340L976 340L975 338z"/>
<path style="fill:#f8f8f8; stroke:none;" d="M973 339L974 340L973 339z"/>
<path style="fill:#fcfcfc; stroke:none;" d="M971 340L972 341L971 340M984 341L985 342L984 341M971 342L970 344L971 342M968.333 343.667L968.667 344.333L968.333 343.667M981 344L982 345L981 344M983 344L984 345L983 344M980 345L981 346L980 345M982 345L983 346L982 345z"/>
<path style="fill:#f8f8f8; stroke:none;" d="M966 346L967 347L966 346M980 346L981 347L980 346z"/>
<path style="fill:#fcfcfc; stroke:none;" d="M980.333 347.667L980.667 348.333L980.333 347.667M961 350L962 352L963 352L964 350L961 350M977.333 353.667L977.667 354.333L977.333 353.667M959 356L957 359L959 356M976 357L977 358L976 357M955.667 359.333L956.333 359.667L955.667 359.333M954 360L955 361L954 360z"/>
<path style="fill:#f8f8f8; stroke:none;" d="M972 360L972 363L973 363L972 360M953 361L954 362L953 361z"/>
<path style="fill:#fcfcfc; stroke:none;" d="M974 361L975 362L974 361M952 362L953 363L952 362z"/>
<path style="fill:#f8f8f8; stroke:none;" d="M955 362L954 364L956 364L955 362M951 363L952 364L951 363z"/>
<path style="fill:#fcfcfc; stroke:none;" d="M955 364L956 365L955 364z"/>
<path style="fill:#f8f8f8; stroke:none;" d="M958 364L959 365L958 364z"/>
<path style="fill:#fcfcfc; stroke:none;" d="M959 364L959 367L960 367L959 364M973 364L972 366L973 364z"/>
<path style="fill:#f8f8f8; stroke:none;" d="M956 365L957 366L956 365M958 366L959 367L958 366M959 367L960 368L959 367z"/>
<path style="fill:#fcfcfc; stroke:none;" d="M963 368L964 369L963 368M970 368L971 369L970 368M972.333 368.667L972.667 369.333L972.333 368.667M971.667 371.333L972.333 371.667L971.667 371.333z"/>
</svg>
