<?xml version="1.0" standalone="yes"?>
<svg xmlns="http://www.w3.org/2000/svg" width="1231" height="874">
<path style="fill:#010101; stroke:none;" d="M0 0L0 874L1231 874L1231 0L0 0z"/>
<path style="fill:#ffffff; stroke:none;" d="M535 138C533.575 142.737 526.76 143.872 523 141L519 143L520 141L519 141L508 145L512 152L514 161L517 157L522 154L536 152C535.769 154.922 534.86 158.075 535.188 161C536.863 175.982 553.187 166.362 560 173C566.238 171.57 576.677 170.386 574 162L576 163L573.972 140.318L564 138L535 138z"/>
<path style="fill:#f9f9f9; stroke:none;" d="M535 139L536 140L535 139z"/>
<path style="fill:#fcfbfc; stroke:none;" d="M520 141L519 143L521 143L520 141M523.333 141.667L523.667 142.333L523.333 141.667M514 143L515 144L514 143M518 143L519 144L518 143z"/>
<path style="fill:#f9f9f9; stroke:none;" d="M534 143L535 144L534 143M511 144L512 145L511 144M510.667 147.333L511.333 147.667L510.667 147.333M509 148L510 149L509 148z"/>
<path style="fill:#fcfbfc; stroke:none;" d="M511 148L510 150L512 150L511 148M511 152L512 153L511 152M521 152L521 153L524 153L521 152M535 152L535 157L536 157L535 152M520.333 153.667L520.667 154.333L520.333 153.667M516 155L515 159L516 159L516 155z"/>
<path style="fill:#f9f9f9; stroke:none;" d="M515 156L516 157L515 156z"/>
<path style="fill:#fcfbfc; stroke:none;" d="M517.667 157.333L518.333 157.667L517.667 157.333M572 159L573 160L572 159M573 161L572 163L573 161M574 162L576 165L574 162z"/>
<path style="fill:#f9f9f9; stroke:none;" d="M575 163L576 164L575 163z"/>
<path style="fill:#fcfbfc; stroke:none;" d="M538 164L539 166L540 166L541 164L538 164z"/>
<path style="fill:#f7f7f7; stroke:none;" d="M538 165L539 166L538 165z"/>
<path style="fill:#fcfbfc; stroke:none;" d="M574 165L575 166L574 165z"/>
<path style="fill:#f9f9f9; stroke:none;" d="M547 168L548 169L547 168z"/>
<path style="fill:#fcfbfc; stroke:none;" d="M550 168L552 170L550 168M557 168L557 169L560 169L557 168z"/>
<path style="fill:#f9f9f9; stroke:none;" d="M564 168L565 169L564 168z"/>
<path style="fill:#fcfbfc; stroke:none;" d="M565.667 168.333L566.333 168.667L565.667 168.333M573 168L574 169L573 168M544 169L545 170L544 169M549 169L550 170L549 169M553 169L555 171L553 169M572 169L573 170L572 169M569 170L569 171L572 171L569 170z"/>
<path style="fill:#f9f9f9; stroke:none;" d="M555 171L556 172L555 171z"/>
<path style="fill:#fcfbfc; stroke:none;" d="M559 171L560 172L559 171z"/>
</svg>
