<?xml version="1.0" standalone="yes"?>
<svg xmlns="http://www.w3.org/2000/svg" width="1231" height="874">
<path style="fill:#010101; stroke:none;" d="M0 0L0 874L1231 874L1231 0L0 0z"/>
<path style="fill:#f7f7f7; stroke:none;" d="M620 509L621 510L620 509z"/>
<path style="fill:#ffffff; stroke:none;" d="M616 514C606.851 514.118 595.788 512.919 593 523L596 523L596 530L595 530L595 527L592 532C587.183 534.466 586.311 540.129 592 542C591.692 547.309 594.843 549.846 600 549L598 547L599 541L604 540L622 542C623.773 530.747 635.886 533.117 643 528L643 527L627 516L625 510L622 511L623 509L616 514z"/>
<path style="fill:#fbfafb; stroke:none;" d="M619 510L620 511L619 510M622 510L623 511L622 510z"/>
<path style="fill:#f2f2f2; stroke:none;" d="M623 510L624 511L623 510z"/>
<path style="fill:#fbfafb; stroke:none;" d="M624 511L624 515L625 515L624 511M615 513L616 514L615 513M626 513L627 514L626 513M600 514L601 515L600 514M610.667 515.333L611.333 515.667L610.667 515.333M627.667 515.333L628.333 515.667L627.667 515.333M629 516L630 517L629 516M630 517L631 518L630 517M631 518L632 519L631 518M595.333 519.667L595.667 520.333L595.333 519.667M632 520L634 522L632 520M595 523L595 530L596 530L595 523M633 523L634 524L633 523M635 523L636 524L635 523M640 527L641 528L640 527z"/>
<path style="fill:#f7f7f7; stroke:none;" d="M628 528L629 529L628 528z"/>
<path style="fill:#fbfafb; stroke:none;" d="M594 530L596 532L594 530M591 531L592 532L591 531M624 535L625 535L627 533C624.86 531.882 624.473 532.749 624 535M589 533L590 534L589 533M621 536L620 538L621 536M587.333 537.667L587.667 538.333L587.333 537.667M589 540L590 541L589 540M596 540L596 543L597 543L596 540z"/>
<path style="fill:#f7f7f7; stroke:none;" d="M603 540L604 541L603 540z"/>
<path style="fill:#fbfafb; stroke:none;" d="M619.333 540.667L619.667 541.333L619.333 540.667M609 541L610 542L609 541z"/>
<path style="fill:#f7f7f7; stroke:none;" d="M590 542L591 543L590 542z"/>
<path style="fill:#f2f2f2; stroke:none;" d="M591 542L592 543L591 542z"/>
<path style="fill:#fbfafb; stroke:none;" d="M590 543L591 544L590 543M592 544L593 545L592 544M597 544L598 545L597 544z"/>
<path style="fill:#f2f2f2; stroke:none;" d="M596 545L597 546L596 545z"/>
<path style="fill:#fbfafb; stroke:none;" d="M595.333 546.667L595.667 547.333L595.333 546.667M598.667 547.333L599.333 547.667L598.667 547.333z"/>
</svg>
