<?xml version="1.0" standalone="yes"?>
<svg xmlns="http://www.w3.org/2000/svg" width="1231" height="874">
<path style="fill:#010101; stroke:none;" d="M0 0L0 874L1231 874L1231 0L0 0z"/>
<path style="fill:#ffffff; stroke:none;" d="M716 547C715.501 553.324 713.631 560.748 715.514 566.999C717.151 572.436 722.163 573.92 720 580L723 580L725 596L721 599L726 606L725 608L716 614L722 620L741 621L730.867 606L728 587L731 585L732 582L732 581L729 582L733 579L737 571L738 566L736 566C737.885 560.257 739.206 556.602 746 558C739.936 542.996 729.543 546.999 716 547z"/>
<path style="fill:#fbfafb; stroke:none;" d="M737 546L738 547L737 546M739 547L740 548L739 547M741 549L742 550L741 549z"/>
<path style="fill:#f7f7f7; stroke:none;" d="M741 550L742 551L741 550M740 551L741 552L740 551z"/>
<path style="fill:#fbfafb; stroke:none;" d="M742 552L743 553L742 552M744 555L745 556L744 555M745 556L746 557L745 556M737 557L738 558L737 557M739 557L740 558L739 557M743.667 557.333L744.333 557.667L743.667 557.333M746 557L747 558L746 557M737 559L738 560L737 559M736 565L737 566L736 565z"/>
<path style="fill:#f7f7f7; stroke:none;" d="M737 567L738 568L737 567z"/>
<path style="fill:#fbfafb; stroke:none;" d="M718 568L719 569L718 568z"/>
<path style="fill:#f7f7f7; stroke:none;" d="M732 568L733 569L732 568z"/>
<path style="fill:#fbfafb; stroke:none;" d="M737 568L736 570L738 570L737 568M719.333 570.667L719.667 571.333L719.333 570.667M721 572L722 573L721 572M723 573L724 574L723 573M733 573L734 574L733 573M723.333 576.667L723.667 577.333L723.333 576.667z"/>
<path style="fill:#f7f7f7; stroke:none;" d="M732 577L733 578L732 577M722 580L723 581L722 580M729 580L730 581L729 580z"/>
<path style="fill:#fbfafb; stroke:none;" d="M730 580L731 581L730 580z"/>
<path style="fill:#f7f7f7; stroke:none;" d="M731 580L732 581L731 580z"/>
<path style="fill:#f0f0f0; stroke:none;" d="M729 581L730 582L729 581z"/>
<path style="fill:#fbfafb; stroke:none;" d="M728.333 582.667L728.667 583.333L728.333 582.667M730 582L731 583L730 582M729 585L730 586L729 585M728.333 587.667L728.667 588.333L728.333 587.667z"/>
<path style="fill:#f0f0f0; stroke:none;" d="M729 587L730 588L729 587z"/>
<path style="fill:#fbfafb; stroke:none;" d="M726.333 588.667L726.667 589.333L726.333 588.667z"/>
<path style="fill:#f0f0f0; stroke:none;" d="M727 591L728 592L727 591z"/>
<path style="fill:#fbfafb; stroke:none;" d="M726 594L727 595L726 594M723.333 595.667L723.667 596.333L723.333 595.667z"/>
<path style="fill:#f0f0f0; stroke:none;" d="M724 595L725 596L724 595z"/>
<path style="fill:#fbfafb; stroke:none;" d="M721 596L722 597L721 596z"/>
<path style="fill:#f7f7f7; stroke:none;" d="M722 596L723 597L722 596z"/>
<path style="fill:#fbfafb; stroke:none;" d="M728 596L729 597L728 596M722 598L724 601L722 598M729 599L729 602L730 602L729 599z"/>
<path style="fill:#f7f7f7; stroke:none;" d="M731 599L732 600L731 599z"/>
<path style="fill:#fbfafb; stroke:none;" d="M725 600L726 601L725 600M727 600L728 601L727 600M727 602L728 603L727 602M729 603L730 604L729 603z"/>
<path style="fill:#f7f7f7; stroke:none;" d="M729 604L730 605L729 604z"/>
<path style="fill:#fbfafb; stroke:none;" d="M725 605L726 606L725 605z"/>
<path style="fill:#f7f7f7; stroke:none;" d="M726 606L727 607L726 606z"/>
<path style="fill:#f0f0f0; stroke:none;" d="M724 607L725 608L724 607M723 611L724 612L723 611z"/>
<path style="fill:#fbfafb; stroke:none;" d="M734.333 614.667L734.667 615.333L734.333 614.667M718.667 615.333L719.333 615.667L718.667 615.333z"/>
<path style="fill:#f7f7f7; stroke:none;" d="M735 615L736 616L735 615z"/>
<path style="fill:#fbfafb; stroke:none;" d="M722 616L723 617L722 616M736 616L737 617L736 616M738 617L739 618L738 617M720.667 618.333L721.333 618.667L720.667 618.333M723 619L724 620L723 619M736 619L737 620L736 619z"/>
<path style="fill:#f7f7f7; stroke:none;" d="M737 619L738 620L737 619z"/>
</svg>
