<?xml version="1.0" standalone="yes"?>
<svg xmlns="http://www.w3.org/2000/svg" width="1231" height="874">
<path style="fill:#010101; stroke:none;" d="M0 0L0 874L1231 874L1231 0L0 0z"/>
<path style="fill:#fdfcfd; stroke:none;" d="M667 423L667 427L672 425L672 424L667 423z"/>
<path style="fill:#f5f5f5; stroke:none;" d="M668 423L669 424L668 423z"/>
<path style="fill:#ffffff; stroke:none;" d="M669.667 423.333L670.333 423.667L669.667 423.333M666 425L658 434L650 448C645.895 448.852 644.53 453.086 644 457L647 456L645 459L648 460L651.451 468.999L649.514 508L649 528L658 524L657 521L669 519L672 508C675.541 504.926 676.328 497.528 676 493L677 493L678 496L688 459L688 458L686 457L688 443L689 443L689 445L690 445L688 440L686 435L687 432L680 433L680 432L683 432L683 431L676 429L666 425z"/>
<path style="fill:#fdfcfd; stroke:none;" d="M673 425L674 426L673 425z"/>
<path style="fill:#f8f8f8; stroke:none;" d="M666 427L667 428L666 427M676 428L677 429L676 428z"/>
<path style="fill:#fdfcfd; stroke:none;" d="M663 429L664 430L663 429z"/>
<path style="fill:#f8f8f8; stroke:none;" d="M679 429L680 430L679 429z"/>
<path style="fill:#fdfcfd; stroke:none;" d="M678.333 430.667L678.667 431.333L678.333 430.667M661 431L662 432L661 431z"/>
<path style="fill:#f8f8f8; stroke:none;" d="M677 431L678 432L677 431M679 431L680 432L679 431z"/>
<path style="fill:#fdfcfd; stroke:none;" d="M680 432L680 433L684 433L680 432M659 433L660 434L659 433M684 433L684 436L685 436L684 433z"/>
<path style="fill:#f8f8f8; stroke:none;" d="M659 434L660 435L659 434z"/>
<path style="fill:#fdfcfd; stroke:none;" d="M686 434L687 435L686 434M657 435L658 436L657 435z"/>
<path style="fill:#f8f8f8; stroke:none;" d="M658 435L659 436L658 435z"/>
<path style="fill:#fdfcfd; stroke:none;" d="M654 439L655 440L654 439z"/>
<path style="fill:#f8f8f8; stroke:none;" d="M659 439L660 440L659 439M688 439L689 440L688 439z"/>
<path style="fill:#fdfcfd; stroke:none;" d="M655 440L656 441L655 440M653 442L652 444L653 442M655 442L657 444L655 442M688 443L688 446L689 446L688 443M650 445L651 446L650 445M649.333 446.667L649.667 447.333L649.333 446.667z"/>
<path style="fill:#f8f8f8; stroke:none;" d="M651 446L652 447L651 446z"/>
<path style="fill:#fdfcfd; stroke:none;" d="M688 447L689 448L688 447M647 450L648 451L647 450M645.333 451.667L645.667 452.333L645.333 451.667z"/>
<path style="fill:#f5f5f5; stroke:none;" d="M647 452L648 453L647 452z"/>
<path style="fill:#fdfcfd; stroke:none;" d="M645 455L646 456L645 455M647 455L648 456L647 455z"/>
<path style="fill:#f8f8f8; stroke:none;" d="M646 456L644 457L644 458L646 456M684 456L685 457L684 456z"/>
<path style="fill:#fdfcfd; stroke:none;" d="M686 456L687 457L686 456z"/>
<path style="fill:#f8f8f8; stroke:none;" d="M684.333 458.667L684.667 459.333L684.333 458.667M646.667 460.333L647.333 460.667L646.667 460.333M686 460L687 461L686 460z"/>
<path style="fill:#fdfcfd; stroke:none;" d="M649 462L651 464L649 462z"/>
<path style="fill:#f8f8f8; stroke:none;" d="M651.333 462.667L651.667 463.333L651.333 462.667M684 464L685 465L684 464z"/>
<path style="fill:#fdfcfd; stroke:none;" d="M683 468L684 469L683 468M680 469L680 470L683 470L683 469L680 469M651 472L652 473L651 472M681 472L682 473L681 472z"/>
<path style="fill:#f8f8f8; stroke:none;" d="M651 473L652 474L651 473z"/>
<path style="fill:#fdfcfd; stroke:none;" d="M650 474L652 476L650 474z"/>
<path style="fill:#f8f8f8; stroke:none;" d="M650 475L651 476L650 475z"/>
<path style="fill:#fdfcfd; stroke:none;" d="M680 476L680 487L681 487L680 476M651 477L652 478L651 477z"/>
<path style="fill:#f5f5f5; stroke:none;" d="M651 479L652 480L651 479z"/>
<path style="fill:#f8f8f8; stroke:none;" d="M680 488L681 489L680 488z"/>
<path style="fill:#fdfcfd; stroke:none;" d="M680 489L681 490L680 489M677 492L678 493L677 492M679 492L680 493L679 492M676 493L677 494L676 493M678 493L679 494L678 493z"/>
<path style="fill:#f8f8f8; stroke:none;" d="M676 494L677 495L676 494z"/>
<path style="fill:#fdfcfd; stroke:none;" d="M676.333 495.667L676.667 496.333L676.333 495.667M650 498L651 499L650 498M673 500L672 502L673 500M674.333 501.667L674.667 502.333L674.333 501.667M649 504L649 508L650 508L649 504M650 508L651 509L650 508z"/>
<path style="fill:#f8f8f8; stroke:none;" d="M672 508L673 509L672 508z"/>
<path style="fill:#fdfcfd; stroke:none;" d="M673 508L674 509L673 508M669 511L668 516L669 511z"/>
<path style="fill:#f8f8f8; stroke:none;" d="M667.667 516.333L668.333 516.667L667.667 516.333M666 517L667 518L666 517z"/>
<path style="fill:#fdfcfd; stroke:none;" d="M669 517L670 518L669 517z"/>
<path style="fill:#f8f8f8; stroke:none;" d="M665 518L666 519L665 518z"/>
<path style="fill:#fdfcfd; stroke:none;" d="M667 518L668 519L667 518z"/>
<path style="fill:#f8f8f8; stroke:none;" d="M664 519L665 520L664 519z"/>
<path style="fill:#fdfcfd; stroke:none;" d="M666 519L667 520L666 519M661 520L662 521L661 520M665 520L666 521L665 520z"/>
<path style="fill:#f5f5f5; stroke:none;" d="M657 521L659 523L657 521z"/>
<path style="fill:#fdfcfd; stroke:none;" d="M658 521L659 522L658 521z"/>
<path style="fill:#f8f8f8; stroke:none;" d="M663 521L664 522L663 521z"/>
<path style="fill:#fdfcfd; stroke:none;" d="M657 522L658 523L657 522M659 522L660 523L659 522z"/>
<path style="fill:#f8f8f8; stroke:none;" d="M661 522L662 523L661 522z"/>
<path style="fill:#fdfcfd; stroke:none;" d="M658 523L659 524L658 523M651 524L652 525L651 524M651 526L652 527L651 526z"/>
<path style="fill:#f8f8f8; stroke:none;" d="M652 526L653 527L652 526z"/>
</svg>
