<?xml version="1.0" standalone="yes"?>
<svg xmlns="http://www.w3.org/2000/svg" width="1231" height="874">
<path style="fill:#010101; stroke:none;" d="M0 0L0 874L1231 874L1231 0L0 0z"/>
<path style="fill:#f8f8f8; stroke:none;" d="M738 597L737 600L738 597z"/>
<path style="fill:#fdfcfd; stroke:none;" d="M739 597L740 598L739 597z"/>
<path style="fill:#ffffff; stroke:none;" d="M736 598L736 601C728.842 604.99 736.473 609.128 738 614L744 616C741.538 628.901 729.227 620.819 721 624C716.953 613.034 708.674 614.073 699.286 613.879C694.754 613.785 690.568 611.23 686 611.183C679.402 611.115 672.612 613.478 666 614L668 634L670 635L670 636L674 638L672 637L672 638C673.758 640.443 675.962 644.778 679.076 645.655C682.45 646.606 685.676 641.866 689.015 641.228C695.443 639.998 702.188 641.023 708.576 639.638C717.856 637.626 722.492 632.061 732 638L730 637L730 638C739.699 643.599 744.694 634.51 744 625L745 625L745 628L746 628L753.018 613.089L749 605L741 598L736 600L736 599L738 599L736 598z"/>
<path style="fill:#fdfcfd; stroke:none;" d="M736 599L737 600L736 599z"/>
<path style="fill:#f8f8f8; stroke:none;" d="M740 599L741 600L740 599M734 600L735 601L734 600z"/>
<path style="fill:#fdfcfd; stroke:none;" d="M735 600L736 601L735 600M733 601L734 602L733 601z"/>
<path style="fill:#f8f8f8; stroke:none;" d="M732 602L733 603L732 602M741.667 603.333L742.333 603.667L741.667 603.333z"/>
<path style="fill:#fdfcfd; stroke:none;" d="M746 603L747 604L746 603z"/>
<path style="fill:#f8f8f8; stroke:none;" d="M733 604L735 606L733 604z"/>
<path style="fill:#fdfcfd; stroke:none;" d="M734 604L735 605L734 604z"/>
<path style="fill:#f4f4f4; stroke:none;" d="M735 604L736 605L735 604M735 606L736 607L735 606z"/>
<path style="fill:#fdfcfd; stroke:none;" d="M748 606L749 607L748 606z"/>
<path style="fill:#f8f8f8; stroke:none;" d="M749.333 606.667L749.667 607.333L749.333 606.667z"/>
<path style="fill:#fdfcfd; stroke:none;" d="M734 607L735 608L734 607M736 608L740 612L736 608M748.333 608.667L748.667 609.333L748.333 608.667M750 608L750 610L752 610L750 608M736 610L737 611L736 610M737 611L738 612L737 611M750.667 611.333L751.333 611.667L750.667 611.333M677 612L678 613L677 612M738 612L739 613L738 612M739.333 613.667L739.667 614.333L739.333 613.667M676 614L677 615L676 614M679 614L679 615L682 615L679 614M696 614L698 616L696 614M698 614L699 615L698 614z"/>
<path style="fill:#f8f8f8; stroke:none;" d="M708 614L709 615L708 614M666 615L667 616L666 615z"/>
<path style="fill:#fdfcfd; stroke:none;" d="M693.667 615.333L694.333 615.667L693.667 615.333M740 615L741 616L740 615M741 616L741 617L743 619L744 619L741 616M748 616L748 619L751 616L748 616z"/>
<path style="fill:#ffffff; stroke:none;" d="M742 617L743 618L742 617z"/>
<path style="fill:#f8f8f8; stroke:none;" d="M750 617L751 618L750 617M749 618L750 619L749 618M712 619L713 620L712 619z"/>
<path style="fill:#fdfcfd; stroke:none;" d="M667 620L668 621L667 620M748 620L749 621L748 620M720 621L721 622L720 621z"/>
<path style="fill:#f8f8f8; stroke:none;" d="M721 622L722 623L721 622z"/>
<path style="fill:#fdfcfd; stroke:none;" d="M722 622L723 623L722 622M724.667 622.333L725.333 622.667L724.667 622.333M743 622L744 623L743 622M748 622L749 623L748 622M721 623L722 624L721 623M727 623L728 624L727 623z"/>
<path style="fill:#f8f8f8; stroke:none;" d="M728 623L728 624L732 624L728 623z"/>
<path style="fill:#fdfcfd; stroke:none;" d="M732 623L732 624L740 624L732 623z"/>
<path style="fill:#f8f8f8; stroke:none;" d="M743 623L744 624L743 623z"/>
<path style="fill:#fdfcfd; stroke:none;" d="M745 624L746 625L745 624M747 624L748 625L747 624M744 625L744 629L745 629L744 625M746 625L747 626L746 625z"/>
<path style="fill:#f8f8f8; stroke:none;" d="M744 626L745 627L744 626M667 632L668 633L667 632z"/>
<path style="fill:#fdfcfd; stroke:none;" d="M668 632L669 633L668 632M718.667 632.333L719.333 632.667L718.667 632.333M722 632L724 634L722 632z"/>
<path style="fill:#f4f4f4; stroke:none;" d="M727 632L728 633L727 632z"/>
<path style="fill:#f8f8f8; stroke:none;" d="M742 632L743 633L742 632z"/>
<path style="fill:#fdfcfd; stroke:none;" d="M667 633L668 634L667 633z"/>
<path style="fill:#f8f8f8; stroke:none;" d="M670 633L671 634L670 633z"/>
<path style="fill:#fdfcfd; stroke:none;" d="M716 633L717 634L716 633M725 633L728 635L728 634L725 633M740 633L741 634L740 633M742 633L743 634L742 633z"/>
<path style="fill:#f4f4f4; stroke:none;" d="M669.667 634.333L670.333 634.667L669.667 634.333z"/>
<path style="fill:#fdfcfd; stroke:none;" d="M671 634L672 635L671 634M724 634L725 635L724 634M725 635L726 636L725 635z"/>
<path style="fill:#f8f8f8; stroke:none;" d="M671.667 636.333L672.333 636.667L671.667 636.333z"/>
<path style="fill:#fdfcfd; stroke:none;" d="M673.333 636.667L673.667 637.333L673.333 636.667M709 636L709 639L712 636L709 636M729 638L732 638L730 636L729 638z"/>
<path style="fill:#f8f8f8; stroke:none;" d="M735 636L736 637L735 636z"/>
<path style="fill:#fdfcfd; stroke:none;" d="M675 637L676 640L675 637z"/>
<path style="fill:#f8f8f8; stroke:none;" d="M740 637L741 638L740 637z"/>
<path style="fill:#fdfcfd; stroke:none;" d="M708 639L709 640L708 639M685 640L686 641L685 640M696.667 640.333L697.333 640.667L696.667 640.333z"/>
<path style="fill:#f8f8f8; stroke:none;" d="M703.667 640.333L704.333 640.667L703.667 640.333z"/>
<path style="fill:#fdfcfd; stroke:none;" d="M705.667 640.333L706.333 640.667L705.667 640.333M684 642L685 643L684 642M678 644L680 646L678 644z"/>
<path style="fill:#f8f8f8; stroke:none;" d="M681 644L682 645L681 644M680 645L681 646L680 645z"/>
</svg>
