<?xml version="1.0" standalone="yes"?>
<svg xmlns="http://www.w3.org/2000/svg" width="1231" height="874">
<path style="fill:#010101; stroke:none;" d="M0 0L0 874L1231 874L1231 0L0 0z"/>
<path style="fill:#ffffff; stroke:none;" d="M690 459L688 469L687 469L687 467L686 467L686 475L685 475L685 473L684 473L684 479L685 479L687 475L688 478C682.513 482.041 681.573 493.546 681 500L679 498C676.39 502.784 672.809 511.89 680 514C679.911 519.567 685.952 522.978 691 524L689 505L696 505L696 503L698 504L698 502L699 502L700 503L701 501L700 468L702 463L690 459z"/>
<path style="fill:#fcfbfc; stroke:none;" d="M691 459L696 461L696 460L691 459z"/>
<path style="fill:#ffffff; stroke:none;" d="M693 459L694 460L693 459z"/>
<path style="fill:#f6f6f6; stroke:none;" d="M696 461L697 462L696 461z"/>
<path style="fill:#fcfbfc; stroke:none;" d="M697 461L698 462L697 461M689 462L690 463L689 462M691 462L692 463L691 462M688 463L689 464L688 463M697 463L698 464L697 463M700 463L701 464L700 463M687 464L688 465L687 464M687 466L687 469L688 469L687 466M700.333 468.667L700.667 469.333L700.333 468.667M687 470L686 472L687 470M700.333 471.667L700.667 472.333L700.333 471.667M685 472L685 475L686 475L685 472M687.333 473.667L687.667 474.333L687.333 473.667M686 475L684 483L685 483L686 475M695 476L697 478L695 476M699 476L700 477L699 476M698 477L699 478L698 477M697 480L698 481L697 480M683 487L684 488L683 487M696 490L697 491L696 490M698 490L699 491L698 490M682 491L683 492L682 491z"/>
<path style="fill:#f6f6f6; stroke:none;" d="M698 491L699 492L698 491z"/>
<path style="fill:#fcfbfc; stroke:none;" d="M683 492L682 494L684 494L683 492M698.333 492.667L698.667 493.333L698.333 492.667M681 494L682 495L681 494M680 495L680 500L681 500L680 495M682 495L683 496L682 495M678.333 498.667L678.667 499.333L678.333 498.667M700 499L701 500L700 499M679 500L679 504L680 504L679 500M696.333 500.667L696.667 501.333L696.333 500.667M698 500L699 501L698 500z"/>
<path style="fill:#f6f6f6; stroke:none;" d="M697 501L698 502L697 501z"/>
<path style="fill:#fcfbfc; stroke:none;" d="M699.667 501.333L700.333 501.667L699.667 501.333M698 502L699 503L698 502z"/>
<path style="fill:#f1f1f1; stroke:none;" d="M696 503L697 504L696 503z"/>
<path style="fill:#fcfbfc; stroke:none;" d="M694 504L695 505L694 504z"/>
<path style="fill:#f6f6f6; stroke:none;" d="M689 505L691 507L689 505z"/>
<path style="fill:#fcfbfc; stroke:none;" d="M690 505L691 506L690 505M693 505L694 506L693 505M689 506L690 507L689 506M691 506L692 507L691 506M690 507L691 508L690 507M688 509L689 510L688 509M678 513L678 516L680 515L680 514L678 513M680 516L680 517L683 519L684 519L680 516M689 516L689 520L690 520L689 516z"/>
<path style="fill:#f6f6f6; stroke:none;" d="M682 517L683 518L682 517z"/>
<path style="fill:#fcfbfc; stroke:none;" d="M684 520L685 521L684 520M686 520L686 521L690 523L690 522L686 520M687 523L688 524L687 523M689 524L690 526L691 526L692 524L689 524z"/>
<path style="fill:#ffffff; stroke:none;" d="M691.333 525.667L691.667 526.333L691.333 525.667z"/>
</svg>
