<?xml version="1.0" standalone="yes"?>
<svg xmlns="http://www.w3.org/2000/svg" width="1231" height="874">
<path style="fill:#010101; stroke:none;" d="M0 0L0 874L1231 874L1231 0L0 0z"/>
<path style="fill:#ffffff; stroke:none;" d="M697 671L697 676L696 677L686 680L686 678L679 682L674 684C667.666 683.384 665.495 689.546 665 695L676 696L682 702L684 704L705 702L704 696L705 696L705 700L706 700L705 680L702 676L701 679L700 679L697 671z"/>
<path style="fill:#fcfbfc; stroke:none;" d="M698 671L699 672L698 671M699 672L700 673L699 672M697 674L698 675L697 674M699 674L700 675L699 674z"/>
<path style="fill:#f7f7f7; stroke:none;" d="M700 674L701 675L700 674z"/>
<path style="fill:#fcfbfc; stroke:none;" d="M696 675L697 676L696 675z"/>
<path style="fill:#f9f9f9; stroke:none;" d="M700 675L700 678L701 678L700 675z"/>
<path style="fill:#fcfbfc; stroke:none;" d="M695 676L696 677L695 676M694 677L692 680L696 681L694 677M686 678L686 680L688 678L686 678M700 678L701 679L700 678M702 678L703 679L702 678M682.667 679.333L683.333 679.667L682.667 679.333M701 679L702 680L701 679M703 679L704 680L703 679M678 681L679 682L678 681M704 681L705 682L704 681M679 684L684 682L679 684M673 683L674 684L673 683M677 683L678 684L677 683z"/>
<path style="fill:#f9f9f9; stroke:none;" d="M704 683L705 684L704 683z"/>
<path style="fill:#fcfbfc; stroke:none;" d="M704 684L705 685L704 684M670 685L669 687L670 685M667.333 686.667L667.667 687.333L667.333 686.667z"/>
<path style="fill:#f7f7f7; stroke:none;" d="M671 687L672 688L671 687z"/>
<path style="fill:#fcfbfc; stroke:none;" d="M704.333 690.667L704.667 691.333L704.333 690.667M666 692L667 693L666 692z"/>
<path style="fill:#f7f7f7; stroke:none;" d="M671 692L672 693L671 692z"/>
<path style="fill:#fcfbfc; stroke:none;" d="M669 693L671 695L669 693z"/>
<path style="fill:#f9f9f9; stroke:none;" d="M675 696L676 697L675 696z"/>
<path style="fill:#fcfbfc; stroke:none;" d="M678 696L681 698L681 697L678 696M704 696L706 701L704 696M678 698L679 699L678 698M679 699L680 700L679 699M680 700L680 701L683 701L680 700M689 700L689 703L692 700L689 700M701.333 700.667L701.667 701.333L701.333 700.667M683.333 701.667L683.667 702.333L683.333 701.667z"/>
<path style="fill:#f9f9f9; stroke:none;" d="M700 702L701 703L700 702z"/>
<path style="fill:#fcfbfc; stroke:none;" d="M688 703L689 704L688 703z"/>
</svg>
