<?xml version="1.0" standalone="yes"?>
<svg xmlns="http://www.w3.org/2000/svg" width="1231" height="874">
<path style="fill:#010101; stroke:none;" d="M0 0L0 874L1231 874L1231 0L0 0z"/>
<path style="fill:#ffffff; stroke:none;" d="M467 391L457 394C457.006 403.476 462.181 409.971 463.674 419C464.732 425.394 461.99 431.632 463.789 438C466.877 448.932 472.98 458.21 469.201 470C465.139 482.671 449.606 487.906 444 500C457.977 505.694 465.079 494.384 472.193 483C484.497 463.312 492.697 442.873 482 420L493 421C489.743 407.132 478.133 398.332 467 391z"/>
</svg>
