<?xml version="1.0" standalone="yes"?>
<svg xmlns="http://www.w3.org/2000/svg" width="1231" height="874">
<path style="fill:#010101; stroke:none;" d="M0 0L0 874L1231 874L1231 0L0 0z"/>
<path style="fill:#ffffff; stroke:none;" d="M686 295L687 299L686 299L685 297L682 304L680 302L671 302L672 311L666 314L672.594 339.961L672.568 353.203L689 354C692.381 358.425 697.584 356.057 698.725 350.985C701.4 339.099 707.442 329.113 706 316L710 308L714 304L703 300L698 290L686 295z"/>
<path style="fill:#fbfafb; stroke:none;" d="M695 289L697 291L697 289L695 289M697 291L697 292L700 292L697 291M689 292L690 293L689 292M688 293L689 294L688 293M701 295L702 296L701 295M686 296L686 299L687 299L686 296M700 296L703 299L700 296z"/>
<path style="fill:#f7f7f7; stroke:none;" d="M687 299L688 300L687 299z"/>
<path style="fill:#fbfafb; stroke:none;" d="M703 299L704 300L703 299z"/>
<path style="fill:#f7f7f7; stroke:none;" d="M704 299L705 300L704 299z"/>
<path style="fill:#fbfafb; stroke:none;" d="M682 300L683 301L682 300M706 300L707 301L706 300M683 301L682 303L683 301M680 302L680 304L682 304L680 302M713 302L714 303L713 302M671 303L672 304L671 303z"/>
<path style="fill:#f7f7f7; stroke:none;" d="M675 303L676 304L675 303z"/>
<path style="fill:#fbfafb; stroke:none;" d="M712 304L713 305L712 304M710 308L711 309L710 308M708 309L709 310L708 309M671 310L672 311L671 310M670 313L669 315L670 313M708 313L709 314L708 313M706 316L707 317L706 316M704 317L705 318L704 317z"/>
<path style="fill:#f7f7f7; stroke:none;" d="M671 320L672 321L671 320z"/>
<path style="fill:#fbfafb; stroke:none;" d="M669 321L670 322L669 321M670 324L671 325L670 324M704 325L705 326L704 325M671 332L672 333L671 332M704 332L705 333L704 332M675 336L676 337L675 336M673 343L676 343L676 340L673 343M700 341L701 342L700 341M672 343L673 344L672 343M696 344L696 350L697 350L696 344M671 347L672 348L671 347M674 352L675 353L674 352z"/>
<path style="fill:#f2f2f2; stroke:none;" d="M688 352L689 353L688 352z"/>
<path style="fill:#fbfafb; stroke:none;" d="M676 353L677 354L676 353M678 353L679 354L678 353z"/>
<path style="fill:#f7f7f7; stroke:none;" d="M675 354L676 355L675 354z"/>
<path style="fill:#fbfafb; stroke:none;" d="M688 354L689 355L688 354M690.667 354.333L691.333 354.667L690.667 354.333z"/>
<path style="fill:#f7f7f7; stroke:none;" d="M690 356L691 357L690 356z"/>
<path style="fill:#fbfafb; stroke:none;" d="M691 356L692 357L691 356M693 356L692 358L694 358L693 356z"/>
<path style="fill:#f2f2f2; stroke:none;" d="M695 356L696 357L695 356z"/>
</svg>
