<?xml version="1.0" standalone="yes"?>
<svg xmlns="http://www.w3.org/2000/svg" width="1231" height="874">
<path style="fill:#010101; stroke:none;" d="M0 0L0 874L1231 874L1231 0L0 0z"/>
<path style="fill:#f9f9f9; stroke:none;" d="M573 490L574 491L573 490z"/>
<path style="fill:#ffffff; stroke:none;" d="M566 501L555 502C555.578 513.597 545.178 512.687 537 511L536 523L541 531L543 530L543 531C542.954 535.427 544.208 544.542 548 547L552 552L551 555L552 557L558 553L556 549L557 548C561.943 549.759 562.814 547.072 566 544C567.133 533.715 601.64 535.852 588.111 520.059C586.553 518.24 585.065 517.103 583 516L583 513L581 515L582 502L581 500L583 496L586 491L585 490C577.311 491.249 567.684 491.181 566 501z"/>
<path style="fill:#fcfcfc; stroke:none;" d="M580 490L580 491L584 491L580 490M585 490L586 491L585 490M575 491L576 492L575 491M577 491L578 492L577 491z"/>
<path style="fill:#f9f9f9; stroke:none;" d="M585 492L586 493L585 492z"/>
<path style="fill:#fcfcfc; stroke:none;" d="M585 493L586 494L585 493M570 494L571 495L570 494M583 496L584 497L583 496M580 497L581 498L580 497z"/>
<path style="fill:#f9f9f9; stroke:none;" d="M563 500L564 501L563 500z"/>
<path style="fill:#fcfcfc; stroke:none;" d="M564.667 500.333L565.333 500.667L564.667 500.333z"/>
<path style="fill:#f9f9f9; stroke:none;" d="M581 500L582 501L581 500z"/>
<path style="fill:#fcfcfc; stroke:none;" d="M562 501L563 502L562 501M563 502L564 503L563 502M580 502L581 503L580 502M555 503L556 504L555 503M561 503L562 504L561 503z"/>
<path style="fill:#f4f4f4; stroke:none;" d="M580 503L581 504L580 503z"/>
<path style="fill:#f9f9f9; stroke:none;" d="M555 509L556 510L555 509z"/>
<path style="fill:#fcfcfc; stroke:none;" d="M554 510L554 512L556 512L556 510L554 510z"/>
<path style="fill:#f9f9f9; stroke:none;" d="M551 511L552 512L551 511M553 511L554 512L553 511z"/>
<path style="fill:#fcfcfc; stroke:none;" d="M581 511L581 515L582 515L581 511M538 513L537 515L538 513M550 513L549 515L550 513M542 514L543 515L542 514M536.333 515.667L536.667 516.333L536.333 515.667M540.333 515.667L540.667 516.333L540.333 515.667z"/>
<path style="fill:#f9f9f9; stroke:none;" d="M551 515L552 516L551 515z"/>
<path style="fill:#fcfcfc; stroke:none;" d="M583 515L584 516L583 515M538 518L539 519L538 518z"/>
<path style="fill:#f9f9f9; stroke:none;" d="M586 518L587 519L586 518z"/>
<path style="fill:#fcfcfc; stroke:none;" d="M538 522L539 523L538 522z"/>
<path style="fill:#f9f9f9; stroke:none;" d="M588 522L590 524L588 522z"/>
<path style="fill:#f4f4f4; stroke:none;" d="M588 524L589 525L588 524z"/>
<path style="fill:#fcfcfc; stroke:none;" d="M590.333 524.667L590.667 525.333L590.333 524.667z"/>
<path style="fill:#f9f9f9; stroke:none;" d="M592 524L593 525L592 524z"/>
<path style="fill:#fcfcfc; stroke:none;" d="M592 525L593 526L592 525M539 526L540 527L539 526M589 526L590 527L589 526M591 526L592 527L591 526M542 527L544 530L542 527M590.333 527.667L590.667 528.333L590.333 527.667M541 529L542 530L541 529z"/>
<path style="fill:#f9f9f9; stroke:none;" d="M589 529L590 530L589 529M542 530L543 531L542 530z"/>
<path style="fill:#fcfcfc; stroke:none;" d="M542 531L543 532L542 531M580 532L580 533L584 533L580 532z"/>
<path style="fill:#f9f9f9; stroke:none;" d="M585 532L586 533L585 532z"/>
<path style="fill:#fcfcfc; stroke:none;" d="M547 536L548 537L547 536z"/>
<path style="fill:#f9f9f9; stroke:none;" d="M564 536L565 537L564 536M572 536L573 537L572 536z"/>
<path style="fill:#fcfcfc; stroke:none;" d="M547 538L548 539L547 538z"/>
<path style="fill:#f9f9f9; stroke:none;" d="M568 538L569 539L568 538z"/>
<path style="fill:#fcfcfc; stroke:none;" d="M546 544L548 546L548 544L546 544M564 544L566 546L566 544L564 544z"/>
<path style="fill:#f9f9f9; stroke:none;" d="M546 545L547 546L546 545z"/>
<path style="fill:#fcfcfc; stroke:none;" d="M564 546L565 547L564 546M547 547L548 548L547 547M549 547L552 551L552 550L552 549L549 547z"/>
<path style="fill:#f4f4f4; stroke:none;" d="M550 548L551 549L550 548z"/>
<path style="fill:#fcfcfc; stroke:none;" d="M557 548L556 549L559 552L560 551L557 548z"/>
<path style="fill:#f9f9f9; stroke:none;" d="M562 548L563 549L562 548M550 549L551 550L550 549z"/>
<path style="fill:#f4f4f4; stroke:none;" d="M557 549L559 551L557 549z"/>
<path style="fill:#f9f9f9; stroke:none;" d="M560 549L561 550L560 549z"/>
<path style="fill:#fcfcfc; stroke:none;" d="M561 549L562 550L561 549z"/>
<path style="fill:#f9f9f9; stroke:none;" d="M550 552L551 553L550 552z"/>
<path style="fill:#fcfcfc; stroke:none;" d="M551 552L552 553L551 552M555 552L553 555L555 552M550 553L551 554L550 553z"/>
<path style="fill:#f9f9f9; stroke:none;" d="M556 553L557 554L556 553z"/>
<path style="fill:#fcfcfc; stroke:none;" d="M555 554L556 555L555 554M552 555L553 556L552 555M554 555L555 556L554 555z"/>
</svg>
