<?xml version="1.0" standalone="yes"?>
<svg xmlns="http://www.w3.org/2000/svg" width="1231" height="874">
<path style="fill:#010101; stroke:none;" d="M0 0L0 874L1231 874L1231 0L0 0z"/>
<path style="fill:#f6f6f6; stroke:none;" d="M980 487L981 488L980 487z"/>
<path style="fill:#ffffff; stroke:none;" d="M949 489C951.215 497.18 949.72 499.072 945 506L958 510L957 537C960.863 534.979 962.239 532.333 962 528C971.352 524.027 974.723 512.448 979 504L980 504C982.457 507.294 992.419 504.911 993 501L1000 501L982 487L956.325 493.72L949 489z"/>
<path style="fill:#f6f6f6; stroke:none;" d="M975 489L976 490L975 489M979.667 491.333L980.333 491.667L979.667 491.333M953 492L954 493L953 492M954 493L955 494L954 493M955 494L956 495L955 494M951 496L952 497L951 496M951 499L952 500L951 499M997 499L998 500L997 499M999 499L1000 500L999 499M993 501L995 503L995 501L993 501M996 501L997 502L996 501M950.667 503.333L951.333 503.667L950.667 503.333M948 504L949 505L948 504M979.333 504.667L979.667 505.333L979.333 504.667M972 508L972 511L973 511L972 508M956 515L957 516L956 515M972 516L973 517L972 516M968 524L969 525L968 524M964 526L965 527L964 526M955 527L956 528L955 527M962 528L963 529L962 528z"/>
<path style="fill:#010915; stroke:none;" d="M391.667 597.333L392.333 597.667L391.667 597.333z"/>
<path style="fill:#010c23; stroke:none;" d="M400 600L401 601L400 600M387 601L388 602L387 601M401 602L402 603L401 602z"/>
<path style="fill:#010915; stroke:none;" d="M401 603L402 604L401 603z"/>
<path style="fill:#010c23; stroke:none;" d="M386 604L387 605L386 604M401 605L402 606L401 605M386 607L387 608L386 607z"/>
<path style="fill:#010915; stroke:none;" d="M386 608L387 609L386 608z"/>
<path style="fill:#010c23; stroke:none;" d="M387 609L388 610L387 609M388 610L389 611L388 610M397 610L398 611L397 610M389 611L390 612L389 611M395 611L396 612L395 611M391 612L392 613L391 612z"/>
</svg>
