<?xml version="1.0" standalone="yes"?>
<svg xmlns="http://www.w3.org/2000/svg" width="1231" height="874">
<path style="fill:#010101; stroke:none;" d="M0 0L0 874L1231 874L1231 0L0 0z"/>
<path style="fill:#ffffff; stroke:none;" d="M577 216L574 209L573 209L574 212L572 211L576 217L579 221L580 225L581 224L579 223L579 222L583 223L582 220L594 216L594 214C598.458 215.206 604.19 216.147 606 211L599 208L595 208C595.238 199.41 585.808 178.881 577.012 193.58C572.297 201.461 575.265 208.018 577 216z"/>
<path style="fill:#fdfcfd; stroke:none;" d="M583.667 188.333L584.333 188.667L583.667 188.333z"/>
<path style="fill:#f9f9f9; stroke:none;" d="M588 188L589 189L588 188z"/>
<path style="fill:#fdfcfd; stroke:none;" d="M582 189L583 190L582 189z"/>
<path style="fill:#f9f9f9; stroke:none;" d="M582 190L583 191L582 190M579 191L580 192L579 191z"/>
<path style="fill:#fdfcfd; stroke:none;" d="M588 192L589 193L588 192z"/>
<path style="fill:#f9f9f9; stroke:none;" d="M578 193L579 194L578 193z"/>
<path style="fill:#fdfcfd; stroke:none;" d="M577 194L577 197C579.006 195.873 579.006 195.127 577 194z"/>
<path style="fill:#f9f9f9; stroke:none;" d="M588 194L589 195L588 194z"/>
<path style="fill:#f4f4f4; stroke:none;" d="M592 196L593 197L592 196z"/>
<path style="fill:#fdfcfd; stroke:none;" d="M575 197L575 199L577 197L575 197M592 198L593 199L592 198z"/>
<path style="fill:#f9f9f9; stroke:none;" d="M575 199L576 200L575 199z"/>
<path style="fill:#fdfcfd; stroke:none;" d="M575 202L576 203L575 202M592 204L593 205L592 204z"/>
<path style="fill:#f9f9f9; stroke:none;" d="M574 205L575 206L574 205z"/>
<path style="fill:#fdfcfd; stroke:none;" d="M575 205L576 206L575 205M574 206L575 207L574 206M592 206L593 207L592 206M594 206L595 207L594 206z"/>
<path style="fill:#f9f9f9; stroke:none;" d="M573 207L574 208L573 207z"/>
<path style="fill:#fdfcfd; stroke:none;" d="M595.667 207.333L596.333 207.667L595.667 207.333M573 208L575 210L575 208L573 208M597 208L598 209L597 208z"/>
<path style="fill:#f9f9f9; stroke:none;" d="M575 209L575 212L576 212L575 209M598 209L599 210L598 209z"/>
<path style="fill:#fdfcfd; stroke:none;" d="M599 209L599 210L605 210L599 209z"/>
<path style="fill:#f9f9f9; stroke:none;" d="M605 209L604 212L605 209z"/>
<path style="fill:#fdfcfd; stroke:none;" d="M573.333 210.667L573.667 211.333L573.333 210.667M596 210L597 211L596 210z"/>
<path style="fill:#f9f9f9; stroke:none;" d="M599 211L600 212L599 211z"/>
<path style="fill:#fdfcfd; stroke:none;" d="M575 212L577 216L575 212M597.667 212.333L598.333 212.667L597.667 212.333M592 213L593 214L592 213z"/>
<path style="fill:#f9f9f9; stroke:none;" d="M593 213L594 214L593 213z"/>
<path style="fill:#fdfcfd; stroke:none;" d="M594 214L595 215L594 214M596 214L597 215L596 214z"/>
<path style="fill:#f4f4f4; stroke:none;" d="M592 215L593 216L592 215z"/>
<path style="fill:#f9f9f9; stroke:none;" d="M574 216L576 218L574 216M584 216L585 217L584 216z"/>
<path style="fill:#fdfcfd; stroke:none;" d="M590 216L591 217L590 216M574 217L575 218L574 217M580 220L581 221L580 220M582 220L585 222L585 221L582 220M585 220L586 221L585 220M577 221L578 222L577 221z"/>
<path style="fill:#f9f9f9; stroke:none;" d="M578 221L579 222L578 221M579 222L580 223L579 222z"/>
<path style="fill:#fdfcfd; stroke:none;" d="M580 222L582 224L582 222L580 222z"/>
<path style="fill:#f9f9f9; stroke:none;" d="M578 223L579 224L578 223z"/>
</svg>
