<?xml version="1.0" standalone="yes"?>
<svg xmlns="http://www.w3.org/2000/svg" width="1231" height="874">
<path style="fill:#010101; stroke:none;" d="M0 0L0 874L1231 874L1231 0L0 0z"/>
<path style="fill:#fdfcfd; stroke:none;" d="M584 121L584 122L589 123L584 121z"/>
<path style="fill:#ffffff; stroke:none;" d="M589 123C583.492 121.39 581.569 123.505 577 126L577 127L582 134L577 157L577 158L589.424 150.804L608 150L609 155L612 155L616 149L617 151L618 151L612 145C612.622 141.764 603.681 128.557 602 131L601 131L600 125L597 126C595.779 123.884 589.71 118.994 589 123z"/>
<path style="fill:#f8f8f8; stroke:none;" d="M584 123L584 124L588 124L584 123z"/>
<path style="fill:#fdfcfd; stroke:none;" d="M579 125L580 126L579 125M597 125L598 126L597 125M600 126L601 127L600 126M577.667 127.333L578.333 127.667L577.667 127.333z"/>
<path style="fill:#f8f8f8; stroke:none;" d="M596 127L597 128L596 127z"/>
<path style="fill:#fdfcfd; stroke:none;" d="M597.667 127.333L598.333 127.667L597.667 127.333M601 127L601 131L602 131L601 127z"/>
<path style="fill:#f8f8f8; stroke:none;" d="M579 129L580 130L579 129z"/>
<path style="fill:#fdfcfd; stroke:none;" d="M578 130L579 131L578 130M579 131L580 132L579 131z"/>
<path style="fill:#f8f8f8; stroke:none;" d="M580 132L581 133L580 132z"/>
<path style="fill:#fdfcfd; stroke:none;" d="M583 133L584 134L583 133z"/>
<path style="fill:#f8f8f8; stroke:none;" d="M604 133L605 134L604 133z"/>
<path style="fill:#fdfcfd; stroke:none;" d="M581 134L582 135L581 134M606 134L607 135L606 134z"/>
<path style="fill:#f3f3f3; stroke:none;" d="M581 135L582 136L581 135z"/>
<path style="fill:#fdfcfd; stroke:none;" d="M605 135L606 136L605 135z"/>
<path style="fill:#f8f8f8; stroke:none;" d="M608 137L609 138L608 137z"/>
<path style="fill:#fdfcfd; stroke:none;" d="M609.333 138.667L609.667 139.333L609.333 138.667z"/>
<path style="fill:#f8f8f8; stroke:none;" d="M579 139L580 140L579 139z"/>
<path style="fill:#fdfcfd; stroke:none;" d="M608 140L610 145L611 145L608 140M578 143L579 144L578 143z"/>
<path style="fill:#f8f8f8; stroke:none;" d="M608 143L609 144L608 143z"/>
<path style="fill:#fdfcfd; stroke:none;" d="M577 144L578 157L579 157L577 144M612 144L613 145L612 144z"/>
<path style="fill:#f8f8f8; stroke:none;" d="M613 144L614 145L613 144z"/>
<path style="fill:#fdfcfd; stroke:none;" d="M614 145L615 146L614 145z"/>
<path style="fill:#f8f8f8; stroke:none;" d="M612 146L612 148L614 148L612 146M615 146L616 147L615 146z"/>
<path style="fill:#fdfcfd; stroke:none;" d="M615 147L616 148L615 147z"/>
<path style="fill:#f8f8f8; stroke:none;" d="M584 148L585 149L584 148z"/>
<path style="fill:#fdfcfd; stroke:none;" d="M593 148L593 149L605 149L593 148z"/>
<path style="fill:#f8f8f8; stroke:none;" d="M606 148L607 149L606 148z"/>
<path style="fill:#fdfcfd; stroke:none;" d="M607 148L608 149L607 148M586 149L585 151L586 149M612 149L611 153L612 149z"/>
<path style="fill:#f8f8f8; stroke:none;" d="M613 149L614 150L613 149z"/>
<path style="fill:#fdfcfd; stroke:none;" d="M616 149L617 150L616 149M588 150L589 151L588 150z"/>
<path style="fill:#f8f8f8; stroke:none;" d="M607 150L608 151L607 150M614 150L615 151L614 150M616.333 150.667L616.667 151.333L616.333 150.667M618 150L619 151L618 150z"/>
<path style="fill:#fdfcfd; stroke:none;" d="M617.667 151.333L618.333 151.667L617.667 151.333M580 152L581 153L580 152z"/>
<path style="fill:#f8f8f8; stroke:none;" d="M610 154L611 155L610 154z"/>
<path style="fill:#fdfcfd; stroke:none;" d="M610 155L611 156L610 155z"/>
<path style="fill:#f8f8f8; stroke:none;" d="M577 156L578 157L577 156z"/>
</svg>
