<?xml version="1.0" standalone="yes"?>
<svg xmlns="http://www.w3.org/2000/svg" width="1231" height="874">
<path style="fill:#010101; stroke:none;" d="M0 0L0 874L1231 874L1231 0L0 0z"/>
<path style="fill:#ffffff; stroke:none;" d="M642 459L636 467L636 468C640.121 472.595 645.645 483.113 639 488C638.107 494.684 627.534 495.701 622 496L622 498L619 499C615.292 498.283 610.76 496.342 607.129 496.131C599.485 495.687 595.606 502.468 591 491L588 491L589 495L589 496L586 500C580.272 504.076 583.081 509.974 586 515L587 515L587 512L588 512C588.127 515.902 588.599 517.915 592 520L592 516L596 512L600 512L614 512L614 510L620 506L624 506L634 518C637.478 518 642.309 528.558 646.833 524.667C650.242 521.735 647.358 512.687 647 509C645.971 498.412 649.274 486.997 648.5 476C648.075 469.963 651.439 465.922 644 463L642 459z"/>
<path style="fill:#fbfafb; stroke:none;" d="M641 461L642 462L641 461M642.333 462.667L642.667 463.333L642.333 462.667M644 462L645 463L644 462M639 463L640 464L639 463M638 464L639 465L638 464M644 464L645 465L644 464M646 464L646 466L648 466L646 464M637 465L638 466L637 465M639 465L640 466L639 465M636 466L637 467L636 466M637 467L640 470L637 467M647 467L648 468L647 467M642 472L642 474L644 474L642 472M648 472L649 473L648 472M643 482L644 483L643 482M641 483L642 484L641 483M642 485L643 486L642 485M640 486L642 488L642 486L640 486z"/>
<path style="fill:#f7f7f7; stroke:none;" d="M640 487L641 488L640 487z"/>
<path style="fill:#ffffff; stroke:none;" d="M588 489L589 490L588 489z"/>
<path style="fill:#fbfafb; stroke:none;" d="M639 489L640 490L639 489M588 490L590 492L590 490L588 490M638 490L639 491L638 490z"/>
<path style="fill:#f7f7f7; stroke:none;" d="M638 491L639 492L638 491z"/>
<path style="fill:#fbfafb; stroke:none;" d="M587 495L588 496L587 495z"/>
<path style="fill:#f7f7f7; stroke:none;" d="M588 495L589 496L588 495z"/>
<path style="fill:#fbfafb; stroke:none;" d="M592 495L593 496L592 495M627 495L628 496L627 495z"/>
<path style="fill:#f7f7f7; stroke:none;" d="M639 495L640 496L639 495z"/>
<path style="fill:#f3f3f3; stroke:none;" d="M623 496L624 497L623 496z"/>
<path style="fill:#fbfafb; stroke:none;" d="M624 496L625 497L624 496M648 496L649 497L648 496M603 497L600 499L600 500L603 497M608 497L608 501L609 501L608 497M618.333 497.667L618.667 498.333L618.333 497.667M621 497L622 498L621 497z"/>
<path style="fill:#f7f7f7; stroke:none;" d="M593 498L594 499L593 498z"/>
<path style="fill:#fbfafb; stroke:none;" d="M595 498L596 499L595 498z"/>
<path style="fill:#ffffff; stroke:none;" d="M601 498L602 499L601 498z"/>
<path style="fill:#fbfafb; stroke:none;" d="M622 498L623 499L622 498M585 499L586 500L585 499M593.667 499.333L594.333 499.667L593.667 499.333z"/>
<path style="fill:#f7f7f7; stroke:none;" d="M599 499L600 500L599 499z"/>
<path style="fill:#f3f3f3; stroke:none;" d="M609 499L610 500L609 499z"/>
<path style="fill:#fbfafb; stroke:none;" d="M617 499L618 500L617 499z"/>
<path style="fill:#f7f7f7; stroke:none;" d="M644 500L645 501L644 500z"/>
<path style="fill:#fbfafb; stroke:none;" d="M583 502L584 503L583 502M621 504L622 505L621 504z"/>
<path style="fill:#f3f3f3; stroke:none;" d="M623 506L624 507L623 506z"/>
<path style="fill:#fbfafb; stroke:none;" d="M625 508L626 509L625 508z"/>
<path style="fill:#f7f7f7; stroke:none;" d="M613 509L614 510L613 509z"/>
<path style="fill:#fbfafb; stroke:none;" d="M614 510L615 511L614 510M627 510L628 511L627 510z"/>
<path style="fill:#f3f3f3; stroke:none;" d="M612 511L613 512L612 511z"/>
<path style="fill:#fbfafb; stroke:none;" d="M587 512L587 516L588 516L587 512M593 512L594 513L593 512M595 512L596 513L595 512M609 513L610 514L609 513M631 513L632 514L631 513M589 516L590 517L589 516M592 516L593 517L592 516M632 516L632 517L635 517L632 516M635.333 517.667L635.667 518.333L635.333 517.667M591 518L592 519L591 518M590 519L591 520L590 519z"/>
<path style="fill:#f7f7f7; stroke:none;" d="M591 520L592 521L591 520z"/>
<path style="fill:#fbfafb; stroke:none;" d="M640 520L644 524L643 520L640 520M647 524L648 525L647 524z"/>
</svg>
