<?xml version="1.0" standalone="yes"?>
<svg xmlns="http://www.w3.org/2000/svg" width="1231" height="874">
<path style="fill:#010101; stroke:none;" d="M0 0L0 874L1231 874L1231 0L0 0z"/>
<path style="fill:#fbfafb; stroke:none;" d="M582 352L583 353L582 352z"/>
<path style="fill:#ffffff; stroke:none;" d="M583 352C576.065 357.598 571.671 357.397 571 367L573 364L574 364L575 366C587.664 360.91 576.905 391.693 577 396L575 404L581 407C591.776 404.776 588.388 419.109 592 426L600 411L602 412L600 407L607 405C606.299 400.565 604.353 398.889 600 398L605 390L614 394L614 390C621.486 388.146 623.828 392.98 630 396L632 393L636 394L641 398L640 395L642 399L648 401C648.464 392.885 632.22 386.151 625 386L622 384L609 369L608 355L606 355L608 374L600 374L598 378C598 382.006 590.532 383.907 587 384C588.06 375.031 590.202 358.562 583 352z"/>
<path style="fill:#fbfafb; stroke:none;" d="M584 353L585 354L584 353M580 354L581 355L580 354M582 354L583 355L582 354M585 354L586 355L585 354z"/>
<path style="fill:#f7f7f7; stroke:none;" d="M586 354L587 355L586 354z"/>
<path style="fill:#fbfafb; stroke:none;" d="M574 358L575 359L574 358M608 359L609 360L608 359M573 364L574 365L573 364M576 364L577 365L576 364M582 367L585 364L582 367M586.333 364.667L586.667 365.333L586.333 364.667M571 365L572 366L571 365z"/>
<path style="fill:#f2f2f2; stroke:none;" d="M573 365L574 366L573 365z"/>
<path style="fill:#fbfafb; stroke:none;" d="M573 366L574 367L573 366z"/>
<path style="fill:#f7f7f7; stroke:none;" d="M583 366L584 367L583 366z"/>
<path style="fill:#fbfafb; stroke:none;" d="M581 367L582 368L581 367M582 368L583 369L582 368z"/>
<path style="fill:#f2f2f2; stroke:none;" d="M609 368L610 369L609 368z"/>
<path style="fill:#fbfafb; stroke:none;" d="M582 370L583 371L582 370M609 371L610 372L609 371M609 373L611 375L609 373z"/>
<path style="fill:#f7f7f7; stroke:none;" d="M610 373L611 374L610 373M609 374L610 375L609 374z"/>
<path style="fill:#fbfafb; stroke:none;" d="M599 375L599 379L600 379L599 375M584 376L584 381L585 381L584 376M612 377L615 380L612 377z"/>
<path style="fill:#f7f7f7; stroke:none;" d="M613 377L614 378L613 377M614 378L615 379L614 378z"/>
<path style="fill:#fbfafb; stroke:none;" d="M597.667 379.333L598.333 379.667L597.667 379.333z"/>
<path style="fill:#f7f7f7; stroke:none;" d="M617 379L618 380L617 379z"/>
<path style="fill:#fbfafb; stroke:none;" d="M618 379L619 380L618 379M595 381L596 382L595 381M582 382L583 383L582 382M584 382L585 383L584 382M622.333 382.667L622.667 383.333L622.333 382.667M587 383L588 384L587 383z"/>
<path style="fill:#f7f7f7; stroke:none;" d="M624 383L625 384L624 383z"/>
<path style="fill:#f2f2f2; stroke:none;" d="M624 384L625 385L624 384z"/>
<path style="fill:#fbfafb; stroke:none;" d="M625.333 384.667L625.667 385.333L625.333 384.667z"/>
<path style="fill:#f7f7f7; stroke:none;" d="M627 385L628 386L627 385M579 386L580 387L579 386z"/>
<path style="fill:#fbfafb; stroke:none;" d="M624 386L625 387L624 386M626 386L627 387L626 386z"/>
<path style="fill:#f7f7f7; stroke:none;" d="M604 388L605 389L604 388z"/>
<path style="fill:#fbfafb; stroke:none;" d="M605.667 388.333L606.333 388.667L605.667 388.333z"/>
<path style="fill:#f2f2f2; stroke:none;" d="M608 388L609 389L608 388z"/>
<path style="fill:#fbfafb; stroke:none;" d="M611 388L612 389L611 388M615 388L616 389L615 388M613 389L614 390L613 389M605 390L606 391L605 390M614 390L615 391L614 390M622 390L623 391L622 390z"/>
<path style="fill:#f7f7f7; stroke:none;" d="M623 390L624 391L623 390z"/>
<path style="fill:#fbfafb; stroke:none;" d="M612.667 391.333L613.333 391.667L612.667 391.333z"/>
<path style="fill:#f2f2f2; stroke:none;" d="M623 391L624 392L623 391z"/>
<path style="fill:#fbfafb; stroke:none;" d="M632 391L633 392L632 391z"/>
<path style="fill:#f2f2f2; stroke:none;" d="M634 391L635 392L634 391z"/>
<path style="fill:#fbfafb; stroke:none;" d="M635 391L636 392L635 391M601 392L602 393L601 392M611 392L612 393L611 392z"/>
<path style="fill:#f7f7f7; stroke:none;" d="M640 392L641 393L640 392z"/>
<path style="fill:#fbfafb; stroke:none;" d="M641 392L642 393L641 392M627 393L628 394L627 393z"/>
<path style="fill:#f7f7f7; stroke:none;" d="M629 393L630 394L629 393M632 393L633 394L632 393z"/>
<path style="fill:#fbfafb; stroke:none;" d="M579 394L580 395L579 394M630 394L631 395L630 394M633 394L634 395L633 394z"/>
<path style="fill:#f7f7f7; stroke:none;" d="M634 394L635 395L634 394z"/>
<path style="fill:#fbfafb; stroke:none;" d="M635 394L636 395L635 394M643 394L644 395L643 394z"/>
<path style="fill:#f7f7f7; stroke:none;" d="M645 394L646 395L645 394z"/>
<path style="fill:#fbfafb; stroke:none;" d="M576 395L577 396L576 395z"/>
<path style="fill:#f2f2f2; stroke:none;" d="M628 395L629 396L628 395z"/>
<path style="fill:#f7f7f7; stroke:none;" d="M640 395L643 398L640 395M642 395L643 396L642 395z"/>
<path style="fill:#fbfafb; stroke:none;" d="M647 395L648 396L647 395M600 397L601 398L600 397M641.333 397.667L641.667 398.333L641.333 397.667M604 400L605 404L606 404L604 400M607 403L608 404L607 403M576 404L576 405L581 407L576 404z"/>
<path style="fill:#f7f7f7; stroke:none;" d="M591 404L592 405L591 404M607 404L608 405L607 404z"/>
<path style="fill:#ffffff; stroke:none;" d="M608 404C609.834 408.029 613.201 413.151 618 411L621 413L617 410L618 408L608 404M577 405L577 407L579 407L579 405L577 405z"/>
<path style="fill:#fbfafb; stroke:none;" d="M600 405L601 406L600 405M609 406L610 407L609 406M600.333 407.667L600.667 408.333L600.333 407.667M615 408L616 409L615 408M617.667 409.333L618.333 409.667L617.667 409.333M600 411L602 414L600 411M617.333 411.667L617.667 412.333L617.333 411.667M619 411L620 412L619 411z"/>
<path style="fill:#f7f7f7; stroke:none;" d="M596 412L597 413L596 412z"/>
<path style="fill:#fbfafb; stroke:none;" d="M618 413L619 414L618 413M600 414L601 415L600 414M597 416L598 417L597 416M592 420L593 421L592 420M594 421L595 422L594 421z"/>
<path style="fill:#f7f7f7; stroke:none;" d="M593 422L594 423L593 422z"/>
<path style="fill:#fbfafb; stroke:none;" d="M592 423L593 424L592 423M592 426L593 427L592 426z"/>
</svg>
