<?xml version="1.0" standalone="yes"?>
<svg xmlns="http://www.w3.org/2000/svg" width="1231" height="874">
<path style="fill:#010101; stroke:none;" d="M0 0L0 874L1231 874L1231 0L0 0z"/>
<path style="fill:#ffffff; stroke:none;" d="M392 716L378.586 738.985L370.191 749.015L371 760C367.679 761.099 367.263 762.59 367 766C377.907 759.794 385.191 758.611 397 764.558C401.133 766.639 404.078 771.894 409.039 771.836C416.786 771.746 420.336 765.624 424.209 760.148C426.692 756.638 432.985 756.951 433.468 751.981C434.721 739.111 410.286 735.27 403.04 729.468C398.424 725.771 396.031 720.209 392 716z"/>
</svg>
