<?xml version="1.0" standalone="yes"?>
<svg xmlns="http://www.w3.org/2000/svg" width="1231" height="874">
<path style="fill:#010101; stroke:none;" d="M0 0L0 874L1231 874L1231 0L0 0z"/>
<path style="fill:#0c0c0d; stroke:none;" d="M545 53L546 54L545 53M539 55L540 56L539 55M547 55L548 56L547 55M536 58L537 59L536 58M547.333 58.6667L547.667 59.3333L547.333 58.6667M552 63L553 64L552 63M534 64L535 65L534 64M512 66L513 70L514 70L512 66M534 66L535 67L534 66M554 66L555 67L554 66M507 67L508 68L507 67M505 68L506 69L505 68M514 71L515 72L514 71M531 71L532 72L531 71M525 72L526 73L525 72M529 72L530 73L529 72M514 73L515 74L514 73M557 73L558 74L557 73M518 74L519 75L518 74M515 75L516 76L515 75M558 75L559 76L558 75M560 77L559 79L560 77M570 83L571 84L570 83M575 90L577 93L575 90M501 93L502 94L501 93M547 93L548 94L547 93M579 95L580 96L579 95M546 96L547 97L546 96M548 96L549 97L548 96M550 96L551 97L550 96M552 97L553 98L552 97M581 97L583 99L581 97M500 98L500 101L501 101L500 98M583 100L585 102L583 100M517 101L518 102L517 101M497.333 103.667L497.667 104.333L497.333 103.667M553 103L554 104L553 103M586 103L587 104L586 103M515 104L515 105L518 105L515 104M521 104L522 105L521 104M496 107L497 108L496 107M508 108L508 109L513 110L513 109L508 108M549 108L550 109L549 108M496 109L497 110L496 109M506 109L505 111L506 109M552 109L553 110L552 109M508 110L509 111L508 110M546 110L547 111L546 110M592 110L594 112L592 110M502.667 111.333L503.333 111.667L502.667 111.333M551 111L552 112L551 111M528 112L527 114L529 114L528 112M530 113L531 114L530 113M543 113L544 114L543 113M498 114L499 115L498 114M551 114L552 115L551 114M532 115L533 116L532 115M541 115L542 116L541 115M552 116L553 117L552 116M493 117L494 118L493 117M552 118L553 119L552 118M535 119L534 121L536 121L535 119M537 121L538 122L537 121M598 121L600 123L598 121M579 123L576 124L576 125L579 123M596 123L597 124L596 123M552 124L552 126L554 126L552 124M600 125L601 126L600 125M495 126L496 127L495 126M551 127L552 128L551 127M576 128L577 129L576 128M604 129L605 130L604 129M604 131L605 132L604 131M500.333 132.667L500.667 133.333L500.333 132.667M606 132L608 135L606 132M579 134L580 135L579 134M535 136L536 137L535 136M533 138L534 139L533 138M519 139L520 140L519 139M522.667 139.333L523.333 139.667L522.667 139.333M534 140L535 141L534 140M578 140L579 141L578 140M611 140L612 141L611 140M515 141L513 142L513 143L515 141M505 142L506 143L505 142M505 144L506 145L505 144M615.333 144.667L615.667 145.333L615.333 144.667M616 147L617 148L616 147M507 148L508 149L507 148M618 149L619 150L618 149M591 150L592 151L591 150M509 151L511 153L509 151M589 151L590 152L589 151M619 151L620 152L619 151M586 152L587 153L586 152M523 153L524 154L523 153M534 153L535 154L534 153M613 153L612 155L613 153M510 154L512 156L510 154M609 155L610 156L609 155M624 155L625 156L624 155M521 156L520 158L521 156M582 156L583 157L582 156M612 156L611 158L612 156M608.333 157.667L608.667 158.333L608.333 157.667M511 158L513 161L511 158M519 159L520 160L519 159M578 159L579 160L578 159M628 160L629 161L628 160M516.667 161.333L517.333 161.667L516.667 161.333M577 164L578 165L577 164M536 167L537 168L536 167M575 167L576 168L575 167M634 167L633 169L634 167M575 169L576 170L575 169M635.667 170.333L636.333 170.667L635.667 170.333M547 171L548 172L547 171M552 171L553 172L552 171M573 171L574 172L573 171M570 172L571 173L570 172M560 174L561 175L560 174M555 175L556 176L555 175M639 175L640 176L639 175M516 176L517 177L516 176M554 177L555 178L554 177M517 178L518 179L517 178M554 180L555 181L554 180M642 180L644 182L642 180M602 181L601 183L602 181M518 182L519 183L518 182M599 182L598 184L599 182M532 184L534 189L535 189L532 184M646 184L647 185L646 184M528 185L529 186L528 185M648.667 188.333L649.333 188.667L648.667 188.333M595 189L597 191L595 189M519.667 190.333L520.333 190.667L519.667 190.333M535 190L536 191L535 190M576 191L577 192L576 191M595 192L596 193L595 192M651 192L652 193L651 192M592 193L593 194L592 193M594 195L595 196L594 195M656.667 200.333L657.333 200.667L656.667 200.333M573 202L574 203L573 202M657 202L658 203L657 202M551 204L552 205L551 204M595 204L597 206L595 204M661 206L662 207L661 206M599 207L600 208L599 207M662 208L663 209L662 208M607 209L606 211L607 209M663 210L663 211L666 212L663 210M570 211L571 212L570 211M666 213L667 214L666 213M604 214L605 215L604 214M607 214L608 215L607 214M595 215L596 216L595 215M593 216L594 217L593 216M669 216L666 218L666 219L670 217L669 216M523.667 219.333L524.333 219.667L523.667 219.333M521 220L522 221L521 220M586 220L587 221L586 220M606 220L607 221L606 220M665 220L664 222L666 222L665 220M673 220L674 221L673 220M525 221L527 223L525 221M575 221L576 222L575 221M609 222L610 223L609 222M660 222L661 223L660 222M651 223L648 225L648 226L652 224L651 223M527 224L528 225L527 224M612 224L613 225L612 224M653 224L654 225L653 224M529 225L528 227L529 225M577 225L578 226L577 225M551 226L552 227L551 226M616 226L615 228L616 226M531.333 227.667L531.667 228.333L531.333 227.667M553 227L554 228L553 227M676 227L677 228L676 227M630 228L631 229L630 228M645 228L644 230L645 228M621 229L621 231L623 231L621 229M553.667 230.333L554.333 230.667L553.667 230.333M617 230L619 232L617 230M554 232L556 234L554 232M640 232L641 233L640 232M640 236L641 237L640 236M687 236L688 237L687 236M689 236L690 237L689 236M519 237L520 238L519 237M691 238L692 239L691 238M518 239L519 240L518 239M556 239L557 240L556 239M518 242L519 243L518 242M541 242L539 245L543 244L541 242M694 242L696 244L694 242M517 244L518 245L517 244M636 244L637 245L636 244M696 245L697 246L696 245M516 247L517 248L516 247M564 248L565 249L564 248M634 248L633 252L636 249L634 248M698 248L699 249L698 248z"/>
<path style="fill:#010101; stroke:none;" d="M634 249L635 250L634 249z"/>
<path style="fill:#0c0c0d; stroke:none;" d="M539 251L540 252L539 251M566 251L567 252L566 251M563 252L564 253L563 252M572 252L574 254L572 252M646 252L647 253L646 252M699 253L700 254L699 253M704 253L705 254L704 253M606 254L607 255L606 254M612 254L613 255L612 254M647 254L648 255L647 254M697.333 254.667L697.667 255.333L697.333 254.667M542 255L542 256L545 256L542 255M614 255L615 256L614 255M538.333 256.667L538.667 257.333L538.333 256.667M565 256L566 257L565 256M618 256L619 257L618 256M632 256L633 257L632 256M649 256L650 257L649 256M655 256L656 257L655 256M664 256L665 257L664 256M675 256L676 257L675 256M514.667 257.333L515.333 257.667L514.667 257.333M546 257L547 258L546 257M593 257L594 258L593 257M667.333 257.667L667.667 258.333L667.333 257.667M672 257L673 258L672 257M695 257L696 258L695 257M564 258L563 260L564 258M577 258L578 259L577 258M595 258L596 259L595 258M623 258L624 259L623 258M632 258L633 259L632 258M592 259L593 260L592 259M621 259L622 260L621 259M626 259L626 260L629 260L629 259L626 259M671 259L672 260L671 259M715 259L716 260L715 259M514 260L515 261L514 260M518 260L520 262L518 260M548 260L549 261L548 260M550 260L551 261L550 260M561 260L560 262L561 260M535 261L534 264L535 264L536 264L535 261M580 261L581 262L580 261M640 261L641 262L640 261M512 262L514 264L512 262M550 262L551 263L550 262M631 262L632 263L631 262M557.667 263.333L558.333 263.667L557.667 263.333M582 263L584 266L582 263M522 264L522 265L525 265L525 264L522 264M588 265L589 266L588 265M592 265L593 266L592 265M630 265L631 266L630 265M526 266L527 267L526 266M719.667 266.333L720.333 266.667L719.667 266.333M530 267L531 268L530 267M593 267L594 268L593 267M511 268L512 269L511 268M554 269L553 271L554 269M1007 269L1008 270L1007 269M510 271L511 272L510 271M555 271L556 272L555 271M691 271L693 273L691 271M723 271L724 272L723 271M726 271L727 272L726 271M1004 272L1005 273L1004 272M509 273L510 274L509 273M555 273L558 275L558 274L555 273M723 273L724 274L723 273M511.333 275.667L511.667 276.333L511.333 275.667M593 275L594 276L593 275M719 275L720 276L719 275M717 276L716 278L717 276M732 276L733 277L732 276M1001.67 276.333L1002.33 276.667L1001.67 276.333M734 277L735 278L734 277M1009 277L1010 278L1009 277M557 279L559 281L557 279M715 279L716 280L715 279M1000 279L1001 280L1000 279M734 280L736 282L734 280M1010 281L1011 282L1010 281M502 283L503 284L502 283M559 283L558 285L560 285L559 283M627 283L628 284L627 283M707 283L708 284L707 283M740 283L741 284L740 283M997.667 283.333L998.333 283.667L997.667 283.333M1007 283L1008 284L1007 283M518 284L519 285L518 284M592 284L592 287L593 287L592 284M693 284L694 285L693 284M996 285L997 286L996 285M624 286L625 287L624 286M695 286L696 287L695 286M697 286L698 287L697 286M557 287L558 288L557 287M584 287L585 288L584 287M994 287L995 288L994 287M555 288L556 289L555 288M593 288L594 289L593 288M629 288L630 289L629 288M666 288L668 290L666 288M1009 288L1010 289L1009 288M587 289L588 290L587 289M632 290L633 291L632 290M534 291L535 292L534 291M536.333 291.667L536.667 292.333L536.333 291.667M555 291L556 292L555 291M589 291L590 292L589 291M667 291L668 292L667 291M689 291L690 292L689 291M700 291L701 292L700 291M750 291L753 293L753 292L750 291M557 292L556 294L557 292M576 292L577 293L576 292M1008.33 292.667L1008.67 293.333L1008.33 292.667M687 293L688 294L687 293M754 293L755 294L754 293M703 294L704 295L703 294M756 294L757 295L756 294M539 295L540 296L539 295M759 295L763 298L763 297L759 295M557 296L558 297L557 296M615 296L617 298L615 296M636 296L638 299L638 298L636 296M704 297L705 298L704 297M764 297L765 298L764 297M1007 297L1008 298L1007 297M507 298L507 300L509 300L507 298M683 298L682 300L683 298M767 298L768 299L767 298M617 299L618 300L617 299M706 299L707 300L706 299M990 299L991 300L990 299M1001 299L1002 300L1001 299M1007 299L1008 300L1007 299M679 300L680 301L679 300M713 300L714 301L713 300M759 300L760 301L759 300M771 301L771 302L774 302L771 301M556 301L557 302L556 301M982 301L983 302L982 301M1006 301L1007 302L1006 301M546 302L547 303L546 302M715 302L716 303L715 302M998 302L999 303L998 302M560 303L562 305L560 303M622 303L623 304L622 303M756 303L757 304L756 303M779 303L780 304L779 303M502 304L502 307L503 307L502 304M713.667 304.333L714.333 304.667L713.667 304.333M575 305L576 306L575 305M1006 305L1007 306L1006 305M562 306L563 307L562 306M714 306L715 307L714 306M777 306L778 307L777 306M979 306L978 308L979 306M515 307L516 308L515 307M626 307L627 308L626 307M640 307L641 308L640 307M712 307L713 308L712 307M780 307L781 308L780 307M785.333 307.667L785.667 308.333L785.333 307.667M592 308L593 309L592 308M750 308L751 309L750 308M999 308L1000 309L999 308M1005 308L1006 309L1005 308M790 309L791 310L790 309M561 310L563 313L561 310M596 310L597 311L596 310M748 310L747 312L748 310M994 311L994 312L997 312L994 311M559 311L560 312L559 311M652 311L653 312L652 311M778 311L779 312L778 311M790.333 311.667L790.667 312.333L790.333 311.667M794 311L795 312L794 311M973 311L968 318L973 311M1003 311L1001 315L1002 315L1003 315L1003 311M600.333 312.667L600.667 313.333L600.333 312.667M665.667 312.333L666.333 312.667L665.667 312.333M798 312L797 314L798 312M656 313L657 314L656 313M779 313L780 314L779 313M800 313L800 314L804 315L804 314L800 313M709.333 314.667L709.667 315.333L709.333 314.667M805.667 314.333L806.333 314.667L805.667 314.333M543 315L542 317L543 315M561 315L562 316L561 315M656 315L657 316L656 315M659 315L661 317L659 315M991 315L992 316L991 315M604 316L605 317L604 316M606 316L607 317L606 316M663 316L664 317L663 316M828 316L829 317L828 316M1001 316L1002 317L1001 316M540 317L541 318L540 317M575 317L576 318L575 317M743 317L744 318L743 317M780.333 317.667L780.667 318.333L780.333 317.667M663 318L664 319L663 318M834 318L835 319L834 318M559 319L561 321L561 319L559 319M742 319L743 320L742 319M785.667 319.333L786.333 319.667L785.667 319.333M966 319L967 320L966 319M517.667 320.333L518.333 320.667L517.667 320.333M540 320L541 321L540 320M610 320L611 321L610 320M838 320L837 322L838 320M842 320L843 321L842 320M844 320L845 321L844 320M986.667 320.333L987.333 320.667L986.667 320.333M535 321L536 322L535 321M741 321L742 322L741 321M786 321L787 322L786 321M788 321L789 322L788 321M812 321L813 322L812 321M963 321L964 322L963 321M575 322L576 323L575 322M764 322L765 323L764 322M790.667 322.333L791.333 322.667L790.667 322.333M986 322L987 323L986 322M997 322L998 323L997 322M743 323L744 324L743 323M762 323L763 324L762 323M798 323L799 324L798 323M806 323L807 324L806 323M812 323L813 324L812 323M835 323L836 324L835 323M851 323L852 324L851 323M856 323L855 325L856 323M961 323L962 324L961 323M614 324L615 325L614 324M707 324L706 326L707 324M791 324L792 325L791 324M984 324L985 325L984 324M587.333 325.667L587.667 326.333L587.333 325.667M738 325L737 327L738 325M744 325L745 326L744 325M812.667 325.333L813.333 325.667L812.667 325.333M834 326L835 327L834 326M983 326L984 327L983 326M758 327L759 328L758 327M816 327L817 328L816 327M981 327L982 328L981 327M558 328L559 329L558 328M668 328L669 329L668 328M735 330L738 328L735 330M749 328L750 329L749 328M957 328L956 330L957 328M979 328L980 329L979 328M576.333 329.667L576.667 330.333L576.333 329.667M764.333 329.667L764.667 330.333L764.333 329.667M954 329L955 330L954 329M995 329L996 330L995 329M558 330L559 331L558 330M599 330L600 331L599 330M603.667 330.333L604.333 330.667L603.667 330.333M832 330L831 333L832 333L832 330M595 331L597 333L595 331M733 331L735 333L733 331M976.333 331.667L976.667 332.333L976.333 331.667M994 331L993 333L994 331M503 332L504 333L503 332M577 333L578 336L579 336L577 333M585.333 334.667L585.667 335.333L585.333 334.667M732 334L731 336L732 334M785 334L786 335L785 334M992 334L993 335L992 334M563 335L564 336L563 335M704 335L704 340L705 340L704 335M763 335L764 336L763 335M951 335L952 336L951 335M717 336L718 337L717 336M786 336L787 337L786 336M582 337L583 338L582 337M631 337L632 338L631 337M639 337L640 338L639 337M784 337L785 338L784 337M971 337L972 338L971 337M642 338L643 339L642 338M556 339L557 340L556 339M564 339L565 340L564 339M783 339L781 340L781 341L783 339M969 339L970 340L969 339M500 340L501 341L500 340M581 340L582 341L581 340M615 340L617 343L615 340M646 340L648 342L646 340M672 340L673 341L672 340M778 340L779 341L778 340M828 340L829 341L828 340M857 340L858 341L857 340M947 340L948 341L947 340M987.667 340.333L988.333 340.667L987.667 340.333M543.667 341.333L544.333 341.667L543.667 341.333M627 341L628 342L627 341M701 341L700 344L701 344L701 341M502 342L503 343L502 342M552 342L553 343L552 342M704 342L705 343L704 342M712 342L713 343L712 342M774 342L775 343L774 342M776 342L777 343L776 342M812.667 342.333L813.333 342.667L812.667 342.333M859 342L861 344L859 342M966 342L966 345L967 345L968 342L966 342M498.667 343.333L499.333 343.667L498.667 343.333M541 343L542 344L541 343M622 343L622 344L626 344L626 343L622 343M708 343L709 344L708 343M829 343L830 344L829 343M944 343L945 344L944 343M505 344L506 345L505 344M619 344L620 345L619 344M499 345L500 346L499 345M541 345L542 346L541 345M565 345L566 346L565 345M649 345L650 346L649 345M670 345L671 346L670 345M806 345L807 346L806 345M809 345L810 346L809 345M963 345L965 347L963 345M510 346L511 347L510 346M984 346L983 348L984 346M541 347L542 348L541 347M618 347L619 348L618 347M767 347L765 352L766 352L767 347M799 347L800 348L799 347M801.667 347.333L802.333 347.667L801.667 347.333M864 347L865 348L864 347M939 347L940 348L939 347M961 347L960 349L961 347M497 348L498 349L497 348M522 348L523 349L522 348M532.333 348.667L532.667 349.333L532.333 348.667M616.333 348.667L616.667 349.333L616.333 348.667M650 348L651 349L650 348M981 348L982 349L981 348M534.667 349.333L535.333 349.667L534.667 349.333M581 349L582 350L581 349M610 350L610 351L613 351L610 350M614 349L615 350L614 349M537 350L535 353L537 350M623 350L623 353L624 353L623 350M795.667 350.333L796.333 350.667L795.667 350.333M960 350L958 351L958 352L960 350M495 351L496 352L495 351M552 351L553 352L552 351M581 351L582 352L581 351M583 351L584 352L583 351M593 351L594 352L593 351M651.667 351.333L652.333 351.667L651.667 351.333M791 351L791 352L794 352L791 351M935 351L936 352L935 351M515 352L517 354L515 352M566 352L567 353L566 352M591 352L592 353L591 352M606 352L608 354L606 352M669 352L670 353L669 352M826 352L827 353L826 352M871 352L872 353L871 352M980 352L981 353L980 352M581 353L582 354L581 353M586 353L587 354L586 353M589 353L588 355L589 353M653.333 353.667L653.667 354.333L653.333 353.667M671 353L670 355L671 353M846 353L847 354L846 353M931 353L932 354L931 353M978.333 353.667L978.667 354.333L978.333 353.667M578 354L577 356L579 356L578 354M768 354L769 355L768 354M790 354L791 355L790 354M824 354L824 357L825 357L824 354M872 354L873 355L872 354M493 355L494 356L493 355M496 355L497 356L496 355M575 355L576 356L575 355M625 355L626 356L625 355M665 355L666 356L665 355M771 355L773 357L771 355M845 355L846 356L845 355M875 355L876 356L875 355M956.667 355.333L957.333 355.667L956.667 355.333M498 356L497 358L498 356M566 356L567 357L566 356M608 356L610 358L608 356M687 356L689 358L689 356L687 356M836 356L837 357L836 356M838 356L839 357L838 356M841.333 356.667L841.667 357.333L841.333 356.667M882 356L881 358L882 356M927 356L928 357L927 356M554 357L555 358L554 357M570 357L570 358L570 359L573 358L573 357L570 357M665 357L666 358L665 357M690 357L691 358L690 357M852 357L853 358L852 357M954 357L953 359L954 357M493 358L494 359L493 358M534 358L536 360L534 358M568 358L569 359L568 358M652 358L653 359L652 358M661 358L662 359L661 358M692 358L693 359L692 358M776 358L777 359L776 358M834 358L835 359L834 358M915 358L916 359L915 358M923 358L924 359L923 358M654 359L655 360L654 359M659 359L660 360L659 359M827 359L828 360L827 359M880 359L881 360L880 359M912.667 359.333L913.333 359.667L912.667 359.333M920.667 359.333L921.333 359.667L920.667 359.333M557 360L558 361L557 360M609 360L609 364L610 364L609 360M657 360L658 361L657 360M779 360L781 362L779 360M787 360L789 362L787 360M831 360L832 361L831 360M625 361L626 362L625 361M693 361L694 362L693 361M829 361L830 362L829 361M854 361L855 362L854 361M856 362L857 363L856 362M623 363L624 364L623 363M645 363L646 364L645 363M489 364L490 365L489 364M689 364L690 365L689 364M783 364L786 366L786 365L783 364M856 364L857 365L856 364M948 364L949 365L948 364M952 364L954 366L952 364M560 365L561 366L560 365M570 365L571 366L570 365M623 365L624 366L623 365M636 365L637 366L636 365M828 365L829 366L828 365M955 365L956 366L955 365M489 366L488 368L489 366M587.667 366.333L588.333 366.667L587.667 366.333M646 366L649 368L649 367L646 366M867 366L869 368L867 366M947 366L948 367L947 366M484 367L485 368L484 367M531 367L532 368L531 367M571 367L572 368L571 367M621 367L622 368L621 367M638 367L641 370L638 367M955 367L956 368L955 367M478.667 368.333L479.333 368.667L478.667 368.333M503 368L505 370L503 368M858 368L860 370L858 368M864 368L865 369L864 368M947 368L948 369L947 368M959 368L960 369L959 368M975 368L974 370L975 368M487 369L488 370L487 369M559 369L560 370L559 369M604 369L605 370L604 369M611.667 369.333L612.333 369.667L611.667 369.333M618 369L617 371L619 371L618 369M763 369L764 370L763 369M871 369L872 370L871 369M475 370L476 371L475 370M834 370L835 371L834 370M838 370L840 372L838 370M901 370L902 371L901 370M505 371L506 372L505 371M611 371L612 372L611 371M641 371L642 372L641 371M645 371L643 376L644 376L646 374L645 371M878 371L879 372L878 371M946 371L947 372L946 371M968 371L969 372L968 371M974 371L975 372L974 371M470.667 372.333L471.333 372.667L470.667 372.333M599 372L600 373L599 372M688 372L689 373L688 372M762 372L763 373L762 372M843 372L844 373L843 372M848 372L849 373L848 372M468 373L469 374L468 373M877 373L878 374L877 373M879 373L880 374L879 373M505.333 374.667L505.667 375.333L505.333 374.667M761 374L762 375L761 374M874 374L874 376L876 376L874 374M905.667 374.333L906.333 374.667L905.667 374.333M467 375L468 376L467 375M851 375L852 376L851 375M945 375L946 376L945 375M543 376L544 377L543 376M897 376L898 377L897 376M907 376L908 377L907 376M508 377L509 378L508 377M523.333 377.667L523.667 378.333L523.333 377.667M551 377L552 378L551 377M747 377L748 378L747 377M750 377L751 378L750 377M895 377L896 378L895 377M761 378L762 379L761 378M509.333 379.667L509.667 380.333L509.333 379.667M551 379L552 380L551 379M751.667 379.333L752.333 379.667L751.667 379.333M754 379L754 381L756 381L754 379M854 379L855 380L854 379M893 379L892 381L893 379M908 379L909 380L908 379M910 379L911 380L910 379M522 380L523 381L522 380M587 380L588 381L587 380M595 380L596 381L595 380M623 380L624 381L623 380M643 380L642 382L643 380M741 380L742 381L741 380M511 381L512 382L511 381M541 381L542 382L541 381M592 381L593 382L592 381M689 381L690 382L689 381M739 381L741 383L739 381M910 381L913 384L910 381M940 381L941 382L940 381M508 382L509 383L508 382M514 382L515 383L514 382M516 382L519 385L516 382M521.667 382.333L522.333 382.667L521.667 382.333M623 382L624 383L623 382M461 383L462 384L461 383M626 383L629 385L626 383M642.333 383.667L642.667 384.333L642.333 383.667M890 383L891 384L890 383M939 383L940 384L939 383M537.667 384.333L538.333 384.667L537.667 384.333M520 385L521 386L520 385M644 385L645 386L644 385M774.667 385.333L775.333 385.667L774.667 385.333M784.667 385.333L785.333 385.667L784.667 385.333M915 385L916 386L915 385M459 387L460 388L459 387M499 387L500 388L499 387M548.333 387.667L548.667 388.333L548.333 387.667M631 387L632 388L631 387M731 387L732 388L731 387M773 387L772 389L773 387M789 387L790 388L789 387M542 390L545 389L542 390M634 388L635 389L634 388M688 388L693 391L693 390L688 388M705.333 388.667L705.667 389.333L705.333 388.667M814 388L815 389L814 388M916 388L917 389L916 388M934 388L935 389L934 388M620 389L622 391L620 389M709 389L710 390L709 389M791 389L792 390L791 389M457.667 390.333L458.333 390.667L457.667 390.333M468 390L469 391L468 390M496 390L497 391L496 390M498.333 390.667L498.667 391.333L498.333 390.667M500 390L502 392L500 390M508 390L509 391L508 390M514 390L515 391L514 390M617 390L618 391L617 390M646 390L647 391L646 390M703 390L702 392L703 390M723 390L724 391L723 390M795.333 390.667L795.667 391.333L795.333 390.667M931 390L932 391L931 390M470 391L471 392L470 391M491 391L492 392L491 391M506 391L507 392L506 391M512 391L513 392L512 391M531 395L536 392L531 395M615 391L616 392L615 391M641 391L642 392L641 391M695 391L696 392L695 391M709 391L709 393L711 393L709 391M763 391L764 392L763 391M773 391L774 392L773 391M811 391L812 392L811 391M832 391L833 392L832 391M920.667 391.333L921.333 391.667L920.667 391.333M464.333 392.667L464.667 393.333L464.333 392.667M503 392L504 393L503 392M576 392L577 393L576 392M602 392L603 393L602 392M643 392L644 393L643 392M645 392L646 393L645 392M760 392L761 393L760 392M827.333 392.667L827.667 393.333L827.333 392.667M925 392L926 393L925 392M458 393L459 394L458 393M486 393L487 394L486 393M489 393L488 395L489 393M518 393L519 394L518 393M833 393L835 395L833 393M921 393L921 395L923 393L921 393M473 394L474 395L473 394M614 394L612 395L612 396L614 394M631 395L631 396L636 397L636 396L633 394L631 395M649 394L650 395L649 394M776 394L777 395L776 394M821.333 394.667L821.667 395.333L821.333 394.667M824 394L825 395L824 394M455.667 395.333L456.333 395.667L455.667 395.333M485.667 395.333L486.333 395.667L485.667 395.333M519 395L520 396L519 395M523 395L524 396L523 395M548 395L549 396L548 395M575 395L576 396L575 395M601 395L602 396L601 395M708 395L707 397L708 395M857 395L858 396L857 395M475 396L477 398L475 396M482 396L482 398L484 396L482 396M536 396L537 397L536 396M648 396L649 397L648 396M720 396L721 397L720 396M835 396L836 397L835 396M920 396L920 397L921 399L922 399L923 399L920 396M523 397L524 398L523 397M709 397L710 398L709 397M798 397L799 398L798 397M480 398L481 399L480 398M537 398L538 399L537 398M548 398L549 399L548 398M603 398L604 399L603 398M605 398L606 399L605 398M616 398L618 400L616 398M650 398L651 399L650 398M756 398L757 399L756 398M510 399L511 400L510 399M705 399L706 400L705 399M707 399L708 400L707 399M713 399L714 400L713 399M797 399L798 400L797 399M860 399L861 400L860 399M887 399L888 400L887 399M516 400L518 402L516 400M607 400L609 402L607 400M643 400L645 402L643 400M648 400L649 401L648 400M836 400L837 401L836 400M493 401L494 402L493 401M507.667 401.333L508.333 401.667L507.667 401.333M519 401L521 403L519 401M538 401L539 402L538 401M549 401L550 402L549 401M622 401L623 402L622 401M666 401L668 403L666 401M865 401L866 402L865 401M868 401L869 402L868 401M870 401L871 402L870 401M887 401L888 402L887 401M495 402L496 403L495 402M503.667 402.333L504.333 402.667L503.667 402.333M648 402L649 403L648 402M799 402L800 403L799 402M872 402L873 403L872 402M498 403L499 404L498 403M523 403L524 404L523 403M537.667 403.333L538.333 403.667L537.667 403.333M546 403L547 404L546 403M610 403L611 404L610 403M651 403L652 404L651 403M663 403L664 404L663 403M671.667 403.333L672.333 403.667L671.667 403.333M743 403L742 405L743 403M862.667 403.333L863.333 403.667L862.667 403.333M879 403L880 404L879 403M927.333 403.667L927.667 404.333L927.333 403.667M974 403L975 404L974 403M500 404L501 405L500 404M525 404L526 405L525 404M540 404L541 405L540 404M574 404L575 405L574 404M624 404L625 405L624 404M706 404L707 405L706 404M873 404L874 405L873 404M922 404L923 405L922 404M486 405L485 407L486 405M538 405L539 406L538 405M610 405L611 406L610 405M797 405L798 406L797 405M876 405L877 406L876 405M921 406L921 407L926 406L921 406M527 406L527 407L530 410L531 410L527 406M546.667 406.333L547.333 406.667L546.667 406.333M583 406L584 407L583 406M740 406L739 408L740 406M889 406L888 408L889 406M944 406L947 409L944 406M627 407L628 408L627 407M771 407L772 408L771 407M839 407L840 408L839 407M459 408L460 409L459 408M486 408L488 410L486 408M602 408L603 409L602 408M775.667 408.333L776.333 408.667L775.667 408.333M572 409L573 410L572 409M619 409L619 410L622 411L619 409M708 409L706 415L707 415L708 409M717 409L716 411L717 409M890 409L894 412L894 411L890 409M489 410L488 411L488 412L489 413L490 413L491 412L491 411L489 410M535 410L536 411L535 410M569 410L568 412L569 410M602 410L604 412L602 410M611 410L611 411L614 412L611 410M719 410L720 411L719 410M731.333 410.667L731.667 411.333L731.333 410.667M796 410L796 412L798 412L798 410L796 410M919 410L918 412L919 410M460.333 411.667L460.667 412.333L460.333 411.667z"/>
<path style="fill:#010101; stroke:none;" d="M489 411L490 412L489 411z"/>
<path style="fill:#0c0c0d; stroke:none;" d="M633 411L634 412L633 411M671.667 411.333L672.333 411.667L671.667 411.333M714 411L715 412L714 411M856 411L858 413L856 411M534 412L536 414L536 412L534 412M669 412L670 413L669 412M782 412L783 413L782 412M491 413L492 414L491 413M555 413L556 414L555 413M621.667 413.333L622.333 413.667L621.667 413.333M793 413L794 414L793 413M912 413L911 416L912 413M560 414L561 415L560 414M615 414L616 415L615 414M651 414L652 415L651 414M712 414L713 415L712 414M649 415L648 417L649 415M843 415L844 416L843 415M964 415L965 416L964 415M968 415L969 416L968 415M670 416L672 418L672 416L670 416M962 416L963 417L962 416M988 416L989 417L988 416M990 416L991 417L990 416M551 417L551 418L554 419L551 417M555 417L556 418L555 417M704.333 417.667L704.667 418.333L704.333 417.667M894 417L895 418L894 417M494 418L495 419L494 418M548 418L548 421L549 421L548 418M596 418L597 419L596 418M848 418L849 419L848 418M898 418L899 419L898 418M906 418L907 419L906 418M968 418L968 419L971 419L968 418M996 418L997 419L996 418M462 420L463 421L462 420M483.667 420.333L484.333 420.667L483.667 420.333M486 420L488 422L488 420L486 420M534 420L535 421L534 420M712 420L712 421L713 423L714 423L712 420M761 420L762 421L761 420M765 420L766 421L765 420M849 420L850 421L849 420M969 420L970 421L969 420M999 420L1000 421L999 420M493 421L494 422L493 421M595 421L596 422L595 421M759 421L760 422L759 421M790.333 421.667L790.667 422.333L790.333 421.667M851.667 421.333L852.333 421.667L851.667 421.333M901.333 421.667L901.667 422.333L901.333 421.667M666 422L667 423L666 422M669 422L670 423L669 422M698 422L699 423L698 422M970 422L971 423L970 422M992 422L994 424L994 422L992 422M1001 422L1002 423L1001 422M496 423L497 424L496 423M547.333 423.667L547.667 424.333L547.333 423.667M672 423L674 425L672 423M793 423L795 425L793 423M852 423L852 426L853 426L852 423M984 423L985 424L984 423M484 424L485 425L484 424M589 424L590 425L589 424M675 424L676 425L675 424M757.667 424.333L758.333 424.667L757.667 424.333M899.333 424.667L899.667 425.333L899.333 424.667M969 424L970 425L969 424M971 424L972 425L971 424M539 425L541 427L539 425M591 425L591 428L592 428L591 425M593.333 425.667L593.667 426.333L593.333 425.667M664 425L665 426L664 425M715 425L716 426L715 425M987 425L989 427L989 425L987 425M485.667 426.333L486.333 426.667L485.667 426.333M758 426L759 427L758 426M797 426L798 427L797 426M971 426L972 427L971 426M977 426L976 428L977 426M980 426L981 427L980 426M498 427L499 428L498 427M532 427L533 428L532 427M660 430L664 428L660 430M695 427L696 428L695 427M905 427L907 429L905 427M486 428L487 429L486 428M534 428L535 429L534 428M536 428L537 429L536 428M693 428L694 429L693 428M717 428L718 431L719 431L717 428M755 428L754 430L755 428M973 428L974 429L973 428M988 428L989 429L988 428M1003 428L1004 429L1003 428M532 429L533 430L532 429M546 429L547 430L546 429M607 429L608 430L607 429M683 429L684 430L683 429M900 429L902 431L900 429M966 429L967 430L966 429M990 429L989 431L990 429M487 430L486 432L487 430M556 430L559 432L559 431L556 430M604 430L606 432L604 430M692 430L693 431L692 430M752 430L751 432L752 430M804 430L805 431L804 430M462 431L463 432L462 431M502 431L503 432L502 431M727 431L728 432L727 431M505 432L506 433L505 432M568 432L569 433L568 432M593 432L594 433L593 432M595 432L596 433L595 432M658 432L659 433L658 432M736 432L737 433L736 432M902 432L903 433L902 432M1001 432L1002 433L1001 432M559 433L560 436L561 436L559 433z"/>
<path style="fill:#161616; stroke:none;" d="M567 433L568 434L567 433z"/>
<path style="fill:#0c0c0d; stroke:none;" d="M739 433L740 434L739 433M750 433L751 434L750 433M807 433L808 434L807 433M507 434L508 435L507 434M548 434L549 435L548 434M656 434L657 435L656 434M914 434L915 435L914 434M916 434L917 435L916 434M595 435L596 436L595 435M616 435L617 436L616 435M623 435L624 436L623 435M629 435L630 436L629 435M835 435L836 436L835 435M903 435L904 436L903 435M918 435L920 437L918 435M521 436L524 439L524 438L521 436M531 436L532 437L531 436M542 436L542 437L545 438L542 436M546 436L547 437L546 436M654.667 436.333L655.333 436.667L654.667 436.333M688 436L689 437L688 436M843 436L844 437L843 436M848 436L849 437L848 436M850 436L851 437L850 436M853 436L854 437L853 436M618 437L619 438L618 437M812 437L813 438L812 437M992 437L993 438L992 437M597.333 438.667L597.667 439.333L597.333 438.667M830 438L831 439L830 438M832 438L833 439L832 438M903 438L903 444L904 444L903 438M652 439L652 441L654 439L652 439M921.333 439.667L921.667 440.333L921.333 439.667M463 440L464 441L463 440M550 440L553 443L550 440M633 440L634 441L633 440M800 440L801 441L800 440M814 440L815 441L814 440M829 440L830 441L829 440M962 440L963 441L962 440M510 441L511 442L510 441M924 441L926 443L924 441M543 442L543 444L545 444L543 442M599.667 442.333L600.333 442.667L599.667 442.333M605 442L605 445L606 445L605 442M651 442L652 443L651 442M798 442L799 443L798 442M820 442L823 445L820 442M511 443L512 444L511 443M532 443L531 445L532 443M560 443L561 444L560 443M649.333 443.667L649.667 444.333L649.333 443.667M805 443L806 444L805 443M814 443L813 445L815 445L814 443M828.333 443.667L828.667 444.333L828.333 443.667M927 443L928 444L927 443M466 444L467 445L466 444M558 444L559 445L558 444M691 444L690 446L691 444M749 444L750 445L749 444M940.667 444.333L941.333 444.667L940.667 444.333M958 444L959 445L958 444M960 444L961 445L960 444M487.667 445.333L488.333 445.667L487.667 445.333M512.667 445.333L513.333 445.667L512.667 445.333M607 445L609 447L607 445M751 445L752 446L751 445M772 445L773 446L772 445M807 445L808 446L807 445M508 446L507 448L508 446M636.333 446.667L636.667 447.333L636.333 446.667M648 446L649 447L648 446M529 447L530 448L529 447M531 447L532 448L531 447M556.667 447.333L557.333 447.667L556.667 447.333M690 447L691 448L690 447M774 447L775 448L774 447M915 447L916 448L915 447M957 447L958 448L957 447M466 448L467 449L466 448M545 448L546 449L545 448M638 448L639 449L638 448M783 448L784 449L783 448M786 448L787 449L786 448M854 448L855 449L854 448M556 449L558 451L556 449M856 449L857 450L856 449M912 449L913 450L912 449M506 450L507 451L506 450M544 450L545 451L544 450M613 450L614 451L613 450M638 450L639 451L638 450M910 450L911 451L910 450M468 451L469 452L468 451M715 451L716 452L715 451M784 451L785 452L784 451M796 451L797 452L796 451M849 452L849 453L852 453L852 452L849 452M858 451L859 452L858 451M861 451L862 452L861 451M487 452L488 453L487 452M640 452L641 453L640 452M883 452L885 454L883 452M501 453L503 455L501 453M555 453L556 454L555 453M596 453L597 454L596 453M880 453L881 454L880 453M499 454L500 455L499 454M515 454L516 455L515 454M525.333 454.667L525.667 455.333L525.333 454.667M548 454L549 455L548 454M550 454L551 455L550 454M782 454L783 455L782 454M795.333 454.667L795.667 455.333L795.333 454.667M849 454L850 455L849 454M865 454L866 455L865 454M339 455L340 456L339 455M486 455L487 456L486 455M532.667 455.333L533.333 455.667L532.667 455.333M596 455L596 456L596 457L601 459L596 455M643 455L642 457L643 455M716 455L717 456L716 455M793 455L794 456L793 455M879 455L880 456L879 455M885 455L886 456L885 455M344 456L345 457L344 456M497 456L496 458L497 456M499 456L500 457L499 456M515.333 456.667L515.667 457.333L515.333 456.667M536 456L537 457L536 456M548 456L549 457L548 456M620 456L621 457L620 456M637 456L638 457L637 456M868 456L869 457L868 456M890 456L889 458L890 456M895 456L896 457L895 456M908 456L909 457L908 456M995 456L996 457L995 456M520 457L521 458L520 457M694 457L695 458L694 457M716 457L717 458L716 457M910 457L911 458L910 457M344 458L345 459L344 458M540 458L540 460L542 460L540 458M626 458L628 460L626 458M643 458L645 460L643 458M692 458L693 459L692 458M892 458L893 459L892 458M894 458L895 459L894 458M595 459L596 460L595 459M695.667 459.333L696.333 459.667L695.667 459.333M718 459L719 460L718 459M823 459L822 461L824 461L823 459M870 459L869 461L870 459M996 459L997 460L996 459M337 460L338 461L337 460M345 460L346 461L345 460M688 460L689 461L688 460M842 460L843 461L842 460M347 461L348 462L347 461M516 461L517 462L516 461M543 461L544 462L543 461M593 461L594 462L593 461M625 461L626 462L625 461M639 461L638 463L640 463L639 461M1062 461L1063 462L1062 461M337 462L338 463L337 462M545 462L546 463L545 462M602 462L603 463L602 462M774 462L774 465L775 465L776 462L774 462M818 462L818 465L819 465L820 462L818 462M1051 462L1052 463L1051 462M335 463L336 464L335 463M511 463L512 464L511 463M624 463L625 464L624 463M685.333 463.667L685.667 464.333L685.333 463.667M722 463L724 466L722 463M841 463L842 464L841 463M862.667 463.333L863.333 463.667L862.667 463.333M1049 463L1050 464L1049 463M1068 463L1069 464L1068 463M330 464L329 466L330 464M333 464L334 465L333 464M469 464L470 465L469 464M493 464L494 465L493 464M604 464L605 465L604 464M615 464L616 465L615 464M822 464L824 466L822 464M998 464L999 465L998 464M1044.67 464.333L1045.33 464.667L1044.67 464.333M323 465L324 466L323 465M783 465L784 466L783 465M815 465L813 468L815 465M1068.33 465.667L1068.67 466.333L1068.33 465.667M469 466L468 469L469 469L469 466M484 466L484 469L485 469L484 466M494 466L497 470L497 469L494 466M549 466L547 469L549 466M557 466L558 467L557 466M1001 466L1000 468L1001 466M775 467L776 468L775 467M821 467L822 468L821 467M838 467L839 468L838 467M912 467L913 468L912 467M510.667 468.333L511.333 468.667L510.667 468.333M635 468L636 469L635 468M703 468L704 469L703 468M867 468L868 469L867 468M988 468L989 469L988 468M481 469L482 470L481 469M995.333 469.667L995.667 470.333L995.333 469.667M1039 469L1040 470L1039 469M323 470L323 472L325 470L323 470M354 470L355 471L354 470M468 470L467 474L468 474L468 470M503 470L504 471L503 470M651 470L650 473L651 473L651 470M497 471L498 472L497 471M545 471L545 474L548 471L545 471M683 471L684 472L683 471M702 471L702 474L703 474L702 471M726 471L727 472L726 471M916 471L918 473L916 471M986 471L988 473L986 471M997 471L998 472L997 471M1037 471L1038 472L1037 471M480.667 472.333L481.333 472.667L480.667 472.333M501.333 472.667L501.667 473.333L501.333 472.667M517 472L518 473L517 472M839 472L840 473L839 472M870 472L871 473L870 472M1062 472L1059 476L1062 472M359 473L360 474L359 473M361 473L362 474L361 473M554 473L555 474L554 473M730 473L731 474L730 473M872 473L872 476L873 476L872 473M1035 473L1036 474L1035 473M478 474L479 475L478 474M503 474L504 475L503 474M519 474L520 475L519 474M734 474L736 476L734 474M913 474L916 478L913 474M919 474L919 476L921 474L919 474M321.667 475.333L322.333 475.667L321.667 475.333M360 475L361 476L360 475M465 475L463 477L463 478L465 475M535 475L536 476L535 475M700 475L701 476L700 475M817 475L818 476L817 475M841 475L843 477L841 475M874 475L874 478L875 478L874 475z"/>
<path style="fill:#010101; stroke:none;" d="M914 475L915 476L914 475z"/>
<path style="fill:#0c0c0d; stroke:none;" d="M495 476L496 477L495 476M500 476L501 477L500 476M519 476L520 477L519 476M558 476L559 477L558 476M926 476L928 478L926 476M1008 476L1009 477L1008 476M1049 476L1050 477L1049 476M1056 476L1057 477L1056 476M359 477L360 478L359 477M475 477L476 478L475 477M521 477L523 479L521 477M560 477L561 478L560 477M737 477L738 478L737 477M816 477L817 478L816 477M493 478L494 479L493 478M739 478L741 480L739 478M1046 478L1047 479L1046 478M461 479L462 480L461 479M474 479L476 481L474 479M502 479L504 481L502 479M528 479L529 480L528 479M562 479L563 480L562 479M699 479L700 480L699 479M814 479L815 480L814 479M875.333 479.667L875.667 480.333L875.333 479.667M921 479L922 480L921 479M326 480L329 482L326 480M337 480L338 481L337 480M340 480L342 482L340 480M641 480L642 481L641 480M936 480L937 481L936 480M998 480L999 481L998 480M473 481L474 482L473 481M561.333 481.667L561.667 482.333L561.333 481.667M845 481L844 483L845 481M349 482L350 483L349 482M795 482L796 483L795 482M1003 482L1002 484L1003 482M1019 482L1020 483L1019 482M1040 482L1041 483L1040 482M336 483L337 484L336 483M369 483L370 484L369 483M374.667 483.333L375.333 483.667L374.667 483.333M378 483L379 484L378 483M409 483L410 484L409 483M412 483L413 484L412 483M491 483L492 484L491 483M639 483L640 484L639 483M793 483L794 484L793 483M846 483L847 484L846 483M1007 483L1008 484L1007 483M331 484L332 485L331 484M349 484L350 485L349 484M402 484L403 485L402 484M404 484L405 485L404 484M471 484L472 485L471 484M683 484L684 485L683 484M878 484L879 485L878 484M943 484L944 485L943 484M1022 484L1024 486L1022 484M1039 484L1040 485L1039 484M369 485L370 486L369 485M455 485L456 486L455 485M562 485L563 486L562 485M380 486L382 488L380 486M399 486L400 487L399 486M704 486L705 487L704 486M706 486L708 488L706 486M1037.67 486.333L1038.33 486.667L1037.67 486.333M347 487L348 488L347 487M397 487L398 488L397 487M453 487L454 488L453 487M470 487L471 488L470 487M502 487L503 488L502 487M565 487L566 488L565 487M638 487L639 488L638 487M791 487L792 488L791 487M924 487L925 488L924 487M946 487L949 490L949 489L946 487M975 487L976 488L975 487M983 487L984 488L983 487M341 488L342 489L341 488M368 488L370 490L370 488L368 488M383 488L384 489L383 488M391 488L392 489L391 488M567 488L567 489L570 489L570 488L567 488M589 488L590 489L589 488M739 488L740 489L739 488M752 488L753 489L752 488M879 488L881 490L881 488L879 488M971 488L972 489L971 488M1036 488L1037 489L1036 488M385 489L386 490L385 489M412 489L413 490L412 489M571 489L572 490L571 489M575.333 489.667L575.667 490.333L575.333 489.667M755 489L756 490L755 489M758 489L759 490L758 489M771 489L773 491L771 489M924 489L925 490L924 489M450 490L451 491L450 490M468.333 490.667L468.667 491.333L468.333 490.667M591 490L592 491L591 490M963 490L964 491L963 490M364 491L365 492L364 491M370 491L371 492L370 491M389 491L390 492L389 491M570 491L570 493L572 491L570 491M636 491L637 492L636 491M759 491L760 492L759 491M770 491L771 492L770 491M881 491L882 492L881 491M926 491L928 493L926 491M366 492L367 493L366 492M414 492L415 493L414 492M449 492L450 493L449 492M592 492L593 493L592 492M728 492L729 493L728 492M779 492L780 493L779 492M790 492L790 497L791 497L790 492M850 492L851 493L850 492M948 492L949 493L948 492M960 492L961 493L960 492M1033 492L1034 493L1033 492M322 493L323 494L322 493M369 493L370 494L369 493M392 493L393 494L392 493M625 493L626 494L625 493M731 493L732 494L731 493M950 493L949 495L950 493M995 493L996 494L995 493M415 494L417 496L415 494M568 494L569 495L568 494M734 494L736 496L734 494M850 494L852 496L850 494M347 495L348 496L347 495M363 495L363 498L364 498L363 495M547 495L548 496L547 495M585 495L586 496L585 495M595 495L596 496L595 495M603 495L604 496L603 495M608 495L609 496L608 495M619 495L621 497L619 495M624 495L625 496L624 495M679 495L680 496L679 495M765 495L766 496L765 495M929 495L931 497L929 495M324 496L325 497L324 496M396 496L397 497L396 496M462 496L463 497L462 496M477 496L478 497L477 496M479 496L480 497L479 496M499 496L500 497L499 496M549 496L550 497L549 496M610.667 496.333L611.333 496.667L610.667 496.333M617 496L618 497L617 496M677 496L678 497L677 496M950 496L951 497L950 496M347.667 497.333L348.333 497.667L347.667 497.333M496.333 497.667L496.667 498.333L496.333 497.667M737 497L739 499L737 497M999.667 497.333L1000.33 497.667L999.667 497.333M375 498L377 500L375 498M397 498L398 499L397 498M442 498L443 499L442 498M460 498L459 500L460 498M788 498L789 499L788 498M818 498L818 499L821 499L821 498L818 498M344.667 499.333L345.333 499.667L344.667 499.333M426.333 499.667L426.667 500.333L426.333 499.667M499 499L500 500L499 499M563 499L564 500L563 499M583 499L584 500L583 499M948 499L950 501L948 499M1020 499L1021 500L1020 499M326 500L329 502L329 501L326 500M338 500L340 502L338 500M384 500L385 501L384 500M400 500L401 501L400 500M436 500L437 501L436 500M443.667 500.333L444.333 500.667L443.667 500.333M474 500L475 501L474 500M555 500L556 501L555 500M926 500L929 502L929 501L926 500M1023 500L1024 501L1023 500M786 501L786 502L789 503L789 502L789 501L786 501M946 501L945 503L946 501M999 501L1000 502L999 501M337 502L338 503L337 502M349 502L350 503L349 502M737 502L738 503L737 502M821 502L821 504L823 502L821 502M330 503L331 504L330 503M403 503L405 505L403 503M410 503L411 504L410 503M423 503L424 504L423 503M439.333 503.667L439.667 504.333L439.333 503.667M473 503L474 504L473 503M699 503L700 504L699 503M780 503L781 504L780 503M335 504L336 505L335 504M337 504L338 505L337 504M364 504L365 505L364 504M389 504L390 505L389 504M401 504L402 505L401 504M406 504L407 505L406 504M451 504L452 505L451 504M529 504L530 505L529 504M778 504L779 505L778 504M916 504L917 505L916 504M945 504L946 505L945 504M990 506L993 505L990 506M349 505L350 506L349 505M422.333 505.667L422.667 506.333L422.333 505.667M474 505L475 506L474 505M531 505L532 506L531 505M696 505L697 506L696 505M363.333 506.667L363.667 507.333L363.333 506.667M389 506L389 507L392 508L389 506M437 506L439 508L437 506M502 506L503 507L502 506M620 506L622 508L620 506M694 506L695 507L694 506M776 506L775 508L776 506M945 506L946 507L945 506M333 507L334 508L333 507M350 507L351 508L350 507M383 507L384 508L383 507M385 507L385 509L387 507L385 507M500 507L501 508L500 507M523 507L524 508L523 507M791 507L792 508L791 507M824 507L825 508L824 507M913 507L914 508L913 507M947 507L948 508L947 507M978 507L979 508L978 507M427 508L428 509L427 508M536.667 508.333L537.333 508.667L536.667 508.333M690 508L691 509L690 508M724 508L725 509L724 508M786 508L787 509L786 508M949 509L949 510L953 511L951 508L949 509M976.333 508.667L976.667 509.333L976.333 508.667M355 509L355 510L359 510L359 509L355 509M392 509L393 510L392 509M410 509L411 510L410 509M675 509L676 510L675 509M793 509L795 511L795 509L793 509M336.667 510.333L337.333 510.667L336.667 510.333M380 510L381 511L380 510M477 510L478 511L477 510M504 510L505 511L504 510M583 510L584 511L583 510M617.667 510.333L618.333 510.667L617.667 510.333M954 510L955 511L954 510M957 510L958 511L957 510M411.333 511.667L411.667 512.333L411.333 511.667M615 511L616 512L615 511M626 511L627 512L626 511M740 511L741 512L740 511M858 511L857 513L858 511M912 511L911 514L912 514L912 511M339 512L340 513L339 512M536 512L535 514L536 512M672 512L673 513L672 512M716 514L719 513L716 514M730 512L731 513L730 512M796 512L797 513L796 512M798 512L799 513L798 512M881 512L882 513L881 512M507 513L508 514L507 513M510 513L511 514L510 513M584 513L585 514L584 513M768.667 513.333L769.333 513.667L768.667 513.333M611 514L612 515L611 514M677 514L678 515L677 514M739 514L740 515L739 514M828 514L829 515L828 514M888 514L889 515L888 514M890 514L892 516L890 514M366 515L367 516L366 515M479.667 515.333L480.333 515.667L479.667 515.333M508.333 515.667L508.667 516.333L508.333 515.667M534 515L535 516L534 515M584 515L585 516L584 515M608.667 515.333L609.333 515.667L608.667 515.333M716 515L715 517L716 515M763 515L764 516L763 515M765 515L766 516L765 515M800 515L801 516L800 515M802.667 515.333L803.333 515.667L802.667 515.333M913 515L914 516L913 515M954 515L955 516L954 515M351 516L352 517L351 516M368 516L369 517L368 516M380 516L381 519L382 519L380 516M494 516L495 517L494 516M593 516L594 517L593 516M677 516L678 517L677 516M893 516L894 517L893 516M586 517L587 518L586 517M738 517L739 518L738 517M806 517L807 518L806 517M492 518L494 520L492 518M588 518L589 519L588 518M593 518L592 520L593 518M680 518L682 520L680 518M748 518L749 519L748 518M758 518L759 519L758 518M804 518L805 519L804 518M872 518L873 519L872 518M875 518L876 519L875 518M895 518L895 519L898 520L895 518M342 519L343 520L342 519M348 519L346 523L347 523L348 519M733 519L734 520L733 519M832 519L833 520L832 519M911 519L912 520L911 519M370 520L372 522L372 520L370 520M480.333 520.667L480.667 521.333L480.333 520.667M504 520L505 521L504 520M589 520L590 521L589 520M635 520L636 521L635 520M637 520L638 521L637 520M749 520L750 521L749 520M753 520L754 521L753 520M761 520L762 521L761 520M971 520L972 521L971 520M665 521L666 522L665 521M667 521L668 522L667 521M733 521L734 522L733 521M834 521L835 522L834 521M875 521L876 522L875 521M907 521L905 524L907 521M969 521L970 522L969 521M341 522L344 524L344 523L341 522M591 522L592 523L591 522M639 522L641 524L639 522M691.333 522.667L691.667 523.333L691.333 522.667M839 522L841 524L839 522M482 523L483 527L484 527L482 523M515 523L516 524L515 523M898 523L899 527L900 527L900 523L898 523M970 523L971 524L970 523M488.333 524.667L488.667 525.333L488.333 524.667M535 524L536 525L535 524M649 524L650 525L649 524M784 524L785 525L784 524M926 524L927 525L926 524M344 525L345 526L344 525M377.333 525.667L377.667 526.333L377.333 525.667M490 525L491 526L490 525M655 525L656 526L655 525M659 525L660 526L659 525M689 525L690 526L689 525M808 525L809 526L808 525M843 525L844 526L843 525M902 525L901 527L902 525M379 526L380 527L379 526M382 526L383 527L382 526M512 526L513 527L512 526M594 526L595 527L594 526M647 526L648 527L647 526M932 526L933 527L932 526M476 527L477 528L476 527M514 527L515 528L514 527M807 527L808 528L807 527M843 527L844 528L843 527M875.667 527.333L876.333 527.667L875.667 527.333M925 527L926 528L925 527z"/>
<path style="fill:#161616; stroke:none;" d="M389 528L390 529L389 528z"/>
<path style="fill:#0c0c0d; stroke:none;" d="M412 528L411 530L412 528M522 528L523 529L522 528M592 528L593 529L592 528M965 528L964 530L965 528M493 529L494 530L493 529M539 529L540 530L539 529M875.333 529.667L875.667 530.333L875.333 529.667M902 529L903 530L902 529M341 530L340 532L341 530M762 530L763 531L762 530M845 530L846 531L845 530M936 530L938 532L936 530M405 531L407 533L405 531M408 531L409 532L408 531M494 531L495 532L494 531M736 531L737 532L736 531M806 531L807 532L806 531M901 531L902 532L901 531M390.333 532.667L390.667 533.333L390.333 532.667M475.333 532.667L475.667 533.333L475.333 532.667M588 532L587 534L588 532M648 532L649 533L648 532M699 532L700 533L699 532M760 532L762 534L760 532M847 532L848 533L847 532M915 532L916 533L915 532M935.333 532.667L935.667 533.333L935.333 532.667M399 533L400 534L399 533M412.333 533.667L412.667 534.333L412.333 533.667M650 533L651 534L650 533M346 534L347 535L346 534M394 534L395 535L394 534M396 534L397 535L396 534M699 534L700 535L699 534M701 534L702 535L701 534M937 534L938 535L937 534M472.667 535.333L473.333 535.667L472.667 535.333M864.667 535.333L865.333 535.667L864.667 535.333M401 536L402 537L401 536M417 536L418 537L417 536M496 536L498 541L499 541L496 536M530.667 536.333L531.333 536.667L530.667 536.333M624 536L625 537L624 536M807 536L809 538L807 536M940.333 536.667L940.667 537.333L940.333 536.667M959 536L960 537L959 536M516 537L515 539L517 539L516 537M543 537L544 538L543 537M571.667 537.333L572.333 537.667L571.667 537.333M651.333 537.667L651.667 538.333L651.333 537.667M681 537L682 538L681 537M326 538L327 539L326 538M532 538L533 539L532 538M703 538L700 539L700 540L704 539L703 538M884 538L885 541L886 541L884 538M954 538L953 540L954 538M543 539L544 540L543 539M732 539L731 541L733 541L732 539M784 539L785 540L784 539M869 539L870 540L869 539M325 540L326 541L325 540M327 540L328 541L327 540M396 540L397 541L396 540M529 540L530 541L529 540M568 540L569 541L568 540M587 540L588 541L587 540M811 540L812 541L811 540M618 541L619 542L618 541M705 541L706 542L705 541M785 541L786 542L785 541M868 541L870 543L868 541M887 541L888 542L887 541M925 541L926 542L925 541M498 542L498 545L499 545L498 542M611.667 542.333L612.333 542.667L611.667 542.333M615 542L616 543L615 542M621 542L622 543L621 542M682 542L684 544L682 542M820 542L821 543L820 542M367 543L366 545L367 543M392 543L393 544L392 543M471 543L472 544L471 543M483 543L484 544L483 543M511 543L510 545L511 543M528 543L529 544L528 543M609 543L610 544L609 543M729 543L730 544L729 543M888 543L889 544L888 543M324 544L323 547L324 547L324 544M331.333 544.667L331.667 545.333L331.333 544.667M372 544L373 545L372 544M390 544L391 545L390 544M416 544L417 545L416 544M537 544L538 545L537 544M711 544L712 545L711 544M727 544L728 545L727 544M761.667 544.333L762.333 544.667L761.667 544.333M788.667 544.333L789.333 544.667L788.667 544.333M874 544L875 545L874 544M900 544L901 545L900 544M926 544L927 545L926 544M333 545L334 546L333 545M482 545L483 546L482 545M508 545L509 546L508 545M540 545L541 546L540 545M683 545L684 546L683 545M713 545L714 546L713 545M825 545L826 546L825 545M895 545L896 546L895 545M351 546L352 547L351 546M362 546L363 547L362 546M388 546L389 547L388 546M416 546L417 547L416 546M468 546L469 547L468 546M527 546L526 548L527 546M545 546L546 547L545 546M591 546L592 547L591 546M738 546L739 547L738 546M762 546L763 547L762 546M335 547L336 548L335 547M566 547L564 550L566 547M587 547L588 548L587 547M700 547L701 548L700 547M715 547L716 548L715 547M820 547L818 548L818 549L820 547M879 547L880 548L879 547M890 547L891 548L890 547M356 548L357 549L356 548M467 548L469 550L467 548M472 548L473 549L472 548M499 548L500 549L499 548M545.667 548.333L546.333 548.667L545.667 548.333M601 548L602 549L601 548M888 548L889 549L888 548M358 549L357 551L358 549M360 549L361 550L360 549M415 549L416 550L415 549M455 549L456 550L455 549M503 549L504 550L503 549M505 549L506 550L505 549M594 549L593 551L594 549M363.333 550.667L363.667 551.333L363.333 550.667M388 550L389 551L388 550M500 550L501 551L500 550M523 550L520 554L523 550M537 550L538 551L537 550M548.333 550.667L548.667 551.333L548.333 550.667M597.333 550.667L597.667 551.333L597.333 550.667M359 551L358 553L359 551M413 551L414 552L413 551M423 551L422 552L422 553L423 554L424 554L425 553L425 552L423 551M744 551L746 553L744 551M815 551L816 552L815 551M366.333 552.667L366.667 553.333L366.333 552.667M386 552L385 556L386 552z"/>
<path style="fill:#010101; stroke:none;" d="M423 552L424 553L423 552z"/>
<path style="fill:#0c0c0d; stroke:none;" d="M449 552L450 553L449 552M452 552L453 553L452 552M494 552L495 553L494 552M538 552L539 553L538 552M651 552L652 553L651 552M700 552L701 553L700 552M791 552L792 553L791 552M813 552L815 554L813 552M558 553L559 554L558 553M596 553L597 554L596 553M324 554L323 556L324 554M490 554L491 555L490 554M539 554L540 555L539 554M541 554L542 555L541 554M549 554L549 556L551 554L549 554M556 554L557 555L556 554M411 555L410 558L411 558L411 555M424.667 555.333L425.333 555.667L424.667 555.333M518 555L519 558L520 558L520 555L518 555M596 555L597 556L596 555M599 555L603 558L603 557L599 555M654 555L655 556L654 555M674 555L674 557L676 557L674 555M699.333 555.667L699.667 556.333L699.333 555.667M745 555L747 557L745 555M316 556L317 557L316 556M358 556L359 557L358 556M486 556L487 557L486 556M542.667 556.333L543.333 556.667L542.667 556.333M558 556L560 558L558 556M756 556L757 557L756 556M764 556L765 557L764 556M367 557L368 558L367 557M375 557L376 558L375 557M424 557L422 561L423 561L424 557M550 557L551 558L550 557M552 557L553 558L552 557M663 557L664 558L663 557M754 557L755 558L754 557M359 558L360 559L359 558M380 558L381 559L380 558M384 558L385 559L384 558M485 558L486 559L485 558M544 558L545 559L544 558M742 558L743 559L742 558M744 558L746 560L744 558M747 558L748 559L747 558M299 559L300 560L299 559M304 559L305 560L304 559M315 559L316 560L315 559M369 559L370 560L369 559M387 559L388 560L387 559M482 559L483 560L482 559M517 559L518 560L517 559M663 559L664 560L663 559M697 559L696 563L697 563L697 559M765 559L766 560L765 559M794 559L795 560L794 559M443 562L446 560L443 562M480 560L481 561L480 560M648 560L650 563L648 560M797 560L796 562L797 560M315 561L316 562L315 561M387.667 561.333L388.333 561.667L387.667 561.333M472 561L471 563L472 561M395 562L396 563L395 562M596 562L597 563L596 562M598 562L599 563L598 562M299.333 563.667L299.667 564.333L299.333 563.667M313 563L314 564L313 563M402 563L401 565L402 563M418 563L419 564L418 563M427 563L428 564L427 563M444 563L446 565L444 563M447 563L448 564L447 563M453.667 563.333L454.333 563.667L453.667 563.333M537.667 563.333L538.333 563.667L537.667 563.333M562 563L563 564L562 563M624 563L625 564L624 563M763 563L764 564L763 563M800.667 563.333L801.333 563.667L800.667 563.333M306 564L307 565L306 564M379 564L380 565L379 564M404.667 564.333L405.333 564.667L404.667 564.333M460 564L461 565L460 564M626 564L625 565L625 566L626 567L627 567L628 566L628 565L626 564M536 565L537 566L536 565M597 565L598 566L597 565z"/>
<path style="fill:#010101; stroke:none;" d="M626 565L627 566L626 565z"/>
<path style="fill:#0c0c0d; stroke:none;" d="M739 565L740 566L739 565M315 566L316 567L315 566M419 566L420 567L419 566M428 566L430 568L428 566M442 566L443 567L442 566M560 566L559 568L560 566M602 566L603 567L602 566M649 566L650 567L649 566M376.333 567.667L376.667 568.333L376.333 567.667M392 567L393 568L392 567M394 567L395 568L394 567M533 567L533 569L535 569L533 567M599 567L600 568L599 567M617 567L618 568L617 567M693 567L694 568L693 567M310 568L312 570L312 568L310 568M325 568L326 569L325 568M358 568L359 569L358 568M422 568L422 572L423 572L422 568M603 568L604 569L603 568M648 568L649 569L648 568M373 569L375 571L373 569M398 569L399 570L398 569M794 569L793 571L794 569M436 570L437 571L436 570M647.333 570.667L647.667 571.333L647.333 570.667M761 570L762 571L761 570M292 572L292 573L295 573L292 572M323 571L324 572L323 571M356 571L356 573L358 573L356 571M398 571L399 572L398 571M400.333 571.667L400.667 572.333L400.333 571.667M532 571L533 572L532 571M683 571L684 572L683 571M716 571L717 572L716 571M301 572L302 573L301 572M393 572L392 574L393 572M395 572L396 573L395 572M436 572L437 573L436 572M509 572L511 574L511 572L509 572M530 572L531 573L530 572M556 572L557 573L556 572M582 572L583 573L582 572M644 572L643 574L644 572M763 572L764 573L763 572M790 572L791 573L790 572M323 573L322 576L323 573M403 573L403 576L404 576L403 573M634.667 573.333L635.333 573.667L634.667 573.333M292 574L291 576L292 574M304.333 574.667L304.667 575.333L304.333 574.667M435.333 574.667L435.667 575.333L435.333 574.667M467 574L468 575L467 574M469 574L470 575L469 574M474 574L473 576L474 574M490 574L491 575L490 574M528 574L529 575L528 574M580 574L581 575L580 574M640 574L641 575L640 574M653 574L654 575L653 574M721 574L720 576L722 576L721 574M288 575L289 576L288 575M302 575L303 576L302 575M319 575L320 576L319 575M355 575L356 576L355 575M478 575L479 576L478 575M510 575L511 576L510 575M645 575L646 576L645 575M786 575L787 576L786 575M372.667 576.333L373.333 576.667L372.667 576.333M386 576L386 577L389 577L386 576M480 576L482 578L480 576M528 576L529 577L528 576M680 576L681 577L680 576M305 577L307 579L305 577M324 577L325 578L324 577M419 577L420 578L419 577M525.667 577.333L526.333 577.667L525.667 577.333M642 577L643 578L642 577M662 577L663 578L662 577M368 578L369 579L368 578M512 578L513 579L512 578M552 578L553 579L552 578M645 578L646 579L645 578M667.333 578.667L667.667 579.333L667.333 578.667M309 579L310 580L309 579M363 579L364 580L363 579M373.667 579.333L374.333 579.667L373.667 579.333M384.667 579.333L385.333 579.667L384.667 579.333M408 579L409 580L408 579M647 579L648 580L647 579M678 579L679 580L678 579M719 579L720 582L721 582L719 579M732 579L732 581L734 579L732 579M781 579L780 581L781 579M416 580L417 581L416 580M552 580L553 581L552 580M570 580L568 583L570 580M572 580L573 581L572 580M642 581L642 582L646 581L642 581M669 580L670 581L669 580M328 581L329 582L328 581M375.667 581.333L376.333 581.667L375.667 581.333M514 581L515 582L514 581M675 581L676 582L675 581M697 581L696 583L697 581M466 582L464 583L464 584L466 582M699 582L700 583L699 582M732 582L731 584L732 582M411 583L412 584L411 583M514 583L515 584L514 583M627 583L628 584L627 583M702 583L701 585L702 583M712 583L713 584L712 583M258.667 584.333L259.333 584.667L258.667 584.333M331 584L332 585L331 584M550 584L551 585L550 584M624 584L625 585L624 584M385 585L386 586L385 585M400 585L401 586L400 585M408.667 585.333L409.333 585.667L408.667 585.333M447 585L448 586L447 585M548 585L549 586L548 585M255 586L256 587L255 586M462 586L462 588L464 586L462 586M520 586L521 587L520 586M648 586L648 589L649 589L648 586M664.333 586.667L664.667 587.333L664.333 586.667M731 586L732 587L731 586M387 587L387 588L390 588L387 587M400 587L401 588L400 587M403 587L404 588L403 587M437 587L438 588L437 587M547 587L548 588L547 587M711.333 587.667L711.667 588.333L711.333 587.667M252 588L253 589L252 588M343 588L344 589L343 588M405 588L407 590L405 588M408 588L409 589L408 588M440 588L441 589L440 588M452 588L453 589L452 588M455 588L456 589L455 588M565 588L566 589L565 588M651 588L652 589L651 588M656 588L657 589L656 588M729 588L729 592L730 592L729 588M384 589L385 590L384 589M457 589L458 590L457 589M524 589L525 590L524 589M724 589L723 591L724 589M771 589L772 590L771 589M251 590L252 591L251 590M648 590L649 591L648 590M715 590L716 591L715 590M344 591L345 592L344 591M375 591L374 593L375 591M433 591L434 592L433 591M771 591L772 592L771 591M248 592L249 593L248 592M563 592L564 593L563 592M643 592L642 594L643 592M710 592L711 593L710 592M724 592L725 593L724 592M523 593L524 594L523 593M768 593L765 597L768 593M403 594L403 595L406 596L403 594M620 594L622 596L620 594M640 594L641 595L640 594M665 594L666 595L665 594M247 595L248 596L247 595M320 595L321 596L320 595M407 595L411 598L411 597L407 595M522 595L523 596L522 595M687 595L688 596L687 595M708.333 595.667L708.667 596.333L708.333 595.667M301 596L302 597L301 596M398 596L399 597L398 596M636 596L637 597L636 596M685 596L684 598L685 596M730 596L731 597L730 596M258 597L259 598L258 597M267 597L268 598L267 597M299 597L300 598L299 597M318 597L319 598L318 597M323 597L324 598L323 597M348 597L349 598L348 597z"/>
<path style="fill:#01071d; stroke:none;" d="M390 597L390 598L397 598L390 597M398 597L399 598L398 597z"/>
<path style="fill:#0c0c0d; stroke:none;" d="M521 597L522 598L521 597M618 597L617 599L618 597M650 597L651 598L650 597M246 598L247 599L246 598z"/>
<path style="fill:#01071d; stroke:none;" d="M399 598L400 599L399 598z"/>
<path style="fill:#0c0c0d; stroke:none;" d="M400 598L401 599L400 598M587 598L588 599L587 598M620 598L619 600L620 598M297 599L298 600L297 599M315.333 599.667L315.667 600.333L315.333 599.667M328 599L329 600L328 599z"/>
<path style="fill:#011021; stroke:none;" d="M387 599L388 600L387 599M400.333 599.667L400.667 600.333L400.333 599.667z"/>
<path style="fill:#0c0c0d; stroke:none;" d="M411 599L412 600L411 599M458 599L459 600L458 599M585 599L586 600L585 599M591 599L592 600L591 599M635 599L636 600L635 599M720 599L721 600L720 599M734 599L735 600L734 599M743 599L744 600L743 599M305 600L306 601L305 600M313 600L314 601L313 600M374 600L376 602L374 600z"/>
<path style="fill:#01071d; stroke:none;" d="M387 600L386 602L388 602L387 600z"/>
<path style="fill:#0c0c0d; stroke:none;" d="M430 600L431 601L430 600M503 600L504 601L503 600M508 600L509 601L508 600M536 600L537 601L536 600M560 600L561 601L560 600M578 600L579 601L578 600M580 600L581 601L580 600M633 600L632 602L633 600M651 600L653 602L651 600M680 600L681 601L680 600M764 600L765 601L764 600M337 601L336 603L337 601z"/>
<path style="fill:#01071d; stroke:none;" d="M401 601L401 604L402 604L401 601z"/>
<path style="fill:#0c0c0d; stroke:none;" d="M675 601L676 602L675 601M723 601L724 602L723 601M747 601L748 602L747 601M269 602L270 603L269 602M331 602L332 603L331 602M339 602L340 603L339 602z"/>
<path style="fill:#011021; stroke:none;" d="M386 602L387 603L386 602M401 602L402 603L401 602z"/>
<path style="fill:#0c0c0d; stroke:none;" d="M411 602L412 603L411 602M460 602L460 605L461 605L460 602M514 602L515 603L514 602M534 602L535 603L534 602M576 602L577 603L576 602M744 602L745 603L744 602z"/>
<path style="fill:#01071d; stroke:none;" d="M385.667 603.333L386.333 603.667L385.667 603.333z"/>
<path style="fill:#0c0c0d; stroke:none;" d="M427 603L428 604L427 603M429 603L430 604L429 603M479 603L480 604L479 603M615 603L616 604L615 603M730 603L731 604L730 603M760 603L760 606L761 606L762 603L760 603M271.667 604.333L272.333 604.667L271.667 604.333M346 604L347 605L346 604z"/>
<path style="fill:#011021; stroke:none;" d="M386 604L387 605L386 604z"/>
<path style="fill:#0c0c0d; stroke:none;" d="M476 604L477 605L476 604M558 604L559 605L558 604M613 604L614 605L613 604M701 604L700 606L701 604M723.667 604.333L724.333 604.667L723.667 604.333M749 604L750 605L749 604M298 605L299 606L298 605M300 605L301 606L300 605M343 605L344 606L343 605z"/>
<path style="fill:#01071d; stroke:none;" d="M385.333 605.667L385.667 606.333L385.333 605.667M401 605L401 607L403 605L401 605z"/>
<path style="fill:#0c0c0d; stroke:none;" d="M413 605L414 606L413 605M731 605L732 606L731 605M273 606L276 608L276 607L273 606M423 606L424 607L423 606M554 606L555 607L554 606M610 606L611 607L610 606M623 606L622 608L623 606M750 606L752 608L752 606L750 606M280 607L279 609L280 607M338 607L339 608L338 607M344 607L345 608L344 607z"/>
<path style="fill:#01071d; stroke:none;" d="M386.333 607.667L386.667 608.333L386.333 607.667z"/>
<path style="fill:#0c0c0d; stroke:none;" d="M420.667 607.333L421.333 607.667L420.667 607.333M471 607L472 608L471 607M573.333 607.667L573.667 608.333L573.333 607.667M721 607L722 608L721 607M723 607L724 608L723 607M334.667 608.333L335.333 608.667L334.667 608.333M378 608L379 609L378 608z"/>
<path style="fill:#011021; stroke:none;" d="M400 608L401 609L400 608z"/>
<path style="fill:#0c0c0d; stroke:none;" d="M552 608L553 609L552 608M606 608L607 609L606 608M283 609L284 610L283 609M285 609L286 610L285 609M344 609L345 610L344 609z"/>
<path style="fill:#011021; stroke:none;" d="M387 609L388 610L387 609z"/>
<path style="fill:#01071d; stroke:none;" d="M400 609L401 610L400 609z"/>
<path style="fill:#0c0c0d; stroke:none;" d="M420 609L422 611L420 609M531 609L533 611L531 609M692 609L693 610L692 609M753 609L754 610L753 609M364 610L365 611L364 610M366 610L366 611L370 612L370 611L366 610M376.333 610.667L376.667 611.333L376.333 610.667z"/>
<path style="fill:#01071d; stroke:none;" d="M388 610L389 611L388 610M395 613L399 611L395 613z"/>
<path style="fill:#0c0c0d; stroke:none;" d="M467 610L468 611L467 610M552 610L553 611L552 610M683 610L684 611L683 610M331 611L332 612L331 611z"/>
<path style="fill:#011021; stroke:none;" d="M389 611L390 612L389 611M395 611L396 612L395 611z"/>
<path style="fill:#0c0c0d; stroke:none;" d="M465 611L466 612L465 611M547 611L548 612L547 611M603 611L602 613L603 611M660 611L661 612L660 611M719 611L718 613L719 611M755 611L756 612L755 611M273 612L274 613L273 612z"/>
<path style="fill:#01071d; stroke:none;" d="M390.333 612.667L390.667 613.333L390.333 612.667z"/>
<path style="fill:#011021; stroke:none;" d="M391 612L392 613L391 612z"/>
<path style="fill:#01071d; stroke:none;" d="M392.667 612.333L393.333 612.667L392.667 612.333z"/>
<path style="fill:#0c0c0d; stroke:none;" d="M550 612L551 613L550 612M737 612L736 614L737 612M534 613L535 614L534 613M599 613L600 614L599 613M621 613L622 614L621 613M715.667 613.333L716.333 613.667L715.667 613.333M375.667 614.333L376.333 614.667L375.667 614.333M391 614L392 615L391 614M421 614L422 617L421 614M424 614L426 616L424 614M542 614L543 615L542 614M551 614L552 615L551 614M571 614L572 615L571 614M327 615L326 618L327 615M459 615L460 616L459 615M568 615L569 616L568 615M621 615L622 616L621 615M271.667 616.333L272.333 616.667L271.667 616.333M397 616L398 617L397 616M399 616L400 617L399 616M427 616L428 617L427 616M456 616L455 618L456 616M594 616L595 617L594 616M738 616L739 617L738 616M753 616L754 617L753 616M374 617L375 618L374 617M401 617L402 618L401 617M417 617L418 618L417 617M538.667 617.333L539.333 617.667L538.667 617.333M375 619L376 620L375 619M404 619L405 623L406 623L404 619M591 619L592 620L591 619M251 620L252 621L251 620M538 620L540 622L540 620L538 620M664 620L665 621L664 620M720 620L722 622L720 620M589 621L588 624L589 624L589 621M724 621L725 622L724 621M727 621L728 622L727 621M740 621L741 622L740 621M304 622L305 623L304 622M323 623L324 624L323 623M447 623L448 624L447 623M542 623L543 624L542 623M667 623L668 624L667 623M269 624L270 625L269 624M431 624L432 625L431 624M620.667 624.333L621.333 624.667L620.667 624.333M748 624L749 625L748 624M322 625L323 626L322 625M381 626L382 627L381 626M545 626L544 628L545 626M587.333 626.667L587.667 627.333L587.333 626.667M619 626L620 627L619 626M267 627L269 629L267 627M747 627L748 628L747 627M302 628L303 629L302 628M667 628L668 629L667 628M745 628L746 629L745 628M556 629L556 630L561 631L561 630L556 629M587 629L588 630L587 629M612.333 629.667L612.667 630.333L612.333 629.667M303 630L304 631L303 630M433 630L433 631L436 631L436 630L433 630M437 630L437 631L440 631L440 630L437 630M663 630L662 632L664 632L663 630M665 630L666 631L665 630M585 632L586 633L585 632M609 632L608 634L609 632M660 632L661 633L660 632M744 632L745 633L744 632M388 633L389 634L388 633M408 633L408 634L413 636L413 635L408 633M666 633L667 634L666 633M246 635L247 636L246 635M568.333 635.667L568.667 636.333L568.333 635.667M668 635L669 636L668 635M719 635L720 636L719 635M581.333 636.667L581.667 637.333L581.333 636.667M608 636L609 637L608 636M656 636L657 637L656 636M717 636L718 637L717 636M391 638L392 639L391 638M579 638L580 639L579 638M728 638L729 639L728 638M315 639L316 640L315 639M605 639L607 641L605 639M672 639L673 640L672 639M711 639L712 640L711 639M244 640L245 641L244 640M263 640L264 641L263 640M303.667 640.333L304.333 640.667L303.667 640.333M405 640L406 641L405 640M578 640L579 641L578 640M698 640L698 641L701 641L698 640M734 640L735 641L734 640M740 640L741 641L740 640M306.667 641.333L307.333 641.667L306.667 641.333M412 641L413 642L412 641M696 641L697 642L696 641M703 641L704 642L703 641M243 643L244 644L243 643M295 643L296 644L295 643M423 643L420 647L421 647L424 644L423 643M578 643L579 644L578 643M604 643L605 644L604 643M738 643L737 645L738 643M265 644L266 645L265 644M293 644L294 645L293 644M393 644L394 645L393 644M602 644L603 645L602 644M684 644L684 646L686 644L684 644M310 645L311 646L310 645M580 645L581 646L580 645M677 645L679 647L677 645M313 646L314 647L313 646M600 646L601 647L600 646M415 647L416 648L415 647M582 647L584 649L582 647M292 648L293 649L292 648M312 648L313 649L312 648M419 648L420 649L419 648M585 648L586 649L585 648M680 649L681 650L680 649M588 650L589 651L588 650M242 651L243 652L242 651M289 651L290 652L289 651M414 651L414 654L415 654L414 651M683 651L684 652L683 651M733 651L734 652L733 651M240 652L241 653L240 652M286 652L287 653L286 652M397 652L398 653L397 652M412 652L413 653L412 652M595 653L593 654L593 655L595 653M403.667 654.333L404.333 654.667L403.667 654.333M411 654L410 657L411 654M686 654L687 655L686 654M238 655L239 656L238 655M283 655L284 656L283 655M396 655L397 656L396 655M649 655L650 656L649 655M731.333 655.667L731.667 656.333L731.333 655.667M271 656L272 657L271 656M687 656L688 657L687 656M283 657L284 658L283 657M399 657L400 658L399 657M408 657L409 658L408 657M401 659L401 660L404 660L401 659M690 658L689 660L690 658M240 659L239 661L240 659M282 659L283 660L282 659M408 659L409 660L408 659M729 660L730 661L729 660M277 662L276 664L277 662M692 663L694 665L692 663M727 663L728 664L727 663M607 664L608 665L607 664M275.333 665.667L275.667 666.333L275.333 665.667M607 666L609 668L607 666M695 666L696 667L695 666M315 668L316 669L315 668M317 668L318 669L317 668M648 668L649 669L648 668M696.333 668.667L696.667 669.333L696.333 668.667M698 669L699 670L698 669M645 671L646 672L645 671M700 671L701 672L700 671M643 672L644 673L643 672M696 672L697 673L696 672M249 673L251 675L249 673M272 673L273 674L272 673M270 674L271 675L270 674M274 674L275 675L274 674M616 674L617 675L616 674M634 675L635 676L634 675M693 675L692 677L693 675M326 676L327 677L326 676M619 676L620 677L619 676M703 676L704 677L703 676M268 677L267 680L268 677M633 677L634 678L633 677M328 678L330 680L328 678M683 678L684 679L683 678M704 678L704 680L706 678L704 678M633 679L634 680L633 679M680.667 679.333L681.333 679.667L680.667 679.333z"/>
<path style="fill:#161616; stroke:none;" d="M266 680L267 681L266 680z"/>
<path style="fill:#0c0c0d; stroke:none;" d="M706 680L707 681L706 680M332 681L332 686L335 684L332 681M632 681L633 682L632 681M671.667 681.333L672.333 681.667L671.667 681.333M257 683L258 684L257 683M707 683L708 684L707 683M636 684L637 685L636 684M666 684L667 685L666 684M710.333 684.667L710.667 685.333L710.333 684.667M712 684L714 686L712 684M715 685L716 686L715 685M725 687L728 686L725 687M329.667 686.333L330.333 686.667L329.667 686.333M704 686L705 687L704 686M717 687L717 688L720 688L717 687M327 687L328 688L327 687M338 687L339 688L338 687M263 689L264 690L263 689M370 690L371 691L370 690M359 691L359 692L362 692L359 691M343 692L344 693L343 692M375 692L376 693L375 692M651 692L652 693L651 692M663 692L664 693L663 692M353 694L352 696L353 694M355 694L356 695L355 694M272 695L273 696L272 695M304 695L305 696L304 695M330.333 695.667L330.667 696.333L330.333 695.667M707 695L708 696L707 695M276 697L277 698L276 697M379 697L380 698L379 697M278 699L279 700L278 699M377 699L376 701L378 701L377 699M381 699L382 700L381 699M290.667 700.333L291.333 700.667L290.667 700.333M294 700L295 701L294 700M307 700L308 701L307 700M331 700L332 701L331 700M706 700L707 701L706 700M288 701L289 702L288 701M703 702L704 703L703 702M284 703L281 704L281 705L283 707L284 707L284 703M308 703L309 704L308 703M370 703L371 704L370 703M384 703L385 704L384 703M691 703L692 704L691 703M705 703L706 704L705 703M688 704L689 705L688 704M701.667 704.333L702.333 704.667L701.667 704.333M311.667 705.333L312.333 705.667L311.667 705.333M332 705L333 706L332 705M364 705L365 706L364 705M685 705L684 707L685 705M318 706L320 708L318 706M367 706L366 708L367 706M724 706L725 707L724 706M309 707L310 708L309 707M321.333 707.667L321.667 708.333L321.333 707.667M332 707L331 710L332 710L332 707M368 708L369 709L368 708M370 708L372 710L370 708M690 708L690 709L693 709L693 708L690 708M285 709L284 711L285 709M310 709L309 711L310 709M389.333 709.667L389.667 710.333L389.333 709.667M328 710L329 711L328 710M311 711L311 715L312 715L311 711M371 711L372 712L371 711M286 712L287 713L286 712M367.333 712.667L367.667 713.333L367.333 712.667M392 712L394 715L392 712M334 713L335 714L334 713M698 713L699 714L698 713M376 714L378 716L376 714M287 715L288 716L287 715M356 715L357 716L356 715M390 715L392 717L390 715M700.333 715.667L700.667 716.333L700.333 715.667M719 715L720 716L719 715M312.333 716.667L312.667 717.333L312.333 716.667M361 716L362 717L361 716M352 719L355 717L352 719M702 717L701 719L703 719L702 717M391 718L392 719L391 718M348 719L349 720L348 719M378 719L379 720L378 719M310 720L311 721L310 720M703 720L704 721L703 720M718 720L719 721L718 720M308 722L309 723L308 722M337 722L336 724L337 722M351 722L351 723L354 724L351 722M397 722L398 723L397 722M706 722L706 724L708 724L706 722M716 722L715 726L716 722M303 723L304 724L303 723M301 724L302 725L301 724M299 725L300 726L299 725M306 725L307 726L306 725M335 725L336 726L335 725M399 725L400 726L399 725M289 726L290 727L289 726M716 727L714 730L716 727M303 728L304 729L303 728M384.667 728.333L385.333 728.667L384.667 728.333M300 729L301 730L300 729M402 729L403 730L402 729M405 729L406 730L405 729M336 731L337 732L336 731M382 731L381 733L382 731M713 731L715 733L713 731M294 732L296 734L294 732M360 732L361 733L360 732M411 733L412 734L411 733M297 734L298 735L297 734M363 735L364 736L363 735M418 735L419 736L418 735M298 736L300 738L300 736L298 736M302 738L303 739L302 738M378.667 738.333L379.333 738.667L378.667 738.333M424 739L425 740L424 739M336 740L337 741L336 740M287 741L288 742L287 741M304 742L305 743L304 742M286 743L287 744L286 743M333 743L332 746L333 743M371.333 744.667L371.667 745.333L371.333 744.667M303 745L302 748L303 745M368 745L369 746L368 745M312 747L313 748L312 747M370 747L371 748L370 747M300 748L299 750L300 748M296 750L297 751L296 750M369 750L370 751L369 750M279 751L280 752L279 751M325 751L326 752L325 751M367 751L368 752L367 751M315 752L317 754L315 752M332 752L334 754L332 752M360 752L361 753L360 752M291 753L292 754L291 753M357 753L358 754L357 753M339 754L338 756L339 754M432 755L433 756L432 755M434.333 755.667L434.667 756.333L434.333 755.667M283 756L284 757L283 756M318 756L319 757L318 756M344 757L345 758L344 757M425 757L426 758L425 757M280 758L281 759L280 758M321 759L322 760L321 759M344 759L345 760L344 759M367 759L366 762L367 759M369 759L370 760L369 759M424.333 759.667L424.667 760.333L424.333 759.667M377 760L378 761L377 760M382 760L382 761L385 761L385 760L382 760M277 761L278 762L277 761M346 761L348 764L346 761M350.333 763.667L350.667 764.333L350.333 763.667M352 763L353 764L352 763M366 763L366 766L367 766L366 763M423 763L424 764L423 763M347 765L348 766L347 765M345 767L346 768L345 767M366 767L367 768L366 767M317 769L318 770L317 769M273 770L272 772L273 770M314.333 770.667L314.667 771.333L314.333 770.667M403 770L405 772L403 770M415 770L416 771L415 770M343 771L342 773L343 771M310 774L311 778L312 778L312 774L310 774M340 774L341 775L340 774M331 775L329 776L329 777L331 775M269 779L270 780L269 779M309 779L308 781L310 781L309 779M312 779L314 781L314 779L312 779M328 780L329 781L328 780M330 782L331 783L330 782M269 784L268 786L270 786L269 784M268 787L269 788L268 787M276 788L278 790L276 788M283 792L284 793L283 792M298.667 792.333L299.333 792.667L298.667 792.333M316 794L316 797L317 797L316 794M286 795L287 796L286 795M296.667 795.333L297.333 795.667L296.667 795.333M305 795L306 796L305 795M331 796L330 798L331 796M317 798L318 799L317 798M329 800L330 801L329 800M269 802L270 803L269 802M329 802L330 803L329 802M270 804L271 805L270 804M328 804L329 805L328 804M297 805L298 806L297 805M319 805L320 806L319 805M310 812L311 813L310 812M298 814L299 815L298 814M308 814L307 816L308 814M276 819L277 820L276 819M299 821L300 822L299 821M278 823L279 824L278 823M288.333 824.667L288.667 825.333L288.333 824.667M299 824L300 825L299 824M290 825L290 826L293 827L290 825M294 827L296 830L294 827M296 827L297 828L296 827z"/>
</svg>
