<?xml version="1.0" standalone="yes"?>
<svg xmlns="http://www.w3.org/2000/svg" width="1231" height="874">
<path style="fill:#010101; stroke:none;" d="M0 0L0 874L1231 874L1231 0L0 0z"/>
<path style="fill:#ffffff; stroke:none;" d="M508 467C505.258 470.258 504.091 472.031 506 476L503 477C506.144 485.693 500.37 488.976 499.951 497C499.464 506.312 507.296 513.529 516 514C517.086 511.777 518.094 510.339 520.059 508.745C522.671 506.624 526.369 503.394 529.985 503.88C536.854 504.802 540.859 513.376 548.941 510.103C554.969 507.661 553.625 499.807 548.941 496.88C542.027 492.56 530.97 493.342 523 493L523 479L508 467z"/>
</svg>
