<?xml version="1.0" standalone="yes"?>
<svg xmlns="http://www.w3.org/2000/svg" width="1450" height="1450">
<path style="fill:#010101; stroke:none;" d="M0 0L0 1450L1450 1450L1450 0L0 0z"/>
<path style="fill:#ffffff; stroke:none;" d="M882 474L891 484L869 495C884.667 500.912 901.516 510.412 905.607 528C907.334 535.423 904.268 543.251 907.596 550.625C910.382 556.8 921.395 571.45 927.105 574.697C932.345 577.677 938.671 576.701 944 578.934C950.681 581.735 955.564 584.999 963 586C957.844 594.836 957.912 601.049 963 610L959 612C963.318 622.178 974.008 617.908 983 621L983 622C979.509 624.162 979.391 626.066 980 630C973.076 629.428 962.75 626.802 956.015 629.241C950.596 631.203 941.358 647.709 939 653L952.996 647.515L964.015 653.942L979 654C980.018 660.389 983.383 663.785 990 663C990.744 672.028 995.896 677.817 1001 668C1009.15 682.693 1027.3 670.03 1038 681C1050.13 678.05 1052.12 684.84 1050 695C1066.03 698.361 1078.81 721.292 1071.64 736.985C1068.16 744.584 1059.02 747.931 1055 756L1069 764C1063.93 780.605 1084.52 788.868 1097 780.436C1102.19 776.93 1104.78 767.538 1110.06 765.479C1114.52 763.737 1121.51 767.073 1126 768C1129.57 761.614 1129.45 751.166 1124.35 745.278C1120.35 740.658 1110.27 738.883 1114.27 730.043C1119.81 717.796 1132.61 721.283 1142 724.329C1145.22 725.374 1152.66 727.722 1152.84 721.941C1153 716.435 1147.3 710.807 1146.69 705C1146.34 701.611 1147.98 698.38 1147.27 695C1145.95 688.707 1142.55 683.706 1142.09 677C1141.63 670.307 1143.76 663.684 1142.81 657.015C1142.12 652.135 1138.2 650.757 1136.03 646.826C1132.02 639.565 1138.33 632.578 1144 629L1144 628C1133.39 623.551 1123.47 612.971 1126 602C1117.72 594.731 1129.66 581.134 1132 573C1121.28 566.761 1125.87 555.401 1126.28 546C1126.46 542.108 1123.19 538.07 1124.64 534.213C1126.12 530.305 1131.65 530.226 1132.64 525.895C1133.45 522.396 1131.87 518.626 1132.47 515C1135.04 499.404 1144 490.826 1159 488C1154.8 481.344 1145.64 486.075 1140.51 479.811C1134.59 472.575 1133.62 461.05 1128.64 453.09C1117.5 435.312 1101.3 431.24 1082 429.911C1077.97 429.633 1072.97 427.523 1069 428.692C1064.35 430.062 1060.53 434.643 1056 436.687C1050.14 439.332 1043.15 439.143 1038 443.279C1032.65 447.586 1029.27 454.836 1023 457.972C1016.98 460.982 1007.7 458.908 1001.01 460.479C997.85 461.223 995.169 464.426 991.961 464.435C981.188 464.467 967.017 451.988 957 448.118C945.104 443.522 941.094 449.715 930.286 450.525C923.503 451.033 915.134 446.663 908 447.232C895.6 448.222 884.083 462.459 882 474z"/>
</svg>
