<?xml version="1.0" standalone="yes"?>
<svg xmlns="http://www.w3.org/2000/svg" width="1450" height="1450">
<path style="fill:#010101; stroke:none;" d="M0 0L0 1450L1450 1450L1450 0L0 0z"/>
<path style="fill:#ffffff; stroke:none;" d="M615 388C615.808 395.897 604.748 420.57 594.108 417.013C586.247 414.385 583.76 403.324 574 403C572.293 412.333 580.516 432.135 569.852 438.589C564.983 441.536 560.719 437.408 556 436.39C549.389 434.964 535.73 438.712 532.603 445.39C529.641 451.717 535.184 457.102 535.606 463C536.323 473.045 527.609 501.527 517 504C513.014 517.748 509.917 523.833 525 531L525 532L508.059 533.264L500.651 550.996L492.028 561.213L488.727 577.896L485.708 585.104L496 601C504.772 599.685 507.729 589.23 515.004 588.912C519.712 588.706 524.508 592.092 529 593.239C533.836 594.475 539.429 591.92 543.896 593.618C548.32 595.3 549.597 601.223 553.21 604.046C561.635 610.628 573.225 615.662 582.3 620.566C594.563 627.193 600.572 615.376 611 616.387C619.644 617.225 619.426 628.176 626.174 631.486C635.889 636.252 643.436 625.403 652.956 624.817C658.68 624.465 657.692 631.209 660.14 634.581C662.839 638.3 668.352 637.494 671.602 640.513C674.786 643.472 674.202 648.088 675 652C683.636 649.953 698.01 645.606 705.852 652.333C709.394 655.371 709 660.523 712 664C720.902 651.619 732.972 647.448 748 646.333C754.808 645.827 759.596 652.09 765.682 646.096C768.64 643.183 768.38 638.411 770.863 635C774.788 629.606 784.911 625.133 786.682 618.826C789.319 609.437 782.946 598.051 786.603 589.105C788.974 583.307 796.805 583.417 799.096 576.985C801.671 569.756 801.05 558.01 804.828 552.004C807.338 548.014 812.69 546.474 814.887 542.61C818.896 535.561 819.495 529.17 827.015 523.637C834.835 517.883 841.23 519.922 848.96 516.618C856.28 513.489 862.596 501.842 866 495L845 490C851.683 477.877 840.028 479.995 832 478.787C829.032 478.34 825.268 475.723 822.318 477.282C820.149 478.429 820.163 480.896 820 483C809.284 475.71 802.303 471.11 789 471C790.198 477.204 787.622 489.282 778.133 483.886C773.511 481.257 772.479 476.323 767 474L752.898 522L754.82 535L748 561C745.198 554.487 745.351 543.463 739.722 538.699C726.717 527.692 707.112 534.43 696.777 516.826C694.895 513.62 696.965 509.494 696.671 506C695.677 494.19 699.034 480.386 695.25 469C692.183 459.772 680.61 448.761 671.826 444.89C664.418 441.624 656.558 441.986 650.3 435.787C641.776 427.343 648.564 417.106 639 410C642.02 407.099 651.319 398.835 642.775 395.692C639.449 394.469 635.548 395.735 632 394.44C625.802 392.178 621.907 388.166 615 388z"/>
</svg>
