<?xml version="1.0" standalone="yes"?>
<svg xmlns="http://www.w3.org/2000/svg" width="1450" height="1450">
<path style="fill:#010101; stroke:none;" d="M0 0L0 1450L1450 1450L1450 0L0 0z"/>
<path style="fill:#ffffff; stroke:none;" d="M1106 772C1096.79 781.206 1090.16 784.964 1077 785C1079.88 795.252 1075.21 798.642 1073.28 808C1070.85 819.781 1071.21 833.912 1066.95 844.956C1064.88 850.336 1056.89 849.269 1056.17 855.051C1055.66 859.094 1059 862.035 1058.61 866.015C1057.86 873.841 1048.92 880.832 1052.85 888.787C1057.13 897.429 1067.93 896.824 1069.53 909C1070.78 918.494 1066.01 924.784 1063.03 933C1058.93 944.318 1058.27 957.991 1047.58 966.062C1041.79 970.434 1032.57 967.785 1026.23 972.353C1022.08 975.34 1021.83 980.35 1017 983L1036.37 1032L1045.4 1046L1046.6 1055.91L1055.9 1071L1051.64 1085L1047 1108C1056.43 1106.24 1061.12 1105.01 1064 1095C1070.56 1096.24 1078.99 1094.88 1085 1096.77C1089.78 1098.26 1093.21 1102.54 1098 1104.24C1104.1 1106.4 1110.29 1106.56 1114.74 1111.93C1119.37 1117.51 1109.88 1125.33 1110.84 1131.94C1111.58 1137.01 1118.51 1136.48 1121.7 1139.31C1131.17 1147.73 1131.91 1157.11 1146 1156C1147.31 1166.16 1158.76 1179.33 1169 1182C1171.46 1177.07 1177.76 1172.36 1178.75 1167C1179.75 1161.65 1173.65 1156.43 1173.1 1151C1172.28 1142.74 1169.59 1135.08 1168.69 1127C1167.66 1117.79 1169.73 1108.44 1167.61 1099C1165.94 1091.57 1161.88 1084.68 1160.11 1077C1157.43 1065.34 1163.46 1045.09 1148 1043L1140.17 1025L1140 1003C1144.11 1005.4 1149.81 1007.02 1151.27 1012.04C1153.41 1019.39 1147.77 1026.96 1155.06 1032.56C1161.15 1037.24 1171.82 1042.71 1179.83 1041.52C1190.38 1039.94 1197.52 1034.04 1209 1037C1206.8 1031.19 1205.18 1029.16 1207 1023C1198.73 1020.03 1200.53 1012.19 1199.58 1005C1198.6 997.647 1194.54 990.984 1193.72 984C1192.78 976.1 1196.55 965.573 1193.55 958C1190.9 951.339 1186.88 938.535 1181.36 933.854C1175.85 929.182 1166.43 930.756 1160.04 928.11C1154.73 925.91 1148.67 916.915 1145.93 912C1143.62 907.837 1142.16 900.197 1145.66 896.318C1150.28 891.183 1157.92 895.769 1161.68 887.995C1164.14 882.905 1160.84 878.107 1160.49 873C1159.66 860.79 1156.51 851.092 1162 840L1166 842L1166.88 830.329L1155.07 820.896L1142.85 804L1139.4 794.901L1106 772z"/>
</svg>
