<?xml version="1.0" standalone="yes"?>
<svg xmlns="http://www.w3.org/2000/svg" width="1450" height="1450">
<path style="fill:#010101; stroke:none;" d="M0 0L0 1450L1450 1450L1450 0L0 0z"/>
<path style="fill:#ffffff; stroke:none;" d="M787 637C785.619 644.467 791.393 657.076 779.999 658.566C772.198 659.585 762.201 651.177 755 648.349C747.03 645.219 741.555 650.004 734 651.062C728.756 651.797 725.724 649.672 721.039 653.484C712.388 660.523 709.205 672.095 716.6 681.536C719.264 684.938 723.708 686.531 726.142 690.174C729.209 694.763 730.016 702.697 731.97 708C734.156 713.934 728.581 721.41 732.858 726.487C736.214 730.47 745.182 730.619 750 731C750.613 738.489 757.581 744.83 757.714 751.576C757.957 763.978 738.156 758.02 731 758L731 766L719 762C717.315 765.967 715.831 770.625 716.365 775C716.772 778.336 719.419 782.422 717.164 785.581C709.701 796.038 684.722 792.761 685.387 810C685.853 822.066 697.674 821.665 704.621 827.563C710.161 832.267 711.09 840.253 715.546 845.545C721.127 852.174 730.709 854.709 735.4 861.174C739.118 866.298 740.671 883.564 736.991 888.786C734.656 892.099 728.065 892.694 727.623 897.108C727.044 902.891 733.549 906.58 736.062 911C738.348 915.023 737.82 919.933 740.086 924C746.249 935.066 758.25 938 770 938C770.098 949.825 769.297 963.993 774.433 975C779.251 985.326 790.973 995.622 792.39 1007C793.1 1012.7 791.024 1030.69 787.976 1035.79C782.277 1045.33 774.917 1045.69 776.094 1059C777.393 1073.68 794.566 1067.2 801.61 1072.62C809.043 1078.33 812.768 1087.41 815.316 1096C816.628 1100.42 815.672 1105.81 819.638 1109.14C825.384 1113.97 842.675 1111.2 848.536 1107.93C852.737 1105.6 853.796 1101.81 859 1101L842.979 1077L823 1016C827.653 1019.68 829.975 1018.31 835 1016L830 1005L821 1009L809.633 990L796 929L814 935L815 923C799.972 931.143 801.473 913.035 797 904L807 904C807.379 908.873 809.411 909.987 814 911L816 893C808.995 893.008 803.245 890.469 803 883L814 887L815.228 876.274L810 868L818 870L823 859L821 853L825 855L837.952 841.852L838.51 833.576L845.514 813.171L842.243 796L852.649 775.133L872.363 761.301L880.444 738.001L892 726C888.429 722.851 888.829 717.798 885.486 714.843C882.181 711.921 876.82 712.823 874.303 708.772C871.568 704.371 873.631 697.757 869.682 694.232C863.131 688.386 847.163 684.079 844.878 674.985C841.313 660.793 874.753 656.682 860.397 640.8C852.17 631.7 833.011 631.717 822 630.91C818.386 630.645 814.62 628.914 811 629.739C801.848 631.825 797.162 637 787 637M873 792C869.932 797.331 861.062 809.051 873 811C873.623 818.809 879.105 814.427 883.367 818.407C888.379 823.089 892.986 831.259 894 838L898 835L899 835L906 847C914.477 844.612 920.371 842.922 929 845L932 837L933 837C935.761 840.111 943.245 848.523 947.856 846.673C951.066 845.385 951.083 841.027 954.228 839.603C959.543 837.195 963.529 839.117 965 832C972.807 832.615 978.278 833.075 982 825L977 826C975.995 819.908 977.892 814.664 973 810L973 809C978.86 804.823 979.995 800.927 980 794L974 794L978 786C970.298 780.691 963.779 771.464 960 763L950 767C945.295 751.497 921.198 765.194 910 766.446C904.222 767.092 897.467 765.383 892.584 769.843C886.357 775.529 881.543 790.61 873 792z"/>
</svg>
