<?xml version="1.0" standalone="yes"?>
<svg xmlns="http://www.w3.org/2000/svg" width="1450" height="1450">
<path style="fill:#010101; stroke:none;" d="M0 0L0 1450L1450 1450L1450 0L0 0z"/>
<path style="fill:#ffffff; stroke:none;" d="M606 1061C600.179 1068.72 594.187 1069.43 587.634 1074.86C583.027 1078.67 582.365 1085.36 576.957 1088.63C569.535 1093.12 558.466 1090.33 555 1100L574 1112C571.86 1117.55 564.049 1126.28 563.462 1131.18C562.977 1135.24 567.4 1138.92 569.387 1142C575.437 1151.37 575.094 1155.47 586 1161C587.964 1149.94 587.705 1139.01 601 1139C603.253 1145.38 608.386 1139.64 612.852 1142.11C616.479 1144.11 616.058 1148.79 620.059 1150.75C626.191 1153.76 630.806 1150.91 637 1151.55C644.288 1152.31 651.008 1156.09 658 1158L666 1155C666 1140.64 658.997 1120.6 664.032 1107C665.347 1103.45 668.374 1101.73 670.358 1098.71C672.214 1095.89 671.609 1089.87 668.582 1087.89C665.239 1085.7 655.441 1094.87 651 1095.52C631.782 1098.35 625.835 1083.62 618 1069C611.582 1070.63 609.396 1066.8 608 1061L606 1061z"/>
</svg>
