<?xml version="1.0" standalone="yes"?>
<svg xmlns="http://www.w3.org/2000/svg" width="1450" height="1450">
<path style="fill:#010101; stroke:none;" d="M0 0L0 1450L1450 1450L1450 0L0 0z"/>
<path style="fill:#ffffff; stroke:none;" d="M1141 1005C1141 1018.47 1140.46 1041.62 1158 1044L1158.79 1069L1168.79 1101L1169.56 1128L1174.65 1155L1179.5 1166.58L1170.97 1179L1166.57 1193.99L1154 1206C1157.35 1222.18 1164.8 1210.68 1174.86 1215.67C1179.85 1218.14 1180.18 1225.07 1186 1228L1186 1229C1168.36 1236.39 1153.17 1257.55 1143.03 1273C1140.49 1276.87 1131.45 1281.8 1132.33 1286.9C1133.05 1291.11 1138.91 1292.07 1141.57 1294.64C1143.56 1296.56 1143.88 1300.13 1146.43 1301.4C1157.14 1306.72 1162.99 1298.29 1163 1289C1178.89 1290.24 1193.58 1280.54 1205 1269.98C1207.75 1267.43 1213.4 1264.48 1214.76 1260.9C1216.9 1255.25 1206.21 1251.72 1209.85 1246.43C1213.87 1240.58 1224.35 1243.55 1230 1242C1225.57 1238.26 1221.83 1236.19 1221 1230C1232.53 1229.13 1242.21 1214.74 1243.41 1203.96C1244.44 1194.69 1237.49 1193.39 1247.01 1185.15C1252.21 1180.66 1256.08 1183.72 1262 1183.64C1271.76 1183.52 1284.48 1184.25 1293.99 1181.2C1302.23 1178.54 1300.79 1170.53 1305.98 1165.83C1312.94 1159.53 1321.64 1155 1328.89 1149.07C1332.4 1146.21 1333.45 1141.63 1337.11 1138.97C1340.53 1136.47 1345.18 1135.86 1348.39 1133.16C1355.35 1127.31 1353.6 1120.2 1345 1119C1339.25 1130.06 1328.45 1127.62 1319 1127.8C1313.96 1127.9 1310.2 1131.67 1305.28 1127.99C1301.61 1125.24 1301.17 1119.14 1300 1115C1310.02 1112.26 1310.09 1105.68 1317.21 1099.95C1320.69 1097.16 1327.76 1094.66 1329.91 1090.72C1331.44 1087.92 1329.05 1086.26 1327 1085L1332 1072C1321.9 1068.21 1310.32 1068.08 1300 1064.78C1274.87 1056.74 1240.26 1032.74 1216 1055C1215.51 1050.74 1214.25 1048.91 1210 1048C1210 1041.25 1209.97 1036.85 1202 1036.38C1194.13 1035.92 1187.13 1040.56 1179.91 1042.13C1171.63 1043.93 1160.08 1037.1 1154.06 1032.1C1143.88 1023.66 1157.65 1009.81 1141 1005z"/>
</svg>
