<?xml version="1.0" standalone="yes"?>
<svg xmlns="http://www.w3.org/2000/svg" width="1450" height="1450">
<path style="fill:#010101; stroke:none;" d="M0 0L0 1450L1450 1450L1450 0L0 0z"/>
<path style="fill:#ffffff; stroke:none;" d="M790 1195C796.136 1193.73 803.66 1192.61 808.535 1188.36C816.451 1181.47 815.167 1167.52 817.63 1158C819.013 1152.65 823.596 1146.49 823.269 1141C822.824 1133.51 817.992 1126.66 817.613 1119C817.105 1108.75 816.785 1092.26 810.397 1083.29C808.403 1080.49 803.745 1073.99 800.61 1072.62C792.846 1069.23 779.078 1072.84 775.573 1060.98C771.512 1047.25 782.676 1045.28 787.411 1035.62C790.058 1030.22 791.915 1014.88 791.775 1009C791.473 996.244 778.644 985.167 773.433 974C768.529 963.49 769.484 950.274 769 939C762.05 938.995 755.147 937.519 749.015 934.015C740.881 929.369 735.429 920.694 724.224 925.742C712.761 930.905 711.858 945.455 704.351 953.582C699.82 958.487 692.597 960.158 688.599 966.039C684.594 971.929 682.343 982.591 676.721 987.026C671.896 990.834 666.943 986.848 662.17 989.117C655.304 992.381 642.954 1007.24 639.587 1014C636.255 1020.69 642.16 1028.8 639.397 1035.96C637.969 1039.66 634.03 1041.18 631.858 1044.3C629.17 1048.17 629.726 1053.08 626.737 1057C623.606 1061.1 618.786 1065.27 620.01 1071C623.249 1086.17 635.801 1096.4 651 1094.75C657.122 1094.08 667.611 1082.01 671.124 1090.11C674.563 1098.03 666.644 1100.39 664.724 1107C661.454 1118.27 665.752 1131.67 666.83 1143C667.171 1146.58 665.832 1152.17 668.603 1154.96C676.186 1162.61 686.186 1156.33 695 1157.93C703.148 1159.4 714.721 1163.4 722.911 1162.39C730.329 1161.48 734.24 1156.32 743 1157.17C761.587 1158.97 782.851 1178.41 790 1195z"/>
</svg>
