<?xml version="1.0" standalone="yes"?>
<svg xmlns="http://www.w3.org/2000/svg" width="1450" height="1450">
<path style="fill:#010101; stroke:none;" d="M0 0L0 1450L1450 1450L1450 0L0 0z"/>
<path style="fill:#ffffff; stroke:none;" d="M762 651C767.751 652.907 783.388 664.718 786.957 652.945C788.29 648.547 785.603 641.079 786 636C790.547 636 795.672 636.644 800 635.005C804.154 633.432 807.53 629.659 812 628.949C823.099 627.187 836.755 630.839 847 634.564C851.794 636.307 858.066 636.998 861.397 641.329C873.362 656.89 847.478 659.136 845.434 670.004C842.816 683.916 864.697 686.88 871.397 695.379C874.535 699.36 872.059 705.554 875.728 709.437C878.138 711.987 882.714 712.517 886 713C882.803 699.501 885.964 680.818 898.174 671.564C901.715 668.88 906.991 668.026 911 666L912 653L915 660C920.668 657.319 926.852 654.171 929 648C942.955 658.143 945.965 636.685 954.044 630.253C958.795 626.471 972.698 627.824 978 630L979 629L982 622L982 621C978.208 620.173 950.374 619.041 962 610C958.091 600.47 958.213 596.682 961 587C955.19 584.807 948.863 580.688 943 579.299C937.362 577.964 930.095 578.279 925.39 574.297C918.563 568.518 915.723 555.074 906 553C905.991 539.302 906.959 521.168 896.302 510.564C893.597 507.873 889.124 507.96 886.089 505.571C881.176 501.704 874.798 494.106 867.3 496.694C859.038 499.545 857.321 513.23 848.985 517.121C845.204 518.886 841.778 516.968 838 517.9C833.594 518.988 827.525 523.083 824.286 526.213C818.677 531.633 819.242 538.362 815.307 543.363C812.001 547.565 805.944 548.121 804.143 554.001C801.72 561.918 803.014 570.795 799.147 578.895C796.725 583.966 788.88 583.931 787.318 589.213C784.537 598.612 791.081 609.648 787.397 618.91C785.298 624.184 778.057 627.047 774.29 631.09C769.444 636.293 765.592 644.876 762 651z"/>
</svg>
