<?xml version="1.0" standalone="yes"?>
<svg xmlns="http://www.w3.org/2000/svg" width="1450" height="1450">
<path style="fill:#010101; stroke:none;" d="M0 0L0 1450L1450 1450L1450 0L0 0z"/>
<path style="fill:#ffffff; stroke:none;" d="M766 218C751.806 241.36 788.128 264.547 792.57 286C794.418 294.923 781.082 311.873 775.385 319C772.187 323.001 765.619 328.276 767.522 334C770.283 342.302 777.212 359.386 787 359.646C794.238 359.838 807.184 353.062 812.98 356.828C819.917 361.335 815.03 368.684 818.938 374.714C822.677 380.483 831.233 389.823 836.518 394.298C838.843 396.267 842.283 396.505 844.4 398.702C847.356 401.769 845.597 406.995 848.6 410.034C852.292 413.771 869.009 421.368 874 420.833C878.517 420.35 883.067 414.753 887.787 417.118C892.757 419.608 897.309 431.167 900 436C911.651 433.595 924.529 426.87 932.062 417.363C935.682 412.794 934.014 405.199 936.434 400C939.581 393.238 946.944 389.186 951.941 383.961C957.064 378.604 956.381 370.282 963.831 366.862C966.522 365.627 970.072 366.56 973 366L966.391 350L967.961 304L968.148 285.043L976.351 276.787L984 260C970.644 254.052 961.165 247.219 949 239.228C942.171 234.743 933.847 230.837 928.303 224.7C924.067 220.01 925.398 211.944 920.501 207.742C914.62 202.696 904.549 205.275 898.184 199.61C890.794 193.031 887.64 169.757 877.96 168.434C865.332 166.709 866.082 193.541 858.363 200.397C852.278 205.802 836.895 203.266 829.004 206.324C821.799 209.116 823.654 216.09 817.867 219.442C805.947 226.345 801.198 219.465 790 219.056C785.875 218.906 782.933 222.809 779 223.537C774.132 224.439 769.926 220.234 766 218z"/>
</svg>
