<?xml version="1.0" standalone="yes"?>
<svg xmlns="http://www.w3.org/2000/svg" width="1450" height="1450">
<path style="fill:#010101; stroke:none;" d="M0 0L0 1450L1450 1450L1450 0L0 0z"/>
<path style="fill:#ffffff; stroke:none;" d="M1065 1096C1059.72 1105.04 1057.72 1106.05 1048 1109C1053.35 1120.56 1044.99 1133.58 1043.34 1145C1042.68 1149.63 1046.72 1154.55 1044.1 1158.81C1041.69 1162.74 1036.45 1164.24 1033.19 1167.33C1028.83 1171.45 1026.87 1177.46 1025 1183L1049.67 1180.4L1059.04 1172.92L1073 1185L1073 1164L1092 1168L1100 1195L1082 1198C1078.84 1205.6 1076.42 1210.34 1068 1212L1081.48 1240L1082 1256L1096 1259C1094.58 1265.48 1087.62 1268.77 1086.86 1275C1085.67 1284.79 1102.34 1293.46 1110 1295C1114.9 1283.31 1125.95 1288.67 1135 1281.11C1141.6 1275.61 1144.22 1268.76 1149.16 1262C1154.11 1255.23 1160.98 1250.64 1166.99 1244.91C1172.98 1239.18 1177.17 1232.45 1185 1229L1185 1228C1180.32 1225.04 1178.94 1218.84 1174.72 1216.44C1169.21 1213.31 1152.09 1221.91 1154.27 1208.04C1155.05 1203.12 1161.61 1200.4 1164.44 1196.71C1167.24 1193.06 1167.44 1187.43 1168 1183C1161.7 1179.05 1153.43 1172.11 1148.51 1166.61C1146.42 1164.26 1146.76 1159.88 1144.26 1158.07C1141.64 1156.16 1138.13 1158.02 1135.29 1155.67C1129.86 1151.19 1127.01 1143.95 1121.54 1139.59C1118.33 1137.04 1113.34 1137.75 1111.08 1133.86C1106.63 1126.18 1120.03 1117.95 1113.81 1111.14C1110.04 1107.03 1103.94 1106.99 1099 1105.24C1094.19 1103.53 1090.76 1099.38 1086 1097.73C1080.06 1095.68 1071.53 1097.23 1065 1096z"/>
</svg>
