<?xml version="1.0" standalone="yes"?>
<svg xmlns="http://www.w3.org/2000/svg" width="1450" height="1450">
<path style="fill:#010101; stroke:none;" d="M0 0L0 1450L1450 1450L1450 0L0 0z"/>
<path style="fill:#ffffff; stroke:none;" d="M1074 1165L1074 1186C1065.89 1184.75 1066.65 1175.77 1060 1173.66C1054.92 1172.06 1052.9 1179.77 1048.91 1181.4C1037.06 1186.21 1026.64 1178.8 1020 1193L1015 1191C1012.15 1196.45 1009.36 1207.73 1013.03 1213.54C1016.29 1218.71 1022.13 1221.15 1023.06 1228C1024.01 1234.97 1017.35 1240.81 1015.25 1247C1013.65 1251.71 1015.33 1256.39 1014.01 1261C1010.87 1271.92 1002.66 1279.18 996.156 1288C993.719 1291.3 991.59 1296.57 987.79 1298.49C983.912 1300.44 979.881 1299.02 976 1298C974.36 1310.27 961.997 1313.84 953.093 1319.37C942.672 1325.83 929.76 1337.38 922 1347C927.584 1346.62 941.021 1349.83 943.446 1355.82C945.059 1359.81 942.604 1367.7 942.329 1372C941.384 1386.78 939.048 1404.76 926 1415C926.279 1416.35 926.513 1417.72 926.903 1419.04C931.112 1433.32 934.275 1414.89 937.152 1413.72C940.592 1412.31 946.205 1414.96 950 1415L953.606 1405.83L952 1394L962 1398C967 1391.74 971.564 1387.95 979 1392L980 1373L1001.49 1365.91L1010.54 1357.43L1019 1362C1021.98 1352.78 1036.21 1344.25 1046 1345L1048 1334L1061 1336L1065 1327C1071.85 1328.63 1078.29 1328.76 1082 1322C1087.09 1323.43 1093.72 1326.55 1099 1326.28C1109.03 1325.79 1124.49 1316.93 1132.42 1311.07C1136.32 1308.18 1142.74 1307.76 1143.43 1301.98C1144.4 1293.89 1134.29 1292.02 1131 1286C1126.58 1286.6 1119.31 1286.19 1115.39 1287.69C1112.14 1288.95 1111.82 1294.69 1107.9 1294.66C1100.61 1294.6 1085.43 1283.17 1086.39 1275C1087.08 1269.1 1093.65 1266.04 1095 1260L1081 1257C1081 1238.89 1075.19 1226.75 1066 1211C1075.92 1210.57 1078.39 1205.67 1082 1197C1088.86 1199.16 1092.92 1197.55 1099 1194C1097.5 1186.71 1095.54 1174.12 1089.42 1169.14C1085.85 1166.24 1078.43 1165.91 1074 1165z"/>
</svg>
