<?xml version="1.0" standalone="yes"?>
<svg xmlns="http://www.w3.org/2000/svg" width="1450" height="1450">
<path style="fill:#010101; stroke:none;" d="M0 0L0 1450L1450 1450L1450 0L0 0z"/>
<path style="fill:#ffffff; stroke:none;" d="M969 303C967.303 324.501 963.828 347.056 975 366C970.911 366.987 965.609 366.073 962.058 368.307C956.727 371.66 956.442 379.438 951.981 383.985C947.254 388.803 940.363 392.707 937.434 399C934.693 404.888 936.76 413.656 931.697 418.363C926.48 423.213 919.198 429.214 913 432.776C903.501 438.235 895.123 437.38 895 451L908.424 446.549L931 449.756L948 445.019L994 465C1001.97 455.298 1012.91 461.122 1023 457.397C1030.11 454.771 1033.9 445.814 1040 441.513C1049.28 434.974 1060.52 437.371 1068 427C1064.08 424.229 1055.56 422.382 1053.03 418.581C1049.08 412.646 1054.54 403.925 1050.7 397.286C1047.14 391.14 1039.13 387.822 1036.6 381C1033.58 372.833 1037 362.821 1032.99 355C1021.37 332.331 993.414 310.033 969 303z"/>
</svg>
