<?xml version="1.0" standalone="yes"?>
<svg xmlns="http://www.w3.org/2000/svg" width="1450" height="1450">
<path style="fill:#010101; stroke:none;" d="M0 0L0 1450L1450 1450L1450 0L0 0z"/>
<path style="fill:#ffffff; stroke:none;" d="M658 189L660.007 204.911L637 238C625.051 231.021 610.8 247.386 608 258L607 258C604.675 249.378 596.84 252.095 590 249.576C585.041 247.749 580.919 243.421 577 240C581.336 237.046 580.613 233.528 579 229L571 229L574 243L573 243C567.889 231.141 544.114 221.483 541.343 240C540.587 245.056 538.831 256.205 539.873 261C540.948 265.953 544.793 269.854 545.671 275C546.597 280.432 543.456 286.621 545.603 291.826C548.421 298.657 556.956 299.893 558.8 308C560.766 316.643 552.322 329.668 557.694 337.786C560.787 342.462 569.124 343.684 573.996 345.7C578.466 347.549 579.707 351.308 583.39 353.861C587.097 356.431 592.178 356.097 595.906 358.728C604.879 365.059 603.238 379.537 614.286 385.976C622.877 390.984 636.021 397.412 645.985 393.005C649.76 391.336 651.397 387.104 655.104 385.603C658.136 384.376 661.659 385.691 664.561 383.972C668.259 381.782 669.821 377.188 674.015 375.603C678.821 373.787 688.873 372.529 694 371.973C697.393 371.605 700.627 373.475 703.686 371.092C708.147 367.615 706.366 360.342 711.189 356.564C723.384 347.013 745.841 367.49 749.699 345C750.317 341.395 750.712 337.644 751 334C769.484 333.947 775.291 317.535 783.962 304C786.743 299.659 792.444 295.549 792.414 290C792.363 280.829 786.471 275.198 781.951 268C776.661 259.573 772.783 248.971 766.412 241.484C761.054 235.187 750.389 241.301 744 242.985C730.725 246.486 715.747 244.308 703 239.438C689.484 234.275 687.345 219.753 680.034 209.039C674.906 201.525 665.074 194.681 658 189z"/>
</svg>
