<?xml version="1.0" standalone="yes"?>
<svg xmlns="http://www.w3.org/2000/svg" width="1450" height="1450">
<path style="fill:#010101; stroke:none;" d="M0 0L0 1450L1450 1450L1450 0L0 0z"/>
<path style="fill:#ffffff; stroke:none;" d="M562 38C556.63 44.3257 548.762 46.7961 541 49L546 52L546 57C541.205 57.5907 538.753 58.7139 535 55C529.376 57.0839 528.088 61.4885 527 67C530.804 70.6744 528.723 72.8654 524 73C526.254 79.5551 522.373 94.6133 528 98C530.654 92.3248 535.356 89.3658 541 87C541.89 92.3857 546.278 93.4019 551 95L547 84L557 81L556 78L568 74L567 67L576 67C575.065 62.4725 575.072 54.2009 572.887 50.3943C570.062 45.474 562.3 47.3373 566 40L562 38M501 81C501.802 88.0941 496.536 95.5479 489 94L485 110L477 107C478.711 112.984 481.141 116.761 479 123C482.116 122.36 487.062 121.707 489.412 119.401C493.309 115.578 491.61 109.663 492.888 105.104C494.645 98.835 510.597 87.9229 501 81M536 99L537 105C540.328 102.785 539.004 100.856 536 99M509 108L512 125L503 131L513 143L514 143L512 135L522 139L518 147C524.01 144.79 523 139.542 523 134L519 135L522 128C512.524 124.602 517.047 113.081 509 108M491 123L479 141C478.981 134.293 477.209 130.227 473 125C470.93 130.014 471.655 132.795 475 137L466 137C468.562 143.108 471.443 146.423 478 148L476 158C467.845 148.86 460.743 140.828 449 137L450 142L432 137L430 143L435 144L430 148L430 149L444 152L433 155L436 160L423 159L432 168C424.035 166.358 420.676 165.997 417 174L423 176L422 182C429.977 182.259 438.543 197.024 438.143 205C437.957 208.703 435.855 212.393 435 216C439.461 220.498 436.527 228.953 438.955 234.981C441.031 240.134 446.18 240.493 449.687 244.304C454.149 249.153 454.417 254.023 462 250L464 254L467 253C470.246 265.018 470.52 269.062 484 268L493.602 239L488 224L493 228L507.015 210.589L522.392 202.826L519 187L509 185L509 191L501 192L500.472 175.424L502 164C507.948 163.055 512.336 159.922 514 154L507 156L491 123z"/>
</svg>
