<?xml version="1.0" standalone="yes"?>
<svg xmlns="http://www.w3.org/2000/svg" width="1450" height="1450">
<path style="fill:#010101; stroke:none;" d="M0 0L0 1450L1450 1450L1450 0L0 0z"/>
<path style="fill:#ffffff; stroke:none;" d="M498 290C499.648 283.101 499.61 280.172 507 278L508 286L511 283L512 283C520.754 293.927 517.703 299.565 518.325 312C518.665 318.807 518.306 327.358 510 328L505.487 345.301L494.434 353.108L498 373L491 373L491 375L492 376C496.17 375.069 498.146 373.909 500 370L501 370L508 378L509 375C512.853 379.626 511.452 384.078 514.183 388.625C516.754 392.908 521.536 395.29 523.9 400C530.161 412.478 531.708 429.308 532 443C538.817 440.995 544.636 435.086 552 435.086C557.633 435.086 564.481 441.898 569.682 437.975C579.515 430.559 572.252 411.828 573 402C583.063 402.327 590.586 419.747 599.895 415.848C603.646 414.277 605.065 410.232 607.065 407C609.419 403.194 613.005 399.358 614.258 395C616.851 385.984 606.42 379.675 602.499 373C600.349 369.339 600.716 364.631 598.11 361.228C595.009 357.177 589.295 357.435 585.043 355.351C581.394 353.563 580.172 349.575 576.787 347.557C571.004 344.11 562.983 343.978 558.238 338.786C551.146 331.026 560.022 316.821 558.086 308.001C556.227 299.533 547.373 298.225 544.604 290.961C542.638 285.803 545.628 279.467 544.671 274C543.791 268.968 539.879 264.943 539.164 260C537.865 251.028 541.133 238.476 544 230C525.765 230.052 506.266 237.742 494.318 252.105C490.403 256.811 486.395 277.213 489.01 282.856C490.565 286.211 495.019 288.109 498 290M480 339L483 338L483 343L489 342C487.036 338.516 483.096 335.104 480 339z"/>
</svg>
