<?xml version="1.0" standalone="yes"?>
<svg xmlns="http://www.w3.org/2000/svg" width="1450" height="1450">
<path style="fill:#010101; stroke:none;" d="M0 0L0 1450L1450 1450L1450 0L0 0z"/>
<path style="fill:#ffffff; stroke:none;" d="M497 602L504.987 622L504.782 632.214L526 625.154L544.455 643.134L561.996 652.019L573 660C570.582 662.889 568.282 665.478 572 668L568 674L568 675L580.844 678.87L595 688C591.626 695.858 598.394 697.845 601.349 704.043C605.305 712.343 601.107 731.471 617.999 724.799C632.783 718.959 631.008 698.144 631 686C642.543 685.992 665.554 683.712 673.397 674.251C677.001 669.903 675.712 646.001 671.987 641.513C669.137 638.079 663.605 638.812 660.43 635.581C657.969 633.077 658.35 627.955 655.436 626.118C647.049 620.831 636.522 636.809 627.039 632.486C620.05 629.3 619.917 618.704 611.996 617.294C601.406 615.408 595.324 627.684 583.09 621.566C580.172 620.107 578.643 616.949 575.7 615.588C568.071 612.061 559.929 609.827 553.104 604.366C549.85 601.761 548.416 596.33 544.621 594.604C540.31 592.643 534.675 595.412 530 594.238C525.219 593.038 520.01 589.243 515.005 589.554C509.2 589.914 503.708 599.716 497 602z"/>
</svg>
