<?xml version="1.0" standalone="yes"?>
<svg xmlns="http://www.w3.org/2000/svg" width="1450" height="1450">
<path style="fill:#010101; stroke:none;" d="M0 0L0 1450L1450 1450L1450 0L0 0z"/>
<path style="fill:#ffffff; stroke:none;" d="M752 335C751.328 338.616 751.258 342.463 750.28 346C744.482 366.966 725.415 349.31 712.189 356.434C706.103 359.712 708.901 368.467 702.941 372.016C695.246 376.599 681.605 373.227 673.089 376.603C669.379 378.074 667.816 382.145 664.711 384.397C661.506 386.72 657.733 385.062 654.39 386.603C650.809 388.252 648.899 392.244 645 394C647.058 401.64 645.982 403.741 640 409L640 410C647.785 418.218 642.345 427.829 650.465 435.61C656.396 441.293 663.937 440.994 670.961 443.89C679.784 447.528 691.846 459.157 695.522 468C700.229 479.325 696.486 494.056 697.471 506C697.779 509.734 695.285 514.217 697.643 517.536C700.849 522.05 708.714 528.797 714 530.442C722.554 533.105 733.509 532.071 740.581 538.649C745.065 542.82 746.22 552.207 747 558C757.653 551.016 752.019 533.968 752.205 524C752.269 520.614 755.029 518.292 755.394 515C756.978 500.71 761.284 486.747 767 473C777.431 479.202 776.949 486.424 790 481L788 470C801.573 470.112 807.216 476.467 819 481C821.207 473.97 826.536 477.37 832 477.895C842.044 478.861 848.835 477.414 847 490C863.24 495.483 875.027 491.651 890 484C888.397 480.297 882.471 475.553 882.248 471.896C881.935 466.743 888.76 460.176 891.289 456C899.239 442.876 899.401 431.431 889.648 419.319C884.932 413.462 878.225 421.682 873 421.708C867.888 421.735 854.615 414.608 850.059 411.647C844.988 408.353 847.255 402.517 843.411 398.843C835.51 391.29 823.893 383.671 817.938 373.911C814.979 369.059 818.581 362.552 814.678 358.487C808.411 351.958 792.994 362.223 784.001 359.917C775.154 357.648 769.711 339.948 766 332L752 335z"/>
</svg>
