<?xml version="1.0" standalone="yes"?>
<svg xmlns="http://www.w3.org/2000/svg" width="1450" height="1450">
<path style="fill:#010101; stroke:none;" d="M0 0L0 1450L1450 1450L1450 0L0 0z"/>
<path style="fill:#ffffff; stroke:none;" d="M1133 573C1130.1 579.97 1117.9 596.36 1127 602L1124 612L1145 628L1145 629C1138.67 632.182 1132.6 640.131 1137.03 647.536C1139.16 651.104 1142.74 652.576 1143.66 657.004C1145.06 663.783 1142.61 671.081 1143.09 678C1143.73 687.293 1146.56 695.85 1147.42 705C1147.93 710.507 1154.21 717.36 1153.48 722.405C1152.64 728.289 1145.58 726.198 1142 724.996C1132.79 721.908 1121.47 717.994 1115.19 729.213C1110.07 738.375 1122.2 740.765 1125.63 746.108C1130.42 753.572 1129.24 761.137 1127 769C1122.98 768.17 1108.32 762.042 1107.46 769.11C1106.06 780.644 1133.03 787.975 1139.68 794.609C1142.85 797.766 1142.51 803.234 1145.17 806.996C1148.5 811.691 1153.19 819.368 1157.42 823.035C1160.44 825.66 1165.03 826.589 1167.23 830.185C1169.44 833.809 1166.31 838.002 1168.1 841.625C1174.33 854.241 1191.42 859.63 1204 862L1206 852C1211.44 855.637 1214.27 851.628 1220 852.33C1230.44 853.61 1243.46 865.608 1252.38 855.096C1256.23 850.552 1246.95 846.286 1250.62 841.163C1254.08 836.348 1261.17 840.663 1265.35 836.486C1282.86 818.982 1263.15 805.227 1250 796L1250 795C1255.47 791.664 1258.23 783.346 1265 782.36C1268.87 781.797 1272.36 784.765 1276 785.614C1286.74 788.119 1297.32 793.024 1308 795.272C1311.37 795.981 1314.62 794.402 1318 794.637C1326.63 795.239 1331.83 799.544 1339.96 794.184C1343.8 791.649 1344.71 786.166 1348.39 784.117C1351.58 782.347 1356.38 784.286 1360 783.034C1373.55 778.346 1384.16 766.703 1387 753C1375.5 748.371 1363.18 761.615 1350 759.561C1339.8 757.972 1329.64 754.547 1322.29 746.896C1317.47 741.881 1312.25 730.871 1305 729.337C1297.73 727.802 1287.75 746.95 1286 753C1280.33 746.444 1277.97 738.819 1273.06 732.004C1269.63 727.249 1264.08 725.115 1260.59 720.674C1257.67 716.966 1255.94 708.6 1254.64 704C1252.68 697.051 1256.37 689.748 1254.43 683.015C1253.04 678.213 1247.96 675.945 1246.76 670.999C1244.17 660.295 1254.59 647.911 1247.82 637.275C1241.64 627.556 1224.68 637.85 1216.61 627.61C1209.33 618.372 1230.26 612.064 1223.82 603.589C1222.03 601.234 1217.84 601.285 1215.29 600.16C1202.43 594.491 1187.25 598.521 1174.01 595.111C1166.18 593.094 1165.7 581.659 1158.91 578.029C1155.15 576.02 1150.96 578.147 1147 577.751C1142.24 577.274 1137.43 574.708 1133 573z"/>
</svg>
