<?xml version="1.0" standalone="yes"?>
<svg xmlns="http://www.w3.org/2000/svg" width="1450" height="1450">
<path style="fill:#010101; stroke:none;" d="M0 0L0 1450L1450 1450L1450 0L0 0z"/>
<path style="fill:#ffffff; stroke:none;" d="M632 687C632.006 696.302 633.086 703.333 628.752 712C626.394 716.715 618.522 723.001 618.302 728C617.987 735.174 627.768 746.941 630.384 754C634.517 765.151 635.004 781.178 636.787 793C637.846 800.022 636.087 807.009 636.004 814C635.613 846.841 627.508 876.958 615 907C622.389 907.157 637.182 907.912 643.896 910.603C647.519 912.055 649.277 916.07 653.015 917.617C656.969 919.254 660.163 916.654 664 917.525C670.605 919.023 676.757 922.901 684 922.306C693.906 921.494 700.053 911.805 707.174 906.589C712.217 902.894 719.506 905.046 724.667 901.581C727.211 899.873 725.932 896.807 727.692 894.649C729.932 891.903 734.062 891.73 736.258 888.775C739.881 883.901 737.921 867.515 735.436 862.174C732.924 856.777 726.376 857.509 722.609 853.701C715.37 846.384 712.199 834.015 704.391 827.934C697.381 822.475 683.891 821.231 684.696 809C685.743 793.096 708.5 795.116 716.356 785.49C719.002 782.248 715.733 777.554 715.496 774C715.206 769.636 717.041 765.195 718 761L730 765L730 757C736.642 757.018 761.481 763.18 756.478 749C755.462 746.12 753.324 743.686 751.912 741C750.605 738.514 750.185 734.857 748.146 732.858C743.377 728.182 732.885 732.33 730.764 723.956C729.68 719.676 732.646 716.167 732.411 712C732.099 706.447 728.385 696.329 726.11 691.174C723.605 685.496 716.371 684.024 714.213 677.985C711.999 671.789 710.854 655.423 704.852 652.042C698.565 648.501 679.689 646.466 676.032 655.133C673.486 661.169 678.264 669.592 673.681 674.485C665.043 683.709 644.129 686.9 632 687z"/>
</svg>
