<?xml version="1.0" standalone="yes"?>
<svg xmlns="http://www.w3.org/2000/svg" width="1450" height="1450">
<path style="fill:#010101; stroke:none;" d="M0 0L0 1450L1450 1450L1450 0L0 0z"/>
<path style="fill:#ffffff; stroke:none;" d="M860 1099C849.645 1109.79 834.726 1113.77 820 1111C815.824 1122.17 823.457 1130.23 823.85 1141C824.048 1146.44 819.727 1152.66 818.374 1158C813.76 1176.2 814.831 1191.92 792 1195L799 1213C787.029 1216.64 791.068 1239.82 801 1244.98C817.981 1253.79 822.433 1235.54 837 1235.29C848.041 1235.09 857.594 1248.89 865 1255L871 1250L871 1249C860.12 1239.73 873.339 1228.98 884 1228.47C888.49 1228.26 892.496 1230.29 897 1229.08C899.876 1228.31 904.137 1227.65 906.61 1225.99C913.737 1221.2 916.322 1208.35 908 1204L901 1208C901.878 1191.97 919.339 1199.42 925.184 1189.72C928.275 1184.59 919.277 1175.9 919.653 1170C920.378 1158.62 930.819 1149.89 935 1140L929 1141C928.16 1130.46 912.184 1137.37 905 1134.52C896.306 1131.07 893.289 1124.29 886.895 1118.44C882.724 1114.63 877.435 1114.4 873.043 1111.2C867.934 1107.47 865.824 1102.14 860 1099M948 1130C940.259 1122.1 939.238 1137.73 948 1130z"/>
<path style="fill:#010101; stroke:none;" d="M834 1154L819 1167L820 1172L824 1172C822.821 1181.95 834.839 1191.19 844 1192C846.718 1187.37 852.247 1190.03 855.675 1184.98C866.49 1169.04 856.166 1156.05 838 1160L834 1154M883 1193C884.874 1187.86 885.424 1184.04 883 1179C872.205 1181.27 872.136 1190.84 883 1193z"/>
</svg>
