<?xml version="1.0" standalone="yes"?>
<svg xmlns="http://www.w3.org/2000/svg" width="1450" height="1450">
<path style="fill:#010101; stroke:none;" d="M0 0L0 1450L1450 1450L1450 0L0 0z"/>
<path style="fill:#ffffff; stroke:none;" d="M602 957L601 957L599 951C588.125 956.417 585.931 967.533 577.57 974.027C564.498 984.181 544.297 984.434 540 1003L539 1003C536.557 996.864 515.618 992.91 509 992L507 971L502 973C504.835 978.982 504.421 983.709 503 990L502 990L498 978L489 981C486.583 973.377 487.097 962.505 478 960C472.407 967.756 462.165 980.308 453 983C449.168 971.133 427.725 974.743 431 989L443.985 984.241L454.014 991.652L467.34 1009L486.572 1028.39L491.302 1035.25L508 1037C505.135 1041 504.878 1043.56 507 1048L514 1046C515.311 1050.4 519.979 1053.09 520.933 1057.13C522.543 1063.94 514.832 1068.08 512 1073C503.821 1070.48 494.454 1072.86 491 1081L499.985 1080.67L507.375 1085.99L519 1088L518 1084C524.758 1082.12 533.449 1085.34 531 1094L539 1097L534 1105L515 1109C511.653 1122.4 521.362 1122.82 530 1117L529 1123L541 1124L536 1132L530 1129L529 1133C533.856 1134.45 537.302 1134.19 540 1139L534 1138C532.56 1141.48 529.868 1143.12 527.984 1146.21C525.108 1150.93 526.829 1156.97 533.001 1156.5C540.215 1155.95 544.854 1149.78 552 1149L553 1156L572 1152L562.882 1132.04L573 1113L553 1100L577.787 1087.63L587.39 1074.51L597.714 1070.14L608 1059C608.393 1060.7 608.77 1062.37 609.364 1064.01C614.045 1076.95 626.431 1059.42 628.442 1053C629.282 1050.32 629.29 1047.53 630.858 1045.09C632.889 1041.93 636.941 1040.35 638.397 1036.83C641.581 1029.11 635.102 1020.13 639.819 1013C644.443 1006.01 654.805 992.929 662.089 988.774C666.745 986.118 672.086 990.475 676.57 986.346C681.707 981.618 683.823 972.743 687.599 967.004C691.797 960.623 699.65 958.317 704.301 952.726C711.115 944.534 713.157 929.66 724.133 924.893C728.43 923.027 734.413 924 739 924C736.721 916.812 736.262 904.985 727 902.904C709.246 898.914 700.15 919.182 685 922.706C677.175 924.526 670.979 919.346 664 917.94C660.906 917.317 658.129 919.477 655 918.817C650.348 917.836 648.581 913.37 644.625 911.603C640.692 909.846 635.21 911.326 631 910.816C626.352 910.252 619.888 906.159 615.394 909.029C612.819 910.672 611.862 914.354 610.719 917C607.51 924.426 599.248 936.04 598.955 944C598.772 948.959 603.053 951.433 602 957M485 1040L476 1047L476 1048L483 1051L485 1040z"/>
</svg>
