<?xml version="1.0" standalone="yes"?>
<svg xmlns="http://www.w3.org/2000/svg" width="1450" height="1450">
<path style="fill:#010101; stroke:none;" d="M0 0L0 1450L1450 1450L1450 0L0 0z"/>
<path style="fill:#ffffff; stroke:none;" d="M1387 755C1385.06 768.177 1371.49 779.84 1359 784.03C1355.76 785.119 1352.28 783.588 1349.22 784.693C1342.52 787.115 1341.34 797.488 1332 798.118C1327.65 798.412 1323.27 796.065 1319 795.503C1308.42 794.113 1298.58 793.608 1288 789.872C1282.15 787.805 1271.05 782.016 1265 782.851C1258.69 783.724 1255.57 791.331 1251 795C1260.87 808.892 1278.4 808.793 1269.42 830C1268.35 832.517 1267.4 835.508 1265.36 837.436C1261.42 841.17 1253.82 837.057 1251.03 841.322C1248.12 845.781 1253.88 848.808 1253.8 852.896C1253.67 859.218 1241.49 860.96 1237 861C1234.81 854.243 1215.62 849.467 1211.03 856.418C1208.3 860.549 1211.48 864.725 1212.32 868.714C1213.49 874.272 1211.46 877.868 1214 884C1208.2 884.872 1198.93 888.026 1197 894C1214.02 894.201 1199.15 913.907 1205.21 923.996C1208.82 930.004 1218.47 939.204 1225 941.799C1228.97 943.38 1233.68 942.331 1238 944C1240.55 939.015 1243.41 924.031 1251.58 925.662C1256.54 926.654 1259.93 932.771 1265 934.258C1270.16 935.771 1276.03 933.034 1280.4 937.699C1283.88 941.415 1279.71 950.223 1287.02 950.983C1294.34 951.743 1301.95 939.267 1308.83 936.782C1312.41 935.491 1316.51 939.179 1320 940C1321.64 931.168 1320.63 925.125 1330 921L1327 926L1331 921C1342.66 923.165 1351.05 925.672 1359 935C1365.02 926.241 1371.78 933.427 1379 937C1379.09 925.649 1381.92 914.635 1385.4 904C1386.72 899.98 1386.81 895.61 1390.23 892.637C1395.75 887.835 1409.06 888.476 1412.14 881.867C1418.6 868.005 1408.47 851.328 1408.16 838C1407.97 829.725 1417.08 823.493 1417.9 815C1418.93 804.234 1411.54 799.51 1406.8 791C1399.38 777.685 1402.48 762.828 1387 755M1338 966L1336 969L1336 970L1340 973L1338 966z"/>
</svg>
