<?xml version="1.0" standalone="yes"?>
<svg xmlns="http://www.w3.org/2000/svg" width="1450" height="1450">
<path style="fill:#010101; stroke:none;" d="M0 0L0 1450L1450 1450L1450 0L0 0z"/>
<path style="fill:#ffffff; stroke:none;" d="M1195 962C1193.07 977.598 1198.34 989.073 1200.28 1004C1201.33 1012.08 1199.41 1020.47 1209 1023C1202.36 1032.29 1213.41 1044.43 1217 1053L1245.4 1042.16L1247 1031L1251 1007C1246.37 1005.01 1240.1 1002.37 1235 1002.48C1230.35 1002.59 1225.59 1006.11 1221 1004.19C1211.1 1000.05 1202.88 990.1 1200.16 980C1198.43 973.581 1199.47 967.425 1195 962M1253 1026L1252 1040L1263 1039C1263 1030.36 1262.57 1026.03 1253 1026z"/>
</svg>
