<?xml version="1.0" standalone="yes"?>
<svg xmlns="http://www.w3.org/2000/svg" width="1450" height="1450">
<path style="fill:#010101; stroke:none;" d="M0 0L0 1450L1450 1450L1450 0L0 0z"/>
<path style="fill:#ffffff; stroke:none;" d="M1054 757C1051.46 763.548 1051.82 770.917 1049.19 776.999C1047.38 781.149 1041.79 784.041 1040.82 788.104C1040.12 791.024 1042.31 793.98 1042.04 797C1041.53 802.704 1036.71 813.593 1032.72 817.66C1016.75 833.949 1002.94 830.637 982 834.292C978.022 834.987 969.804 831.762 966.746 834.067C962.58 837.208 970.843 853.332 969.772 858.981C968.864 863.767 963.685 864.351 962.468 869.044C959.701 879.716 962.971 886.739 962.851 897C962.796 901.768 958.91 905.237 958.549 910C958.103 915.869 961.538 929.057 963.558 934.895C965.927 941.744 980.934 942.325 986.996 945.324C992.346 947.971 994.467 952.594 998.515 956.61C1006.16 964.199 1014.43 970.432 1016 982C1022.35 980.644 1022.51 973.894 1028.02 970.8C1033.67 967.623 1042.79 969.058 1047.49 965.142C1057.77 956.568 1057.91 945.371 1062.03 934C1065.17 925.344 1070.36 918 1068.61 908C1066.67 896.95 1050.51 893.926 1051.18 884C1051.61 877.698 1057.46 872.611 1057.76 866.015C1057.96 861.519 1053.58 857.863 1055.6 853.225C1057.61 848.644 1064.31 849.891 1066.24 844.942C1070.43 834.25 1069.92 820.409 1072.28 809C1073.24 804.323 1076.77 800.849 1077.55 796C1079.61 783.221 1065.66 775.875 1068 764L1054 757z"/>
</svg>
