<?xml version="1.0" standalone="yes"?>
<svg xmlns="http://www.w3.org/2000/svg" width="1450" height="1450">
<path style="fill:#010101; stroke:none;" d="M0 0L0 1450L1450 1450L1450 0L0 0z"/>
<path style="fill:#ffffff; stroke:none;" d="M1162 841C1153.85 854.735 1165.91 870.196 1163.25 885C1161.04 897.329 1143.45 891.027 1144.47 903C1145.18 911.225 1151.68 924.594 1160.09 927.442C1166.87 929.737 1177.2 928.55 1182.36 934.279C1200.49 954.396 1193.77 990.569 1220 1003.4C1224.9 1005.79 1229.99 1001.86 1235 1001.79C1240.59 1001.72 1246.57 1004.75 1252 1006C1254.63 994.636 1261.67 981.895 1269.21 973C1275.11 966.04 1283.13 960.453 1287 952C1280.14 947.904 1283.85 942.327 1279.4 937.819C1275.35 933.721 1269.69 936.502 1265 934.822C1260.16 933.089 1256.92 927.64 1252 926.407C1243.9 924.377 1240.41 939.808 1238 945C1233.71 942.635 1230.26 943.913 1226 942.509C1220.32 940.637 1210.44 931.757 1206.79 926.96C1204.47 923.919 1201.75 919.97 1201.89 916C1202.26 905.797 1211.45 895.012 1196 895C1197.11 888.178 1207.04 885.065 1213 883L1208 854L1207 854L1205 863C1194.14 860.953 1184.39 857.605 1175.39 851.062C1170.3 847.361 1168.35 843.47 1162 841z"/>
</svg>
