<?xml version="1.0" standalone="yes"?>
<svg xmlns="http://www.w3.org/2000/svg" width="1450" height="1289">
<path class = "AichiD" onclick = "Toyone()" id = "Toyone" style = "fill:#010101; stroke:none;" d="M0 0L0 1289L1450 1289L1450 0L0 0z"/>
<path class = "AichiD" onclick = "Toyone()" id = "Toyone" style = "fill:#ffffff; stroke:none;" d="M1212 452C1203.87 450.324 1198.01 450.747 1190 453C1193.94 464.637 1200.89 469.977 1214 466.366C1217.51 465.398 1222.14 461.728 1225.9 462.662C1230.02 463.689 1232.07 470.695 1234 474C1238.89 472.64 1243.37 474.109 1248 473.113C1251.99 472.256 1254.87 468.905 1259 468.225C1266.32 467.02 1285.56 473.793 1291.7 478.139C1295.98 481.175 1294.65 488.013 1299.47 490.971C1303.27 493.304 1307.91 489.777 1311.61 492.042C1314.56 493.852 1315.4 498.333 1317.42 501C1323.96 509.649 1338.42 520.47 1348.36 509.61C1355.5 501.807 1356.2 486.687 1353.6 477C1352.64 473.426 1346.52 467.082 1348.97 463.408C1351.8 459.144 1358.52 464.811 1362 464.748C1372.43 464.561 1376.48 451.006 1375 443C1379.1 442.997 1384.12 443.483 1387.7 441.062C1393.52 437.119 1394.07 429.909 1387 428C1388.75 419.498 1390.22 409.245 1382.39 402.854C1378.68 399.825 1366.82 400.474 1367.4 393.424C1367.75 389.14 1373.62 387.972 1375.49 384.61C1378.58 379.043 1378.78 372.551 1382.62 367C1387.67 359.702 1395.72 354.349 1399 346C1392.72 347.292 1385.81 345.189 1380 346.969C1362.3 352.394 1344.42 364.771 1325.04 359.137C1313.91 355.902 1326 342.5 1317.61 338.607C1312.33 336.163 1302.61 339.902 1297 340.316C1289.85 340.844 1278.15 338.403 1271 336.701C1262.96 334.787 1258.72 325.819 1251 323.028C1235.44 317.401 1217.68 319.918 1203 325.384C1198.84 326.934 1192.11 326.583 1190.02 331.144C1185.72 340.488 1191.55 345.137 1191.66 354C1191.73 359.871 1188.4 366.184 1189.52 372C1190.77 378.468 1197.51 382.894 1199.86 389C1203.26 397.851 1203.61 407.992 1206.6 417C1208.52 422.797 1213.74 427.803 1214.32 434C1214.87 439.846 1212.46 446.157 1212 452z"/>
</svg>
