<?xml version="1.0" standalone="yes"?>
<svg xmlns="http://www.w3.org/2000/svg" width="1450" height="1289">
<path style="fill:#010101; stroke:none;" d="M0 0L0 1289L1450 1289L1450 0L0 0z"/>
<path style="fill:#ffffff; stroke:none;" d="M56 325C58.4608 337.689 63.8709 352.137 59.2724 365C56.6925 372.216 49.0665 377.121 48.1049 385C47.3581 391.12 46.2149 397.892 47.5177 404C49.0693 411.274 52.9898 417.356 52.9923 425C52.9965 438.039 41.1062 456.996 53.6373 468.272C57.9585 472.161 65.1692 472.028 70 475.684C74.3866 479.005 77.7871 482.98 83 485C86.6212 476.174 89.9611 464.555 102 466.807C106.584 467.665 110.21 471.389 115 471.498C123.549 471.691 132.319 468.179 141 468L145 485L156 483C156.813 472.8 165.947 468.558 162 458L148 462C147 449.326 143.243 438.816 134.24 429.39C128.077 422.938 120.704 419.569 115 412C109.288 413.321 100.007 418.897 94.2276 416.393C86.3772 412.992 84.7768 391.172 90.7022 385.604C93.9713 382.532 100.929 385.125 105 384.96C120.552 384.329 130.854 382.841 138 400L139 400C143.864 388.32 150.001 382.141 150 369C150 365.748 150.963 360.355 147.682 358.333C143.553 355.788 138.25 359.182 134 359.586C127.797 360.174 121.212 358.267 115 358C114.999 348.858 116.243 338.841 106 336L109 321L92 323.644L73.0008 317.186L56 325z"/>
</svg>
