<?xml version="1.0" standalone="yes"?>
<svg xmlns="http://www.w3.org/2000/svg" width="1450" height="1289">
<path class = "AichiD" onclick = "Nishio()" id = "Nishio" style = "fill:#010101; stroke:none;" d="M0 0L0 1289L1450 1289L1450 0L0 0z"/>
<path class = "AichiD" onclick = "Nishio()" id = "Nishio" style = "fill:#ffffff; stroke:none;" d="M503 776L473 800L473 801L480 810C468.97 810.872 467.901 817.263 458.999 821.752C451.888 825.337 442.135 825.344 436.004 830.279C429.322 835.655 428.854 842.891 425.11 850C417.814 863.851 404.886 877.534 403.742 893.995C403.29 900.51 414.849 903.134 419.362 899.972C425.091 895.958 422.847 886.567 425.434 881C428.101 875.26 434.571 871.338 439 867C430.761 886.79 416.312 909.421 431.348 929.957C435.109 935.094 441.21 937.894 446 942L451 933L452 933C449.213 942.82 448.027 959.096 460.213 964.397C465.343 966.628 475.329 965.883 481 966L483 949L489 960C503.015 957.359 522.297 945.16 528 966C533.85 964.94 544.163 958.922 548.066 954.416C550.124 952.039 549.831 947.92 553.225 946.693C560.913 943.911 566.622 951.732 572 955.297C575.794 957.812 580.709 958.628 585 960L584 951C593.423 951.405 610.738 965.764 616 952L622 954C627.403 942.439 626.919 933.966 624.39 922C623.481 917.699 624.49 913.095 621.633 909.318C615.905 901.747 604.173 899.025 595 899C594.567 888.944 589.504 888.433 583.089 881.957C580.715 879.56 578.534 875.664 574.985 874.929C571.431 874.193 567.618 876.774 564 876.817C557.389 876.896 552.655 873.797 547 871L555 868L556 857L557 857C562.678 863.496 566.37 864.514 574 861L570 844C563.89 844.461 560.837 844.065 556 840C559.996 838.01 563.633 834.037 568 833.014C573.274 831.778 578.343 835.713 582.682 830.851C586.001 827.132 593.075 809.121 584.867 807.407C572.575 804.841 567.916 824.195 555 821.533C539.733 818.387 552.597 807.995 559 805L555 796C540.266 798.659 532.109 810.125 516 809.025C510.24 808.631 504.8 808.053 502.407 801.995C498.934 793.205 510.425 782.361 503 776z"/>
</svg>
