<?xml version="1.0" standalone="yes"?>
<svg xmlns="http://www.w3.org/2000/svg" width="1450" height="1289">
<path style="fill:#010101; stroke:none;" d="M0 0L0 1289L1450 1289L1450 0L0 0z"/>
<path style="fill:#ffffff; stroke:none;" d="M400 746C400.08 736.293 404.934 729.168 405.83 720C406.694 711.164 408.665 700.816 407.823 692C407.293 686.456 404.266 681.472 403.691 676C402.961 669.043 408.268 662.022 403.836 655.278C401.951 652.411 398.008 651.702 395 650.576C377.742 644.114 372.523 657.142 359.996 665.188C352.291 670.138 340.494 675.858 337.363 685.004C332.175 700.161 341.026 709.496 351.999 718.754C356.296 722.379 359.527 727.886 364.174 730.914C374.102 737.385 388.95 741.399 400 746z"/>
</svg>
