<?xml version="1.0" standalone="yes"?>
<svg xmlns="http://www.w3.org/2000/svg" width="1450" height="1289">
<path class = "AichiD" onclick = "Kiyosu()" id = "Kiyosu" style = "fill:#010101; stroke:none;" d="M0 0L0 1289L1450 1289L1450 0L0 0z"/>
<path class = "AichiD" onclick = "Kiyosu()" id = "Kiyosu" style = "fill:#ffffff; stroke:none;" d="M238 292C236.226 296.262 232.372 301.252 232.592 306C232.934 313.406 240.303 320.605 239.611 328C238.83 336.346 226.181 338.833 224.333 347C221.738 358.464 230.66 356.127 234.973 362.43C236.63 364.851 236.227 368.348 237.649 371C241.798 378.735 246.561 386.401 251 394L252 394C261.202 381.586 282.656 378.874 283.873 361C284.635 349.82 270.912 355.471 273 347C267.432 343.827 260.572 339.345 261.256 332C261.574 328.589 264.072 325.507 263.461 322C262.597 317.035 257.182 312.665 254.069 309C248.132 302.012 247.812 294.833 238 292z"/>
</svg>
