<?xml version="1.0" standalone="yes"?>
<svg xmlns="http://www.w3.org/2000/svg" width="1450" height="1289">
<path class = "AichiD" onclick = "Yatomi()" id = "Yatomi" style = "fill:#010101; stroke:none;" d="M0 0L0 1289L1450 1289L1450 0L0 0z"/>
<path class = "AichiD" onclick = "Yatomi()" id = "Yatomi" style = "fill:#ffffff; stroke:none;" d="M189 627L192 617L171 605L171 604C182.119 598.814 183.462 604.006 194 608L197 587C193.266 584.71 193.05 582.208 193 578L200 578C199.991 566.244 192.116 565.359 184.093 558.482C177.983 553.244 175.324 544.906 168.907 539.939C160.343 533.312 153.748 535 147 525C154.59 522.924 163.817 520.286 166 512C170.888 513.435 173.91 514.727 175 520C179.733 519.156 193.597 514.18 194.508 508.787C195.39 503.575 191.287 497.366 189 493L182 498L180 493C171.52 494.664 169.082 488.805 162 485.652C156.211 483.074 149.917 484.885 144 486C143.448 481.904 142.777 472.693 139.272 470.032C134.628 466.506 122.313 471.613 117 472.091C103.674 473.289 94.51 459.751 86.5756 478C85.6523 480.124 84.0342 482.59 83.9552 484.961C83.8015 489.579 90.9346 493.496 94 496.13C104.14 504.844 115.861 512.955 124.7 523.015C129.961 529.003 137.413 537.119 139.316 545C141.325 553.323 139.036 562.829 141.699 571C144.907 580.843 153.44 590.282 158.947 599C162.633 604.836 160.098 609.56 162.855 614.942C166.688 622.425 181.481 625.552 189 627z"/>
</svg>
