<?xml version="1.0" standalone="yes"?>
<svg xmlns="http://www.w3.org/2000/svg" width="1450" height="1289">
<path class = "AichiD" onclick = "Okazaki()" id = "Okazaki" style = "fill:#010101; stroke:none;" d="M0 0L0 1289L1450 1289L1450 0L0 0z"/>
<path class = "AichiD" onclick = "Okazaki()" id = "Okazaki" style = "fill:#ffffff; stroke:none;" d="M572 690L558 685L563.902 702L555.833 731L565.493 750.576L556.109 766L556.624 781L560 806C552.955 807.669 540.864 818.96 555.001 821.107C565.749 822.74 570.136 810.975 578.039 807.564C587.26 803.585 598.759 812.004 606.83 807.933C617.552 802.526 617.266 788.898 624.649 781.514C636.588 769.572 662.367 790.557 667.592 800.907C669.768 805.217 662.764 810.93 664.318 816.985C665.352 821.015 669.312 822.602 671.227 826.039C673.18 829.547 671.473 834.276 671 838L690 833C694.636 844.124 699.275 839.878 709 842.637C715.527 844.489 721.732 848.394 728 851C730.64 839.906 727.591 823.522 738.874 815.531C743.412 812.318 759.351 821.85 766 821.82C780.418 821.756 789.331 814.363 802 809.378C806.298 807.687 810.765 809.751 815 807.86C820.54 805.387 827.389 796.416 833.895 797.427C838.817 798.191 840.905 805.761 846.001 807.484C852.717 809.754 858.258 800.054 864.561 801.665C867.615 802.446 869.687 806.496 872.089 808.366C876.593 811.871 882.386 814.999 888 816C892.696 802.119 900.103 778.013 917 778L910.39 752L908.4 738L900.514 727L897.852 712.174L886.368 697.996L897 681C882.261 674.864 876.131 666.419 869.023 652.961C865.985 647.209 868.492 637.58 860.826 634.618C851.159 630.883 835.797 637.651 826 636.616C816.007 635.559 805.259 627.363 795 625.056C791.365 624.239 788.525 626.409 785 626.698C778.92 627.196 770.934 626.052 765 624.624C755.55 622.35 749.567 615.329 742 610L736 623C732.671 619.187 729.473 613.726 724.911 611.317C721.42 609.474 717.374 609.956 714.089 607.486C710.159 604.53 708.019 599.577 703.83 596.938C698.392 593.513 683.43 591.424 677.09 592.488C672.908 593.189 671.838 598.317 667.91 599.363C663.08 600.65 658.114 595.804 653.001 596.512C646.862 597.362 645.688 602.583 640.826 605.068C638.195 606.413 635.698 604.654 633 604.796C628.749 605.02 622.369 609.285 619.728 612.518C614.815 618.529 615.138 628.878 616.13 636C616.589 639.296 618.713 645.448 616.307 648.298C606.743 659.626 588.506 647.96 578.513 655.175C572.971 659.176 566.603 667.83 568.314 675C569.88 681.561 574.8 682.866 572 690z"/>
</svg>
