<?xml version="1.0" standalone="yes"?>
<svg xmlns="http://www.w3.org/2000/svg" width="1450" height="1289">
<path class = "AichiD" onclick = "Tokai()" id = "Tokai" style = "fill:#010101; stroke:none;" d="M0 0L0 1289L1450 1289L1450 0L0 0z"/>
<path class = "AichiD" onclick = "Tokai()" id = "Tokai" style = "fill:#ffffff; stroke:none;" d="M306 567C293.702 567.255 283.001 585.987 300 586L301 593C294.535 593 284.276 591.029 278.3 593.603C268.376 597.878 260.901 618.63 257 628L280 631L276 640C285.326 644.353 297.343 646.191 304.147 654.509C307.733 658.894 306.104 665.871 308.703 670.721C310.167 673.454 313.407 673.691 315.626 675.563C322.72 681.549 325.228 686.976 335 689C338.316 681.495 334.953 680.047 333.321 673C331.959 667.116 331.751 651.967 332.8 646C334.222 637.913 342.878 629.29 345.756 621C348.502 613.091 347.049 603.332 348.159 595C348.914 589.335 352.01 584.555 353 579C347.89 576.027 341.172 565.979 341 560L331 564C328.733 556.154 314.49 548.144 307.603 556.318C305.282 559.073 306 563.659 306 567z"/>
</svg>
