<?xml version="1.0" standalone="yes"?>
<svg xmlns="http://www.w3.org/2000/svg" width="1450" height="1289">
<path style="fill:#010101; stroke:none;" d="M0 0L0 1289L1450 1289L1450 0L0 0z"/>
<path style="fill:#ffffff; stroke:none;" d="M523 640C523.26 650.849 516.785 647.235 511.938 653.434C509.019 657.166 510.636 662.776 508.566 666.91C503.434 677.162 491.813 678 482 678L479 708L472 702L471 702C463.807 709.044 448.922 716.08 444.067 724.515C440.05 731.494 443.569 741.806 447 748L465 741C467.458 746.266 471.656 751.855 469.397 758C464.078 772.467 446.19 772.834 449.152 791.945C450.407 800.045 461.529 802.929 468 801.111C473.892 799.456 476.096 794.881 481.015 791.857C490.334 786.129 496.948 785.622 503 775L504 775C509.531 784.584 497.435 795.377 504.367 804.686C507.146 808.418 512.9 807.759 517 808.169C527.1 809.178 549.3 803.396 553.968 792.787C557.891 783.874 552.206 774.515 555.483 766C557.508 760.739 565.701 754.774 564.728 749C563.515 741.81 554.941 736.597 555.154 729C555.425 719.313 562.908 710.928 562.981 701C563.03 694.233 556.616 690.586 558 684L572 689C573.874 682.577 569.523 680.626 567.589 675C566.355 671.411 567.473 667.548 565.86 664C559.038 648.993 539.259 636.33 523 640z"/>
</svg>
