<?xml version="1.0" standalone="yes"?>
<svg xmlns="http://www.w3.org/2000/svg" width="1450" height="1289">
<path class = "AichiD" onclick = "Kasugai()" id = "Kasugai" style = "fill:#010101; stroke:none;" d="M0 0L0 1289L1450 1289L1450 0L0 0z"/>
<path class = "AichiD" onclick = "Kasugai()" id = "Kasugai" style = "fill:#ffffff; stroke:none;" d="M442 220L442 243L405 250.236L391 247.304L364 246C363.058 257.921 357.962 255.255 350.43 261.818C344.521 266.967 346.462 271.718 337 273L350.635 295.576L345.743 324.971L358 342C376.794 342 390.371 343.79 406 332.426C408.528 330.588 412.225 330.006 414.258 327.57C417.603 323.562 418.543 313.264 421 308C434.713 315.643 441.992 304.478 442 292C445.181 292.251 448.954 293.453 451.961 291.958C455.955 289.971 457.641 284.926 462.004 283.492C465.342 282.394 469.446 283.967 473 283.381C481.239 282.024 487.4 278.481 495 275.723C499.143 274.219 504.03 275.008 508 272.976C517.316 268.207 514.991 261.024 519.603 254.039C523.836 247.629 530.847 244.446 534 237C530.094 235.374 522.289 233.081 520.643 228.787C519.24 225.129 522.353 220.954 519.396 217.649C513.874 211.479 504.18 212.301 502.373 202C500.582 191.793 514.179 181.988 501.786 172.738C490.473 164.294 489.585 178.485 482.787 182.86C476.618 186.831 467.922 185.865 462.394 191.394C457.836 195.952 456.883 203.544 453.637 208.985C450.892 213.586 446.209 216.828 442 220z"/>
</svg>
