<?xml version="1.0" standalone="yes"?>
<svg xmlns="http://www.w3.org/2000/svg" width="1450" height="1289">
<path style="fill:#010101; stroke:none;" d="M0 0L0 1289L1450 1289L1450 0L0 0z"/>
<path style="fill:#ffffff; stroke:none;" d="M364 732C355.753 746.492 352.459 758.88 357 775L340 774.214L330.424 777.599L318 771.745L305 774.834L289 768C285.816 772.3 274.159 786.213 276.608 791.613C278.985 796.855 284.831 797.129 286.01 804C286.949 809.474 282.378 818.527 287.589 822.86C293.603 827.862 306.596 827.516 314 829.235C324.857 831.757 340.079 833.779 349.996 838.434C353.888 840.26 356.178 844.066 360 846C361.769 841.752 366.332 835.804 363.127 831.278C360.358 827.368 355.592 828.055 354 823C357.714 822.877 359.563 822.576 361 819C368.512 821.132 377.355 821.766 380 830C387.112 825.845 382.021 819.549 384.595 813C388.838 802.205 392.809 791.457 395.097 780C395.83 776.33 394.47 772.544 395.597 769C397.387 763.376 402.728 753.337 398.971 747.39C393.639 738.949 373.023 734.941 364 732z"/>
</svg>
