<?xml version="1.0" standalone="yes"?>
<svg xmlns="http://www.w3.org/2000/svg" width="1450" height="1289">
<path class = "AichiD" onclick = "Miyoshi()" id = "Miyoshi" style = "fill:#010101; stroke:none;" d="M0 0L0 1289L1450 1289L1450 0L0 0z"/>
<path class = "AichiD" onclick = "Miyoshi()" id = "Miyoshi" style = "fill:#ffffff; stroke:none;" d="M574 484C573.5 480.064 573.378 474.816 571.062 471.464C566.956 465.521 562.062 465.878 556 464.636C553.102 464.042 550.935 461.349 548 461.046C543.352 460.564 534.819 469.252 532.694 473.004C530.826 476.302 528.311 489.07 528.39 493C528.515 499.157 531.136 505.489 526.362 510.697C521.806 515.667 510.249 515.43 504 517.808C494.18 521.544 493.7 528.31 487.711 536C484.763 539.784 480.075 544.055 479.198 549C476.929 561.803 492.356 557.703 498 559.491C504.856 561.663 508.92 567.565 517 567.487C521.602 567.443 525.528 564.052 530 563.174C534.667 562.257 540.934 562.605 544.272 558.606C549.969 551.779 548.147 539.796 552.303 532.039C555.035 526.942 560.815 525.264 561.681 518.996C563.291 507.329 561.202 491.397 574 484z"/>
</svg>
