<?xml version="1.0" standalone="yes"?>
<svg xmlns="http://www.w3.org/2000/svg" width="1450" height="1289">
<path class = "AichiD" onclick = "Mihama()" id = "Mihama " style = "fill:#010101; stroke:none;" d="M0 0L0 1289L1450 1289L1450 0L0 0z"/>
<path class = "AichiD" onclick = "Mihama()" id = "Mihama " style = "fill:#ffffff; stroke:none;" d="M296 910C289.67 924.219 274.699 907.854 267.14 916.603C262.269 922.241 265.848 930.707 264.081 937C260.138 951.038 250.436 963.892 247.39 978C245.784 985.444 249.272 1004.18 258.171 1006.54C261.903 1007.53 267.167 1002.23 270 1000.28C279.148 994.008 289.518 995.425 295 984L309.581 988.728L323.558 1018.96L335 1036C346.793 1030.99 350.031 1013.83 360 1006C356.21 1001.34 350.327 999.182 346.513 994.674C344.228 991.973 344.141 988.137 341.57 985.637C337.269 981.456 332.51 980.468 330.638 974C327.693 963.826 333.004 955.093 335.228 946C335.952 943.038 334.485 940.035 335.124 937C336.245 931.684 338.721 924.58 334.987 919.51C332.678 916.375 326.594 915.457 323 915.079C313.635 914.093 305.14 912.095 296 910z"/>
</svg>
