<?xml version="1.0" standalone="yes"?>
<svg xmlns="http://www.w3.org/2000/svg" width="1450" height="1289">
<path class = "AichiD" onclick = "Seto()" id = "Seto" style = "fill:#010101; stroke:none;" d="M0 0L0 1289L1450 1289L1450 0L0 0z"/>
<path class = "AichiD" onclick = "Seto()" id = "Seto" style = "fill:#ffffff; stroke:none;" d="M488 280L492.024 293.367L506.467 314.424L495 341L504 345L489.317 359.329L486 375C500.377 375.617 509.943 375.346 523 382.262C528.299 385.069 533.423 394.132 539.015 395.006C545.438 396.01 552.567 388.334 559 387.56C564.675 386.878 570.352 390.13 575.957 387.967C579.989 386.41 581.101 382.261 584.213 379.637C589.334 375.321 594.88 371.657 600.039 367.228C605.496 362.543 613.113 363.901 618.787 360.062C625.199 355.725 628.118 343.599 631.796 337C633.561 333.834 636.733 331.268 638.173 328C640.043 323.753 634.951 320.423 635.588 316C636.957 306.492 642.324 299.52 646 291C641.688 287.9 635.725 284.59 632.988 279.911C627.904 271.216 630.435 263.372 622.714 255.02C615.708 247.441 606.828 254.411 598.004 250.348C592.255 247.701 589.381 241.409 584.714 237.419C576.91 230.747 553.689 223.581 544.093 228.109C537.758 231.098 533.653 239.963 528.911 244.996C526.138 247.939 521.962 250.49 520.028 254.089C517.847 258.149 519.115 262.138 515.852 266C507.626 275.737 498.082 274.021 488 280z"/>
</svg>
