<?xml version="1.0" standalone="yes"?>
<svg xmlns="http://www.w3.org/2000/svg" width="1450" height="1289">
<path class = "AichiD" onclick = "Taketoyo()" id = "Taketoyo" style = "fill:#010101; stroke:none;" d="M0 0L0 1289L1450 1289L1450 0L0 0z"/>
<path class = "AichiD" onclick = "Taketoyo()" id = "Taketoyo" style = "fill:#ffffff; stroke:none;" d="M286 824C287.828 829.403 289.862 834.51 293.468 839C295.809 841.916 300.913 845.625 301.36 849.576C301.969 854.964 293.869 861.006 292.179 866C290.788 870.109 293.511 873.92 293.726 878C294.246 887.855 288.16 901.792 298.225 909.146C305.485 914.451 316.668 912.737 325 914.518C328.598 915.286 333.144 918.172 336.867 916.958C343.971 914.64 344.752 898.528 339 895L339 894C349.648 888.763 347.592 870.328 344 861C347.655 864.06 354.785 865.863 352.677 858.206C351.035 852.239 344.963 850.409 344 843L357 846C352.04 837.52 344.556 838.518 336 836.265C319.357 831.884 302.876 827.483 286 824z"/>
</svg>
