<?xml version="1.0" standalone="yes"?>
<svg xmlns="http://www.w3.org/2000/svg" width="1450" height="1289">
<path class = "AichiD" onclick = "Minamichita()" id = "Minamichita" style = "fill:#010101; stroke:none;" d="M0 0L0 1289L1450 1289L1450 0L0 0z"/>
<path class = "AichiD" onclick = "Minamichita()" id = "Minamichita" style = "fill:#ffffff; stroke:none;" d="M295 985C287.239 998.315 269.719 998.101 259 1009L268.39 1021.24L300.609 1046.01L322 1054.51L348 1067.89L361 1067L359 1073L385 1074.81L398 1080C398.21 1077.11 401.023 1072.85 400.254 1070.24C399.294 1066.98 395.359 1065.49 394.368 1061.99C392.492 1055.35 396.951 1050.39 388 1048C398.397 1030.08 380.69 1027.38 370.058 1018.47C365.954 1015.03 364.933 1009.7 361 1006L360 1006L352.147 1018.57L335 1038C332.569 1029.56 326.3 1025.35 322.558 1018C318.437 1009.9 316.435 994.477 308.722 988.938C305.176 986.391 299.207 985.868 295 985M472 1030C469.824 1033.91 467.387 1035.3 463 1036L463 1037L466 1038L465 1043L471 1046C472.87 1041.5 475.461 1040.33 480 1039L486 1051L488 1051L492 1044L487 1042L489 1036L472 1030M426 1072C432.446 1072.89 440.805 1069.56 438 1062C431.533 1063.36 428.63 1065.92 426 1072M436 1098C434.5 1107.36 425.115 1109.88 431 1120C435.667 1115.1 431.539 1109.26 440 1107L440 1099L436 1098z"/>
</svg>
