<?xml version="1.0" standalone="yes"?>
<svg xmlns="http://www.w3.org/2000/svg" width="1450" height="1289">
<path class = "AichiD" onclick = "Toyota()" id = "Toyota" style = "fill:#010101; stroke:none;" d="M0 0L0 1289L1450 1289L1450 0L0 0z"/>
<path class = "AichiD" onclick = "Toyota()" id = "Toyota" style = "fill:#ffffff; stroke:none;" d="M534 455C542.258 456.215 546.767 460.589 554.004 463.604C556.638 464.702 559.344 463.669 562 464.464C571.779 467.391 573.885 476.222 575 485C568.274 486.991 561.698 501.149 561.387 508C561.199 512.125 563.371 515.811 562.262 519.996C560.817 525.444 555.1 527.22 552.854 532.09C549.213 539.985 550.206 550.32 545.697 557.787C539.901 567.383 515.214 567.902 506 566C503.618 571.375 502.751 578.109 499.298 582.91C495.805 587.765 489.249 589.872 486.314 595.171C480.158 606.283 476.864 625.167 490.015 631.973C497.444 635.818 505.003 631.057 512 632.661C516.005 633.58 517.923 638.241 522 639.071C528.834 640.463 535.674 638.471 542.957 641.148C552.391 644.616 561.823 656.686 567 665C572.617 662.637 575.431 660.248 576 654C586.62 652.651 607.141 656.828 615.357 648.157C618.659 644.672 614.788 634.345 614.515 630C613.513 614.048 625.758 602.433 641 606C650.096 593.357 655.759 596.386 669 600C676.073 590.17 693.459 588.986 703.911 596.564C707.91 599.464 710.031 604.408 714.17 607.142C717.147 609.109 720.86 608.742 723.985 610.317C728.633 612.659 731.945 617.946 735 622L742 609C754.324 621.316 765.999 624.701 783 625.815C787.138 626.086 790.926 623.688 795 624.525C804.931 626.566 817.498 636.393 827 636.192C836.386 635.994 850.521 630.724 859.961 633.693C871.249 637.243 864.607 658.083 877 658.178C884.057 658.232 885.123 651.781 888.075 647.039C890.821 642.629 897.12 637.34 902 635.477C909.009 632.802 917.613 640.78 922.566 631.699C924.781 627.639 923.952 622.347 925.559 618C927.414 612.983 932.438 608.586 932.323 603C932.199 597.003 927.577 590.997 929.587 585C933.995 571.852 946.551 562.969 944.714 548C942.839 532.728 926.51 522.713 929.148 506.015C930.205 499.323 938.352 497.626 942.487 493.24C946.214 489.286 948.014 479.317 948.431 474C948.777 469.601 942.128 462.121 945.531 458.539C949.154 454.724 954.756 460.993 959 459.929C965.14 458.39 977.354 446.661 977.192 440C977.05 434.146 971.097 427.637 967 424L967 423C975.964 416.686 984.395 407.521 988.034 397C990.024 391.246 986.88 386.076 991.149 381C993.476 378.233 1007.21 365.299 1010.51 373.238C1011.94 376.688 1008.96 382.61 1008 386L1022 387L1022 396C1037.19 397.918 1040.79 383.162 1054 381.245C1058.27 380.626 1062.9 383.613 1067 384.482C1072.6 385.669 1078.38 384.356 1084 385.213C1088.94 385.966 1093.06 389.119 1098 390C1102.43 370.829 1098.75 346.981 1090.08 329C1085.38 319.237 1073.97 318.126 1069.3 309.895C1066.47 304.894 1062.46 291.412 1064.83 286C1067.08 280.851 1071.87 277.129 1074.24 272C1078.97 261.746 1076.03 257.411 1087 251C1085.9 245.368 1085.14 241.999 1079 241C1075.02 249.95 1058.34 253.736 1049 252.161C1044.05 251.327 1037.08 246.854 1032.22 249.497C1025.3 253.261 1026.87 266.047 1020.89 271.535C1016.37 275.682 1008.67 280.326 1002.91 282.412C999.266 283.732 995.496 282.473 992 284.589C984.121 289.357 979.076 296.812 971.961 302.214C964.867 307.6 956.59 310.928 949 315.453C942.946 319.062 933.836 332.275 927.014 331.793C919.908 331.291 913.361 317.446 910 312C907.818 313.076 904.926 315.559 902.424 315.546C899.738 315.531 897.413 312.798 894.999 311.854C889.781 309.813 880.294 313.58 877.666 306.941C875.242 300.819 879.892 289.918 873.566 284.938C861.24 275.232 844.114 287.629 831.093 282.397C824.409 279.711 826.512 272.146 823.062 267.39C820.938 264.463 816.767 263.079 814 260.802C805.74 254.003 793.538 239.428 782 238.718C777.321 238.431 772.624 241.259 768 241.816C757.56 243.073 744.239 241.159 735.133 247.479C729.209 251.592 732.188 259.659 727.486 264.351C721.149 270.675 702.497 277.788 694 281.005C689.481 282.717 684.59 281.335 680 282.637C673.688 284.429 668.538 288.801 662 290.065C656.791 291.072 649.035 289.985 645.232 294.314C640.763 299.402 635.322 311.048 635.903 318C636.157 321.042 639.733 323.535 639.245 326.576C638.766 329.561 634.893 332.423 633.352 335C628.95 342.357 626.316 354.772 619.61 360.272C614.525 364.443 606.495 363.06 601.039 366.728C595.78 370.263 588.12 376.175 583.637 380.637C580.485 383.775 579.733 387.693 574.985 389.042C564.481 392.027 547.821 384.883 540.032 397.39C538.171 400.377 539.818 404.742 539.961 408C540.387 417.732 541.834 428.354 541.502 438C541.281 444.4 535.556 449.001 534 455z"/>
</svg>
