<?xml version="1.0" standalone="yes"?>
<svg xmlns="http://www.w3.org/2000/svg" width="1450" height="1289">
<path class = "AichiD" onclick = "Tsushima()" id = "Tsushima" style = "fill:#010101; stroke:none;" d="M0 0L0 1289L1450 1289L1450 0L0 0z"/>
<path class = "AichiD" onclick = "Tsushima()" id = "Tsushima" style = "fill:#ffffff; stroke:none;" d="M151 368C151 382.176 142.745 388.999 139 402L138 402C132.618 383.317 120.635 384.946 105 385.906C100.937 386.155 94.0758 383.327 90.8434 386.603C85.9867 391.526 87.7574 399.292 89.4244 405C90.0987 407.309 90.732 409.708 91.6304 411.941C95.812 422.335 108.125 409.48 114.83 412.929C118.675 414.907 120.803 419.693 124.17 422.363C138.581 433.79 145.563 442.499 149 461C154.524 459.432 162.989 458.551 165.972 452.956C167.977 449.195 166.203 444.726 168.603 441.015C173.554 433.36 180.738 428.694 179.393 418.039C178.812 413.443 173.319 411.745 172.742 406.999C170.689 390.106 172.951 368.453 151 368z"/>
</svg>
