<?xml version="1.0" standalone="yes"?>
<svg xmlns="http://www.w3.org/2000/svg" width="1450" height="1289">
<path style="fill:#010101; stroke:none;" d="M0 0L0 1289L1450 1289L1450 0L0 0z"/>
<path style="fill:#ffffff; stroke:none;" d="M253 636L250 643L259 647L247.966 655.603L238 676L241 677L238 684L231 681C229.209 685.302 222.998 693.208 224.418 697.911C225.518 701.551 229.749 702.845 230.067 707.004C230.553 713.362 223.601 728.849 229.603 733.836C233.226 736.846 239.793 736.137 244 738.613C247.887 740.9 251.186 744.682 255.999 744.721C264.488 744.79 265.132 736.664 271.09 732.603C276.24 729.094 286.925 730.001 293 730C291.192 723.577 291.568 708.29 302.907 712.608C309.079 714.958 311.681 720.922 319 723C321.441 718.818 323.165 714.04 325.966 710.093C329.607 704.964 340.29 698.872 333.972 690.728C331.436 687.458 325.258 686.187 322.015 682.982C317.198 678.22 315.096 674.587 308 674C307.305 668.618 306.914 659.973 303.836 655.414C299.421 648.874 292.755 647.713 286 645.39C274.639 641.484 265.237 637.555 253 636M219 703L212 716L218 718L218 715L222 716L226 706L219 703z"/>
</svg>
