<?xml version="1.0" standalone="yes"?>
<svg xmlns="http://www.w3.org/2000/svg" width="1450" height="1289">
<path style="fill:#010101; stroke:none;" d="M0 0L0 1289L1450 1289L1450 0L0 0z"/>
<path style="fill:#ffffff; stroke:none;" d="M320 724C312.802 721.957 305.721 712.2 299.011 713.153C294.716 713.763 291.544 717.674 291.81 722C292.291 729.831 299.441 733.203 300.968 740C303.043 749.232 293.332 760 290 768L305 774.281L318 771.22L330 776.88L340 773.397L356 774C354.046 767.063 351.778 760.102 354.244 753C356.287 747.114 363.454 737.291 361.933 731C359.833 722.313 348.178 716.314 342.576 709.997C340.419 707.565 337.721 703.772 334.001 704.404C326.236 705.722 321.867 717.519 320 724z"/>
</svg>
