<?xml version="1.0" standalone="yes"?>
<svg xmlns="http://www.w3.org/2000/svg" width="1450" height="1289">
<path class = "AichiD" onclick = "Toyohashi()" id = "Toyohashi" style = "fill:#010101; stroke:none;" d="M0 0L0 1289L1450 1289L1450 0L0 0z"/>
<path class = "AichiD" onclick = "Toyohashi()" id = "Toyohashi" style = "fill:#ffffff; stroke:none;" d="M965 848C963.606 858.963 954.777 863.036 944 863.907C937.958 864.395 930.461 862.451 927.028 869.019C924.776 873.327 924.274 889.768 928.728 892.933C932.683 895.744 940.17 891.003 942.11 898.105C944.399 906.484 937.701 910.272 932 913.965C921.945 920.48 911.524 925.164 901 931L905 944C897.821 941.571 889.57 935.771 882 935.383C870.147 934.776 869.08 941.882 860.895 946.861C853.515 951.35 845.372 952.721 838 958L836 943C832.161 944.794 827.424 949.129 823 948.612C814.415 947.608 810.355 934.129 803 946C809.778 949.017 808.349 954.201 813.148 958.606C823.734 968.323 836.653 967.789 849 963C837.183 973.875 827.585 969.418 813 970.019C808.403 970.209 804.579 972.671 800 973L800 1021L797 1021L796 1007C789.197 1008.48 791.888 1014.56 792 1020L787 1019C787.648 1027.34 813.176 1035.56 821 1034.17C824.568 1033.53 827.965 1030.86 831 1029L837 1039L809 1049L809 1040L787 1041L787 1064L789.318 1072.72L805 1071C804.021 1074.06 803.41 1079.05 800.57 1080.97C795.731 1084.25 792.16 1080.97 790 1088L794 1090C789.363 1097.95 788.978 1103.52 787.277 1112C786.385 1116.45 783.319 1122.48 789.144 1125.11C797.637 1128.94 813.719 1124.34 820.363 1131.32C823.659 1134.78 822.361 1144.93 825.449 1146.36C828.764 1147.89 834.697 1145.2 838 1144.37L870 1136.37C910.332 1126.29 950.218 1118.6 991 1111C991 1096.12 995.923 1080.8 993.79 1066C992.234 1055.2 984.931 1045.39 982.819 1035C981.941 1030.68 984.171 1026.35 983.635 1022C982.992 1016.78 979.812 1012.23 979.186 1007C977.775 995.216 980.298 979.728 982.148 968.004C983.485 959.532 994.869 958.236 997.968 950.826C1000.43 944.952 1001.4 934.099 999.436 928C998.162 924.055 993.359 920.514 994.086 916.039C995.298 908.57 1006.02 906.523 1005.67 897.105C1005.44 891.145 995.633 890.654 993.647 884.985C992.583 881.951 994.588 879.065 994.153 876C993.336 870.244 986.825 851.965 981.852 849.028C977.605 846.519 969.789 848 965 848M784 953C787.552 964.818 799.433 959.273 805 952C798.052 947.292 791.501 950.623 784 953z"/>
</svg>
