<?xml version="1.0" standalone="yes"?>
<svg xmlns="http://www.w3.org/2000/svg" width="1450" height="1289">
<path class = "AichiD" onclick = "Nagoya()" id = "Nagoya" style = "fill:#010101; stroke:none;" d="M0 0L0 1289L1450 1289L1450 0L0 0z"/>
<path class = "AichiD" onclick = "Nagoya()" id = "Nagoya" style = "fill:#ffffff; stroke:none;" d="M443 293C442.887 306.602 434.618 314.433 421 309L414.991 327.721L406 332.727L392 342.034L357 343C356.543 332.551 349.251 334.325 345.519 326.787C343.378 322.464 346.233 311.419 346 306L325 316C323.027 309.572 318.982 310.001 313 310C315.441 321.517 292.415 328.735 284 332C278.421 312.692 252.109 327.76 265.394 341.331C267.832 343.822 270.893 345.523 274 347L272 351C274.806 351.998 278.796 350.712 281.096 352.541C289.646 359.337 280.267 373.178 274.482 378.682C270.949 382.044 265.181 381.159 261.09 383.97C257.046 386.748 254.804 391.193 251.486 394.675C241.684 404.963 231.06 413.838 234 429L217 426C217.397 420.925 214.827 405.196 205.966 413.607C199.365 419.874 201.26 426.472 201.617 434C201.779 437.435 200.806 440.202 198 442L200 470C194.906 471.062 195.005 473.43 193.11 477.715C186.592 492.454 195.959 501.008 196 516C214.874 516 224.413 535.388 242 534L240 505L241 505L246.843 524L253.945 543L247 567L252 569C241.292 574.099 240.813 593.027 251 600L249 591L253 593L253 589L258 589L265.081 561L266 548L267 551C269.417 548.471 269.332 547.209 268 544L271 545C273.696 540.38 277.142 535.583 273 531L273 530L283 525L285 519L286 519C290.462 531.407 299.059 518.19 302 512L303 512C303 519.349 300.99 526.056 306 532L301 533L303 553C313.697 553 326.169 550.517 331 562L343 560C340.902 566.364 348.954 576.882 355 579L358 575C363.144 585.329 372.015 593.096 381 582L382 582C385.094 586.785 397.525 592.699 400.223 583.811C401.767 578.724 398.75 568.844 399 563C411.269 569.584 414.151 555.118 413 546C417.685 547.313 432.776 547.99 436.57 545.066C440.554 541.996 440.045 535.431 441.299 531.104C442.927 525.489 446.714 521.23 448 515C455.31 516.204 457.006 505.995 455.412 500.039C451.539 485.566 435.214 477.439 430 464C438.323 463.901 436.203 458.441 442.225 455.589C445.462 454.056 452.528 455.567 454.215 451.682C458 442.961 448.142 437.024 460 430C458.698 426.625 455.704 422.033 455.621 418.424C455.559 415.749 457.994 413.632 458.397 410.999C460.364 398.126 458.9 385.004 445 381L445 380C449.584 380 457.429 381.524 461.562 379.397C467.311 376.438 459.905 372.473 457 372L459 367L453 368L453 374L441 374L444 364L430 353C432.319 349.235 433.047 344.594 435.564 341.039C441.267 332.985 448.961 331.027 449 320L476.715 309.765L488.502 308.972L495 296C489.365 292.839 491.869 283.407 486.772 281.777C481.933 280.229 475.052 284.419 470 284.537C467.067 284.605 463.88 283.034 461.039 284.201C452.942 287.529 453.119 293.763 443 293z"/>
<path class = "AichiD" onclick = "Nagoya()" id = "Nagoya" style = "fill:#010101; stroke:none;" d="M246 400L247 401L246 400z"/>
<path class = "AichiD" onclick = "Nagoya()" id = "Nagoya" style = "fill:#ffffff; stroke:none;" d="M273 580C283.49 581.829 284.598 570.964 287.576 563C288.611 560.231 291.297 555.259 289.788 552.322C285.975 544.899 278.831 555.494 277.885 559C277.171 561.646 276.574 564.321 276 567C275.068 571.35 273.899 575.644 273 580z"/>
</svg>
