<?xml version="1.0" standalone="yes"?>
<svg xmlns="http://www.w3.org/2000/svg" width="1450" height="1289">
<path class = "AichiD" onclick = "Togo()" id = "Togo" style = "fill:#010101; stroke:none;" d="M0 0L0 1289L1450 1289L1450 0L0 0z"/>
<path class = "AichiD" onclick = "Togo()" id = "Togo" style = "fill:#ffffff; stroke:none;" d="M453 516L453 517L478 549C481.503 543.415 486.133 538.616 489.521 533C491.878 529.093 492.814 523.751 496.39 520.702C504.281 513.977 516.362 516.475 524.61 511.566C531.57 507.424 527.071 498.186 527.676 492C528.334 485.271 532.593 482.092 530 475C522.613 477.866 516.063 477.62 509 479.603C500.033 482.121 492.805 488.215 483 490.338C476.204 491.809 462.75 491.588 457.643 496.854C453.872 500.742 456.232 510.958 453 516z"/>
</svg>
