<?xml version="1.0" standalone="yes"?>
<svg xmlns="http://www.w3.org/2000/svg" width="1450" height="1289">
<path class = "AichiD" onclick = "Shitara()" id = "Shitara" style = "fill:#010101; stroke:none;" d="M0 0L0 1289L1450 1289L1450 0L0 0z"/>
<path class = "AichiD" onclick = "Shitara()" id = "Shitara" style = "fill:#ffffff; stroke:none;" d="M1186 343C1181.67 347.328 1177.37 352.882 1171 354.003C1162.46 355.505 1155.07 349.995 1146 352.351C1129.67 356.597 1117.65 368 1100 368L1098 392C1087.35 385.783 1079.31 387.88 1068 385.482C1063.1 384.443 1057.03 380.352 1052 382.233C1039.26 386.994 1035.76 397.632 1021 397L1021 388L1007 387L1011 372L1010 371C1002.18 372.614 992.566 375.437 989.618 384C987.625 389.791 989.81 394.883 986.752 401C982.347 409.809 974.879 416.121 968 423L968 424C971.301 428.159 976.851 433.53 977.613 439C978.581 445.95 965.165 458.49 959 460.292C953.597 461.872 949.846 456.49 944 459C947.232 470.22 951.946 480.526 944.146 491.816C940.341 497.323 930.737 498.591 930.059 506.04C928.467 523.51 942.992 534.035 946 550L955 547C953.036 553.973 949.616 565.161 955.728 571.272C965.336 580.88 973.383 571.536 981.004 566.854C988.979 561.955 993.991 565.315 994 554C1006.09 554 1018.37 563.156 1017.74 577C1017.52 581.847 1012.9 586.607 1011 591C1022.49 595.777 1020.93 589.448 1031 586.546C1037.04 584.805 1042.71 591.108 1049 588.427C1057.85 584.654 1054.57 577.951 1060.31 572.643C1065.15 568.171 1067.95 573.487 1073 572.755C1079.31 571.84 1084.33 565.305 1091 565.973C1108.11 567.685 1106.23 585.016 1111.6 598C1113.86 603.459 1118.1 606.957 1120.86 612C1122.79 615.532 1122.62 621.368 1126.3 623.682C1132.32 627.459 1143.85 626.687 1147.15 619.826C1151.83 610.067 1149.65 599.096 1152.31 589.004C1154.69 579.975 1163.41 571.999 1166.23 563C1167.57 558.743 1165.11 554.322 1165.55 550C1166.03 545.237 1168.74 540.609 1170 536C1164.01 533.199 1157.57 529.214 1153.42 523.961C1151.16 521.099 1150.55 516.129 1147.5 514.028C1141 509.547 1133.32 513.988 1130.55 503C1127.58 491.182 1134.26 477.507 1135.64 466C1136.18 461.42 1134.58 456.535 1134 452L1149 453.582L1179 445.788L1190.09 451.223L1211 451C1212.07 445.323 1214.69 437.707 1213.32 432C1211.85 425.874 1207.04 421.066 1205.3 415C1202.74 406.055 1202.29 395.472 1198.44 387C1196.04 381.702 1190.37 377.668 1188.9 372C1186.27 361.899 1195.75 351.574 1186 343z"/>
</svg>
