<?xml version="1.0" standalone="yes"?>
<svg xmlns="http://www.w3.org/2000/svg" width="1450" height="1289">
<path style="fill:#010101; stroke:none;" d="M0 0L0 1289L1450 1289L1450 0L0 0z"/>
<path style="fill:#ffffff; stroke:none;" d="M151 367C174.278 367.999 170.664 390.448 173.488 407.985C174.177 412.264 179.052 413.859 179.958 418.015C180.885 422.274 178.041 426.687 178.604 430.985C179.815 440.223 193.007 440.981 200 441C200.659 435.781 198.608 430.331 199.356 425.576C201.369 412.761 209.888 402.867 206 389L231 396L233 391C234.996 392.43 236.967 393.909 239.005 395.279C242.787 397.823 251.003 399.528 248.975 391.985C246.779 383.817 238.945 369.107 233.976 362.564C231.788 359.683 227.158 360.649 225.024 357.57C223.173 354.9 223.248 350.142 223 347L207 353.644L190 350.424L165 356.196L152.603 359.164L151 367z"/>
</svg>
