<?xml version="1.0" standalone="yes"?>
<svg xmlns="http://www.w3.org/2000/svg" width="1450" height="1289">
<path class = "AichiD" onclick = "Tokoname()" id = "Tokoname" style = "fill:#010101; stroke:none;" d="M0 0L0 1289L1450 1289L1450 0L0 0z"/>
<path class = "AichiD" onclick = "Tokoname()" id = "Tokoname" style = "fill:#ffffff; stroke:none;" d="M237 817C243.018 819.419 244.307 822.85 243 829C247.526 831.722 254.816 833.618 258.351 837.419C263.701 843.172 261.306 850.508 263.854 857C266.654 864.131 271.529 869.095 273.062 877C275.229 888.18 270.439 903.43 267 914C272.991 914.001 287.479 918.231 292.362 914.958C298.617 910.765 292.91 903.025 291.649 898C290.149 892.025 292.75 885.07 292.87 879C292.944 875.272 290.774 871.666 291.22 868C292.028 861.359 302.861 854.881 300.342 848C297.356 839.844 288.923 834.844 286.093 826C283.394 817.567 287.378 808.938 284.516 801.015C282.838 796.371 274.971 794.144 275.465 789.028C275.747 786.113 278.761 784.278 280.023 781.791C285.088 771.811 292.357 763.217 297.215 753C299.283 748.651 302.096 741.579 299.357 737.005C294.861 729.495 277.075 728.586 270.301 733.603C265.402 737.232 264.807 744.243 257.996 745.322C247.934 746.915 239.662 733.305 228.005 735.684C224.843 736.33 222.545 738.746 222.612 742.015C222.722 747.407 225.133 752.48 224.957 758C224.668 767.061 222.174 776.99 223.189 786C223.772 791.175 227.329 795.761 227.37 800.999C227.424 807.969 223.069 811.39 225.299 818.996C228.054 828.397 236.206 825.725 237 817M196 825L208 876L214 875L212 866L223 865C223.758 847.356 219.596 822.036 196 825z"/>
</svg>
