<?xml version="1.0" standalone="yes"?>
<svg xmlns="http://www.w3.org/2000/svg" width="1450" height="1289">
<path class = "AichiD" onclick = "Konan()" id = "Konan" style = "fill:#010101; stroke:none;" d="M0 0L0 1289L1450 1289L1450 0L0 0z"/>
<path class = "AichiD" onclick = "Konan()" id = "Konan" style = "fill:#ffffff; stroke:none;" d="M306 112C296.69 116.007 286.209 117.299 277 121.519C271.031 124.253 266.776 129.531 261 132.601C248.736 139.12 239.11 141.971 236 157C247.405 163.362 242.287 171.314 248.353 180.957C251.305 185.65 256.943 186.255 260.146 190.39C262.851 193.883 261.957 199.155 265.43 202.182C268.931 205.235 274.206 205.151 277.61 208.419C283.535 214.109 282.808 220.99 292 223C293.307 220.18 295.44 217.238 295.167 214C294.755 209.116 290.867 205.08 292.457 200C295.333 190.809 306.694 190.607 309.852 182.79C314.042 172.421 305.025 166.289 304.113 157C303.069 146.373 308.877 138.687 310.15 129C310.677 124.985 307.608 115.823 306 112z"/>
</svg>
