<?xml version="1.0" standalone="yes"?>
<svg xmlns="http://www.w3.org/2000/svg" width="1450" height="1289">
<path class = "AichiD" onclick = "Komaki()" id = "Komaki" style = "fill:#010101; stroke:none;" d="M0 0L0 1289L1450 1289L1450 0L0 0z"/>
<path class = "AichiD" onclick = "Komaki()" id = "Komaki" style = "fill:#ffffff; stroke:none;" d="M326 191C323.523 196.596 323.112 204.2 317.892 208.035C311.914 212.426 298.238 213.786 294.483 219.148C290.031 225.507 293.181 232.983 292.957 240C292.568 252.151 289.054 262.479 287 274L304.816 277.028L317 287C324.784 274.501 332.554 277.063 343.772 270.57C347.439 268.448 346.958 263.559 350.279 261.075C358.232 255.125 362.758 256.714 363 245C384.03 246.66 402.482 250.138 423 245.13C427.638 243.997 437.804 244.407 440.86 240.486C445.87 234.058 440.608 227.348 442.546 221.089C443.87 216.812 449.483 214.403 452.031 210.83C456.029 205.224 456.802 197.694 460.969 192.213C466.243 185.278 476.204 186.516 482.787 182.062C486.518 179.539 488.337 173.995 490 170C481.269 168.903 482.08 173.363 474.957 175.772C465.728 178.892 454.61 179.096 445 181.613C438.476 183.321 432.557 179.336 426 181.363C422.62 182.407 418.097 183.614 415.302 185.843C412.992 187.685 412.593 191.137 409.772 192.397C405.747 194.194 400.291 192.559 396 193.213C392.531 193.742 389.527 196.008 386 196.146C377.298 196.486 368.813 191.133 360 191.019C355.842 190.965 349.989 191.088 346.09 192.601C343.552 193.586 341.849 196.388 338.961 196.431C334.788 196.494 329.801 192.582 326 191z"/>
</svg>
