<?xml version="1.0" standalone="yes"?>
<svg xmlns="http://www.w3.org/2000/svg" width="1450" height="1289">
<path class = "AichiD" onclick = "Toei()" id = "Toei" style = "fill:#010101; stroke:none;" d="M0 0L0 1289L1450 1289L1450 0L0 0z"/>
<path class = "AichiD" onclick = "Toei()" id = "Toei" style = "fill:#ffffff; stroke:none;" d="M1135 453C1137.08 469.337 1127.04 488.226 1131.52 504C1134.4 514.136 1141.35 508.904 1147.58 513.028C1150.99 515.283 1151.39 520.726 1153.7 523.911C1157.7 529.432 1164.86 533.355 1171 536C1169.31 540.391 1166.65 545.26 1166.3 550C1165.01 567.246 1184.8 576.022 1197 583.839C1200.38 586.006 1202.47 590.211 1206.09 591.883C1215.38 596.172 1229.8 587.097 1232 603L1253 622C1257.21 612.223 1264.35 605.524 1270.37 597C1277.18 587.348 1281.1 576.399 1290.09 568.213C1300.74 558.521 1316.47 555.586 1322.89 541C1325.53 535.004 1330.18 519.281 1327.79 513C1325.98 508.234 1320.41 504.833 1317.22 501C1315.28 498.658 1314.17 494.702 1311.58 493.032C1307.8 490.599 1303.14 494.188 1299.3 491.393C1294.94 488.218 1295.3 482.073 1291.49 478.934C1288.08 476.124 1282.11 475.618 1278 474.252C1273.61 472.792 1269.62 469.915 1265 469.213C1257.83 468.121 1254.36 471.96 1248 473.589C1243.19 474.822 1238.1 473.567 1233 475L1227 462C1218.57 464.41 1203.06 473.308 1194.7 465.397C1189.54 460.505 1190.81 447.926 1181.96 446.488C1170.54 444.631 1159.63 452.31 1149 454.301C1144.52 455.14 1139.46 453.564 1135 453z"/>
</svg>
