<?xml version="1.0" standalone="yes"?>
<svg xmlns="http://www.w3.org/2000/svg" width="1450" height="1289">
<path class = "AichiD" onclick = "Toyoake()" id = "Toyoake" style = "fill:#010101; stroke:none;" d="M0 0L0 1289L1450 1289L1450 0L0 0z"/>
<path class = "AichiD" onclick = "Toyoake()" id = "Toyoake" style = "fill:#ffffff; stroke:none;" d="M449 516C446.134 523.596 443.161 538.968 437.57 544.616C434.249 547.971 418.574 548.231 414 547C415.164 556.425 411.468 567.648 400 565C397.64 577.755 405.448 589.589 416.464 595.958C419.241 597.563 422.794 595.436 425.298 597.643C428.485 600.452 429.183 607.053 430 611C434.871 607.264 437.383 601.405 442.174 597.649C451.208 590.565 465.912 582.342 471.486 571.675C473.309 568.186 472.814 563.757 473.681 560C474.52 556.359 476.893 552.834 476.285 549C474.796 539.592 467.895 535.566 462.509 528.829C458.042 523.241 456.184 518.799 449 516z"/>
</svg>
