<?xml version="1.0" standalone="yes"?>
<svg xmlns="http://www.w3.org/2000/svg" width="1450" height="1289">
<path class = "AichiD" onclick = "Kariya()" id = "Kariya" style = "fill:#010101; stroke:none;" d="M0 0L0 1289L1450 1289L1450 0L0 0z"/>
<path class = "AichiD" onclick = "Kariya()" id = "Kariya" style = "fill:#ffffff; stroke:none;" d="M477 552C474.732 558.085 475.356 567.643 471.411 572.675C463.219 583.127 451.222 590.352 441.464 598.649C436.832 602.588 434.398 608.596 429.826 612.61C426.83 615.24 422.515 616.227 419.994 619.39C415.823 624.625 414.19 632.884 411.573 639C409.653 643.486 406.192 648.123 405.48 653C403.403 667.215 406.374 680.107 409.199 694C410.072 698.295 410.292 705.951 413.164 709.397C415.745 712.493 421.53 709.963 424.981 712.072C429.334 714.731 429.462 721.417 433.43 723.397C444.823 729.081 465.245 709.002 471 701L472 701L478 706C478 697.549 485.837 685.534 480.262 678.376C473.279 669.41 450.353 667.855 451.203 652.999C451.977 639.471 472.363 629.677 478.637 618.996C483.169 611.279 481.241 599.909 487.279 593.289C492.95 587.07 509.694 575.07 503.303 564.02C499.156 556.849 493.752 562.368 488 560.508C483.811 559.154 480.564 554.511 477 552z"/>
</svg>
