<?xml version="1.0" standalone="yes"?>
<svg xmlns="http://www.w3.org/2000/svg" width="1450" height="1289">
<path class = "AichiD" onclick = "Tahara()" id = "Tahara" style = "fill:#010101; stroke:none;" d="M0 0L0 1289L1450 1289L1450 0L0 0z"/>
<path class = "AichiD" onclick = "Tahara()" id = "Tahara" style = "fill:#ffffff; stroke:none;" d="M733 1051L736.681 1063L738 1075L728 1080C720.92 1064.85 713.039 1068.57 700 1074L707 1091C697.018 1091.33 696.596 1103.46 687.999 1107.16C682.543 1109.51 676.803 1104.44 671 1105.7C663.844 1107.25 661.179 1114.44 655.089 1117.74C651.235 1119.83 647.277 1116.58 643.213 1118.66C639.313 1120.65 638.568 1125.66 635.61 1128.61C631.45 1132.76 620.831 1137.52 615 1138.36C612.107 1138.78 609.828 1136.82 607 1136.84C603.53 1136.86 600.5 1139.23 597 1139.38C589.762 1139.7 576.841 1132.71 575 1144L576 1144L577 1141C584.185 1144.01 587.053 1148.55 591 1155C582.991 1157.31 575.983 1162.72 568 1164.94C559.231 1167.39 553.231 1160.62 548 1171L547 1171C546.897 1166 545.34 1161.92 549 1158C546.059 1150.92 536.799 1150.4 530 1149L534 1138C525.865 1133.18 519.127 1125.95 509.004 1130.37C499.217 1134.64 491.755 1147.65 487.719 1157C477.999 1179.53 467.817 1202.07 459.456 1225C456.468 1233.2 449.336 1235.83 446 1243C450.766 1244.2 455.194 1242.27 460 1242.74C463.223 1243.05 465.666 1245.37 469 1245.19C490.619 1243.97 511.348 1230.94 533 1229.03C543.631 1228.09 555.187 1237.04 565.911 1235.52C602.088 1230.39 636.716 1210.14 671 1197.32C675.882 1195.5 681.061 1196.4 686 1194.77C708.927 1187.17 731.162 1177.27 754 1169.34C777.027 1161.35 800.785 1155.42 824 1148C822.531 1142.46 824.687 1136.15 820.034 1131.6C812.627 1124.36 795.738 1131.47 787.43 1125.06C781.741 1120.67 787.587 1113.53 786.502 1108.02C784.135 1096 766.732 1102.2 760 1105C761.769 1099.56 762.695 1091.92 766.086 1087.28C768.221 1084.35 772.698 1084.68 774.436 1081.57C778.613 1074.09 777 1059.37 777 1051C777 1047.4 778.057 1041.73 776.397 1038.43C774.092 1033.86 760.018 1032.58 756 1034.67C747.751 1038.96 740.892 1046.09 733 1051z"/>
</svg>
