<?xml version="1.0" standalone="yes"?>
<svg xmlns="http://www.w3.org/2000/svg" width="1450" height="1289">
<path class = "AichiD" onclick = "Nisshin()" id = "Nisshin" style = "fill:#010101; stroke:none;" d="M0 0L0 1289L1450 1289L1450 0L0 0z"/>
<path class = "AichiD" onclick = "Nisshin()" id = "Nisshin" style = "fill:#ffffff; stroke:none;" d="M455 455C451.007 455.011 444.907 454.519 441.51 457.013C436.7 460.545 438.292 464.761 431 465C434.389 473.72 441.735 478.117 446.681 486C448.573 489.017 450.445 493.941 454.105 495.164C459.852 497.085 470.067 491.751 476 490.753C483.475 489.496 492.024 488.444 499 485.352C502.625 483.745 505.276 480.373 509 479.028C512.501 477.763 516.361 479.35 520 478.365C530.132 475.623 540.017 467.423 546 459L532 455C534.108 452.056 536.335 449.158 538.12 446C540.553 441.697 543.205 429.326 536.852 426.782C531.91 424.803 525.146 428.407 520 428.359C512.16 428.286 499.586 420.75 496 414L471.225 421.934L465.582 428.976L454.265 436.093L455 455z"/>
</svg>
