<?xml version="1.0" standalone="yes"?>
<svg xmlns="http://www.w3.org/2000/svg" width="1450" height="1289">
<path class = "AichiD" onclick = "Kota()" id = "Kota" style = "fill:#010101; stroke:none;" d="M0 0L0 1289L1450 1289L1450 0L0 0z"/>
<path class = "AichiD" onclick = "Kota()" id = "Kota" style = "fill:#ffffff; stroke:none;" d="M588 807C590.375 814.382 587.335 830.418 578.999 833.802C575.441 835.247 571.642 832.999 568 833.6C563.76 834.298 559.892 838.051 557 841L571 843C569.687 850.185 572.298 854.511 575 861C566.2 864.787 564.596 864.125 557 858L556 858L556 869L548 871C553.29 874.137 558.695 876.246 565 875.892C568.201 875.712 571.832 873.622 574.996 874.546C578.936 875.695 581.214 880.171 584.089 882.787C590.248 888.39 594.817 888.897 596 898C600.069 898.084 606.201 897.923 609.787 900.026C612.639 901.698 613.456 905.431 617.105 905.808C624.109 906.532 627.881 898.953 633.816 896.97C638.715 895.333 640.477 904.244 647.004 901.964C650.795 900.64 658.433 895.729 657.593 890.996C657.031 887.827 653.562 885.698 653.426 882.424C653.252 878.222 657.022 873.444 657.443 869C657.871 864.486 655.411 860.17 654 856C663.12 853.908 674.179 837.423 671.227 827.039C668.458 817.3 656.542 813.811 669 804C663.055 792.063 641.236 771.931 626.225 781.175C617.148 786.765 617.596 803.896 605.961 808.802C601.135 810.837 593.041 807.64 588 807z"/>
</svg>
