<?xml version="1.0" standalone="yes"?>
<svg xmlns="http://www.w3.org/2000/svg" width="1450" height="1289">
<path class = "AichiD" onclick = "Shinshiro()" id = "Shinshiro" style = "fill:#010101; stroke:none;" d="M0 0L0 1289L1450 1289L1450 0L0 0z"/>
<path class = "AichiD" onclick = "Shinshiro()" id = "Shinshiro" style = "fill:#ffffff; stroke:none;" d="M899 681C895.294 685.242 887.739 691.211 886.893 696.996C885.951 703.45 894.221 706.13 897.411 710.3C901.003 714.995 899.307 721.678 901.148 727C902.695 731.473 906.901 733.893 908.973 738C915.855 751.645 913.076 770.84 919.854 784.816C924.06 793.488 935.542 792.426 941.363 798.43C950.332 807.681 952.811 821.956 963 831L963 832L954 838C958.624 853.513 973.865 841.362 982.852 849.318C987.859 853.75 993.662 869.34 994.655 876C995.16 879.382 992.835 882.602 994.411 885.895C996.489 890.235 1002.86 892.277 1007 894C1011.4 885.708 1019.45 885.171 1027 881.099C1032.31 878.233 1037.24 873.62 1043 871.702C1047.27 870.281 1051.85 871.723 1056 869.697C1062.9 866.328 1067.88 859.557 1076 858.691C1087.1 857.508 1099.08 866.51 1109.9 859.106C1119.62 852.451 1115.51 839.227 1122.64 831.279C1126.5 826.975 1134.76 827.135 1140 825.189C1150.51 821.284 1159.83 815.271 1166.46 806C1170.3 800.627 1170.39 794.055 1172.55 788C1176 778.319 1181.45 767.994 1183.61 758C1185.42 749.603 1184.21 742.645 1189.36 735.004C1192.38 730.538 1197.45 725.502 1203 724.508C1207.4 723.721 1210.83 725.65 1214.99 722.968C1225.74 716.022 1226.07 703.137 1233.79 694.148C1236.66 690.797 1242.52 692.248 1244.55 688.682C1247.26 683.913 1241.28 674.154 1242.21 668C1242.79 664.181 1244.96 660.972 1244.67 657C1244.35 652.683 1241.65 648.281 1242.02 644C1242.6 637.138 1249.31 631.807 1250.21 625.039C1250.69 621.49 1247.35 619.421 1245.39 616.961C1240.29 610.593 1240.2 604.761 1231 604C1230.23 587.551 1214.86 597.123 1206.04 592.226C1192.22 584.553 1180.95 571.027 1167 563C1162.48 570.251 1155.52 579.96 1153.31 588.039C1150.5 598.368 1153.11 610.104 1147.7 619.91C1143.86 626.864 1131.83 628.984 1125.43 624.062C1121.99 621.417 1122.06 615.697 1120.35 612C1118.12 607.172 1113.68 603.897 1111.44 599C1105.81 586.701 1107.32 566.784 1090 566.539C1083.45 566.446 1078.6 573.121 1072.29 573.521C1067.89 573.799 1064.92 568.88 1060.59 572.975C1054.97 578.287 1057.96 584.838 1049 588.852C1042.53 591.748 1037.22 585.672 1031 586.929C1026.45 587.849 1024.48 593.366 1020 594.335C1016.78 595.031 1012.87 592.194 1010 591C1012.37 587.141 1016.43 582.55 1017.14 578C1019.27 564.479 1006.39 555 995 555L995 564C990.183 564.622 984.219 565.201 980.039 567.854C976.693 569.979 974.785 574.281 970.985 575.672C968.723 576.5 966.227 575.667 964 575.126C949.529 571.607 952.002 561.216 953 549C944.931 550.297 943.899 560.468 940.15 567C936.87 572.714 931.082 579.458 929.823 586C928.719 591.735 933.056 597.267 932.941 603C932.835 608.211 928.304 612.281 926.559 617C925.009 621.194 925.562 625.838 923.968 629.961C919.239 642.191 909.015 632.789 901 636.343C892.537 640.095 889.756 646.614 885.468 653.892C883.435 657.341 878.013 657.743 876.693 661.278C872.806 671.687 891.929 678.963 899 681z"/>
</svg>
