<?xml version="1.0" standalone="yes"?>
<svg xmlns="http://www.w3.org/2000/svg" width="1450" height="1289">
<path style="fill:#010101; stroke:none;" d="M0 0L0 1289L1450 1289L1450 0L0 0z"/>
<path style="fill:#ffffff; stroke:none;" d="M464 742C459.149 744.966 451.789 746.333 447.637 749.854C442.832 753.93 442.457 760.929 436.957 764.757C427.777 771.146 414.616 774.077 406.318 780.994C402.14 784.476 402.819 794.28 408 796L408 802C396.536 804.384 397.245 821.531 400 830L391.856 830.067L389.684 838L380 857L387 864L377 865C378.22 874.602 382.085 896.692 396.7 890.397C401.182 888.466 404.149 881.807 406.859 878C416.116 864.993 421.371 849.974 429.728 837C437.225 825.361 449.023 826.618 459.995 820.737C467.727 816.593 468.642 811.306 478 809C472.016 797.029 452.26 807.627 448.322 792.892C442.493 771.085 483.011 762.327 464 742z"/>
</svg>
