<?xml version="1.0" standalone="yes"?>
<svg xmlns="http://www.w3.org/2000/svg" width="1450" height="1289">
<path style="fill:#010101; stroke:none;" d="M0 0L0 1289L1450 1289L1450 0L0 0z"/>
<path style="fill:#ffffff; stroke:none;" d="M140 270C140.486 274.407 136.353 284.852 130.573 284.257C121.756 283.349 124.629 269.875 118.61 266.028C114.312 263.281 107.701 266.059 103 265.945C97.0376 265.801 91.5487 262.877 86 261L75.3511 285L55.5147 309L56 324L73 316.333L92 323.15L110 320L107 335C116.202 339.95 115.972 346.984 116 357C132.939 359.141 150.26 358.436 167 354.996C172.871 353.79 178.159 349.975 184 349.228C191.879 348.219 198.702 353.222 206 353.219C215.632 353.215 235.509 338.687 238.787 329.999C241.257 323.453 233.075 313.593 232.114 307C231.291 301.353 237.012 297.403 236.799 292C236.574 286.311 229.539 279.442 227.352 274C225.064 268.307 226.412 261.929 225 256C206.455 261.072 189.957 277.333 171 278.887C164.82 279.394 159.351 273.782 154 271.414C149.623 269.476 144.673 270 140 270z"/>
</svg>
