<?xml version="1.0" standalone="yes"?>
<svg xmlns="http://www.w3.org/2000/svg" width="1450" height="1289">
<path style="fill:#010101; stroke:none;" d="M0 0L0 1289L1450 1289L1450 0L0 0z"/>
<path style="fill:#ffffff; stroke:none;" d="M87 261C92.7569 262.571 97.8987 265.056 104 264.981C108.363 264.928 114.633 262.493 118.61 265.028C124.889 269.031 122.063 281.795 130.005 283.542C137.103 285.104 139.839 273.827 139 269C143.673 269 148.623 268.476 153 270.414C158.332 272.774 163.911 278.467 170 278.322C180.874 278.062 189.091 271.312 198 266.349C206.373 261.684 216.068 258.464 225 255C228.306 264.071 225.83 285.665 238.174 289.582C244.296 291.524 250.121 277.452 250.852 272.961C252.591 262.273 258.463 262.955 263.86 254.675C267.596 248.945 265.387 241.944 267.603 236.004C269.914 229.813 278.507 225.062 284 222C282.702 217.494 280.52 210.99 276.61 208.086C273.025 205.425 267.806 205.451 264.513 202.301C261.22 199.15 262.102 193.84 259.272 190.39C256.238 186.69 251.114 186.062 248.352 181.895C241.895 172.154 246.87 162.62 235 157L238 147C224.066 144.375 206.911 143.876 194.108 137.348C190.345 135.43 190.395 131.301 187.49 128.738C184.293 125.918 174.133 123.805 170 124.734C158.523 127.316 152.385 141.736 147.753 151C138.431 169.644 128.524 188.869 120.337 208C117.497 214.636 117.215 222.907 113.272 228.999C106.022 240.202 90.3025 247.109 87 261z"/>
</svg>
