<?xml version="1.0" standalone="yes"?>
<svg xmlns="http://www.w3.org/2000/svg" width="1450" height="1289">
<path style="fill:#010101; stroke:none;" d="M0 0L0 1289L1450 1289L1450 0L0 0z"/>
<path style="fill:#ffffff; stroke:none;" d="M337 126C343.948 126.082 345.65 129.063 350.3 133.7C353.741 137.131 360.674 139.965 361.894 145.039C363.22 150.556 356.935 157.265 354.799 162C352.692 166.673 353.652 171.176 352.61 176C351.473 181.256 348.057 186.059 346 191C367.242 190.941 388.136 197.724 408.856 191.682C411.88 190.8 412.273 187.611 414.429 185.701C417.699 182.805 424.719 180.571 429 179.934C433.475 179.269 437.565 181.765 442 181.501C448.975 181.085 455.944 177.389 463 176.425C467.287 175.84 473.7 176.688 477.362 173.987C480.373 171.766 480.77 167.387 481.27 164C482.573 155.179 485.404 140.556 481.272 132.228C479.272 128.196 473.648 128.757 470.039 127.146C466.432 125.536 464.826 122.026 461.7 119.858C458.802 117.848 455.102 118.202 452 116.683C448.681 115.058 446.363 111.992 443 110.434C439.193 108.669 434.685 109.309 431.326 106.486C426.497 102.429 424.279 95.764 419.816 91.2855C415.424 86.8796 408.048 82.9795 405.697 76.9961C403.191 70.6195 411.999 59.9335 412 52C406.923 52.014 397.59 51.4595 393.564 55.0093C386.376 61.3461 390.789 77.0953 383.468 84.7214C378.353 90.0494 369.272 88.2161 363 91.3132C356.701 94.4237 342.308 105.031 339.117 111.3C337.264 114.94 337.815 121.797 337 126z"/>
</svg>
