<?xml version="1.0" standalone="yes"?>
<svg xmlns="http://www.w3.org/2000/svg" width="1450" height="1289">
<path class = "AichiD" onclick = "Toyokawa()" id = "Toyokawa" style = "fill:#010101; stroke:none;" d="M0 0L0 1289L1450 1289L1450 0L0 0z"/>
<path class = "AichiD" onclick = "Toyokawa()" id = "Toyokawa" style = "fill:#ffffff; stroke:none;" d="M888 818C882.742 814.928 876.769 812.493 872.039 808.61C869.607 806.614 867.37 802.543 863.961 802.241C858.091 801.72 853.28 809.244 847.424 808.508C840.584 807.649 838.367 796.82 830.996 798.449C825.011 799.771 820.32 805.552 815 808.347C810.763 810.573 806.385 808.465 802 809.973C794.335 812.609 788.154 819.502 780 820.788C771.885 822.067 764.07 823.295 756 821.073C751.529 819.842 744.676 814.016 740.044 815.418C735.249 816.869 729.84 831.35 729.228 836C727.176 851.6 728.875 874.408 746 880.87C753.51 883.704 771.356 882.551 775.852 890.228C778.927 895.478 771.615 899.529 770.198 904C768.865 908.204 771.651 914.583 772 919L785.674 924.419L803 945C812.026 933.958 814.246 948.448 824 948.191C827.115 948.109 833.283 942.014 835.933 944.022C837.867 945.487 837.007 954.213 838 957C845.039 953.498 855.368 950.227 861.61 945.861C869.05 940.657 870.046 934.703 881 934.652C888.509 934.617 895.576 940.722 903 942L900 931C912.274 925.195 928.89 919.202 938.486 909.363C949.393 898.181 935.832 894.303 927 895C925.69 885.275 920.304 868.294 933 863.603C941.461 860.477 955.372 865.202 962.012 856.49C969.214 847.04 952.803 847.241 954.666 839.089C955.397 835.888 959.55 833.764 962 832C958.178 825.293 952.745 819.68 948.876 813C946.273 808.507 944.602 802.028 940.61 798.563C936.163 794.704 928.999 793.234 924.018 789.652C918.492 785.677 917.716 776.902 909.184 779.318C905.392 780.392 903.491 784.926 901.576 788C895.846 797.2 890.871 807.503 888 818M781 946L783 952L798 948L798 946C791.278 941.116 787.994 941.919 781 946z"/>
</svg>
