<?xml version="1.0" standalone="yes"?>
<svg xmlns="http://www.w3.org/2000/svg" width="1450" height="1289">
<path class = "AichiD" onclick = "Oguchi()" id = "Oguchi" style = "fill:#010101; stroke:none;" d="M0 0L0 1289L1450 1289L1450 0L0 0z"/>
<path class = "AichiD" onclick = "Oguchi()" id = "Oguchi" style = "fill:#ffffff; stroke:none;" d="M329 153C324.396 160.339 317.822 163.743 310 167C311.151 172.581 313.525 179.603 309.411 184.621C304.122 191.074 292.096 192.277 292.592 203C293.367 219.761 311.049 215.283 319.297 206.363C322.753 202.625 323.876 194.857 325 190L341 197C345.034 191.319 349.438 184.782 351.363 178C352.68 173.358 351.497 168.579 353.353 164C355.991 157.491 362.419 151.344 361 144L344 154.856L329 153z"/>
</svg>
