<?xml version="1.0" standalone="yes"?>
<svg xmlns="http://www.w3.org/2000/svg" width="1450" height="1289">
<path style="fill:#010101; stroke:none;" d="M0 0L0 1289L1450 1289L1450 0L0 0z"/>
<path style="fill:#ffffff; stroke:none;" d="M655 857C656.442 861.261 658.688 865.385 658.018 870C657.411 874.191 653.679 878.886 654.146 883C654.528 886.368 658.929 889.114 658.269 892.572C655.865 905.174 641.57 903.719 636 896L621 906C624.33 914.011 627.558 924.284 627.953 933C628.555 946.293 623.034 951.614 635 962L635 963C631.999 965.286 624.162 981.32 632.969 980.744C638.716 980.368 645.701 967.615 648 963C642.896 958.002 644.781 935.741 647.603 929.213C648.833 926.368 652.281 924.985 654.334 922.787C657.904 918.966 659.991 912.541 666 914L662 919L662 920L670 929L671 929L681 917L681 916L677 911L684 911L679 903C694.172 909.317 711.569 912.571 720 927C728.391 925.275 737.839 925.294 746 928L744 921L754 922L752 927C760.103 928.527 764.128 929.704 767 921L754 918L754 917L771 918C770.665 913.768 768.363 908.064 769.889 904C771.372 900.05 777.126 896.757 775.958 892.058C774.869 887.673 768.648 886.842 765 885.884C755.198 883.31 744.927 883.185 737.21 875.674C730.363 869.011 731.814 855.093 724.856 850.363C713.439 842.603 695.504 847.118 690 834L668.148 841.228L663.972 852.57L655 857z"/>
</svg>
