<?xml version="1.0" standalone="yes"?>
<svg xmlns="http://www.w3.org/2000/svg" width="1450" height="1289">
<path class = "AichiD" onclick = "Obu()" id = "Obu" style = "fill:#010101; stroke:none;" d="M0 0L0 1289L1450 1289L1450 0L0 0z"/>
<path class = "AichiD" onclick = "Obu()" id = "Obu" style = "fill:#ffffff; stroke:none;" d="M357 576C347.545 590.337 351.319 602.665 347.39 618C344.86 627.876 335.733 635.729 333.603 645C332.451 650.016 335.121 655.84 334.957 661C334.716 668.556 332.674 673.702 338 680L339 680C346.782 673.824 356.38 668.897 363.61 662.214C369.981 656.326 375.211 648.637 385 647.245C390.66 646.441 398.628 651.252 404 653C412.199 638.953 413.855 619.724 430 613C429.087 609.018 428.174 600.439 424.49 598.067C421.639 596.231 418.33 598.189 415.464 595.667C411.607 592.274 409.762 586.494 403.985 585.818C394.108 584.662 390.486 593.082 382 583L381 583C369.279 593.166 365.75 584.58 357 576z"/>
</svg>
