<?xml version="1.0" standalone="yes"?>
<svg xmlns="http://www.w3.org/2000/svg" width="1450" height="1289">
<path class = "AichiD" onclick = "Tobishima()" id = "Tobishima" style = "fill:#010101; stroke:none;" d="M0 0L0 1289L1450 1289L1450 0L0 0z"/>
<path class = "AichiD" onclick = "Tobishima()" id = "Tobishima" style = "fill:#ffffff; stroke:none;" d="M175 522C173.854 516.765 172.139 514.63 167 513C163.303 520.258 156.409 522.478 149 525C151.495 535.608 159.501 533.273 166.996 538.249C173.993 542.895 176.923 550.759 182.518 556.674C190.404 565.011 200.99 564.956 201 578C208.58 573.617 205.045 565.263 216 566L214 580L232 580C230.889 569.133 241.134 561.945 227 556L226 573L219 573C219 566.588 217.193 559.314 218.148 553.043C218.696 549.449 222.65 547.083 221.663 543.198C220.645 539.192 215.245 538.679 213.589 534.895C208.094 522.344 210.644 517 195 517L195 512L175 522M210 582L212 615C218.602 613.127 232.452 611.912 237.357 607.066C239.657 604.793 237.929 599.73 237.385 597C234.256 581.293 223.971 582 210 582M221 627C212.774 630.104 208.062 632.349 203 640L214 648C217.86 641.075 224.585 635.545 221 627z"/>
</svg>
