<?xml version="1.0" standalone="yes"?>
<svg xmlns="http://www.w3.org/2000/svg" width="1450" height="1405">
<path style="fill:#010101; stroke:none;" d="M0 0L0 1405L1450 1405L1450 0L0 0z"/>
<path style="fill:#ffffff; stroke:none;" d="M747 1167C722.967 1185.11 698.475 1201.11 672 1215.57C667.907 1217.81 664.017 1216.76 660 1218.4C652.112 1221.63 638.784 1231.71 633.603 1238.46C628.735 1244.81 632.509 1256.23 627.648 1263.96C622.539 1272.09 596.177 1279.4 600.528 1292C602.484 1297.67 612.567 1311.1 618.171 1313.4C624.169 1315.85 633.442 1314.15 640 1315.25C659.579 1318.51 679.144 1324.05 699 1325.43C702.364 1325.66 705.215 1322.92 708.424 1323.41C715.171 1324.45 721.63 1331.49 728 1334.07C740.387 1339.08 753.875 1339.85 767 1341C776.505 1341.83 786.716 1342.81 796 1345.04C804.941 1347.18 814.617 1352.95 820 1342L828 1347C824.375 1353.28 825.209 1360.42 834 1357L832 1353L839 1350L830 1344C832.888 1340.42 836.762 1336.65 837.721 1332C839.916 1321.35 829.338 1300.9 817 1305C816.82 1296.32 813.014 1296.76 809.027 1290.61C806.973 1287.44 808.711 1282.99 803.891 1282.15C796.735 1280.9 791.219 1285.4 784 1284C789.752 1270.18 784.706 1269.81 780.564 1257C779.316 1253.14 780.696 1248.87 778.543 1245.21C775.152 1239.45 769.219 1236.85 766.478 1230C763.532 1222.63 765.913 1216.97 764.883 1210C763.991 1203.96 756.981 1198.49 754.323 1193C750.391 1184.88 751.367 1174.29 747 1167z"/>
</svg>
