<?xml version="1.0" standalone="yes"?>
<svg xmlns="http://www.w3.org/2000/svg" width="1450" height="1405">
<path style="fill:#010101; stroke:none;" d="M0 0L0 1405L1450 1405L1450 0L0 0z"/>
<path style="fill:#ffffff; stroke:none;" d="M1186 489C1196.96 496.907 1190.36 503.789 1195.57 514C1202.37 527.328 1213.02 539.318 1217.37 554C1221.07 566.533 1218 580.228 1218 593L1242 587C1242.5 598.527 1245.22 613.935 1253.97 622.397C1260.14 628.366 1278.61 624.998 1284.79 620.648C1293.06 614.823 1293.53 600.093 1303.04 595.855C1312.7 591.553 1328.48 605.804 1337.07 596.397C1342.95 589.948 1343.47 574.23 1346.44 566C1347.96 561.765 1349.25 556.68 1352.39 553.329C1355.19 550.353 1360.47 549.032 1361.68 544.815C1367.07 526.018 1361.6 501.412 1362 482L1331 482L1329 468C1323.07 468.016 1315.47 467.951 1310 470.417C1305.6 472.402 1299.88 478.787 1294.71 477.424C1288.16 475.691 1276.89 470.188 1272.63 464.895C1266.88 457.73 1264.01 447.956 1255.96 442.603C1252.54 440.33 1247.9 440.592 1244 439.826C1240.08 439.056 1236.04 435.619 1232 436.093C1227.08 436.669 1221.91 441.812 1218 444.576C1202.39 455.621 1190.47 470.133 1186 489z"/>
</svg>
