<?xml version="1.0" standalone="yes"?>
<svg xmlns="http://www.w3.org/2000/svg" width="1450" height="1405">
<path style="fill:#010101; stroke:none;" d="M0 0L0 1405L1450 1405L1450 0L0 0z"/>
<path style="fill:#ffffff; stroke:none;" d="M464 1005C464 1022.2 459.917 1027.84 448.09 1040.04C445.374 1042.84 442.902 1048.04 438.91 1049.11C430.732 1051.31 422.691 1043.38 415 1044.84C408.522 1046.06 405.672 1054.58 399 1054.8C388.805 1055.13 362.172 1044.07 355.853 1057.11C352.481 1064.07 345.793 1084.35 351.028 1091.44C354.275 1095.83 361.881 1095.83 365.869 1101C370.94 1107.59 371.051 1118.72 376.513 1124.1C395.678 1142.96 427.849 1146.42 448.91 1162.64C453.88 1166.46 460.131 1173.89 461.811 1180C464.259 1188.9 462.089 1196.76 469.019 1204C475.274 1210.54 485.214 1224.67 494 1227.31C500.997 1229.4 511.116 1221.67 517.57 1225.2C521.961 1227.59 521.687 1236.81 524.139 1240.83C528.161 1247.43 537.217 1251.96 543 1257L544 1257C551.342 1248.69 543.971 1230.77 546 1220C525.156 1207.81 546.491 1185.1 548.714 1167C549.763 1158.45 549.652 1146.3 547.366 1138C545.193 1130.11 539.137 1122.68 540.488 1114C542.523 1100.92 561.961 1099.1 569.072 1090.79C572.598 1086.66 572.285 1079.13 576.43 1075.94C579.829 1073.32 585.911 1073.76 590 1073C591.253 1064.95 599.85 1063.52 603.442 1056.91C607.659 1049.14 604.184 1044.69 604.533 1037C605.257 1021.05 610.25 1009.25 591 1004C598.864 993.764 614.592 987.492 615.697 973C616.315 964.889 608.958 959.271 605.14 953C601.808 947.527 600.289 940.227 599 934C594.755 936.068 592.412 940.729 587.996 942.397C583.005 944.284 577.07 943.038 572 944.699C565.902 946.697 560.842 951.483 555 954.136C547.334 957.616 538.5 959.011 531.09 962.652C526.205 965.052 524.726 971.616 519.826 973.686C513.482 976.366 505.998 972.317 499 976.14C485.637 983.439 480.675 1004.94 464 1005z"/>
</svg>
