<?xml version="1.0" standalone="yes"?>
<svg xmlns="http://www.w3.org/2000/svg" width="1450" height="1405">
<path style="fill:#010101; stroke:none;" d="M0 0L0 1405L1450 1405L1450 0L0 0z"/>
<path style="fill:#ffffff; stroke:none;" d="M768 787C755.42 790.441 734.245 797.769 736.893 814.995C738.442 825.073 752.645 819.058 758.896 821.603C764.433 823.859 765.187 831.595 769.61 835.142C773.016 837.874 778.1 836.488 781.363 839.564C795.118 852.531 786.589 868.437 797.966 882.772C805.575 892.36 819.713 883.843 828.039 881.224C835.777 878.79 842.805 879.521 850 875L852 881L856 879L846.724 864.957L845.606 837L836.295 819L839.306 800L834.649 789L833 767L846 765.003L856 770.366L875 776C873.975 763.011 871.604 750.018 871.039 737C870.753 730.408 873.067 723.496 871.606 717C869.569 707.937 861.312 700.346 857.399 692C853.73 684.175 853.453 675.066 850.441 667C848.453 661.673 844.67 657.235 842.464 652C838.539 642.682 845.365 625.103 838.851 618.804C824.934 605.346 799.262 597.642 780 600.301C768.992 601.821 758.23 607.867 747 606.079C736.238 604.366 726.828 604.168 716 604.911C711.441 605.223 706.698 604.018 704.562 609.059C699.368 621.318 699.839 633.207 699.996 646C700.049 650.325 699.263 657.77 702.024 661.437C705.544 666.112 715.015 665.05 719.787 668.139C724.729 671.338 727.223 679.906 729.752 685C734.384 694.329 739.757 704.906 742.391 715C744.124 721.64 743.6 728.472 745.954 735C752.428 752.957 762.045 768.701 768 787z"/>
</svg>
