<?xml version="1.0" standalone="yes"?>
<svg xmlns="http://www.w3.org/2000/svg" width="1450" height="1405">
<path style="fill:#010101; stroke:none;" d="M0 0L0 1405L1450 1405L1450 0L0 0z"/>
<path style="fill:#ffffff; stroke:none;" d="M1233 435C1240.13 437.964 1251.28 438.132 1256.96 443.148C1270.42 455.039 1274.76 473.192 1295 476.809C1300.68 477.825 1306.17 471.597 1311 469.417C1316.47 466.951 1324.07 467.016 1330 467L1332 481L1362 481C1362.43 460.128 1371.39 431.996 1357.15 413.278C1352.16 406.73 1337.5 405.49 1330 403.627C1306.85 397.877 1287.28 403.905 1266 412.603C1253.3 417.792 1240.91 423.434 1233 435z"/>
</svg>
