<?xml version="1.0" standalone="yes"?>
<svg xmlns="http://www.w3.org/2000/svg" width="1450" height="1405">
<path style="fill:#010101; stroke:none;" d="M0 0L0 1405L1450 1405L1450 0L0 0z"/>
<path style="fill:#ffffff; stroke:none;" d="M1145 500L1145 501C1149.46 506.618 1155.02 513.097 1157.3 520C1160.08 528.409 1157.98 537.446 1159.21 546C1160.49 554.91 1164.16 562.692 1164.47 572C1164.6 575.841 1162.31 579.147 1162.77 583C1163.69 590.61 1171.67 594.856 1172.76 602C1173.89 609.425 1167.48 616.333 1168.71 624C1169.98 632.002 1172.87 638.65 1177.89 644.985C1181.41 649.435 1186.73 652.793 1187.04 659C1187.26 663.426 1183.75 665.808 1181.3 669C1174.89 677.374 1174.84 679.534 1164 683L1164 679C1152.04 679.001 1155.8 683.217 1149.3 690.581C1142.92 697.799 1133.96 696.15 1133.22 709.004C1132.68 718.242 1140.02 729.708 1143.58 738C1144.57 740.32 1146 745.604 1149.21 745.654C1153.99 745.729 1159.65 737.169 1163 734.3C1165.88 731.833 1170.53 729.681 1171.69 725.816C1174.06 717.874 1174.78 709.123 1177 701C1180.41 702.323 1185.79 703.54 1187.4 707.214C1192.02 717.79 1179.4 738.849 1196.17 744.306C1206.54 747.679 1209.09 727.623 1213.64 722.213C1218.69 716.21 1229.85 711.978 1237 709L1237 708C1229.13 704.608 1219.66 697.784 1225.38 688.055C1229.12 681.694 1238.59 681.903 1245 680.345C1251.38 678.793 1256.76 674.445 1260.44 669C1268.15 657.568 1258.86 649.3 1254.99 639C1253.18 634.161 1254.76 628.911 1253.36 624C1249.68 611.027 1242.76 601.956 1241 588L1217 594C1217 580.617 1220.25 566.13 1216.37 553C1212.02 538.318 1201.37 526.328 1194.57 513C1191.49 506.972 1195.68 497.78 1190.68 492.907C1185.13 487.502 1181.06 492.739 1175 493.181C1169.14 493.609 1162.78 490.073 1157 491.553C1152.44 492.72 1148.56 497.113 1145 500z"/>
</svg>
