<?xml version="1.0" standalone="yes"?>
<svg xmlns="http://www.w3.org/2000/svg" width="1450" height="1405">
<path style="fill:#010101; stroke:none;" d="M0 0L0 1405L1450 1405L1450 0L0 0z"/>
<path style="fill:#ffffff; stroke:none;" d="M517 719C514.875 735.811 506.429 762.723 520.649 776.436C526.061 781.655 537.256 778.711 543.96 781.148C550.314 783.458 554.873 793.384 558 799C564.03 797.605 570.772 793.553 577 793.843C587.92 794.352 598.242 802.624 609 804.443C614.717 805.41 620.273 802.223 626 802.665C632.04 803.132 636.982 807.982 643 808.436C648.206 808.829 652.87 804.921 658 804.415C665.272 803.699 672.648 807.165 679.896 806.682C686.624 806.234 688.633 794.343 693.379 790.603C699.38 785.875 710.774 791.009 717 793C720.878 782.724 723.566 781.336 734 778L743 796L767 786L744.954 734L741.391 714L729.742 686L719.787 668.934L701.027 661.57L698.996 645L705 605L682 608.013L665.961 624L637 650.532L613.515 660.703L595.907 682.911L575.379 690.089L565.79 702.621L542.015 717.243L531.985 724.492L517 719z"/>
</svg>
