<?xml version="1.0" standalone="yes"?>
<svg xmlns="http://www.w3.org/2000/svg" width="1450" height="1405">
<path style="fill:#010101; stroke:none;" d="M0 0L0 1405L1450 1405L1450 0L0 0z"/>
<path style="fill:#ffffff; stroke:none;" d="M718 794C711.482 791.916 701.185 787.471 694.379 790.603C684.584 795.111 684.543 809.581 682.39 818C681.565 821.23 679.24 824.549 679.913 827.999C681.307 835.147 689.783 836.778 693.227 842.3C695.957 846.678 692.611 855.193 692 860C695.89 861.62 701.436 863.389 703.686 867.213C706.412 871.846 704.875 879.331 708.738 883.272C711.945 886.543 718.87 886.471 723 888.312C727.467 890.304 731.822 893.558 736.941 892.042C743.287 890.161 739.991 882.878 741.318 878.105C742.428 874.111 748.168 871.641 752 871.295C756.507 870.887 759.699 874.902 764 875.045C768.596 875.197 771.498 869.813 775 867.603C781.027 863.801 793.571 867.477 791.071 855C790.304 851.173 783.253 841.328 779.787 839.317C776.48 837.399 772.407 838.136 769.379 835.486C765.509 832.099 764.423 824.817 759.621 822.603C752.999 819.551 744.042 825.213 738.523 818.852C732.67 812.105 741.302 804.246 741.458 797C741.587 791.014 736.252 784.41 734 779C723.855 781.326 720.148 783.592 718 794z"/>
</svg>
