<?xml version="1.0" standalone="yes"?>
<svg xmlns="http://www.w3.org/2000/svg" width="1450" height="1405">
<path style="fill:#010101; stroke:none;" d="M0 0L0 1405L1450 1405L1450 0L0 0z"/>
<path style="fill:#ffffff; stroke:none;" d="M676 867L680 882C670.367 877.989 661.678 868.15 652 865.528C641.882 862.787 621.874 868.876 617.603 879.174C613.928 888.035 617.505 897.46 611.034 905.852C607.331 910.654 595.695 911.633 590 914C591.302 921.297 596.278 927.238 599.124 934C601.842 940.456 602.467 947.967 606.14 954C609.663 959.786 617.189 965.493 616.436 973C614.9 988.31 596.675 991.177 593 1004L621 1008.91L638 1006.14L688 1021C689.892 1035.05 692.736 1039.78 706 1044.68C708.904 1045.75 712.767 1048.05 715.911 1046.79C725.801 1042.8 735.613 1025.67 743.039 1018C753.911 1006.79 771.876 997.594 786 991L783 981C793.204 976.23 802.438 969.121 812 963.192C817.54 959.757 824.987 956.516 829.363 951.621C835.343 944.93 838.752 934.003 842.753 926C847.005 917.495 856.188 905.346 847.49 896.499C842.186 891.105 827.321 891.678 820 890L822 886C815.039 886.88 804.406 890.162 798.637 884.487C794.222 880.143 793.505 870.364 787.61 867.603C777.235 862.745 773.105 873.583 765 875.335C761.154 876.166 757.685 872.362 754 871.847C740.907 870.019 742 883.475 742 892C732.293 893.301 728.094 889.99 719 887.49C715.477 886.521 710.402 886.475 707.857 883.487C704.47 879.509 705.48 872.711 703.297 868.105C697.395 855.652 684.401 863.502 676 867z"/>
</svg>
