<?xml version="1.0" standalone="yes"?>
<svg xmlns="http://www.w3.org/2000/svg" width="1450" height="1405">
<path style="fill:#010101; stroke:none;" d="M0 0L0 1405L1450 1405L1450 0L0 0z"/>
<path style="fill:#ffffff; stroke:none;" d="M1158 548C1155.35 552.464 1149.14 557.388 1147.77 562.089C1146.33 567.048 1149.24 575.028 1150.2 580C1152.83 593.727 1157.34 607.915 1155.83 622C1154.8 631.583 1154.18 644.972 1151.03 654C1145.87 668.81 1137 678.48 1137 695C1140.6 693.849 1145.74 693.239 1148.49 690.487C1156.16 682.815 1151.54 678 1165 678L1165 682C1173.56 679.263 1185.17 671.137 1186.39 661C1187.73 649.853 1172.56 641.543 1169.64 631C1166.53 619.731 1173.27 612.464 1172.25 602C1171.5 594.375 1162.12 590.184 1162.06 582C1161.98 570.713 1165.72 558.217 1158 548z"/>
</svg>
