<?xml version="1.0" standalone="yes"?>
<svg xmlns="http://www.w3.org/2000/svg" width="1450" height="1405">
<path style="fill:#010101; stroke:none;" d="M0 0L0 1405L1450 1405L1450 0L0 0z"/>
<path style="fill:#ffffff; stroke:none;" d="M678 880L675 867C688.784 861.261 692.143 856.616 694 842C688.958 838.86 680.921 834.262 679.468 828C678.229 822.656 682 813.999 682 808C670.931 806.601 653.642 801.19 644.51 810.499C638.462 816.665 636.37 830.92 633.667 839C631.487 845.517 625.097 855.45 629.498 861.941C634.546 869.388 643.858 862.982 651 864.603C660.68 866.799 667.945 877.103 678 880z"/>
</svg>
