<?xml version="1.0" standalone="yes"?>
<svg xmlns="http://www.w3.org/2000/svg" width="1450" height="1405">
<path style="fill:#010101; stroke:none;" d="M0 0L0 1405L1450 1405L1450 0L0 0z"/>
<path style="fill:#ffffff; stroke:none;" d="M605 1009C607.227 1019.79 605.268 1027.34 605.275 1038C605.279 1044.66 607.901 1048.23 604.892 1055C601.319 1063.02 591.313 1064.44 591 1074C586.94 1074.32 579.751 1074.06 576.564 1076.86C572.619 1080.33 572.499 1087.64 568.532 1091.79C561.045 1099.61 547.419 1100.25 542.032 1111.01C537.904 1119.26 545.545 1130.45 548.046 1138C550.604 1145.72 550.705 1157.93 549.714 1166C549.04 1171.49 548.458 1177.85 546.387 1183C541.886 1194.2 527.326 1213.31 547 1219C544.956 1229.85 552.331 1249.49 544 1257C553.175 1274.78 574.768 1296.13 596.79 1289.68C600.845 1288.49 602.355 1283.08 605.21 1280.33C613.455 1272.37 625.025 1270.48 629.648 1259C632.684 1251.46 628.291 1242.56 635.059 1236.67C651.449 1222.39 668.485 1216.86 687 1206.69C708.697 1194.78 728.31 1180.84 748 1166C744.034 1160.44 739.691 1158.53 733 1158C732.716 1144.31 719.37 1136.72 712.603 1126C709.125 1120.49 711.858 1116.37 705 1113C707.598 1103.78 712.004 1084.54 696.996 1083.33C690.686 1082.83 686.614 1087.39 680 1086C681.964 1084.03 684.065 1082.12 685.857 1080C689.81 1075.3 690.996 1065.8 682.995 1064.59C677.164 1063.7 669.741 1066.89 664 1068C667.728 1059.11 680.9 1058.52 682.152 1050C683.299 1042.19 675.727 1033.46 671.403 1027.91C668.772 1024.54 668.185 1019.53 664.725 1016.84C647.361 1003.38 624.663 1009.05 605 1009z"/>
</svg>
