<?xml version="1.0" standalone="yes"?>
<svg xmlns="http://www.w3.org/2000/svg" width="1450" height="1405">
<path style="fill:#010101; stroke:none;" d="M0 0L0 1405L1450 1405L1450 0L0 0z"/>
<path style="fill:#ffffff; stroke:none;" d="M196 259L204 269L197 271L192 284C202.084 291.243 207.234 298.554 212 310L203 309L214 334L199 341L199 342C209.907 352.036 215.024 345.986 227 341L227 352L232 349L239 382L230 378L229.897 392.57L242.69 403.001L241 419C253.914 417.981 257.742 418.524 269 425C273.965 413.075 277.618 408.488 290 405C287.269 398.429 284.291 392.016 288.013 385.004C294.699 372.409 310.758 372.262 304 356C326.016 346.834 316.196 333.423 306.319 318.004C301.645 310.708 295.43 310.445 289.185 305.362C285.692 302.518 284.425 297.633 280.671 295.139C276.034 292.059 269.694 292.408 265.039 289.272C260.266 286.057 257.874 279.816 252.83 277.028C248.852 274.828 242.413 276 238 276L239 284C226.896 279.868 228.367 269.385 220.319 261.303C214.726 255.686 202.805 256.696 196 259z"/>
</svg>
