<?xml version="1.0" standalone="yes"?>
<svg xmlns="http://www.w3.org/2000/svg" width="1450" height="1405">
<path style="fill:#010101; stroke:none;" d="M0 0L0 1405L1450 1405L1450 0L0 0z"/>
<path style="fill:#ffffff; stroke:none;" d="M1102 486C1092.23 488.814 1069.75 498.025 1070.3 511C1070.49 515.279 1076.04 518.758 1078.36 522C1083.29 528.878 1088.14 538.684 1089.74 547C1100.26 601.855 1108.66 657.113 1119 712L1132 711C1132.6 706.643 1135.24 703.118 1135.86 698.911C1137.06 690.746 1136.23 683.958 1139.45 676C1142.49 668.508 1148.16 661.757 1150.36 654C1152.99 644.784 1153.8 632.573 1154.83 623C1156.98 602.861 1145.02 583.626 1146.91 564.004C1147.44 558.475 1154.48 554.317 1156.65 549C1159.85 541.131 1158.37 529.17 1156.79 521C1154.26 507.924 1139.79 500.848 1135.81 489C1133.62 482.478 1140.25 474.434 1138.72 467C1137.4 460.567 1131.23 455.366 1127.76 450C1124.81 445.42 1123.92 440.026 1122 435C1113.07 437.906 1102.65 433.322 1095.13 438.225C1090.27 441.398 1091.05 447.035 1091.92 452C1093.94 463.472 1098.46 474.914 1102 486z"/>
</svg>
