<?xml version="1.0" standalone="yes"?>
<svg xmlns="http://www.w3.org/2000/svg" width="1450" height="1405">
<path style="fill:#010101; stroke:none;" d="M0 0L0 1405L1450 1405L1450 0L0 0z"/>
<path style="fill:#ffffff; stroke:none;" d="M166 808C166.437 813.54 168.211 819.449 167.66 825C166.624 835.457 161.543 845.367 161.259 856C160.978 866.533 165.835 877.969 168.575 888C169.719 892.188 169.375 897.16 171.434 901C177.204 911.762 191.237 920.067 203 922.61C210.183 924.162 216.85 922.763 224 925.424C235.103 929.557 247.638 932.602 257.996 938.414C272.126 946.341 285.505 957.754 303 958.491C325.056 959.42 346.401 948.908 368 946C360.581 931.347 348.767 931.962 335 932L328 884L316 883L317.644 862L309.013 849L307 830C292.291 830 280.157 829.465 269.105 818.714C263.957 813.706 263.155 802.935 255.957 800.558C240.049 795.304 219.15 805.994 203 807.696C190.512 809.012 178.751 805.624 166 808z"/>
</svg>
