<?xml version="1.0" standalone="yes"?>
<svg xmlns="http://www.w3.org/2000/svg" width="1450" height="1405">
<path style="fill:#010101; stroke:none;" d="M0 0L0 1405L1450 1405L1450 0L0 0z"/>
<path style="fill:#ffffff; stroke:none;" d="M751 355C749.711 361.94 745.202 370.541 744.809 377C744.367 384.259 751.303 389.477 752.681 396C753.596 400.328 750.893 405.88 749.709 410C746.36 421.653 745.18 438.879 733 444C736.184 451.574 740.175 453.006 748 454C748 456.958 748.643 460.995 746.972 463.61C743.358 469.265 733.419 467.696 730.067 473.394C726.977 478.646 732.327 486.244 729.333 492C722.471 505.193 705.932 515.309 701.029 529C696.819 540.754 709.137 561.104 711.008 573C712.006 579.347 707.775 584.974 706.519 591C705.615 595.332 706.813 599.653 707 604C715.673 604 724.35 602.494 733 603.089C739.616 603.545 746.357 606.207 753 605.787C762.512 605.185 771.548 600.434 781 599.315C795.49 597.6 814.446 602.322 827 609.529C831.518 612.122 839.665 617.174 841.802 622.089C845.531 630.663 839.193 642.093 843.068 652C845.274 657.64 849.327 662.338 851.441 668C854.453 676.066 854.73 685.174 858.399 693C862.24 701.194 869.737 708.311 872.351 717C874.3 723.479 871.745 731.27 872.039 738C872.625 751.364 875.426 764.635 876 778C870.08 774.57 863.209 774.082 857 771.366C853.264 769.731 850.193 765.995 846 765.593C843.07 765.312 836.953 766.253 835.028 768.728C828.766 776.775 838.932 792.245 839.887 800C840.676 806.398 835.585 812.623 836.823 819C838.18 825.995 845.027 830.964 846.606 838C848.573 846.76 844.359 857.538 847.893 865.895C850.33 871.656 855.537 873.031 857 880L852 882C854.763 891.078 866.911 891.704 875 894L876 869C880.427 870.522 882.74 871.358 887 869C887.64 873.63 891.933 878.577 891.359 883C890.648 888.467 884.67 894.374 886.07 900C888.968 911.648 904.391 919.435 913 926.211C917.516 929.765 921.591 933.905 927 936C923.904 946.879 926.569 950.524 938 952C936.398 960.262 936.3 969.101 943.634 975.142C947.822 978.592 956.792 978.485 962 979.424C975.972 981.945 989.912 985.21 1004 987C1010.05 972.962 1013.06 967.76 1007 953C1022.14 963.841 1026.95 971.178 1027 990L1048 990C1047.53 979.113 1044.63 967.884 1045.1 957C1045.5 947.925 1049.46 937.937 1046.96 929C1042.01 911.309 1022.38 892.485 1028.11 873C1031.15 862.641 1037.49 863.759 1046 860.034C1055.42 855.909 1063.49 848.675 1073 844.309C1077.89 842.064 1085.78 840.14 1089.06 835.61C1094.58 827.996 1086.16 814.977 1084.84 807C1082.98 795.766 1086.76 781.546 1087 770L1051.11 770.318L1044.35 778.357L1035 779C1034.77 751.012 1025.82 724.082 1025.11 696C1024.94 689.115 1032.3 686.412 1032.68 680C1033.54 665.765 1026.14 653.451 1024.21 640C1022.39 627.377 1026.96 614.633 1024.11 602C1021.68 591.207 1020.1 578.05 1011.41 570.318C1008.34 567.589 1004.8 568.194 1001 567.83C985.038 566.304 978.203 571.643 976 588C962.249 583.181 964.156 569.75 958.486 559.275C955.588 553.921 948.698 553.525 948.155 546C947.802 541.114 950.907 535.726 952 531C943.327 524.795 929.187 525.687 924.042 514.996C920.928 508.524 923.958 487.123 930.109 483.009C936.901 478.467 945.715 483.502 952.671 480.397C958.255 477.904 962.172 469.286 968 465.685C973.346 462.382 978.901 464.624 983.714 461.968C989.883 458.565 1001.98 449.061 1005.47 442.91C1009.34 436.085 1010.61 427.962 1014.32 421C1018.12 413.868 1024.46 407.658 1027 400C1023.58 396.99 1023.51 392.623 1020.49 389.498C1016.4 385.269 1009.11 383.447 1004.1 380.471C996.672 376.055 989.781 370.058 981.675 366.603C974.722 363.64 967.633 368.642 960.09 363.914C955.657 361.136 953.743 355.887 949.7 352.699C944.982 348.98 938.797 347.401 934.09 343.471C929.568 339.696 927.37 334.468 920.999 333.508C905.738 331.208 895.039 349.555 881 347.644C872.813 346.53 865.724 338.717 858 335.969C850.303 333.23 841.022 335.685 833 334.826C826.739 334.156 820.328 330.943 814 331.391C795.548 332.697 787.115 350.762 771 356.608C764.953 358.802 757.174 355.784 751 355z"/>
</svg>
