<?xml version="1.0" standalone="yes"?>
<svg xmlns="http://www.w3.org/2000/svg" width="1450" height="1405">
<path style="fill:#010101; stroke:none;" d="M0 0L0 1405L1450 1405L1450 0L0 0z"/>
<path style="fill:#ffffff; stroke:none;" d="M394 766C387.941 778.811 379.049 790.938 371.576 803C368.704 807.635 365.794 814.931 360.896 817.697C350.729 823.438 334.408 824.304 323 826.6C319.342 827.337 310.477 827.701 308.603 831.433C302.688 843.217 315.635 852.719 318.311 862C319.99 867.822 317.258 875.988 317 882L329 883L336.786 916L336 931C340.948 930.986 347.395 928.91 352 930.989C361.194 935.139 364.961 944.87 376 945C378.464 963.299 382.806 982.038 390.015 999C393.099 1006.26 401.312 1012.28 402.707 1020C404.72 1031.13 398.439 1042.83 395 1053C404.979 1056.62 406.492 1046.3 415 1044.34C422.388 1042.63 430.887 1049.89 438.826 1048.51C442.745 1047.83 445.454 1042.66 448.039 1040.01C460.241 1027.55 463 1021.38 463 1004C480.739 1004 485.403 984.472 499 975.728C505.921 971.276 513.461 973.042 521 974C529.638 960.129 542.021 959.483 556 953.136C561.842 950.483 566.902 945.697 573 943.699C581.199 941.013 593.647 944.372 596.596 933C597.987 927.638 590.623 918.489 588 914C593.159 912.514 606.415 909.969 610.034 906.401C617.33 899.208 613.328 888.484 616.603 880.039C618.76 874.479 627.143 870.025 632 867L627.273 857L631.656 843L643 810L626 803.38L609 805.15L577 794.51L558 800C555.44 794.588 550.668 784.452 544.816 782.148C537.856 779.409 526.414 782.727 520.638 777.411C505.252 763.253 514.615 736.549 516 719C504.321 719 490.402 717.929 479 720.39C471.957 721.911 466.02 727.092 459 728.61C453.046 729.897 443.769 727.724 438.515 731.028C425.489 739.218 422.011 768.271 404 769C400.615 769.137 397.204 766.922 394 766z"/>
</svg>
