<?xml version="1.0" standalone="yes"?>
<svg xmlns="http://www.w3.org/2000/svg" width="1450" height="1405">
<path style="fill:#010101; stroke:none;" d="M0 0L0 1405L1450 1405L1450 0L0 0z"/>
<path style="fill:#ffffff; stroke:none;" d="M313 460C309.373 463.938 306.125 469.034 301 471.121C295.273 473.453 286.47 471.895 281.904 476.514C273.562 484.953 276.754 498.754 272 509L257 504L260 513L254 512L256 538C240.797 536.802 243.585 545.799 234.532 554.813C231.579 557.754 226.036 557.347 224.903 562.02C223.293 568.657 228.219 578.21 226.013 583.941C224.058 589.021 218.028 586.954 216 592L223 596L220 599L220 600L226 607L207 607L208 612L201 615L197 606C188.358 612.351 195.498 618.509 199 626C201.987 625.14 204.923 623.361 208 622.938C225.135 620.578 215.112 639.665 213 647L204 640L208 650C200.429 654.626 203.014 662.011 192 659C191.307 664.106 194.226 671.862 198.634 674.976C204.152 678.874 212.111 675.885 217.787 680.638C223.512 685.431 232.224 694.713 236.272 701C240.899 708.185 241.496 714.473 248 721L236 724C234.858 715.519 230.768 702.354 220.039 701.955C212.97 701.692 212.161 709.154 204.004 703.906C195.918 698.704 197.505 691.563 192.861 684.3C188.617 677.663 183.213 673.716 180 666L170 669L179 654L179 653L171 653C168.134 646.94 165.707 644.632 168 638C158.124 637.883 152.747 624.852 151 616C145.015 615.523 141.178 614.32 138 609C126.168 611.449 112.185 614.692 104.728 625.17C97.3969 635.469 97.0173 653.16 92.1389 665C87.4902 676.282 78.7095 691.268 83.6034 703.961C87.4159 713.848 101.754 717.907 107.062 727.015C112.802 736.863 108.421 745.488 118.001 754.05C130.188 764.943 142.442 775.782 155 786.247C163.06 792.964 170.485 796.118 166 807C179.026 805.352 192.35 808.511 205 806.561C220.201 804.217 238.758 796.122 253.996 799.265C265.876 801.716 267.054 821.433 280 826.525C298.961 833.983 322.231 826.02 341 822C347.077 820.698 357.502 820.134 362.39 816.146C367.184 812.235 370.442 804.261 373.6 799C380.294 787.849 388.848 776.942 394 765C396.836 766.179 399.888 768.176 403 768.4C421.629 769.736 425.893 737.581 439.184 730.028C444.812 726.83 453.78 728.955 460 727.61C467.02 726.092 472.957 720.911 480 719.39C490.75 717.07 503.983 718 515 718C509.639 703.856 497.057 692.749 490.532 679C486.417 670.327 489.776 660.026 486.721 651.144C485.324 647.081 480.18 647.359 477.015 645.272C470.398 640.911 466.934 631.401 459.91 627.817C456.148 625.897 452.803 629.916 449 629.796C442.773 629.6 432.058 624.891 427 621.351C415.49 613.295 417.273 597.568 404 592L403 637C394.301 627.549 393.535 617.898 388.005 607C382.949 597.038 374.452 588.005 367.849 579.001C361.928 570.928 354.179 571.403 347.39 565.351C341.932 560.484 338.312 548.824 335.965 542C331.028 527.646 339.31 515.646 338.309 502C337.358 489.015 326.154 482.926 319.6 473.826C316.272 469.207 317.768 463.958 313 460z"/>
</svg>
