<?xml version="1.0" standalone="yes"?>
<svg xmlns="http://www.w3.org/2000/svg" width="1450" height="1405">
<path style="fill:#010101; stroke:none;" d="M0 0L0 1405L1450 1405L1450 0L0 0z"/>
<path style="fill:#ffffff; stroke:none;" d="M1028 401C1022.72 408.344 1017.03 415.643 1013.43 424C1010.28 431.309 1008.93 440.968 1002.89 446.536C997.582 451.429 989.249 459.839 982.911 462.933C977.817 465.419 972.537 463.247 967.001 466.685C961.038 470.388 958.429 477.766 952.815 480.972C946.907 484.347 938.424 480.52 932.044 482.653C924.266 485.253 922.745 507.062 924.333 513.996C927.5 527.831 947.634 519.795 951.454 532.09C952.969 536.965 947.974 541.948 948.823 547C949.939 553.646 955.811 553.826 958.987 558.418C965.469 567.791 961.309 582.1 975 587C979.103 572.433 984.187 565.318 1000 566.83C1003.87 567.2 1007.54 566.608 1010.71 569.318C1020.52 577.698 1022.43 591.087 1025.11 603C1027.95 615.597 1023.39 628.355 1025.21 641C1027.06 653.88 1035.21 666.314 1033.4 680C1032.56 686.337 1025.86 688.845 1026.04 696C1026.74 723.824 1034.81 750.317 1036 778C1046.44 779.283 1043.27 771.498 1051.1 769.318C1061.84 766.33 1076.85 769 1088 769C1087.85 776.378 1084.13 788.705 1087.6 795.566C1091.72 803.692 1111.73 794.936 1114.96 789.61C1118.54 783.703 1110.91 773.067 1115.62 767.649C1125 756.85 1137.22 766.844 1140 777C1164.42 772.647 1145.34 743.553 1140 731C1138.01 726.322 1135.92 715.883 1131.58 713.029C1128.12 710.754 1121.91 712.919 1118 713C1115.93 686.778 1108.45 660.805 1103.61 635C1098.07 605.434 1094.41 575.559 1088.74 546C1087.14 537.684 1082.29 527.878 1077.36 521C1075.31 518.136 1069.52 514.401 1069.68 510.576C1070.27 496.651 1091.47 490.563 1101 485C1097.73 474.78 1093.97 464.444 1091.5 454C1090.11 448.11 1092.42 442.5 1091.27 437C1089.86 430.257 1081.74 425.303 1076 422.444C1069.33 419.121 1060.12 424.089 1053.21 419.973C1049.74 417.904 1048.92 413.292 1046.36 410.375C1041.11 404.376 1035.51 402.416 1028 401z"/>
</svg>
