<?xml version="1.0" standalone="yes"?>
<svg xmlns="http://www.w3.org/2000/svg" width="1450" height="1405">
<path style="fill:#010101; stroke:none;" d="M0 0L0 1405L1450 1405L1450 0L0 0z"/>
<path style="fill:#ffffff; stroke:none;" d="M237 65C240.18 76.5354 227.378 85.8691 229 99L225 98C223.478 109.614 232.588 106.919 238.397 112.727C241.503 115.832 241.175 123.453 247.941 121.763C252.525 120.619 253.84 109.959 256 106L247 105L243 76C248.384 73.0059 249.329 68.7865 248 63L237 65M297 110L311 110L312 93C297.57 91.1858 297.893 98.1425 297 110M205 118C200.962 129.845 214.093 130.355 220.682 123.516C222.82 121.297 224.02 116.199 219.852 115.312C215.075 114.297 210.73 119.128 205 118M61 135L51 140C51.967 144.955 51.9473 147.761 49 152L49 153L53 158L56 155C62.7549 160.918 69.5729 170.444 79.9066 168.848C84.4264 168.15 86.1044 163.186 89.1844 160.379C95.6553 154.482 106.444 150.778 99.74 140.001C94.0091 130.788 85.9462 132.458 77 136.066C69.9149 138.923 64.3565 145.454 61 135M265 207C275.032 203.784 294.863 193.598 295 182L289 182C289.631 176.62 284.24 157.71 275.562 164.028C266.493 170.633 261.33 196.96 265 207M222 183L219 188C225.852 191.879 221.939 197.56 222.318 203.961C222.544 207.776 225.505 216.445 227.282 219.985C230.15 225.7 235.779 227.701 238 234L231 238C232.669 244.13 233.985 248.02 231 254C227.027 245.724 220.522 244.673 212 244C214.566 248.141 217.179 249.561 222 250C222.11 259.237 230.503 266.552 239 269L238 275C242.261 275 248.074 273.995 251.961 276.028C257.079 278.704 259.51 284.954 264.17 288.272C268.77 291.548 275.108 291.271 279.907 294.139C284.226 296.721 285.454 302.009 289.329 305.031C295.831 310.102 301.879 310.481 306.681 318.001C316.265 333.011 327.151 346.776 305 356C305.768 358.675 307.956 362.178 307.335 364.996C305.578 372.961 292.877 376.996 289.013 384.039C284.93 391.484 288.087 398.992 291 406C277.606 407.804 273.996 414 269 426C258.476 417.518 252.756 418.993 240 420C240.904 415.2 243.189 408.85 242.4 404.001C240.117 389.97 224.017 397.904 217 402C214.971 397.133 213.326 393.466 208 392L203 402L202 402C202.325 394.42 203.053 386.347 205.014 379C206.034 375.18 208.605 370.058 206.503 366.228C202.949 359.751 192.559 361.942 189.133 353.985C185.388 345.282 190.89 332.129 180 332C179.006 323.361 169.247 324.679 167 332L155 321C152.564 328.154 148.276 339.693 140 341C137.412 354.99 142.677 364.151 157 366C157.651 374.63 151.442 382.889 142 382C141.733 359.593 105.983 386.602 124.093 393.968C126.279 394.857 128.684 394.899 131 395C130.455 407.692 135.454 409.309 148 411C148.792 421.19 158.858 416.89 164.606 421.603C168.371 424.69 167.725 429.88 169.703 433.856C171.248 436.963 178.795 443.744 182 445L185 440L186 440L198 448L184 452C183.786 454.72 182.339 459.02 184.042 461.436C187.223 465.948 194.694 462.413 199 462.846C202.547 463.203 205.777 465.612 209 467C204.292 474.494 227.639 477.356 234 480C240.137 472.974 244.851 475.884 244 465C260.768 468.69 248.948 490.952 259 498L259 499L255 501L272 508C277.278 497.5 272.807 485.668 281.61 476.279C286.298 471.278 294.921 472.487 300.999 470.467C306.389 468.676 309.926 463.495 313 459L314 459C316.973 463.721 317.367 470.399 320.6 474.536C327.431 483.281 337.552 489.425 338.899 502C340.412 516.125 331.516 529.177 337.349 544C339.8 550.231 342.506 559.883 347.39 564.581C354.004 570.942 362.066 570.81 368.116 579C374.974 588.284 383.78 597.704 389.005 608C393.696 617.244 394.663 626.412 401 635C408.182 624.501 401.412 603.497 403 591C417.528 597.051 414.239 612.015 426.004 620.351C431.285 624.093 442.496 628.874 449 629.247C452.371 629.44 455.373 625.928 458.572 626.677C465.355 628.264 470.357 640.316 476.09 644.272C479.269 646.467 484.688 646.088 486.973 649.43C491.307 655.77 488.775 668.573 490.21 676C491.271 681.492 495.301 686.337 498.192 691C505.452 702.709 515.563 723.978 531.961 724.073C536.105 724.097 539.722 718.405 543.001 716.243C550.181 711.51 559.299 708.262 565.621 702.39C569.524 698.766 570.969 692.989 575.21 689.703C581.243 685.028 590.437 686.187 596.675 681.911C604.433 676.595 606.685 665.357 614.184 659.703C621.133 654.464 630.926 655.203 638 649.532C647.742 641.722 657.399 633.137 665.911 624C671.089 618.441 676.139 610.612 683 607.013C689.096 603.816 699.219 604.291 706 604C705.91 599.659 704.72 595.282 705.765 591C707.222 585.025 711.327 579.356 710.291 573C708.321 560.92 696.74 542.112 700.238 530C704.085 516.684 721.592 505.514 728.347 493C731.675 486.835 725.977 479.085 729.117 473.39C733.089 466.189 748.591 469.368 746.847 458.108C746.085 453.188 740.566 454.559 737.39 452.142C734.862 450.218 733.565 446.677 732 444C744.448 438.778 745.572 421.896 749 410C750.194 405.858 752.845 400.359 752.187 396C751.216 389.568 744.601 384.985 744.331 378C744.048 370.696 752.15 363.417 749.307 355.3C747.607 350.446 739.139 346.064 735 343.436C728.396 339.242 720.691 337.407 713 339.954C707.851 341.66 701.542 346.368 696 345.973C691.222 345.633 686.595 341.809 682 340.44C674.687 338.261 668.28 340.467 661 339.826C656.681 339.445 651.264 336.681 647 337.776C636.005 340.6 631.309 353.126 618 352.621C603.662 352.077 589.323 347.112 575 347.18C569.18 347.208 563.782 350.256 558 350.53C552.75 350.779 543.196 346.254 538.61 349.067C527.223 356.051 537.144 373.222 540 382C534.668 384.656 530.378 388.923 525 391.507C509.814 398.803 493.404 398.807 477 396.816C465.685 395.442 447.864 380.889 438 389C435.06 379.22 426.447 382.991 419.015 379.161C413.696 376.419 411.851 370.885 409 366C417.048 363.164 412.776 356.256 411 350C428.813 344.859 420.515 334.515 411 325L410 325C403.312 330.873 401.028 340.915 407 348L398 345L399 353C391.533 347.421 377.624 348.941 371.728 342.487C362.126 331.977 377.091 327.607 380.562 320.867C382.55 317.008 379.831 313.766 380.657 310C381.76 304.975 387.611 301.333 390.146 297C392.017 293.801 391.445 289.345 393.858 286.514C397.619 282.102 407.69 282.9 412.907 280.74C417.061 279.02 419.175 274.855 421 271C415.858 268.149 407.676 266.06 403.419 262.297C397.304 256.892 399.098 243.623 401 237C388.578 228.114 366.496 237.957 357.612 219.985C354.334 213.354 357.931 201.836 356 194C351.427 195.676 351.205 199.388 347.772 202.363C340.647 208.536 332.791 209.377 324 209C323.748 196.807 317.001 194.429 317 208C309.598 208.381 307.058 197.767 300.058 200.114C295.131 201.766 296.271 207.021 294.436 210.787C291.715 216.371 285.038 216.215 280 215C280.894 225.798 272.482 241.69 285 247L268 255C269.534 247.567 275.493 234.3 271.958 227.005C268.31 219.478 251.378 221.891 254 211C234.248 209.439 242.352 187.214 222 183M414 218C432.163 211.042 407.22 236.543 417.318 240.073C438.403 247.445 437.599 196.416 418.059 212.309C416.07 213.927 415.053 215.75 414 218M103 303L104 316L111 312L103 303M448 346L461 343C459.756 336.987 452.196 322.976 447.618 336.005C446.538 339.078 447.751 342.848 448 346z"/>
</svg>
