<?xml version="1.0" standalone="yes"?>
<svg xmlns="http://www.w3.org/2000/svg" width="936" height="1450">
<path style="fill:#01afff; stroke:none;" d="M0 0L0 1450L936 1450L936 0L0 0z"/>
<path style="fill:#010101; stroke:none;" d="M790 29C787.64 34.2397 782.36 36.812 780.089 42.0039C777.32 48.3353 777.374 58.0342 775.609 65C774.958 67.5676 775.588 72.4805 772.682 73.8241C769.74 75.1848 766.474 71.5251 764 70.429C759.868 68.5983 753.358 68.8689 749.279 70.8896C746.47 72.281 746.147 75.6095 744.437 77.9575C740.137 83.8595 734.539 84.2905 728 83C728.022 91.1348 730.446 99.3652 722 104C711.653 80.3276 692.663 104.277 679.83 111.865C675.022 114.708 668.441 115.309 663 116L660.062 101.638L647 96.2314L635 87C629.098 96.8419 622.539 90.9286 614.095 95.9884C602.918 102.686 624.63 115.34 613.887 119.608C608.205 121.865 593.341 110.199 592.042 104.981C591.096 101.181 594.8 95.826 591.396 92.6427C588.3 89.7469 582.055 93.1174 578 90.8518C570.706 86.7764 567.195 79.4637 560.79 75.0093C553.122 69.6759 543.965 72.7385 536 75C534.661 70.3069 531.873 50.7122 527.852 49.4344C522.203 47.6398 517.455 52.7249 512.039 51.6389C507.21 50.6705 504.62 43.6338 499.043 44.9561C495.712 45.7458 494.634 49.4437 491.791 50.9337C484.369 54.8241 479.39 50.618 473.955 60.0007C470.039 66.7612 471.102 81.723 461.985 83.6559C450.089 86.1777 442.274 77.9449 431 79.2932C423.432 80.1982 413.164 82.024 406 84.5479C401.721 86.0553 397.659 89.394 393 89.4977C383.163 89.7166 373.314 82.6143 364 83.1227C349.541 83.912 332.447 89.5411 318.015 86.365C309.178 84.4199 310.883 75.3168 307.543 69.0432C304.832 63.951 290.605 58.8628 284.999 59.1134C278.207 59.4171 260.126 69.5688 257.619 76.1736C255.931 80.6191 259.974 84.6476 260.017 89C260.05 92.4197 257.662 95.6484 257 99L244 91.517L228 94.4268L217 91.1729L200 94C206.033 108.002 215.278 112.434 225.721 122.594C228.419 125.218 228.706 128.935 230.879 131.866C234.82 137.182 245.562 141.849 252 142C252.03 150.573 256.911 156.34 259.451 164.17C261.268 169.768 260.312 178.163 259.91 184C259.085 195.989 258.731 210.366 256.112 222C253.016 235.752 246.623 252.755 247.515 266.942C248.349 280.207 282.516 270.414 273 292C272.488 288.841 273.163 284.946 271.243 282.213C264.411 272.489 246.623 276.371 241.288 285.375C238.418 290.218 240.047 295.803 238.83 301C235.504 315.209 233.006 330.117 228.481 344C215.544 383.693 197.27 417.178 174.962 452C164.531 468.282 153.327 480.45 137 491.333C129.772 496.151 122.124 501.125 113 500.624C105.418 500.208 104.72 494.775 98.9066 491.557C87.4348 485.208 70.0098 484.948 60.0548 477.361C53.3796 472.274 52.5842 462.235 44 459C42.0814 472.186 36.7881 495.693 53 503L54 500C59.3103 504.049 58.8051 507.411 56 513C53.1545 511.085 48.4596 510.696 47.5378 515.133C45.0553 527.085 54.5809 545.927 67 546C64.0685 562.874 73.6403 577.152 82 590L94 584L95 588L101 582C104.55 582.629 108.578 581.116 111.91 582.484C118.516 585.195 120.035 589.408 128 588C128.41 575.469 145.947 583.956 150 571L146 572C146.743 551.257 177.25 547.661 193 551.927C198.391 553.388 202.918 556.81 208 559C210.668 555.289 214.936 551.363 216.386 547C219.36 538.047 213.121 520.256 208 513C214.48 518.263 219.944 519.566 228 521.86C235.113 523.884 245.583 529.497 253 528.189C285.35 522.483 290.434 479.755 289.043 454C288.632 446.378 290.814 439.545 288.405 432C283.822 417.645 273.048 413.584 262.043 405.073C259.074 402.776 257.517 399.245 254.61 397.005C249.316 392.927 245.861 392.805 243 386L244 386C252.59 402.206 278.49 398.979 287.095 416.004C292.478 426.654 292 437.424 292 449C292 466.188 291.929 482.299 286.48 499C283.944 506.771 277.026 513.388 275.128 521C273.691 526.766 280.753 531.253 281.181 537C282.009 548.095 275.895 560.675 275 572C263.903 565.369 262.22 553.653 254.08 544.702C248.667 538.749 232.683 535.777 225 534C222.665 541.175 215.491 551.244 220 558L216 555L215 555L211 559L211 560C215.28 564.983 221.168 566.735 225.7 571.213C242.11 587.43 254.893 605.701 263.999 627C266.962 633.929 270.534 643.102 270.796 650.714C271.029 657.466 268.196 666.016 275 670L276 667L277 667L281 673L281 674L277 674L276 687C281.585 688.695 281.417 693.871 282.13 699C283.462 708.578 281.844 721.365 286 730L297 730L297 731L285 731C289.241 764.527 285.163 799.525 281.155 833C277.11 866.785 272.638 900.445 266.576 934C263.354 951.833 257.424 970.106 256 988L263 989L263 990L255 990C249.3 1010.24 242.606 1028.14 233.248 1047C229.993 1053.56 228.294 1061.52 222.699 1066.61C214.655 1073.93 201.838 1069.3 194.468 1076.14C188.386 1081.78 178.258 1101.04 188 1107C183.734 1116.09 174.371 1130.21 173.445 1140C172.695 1147.94 180.748 1151.45 181.454 1159C182.136 1166.3 178.053 1180.93 174.03 1186.96C171.51 1190.74 166.886 1193.12 164.953 1197.29C161.07 1205.65 165.796 1210.58 157 1218L178 1220.04L205 1224.52L216 1223.76L236.996 1228.93L250.174 1215.86L283 1208C283 1218.06 280.605 1237.86 288.318 1245.69C293.602 1251.05 306.938 1250.56 313.985 1252.93C319.829 1254.89 318.8 1259.64 322.563 1263.3C325.624 1266.27 330.351 1265.39 333.895 1267.32C338.227 1269.68 340.207 1275.69 342 1280C348.438 1277.32 367.376 1266.49 373.581 1271.7C378.24 1275.61 375.41 1282.77 377.483 1287.87C379.077 1291.78 389.969 1296.52 394 1297.32C406.158 1299.71 416.5 1292.01 428.985 1296.61C434.883 1298.79 440.399 1309.89 447.91 1307.58C454.382 1305.6 451.796 1295.43 457.148 1294.07C462.023 1292.83 466.791 1297.63 471 1299.15C474.547 1300.44 478.367 1299.29 482 1299C482.008 1311.73 488.524 1326.47 503 1327.9C510.756 1328.66 525.877 1325.76 531.049 1332.07C545.65 1349.86 535.233 1373.92 550.513 1390.7C553.727 1394.23 559.064 1393.33 562.775 1396.01C567.715 1399.57 566.876 1406.88 574.015 1407.81C581.742 1408.81 590.419 1404.06 597.91 1407.03C606.717 1410.52 604.758 1423.88 613.044 1426.95C619.796 1429.45 626.88 1421.27 633 1419.49C638.25 1417.97 644.75 1413.67 650 1413.31C655.223 1412.95 659.063 1417.74 664 1418.41C670.546 1419.29 677.934 1413.04 682.957 1409.56C688.901 1405.45 689.523 1398.26 694.39 1393.39C700.91 1386.87 710.621 1387.2 717.786 1381.69C722.274 1378.24 722.313 1372.44 725.649 1368.17C733.479 1358.17 744.409 1357 756 1357C753.952 1348.04 746.774 1330.01 749.694 1321.17C751.209 1316.59 757.875 1312.26 760.655 1308C769.703 1294.12 777.032 1276.5 773.593 1260.13C772.754 1256.15 768.136 1256.4 765.039 1255.45C758.589 1253.46 747.166 1253.22 744.457 1245.98C738.205 1229.29 761.645 1216.72 740 1205C747.419 1191.24 758.245 1173.66 775 1171C773.263 1154.14 755.045 1161.32 750.679 1148C745.685 1132.76 764.756 1133.12 762.848 1120.01C762.208 1115.62 758.02 1112.86 755 1110C745.367 1100.88 729.87 1097.26 721.318 1087.78C716.636 1082.58 721.288 1068.86 712 1069C709.512 1064.94 706.487 1065.02 702 1065C702.404 1059.88 701.568 1052.62 703.854 1048.04C706.081 1043.58 711.775 1041.53 711.591 1036C711.312 1027.61 704.603 1028.73 701.433 1022.87C695.716 1012.29 695.109 1004.37 693 993C688.855 992.465 677.79 991.76 677.736 985.945C677.71 983.169 679.934 980.651 680.582 978C681.281 975.138 680.589 971.963 682.603 969.532C686.403 964.948 692.227 966.029 694.792 959.981C698.847 950.419 692.53 945.385 694.179 937C696.548 924.955 712.765 917.091 722 911L717.422 897.039L732.985 866L727.877 841.302L743.787 831.532L750.637 821.213L757.973 815.363L760.603 808.742L774.973 800.826L778.637 782L786.895 763L789 733L777.914 716.419L768.532 710.581L759 693C777.766 687.594 778.437 670.059 790.288 657.745C795.158 652.685 806.097 642.849 802.145 635.055C797.81 626.506 781.593 625.787 774 621.972C761.544 615.714 757.716 589.398 762.893 577.104C765.673 570.504 783.053 562.355 789.787 565.423C795.113 567.849 796.357 573.405 803 574.877C809.358 576.285 821.86 576.163 824.964 568.786C828.675 559.967 816.476 541.904 812.923 534C808.403 523.947 811.294 515.071 809.787 505C808.86 498.807 805.54 493.433 805.089 487C803.677 466.841 808.329 447.762 807.871 428C807.683 419.875 801.487 408.603 803.411 401C805.977 390.865 818.688 387.724 822.647 378C827.347 366.459 818.31 360.206 818.438 350C818.539 342.012 824.976 334.823 825 326C817.102 325.907 814.145 322.327 812 315C818.45 311.791 827.944 306.532 831.427 299.985C834.835 293.578 834.339 285.592 838.603 279.004C845.141 268.901 855.87 272.928 863.397 266.825C866.018 264.699 864.694 259.953 865.573 257.04C866.811 252.937 870.599 251.099 874 249C872.398 245.569 869.467 241.934 869.542 238C869.658 232.016 875.063 227.189 874.598 221.015C874.224 216.053 867.438 214.238 868.483 208.996C869.271 205.041 872.945 201.707 874.532 198C879.577 186.223 881.975 174.987 879 163C883.076 164.141 887.518 169.69 891.906 168.338C898.666 166.255 898.972 154.622 898.999 149C899.089 130.384 890.602 113.566 893 95L864 91C857.45 100.503 843.26 97.5162 832 98C829.921 103.963 819.538 107.207 814.434 102.412C811.412 99.5739 812.03 94.7769 810.167 91.2855C807.795 86.8417 803.856 82.7649 802.148 78C800.944 74.6392 802.652 71.4434 801.076 68C797.509 60.2056 789.65 49.8389 796.6 41.3904C804.843 31.3694 823.573 32.5167 835 33C828.947 12.8027 803.575 31.9888 790 29z"/>
<path style="fill:#ffffff; stroke:none;" d="M791 30C788.019 34.5817 782.491 37.7885 780.703 43.0039C778.434 49.6229 777.813 58.9575 776.378 66C775.816 68.7578 776.471 73.2604 773.566 74.9136C770.341 76.7488 766.723 72.6361 764 71.429C760.075 69.6886 754.12 69.8086 750.228 71.7277C741.441 76.0593 742.08 87.3683 729 84C729.07 92.4017 731.338 102.237 721 105C716.793 90.8024 699.445 92.5845 692.032 104.015C687.756 110.609 690 122.41 690 130L689 130L689 107L662 117L659.142 102.394L647 97.2314L635 88C630.128 98.9449 620.811 91.1892 613.36 97.5887C605.403 104.422 624.944 113.582 615.718 119.948C609.751 124.064 594.096 112.234 591.547 106.892C589.629 102.873 593.818 97.0634 590.968 93.6427C588.692 90.9095 581.546 93.8331 578 91.8518C570.597 87.7158 566.58 79.4352 559.79 75.4568C552.05 70.9219 543.798 73.786 536 76C533.444 69.85 532.622 56.2052 528.972 51.6034C525.277 46.9443 517.405 53.0024 513.004 52.7469C507.928 52.4524 505.918 46.553 501.012 45.8812C496.512 45.2651 495.749 50.0878 492.61 51.9584C488.02 54.6945 483.107 50.9907 478.468 55.3943C470.547 62.9131 469.852 76.8979 464 86C459.133 84.5615 454.761 86.3199 450 85.5525C443.097 84.4397 438.708 79.3715 431 80.2932C418.38 81.8024 406.148 89.0284 394 90.4391C384.02 91.5979 374.424 84.2773 365 84.098C350.283 83.8179 334.917 89.3726 320 87.6952C308.656 86.4197 310.778 76.704 306.543 69.105C303.853 64.2776 288.308 59.2701 283.015 60.3448C276.874 61.5914 261.023 70.2189 258.619 76.3002C256.904 80.6378 260.977 84.7307 261.017 89C261.055 93.0145 257.945 97.0668 257 101C252.384 97.6844 247.064 92.0221 241 92.1598C236.148 92.27 231.961 95.7726 227 95.4329C217.274 94.767 212.354 91.4937 202 95C206.241 108.401 216.809 113.238 226.697 121.951C229.674 124.574 229.466 128.737 231.879 131.721C236.175 137.034 246.392 140.941 253 141C253.008 150.869 260.186 157.731 260.942 167.004C262.284 183.462 259.579 201.635 257.826 218C257.189 223.95 252.534 231.611 256 237C251.521 239.871 245.778 264.855 249.643 269.231C257.744 278.406 283.814 273.58 273 294C271.791 290.486 272.462 285.307 270.243 282.39C263.473 273.493 246.931 277.728 242.124 286.17C239.35 291.042 240.94 296.76 239.571 302C236.366 314.273 234.001 326.707 230.873 339C229.453 344.578 226.146 350.225 227 356C223.146 358.64 222.718 363.742 221.33 368C217.86 378.646 206.637 393.958 208 405C200.706 407.229 197.9 416.707 194.753 423C187.71 437.085 178.769 451.401 169.363 463.961C158.36 478.651 133.032 502.722 113 501.624C105.022 501.187 104.156 495.184 97.9066 492.104C86.6404 486.552 71.1683 485.511 61.0046 479.026C54.1017 474.622 51.3411 465.438 45 460C43.8416 467.78 39.4269 476.386 42.5949 484.625C44.0032 488.287 45.7254 495.602 48.0895 498.562C50.2152 501.223 53.2455 499.774 55.9414 501.055C62.6895 504.26 57.4856 511.295 56 516L55 516C53.9973 513.01 50.1659 510.908 48.7076 515.229C44.585 527.445 56.5039 544.677 68 545C66.453 553.865 69.4933 571.987 74.314 579.787C76.5856 583.462 80.2488 584.767 82 589L95 583L96 586L101 581C104.581 581.635 108.583 580.133 111.961 581.484C118.428 584.07 126.842 593.298 127 580C136.527 578.822 141.286 579.52 149 573L149 572L145 573C143.319 550.648 177.158 546.636 193 550.927C198.391 552.388 202.918 555.81 208 558C210.245 554.411 214.046 551.032 215.386 547C217.854 539.572 213.105 521.166 208.351 515.184C203.995 509.704 194.623 507.794 193.349 499.999C191.324 487.609 203.832 473.992 203.177 462.039C202.979 458.425 199.031 455.347 197.704 451.996C193.317 440.919 201.639 435.76 210 431L218 411L215 410L215 409L227 405C222.558 398.49 226.417 398.471 229.544 392.871C233.599 385.609 232.481 378.984 243 385C229.999 385.883 234.418 395.525 229.442 404.96C227.393 408.845 223.438 410.318 220.699 413.518C217.305 417.481 215.963 423.373 213.676 427.996C210.472 434.472 201.12 437.615 200.163 445C199.117 453.068 209.596 458.571 206.922 466C203.587 475.267 192.696 491.432 197.024 501.907C202.87 516.056 225.19 520.171 238 523.859C242.562 525.172 248.174 528.04 253 527.189C258.994 526.132 268.292 520.774 272.671 516.61C287.932 502.099 289.065 472.922 288.043 454C287.734 448.27 289.469 442.703 288.56 437C285.52 417.927 267.581 410.144 254.625 398.429C249.257 393.575 243.442 393.731 243 385C259.203 403.152 288.525 401.039 292.7 430C295.83 451.71 293.846 475.958 288.079 497C286.72 501.959 275.689 517.832 278 521L278 522L275 523L280 527L281 547L285 547L285 548C276.002 549.323 276.317 565.626 276 573C263.303 567.674 261.845 554.734 253.197 545.51C247.593 539.533 233.644 537.487 226 535C223.078 541.591 216.685 551.535 221 558L216 556L215 556L212 559L212 560L224.91 569.39L248.455 596L262.244 621L270 633C266.734 638.48 271.186 647.328 273 653C269.389 656.283 271.112 666.447 275 669L276 663L277 663C278.151 667.432 278.395 671.193 283 673L283 674L278 675L276.867 683.791L282.728 696L286 729L301 731L301 732L286 732C290.796 757.742 285.215 785.046 285 811L292 811L292 812L285 812L272.576 906L257 987L266 989L266 990L256 991C251.811 1002.1 250.521 1014.26 245.191 1025C241.03 1033.38 230.886 1046.51 232 1056C227.405 1059.37 226.038 1065.68 220.961 1069.01C213.727 1073.74 205.514 1071.65 198.104 1074.74C189.375 1078.39 179.596 1100.6 189 1107L179.74 1129L174.423 1141L182.342 1162L175.03 1186.99L165.953 1197.43L165.683 1207.96L160 1219C175.605 1219 189.639 1221.87 205 1223.52C208.758 1223.92 212.252 1222.29 216 1222.76C222.297 1223.54 229.856 1228.73 235.996 1228.11C242.666 1227.43 244.968 1218.16 250.09 1214.86C257.675 1209.97 274.983 1207.74 284 1207C284 1217.3 281.528 1236.18 288.603 1244.69C293.049 1250.03 307.495 1249.78 313.996 1251.93C320.385 1254.03 319.256 1259.31 323.563 1262.91C326.685 1265.52 331.34 1264.54 334.787 1266.43C338.647 1268.55 340.401 1274.16 342 1278C350.635 1276.47 362.298 1267.66 370.985 1269.4C381.699 1271.54 373.452 1285.92 381.228 1290.35C397.308 1299.52 409.544 1291.03 426 1294.82C433.995 1296.65 437.709 1305.88 445.961 1306.72C454.906 1307.62 450.611 1292.18 462 1293L462 1287L463 1287C463.145 1299.13 473.795 1298.4 483 1298C483 1302.04 482.78 1306.12 484.108 1310C492.002 1333.04 510.173 1322.4 526.985 1327.83C530.734 1329.04 534.894 1334.39 537.288 1337.46C549.086 1352.56 536.398 1375.95 551.513 1390.44C554.796 1393.58 560.218 1392.71 563.775 1395.65C567.961 1399.12 567.82 1405.68 574.015 1406.77C581.548 1408.09 589.493 1403.56 596.985 1405.72C606.947 1408.61 605.208 1424.22 614.044 1426.24C619.003 1427.38 624.013 1422.85 628 1420.6C633.65 1417.41 640.943 1415.66 647 1413.15C654.951 1409.85 660.8 1419.44 669 1416.75C674.421 1414.96 682.474 1410.18 686.034 1405.67C689.824 1400.87 690.76 1394.64 696.043 1390.97C703.011 1386.12 711.477 1386.22 717.775 1380.41C722.243 1376.28 722.477 1369.68 727.105 1365.46C731.581 1361.39 738.907 1359.46 740 1353L741 1353L741 1356L755 1356C752.4 1347.8 746.043 1329.42 748.694 1321.09C750.607 1315.08 759.369 1309.04 762.688 1303C767.08 1295.01 772.58 1284.1 773.872 1275C774.589 1269.95 772.765 1263.48 773 1258L760 1253C757.687 1253.27 755.332 1253.74 752.998 1253.44C732.318 1250.83 749.541 1226.87 750.003 1217.04C750.27 1211.35 741.341 1209.31 740.755 1203.93C740.405 1200.71 744.699 1197.55 746.204 1194.96C752.869 1183.49 760.207 1173.6 774 1170C771.216 1154.58 753.962 1161.62 749.675 1148C744.792 1132.48 763.708 1132.6 761.848 1120.04C759.337 1103.08 729.671 1099.04 720.318 1087.89C715.906 1082.63 720.271 1069.2 711 1070C709.15 1065.4 705.443 1066 701 1066C701.216 1060.97 700.593 1053.62 702.407 1049C705.001 1042.4 712.967 1040.28 709.735 1032.05C708.022 1027.69 703.453 1027.99 700.988 1024.58C698.234 1020.77 695.538 1013.41 693.471 1009C691.482 1004.76 694.546 999.348 691.821 995.514C688.661 991.067 677.171 993.7 676.542 986.892C676.245 983.674 680.047 970.841 682.318 968.532C685.585 965.21 690.862 965.079 693.291 960.867C698.972 951.016 691.435 945.868 693.179 937C694.615 929.695 702.429 926.423 703 919L704 919L704 922L721 911L716.422 897.015L731.775 869L726 837L727 837C730.165 839.704 735.915 835.97 738.996 834.073C746.41 829.51 757.97 815.455 758 807C775.97 804.717 773.399 796.665 777.637 782C779.476 775.635 784.774 770.631 785.787 764C787.409 753.386 783.88 743.131 788 733L777.157 717.278L767.532 710.775L758 693C762.882 690.967 769.641 688.669 773.196 684.61C776.237 681.138 774.891 676.857 777.028 673.21C778.876 670.056 782.901 669.268 785.012 666.39C787.303 663.266 787.102 659.644 790.101 656.745C794.837 652.168 805.029 642.332 801.145 635.133C796.923 627.307 781.104 626.538 774 622.972C760.756 616.326 756.572 590.198 761.893 577.043C764.783 569.901 782.58 561.286 789.895 564.423C793.153 565.82 794.326 569.7 797.213 571.633C803.804 576.044 819.143 576.745 823.678 568.775C826.485 563.844 822.225 558.428 820.337 554C815.707 543.138 810.592 531.622 808.124 520C806.909 514.278 810.685 509.262 807 504C809.171 501.156 803.887 484.203 804.015 479C804.441 461.59 807.27 445.22 806.871 428C806.675 419.54 802.211 411.22 802.179 403C802.136 392.082 817.788 387.466 821.647 378C826.351 366.462 817.31 360.204 817.438 350C817.535 342.309 823.929 335.445 824 327C818.647 326.826 809.165 322.098 812.904 315.174C816.406 308.689 825.761 307.103 829.852 300.907C835.693 292.059 833.27 281.07 843.001 273.39C848.666 268.919 857.481 270.07 862.397 265.987C864.817 263.977 863.768 259.741 864.573 257.015C865.813 252.811 869.288 250.772 873 249C871.398 245.569 868.467 241.934 868.542 238C868.651 232.348 873.378 227.747 873.59 222.015C873.787 216.701 867.234 215.134 867.356 209.996C867.468 205.273 872.694 200.479 874.3 196C878.843 183.337 879.802 174.649 878 162C882.508 162.695 887.37 168.782 891.812 167.338C897.898 165.359 897.975 154.067 897.999 149C898.086 131.09 888.577 113.661 892 96L864 92L854 101C844.718 87.01 826.863 111.114 815.468 104.639C811.137 102.178 811.523 97.2151 809.984 93.1698C807.924 87.7576 803.103 83.4534 801.148 78C800.19 75.3274 801.557 72.7009 800.867 70C799.194 63.4518 793.219 58.0851 792.845 51C791.821 31.5978 820.664 30.9845 834 32C825.729 14.1725 804.393 33.9587 791 30z"/>
<path style="fill:#010101; stroke:none;" d="M464 86C466.804 101.156 461.686 117.631 464.809 132.996C466.402 140.831 477.291 141.741 477.106 
150C476.85 161.402 469.632 167.694 465.027 177C463.362 180.365 464.237 184.429 463.211 188C461.979 192.287 458.839 195.734 457.664 200C456.319 204.881 
458.185 210.909 457.961 216C457.619 223.735 451.807 238.972 446.272 244.397C443.473 247.14 438.51 245.526 435.043 246.573C431.282 247.708 429.49 251.444 
425.957 252.995C420.898 255.214 415.249 253.855 410 255L395 243L390 244L390 234C381.983 231.442 391.098 219.728 388 213L385 214C386.313 206.449 382.532 206.948 
379.027 201.586C377.028 198.527 376.191 192.583 374.965 189C372.566 181.989 376.173 174.82 374.556 168C372.674 160.069 356.315 144.904 349 142L352 130L346.382 
117.183L336.039 116.813L316 114C315.721 108.635 314.277 104.892 309 103L313 87L312 87L308 103C312.753 106.186 314.701 109.247 315 115L330 114C334.112 120.704 
339.454 114.861 344.593 118.117C348.623 120.671 345.371 127.714 351 131C347.135 139.981 344.461 149.091 340.663 158C338.31 163.52 334.055 168.967 333.217 175C332.668 
178.947 334.774 182.204 334.729 186C334.692 189.163 332.56 191.851 332.302 195C331.717 202.152 333.711 209.639 333.379 217C333.1 223.189 334.797 230.339 
330.272 235.686C327.567 238.883 322.61 238.484 319 239.991C314.682 241.793 311.317 245.175 307 247C305.066 242.071 301.465 241.946 297 244C292.979 232.494 
287.753 233.649 278 231.323C270.372 229.505 265.103 226.309 264 237L256 237L256 238L265 238C266.062 227.708 270.641 231.184 278 232.595C287.478 234.412 292.262 234.302 296 245C301.332 243.718 304.201 243.916 307 249C311.563 246.727 315.292 242.956 320 240.991C323.975 239.331 329.271 239.863 331.861 235.853C339.531 223.98 333.246 208.248 333.502 196C333.571 192.721 335.735 190.163 336.15 187C336.65 183.191 333.887 179.875 334.256 176C334.859 169.671 339.795 163.823 342.073 158C343.645 153.985 343.232 147.675 346.424 144.542C349.947 141.085 359.739 152.34 362.407 155.104C366.056 158.885 371.601 162.807 373.233 168C375.021 173.688 372.293 180.966 373.213 187C374.137 193.058 376.982 197.617 377 204C384.111 205.863 384.26 209.407 384 216L388 214L385 235L389 235L389 245L394 244C396.304 251.798 401.001 254.414 409 253L410 256L425 255L428.439 270L426 285C431.389 285.745 434.775 287.568 438 292C427.622 292.453 427.068 297.255 420.61 303.698C416.828 307.469 412.042 307.942 410.728 314.001C409.268 320.737 412.791 328.7 411.819 336C409.451 353.792 404.215 365.22 410 383L407 384C412.656 392.417 412.989 404.063 407.242 412.999C405.754 415.313 404.072 419.17 400.895 419.292C389.784 419.716 391.028 407.232 384.57 403.337C381.193 401.301 375.029 404.381 371 404C371.602 399.1 372.209 395.917 367 394L368 388C352.553 378.654 366.514 365.014 369 353C364.081 352.986 358.779 351.067 354 351.563C345.057 352.493 335.057 355.931 326.015 351.911C320.46 349.44 319.905 343.532 315.61 339.966C310.54 335.757 296.438 331.631 290 330.462C283.817 329.339 278.956 334.372 272 333C265.673 343.688 260.078 359.929 245 358.482C237.807 357.792 234.766 350.618 227 354L227 355L244 359.617L262 356L272 334C279.259 336.019 283.797 330.479 290 331.808C296.293 333.156 308.83 336.645 313.895 340.638C318.429 344.213 319.421 350.423 325.015 352.911C336.861 358.179 355.46 353.965 368 354C363.639 365.37 351.897 379.863 367 389L370 405C373.671 405.451 380.913 403.159 383.697 404.886C386.831 406.831 387.162 412.036 389.558 414.787C392.332 417.972 396.782 418.932 399.44 422.213C405.398 429.568 407.224 452.045 398.61 458.353C394.146 461.622 389.242 455.6 385 454.734C377.918 453.287 369.187 457.477 362 457.326C358.432 457.252 355.744 454.832 352.004 455.502C341.446 457.395 332.824 471.833 322 475L324 482C310.348 483.126 305.93 487.436 293 479C302.142 491.303 312.193 484.632 324 483L324 493L317 500L305 494C303.548 501.575 308.441 504.612 315 507C307.392 517.487 290.676 521.852 278 522L278 523C290.549 522.956 309.986 519.039 316 507C310.932 503.657 305.45 501.88 306 495C308.676 496.578 312.672 499.845 315.91 499.698C327.016 499.191 324.716 482.5 323 476L351.039 457.052L362 458.647L384 456.024L399 461L400.028 473.671L409.732 484.004L409.398 500L424.221 523.941L436.485 531.148L436.765 542L440.703 552.576L439.39 562L445.52 597L440 610C429.591 607.981 418.29 617.285 408.39 610.972C401.424 606.53 391.184 589.978 388.584 582C387.353 578.223 389.037 573.596 386.397 570.279C382.258 565.079 374.297 568.333 369.105 565.062C365.858 563.016 364.782 557.874 360.895 556.963C356.533 555.94 349.221 558.982 345.433 556.868C343.119 555.577 343.188 552.392 341.836 550.39C339.987 547.65 336.531 546.466 334.43 543.895C332.422 541.438 332.261 537.875 330.147 535.599C322.521 527.39 314.427 530.073 305 528.671C296.192 527.361 288.921 523.715 280 526L280 527L305 529.815L317.154 529.569L330 535L343 559L362 557L369.105 566.736L385.397 571.279L387 583C377.465 578.491 373.503 589.395 364 589.348C351.02 589.284 344.586 577.517 331 580L321 571L320 571C313.504 571.631 313.267 559.36 310.451 555.001C304.461 545.725 295.33 543.541 285 546L285 547C309.384 542.473 306.567 562.15 319 575C324.477 572.735 328.586 577.447 331 582C341.514 578.262 344.437 585.478 353.04 588.467C361.377 591.364 366.883 589.442 375 588C367.642 601.75 359.77 594.809 348 595.599C343.103 595.929 339.234 598.599 334.039 597.857C330.518 597.353 327.695 594.1 324.011 594.623C317.906 595.489 312.48 605.723 305.428 604.273C298.21 602.789 300.219 590.658 293.03 589.327C289.546 588.682 289.696 593.382 287.647 595.077C285.377 596.955 281.807 597.085 280.647 600.214C278.577 605.791 284.32 622.022 286 628L270 632L270 633L287 629C286.027 621.777 280.019 607.934 281.813 601.214C283.463 595.032 292.276 598.44 290 590L291 589C296.831 592.909 298.257 603.801 305.004 605.554C312.392 607.474 317.994 597.256 324.029 596.085C327.39 595.432 330.608 598.662 334.015 598.942C339.305 599.377 343.99 596.798 349 596.998C355.131 597.244 359.604 599.744 365.999 598.096C373.96 596.045 375.571 581.515 383.005 582.842C395.179 585.015 397.579 607.766 408.213 612.397C411.266 613.726 420.727 615.089 423.91 614.224C431.034 612.288 444.433 605.061 447.61 618.004C448.543 621.806 449.443 626.125 449.997 630C450.541 633.806 448.86 637.359 448 641C454.507 639.657 464.601 638.81 469.319 633.772C478.022 624.48 480.136 608.906 496 606.964C505.72 605.774 518.599 613.905 527 617.941C533.186 620.914 538.693 615.198 544.982 618.457C551.268 621.715 552.275 630.174 555.324 635.945C557.607 640.266 562.356 641.225 565.196 645.055C567.63 648.338 566.966 652.409 569.027 655.61C570.93 658.565 574.903 659.245 576.911 662.213C583.615 672.118 584.81 688.378 576.581 697.791C569.769 705.583 547.631 718.05 537 717.753C531.022 717.586 526.288 711.645 520 712.603C512.004 713.822 506.206 721.85 498.996 724.677C487.291 729.266 472.466 727.202 470 743C463.417 739.944 450.477 740.209 447.774 749.174C446.471 753.496 449.175 760.619 450 765L435.961 761.927L423 764C421.563 772.132 423.949 774.992 432 774C433.752 788.172 421.763 805.335 414.599 817C412.507 820.406 413.687 824.62 411.397 827.895C409.248 830.968 405.263 831.997 403.302 835.213C399.344 841.706 398.918 849.562 395 856L404.581 859.728L410.457 880.786L419.991 888.225L426 905L421 907C423.412 911.35 426.025 915.538 428.247 920C434.103 931.76 426.191 942.33 413 936.952C404.739 933.584 405.269 927.555 399.687 922.584C393.647 917.207 385.623 907.576 399 904C395.841 895.01 375.336 896.921 368.059 891.351C357.107 882.969 373.979 872.158 367.779 863.607C365.702 860.744 354.813 863.13 351 862C354.564 854.455 351.878 838.461 342.61 834.643C338.038 832.758 333.029 835.721 328.17 832.864C320.208 828.185 311.957 815.67 302 825L301 825L292 812L292 813L301 826L302 826C313.282 818.553 317.706 828.149 326.455 833.701C331.339 836.8 337.123 833.998 341.791 836.198C351.981 840.998 352.016 854.513 350 863C353.617 864.137 364.163 862.405 366.188 864.693C371.442 870.628 359.206 882.196 364.603 889.895C370.417 898.189 388.807 899.621 398 902C391.571 905.665 386.625 913.564 393.005 920.401C394.777 922.299 397.664 922.301 399.413 924.317C404.028 929.638 404.098 933.673 411 937.545C414.133 939.302 418.916 937.777 421.397 939.846C425.532 943.297 422.98 952.96 426.97 957.57C431.41 962.701 453.539 964.139 443.347 975.606C442.159 976.943 440.628 977.779 438.989 978.437C437.069 979.207 435.014 979.579 433 980C436.722 989.82 451.168 986.439 457 995L439 1002.56L418 998C418.675 1003.01 420.921 1014.88 425.317 1017.82C434.017 1023.64 450.366 1019.98 457.602 1028.19C461.335 1032.42 460.032 1038.77 461 1044C468.816 1043.75 466.728 1049.6 469.009 1054.96C470.435 1058.31 476.201 1061.04 475.824 1064.91C475.505 1068.18 470.176 1070.16 468.573 1073.04C466.115 1077.46 463.354 1087.95 462.591 1093C461.7 1098.89 473.135 1102.97 469.798 1108.46C467.725 1111.87 456.456 1110.02 453 1110C441.861 1109.95 427.609 1113.11 418 1119.05C414.13 1121.44 411.268 1126.95 406.91 1128.23C402.133 1129.63 390.205 1122.87 388.998 1131.02C388.494 1134.41 397.248 1151.28 400.304 1153.3C404.19 1155.87 408.193 1153.36 411.397 1158.03C413.296 1160.8 413.251 1164.25 415.318 1167C418.758 1171.58 423.796 1174.88 426.567 1180C428.744 1184.02 428.214 1188.9 430.442 1192.96C433.332 1198.23 438.835 1201.57 441.736 1207C444.695 1212.54 448.129 1219.24 450.518 1225.01C451.732 1227.95 451.231 1232.08 453.027 1234.67C456.607 1239.82 464.383 1235.71 467.387 1244C471.024 1254.05 465.232 1257.18 463.148 1266C461.915 1271.22 468.26 1274.11 468.391 1278.96C468.474 1282.02 464.709 1284.74 463 1287C474.776 1279.61 465.741 1277.63 464.649 1268C464.283 1264.78 469.094 1256.18 471.022 1253.43C475.21 1247.44 484.606 1239.68 491 1235.88C496.09 1232.85 500.609 1232.83 504.857 1228C510.024 1222.11 509.705 1214.16 513.858 1208.32C516.77 1204.23 521.977 1202.77 524.147 1197.96C526.449 1192.86 526.485 1184.61 530.702 1180.6C533.725 1177.73 543.785 1175.24 548 1174L539.638 1158L535 1132C541.741 1134.75 547.213 1133.68 554 1135.07C558.644 1136.02 562.445 1139.47 567 1140.32C571.517 1141.16 576.565 1137.8 580.701 1140.74C592.553 1149.18 584.731 1163.6 596 1173L597 1173L600 1167L604 1168C608.849 1154.16 632.438 1158.54 640.298 1167.42C651.194 1179.72 647.956 1201.47 646 1216C653.659 1219.22 656.338 1224.06 658 1232C667.73 1230.85 676.205 1236.15 685 1239.97C688.871 1241.65 693.31 1241.87 695.424 1246.06C698.332 1251.81 693.283 1257.8 695.92 1263.71C698.711 1269.98 707.056 1274.12 708.682 1280.09C712.481 1294.04 700.536 1307.89 717 1315C713.922 1324.09 721.221 1336.17 728.278 1342.35C732.859 1346.36 737.612 1346.18 739 1353L740 1353C739.152 1345.41 734.21 1345.67 729.278 1341.35C721.718 1334.73 716.137 1323.61 718 1314C702.076 1307.12 713.444 1292.9 709.682 1279.09C707.768 1272.06 697.993 1269.1 696.318 1260.91C694.164 1250.37 698.648 1239.35 698.653 1229C698.655 1223.64 695.713 1218.54 695.495 1213.29C695.312 1208.87 698.604 1204.78 695.973 1200.32C692.989 1195.28 686.466 1193.27 682 1190L681 1190C675.024 1194.69 672.118 1194.97 665 1193C668.225 1185.08 667.743 1178.62 663.201 1171.1C661.198 1167.79 653.243 1163.14 656.836 1158.56C658.66 1156.24 662.137 1156.82 664.272 1155.01C666.73 1152.93 666.188 1148.77 669.279 1147.2C683.912 1139.74 692.32 1156.41 704 1160.3C712.531 1163.14 716.843 1156.82 724 1154.3C728.575 1152.69 733.392 1155.63 737.961 1154.64C742.349 1153.69 745.61 1148.43 748 1145C744.709 1147.34 741.753 1152.07 737.911 1153.31C733.152 1154.84 727.773 1151.18 723 1153.1C717.377 1155.36 713.783 1160.71 707 1159.76C698.287 1158.54 693.492 1149.4 686 1145.85C682.055 1143.98 679.042 1145.55 675 1145.65C672.681 1145.7 669.777 1144.56 667.703 1146.04C665.314 1147.75 665.488 1151.39 663.437 1153.44C660.926 1155.93 656.164 1155.35 654.836 1159.14C652.761 1165.06 660.112 1168.78 662.637 1173.02C666.928 1180.21 666.151 1185.44 664 1193C670.745 1196.91 675.543 1197.08 681 1191L682 1191C685.741 1194.9 692.06 1196.38 694.973 1201.32C697.365 1205.39 694.224 1208.95 694.178 1213C694.107 1219.31 702.979 1237.26 691.812 1240.1C681.067 1242.82 670.781 1228.29 659 1231C657.338 1223.06 654.659 1218.22 647 1215C650.851 1201.33 651.543 1177.99 641.298 1166.42C633.556 1157.68 607.08 1152.21 603 1167L599 1165L597 1172L596 1172C590.632 1165.58 587.004 1160.3 591 1152L591 1151C587.865 1147.23 585.403 1141.65 580.871 1139.18C576.781 1136.96 572.29 1139.66 568 1139.06C563.096 1138.38 558.954 1134.61 554 1133.7C546.296 1132.28 539.727 1133.3 532 1130.12C523.985 1126.82 527.489 1122.57 524.126 1117.39C522.011 1114.12 516.28 1111.97 513 1110L513 1109C515.012 1104.83 510.621 1098.66 505.96 1098.24C494.776 1097.21 478.758 1096.18 473 1108L472 1108C470.817 1102.62 463.921 1098.78 463.85 1093.96C463.789 1089.79 467.769 1076.61 470.148 1073.11C472.085 1070.26 477.148 1068.73 477.338 1064.96C477.573 1060.3 471.683 1057.89 470.009 1053.96C467.835 1048.85 470.003 1041.49 462 1043C461.194 1038.45 462.47 1033.08 459.987 1029.04C457.059 1024.27 444.319 1019.67 438.957 1019.04C435.11 1018.59 428.593 1019.13 425.6 1016.26C422.054 1012.85 420.339 1003.71 419 999C425.034 1001.6 434.373 1005.06 441 1003.49C446.11 1002.28 450.786 998.048 456 997.485C460.319 997.019 464.575 1001.17 468.867 998.933C475.384 995.535 476.502 988.453 485 986C487.709 994.825 502.607 995.809 499 984L517 982.124L531.105 974.036L553 973L553 974L550 975L548 1009C554.305 1008.52 562.695 1000.81 565 995C576.746 1006.5 584.309 1016.68 601 1020L598 1014L601 1015L602 1011L603 1011L605 1016C607.995 1012.25 607.596 1005.79 611.314 1002.86C618.752 996.994 628.609 999.426 637 998.27C640.427 997.798 645.579 995.957 648.895 997.317C652.261 998.698 653.707 1002.92 655 1006C664.286 1004.72 668.902 996.408 676 991L676 990L656 1005C654.681 1001.85 653.205 997.695 649.895 996.117C646.525 994.511 641.504 996.531 638 996.999C629.292 998.164 617.141 995.24 609.738 1001.94C606.936 1004.47 606.707 1010.6 605 1014L603 1010L602 1010L601 1013L597 1012L599 1019C594.042 1015.49 588.964 1015.68 584.105 1012.97C580.736 1011.1 579.713 1007.11 577.363 1004.3C570.587 996.207 562.63 992.156 566 980L571 983L573 979L580 983L580 970L592 960C573.333 951.592 603.493 936.424 613 935C612.518 928.885 614.441 920.188 607 919L620 906L624 914C631.092 911.09 636.504 906.116 643.104 903.047C660.143 895.125 676.173 896.953 690.375 908.367C695.329 912.348 700.529 911.777 702 919L703 919C702.103 910.969 696.686 911.635 691.375 907.367C676.601 895.493 659.682 893.67 642.104 902.043C635.592 905.145 631.44 909.965 624 912L621 905L605 920C613.054 920.616 610.833 927.712 612 934C602.839 935.372 592.287 941.775 585.515 948.035C580.683 952.501 585.293 958.312 590 960L579 969L580 981C576.141 979.675 573.375 977.968 571 982L567 979L566 979C562.629 984.278 565.651 987.491 564.541 992.999C563.491 998.209 553.865 1006.54 549 1008L551 976L555 975C551.008 970.329 548.288 972.896 543 973.157C538.524 973.379 534.582 971.23 530.104 973.032C524.488 975.293 521.488 979.853 515 981.402C510.757 982.415 503.982 980.444 500.358 983.028C497.67 984.944 499.237 988.501 500 991C492.18 992.526 487.775 984.971 481.957 985.786C473.961 986.907 473.177 996.618 466.945 998.096C460.575 999.606 458.532 992.863 454.61 989.854C448.682 985.305 440.181 985.986 434 981C436.346 980.509 438.777 980.075 440.958 979.03C442.564 978.261 443.954 977.254 444.991 975.786C454.42 962.436 432.897 962.385 427.653 955.856C424.019 951.332 424.015 944.501 424 939C441.109 937.637 427.036 913.605 422 907L427 905C425.542 899.938 424 891.427 420.991 887.225C418.383 883.583 413.405 883.098 411.178 878.956C405.748 868.855 412.225 858.062 397 856C400.365 849.797 400.563 842.347 404.302 836.213C406.263 832.997 410.248 831.968 412.397 828.895C414.687 825.62 413.507 821.406 415.599 818C423.4 805.299 434.949 788.439 433 773C428.967 773.126 418.402 770.173 426.232 765.314C436.301 759.065 453.407 776.367 449.389 755.002L448 748C457.503 744.061 460.642 741.553 471 744C473.466 728.202 488.291 730.266 499.996 725.677C507.006 722.929 512.333 715.621 520 714.029C526.565 712.665 531.583 719.841 538 719.177C549.432 717.996 561.764 708.779 572 704C572 713.427 571.958 720.279 578 728C568.726 732.93 570.667 743.248 567.775 751.996C566.175 756.837 561.936 758.877 559.532 763.093C554.583 771.777 553.32 783.233 552.569 793C551.875 802.009 557.83 818.113 569 813C570.911 820.563 574.494 837.355 580.133 842.671C582.574 844.971 595.512 851.533 598.596 850.338C601.277 849.299 601.757 845.234 603.085 843.039C607.846 835.169 610.999 832.761 611 823C620.659 828.697 639.124 839.317 641 821C646.126 822.477 652.688 825.007 656.787 828.498C659.213 830.563 660.573 834.744 664.066 835.279C668.629 835.979 672.068 828.883 676.015 827.108C688.088 821.679 694.879 832.092 704 819L705 819C710.457 828.134 721.536 825.01 725 837L726 837C723.743 824.347 712.303 826.088 705 818L704 818L697 827C685.328 824.584 672.964 820.954 667 835L657.61 827.074L641 819L637 831L610 822C609.999 831.749 606.874 834.187 602.084 842.039C600.89 843.997 600.256 847.797 597.812 848.655C594.838 849.699 582.43 843.18 580.279 840.815C575.245 835.281 571.855 819.341 570 812C558.618 814.744 552.795 802.391 553.989 792C555.073 782.576 555.701 772.569 560.532 764.093C562.729 760.24 566.762 758.252 568.437 753.985C572.309 744.121 570.105 735.423 579 728L579 727C572.509 718.706 574.271 711.541 572 702C587.345 697.333 585.153 671.913 577.911 661.213C574.213 655.748 570.46 655.974 568.586 648.999C567.684 645.643 563.289 641.75 563.907 638.228C565.032 631.805 581.306 634.108 584.397 627.606C587.994 620.04 581.928 610.648 582.897 603.004C583.63 597.229 589.923 597.04 592.547 592.775C596.808 585.852 594.924 575.885 600.564 569.279C603.109 566.298 622.621 555.145 625.985 555.828C629.449 556.531 631.125 560.373 634.089 561.973C642.67 566.604 653.412 565.451 659.721 557.957C668.289 547.78 659.922 536.704 663.944 527.015C666.101 521.822 670.788 521.74 674.996 519.146C681.905 514.886 691.288 503.425 689 495C708.286 494.985 704.174 468.514 722 465.95C732.327 464.464 738.502 478.04 740.856 486C741.756 489.046 742.252 494.811 745.43 496.397C758.498 502.919 769.315 486.284 781 486.72C792.742 487.158 798.211 499.195 807 504L807 503C799.889 496.507 791.284 484.524 780 485.434C771.554 486.116 752.947 504.026 744.934 493.682C740.437 487.876 739.928 478.509 735.676 472.04C726.125 457.51 706.254 441.827 705.828 423C705.658 415.507 712.658 409.818 714.841 403C718.346 392.055 713.846 381.499 717.57 371C718.953 367.103 720.53 358.322 722.692 355.302C727.222 348.978 732.645 346.034 734.254 337.019C734.86 333.622 732.905 332.535 729.956 331.954C718.053 329.606 710.961 327.176 707.344 315C706.178 311.074 703.413 298.266 710.109 297.786C715.092 297.428 720.729 299.996 726 300L712.927 271.015L722.295 256L722 215L737 220C739.712 211.759 741.743 211.789 747 218L754.258 210.856L755 184L759 191C768.215 185.215 765.675 172.432 767 162L761 158C774.483 155.604 783.727 144.339 786.566 131C787.424 126.969 784.64 123.88 784.757 120.004C784.871 116.211 788.05 114.08 789.571 110.911C791.63 106.621 790.524 100.822 795.129 97.9521C801.275 94.121 804.78 110.419 810.089 112.883C819.266 117.141 828.88 109.428 837 107.419C844.001 105.687 848.959 107.418 854 101C847.236 105.067 842.003 104.371 835 106.702C827.182 109.305 821.031 114.205 812.039 111.972C804.313 110.053 803.396 91.7924 795.051 96.3225C791.097 98.469 783.606 115.484 783.438 120.001C783.306 123.527 785.967 126.452 785.474 130C783.426 144.739 771.949 152.344 760 158L761 163L766 163C763.871 171.641 766.769 184.415 759 189L754 183C754 196.092 757.035 207.628 746 216C742.943 206.042 738.065 212.67 736 219C732.428 216.97 727.36 216.119 724.303 213.437C714.317 204.675 716.298 188.493 719 178L707 162C710.446 151.706 700.763 147.671 695.83 140.61C693.089 136.686 694.335 133.312 690 130C692.17 133.566 692.393 138.478 694.755 141.61C699.912 148.447 707.994 151.901 706 162L718 179C710.347 193.073 721.452 199.272 720.836 213C720.48 220.953 719.113 228.998 719.288 237C719.424 243.237 722.018 249.745 721.021 255.999C719.938 262.787 711.221 263.889 711.414 270.019C711.708 279.356 722.419 289.564 725 299C720.096 298.956 712.683 295.087 708.228 296.694C704.619 297.996 705.003 302.925 705.002 306C704.998 315.754 708.908 321.893 713 330C717.073 330.012 730.907 330.891 732.582 335.318C735.892 344.066 723.067 349.733 720.781 355.228C715.478 367.976 718.036 380.029 716.241 393C714.85 403.048 708.994 411.452 704 420L692 396C682.084 401.177 684.587 394.54 677.721 390.653C673.066 388.017 668.901 389.33 665 385C659.514 386.58 654.804 388.876 652 394C647.857 390.555 643.221 386.599 642.228 381C640.968 373.9 644.001 365.54 639.297 359.286C631.898 349.447 620.313 352.158 611.209 346.157C603.126 340.83 604.204 333.505 600 326L589 333.752L573 332L572 331C575.007 323.604 572.179 323.591 570.657 316.911C570.003 314.041 572.395 311.287 570.782 308.495C568.478 304.507 564.779 303.042 563.509 298C562.209 292.835 566.111 288.197 565.435 283.001C564.666 277.089 558.891 276.281 556.318 271.787C553.933 267.623 556.34 262.522 554.397 258.39C552.447 254.245 544.054 251.475 540 250C541.728 236.516 521.662 245.921 515.253 239.57C510.444 234.804 518.122 231.903 517.535 227.174C517.172 224.257 513.351 222.934 511.726 220.787C507.047 214.602 505.661 201.41 497 200C496.979 192.775 493.92 187.795 492.163 181C489.205 169.565 491.195 160.494 477 156C480.809 142.414 469.926 144.198 466.345 133.981C463.464 125.763 464.167 109.681 464.648 101C464.948 95.5881 467.357 90.9146 464 86z"/>
<path style="fill:#ffffff; stroke:none;" d="M477 157L458.664 200L457.671 224L448 247C443.9 247 439.06 246.329 435.104 247.573C421.438 251.869 429.313 262.178 429.498 271C429.59 275.395 427.434 279.641 427 284L441 291L427.39 295.728L420.61 305.273L412.843 311.109L413.385 330L406.51 368L411 383L408 384C412.445 390.615 409.566 401.72 418 402L418 403C408.734 403.716 408.927 416.882 401 421C403.402 429.306 406.314 439.377 404.802 448C403.412 455.923 396.784 464.112 400.603 472.671C402.55 477.034 408.247 478.355 410.346 483.004C412.991 488.858 409.12 494.122 410.398 500C411.918 506.991 419.98 515.778 423.927 521.981C427.452 527.521 434.869 525.528 437.485 531.059C439.293 534.88 437.626 538.14 437.765 542C437.906 545.96 441.324 548.759 441.703 552.576C442.02 555.764 439.936 558.728 440.39 562C441.833 572.415 448.102 586.266 446.52 597C445.843 601.595 442.573 605.678 441 610C451.694 613.723 452.016 630.994 449 640L468.319 633.57L476.417 618.109L495 606.154L509 608L509 604L510 604C510.529 610.936 524.221 617.969 531 618.192C537.697 618.412 542.413 613.811 548.581 619.638C554.827 625.538 552.841 636.715 562 640C564.918 630.173 579.556 635.436 583.397 626.775C586.675 619.384 581.243 610.475 581.858 603.004C582.387 596.585 589.03 596.544 591.836 591.867C596.206 584.583 593.787 573.564 601.144 567.513C604.566 564.699 622.267 554.081 625.996 554.828C629.515 555.533 631.203 559.325 634.17 560.973C640.57 564.53 650.235 564.816 655.982 560.39C662.246 555.566 664.594 545.658 663.894 538C663.41 532.695 660.848 528.949 664.642 524.109C672.273 514.371 691.955 511.27 688 494C691.752 494 696.567 494.67 699.682 492.107C702.368 489.896 702.056 485.894 703.653 483C708.483 474.248 716.226 463.94 727 465C726.058 453.604 714.016 446.55 708.479 437C701.236 424.508 699.874 409.644 692 397C682.054 402.192 683.874 395.425 676.772 391.434C672.256 388.895 668.047 390.967 665 386C659.431 387.604 655.06 389.98 652 395L651 395C647.354 390.735 642.264 386.843 641.228 381C639.979 373.96 643.028 365.587 638.297 359.425C630.999 349.92 619.132 353.044 610.375 347.066C602.357 341.592 602.969 335.145 600 327L589 334.752L572 334L570.185 310.224L562.508 298L564.435 283.004L555.318 271.895L553.397 259.213L539 250C540.556 238.085 520.351 246.509 514.253 239.772C509.776 234.826 516.444 232.595 516.368 227.934C516.319 224.957 512.283 223.093 510.726 220.896C506.323 214.679 504.79 201.699 496 201C495.995 193.341 493.025 188.202 491.163 181C488.383 170.252 490.312 161.218 477 157z"/>
<path style="fill:#010101; stroke:none;" d="M245 342C258.783 347.155 252.03 318.985 246.595 335.996C245.962 337.977 245.464 339.976 245 342z"/>
<path style="fill:#01afff; stroke:none;" d="M250 330L246 342C252.431 342.25 253.293 335.13 252 330L250 330z"/>
<path style="fill:#010101; stroke:none;" d="M227 405L215 409L215 410L218 411C213.816 413.59 209.544 426.081 210 431C203.356 433.726 197.987 436.426 196.07 444C194.118 451.716 203.114 456.403 202.602 463.015C201.691 474.771 192.536 487.017 192.769 499C192.903 505.878 201.689 512.382 208 512L208 511C204.472 508.473 199.489 505.938 197.496 501.907C192.315 491.427 204.655 475.372 207.372 466C209.756 457.774 198.688 453.268 200.358 445C201.515 439.27 207.934 436.824 211.362 432.7C215.549 427.662 216.419 420.554 220.074 415.184C222.227 412.022 225.943 410.62 228.298 407.674C235.558 398.592 228.855 386.898 243 385C233.644 377.295 233.059 385.334 229.544 391.946C226.595 397.494 221.413 398.866 227 405z"/>
<path style="fill:#01afff; stroke:none;" d="M232 389L233 389L239 384C234.489 381.255 232.343 384.563 232 389z"/>
<path style="fill:#010101; stroke:none;" d="M455 386C443.747 394.463 432.396 403 418 403L418 404C431.408 404 445.916 397.067 455 387C459.394 399.217 469.399 387.921 477 386.774C481.825 386.046 485.284 388.169 490 386C487.99 396.993 493.273 407.881 492.181 419C491.281 428.177 479.784 436.001 478.955 445C478.155 453.688 489.404 462.143 490.058 471C490.722 479.999 478.854 482.039 478.475 491C478.285 495.479 480.547 499.623 481.066 504C481.876 510.818 479.671 516.073 482.399 523C485.255 530.252 489.792 534.903 491.197 543C492.117 548.305 489.269 553.761 490.653 559C492.859 567.353 498.338 574.163 500.32 583C502.287 591.768 499.58 599.006 509 604L509 603C501.039 596.639 503.304 590.843 501.32 582C499.376 573.331 493.536 566.213 491.728 558C490.568 552.734 493.465 547.283 492.331 542C490.424 533.115 484.833 527.423 482.429 519C480.877 513.564 483.047 509.27 482.392 504C481.809 499.305 479.19 494.853 479.858 490.004C480.891 482.51 490.836 480.789 491.432 473C492.208 462.866 481.423 455.554 480.576 446C479.87 438.043 491.527 428.83 493.272 420.996C495.791 409.693 490.118 396.586 491 385C485.801 386.265 481.059 384.658 476 385.695C467.015 387.538 461.951 396.339 455 386z"/>
<path style="fill:#01afff; stroke:none;" d="M231 391C228.67 396.137 221.376 399.965 229 404L231 391z"/>
<path style="fill:#010101; stroke:none;" d="M208 405L208 406L215 409L215 408L208 405z"/>
<path style="fill:#01afff; stroke:none;" d="M215 413L211 431L212 431L219.699 414.184L229 405L215 413M200 477L201 477C202.384 472.338 207.088 467.983 206.612 463.001C205.556 451.951 192.849 447.904 205 437.304C206.882 435.662 208.892 434.319 211 433C203.005 431.662 195.187 441.399 197.275 449C198.5 453.456 203.244 457.686 203.624 462.015C204.038 466.73 200.23 471.983 200 477M199 478C195.963 492.716 188.727 505.074 207 512L207 511C202.794 508.404 196.93 505.278 195.826 499.996C194.298 492.683 201.178 485.171 199 478M207 512L208 513L207 512z"/>
<path style="fill:#010101; stroke:none;" d="M221 558L220 559L225 567L228 566L221 558z"/>
<path style="fill:#ffffff; stroke:none;" d="M221 559L225 566L226 566L221 559z"/>
<path style="fill:#010101; stroke:none;" d="M275 660L275 663L276 663L278 664L279 664L275 660M283 674L284 679L283 679L282 675L281 675L286 685L287 685L283 674M670.059 678.832C663.383 681.124 658.834 700.99 661.367 707C667.559 721.69 679.552 725.656 693.981 720.243C699.981 717.992 698.851 711.832 700.854 707C702.423 703.216 706.568 700.439 706.167 696.004C705.108 684.263 679.995 675.42 670.059 678.832z"/>
<path style="fill:#01afff; stroke:none;" d="M670.148 679.832C663.984 682.119 660.029 701.452 662.367 707C668.303 721.083 680.187 724.631 693.942 719.243C699.177 717.192 698.085 711.267 699.854 707C701.564 702.876 706.101 699.969 704.998 695.039C702.677 684.66 679.569 676.336 670.148 679.832z"/>
<path style="fill:#010101; stroke:none;" d="M232 1054L232 1055L244 1068C239.577 1077.19 243.865 1087.2 252.285 1092.1C255.998 1094.27 260.625 1094.01 263.747 1097.34C267.128 1100.95 263.738 1105.78 266.279 1110C269.982 1116.15 277.878 1120.24 280.382 1127C281.885 1131.06 279.484 1136 278.666 1140C276.613 1150.04 278.736 1155.89 271 1164L271 1165C271.98 1168.52 271.026 1172.62 273.657 1175.58C276.851 1179.18 282.059 1179.53 284.543 1184.09C288.337 1191.06 285.985 1200.04 284 1207L285 1207C287.842 1200.02 289.739 1187.78 284.347 1181.33C281.578 1178.02 276.354 1177.47 274.113 1173.78C272.404 1170.96 273.753 1167.79 272 1165L272 1164C280.88 1157.44 277.762 1149.45 279.888 1140C280.846 1135.74 283.471 1130.27 281.592 1126C278.611 1119.23 270.856 1115.54 267.369 1109C265.236 1105 268.573 1100.84 265.639 1097.19C262.621 1093.43 258.141 1093.52 254.17 1091.58C244.929 1087.08 241.604 1077.34 245 1068L232 1054z"/>
<path style="fill:#ffffff; stroke:none;" d="M465 1110L464 1110C458.46 1113.58 448.62 1110.09 442 1111.76C434.213 1113.73 424.867 1115.79 418.001 1120.05C414.23 1122.39 411.873 1127.05 407.91 1128.88C402.913 1131.2 396.878 1126.01 392.164 1128.21C387.425 1130.42 398.353 1150.19 401 1154C412.93 1151.66 411.918 1162.26 418.059 1169C421.505 1172.78 425.942 1176.21 428.066 1181C429.757 1184.81 429.344 1189.18 431.442 1192.91C434.391 1198.15 439.833 1201.57 442.736 1207C447.225 1215.4 449.316 1225.5 453.6 1233.67C455.136 1236.6 460.288 1235.41 462.957 1237.02C467.985 1240.07 468.967 1245.69 470 1251L487 1237.79L504.701 1227L512.858 1208.18L523.147 1197.91L530.419 1179.6L547 1173L538.97 1159L537.06 1141L525.256 1126.07L523.126 1117.63L512 1110C515.042 1101.06 506.656 1099.35 500 1099.82C486.846 1100.74 482.702 1098.84 472.406 1108.72C469.949 1111.08 468.006 1110.97 465 1110z"/>
</svg>
