<?xml version="1.0" standalone="yes"?>
<svg xmlns="http://www.w3.org/2000/svg" width="1450" height="1399">
<path class = "AomoriD" onclick = "Hirosaki()" id = "Hirosaki" style = "fill:#010101; stroke:none;" d="M0 0L0 1399L1450 1399L1450 0L0 0z"/>
<path class = "AomoriD" onclick = "Hirosaki()" id = "Hirosaki" style = "fill:#ffffff; stroke:none;" d="M357 900L368 894.144L386 896C380.898 909.129 366.757 917.129 357.004 927C352.838 931.216 349.301 937.631 343.961 940.366C335.812 944.539 327.739 942.68 320 946.865C309.261 952.672 293.999 957.94 300 973C290.915 973.832 291.001 980.309 291 988C288.144 988.363 282.992 988.307 281.028 990.742C278.732 993.588 280.624 997.245 276.852 999.431C271.041 1002.8 258.026 1002.12 254.434 1008.28C248.966 1017.64 253.33 1033.87 266 1030C268.481 1034.97 275.152 1043.55 281.775 1039.81C289.26 1035.57 292.019 1022.04 295.825 1015.02C298.488 1010.1 302.892 1009.97 306.582 1006.49C309.475 1003.76 309.761 999.304 312.638 996.564C315.06 994.257 318.603 994.196 320.985 991.697C324.709 987.79 327.248 980.577 332.718 978.708C340.14 976.173 351.725 987.971 360 988L369 1010L363 1011C367.057 1019.93 370.337 1031.7 368.787 1042C367.547 1050.24 363.374 1058.34 364.317 1067C365.276 1075.8 376.096 1078.35 378.227 1086C380.311 1093.49 380.573 1114.25 390 1115L398 1129L409.015 1120.1L420.61 1119.4L429.428 1111.57L442.039 1119.68L456 1116.68L486 1115C484.483 1108.67 479.397 1098 487.228 1093.32C490.606 1091.3 495.545 1092.48 498.397 1089.44C503.628 1083.85 500.588 1078.44 510 1075.1C516.878 1072.66 527.087 1075.34 532.956 1071.4C538.845 1067.44 541.228 1057.49 543 1051L555 1057L555 1045C564.461 1048.23 580.111 1061.17 588 1048L570.83 1033.27L550.039 1036.71L539 1027L539 1026L542 1021L533 1022C533 1014.27 538.166 989.979 530.686 985.183C527.701 983.268 523.276 984.742 520 985C518.8 975.505 515.437 971.26 511.299 963C508.523 957.457 508.571 952.342 502 950C495.006 956.688 488.389 937.485 486.309 931.961C484.326 926.693 489.953 919.394 486.933 914.637C485.081 911.72 481.056 910.954 479.086 907.895C475.217 901.887 474.601 894.68 469.787 889C460.66 878.231 450 873.101 450 858L440 858L441 852L433 848L426 855L427 850C419.503 847.629 403.639 850.268 404 839C384.384 830.558 374.902 845.144 363.251 858.896C359.074 863.825 353.754 865.969 352.405 873C350.712 881.827 355.838 891.381 357 900z"/>
</svg>
