<?xml version="1.0" standalone="yes"?>
<svg xmlns="http://www.w3.org/2000/svg" width="1450" height="1399">
<path class = "AomoriD" onclick = "Rokunohe()" id = "Rokunohe" style = "fill:#010101; stroke:none;" d="M0 0L0 1399L1450 1399L1450 0L0 0z"/>
<path class = "AomoriD" onclick = "Rokunohe()" id = "Rokunohe" style = "fill:#ffffff; stroke:none;" d="M1140 902C1134.63 905.167 1131.49 909.434 1126.73 912.927C1119.34 918.336 1108.57 923.193 1102.65 930.225C1096.35 937.707 1097.34 946.636 1106 951C1102.09 955.257 1091.85 969.842 1095.43 975.567C1097.52 978.905 1102.49 978.029 1104.93 981.279C1107.36 984.525 1107.38 989.524 1110.51 992.258C1115.2 996.351 1120.02 993.633 1122 1001C1117.7 1002.25 1114.64 1003.68 1113 1008C1121.97 1010.88 1123.83 1021.86 1131.21 1027.15C1136.58 1030.98 1148 1032.33 1151.93 1025.61C1153.44 1023.03 1151.76 1019.91 1153.64 1017.39C1156.5 1013.56 1162.95 1011.39 1167 1009L1174 1028C1179.38 1026.77 1191.85 1016.35 1185.36 1009.93C1181.77 1006.39 1172.73 1006.2 1168 1006L1175 996L1174 991L1162 995C1161.94 987.83 1159.04 981.166 1160.75 974C1161.9 969.19 1162.95 963.585 1164.88 959.043C1166.14 956.072 1169.45 954.289 1169.57 950.896C1169.73 946.026 1168.13 936.018 1164.3 932.642C1160.02 928.863 1154.61 931.117 1152.03 924C1150.19 918.954 1156.36 911.356 1153.29 907.361C1150.75 904.044 1143.78 905.944 1140 902z"/>
</svg>
