<?xml version="1.0" standalone="yes"?>
<svg xmlns="http://www.w3.org/2000/svg" width="1450" height="1399">
<path class = "AomoriD" onclick = "Hirakawa()" id = "Hirakawa" style = "fill:#010101; stroke:none;" d="M0 0L0 1399L1450 1399L1450 0L0 0z"/>
<path class = "AomoriD" onclick = "Hirakawa()" id = "Hirakawa" style = "fill:#ffffff; stroke:none;" d="M520 979C521.724 986.895 530.147 980.501 533.436 987.214C537.856 996.235 534 1011.2 534 1021L543 1020L540 1026L540 1027L548 1037C553.027 1035.95 557.17 1032.22 562 1031.4C572.351 1029.66 589.269 1041.99 587 1053C597.813 1059.5 612.582 1062.63 624 1056C627.264 1066.86 641.546 1063.29 647.518 1073.02C655.59 1086.16 634.965 1100.71 623 1102.69C618.343 1103.47 612.884 1101.01 608 1101L599 1118C589.72 1111.92 589.116 1097.72 579 1113C590.171 1119.9 593.765 1134.03 591.38 1147C590.57 1151.41 585.75 1157.7 587.816 1162C592.6 1171.94 604.524 1170.36 611.772 1176.64C616.264 1180.53 616.562 1188.46 617 1194C623.636 1193.72 630.974 1192.84 636.83 1189.47C646.585 1183.86 663.493 1161.45 676.79 1169.03C680.391 1171.08 682.882 1176.57 685 1180C697.759 1177.93 692.079 1164.79 692 1156C699.331 1158.06 706.353 1157.25 711.57 1150.9C714.023 1147.91 714.21 1143.67 718.109 1142.03C722.007 1140.4 729.087 1139.12 733 1141.03C736.402 1142.69 740.177 1148.34 744.566 1146.38C747.723 1144.96 746.884 1139.76 747.633 1137C749.872 1128.77 748.602 1116.2 752.318 1109C755.644 1102.55 762.189 1100.47 764 1093C773.608 1096.89 790.25 1090.98 800 1087C798.264 1079.5 796.234 1069.9 792.442 1063.17C790.332 1059.43 785.121 1057.49 784.423 1052.99C783.689 1048.25 788.091 1043.89 790.084 1040C793.925 1032.51 796.691 1010.56 787 1007L789 987C780.401 987.369 777.902 990.857 770.985 994.911C767.737 996.815 763.491 996.826 761.278 1000.23C756.673 1007.3 757.776 1017.67 749.956 1022.65C745.806 1025.29 739.95 1028.53 735 1029.09C726.75 1030.03 721.587 1025.66 714.189 1032.39C709.966 1036.23 710.369 1041.23 708.101 1046C703.995 1054.64 696.617 1060.39 687 1060.54C679.18 1060.66 664.364 1056.51 659.728 1049.91C655.209 1043.47 656.395 1033.02 648 1030C642.092 1037.35 637.45 1037.3 629 1035C631.179 1029.77 635.866 1023.84 635.595 1018C634.933 1003.72 621.679 1000.04 612.225 993.86C606.671 990.23 601.953 984.03 596 979.971C589.794 975.74 584.355 965.881 576.999 964.858C570.456 963.948 566.215 970.857 560 971.761C551.515 972.995 541.865 966.54 534.004 968.588C528.373 970.055 525.135 976.329 520 979z"/>
</svg>
