<?xml version="1.0" standalone="yes"?>
<svg xmlns="http://www.w3.org/2000/svg" width="1450" height="1399">
<path class = "AomoriD" onclick = "Sai()" id = "Sai" style = "fill:#010101; stroke:none;" d="M0 0L0 1399L1450 1399L1450 0L0 0z"/>
<path class = "AomoriD" onclick = "Sai()" id = "Sai" style = "fill:#ffffff; stroke:none;" d="M805 117L804 132C793.301 136.498 796.118 143.874 790.146 151.61C785.57 157.536 775.609 162.653 772.279 169.228C770.926 171.899 772.358 175.125 771.343 177.961C768.982 184.55 764.888 191.063 763.39 198C762.363 202.761 764.111 207.278 763.856 212C763.539 217.858 760.762 224.063 759.866 230C759.031 235.532 758.015 245.22 754.411 249.621C751.886 252.704 747.026 253.685 745.086 257.282C743.621 259.998 745.897 261.153 748 262L742 269L748 277C737.318 278.847 742.124 292.708 739.771 300C737.109 308.248 735.901 316.994 733.301 325C731.744 329.796 727.52 333.902 726.85 339C726.161 344.245 730.636 349.532 730.736 355C730.873 362.439 726.606 370.316 726 378C735.269 375.323 738.721 367.165 746 361.529C750.922 357.717 757.36 355.581 759.137 348.999C761.48 340.318 755.359 333.672 760.613 325.005C765.966 316.177 778.148 321.377 781.272 310C783.947 300.261 775.096 294.332 767 292C770.859 280.166 785.529 274.048 794.451 265.12C800.17 259.398 801.804 247.065 807.015 240C814.498 229.852 825.33 224.789 833 216C825.274 209.191 837.94 203.625 841.502 197.985C843.871 194.234 841.964 190.807 843.418 187C847.684 175.836 854.363 170.711 844 160L843 160L838 166L837 166L830.272 153.938L822.558 148.856L817.231 127.209L810 116L805 117z"/>
</svg>
