<?xml version="1.0" standalone="yes"?>
<svg xmlns="http://www.w3.org/2000/svg" width="1450" height="1399">
<path class = "AomoriD" onclick = "Misawa()" id = "Misawa" style = "fill:#010101; stroke:none;" d="M0 0L0 1399L1450 1399L1450 0L0 0z"/>
<path class = "AomoriD" onclick = "Misawa()" id = "Misawa" style = "fill:#ffffff; stroke:none;" d="M1186 713C1184.5 724.841 1187.26 742.232 1182.35 752.985C1178.59 761.209 1173.55 771.145 1168.65 778.957C1165.88 783.363 1161.89 785.43 1161.19 791.001C1160.24 798.432 1160.33 809.924 1163.03 816.961C1164.35 820.391 1167.76 822.4 1168.68 826.015C1171.43 836.792 1170.58 852.314 1167.71 863C1163.17 879.909 1145.26 886.469 1142 904C1145.34 905.533 1151.13 904.314 1153.47 907.252C1156.35 910.871 1152.11 917.747 1152.31 922C1152.85 933.391 1164.7 929.923 1172 929L1171 921L1186 929.451L1230 926C1216.63 878.547 1209.01 829.883 1203.16 781C1200.49 758.741 1202.7 732.096 1195 711L1186 713M1151 871C1144.22 876.139 1136.28 871.288 1136 883L1158 876L1158 875L1151 871z"/>
</svg>
