<?xml version="1.0" standalone="yes"?>
<svg xmlns="http://www.w3.org/2000/svg" width="1450" height="1399">
<path class = "AomoriD" onclick = "Yokohama()" id = "Yokohama" style = "fill:#010101; stroke:none;" d="M0 0L0 1399L1450 1399L1450 0L0 0z"/>
<path class = "AomoriD" onclick = "Yokohama()" id = "Yokohama" style = "fill:#ffffff; stroke:none;" d="M1064 622C1072.24 621.83 1086.17 626.91 1092.94 622.606C1102.22 616.707 1096.49 598.956 1112 600C1112.55 592.734 1118.35 591.051 1122.27 585.714C1124.54 582.623 1124.48 578.363 1127.42 575.698C1130.7 572.726 1135.14 572.091 1137.35 567.826C1142.22 558.435 1138.82 547.425 1145.13 538.023C1148.48 533.047 1156.23 535.188 1158.38 529.811C1163.01 518.232 1153.19 505.388 1166 497L1161 485C1154.94 485.894 1148.04 481.434 1146.8 475C1146.13 471.474 1149.1 468.457 1149.28 465C1149.52 460.525 1147.26 443.868 1144.82 440.333C1142.24 436.588 1135.73 439.816 1132 439.221C1128.18 438.613 1124.87 435.835 1121 435.603C1106.92 434.756 1105.49 449.975 1100.2 458.957C1096.87 464.618 1092.72 468.993 1089.6 475C1079.59 494.309 1082.8 515.229 1080.83 536C1078.05 565.31 1072.02 593.745 1064 622z"/>
</svg>
