<?xml version="1.0" standalone="yes"?>
<svg xmlns="http://www.w3.org/2000/svg" width="1450" height="1399">
<path class = "AomoriD" onclick = "Imabetsu()" id = "Imabetsu" style = "fill:#010101; stroke:none;" d="M0 0L0 1399L1450 1399L1450 0L0 0z"/>
<path class = "AomoriD" onclick = "Imabetsu()" id = "Imabetsu" style = "fill:#ffffff; stroke:none;" d="M544 371L543 371C540.22 367.818 533.32 368.277 531.028 372.148C528.894 375.752 530.668 380.28 528.411 384C521.084 396.075 496.736 418.248 483 403L469.912 423L471.002 432L463.486 455.787L446 469C457.438 471.818 469.751 471.091 481 474.189C486.888 475.811 489.071 481.48 494.17 483.882C497.694 485.542 501.381 482.722 505 483.265C509.417 483.929 512.282 488.124 517 488.319C521.859 488.52 526.275 484.757 531 483.824C536.497 482.739 542.603 489.131 547.391 485.971C559.397 478.05 562.882 456.02 568.652 444.043C570.414 440.385 574.705 438.821 576.066 434.957C577.649 430.462 574.144 426.448 574.213 422C574.342 413.712 582.395 407.09 590 407L586.184 384L584.397 373.637L569 366.371L551.418 362.392L544 371z"/>
</svg>
