<?xml version="1.0" standalone="yes"?>
<svg xmlns="http://www.w3.org/2000/svg" width="1450" height="1399">
<path class = "AomoriD" onclick = "Tsuruta()" id = "Tsuruta" style = "fill:#010101; stroke:none;" d="M0 0L0 1399L1450 1399L1450 0L0 0z"/>
<path class = "AomoriD" onclick = "Tsuruta()" id = "Tsuruta" style = "fill:#ffffff; stroke:none;" d="M453 833C449.015 830.82 442.814 825.793 439.701 822.487C437.676 820.336 437.493 817.05 434.722 815.559C425.456 810.573 412.263 807.691 421 822C410.607 823.342 401.94 828.782 393 834L405 838L404 844C408.922 846.474 419.546 850.191 418 841C424.603 838.594 429.349 839.24 436 841L434 847C437.964 849.862 441.167 851.791 441 857L451 857C451 863.649 450.505 868.685 455 874L456 874C462.102 869.432 465.979 868.335 464 860C468.223 861.13 470.099 862.665 471 867L488 866C490.039 857.723 491.471 838.54 504.985 846.855C508.029 848.728 510.233 851.772 513 854C517.372 843.667 509.346 837.739 505 829C501.129 830.745 498.387 837.551 495.141 838.232C489.281 839.462 485.281 828.794 482.277 825.698C480.404 823.768 477.333 823.261 475.978 820.78C474.981 818.953 475.641 816.893 476 815C471.819 813.195 468.228 809.735 464.001 808.244C450.708 803.553 454.626 827.125 453 833z"/>
</svg>
