<?xml version="1.0" standalone="yes"?>
<svg xmlns="http://www.w3.org/2000/svg" width="1450" height="1399">
<path class = "AomoriD" onclick = "Hashikami()" id = "Hashikami" style = "fill:#010101; stroke:none;" d="M0 0L0 1399L1450 1399L1450 0L0 0z"/>
<path class = "AomoriD" onclick = "Hashikami()" id = "Hashikami" style = "fill:#ffffff; stroke:none;" d="M1315 1143C1307.69 1141.84 1302.05 1133.45 1294.32 1138.43C1289.66 1141.44 1294.08 1156.06 1293.98 1161C1293.79 1170.89 1291.11 1182.3 1295.03 1191.9C1296.62 1195.78 1301.07 1197.39 1303.2 1201.04C1309.94 1212.62 1314.62 1223.85 1320 1236C1328.04 1233.71 1341.28 1224.81 1343.27 1216C1345.89 1204.35 1337.85 1198.83 1348.09 1188.02C1360.46 1174.96 1378.92 1175.54 1394 1167.74C1404.6 1162.26 1408.03 1152.62 1417 1146L1417 1145C1408.18 1139.17 1397.3 1128.76 1393 1119C1388.24 1120.37 1381.35 1121.73 1377.09 1124.03C1371.92 1126.82 1369.82 1131.98 1363 1131.44C1355.44 1130.83 1353.63 1122.7 1347.78 1120.03C1340.72 1116.81 1330.53 1115.08 1324.6 1121.65C1322.56 1123.91 1323.5 1127.13 1321.98 1129.61C1318.78 1134.81 1315.9 1136.3 1315 1143z"/>
</svg>
