<?xml version="1.0" standalone="yes"?>
<svg xmlns="http://www.w3.org/2000/svg" width="1450" height="1399">
<path class = "AomoriD" onclick = "Tsugaru()" id = "Tsugaru" style = "fill:#010101; stroke:none;" d="M0 0L0 1399L1450 1399L1450 0L0 0z"/>
<path class = "AomoriD" onclick = "Tsugaru()" id = "Tsugaru" style = "fill:#ffffff; stroke:none;" d="M413 582C410.98 586.196 411.656 592.206 408.347 595.667C402.608 601.669 394.85 588.845 392 585L376 593C367.799 637.148 364.533 680.644 351.562 724C347.432 737.803 342.604 752.868 336.688 766C332.646 774.972 326.731 783.521 324 793C328.918 793.913 335.471 793.292 339.815 795.988C348.74 801.528 350.431 812.964 357.228 819.521C361.48 823.623 367.237 823.412 372 826.424C376.145 829.046 379.945 834.416 385 835.185C394.963 836.701 409.621 824.202 419 821C414.65 807.108 426.12 808.572 435.581 815.024C441.586 819.119 445.329 827.793 452 832C455.477 825.699 450.595 821.234 452.771 815.714C454.608 811.055 459.352 808.916 461.684 804.791C467.787 793.991 462.938 786.39 452 785L453 775L458 774C454.876 765.923 448.792 756.779 444.468 749.089C442.49 745.573 438.579 743.332 438.318 738.999C437.98 733.388 440.044 720.019 443.028 715.394C444.949 712.415 449.102 712.081 451.501 709.582C455.777 705.126 457.162 695.984 457.513 690.04C457.77 685.691 454.031 684.537 452.603 680.907C450.523 675.62 448.171 662.515 449 657L436 651L435 656C411.008 647.809 427.573 628.651 428.891 613C429.687 603.552 419.887 588.02 413 582z"/>
<path class = "AomoriD" onclick = "Tsugaru()" id = "Tsugaru" style = "fill:#010101; stroke:none;" d="M414 672C405.335 678.964 409.065 683.676 410 693C419.912 691.411 418.216 679.037 414 672z"/>
</svg>
