<?xml version="1.0" standalone="yes"?>
<svg xmlns="http://www.w3.org/2000/svg" width="1450" height="1399">
<path class = "AomoriD" onclick = "Higashidoori()" id = "Higashidoori" style = "fill:#010101; stroke:none;" d="M0 0L0 1399L1450 1399L1450 0L0 0z"/>
<path class = "AomoriD" onclick = "Higashidoori()" id = "Higashidoori" style = "fill:#ffffff; stroke:none;" d="M1248 157C1243.84 164.865 1235.61 170.232 1229.92 177.001C1221.88 186.561 1212.83 197.691 1202.96 205.391C1192.36 213.661 1178.93 218.28 1167 224.247C1153.14 231.176 1138.91 237.847 1123 237.657C1110.02 237.501 1096.56 229.905 1084 227C1087.56 237.952 1081.97 243.677 1079 254L1083 256C1078.71 259.739 1073.61 262.921 1070.8 268.015C1065.56 277.533 1074.26 277.728 1081 275L1090.68 290L1087.29 309L1086 339C1090.11 340.955 1094.31 345.339 1099 345.471C1108.14 345.731 1125.75 333.184 1133 345L1142 341C1145.02 351.471 1153.63 361.087 1155.07 372C1157.49 390.424 1144.93 407.531 1141.68 425C1140.55 431.068 1144.57 436.57 1146.3 442C1148.12 447.685 1149.72 458.018 1149.86 464C1150.03 471.419 1144.61 475.16 1151.44 481.721C1156.58 486.653 1173.01 483.977 1177.58 478.852C1180.26 475.844 1180.5 471.46 1183.42 468.633C1187.45 464.726 1193.28 462.729 1195.4 457C1197.65 450.88 1194.8 444.013 1193.76 438C1192.53 430.904 1192.56 420.073 1193.94 413C1204.61 358.081 1215.26 303.213 1229.37 249C1231.53 240.708 1232.95 230.771 1236.65 223.04C1239.65 216.78 1245.17 214.331 1247.11 207C1250.02 196.073 1237.61 190.14 1251 184C1247.84 176.09 1255.3 162.4 1248 157z"/>
</svg>
