<?xml version="1.0" standalone="yes"?>
<svg xmlns="http://www.w3.org/2000/svg" width="1450" height="1399">
<path class = "AomoriD" onclick = "Nishimeya()" id = "Nishimeya" style = "fill:#010101; stroke:none;" d="M0 0L0 1399L1450 1399L1450 0L0 0z"/>
<path class = "AomoriD" onclick = "Nishimeya()" id = "Nishimeya" style = "fill:#ffffff; stroke:none;" d="M266 1031C256.747 1033.48 259.696 1043.66 253.532 1049.72C249.193 1053.99 241.558 1052.48 238.317 1058.19C235.003 1064.03 239.215 1071.74 236.223 1076.83C233.692 1081.13 225.39 1082.5 225.083 1088.04C224.843 1092.36 229.667 1096.56 231.751 1100C234.237 1104.1 233.03 1109.08 235.603 1112.96C238.454 1117.25 244.203 1118.6 246.686 1123.1C251.687 1132.19 248.642 1149.74 246 1159C255.037 1160.6 263.347 1155.27 272 1155.71C275.864 1155.9 278.538 1158.88 282 1160.13C286.952 1161.92 300.721 1164.46 306 1163.57C321.608 1160.94 336.682 1152.17 353 1151.47C364.073 1151 379.541 1165.42 390.348 1154.49C394.613 1150.17 399.311 1133.82 397.092 1128.05C395.156 1123.02 390.297 1121.89 389 1116C379.458 1113.17 380.106 1093.09 377.357 1085.04C374.921 1077.91 364.96 1075.17 363.6 1067C362.226 1058.75 366.606 1050.83 367.787 1043C369.472 1031.83 366.4 1019.68 362 1010L368 1009L359 989C350.792 988.734 340.053 976.492 332.04 979.531C327.452 981.271 324.882 987.339 321.985 990.942C319.33 994.244 315.454 994.68 312.649 997.513C310.133 1000.05 309.782 1003.97 307.351 1006.58C304.193 1009.98 299.344 1009.82 296.825 1014.11C292.651 1021.21 289.726 1036.6 281.786 1040.64C275.323 1043.93 268.874 1035.58 266 1031z"/>
</svg>
