<?xml version="1.0" standalone="yes"?>
<svg xmlns="http://www.w3.org/2000/svg" width="1450" height="1399">
<path class = "AomoriD" onclick = "Hiranai()" id = "Hiranai" style = "fill:#010101; stroke:none;" d="M0 0L0 1399L1450 1399L1450 0L0 0z"/>
<path class = "AomoriD" onclick = "Hiranai()" id = "Hiranai" style = "fill:#ffffff; stroke:none;" d="M800 581C804.45 593.137 798.316 598.791 793 609L799 615C793.002 615.428 782.206 628.116 791 630C787.893 636.897 781.251 639.913 774 641C778.754 653.544 792.83 641.312 799 652C792.678 653.997 791.788 674.896 797 677C795.628 681.872 795.353 687.31 790 689L790 690L805.575 694.148L817.317 714.572L842.686 740.089L847.6 752.214L858.956 762.015L864.028 775.366L880 788C887.262 785.551 905.031 778.566 908.972 771.711C911.227 767.789 908.347 762.141 911.603 758.702C915.427 754.664 922.704 756.143 925.683 750.867C930.619 742.124 926.181 730.044 930.514 721.105C934.916 712.024 950.553 711.034 959 709C956.315 698.956 949.178 682.963 938.996 678.576C933.218 676.087 927.132 678.493 921.001 675.095C916.22 672.445 913.903 667.883 909.7 664.728C899.381 656.981 888.377 658.795 877 662C873.479 653.995 877.223 653.566 881 647L878 646L882 632C872.309 627.389 866.358 619.601 860.436 611C858.033 607.509 856.342 602.396 852.787 599.908C847.63 596.299 841.597 601.602 836.015 599.542C829.146 597.008 826.232 588.445 819.911 585.027C813.413 581.515 806.207 584.889 800 581z"/>
</svg>
