<?xml version="1.0" standalone="yes"?>
<svg xmlns="http://www.w3.org/2000/svg" width="1450" height="1399">
<path class = "AomoriD" onclick = "Kazamaura()" id = "Kazamaura" style = "fill:#010101; stroke:none;" d="M0 0L0 1399L1450 1399L1450 0L0 0z"/>
<path class = "AomoriD" onclick = "Kazamaura()" id = "Kazamaura" style = "fill:#ffffff; stroke:none;" d="M846 56C846.274 62.3885 847.813 69.2623 851.969 74.3627C857.323 80.9335 870.997 85.9313 860 95C861.951 104.453 865.815 112.198 864.911 122C864.349 128.083 858.522 136.18 861.554 141.996C866.23 150.966 870.356 146.617 877.424 147.583C880.139 147.954 882.083 150.174 885 149.909C887.773 149.657 890.047 147.457 892.957 148.118C901.318 150.017 898.465 164.084 907.015 165.752C913.314 166.98 930.193 158.656 933.914 153.61C936.843 149.639 936.353 144.231 941.108 141.558C953.704 134.478 970.565 136.008 984 131C980.907 119.472 973.845 121.901 965 116.467C959.719 113.223 952.365 106.003 946.791 104.314C926.277 98.098 904.318 105.274 885 92.9097C869.911 83.2523 863.526 61.7571 846 56z"/>
</svg>
