<?xml version="1.0" standalone="yes"?>
<svg xmlns="http://www.w3.org/2000/svg" width="1450" height="1399">
<path class = "AomoriD" onclick = "Tohoku()" id = "Tohoku" style = "fill:#010101; stroke:none;" d="M0 0L0 1399L1450 1399L1450 0L0 0z"/>
<path class = "AomoriD" onclick = "Tohoku()" id = "Tohoku" style = "fill:#ffffff; stroke:none;" d="M1074 665C1072.19 672.814 1070.3 683.908 1066.68 690.961C1063.37 697.434 1056.36 702.809 1052.22 709C1049.57 712.961 1048.71 719.118 1045.3 722.401C1040.38 727.146 1031.7 729.553 1026 733.637C1017.44 739.77 1014.35 746.991 1003 747C1003.42 750.69 1004.11 754.946 999.941 756.802C995.222 758.905 989.015 755.592 984 756.532C975.236 758.176 966.99 763.641 958 764.185C952.903 764.494 948.038 761.691 943 761.174C934.322 760.284 930.05 763.626 926 754L912.028 759.51L910.397 769.961L901 779L908 795C919.033 792.562 929.055 795.566 940 794.957C944.119 794.727 947.88 792.439 952 792.649C955.944 792.85 960.023 795.147 964 794.265C967.028 793.594 969.254 790.527 972.424 790.515C983.298 790.471 1001.96 795.397 1011.9 799.879C1015.94 801.705 1016.5 806.558 1020.21 808.682C1025.29 811.586 1031.28 806.874 1035.93 810.408C1042.17 815.157 1037.01 824.12 1044.06 829.046C1055.42 836.991 1069.56 844.876 1072 826C1076.58 825.85 1080 821.425 1083.97 821.612C1090.15 821.903 1092.13 834.601 1091 839L1104 842L1101 849C1099 848.223 1097.02 847.346 1095 846.62C1081.52 841.775 1086.92 859.126 1078.87 863.348C1066.14 870.018 1048.13 874.153 1037.64 884.637C1030.29 891.983 1028.51 904.084 1028 914C1038.39 909.762 1048.55 908.316 1059 905.363C1066.5 903.245 1070.91 899.05 1079 901C1084.33 894.232 1090.02 895 1098 895C1096.56 906.393 1099.91 917.046 1103 928L1132.1 906.529L1140.97 900.363L1144 885L1135 884C1135.27 872.816 1142.37 873.574 1151 871C1142.04 865.139 1130.18 878.219 1121 880C1116.67 872.225 1109.31 865.828 1109.32 856.004C1109.33 851.135 1113.87 849.256 1113 844L1127 847.864L1143 842C1139.35 821.557 1122.63 803.763 1121.85 782C1121.6 775.006 1126.36 769.402 1128 763C1119.68 759.774 1104.81 754.85 1100.01 746.816C1095.4 739.082 1098.22 727.389 1097.96 719C1097.62 708.452 1093.73 698.403 1093.09 688C1092.68 681.177 1095.94 674.872 1096 668C1087.27 669.776 1082.26 667.361 1074 665z"/>
</svg>
