<?xml version="1.0" standalone="yes"?>
<svg xmlns="http://www.w3.org/2000/svg" width="1450" height="1399">
<path class = "AomoriD" onclick = "Gonohe()" id = "Gonohe" style = "fill:#010101; stroke:none;" d="M0 0L0 1399L1450 1399L1450 0L0 0z"/>
<path class = "AomoriD" onclick = "Gonohe()" id = "Gonohe" style = "fill:#ffffff; stroke:none;" d="M1174 1030L1167 1011C1162.95 1011.73 1155.39 1014.19 1153.64 1018.39C1152.55 1021.02 1154.34 1023.94 1152.36 1026.36C1146.1 1033.99 1136.66 1029.76 1129 1028C1125.47 1034.57 1120.3 1034.54 1115.97 1039.43C1111.92 1043.98 1110.76 1052.76 1104.9 1055.44C1092.98 1060.88 1079.49 1057.2 1068.43 1066.97C1065.52 1069.53 1065.14 1073.97 1062.72 1077C1058.91 1081.77 1053.56 1084.1 1049.29 1088.21C1043.43 1093.84 1039.44 1102.65 1032 1106C1037.66 1118.8 1048.32 1122.67 1044 1138C1055.21 1140.43 1063.06 1130.24 1072.3 1142.18C1074.03 1144.42 1077.55 1149.52 1077.34 1152.42C1076.87 1158.8 1066.65 1168.78 1078 1172.76C1086.79 1175.84 1097.81 1161.24 1105.96 1161.33C1115.15 1161.44 1113.79 1172.69 1125 1165L1115 1154L1115 1153L1126.33 1139.39L1143 1130L1140 1118C1154.46 1114.66 1163.03 1107.17 1175 1099C1173.29 1093.59 1167.95 1087.17 1169.77 1081.1C1171.42 1075.66 1181.43 1073.4 1186 1071.22C1192.34 1068.2 1193.85 1062.5 1199.21 1058.94C1203.69 1055.96 1210.85 1056.27 1216 1055L1216 1054L1210 1045C1215.44 1043.74 1218.71 1048.16 1223 1051C1222.89 1046.33 1219.51 1043.43 1218.42 1039C1215.54 1027.34 1221.58 1019.01 1205 1019L1209 1011C1204.22 1009.49 1194.92 1006.55 1190.28 1009.32C1186.57 1011.54 1186.68 1017.49 1184.63 1020.98C1182.15 1025.2 1177.95 1027.38 1174 1030z"/>
</svg>
