<?xml version="1.0" standalone="yes"?>
<svg xmlns="http://www.w3.org/2000/svg" width="1450" height="1399">
<path class = "AomoriD" onclick = "Noheji()" id = "Noheji" style = "fill:#010101; stroke:none;" d="M0 0L0 1399L1450 1399L1450 0L0 0z"/>
<path class = "AomoriD" onclick = "Noheji()" id = "Noheji" style = "fill:#ffffff; stroke:none;" d="M1002 746C1014.1 746 1016.95 740.488 1026 733.39C1031.7 728.927 1040.2 726.636 1045.18 721.416C1048.97 717.445 1050.72 710.569 1054.13 706C1057.79 701.088 1064.55 695.757 1066.44 689.961C1073.17 669.312 1070.94 642.286 1092 630L1091 625C1082.51 625.874 1072.54 618.354 1064.42 624.013C1057.75 628.657 1055.27 645.713 1051.74 653C1041.27 674.65 1027.22 701.187 1006.96 715.034C998.162 721.048 984.482 725.76 974 721.436C969.078 719.406 966.448 714.317 962 711.618C956.942 708.549 947.008 711.555 942 713.796C928.601 719.791 930.353 727.831 928.714 741C928.205 745.085 926.126 749.913 926.823 753.999C928.511 763.898 938.209 759.242 945 760.669C949.255 761.563 953.582 763.749 958 763.502C967.36 762.978 975.815 756.926 985 755.607C989.538 754.956 996.667 758.393 1000.68 755.933C1003.96 753.926 1002.38 749.043 1002 746z"/>
</svg>
