<?xml version="1.0" standalone="yes"?>
<svg xmlns="http://www.w3.org/2000/svg" width="1450" height="1399">
<path class = "AomoriD" onclick = "Sannohe()" id = "Sannohe" style = "fill:#010101; stroke:none;" d="M0 0L0 1399L1450 1399L1450 0L0 0z"/>
<path class = "AomoriD" onclick = "Sannohe()" id = "Sannohe" style = "fill:#ffffff; stroke:none;" d="M886 1196C888.165 1201.94 901.719 1209.54 908 1209.94C912.575 1210.23 917.558 1208.04 922 1209.6C927.329 1211.48 930.415 1217.31 936 1218.68C948.699 1221.81 963.35 1219.15 976 1220.55C986.695 1221.74 996.522 1227.5 1007 1229.47C1011.23 1230.26 1015.82 1227.72 1019.85 1228.89C1022.94 1229.78 1022.64 1233.3 1024.6 1235.3C1027.11 1237.86 1031.63 1238.5 1035 1239C1035.86 1250.34 1033.03 1265.73 1027.69 1275.96C1024.3 1282.44 1018.65 1284.16 1017 1292C1021.73 1290.03 1026.92 1285.84 1032 1285.21C1042.22 1283.95 1047.8 1287 1057.91 1281.18C1062.39 1278.6 1064.62 1273.75 1068.17 1270.17C1074.48 1263.81 1082.93 1257.68 1091 1253.78C1100.94 1248.99 1108.86 1255.66 1118.79 1248.65C1124.25 1244.79 1123.13 1238.26 1126.14 1233.04C1128.37 1229.18 1132.65 1228.5 1135.4 1225.36C1139.23 1220.97 1135.17 1212.31 1133 1208C1123.21 1210.14 1122.87 1202.54 1114.96 1200.93C1110.62 1200.05 1106.55 1204.9 1102.22 1202.73C1097.13 1200.18 1096.85 1193.92 1090 1192.82C1083.28 1191.75 1075.81 1198.2 1069 1194.96C1061.15 1191.22 1061.54 1181.07 1053 1178.76C1045.77 1176.81 1038.29 1180.22 1031 1179.7C1013.14 1178.44 1000.91 1175.82 983.04 1181.93C977.102 1183.96 975.558 1191.77 968.999 1192.64C961.896 1193.57 960.731 1183.85 953.985 1183.41C945.083 1182.83 936.912 1191.75 928.286 1192.6C925.11 1192.92 922.091 1189.87 919 1189.19C906.295 1186.38 896.303 1188.37 886 1196z"/>
</svg>
