<?xml version="1.0" standalone="yes"?>
<svg xmlns="http://www.w3.org/2000/svg" width="1450" height="1399">
<path class = "AomoriD" onclick = "Kuroishi()" id = "Kuroishi" style = "fill:#010101; stroke:none;" d="M0 0L0 1399L1450 1399L1450 0L0 0z"/>
<path class = "AomoriD" onclick = "Kuroishi()" id = "Kuroishi" style = "fill:#ffffff; stroke:none;" d="M630 1034C633.607 1035.89 636.968 1037.28 640.985 1035.62C644.233 1034.27 647.92 1029.01 651.725 1031.16C656.99 1034.12 657.101 1044.98 660.139 1049.81C664.101 1056.12 679.904 1059.91 687 1059.74C707.964 1059.25 703.14 1040.08 716.015 1030.64C723.106 1025.43 727.457 1029.15 735 1028.45C739.916 1027.99 745.76 1024.78 749.892 1022.2C757.668 1017.35 756.121 1006.07 761.086 999.279C764.737 994.282 773.333 993.213 778 988C773.402 981.527 766.451 977.26 761.518 971C756.814 965.031 753.473 955.509 747.471 950.857C742.747 947.195 735.252 947.458 730 944.034C725.444 941.064 721.45 932.864 715.996 931.993C711.902 931.34 706.312 934.37 702 934.674C696.669 935.051 692.189 931.102 687 931.576C673.214 932.833 656.337 941.149 642 937.227C630.008 933.947 624.085 917.152 616.147 909.646C613.904 907.526 608.926 909.063 606 908.286C591.317 904.389 575.738 901.452 570.634 920C567.917 929.874 567.084 953.324 573.893 961.581C576.387 964.605 580.708 964.213 583.487 966.727C592.714 975.075 601.831 985.704 612.274 993.062C621.121 999.297 635.918 1004.26 636.323 1018C636.483 1023.46 632.044 1029.09 630 1034z"/>
</svg>
