<?xml version="1.0" standalone="yes"?>
<svg xmlns="http://www.w3.org/2000/svg" width="1450" height="1399">
<path class = "AomoriD" onclick = "Hachinohe()" id = "Hachinohe" style = "fill:#010101; stroke:none;" d="M0 0L0 1399L1450 1399L1450 0L0 0z"/>
<path class = "AomoriD" onclick = "Hachinohe()" id = "Hachinohe" style = "fill:#ffffff; stroke:none;" d="M1207 1018C1222.33 1018.49 1216.9 1029.82 1219.42 1040C1220.53 1044.48 1224.35 1047.22 1223 1052L1222 1052C1219.1 1048.21 1215.92 1045.17 1211 1045L1218 1056C1212.59 1056.43 1203.03 1056.56 1198.61 1059.94C1194 1063.46 1192.61 1068.39 1187 1071.24C1182.69 1073.43 1172.64 1075.57 1170.64 1080.39C1168.23 1086.22 1173.69 1094.05 1176 1099L1185 1093C1188.76 1106.76 1201.31 1128.51 1217 1122C1222.92 1134.74 1229.98 1141.84 1243 1148C1239.01 1153.04 1236.56 1160.93 1230.96 1164.2C1222.9 1168.91 1211.24 1167.44 1204.21 1173.56C1192.05 1184.15 1191.88 1201.65 1192 1216L1178 1216C1183.99 1219.5 1193.82 1224.08 1183 1229L1184 1233L1196 1235C1201.06 1226.54 1205.74 1231.57 1210 1238C1213.94 1235.35 1219.2 1234.14 1222.78 1231.4C1226.33 1228.67 1226.73 1224.04 1231.04 1221.92C1239.88 1217.58 1257.92 1218.38 1266.98 1221.76C1271.6 1223.49 1272.01 1227.35 1275.5 1230.06C1277.62 1231.72 1280.56 1231.59 1282.82 1232.99C1289.62 1237.21 1290.59 1241.2 1299 1243.35C1303.46 1244.49 1307.55 1247.25 1311.99 1244.4C1321.08 1238.55 1317.86 1226.06 1312.92 1218.17C1309.29 1212.37 1305.69 1204.39 1301.36 1199.21C1299.08 1196.49 1295.49 1195.39 1294.15 1191.9C1290.14 1181.44 1293.11 1169.71 1293 1159C1292.94 1153.8 1288.64 1140.65 1294.15 1137.65C1301.82 1133.48 1306.78 1140.85 1314 1142C1316.84 1132.03 1323.5 1117.73 1335 1116.34C1340.01 1115.74 1345.8 1118.78 1351 1119C1352.42 1127.86 1361.4 1133.2 1369.91 1129.44C1373.15 1128 1374.89 1124.64 1378.01 1123.03C1381.83 1121.06 1386.9 1120.67 1391 1119L1391 1118C1382.8 1114.81 1379.86 1109.94 1380 1101C1375.81 1098.37 1372.84 1096.22 1373 1091L1364 1092C1363.98 1085.28 1362.95 1079.35 1356 1076.46C1353.4 1075.38 1350.14 1076.35 1347.93 1074.47C1342.47 1069.85 1344.23 1061.84 1340.7 1056.34C1330.97 1041.21 1315.66 1065.77 1308 1070L1306 1066L1293 1068L1294 1063C1282.24 1058.1 1281.3 1049.95 1274.62 1040.31C1273.19 1038.24 1270.57 1037.75 1269.16 1035.69C1261.65 1024.65 1257.15 1006.74 1253 994C1240.83 997.507 1211.18 1005.03 1207 1018z"/>
</svg>
