<?xml version="1.0" standalone="yes"?>
<svg xmlns="http://www.w3.org/2000/svg" width="1450" height="1399">
<path class = "AomoriD" onclick = "Towada()" id = "Towada" style = "fill:#010101; stroke:none;" d="M0 0L0 1399L1450 1399L1450 0L0 0z"/>
<path class = "AomoriD" onclick = "Towada()" id = "Towada" style = "fill:#ffffff; stroke:none;" d="M1025 924L1019 923C1016.98 928.239 1015.9 933.265 1010 935C1009 940.48 1009.3 943.249 1015 945C1011.38 949.103 1007.73 953.573 1002 954.57C998.294 955.215 994.676 953.485 991 954.731C981.748 957.865 966.871 963.922 957 958.795C951.129 955.745 943.597 949.246 939.637 943.961C936.626 939.94 935.503 935.111 930.957 932.367C921.513 926.668 909.385 930.818 900.109 924.034C893.544 919.233 892.207 901.341 882.012 901.078C877.911 900.972 875.78 905.895 874.428 909.001C870.497 918.03 870.54 927.324 867.397 936C865.482 941.287 861.543 944.021 861 950L845 951.396L825 943.588L803 939L808.732 960L804 983C786.791 983.154 790.552 993.46 788 1006C796.492 1011.84 795.507 1029.3 791.583 1038C789.351 1042.95 783.914 1047.95 785.333 1053.91C786.357 1058.2 791.42 1060.2 793.442 1064.04C796.687 1070.19 796.326 1079.2 800.843 1084.57C804.962 1089.47 811.059 1089.82 815 1096C829.046 1089.18 830.285 1095.87 838.263 1105.42C845.84 1114.49 852.394 1121.62 852.675 1134C852.791 1139.12 848.423 1142.62 849 1148C830.168 1154.7 840.097 1127.24 826.059 1130.75C823.464 1131.4 822.058 1133.4 822.453 1136.04C823.33 1141.9 829.03 1145.8 829.343 1152C829.654 1158.14 821.727 1166.54 815.376 1163.01C809.068 1159.5 807.88 1151.24 801 1148L804.938 1160.7L814 1173C826.643 1172.46 843.261 1177.05 850 1165L851 1165C857.206 1175.15 864.885 1166.7 874 1166.65C877.391 1166.63 880.665 1169.15 883.911 1167.29C886.932 1165.56 889.55 1161.73 891.624 1159C899.115 1149.14 899.583 1137.24 909.171 1128.21C919.961 1118.05 935.123 1118.61 948 1113.53C953.665 1111.29 957.784 1106.18 963 1103.13C967.306 1100.62 979.136 1097.83 984 1097.36C989.125 1096.86 993.915 1101.04 999 1101.26C1003.03 1101.43 1006.04 1098.14 1010 1097.82C1020.03 1097.01 1027.78 1100.87 1038 1097.16C1045.14 1094.57 1058.04 1083.22 1062.49 1077C1064.84 1073.7 1065.06 1069.4 1068.23 1066.64C1079.37 1056.93 1092.36 1059.45 1104.79 1054.77C1110.05 1052.79 1111.85 1044.33 1114.97 1040.11C1118.23 1035.68 1124.16 1035.96 1126.93 1030.95C1131.1 1023.38 1119.19 1010.15 1112 1009L1121 1000C1118.85 994.374 1114.48 996.362 1110.42 993.142C1102.53 986.887 1106.5 979.616 1094 978C1093.56 967.551 1099.25 959.704 1105 951C1092.59 943.147 1102.08 937.732 1101.59 927C1101.11 916.186 1095.62 907.13 1097 896C1083.13 896 1072.05 901.545 1059 906.035C1053.06 908.077 1047.06 907.724 1041 910.074C1032.68 913.302 1025.91 913.626 1025 924z"/>
</svg>
