<?xml version="1.0" standalone="yes"?>
<svg xmlns="http://www.w3.org/2000/svg" width="1450" height="1399">
<path class = "AomoriD" onclick = "Nanbu()" id = "Nanbu" style = "fill:#010101; stroke:none;" d="M0 0L0 1399L1450 1399L1450 0L0 0z"/>
<path class = "AomoriD" onclick = "Nanbu()" id = "Nanbu" style = "fill:#ffffff; stroke:none;" d="M1141 1119L1144 1131C1130.43 1134.91 1124.79 1142.9 1116 1153L1116 1154L1126 1164L1126 1165L1115.09 1168.62L1104.96 1161.88L1094 1168.16L1060 1181C1060.66 1183.33 1061.18 1185.84 1062.3 1188C1068.98 1200.87 1080.01 1190.54 1090 1192.29C1096.63 1193.46 1097.82 1200.57 1103.13 1202.3C1106.91 1203.54 1110.28 1200.04 1114 1200.39C1122.28 1201.17 1122.87 1210.48 1133 1207L1138 1225C1143.46 1225.82 1153.18 1233.2 1154.25 1239.02C1154.92 1242.61 1152.38 1246.34 1154.22 1249.79C1157.46 1255.84 1162.82 1257.48 1165 1265C1180.39 1259.75 1190.76 1250.53 1195 1235L1181 1229C1193.6 1225.21 1182.76 1218.81 1176 1216C1181.31 1213.07 1185.26 1213.89 1191 1215C1190.88 1200.53 1192.29 1182.54 1205.04 1172.56C1212.41 1166.79 1223.07 1168.57 1230.95 1163.64C1235.87 1160.55 1239.17 1152.97 1242 1148C1229.66 1141.13 1223.28 1135.29 1217 1123C1214.56 1123.7 1210.97 1125.97 1208.42 1125.33C1198.57 1122.86 1187.88 1103.85 1185 1095L1157 1112.87L1141 1119z"/>
</svg>
