<?xml version="1.0" standalone="yes"?>
<svg xmlns="http://www.w3.org/2000/svg" width="1450" height="1399">
<path class = "AomoriD" onclick = "Shichinohe()" id = "Shichinohe" style = "fill:#010101; stroke:none;" d="M0 0L0 1399L1450 1399L1450 0L0 0z"/>
<path class = "AomoriD" onclick = "Shichinohe()" id = "Shichinohe" style = "fill:#ffffff; stroke:none;" d="M1013 945C1008.06 942.218 1008.61 939.164 1009 934C1015.83 933.46 1016.78 927.879 1018 922L1024 923C1026.95 910.539 1028.17 895.207 1036.64 885.213C1046.34 873.759 1066.25 869.847 1078.77 862.57C1085.94 858.409 1081.29 841.659 1094 845.659C1096.03 846.3 1098.01 847.229 1100 848L1102 843L1090 840C1091.46 835.7 1090.08 821.341 1083.07 822.036C1071.76 823.158 1072.83 841.752 1061 838.736C1054.84 837.167 1042.35 830.787 1039.51 824.896C1037.37 820.438 1040.34 813.806 1035.85 810.643C1031.64 807.681 1025.87 811.85 1021.1 809.964C1016.37 808.092 1015.89 802.158 1010.96 800.343C1000.72 796.575 982.839 790.636 972 791.198C968.621 791.373 966.301 794.448 963 794.997C958.962 795.668 955.027 793.289 951 793.359C947.193 793.425 943.786 795.544 940 795.896C929.436 796.878 917.841 790.709 908 797L901 780C885.223 782.037 884.231 789.329 877.146 801C874.444 805.45 869.635 808.284 867.317 813C865.779 816.129 866.145 819.876 864.142 822.815C853.747 838.063 819.059 827.87 822.633 855C823.784 863.742 829.336 863.872 835.957 866.854C838.846 868.156 840.356 871.197 843.209 872.397C851.185 875.753 856.667 874.601 863.91 881.3C868.179 885.249 870.815 890.635 875.174 894.482C879.783 898.552 885.372 901.099 889.24 906.039C893.124 911 895.267 920.072 900.228 923.647C909.868 930.594 923.255 925.646 932.787 932.966C936.398 935.739 937.445 940.313 939.966 943.911C946.184 952.783 955.538 959.351 966 958.339C971.07 957.849 975.857 959.375 981 958.38C985.392 957.531 988.743 954.333 993 953.519C1001.45 951.904 1008.89 955.354 1013 945z"/>
</svg>
