<?xml version="1.0" standalone="yes"?>
<svg xmlns="http://www.w3.org/2000/svg" width="1450" height="1399">
<path class = "AomoriD" onclick = "Fukaura()" id = "Fukaura" style = "fill:#010101; stroke:none;" d="M0 0L0 1399L1450 1399L1450 0L0 0z"/>
<path class = "AomoriD" onclick = "Fukaura()" id = "Fukaura" style = "fill:#ffffff; stroke:none;" d="M155 835L155 836L154 844C146.282 842.636 127.505 847.49 132 858C123.233 864.245 124.225 879.488 118.647 887.892C116.035 891.828 111.185 893.283 107 895C112.483 906.642 100.099 914.509 96 924L91 922C89.0123 925.155 85.8868 927.62 84.3711 931.043C82.1043 936.163 84.8253 941.385 78 943L75.527 952.959L56.0154 952.047L47.5818 962.61L25.4776 981.09L28 1001L30 1001C27.5039 1014.41 43.9874 1016.89 54 1014.29C57.3635 1013.42 60.491 1010.59 64 1010.51C66.9863 1010.44 69.7781 1012.6 71.9066 1014.47C78.964 1020.67 77.8331 1039.35 86 1040L93.3017 1100L84 1168L101 1165.42L114 1168.79L131 1165.89L148 1174C149.139 1170.64 152.547 1167.49 152.552 1163.91C152.56 1157.8 146.366 1153.2 149.942 1147.04C157.16 1134.6 175.366 1135.51 183.845 1125.85C191.814 1116.77 187.058 1111.71 190.005 1102C192.744 1092.98 195.405 1081.6 198.857 1073C200.318 1069.36 203.903 1066.8 204.958 1063C205.716 1060.27 204.069 1057.72 204.546 1055C205.235 1051.08 208.502 1048.02 209.367 1044C211.283 1035.09 209.041 1027.7 209.259 1019C209.43 1012.17 210.887 1003.78 209.593 997.089C208.903 993.522 205.187 991.74 204.742 987.996C204.062 982.264 204.175 971.074 205.369 965.576C206.189 961.8 209.17 958.949 209.786 955C210.864 948.093 209.727 940.843 211.724 934.004C214.237 925.396 225.691 920.952 230.012 913C233.311 906.928 230.734 899.43 236.144 894.228C238.504 891.959 242.032 891.531 244.272 889.273C246.606 886.92 246.918 882.845 248.533 880C251.772 874.297 258.984 869.187 259.073 862C259.177 853.628 251.562 846.309 244 844.942C234.269 843.183 227.126 854.264 217 851.545C208.292 849.206 206.298 844.224 200.363 838.702C189.665 828.749 177.398 823.71 164.001 829.181C160.098 830.774 157.849 831.765 155 835z"/>
</svg>
