<?xml version="1.0" standalone="yes"?>
<svg xmlns="http://www.w3.org/2000/svg" width="1450" height="1399">
<path class = "AomoriD" onclick = "Goshogawara-South()" id = "Goshogawara-South" style = "fill:#010101; stroke:none;" d="M0 0L0 1399L1450 1399L1450 0L0 0z"/>
<path class = "AomoriD" onclick = "Goshogawara-South()" id = "Goshogawara-South" style = "fill:#ffffff; stroke:none;" d="M530 597C524.975 610.788 528.673 632.353 517.362 643.486C512.013 648.751 502.623 649.232 496.375 651.639C491.919 653.356 488.98 657.559 484 659.096C472.638 662.603 463.647 659.964 463 675L453 672C453 679.355 458.655 684.856 458.188 691.004C457.747 696.798 456.222 705.095 452.301 709.606C449.878 712.394 445.183 712.71 443.603 716.225C433.366 738.986 447.441 756.595 460 775C456.461 775.407 449.955 779.89 454.618 783.825C456.817 785.68 461.265 785.653 464 786C465.166 800.794 460.883 808.255 477 815L475 821C477.572 822.358 481.209 823.258 483.147 825.51C485.748 828.534 489.297 839.843 495.437 837.507C498.973 836.161 501.315 829.971 506 828L512 838C526.189 824.378 523.507 863.482 531.947 863.248C534.708 863.172 536.026 858.8 538.147 857.363C543.588 853.677 550.023 852.625 554.697 847.56C557.375 844.658 557.342 840.279 560.303 837.653C563.121 835.154 567.565 835.97 570.11 833.397C574.999 828.457 571.579 821.534 570.782 816C569.47 806.882 570.732 794.39 570.839 785C570.944 775.774 571.986 764.717 575.259 756C577.896 748.977 582.887 745.022 582.996 737C583.129 727.198 582.989 714.43 579.772 705.09C578.278 700.754 572.069 698.946 572.411 693.985C573.171 682.971 581.866 671.456 580.084 660.105C579.358 655.479 571.325 654.003 568.214 651.363C561.566 645.721 554.112 631.633 555 623L551 623C551.826 612.441 547.315 613.048 540.213 606.482C536.417 602.973 534.95 599.23 530 597z"/>
</svg>
