<?xml version="1.0" standalone="yes"?>
<svg xmlns="http://www.w3.org/2000/svg" width="1450" height="1399">
<path class = "AomoriD" onclick = "SotogahamaNorth()" id = "SotogahamaNorth" style = "fill:#010101; stroke:none;" d="M0 0L0 1399L1450 1399L1450 0L0 0z"/>
<path class = "AomoriD" onclick = "SotogahamaNorth()" id = "SotogahamaNorth" style = "fill:#ffffff; stroke:none;" d="M394 341C405.484 338.145 410.798 356.781 411.004 366C411.214 375.38 418.66 383.025 419.346 392.714C419.673 397.337 416.087 404.151 415.326 409C414.585 413.717 416.322 418.295 415.532 423C414.738 427.727 411.421 433.217 413.229 438C416.393 446.369 431.179 468.125 441.039 468.794C446.067 469.135 457.979 461.028 461.436 457.363C465.3 453.265 466.415 443.353 468.424 438C470.585 432.239 468.061 427.208 469.745 422C472.111 414.684 478.599 408.836 482 402C475.43 399.481 467.439 397.706 462.88 391.895C459.906 388.104 459.778 382.91 456.682 379.439C452.707 374.982 446.306 373.215 442.563 368.671C439.424 364.859 439.251 359.287 436.034 355.39C432.105 350.629 424.978 346.914 420 343.235C416.672 340.776 412.776 340.29 409.285 338.25C406.421 336.576 387.734 321.352 392.327 335.976C392.86 337.671 393.512 339.287 394 341z"/>
</svg>
