<?xml version="1.0" standalone="yes"?>
<svg xmlns="http://www.w3.org/2000/svg" width="1450" height="1399">
<path class = "AomoriD" onclick = "Ooma()" id = "Ooma" style = "fill:#010101; stroke:none;" d="M0 0L0 1399L1450 1399L1450 0L0 0z"/>
<path class = "AomoriD" onclick = "Ooma()" id = "Ooma" style = "fill:#ffffff; stroke:none;" d="M828 39L824 56L822 55L821 55L819 61C826.165 78.2371 826.12 89.7745 818.751 106.942C817.159 110.65 811.586 111.866 811.242 116.019C810.81 121.232 816.89 122.951 818.112 127.209C820.904 136.94 818.062 151.352 832 152L837 165L838 165L843 159L844 159L851 166C855.834 155.14 867.539 163.797 870 150C853.449 141.342 865.311 128.106 864.62 114C864.349 108.454 860.106 103.653 860.205 98.0146C860.296 92.8779 865.431 90.6401 862.86 85.0039C859.281 77.1602 850.71 74.5444 846.954 66C842.767 56.4714 840.488 41.5406 828 39z"/>
</svg>
