<?xml version="1.0" standalone="yes"?>
<svg xmlns="http://www.w3.org/2000/svg" width="1450" height="1399">
<path class = "AomoriD" onclick = "Mutsu()" id = "Mutsu" style = "fill:#010101; stroke:none;" d="M0 0L0 1399L1450 1399L1450 0L0 0z"/>
<path class = "AomoriD" onclick = "Mutsu()" id = "Mutsu" style = "fill:#ffffff; stroke:none;" d="M834 216C825.964 224.644 815.583 228.737 808.015 239C802.417 246.591 801.169 259.008 795.287 265.416C787.288 274.13 771.739 279.668 768 291C778.49 297.13 790.207 308.73 774.999 318.397C770.301 321.383 765.099 318.709 761.613 324.059C755.417 333.568 764.232 343.336 758.411 351.985C754.904 357.196 748.671 359.421 744.004 363.329C736.613 369.517 729.866 377.606 723.495 384.614C719.266 389.266 715.665 391.034 715.093 398C714.185 409.072 718.318 419.662 717.985 431C717.82 436.591 714.398 441.524 716.815 446.985C719.786 453.697 729.811 465.256 737 458L738 458C741.268 461.903 746.77 464.77 751.787 461.821C757.354 458.549 758.629 450.902 762.563 446.39C765.535 442.982 770.299 442.393 773.957 440.077C782.268 434.817 788.582 427.461 799 424.985C804.75 423.619 809.159 428.58 815 426.891C822.189 424.812 825.884 416.828 833.001 415.789C839.926 414.778 847.695 419.063 854.826 416.103C865.298 411.756 865.624 394.116 880 393.223C885.638 392.873 899.113 393.277 904 395.688C912.617 399.94 926.012 413.106 936.982 408.788C944.09 405.989 947.628 393.44 954.039 388.637C958.976 384.94 966.247 379.998 972 377.875C976.781 376.111 982.656 377.144 986.714 373.682C993.21 368.142 996.649 357.707 1006 357C1010.89 347.534 1019.41 341.369 1017 329L1016 329C1014.51 336.876 1009.03 349.303 1000 350L1012.66 324L1019.21 310.966L1038 305L1034 311C1048.04 315.044 1057.98 327.952 1066.58 339C1087.89 366.402 1109.84 403.978 1107 440L1120 435.027L1143 437C1138.44 420.785 1149.63 407.367 1152.77 392C1156.53 373.622 1150.37 358.059 1141 342L1133 347C1130.74 340.862 1125.59 342.203 1120 341.961C1108.55 341.464 1095.33 351.446 1086.77 338.621C1083.76 334.11 1087.93 326.053 1087.74 321C1087.56 316.466 1085.92 312.629 1086.59 308C1087.49 301.834 1091.24 295.314 1089.68 289C1088.48 284.127 1083.63 280.206 1081 276C1060.08 281.789 1072.64 263.938 1082 257C1075.03 247.803 1089.67 238.75 1083.44 228.213C1081.1 224.254 1075.77 222.781 1072 220.548C1064.37 216.033 1057.09 210.951 1050 205.625C1032.33 192.343 1023.14 170.861 1008.05 155.564C1005.97 153.462 1002.78 153.437 1000.63 151.436C996.218 147.329 990.814 133.026 984.895 131.993C981.628 131.423 977.255 134.115 974 134.738C964.291 136.598 948.303 136.608 940.278 142.843C936.805 145.542 936.905 150.468 934.298 153.787C929.435 159.978 916.719 164.819 909.17 166.373C899.487 168.366 900.621 151.528 893.787 148.938C890.236 147.591 887.77 150.576 884.424 150.653C880.112 150.752 877.573 146.26 873.213 149.616C869.757 152.276 869.305 157.716 865.61 159.958C862.424 161.891 858.662 159.179 855.39 160.618C849.494 163.213 851.908 172.241 849.991 177C848.519 180.654 845.165 183.247 843.935 187C842.651 190.919 844.231 194.241 841.782 197.996C839.108 202.098 834.532 204.35 831.863 208.299C829.557 211.71 830.942 214.105 834 216z"/>
<path class = "AomoriD" onclick = "Mutsu()" id = "Mutsu" style = "fill:#010101; stroke:none;" d="M969 263L963 265C958.846 258.782 952.009 265.78 956.264 271.941C963.471 282.379 972.566 272.785 969 263z"/>
</svg>
