<?xml version="1.0" standalone="yes"?>
<svg xmlns="http://www.w3.org/2000/svg" width="1450" height="1399">
<path class = "AomoriD" onclick = "Ajigawasa()" id = "Ajigawasa" style = "fill:#010101; stroke:none;" d="M0 0L0 1399L1450 1399L1450 0L0 0z"/>
<path class = "AomoriD" onclick = "Ajigawasa()" id = "Ajigawasa" style = "fill:#ffffff; stroke:none;" d="M242 844C251.025 845.328 260.553 852.429 259.439 863C258.802 869.044 253.166 873.199 250.133 878C248.03 881.33 247.782 885.49 245.697 888.721C243.375 892.32 238.278 891.921 235.564 895.228C231.497 900.183 233.909 907.654 230.411 913C225.975 919.781 215.96 924.741 213.032 932.09C210.307 938.933 211.892 946.918 210.786 954C210.147 958.096 207.13 961.073 206.203 965C204.942 970.339 204.593 983.387 205.488 988.961C206.02 992.277 209.351 993.896 210.228 997.039C212.767 1006.15 211.981 1022.45 211.741 1032C211.518 1040.88 207.384 1046.09 205.147 1054C204.285 1057.05 206.361 1059.94 205.357 1063C204.14 1066.71 200.667 1069.2 199.513 1073C196.756 1082.09 192.006 1093.85 190.43 1103C189.682 1107.34 192.204 1111.73 190.691 1116C189.021 1120.71 184.953 1124.36 183 1129C190.404 1131.63 200.275 1131.33 205.347 1138.09C209.672 1143.86 208.013 1154.77 215.213 1158.49C223.65 1162.84 235.836 1157.85 245 1159C248.395 1150.67 250.77 1130.55 245.686 1122.38C243.025 1118.1 237.411 1116.39 234.603 1112C232.078 1108.05 233.252 1103.12 230.751 1099C228.914 1095.97 223.779 1091.45 224.439 1087.59C225.391 1082.03 233.538 1081.38 235.882 1076.7C239.069 1070.33 232.98 1062.75 239.279 1056.34C245.013 1050.51 253.529 1052.9 256.74 1044C261.67 1030.33 246.331 1021.86 253.514 1008.22C259.838 996.222 278.986 1007.18 279 989C281.854 988.637 287.01 988.694 288.972 986.258C293.562 980.561 289.536 974.493 299 972C293.457 957.859 309.318 952.479 319 947C327.54 942.167 336.026 944.184 344.826 939.366C349.955 936.558 353.882 930.125 358 926C367.089 916.897 380.275 909.151 385 897C372.728 894.688 367.088 893.869 357 902C355.204 893.3 350.151 883 351.48 874C352.528 866.904 357.801 864.228 362.251 859.61C369.748 851.83 376.45 843.714 384 836C379.772 832.813 375.813 828.583 371 826.299C365.632 823.752 360.577 823.519 356.228 818.826C350.211 812.334 348.218 799.863 338.815 796.148C319.445 788.496 319.746 806.917 305 812.87C295.531 816.694 289.971 809.049 281.001 810.677C275.832 811.615 274.411 816.115 270.726 819.039C260.944 826.8 247.625 831.938 242 844z"/>
</svg>
