<?xml version="1.0" standalone="yes"?>
<svg xmlns="http://www.w3.org/2000/svg" width="1450" height="1399">
<path class = "AomoriD" onclick = "Goshogawara-North()" id = "Goshogawara-North" style = "fill:#010101; stroke:none;" d="M0 0L0 1399L1450 1399L1450 0L0 0z"/>
<path class = "AomoriD" onclick = "Goshogawara-North()" id = "Goshogawara-North" style = "fill:#ffffff; stroke:none;" d="M366 486C368.696 491.698 374.8 495.493 376.968 501.043C382.96 516.392 379.685 537.038 379 553L390.093 541.921L398.599 550.971L418 555L419 555L447.725 546.062L453.699 536.09L467.379 520.21L476.667 511.79L475.009 493.015L487 477C473.31 471.161 455.666 472.256 441.043 469.853C432.435 468.439 430.251 462.44 420 466.017C411.018 469.151 407.467 480.946 399.956 483.137C388.389 486.511 377.457 481.678 366 486M376 592L391 584C389.137 577.384 387.449 570.695 385.887 564.001C385.43 562.04 385.309 557.566 382.742 557.06C378.906 556.305 378.891 562.728 378.576 565C377.351 573.859 376.383 583.07 376 592M407 595C410.602 592.455 409.341 588.664 411.179 585C414.802 577.78 426.306 567.279 434 573L435 573C439.515 570.266 442.313 572.65 447 574L447 570C440.128 568.02 434.322 561.866 427 562.059C417.998 562.296 417.574 567.637 414.012 573.985C409.044 582.838 405.588 583.817 407 595z"/>
</svg>
