<?xml version="1.0" standalone="yes"?>
<svg xmlns="http://www.w3.org/2000/svg" width="1450" height="1399">
<path class = "AomoriD" onclick = "Owani()" id = "Owani" style = "fill:#010101; stroke:none;" d="M0 0L0 1399L1450 1399L1450 0L0 0z"/>
<path class = "AomoriD" onclick = "Owani()" id = "Owani" style = "fill:#ffffff; stroke:none;" d="M556 1046L556 1058L544 1052C540.326 1058.97 539.149 1067.82 531.996 1072.4C525.924 1076.28 515.999 1073.62 509 1076.1C500.373 1079.17 503.772 1084.44 498.682 1089.7C495.492 1092.99 490.83 1091.84 487.303 1094.18C479.86 1099.1 485.526 1109.85 487 1116L465 1119C465 1128.78 466.516 1137.22 471 1146C479.48 1144.24 488.57 1141.01 496.957 1145.46C505.39 1149.93 509.491 1160.61 519 1165.31C524.649 1168.11 530.984 1165.93 537 1167C535.973 1171.98 532.639 1179 535.322 1183.86C538.117 1188.91 552.098 1198.34 557.996 1198.91C568.513 1199.92 562.985 1187.16 560.113 1183C558.565 1180.77 556.997 1178.82 555 1177L555 1176C558.583 1173.52 561.653 1170.39 566 1169.3C570.394 1168.21 577.889 1169.43 581.366 1166.4C595.458 1154.12 594.736 1121.33 578 1113L581.62 1108.96C591.726 1097.68 590.594 1114.18 599 1116L607 1100C612.061 1100.01 617.195 1102.62 622 1102.26C635.05 1101.28 655.631 1085.89 646.518 1072.1C640.735 1063.36 628.345 1067.56 624 1058L598 1059.08L586 1053.52L572 1053.92L556 1046z"/>
</svg>
