<?xml version="1.0" standalone="yes"?>
<svg xmlns="http://www.w3.org/2000/svg" width="1450" height="1399">
<path class = "AomoriD" onclick = "NakadomariNorth()" id = "NakadomariNorth" style = "fill:#010101; stroke:none;" d="M0 0L0 1399L1450 1399L1450 0L0 0z"/>
<path class = "AomoriD" onclick = "NakadomariNorth()" id = "NakadomariNorth" style = "fill:#ffffff; stroke:none;" d="M375 446L370 445C372.373 467.586 350.279 451.922 338 453.173C331.061 453.88 318.608 455.018 321.654 465.826C324.232 474.972 338.851 468.756 345 469.803C351.704 470.945 360.523 479.462 364 485C368.631 484.376 373.314 482.356 378 482.463C385.599 482.636 393.355 485.152 400.867 481.968C404.548 480.407 404.704 476.218 407.419 473.684C414.019 467.522 421.554 465.081 430 463C425.614 454.193 413.909 445.754 412.192 436C411.501 432.072 413.855 427.818 414.535 424C415.383 419.247 413.695 414.696 414.34 410C415.087 404.554 418.678 398.216 418.718 393C418.775 385.373 414.479 378.524 411.303 372C409.284 367.851 410.582 363.347 409.606 359C408.726 355.077 406.122 351.761 404.756 348C403.474 344.472 402.041 339.474 397.13 341.091C390.525 343.266 385.079 359.551 385.079 366C385.078 375.073 384.826 385.939 386.143 394.911C386.616 398.129 388.975 400.634 388.809 404.004C388.629 407.634 386.045 410.519 385.263 414C382.544 426.109 380.563 434.767 375 446z"/>
</svg>
