<?xml version="1.0" standalone="yes"?>
<svg xmlns="http://www.w3.org/2000/svg" width="1450" height="1399">
<path class = "AomoriD" onclick = "Takko()" id = "Takko" style = "fill:#010101; stroke:none;" d="M0 0L0 1399L1450 1399L1450 0L0 0z"/>
<path class = "AomoriD" onclick = "Takko()" id = "Takko" style = "fill:#ffffff; stroke:none;" d="M887 1201C884.284 1209.04 888.092 1213.3 889.532 1221C890.71 1227.29 889.518 1235.67 888.571 1242C887.94 1246.22 885.677 1254.55 879.985 1254.12C875.597 1253.79 871.192 1248.63 867 1247C866.128 1252.34 870.911 1255.91 869.845 1261C868.165 1269.02 864.611 1281.62 860.9 1289C858.629 1293.51 853.415 1297.56 853.543 1303C853.688 1309.16 861.265 1310.21 861.471 1316.02C861.714 1322.86 855.471 1328.21 855.29 1335C855.03 1344.76 865.093 1352.47 869.648 1360C872.407 1364.56 874.393 1370.89 879.3 1373.68C882.529 1375.52 886.472 1374.76 890 1375.18C898.945 1376.26 906.228 1379.06 914.83 1373.86C918.593 1371.59 921.161 1367.77 925 1365.48C929.794 1362.62 936.294 1362.41 940.363 1358.36C945.231 1353.52 946.423 1346.05 952.093 1341.64C957.657 1337.31 973.611 1338.48 976.503 1333.68C979.299 1329.04 974.496 1320.6 973 1316C983.497 1311.03 991.861 1303.57 1000.68 1296.69C1004.17 1293.97 1009.75 1296.15 1013.77 1293.03C1016.72 1290.74 1017.13 1286.95 1019.43 1284.17C1028.18 1273.59 1035.32 1259.58 1034.71 1245.02C1034.34 1236.4 1022.32 1238.85 1022 1229L977 1221.48L937 1219.68L923 1210.6L906 1210.49L887 1201z"/>
</svg>
