<?xml version="1.0" standalone="yes"?>
<svg xmlns="http://www.w3.org/2000/svg" width="1450" height="1399">
<path class = "AomoriD" onclick = "Itayanagi()" id = "Itayanagi" style = "fill:#010101; stroke:none;" d="M0 0L0 1399L1450 1399L1450 0L0 0z"/>
<path class = "AomoriD" onclick = "Itayanagi()" id = "Itayanagi" style = "fill:#ffffff; stroke:none;" d="M513 855C511.014 852.852 509.147 850.313 506.829 848.512C492.777 837.592 490.199 857.563 489 867C482.012 864.453 477.387 865.291 471 869C470.084 864.838 469.125 862.512 465 861L466 870L456 874L472.363 892L480.086 908.61L487.803 915.213L492 929C498.94 926.449 497.526 918.176 499 912L506 915L508.742 898.043L516 885L520 885C521.304 894.676 529.065 904.276 538 908L539 905C531.605 900.579 535.113 895.319 533.918 888C531.614 873.888 526.972 860.87 524.192 847C523.684 844.465 517.644 830.197 513.392 837.618C511.971 840.098 514.81 843.597 515.308 846C515.99 849.288 514.286 852.095 513 855z"/>
</svg>
