<?xml version="1.0" standalone="yes"?>
<svg xmlns="http://www.w3.org/2000/svg" width="1450" height="1399">
<path class = "AomoriD" onclick = "Fujisaki()" id = "Fujisaki" style = "fill:#010101; stroke:none;" d="M0 0L0 1399L1450 1399L1450 0L0 0z"/>
<path class = "AomoriD" onclick = "Fujisaki()" id = "Fujisaki" style = "fill:#ffffff; stroke:none;" d="M532 875C533.814 883.795 532.033 901.082 540 905L538 909L521.85 893.791L517 886L509.742 897.213L506 917L499 913C498.942 920.025 499.032 926.803 492 930L487 924C486.896 926.457 486.086 929.521 486.772 931.911C488.145 936.685 496.503 956.536 502 949C504.921 950.537 507.769 953.983 511.09 954.394C521.502 955.68 532.799 939.931 537 932C555.101 942.189 570.038 925.118 574 908C565.18 903.842 562.701 912.649 561 920C557.223 917.003 550.123 913.562 548.328 908.91C546.762 904.851 549.586 899.484 548.852 895.093C547.894 889.369 537.275 877.376 532 875z"/>
</svg>
