<?xml version="1.0" standalone="yes"?>
<svg xmlns="http://www.w3.org/2000/svg" width="1450" height="1399">
<path class = "AomoriD" onclick = "Shingo()" id = "Shingo" style = "fill:#010101; stroke:none;" d="M0 0L0 1399L1450 1399L1450 0L0 0z"/>
<path class = "AomoriD" onclick = "Shingo()" id = "Shingo" style = "fill:#ffffff; stroke:none;" d="M885 1196C894.057 1190.79 899.904 1186.11 911 1187.17C916.581 1187.7 923.989 1192.66 929 1191.81C937.147 1190.42 945.548 1182.13 953.996 1182.7C960.643 1183.14 961.353 1192.13 968.003 1192.22C974.573 1192.29 976.29 1184.99 981.093 1182.14C987.501 1178.34 998.651 1176.6 1006 1175.48C1014.6 1174.17 1022.66 1178.45 1031 1178.86C1036.97 1179.15 1043.02 1176.96 1049 1177.27C1053.12 1177.49 1056.8 1179.94 1061 1179.39C1066.47 1178.67 1071.5 1175.81 1077 1175C1075.51 1171.78 1072.07 1168.68 1072 1165C1071.91 1160.45 1075.91 1157.24 1076.61 1153C1077.67 1146.57 1068.18 1136.34 1062 1135.76C1055.57 1135.15 1049.89 1139.72 1043 1139C1046.99 1124.84 1039.62 1116.18 1030 1106C1034.64 1104.62 1037.39 1102.64 1039 1098C1028.37 1100.06 1020.41 1098.15 1010 1098.5C1006.01 1098.63 1002.98 1101.86 999 1101.82C993.639 1101.77 988.369 1096.94 983 1097.92C969.114 1100.47 960.411 1108.22 948 1114.1C935.521 1120.02 920.306 1118.47 909.289 1128.39C901.058 1135.81 900.153 1144.91 895.2 1154C892.168 1159.56 886.973 1163.53 883.843 1169C878.99 1177.48 881.851 1187.55 885 1196z"/>
</svg>
