<?xml version="1.0" standalone="yes"?>
<svg xmlns="http://www.w3.org/2000/svg" width="1450" height="1399">
<path class = "AomoriD" onclick = "Yomogita()" id = "Yomogita" style = "fill:#010101; stroke:none;" d="M0 0L0 1399L1450 1399L1450 0L0 0z"/>
<path class = "AomoriD" onclick = "Yomogita()" id = "Yomogita" style = "fill:#ffffff; stroke:none;" d="M552 622L572 628.262L588.956 630.248L599.044 642.214L609 640.944L637 644L628 563C619.177 564.93 615.337 557.86 607 558.023C600.062 558.159 593.157 561.763 586 562.367C577.982 563.044 567.552 561.594 560 563.904C555.417 565.306 552.885 569.05 548.791 570.701C540.61 574.002 525.456 563.785 526.099 579.957C526.244 583.612 529.189 584.966 530.401 588.104C533.222 595.402 534.058 600.271 540.39 606.239C546.667 612.157 552.659 612.186 552 622z"/>
</svg>
