<?xml version="1.0" standalone="yes"?>
<svg xmlns="http://www.w3.org/2000/svg" width="1450" height="1399">
<path class = "AomoriD" onclick = "Aomori()" id = "Aomori" style = "fill:#010101; stroke:none;" d="M0 0L0 1399L1450 1399L1450 0L0 0z"/>
<path class = "AomoriD" onclick = "Aomori()" id = "Aomori" style = "fill:#ffffff; stroke:none;" d="M556 623C554.498 631.499 561.821 645.504 568.394 651.034C571.582 653.717 579.133 654.874 580.508 659.213C581.341 661.842 578.853 664.416 578.602 667C577.54 677.928 574.573 686.142 572 697C580.949 703.439 581.1 708.696 582.579 719C583.589 726.03 585.15 733.931 583.61 741C582.442 746.36 578.139 749.992 576.259 755C572.982 763.729 571.477 775.765 571.509 785C571.543 794.756 571.028 805.321 571.383 815C571.611 821.186 575.336 825.759 571.697 831.941C569.134 836.295 564.992 835.064 561.303 837.457C558.166 839.492 558.078 844.064 555.697 846.829C550.067 853.368 536.711 854.791 536 864C531.878 864.899 529.587 868.276 531.603 872.61C534.998 879.907 544.882 885.9 548.973 893.184C551.703 898.045 548.044 902.993 548.618 907.91C549.205 912.935 556.791 916.604 561 918C561.924 914.145 564.048 906.741 568.616 905.726C571.309 905.128 574.044 907.566 577 907.132C589.258 905.333 593.657 904.202 606 907.637C609.068 908.49 613.95 906.913 616.436 908.846C618.754 910.649 618.95 914.617 620.564 917C624.525 922.848 634.169 934.138 641 936.357C654.985 940.901 673.382 932.438 687 930.966C692.088 930.416 696.707 934.183 702 933.816C706.176 933.526 712.005 930.739 715.999 931.661C721.022 932.821 724.025 939.435 728.015 942.363C734.014 946.764 743.446 946.128 748.471 951.279C759.076 962.148 763.218 976.929 777 985.4C782.406 988.722 798.801 985.201 802.86 980.401C806.052 976.626 807.384 966.842 808.053 962C808.767 956.834 804.545 954.327 802.657 950C800.759 945.652 802.097 941.392 803 937C810.12 941.155 815.463 940.529 823 942.314C832.027 944.452 850.766 958.433 859.741 947.486C871.106 933.623 865.891 912.142 881 900L881 899C871.64 892.603 866.678 882.257 857 876.26C852.666 873.575 848.672 874.941 844.105 873.682C841.07 872.845 840.098 869.894 837.61 868.302C830.571 863.8 823.398 865.681 821.995 855C821.623 852.162 822.778 849.557 823.851 847C825.179 843.833 826.329 839.988 828.649 837.39C835.594 829.615 845.92 834.359 854 829.895C863.608 824.587 862.02 819.847 867.514 812C870.483 807.759 875.061 804.877 877.146 800C877.955 798.107 878.413 796.002 878.866 794C881.937 780.421 866.543 783.4 862.603 773.895C860.537 768.911 861.069 764.703 857.239 760.185C854.248 756.656 849.405 755.274 846.6 751.671C844.009 748.344 844.908 743.613 842.411 740.17C835.754 730.988 825.078 722.932 817.148 714.714C812.835 710.244 813.234 703.519 809.981 698.595C806.13 692.765 792.597 690.676 786 690C787.186 699.386 784.468 712.525 777.442 719.682C772.226 724.995 766.446 724.832 765 734C757.92 734.565 754.294 745.994 748.996 750.714C743.85 755.299 737.079 761.811 730 763.065C725.388 763.882 720.722 761.914 716 762.594C711.173 763.289 703.862 766.463 699.129 765.089C691.445 762.857 684.538 755.665 678.7 750.61C664.396 738.223 652.635 723.668 649.326 704C646.798 688.981 644.634 675.575 640.13 661C638.84 656.827 639.597 650.083 636.825 646.6C634.118 643.198 627.676 644.519 624 644.542C618.836 644.573 614.101 641.85 609 641.597C606.074 641.453 603.368 643.917 600.576 643.351C593.949 642.007 593.374 633.151 587.956 630.059C582.79 627.111 578.353 630.013 573 629.065C567.046 628.01 562.273 623.849 556 623z"/>
</svg>
