<?xml version="1.0" standalone="yes"?>
<svg xmlns="http://www.w3.org/2000/svg" width="1450" height="1399">
<path class = "AomoriD" onclick = "Rokkasho()" id = "Rokkasho" style = "fill:#010101; stroke:none;" d="M0 0L0 1399L1450 1399L1450 0L0 0z"/>
<path class = "AomoriD" onclick = "Rokkasho()" id = "Rokkasho" style = "fill:#ffffff; stroke:none;" d="M1162 485L1167 498C1152.82 502.339 1163.77 520.249 1158.93 529.906C1156.13 535.509 1149.5 532.738 1146.13 537.152C1139.24 546.2 1142.92 557.525 1138.35 566.961C1136.17 571.466 1131.83 572.769 1128.28 575.8C1125.44 578.224 1125.31 581.968 1123.27 584.911C1118.88 591.26 1113.1 592.434 1113 601C1098.54 599.909 1096.77 618.273 1091.71 628.816C1087.85 636.855 1077.96 642.481 1074.42 651C1067.98 666.496 1087.06 669.05 1097 667C1096.94 674.571 1093.54 681.391 1094.09 689C1094.84 699.411 1098.92 709.422 1098.92 720C1098.92 727.891 1096.27 740.374 1101.01 747.482C1106.17 755.212 1120.75 759.615 1129 763C1132.62 755.253 1134.5 747.881 1142 743C1138.43 736.368 1134.22 737.977 1128 740L1129 734L1133 735L1132 731C1136.69 733.721 1139.77 734.784 1145 733C1145 736.748 1143.76 743.287 1146.03 746.487C1150.78 753.189 1171.49 751.988 1179 753C1183.97 740.797 1177.49 729.746 1180.59 718.001C1182.51 710.709 1190.55 710.287 1193.97 704.726C1195.84 701.695 1194.86 697.29 1194.42 694C1193.47 686.733 1196.19 673.085 1189.77 667.966C1178.06 658.625 1166.63 664.67 1154 664.176C1147.78 663.932 1147.04 659.034 1141.9 657.499C1133.89 655.109 1126.35 657.051 1118 654C1127.24 643.049 1137.18 650.225 1148 653.115C1154.07 654.737 1159.23 651.247 1164.41 652.4C1167.36 653.057 1168.82 656.156 1171.38 657.49C1176.9 660.373 1185.85 662.54 1192 664L1190 632C1185.56 633.988 1180.97 635.583 1177.18 638.761C1175.01 640.587 1172.99 644.555 1169.91 644.824C1163.43 645.389 1149.59 628.853 1151 623C1160.08 628.695 1179.12 638.587 1187.49 626.532C1189.87 623.101 1189 617.957 1189 614C1189 604.614 1190 595.381 1190 586C1190 557.892 1190.16 525.688 1200.42 499.625C1202.49 494.362 1198.05 489.924 1197.22 485C1196.12 478.446 1197.44 472.25 1199.08 466.001C1199.61 464.019 1200.17 460.398 1197.57 459.497C1194.73 458.515 1191.81 462.302 1190 463.901C1184.36 468.895 1181.56 476.206 1175.96 480.682C1172.15 483.718 1166.47 483.324 1162 485z"/>
<path class = "AomoriD" onclick = "Rokkasho()" id = "Rokkasho" style = "fill:#010101; stroke:none;" d="M1176 681C1173.41 682.441 1170.81 683.322 1168 684.269C1166.39 684.812 1164.62 685.151 1163.06 685.815C1158.73 687.656 1158.2 692.602 1163.06 694.042C1169.46 695.94 1179.94 687.418 1176 681M1158 718L1158 713C1154.47 713.576 1149.55 717.581 1153.61 721.308C1155.64 723.175 1161.41 722.853 1164 722.586C1168.03 722.169 1180.28 713.72 1170.89 712.507C1166.57 711.947 1162.18 716.903 1158 718z"/>
</svg>
