<?xml version="1.0" standalone="yes"?>
<svg xmlns="http://www.w3.org/2000/svg" width="1450" height="1399">
<path class = "AomoriD" onclick = "NakadomariSouth()" id = "NakadomariSouth" style = "fill:#010101; stroke:none;" d="M0 0L0 1399L1450 1399L1450 0L0 0z"/>
<path class = "AomoriD" onclick = "NakadomariSouth()" id = "NakadomariSouth" style = "fill:#ffffff; stroke:none;" d="M481 487C469.168 495.384 481.827 503.926 476.957 512.79C475.183 516.018 470.977 517.192 468.379 519.61C463.846 523.827 458.542 530.409 454.699 535.3C451.688 539.132 451.607 544.945 446.892 547.348C438.924 551.408 429.329 549.607 421 553L421 554C436.606 551.716 453.879 558.688 446 577C443.358 572.816 439.126 570.438 435 574L434 574C427.538 567.442 419.064 576.168 414 581L414 582C419.674 589.04 429.355 601.645 429.848 611C430.619 625.617 410.11 646.628 434 655L435 649C439.671 653.026 443.785 655.488 450 656C447.883 665.764 453.142 671.479 462 674C463.992 658.669 474.568 661.773 485.999 657.756C494.086 654.915 501.735 650.226 509.104 646.309C513.154 644.157 516.675 644.472 519.096 639.956C525.002 628.94 525.381 616.014 527.213 604C527.957 599.118 530.384 595.184 529.941 590.043C529.585 585.92 525.541 584.051 525.242 579.985C524.591 571.154 528.069 566.381 523.44 557.326C520.879 552.317 514.18 551.226 511.65 545.96C509.345 541.163 511.568 537.738 511.096 533C510.64 528.425 507.427 522.868 505.073 519C500.311 511.174 491.998 510.275 486.649 503.787C482.672 498.964 482.54 492.63 481 487z"/>
</svg>
