<?xml version="1.0" standalone="yes"?>
<svg xmlns="http://www.w3.org/2000/svg" width="1450" height="1399">
<path class = "AomoriD" onclick = "SotogahamaSouth()" id = "SotogahamaSouth" style = "fill:#010101; stroke:none;" d="M0 0L0 1399L1450 1399L1450 0L0 0z"/>
<path class = "AomoriD" onclick = "SotogahamaSouth()" id = "SotogahamaSouth" style = "fill:#ffffff; stroke:none;" d="M587 374L591 408C582.381 408.007 574.496 413.127 575.12 423C575.42 427.747 578.802 432.192 575.897 436.787C574.251 439.39 571.124 440.457 569.652 443.213C562.75 456.131 560.118 476.838 547.621 486.392C543.133 489.823 537.981 483.867 533 484.309C527.637 484.784 523.182 488.429 518 488.894C513.38 489.31 510.942 485.611 507 484.186C503.267 482.836 499.734 485.663 496.015 484.933C492.411 484.225 489.807 480.144 487 478C485.516 481.569 483.239 485.156 482.573 489C479.838 504.767 499.443 509.085 506.073 520C511.526 528.976 508.752 536.107 511.904 544.96C513.839 550.393 518.982 551.652 522.683 555.518C525.866 558.842 525.102 564.257 528.638 567.397C532.492 570.819 544.782 570.337 550 571C557.207 557.829 582.989 562.134 596 560.476C600.642 559.884 604.033 556.474 609 557.153C616.857 558.227 619.242 565.005 628 562C618.772 529.24 613.613 494.637 615.875 461C616.845 446.573 626.425 429.609 623.351 415C620.249 400.259 609.949 399.727 601.637 389.79C595.717 382.713 596.878 376.819 587 374z"/>
</svg>
