<?xml version="1.0" standalone="yes"?>
<svg xmlns="http://www.w3.org/2000/svg" width="945" height="1450">
<path style="fill:#010101; stroke:none;" d="M0 0L0 1450L945 1450L945 0L0 0z"/>
<path style="fill:#ffffff; stroke:none;" d="M500 1026L483 1036C484.281 1042.8 486.461 1050.5 482.86 1056.99C481.182 1060.01 477.923 1061.88 476.599 1065.09C469.833 1081.49 463.497 1090.22 450 1102L450 1103C454.337 1107.72 457.89 1116.58 464.015 1118.98C467.555 1120.36 471.509 1117.82 474.762 1119.33C479.982 1121.75 473.804 1132.95 483.84 1128.78C484.915 1128.33 486.019 1127.57 487 1127C489.987 1135.76 499.498 1137.14 507 1133C508.636 1135.55 510.438 1136.27 512.788 1138.07C515.206 1139.92 516.037 1144.14 519.144 1144.96C528.157 1147.33 535.097 1128.47 541.004 1124.41C544.697 1121.86 548.015 1123.98 552 1123.41C557.103 1122.68 561.677 1119.69 567 1119C565.141 1115.54 560.81 1114.85 559.133 1111.61C556.794 1107.08 564.097 1094.33 567.108 1091C572.109 1085.48 590.13 1079.32 586.306 1069.3C584.728 1065.17 575.587 1065.55 572.133 1063.03C567.803 1059.87 565.871 1054.01 561.91 1050.29C551.406 1040.43 543.315 1042 544 1026C547.233 1026 550.83 1026.42 553.999 1025.7C570.212 1022 556.997 999.178 556.016 990C555.646 986.532 558.668 984.274 558.684 981C558.705 976.831 553.896 973.798 552.589 970C550.769 964.713 552.251 958.518 550.7 953C548.816 946.299 544.636 935.999 536.108 941.894C530.568 945.723 528.996 954.953 527.116 961C525.21 967.13 521.079 971.282 518.7 977.015C516.753 981.707 517.008 987.789 514.4 992C507.037 1003.89 501.793 1011.81 500 1026z"/>
</svg>
