<?xml version="1.0" standalone="yes"?>
<svg xmlns="http://www.w3.org/2000/svg" width="945" height="1450">
<path style="fill:#010101; stroke:none;" d="M0 0L0 1450L945 1450L945 0L0 0z"/>
<path style="fill:#ffffff; stroke:none;" d="M651 509L663 511.269L678 509L675 517L699 529C699 539.357 698.447 553.803 703.399 562.996C706.033 567.886 711.297 570.061 713.647 575.018C718.305 584.843 722.58 596.596 731 604L732 598L744 598C744.513 604.5 746.36 611.491 745.812 618C745.039 627.172 738.991 631.903 744.352 641C749.343 649.471 759.352 649.094 764.142 657.005C767.616 662.741 762.502 672.335 768.149 676.381C773.35 680.108 780.275 672.979 786 673.329C805.693 674.53 809.511 685.956 817 702C829.761 699.367 831.842 704.855 843 708.171C846.331 709.161 849.691 707.112 852.985 708.492C858.283 710.71 859.116 717.386 864.043 719.971C873.447 724.906 883.261 710.081 886 703C876.353 698.614 881.047 685.188 874.891 677.213C868.764 669.274 855.277 670.71 849.643 661.907C844.596 654.021 852.594 642.595 849.243 635.303C846.976 630.37 839.409 632.406 839.542 624.999C839.769 612.436 854.981 600.559 853.28 587C850.37 563.805 830.234 547.076 826.468 524C823.8 507.653 839.334 490.26 826.892 474.213C820.437 465.888 811.693 469.435 804.04 465.782C800.676 464.175 798.967 459.345 794.907 459.292C788.983 459.215 786.483 465.158 780.004 462.772C775.135 460.979 769.095 454.918 767.344 449.982C765.999 446.189 766.124 437.012 759.971 437.881C752.956 438.872 743.351 448.339 737 451.892C729.777 455.933 720.735 453.107 713 456.349C705.208 459.614 701.624 468.268 694 471.266C689.684 472.964 685.398 469.852 681 470.481C674.473 471.413 668.879 475.173 662 475.83C657.526 476.258 650.797 474.992 648.604 480.189C644.791 489.228 655.455 498.487 651 509z"/>
</svg>
