<?xml version="1.0" standalone="yes"?>
<svg xmlns="http://www.w3.org/2000/svg" width="945" height="1450">
<path style="fill:#010101; stroke:none;" d="M0 0L0 1450L945 1450L945 0L0 0z"/>
<path style="fill:#ffffff; stroke:none;" d="M164 952L164.834 964L162 978C155.348 978.923 151.324 983.905 151.588 991C151.829 997.463 155.698 1002.98 157.212 1009C159.096 1016.49 155.821 1026.21 156.015 1034C156.119 1038.18 158.392 1042.93 157.731 1047C157.102 1050.87 153.273 1053.71 151.363 1057C146.255 1065.79 142.73 1074.94 144 1085C165.593 1086.7 159.063 1106.11 147.535 1117.78C142.935 1122.43 133.694 1121.72 130.89 1128.1C126.267 1138.63 131.4 1150.92 127.397 1160.91C125.632 1165.31 120.14 1166.37 118.728 1171.09C114.771 1184.34 120.928 1199.04 118.586 1213C117.777 1217.83 117.522 1223.67 115.062 1228C112.432 1232.63 107.744 1235.52 106.548 1241C105.442 1246.07 108.088 1250.3 109.367 1255C110.53 1259.28 109.494 1263.76 110.966 1268C114.356 1277.75 121.328 1281.66 127.61 1289.09C134.047 1296.7 141.138 1310.7 152.09 1313.07C160.154 1314.82 168.142 1305.57 176 1305C177.289 1313.6 180.991 1322.97 189 1327C191.707 1322.71 195.766 1319.44 198.176 1314.99C200.274 1311.11 201.042 1305.73 204.418 1302.7C209.255 1298.35 216.704 1297.03 221.363 1292.36C224.216 1289.5 225.102 1285.35 228.209 1282.63C231.58 1279.69 235.904 1275.62 240.004 1273.85C243.481 1272.36 248.719 1272.5 250.782 1268.77C253.387 1264.06 248.694 1258.13 250.604 1253.01C253.662 1244.82 265.519 1245.8 264 1236L277.502 1231.99L291 1204C283.058 1200.47 280.619 1187.39 289.214 1182.31C298.623 1176.75 310.561 1183.9 319.61 1175.5C324.131 1171.3 323.267 1165 326.14 1160.04C328.756 1155.53 334.365 1154.88 336.517 1149.96C340.773 1140.21 337.935 1123.82 334.308 1114.39C333.239 1111.61 329.766 1110.76 328.603 1107.9C326.818 1103.5 328.912 1098.44 326.86 1094C323.201 1086.09 313.641 1085.32 311.649 1076C309.742 1067.08 317.913 1062.75 319.316 1055C320.915 1046.18 314.048 1038.14 312.826 1030C312.027 1024.69 317.454 1021.14 317.381 1016C317.295 1009.97 310.068 1006.36 308.029 1001C304.299 991.2 305.158 978.352 305.179 968C305.2 957.692 314.147 953.383 319.682 946C323.758 940.563 321.762 933.098 323.97 927C328.509 914.463 345.5 906.18 331.56 892.148C323.745 884.282 307.844 892.698 303.89 901.213C299.951 909.693 295.868 925.989 288.606 932.301C279.179 940.496 262.862 943.57 252.039 950.352C244.703 954.949 240.027 965.538 230.285 966.601C226.985 966.961 224.362 963.695 221 963.514C215.295 963.207 209.827 965.52 204 964.816C190.415 963.173 176.926 956.213 164 952z"/>
</svg>
