<?xml version="1.0" standalone="yes"?>
<svg xmlns="http://www.w3.org/2000/svg" width="945" height="1450">
<path style="fill:#010101; stroke:none;" d="M0 0L0 1450L945 1450L945 0L0 0z"/>
<path style="fill:#ffffff; stroke:none;" d="M663 760C661.59 765.454 664.081 772.594 662.056 777.17C655.633 791.676 637.723 803.8 646 821C657.584 817.882 655.963 828.276 664.105 832.347C675.041 837.815 689.147 840.309 701 843.13C706.983 844.555 719.198 849.258 721 841L728 845C734.194 844.148 741.409 840.969 745.012 835.536C747.762 831.387 747.218 826.881 752.019 823.908C757.192 820.705 765.134 823.682 771 822.787C777.312 821.824 782.573 817.656 789 816.59C792.378 816.03 802.027 815.969 803.168 811.755C803.549 810.349 789.242 802.881 786.7 801.07C774.108 792.1 764.387 781.241 753 770.896C748.816 767.095 744.327 759.721 738.911 757.782C731.018 754.957 722.474 763.59 715 764.324C706.058 765.202 697.672 762.546 689 761.62C685.466 761.242 682.493 763.41 679 763.323C673.719 763.193 668.163 761.065 663 760z"/>
</svg>
