<?xml version="1.0" standalone="yes"?>
<svg xmlns="http://www.w3.org/2000/svg" width="945" height="1450">
<path style="fill:#010101; stroke:none;" d="M0 0L0 1450L945 1450L945 0L0 0z"/>
<path style="fill:#ffffff; stroke:none;" d="M512 209C508.504 208.971 502.356 207.059 499.333 209.042C495.761 211.385 498.28 229.607 500.742 232.697C502.797 235.276 510.697 235.812 510.079 240.004C509.606 243.21 504.354 245.815 502.286 248.043C495.91 254.914 488.413 269.453 496.14 278.397C499.413 282.185 506.771 278.662 511 279.677C515.191 280.683 518.656 283.962 523 284.436C536.029 285.858 550.755 282.31 563.996 285.394C573.575 287.625 580.905 305.832 588.495 312.262C594.519 317.366 607.836 310.128 608 320L626 320L629 309L635 310C632.905 302.549 631.631 294.442 629.326 287.286C628.103 283.485 624.594 281.38 624.677 277C624.887 265.973 632.33 255.781 633.437 245C634 239.512 629.468 235.328 629.561 230C629.776 217.707 643.808 203.865 654 198.109C660.326 194.537 666.686 197.747 673 195.857C678.415 194.237 681.89 188.546 688 188.514C693.006 188.488 697.506 191.78 702 193.536C710.764 196.962 721.29 199.034 728.896 204.804C732.934 207.868 735.133 214.741 740.17 216.339C744.576 217.736 754.487 210.408 756.436 206.621C762.616 194.612 754.486 167.348 741.895 161.862C733.739 158.308 719.854 162.445 711 161.698C696.373 160.463 686.008 139.739 686 127C681.743 127.088 677.068 128.562 673 126.911C668.064 124.906 662.023 118.465 656.148 120.782C650.291 123.092 653.5 137.206 644.561 137.431C637.515 137.608 632.488 129.631 627.675 125.97C622.959 122.382 614.786 121.253 609 120.67C600.17 119.78 590.458 128.021 581 124.893C576.728 123.48 563.733 117.951 561.879 113.891C558.896 107.361 564.064 93.5344 553.995 91.8657C547.433 90.7782 538.743 95.6217 533 98.0702C520.652 103.335 513.329 106.944 503.896 116.985C501.344 119.702 496.135 121.996 494.607 125.39C492.819 129.363 495.993 134.052 496.442 138C496.94 142.383 495.378 147.672 494.56 151.996C493.702 156.535 488.414 158.877 488.337 163.05C488.138 173.901 505.052 167.071 510.362 173.228C516.47 180.31 512.706 200.056 512 209z"/>
</svg>
