<?xml version="1.0" standalone="yes"?>
<svg xmlns="http://www.w3.org/2000/svg" width="945" height="1450">
<path style="fill:#010101; stroke:none;" d="M0 0L0 1450L945 1450L945 0L0 0z"/>
<path style="fill:#ffffff; stroke:none;" d="M392 835L393 839C385.337 842.19 370.564 845.871 366.089 853.09C361.754 860.081 351.251 892.121 367 891.272C375.882 890.794 377.54 882.768 382.468 877.043C387.432 871.275 395.295 869.793 400.61 864.482C405.113 859.984 406.337 851.234 412.105 848.148C419.259 844.32 420.535 855.944 423 860C434.712 857.541 436.117 845.97 446 841.028C453.018 837.518 457.567 844.414 463.891 843.549C469.693 842.755 476.565 825.277 477 820C483.966 818.884 485.843 814.661 486 808L515 808L520 799C528.889 802.24 537.451 799.875 544 808L558 806L548.746 814.61L544 835C548.058 834.327 550.798 832.963 554 836C557.107 833.82 560.099 829.952 563.714 828.708C566.823 827.637 570.261 830.873 572.697 827.551C581.594 815.413 573.647 799.231 571.015 787C569.915 781.892 571.308 774.512 566.772 770.97C561.295 766.693 555.758 770.479 550.015 768.257C545.555 766.532 543.585 761.681 538.985 759.97C525.026 754.777 508.312 757.684 494 757.147C489.126 756.964 485.078 753.889 480 754.104C470.73 754.497 462.953 757.504 457.24 765.004C454.499 768.602 452.974 777.486 447.945 778.215C434.876 780.107 432.605 754.272 417.09 758.774C405.077 762.26 410.342 784.108 410.88 792C411.232 797.181 407.91 801.071 407.217 806C406.403 811.792 409.668 818.253 407.397 823.907C405.225 829.314 396.597 831.968 392 835z"/>
</svg>
