<?xml version="1.0" standalone="yes"?>
<svg xmlns="http://www.w3.org/2000/svg" width="945" height="1450">
<path style="fill:#010101; stroke:none;" d="M0 0L0 1450L945 1450L945 0L0 0z"/>
<path style="fill:#ffffff; stroke:none;" d="M568 1120C562.067 1120.26 557.593 1122.95 552 1124.01C548.226 1124.73 544.572 1122.49 541.015 1124.64C534.174 1128.78 529.153 1147.09 519.059 1145.53C516.033 1145.07 509.186 1136.52 507 1134L494 1135L503.639 1147.04L498.828 1160L490 1186L506 1175L499 1193L516 1182L516 1190C533.8 1193.88 525.173 1208.14 532.988 1218.36C537.395 1224.13 547.713 1222.56 554 1223C550.153 1232.53 549.697 1267.79 567 1264.06C576.547 1262.01 576.427 1252.08 582.225 1246.47C588.722 1240.18 606.662 1238.79 615 1241C618.569 1235.27 623.697 1230.21 623.725 1223C623.763 1213.09 615.455 1203.07 616.705 1193C617.168 1189.27 620.459 1186.68 620.908 1183C621.472 1178.38 618.708 1174.92 620.221 1170C621.683 1165.24 625.905 1160.99 626.306 1156C626.969 1147.77 621.134 1138.83 619.239 1131C617.579 1124.15 620.85 1117.55 619.477 1111.01C618.665 1107.15 614.862 1104.88 612.529 1101.96C607.211 1095.32 604.904 1088.67 597.576 1083.55C582.288 1072.86 557.652 1092.79 559.531 1109.89C559.987 1114.04 566.442 1115.67 568 1120z"/>
</svg>
