<?xml version="1.0" standalone="yes"?>
<svg xmlns="http://www.w3.org/2000/svg" width="945" height="1450">
<path style="fill:#010101; stroke:none;" d="M0 0L0 1450L945 1450L945 0L0 0z"/>
<path style="fill:#ffffff; stroke:none;" d="M257 314C252.856 325.37 258.37 329.057 260.976 339.039C262.019 343.032 260.509 347.992 260.05 352C259.615 355.808 254.169 363.493 256.047 366.482C258.561 370.484 264.117 369.316 267.715 371.498C273.778 375.178 282.7 381.369 283.732 389C284.385 393.83 282.102 399.082 282 404L297 406C297.826 402.416 297.242 398.288 298.968 395C303.062 387.202 314.131 377.068 312.508 367.134C311.829 362.969 305.089 362.307 302.728 358.942C298.764 353.294 299 345.549 299 339C294.78 336.613 295.01 334.067 297 330L282 329.907L257 314z"/>
</svg>
