<?xml version="1.0" standalone="yes"?>
<svg xmlns="http://www.w3.org/2000/svg" width="945" height="1450">
<path style="fill:#010101; stroke:none;" d="M0 0L0 1450L945 1450L945 0L0 0z"/>
<path style="fill:#ffffff; stroke:none;" d="M297 331C295.589 334.768 296.034 336.736 300 338C300 344.733 299.313 352.883 303.139 358.856C305.823 363.045 313.344 362.023 313.304 368.019C313.233 378.583 303.367 386.259 299.353 395C297.771 398.446 298.445 403.235 298 407L281 405C281.216 394.589 285.785 386.641 276.711 378.39C271.715 373.847 257.534 371.537 255.175 365.829C253.96 362.889 257.127 360.425 258.111 357.911C260.437 351.965 259.992 346.672 256 342L239 342C232.848 353.028 225.947 347.865 217.044 353.773C209.996 358.451 207.431 371.346 201.532 377.895C196.849 383.094 190.868 384.212 190 392C177.945 393.381 169.385 407.455 164.055 417.004C160.55 423.283 159.993 431.715 151 431C148.108 435.956 145.737 437.539 140 437C134.346 446.521 126.691 458.649 117.996 465.656C113.977 468.895 107.934 467.781 104.545 471.318C88.8841 487.663 81.2069 513.025 71.6721 533C67.2127 542.342 60.0753 550.173 56.3719 560C53.5679 567.441 53.0711 575.802 50.4113 583C48.0824 589.302 43.3718 592.847 43 600L39 600C47.6974 613.327 58.1331 616.54 70.9853 624.089C76.191 627.146 78.9907 632.943 85 634.966C90.9769 636.978 96.941 632.847 103 635.559C111.634 639.422 114.783 649.616 124 651.61C134.874 653.962 147.194 650.63 158 653.318C161.834 654.272 164.418 657.61 168 659.147C173.389 661.458 179.603 662.172 182.574 668.04C186.184 675.172 175.088 678.922 175.164 686C175.243 693.364 179.333 701.493 180.232 709C181.031 715.672 180.426 727.272 179.496 734C178.548 740.859 173.37 744.152 170.573 750C167.417 756.598 168 764.895 168 772C171.904 770.875 176.821 767.11 180.956 768.222C186.344 769.672 186.535 776.668 188.09 781C190.628 788.067 194.776 795.09 202 798.157C211.78 802.311 225.061 809.026 236 809.392C241.565 809.578 245.033 804.207 251 805.395C257.64 806.717 261.32 812.099 267 814.977C270.818 816.911 276.041 815.616 279.581 818.024C282.7 820.145 283.094 825.032 285.419 827.911C290.273 833.919 296.319 838.685 301 845C306.432 838.777 315.141 833.096 319.647 826.775C323.257 821.713 322.808 815.4 325.438 810C327.787 805.178 332.679 801.416 333.718 796C334.904 789.812 330.014 785.733 329.524 780C329.084 774.854 334.373 771.754 335.317 767C336.662 760.227 332.457 753.037 334.318 746.043C336.375 738.311 347.088 736.077 347.941 726C348.248 722.374 348.356 717.607 346.567 714.325C344.918 711.3 341.403 709.825 341.358 705.985C341.303 701.279 344.483 696.784 344.787 692C345.013 688.454 343.256 684.536 344.607 681.105C346.009 677.544 350.949 676.727 351.752 672.895C352.807 667.854 346.289 662.54 349.117 657.39C351.586 652.896 359.818 651.915 363.83 649.034C376.066 640.249 386.819 626.16 400 618.988C406.999 615.18 419.395 615.296 422.275 605.907C424.959 597.159 417.757 575.136 411.581 568.669C404.058 560.792 394.848 559.294 393.29 547C392.328 539.411 396.74 533.187 396.725 526C396.699 514.36 389.794 503.609 389.025 492C388.247 480.259 393.035 467.75 393.772 456C393.971 452.842 392.191 450.081 392.282 447C392.434 441.894 397.346 438.542 398.91 434C400.295 429.982 396.801 426.844 396.368 423C395.872 418.598 399.105 414.398 396.138 410.274C388.863 400.16 370.755 404 360 404C359.781 398.43 363.779 390.93 362.066 386.043C358.934 377.109 347.832 371.196 341.394 365.351C338.421 362.651 338.424 358.552 336.146 355.464C331.783 349.548 322.839 342.1 316.675 338.139C310.843 334.391 303.204 334.906 297 331z"/>
</svg>
