<?xml version="1.0" standalone="yes"?>
<svg xmlns="http://www.w3.org/2000/svg" width="945" height="1450">
<path style="fill:#010101; stroke:none;" d="M0 0L0 1450L945 1450L945 0L0 0z"/>
<path style="fill:#ffffff; stroke:none;" d="M550 873L543 870L532.417 883.015L520 916C532.236 921.424 535.473 922.437 538 936L561 924L562 927C568.124 924.768 568.404 918.666 570 913L563 911C564.444 905.912 563.022 891.86 565.693 888.702C569.923 883.701 576.895 887.664 582 887.957C592.745 888.572 612.581 889.754 620.382 880.239C622.324 877.871 621.215 874.73 622.175 872C624.942 864.135 632.147 847.545 616.985 845.148C605.084 843.267 590.712 852.607 580 857C574.643 846.183 556.565 821.576 550.099 845C548.841 849.556 552.777 852.71 553.296 857C553.941 862.337 551.347 867.96 550 873z"/>
</svg>
