<?xml version="1.0" standalone="yes"?>
<svg xmlns="http://www.w3.org/2000/svg" width="945" height="1450">
<path style="fill:#010101; stroke:none;" d="M0 0L0 1450L945 1450L945 0L0 0z"/>
<path style="fill:#ffffff; stroke:none;" d="M493 336L516 353C519.516 345.101 527.014 342.784 535 345L528 349C529.772 355.06 535.525 351.281 539.847 353.148C546.001 355.807 548.016 368.004 556 359L557 359L564.198 370L563.036 382.787L570 391C582.248 387.151 620.196 387.622 614 366L600 371C604.387 361.115 616.911 354.832 624.363 347.363C627.403 344.315 628.033 339.508 631.39 336.727C637.445 331.711 645.178 331.008 647 322L630 310L625 315L627 321L607 320L608 316C601.803 314.296 594.029 317.582 588.418 313.143C580.595 306.953 575.144 290.465 565.957 286.742C558.502 283.721 541.147 283.71 533 284.04C528.445 284.225 524.448 285.93 520 284.164C505.856 278.551 498.548 281.592 485 287C480.667 288.73 473.7 289.866 472.318 295.044C471.445 298.312 470.159 308.54 472.042 311.362C474.454 314.976 480.362 315.297 483.996 316.969C491.292 320.326 494.591 328.52 493 336z"/>
</svg>
