<?xml version="1.0" standalone="yes"?>
<svg xmlns="http://www.w3.org/2000/svg" width="945" height="1450">
<path style="fill:#010101; stroke:none;" d="M0 0L0 1450L945 1450L945 0L0 0z"/>
<path style="fill:#ffffff; stroke:none;" d="M387 985C402.166 978.863 429.135 992.179 438.413 1005.04C441.198 1008.9 438.625 1014.1 441.604 1017.49C446.206 1022.73 464.313 1029.94 471 1031C477.717 1019.67 479.838 1031.14 487.956 1031.96C490.412 1032.21 497.392 1025.57 498.822 1023.49C501.943 1018.95 503.14 1009.52 505.595 1004C507.641 999.403 511.785 996.405 513.973 992C516.035 987.849 515.892 982.444 517.7 978.001C519.363 973.913 522.612 970.969 524.37 966.961C528.631 957.243 529.103 946.946 538 940C537.039 935.047 537.179 926.336 533.486 922.649C529.191 918.36 522.005 919.283 517.318 915.861C514.797 914.02 515.422 910.701 513.397 908.564C510.305 905.301 502.072 905.276 498.015 906.318C494.481 907.226 492.995 910.524 489.91 912.073C486.776 913.648 483.266 912.333 480 914.148C477.395 915.596 474.392 919.073 471.144 918.745C467.722 918.398 467.397 913.473 466.438 911C464.776 906.717 459.122 896.509 453.946 896.257C442.915 895.719 441.322 909.384 434.66 914.382C429.043 918.596 419.183 914.592 412.329 919.969C408.417 923.039 407.923 927.885 405.584 931.957C404.038 934.647 401.135 936.373 399.893 939.209C395.323 949.639 397.212 961.557 394.666 972C393.34 977.44 386.911 979.286 387 985z"/>
</svg>
