<?xml version="1.0" standalone="yes"?>
<svg xmlns="http://www.w3.org/2000/svg" width="945" height="1450">
<path style="fill:#010101; stroke:none;" d="M0 0L0 1450L945 1450L945 0L0 0z"/>
<path style="fill:#ffffff; stroke:none;" d="M427 375L426 375C415.249 384.236 423.763 389.267 428.687 399C432.162 405.87 433.957 413.929 437.438 421C439.131 424.44 442.358 427.261 443.397 431C445.592 438.903 438.438 447.98 435.965 455C434.265 459.825 434.872 465.163 433.349 469.996C431.878 474.664 427.957 477.56 429.573 482.897C430.405 485.646 433.93 496.38 435.742 498.015C439.378 501.297 443.636 501.514 446.775 506.015C450.563 511.445 451.156 518.204 457.04 522.161C465.549 527.883 482.084 533.041 487 542L508 544C512.513 537.611 520.243 535.315 521 527C526.392 527 534.045 528.378 538.91 525.682C545.358 522.109 544.799 515.849 547.513 510.093C551.289 502.087 556.226 498.247 554.761 488C553.687 480.486 547.418 475.157 548.109 467C548.845 458.302 555.396 450.621 559 443C550.152 435.709 556.711 432.566 560.972 425.536C563.357 421.602 562.049 418.291 566 415L561.758 401.015L568.168 390.064L561.829 380.985L563.64 371L557 360L556 360C548.364 365.293 544.352 360.164 541 353L527 353L527 348C530.617 348.599 532.194 348.249 534 345C528.925 344.376 524.88 344.598 520.39 347.46C518.126 348.902 516.412 353.415 513.216 352.519C506.139 350.534 503.17 342.781 497.786 339.086C491.387 334.693 484.911 338.531 478 337.826C474.872 337.506 471.223 335.75 468.109 336.833C460.689 339.412 467.24 347.995 465.335 352.896C461.003 364.039 451.294 362.861 443 368.498C437.713 372.092 433.777 378.246 427 375z"/>
</svg>
