<?xml version="1.0" standalone="yes"?>
<svg xmlns="http://www.w3.org/2000/svg" width="945" height="1450">
<path style="fill:#010101; stroke:none;" d="M0 0L0 1450L945 1450L945 0L0 0z"/>
<path style="fill:#ffffff; stroke:none;" d="M321 270C327.79 279.991 325.006 282.891 320 293L311 286C311.179 290.162 314.435 301.089 310.397 304.044C307.806 305.939 304.062 302.99 302 301.559C294.967 296.682 289.061 292.128 281 289C281.338 293.375 282.669 295.097 287 296C287 309.631 286.942 325.713 301 333.026C305.944 335.598 312.168 334.403 316.816 337.724C323.259 342.327 331.455 349.167 336.487 355.3C338.77 358.083 338.893 361.979 341.43 364.582C347.691 371.004 358.345 376.521 362.387 385.105C364.747 390.116 360.288 397.206 361 403C371.527 403 390.127 399.845 396.896 410.225C398.433 412.582 400.204 431.594 399.287 434C397.688 438.196 393.55 441.385 392.862 446C392.345 449.464 394.794 452.506 394.57 456C393.866 467.003 390.587 478.059 389.675 489C388.645 501.363 396.746 512.836 397.456 525C398.075 535.599 390.391 545.02 396.453 555.907C400.466 563.112 410.511 564.584 414.442 572.039C422.763 587.82 419.959 604.234 425.548 620C427.543 625.629 432.863 632.803 439.961 631.048C446.078 629.535 457.172 619.595 459.98 614C461.383 611.204 461.069 607.862 463.009 605.279C466.241 600.975 472.034 603.761 475.397 600.397C478.06 597.732 476.118 593.403 478.028 590.39C480.338 586.745 486.462 583.461 490 581C487.965 573.308 484.261 563.934 484.133 556C484.047 550.609 488.696 545.474 485.542 540.228C480.305 531.516 462.748 528.136 455.093 520.867C446.746 512.939 448.022 500.33 434 500C433.205 493.712 427.62 484.581 428.397 479.039C430.487 464.122 442.989 448.426 442.852 433C442.806 427.79 438.6 424.393 436.438 420C432.957 412.929 431.162 404.87 427.687 398C425.421 393.522 421.008 390.113 419.577 385.17C417.612 378.379 427.356 375.386 424.467 367.04C420.771 356.361 409.513 361.93 402.004 359.459C396.357 357.601 395.844 352.524 392.355 348.594C384.29 339.512 374.384 339.679 376 326C364.912 320.334 356.535 314.155 351.695 301.985C349.481 296.416 354.648 291.651 353.594 286C350.804 271.042 333.698 267.511 321 270z"/>
</svg>
