<?xml version="1.0" standalone="yes"?>
<svg xmlns="http://www.w3.org/2000/svg" width="945" height="1450">
<path style="fill:#010101; stroke:none;" d="M0 0L0 1450L945 1450L945 0L0 0z"/>
<path style="fill:#ffffff; stroke:none;" d="M427 1139C420.233 1139.54 417.513 1148.22 411 1151.2C402.034 1155.31 390.345 1152.21 382.015 1157.73C370.901 1165.09 374.344 1178.36 370.426 1189C367.294 1197.5 362.762 1202.36 362 1212C354.864 1212.28 337.242 1214.6 341.623 1226.91C343.467 1232.09 350.004 1231.37 352.911 1235.3C356.622 1240.32 357.325 1249.05 359 1255L351 1260C352.5 1267.27 353.432 1279.24 361.274 1282.86C365.166 1284.66 368.054 1279.02 371.043 1277.46C379.862 1272.84 385.978 1276.82 387 1264C393.011 1265.06 406.859 1264.04 411.301 1259.36C414.321 1256.18 415.492 1251.46 418.468 1248.09C421.013 1245.21 425.425 1243.42 426.967 1239.79C429.199 1234.54 424.302 1228.86 426.927 1224.1C430.702 1217.27 438.887 1222.19 443.393 1217.2C446.392 1213.87 442.75 1210.23 443.359 1206.58C444.082 1202.24 448.324 1196.3 451.329 1193.21C456.668 1187.73 466.307 1183.76 474 1184.22C478.487 1184.49 482.214 1188.79 486.815 1186.55C493.722 1183.18 491.517 1173.57 497 1169L503.215 1148.02L487 1129C478.674 1130.45 475.13 1129.62 477 1120C471.455 1118.81 466.31 1121.84 461.213 1118.03C456.16 1114.25 455.056 1104.64 448.029 1103.38C443.052 1102.48 442.585 1108.96 440.348 1111.9C436.355 1117.13 429.345 1119.39 426.897 1126C425.404 1130.04 426.913 1134.81 427 1139z"/>
</svg>
