<?xml version="1.0" standalone="yes"?>
<svg xmlns="http://www.w3.org/2000/svg" width="945" height="1450">
<path style="fill:#010101; stroke:none;" d="M0 0L0 1450L945 1450L945 0L0 0z"/>
<path style="fill:#ffffff; stroke:none;" d="M546 940C548.292 945.586 551.254 951.021 552.381 957C553.234 961.52 552.098 966.667 553.589 971C554.757 974.394 558.855 977.025 559.285 980.576C559.732 984.27 555.905 986.816 556.833 991C559.135 1001.39 570.14 1021.18 554 1026.44C551.182 1027.35 547.923 1027 545 1027C543.134 1041.78 553.653 1041.8 562.91 1051.09C566.496 1054.69 568.692 1060.62 573.133 1063.16C576.863 1065.3 583.334 1064.29 586.218 1067.59C589.061 1070.84 585 1075.16 587.118 1078.41C588.971 1081.26 594.938 1081.08 597.714 1083.22C604.776 1088.67 608.184 1099.99 615.185 1104.15C618.885 1106.35 623.772 1103.05 628 1104.24C631.646 1105.26 635.13 1108.22 639 1108.22C642.919 1108.22 645.987 1105.12 650 1105.25C664.639 1105.74 678.816 1109.27 692.985 1103.01C698.058 1100.76 699.254 1094.94 704.043 1092.46C707.753 1090.54 711.211 1092.43 715 1091.64C719.303 1090.75 723.107 1086.24 725.772 1083C732.37 1074.98 727.486 1065.1 731.004 1056C733.182 1050.36 735.407 1044.04 738.966 1039.1C743.518 1032.8 749.645 1030.38 747.602 1021C744.959 1008.87 736.087 1014.67 728 1013.19C718.825 1011.52 708.791 1007.22 704 999L690 1002.35L677 995.889L647 987L649 977C639.747 973.628 633.963 977.126 626 982L620 969C614.254 978.186 607.23 984.606 598 990C596.834 980.97 594.758 972.022 593.421 963C593.001 960.161 593.203 955.033 590.44 953.279C583.463 948.851 572.004 952.978 565 949.782C556.215 945.772 556.753 938.648 546 940z"/>
</svg>
