<?xml version="1.0" standalone="yes"?>
<svg xmlns="http://www.w3.org/2000/svg" width="945" height="1450">
<path style="fill:#010101; stroke:none;" d="M0 0L0 1450L945 1450L945 0L0 0z"/>
<path style="fill:#ffffff; stroke:none;" d="M635 308C643.278 308.676 650.119 305.99 658 306.377C680.002 307.457 712.146 320.665 721 290C738.31 293.166 743.318 282.969 755.089 273.418C760.792 268.791 767.294 266.3 773.039 261.325C777.346 257.595 789.237 253.207 787.257 246.09C785.198 238.689 775.175 240.848 770.109 237.262C765.345 233.889 757.12 214.617 757 209L741.104 217.379L730.406 206.533L717 202C715.003 195.834 706.31 196.053 701 193.688C695.665 191.31 690.003 187.888 684 189.974C679.711 191.464 676.422 195.536 672 196.472C666.846 197.563 661.161 195.979 656 197.702C647.25 200.623 638.93 211.145 633.56 218.286C626.523 227.643 634.348 234.817 634.143 244C633.887 255.419 624.796 266.363 625.387 277.999C625.584 281.88 628.544 283.824 629.846 287.17C632.178 293.157 633.736 301.506 635 308z"/>
</svg>
