<?xml version="1.0" standalone="yes"?>
<svg xmlns="http://www.w3.org/2000/svg" width="945" height="1450">
<path style="fill:#010101; stroke:none;" d="M0 0L0 1450L945 1450L945 0L0 0z"/>
<path style="fill:#ffffff; stroke:none;" d="M555 725C554.785 735.104 544.608 751.204 560 754L560 759C556.685 759 545.867 757.773 545.867 763.1C545.867 770.281 564.839 766.657 569.258 773.105C571.888 776.942 570.932 782.588 571.808 787C573.02 793.108 576.829 799.01 577.644 805C578.233 809.324 576.013 814.45 576 819C583.597 816.121 592.778 812.757 600 809.161C603.075 807.63 606.277 803.921 609.984 804.464C617.566 805.576 612.968 816.175 622.985 816.485C630.86 816.73 633.446 807.873 643 809L655 784C647.254 781.358 636.335 775.414 632.302 767.961C629.552 762.877 629.138 756.024 625.722 751.322C622.792 747.288 617.027 751.001 614.008 745.941C609.306 738.057 601.028 723.36 600.843 714C600.728 708.164 606.485 703.431 606.049 698C605.494 691.09 597.841 682.726 595.324 676C591.171 664.9 592.842 651.091 584.2 641.279C581.107 637.767 575.852 637.622 572.09 635.03C569.143 632.999 567.33 629.432 563.826 628.279C551.91 624.354 534.648 626.749 525.819 634.615C522.422 637.642 517.003 640.394 519.201 646C524.606 659.782 541.998 667.147 546.986 682C548.687 687.065 544.129 690.269 543.383 695C542.253 702.17 547.246 723.717 555 725z"/>
</svg>
