<?xml version="1.0" standalone="yes"?>
<svg xmlns="http://www.w3.org/2000/svg" width="945" height="1450">
<path style="fill:#010101; stroke:none;" d="M0 0L0 1450L945 1450L945 0L0 0z"/>
<path style="fill:#ffffff; stroke:none;" d="M638 518C639.093 526.65 642.051 541.023 634.811 547.61C629.635 552.318 620.418 552.583 616.352 558.225C609.862 567.23 606.725 580.773 596 586L596 587C603.48 588.94 613.023 592.872 620.826 590.682C624.139 589.752 625.411 586.413 628.174 584.692C630.792 583.06 640.883 581.005 644 581.181C650.58 581.553 653.753 588.464 658.171 592.331C668.972 601.787 685.525 602.499 693 615C703.15 612.327 701.224 603.343 706.005 596.055C708.453 592.324 714.487 591.517 715.476 586.945C717.926 575.625 706.072 569.581 701.901 561C694.646 546.075 704.108 530.106 685.999 520.495C682.374 518.571 677.886 518.416 674 517L677 510L663 511.85L652 510.149L638 518z"/>
</svg>
