<?xml version="1.0" standalone="yes"?>
<svg xmlns="http://www.w3.org/2000/svg" width="945" height="1450">
<path style="fill:#010101; stroke:none;" d="M0 0L0 1450L945 1450L945 0L0 0z"/>
<path style="fill:#ffffff; stroke:none;" d="M673 697L683 693C679.76 700.507 671.646 704.8 668.873 712.004C666.287 718.721 675.971 730.511 668.772 734.973C666.62 736.307 663.409 736.279 661 737L661 739C670.045 744.156 672.52 751.877 663 758C671.617 764.14 679.971 760.172 689 760.962C697.731 761.726 708.188 765.438 717 763.323C723.571 761.746 731.731 754.605 738.896 756.987C743.879 758.644 748.138 766.391 752 769.896C766.607 783.151 783.004 807 804 807L805 813C813.934 811.754 811.652 805.643 817.394 800.702C825.622 793.621 836.082 788.172 844.363 781.146C848.932 777.269 849.996 772.649 856 770C849.816 756.074 853.368 748.521 857.367 735C858.889 729.851 857.944 725.091 863 722C861.023 717.534 857.285 709.752 851.985 708.688C848.949 708.078 846.026 709.776 843 708.662C832.32 704.731 829.289 699.547 817 703C809.97 686.687 804.457 673.031 784 674.144C779.655 674.381 776.2 677.878 772 678.046C766.135 678.28 761.706 671.335 755.044 673.643C749.294 675.635 749.701 683.821 745.66 687.697C740.929 692.233 732.978 690.791 727 691.576C714.335 693.239 701.231 690.302 689 690.407C682.693 690.462 672.997 686.937 673 697z"/>
</svg>
