<?xml version="1.0" standalone="yes"?>
<svg xmlns="http://www.w3.org/2000/svg" width="945" height="1450">
<path style="fill:#010101; stroke:none;" d="M0 0L0 1450L945 1450L945 0L0 0z"/>
<path style="fill:#ffffff; stroke:none;" d="M721 847C702.926 846.224 681.356 840.94 665.015 833.347C658.637 830.383 657.52 818.648 649.043 820.962C643.226 822.551 641.217 830.205 638.742 835C635.173 841.914 631.419 845.745 625 850C631.068 871.079 617.904 889.048 595 889.646C587.647 889.838 573.299 883.955 567.333 888.279C564.235 890.524 565.31 905.385 564 910L571 912C569.005 919.083 567.838 924.101 562 929L561 925L538 937L538 938C542.836 939.43 549.538 936.986 553.791 939.117C558.711 941.583 559.993 948.146 566 949.527C572.612 951.047 587.282 947.85 592.062 954.272C597.895 962.107 595.812 978.586 599 988C608.416 985.281 615.728 976.577 620 968L626 980C635.215 978.223 651.765 967.434 648 986C656.623 991.014 665.704 991.676 675 994.558C679.122 995.836 681.967 999.276 686 1000.74C692.174 1002.97 698.156 999.901 704 998C708.09 1006.52 718.852 1011.19 728 1012.52C737.455 1013.9 742.351 1009.12 748 1020C753.113 1016.5 761.156 1012.36 765.03 1007.61C767.763 1004.26 767.839 999.876 769.339 996C771.469 990.496 775.496 985.96 776.617 980C778.47 970.153 773.623 961.246 772.213 952C769.515 934.303 769.382 914.708 772.305 897.004C773.65 888.859 783.266 887.618 787.2 880.91C791 874.43 787.224 868.466 789.603 862C791.749 856.169 797.496 851.972 800 846C822.665 851.208 812.959 825.154 812 813C797.481 814.156 784.757 820.635 771 823.61C765.09 824.887 757.363 821.424 752.058 824.322C746.358 827.436 745.764 836.086 739.999 840.37C737.445 842.268 734.395 844.872 731.039 844.978C726.174 845.131 722.643 839.471 721 847z"/>
</svg>
