<?xml version="1.0" standalone="yes"?>
<svg xmlns="http://www.w3.org/2000/svg" width="945" height="1450">
<path style="fill:#010101; stroke:none;" d="M0 0L0 1450L945 1450L945 0L0 0z"/>
<path style="fill:#ffffff; stroke:none;" d="M388 1265C385.486 1277.73 378.873 1273.35 370.224 1278.46C358.544 1285.35 350.245 1298.31 350.18 1312C350.149 1318.38 351.016 1331.17 355.152 1335.98C359.149 1340.64 367.827 1342.53 370.262 1348.1C372.39 1352.98 371.486 1358.88 372.133 1364C373.383 1373.9 384.069 1398.89 395 1400.52C405.421 1402.08 420.384 1395.52 430 1391.98C434.032 1390.49 437.59 1385.43 442.17 1386.94C449.645 1389.41 452.785 1396.01 459.174 1399.43C463.179 1401.57 468.959 1399.59 472.362 1402.6C482.405 1411.5 476.782 1424.75 495 1424.98C500.789 1425.05 508.264 1424.55 512.606 1420.32C519.516 1413.57 519.428 1405.05 531 1403.45C548.58 1401.03 569.123 1420.95 586.7 1413.4C597.403 1408.79 602.068 1393.2 609.39 1385.21C613.456 1380.77 619.87 1379.31 623.142 1373.98C627.438 1367 626.101 1361.96 634 1357L611.06 1325L614.487 1293L611.679 1281L613.82 1265L613 1241C606.08 1239.35 587.473 1241.62 582.418 1246.68C576.538 1252.57 576.744 1261.95 567 1264.49C549.632 1269 549.419 1233.53 553 1224C546.243 1222.8 537.631 1224.62 532.589 1218.61C524.31 1208.73 533.855 1192.55 515 1191L515 1183L498 1194L505 1176C497.114 1176.88 496.39 1184.34 489.896 1186.85C480.964 1190.32 471.943 1183.03 462 1187.07C454.04 1190.31 446.004 1197.11 444.182 1206C443.432 1209.66 446.721 1213.3 444.353 1216.67C440.326 1222.41 432.974 1218.23 428.448 1222.65C424.052 1226.95 429.868 1233.68 427.953 1238.96C426.389 1243.27 421.562 1244.91 418.681 1248.19C415.678 1251.6 414.698 1256.39 411.582 1259.61C407.113 1264.23 394.129 1265.82 388 1265z"/>
</svg>
