<?xml version="1.0" standalone="yes"?>
<svg xmlns="http://www.w3.org/2000/svg" width="945" height="1450">
<path style="fill:#010101; stroke:none;" d="M0 0L0 1450L945 1450L945 0L0 0z"/>
<path style="fill:#ffffff; stroke:none;" d="M520 800C514.784 809.35 497.028 812.85 487 809C486.013 818.634 475.525 826.532 470.637 835C469.024 837.795 468.386 843.239 464.786 844.263C458.514 846.047 452.458 838.28 445.001 842.028C437.765 845.665 434.788 859.291 426.014 859.739C417.885 860.155 421.041 845.469 413.1 848.207C407.58 850.11 405.706 858.669 402.366 862.907C397.609 868.942 389.746 870.383 384.301 875.39C379.942 879.399 378.714 886.682 373.787 889.861C367.84 893.699 363.895 889.771 358 889.781C352.205 889.79 341.935 893.988 337 897C338.528 903.339 334.913 906.985 335.252 912.896C335.834 923.011 349.966 928.337 358 930C355.057 944.266 352.38 954.561 370 956C370.278 962.463 377.793 984.014 387 980.418C395.185 977.222 393.27 970.621 393.648 964C394.065 956.701 396.21 946.758 398.893 940.043C402.689 930.541 411.062 918.651 421 915.245C425.131 913.829 430.936 916.269 434.443 913.968C441.486 909.348 443.042 895.63 453.956 895.376C463.803 895.147 464.185 916.66 471.279 918.118C475.046 918.892 478.76 914.026 482 912.753C484.562 911.747 487.358 912.863 489.83 911.792C492.673 910.559 494.236 907.446 497.015 906.028C506.68 901.095 514.313 907.601 517 916L519 916L530.916 885L542 869L549 872C554.212 861.615 549.294 856.773 549.298 847C549.3 840.738 557.065 829.687 544 837C541.65 826.426 547.434 813.473 557 809L557 807L545.089 807.379L536.985 802.943L520 800z"/>
</svg>
