<?xml version="1.0" standalone="yes"?>
<svg xmlns="http://www.w3.org/2000/svg" width="945" height="1450">
<path style="fill:#010101; stroke:none;" d="M0 0L0 1450L945 1450L945 0L0 0z"/>
<path style="fill:#ffffff; stroke:none;" d="M318 888C326.93 888.001 330.149 890.307 336 897L337 897C342.533 892.907 351.974 893.434 356.393 888.362C358.894 885.49 356.87 881.382 357.677 878C359.329 871.072 361.493 860.131 365.089 854.015C369.985 845.688 383.511 842.534 392 839C392.874 829.995 404.514 831.383 406.682 823.815C408.155 818.674 406.041 813.153 406.194 808C406.332 803.376 409.467 799.596 409.894 795C410.541 788.04 407.912 782.149 408.841 775C409.612 769.069 410.699 759.601 418.015 758.043C432.137 755.035 436.765 781.951 448.772 777.214C451.9 775.981 452.554 771.594 454.14 769C457.313 763.812 461.519 759.023 467 756.278C477.005 751.267 483.212 755.403 493 756.437C510.757 758.311 527.678 754.799 545 762C548.834 757.973 553.694 758.015 559 758L550.782 747.985L554 726C546.924 723.772 541.204 702.054 542.662 695C543.479 691.045 547.031 688.268 546.728 684C546.03 674.177 536.043 667.63 530.509 660.83C526.959 656.467 524.883 651.72 520 648.36C508.358 640.349 503.109 664.693 494.895 665.214C483.877 665.913 479.828 650.247 470 648.279C459.175 646.112 451.853 662.147 441 662.214C435.759 662.246 430.984 656.586 429.558 652C427.966 646.881 429.339 642.112 428.777 637C427.75 627.667 425.015 618.889 422 610C399.638 618.464 382.965 633.145 364.83 648.613C360.905 651.961 352.675 652.957 350.067 657.394C347.105 662.433 353.218 667.683 352.505 672.56C351.945 676.39 347.093 677.175 345.603 680.39C343.966 683.925 345.89 688.302 345.61 692C345.246 696.811 342.201 701.157 342.163 705.96C342.112 712.383 349.215 716.273 348.977 724C348.838 728.487 345.668 736.09 342.437 739.301C340.153 741.57 336.346 741.754 335.318 745.214C333.289 752.042 337.082 759.273 336.059 766C335.266 771.209 329.833 774.383 330.268 780C330.677 785.285 335.492 789.501 334.678 795C333.882 800.382 328.744 804.265 326.438 809C323.455 815.127 324.065 822.311 319.363 827.775C314.242 833.725 304.072 835.511 303.025 845C301.584 858.06 313.588 860.189 319.143 869.039C323.181 875.474 320.453 881.676 318 888z"/>
</svg>
