<?xml version="1.0" standalone="yes"?>
<svg xmlns="http://www.w3.org/2000/svg" width="945" height="1450">
<path style="fill:#010101; stroke:none;" d="M0 0L0 1450L945 1450L945 0L0 0z"/>
<path style="fill:#ffffff; stroke:none;" d="M452 62C447.275 71.4849 436.891 77.5581 432.653 87C430.258 92.3351 433.246 96.7449 432.254 101.957C431.47 106.076 426.843 107.663 424.824 111.105C421.359 117.012 417.73 124.495 415.598 131C414.431 134.56 414.786 139.437 411.683 142.006C402.801 149.362 392.403 145.654 383 148.707C378.971 150.015 375.943 153.317 372 154.859C360.71 159.276 349.563 162.333 338 166L329 161.066L314 151.434L300 153L297 171L275 168C272.883 172.905 270.847 177.187 265 177L260 192L266 195L262 204L255 202C254.25 206.473 255.748 207.852 260 209L254 225L268 240L261 236L265 244L252 233C249.578 250.985 242.512 268.274 238.576 286C237.025 292.983 232.996 301.136 236 308C229.084 309.441 228.724 316.019 227.115 322C224.262 332.605 218.537 342.545 215 353L233.482 348.972L240.184 342.328L256 340L260 344L254.904 328.996L257 312C269.236 319.769 277.738 330.929 293 329L287.12 315L285.683 299.224L280 288L310 305L310 285L320 292C325.705 282.512 327.196 277.399 319 269C332.941 267.952 350.528 269.285 354.319 286C355.399 290.761 351.488 294.356 351.681 298.999C351.887 303.931 358.663 313.849 361.727 317.775C364.962 321.921 371.119 321.648 374.593 325.532C377.386 328.657 375.251 333.235 377.434 336.667C379.183 339.419 383.052 338.151 385.367 340.353C390.397 345.141 394.198 355.003 400.108 358.146C405.604 361.068 412.036 357.566 417.999 360.214C424.187 362.961 425.84 376.633 432.019 375.512C436.782 374.647 440.191 370.088 444 367.498C451.703 362.262 460.323 362.866 464.718 352.896C467.136 347.409 460.127 341.138 467.11 336.833C472.269 333.651 492.489 342.024 493.176 330.945C494.001 317.643 478.885 318.803 472.333 312.362C469.228 309.31 470.47 300.055 471.228 296.015C473.269 285.152 490.848 289.713 494.167 280.775C496.774 273.757 491.022 266.057 494.651 258C497.043 252.692 509.364 244.995 509.364 239.924C509.364 236.174 502.003 235.529 500.009 232.772C497.124 228.784 494.829 211.841 499.188 208.643C502.182 206.446 507.504 207.971 511 208C512.416 200.374 515.636 177.021 508.61 172.14C502.685 168.024 492.609 174.191 488.573 166.856C484.996 160.354 492.875 157.173 493.865 150.999C494.536 146.813 496.093 142.249 495.66 138C495.277 134.24 492.34 129.873 493.647 126.105C494.864 122.596 499.372 121.112 501.957 118.787C507.975 113.374 511.904 107.419 519 103L510.61 88.314L496.314 83.8604L489.856 73.1396L452 62z"/>
<path style="fill:#010101; stroke:none;" d="M268 240L269 241L268 240M265 244L266 245L265 244z"/>
</svg>
