<?xml version="1.0" standalone="yes"?>
<svg xmlns="http://www.w3.org/2000/svg" width="945" height="1450">
<path style="fill:#010101; stroke:none;" d="M0 0L0 1450L945 1450L945 0L0 0z"/>
<path style="fill:#ffffff; stroke:none;" d="M788 251C777.024 258.466 765.576 265.946 755.17 273.699C743.392 282.474 739.097 293.822 722 291C717.29 298.948 710.158 308.501 700.83 311.426C696.766 312.7 692.101 310.611 688 310.329C678.118 309.65 668.028 307.724 658 307.209C650.457 306.822 643.843 309.635 636 309C638.515 315.645 641.874 320.441 649 322L631.39 337.559L611.451 360.363L601 370C605.135 370.099 607.953 366.157 611.941 366.407C620.865 366.968 610.759 380.015 607.907 382.034C595.424 390.872 575.058 384.843 564.499 396.749C558.947 403.01 566.778 407.641 565.613 413.83C563.646 424.272 544.828 440.851 565 444C576.794 429.482 594.449 436.959 610 439L607.043 456.382L616 457.039L641 458C642.363 453.197 643.321 447.126 646.649 443.228C653.841 434.806 669.845 432.822 678.811 426.034C684.331 421.855 682.557 413.779 689.019 410.318C694.393 407.44 701.662 410.998 706.367 406.486C713.015 400.11 716.865 390.781 723.185 384.09C727.86 379.142 734.108 376.271 735.606 369C737.27 360.924 731.346 351.791 734.407 344.004C737.418 336.342 748.311 331.184 753.386 324.335C756.283 320.425 753.563 314.58 756.344 310.001C763.017 299.015 775.434 302.735 783.346 295.272C788.109 290.781 783.451 284.209 783.12 279C782.531 269.76 794.476 259.276 788 251z"/>
</svg>
