<?xml version="1.0" standalone="yes"?>
<svg xmlns="http://www.w3.org/2000/svg" width="945" height="1450">
<path style="fill:#010101; stroke:none;" d="M0 0L0 1450L945 1450L945 0L0 0z"/>
<path style="fill:#ffffff; stroke:none;" d="M560 831L560 833C568.09 837.427 575.288 848.173 580 856C593.089 852.258 613.057 836.104 624 850C639.821 841.219 643.146 826.281 643 810C632.957 808.163 631.194 817.21 622.996 817.138C612.785 817.048 616.653 804.831 608.985 804.85C605.236 804.86 602.185 808.57 599 810.161C591.597 813.858 583.755 813.361 577.43 819.76C574.872 822.348 574.935 827.148 571.721 829.045C568.32 831.052 563.956 828.801 560 831z"/>
</svg>
