<?xml version="1.0" standalone="yes"?>
<svg xmlns="http://www.w3.org/2000/svg" width="945" height="1450">
<path style="fill:#010101; stroke:none;" d="M0 0L0 1450L945 1450L945 0L0 0z"/>
<path style="fill:#ffffff; stroke:none;" d="M277 168C279.331 168.998 281.598 170.381 284.002 171.182C299.641 176.394 293.741 158.205 301.318 153.024C311.987 145.728 319.508 155.325 328 160.066C331.573 162.06 335.056 161.959 338 165C350.224 162.206 361.404 158.396 373 153.859C376.922 152.325 379.953 148.927 384 147.742C392.856 145.15 402.28 148.491 410.686 141.925C414.338 139.073 414.339 132.075 416.262 128C418.975 122.251 421.317 115.288 424.968 110.104C426.782 107.529 430.1 105.924 431.218 102.896C432.736 98.785 429.883 94.3123 430.982 90C433.701 79.3293 446.914 73.3843 450.995 63C453.982 55.3973 449.529 50.1211 448.48 43C447.344 35.2891 449 25.9097 449 18C438.135 18.4679 417.248 20.6846 408.174 26.8541C402.471 30.7313 399.534 41.7603 392 42.6366C384.282 43.5343 374.68 36.8346 367 35.5571C362.921 34.8787 359.084 36.767 355 36.4814C344.061 35.7168 332.944 33.8724 322 32.8302C317.683 32.4191 301.983 29.1345 299.029 32.6427C292.867 39.9591 309.248 48.347 306.288 56.2709C303.796 62.9408 300.214 67.3755 299.344 75C298.727 80.4033 301.706 84.0521 299.965 90C292.454 115.65 281.86 141.913 277 168z"/>
</svg>
