<?xml version="1.0" standalone="yes"?>
<svg xmlns="http://www.w3.org/2000/svg" width="945" height="1450">
<path style="fill:#010101; stroke:none;" d="M0 0L0 1450L945 1450L945 0L0 0z"/>
<path style="fill:#ffffff; stroke:none;" d="M601 687C626.221 679.982 648.763 712.794 673 698C671.402 691.623 677.403 687.653 683.576 688.474C688.602 689.142 693.171 687.791 698 688.438C711.515 690.247 729.591 694.337 742.906 688.968C749.531 686.296 748.17 677.323 754.044 673.643C756.981 671.803 760.745 672.863 764 673C765.041 667.394 766.387 659.979 762.486 655.133C755.965 647.032 745.616 648.068 741.396 636C739.573 630.787 743.581 626.052 744.532 621C745.826 614.132 744.265 605.816 743 599L733 599L732 606C726.068 599.725 724.639 591.349 716 588C713.699 591.789 709.561 591.929 707.005 595.279C703.458 599.928 703.473 615.098 695.028 614.593C691.103 614.358 688.437 608.625 684.985 606.839C677.24 602.834 669.293 600.834 662.001 595.572C657.187 592.098 653.892 586.168 648.829 583.303C636.184 576.149 625.493 592.729 614 591.91C608.365 591.508 597.634 585.517 592.51 589.032C587.692 592.336 588.324 603.034 584.892 607.957C580.491 614.271 563.357 618.448 567.245 628.985C570.391 637.512 581.949 636.329 586.471 644.005C594.551 657.724 593.298 673.466 601 687z"/>
</svg>
