<?xml version="1.0" standalone="yes"?>
<svg xmlns="http://www.w3.org/2000/svg" width="945" height="1450">
<path style="fill:#010101; stroke:none;" d="M0 0L0 1450L945 1450L945 0L0 0z"/>
<path style="fill:#ffffff; stroke:none;" d="M559 444C555.288 450.694 549.86 458.174 549.105 466C548.225 475.116 554.947 480.706 555.682 489C556.521 498.459 552.324 501.959 548.513 509.325C545.144 515.836 545.558 522.696 537.985 526.682C533.438 529.076 526.984 528 522 528C520.761 533.629 511.036 543.768 504.961 544.013C500.141 544.208 495.028 539.539 490.302 542.333C479.309 548.832 487.837 572.321 491 581C487.049 583.047 480.436 586.953 478.603 591.209C477.383 594.043 478.37 597.212 476.397 599.852C473.141 604.206 467.069 601.536 463.742 605.434C461.717 607.807 462.031 611.356 460.412 614C457.006 619.564 445.744 630.776 438.996 631.649C435.55 632.094 431.35 629.775 428 629C428.866 637.701 427.368 665.166 443 661.346C451.383 659.298 460.692 645.938 469 647.298C477.739 648.729 486.491 669.223 496.624 663.882C499.787 662.215 501.799 657.612 504.174 655.015C507.807 651.04 512.991 648.637 516.441 644.624C521.086 639.221 525.444 631.825 532.093 628.318C541.044 623.597 553.625 628.769 562.895 626.643C566.508 625.814 567.943 621.558 570.213 619.043C574.63 614.15 581.692 612.776 585.095 606.957C588.148 601.735 591.286 591.025 590.495 585C589.803 579.724 585.531 573.44 587.607 568.093C590.714 560.091 601.237 561.716 600.941 551C600.618 539.292 583.423 536.175 585.133 526.015C585.791 522.1 591.358 517.198 593.785 514.039C596.069 511.064 598.857 508.972 602 507L596.873 496L604.609 471L609 440L580 434.901L559 444z"/>
</svg>
