<?xml version="1.0" standalone="yes"?>
<svg xmlns="http://www.w3.org/2000/svg" width="945" height="1450">
<path style="fill:#010101; stroke:none;" d="M0 0L0 1450L945 1450L945 0L0 0z"/>
<path style="fill:#ffffff; stroke:none;" d="M602 687C602.884 690.763 606.19 694.213 606.445 698C606.776 702.919 602.009 707.864 601.569 713C601.024 719.364 606.303 729.235 608.922 735C610.385 738.22 613.105 745.015 615.599 747.393C617.992 749.675 621.033 747.863 623.775 748.773C627.232 749.921 627.945 755.043 629.064 758C632.936 768.231 637.069 774.591 647 780.096C649.928 781.719 654.532 784.356 657.787 782.292C665.535 777.382 658.955 767.088 662.433 760.043C664.521 755.814 669.399 754.419 668.767 748.997C668.281 744.835 661.255 741.115 661.77 738.015C662.427 734.061 668.63 735.986 670.254 732.682C673.044 727.004 666.435 720.138 667.684 714C669.21 706.497 678.828 701.349 682 694C669.807 695.63 664.933 704.562 651 701.826C644.898 700.628 641.327 696.278 635.961 693.799C626.89 689.609 611.755 685.794 602 687z"/>
</svg>
