<?xml version="1.0" standalone="yes"?>
<svg xmlns="http://www.w3.org/2000/svg" width="945" height="1450">
<path style="fill:#010101; stroke:none;" d="M0 0L0 1450L945 1450L945 0L0 0z"/>
<path style="fill:#ffffff; stroke:none;" d="M320 1056C314.822 1063.61 307.629 1074.76 315.699 1083.36C319.496 1087.41 324.45 1088.76 327.347 1094C329.934 1098.68 327.487 1104.05 329.603 1108.61C330.724 1111.02 333.667 1111.8 334.803 1114.21C338.338 1121.72 340.515 1136.72 338.711 1145C336.928 1153.18 331.024 1153.29 327.14 1159.22C320.918 1168.73 323.795 1175.92 311 1180.3C304.056 1182.68 294.436 1178.69 288.419 1183.74C281.257 1189.75 284.665 1200.89 292 1204L278.301 1232.4L265 1237C265.986 1245.72 255.709 1244.61 252.028 1251.17C248.673 1257.15 255.195 1265.31 250.333 1270.49C247.029 1274.01 241.095 1273.28 237.17 1275.85C230.049 1280.52 227.248 1286.97 221.61 1292.61C216.861 1297.36 209.207 1298.71 204.499 1303.5C200.774 1307.28 200.173 1313.5 197.049 1317.79C194.907 1320.74 190.518 1323.03 190.16 1327C189.917 1329.71 192.05 1331.96 193.516 1334C204.459 1349.16 216.555 1325.97 229 1332.03C233.442 1334.2 241.25 1341.22 244.272 1345.21C246.705 1348.43 246.531 1353.96 251.055 1355.34C255.555 1356.71 259.791 1351.39 263 1349.06C269.041 1344.68 280.757 1339.27 288 1337.34C296.816 1334.99 300.521 1344.97 307.015 1348.58C315.397 1353.24 321.753 1346.91 330 1346.1C334.354 1345.68 339.901 1347.22 343.276 1343.68C355.363 1331.02 348.05 1315.55 351.454 1300C352.686 1294.37 359.753 1290.35 359.833 1285C360.007 1273.44 341.972 1265.09 358 1255C356.838 1249.37 355.935 1239.98 352.146 1235.51C348.981 1231.77 341.991 1231.64 340.752 1225.99C338.202 1214.36 353.98 1211.86 361 1211C362.606 1202.47 367.508 1196.85 369.725 1189C372.903 1177.75 371.043 1166.68 381.015 1158.23C392.854 1148.19 418.146 1158.65 421 1138L426 1138L424.821 1123L418.058 1111L416.682 1094.21L411 1082L388 1072.78L364.001 1076.53L349.961 1064.84L329.633 1063.4L320 1056z"/>
</svg>
