<?xml version="1.0" standalone="yes"?>
<svg xmlns="http://www.w3.org/2000/svg" width="945" height="1450">
<path style="fill:#010101; stroke:none;" d="M0 0L0 1450L945 1450L945 0L0 0z"/>
<path style="fill:#ffffff; stroke:none;" d="M412 1081L417.682 1095.04L426 1124C434.185 1118.24 441.609 1112.28 443 1102C463.26 1101.76 468.666 1079.08 476.026 1065.04C478.629 1060.07 482.805 1058.05 483.699 1052C484.535 1046.34 483.043 1040.54 482 1035L486 1034C484.342 1030.45 480.131 1023.92 475.325 1026.24C472.652 1027.53 471.416 1031.25 467.96 1030.79C463.603 1030.21 456.221 1025.49 452 1023.5C448.631 1021.9 443.132 1020.54 440.746 1017.58C438.212 1014.43 440.396 1010.5 439.103 1007.01C437.614 1003 433.342 1000.27 430 997.913C422.211 992.413 411.369 986.449 402 984.453C397.602 983.516 390.053 985.699 386.576 984.007C377.921 979.795 370.185 966.127 369 957C352.289 953.542 353.912 945.969 357 931C352.128 929.132 346.371 927.966 342.39 924.363C339.544 921.787 337.847 916.003 333 917.368C320.784 920.808 326.401 936.093 321.397 944C317.637 949.939 310.379 953.447 307.514 960C303.349 969.527 305.043 993.627 309.433 1003C311.469 1007.35 316.784 1010.2 317.802 1015C318.788 1019.65 313.874 1023.47 313.445 1028C312.983 1032.9 318.329 1049.48 321.139 1053.73C329.109 1065.78 336.248 1059.11 347.999 1063.46C354.465 1065.85 356.665 1073.6 363.015 1075.81C369.822 1078.17 379.809 1072.06 387 1072.21C394.555 1072.36 403.57 1079.86 412 1081z"/>
</svg>
