<?xml version="1.0" standalone="yes"?>
<svg xmlns="http://www.w3.org/2000/svg" width="945" height="1450">
<path style="fill:#010101; stroke:none;" d="M0 0L0 1450L945 1450L945 0L0 0z"/>
<path style="fill:#ffffff; stroke:none;" d="M711 400C709.29 402.924 707.903 406.861 704.787 408.566C699.655 411.375 693.121 408.335 688.144 411.318C682.957 414.427 683.941 422.412 678.906 426.363C663.729 438.271 645 436.744 642 459C633.976 456.744 613.594 453.737 606.618 459.988C604.002 462.333 606.228 467.838 605.358 471C601.401 485.385 594.363 492.888 603 507C599.837 508.58 597.058 510.397 594.785 513.174C592.195 516.336 586.158 521.972 585.647 526.039C584.321 536.574 602.386 539.429 601.852 552C601.467 561.044 592.961 560.463 589.028 566.529C585.539 571.911 590.459 581.57 592 587C607.909 583.194 607.297 564.293 618.213 555.702C623.881 551.241 633.924 551.451 637.142 543.957C640.385 536.405 635.142 526.492 638.313 519.184C640.949 513.11 649.919 511.988 651.682 504.996C653.763 496.74 643.657 485.997 648.604 479.189C653.423 472.558 664.948 475.451 672 473.367C675.723 472.266 678.977 469.579 683 469.677C686.345 469.758 689.629 471.75 693 471.136C700.443 469.781 704.549 460.316 711 456.8C722.139 450.729 733.695 453.181 745 446.453C756.276 439.742 762.54 436.033 760.246 422C759.733 418.861 759.567 414.316 756.57 412.434C750.959 408.908 740.41 410.443 734 409.83C724.526 408.924 718.686 405.234 711 400z"/>
</svg>
