<?xml version="1.0" standalone="yes"?>
<svg xmlns="http://www.w3.org/2000/svg" width="945" height="1450">
<path style="fill:#010101; stroke:none;" d="M0 0L0 1450L945 1450L945 0L0 0z"/>
<path style="fill:#ffffff; stroke:none;" d="M792 256L784.047 277L784.951 293.891L761.174 304.699L754.311 323.7L735.84 342.105L736.348 369L723.329 384.174L712 399C719.961 409.716 733.147 408.297 745 409.714C749.084 410.203 754.283 409.558 757.57 412.564C762.468 417.042 761.536 426.977 762.058 432.961C762.428 437.198 766.909 449.914 769.694 453.12C773.47 457.466 779.25 464.903 786 462.877C789.119 461.941 791.518 458.532 794.96 458.621C798.992 458.725 800.568 463.873 804.093 465.243C810.538 467.748 816.332 466.183 822.96 470.352C830.421 475.045 833.72 485.603 832.408 494C831.866 497.47 829.05 502.462 829.955 505.867C831.022 509.877 836.836 510.02 840 511.349C848.151 514.773 857.711 526.822 867.91 522.836C875.51 519.866 874.098 512.974 876.647 507C881.673 495.216 897.051 475.758 893.526 462.133C892.446 457.96 887.144 458.1 884.133 455.995C879.987 453.095 878.894 446.717 879.709 442C881.309 432.739 889.27 426.72 893.87 419C897.18 413.445 898.138 406.746 901.312 401C903.403 397.215 909.219 391.861 908.549 387.225C907.932 382.963 901.103 383.135 898 382.215C891.356 380.245 880.699 374.149 877.314 367.907C870.45 355.249 878.343 337.96 870.84 327.004C860.351 311.687 836.017 307.271 827.688 289C823.292 279.358 839.829 266.034 829.531 257.589C820.28 250.002 802.941 259.044 792 256z"/>
</svg>
