<?xml version="1.0" standalone="yes"?>
<svg xmlns="http://www.w3.org/2000/svg" width="1450" height="997">
<path style="fill:#010101; stroke:none;" d="M0 0L0 997L1450 997L1450 0L0 0z"/>
<path style="fill:#ffffff; stroke:none;" d="M909 605C910.71 615.668 922.21 619.71 923.714 632C925.808 649.117 912.777 655.613 904.251 667.004C899.82 672.922 897.836 681.179 895 688C905.492 691.094 930.423 692.303 916 710L925.895 710.269L941 720C942.599 716.103 943.932 710.715 947.278 707.965C955.244 701.418 967.888 701.841 973.852 692.985C978.767 685.685 973.192 674.028 972.529 666C972.046 660.137 972.815 651.919 973.302 646C973.532 643.216 975.943 640.08 975.184 637.299C974.479 634.714 970.428 633.058 968.799 630.943C965.239 626.319 964.269 623.571 958 623L961 612C954.667 609.576 943.937 612.194 939.192 608.181C933.233 603.142 945.171 598.524 942.392 592.279C940.64 588.342 935.927 589.926 933 591.266C924.561 595.131 917.083 600.517 909 605M907 718L907 719L910 720L899 731C907.027 732.314 904.332 741.484 902 747L890 743L890 750L883 755L882 755L878 747L879 742C876.819 742.421 874.987 742.914 873.039 744.059C857.724 753.064 879.251 759.206 880 767C893.916 769.889 901.85 749.741 914 746L914 738C906.499 729.344 923.801 729.904 928 730L928 729C921.78 725.403 922.397 717.702 914 719L913 716L907 718z"/>
</svg>
