<?xml version="1.0" standalone="yes"?>
<svg xmlns="http://www.w3.org/2000/svg" width="1450" height="997">
<path style="fill:#010101; stroke:none;" d="M0 0L0 997L1450 997L1450 0L0 0z"/>
<path style="fill:#ffffff; stroke:none;" d="M1069 786L1069 787C1075.99 787.945 1083.5 787.357 1089.69 792.086C1092.75 794.427 1091.89 798.505 1093.99 801.391C1096.6 804.971 1102.26 807.669 1106 809.931C1111.29 813.132 1122.95 815.383 1125.93 821.189C1128.12 825.465 1123.92 829.519 1121 832C1125.16 838.789 1132.17 834.351 1138 832C1134.27 813.965 1114.55 803.775 1108.97 786.17C1107.6 781.861 1114.65 778.137 1115.68 774C1120.15 756.199 1112.48 735.803 1091 742.421C1087.6 743.468 1082.04 742.345 1079.33 744.618C1075.33 747.972 1079.26 761.176 1079.62 766C1080.24 774.08 1075 781.181 1069 786z"/>
</svg>
