<?xml version="1.0" standalone="yes"?>
<svg xmlns="http://www.w3.org/2000/svg" width="1450" height="997">
<path style="fill:#010101; stroke:none;" d="M0 0L0 997L1450 997L1450 0L0 0z"/>
<path style="fill:#ffffff; stroke:none;" d="M1349 639L1348 643L1350 644L1351 644L1351 639L1349 639M1340 657L1336 660L1336 661L1341 669L1342 669L1345 657L1340 657M1369 662L1375 664L1369 662M1356 671C1357.65 682.193 1364.2 684.747 1375 685L1367 668L1356 671M1241 688C1239.38 692.352 1239.85 695.198 1245 695L1248 701C1249 695.254 1246.94 689.46 1241 688M1377 690L1380 695L1377 690M1296 694L1300 706L1303 698L1296 694M1312 723L1310 725L1310 726L1315 734L1317 734L1312 723M1203 731C1201.21 736.196 1202.16 744.392 1195 745.745C1190.73 746.551 1184.03 738.238 1180.04 743.603C1176.82 747.935 1184.16 754.094 1183.11 758.999C1181.6 766.075 1172.6 765.336 1170.93 771.109C1170 774.325 1172.34 777.85 1172.79 781C1173.7 787.339 1174.43 795.693 1174 802L1181 803L1193.92 817.043L1199 835C1201.6 831.714 1203.83 825.152 1207.23 823.024C1213.94 818.82 1220.93 820.386 1228 820.235C1234.65 820.093 1242.82 815.084 1243 826L1248 827L1253 824L1253 823C1242.92 814.694 1247.97 798.633 1260.01 794.622C1265.51 792.788 1266.22 797.39 1264 801L1264 802L1267 804C1273.88 795.453 1287.85 804.366 1297 807L1296 812C1299.59 811.273 1304.59 811.659 1303 816.899C1302.08 819.926 1298.81 821.048 1296.99 823.39C1293.24 828.219 1294.5 833.643 1296 839L1311 827.767L1332 832C1327.33 823.39 1326.52 814.315 1326.49 805C1326.47 799.43 1323.51 793.25 1332 795C1334.43 785.423 1334.37 778.115 1347 783C1351.16 778.219 1355.83 778.241 1360 783C1364.82 781.512 1380.22 769.501 1381 765L1388 767L1412 750L1412 749C1402.57 752.659 1395.09 755.279 1385 753C1387.63 745.456 1375.21 741.42 1369.21 743.909C1364.89 745.7 1362.31 751.484 1358 754C1360.25 770.81 1342.21 772.018 1329 769C1326.19 775.366 1322.59 777.509 1316 779L1320 786L1320 787L1302 793.121L1289 792L1290 776C1285.1 778.784 1277.36 781.132 1274.53 773.895C1273.42 771.066 1274.97 768.027 1273.5 765.209C1268.53 755.654 1262.25 753.19 1262 741L1244 748.191L1221.05 731.539L1207 738L1206 731L1203 731M1405 734L1405 735L1415 742C1423.92 735.545 1409.86 733.194 1405 734M1303 746L1303 748L1319 755C1317.16 750.474 1315.91 731.549 1307.58 739.807C1305.72 741.659 1304.95 744.147 1303 746M1154 757C1158.84 756.232 1161.85 754.471 1164 750C1158.11 750.021 1155.14 750.762 1154 757M1414 757C1417.98 757.91 1420.36 758.067 1422 754L1421 753L1414 757M1400 770L1399 777L1400 778L1409 780L1400 770M1282 827L1280 831C1282.67 830.253 1283.59 829.419 1282 827M1317 838L1329 849L1332 843L1317 838M1353 880C1349.92 883.45 1349.13 886.462 1350 891L1352 891L1353 880M1346 911C1345.52 914.046 1345.82 915.073 1349 915L1346 911z"/>
</svg>
