<?xml version="1.0" standalone="yes"?>
<svg xmlns="http://www.w3.org/2000/svg" width="1450" height="997">
<path style="fill:#010101; stroke:none;" d="M0 0L0 997L1450 997L1450 0L0 0z"/>
<path style="fill:#ffffff; stroke:none;" d="M1086 675L1082.95 694L1079 741C1089.78 745.037 1102.2 735.837 1111.83 745.144C1117.89 751.01 1119.83 767.285 1115.97 775C1114.2 778.541 1108.56 781.552 1109.46 786C1112.14 799.368 1127.2 811.515 1134.81 822C1138.79 827.482 1137.38 834.169 1140.51 839.687C1143.02 844.099 1148.85 848.223 1152 853C1168.43 846.976 1146.42 829.614 1149 821C1140.03 817.24 1133.94 811.048 1136 801L1134.94 786L1130.21 757L1123 735C1139.1 744.35 1153.66 740.138 1170 735.634C1173.49 734.671 1177.44 735.6 1180.79 734.106C1186.86 731.397 1192.92 717.461 1192.36 711C1191.95 706.283 1186.83 703.968 1184.9 700C1181.77 693.554 1190.27 684.477 1180.94 680.089C1171.66 675.728 1164.26 682.137 1155.1 674.335C1149.56 669.612 1146.3 663.435 1141.44 658.703C1138.92 656.258 1134.98 656.35 1132.21 654.273C1127.59 650.801 1127.44 648.045 1121 648.001C1116.96 647.973 1111.72 647.17 1108 649.028C1095.97 655.045 1098.13 669.899 1086 675M1154 757C1158.84 756.232 1161.85 754.471 1164 750C1158.11 750.021 1155.14 750.762 1154 757z"/>
</svg>
