<?xml version="1.0" standalone="yes"?>
<svg xmlns="http://www.w3.org/2000/svg" width="1450" height="997">
<path style="fill:#010101; stroke:none;" d="M0 0L0 997L1450 997L1450 0L0 0z"/>
<path style="fill:#ffffff; stroke:none;" d="M687 550C688.603 558.512 685.2 560.385 683.318 568C682.478 571.398 684.137 575.81 681.512 578.643C678.561 581.828 673.815 579.156 671.089 583.149C667.539 588.347 667.247 595.474 663.648 600.895C659.87 606.586 648.574 610.476 642 611.505C633.59 612.821 629.563 601.302 620 604.589C612.008 607.336 609.518 615.08 604.61 620.911C597.656 629.17 579.994 636.712 586.603 650.606C588.202 653.968 593.153 654.398 595.911 656.51C600.377 659.931 604.009 665.006 608 669L609 669L618 659L625 663L615 672L633 682L633 683C628.957 686.854 628.754 690.748 630 696C641.737 691.22 647.532 703.251 658 700L656 696L656 695C666.288 689.387 701.521 678.138 689 661L696 653L697 653C699.45 655.843 703.037 658.387 704.382 662.001C706.097 666.609 701.46 673.786 708.059 676.083C710.693 677 713.007 675.625 714.891 673.851C720.836 668.253 722.929 660.695 730.209 655.707C735.965 651.762 738.099 657.177 737 662L738 663C745.004 661.002 751.821 657.725 758.996 656.324C761.105 655.912 765.149 656.06 765.248 652.996C765.367 649.34 757.535 647.875 755.407 645.471C750.445 639.863 756.916 632.303 748.829 626.603C744.543 623.582 733.744 626.445 732.4 619.941C731.566 615.909 735.23 611.937 735.783 608C736.294 604.367 734.56 600.521 735.638 597C736.637 593.738 739.43 591.536 739.812 588C740.464 581.976 738.059 577.211 739.914 571C741.7 565.016 747.357 560.979 748.697 555C750.424 547.295 745.105 540.764 737.043 541.402C727.92 542.124 728.077 559.82 717.996 558.552C708.224 557.322 695.703 546.841 687 550M689 678C685.753 681.826 680.765 683.053 677.603 686.637C672.846 692.031 676.003 700.049 666 701L665 707L673 705L675 712C681.395 709.337 691.128 705.62 694.972 699.486C698.36 694.079 696.151 689.714 702 685L689 678z"/>
</svg>
