<?xml version="1.0" standalone="yes"?>
<svg xmlns="http://www.w3.org/2000/svg" width="1450" height="997">
<path style="fill:#010101; stroke:none;" d="M0 0L0 997L1450 997L1450 0L0 0z"/>
<path style="fill:#ffffff; stroke:none;" d="M775 28L762 35L759 30L761.057 42.8958L755 53L749 51L741 55C741.707 59.9686 745.217 63.7552 740 67C739.175 64.1733 736.862 61.8476 736.367 58.9606C735.698 55.051 739.277 51.1721 735.677 47.9661C717.2 31.5095 688.618 56.5047 698 77L700 74L707 77L706 83L692 88L693 82L686 79L687 84C672.911 84.0109 666.799 88.5302 666 102L667 103C672.728 101.382 682.169 99.0134 687.363 103.603C690.634 106.494 691.108 111.534 694.39 114.487C698.415 118.107 704.131 117.197 704.591 124.004C705.097 131.49 698.955 139.853 697 147C703.345 149.66 713.236 156.147 716.861 162.105C719.164 165.89 719.074 171.19 722.638 174.257C727.766 178.67 743.34 176.574 741.712 188.961C740.733 196.415 722.778 205.674 716 206.645C713.263 207.037 710.697 205.58 708.004 206.646C700.656 209.555 701.24 218.874 694.895 222.443C673.366 234.553 662.084 206.579 658 190C651.198 191.083 638.049 200.843 633.938 206.518C631.072 210.474 632.024 214.146 626.981 216.557C618.705 220.514 615.185 216.836 607 217.024C601.37 217.154 598.19 222.235 593 222.627C586.358 223.128 579.684 219.715 573 221L578 227C574.717 234.036 571.607 233.16 565 232C566.064 237.158 558.31 254.388 551.985 254.535C545.644 254.682 544.029 246.168 536 248C538.549 261.134 547.01 259.264 558 264L557 268L553 267L549 270L549 275L552 274L545 285L544 285L532.039 286.485L521 282L523 285L523 286L523 294L500 289C495.624 290.163 493.32 290.273 490 287C480.361 291.087 484.625 301.377 481.142 308.892C478.383 314.845 460.101 322.41 454 322L457 339C462.992 338.983 468.406 335.368 474 335.468C478.606 335.551 494.44 345.215 497.058 349.213C500.185 353.989 496.381 358.308 495.391 363C494.449 367.468 496.588 371.609 496.09 376C495.502 381.185 491.086 385.822 490.952 390.981C490.768 398.113 503.7 396.256 508 395.37C511.533 394.642 514.137 393.117 517 391C520.178 404.412 524.595 420.215 531.796 431.941C534.891 436.979 541.556 433.818 543.308 440.019C545.504 447.795 542.011 460.257 540.519 468C539.604 472.748 539.826 488.868 546.059 490.018C551.676 491.054 559.212 484.554 564 482.262C568.184 480.26 573.723 480.32 577.536 477.977C589.172 470.829 596.692 462.163 610 457C611.106 463.796 617.205 465.703 621.676 459.775C626.107 453.902 625.2 448.238 627.811 442C631.114 434.107 636.103 428.486 639.93 421.61C641.287 419.172 639.848 416.348 639 414C647.872 409.743 650.971 398.576 662 403C669.355 389.737 669 381.709 669 367C669 361.251 670.134 354.139 666.991 349.015C662.655 341.947 653.032 342.473 650.61 333.996C647.992 324.831 657.418 321.859 657.762 314C657.928 310.215 654.271 306.505 653.112 303C651.799 299.029 652.826 295.061 653 291C662.17 294.736 667.135 291.238 676 291.938C684.898 292.64 695.283 299.082 704.57 295.307C707.212 294.233 707.383 290.326 708.85 288.209C712.455 283.01 716.044 278.574 719.351 273C722.109 268.352 726.531 264.785 729.026 260C731.846 254.592 731.985 247.358 735.026 242.213C738.489 236.355 742.832 235.798 743.71 228C744.524 220.763 741.452 213.039 740 206C744.409 204.943 755.219 203.031 758.401 200.141C760.937 197.838 760.939 194.473 764.059 192.323C772.822 186.285 783.254 181.825 787.034 171C789.984 162.551 788 150.885 788 142C806.534 141.934 803.875 126.741 802.285 114C801.595 108.477 801.683 100.992 797.995 96.4189C793.362 90.6756 783.904 91.916 782.047 82.9992C780.747 76.7549 783.281 68.6047 782.96 62C782.613 54.8726 778.671 48.8138 777.04 42C775.944 37.421 776.795 32.2781 775 28M529 193C533.67 191.049 535.047 187.897 534 183C528.932 184.823 527.91 187.907 529 193M440 189C436.076 195.904 435.407 200.852 439 208C445.478 203.629 451.687 201.871 454 194C447.919 193.983 444.741 192.782 440 189M556 204L553 194C545.752 194.4 536.828 206.82 542.862 213.577C549.53 221.045 555.159 208.513 556 204M495 203L491 205L492 208C494.85 207.063 495.983 205.988 495 203M522 219L521 222L522 219M518 242L523 243L524 239L523 238L518 242M474 272L473 277L479 277L474 272M547 277C539.873 275.333 543.578 283.022 547 277z"/>
</svg>
