<?xml version="1.0" standalone="yes"?>
<svg xmlns="http://www.w3.org/2000/svg" width="1450" height="997">
<path style="fill:#010101; stroke:none;" d="M0 0L0 997L1450 997L1450 0L0 0z"/>
<path style="fill:#ffffff; stroke:none;" d="M105 331C110.896 346.822 96.3006 351.578 83 349C80.8495 356.294 83.7726 358.785 90 362C95.336 349.308 105.958 356.871 113.062 349.361C118.979 343.105 111.108 332.965 105 331M161 353C160.116 358.467 156.015 360.524 151 362L152 356L149 355L150 352L147 351L146 354C142.071 349.488 139.38 344.491 133 344C131.788 355.542 122.299 359.246 126.167 372C127.156 375.261 126.292 378.205 130 379L129 386L125 387L127 394L120 393C119.113 397.594 121.082 402.795 118.015 406.812C115.098 410.634 105.232 409.603 107.157 416.961C108.79 423.199 117.558 425.817 121.491 430.321C127.334 437.014 129.316 443.844 134.008 450.826C136.944 455.195 142.221 457.396 145.786 461.174C153.566 469.417 149.718 478.056 146 487C148.971 488.568 153.134 489.534 155.258 492.278C159.311 497.514 159.847 518.315 154 522C155.918 533.831 140.282 547.759 129 547L132 554L135 553C135.638 563.664 128.025 566.686 119 566L120 561L105.028 565.654L100 590C102.263 598.979 111.066 601.219 108 611L117 615L117 616L112 618L117 621C117.596 624.71 118.313 626.807 122 628L122 634C123.797 633.075 126.323 630.459 128.421 630.608C135.822 631.134 141.926 644.761 141.74 651C141.546 657.476 136.458 663.826 136.708 669.946C136.899 674.624 143.672 676.894 144.652 682C145.933 688.677 140.457 693.578 140.38 700C140.336 703.619 139.774 709.541 140.93 712.911C141.805 715.463 144.384 717.252 144.625 720.039C145.262 727.405 140.859 737.364 138 744C151.273 745.482 140.137 759.865 155 760L152 756C154.391 749.346 161.626 748.923 167 745.225C178.875 737.054 190.427 726.849 200.999 717.093C206.642 711.886 212.585 707.511 211 699C218.261 698.759 218.048 694.241 213 690L213 689C217.643 685.473 218.382 680.575 221.638 676C226.157 669.65 242.955 662.229 236 653L236 652L249 638L254.318 656.821L268 660C271.896 652.692 288.155 635.372 276 631C282.656 623.097 298.468 630.428 302.883 622.683C304.773 619.367 301.978 614.588 302.313 611C302.881 604.918 306.298 600.462 304.351 594C300.741 582.015 287.862 579.285 283.367 568.996C279.561 560.285 284.813 554.987 286.567 547C287.555 542.503 286.378 538.553 288 534L298.213 542.382L309 542C307.801 536.189 306.86 529.154 303.772 524.015C301.376 520.027 295.812 517.333 297.323 511.999C298.835 506.656 304.208 504.094 307.351 499.91C311.964 493.771 313.568 487.44 320 482.39C327.076 476.835 339.358 474.99 345.397 469.107C350.777 463.866 353.995 448.31 354 441C346.188 440.746 344.653 433.15 336.996 433.005C321.797 432.716 302.948 446.398 289.043 437.647C280.824 432.475 284.021 421.404 278.034 414.303C275.439 411.225 271.203 411.586 268.039 409.411C263.698 406.427 261.195 401.38 256.961 398.16C252.831 395.019 247.1 394.073 243.379 390.581C232.176 380.068 225.44 365.478 215.174 354C210.569 348.852 205.489 342.158 198 341.093C193.588 340.466 189.826 345.151 186 346.734C177.97 350.055 169.51 351.559 161 353M132 526L132 531L136 530L135 526L132 526M47 608L50 607L44 592L43 592L37 596L35 586C27.6271 588.711 30.5815 599.221 37.2593 601.527C39.5858 602.33 42.1525 600.118 44.2724 601.745C45.9964 603.068 46.4285 606.056 47 608M224 676L221 684L226 686C228.814 681.186 230.392 677.771 224 676M100 728C104.322 727.106 106.106 725.322 107 721C100.987 719.099 100.064 722.619 100 728M114 743C112.49 749.344 117.165 763.981 126 759L127 759L131 762L132 776L139 773L141 778L135 783C150.227 786.785 157.58 776.236 150 762C137.632 762.93 148.033 744.047 138 750L137 747L129.024 754.2L115 751L114 743z"/>
</svg>
