<?xml version="1.0" standalone="yes"?>
<svg xmlns="http://www.w3.org/2000/svg" width="1450" height="997">
<path style="fill:#010101; stroke:none;" d="M0 0L0 997L1450 997L1450 0L0 0z"/>
<path style="fill:#ffffff; stroke:none;" d="M992 399C987.336 387.797 979.664 368.616 964 371.232C958.557 372.141 955.129 377.225 950 378.982C946.328 380.24 938.808 377.69 936.703 381.322C931.705 389.943 934.06 399.785 933.995 409C933.931 418.139 931.93 426.899 934.404 436C935.702 440.773 939.72 444.202 941.24 448.83C943.162 454.682 936.039 458.988 940.934 465.722C944.655 470.84 953.84 470.381 959 473.697C961.467 475.282 963.761 478.148 967 477.596C970.818 476.947 974.848 473.126 978 471C979.709 475.105 982.978 479.501 983.309 484C983.633 488.386 981.154 492.41 983.033 496.787C985.288 502.038 991.91 501.123 995.396 504.727C998.629 508.069 995.325 513.104 995.718 517C995.997 519.764 998.327 521.988 998.417 524.714C998.545 528.555 993.924 530.95 993.817 535C993.683 540.115 991.85 549.323 992.677 553.911C993.284 557.28 996.26 559.395 996.333 563.004C996.633 577.865 995.332 593.346 1003.8 606.891C1006.44 611.116 1011.29 611.33 1015 614.279C1021.21 619.214 1026.32 628.386 1034 631.091C1040.05 633.224 1045.53 626.875 1050.64 633.134C1059.1 643.489 1049.39 660.293 1048.56 671C1048.05 677.698 1053.61 683.05 1060 683.748C1064.79 684.27 1070.12 683 1075 683L1072 697L1081 701C1082.59 692.441 1088.39 683.068 1085 675C1097.64 669.696 1096.36 652.632 1110 647.603C1133.05 639.107 1143.59 669.002 1160 677.431C1167.94 681.509 1177.91 674.393 1184.44 682.329C1188.76 687.59 1184.39 692.391 1184.78 698C1185.1 702.514 1190.04 706.038 1193 709L1194 709C1206.85 692.282 1209.29 672.289 1204.57 652C1203.21 646.124 1198.79 640.899 1198 635C1197.01 627.579 1202.27 619.843 1200.61 612C1198.77 603.307 1192.28 595.333 1192.68 586C1193.3 571.017 1206.54 573.544 1212 561L1219 570L1230 541L1220 538L1220 537L1231 534L1231 532C1225.48 527.182 1215.86 510.014 1222 504C1220.01 498.809 1216 499.014 1211 499C1212.24 503.493 1213.85 507.504 1210.92 511.787C1204.51 521.167 1186.68 523.164 1181.43 511.996C1175.94 500.298 1189.7 485.397 1193 474C1184.52 474.001 1168.68 478.549 1163 472C1155.75 474.019 1145.89 472.406 1144.07 463C1143.13 458.145 1146.53 452.961 1145.59 448.04C1144.75 443.634 1139.51 441.778 1137.45 437.96C1133.1 429.867 1137.91 423.417 1141 416C1119.82 403.928 1134.75 386.604 1132 369C1128.05 370.259 1123.31 374.646 1119.04 373.917C1112.59 372.818 1111.59 363.801 1109.52 359.015C1107.58 354.522 1102.03 349.323 1097.71 347.029C1093.79 344.938 1088.35 348.237 1084 348C1085.81 339.234 1097.12 315.27 1085 312C1086.71 303.176 1085.21 295.37 1086.23 287C1087.7 274.906 1093.64 266.706 1090 254C1088.75 249.623 1087.73 240.665 1083.58 238.042C1080.88 236.333 1076.96 237.921 1074 237.921C1064.67 237.921 1052.27 239.112 1046.42 248.213C1042.58 254.178 1043.88 261.995 1040.01 267.961C1036.49 273.383 1029.86 275.651 1026.35 281.09C1015.34 298.162 1040.91 312.694 1038.33 330C1036.88 339.667 1025.05 342.827 1019.42 350.001C1007.63 365.046 1004.45 384.358 992 399z"/>
</svg>
