<?xml version="1.0" standalone="yes"?>
<svg xmlns="http://www.w3.org/2000/svg" width="1450" height="997">
<path style="fill:#010101; stroke:none;" d="M0 0L0 997L1450 997L1450 0L0 0z"/>
<path style="fill:#ffffff; stroke:none;" d="M1031 766C1032.75 777.038 1046.3 780.907 1052 790C1064.8 786.499 1075.66 776.651 1077.79 763C1078.94 755.618 1074.98 749.261 1080 743L1080 742C1077.01 732.862 1078.76 718.794 1080 709C1073.26 709.2 1068.45 713.495 1062 714.87C1056.55 716.031 1051.34 712.303 1046 714.009C1039.57 716.069 1040.64 721.45 1036.49 725.273C1030.2 731.066 1020.83 734.842 1014.65 740.727C1005.04 749.884 1022.34 765.214 1031 766z"/>
</svg>
