<?xml version="1.0" standalone="yes"?>
<svg xmlns="http://www.w3.org/2000/svg" width="1450" height="997">
<path style="fill:#010101; stroke:none;" d="M0 0L0 997L1450 997L1450 0L0 0z"/>
<path style="fill:#ffffff; stroke:none;" d="M305 605C302.292 610.629 306.581 620.568 301.812 624.401C294.717 630.103 281.429 621.674 278 631C287.478 636.681 272.059 652.116 269 660L281 665C285.497 659.894 290.624 663.146 294.999 667.105C304.44 675.647 306.137 686.041 312.994 695.826C316.393 700.678 321.946 702.1 324 708L328 707L324 695C333.872 694.184 332.176 688.079 334 680L335 680C337.391 690.07 336.312 694.011 334 704L342 707.71L359 704C342.022 711.069 349.985 715.352 354 729L345 730L345 731L349 732C347.353 735.034 343.012 737.798 342.492 741.184C341.472 747.834 356.671 764.576 362 768C364.311 762.034 373.79 757.826 374.498 752.895C375.402 746.596 369.818 739.695 367.981 734C365.36 725.878 366.947 710.688 370.559 703.105C375.101 693.572 395.148 685.715 394.694 673C394.385 664.318 377.291 660.693 373 653L367 654C365.081 639.364 378.421 632.446 390 626L388 585L371 587.985L358.637 589.028L347.39 607.772L335 610.549L317.09 615.357L305 605z"/>
</svg>
