<?xml version="1.0" standalone="yes"?>
<svg xmlns="http://www.w3.org/2000/svg" width="1450" height="997">
<path style="fill:#010101; stroke:none;" d="M0 0L0 997L1450 997L1450 0L0 0z"/>
<path style="fill:#ffffff; stroke:none;" d="M471 534L469 542C466.759 540.415 464.548 538.707 461.998 537.637C444.981 530.491 446.749 553.325 436.892 558.348C429.02 562.359 420.773 557.384 413.109 561.709C407.911 564.642 410.267 570.617 406.436 574.272C402.086 578.422 394.406 577.051 390.423 582.214C387.492 586.012 391.387 589.966 391.617 594C392.321 606.309 385.977 613.914 391 626C380.313 631.056 364.241 639.452 368 653C373.89 652.811 374.319 657.026 378.518 660.062C383.062 663.348 395.767 665.385 395.311 673.424C394.617 685.654 376.589 693.208 371.559 702.39C361.784 720.239 373.412 737.476 376 755L385 754L384 739C388.087 737.568 388.459 733.988 389 730L390 730C391.597 737.74 389.045 747.023 398 749L401 745L389 762C401.195 766.159 401.578 754.106 409 748L416 754L402 768C409.333 766.693 415.942 759.061 422 766L417 765C420.436 774.346 439.151 772.688 440 762L457 757C462.856 743.798 472.786 747.934 483 743.706C490.126 740.756 494.377 734.403 502 732L502 730C495.138 723.281 496.773 711.929 507 711L508 704C492.407 694.944 482.47 704.345 467 704.753C462.038 704.884 456.745 701.298 452 700L461.106 685.816L463.279 672L475.564 654.637L484.437 648.61L489.124 637L500.581 612L497 591C501.33 591.198 505.757 593.465 510 593.221C519.734 592.664 521.064 582.398 522 575L484.214 552.536L471 534z"/>
</svg>
