<?xml version="1.0" standalone="yes"?>
<svg xmlns="http://www.w3.org/2000/svg" width="1450" height="997">
<path style="fill:#010101; stroke:none;" d="M0 0L0 997L1450 997L1450 0L0 0z"/>
<path style="fill:#ffffff; stroke:none;" d="M1063 797L1070 807C1073.43 801.588 1068 797.914 1063 797M1079 822L1077 827C1088.66 831.846 1081.72 818.272 1082 813C1077.95 814.279 1075.29 818.74 1079 822M1041 825C1041.47 831.043 1042.13 834.212 1036 837L1034 833L1026 835C1030.18 842.372 1040.55 842.458 1048 841L1047 833L1044 825L1041 825M1137 833L1123 837L1126 861L1145 863L1151 854L1137 833M1052 899L1052 900C1055.62 902.148 1059.31 909.535 1063 904C1074.79 912.607 1072.95 901.257 1077.7 895.279C1080.36 891.919 1085.41 892.674 1088.07 889.487C1093.03 883.547 1095.03 874.875 1102.21 869.858C1106.78 866.664 1116.29 867.173 1122 865C1118.69 857.271 1109.18 850.984 1102 847L1101 850C1097.14 848.375 1089.31 836.735 1086.5 838.176C1077.18 842.945 1094.56 856.742 1092.86 863C1091.06 869.657 1083.91 871.637 1079.88 876.35C1075.71 881.239 1076.55 889.168 1072.48 893.49C1067.06 899.256 1058.75 897.448 1052 899M1126 873L1126 884L1128 884L1126 873M1171 899L1186.98 889.882L1204.39 909.99L1223 910.103L1238 924L1239 924L1252 913L1242.19 913.917L1235.49 903.67L1217 887C1210.06 886.334 1207.7 878.338 1200.02 877.438C1194.97 876.846 1192.16 883.133 1188 885.216C1179.96 889.242 1166.49 883.725 1171 899M1237 878C1233.31 880.32 1232.3 881.869 1234 886L1235 886L1237 878M984 914C989.607 933.363 1007.51 919.665 1020 916C1018.96 908.308 1008.26 894.107 999.149 899.458C995.057 901.861 997.397 906.428 995.067 909.852C992.655 913.396 987.762 913.101 984 914M974 899L971 906L975 909L976 909C978.792 904.553 978.129 902.177 974 899M1071 917L1069 920C1071.73 920.083 1072.87 919.371 1071 917M1150 932C1141.44 944.122 1146.69 950.122 1147 963C1139.06 964.075 1138.39 968.198 1133 973L1136 979C1141.07 977.058 1149.2 973.551 1151.06 967.985C1152.36 964.097 1149.65 960.768 1149.25 957C1148.77 952.397 1150.77 947.374 1152 943L1150 932M1053 954L1049 959C1051.75 957.995 1053.68 957.113 1053 954z"/>
</svg>
