<?xml version="1.0" standalone="yes"?>
<svg xmlns="http://www.w3.org/2000/svg" width="1450" height="997">
<path style="fill:#010101; stroke:none;" d="M0 0L0 997L1450 997L1450 0L0 0z"/>
<path style="fill:#ffffff; stroke:none;" d="M597 170L595 170L580 190L580 191L584 192L581 199L588 198C588.07 203.865 589.376 205.46 595 207L587 220C594.993 224.161 596.725 218.91 604 216.564C612.883 213.7 618.292 221.344 627.856 215.468C631.391 213.295 631.137 209.311 633.564 206.326C636.685 202.487 650.283 190.873 654.96 190.211C660.543 189.422 660.251 198.579 661.189 202C663.149 209.149 672.059 221.614 679.039 224.513C693.989 230.721 697.913 212.864 706.914 206.829C710.524 204.409 714.081 206.959 718 205.605C726.978 202.503 734.541 196.621 742 191C740.811 185.332 738.176 178.582 732 176.692C728.543 175.634 725.415 177.325 722.39 174.562C718.494 171.004 718.691 165.457 715.861 161.39C711.656 155.346 702.705 149.792 696 147C698.633 140.211 705.006 130.467 703.64 123.019C702.606 117.377 696.991 118.1 693.637 114.581C687.379 108.014 681.197 95.3938 669.213 103.368C660.612 109.091 668.057 120.552 663.941 128.957C657.836 141.424 644.045 144.276 634.637 152.728C629.434 157.402 627.841 165.53 623.363 170.786C617.853 177.253 602.18 175.89 597 170z"/>
</svg>
