<?xml version="1.0" standalone="yes"?>
<svg xmlns="http://www.w3.org/2000/svg" width="1450" height="997">
<path style="fill:#010101; stroke:none;" d="M0 0L0 997L1450 997L1450 0L0 0z"/>
<path style="fill:#ffffff; stroke:none;" d="M1001 667C998.782 684.456 990.474 682.08 978.015 689.995C972.781 693.319 970.039 698.428 964 700.767C956.014 703.861 939.821 708.895 942.248 720.956C943.901 729.167 959.145 727.446 963 736L967 735C963.603 753.704 984.986 745.586 993.891 750.559C999.047 753.438 1001.06 763.552 1002 769C990.725 771.46 1003.12 785.643 1007 776L1004 778C1003.87 774.228 1004.66 768.123 1010.02 769.201C1014.75 770.155 1019.1 775.414 1023 778.073C1031.19 783.66 1041.54 789.986 1051 793C1051.28 785.889 1045.14 782.239 1040 778.332C1032.61 772.721 1018.73 763.241 1014.56 754.999C1007.63 741.303 1018.04 740.994 1025.71 732.96C1028.9 729.626 1033.29 727.65 1036.27 724.441C1040.45 719.941 1039.73 714.904 1047 713.14C1052.39 711.832 1057.46 715.394 1063 713.945C1068.96 712.387 1073.79 708.416 1080 708C1081.27 699.796 1074.65 701.84 1072.36 695.787C1071.06 692.36 1075.57 688.773 1073.69 685.603C1071.4 681.755 1060.9 685.193 1057 683.644C1051.26 681.364 1049.83 673.746 1044.87 672.318C1036.31 669.855 1026.54 673.434 1018 673.096C1012.37 672.874 1006.2 669.018 1001 667M967 755L971 760L967 755z"/>
</svg>
