<?xml version="1.0" standalone="yes"?>
<svg xmlns="http://www.w3.org/2000/svg" width="1450" height="997">
<path style="fill:#010101; stroke:none;" d="M0 0L0 997L1450 997L1450 0L0 0z"/>
<path style="fill:#ffffff; stroke:none;" d="M837 511C832.242 512.36 827.831 515.267 823 516.276C820.051 516.893 816.896 515.718 814.152 517.333C808.961 520.388 813.278 524.661 817 526C814.383 532.242 811.082 537.053 804 538C804 547.246 806.595 562.232 795 565.833C787.517 568.156 781.36 553.763 774.84 565.08C773.937 566.649 773.498 568.281 773 570C765.297 567.494 752.555 560.705 744.394 564.603C736.565 568.343 740.958 580.972 740.678 587C740.498 590.882 737.137 593.328 736.332 597C735.603 600.325 737.111 603.656 736.748 607C736.296 611.157 731.819 615.661 732.955 619.852C734.331 624.924 743.301 623.12 746.985 625.027C755.587 629.479 755.022 636.956 754 645L773 647C773.574 650.472 775.814 653.645 779.868 651.727C783.872 649.833 785.786 644.672 790.004 642.403C796.641 638.833 805.807 640.357 812.7 637.397C816.221 635.884 817.694 631.327 821.975 631.296C825.137 631.272 827.989 634.154 831 635L818 649C828.43 654.15 826.312 646.287 833.278 643.477C839.67 640.898 844.273 646.517 851 640C852.209 647.265 857.723 644.388 863 644L861 648L866 650L866 651C859.421 653.238 855.876 658.504 854 665C860.12 665.513 861.355 659.962 866.576 658.665C871.823 657.362 882.819 665.28 884 670C887.054 672.107 886.691 675.585 883.697 678.006C879.472 681.422 873.38 681.313 869.039 684.513C862.287 689.491 858.461 697.741 852 703C854.005 716.471 839.97 716.871 830 717C832.435 725.79 841.794 717.974 848 724C856.818 722.339 867.688 719.714 871 731C876.616 729.397 879.876 728.136 881 722L878 723C877.09 718.634 875.143 717.331 871 716L870 719L861 712L878.829 705.272L891 694L890 687L894 688C897.734 681.577 898.833 673.972 903.251 668C910.785 657.814 921.914 652.338 922.945 638C923.387 631.857 922.733 622.961 918.697 618.043C916.013 614.773 907.206 611.612 909.333 606.181C911.964 599.46 927.669 592.97 934 590.302C936.891 589.085 940.912 588.273 942.968 591.423C946.267 596.479 937.998 602.153 937 607L962 611L959 622C965.196 623.364 965.617 626.175 969.133 630.853C970.804 633.077 974.496 633.83 975.609 636.313C976.818 639.01 974.564 642.3 974.228 645C973.494 650.887 973.102 659.059 973.261 665C973.472 672.902 976.004 681.127 977 689C991.038 685.17 999.318 681.88 1000 666C1012.69 670.921 1019.76 671.001 1033 671C1036.84 671 1043.23 672.195 1046.58 669.972C1053.42 665.427 1052.94 651.766 1051.67 645C1050.99 641.359 1052.74 636.359 1050.38 633.279C1045.77 627.261 1039.5 633.999 1034 631.639C1027.73 628.945 1022.92 621.604 1018 617.055C1009.79 609.466 1002.41 609.247 998.785 597C995.111 584.58 996.569 574.243 995.602 562.039C995.305 558.288 991.65 555.906 992.027 551.996C993.493 536.776 999.616 522.142 995.667 507.144C994.244 501.738 985.07 502.148 982.438 496.895C980.242 492.515 982.816 488.455 982.613 484C982.422 479.802 979.582 475.801 978 472L966.286 478.312L958.996 474.084L939.65 464.892L940.698 449L933.404 435L932 394C926.868 395.98 919.566 400.45 914 399.984C903.396 399.095 890.344 386.025 883 401C878.653 393.261 872.393 392.872 866.279 387.363C863.045 384.449 863.341 379.679 860.348 376.649C857.129 373.39 851.945 373.472 849.879 368.895C847.951 364.623 848.823 348.615 841.945 348.998C834.957 349.387 831.238 359.525 829.637 365C828.008 370.568 823.019 373.577 821.685 379.015C819.931 386.164 823.65 392.954 823.679 400C823.698 404.768 818.845 407.937 820.608 413C822.745 419.136 832.202 423.292 832.442 430C832.819 440.545 821.257 439.271 818.693 446.329C817.183 450.486 820.911 454.861 820.826 459C820.727 463.76 817.397 468.191 817.719 472.996C818.005 477.25 821.997 479.313 823.401 483.039C827.236 493.215 831.317 501.365 837 511M828 666C822.893 664.096 816.41 661.09 811.019 663.382C806.122 665.463 803.98 673.395 809.314 676.562C822.706 684.514 838.442 658.988 848 653L848 651C837.462 648.616 828.097 655.318 828 666M788 692L774 690L774 691L784.571 694.652L799 709L798 720C800.36 719.089 806.575 717.815 807.079 714.827C807.585 711.825 796.63 704.599 794.56 701.625C791.562 697.317 794.849 693.463 795.096 689C795.529 681.185 790.946 676.887 797 670C793.161 664.741 787.889 663.059 786.393 671.004C785.079 677.988 787.976 685.025 788 692M862 674L860 678L862 674M811 718L811 719L815 719L811 718M780 751L773 755L779 763C784.564 760.071 783.606 755.378 780 751z"/>
</svg>
