<?xml version="1.0" standalone="yes"?>
<svg xmlns="http://www.w3.org/2000/svg" width="1450" height="997">
<path style="fill:#010101; stroke:none;" d="M0 0L0 997L1450 997L1450 0L0 0z"/>
<path style="fill:#ffffff; stroke:none;" d="M192 265C190.999 268.262 190.844 272.063 188.427 274.697C185.809 277.55 181.712 277.707 179.498 281.133C177.256 284.604 179.117 287.034 178.512 290.576C177.391 297.15 168.735 300.702 163 301L158 312C167.017 315.975 174.104 320.468 177 308C171.879 303.781 174.234 298.663 181.001 298.359C189.578 297.973 192.611 303.519 200.004 304.79C211.692 306.8 218.094 302.944 229 301C230.302 310.663 239.109 322.866 248 327L243 330L244 335C228.188 331.736 212.796 331.868 198 339L198 340C218.849 352.169 227.012 372.674 242.9 389.581C246.484 393.395 252.76 394.625 256.985 397.9C261.09 401.081 263.659 406.409 268.09 409.012C270.983 410.711 274.808 410.25 277.363 412.589C286.84 421.268 280.18 437.45 296 439.786C310.3 441.898 323.347 430.767 337.996 432.059C344.35 432.619 346.784 442.408 353.675 439.396C361.808 435.841 361.221 423.209 370.004 419.367C379.298 415.302 387.572 424.777 396 417.867C400.646 414.057 406.596 409.876 410.031 404.911C412.701 401.051 413.312 396.025 416.074 392.278C418.075 389.564 421.512 388.557 423.652 385.867C428.301 380.022 434.346 370.439 442.004 368.184C455.027 364.349 453.274 387.857 462.09 390.578C467.177 392.148 471.928 382.519 476.004 380.457C482.762 377.037 487.13 381.332 493 384L494.405 364L496.566 349.39L484 341.402L475 335.943L456 340C455.914 329.559 453.85 318.047 441 321L440 316L425 321L424 318C415.856 327.779 407.695 316.382 398 313L394 318L399 332L389 334L388 334C382.671 327.461 382.106 312.18 374 309C367.194 324.572 345.651 342.22 332.008 322.586C328.102 316.965 329.216 311.141 328.059 305C326.981 299.286 323.954 294.378 322 289C312.143 293.982 307.337 294.062 299 287L298 287C286.677 290.047 259.124 274.612 255 294C244.364 294 228.979 296.424 220.318 288.351C216.947 285.209 218.662 280.098 214.772 277.144C208.287 272.222 199.021 269.781 192 265M374 277C369.657 281.867 364.802 282.845 361 277L353 275C352.876 286.94 355.803 301.23 369 304.952C375.288 306.726 381.724 304.945 388 305C384.822 291.738 387.711 288.478 398 279L396 288C404.829 283.915 410.931 282.198 421 282C420.177 286.323 421.751 287.661 426 288L421 270C405.767 268.798 387.999 287.486 374 277M430 287L432 295L437 293L430 287M422 311L421 315L422 311z"/>
</svg>
