<?xml version="1.0" standalone="yes"?>
<svg xmlns="http://www.w3.org/2000/svg" width="1450" height="1088">
<path style="fill:#010101; stroke:none;" d="M0 0L0 1088L1450 1088L1450 0L0 0z"/>
<path style="fill:#ffffff; stroke:none;" d="M1104 355C1098.18 372.863 1081.59 389.201 1089 409C1093.27 407.203 1099.51 400.198 1104.28 401.595C1115.2 404.791 1115.32 420.263 1116.17 429C1116.47 432.1 1118.31 436.658 1116.8 439.61C1115.56 442.028 1112.32 443.024 1110 444C1111.74 451.572 1115.05 458.516 1110.86 465.985C1108.53 470.148 1104.61 472.357 1103 477C1115.84 476.848 1126.03 464.102 1140 463.213C1145.52 462.862 1154.61 466.191 1159.06 461.262C1164.69 455.028 1162.72 442.699 1170.39 436.858C1178.54 430.656 1187.14 444.321 1192.93 435.867C1196.2 431.08 1195.84 424.844 1199.02 420C1201.77 415.797 1208.67 411.936 1209.59 406.911C1212.1 393.158 1196.04 371.52 1182 374L1185 388L1164 398L1165 392C1156.79 392.347 1153.33 390.467 1146 387L1142 364L1150 363L1150 362C1135.92 356.051 1114.5 364.595 1104 355z"/>
</svg>
