<?xml version="1.0" standalone="yes"?>
<svg xmlns="http://www.w3.org/2000/svg" width="1450" height="1088">
<path style="fill:#010101; stroke:none;" d="M0 0L0 1088L1450 1088L1450 0L0 0z"/>
<path style="fill:#ffffff; stroke:none;" d="M932 161C935.243 172.858 945.417 181.278 947.131 193C950.382 215.231 974.416 233.365 995.722 218.062C1000.37 214.721 1001.36 205.939 1003.81 201C1012.44 183.625 1021.56 172.207 1014.01 152C1012.17 147.094 1008.72 134.993 1002.96 133.838C997.032 132.65 992.832 138.382 987.225 133.452C980.468 127.512 982.588 112.497 971 112.514C968.497 112.518 966.358 113.727 964 114.367C961.89 114.939 959.371 114.656 957.39 115.603C948.785 119.716 955.416 134.999 953.196 141.996C950.564 150.291 938.724 156.17 932 161z"/>
</svg>
