<?xml version="1.0" standalone="yes"?>
<svg xmlns="http://www.w3.org/2000/svg" width="1450" height="1088">
<path style="fill:#010101; stroke:none;" d="M0 0L0 1088L1450 1088L1450 0L0 0z"/>
<path style="fill:#ffffff; stroke:none;" d="M499 220C496.322 227.915 492.983 235.501 487.485 241.91C480.02 250.611 473.664 252.646 472 265C465.674 265.499 454.774 265.22 449.468 268.938C436.323 278.149 442.145 297.993 441.981 311C441.902 317.344 440.499 323.682 440 330L472 322.199L498 323.362L512 317.351L529 314.336L551 306C551 312.488 549.488 321.121 552.649 327C560.538 341.674 577.521 349.873 579.867 368C581.437 380.142 571.591 382.794 569.332 393C566.651 405.108 570.662 419.869 567.359 432C564.856 441.193 556.075 446.843 556.183 457C556.263 464.548 562.687 468.966 563.513 476.001C564.291 482.624 555.363 491.118 560.028 497.436C565.088 504.29 580.039 501.144 587 501C587 514.916 590.803 533.129 580.714 543.956C576.47 548.51 570.91 549.213 566.089 552.699C563.091 554.867 561.168 558.187 557.985 560.143C551.963 563.845 544.885 562.648 545.062 572C545.332 586.287 554.826 601.199 571 597.323C581.354 594.842 594.91 586.519 603.911 580.914C607.214 578.858 609.197 575.473 613.004 574.148C621.486 571.197 627.394 580.014 635 577.901C645.952 574.859 650.325 560.136 661 555.05C670.313 550.613 673.898 558.194 682 557.127C687.71 556.375 691.884 550.472 697 548.214C704.416 544.94 713.204 544.196 721 542C719.904 536.346 719.264 526.774 714.501 522.858C709.503 518.749 703.743 521.511 700.97 513.995C695.933 500.346 707.328 498.272 709.643 487C711.168 479.571 706.842 471.57 708.483 464C710.738 453.596 719.913 453.568 726.698 448.157C732.663 443.399 741.439 427.727 738.606 420.148C736.423 414.308 722.044 417.992 717 418C699.863 418.028 685.928 419.721 674.716 404C671.37 399.308 671.536 394.236 669.752 389C667.846 383.409 664.247 378.649 662.321 373C661.276 369.935 658.007 366.367 658.751 363.001C659.701 358.703 664.831 356.203 667.363 352.911C671.971 346.916 674.658 337.572 673.852 330C673.219 324.053 667.164 320.776 666.323 315C665.063 306.35 673.813 298.465 668.682 289.043C664.361 281.108 652.637 280.54 651.144 270C649.467 258.153 664.683 254.828 670.319 245.999C674.614 239.273 680.782 233.107 684.312 226C687.285 220.016 687.123 212.435 688.677 206C690.29 199.318 694.505 193.574 696.363 187C697.552 182.791 696.706 178.29 697.464 174C699.653 161.611 702.196 146.608 687 140.397C682.049 138.373 677.023 142.522 672 142.53C664.872 142.542 655.865 137.855 649 139.817C641.972 141.826 636.971 148.779 630 151.236C622.123 154.013 613.874 153.82 609.262 162.043C599.956 178.639 607.535 198.136 591.96 211.535C574.439 226.609 553.187 219.858 533 220.354C526.639 220.51 520.451 227.326 514.576 226.616C509.084 225.952 504.62 221.014 499 220z"/>
</svg>
