<?xml version="1.0" standalone="yes"?>
<svg xmlns="http://www.w3.org/2000/svg" width="1450" height="1088">
<path style="fill:#010101; stroke:none;" d="M0 0L0 1088L1450 1088L1450 0L0 0z"/>
<path style="fill:#ffffff; stroke:none;" d="M1102 183L1112.34 189.594L1112.6 201.2L1132.9 212.086L1139.64 220.273L1152 232C1156.34 225.456 1156.94 216.686 1157 209L1165 211L1164 206C1172.91 203.619 1186.31 195.523 1170 191L1171 188C1162.74 187.824 1158.79 183.821 1152 179.883C1148.47 177.834 1144.71 178.937 1141 177.609C1127.53 172.78 1107.97 162.032 1102 183z"/>
</svg>
