<?xml version="1.0" standalone="yes"?>
<svg xmlns="http://www.w3.org/2000/svg" width="1450" height="1088">
<path style="fill:#010101; stroke:none;" d="M0 0L0 1088L1450 1088L1450 0L0 0z"/>
<path style="fill:#ffffff; stroke:none;" d="M886 142C881.868 148.935 876.014 161.864 879.428 170C882.343 176.944 890.42 182.598 892.267 189.714C893.184 193.247 889.109 197.132 889.133 201C889.233 216.715 901.008 222.961 915 223L914.397 235.907L909.148 244.093L913 273L941.015 243.14L983 232C978.175 220.531 966.916 226.759 959.698 217.787C948.878 204.338 945.875 189.23 936.994 175C934.575 171.124 933.977 165.714 930.582 162.51C925.877 158.07 916.936 156.795 911 154.576C901.991 151.207 894.58 146.059 886 142z"/>
</svg>
