<?xml version="1.0" standalone="yes"?>
<svg xmlns="http://www.w3.org/2000/svg" width="1450" height="1088">
<path style="fill:#010101; stroke:none;" d="M0 0L0 1088L1450 1088L1450 0L0 0z"/>
<path style="fill:#ffffff; stroke:none;" d="M919 315C925.981 314.45 933.323 317.232 939.911 316.393C943.434 315.944 945.619 312.315 949.004 311.228C956.582 308.796 965.203 309.538 973 307.626C979.671 305.99 989.423 304.75 992.933 297.829C995.61 292.55 991.752 274.299 988.686 269.379C986.757 266.283 982.815 265.426 980.603 262.621C974.845 255.318 982.557 250.183 988 247L983 233L940.089 244.14L924.92 261L914.89 275L917.816 288L919 315z"/>
</svg>
