<?xml version="1.0" standalone="yes"?>
<svg xmlns="http://www.w3.org/2000/svg" width="1450" height="1088">
<path style="fill:#010101; stroke:none;" d="M0 0L0 1088L1450 1088L1450 0L0 0z"/>
<path style="fill:#ffffff; stroke:none;" d="M914 456C920.845 454.785 927.393 455.552 934 454.443C939.118 453.584 943.69 450.591 949 450.775C967.41 451.41 997.353 468.379 1002 439C1019.61 438.938 1005.61 423.932 1009.62 414C1013.35 404.769 1023.23 400.91 1027.15 392.816C1029.93 387.059 1028.22 380.895 1027 375C1026.25 371.379 1025.81 366.3 1022.7 363.854C1008.64 352.826 999.44 366.857 987 370.741C981.26 372.533 975.847 368.614 970 371.938C960.873 377.127 959.921 386.82 953.363 393.682C949.572 397.648 943.382 394.865 939.089 398.318C926.682 408.299 923.397 424.729 918.783 439C916.831 445.04 913.117 449.401 914 456z"/>
</svg>
