<?xml version="1.0" standalone="yes"?>
<svg xmlns="http://www.w3.org/2000/svg" width="1450" height="1088">
<path style="fill:#010101; stroke:none;" d="M0 0L0 1088L1450 1088L1450 0L0 0z"/>
<path style="fill:#ffffff; stroke:none;" d="M1210 409C1205.51 412.661 1200.72 416.518 1198.39 422C1196.21 427.132 1196.34 434.501 1191.61 438.278C1186.71 442.184 1182.25 435.251 1177 435.65C1165.18 436.546 1161.42 453.214 1161 463C1147.31 464.768 1134.12 463.715 1121 469.133C1110.13 473.618 1100.57 481.453 1090 486.722C1085.55 488.941 1080.1 488.012 1076 490.603C1069.36 494.807 1070.31 504.356 1064.85 507.427C1060.59 509.825 1056.35 507.445 1052 508.553C1045.49 510.212 1041.43 517.166 1035 519.254C1030.55 520.7 1027.29 516.458 1023 517.248C1015.36 518.653 1004.95 530.263 1000.23 536C992.665 545.193 1000.63 550.668 999.617 560C999.047 565.222 993.546 569.591 991 574L1008 573.624L1027 573.935L1038 577.969L1069 569.39L1098 576C1097.57 581.422 1098.17 591.014 1094.99 595.581C1089.49 603.469 1072.73 602.948 1065.28 609.637C1059.91 614.455 1060.83 623.286 1056.3 628.61C1053.69 631.675 1049.4 632.296 1046.51 634.966C1042.75 638.454 1040.25 648.975 1040.28 654C1040.36 666.152 1049.41 662.961 1057 664.343C1061.13 665.095 1063.84 668.953 1068 669.607C1075.47 670.782 1082.35 667.004 1090 669.533C1095.38 671.312 1097.73 676.15 1102.09 679.301C1105.7 681.917 1110.38 682.506 1113.83 685.418C1116.97 688.07 1118.63 692.134 1123.04 692.852C1130.93 694.138 1136.59 689.732 1144 688.658C1149.3 687.891 1154.71 689.971 1159.83 687.486C1164.39 685.273 1166.25 679.942 1171.01 677.854C1183.95 672.187 1198.68 669.404 1212 664.564C1221.95 660.948 1230.8 654.957 1241 652L1243 669L1328 627C1326.33 624.313 1321.88 617.617 1318.78 616.816C1313.51 615.457 1296.78 623.34 1293 627C1280.23 615.265 1258.55 633.633 1245 628L1245 627L1266 614.603L1292 611C1287.75 600.364 1270.1 602.444 1261 605C1260.09 593.665 1240.24 605.695 1234.33 607.397C1229.74 608.722 1227.59 606.69 1224 611L1223 611C1217.69 604.803 1205.77 612.995 1198 613L1206 600L1202 599L1203 582C1197.32 583.728 1189 591.424 1187 597L1186 597C1184.16 588.25 1190.73 580.851 1194 573C1199.4 574.797 1202.45 573.346 1206 569L1207 569C1212.39 573.887 1217.37 569.387 1220 564L1215 556L1230 559C1232.18 555.086 1234.61 553.699 1239 553L1239 560L1244 558L1242 551C1248.94 549.127 1248.22 542.61 1251.43 537C1256.09 528.857 1259.33 527.206 1268 526L1271 495L1253 487L1253 486L1275 487L1268 474L1240 478L1240 477C1245.8 474.289 1253.01 470.853 1256 465L1250 464L1250 463L1262 457L1245 447.702L1233.09 444.682L1210 409M1219 578L1216 580L1217 585L1210 586L1210 597C1216.77 596.919 1218.5 594.004 1221 588L1225 589L1227 585L1224 584L1225 580L1221 581L1219 578M1236 579L1237 589L1243 587L1245 579L1236 579M1409 593C1406.55 598.812 1404.38 600.924 1398 601L1399 617L1411 612C1409 606.051 1416.69 595.553 1409 593M1281 594L1280 598L1284 597L1284 595L1283 594L1281 594M1311 605L1322 602C1318.05 599.254 1313.33 601.005 1311 605M1380 606L1393 615L1385 604L1380 606z"/>
</svg>
