<?xml version="1.0" standalone="yes"?>
<svg xmlns="http://www.w3.org/2000/svg" width="1450" height="1088">
<path style="fill:#010101; stroke:none;" d="M0 0L0 1088L1450 1088L1450 0L0 0z"/>
<path style="fill:#ffffff; stroke:none;" d="M782 523C785.181 522.246 789.975 521.391 791.972 518.501C797.194 510.944 790.751 498.15 802.09 493.309C807.715 490.908 822.024 483.424 828 484.901C834.201 486.434 838.178 493.924 845 493.586C850.841 493.297 855.026 488.263 860 485.836C864.207 483.783 868.79 484.674 873 482.914C879.031 480.393 883.852 475.449 890 473.13C896.41 470.712 905.253 471.754 910.298 466.362C914.934 461.406 911.955 455.599 913.536 450C917.026 437.646 921.784 423.418 927.824 412C930.687 406.588 936.433 398.825 942.001 396.028C945.775 394.131 950.745 396.319 953.648 392.682C961.13 383.311 964.149 370.914 978 369L974 360C970.152 360.794 965.973 362.357 962 361.837C942.979 359.351 950.768 329.636 940.147 318.738C934.851 313.305 915.867 314.2 909 315.318C903.322 316.242 887.487 326.558 884.14 331.39C881.627 335.017 882.527 344.901 876.891 345.535C869.136 346.406 864.765 333.864 856.089 335.903C835.953 340.636 836.801 366.274 821.7 377.397C815.471 381.984 804.183 378.413 797 380.969C793.141 382.342 787.567 385.026 785.086 388.39C782.112 392.421 782.555 397.685 777.892 400.586C767.011 407.356 752.761 401.944 742.533 411.637C737.503 416.405 741.301 421.359 739.986 427C738.652 432.724 732.204 441.805 728.864 446.775C724.948 452.603 715.92 451.763 711.564 458.015C705.621 466.547 711.923 476.836 710.512 486C708.744 497.489 694.527 501.815 702.457 515.891C709.936 529.169 729.175 512.674 737 508.443C751.228 500.75 774.56 509.943 782 523z"/>
</svg>
