<?xml version="1.0" standalone="yes"?>
<svg xmlns="http://www.w3.org/2000/svg" width="1450" height="1088">
<path style="fill:#010101; stroke:none;" d="M0 0L0 1088L1450 1088L1450 0L0 0z"/>
<path style="fill:#ffffff; stroke:none;" d="M979 498C971.896 495.042 959.177 493.573 953.39 489.143C945.3 482.949 948.304 460.431 951 452C944.365 450.724 939.403 454.594 933 455.312C927.379 455.942 922.481 452.778 917.225 456.367C910.125 461.216 911.173 468.9 901 471.485C889.806 474.33 882.434 479.552 872 483.914C868.146 485.526 863.882 484.71 860 486.367C855.176 488.425 851.278 493.302 846 494.171C839.377 495.262 834.836 487.579 829 485.767C822.733 483.821 800.852 493.029 797.483 498.019C783.18 519.21 812.601 531.723 821.218 548C826.172 557.357 820.29 572.858 828.589 581.298C832.514 585.29 840.16 585.755 845 588.417C850.071 591.206 852.261 599.046 857.144 600.721C868.093 604.478 874.03 597.1 884 596.384C888.533 596.059 892.178 600.089 897 599.941C901.369 599.806 904.081 597.101 908 595.727C913.682 593.735 920.999 593.145 927 591.61C932.709 590.149 944.906 594.189 949.272 590.958C953.902 587.531 952.384 577.058 955.303 572.213C958.534 566.85 966.481 565.409 968.762 559C970.251 554.818 966.048 551.144 966.361 547C966.822 540.896 971.68 533.359 973.112 527C975.551 516.164 972.891 507.954 979 498z"/>
</svg>
