<?xml version="1.0" standalone="yes"?>
<svg xmlns="http://www.w3.org/2000/svg" width="1450" height="1088">
<path style="fill:#010101; stroke:none;" d="M0 0L0 1088L1450 1088L1450 0L0 0z"/>
<path style="fill:#ffffff; stroke:none;" d="M716 521L722 543C713.75 544.111 703.637 545.842 696 549.214C691.24 551.315 687.279 556.885 682 557.586C678.204 558.091 675.457 554.689 672 553.792C668.045 552.767 662.467 554.665 659 556.558C649.287 561.862 645.503 575.308 635 578.373C627.79 580.478 621.267 572.553 613.015 574.863C608.768 576.051 606.634 579.745 602.985 581.914C593.973 587.272 583.589 592.338 574 596.734C565.833 600.478 558.833 593.584 551.039 595.774C544.791 597.53 542.483 606.162 536.911 609.096C533.908 610.677 530.226 609.24 527 610.391C516.362 614.188 506.852 620.94 496 624.405C490.586 626.134 483.787 624.766 480.279 630.059C476.869 635.202 480.733 641.406 480.96 647C481.163 652 479.284 657.178 481.149 662C483.323 667.622 489.065 670.626 491.566 676C493.594 680.356 492.894 685.588 495.303 689.829C499.63 697.448 505.841 699.41 507.536 709C510.348 724.907 506.077 740.904 509.478 757C511.262 765.44 519.965 769.692 518.699 779C517.472 788.023 518.87 799.473 516.046 808C513.974 814.254 506.894 823.323 511.371 829.721C516.182 836.597 532.238 830.676 539 829.589C554.014 827.178 572.851 820.85 588 823.214C596.611 824.557 603.77 832.174 612 835.034C617.603 836.981 624.303 836.058 630 835C631.019 811.254 656.457 807.307 673 797.525C682.277 792.039 694.368 782.934 706 783.934C710.171 784.293 713.817 787.215 718 787.408C721.978 787.592 725.083 784.101 729 784.364C737.454 784.933 740.546 789.908 749.961 786.829C759.815 783.608 761.854 771.434 774 770.843C794.397 769.85 814.652 775.336 835 775.871C843.609 776.098 852.427 773.472 861 772.773C866.638 772.313 869.963 776.025 875 777.751C882.527 780.329 900.662 783.478 907.911 779.682C916.637 775.112 911.998 767.707 916.028 761.39C919.646 755.72 928.87 756.404 933.146 751.363C938.257 745.337 936.951 736.285 943.465 730.318C949.264 725.005 959.233 728.295 965.852 723.647C969.749 720.911 968.393 715.867 972.148 712.966C981.817 705.496 993.664 708.379 1002.94 702.633C1009.36 698.66 1009.3 689.064 1016.04 684.603C1021.84 680.77 1030.51 684.065 1037 682.606C1046.63 680.445 1055.09 673.349 1065 671C1058.82 659.582 1043.82 671.314 1039.79 656C1036.2 642.35 1048.56 636.241 1055.49 628.61C1060.2 623.427 1059.27 614.538 1064.42 609.637C1071.91 602.507 1088.06 603.301 1094.01 595.49C1097.19 591.322 1096.6 582.077 1097 577L1069 570.213L1038.29 578.64L1028 574.738L1008 574.383L990 574C985.272 585.245 975.614 585.104 965 587.174C959.754 588.197 955.243 591.686 950 592.571C943.352 593.694 935.858 591.455 929 592.104C918.33 593.114 908.191 599.273 898 600.757C892.574 601.547 889.079 596.362 884 596.862C874.114 597.836 867.015 606.389 856.228 601.401C851.656 599.286 851.002 592.204 845.996 589.417C840.681 586.457 830.572 585.867 827.013 580.606C820.975 571.683 825.907 559.612 822.2 551C817.892 540.991 805.206 521.823 793 520.758C789.39 520.444 785.352 522.866 782 524C775.603 510.539 754.374 503.511 740 507.653C731.441 510.119 724.057 517.234 716 521z"/>
</svg>
