<?xml version="1.0" standalone="yes"?>
<svg xmlns="http://www.w3.org/2000/svg" width="1450" height="1088">
<path style="fill:#010101; stroke:none;" d="M0 0L0 1088L1450 1088L1450 0L0 0z"/>
<path style="fill:#ffffff; stroke:none;" d="M440 331C440.071 338.823 445.281 345.147 444.787 353C444.048 364.742 438.127 376.05 438.18 388C438.217 396.493 443.571 405.389 440.397 414C437.221 422.614 427.73 424.995 421.21 429.966C408.314 439.798 407.86 454.751 413 468C402.86 473.05 396.898 485.935 407.419 495.034C415.466 501.994 427.756 497.789 435.981 503.564C442.391 508.064 440.682 514.911 444.417 520.79C447.243 525.236 454.308 528.509 459 530.586C468.428 534.76 478.504 528.324 486.998 535.099C488.663 536.426 491.833 538.38 492.245 540.665C492.821 543.862 488.477 546.775 488.093 550C487.579 554.322 495.063 570.047 499.133 571.656C523.41 581.251 548.588 564.423 567.015 551.699C573.709 547.076 581.064 546.246 584.987 538C589.282 528.97 586 511.947 586 502C578.98 502.145 563.851 504.718 559.028 497.57C554.745 491.224 563.43 482.8 562.694 476.004C561.931 468.949 555.509 464.385 555.355 457C555.155 447.444 563.907 441.688 566.363 433C569.825 420.747 566.216 406.349 568.407 394C569.333 388.776 574.783 385.331 577.411 381C579.698 377.232 579.418 371.263 578.867 367C576.45 348.323 558.207 340.658 551.139 325C548.794 319.806 550 312.584 550 307L528 315.336L510 318.623L497 324.348L471 323.185L440 331z"/>
</svg>
