<?xml version="1.0" standalone="yes"?>
<svg xmlns="http://www.w3.org/2000/svg" width="1450" height="1088">
<path style="fill:#010101; stroke:none;" d="M0 0L0 1088L1450 1088L1450 0L0 0z"/>
<path style="fill:#ffffff; stroke:none;" d="M853 139C841.61 136.791 826.396 135.221 815 137.405C808.914 138.572 802.456 145.651 796.105 144.577C790.616 143.649 790.57 135.432 784.957 133.724C780.094 132.244 774.852 133.806 770 132.351C764.646 130.745 760.949 126.794 755 127.185C744.521 127.875 734.375 133.276 724 133.41C710.167 133.59 697.701 127.805 686 139C709.95 156.222 697.386 180.082 690.221 203C687.918 210.366 688.652 219.202 684.775 226C681.35 232.007 676.317 237.145 672.587 243C666.134 253.13 645.764 260.884 653.434 274.996C659.242 285.682 670.867 287.904 681 289.479C691.401 291.096 702.386 294.164 713 292.297C720.256 291.021 726.865 286.435 734 284.61C740.252 283.01 748.522 283.171 755 283.015C763.962 282.799 770.491 287.191 779 288.671C786.918 290.049 796.953 288.462 805 287.911C813.156 287.352 829.957 286.385 834.972 278.606C837.177 275.187 836 268.91 836 265C860.895 265 883.349 262.645 908 258L914 224C900.926 223.73 888.067 215.629 888.279 201C888.34 196.736 892.786 193.226 891.469 189C888.802 180.436 877.627 174.774 877.829 165C877.961 158.572 886.478 144.899 884.169 140.039C880.685 132.707 862.629 117.506 854.603 126.573C851.95 129.57 853 135.297 853 139z"/>
</svg>
