<?xml version="1.0" standalone="yes"?>
<svg xmlns="http://www.w3.org/2000/svg" width="1450" height="1088">
<path style="fill:#010101; stroke:none;" d="M0 0L0 1088L1450 1088L1450 0L0 0z"/>
<path style="fill:#ffffff; stroke:none;" d="M837 266C837 269.69 838.043 275.368 835.972 278.61C830.101 287.798 809.588 288.953 800 288.999C793.524 289.03 786.36 290.768 780 289.671C769.945 287.937 762.68 283.358 752 284.089C745.704 284.521 738.016 284.067 732 285.904C725.395 287.921 717.989 293.095 711 293.107C697.682 293.131 684.121 289.342 671 291C671 299.082 666.409 307.599 667.149 315C668.207 325.587 676.403 328.771 673.613 341C671.67 349.521 659.347 356.443 659.296 364.001C659.244 371.542 666.938 381.262 669.965 388C673.958 396.889 673.344 404.48 681.428 411.581C691.823 420.712 707.677 417.006 720 417C725.181 416.998 732.866 417.492 737.675 415.397C744.051 412.62 748.948 406.963 756 404.324C763.163 401.644 771.166 404.489 777.867 399.925C784.615 395.328 784.731 387.059 793 382.425C801.705 377.548 813.627 381.775 821.536 376.972C826.891 373.72 834.077 362.789 836.287 357C837.91 352.747 837.164 348.027 841.147 344.966C845.167 341.878 855.003 334.207 860 335.542C865.737 337.074 870.525 345.845 876.856 344.623C882.014 343.628 881.222 333.81 884.43 330.39C892.515 321.769 906.697 314.516 918 315C918 300.471 917.175 286.823 912.67 273C911.531 269.505 910.894 262.179 907.49 260.117C903.206 257.523 891.749 261.617 887 262.414C869.594 265.333 854.525 266 837 266z"/>
</svg>
