<?xml version="1.0" standalone="yes"?>
<svg xmlns="http://www.w3.org/2000/svg" width="1450" height="1088">
<path style="fill:#010101; stroke:none;" d="M0 0L0 1088L1450 1088L1450 0L0 0z"/>
<path style="fill:#ffffff; stroke:none;" d="M439 330L440 284C429.979 282.734 417.469 283.311 408.015 279.736C401.534 277.286 394.515 269.09 389.255 264.498C386.251 261.875 382.11 261.514 379.105 258.772C370.57 250.986 366.001 235.09 366 224C349.045 225.338 343.617 230.114 330.91 240.697C323.382 246.967 317.494 250.32 321.34 262C325.401 274.33 338.215 280.217 344.204 291C348.576 298.874 343.163 310.287 349.638 316.436C354.157 320.727 363.317 318.92 369 320.962C378.526 324.386 386.739 329.926 397 331.521C403.884 332.591 411.116 329.724 418 329.375C425.179 329.011 431.677 330.925 439 330z"/>
</svg>
