<?xml version="1.0" standalone="yes"?>
<svg xmlns="http://www.w3.org/2000/svg" width="1450" height="1088">
<path style="fill:#010101; stroke:none;" d="M0 0L0 1088L1450 1088L1450 0L0 0z"/>
<path style="fill:#ffffff; stroke:none;" d="M980 498C972.217 507.252 975.338 521.549 972.37 533C971.186 537.571 967.033 542.467 966.819 547C966.64 550.82 970.307 554.126 969.363 558C967.883 564.068 960.3 566.854 956.728 571.375C952.78 576.371 952.262 585.881 951 592C969.701 584.328 989.457 584.818 998.141 563C1002.13 552.989 991.14 546.08 1000.11 536C1005.02 530.481 1015.82 517.532 1023.58 516.495C1027.67 515.947 1030.6 520.179 1035 518.82C1041.54 516.803 1045.64 510.056 1052 507.947C1055.85 506.669 1060 508.842 1063.85 507.107C1069.06 504.763 1070.72 493.57 1077 489.603C1080.59 487.338 1085.11 488.23 1089 486.647C1098.75 482.678 1110.2 470.476 1112.21 460C1117.49 432.466 1083.2 455.487 1072.04 451.401C1068.3 450.032 1066.1 446.959 1062 446.1C1055.98 444.839 1048.67 446.461 1043 444.397C1032.11 440.435 1028.68 429.255 1015.1 434.893C1012.33 436.044 1005.06 439.612 1003.03 441.603C998.099 446.463 995.459 455.801 987.996 457.682C977.883 460.232 961.373 447.692 952.513 453.117C947.482 456.198 949.977 464.561 950.447 469C950.942 473.681 948.532 478.403 950.009 482.996C952.762 491.552 972.066 494.697 980 498z"/>
</svg>
