<?xml version="1.0" standalone="yes"?>
<svg xmlns="http://www.w3.org/2000/svg" width="1450" height="1088">
<path style="fill:#010101; stroke:none;" d="M0 0L0 1088L1450 1088L1450 0L0 0z"/>
<path style="fill:#ffffff; stroke:none;" d="M1239 653C1216.39 662.001 1193.73 669.931 1171.04 678.482C1165.8 680.455 1163.91 686.222 1158.96 688.486C1154.04 690.733 1149.06 688.763 1144 689.454C1139.04 690.131 1134.87 693.047 1130 693.787C1121.36 695.1 1119.65 690.376 1113.7 685.699C1110.53 683.208 1106.32 682.586 1103.01 680.301C1095.41 675.046 1092.4 668.876 1082 669.129C1064.64 669.551 1052.73 678.632 1037 683.351C1030.36 685.343 1021.03 681.453 1015.17 685.603C1008.77 690.139 1009.65 699.32 1002.96 703.2C994.127 708.319 983.473 706.8 974.059 712.262C968.11 715.714 970.156 722.31 962.999 725.737C957.032 728.594 947.669 726.579 942.9 731.318C937.278 736.903 938.409 744.837 934.146 750.787C930.402 756.013 922.941 755.995 918.318 759.969C914.753 763.033 916.791 768.101 915.012 772C911.391 779.933 904.033 780.57 904 790C913.4 790 923.86 786.954 933 788.133C937.348 788.695 940.68 793.089 945 792.921C954.004 792.572 964.185 781.431 973.61 789.564C982.18 796.961 979.284 812.776 987.232 821.682C989.939 824.715 993.674 823.306 996.982 825.028C1002.35 827.825 1002.72 833.793 1004 839C1012.15 836.67 1014.1 830.563 1021 827.353C1025.78 825.132 1031.09 825.99 1035.7 824.242C1040.86 822.283 1047.32 814.213 1052.17 810.726C1062.45 803.349 1076.12 799.744 1082.95 787.629C1085.17 783.693 1080.08 780.073 1080.17 775.996C1080.27 771.237 1084.04 767.139 1086 763L1092 767C1094.49 761.294 1096.07 758.496 1102 756C1098.54 765 1101.48 768.71 1111 770L1113.6 757.039L1119.62 741L1115 727C1117.77 727.349 1121.94 728.715 1124.4 726.817C1128.1 723.958 1127.01 710.794 1135 718L1142 715C1146.95 736.301 1157.1 708.933 1163.32 704.951C1165.32 703.665 1167.88 704.555 1170 705L1172 695C1179.43 692.445 1192.76 692.925 1197 700L1200 699L1198 693L1242 670L1239 653z"/>
</svg>
