<?xml version="1.0" standalone="yes"?>
<svg xmlns="http://www.w3.org/2000/svg" width="1450" height="1088">
<path style="fill:#010101; stroke:none;" d="M0 0L0 1088L1450 1088L1450 0L0 0z"/>
<path style="fill:#ffffff; stroke:none;" d="M63 372C63.675 375.786 67.4014 380.671 66.5239 384.424C64.0561 394.982 56.1461 399.648 58.2245 412C58.8232 415.558 61.1768 418.442 61.7755 422C62.485 426.217 60.7561 431.676 62.6034 435.61C64.0448 438.679 68.0905 439.277 69.821 442.213C72.0743 446.036 73.1921 459.53 72.8179 464C71.9045 474.91 54.7112 481.974 54.7369 492.867C54.7533 499.841 71.0938 497.228 69.3194 505.914C68.2385 511.205 59.9091 513.371 57.4336 518.171C53.004 526.758 56.0774 536.771 49.6096 544.999C45.1294 550.699 33.8684 555.549 36.635 564C42.6868 582.487 52.9076 588.55 70 595.453C74.9563 597.455 79.6487 600.962 85 601.787C97.1864 603.665 109.959 602.22 121.985 604.148C130.465 605.508 131.429 618.642 141 621.363C152.623 624.667 166.15 617.545 178 617.105C183.236 616.91 186.209 620.565 191 621.481C196.628 622.557 204.121 622.305 210 622.671C221.721 623.401 234.125 606.971 245.907 612.515C250.11 614.493 251.569 619.428 254.529 622.7C258.36 626.936 263.515 629.324 266.96 634.015C273.54 642.973 278.559 655.995 286.761 663.436C292.652 668.781 303.25 665.441 309.985 669.879C318.421 675.437 320.026 684.598 332 683.701C339.596 683.131 347.074 678.126 354 675.352C358.36 673.606 363.533 675.278 367.621 673.397C372.15 671.313 376.197 662.393 378.046 658C381.579 649.603 379.17 636.881 386.329 630.43C394.049 623.474 412.073 622.87 422 621C423.21 626.23 424.632 633.408 427.843 637.787C437.236 650.593 465.974 637.406 476.7 632.412C480.057 630.849 481.513 626.981 485.039 625.603C489.061 624.031 493.83 624.544 498 623.06C507.709 619.605 516.56 614.313 526 610.302C529.589 608.777 533.503 610.263 536.83 608.799C540.947 606.988 545.492 600.725 547.837 597C553.15 588.562 544.08 576.971 544 568C526.565 573.683 513.114 574.339 495 572L487.341 550.424L493 540C489.387 537.277 485.641 533.075 481 532.318C474.377 531.238 467.673 534.509 461 532.006C455.243 529.846 446.559 525.41 443.417 519.957C440.579 515.031 441.695 508.315 436.867 504.564C430.696 499.771 420.162 501.656 413 498.651C397.13 491.992 399.461 475.809 412 468C409.954 460.518 406.809 455.876 409 448C401.424 447.675 393.806 446.57 388.326 440.815C384.796 437.108 382.851 430.8 378.482 428.028C368.871 421.929 352.434 432.679 342.603 422.298C338.621 418.093 340.482 405.754 338.452 400C334.019 387.43 323.858 378.13 319.069 366C316.396 359.231 316.278 345.937 311.836 340.603C309.245 337.493 303.391 339.97 300 339.87C292.928 339.662 275.144 338.003 269.39 334.012C265.008 330.971 264.441 324.335 261.301 320.289C257.694 315.642 252.273 312.546 248.44 307.999C241.64 299.934 238.436 290.326 228 285.754C220.455 282.449 209.184 292.818 200.015 289.396C193.093 286.813 192.414 275.603 184.957 275.063C178.633 274.605 175.349 279.016 171 282.815C163.028 289.777 155.721 296.593 147.961 303.826C137.166 313.888 125.133 318.298 115.928 331C109.752 339.523 111.424 352.462 102.895 359.442C94.1124 366.63 74.0619 369.441 63 372z"/>
</svg>
