<?xml version="1.0" standalone="yes"?>
<svg xmlns="http://www.w3.org/2000/svg" width="1450" height="1088">
<path style="fill:#010101; stroke:none;" d="M0 0L0 1088L1450 1088L1450 0L0 0z"/>
<path style="fill:#ffffff; stroke:none;" d="M809 1035L810 1035C816.252 1025.27 818.916 1016.78 805 1013C805 1001.25 806.727 997.142 815.417 989.865C818.321 987.433 818.387 983.523 823.005 983.253C826.923 983.024 830.291 985.803 834 986.61C842.482 988.454 858.071 989.997 866 987L866 985C855.136 980.484 847.405 983.1 836 984C839.969 977.467 859.469 975.472 867 974.984C872.494 974.627 877.199 977.421 881 972L868 967C867.55 947.794 894.001 939.557 901 923L868 922C871.184 918.816 874.279 914.967 878 912.407C880.104 910.959 883.507 911.218 885.207 909.377C887.411 906.989 887.047 904.208 890.035 901.849C894.186 898.572 900.932 894.436 899.223 888.015C895.483 873.967 875.61 871.551 879 854C876.62 853.301 873.52 852.785 872.028 850.57C870.302 848.009 871.052 843.937 870.536 841C869.033 832.437 864.139 820.006 871.317 812.518C879.259 804.232 892.602 803.436 900.486 796.182C904.065 792.89 903 786.375 903 782C894.706 781.644 885.002 781.368 877 779.061C872.74 777.833 869.347 774.286 865 773.508C855.491 771.808 844.673 777.045 835 776.74C814.714 776.101 794.317 770.563 774 771.51C759.305 772.195 756.106 789.934 741 789.37C736.706 789.21 733.991 785.732 730 784.94C725.691 784.085 722.273 788.157 718 788.001C713.123 787.823 709.011 784.035 704 784.622C689.237 786.351 679.15 796.291 666 801.315C654.966 805.53 637.491 812.075 632.564 824C626.91 837.686 640.623 834.728 645.071 844.015C646.871 847.775 643.951 852.244 643.326 856C642.379 861.684 643.018 869.421 644.419 875C645.38 878.827 651.637 882.896 651.258 886.464C650.447 894.108 637.121 903.387 631 906.598C626.667 908.871 620.996 909.487 619.612 915.015C618.058 921.22 621.332 939.287 627.214 942.682C631.44 945.122 639.067 942.721 642.073 947.314C644.541 951.083 641.535 957.47 643.514 962C646.78 969.477 655.287 973.536 658.875 981C662.74 989.041 662.974 1004.06 669.728 1010.38C674.717 1015.05 688.256 1003.72 695 1005.02C703.502 1006.67 708.571 1014.61 715.286 1019.14C719.9 1022.26 727.593 1022.63 733 1023.41C745.708 1025.24 755.514 1017.54 767 1015.95C781.939 1013.89 799.669 1025.45 809 1035M815 1035L814 1040L823 1043L815 1035z"/>
</svg>
