<?xml version="1.0" standalone="yes"?>
<svg xmlns="http://www.w3.org/2000/svg" width="1450" height="1088">
<path style="fill:#010101; stroke:none;" d="M0 0L0 1088L1450 1088L1450 0L0 0z"/>
<path style="fill:#ffffff; stroke:none;" d="M1038 234C1031.76 234.806 1024.28 237.626 1018 236.273C1003.25 233.098 999.421 223.92 984 232L989 248C982.984 249.738 976.346 255.422 981.028 262.39C983.239 265.682 987.683 266.467 989.686 270.104C992.556 275.315 996.177 291.348 993.802 296.961C989.183 307.877 969.098 309.817 959 310.831C954.454 311.287 947.997 310.672 944.573 314.317C938.266 321.032 947.142 326.805 948.682 333C949.969 338.174 948.044 343.823 949.317 349C952.406 361.561 963.989 361.813 974 359C975.565 362.758 977.22 367.624 981.105 369.562C987.553 372.78 993.908 366.207 999 363.065C1005.7 358.93 1009.6 358.688 1017 360.86C1019.95 361.725 1023.07 362.495 1024.86 365.225C1029.1 371.672 1031.72 387.188 1027.15 393.816C1021.95 401.344 1013.53 404.538 1010.11 414C1008.03 419.762 1011.52 428.293 1013 434C1017.4 433.444 1023.77 431.34 1028 433.113C1033.35 435.36 1036.49 441.391 1042 443.397C1047.07 445.242 1053.63 443.849 1059 444.755C1064.28 445.645 1067.29 449.426 1072.09 450.683C1079.55 452.635 1087.91 448.238 1095 446.475C1101.02 444.981 1111.03 445.598 1115.36 440.362C1117.76 437.451 1115.69 432.322 1115.29 429C1114.26 420.677 1115.26 405.99 1104.96 402.476C1099.24 400.526 1092.3 407.923 1088 411C1085.08 389.354 1094.26 371.885 1105 353L1110.1 358.593L1127 357.129L1149 360L1136 342L1144 341L1133 336.543L1124 328L1138 331L1138 326L1142 328L1144 318C1131.41 314.897 1120.59 313.331 1115 300C1120.26 302.042 1131.45 310.133 1136.72 306.242C1140.06 303.782 1140.62 298.519 1142.38 295C1143.82 292.114 1148.15 287.691 1146.17 284.279C1143.47 279.624 1132.58 279.167 1128 276.536C1109.86 266.127 1096.42 255.721 1075 253L1079 250L1079 249L1050 240L1050 239L1074 237.532L1104 249.576L1153 268L1157 243L1156 242L1149 244C1147.88 238.608 1147.66 230.086 1145.4 225.302C1144.26 222.903 1141.22 222.318 1139.39 220.571C1130.62 212.183 1126.09 206.613 1113 212.439C1106.29 215.427 1101.69 227.5 1095 226.894C1083.21 225.828 1079.72 215.485 1070.7 211.603C1053.31 204.121 1039.26 218.01 1038 234M1148 292L1140 309L1147 311L1148 306L1152 307L1157 296L1148 292z"/>
<path style="fill:#010101; stroke:none;" d="M1114 299L1115 300L1114 299z"/>
</svg>
