<?xml version="1.0" standalone="yes"?>
<svg xmlns="http://www.w3.org/2000/svg" width="1450" height="1088">
<path style="fill:#010101; stroke:none;" d="M0 0L0 1088L1450 1088L1450 0L0 0z"/>
<path style="fill:#ffffff; stroke:none;" d="M1141 80C1150.28 75.9156 1154.39 54.3966 1164.96 55.4661C1177.01 56.6853 1159.19 78.1552 1178 76C1177.03 88.2086 1168.99 95.739 1157 93L1159 87C1163.29 87.7338 1165.86 86.864 1168 83L1140 87C1135.17 103.515 1157.08 104.312 1166.99 110.353C1171.57 113.15 1174.81 117.773 1178 122C1183.64 118.133 1182.19 104.734 1182.95 98C1185.11 78.7727 1199.46 62.8159 1202 44C1198.87 46.703 1196.26 49.9452 1193 52.5177C1191.17 53.9664 1189.22 55.2095 1187 55.983C1165.86 63.3585 1177.07 34.7875 1163 30.3303C1156.22 28.1843 1154.7 32.624 1149.98 36.4059C1136.66 47.0768 1141.22 52.3824 1142.52 66.5756C1142.95 71.1595 1140.1 74.9298 1141 80M1118 63L1116 70C1109.02 68.0443 1103.65 71.0945 1097 70.0733C1093.12 69.4774 1089.92 66.8112 1086 66.213C1062.76 62.6681 1037.8 63.8057 1016 73.4676C1008.86 76.6353 1006.09 84.7567 998.996 87.8912C992.525 90.7525 984.037 92.2836 977 92.8148C973.715 93.0628 969.362 91.2368 966.39 93.0425C961.132 96.2374 958.531 108.393 957 114C963.359 113.982 972.049 109.423 977.582 113.854C983.31 118.442 981.93 128.297 987.418 133.192C993.776 138.863 1001.39 129.067 1007.35 136.218C1015.99 146.596 1012.32 161.246 1018.56 171.787C1024.66 182.102 1044.57 182.87 1054 189.637C1057.88 192.419 1061.42 199.332 1066.04 200.553C1071.97 202.121 1077.02 193.34 1081.09 190.603C1086.23 187.147 1093.29 188.635 1098.77 184.648C1102.33 182.062 1101.73 177.459 1104.7 174.603C1107.18 172.223 1114.64 169.976 1118 169.008C1128.61 165.949 1136.98 179.365 1148 177L1146 173C1153.46 174.539 1164.03 173.718 1167 182C1182.42 173.082 1193.49 147.867 1200 132C1193.83 129.69 1187.2 130.512 1181 128.501C1174.91 126.526 1170.56 120.62 1165 117.529C1150.88 109.673 1134.14 107.387 1131.26 88C1130.27 81.3096 1136.43 74.2133 1136.61 67C1136.81 59.0396 1133.62 55.3645 1136 47C1130.23 45.7665 1120.86 48.0382 1116.09 51.652C1110.47 55.9182 1111.05 61.5623 1118 63z"/>
</svg>
