<?xml version="1.0" standalone="yes"?>
<svg xmlns="http://www.w3.org/2000/svg" width="1450" height="1088">
<path style="fill:#010101; stroke:none;" d="M0 0L0 1088L1450 1088L1450 0L0 0z"/>
<path style="fill:#ffffff; stroke:none;" d="M313 338C314.369 348.598 316.404 360.435 321.402 370C326.825 380.378 334.731 388.904 339.073 400C341.213 405.468 339.706 419.446 344.318 422.721C354.696 430.091 366.821 422.576 376.907 426.603C384.537 429.651 386.045 440.893 394.004 444.583C411.312 452.605 410.601 437.946 421.104 429.637C427.067 424.92 435.249 423.434 438.972 416C443.329 407.301 437.434 396.779 437.343 388C437.22 376.061 443.322 364.755 443.895 353C444.284 345.022 439.187 338.78 439 331C431.8 331.568 425.063 329.844 418 330.209C411.116 330.565 403.892 333.449 397 332.292C387.121 330.632 379.203 325.27 370 321.962C363.94 319.784 353.397 321.872 348.966 316.686C342.166 308.728 348.176 297.306 342.034 288.004C335.211 277.67 320.76 270.776 319.53 257C319.112 252.324 321.064 247.536 322 243C319.069 240.83 315.759 237.335 312 236.839C303.581 235.73 294.467 243.279 286 243.726C280.035 244.041 272.766 240.76 267 242.603C261.612 244.326 258.387 249.878 253 251.721C245.799 254.186 234.323 248.393 230.032 258.213C227.979 262.912 224.528 278.971 227.067 283.535C229.831 288.504 236.846 290.541 240.363 295.09C246.98 303.651 251.879 310.868 259.892 318.439C264.256 322.562 264.893 330.654 270.213 333.566C281.688 339.848 300.514 338.103 313 338z"/>
</svg>
