<?xml version="1.0" standalone="yes"?>
<svg xmlns="http://www.w3.org/2000/svg" width="1450" height="1088">
<path style="fill:#010101; stroke:none;" d="M0 0L0 1088L1450 1088L1450 0L0 0z"/>
<path style="fill:#ffffff; stroke:none;" d="M880 853C877.014 868.395 889.55 876.998 900 887L901 887L910.443 883.972L921 873L925 881L926 881C931.407 875.459 933.455 870.484 935 863L945 868C955.898 866.155 965.54 867.468 970 856L976 858C980.641 847.479 992.592 842.955 1003 840C1002.42 835.473 1002.33 828.597 997.867 826.028C993.514 823.521 989.673 825.64 986.232 820.941C980.247 812.769 980.689 795.793 973.362 789.938C963.761 782.266 953.237 794.186 944.424 793.623C940.392 793.366 937.381 789.382 933 789.055C926.521 788.571 911.166 788.805 905.429 791.603C902.372 793.094 901.44 796.811 897.981 798.38C889.297 802.32 879.467 805.331 872.317 812.043C864.83 819.072 869.659 832.683 871.335 841C871.898 843.796 871.286 848.073 873.028 850.436C874.566 852.522 877.672 852.677 880 853M1015 897L1018 905C1009.74 910.341 1025.73 911.599 1028 914C1032.72 910.669 1037 907.158 1036 901L1015 897M969 902L975 904L969 902M938 905L940 912L942 912L942 904L938 905z"/>
</svg>
