<?xml version="1.0" standalone="yes"?>
<svg xmlns="http://www.w3.org/2000/svg" width="1427" height="1450">
<path style="fill:#010101; stroke:none;" d="M0 0L0 1450L1427 1450L1427 0L0 0z"/>
<path style="fill:#ffffff; stroke:none;" d="M423 1000C425.558 998.722 428.054 996.156 431.015 995.962C434.596 995.728 447.046 1000.76 443.338 1005.7C440.907 1008.93 435.487 1008.28 432.015 1009.39C426.951 1011.01 420.386 1015.8 416.004 1018.91C413.217 1020.9 407.469 1024.62 411 1028L411 1029L398 1058L401 1059L408 1045L404 1045C405.916 1037.77 410.162 1038.37 414 1044C426.98 1040.47 424.035 1053.4 435 1054L433 1049C440.943 1048.32 450.236 1052.33 453 1042L458 1043C456.738 1046.87 455.603 1050.77 452.775 1053.83C448.019 1058.98 433.78 1066.24 450 1068C451.551 1077.74 457.835 1078.75 466 1076C467.432 1081.94 465.73 1086.95 471 1091L471 1092L455 1087L458 1097L433.213 1099.74L423 1109L423 1110L427 1115L416 1117L416 1118L429 1118L427 1123C434.031 1129.69 436.233 1140.45 425 1142C425.502 1135.58 425.986 1132.1 419 1130C421.369 1142.8 414.784 1145.1 404 1142L408 1137L405 1135L411 1132L410 1128C405.151 1128.98 402.601 1131.33 401 1136C385.852 1130.63 391.878 1119.3 386 1109L386 1108L392 1102L377 1112L358 1099C351.614 1106.82 336.146 1103.62 334 1114L342 1117L338 1125C344.721 1125.43 355.281 1123.59 353 1115L348 1117L342 1112C344.004 1106.55 347.011 1107.77 352 1107.53C365.447 1106.89 369.354 1114.03 373 1126L374 1126L375 1119L380 1119L392 1142L380 1139L368.028 1144.74L366 1156L362 1154L361 1157C365.363 1158.82 372.529 1161.27 375.223 1165.38C379.131 1171.34 373.994 1174.28 382 1179L383 1169L402 1175L403 1175L403 1171C409.021 1174.5 422.759 1171.75 421 1180L425 1181L424 1191C412.72 1190.87 406.774 1185.96 397 1195L396 1184L387 1188L387 1189C390.993 1191.81 395.268 1194.73 394 1200L402 1203L399 1212L406 1213L394 1220L394 1227L398 1226L392 1236L399 1239L400 1239L404 1227L413 1246L409 1253L405 1247L390.17 1249.65L380 1254L378 1248C371.732 1261.21 364.689 1250.81 361 1243L352 1248L349 1243L349 1242L351 1239C342.506 1241.59 338.295 1255.14 343 1262L344 1262C343.015 1240.8 368.591 1257.35 380 1257.79C384.933 1257.98 389.112 1254.25 394 1254.72C404.472 1255.73 413.184 1264.2 422 1268.68C427.435 1271.45 433.322 1268.81 439 1269.48C442.606 1269.9 446.412 1272.4 450 1272.1C454.427 1271.73 457.368 1267.45 462 1267.15C468.566 1266.72 474.407 1271 481 1268.74C489.552 1265.8 498.209 1259.2 507 1257.32C511.702 1256.31 516.205 1259.66 521 1258.41C526.643 1256.94 530.187 1249.81 536 1249.39C541.183 1249.01 547.738 1253.9 553 1255C559.125 1240.29 569.222 1221.75 558.066 1206.27C554.893 1201.87 548.45 1201.49 544.927 1196.96C538.851 1189.13 539.26 1181.53 528 1180C528.6 1174.13 532.071 1169.05 530.363 1163C527.284 1152.1 515.783 1146.32 523.302 1134.22C525.777 1130.25 532.083 1129.29 536 1127.14C545.216 1122.07 553.423 1117.26 560 1109L560 1108C554.065 1100.55 545.342 1097.23 536.17 1102.94C531.729 1105.7 525.502 1114.62 519.148 1111.05C515.326 1108.9 516.502 1104.52 516.83 1101C517.492 1093.9 517.253 1084.69 514.652 1078C512.958 1073.64 506.918 1065.3 508.013 1060.98C510.889 1049.66 521.99 1051.96 522 1039C529.43 1039 537.669 1038.93 545 1037.79C554.764 1036.26 555.36 1031.83 565 1037C566.66 1024.67 560.488 1016.13 560.343 1004C560.277 998.43 562.761 991.223 557.697 986.966C550.304 980.751 546.443 987.463 539 986.972C530.829 986.433 523.717 983.543 515 984.043C510.615 984.295 507.217 986.899 503 987.52C496.215 988.52 488.822 985.994 482 986.194C475.68 986.38 470.644 988.462 464 987.914C450.72 986.82 446.899 975.58 432.09 980.558C423.885 983.316 425.421 993.357 423 1000M431 1084L438 1094C440.916 1092.21 447.393 1089.05 448.674 1085.87C450.31 1081.8 443.646 1072.56 439.019 1073.75C435.329 1074.69 432.64 1080.9 431 1084M344 1263L344 1266L345 1266L344 1263M343 1267L344 1268L343 1267M342 1269L343 1270L342 1269M338 1271C340.096 1284.4 329.574 1280.24 325 1288C336.882 1287.99 340.429 1282.61 342 1271L338 1271z"/>
</svg>
