<?xml version="1.0" standalone="yes"?>
<svg xmlns="http://www.w3.org/2000/svg" width="1427" height="1450">
<path style="fill:#010101; stroke:none;" d="M0 0L0 1450L1427 1450L1427 0L0 0z"/>
<path style="fill:#ffffff; stroke:none;" d="M823 28L822 49C818.013 47.7474 802.129 51.3226 809.427 56.9716C814.996 61.2822 826.177 48.9945 828.62 59.02C829.088 60.9438 828.61 63.0334 828.77 64.9954C828.986 67.6381 829.39 68.7487 828 71L828 72C831.45 75.8016 830.563 91.3715 824.868 93.5925C818.756 95.9764 808.333 83.6653 806 98C796.474 91.1862 791.47 104.751 790 113C794.531 115.28 795.361 118.235 794 123C805.027 126.961 820.201 123.376 829.675 116.034C834.541 112.263 837.362 106.405 844 105.228C856.087 103.084 873.751 113.584 882.343 98.9414C885.132 94.1898 881.908 88.0432 881.286 83C880.322 75.1757 881.003 67.5485 883 60C873.003 56.1353 869.358 48.0374 866.219 38C864.52 32.5665 864.407 25.7009 858.815 22.5687C844.141 14.35 836.889 29.4285 823 28M1004 78C1011.34 76.2559 1014.07 73.1912 1016 66C1011.25 65.911 1008.07 61.5081 1011.41 57.1852C1018.14 48.4635 1029.61 47.7124 1033 35C1030.03 33.3396 1027.76 27.412 1024.81 26.9175C1018.45 25.8494 1012.85 35.7646 1010.55 39.9575C1008.83 43.0833 1005.38 44.7695 1004.03 48.1042C1001.52 54.3398 1002.42 71.3634 1004 78M976 44C982.443 48.4855 975.687 53.7002 980.704 58.243C985.044 62.1731 989.946 57.6057 989.941 52.9954C989.938 49.1333 982.352 28.6482 976.703 35.4268C975.023 37.4426 976.177 41.5474 976 44M946 75L961.961 70.1605L974 61C972.746 55.7227 964.557 37.1595 958.039 38.3765C954.415 39.053 953.465 43.3005 951.745 46C946.514 54.2064 944.156 65.1305 946 75M984 87C995.214 89.1549 997.999 69.7058 998 61C986.318 64.9745 989.459 78.0282 984 87M963 83C966.013 82.4657 969.94 83.1913 972.725 82.2277C983.41 78.5305 967.731 62.6322 962.832 77.0386C962.168 78.9913 962.684 81.0426 963 83M925 78L923 82C913.739 79.0908 912.871 84.9902 904.961 86.6636C900.051 87.7023 897.492 82.6027 893.04 82.635C882.201 82.7136 890.431 96.4099 893 100L883 103C884.398 111.558 891.317 105.854 896.867 108.612C901.86 111.093 899.365 117.025 902.858 120.203C906.612 123.618 915.438 114.695 919 113C925.359 125.342 928.2 122.105 940 122C939.125 113.924 936.512 105.505 949 106L950 99C943.993 101.712 929.687 102.098 927.314 93.895C925.714 88.3662 928.869 82.6646 925 78M855 134C859.65 147.655 873.414 152.273 869 169L858 160C857.808 166.471 855.018 170.093 850 174C852.174 179.337 853.003 182.46 851 188C853.453 190.165 855.773 192.394 854.802 195.997C853.973 199.071 845.867 205.728 852.229 207.682C863.008 210.992 869.572 203.107 875.559 196.633C882.878 188.72 891.629 182.015 898.895 173.999C902.131 170.43 903.766 165.664 907.213 162.329C916.039 153.792 929.497 155.785 928 139C922.847 143.033 907.054 151.9 901.893 144.852C897.853 139.334 902.091 132.418 894.981 128.434C889.832 125.548 868.368 121.232 863.148 124.322C859.495 126.484 858.79 131.396 855 134M908 124L906 133L912 126L908 124M828 168L842 169L843 164C834.061 160.895 831.024 154.825 828 168z"/>
</svg>
