<?xml version="1.0" standalone="yes"?>
<svg xmlns="http://www.w3.org/2000/svg" width="1427" height="1450">
<path style="fill:#010101; stroke:none;" d="M0 0L0 1450L1427 1450L1427 0L0 0z"/>
<path style="fill:#ffffff; stroke:none;" d="M304 800L292 812L279 812L263 827L242 835L240 844L239 844L237 839L231 843L225 842C225.719 847.769 230.133 854.493 224.671 859.458C219.507 864.151 211.92 856.677 214 851L209 851L209 854C197.408 854.008 198.304 858.919 196 869L187 871L186 871L177 865L178 861L175 859L174 859C170.321 863.475 170.925 865.862 173 871L153 871L156 887L142 883L140 875C127.104 884.199 140.658 890.11 150 894C147.402 899.854 135.464 911.621 133 900L122 894L120 912C114.546 908.415 114.419 906.055 116 900C106.819 893.806 97.5681 901.086 96 911C86.0671 909.464 79.9728 917.652 73 923L75 927C54.7882 932.947 35.9564 953.546 24 970C32.1754 970.707 44.4695 963.236 49.2431 956.625C51.1546 953.978 49.313 950.339 51.527 948.032C55.9463 943.426 62.2935 941.485 67 936L68 936L86 932C86.1461 923.041 102.771 922.417 110 923L109 933L103 933L105 941C96.0606 942.277 94.5882 941.234 95 951L107 946.968L117.032 948.929L136 940C137.936 928.903 133.504 926.718 145 920L144 916C150.796 912.615 154.504 905.666 161.004 902.303C168.313 898.522 177.23 898.791 185 895.216C190.554 892.661 197.786 886.432 204 890L209 889C210.74 877.085 223.331 872.847 233 868.804C235.926 867.581 239.776 868.51 241.84 865.682C246.334 859.527 249.467 842.736 258.051 840.6C262.218 839.564 264.88 847.761 269 849L271 862L272 862L277 841L302 839L294 829L303 827L318 845C329.809 829.377 308.808 813.918 306 800L304 800z"/>
</svg>
