<?xml version="1.0" standalone="yes"?>
<svg xmlns="http://www.w3.org/2000/svg" width="1427" height="1450">
<path style="fill:#010101; stroke:none;" d="M0 0L0 1450L1427 1450L1427 0L0 0z"/>
<path style="fill:#ffffff; stroke:none;" d="M554 1099L554 1100L561 1108L561 1109L533 1129C536.92 1138.1 542.935 1141.03 549.961 1147.3C556.407 1153.06 561.056 1159.27 567.907 1164.64C571.408 1167.38 574.031 1175.79 579.075 1175.51C584.435 1175.21 587.458 1166.42 591.015 1163.1C605.806 1149.33 614.425 1136.7 621.603 1118.01C626.048 1106.44 641.981 1113.59 647.972 1105.44C651.335 1100.86 647.066 1092.26 647.755 1087C648.37 1082.3 647.851 1076.4 649.388 1072C651.612 1065.63 656.706 1058.69 657.436 1052C658.047 1046.4 654.749 1040.18 653 1035L638.674 1051.61L623.043 1055.31L612.61 1069.15L577.02 1072.6L571.498 1083.79L554 1099z"/>
</svg>
