<?xml version="1.0" standalone="yes"?>
<svg xmlns="http://www.w3.org/2000/svg" width="1427" height="1450">
<path style="fill:#010101; stroke:none;" d="M0 0L0 1450L1427 1450L1427 0L0 0z"/>
<path style="fill:#ffffff; stroke:none;" d="M406 706C398.854 707.236 390.153 719.042 386.505 725.004C376.671 741.079 364.194 747.496 366.714 768C367.061 770.826 366.273 774.922 368.028 777.348C372.407 783.402 385.621 781.639 391.96 783.318C395.626 784.289 397.308 787.876 400.184 790.035C403.053 792.189 406.2 793.091 406.852 797.043C407.386 800.28 407.691 805.746 405.397 808.363C401.43 812.886 391.656 817.05 393.332 824.995C395.166 833.69 407.608 829.906 412.147 836.185C414.626 839.616 419.89 844.447 421.397 848.104C423.153 852.365 421.333 859.846 425.564 862.972C431.097 867.06 440.616 861.925 446.815 865.938C452.776 869.797 456.089 878.53 465 877.141C473.016 875.892 477.25 864.431 485 864.711C493.295 865.012 494.851 876.427 502.09 878.073C511.894 880.301 523.988 875.207 534 875C536.076 885.046 555.234 893.964 565 893.443C568.592 893.251 570.985 889.582 574.424 889.565C581.769 889.527 587.531 895.258 594.775 888.683C602.455 881.712 599.073 870.855 599 862L612 860L613 869C618.546 868.279 627.116 865.56 629.307 859.625C631.902 852.595 626.59 840.514 633.433 834.603C638.114 830.559 647.392 833.129 653 831.005C664.083 826.808 669.442 817.096 678.278 811.139C683.189 807.828 690.884 809.993 695.348 806.142C705.422 797.451 698.918 787.729 694.264 779C692.426 775.552 692.088 769.239 686.981 769.151C674.801 768.942 669.246 783.018 659 787C653.035 766.921 637.137 788.672 624 786C616.484 803.437 598.591 802.648 583 809.133C574.178 812.803 565.088 821.548 557 827C557.821 816.586 555.603 809.541 544 814L544 803C531.615 798.485 531.383 796.057 530.468 783C530.079 777.443 534.33 773.428 534.775 768C535.426 760.059 530.24 753.681 529.383 746.286C529.003 742.995 531.786 740.463 531.089 737C529.588 729.545 523.663 723.424 520.299 716.961C516.394 709.456 517.798 698.832 507.715 695.678C505.009 694.832 501.836 695.83 499 695.319C495.779 694.739 491.488 692.531 488.3 694.118C481.727 697.39 475.993 709.596 473 716C467.546 710.347 469.459 706.445 466.632 700.015C464.356 694.839 452.652 683.492 447.714 680.817C443.911 678.757 439.054 683.318 436 685.189C428.322 689.892 404.566 696.75 406 706z"/>
</svg>
