<?xml version="1.0" standalone="yes"?>
<svg xmlns="http://www.w3.org/2000/svg" width="1427" height="1450">
<path style="fill:#010101; stroke:none;" d="M0 0L0 1450L1427 1450L1427 0L0 0z"/>
<path style="fill:#ffffff; stroke:none;" d="M551 983C564.502 988.624 559.544 995.242 561.468 1007C563.455 1019.15 567.55 1026.64 565 1039C556.913 1030.36 554.322 1036.51 545 1038.61C538.331 1040.11 529.857 1039.98 523 1040C522.863 1051.62 511.878 1050.29 508.975 1060C507.596 1064.61 511.175 1067.01 512.672 1071.01C515.967 1079.82 518.363 1088.45 517.961 1098C517.816 1101.44 515.562 1107.5 518.603 1110.21C521.148 1112.49 525.46 1110.38 527.985 1109.09C532.139 1106.98 534.601 1102.68 539.004 1101.03C545.187 1098.73 551.58 1100.44 557 1095.85C561.083 1092.4 568.293 1087.87 571.304 1083.61C573.963 1079.85 571.354 1075.79 576.034 1072.6C585.926 1065.88 600.31 1072.24 610.895 1069.2C615.98 1067.74 617.869 1058.99 622.029 1055.7C626.979 1051.78 631.696 1055.86 636.816 1052.63C643.403 1048.47 647.412 1038.64 653 1033L658 1050L659 1050C667.092 1031.84 695.655 1029.45 713 1023.27C720.24 1020.7 727.222 1014.62 734 1010.86C746.605 1003.87 759.318 993.018 755.376 976C753.357 967.284 746.756 957.974 739 953.532C733.891 950.606 727.65 949.709 723.279 945.471C719.025 941.347 718.546 933.489 717 928C710.483 930.386 697.244 936.305 693.417 942.213C688.53 949.757 684.244 966.578 674.957 969.953C666.037 973.195 659.094 963.701 651 963.796C645.263 963.863 640.26 968.32 635 970.019C630.51 971.469 622.785 970.826 618 970.642C614.18 970.495 611.566 967.816 608 967.052C603.893 966.174 600.271 969.549 596 969.007C581.164 967.124 563.61 956.382 554.753 974.001C553.265 976.96 551.917 979.818 551 983z"/>
</svg>
