<?xml version="1.0" standalone="yes"?>
<svg xmlns="http://www.w3.org/2000/svg" width="1427" height="1450">
<path style="fill:#010101; stroke:none;" d="M0 0L0 1450L1427 1450L1427 0L0 0z"/>
<path style="fill:#ffffff; stroke:none;" d="M924 546C921.196 549.904 918.237 555.616 913.91 557.973C897.82 566.738 875.584 554.716 859 555.303C853.489 555.499 849.45 560.565 844 561.596C839.647 562.42 836.108 559.937 832 559C829.552 577.073 816.836 567.531 805.09 573.434C800.597 575.692 799.369 581.329 794.896 583.486C784.086 588.699 768.611 589.042 757.004 592.255C752.956 593.375 750.153 597.877 745.985 598.012C741.404 598.161 737.116 594.549 733 593C730.294 603.455 724.598 607.729 718.6 616.286C716.492 619.293 717.724 623.573 714.682 625.991C707.425 631.759 697.004 627.098 692.223 638C688.832 645.733 698.82 645.992 700.375 651.147C702.292 657.502 699.783 667.811 698 674C705.56 678.111 720.064 686.869 719.037 697C718.274 704.529 705.212 713.652 711.564 720.428C719.263 728.64 739.709 723.774 749.892 728.032C755.415 730.341 756.39 739.044 761.044 742.996C764.862 746.238 772.764 749.639 773.743 755.015C774.661 760.057 770.956 766.141 769.914 771C768.723 776.554 770.482 781.461 768.296 787C765.864 793.164 760.053 796.364 756.988 802C751.841 811.464 753.386 819.512 754.505 829C755.084 833.91 749.482 839.93 754.514 844.062C762.484 850.607 778.153 845.769 787 844.174C792.235 843.23 795.947 846.718 801 846.725C812.594 846.742 826.26 841.591 837 837.576C840.582 836.237 846.494 835.25 848.567 831.722C855.955 819.155 860.295 803.156 868.703 791.039C874.116 783.238 885.819 779.912 888.081 769.999C889.315 764.591 886.673 754.624 883.298 750.209C880.32 746.313 875.695 744.562 875.384 739C874.53 723.693 894.964 720.156 899.378 708.7C901.469 703.273 894.535 698.01 893.394 693C891.667 685.417 895.067 674.966 898.133 668.043C904.18 654.396 922.692 664.39 930.298 654.786C937.916 645.166 932.825 631.552 938.569 621.109C941.662 615.484 949.632 617.688 952.82 612.697C955.011 609.267 952.957 604.74 954.407 601C956.792 594.848 963.168 591.737 965.968 586C968.382 581.055 966.8 571.819 968 566L924 546z"/>
</svg>
