<?xml version="1.0" standalone="yes"?>
<svg xmlns="http://www.w3.org/2000/svg" width="1427" height="1450">
<path style="fill:#010101; stroke:none;" d="M0 0L0 1450L1427 1450L1427 0L0 0z"/>
<path style="fill:#ffffff; stroke:none;" d="M694 522C694.409 531.518 696.683 533.816 706 535C706 553.197 716.623 559.825 724.701 574.09C729.738 582.986 733.121 595.691 744.985 597.272C750.078 597.95 753.247 592.556 758 591.255C769.166 588.196 785.502 587.959 795.624 582.486C799.241 580.531 800.767 575.986 804.09 573.564C811.077 568.473 819.358 573.822 825.891 570.592C830.501 568.312 831.078 561.469 832 557C841.038 562.953 847.444 561.051 856 555C847.305 539.302 856.605 522.902 845.86 506.213C841.202 498.978 835.174 504.019 829 502.434C821.155 500.421 818.117 491.788 815.464 485C811.85 475.752 815.859 468.671 814.099 460C812.161 450.453 805.482 443.895 803.018 434C801.892 429.473 805.527 420.196 802.357 416.843C797.701 411.92 782.536 413.785 777 415.417C771.532 417.028 768.684 424.013 763.985 427.005C758.526 430.483 751.287 430.832 746.465 435.394C740.398 441.133 735.808 450.558 737.225 459C737.877 462.887 740.609 465.914 740.273 470C739.583 478.402 734.046 487.024 730.312 494.17C728.368 497.891 728.77 502.287 726.606 505.999C719.837 517.608 706.396 522 694 522z"/>
</svg>
