<?xml version="1.0" standalone="yes"?>
<svg xmlns="http://www.w3.org/2000/svg" width="1427" height="1450">
<path style="fill:#010101; stroke:none;" d="M0 0L0 1450L1427 1450L1427 0L0 0z"/>
<path style="fill:#ffffff; stroke:none;" d="M363 758C358.646 769.335 349.977 769.938 341.093 776.244C337.582 778.736 336.009 782.852 332.674 785.397C330.193 787.291 326.763 787.18 324 788.558C317.743 791.679 312.909 797.362 306 799C309.826 812.067 321.734 821.228 322.093 836C322.199 840.396 318.967 843.844 318.179 847.995C317.451 851.827 319.65 853.423 323 854C323.582 840.652 330.53 838.958 342 842L341 848C334.867 848.073 331.996 849.467 333 856L355 853C353.38 864.963 341.795 872.8 330 870L328 874L353 870C348.43 877.944 345.222 879.058 346 889L339 888L340 885C333.006 884.594 328.791 892.39 326 898C333.531 899.532 335.986 902.634 332 910C341.935 918.84 321.264 919.929 325 930L337.625 925.84L361 898C365.632 908.918 378.327 903.689 384 915C389.031 912.936 402.82 910.246 405.972 906.262C409.066 902.35 404.558 896.957 405.522 892.714C407.972 881.935 415.333 871.425 424 865C421.645 853.59 419.519 842.848 410.487 834.893C405.155 830.196 397.279 833.685 393.246 826.165C387.608 815.653 411.353 808.933 405.397 795.213C398.819 780.061 380.009 786.802 369.148 778.995C363.191 774.712 367.069 763.922 363 758z"/>
</svg>
