<?xml version="1.0" standalone="yes"?>
<svg xmlns="http://www.w3.org/2000/svg" width="1427" height="1450">
<path style="fill:#010101; stroke:none;" d="M0 0L0 1450L1427 1450L1427 0L0 0z"/>
<path style="fill:#ffffff; stroke:none;" d="M677 298C670.664 308.039 665.587 302.607 657.004 306.843C651.887 309.369 649.166 314.571 644 317C645.927 320.458 649.429 322.854 650.188 327.001C651.115 332.061 648.385 337.882 648.093 343C647.122 360.045 643.818 376.181 636.508 392C634.478 396.394 635.372 400.766 632.362 405C627.683 411.583 619.026 412.08 615 418L614 418C610.484 412.129 602.187 411.188 596 413C598.551 422.204 590.491 431.155 588 440L599 449L594 451L594 454C601.79 458.899 592.9 462.556 590.514 467.213C588.879 470.403 589.029 474.517 589 478L585 478L587 485L582 486L585 506L575 506L575 508L627 510.637L660 529.647L679 535L679 536C669.736 538.677 667.155 548.906 669.728 557.985C671.018 562.539 675.479 563.401 677.566 567.213C679.623 570.968 679.755 575.972 681.425 580C684.314 586.97 689.322 594.043 691.627 601C692.667 604.137 691.068 607.713 691.444 611C692.221 617.797 694.825 623.611 697 630C701.704 628.752 709.737 628.478 713.682 625.822C716.534 623.901 715.814 619.772 717.6 617.089C723.067 608.876 734.534 601.636 732.258 590C730.141 579.178 719.988 571.837 714.782 562.996C711.534 557.482 707.801 552.185 705.904 546C705.038 543.177 705.858 538.171 703.397 536.175C701.132 534.339 696.78 534.353 694 534L693 521C705.155 521 718.637 518.647 725.606 506.985C727.834 503.256 727.432 498.844 729.312 495.039C733.126 487.325 738.62 478.955 739.516 470C740.289 462.281 733.999 457.272 737.353 449C739.826 442.898 744.179 435.742 750.015 432.414C759.05 427.261 772.897 424.967 776.228 413C778.797 403.769 777.183 390.396 769.787 383.749C763.344 377.959 752.919 374.642 747.723 367.945C738.265 355.756 750.659 336.553 742.057 326.148C737.539 320.684 730.879 324.242 725 323.852C719.3 323.474 716.268 318.06 711 316.938C707.173 316.122 703.838 319.459 700 318.481C690.081 315.956 684.6 303.812 677 298M540 300L542 307C531.926 309.757 531.303 318.36 522.985 323.357C519.545 325.424 514.856 322.792 511.919 325.743C503.701 334.002 501.367 345.616 489 349L506 372L506 373L505 377L510 375C507.732 361.961 523.401 358.932 533 363L540 360L539 346L531 348L541.582 332.985L539.488 314.104L548 303L540 300M454 330L456.157 341.961L456 357L458 357L470 331L476 330L477 324C470.049 321.222 460.25 326.374 454 330M418 351C423.849 348.725 433.928 342.482 435 336C439.251 335.093 440.514 333.257 441 329C434.347 327.957 425.143 330.092 422.918 337.425C422.184 339.845 423.614 342.379 422.617 344.726C421.526 347.29 418.952 348.223 418 351M580 340L576 346C578.114 352.519 581.42 351.325 587 349L584 341L580 340M555 343C548.913 354.195 546.985 354.364 553 367L558 366L558 361L568 366C567.082 354.76 566.891 345.727 555 343M443 381L442 381L437 384L438 389L450 390.272L468 384L443 381M582 391L572 397C572.239 407.241 565.613 408.664 557 407L552 417C570.421 409.39 551.65 443.211 563 446C566.959 438.943 572.423 442.204 579 442C571.947 431.547 559.929 421.724 574 412L575 416L582.843 412.526L582.599 404.985L589 390L582 391z"/>
</svg>
