<?xml version="1.0" standalone="yes"?>
<svg xmlns="http://www.w3.org/2000/svg" width="1427" height="1450">
<path style="fill:#010101; stroke:none;" d="M0 0L0 1450L1427 1450L1427 0L0 0z"/>
<path style="fill:#ffffff; stroke:none;" d="M585 511L581 515C582.306 520.641 583.896 526.777 589 530L585 532L588 540L597 538L598 543L603 539L609 539L609 545C613.172 544.861 615.072 544.253 616 540L624 539L623 533C634.108 533 643.194 532.865 646 520C633.361 513.262 617.521 507.88 603 508.509C596.649 508.784 591.581 511.692 585 511z"/>
</svg>
