<?xml version="1.0" standalone="yes"?>
<svg xmlns="http://www.w3.org/2000/svg" width="1427" height="1450">
<path style="fill:#010101; stroke:none;" d="M0 0L0 1450L1427 1450L1427 0L0 0z"/>
<path style="fill:#ffffff; stroke:none;" d="M1330 275C1327.91 280.331 1324.49 280.042 1320.97 283.599C1314.39 290.256 1309.72 299.631 1302.65 306.201C1298.28 310.266 1287.47 314.411 1294 321L1294 322C1286.34 327.397 1281.18 338.456 1271 337C1269.67 345.544 1258.8 348.816 1251 348.526C1233.44 347.875 1219.82 330.184 1203 340C1202.4 329.177 1186.19 332.521 1178 331L1179 328C1175.41 327.286 1164.39 326.429 1161.94 329.448C1159.01 333.047 1158.87 338.952 1156.09 343C1151.16 350.19 1146.74 355.419 1144.21 364C1140.02 378.184 1142.48 393.547 1139.92 408C1138.28 417.205 1123.35 428.893 1131.56 437.49C1143.48 449.96 1158.48 433.706 1169 430.513C1178.58 427.606 1190.04 427.931 1200 426C1197.28 447.578 1212.34 460.907 1214 482C1225.26 480.003 1242.05 491.564 1251.86 485.062C1255.96 482.341 1255.36 476.739 1258.43 473.213C1261.24 469.993 1265.64 469.194 1268.7 466.363C1271.73 463.557 1271.22 459.454 1273.16 456.105C1274.81 453.274 1278.03 452.217 1279.86 449.61C1283.03 445.121 1283.01 439.327 1289.02 437.188C1297.23 434.26 1306.99 444.574 1316 444.487C1323.91 444.411 1329.93 435.201 1338 436.651C1344.08 437.743 1348.47 445.436 1355 444.088C1360.12 443.031 1363.23 438.008 1368 436.148C1377.83 432.319 1384.35 436.923 1392.35 426.714C1399.86 417.114 1394.31 408.234 1407 401C1405.02 396.75 1396.47 394.402 1396.04 390.775C1395.19 383.785 1407.1 377.959 1408.19 371C1409.77 360.855 1402.53 355.417 1400.66 346.996C1399.41 341.36 1397.16 331.696 1398.39 326C1399.33 321.655 1404.27 317.434 1403.84 313C1403.4 308.384 1397.21 300.711 1394.21 297.213C1386.04 287.653 1375.13 292.527 1365 289.347C1361.01 288.095 1357.9 282.452 1353.91 282.306C1349.26 282.135 1346.02 288.292 1341.01 286.643C1336.06 285.009 1333.81 278.239 1330 275z"/>
</svg>
