<?xml version="1.0" standalone="yes"?>
<svg xmlns="http://www.w3.org/2000/svg" width="1427" height="1450">
<path style="fill:#010101; stroke:none;" d="M0 0L0 1450L1427 1450L1427 0L0 0z"/>
<path style="fill:#ffffff; stroke:none;" d="M645 526C637.949 533.026 633.666 534 624 534L625 540C620.191 540.224 617.091 540.957 616 546L608 546L608 540L604 540L604 543L597 544L596 539L588 541C591.642 560.329 576.988 564.531 569.247 580C563.408 591.669 558.924 605.691 550.877 616C542.766 626.391 530.608 631.525 520.17 638.969C515.447 642.337 512.661 647.74 507.985 651.214C490.913 663.901 468.712 673.092 448 678L466.03 698.043L473 715C476.161 709.063 482.88 694.507 490.039 693.067C495.713 691.926 501.834 695.141 508 694C508.214 684.908 513.381 682.384 518.017 675.625C519.838 672.969 520.021 669.765 523.109 668.028C525.81 666.508 529.022 667.487 531.83 666.401C536.55 664.576 540.132 660.219 545.581 664.013C556.429 671.567 545.404 688.548 553.149 695.809C557.49 699.878 568.757 695.721 575 697.426C581.741 699.267 586.968 707.838 594 708.181C605.543 708.742 605.725 699.038 612.133 693.359C616.785 689.237 622.689 692.633 627.57 689.566C631.801 686.909 632.385 676.567 633 672C642.924 671.096 643.592 660.979 646.576 653C649.833 644.288 649.495 638.583 650.448 630C650.746 627.312 652.934 624.963 652.549 622.174C652.033 618.441 646.909 615.729 644.681 612.961C640.63 607.929 640.418 601.273 636.637 596.314C632.069 590.324 625.276 590.609 621.606 582C619.644 577.396 624.01 574.127 625.283 570C626.275 566.784 625.258 563.268 625 560C628.894 559.497 633.534 559.063 636.852 556.772C640.011 554.59 639.722 551.135 641.313 548C645.302 540.14 654.257 533.753 645 526z"/>
</svg>
