<?xml version="1.0" standalone="yes"?>
<svg xmlns="http://www.w3.org/2000/svg" width="1427" height="1450">
<path style="fill:#010101; stroke:none;" d="M0 0L0 1450L1427 1450L1427 0L0 0z"/>
<path style="fill:#ffffff; stroke:none;" d="M612 870L611 861C593.236 863.257 605.859 876.862 595.775 887.941C588.08 896.397 582.402 889.667 574 890.236C570.624 890.465 568.425 893.786 565 894.038C554.778 894.788 545.024 886.992 537.133 881.649C534.9 880.137 533.487 877.01 530.776 876.356C521.734 874.176 511.238 881.362 502.039 878.458C494.701 876.142 493.102 864.777 484.001 865.403C476.018 865.951 472.68 877.361 464 877.742C454.274 878.168 451.874 867.3 443.96 865.483C424.42 860.996 409.44 873.611 406.164 893C405.386 897.602 407.986 903.127 408 908L383 916C379.868 903.083 365.969 910.165 361 899C353.158 904.528 352.003 911.914 346.363 918.791C340.455 925.994 334.384 927.341 326 930L330 951C339.004 944.945 346.052 929.265 357 930L357 935C349.126 935.626 349.004 944.734 347 951C361.682 951.173 349.076 961.563 349 970C342.829 965.093 334.97 965.904 333 974L330 974L328 970C322.188 976.876 313.103 986.08 316 996C320.458 994.205 323.262 992.054 327 996C339.955 992.685 337.363 1010.52 351 1005C357.807 1015.44 363.299 997.385 367 993C370.023 1004.45 393.893 1008.33 395 994L405 994L410 1000L410 996L413 997L416 989L417 989L420 1000C427.695 995.505 422.033 983.064 433.015 979.558C446.55 975.236 449.903 985.538 462 986.83C469.492 987.631 474.882 985.779 482 985.383C488.885 984.999 496.163 987.491 503 986.748C507.576 986.25 511.298 983.313 516 983.043C524.013 982.584 534.014 987.557 541 986.258C555.834 983.498 553.428 963.04 570 963.008C579.354 962.99 587.814 967.709 597 968.431C600.572 968.712 603.527 966.184 607 966.477C610.887 966.805 613.919 969.746 618 969.816C622.937 969.901 630.306 970.635 635 969.359C640.318 967.913 645.279 963.098 651 963.271C659.253 963.52 666.797 972.82 675.787 968.967C684.708 965.143 687.967 949.402 692.995 942.105C696.16 937.511 702.399 935.744 707 932.938C710.359 930.89 717.559 927.984 716.623 923.018C715.542 917.275 703.166 916.561 699.603 910.996C697.066 907.032 698.545 902.364 697.772 898C697.117 894.294 694.367 891.587 693.43 888C692.004 882.542 692.916 876.5 691.606 871.015C689.787 863.402 679.95 866.409 678.079 859.891C673.786 844.941 702.328 837.833 712 837.155C717.286 836.785 722.927 840.297 728 841.497C735.62 843.3 744.187 843.839 752 844C751.242 836.629 755.91 829.964 751.633 823.058C746.614 814.954 738.038 819.552 731.015 816.951C725.768 815.008 718.863 808.371 714.043 805.034C710.826 802.806 708.312 794.99 703.989 795.466C698.108 796.114 698.509 805.789 692.957 808.11C688.643 809.914 683.367 809.119 679.224 811.433C669.981 816.593 663.516 826.841 653 831.583C647.584 834.026 638.328 831.373 633.738 835.028C627.918 839.663 631.803 852.777 630.111 858.896C628.301 865.445 617.923 869.231 612 870z"/>
</svg>
