<?xml version="1.0" standalone="yes"?>
<svg xmlns="http://www.w3.org/2000/svg" width="1427" height="1450">
<path style="fill:#010101; stroke:none;" d="M0 0L0 1450L1427 1450L1427 0L0 0z"/>
<path style="fill:#ffffff; stroke:none;" d="M545 803L544 813C553.627 810.407 559.199 814.542 558 825C567.652 821.347 574.039 812.948 583 808.569C597.02 801.718 618.683 803.819 623 785C639.569 788.416 648.362 767.691 660 786C669.302 782.375 676.052 766.855 687.571 768.495C694.308 769.455 698.568 787.47 702.916 792.416C709.862 800.317 720.014 811.684 730.093 815.987C735.525 818.305 744.82 817.721 751 819C753.06 813.943 753.432 807.701 755.988 803C759.851 795.898 766.364 792.254 768.728 784C769.973 779.653 768.243 775.403 769.195 771C770.257 766.091 775.072 758.102 772.728 753.184C770.006 747.476 761.483 744.669 757.418 739.829C754.796 736.707 754.338 731.522 750.725 729.317C739.761 722.626 720.587 730.298 711.304 720.656C706.041 715.189 711.813 711.567 714.586 706.911C718.072 701.059 719.61 695.284 716.291 689.043C709.748 676.74 701.718 684.238 693 687.072C682.743 690.406 669.335 692.164 660.039 697.028C654.011 700.182 650.69 706.195 644 709C639.199 698.851 624.63 682.677 612.279 693.576C606.201 698.939 605.269 711.401 593 708.471C586.63 706.951 582.389 700.171 576 698.426C569.905 696.761 558.063 700.419 553.85 696.747C546.27 690.141 555.899 660.092 538.089 663.407C535.608 663.868 534.088 665.924 531.911 666.992C529.143 668.348 525.961 667.371 523.228 668.603C520.22 669.96 520.593 673.213 518.988 675.61C514.931 681.674 507.668 683.951 509.232 692.985C510.043 697.667 514.556 699.233 516.697 703.093C519.037 707.314 518.874 712.542 520.853 716.911C523.82 723.457 528.988 728.93 531.338 736C532.661 739.981 529.497 743.088 530.19 747C531.446 754.091 536.413 760.357 535.581 768C534.726 775.86 525.831 791 533.654 798.4C536.228 800.836 541.698 801.655 545 803z"/>
</svg>
