<?xml version="1.0" standalone="yes"?>
<svg xmlns="http://www.w3.org/2000/svg" width="1427" height="1450">
<path style="fill:#010101; stroke:none;" d="M0 0L0 1450L1427 1450L1427 0L0 0z"/>
<path style="fill:#ffffff; stroke:none;" d="M647 521C645.831 526.245 650.615 529.121 650.022 534C649.378 539.305 642.686 549.116 639.977 553.906C637.051 559.079 631.436 557.854 627.618 561.164C626.205 562.39 621.233 579.006 621.696 581C623.786 590.003 631.333 589.938 636.362 595.314C640.874 600.138 640.842 607.683 644.928 612.91C647.245 615.873 653.3 618.869 653.173 623.039C652.728 637.611 648.534 654.092 641.892 667.942C638.113 675.823 629.296 677.268 630.618 688.961C631.273 694.758 640.936 702.497 644 708C651.823 705.741 654.956 698.225 662.001 695.603C672.746 691.605 688.269 690.83 697.98 684.272C703.512 680.537 702.415 676.522 697 674L701 650C696.872 648.456 690.517 645.539 691.172 640C691.59 636.463 695.447 634.5 696.019 631C696.779 626.345 692.424 620.566 691.453 616C690.397 611.035 692.406 605.527 691.157 601C690.077 597.085 686.638 593.779 685.015 590C681.987 582.946 680.417 573.681 676.683 567.213C674.516 563.459 670.25 562.533 668.958 557.985C666.464 549.208 668.556 539.552 677 536L662 531.125L647 521z"/>
</svg>
