<?xml version="1.0" standalone="yes"?>
<svg xmlns="http://www.w3.org/2000/svg" width="1427" height="1450">
<path style="fill:#010101; stroke:none;" d="M0 0L0 1450L1427 1450L1427 0L0 0z"/>
<path style="fill:#ffffff; stroke:none;" d="M1130 310C1127.47 318.576 1132.26 319.556 1136 326C1144.58 323.008 1142.83 316.577 1141 309L1130 310M1102 324C1099.64 327.561 1097.02 331.676 1092.99 333.486C1085.56 336.814 1080.62 333.949 1076 342L1068 331L1068 336L1059 337L1064 340L1064 341L1056 346C1056.44 350.605 1055.85 352.328 1052 355C1052 352.148 1051.71 330.609 1045.03 341.348C1043.04 344.544 1045.28 348.545 1044.45 352C1043.27 356.926 1039.36 361.412 1036 365L1035 360L1031 361L1032 375L1040.32 392L1036.78 406L1045.81 434L1044.38 447.985L1058.4 461.329L1065 487C1080.19 487 1088.5 499.513 1104 499.737C1116.21 499.913 1121.02 487.731 1131 485.322C1139.63 483.24 1152.16 489.877 1161 491C1173.08 470.286 1194.65 482.002 1213 482C1212.11 461.195 1196.42 447.847 1199 427C1189.04 428.931 1177.58 428.606 1168 431.513C1156.58 434.979 1144.48 450.073 1131.43 438.298C1122.37 430.123 1136.71 419.476 1138.55 411C1141.81 395.928 1138.81 379.869 1143.21 365C1146.98 352.227 1157.45 344.092 1160 331C1152.92 332.931 1140.29 339.611 1133 337.458C1128.37 336.089 1124.89 326.838 1120.12 327.466C1115.51 328.073 1118.1 334.514 1119 337L1114 338L1114 336L1110 337C1109.72 330.414 1109.31 325.174 1102 324z"/>
</svg>
