<?xml version="1.0" standalone="yes"?>
<svg xmlns="http://www.w3.org/2000/svg" width="1427" height="1450">
<path style="fill:#010101; stroke:none;" d="M0 0L0 1450L1427 1450L1427 0L0 0z"/>
<path style="fill:#ffffff; stroke:none;" d="M969 566C973.019 559.052 980.435 557.665 984.647 551.775C989.494 544.999 990.474 526.626 999.105 523.647C1007.33 520.806 1013.5 532.857 1021 533.432C1031.16 534.211 1044.27 528.132 1049 518.985C1051.78 513.623 1051.33 507.422 1053.8 502C1056.19 496.753 1061.83 492.493 1063.32 487C1064.53 482.519 1060.4 464.23 1057.4 460.786C1053.35 456.143 1046.67 455.216 1044.13 448.985C1042.02 443.823 1045.94 440.09 1045.28 435C1044.01 425.221 1037.59 416.332 1036.36 407C1035.64 401.578 1040.4 396.708 1039.52 391C1038.03 381.373 1029.76 376.557 1031 366C1024.81 366.783 1007.9 367.073 1004.04 372.564C1002.23 375.14 1003.87 380.052 1004 383L999 383L998 373L981 378C982.075 382.322 981.719 384.442 979 388L976 381C964.559 384.302 963.432 390.243 966 401L952 390L946 392L947 398C941.046 391.56 942.503 385.098 941 377L934 390C931.983 384.956 934.647 379.485 932.788 375.175C930.719 370.38 915.823 371.26 911 372C910.01 360.752 900.325 351.805 894 343L891 344L890 336C884.975 336.439 875.065 337.908 871.938 342.279C868.998 346.388 870.98 351.842 865.941 354.758C862.991 356.466 860.115 355.226 857 355.829C853.462 356.515 850.507 359.014 847 359.945C839.996 361.804 829.998 361.417 824.305 366.43C814.665 374.916 818.765 396.663 816.502 407.985C815.033 415.334 806.007 413.989 804.329 421.019C802.427 428.987 803.399 439.403 807.43 446.7C809.184 449.874 812.578 451.439 813.725 455.039C815.87 461.765 813.063 466.503 813.383 473C813.772 480.909 817.32 489.039 821.043 495.895C827.167 507.173 840.479 495.912 846.697 506.213C850.037 511.746 855.016 525.496 854.414 531.961C853.736 539.249 847.833 545.754 855.533 552.411C859.018 555.424 864.747 554.789 869 555.666C881.689 558.283 901.274 562.751 913.826 557.4C918.74 555.306 920.359 546.829 926.039 546.555C941.742 545.797 955.467 560.168 969 566z"/>
<path style="fill:#010101; stroke:none;" d="M966 401L967 402L966 401z"/>
</svg>
