<?xml version="1.0" standalone="yes"?>
<svg xmlns="http://www.w3.org/2000/svg" width="1427" height="1450">
<path style="fill:#010101; stroke:none;" d="M0 0L0 1450L1427 1450L1427 0L0 0z"/>
<path style="fill:#ffffff; stroke:none;" d="M787 177C782.474 187.678 779.843 198.228 767 202L768 198L765 196L764 196L747 199L751 207C757.531 206.683 767.903 204.206 773.853 207.885C782.554 213.265 778.959 228.028 770 230L775 245L765.856 253.363L753 251.149L742 255.998L723.105 261.519L714.895 270.2L705.39 275.086L678 297C682.649 304.028 691.133 316.173 700 318.062C703.827 318.878 707.162 315.541 711 316.519C715.105 317.564 717.831 321.486 722 322.57C727.762 324.068 734.639 319.93 739.826 323.603C750.201 330.951 742.895 351.712 745.859 363C749.243 375.889 769.641 379.184 775.737 392C778.654 398.132 774.425 409.757 779.514 413.987C783.646 417.421 787.723 413.457 792 412.963C799.355 412.114 807.843 419.546 814.142 411.581C816.863 408.141 815.31 403.915 815.675 400C816.44 391.812 816.508 377.07 821.032 370.004C829.331 357.042 852.444 359.696 864.941 354.818C870.641 352.593 868.287 345.443 871.728 341.419C875.683 336.793 885.473 336.116 891 334C883.114 309.763 869.206 286.778 855.474 266C853.208 262.571 852.857 258.364 850.487 255C838.743 238.334 819.159 223.586 818 201L810 213C812.388 199.486 803.377 200.766 796.638 192.786C793.086 188.58 791.1 182.051 789 177L787 177z"/>
</svg>
