<?xml version="1.0" standalone="yes"?>
<svg xmlns="http://www.w3.org/2000/svg" width="1427" height="1450">
<path style="fill:#010101; stroke:none;" d="M0 0L0 1450L1427 1450L1427 0L0 0z"/>
<path style="fill:#ffffff; stroke:none;" d="M332 1289L332 1290L335 1291L335 1296C340.716 1290.42 338.803 1284.27 348 1282L344 1274C352.378 1270.63 342.56 1243.69 360.07 1256.07C362.274 1257.63 363.681 1258.67 365 1261L377 1263C374.873 1269.05 381.23 1273.57 387 1273L387 1272L380 1263L399 1261C398.31 1264.3 398.079 1266.09 401 1268C402.595 1262.92 408.205 1262.04 409.678 1268.01C412.329 1278.75 406.043 1286.81 412 1298L414 1298L415 1293L427 1304L427 1305C420.173 1314.94 429.068 1335.48 442 1333L447 1338L448 1335L468 1347C463.893 1353.62 451.027 1344.51 443 1349L442 1345L437 1348C432.848 1339.25 426.341 1344.77 419 1345L424 1336L421 1335L426 1330L426 1329L419 1324L411 1330C413.096 1339.94 402.648 1335.37 399 1341C404.432 1340.36 408.189 1342.12 408 1348C412.157 1348.78 424.099 1348.97 423.917 1355.05C423.772 1359.91 419.347 1363.83 419 1369L409 1366C406.719 1369.71 383.601 1368.87 396.975 1375.78C398.336 1376.48 399.663 1377.25 401 1378L401 1379L399 1380L399 1381C402.908 1384.99 406.572 1388.23 402 1393L401 1403C406.654 1404.46 411.916 1404.5 415 1410L416 1410C420.834 1400.91 431.247 1405.46 440 1404L440 1394L444 1395L446 1389C437.146 1390.64 427.466 1394.77 420 1389L420 1388L443 1376L436 1368C430.757 1368.82 428.004 1367.37 424 1364C434.79 1358.96 442.378 1359.2 454 1362C452.132 1373.97 459.688 1374.23 468.424 1376.38C473.278 1377.57 477.073 1382.44 481 1377C473.015 1373.65 464.331 1371.6 463 1362C470.78 1363.7 479.275 1360.06 485 1367L507 1362L494 1371L507 1391L502 1393L502 1395L506 1398L507 1398C516.49 1389.79 539.076 1378.66 551 1384C551.671 1380.39 550.382 1372.37 552.693 1369.73C556.459 1365.43 565.858 1366.3 570.853 1363.98C575.234 1361.95 574.038 1356.69 576.013 1353.01C578.454 1348.47 583.606 1346.68 583.926 1341C584.323 1333.96 578.187 1329.59 577.239 1323C576.648 1318.89 578.878 1315.05 578.436 1311C577.702 1304.27 572.366 1297.54 570.348 1291C568.446 1284.83 570.38 1277.9 567.991 1272C564.209 1262.66 546.514 1249.67 536 1249.85C529.703 1249.95 526.105 1258.04 520 1259.34C515.26 1260.34 510.685 1256.7 506 1258.03C496.889 1260.61 488.342 1267.9 479 1269.97C472.647 1271.38 466.479 1267.11 460 1268.23C456.047 1268.91 453.059 1272.64 449 1272.54C442.958 1272.39 429.411 1272.32 424 1270.14C414.319 1266.24 406.542 1258.68 396 1255.74C389.017 1253.79 380.796 1258.88 373 1257.73C365.307 1256.6 356.656 1248.66 349.019 1251.6C342.466 1254.13 345.798 1259.92 345.077 1265C343.894 1273.33 340.262 1285.68 332 1289M325 1289L325 1290L330 1290L325 1289z"/>
</svg>
