<?xml version="1.0" standalone="yes"?>
<svg xmlns="http://www.w3.org/2000/svg" width="1450" height="1269">
<path style="fill:#010101; stroke:none;" d="M0 0L0 1269L1450 1269L1450 0L0 0z"/>
<path style="fill:#ffffff; stroke:none;" d="M783 433C783.899 444.274 799.452 450.673 807.996 457.92C820.559 468.574 827.969 482.884 845 488.644C852.251 491.097 858.218 488.022 864.424 489.476C875.813 492.144 880.099 501.86 893 497.113C902.117 493.759 923.127 496.657 926 486C931.007 488.967 939.549 493.103 941.508 499.015C942.935 503.32 939.789 508.449 940.305 512.996C941.231 521.163 953.298 529.973 961 530C957.286 518.585 957.287 505.687 952.084 495C949.042 488.751 942.891 484.919 939.352 479C934.841 471.455 933.268 462.683 929.1 455C919.824 437.904 907.976 422.457 899.247 405C894.065 394.637 889.314 383.868 881.714 375C879.515 372.434 875.879 366.609 871.961 367.046C866.226 367.684 859.679 375.342 855 378.481C844.751 385.356 834.356 390.351 826.214 400C822.671 404.198 822.006 409.482 819.006 413.896C810.054 427.066 798.797 432.99 783 433z"/>
</svg>
