<?xml version="1.0" standalone="yes"?>
<svg xmlns="http://www.w3.org/2000/svg" width="1450" height="1269">
<path style="fill:#010101; stroke:none;" d="M0 0L0 1269L1450 1269L1450 0L0 0z"/>
<path style="fill:#ffffff; stroke:none;" d="M909 275C909 291.772 900.272 297.956 893.565 312C887.813 324.045 886.122 337.927 884.911 351C884.22 358.455 881.39 363.218 874 365C878.063 371.495 883.912 376.56 888.06 383C902.705 405.735 914.937 430.725 928.935 454C933.655 461.848 935.352 471.007 939.796 479C942.615 484.069 947.105 487.482 950.606 492C959.273 503.181 960.173 525.193 976 529C979.425 524.788 985.981 525.111 988.697 520.772C992.627 514.492 988.88 499.032 995.148 495.652C1012.2 486.46 1037.21 499.535 1039.51 519C1040.93 530.974 1032.11 543.125 1041.3 555C1048.97 564.906 1054.09 560.999 1064 564.233C1079.03 569.14 1093.69 569.486 1109 569.843C1116.97 570.028 1123.51 574.693 1132 572.581C1136.82 571.383 1140.75 567.42 1145 565C1143.58 554.438 1136.76 542.348 1142.43 532C1149.88 518.408 1170.84 509.56 1169.78 491.001C1169.3 482.582 1161.75 483.391 1156.04 479.914C1151.95 477.424 1149.06 472.771 1146.24 469C1141.45 462.595 1140.79 453.139 1135.5 447.39C1128.83 440.14 1116.77 430.035 1108 425.529C1100.7 421.779 1092.21 420.459 1085.04 416.468C1079.88 413.591 1078.94 407.296 1074.39 403.988C1068.18 399.471 1057.46 404.18 1051 406C1047.9 399.779 1042.14 395.986 1038.8 389.999C1034.05 381.498 1031.68 368.362 1029.17 359C1026.41 348.699 1037.01 342.652 1029.65 332.213C1020.44 319.163 999.379 319.149 986 314.907C970.593 310.021 955.129 303.521 942.015 293.957C937.486 290.653 935.594 284.245 930.79 281.649C924.489 278.244 915.891 276.956 909 275z"/>
</svg>
