<?xml version="1.0" standalone="yes"?>
<svg xmlns="http://www.w3.org/2000/svg" width="1450" height="1269">
<path style="fill:#010101; stroke:none;" d="M0 0L0 1269L1450 1269L1450 0L0 0z"/>
<path style="fill:#ffffff; stroke:none;" d="M401 326C394.37 331.792 378.782 339.958 378.781 350C378.78 360.69 389.371 361.115 393.618 368.108C396.406 372.7 394.092 377.277 393 382L368 379.53L356.39 378.693L348.895 386.397L338 387.727L321 397L318 385C308.135 386.902 310.489 392.428 305.411 398.621C300.758 404.296 291.915 406.532 286 410.623C283.097 412.63 280.004 416.664 276.424 417.374C267.899 419.065 258.35 406.219 250.039 405.287C246.643 404.906 244.949 408.403 241.961 409.308C232.652 412.127 228.026 402.314 228 395C224.275 394.306 218.874 392.536 215.17 393.688C212.102 394.642 210.443 397.479 206.996 397.682C197.654 398.234 189.085 393.266 180.004 392.814C176.51 392.64 174.396 394.864 173.269 398.005C169.731 407.863 183.143 415.174 179.034 427C175.038 438.501 155.073 456.94 163.225 468.772C167.192 474.532 178.981 474.068 185 477.414C196.015 483.535 201.974 494.793 211.329 502.03C214.752 504.679 219.27 503.769 222.57 506.027C229.037 510.452 222.567 519.866 228.148 524.869C235.534 531.489 243.607 526.551 250.61 531.028C256.146 534.567 255 543.446 255 549L269 548C272.726 555.942 278.414 557.717 287 556.714C290.41 556.316 296.378 554.327 299.352 556.693C301.962 558.77 311.174 566.465 312.397 569.214C316.28 577.941 316.032 595.779 326 599L327 588C345.565 588 358.031 602.629 376.957 597.137C388.596 593.76 383.24 572.765 397.999 574.18C406.476 574.992 403.204 583.875 407.589 588.182C414.981 595.444 426.102 599.781 436 599C437.564 590.608 439.208 581.593 430.7 576.139C426.938 573.727 419.649 574.337 417.603 569.772C413.795 561.274 424.047 552.84 417.89 545.279C412.081 538.144 393.753 539.938 393.074 527.996C392.083 510.559 416.655 494.363 424.648 481C437.122 460.148 435.789 437.524 441 415C463.709 421.397 488.842 434.43 511 420C499.466 409.742 485.42 415.16 472.015 410.772C466.284 408.896 457.629 399.06 453.253 394.626C448.294 389.601 458.821 380.834 455.883 374C453.812 369.184 448.433 366.098 445.314 362C441.29 356.714 441.877 350.151 436.71 345.228C433.202 341.885 428.229 341.285 424 339.191C416.08 335.269 408.794 330.148 401 326z"/>
</svg>
