<?xml version="1.0" standalone="yes"?>
<svg xmlns="http://www.w3.org/2000/svg" width="1450" height="1269">
<path style="fill:#010101; stroke:none;" d="M0 0L0 1269L1450 1269L1450 0L0 0z"/>
<path style="fill:#ffffff; stroke:none;" d="M451 393C457.23 397.475 463.583 406.391 470.174 409.436C484.625 416.112 507.6 412 523 412C514.3 396.102 487.825 401.012 477 386L468 390L470 382C460.521 380.268 454.754 384.308 451 393M529 409L529 426L511.996 420.699L482 427.896L442 416C437.71 425.678 439.095 434.773 437.718 445C436.068 457.242 432.002 469.379 425.648 480C417.092 494.303 392.428 510.15 394.059 528.957C395.036 540.212 414.624 538.285 419.474 547.018C423.098 553.544 416.146 561.433 418.318 568.856C419.886 574.215 432.433 576.011 436.231 582.001C439.964 587.886 436.423 592.824 437.508 599C438.263 603.303 441.638 607.431 444 611C447.427 609.029 452.072 603.696 456.285 604.63C462.247 605.953 470.372 618.745 476.639 614.882C480.083 612.759 476.37 607.643 475.638 605C473.942 598.873 475.321 590.186 481 587L487 597L488 597C490.809 592.443 494.248 588.114 496.034 583C497.647 578.38 496.607 574.312 501.059 571.108C511.268 563.76 525.455 568.168 531.701 555C539.025 539.556 529.127 525.11 529 510C539.161 509.964 539.939 503.056 545.758 496C555.558 484.114 565.406 470.79 578 461.719C585.575 456.263 596.553 459.518 603.697 453.301C607.809 449.722 608.562 441.066 610 436L529 409z"/>
</svg>
