<?xml version="1.0" standalone="yes"?>
<svg xmlns="http://www.w3.org/2000/svg" width="1450" height="1269">
<path style="fill:#010101; stroke:none;" d="M0 0L0 1269L1450 1269L1450 0L0 0z"/>
<path style="fill:#ffffff; stroke:none;" d="M666 441L666 435L661 437L658 429C652.774 430.429 647.428 434.011 642 434.321C633.451 434.809 619.334 431.313 611.563 437.028C605.722 441.323 609.359 451.165 601.956 455.095C592.552 460.087 582.497 457.972 574 465.135C563.253 474.195 553.759 485.914 545.123 497C539.986 503.595 539.545 510.887 530 511C530.122 525.568 539.756 539.117 532.701 554C525.726 568.712 512.207 563.58 501.148 571.479C497.436 574.131 498.385 578.133 497.034 582C494.988 587.855 490.727 592.518 488 598L487 598L481 588C469.334 592.689 483.117 610.765 476.747 615.223C471.093 619.179 465.216 609.522 460.985 607.264C454.073 603.576 450.684 606.792 445 611C447.947 617.971 453.237 623.629 460 627C456.266 635.981 447.164 646.812 445.508 656C444.104 663.798 449.343 672.266 446.995 680C442.793 693.835 435.707 706.83 431.924 721C425.159 746.337 423.69 774.009 421.91 800C421.292 809.038 423.656 821.553 421.359 830C419.47 836.947 412.064 844.07 414.319 851.786C416.912 860.663 432.147 844.041 439.334 852.073C448.364 862.165 444.001 871.111 446.379 883C447.569 888.951 451.431 894.049 452.621 900C453.514 904.464 451.943 909.637 453.603 913.911C455.464 918.703 458.889 920.322 458.995 926C459.089 930.963 459.531 936.313 457.648 941C455.467 946.429 450.695 952.018 450.383 958C450.035 964.676 455.41 969.677 455.678 976C455.881 980.777 451.628 984.283 451.109 989C449.895 1000.02 453.152 1012.21 450.39 1023C446.389 1038.64 427.521 1062.33 451 1069C454.172 1060.82 461.02 1058.81 468 1054.65C472.842 1051.76 476.655 1046.21 482 1044.3C486.124 1042.82 492.545 1043.35 497 1043C498.358 1035.69 498.063 1026.6 502.089 1020.09C504.977 1015.42 510.588 1013.39 513.648 1008.83C517.036 1003.77 518.408 996.864 522.637 992.419C525.831 989.063 531.027 989.37 534.366 986.298C540.565 980.594 543.317 970.663 548.76 964.105C551.985 960.219 556.901 959.698 560.366 956.351C568.287 948.697 575.126 930.17 587.015 927.323C593.873 925.68 597.2 932.335 603 933.958C608.881 935.604 614.563 931.821 621 934.26C636.103 939.984 640.882 958.493 648 971C659.826 968.517 659.933 956.766 668.3 949.419C674.369 944.091 681.643 944.736 686.312 936.999C689.624 931.51 689.123 920.792 694.418 916.877C699.646 913.013 706.522 925.677 714 924.892C722.791 923.969 729.322 915.325 738 913.63C743.368 912.582 746.978 918.708 752 919.721C761.026 921.541 774.755 913.808 782.787 917.317C788.307 919.729 787.998 928.107 788 933C788.002 936.999 788.517 941.351 786.566 945C783.641 950.472 777.074 954.61 775.937 961C774.23 970.585 786.324 976.697 794 976.891C801.285 977.075 803.485 970.191 809.004 966.858C819.346 960.612 831.65 965.719 840.721 955.714C843.807 952.31 843.409 947.817 845.857 944.174C851.89 935.196 871.715 922.283 883 924.343C891.683 925.927 892.564 934.81 892.964 942C893.564 952.771 895.137 971.512 906 976.972C910.75 979.359 916.947 978.058 922 979.316C925.707 980.239 928.372 983.274 932 984.467C941.129 987.467 951.563 988.309 961 990.2C966.057 991.213 973.295 996.242 977.996 995.867C986.778 995.168 987.711 981.061 995.043 977.657C1003.4 973.775 1013.63 981.803 1022 982.816C1027.22 983.446 1032.94 981.051 1037.96 982.322C1045.99 984.353 1050.21 1000.02 1056.09 1005.58C1063.68 1012.74 1072.28 1024.67 1081.09 1029.86C1088.96 1034.5 1102.07 1035.35 1111 1034.96C1116.71 1034.71 1121.43 1031.28 1127 1030.69C1131.68 1030.19 1136.44 1033.6 1141 1031.97C1156.73 1026.34 1161.46 1004.63 1171.52 993.105C1179.37 984.102 1194.9 983.672 1202.27 975.49C1205.35 972.07 1205.78 965.332 1206.87 961C1208.98 952.63 1212.05 943.741 1215.91 936C1219.14 929.51 1225.76 925.129 1227.75 918C1229.38 912.105 1231.51 905.105 1230.33 899C1228.83 891.231 1223.18 880.699 1226.92 873.043C1230.32 866.1 1239.31 866.07 1244.09 860.61C1251.46 852.199 1241.29 840.4 1256 834.589C1264.81 831.108 1273.24 835.637 1282 834.683C1286.52 834.19 1290.28 830.318 1294 828L1292 814C1285.63 816.653 1278.27 822.215 1271 821.073C1262.83 819.788 1258.05 813.232 1249 814.105C1240.79 814.898 1232.62 823.457 1224 820.294C1213.26 816.35 1211.37 803.177 1201.91 799.26C1191.03 794.759 1179.64 803.654 1169.04 797.976C1158.61 792.393 1156.74 778.379 1145 773.688C1134.8 769.611 1120.29 770.506 1110 773.799C1106.12 775.042 1103.06 778.054 1099 778.772C1089.68 780.422 1079.17 778.03 1070 780.43C1062.11 782.494 1059.1 789.288 1050 787.022C1037.54 783.919 1037.87 768.761 1028.79 762.352C1022.89 758.194 1013.06 753.56 1006 752.174C999.239 750.846 991.335 751.82 985 748.864C970.533 742.115 960.366 726.928 944 723.39C927.629 719.851 916.069 724.062 901 728.363C895.505 729.931 889.443 729.066 884 730.966C878.488 732.89 873.764 736.603 868 737.877C845.075 742.943 819.355 734.141 802.004 718.714C791.002 708.931 787.228 690.491 779.305 678C776.114 672.969 773.153 666.61 768.674 662.61C764.142 658.561 757.614 656.957 753.966 651.896C748.045 643.68 740.154 629.023 738.43 619C737.343 612.683 739.711 605.376 739.96 599C740.283 590.706 738.406 582.281 738 574C737.615 566.149 732.921 545.938 738.603 539.649C742.329 535.526 749.788 536.483 752.976 531.61C755.333 528.007 753.793 522.892 756.024 519.214C761.099 510.847 776.773 509.898 785 511L795 506C794.963 501.474 791.22 492.08 793.916 488.357C797.151 483.89 806.445 489.027 810.895 488.396C818.245 487.353 815.631 471.997 814.463 467.004C810.364 449.487 784.134 449.784 782 433C772.297 431.225 763.562 436.415 754 435.536C729.336 433.268 702.908 421.153 678.043 428.724C671.524 430.709 672.458 438.979 666 441z"/>
</svg>
