<?xml version="1.0" standalone="yes"?>
<svg xmlns="http://www.w3.org/2000/svg" width="1450" height="1269">
<path style="fill:#010101; stroke:none;" d="M0 0L0 1269L1450 1269L1450 0L0 0z"/>
<path style="fill:#ffffff; stroke:none;" d="M96 684C99.5627 683.329 104.572 683.323 107.182 680.486C110.386 677.004 110.223 671.76 115.044 669.546C122.534 666.108 129.845 672.939 136 676L130 688C149.332 693.277 158.994 711.503 177 719C180.27 710.457 181.047 694.756 190.04 690.028C205.038 682.142 233.386 696.151 246.487 681.61C253.899 673.382 253.206 657.034 257.119 647C259.118 641.873 264.851 637.365 265.752 632C266.544 627.289 261.504 622.721 260.878 618.004C260.305 613.681 263.873 612.51 264.513 608.791C266.226 598.841 258.543 582.813 268.649 574.693C273.345 570.919 284.323 577.196 289 579C288.623 567.376 274.356 559.01 269 549L254 550C254 544.925 255.521 536.442 251.347 532.603C248.283 529.786 242.767 531.306 239 530.891C234.519 530.398 230.35 527.388 227.152 524.334C222.219 519.624 227.853 511.145 222.436 507.024C219.258 504.606 214.551 505.096 211.185 502.362C202.531 495.334 197.006 485.242 187 478.994C180.343 474.837 170.303 475.872 164.418 471.146C161.54 468.834 160.515 464.238 159 461C154.445 462.896 147.052 465.206 144.14 469.39C141.285 473.493 142.297 478.774 137.867 482.03C131.131 486.98 122.353 483.715 115.09 486.603C111.255 488.128 108.26 492.779 105.927 496C104.176 498.417 101.546 501.806 101.99 505C103.617 516.701 121.975 522.2 128.643 530.3C133.008 535.603 127.936 545.425 129.863 551.945C131.202 556.477 135.531 556.575 138.674 559.419C145.168 565.294 144.779 573.21 142.446 581C140.578 587.24 135.042 591.876 131.289 597C126.045 604.16 121.432 612.14 117.32 620C113.946 626.45 114.5 635.987 110.146 641.61C106.607 646.179 99.6565 646.589 95.6381 650.637C88.6698 657.657 93.9446 675.466 96 684z"/>
</svg>
