<?xml version="1.0" standalone="yes"?>
<svg xmlns="http://www.w3.org/2000/svg" width="1450" height="1269">
<path style="fill:#010101; stroke:none;" d="M0 0L0 1269L1450 1269L1450 0L0 0z"/>
<path style="fill:#ffffff; stroke:none;" d="M179 392L206.985 396.852L216.039 392.884L229 394C229.001 401.964 231.485 410.916 241.91 408.643C245.016 407.966 246.913 404.024 250.289 404.681C258.79 406.335 266.992 417.318 276 416.774C280.197 416.521 283.753 411.869 287 409.623C292.391 405.894 299.848 403.929 304.411 399.096C306.741 396.629 306.231 392.973 307.988 390.21C310.13 386.843 314.699 385.021 318 383L321 395L339 386.727L350.363 384.972L356.213 378.198L368 378.737L392 381C399.385 364.311 380.295 365.766 378.356 351C376.973 340.467 394.197 331.539 401 326L401 325C382.583 306.584 353.787 281.952 353.908 253C353.971 238.003 375.923 229.217 382.442 217.816C387.851 208.355 392.546 197.009 398.995 188.213C401.432 184.889 405.736 184.307 408.401 181.363C411.485 177.956 415.538 169.415 417.015 165C419.707 156.954 409.006 146.917 412.257 140.714C418.982 127.883 433.823 120.576 442 109C435.807 106.105 428.913 99.2581 422 98.6937C409.22 97.6504 396.549 105.225 383 103.895C374.418 103.052 365.086 93.5571 356.419 100.742C348.299 107.473 354.088 126.481 342.787 131.397C332.287 135.964 320.341 122.6 311 119.444C303.631 116.954 292.525 122.3 286 125.905C273.544 132.787 272.986 144.706 263.787 153.671C255.708 161.545 243.968 164.288 235.21 170.966C229.279 175.488 218.623 191.937 216.514 199C212.917 211.044 221.557 218.223 223.062 229C223.676 233.392 221.325 238.826 220.087 243C218.035 249.918 213.854 257.705 208.895 262.961C204.798 267.303 197.835 270.943 196.032 277C194.25 282.984 197.989 290.331 196.546 297C195.429 302.162 191.603 305.986 190.423 311C189.14 316.447 191.736 321.485 189.676 327C186.712 334.936 180.709 343.64 179.48 352C178.177 360.864 183.472 370.116 183.358 379C183.298 383.64 179.872 387.479 179 392z"/>
</svg>
