<?xml version="1.0" standalone="yes"?>
<svg xmlns="http://www.w3.org/2000/svg" width="1450" height="1269">
<path style="fill:#010101; stroke:none;" d="M0 0L0 1269L1450 1269L1450 0L0 0z"/>
<path style="fill:#ffffff; stroke:none;" d="M760 516C754.172 520.379 757.439 526.228 753.973 531.61C750.602 536.843 741.109 535.584 738.603 541.225C734.967 549.412 738.274 564.311 738.911 573C739.532 581.469 741.386 590.532 740.907 599C740.532 605.628 738.058 613.448 739.394 620C741.428 629.973 748.309 641.129 753.262 649.957C756.771 656.21 763.755 657.771 768.816 662.379C773.143 666.319 775.841 672.144 779 677C789.029 692.414 793.019 713.8 809 724.038C826.831 735.461 848.089 741.498 869 736.877C874.764 735.603 879.488 731.89 885 729.966C890.443 728.066 896.505 728.931 902 727.363C916.5 723.224 927.217 718.978 943 722.39C959.366 725.928 969.533 741.115 984 747.864C990.335 750.82 998.239 749.846 1005 751.174C1012.38 752.623 1022.78 757.545 1028.9 761.966C1037.22 767.986 1037.27 782.341 1048 785.772C1058.58 789.154 1061.9 781.811 1071 779.43C1080.17 777.03 1090.68 779.422 1100 777.772C1109.7 776.056 1117.26 769.658 1128 770.209C1138.06 770.725 1147.47 772.51 1154.67 780.184C1159.44 785.269 1161.83 793.384 1168.17 796.976C1178.59 802.881 1190.34 794.119 1200.99 798.26C1209.79 801.686 1212.44 813.604 1221 818.377C1231.26 824.096 1240.03 813.953 1250 813.109C1258.02 812.43 1262.73 818.693 1270 820.272C1283.59 823.226 1296.82 810.232 1299 798C1288.08 795.475 1282.12 794.706 1271 797C1266.63 781.539 1271.48 755.106 1284.01 744.213C1290.7 738.408 1299.91 736.556 1306.99 731.363C1312.12 727.593 1315.07 721.186 1321 718.434C1330.41 714.068 1346.05 720.213 1353.14 711.39C1360.22 702.593 1351.22 693.442 1349.39 685C1347.38 675.693 1349 664.512 1349 655C1341.42 654.402 1333.16 657.074 1326 656.062C1314.9 654.494 1297.68 644.47 1288 638.647C1281.97 635.019 1278.5 625.925 1271.91 623.643C1262.75 620.466 1256.32 633.709 1249 636.397C1243.04 638.584 1230.07 638.086 1224 636.363C1217.47 634.51 1211.21 629.676 1204 631.664C1180.78 638.062 1179.15 662.694 1172.55 681C1169.67 688.979 1170.31 697.274 1162 701.738C1155.99 704.961 1145.86 708.766 1139.18 704.972C1133.61 701.806 1133.44 696.048 1126 696.008C1115.32 695.952 1107.04 705.573 1096 699.977C1087.57 695.703 1080.74 681.509 1071.02 680.503C1065.38 679.92 1064.57 686.529 1060.79 689.062C1056.32 692.058 1048.24 691.968 1043 692.728C1030.18 694.591 1028.86 680.07 1017 679.511C1007.76 679.075 993.63 681.345 985 684.619C977.431 687.49 967.472 693.323 959 691.103C944.394 687.275 948.955 666.816 937.985 659.133C928.524 652.508 914.815 656.851 905.109 650.633C900.487 647.672 901.351 642.406 898.272 638.464C895.295 634.651 890.534 632.61 887.39 628.91C883.661 624.521 882.041 618.652 877.787 614.666C868.835 606.277 854.088 604.185 846.318 595.671C840.993 589.835 845.154 578.264 841.738 571C840.235 567.806 838.688 563.311 835.61 561.303C830.595 558.033 823.084 559.862 818.637 555.487C814.071 550.995 814.44 544.404 811.567 539.213C808.574 533.804 795.581 522.679 789 522.818C777.377 523.064 779.317 537.134 774.987 543.61C773.26 546.191 769.596 547.482 767 549L760 516z"/>
</svg>
