<?xml version="1.0" standalone="yes"?>
<svg xmlns="http://www.w3.org/2000/svg" width="1450" height="1269">
<path style="fill:#010101; stroke:none;" d="M0 0L0 1269L1450 1269L1450 0L0 0z"/>
<path style="fill:#ffffff; stroke:none;" d="M1083 103C1083.03 112.527 1086.19 124.965 1080.69 133.721C1078.51 137.178 1074.33 136.292 1071.21 138.175C1067.52 140.411 1064.7 146.956 1063.65 151C1060.77 162.123 1067.16 181.04 1070 192C1079.61 188.873 1105.06 182.206 1106.15 199C1106.57 205.626 1099.85 213.255 1102.61 219.786C1104.53 224.33 1119.36 231.428 1124 233.185C1131.61 236.067 1138.9 227.363 1144.42 229.994C1155.53 235.285 1161.99 249.992 1169.76 258.787C1172.84 262.269 1177.4 263.572 1181 266.39C1186.37 270.601 1190.43 276.246 1195.58 280.682C1201.91 286.148 1211.39 281.754 1217.14 290.184C1224.3 300.672 1213.8 320.422 1221.6 329.099C1224.65 332.486 1229.48 333.849 1232.62 337.21C1235.64 340.435 1237.06 345.355 1240.61 348.062C1243.38 350.174 1247.14 350.139 1250 352.314C1254.62 355.828 1257.91 360.992 1263 363.911C1269.8 367.809 1281.1 365.567 1286.57 371.303C1295.2 380.343 1284.35 398.503 1295.02 404.556C1305.55 410.527 1309.55 399.698 1318.58 398.495C1323.35 397.858 1333.23 404.881 1336.99 407.637C1341.61 411.034 1347.58 417.482 1349.44 423C1352.04 430.723 1349.95 437.237 1357 443C1361.9 435.139 1370.77 427.131 1365.69 417C1362.67 410.976 1355.69 406.805 1354.28 400C1352.34 390.619 1355.23 380.469 1353.79 371C1352.83 364.727 1348.69 357.589 1345.74 352.001C1341.22 343.455 1327.88 337.239 1326.73 327C1326.14 321.741 1330.64 317.249 1330.96 312C1332.05 294.073 1332.12 271.547 1328.18 254C1324.41 237.267 1304.85 229.116 1304.35 210C1303.97 195.283 1312.76 179.027 1311.28 165C1310.8 160.428 1306.58 157.37 1305.43 153C1304.19 148.289 1306.18 138.506 1302.4 135.013C1297.36 130.356 1286.92 136.584 1281 136.386C1271.75 136.077 1264.02 130.042 1256 126.324C1251.94 124.443 1246.78 124.087 1243.21 121.297C1237.52 116.851 1235.06 107.877 1231.05 102.015C1226.67 95.6367 1219.48 90.4756 1214 85C1210.53 81.5327 1206.2 75.2687 1201 74.6041C1192.01 73.4545 1180.69 78.1544 1172 80.1118C1162.02 82.358 1151.85 80.0638 1142 83.8148C1133.3 87.1265 1127.28 95.2362 1119 99.3164C1108.3 104.59 1094.53 103 1083 103z"/>
</svg>
