<?xml version="1.0" standalone="yes"?>
<svg xmlns="http://www.w3.org/2000/svg" width="1450" height="1269">
<path style="fill:#010101; stroke:none;" d="M0 0L0 1269L1450 1269L1450 0L0 0z"/>
<path style="fill:#ffffff; stroke:none;" d="M255 660C252.111 666.714 251.749 678.349 245.775 683.034C236.501 690.308 217.301 689.999 206 690C201.007 690 192.513 688.382 188.329 691.603C181.687 696.719 179.618 712.183 178 720C158.947 712.068 148.926 692.959 128 688L135 676C129.548 672.65 120.933 666.634 114.225 670.471C110.112 672.824 110.425 678.306 107.301 681.436C104.592 684.149 99.5432 684.127 96 685C99.139 698.692 106.928 712.837 107.376 727C107.564 732.942 100.483 740.965 104.032 746.606C106.582 750.661 114.796 752.566 119 754.425C126.292 757.65 134.052 767.515 133.86 776C133.304 800.66 110.59 817.62 105.728 840C103.001 852.549 113.402 866.509 113.606 879C113.687 883.99 109.837 888.217 108.677 893C105.824 904.754 104.571 917.091 102.424 929C101.148 936.082 104.438 943.482 102.86 950C98.8279 966.655 73.3419 963.305 73.1327 982C72.9446 998.811 95.3033 1002.69 103.272 1015C107.828 1022.04 108.957 1032.88 110.424 1041C112.763 1053.94 117.44 1067.93 118.121 1081C118.976 1097.41 99.1037 1098.55 93.8897 1110.18C90.4755 1117.8 93.3699 1126.39 95.1188 1134C98.6617 1149.41 100.441 1166.18 106 1181C111.337 1178.28 115.43 1173.02 121 1170.86C131.324 1166.85 139.434 1174.61 145 1182C154.867 1177.85 154.597 1170.34 157.152 1161C160.31 1149.46 165.182 1138.18 164.946 1126C164.825 1119.73 160.545 1110.95 163.496 1105.06C167.403 1097.25 182.906 1104.48 189.996 1101.2C198.188 1097.41 202.239 1082.05 206 1074C216.242 1080.71 214.966 1095.05 217 1106C221.743 1106 226.731 1106.6 231 1104.15C237.864 1100.2 242.691 1090.94 250 1088.33C254.462 1086.73 261.594 1090.03 266 1091.13C283.418 1095.48 299.924 1102.78 311.61 1117.04C319.593 1126.78 322.614 1140.88 328.273 1152C330.552 1156.48 335.592 1160.9 336.131 1166C337.347 1177.5 329.045 1192.8 322.997 1202C319.651 1207.09 314.908 1214.34 324.001 1216.68C339.85 1220.77 346.051 1213.61 359 1206.65C364.394 1203.75 371.547 1205.95 376.711 1202.97C387.866 1196.54 387.12 1184.67 392.314 1175.09C394.114 1171.77 398.11 1170.64 399.933 1167.48C402.926 1162.3 397.035 1156.31 402.163 1151.34C407.24 1146.42 412.148 1150.13 417.961 1148.68C422.5 1147.54 436.596 1137.9 439.381 1133.89C442.742 1129.05 447.462 1119.1 446.096 1113C444.939 1107.83 439.758 1105.98 440.842 1100C442.638 1090.09 452.524 1083.22 450.512 1072.14C449.288 1065.4 437.241 1067.22 438.112 1057C439.162 1044.66 448.048 1034.08 449.79 1022C451.306 1011.49 448.947 1000.55 450.109 990C450.672 984.887 455.041 981.277 454.851 976C454.621 969.615 449.12 964.61 449.68 958C450.156 952.37 454.58 947.146 456.648 942C458.856 936.505 458.797 927.869 457.852 922.039C457.242 918.28 453.874 916.413 452.603 912.985C450.99 908.639 452.524 903.514 451.621 899C450.431 893.05 446.569 887.951 445.379 882C443.175 870.984 447.684 861.386 439.112 852.152C431.55 844.006 417.648 862.058 413.607 851.894C410.755 844.721 419.19 836.711 420.609 830C422.843 819.429 421 804.059 421 793L373 785L376 773C359.934 770.923 346.027 754.534 340.208 740C337.809 734.009 338.199 726.305 334.486 721C330.269 714.974 324.345 704.503 318.787 699.901C307.592 690.632 292.994 686.091 281.015 678.035C271.061 671.341 267.083 664.088 255 660z"/>
</svg>
