<?xml version="1.0" standalone="yes"?>
<svg xmlns="http://www.w3.org/2000/svg" width="1450" height="1269">
<path style="fill:#010101; stroke:none;" d="M0 0L0 1269L1450 1269L1450 0L0 0z"/>
<path style="fill:#ffffff; stroke:none;" d="M275 557C280.111 564.475 289.69 570.449 290 580C285.083 578.103 274.632 572.143 269.418 575.117C259.662 580.683 266.227 599.712 265.258 607.957C264.829 611.612 261.189 613.114 261.498 617.043C261.887 621.966 266.986 626.99 266.497 631.576C266.076 635.528 261.387 639.562 259.519 643C256.86 647.894 256.048 653.595 255 659C259.51 661.109 265.006 662.263 268.91 665.419C273.423 669.067 276.058 674.491 281.039 677.651C293.223 685.38 312.242 690.573 321.363 702.104C326.134 708.137 333.364 717.248 336.683 724C339.068 728.853 338.874 734.895 340.816 740C346.511 754.974 360.186 771.276 377 772L374 784L421 792L430.676 723L439.348 695L446.57 679L444.873 656L459 627C448.897 620.676 445.715 606.86 436.471 601.032C433.564 599.199 430.113 601.18 427 600.322C421.918 598.92 411.587 592.292 407.317 588.925C402.688 585.275 406.273 576.013 398.981 574.814C384.046 572.359 388.527 594.944 376.957 598.022C358.306 602.982 346.338 589 328 589L327 601C311.374 591.384 316.336 567.188 298.582 557.117C293.97 554.502 280.752 557.454 275 557z"/>
</svg>
