<?xml version="1.0" standalone="yes"?>
<svg xmlns="http://www.w3.org/2000/svg" width="1450" height="1269">
<path style="fill:#010101; stroke:none;" d="M0 0L0 1269L1450 1269L1450 0L0 0z"/>
<path style="fill:#ffffff; stroke:none;" d="M816 470C814.964 475.687 819.303 485.371 812.61 488.802C808.128 491.1 797.388 484.183 794.269 488.618C791.823 492.096 795.964 502.618 796 507C788.268 507.338 781.246 512.898 788.563 520.487C794.724 526.876 805.129 530.773 811.411 537.637C815.803 542.437 813.795 550.685 819.39 555.272C824.837 559.738 833.44 557.013 838.034 563.133C841.4 567.619 844.634 574.378 844.957 580C845.217 584.542 843.483 591.7 846.603 595.468C849.947 599.505 856.456 600.422 861 602.518C866.956 605.264 873.062 610.053 877.895 614.464C882.294 618.479 883.952 624.288 887.634 628.826C890.929 632.886 896.214 634.926 899.272 639.174C901.536 642.318 901.295 646.674 904.303 649.347C913.347 657.385 929.217 651.706 938.985 659.633C948.448 667.314 945.354 683.428 956.015 689.343C963.218 693.34 975.175 688.212 982 685.281C991.422 681.234 1006.66 677.77 1017 678.847C1025.84 679.768 1029.22 692.272 1037.04 692.566C1043 692.791 1055.47 691.608 1060.61 688.566C1064.7 686.147 1065.72 678.171 1072 680.177C1082 683.371 1086.78 696.716 1097 699.721C1109.13 703.29 1117.89 692.429 1128.96 695.318C1133.64 696.539 1134.74 701.602 1138.51 703.972C1145.32 708.247 1157.88 703.967 1163.89 700.204C1168.73 697.171 1169.04 691.098 1170.38 686C1171.77 680.686 1175.31 676.232 1176.58 671C1177.62 666.754 1176.27 662.221 1177.32 658C1180.26 646.207 1193.64 635.843 1204 631L1204 630C1198.97 627.62 1192.13 624.32 1188.7 619.815C1186.16 616.474 1186.16 611.743 1183.3 608.634C1180.55 605.644 1176.23 604.591 1173.42 601.621C1163.72 591.387 1151.67 578.153 1146 565C1140.89 567.426 1136.53 572.207 1131 573.581C1123.56 575.43 1117.96 571.97 1111 570.7C1106.56 569.889 1102.43 572.489 1098 572.182C1092.81 571.823 1088.2 568.629 1083 568.224C1075.23 567.619 1068.64 565.136 1061 564.225C1055.09 563.519 1051.95 565.456 1047 560.941C1039.16 553.791 1034.42 543.981 1035.55 533C1036.27 526.052 1040.63 521.273 1037.49 514C1031.79 500.829 1018.5 490.648 1004 493.888C1001.09 494.539 995.937 494.98 994.028 497.564C989.617 503.534 993.924 514.784 988.911 521.721C985.569 526.346 979.185 524.681 976 530C965.872 526.542 962.304 517.219 958 508L957 508L962 531C954.718 530.974 941.888 522.483 939.867 514.985C938.415 509.601 941.612 505.204 941.218 500.015C940.747 493.797 931.348 488.969 926 488C922.9 496.438 907.619 494.457 900 496.004C895.294 496.959 889.766 500.14 885 499.686C877.124 498.936 872.153 492.21 865 490.299C859.254 488.763 853.579 492.073 847 489.971C834.901 486.107 826.715 476.187 816 470z"/>
</svg>
