<?xml version="1.0" standalone="yes"?>
<svg xmlns="http://www.w3.org/2000/svg" width="1450" height="1269">
<path style="fill:#010101; stroke:none;" d="M0 0L0 1269L1450 1269L1450 0L0 0z"/>
<path style="fill:#ffffff; stroke:none;" d="M928 169L928 170C937.143 179.068 949.203 192.619 961 197.895C982.665 207.584 1007.95 207.115 1028 220.598C1037.04 226.674 1044.36 234.636 1054 239.96C1058.45 242.419 1063.51 242.225 1067.91 244.434C1075.36 248.175 1074.45 254.177 1084 253C1086.19 241.213 1083.2 227.692 1081 216L1095.42 240.211L1134.57 262.3L1143 286C1154.32 283.981 1155.47 275.655 1162.21 268.039C1164.45 265.507 1169.28 262.93 1168.6 258.985C1167.07 250.144 1155.15 239.823 1149 234.023C1140.76 226.256 1137.75 235.649 1129 235.116C1121.82 234.679 1110.07 226.723 1104.15 222.637C1096.33 217.245 1106.55 205.231 1105.37 198.001C1102.93 183 1078.22 190.002 1069 193C1067.42 180.753 1060.09 164.244 1062.73 152C1063.67 147.593 1067.19 139.652 1071.21 137.317C1073.97 135.717 1077.8 136.386 1079.84 133.566C1085.67 125.465 1082.07 112.04 1082 103C1063.68 105.328 1043.31 106.07 1026 112.926C1009.09 119.623 995.152 131.67 979 139.626C959.497 149.234 944.023 152.977 928 169z"/>
</svg>
