<?xml version="1.0" standalone="yes"?>
<svg xmlns="http://www.w3.org/2000/svg" width="1450" height="1269">
<path style="fill:#010101; stroke:none;" d="M0 0L0 1269L1450 1269L1450 0L0 0z"/>
<path style="fill:#ffffff; stroke:none;" d="M909 274C915.862 276.628 924.623 277.338 930.896 281.139C935.729 284.068 937.368 290.278 942.043 293.641C954.756 302.786 969.313 308.452 984 313.561C998.297 318.534 1019.96 318.171 1030.03 332.105C1037.51 342.442 1027.38 348.605 1029.74 359C1030.56 362.609 1033.28 365.47 1034.35 369C1036.66 376.587 1035.7 383.786 1039.8 390.985C1042.77 396.211 1047.78 399.86 1051 405C1057.22 403.715 1064.62 400.246 1070.98 401.877C1077.88 403.644 1078.58 412.011 1084.21 415.468C1091.11 419.707 1099.8 420.827 1107 424.529C1115.72 429.009 1129.94 439.996 1136.3 447.39C1141.64 453.597 1142.21 463.277 1147.24 470C1149.53 473.068 1151.91 476.795 1155.17 478.914C1161.26 482.871 1170.24 481.654 1170.6 491.001C1171.28 508.457 1151.91 517.677 1144.03 530.001C1135.75 542.956 1145.43 565.742 1152.95 577C1160.81 588.747 1172.47 598.641 1182.78 607.634C1186.95 611.276 1186.51 617.453 1190.42 621.214C1203.9 634.194 1228.34 636.745 1246 635.981C1255.37 635.575 1261.66 620.344 1270.99 622.778C1276.86 624.313 1280.56 632.717 1285.17 636.363C1292.38 642.071 1302.78 644.714 1311 648.756C1315.56 651 1320.87 654.876 1326 655.436C1329.96 655.868 1334.1 653.968 1338 653.454C1341.28 653.022 1345.68 654.732 1348.61 652.958C1361.82 644.943 1358 619.099 1356.73 607C1355.19 592.264 1362.71 576.416 1361.96 561C1361.32 547.833 1353.35 535.418 1353.01 522C1352.46 499.856 1359.93 478.001 1357.83 456C1357.02 447.48 1353.13 442.663 1350.56 435C1348.94 430.17 1350.02 424.585 1347.57 420C1343.53 412.473 1327.63 397.478 1318 399.248C1307.7 401.14 1302.19 413.249 1291.32 402.39C1284.64 395.722 1293.76 379.437 1286.27 371.564C1281.73 366.786 1270.9 368.318 1265 365.431C1258.96 362.476 1255.53 356.216 1250 352.589C1246.7 350.42 1242.46 350.65 1239.61 347.697C1236.43 344.41 1234.99 339.755 1231.62 336.609C1228.21 333.43 1222.44 331.923 1220.03 327.79C1214.84 318.914 1220.65 303.158 1217.75 293.04C1214.75 282.608 1205.08 286.723 1198.09 282.972C1189.24 278.223 1182.93 261.506 1171 262.226C1162.15 262.76 1159.07 275.281 1154.37 280.787C1151.46 284.187 1146.79 285.789 1143 288L1133.57 261.666L1095.22 240.471L1084 219L1083 219L1085 254C1075.3 254.382 1076.19 249.505 1068.7 245.434C1063.45 242.579 1057.38 242.469 1052 239.188C1043.04 233.726 1036 225.625 1027 220.348C1006.48 208.316 981.994 209.044 961 198.443C952.598 194.2 934.217 167.525 923.904 177.564C918.355 182.966 909.812 198.145 910.329 206C910.833 213.647 915.407 218.223 918.006 225C920.717 232.068 920.909 242.487 920.817 250C920.69 260.336 912.781 265.474 909 274z"/>
</svg>
