<?xml version="1.0" standalone="yes"?>
<svg xmlns="http://www.w3.org/2000/svg" width="1216" height="1450">
<path style="fill:#010101; stroke:none;" d="M0 0L0 1450L1216 1450L1216 0L0 0z"/>
<path style="fill:#ffffff; stroke:none;" d="M1004 1059C1006.64 1091.28 1037.91 1091.96 1062 1095C1053.94 1110.21 1034.56 1108.01 1020 1111.35C1016.79 1112.08 1011.2 1112 1008.62 1114.18C1004.09 1118 1010.7 1130.04 1012.42 1134C1020.71 1152.99 1033.58 1167.88 1052 1177C1061.37 1160.93 1074.95 1166.19 1089 1160.06C1101.26 1154.71 1109.1 1142.77 1114 1131C1125.31 1139.96 1138.79 1142.02 1153 1142C1158.65 1141.99 1166.67 1141.53 1169.82 1135.89C1174.32 1127.85 1165.56 1124.99 1161.7 1119.83C1153.09 1108.29 1153.84 1097.39 1139 1090C1144.36 1077.85 1158.91 1069.85 1170 1064C1168.44 1056.46 1165.17 1048.68 1164.64 1041C1164.3 1036.11 1167.19 1031.8 1167.32 1027C1167.52 1019.9 1161.09 1008.06 1156.25 1003.15C1152.57 999.419 1149.45 1001.8 1145.38 999.926C1137.86 996.469 1127.32 991.038 1122.56 984C1119.81 979.928 1115.06 964.737 1114.97 960C1114.88 955.512 1118.39 950.604 1114.99 946.514C1111.68 942.541 1101.82 942.613 1097 942C1094.16 947.298 1092.18 949.582 1086 949C1085.97 944.835 1086.18 938.988 1083.98 935.3C1079.75 928.222 1072.28 924.948 1073.96 915C1075.1 908.198 1079.95 896.493 1084.64 891.414C1088.45 887.288 1096.53 882.839 1095.72 876C1093.1 853.921 1070.98 853.837 1060.51 838.999C1053.09 828.464 1050.75 813.733 1045.56 802C1042.27 794.566 1035.85 789.197 1032.3 782C1029.87 777.064 1031.49 770.433 1027.68 766.148C1023 760.881 1017.31 765.534 1012 762.783C1004.3 758.79 1000.96 751.08 992 747.966C987.167 746.287 982.734 748.475 978.015 747.593C969.263 745.956 971.941 733.246 968.443 727.109C964.808 720.731 955.959 722.196 950 723.4C947.077 723.99 944.022 724.392 941.76 726.514C935.289 732.586 931.291 742.458 926.799 750C921.344 759.16 914.836 768.83 915.263 780C915.506 786.369 918.17 792.606 918.674 799C918.993 803.039 916.538 807.929 917.773 811.787C918.738 814.8 922.688 816.128 924.812 818.213C929.442 822.76 935.21 828.351 939.366 833.213C943.937 838.561 945.551 846.44 950.634 851.351C958.678 859.122 972.143 858.266 979.458 868.117C982.245 871.87 976.229 877.28 977.333 881.91C978.479 886.716 984.433 888.117 985.682 893.015C989.374 907.493 969.701 914.479 966.529 926C962.802 939.534 984.422 954.481 969.363 966.307C966.506 968.551 961.209 966.611 958 966.08C951.601 965.023 935.73 963.296 930.742 968.589C928.3 971.181 929.14 975.763 928.406 979C927.721 982.018 926.738 984.844 927.148 988C927.841 993.33 933.51 996.675 933.714 1002C933.923 1007.41 929.214 1015.25 933.028 1020.44C941.666 1032.18 959.844 1017.22 968.361 1026.32C973.759 1032.08 968.716 1040.12 971.993 1046.85C975.543 1054.14 996.437 1058.02 1004 1059z"/>
</svg>
