<?xml version="1.0" standalone="yes"?>
<svg xmlns="http://www.w3.org/2000/svg" width="1216" height="1450">
<path style="fill:#010101; stroke:none;" d="M0 0L0 1450L1216 1450L1216 0L0 0z"/>
<path style="fill:#ffffff; stroke:none;" d="M866 1003C870.695 1009.67 878.666 1014.93 878.525 1024C878.379 1033.48 868.609 1033.85 864.086 1040.33C857.635 1049.56 855.03 1061.96 855 1073L860 1072C861.904 1078.96 869.011 1088.56 877.83 1084.8C881.422 1083.27 883.366 1078.33 887.985 1079.66C892.965 1081.1 895.106 1087.35 899.286 1090.06C903.38 1092.71 907.874 1090.49 911.985 1092.2C919.057 1095.14 920.538 1104.28 924.966 1109.61C927.049 1112.11 931.283 1113.06 932.534 1116.21C934.304 1120.66 926.342 1127 925.823 1132C925.416 1135.91 928.485 1139.06 928.002 1143C926.705 1153.57 917.828 1158.29 913.569 1167C911.336 1171.57 912.936 1177.54 910.802 1181.61C909.043 1184.96 903.982 1185.23 901.303 1187.65C896.253 1192.21 892.358 1202.44 891 1209C899.861 1212.24 907.75 1205.13 916.985 1206.19C922.057 1206.77 930.031 1217.09 928.408 1222.27C926.812 1227.36 922.027 1225.63 918.966 1228.6C913.872 1233.55 915.35 1240.71 915 1247L898 1248L898 1249C906.833 1255.33 916.572 1261.85 924.682 1268.97C927.963 1271.84 926.173 1277.27 930.344 1279.44C940.049 1284.47 951.14 1276.12 960.891 1282.14C967.462 1286.2 962.873 1293.13 965.603 1298.68C967.84 1303.23 984.142 1304.07 988 1302C990.116 1306.25 994.121 1314.47 999.17 1315.66C1004.54 1316.93 1009.19 1309.94 1013 1307.16C1019.22 1302.62 1026.67 1300.23 1032.9 1295.76C1037.46 1292.47 1040.36 1287.42 1045 1284.06C1052 1278.99 1062.15 1278.94 1068.57 1272.32C1072.66 1268.1 1071.23 1258.87 1077.11 1256.36C1080.87 1254.76 1085.31 1257.83 1089 1258.44C1093.69 1259.23 1103.91 1257.5 1107.57 1254.27C1114.77 1247.9 1106.28 1234.58 1115.28 1226.64C1119.46 1222.94 1125.28 1223.16 1129.96 1220.56C1133.87 1218.38 1142.22 1210.44 1144.85 1206.78C1148.68 1201.44 1144.83 1193.84 1144.33 1188C1142.95 1172.02 1144.38 1149.05 1124 1146C1123.41 1138.81 1120.14 1135.5 1114 1132C1109.06 1143.87 1100.26 1155.71 1088 1161.06C1074.43 1166.99 1059.96 1161.4 1052 1178C1045.68 1173.51 1037.84 1170.74 1032.11 1165.53C1027.98 1161.78 1027.3 1156.46 1024.3 1152C1015.6 1139.09 1007.29 1129.33 1006 1113C1021.14 1111.08 1052.91 1110.36 1061 1096C1049.36 1093.23 1035.55 1096.78 1025 1089.89C1018.36 1085.56 1011.77 1078.74 1007.62 1072C1005.57 1068.67 1004.61 1062.49 1001.49 1060.16C994.101 1054.67 979.388 1055.98 972.728 1049.4C966.199 1042.95 974.07 1032.69 968.03 1026.6C963.29 1021.82 955.399 1025.29 950 1026.07C945.34 1026.74 938.248 1024.6 934.148 1022.35C926.333 1018.07 934.08 1006.99 933.135 1001C932.182 994.963 926.47 991.473 926 985L907.985 997.357L897 997.217L866 1003z"/>
</svg>
