<?xml version="1.0" standalone="yes"?>
<svg xmlns="http://www.w3.org/2000/svg" width="1216" height="1450">
<path style="fill:#010101; stroke:none;" d="M0 0L0 1450L1216 1450L1216 0L0 0z"/>
<path style="fill:#ffffff; stroke:none;" d="M944 204C932.186 200.222 920.8 197.302 918 213C909.6 212.639 902.196 214.304 894 214.41C889.039 214.475 883.931 211.595 879 212.738C868.988 215.061 867.67 227.636 859.91 233.031C856.278 235.556 851.701 236.353 848.133 238.969C844.96 241.295 843.882 245.086 839.956 246.467C835.578 248.007 828.12 245.642 824.653 248.042C821.892 249.953 822.346 254.15 820.4 256.675C818.073 259.696 814.194 261.1 812.013 264.3C807.345 271.15 814.234 280.412 818 286L797 284.876L787.17 290.219L775.618 292.79L772.667 302.258L759.637 306.013L742 324C739.99 314.474 729.929 309.569 730.083 298C730.129 294.532 732.977 289.712 728.605 287.603C715.892 281.473 707.585 298.589 699.7 304.398C696.169 306.999 689.18 309.188 685 310.914C680.169 312.907 675.029 310.599 670 311.185C664.61 311.813 659.478 315.773 654 315.054C648.779 314.368 644.435 310.959 639 311.21C630.128 311.62 618.396 315.944 610.015 311.427C602.791 307.535 602.724 298.848 598 293C592.473 304.485 595.794 319.738 592.57 332C590.097 341.409 582.092 351.297 583.917 362C585.28 369.991 597.2 373.736 597.507 382C597.836 390.859 588.99 391.446 584.603 396.498C580.315 401.439 581.784 411.074 572.996 412.589C565.906 413.81 558.336 408.064 552 406.009C545.788 403.995 538.417 408.127 532 407.603C528.358 407.305 525.655 403.931 522 404.079C517.403 404.265 513.066 408.763 509 410.587C497.233 415.867 482.212 415.426 475 404C469.929 405.216 465.081 409.826 460 410.052C451.757 410.419 445.184 399.029 437.303 406.685C426.981 416.714 438.102 427.565 440.57 437C442.447 444.175 440.048 450.21 447.171 455.411C453.413 459.971 463.819 456.442 469.346 462.43C474.22 467.709 468.041 474.143 471.063 479.406C472.885 482.579 476.419 484.815 478.441 488.001C481.185 492.325 482.155 498.783 486.39 501.991C489.736 504.524 493.443 502.723 496.961 504.197C499.668 505.331 501.738 508.185 504 510C509.971 500.561 520.266 501.343 530 497.995C536.466 495.771 544.856 485.103 551.996 486.665C556.212 487.587 558.748 492.897 562.039 495.363C568.96 500.546 576.246 503.566 581.487 511C585.366 516.501 586.715 523.359 591.093 528.787C594.435 532.93 599.853 533.197 603.582 536.649C608.428 541.135 612.213 551.868 614.647 558C619.391 569.948 608.857 593.89 626 599L637.107 584.853L642.904 567.144L656 554C660.577 555.489 666.215 558.767 671 558.948C674.543 559.082 677.33 556.254 680.957 557.681C684.267 558.982 694.256 570.953 695.802 574.213C697.705 578.223 694.838 583.72 695.365 588C696.572 597.794 701.59 601.003 707.297 607.429C710.642 611.195 710.179 615.303 715 618L715.03 601L719 588C730.918 594.535 737.414 575.74 741 567C736.576 564.641 729.406 562.77 728.387 556.996C727.333 551.024 735.378 541.406 737.865 536C740.891 529.422 746.981 519.253 752.185 514.213C755.424 511.077 760.406 510.07 763.273 506.61C773.017 494.847 780.345 478.552 797 474.073C803.645 472.285 809.753 480.654 815 483.663C820.643 486.898 828.796 487.227 833.772 490.858C838.1 494.017 836.67 500.713 839.533 505C845.245 513.553 855.013 517.45 860 526L872 523.959L886 527.297L929 512L927 523C932.694 527.387 932.724 532.617 936.854 537.566C939.53 540.774 944.418 539.596 947.361 542.514C953.518 548.618 947.444 559.025 946 566C958.205 572.749 974.779 548.331 985.83 545.71C988.537 545.068 990.941 543.18 993.79 544.492C996.39 545.689 996.949 548.541 998.814 550.437C1001.4 553.066 1005.58 552.414 1008.03 555.314C1012.33 560.399 1011.75 567.373 1014.56 573C1020.39 584.7 1034.97 600.952 1047 606C1048.55 598.603 1055.5 582.577 1061.42 577.857C1065.87 574.308 1072.96 576.614 1076.65 571.721C1082.06 564.541 1089.47 553.884 1093.44 546C1096.2 540.517 1096.35 532.841 1101.22 528.637C1108.74 522.151 1122.89 520.018 1128.91 512.772C1132.41 508.555 1140.07 500.767 1141.72 495.816C1144.4 487.792 1141.27 478.94 1143.65 471C1146.07 462.921 1153.34 456.973 1155.97 449C1157.59 444.07 1155.22 439.19 1157 434C1137.96 430.453 1129.8 424.301 1116 411.039C1112.36 407.543 1106.11 404.032 1104.49 399C1103.1 394.663 1105.99 387.722 1106 383C1106.01 378.543 1104.89 372.295 1106.6 368.105C1108.18 364.245 1112.67 363.483 1115.61 361.034C1119.25 358.001 1119.88 352.786 1123.39 349.649C1128.07 345.471 1134.2 345.168 1137.45 338.996C1140.46 333.266 1137.05 320.072 1138 313C1127.68 308.675 1120.27 299.516 1123.72 288.015C1125.31 282.726 1131.11 280.792 1133.74 275.985C1143.47 258.155 1152.42 241.52 1165.73 226C1170.23 220.748 1178.51 215.987 1181.49 209.83C1189.54 193.197 1181.85 172.674 1184 156C1179.76 153.993 1174.7 151.448 1171.64 147.79C1167.94 143.365 1167.11 137.623 1161.96 134.352C1155.68 130.368 1143.43 130.618 1138.73 125.486C1133.61 119.898 1137.45 107.557 1128.96 104.947C1123.34 103.221 1118.53 106.647 1113 106.957C1107.22 107.281 1099.17 103.52 1094 105.123C1089.47 106.527 1086.24 111.047 1082 113.161C1077.16 115.572 1072.03 114.338 1067 115.789C1060.57 117.646 1055.86 122.559 1049 123.496C1041.19 124.562 1033.01 123.095 1025 124.301C1020.81 124.931 1017.15 127.84 1013 128.118C1008.04 128.451 1002.2 125.151 997.464 128.028C987.53 134.061 996.996 143.77 987.982 148.738C978.672 153.869 971.625 156.571 961 154.177C956.073 153.068 948.377 145.509 943.859 150.657C937.604 157.783 948.009 172.31 949.548 179C951.612 187.973 947.3 196.073 944 204z"/>
</svg>
