<?xml version="1.0" standalone="yes"?>
<svg xmlns="http://www.w3.org/2000/svg" width="1216" height="1450">
<path style="fill:#010101; stroke:none;" d="M0 0L0 1450L1216 1450L1216 0L0 0z"/>
<path style="fill:#ffffff; stroke:none;" d="M849 30C843.294 31.8751 844.211 38.4967 841.272 42.9961C838.163 47.757 833.518 48.38 829.529 51.7268C823.433 56.8403 823.741 64.0764 815 66C812.437 57.0347 807.501 45.6547 798 42.2678C794.275 40.9401 790.635 42.5481 787 41.5402C782.961 40.4204 779.707 36.8364 775.17 38.6072C767.553 41.5797 764.99 50.4796 759.61 55.5702C757.033 58.0076 753.428 58.4097 751.093 61.2277C747.752 65.26 746.385 70.9391 742.61 74.5818C731.587 85.2173 719.733 94.926 719 112C710.313 112.686 696.21 117.681 691.175 125.39C688.836 128.972 689.598 134.088 687.918 138C686.458 141.4 683.727 144.207 683.244 148C682.101 156.96 687.923 161.817 681.034 170.787C678.422 174.188 671.123 179.15 667 180.231C663.72 181.09 660.178 179.229 657.607 182.319C655.243 185.161 657.335 188.742 655.887 191.816C653.013 197.916 647.974 206.82 643.384 211.941C637.394 218.626 627.001 217.252 620.419 224.464C617.678 227.467 617.648 231.631 615.273 234.787C609.927 241.891 603.507 246.419 601.39 256C599.865 262.897 602.089 269.324 601.245 276C599.922 286.458 598.339 301.18 607.394 309.196C615.015 315.943 630.013 310.706 639 310.379C644.701 310.172 649.396 314.251 655 314.489C660.178 314.709 664.936 311.115 670 310.329C680.872 308.643 688.089 309.353 698.7 304.412C708.696 299.758 713.053 282.792 726.957 286.322C729.685 287.015 731.529 289.152 731.552 292.005C731.66 305.793 734.235 311.427 743 322L759.39 305.599L772.393 301.822L778.915 290.052L787.015 289.694L799 284.085L816 286C814.6 280.042 808.839 274.504 809.953 268.004C810.869 262.661 816.27 260.95 819.4 257.251C821.799 254.416 821.249 250.041 824.394 247.643C828.073 244.838 835.379 247.339 839.945 245.656C843.394 244.385 844.468 241.093 847.224 238.965C850.983 236.063 855.885 235.207 859.826 232.637C867.993 227.311 868.738 215.043 879 212.165C883.592 210.877 888.412 213.361 893 213.62C898.723 213.944 909.253 212.783 914.787 211.593C919.382 210.604 920.335 203.419 924.185 200.939C929.955 197.223 938.06 201.638 944 203C947.008 195.776 951.377 186.061 948.877 178C946.788 171.262 937.687 158.767 942.873 151.218C946.68 145.675 951.624 150.002 956 151.929C961.6 154.395 971.241 155.934 977 153.647C981.168 151.993 989.67 149.035 991.762 144.787C994.828 138.563 988.314 130.872 999.09 126.603C1004.08 124.625 1009.03 128.079 1014 127.408C1018.18 126.844 1021.72 123.946 1026 123.301C1033.74 122.135 1041.45 123.589 1049 122.685C1055.97 121.851 1060.64 117.311 1067 115.109C1077.99 111.307 1084.18 111.967 1094 104C1089.45 96.0172 1081.99 92.0183 1076.63 84.9607C1073.92 81.3804 1072.16 75.4669 1067.7 73.6072C1064.07 72.0948 1059.82 74.2477 1056 73.3766C1051.19 72.2783 1046.14 68.4561 1041.04 69.8473C1034.97 71.5059 1034.7 80.5552 1028.42 81.5077C1024.91 82.0408 1019.48 78.9998 1016 78.1266C1005.81 75.5674 993.617 74.4106 984 70.436C975.259 66.8236 973.988 56.2286 973.05 48C972.491 43.097 972.439 36.4536 965.995 36.3071C951.068 35.9678 947.248 50.1539 937.981 57.2909C932.435 61.5621 925.991 60.6575 920 63.4336C915.383 65.5734 912.709 70.4626 907.015 69.118C885.19 63.9644 917.836 41.6194 903.566 32.0316C898.689 28.7544 889.565 33.5439 884 32.4807C879.984 31.7135 877.372 28.1523 873 29.0132C862.672 31.0465 856.867 42.428 849 30z"/>
</svg>
