<?xml version="1.0" standalone="yes"?>
<svg xmlns="http://www.w3.org/2000/svg" width="1216" height="1450">
<path style="fill:#010101; stroke:none;" d="M0 0L0 1450L1216 1450L1216 0L0 0z"/>
<path style="fill:#ffffff; stroke:none;" d="M439 443C433.323 446.231 426.138 447.784 421.939 453.105C413.379 463.952 414.935 485.751 412.615 499C411.836 503.447 410.616 511.386 412.603 515.61C415.829 522.466 426.93 519.317 429.74 526.059C433.677 535.504 425.608 547.821 430.938 555.787C437.76 565.982 460.365 560.496 464.013 572.04C465.836 577.81 460.214 587.134 459 593C471.729 597.903 486.501 606.294 489.609 621C490.808 626.675 488.024 632.308 489.637 638C492.764 649.032 501.678 657.781 495.348 669.867C491.52 677.175 479.971 673.388 474.738 678.728C470.619 682.932 471.227 693.491 470.421 699C469.362 706.226 464.498 712.03 463.48 719C462.495 725.742 466.218 734.052 469 740L480 736C484.224 747.753 502.433 740.764 506.012 749.931C508.122 755.335 499.514 761.094 501.529 767.956C503.323 774.069 510.693 772.669 513.991 777.228C518.186 783.027 515.527 794.354 514.896 801C514.039 810.019 504.047 816.865 506.318 826C507.497 830.742 512.197 833.902 514.648 838C522.148 850.538 526.368 862.572 537.39 872.487C541.968 876.604 548.347 876.575 552.297 882.09C555.37 886.38 555.865 892.294 558.274 897C562.161 904.593 567.365 911.26 571.248 919C573.562 923.61 577.729 931.502 584 930.731C594.355 929.457 594.372 916.555 603.004 913.009C608.099 910.916 622.329 913.782 624.987 909.808C630.816 901.091 617.179 889.277 626.059 883.796C633.073 879.466 641.269 874.761 649.957 875.746C653.985 876.203 655.645 880.747 659.043 882.543C665.559 885.988 672.882 879.837 677.502 875.441C689.105 864.398 668.443 822.485 694 824C694.018 817.536 694.427 808.226 699.279 803.343C703.625 798.969 709.447 799.622 714.961 798.366C724.297 796.238 743.415 789.799 748.015 780.714C752.055 772.737 747.434 758.147 746.677 750C746.117 743.979 749.192 738.054 748.671 732C747.407 717.305 742.261 701.822 742.917 687C743.272 679.008 751.052 667.732 760 668.938C764.963 669.607 774.528 677.285 777.987 669.852C782.206 660.785 771.725 652.024 766.758 646C763.197 641.683 755.928 637.082 753.43 632.772C749.186 625.451 748.209 616.088 742.363 609.468C738.777 605.408 733.188 604.912 729.43 601.351C724.812 596.976 725.656 591.96 719 589L716 619C710.176 616.375 710.649 612.803 707.146 608.302C701.664 601.261 696.095 598.278 694.607 588C693.998 583.794 697.241 577.339 694.933 573.633C692.854 570.296 684.505 559.516 680.895 558.192C676.991 556.76 674.283 560.004 670.576 559.627C665.778 559.14 660.778 556.105 656 555L643.244 567.303L637.427 585.852L626 600C607.7 592.306 619.244 570.94 613.648 557C611.283 551.109 607.92 541.998 603.502 537.418C599.855 533.638 594.239 533.192 590.786 528.895C581.031 516.76 579.262 506.217 565 497.648C560.722 495.078 556.899 487.762 551.985 486.994C544.349 485.8 536.686 496.224 530 498.651C520.52 502.093 509.02 501.034 504 511C497.87 504.423 488.8 506.577 483.966 499.895C480.896 495.651 479.843 490.303 476.776 486.043C474.814 483.317 470.772 481.218 469.889 477.896C468.537 472.809 473.223 466.911 468.566 462.564C463.802 458.117 455.622 459.972 450.004 457.486C443.847 454.762 441.591 448.566 439 443z"/>
</svg>
