<?xml version="1.0" standalone="yes"?>
<svg xmlns="http://www.w3.org/2000/svg" width="1216" height="1450">
<path style="fill:#010101; stroke:none;" d="M0 0L0 1450L1216 1450L1216 0L0 0z"/>
<path style="fill:#ffffff; stroke:none;" d="M298 1043C297.117 1046.15 295.763 1049.67 297.049 1052.9C299.09 1058.02 316.753 1068.83 302.009 1073.14C300.375 1073.61 298.679 1073.78 297 1074C299.647 1088.05 312.137 1100.73 319.946 1113C323.334 1118.32 325.123 1124.22 332 1125L327.185 1097L336.452 1077L351 1027L337 1032C334.001 1025.7 329.335 1027.46 324 1030.44C315.184 1035.36 308.707 1044.23 298 1043z"/>
</svg>
