<?xml version="1.0" standalone="yes"?>
<svg xmlns="http://www.w3.org/2000/svg" width="1216" height="1450">
<path style="fill:#010101; stroke:none;" d="M0 0L0 1450L1216 1450L1216 0L0 0z"/>
<path style="fill:#ffffff; stroke:none;" d="M340 716C335.922 720.041 325.661 732.709 319.985 732.783C311.601 732.892 305.728 722.546 298.001 725.269C288.122 728.749 287.248 743.537 275 744.143C268.595 744.459 257.831 743.86 252 741.2C246.894 738.871 241.246 731.651 235.666 736.515C228.133 743.08 227.589 754.872 233.133 762.999C235.699 766.76 240.473 769.241 242.486 773.209C244.814 777.798 246.496 787.864 246.374 793C246.244 798.501 242.789 803.352 243.34 809C244.02 815.98 249.373 826.009 247.016 832.895C243.848 842.149 229.86 842.116 233.318 856C234.661 861.392 240.65 865.812 244.076 870C247.884 874.656 248.745 880.404 252.303 885C257.034 891.11 264.843 895.477 267.517 903C271.576 914.42 265.057 934.757 273.303 943.695C278.073 948.865 282.097 946.283 287.83 947.634C298.287 950.098 310.344 953.762 321 955.15C324.551 955.612 327.995 952.104 331.227 954.531C336.906 958.794 335.842 972.364 338 979C324.124 980.593 336.651 996.248 342 1001L342 1002L337 1005C340.36 1018.94 353.163 1023.78 350.15 1040C347.913 1052.05 342.102 1067.21 336.583 1078C332.702 1085.58 325.712 1093.59 328.318 1102.89C330.741 1111.54 349.815 1112.71 357 1113.88C359.962 1114.37 365.473 1117.06 367.411 1113.56C370.88 1107.3 366.493 1099.1 369.496 1093.06C373.731 1084.54 385.942 1088.16 383.852 1075.01C383.166 1070.7 379.258 1068.43 376.966 1064.99C373.578 1059.89 373.004 1054.94 373 1049C384.941 1048.86 379.248 1042.71 379.356 1035C379.499 1024.9 383.737 1021.89 372 1017L376.068 1003.09L370 992C372.025 991.958 373.995 991.882 376.001 991.571C390.337 989.347 376.329 977.282 373.9 970C371.842 963.832 373.259 956.919 371.373 951.286C368.384 942.357 357.779 936.717 356.345 927C355.775 923.138 358.416 919.777 358.701 916C359.112 910.538 356.305 905.46 358.267 900.015C359.61 896.288 362.863 893.894 363.861 889.985C365.357 884.126 363.288 876.324 366.028 871.015C369.335 864.608 377.005 864.773 379.055 857C380.181 852.729 377.48 849.179 377.963 845C378.956 836.408 380.314 827.847 381.17 819C381.504 815.547 383.52 810.697 382.307 807.326C380.294 801.728 374.353 799.762 372.626 793C371.536 788.731 369.047 783.409 370.607 779C371.76 775.744 375.459 773.555 375.759 770C376.88 756.739 360.475 737.995 348 737C347.356 728.836 347.071 721.144 340 716z"/>
</svg>
