<?xml version="1.0" standalone="yes"?>
<svg xmlns="http://www.w3.org/2000/svg" width="1216" height="1450">
<path style="fill:#010101; stroke:none;" d="M0 0L0 1450L1216 1450L1216 0L0 0z"/>
<path style="fill:#ffffff; stroke:none;" d="M136 1237L149 1250C156.459 1244.73 157.976 1238.76 158 1230C165.667 1232.15 171.767 1230.64 177.363 1224.48C184.485 1216.64 180.044 1205.56 187.39 1197.17C191.485 1192.5 197.14 1186.87 203.001 1184.7C206.886 1183.25 214.177 1183.39 217.272 1180.97C219.795 1179 225.374 1160.8 222.663 1159.77C217.316 1157.74 208 1163.31 203 1165C199.807 1151.56 190.042 1134.97 175.04 1144.48C169.219 1148.17 167.232 1155.31 161.816 1159.27C157.799 1162.21 149.969 1161.36 147.028 1165.51C142.538 1171.85 150 1186.59 149.806 1194C149.667 1199.31 146.322 1204 144.919 1209C143.775 1213.08 145.937 1217.03 144.752 1221C143.022 1226.8 138.148 1231.33 136 1237z"/>
</svg>
