<?xml version="1.0" standalone="yes"?>
<svg xmlns="http://www.w3.org/2000/svg" width="1216" height="1450">
<path style="fill:#010101; stroke:none;" d="M0 0L0 1450L1216 1450L1216 0L0 0z"/>
<path style="fill:#ffffff; stroke:none;" d="M718 977L717 986L688 977C689.641 981.476 692.474 982.373 697 983C697 999.562 690.896 1008.52 681.973 1021.57C679.158 1025.69 673.603 1024.97 672.508 1031C670.875 1040.01 681.627 1040.75 682.043 1049C682.447 1057.01 668.203 1068.73 683 1072L694.039 1059.62L715 1060C713.874 1058.33 712.542 1056.71 711.51 1054.98C705.175 1044.33 720.603 1045.13 725.714 1041.4C729.969 1038.3 732.364 1032.34 737.089 1029.93C741.824 1027.51 748.977 1030.27 749.377 1022C749.744 1014.43 737.705 1013.16 733.213 1009.36C725.533 1002.88 723.451 987.846 727 979L718 977z"/>
</svg>
