<?xml version="1.0" standalone="yes"?>
<svg xmlns="http://www.w3.org/2000/svg" width="1216" height="1450">
<path style="fill:#010101; stroke:none;" d="M0 0L0 1450L1216 1450L1216 0L0 0z"/>
<path style="fill:#ffffff; stroke:none;" d="M453 1155L445 1163C441.942 1155.79 434.16 1153.24 430.067 1162C428.498 1165.36 430.146 1168.73 427.667 1171.91C424.667 1175.77 413.134 1181.27 417.323 1187.49C419.406 1190.58 428.54 1191.65 431.366 1189.36C438.438 1183.62 439.79 1173.5 448 1167.9C454.069 1163.77 464.465 1166.62 466 1174C471.958 1169.38 471.877 1164.95 471 1158L453 1155z"/>
</svg>
