<?xml version="1.0" standalone="yes"?>
<svg xmlns="http://www.w3.org/2000/svg" width="1216" height="1450">
<path style="fill:#010101; stroke:none;" d="M0 0L0 1450L1216 1450L1216 0L0 0z"/>
<path style="fill:#ffffff; stroke:none;" d="M357 737C362.251 749.492 374.095 754.192 376.334 768.83C376.931 772.73 372.219 775.331 371.319 779C369.982 784.449 372.684 794.868 375.43 799.674C378.884 805.721 394.449 807.743 401 808.788C404.881 809.407 411.5 809.544 410.637 815.425C409.928 820.256 405.14 824.698 403 829C412.873 834.16 421.617 840.042 432 844.238C435.635 845.708 439.412 841.997 442.697 844.531C446.694 847.614 445.089 853.998 449.344 857.062C458.306 863.517 472.842 863.583 475.606 877C476.743 882.524 475 889.304 475 895C475 909.103 475.806 923.529 461 930C463.022 933.061 466.413 936.254 466.972 940C468.089 947.475 463.045 955.741 472 960L474 956L475 956L488 968L488 969C480.962 974.575 475.749 989.701 482.009 997.686C484.686 1001.1 489.321 999.755 492.571 1002.01C500.315 1007.39 504.459 1016.05 507 1025L516 1023L508.653 1036.04L503 1067C512.401 1064.32 522.788 1066.04 531.995 1070.09C540.325 1073.75 537.108 1084.35 544.379 1088.57C549.442 1091.5 554.997 1087.74 560 1089.83C569.097 1093.63 583.272 1109.1 593.982 1106.82C598.81 1105.79 599.979 1101.05 601.333 1097C604.375 1087.89 609.46 1075.67 607.366 1066C606.419 1061.63 603.064 1059.04 601.603 1055C598.244 1045.73 595.253 1031.8 596 1022L627.856 1022.67L639 1014C643.256 994.498 664.95 995.362 669 976L676 979C678.611 974.317 681.424 970.534 686.004 967.616C689.263 965.539 695.618 963.285 696.28 958.896C697.328 951.945 686.651 940.146 684.637 933C683.013 927.233 685.952 923.989 688.07 919C689.59 915.42 688.763 910.663 691.013 907.418C695.166 901.431 709.928 895.166 717 895C718.392 887.125 711.608 883.66 711.89 877.015C712.192 869.863 726.899 859.252 719.933 849.742C718.355 847.588 714.305 847.711 712 846.777C703.778 843.445 686.773 839.368 684 830L683 830C676.373 843.85 689.357 863.427 678.301 875.57C674.026 880.266 665.206 886.413 659.043 883.161C656.004 881.556 654.148 877.09 650.787 876.488C642.722 875.041 631.207 879.761 625.319 884.965C619.728 889.906 629.562 902.136 625.534 910C621.152 918.555 620.594 927.971 617.305 937C613.52 947.391 607.204 957.051 603.604 967C601.962 971.538 605.383 976.517 603.37 980.852C601.497 984.884 596.624 983.381 593.728 985.938C587.888 991.093 584.001 1001.44 584 1009L565 1007.13L528 1014L502 966C513.441 960.233 507.789 947.371 507.34 937C507.059 930.499 512.984 925.346 514.11 919C514.763 915.316 512.273 912.548 512.275 909C512.28 897.717 518.314 890.001 529 890C529.001 882.692 529.237 878.006 536 874C533.489 865.283 528.722 864.018 523.419 857.867C518.653 852.338 517.443 843.344 513.648 837C511.217 832.935 506.419 829.729 505.323 825C503.536 817.295 513.135 810.005 513.896 802C514.498 795.659 517.539 782.676 513.258 777.303C509.588 772.698 502.234 773.998 500.603 766.996C499.037 760.27 507.99 755.02 505.102 749.149C503.104 745.087 498.563 747.001 495 746.175C488.95 744.772 482.414 742.314 479 737L468 741L462 721C451.529 723.227 448.577 713.058 439 713.008C432.359 712.974 427.364 717.723 421 717.837C416.351 717.921 412.039 713.54 407.329 715.604C401.268 718.26 400.376 726.227 393 728.362C380.832 731.884 367.912 729.283 357 737z"/>
</svg>
