<?xml version="1.0" standalone="yes"?>
<svg xmlns="http://www.w3.org/2000/svg" width="1216" height="1450">
<path style="fill:#010101; stroke:none;" d="M0 0L0 1450L1216 1450L1216 0L0 0z"/>
<path style="fill:#ffffff; stroke:none;" d="M687 976L717 985C718.688 976.847 719.89 975.31 728 979C718.837 996.071 733.828 1010.19 748 1016C752.388 1007.76 753.878 996.081 763.001 991.449C768.282 988.767 771.061 994.091 775.999 993.748C781.959 993.334 782.54 985.442 787.213 983.312C790.393 981.863 794.704 983.763 797.199 980.486C800.44 976.23 792.669 969.972 790.364 967C785.792 961.105 780.086 956.609 775.637 950.907C769.194 942.646 769.587 937.496 758 936C757.53 925.922 768.252 924.307 771 915C765.03 912.818 761.186 914.305 757 919L756 919L754 907C744.387 907 735.112 907.814 726.001 904.315C719.955 901.993 717.088 894.559 710 896.65C695.889 900.812 681.248 918.528 685.637 934C687.785 941.569 696.436 950.467 696.839 957.985C697.291 966.389 679.364 968.783 677.364 977.995C675.819 985.112 688.838 987.373 687 976z"/>
</svg>
