<?xml version="1.0" standalone="yes"?>
<svg xmlns="http://www.w3.org/2000/svg" width="1216" height="1450">
<path style="fill:#010101; stroke:none;" d="M0 0L0 1450L1216 1450L1216 0L0 0z"/>
<path style="fill:#ffffff; stroke:none;" d="M742 566C738.546 574.419 724.73 588.609 727.639 596.985C729.947 603.63 738.109 604.408 742.61 609.301C748.651 615.87 749.572 625.541 754.302 632.698C760.468 642.025 782.682 654.167 779.258 667.995C776.509 679.095 766.31 670.24 760 669.564C751.337 668.636 745.288 677.457 743.73 685C740.882 698.79 748.254 718.007 749.471 732C750.024 738.353 746.567 744.712 747.48 751C748.519 758.153 752.675 773.832 749.016 780.625C743.758 790.39 725.086 796.373 714.985 799.138C709.906 800.528 703.526 799.439 699.513 803.569C694.691 808.531 695.001 818.607 695 825C688.079 824.203 679.456 829.196 688.144 835.265C697.39 841.724 710.897 846.589 722 848C721.543 853.791 721.808 861.555 719.436 866.91C717.755 870.706 712.734 872.531 712.492 877.039C712.261 881.359 716.615 884.157 717.901 888C719.217 891.932 717.24 896.114 719.858 899.775C725.145 907.169 747.084 908.769 754.852 905.258C759.22 903.283 758.861 897.25 764.005 894.796C768.488 892.658 773.413 892.781 777.91 890.968C782.791 889.001 792.549 880.673 796.384 876.775C804.88 868.142 801.009 857.509 812 849.637C823.388 841.482 831.241 852.111 842.856 848.562C846.764 847.368 846.75 842.177 849.303 839.464C853.932 834.543 860.526 830.921 866 827C871.761 843.537 890.363 825.11 898.004 821.324C903.024 818.836 910.471 817.365 914.486 813.351C923.883 803.956 913.115 784.305 915.262 773C918.685 754.97 934.32 740.235 942 724C936.464 721.982 927.835 724.736 923.39 721.968C911.68 714.676 914.676 702.734 915.826 692C916.29 687.675 914.789 681.964 918.318 678.639C925.018 672.325 935.038 680.685 940.648 672.786C944.047 668.001 947.646 660.906 947.956 655C948.209 650.182 945.885 644.524 948.014 640C955.174 624.788 984.299 614.52 1000 612.023C1010.81 610.304 1014.51 625.224 1024 627.068C1038.37 629.86 1044.76 618.521 1047 607C1034.61 599.658 1021.19 585.634 1014.11 573C1011.19 567.799 1011.89 561.113 1008.01 556.303C1005.56 553.268 1001.37 553.966 998.698 551.412C994.92 547.804 994.786 544.927 989 544C986.068 546.994 982.766 545.846 979.637 548.028C977.129 549.776 976.315 553.144 973.787 555.006C969.264 558.339 963.626 559.966 959 563.377C955.958 565.62 950.872 571.047 947.402 566.612C942.42 560.245 953.051 551.332 947.987 544.228C945.343 540.52 940.676 541.729 937.419 539.142C931.015 534.055 927.397 520.447 928 513L886 527.911L872 524.619L860 527C855.541 517.713 844.503 512.941 838.533 504C836.148 500.428 837.107 493.713 833.566 491.317C828.786 488.083 821.321 487.714 816 484.663C810.566 481.547 804.81 473.595 798 474.537C780.953 476.896 773.019 495.192 764.146 506.61C760.741 510.991 754.338 511.614 750.789 516.105C743.896 524.829 739.683 535.534 733.938 545C731.774 548.566 727.706 553.456 729.043 557.957C730.551 563.032 737.535 564.779 742 566z"/>
</svg>
