<?xml version="1.0" standalone="yes"?>
<svg xmlns="http://www.w3.org/2000/svg" width="1216" height="1450">
<path style="fill:#010101; stroke:none;" d="M0 0L0 1450L1216 1450L1216 0L0 0z"/>
<path style="fill:#ffffff; stroke:none;" d="M159 1231C158.813 1240.05 154.974 1243.93 150 1251L149 1251C145.541 1244.99 141.323 1240.02 135 1237C125.704 1252.93 132.048 1267.68 127.941 1284.96C126.489 1291.06 116.817 1290.78 118.337 1298C119.931 1305.58 136.442 1318.99 144 1320.54C150.226 1321.82 156.166 1312.47 164 1313C163.275 1317.13 163.326 1321.75 169.001 1321.25C175.064 1320.72 178.17 1313.9 182.17 1310.22C186.254 1306.47 192.722 1304.77 198 1303.39C205.366 1301.46 215.218 1307.89 221.891 1304.59C226.668 1302.23 226.81 1295.19 229.363 1291.04C231.852 1287 236.06 1285.3 240 1283C235.066 1270.64 237.296 1255.17 233.1 1242C229.588 1230.98 219.343 1222.84 225.825 1211.02C231.446 1200.77 245.691 1216.09 247.663 1207.89C248.667 1203.71 240.118 1189.97 235.956 1188.96C232.652 1188.15 229.77 1191.49 226.579 1190.43C223.339 1189.36 221.753 1185.64 218.83 1184.03C213.648 1181.17 204.863 1183.99 200.054 1186.56C193.317 1190.16 186.162 1197.93 183.353 1205C181.75 1209.03 183.22 1212.99 181.995 1217C179.034 1226.69 168.745 1233.65 159 1231z"/>
</svg>
