<?xml version="1.0" standalone="yes"?>
<svg xmlns="http://www.w3.org/2000/svg" width="1216" height="1450">
<path style="fill:#010101; stroke:none;" d="M0 0L0 1450L1216 1450L1216 0L0 0z"/>
<path style="fill:#ffffff; stroke:none;" d="M430 1192L416 1190C414.626 1174.9 403.079 1184.25 394 1182.83C389.265 1182.09 386.047 1177.15 381.108 1180.31C371.416 1186.5 377.716 1200.49 372.972 1208.82C368.643 1216.42 357.416 1217.72 356.348 1228C355.195 1239.09 367.528 1248.51 366.288 1260C365.203 1270.05 351.465 1276.41 352.203 1284.91C352.542 1288.82 361.166 1297.71 365.079 1298.28C368.967 1298.85 371.718 1294.41 374.039 1292C380.73 1285.04 383.97 1278.82 387.604 1270C392.376 1258.42 402.512 1252.71 409.272 1242.91C412.228 1238.63 412.315 1232.74 414.337 1228C419.504 1215.89 426.5 1204.82 430 1192z"/>
</svg>
