<?xml version="1.0" standalone="yes"?>
<svg xmlns="http://www.w3.org/2000/svg" width="1216" height="1450">
<path style="fill:#010101; stroke:none;" d="M0 0L0 1450L1216 1450L1216 0L0 0z"/>
<path style="fill:#ffffff; stroke:none;" d="M818 1061C802.736 1074.32 806.144 1093.23 813 1111C806.946 1113.57 799.131 1127.09 804.604 1133.36C809.245 1138.68 818.9 1139.43 822.15 1146.1C827.786 1157.68 818.725 1171.93 825.032 1182C829.147 1188.57 835.541 1191 840.351 1196.39C843.381 1199.78 843.852 1204.81 848.044 1207.31C850.59 1208.82 853.26 1207.62 855.911 1208.48C861.801 1210.38 870.639 1216.6 874.323 1221.63C878.686 1227.6 872.02 1243.83 872 1251L914 1246C915.027 1239.7 913.697 1234.67 917.966 1229.15C920.603 1225.74 926.583 1226.52 927.766 1221.94C928.509 1219.07 926.602 1216.33 925.188 1214C916.815 1200.2 902.471 1212.46 890 1210C891.376 1203.36 895.51 1192.38 900.43 1187.64C903.037 1185.12 908.033 1184.79 909.883 1181.58C911.8 1178.26 910.543 1172.83 912.133 1169C916.029 1159.63 924.84 1154.7 927.171 1144C928.128 1139.61 924.906 1136.26 925.295 1132C925.756 1126.94 934.028 1120.72 931.762 1116.2C930.33 1113.34 926.659 1112.19 924.637 1109.79C920.439 1104.8 919.235 1096.19 912.91 1093.07C908.885 1091.08 904.264 1093.6 900.089 1091.06C895.749 1088.42 893.759 1082.43 888.911 1080.61C883.42 1078.54 881.38 1084.06 876.961 1085.51C867.756 1088.52 862.392 1079.36 859 1073C854.346 1073.83 840.56 1078.16 837.185 1076.1C832.157 1073.03 832.471 1066.93 831 1062C825.112 1064.69 823.487 1064.39 818 1061z"/>
</svg>
