<?xml version="1.0" standalone="yes"?>
<svg xmlns="http://www.w3.org/2000/svg" width="1216" height="1450">
<path style="fill:#010101; stroke:none;" d="M0 0L0 1450L1216 1450L1216 0L0 0z"/>
<path style="fill:#ffffff; stroke:none;" d="M530 891C519.316 891 512.8 897.189 512.781 909C512.775 912.539 515.302 915.332 514.694 919C513.619 925.478 507.804 930.239 508.188 937C508.805 947.868 513.919 959.089 503 966L514.637 984.015L529 1013L565 1006.26L583 1008L592 984L602.731 980.686L602.618 968L609.121 958L622 913C616.174 910.652 603.202 911.485 598.637 916.394C594.223 921.142 591.459 932.961 582.424 931.424C576.337 930.389 572.16 921.873 569.756 917C565.936 909.255 560.476 902.671 556.786 895C554.561 890.377 554.15 884.3 550.581 880.468C546.321 875.896 535.39 871.442 531.179 878.329C529.082 881.76 530 887.145 530 891z"/>
</svg>
