<?xml version="1.0" standalone="yes"?>
<svg xmlns="http://www.w3.org/2000/svg" width="1216" height="1450">
<path style="fill:#010101; stroke:none;" d="M0 0L0 1450L1216 1450L1216 0L0 0z"/>
<path style="fill:#ffffff; stroke:none;" d="M384 987C381.123 992.129 376.518 992.564 371 993L376.444 1003.04L373 1017C385.17 1022.11 379.4 1026.05 380.187 1036C380.755 1043.18 384.733 1049.65 374 1050L384.682 1075L384.775 1108L381.397 1119L390.956 1146L378 1181C386.291 1177.63 387.149 1182.36 395 1182.31C399.42 1182.28 403.553 1179.71 408 1179.85C411.148 1179.96 413.851 1181.88 417 1180.58C430.388 1175.03 426.078 1156.12 441 1155C441.672 1146.5 447.79 1137.02 458 1138.36C465.227 1139.3 471.438 1144.47 478.721 1138.99C485.251 1134.08 483.326 1119.08 488.649 1112.09C494.193 1104.81 499.516 1106.85 507 1106.08C512.077 1105.56 521.164 1101.62 525.852 1099.41C530.689 1097.13 527.18 1090.74 531.318 1088.14C534.248 1086.3 538.831 1088.67 542 1089C540.62 1084.63 538.62 1076.04 535.436 1072.8C532.232 1069.55 528.011 1070.55 524 1069.72C514.711 1067.8 512.822 1064 503 1068C501.964 1063.03 504.484 1060.66 505.194 1056C506.881 1044.94 505.252 1034.78 516 1028L515 1024L506 1026C504.701 1016.36 499.952 1008.8 492.441 1002.99C483.649 996.185 478.648 1006.33 480.61 1014C481.399 1017.09 482.85 1020.04 484 1023L473 1028C474.315 1032.72 475.391 1045.71 467.907 1046.53C464.195 1046.94 462.664 1042.85 459.675 1041.61C456.078 1040.1 450.822 1041.92 447 1042C446.18 1032.99 435.313 1025.83 427 1023.64C423.795 1022.79 420.073 1024.13 417.174 1022.31C403.584 1013.75 395.224 998.006 384 987z"/>
</svg>
