<?xml version="1.0" standalone="yes"?>
<svg xmlns="http://www.w3.org/2000/svg" width="1216" height="1450">
<path style="fill:#010101; stroke:none;" d="M0 0L0 1450L1216 1450L1216 0L0 0z"/>
<path style="fill:#ffffff; stroke:none;" d="M309 1313L301 1301L296 1305C294.676 1298.58 296.346 1289.2 290 1286L287 1294L286 1294C279.188 1270.41 261.369 1283.75 248 1292C250.759 1298.63 255.566 1304.43 258.146 1311C259.477 1314.39 258.55 1318.4 260.434 1321.61C265.628 1330.45 275.803 1336.84 282.985 1344.02C290.488 1351.52 296.605 1361.18 303.61 1369.17C309.75 1376.18 309.741 1387.6 317.105 1393.68C319.697 1395.82 336.697 1398.06 338.958 1395.24C341.02 1392.67 340.23 1382.73 341 1379C347.161 1383.01 351.231 1389.27 354.121 1396C356.325 1401.13 356.213 1406.79 362 1409C362.001 1400.15 365.343 1391.75 364.959 1383C364.53 1373.22 360.227 1366.2 362.21 1356C364.22 1345.66 372.024 1339.71 370.826 1328C370.216 1322.04 369.136 1305.25 365.976 1300.68C362.546 1295.73 352.249 1291.32 351.451 1284.96C350.381 1276.42 377.435 1260.77 362.49 1250.02C358.72 1247.31 345.702 1246.17 344.361 1252.13C343.321 1256.76 347.353 1261.17 343.435 1265.36C338.675 1270.45 329.297 1269.69 325.009 1274.56C322.544 1277.37 323.224 1281.72 321.725 1285C317.397 1294.47 313.972 1303.71 309 1313z"/>
</svg>
