<?xml version="1.0" standalone="yes"?>
<svg xmlns="http://www.w3.org/2000/svg" width="1216" height="1450">
<path style="fill:#010101; stroke:none;" d="M0 0L0 1450L1216 1450L1216 0L0 0z"/>
<path style="fill:#ffffff; stroke:none;" d="M530 133C527.348 138.19 526.368 146.231 520.945 149.161C516.72 151.443 505.77 147.915 503.782 152.318C502.144 155.945 504.635 161.205 504.741 165C504.985 173.743 501.087 182.677 498.884 191C498.116 193.902 497.648 198.214 494.722 199.843C490.55 202.165 487.011 195.783 482.985 195.148C476.124 194.067 471.499 197.61 466 201C467.791 207.215 471.983 211.344 474.687 217C477.881 223.682 477.614 230.301 484.174 235.347C492.906 242.064 508.599 236.209 511.007 251C512.197 258.308 506.601 265.908 503.309 272C500.242 277.675 498.649 284.616 495.006 289.895C493.281 292.395 489.882 293.656 488.603 296.39C487.318 299.137 488.266 302.181 486.397 304.826C483.625 308.749 479.03 310.973 476.225 315.015C472.106 320.949 472.92 329.541 467.772 334.671C462.376 340.049 450.273 338.777 446.573 345.228C441.741 353.652 453.034 359.221 453.606 367C454.406 377.904 445.27 391 443 402L461 409.337L475 403C481.235 415.404 498.528 414.735 510 409.587C513.751 407.904 517.576 403.967 521.714 403.424C524.965 402.997 527.771 406.303 531 406.733C536.956 407.525 543.05 404.513 549 404.893C557.768 405.453 570.301 417.564 578.366 408.852C581.93 405.001 580.825 399.054 584.434 395.699C588.643 391.786 593.521 391.977 595.976 385.985C599.857 376.513 588.215 371.329 584.333 364C582.253 360.072 584.461 350.48 585.225 346C586.073 341.022 590.314 337.778 591.57 333C594.396 322.252 593.672 309.986 595.189 299.004C595.698 295.32 598.325 292.59 598.857 288.961C600.426 278.237 597.704 266.278 600.637 256C604.096 243.883 614.323 237.494 618 226C615.965 225.913 614.011 225.729 611.995 225.42C594.09 222.676 614.332 203.102 614.179 192C614.122 187.855 610.262 184.435 608.349 181C604.287 173.709 602.586 164.361 596.787 158.17C589.929 150.848 568.861 137.939 558 142.201C549.552 145.517 547.219 152.908 537 153C536.7 146.021 536.581 136.839 530 133z"/>
</svg>
