<?xml version="1.0" standalone="yes"?>
<svg xmlns="http://www.w3.org/2000/svg" width="1216" height="1450">
<path style="fill:#010101; stroke:none;" d="M0 0L0 1450L1216 1450L1216 0L0 0z"/>
<path style="fill:#ffffff; stroke:none;" d="M910 840L911 846L899.391 857.682L888.51 861.028L878 877L878 878L881 880L881 881C872.523 886.901 867.951 893.992 857 894C858.682 899.987 857.084 906.38 858.97 912C860.138 915.479 862.111 919.128 864.39 921.996C877.631 938.659 897.134 922.205 911 914.123C914.24 912.235 918.466 907.259 922.424 907.48C925.72 907.664 928.653 910.313 932 910.783C937.119 911.503 941.929 909.212 947 910.966C956.666 914.309 966.637 922.797 975.941 914.405C981.078 909.772 988.033 897.271 983.972 890.3C981.926 886.787 977.105 885.381 976.423 880.985C975.78 876.844 979.341 872.555 981 869C971.901 862.143 959.639 859.3 951.213 852.351C939.817 842.953 939.463 820.617 920 833.09C916.582 835.281 913.446 837.854 910 840z"/>
</svg>
