<?xml version="1.0" standalone="yes"?>
<svg xmlns="http://www.w3.org/2000/svg" width="1216" height="1450">
<path style="fill:#010101; stroke:none;" d="M0 0L0 1450L1216 1450L1216 0L0 0z"/>
<path style="fill:#ffffff; stroke:none;" d="M204 1164C206.696 1163.09 209.324 1162.02 212 1161.05C213.644 1160.46 215.303 1159.9 217 1159.48C232.383 1155.62 216.653 1176.32 220.473 1184C225.468 1194.03 231.215 1185.24 237.786 1189.11C244.383 1193 243.063 1201.73 251.999 1204.05C261.446 1206.49 260.2 1193.68 269 1193C267.381 1189.1 265.064 1185.35 265.133 1181C265.201 1176.79 268.038 1172.15 267.096 1168C265.072 1159.08 248.204 1150.2 260 1140C256.817 1133.17 256.734 1131.1 259 1124C252.601 1120.06 243.832 1120.13 238.394 1114.61C235.161 1111.33 235.51 1101.17 231.566 1099.71C229.075 1098.78 226.313 1100.84 224 1101.47C221.076 1102.26 217.875 1101.06 215.105 1102.41C209.696 1105.04 209.271 1112.54 205.363 1116.57C202.36 1119.67 197.756 1119.32 194.228 1121.42C190.222 1123.8 188.191 1133.6 188.614 1138C189.353 1145.68 200.434 1156.47 204 1164z"/>
</svg>
