<?xml version="1.0" standalone="yes"?>
<svg xmlns="http://www.w3.org/2000/svg" width="1216" height="1450">
<path style="fill:#010101; stroke:none;" d="M0 0L0 1450L1216 1450L1216 0L0 0z"/>
<path style="fill:#ffffff; stroke:none;" d="M43 907C49.9045 905.575 61.6888 901.985 67.3418 908.703C69.7133 911.521 65.7546 920.024 66.1736 924C66.8138 930.075 69.2576 935.798 68.9066 942C68.1198 955.905 63.0132 968.42 68 982L83 978L88 993C91.4134 991.568 94.8036 990.097 96.9259 986.895C99.7148 982.688 101.289 970.794 108.015 971.404C111.67 971.735 114.459 974.832 115.751 978.015C117.749 982.942 117.855 989.363 120.934 993.775C126.027 1001.07 137.039 1002.34 136.096 1014C135.338 1023.36 123.495 1029.57 124.333 1040C124.896 1047 130.552 1048.26 134.298 1053.18C136.54 1056.13 137.017 1059.7 140.133 1062.03C144.229 1065.1 149.638 1065.84 151.74 1071.04C158.302 1087.3 145.768 1102.46 148.557 1119C150.379 1129.81 164.545 1137.43 171 1146L186.86 1137.7L191.854 1122.43L203.787 1117.07L214.105 1102.67L229 1099L238.138 1071.1L244 1060L275 1062C275.043 1074.31 281.961 1070.07 291 1071.89C294.989 1072.69 303.938 1074.6 306.243 1069.69C309.939 1061.81 300.086 1058.88 297.049 1053.9C294.807 1050.22 296.474 1045.93 297 1042C308.421 1043.43 313.74 1036.22 323 1030.62C328.265 1027.43 333.378 1024.6 337 1031L350 1026C345.395 1019.24 332.676 1009.22 341 1002C336.332 993.806 330.308 988.91 331 979L337 978C335.27 972.681 335.613 957.518 330.852 954.816C327.705 953.031 324.318 956.066 321 955.644C316.958 955.131 313.123 952.918 309 952.275C297.551 950.488 276.129 952.127 270.434 939.996C264.789 927.974 272.048 912.425 265.697 900C262.43 893.609 255.637 889.597 251.303 884C247.745 879.404 246.884 873.656 243.076 869C239.514 864.645 232.901 859.862 232.164 854C230.641 841.901 243.095 841.264 246.218 832.895C248.688 826.278 243.255 815.784 242.554 809C241.971 803.362 245.564 798.513 245.642 793C245.833 779.473 239.367 770.576 231 761L230 761L225 771C212.044 769.999 219.979 753.054 210.867 748.859C206.939 747.051 202.116 748.978 198 748.971C192.381 748.961 187.467 745.281 182 745.511C175.507 745.784 169.79 749.381 163 747.682C159.033 746.689 156.759 742.976 153 741.603C149.702 740.4 146.287 741.913 143 741.112C138.765 740.079 133.203 736.866 129 735.143C124.535 733.311 121.169 727.649 116 727.811C108.292 728.052 98.3194 736.996 92.9105 741.826C87.4822 746.674 78.0509 743.416 73.9946 748.318C65.7908 758.232 69.1644 770.357 70.787 781C72.013 789.041 70.3767 800.445 67.3966 807.91C63.6824 817.213 52.2134 825.439 46.9383 834.089C43.7445 839.327 46.4568 845.461 44.4336 851C42.2137 857.077 36.122 859.902 33.5887 865.325C27.8923 877.518 38.3857 895.917 43 907z"/>
</svg>
