<?xml version="1.0" standalone="yes"?>
<svg xmlns="http://www.w3.org/2000/svg" width="1216" height="1450">
<path style="fill:#010101; stroke:none;" d="M0 0L0 1450L1216 1450L1216 0L0 0z"/>
<path style="fill:#ffffff; stroke:none;" d="M684 1166C681.807 1157.61 689.947 1137.2 697 1133L707.951 1151L713.228 1161.82L732 1168L733 1168L742.059 1153.25L762.697 1155.82L774 1139L774 1138C765.521 1129.96 752.123 1122.7 741 1118.97C738.011 1117.97 734.073 1119.41 731.419 1117.88C725.718 1114.6 729.82 1105.1 725.4 1101.01C719.248 1095.32 703.558 1102.32 696 1102C695.999 1095.04 695.516 1089.31 687 1089.06C679.76 1088.84 673.578 1094.72 667 1097.19C661.978 1099.07 654.84 1097.36 650.465 1100.03C646.313 1102.56 645.25 1108.28 640.816 1110.49C637.271 1112.25 632.701 1111.34 629.318 1113.43C626.59 1115.12 622.397 1126.79 622.558 1129.99C622.865 1136.09 631 1139.75 634.471 1144.04C640.156 1151.06 643.662 1152.36 651 1157.13C660.333 1163.21 672.942 1172.19 684 1166z"/>
</svg>
