<?xml version="1.0" standalone="yes"?>
<svg xmlns="http://www.w3.org/2000/svg" width="1216" height="1450">
<path style="fill:#010101; stroke:none;" d="M0 0L0 1450L1216 1450L1216 0L0 0z"/>
<path style="fill:#ffffff; stroke:none;" d="M249 1204C248.439 1221.15 231.275 1198.6 225.465 1213C221.096 1223.84 229.669 1231.25 233.381 1241C240.149 1258.78 235.638 1276.13 247 1292C261.408 1284.83 275.977 1269.23 286 1292L287 1292L290 1284C295.793 1290 295.011 1295.17 296 1303L300 1300L301 1300L310 1311L321 1285C295.211 1288.03 313.673 1257.93 311.088 1247C309.569 1240.58 302.411 1237.98 298.994 1232.91C292.283 1222.95 293.354 1208.65 283.786 1199.89C279.336 1195.81 270.461 1191.03 264.418 1195.03C257.386 1199.68 259.955 1206.98 249 1204z"/>
</svg>
