<?xml version="1.0" standalone="yes"?>
<svg xmlns="http://www.w3.org/2000/svg" width="1216" height="1450">
<path style="fill:#010101; stroke:none;" d="M0 0L0 1450L1216 1450L1216 0L0 0z"/>
<path style="fill:#ffffff; stroke:none;" d="M761 1079L760 1079C752.175 1084.95 748.474 1080.14 740 1079.19C730.802 1078.15 721.599 1081.7 716 1089L715 1089L707 1081L697 1101C705.555 1102.08 716.043 1095.15 723.941 1099.46C730.739 1103.17 726.272 1111.71 730.858 1116.38C733.288 1118.86 741.359 1118.45 745 1120.25C756.156 1125.76 766.081 1133.65 777 1139.09C780.419 1140.8 786.104 1143.97 790 1142.85C806.809 1138.03 798.49 1117.01 812 1111C809.783 1102.88 805.103 1094.7 805.724 1086C806.136 1080.22 810.267 1073.28 808.227 1067.27C807.244 1064.38 802.702 1063.03 800 1062.62C794.471 1061.77 785.583 1064.67 781.638 1068.64C774.831 1075.47 773.423 1087.92 761 1079z"/>
</svg>
