<?xml version="1.0" standalone="yes"?>
<svg xmlns="http://www.w3.org/2000/svg" width="1216" height="1450">
<path style="fill:#010101; stroke:none;" d="M0 0L0 1450L1216 1450L1216 0L0 0z"/>
<path style="fill:#ffffff; stroke:none;" d="M696 1134L690 1137L685 1167C677.423 1169.28 675.285 1188.55 678.603 1195.72C681.324 1201.6 690.906 1197.37 694.441 1204.04C698.391 1211.5 691.438 1216.07 692.938 1223C694.296 1229.28 700.631 1229.51 704.667 1232.99C707.586 1235.51 705.401 1238.67 706.643 1241.73C708.078 1245.26 713.732 1246.23 717 1247C728.505 1227.58 749.545 1250.65 761 1256.86C766.153 1259.65 770.144 1256.2 774.996 1257.56C779.143 1258.72 782.219 1263.98 785 1267L786 1267C790.196 1261.9 788.188 1257.18 789.001 1251C790.64 1238.52 783.092 1229.52 777.312 1219C771.77 1208.91 768.199 1198.1 761 1189C772.478 1185.58 771.296 1164.72 766 1156L741.318 1154.33L733 1169L732 1169L712.228 1161.57L706.951 1150L696 1134z"/>
</svg>
