<?xml version="1.0" standalone="yes"?>
<svg xmlns="http://www.w3.org/2000/svg" width="1216" height="1450">
<path style="fill:#010101; stroke:none;" d="M0 0L0 1450L1216 1450L1216 0L0 0z"/>
<path style="fill:#ffffff; stroke:none;" d="M669 978C665.654 996.544 641.641 995.107 640 1015C625.085 1013.03 640.773 1031.48 640 1039L646 1037C649.366 1049.5 639.097 1046.86 637 1057L626 1058L626 1062L610.319 1061.51L608.74 1070L605 1088L618.043 1083.21L632 1084C632.59 1091.13 639.664 1101.34 645 1106C652.131 1096.12 659.736 1099.57 670 1095.4C674.95 1093.38 679.678 1088.98 685 1088.24C691.354 1087.36 696.498 1093.93 702.697 1089.72C707.918 1086.18 704.034 1080.7 704.461 1076C704.862 1071.58 708.309 1067.06 710 1063C697.858 1056.21 688.804 1061.35 683 1073C667.33 1068.4 681.483 1059.32 681.412 1050C681.348 1041.5 669.781 1039.81 671.873 1031C673.073 1025.95 677.174 1025.19 680.398 1022.08C682.283 1020.26 682.097 1017.28 683.603 1015.17C689.298 1007.2 708.193 986.252 688 982C683.06 989.856 675.356 979.154 669 978z"/>
</svg>
