<?xml version="1.0" standalone="yes"?>
<svg xmlns="http://www.w3.org/2000/svg" width="1216" height="1450">
<path style="fill:#010101; stroke:none;" d="M0 0L0 1450L1216 1450L1216 0L0 0z"/>
<path style="fill:#ffffff; stroke:none;" d="M256 1143L259.988 1158.71L267.508 1168L267.84 1188.94L286.351 1202.17L298.905 1231.91L312 1247C318.979 1241.66 333.173 1230.81 335.323 1222C336.703 1216.34 332.271 1210.62 334.309 1205C337.139 1197.2 345.6 1200.88 349.184 1194.7C350.631 1192.2 349.075 1188.76 349.352 1186C350.126 1178.3 351.33 1167.27 348.012 1160C344.893 1153.17 338.978 1148.15 336 1141L334 1141L325 1147L319 1132C310.499 1132.03 309.077 1136.01 308 1144L301 1144C299.292 1134.56 291.625 1128.99 283 1126L282 1131C276.835 1127.84 261.059 1121.1 257.242 1130.23C254.853 1135.94 262.453 1137.94 256 1143z"/>
</svg>
