<?xml version="1.0" standalone="yes"?>
<svg xmlns="http://www.w3.org/2000/svg" width="1216" height="1450">
<path style="fill:#010101; stroke:none;" d="M0 0L0 1450L1216 1450L1216 0L0 0z"/>
<path style="fill:#ffffff; stroke:none;" d="M245 1061C244.582 1066.41 240.968 1066.94 238.649 1071.21C234.838 1078.24 236.515 1088.5 229 1093C229.728 1096.35 230.597 1097.41 234 1098L238.005 1113.61L252 1119.99L261.285 1125.32L281 1129L282 1125L286 1126C288.756 1115.35 287.823 1090.68 301 1088C299.207 1084.34 297.69 1076.47 294.566 1074.14C286.537 1068.14 274.177 1077.92 274 1063L245 1061z"/>
</svg>
