<?xml version="1.0" standalone="yes"?>
<svg xmlns="http://www.w3.org/2000/svg" width="1216" height="1450">
<path style="fill:#010101; stroke:none;" d="M0 0L0 1450L1216 1450L1216 0L0 0z"/>
<path style="fill:#ffffff; stroke:none;" d="M763 1189C769.127 1207.51 786.18 1223.99 790.273 1243C793.301 1257.07 778.143 1275.65 794.001 1285.12C803.179 1290.6 813.356 1283.09 822 1280.64C831.806 1277.85 846.544 1275.48 854.486 1268.18C857.832 1265.11 856.491 1259.77 859.514 1256.39C862.29 1253.29 867.543 1253.39 869.973 1250.27C873.377 1245.91 875.187 1229.59 874.397 1224.1C873.322 1216.64 861.26 1213.29 857 1208C846.138 1210.11 845.853 1202.92 839.582 1196.39C833.998 1190.58 825.014 1186.58 822.603 1178C818.143 1162.13 831.155 1150.69 813 1139.18C810.412 1137.54 807.176 1135.12 804 1134.94C798.32 1134.61 794.989 1141.52 790 1143.19C780.678 1146.31 769.708 1133.02 766.502 1151C764.489 1162.28 778.398 1182.06 763 1189z"/>
</svg>
