<?xml version="1.0" standalone="yes"?>
<svg xmlns="http://www.w3.org/2000/svg" width="1216" height="1450">
<path style="fill:#010101; stroke:none;" d="M0 0L0 1450L1216 1450L1216 0L0 0z"/>
<path style="fill:#ffffff; stroke:none;" d="M472 1158L468 1176C477.588 1177.29 489.287 1183 499 1181.51C509.507 1179.9 520.264 1166.97 530 1162.65C543.409 1156.7 556.791 1160.67 570 1156.56C578.856 1153.8 583.436 1146.39 591 1141.86C600.977 1135.87 607.138 1139.82 610 1126C600.33 1120.35 597.776 1117.2 598 1106C585.314 1110.97 571.765 1095.95 561 1090.69C555.809 1088.15 547.038 1090.83 541 1089.78C538.522 1089.35 535.696 1087.43 533.148 1088.02C528.486 1089.09 530.482 1097.42 525.941 1099.98C521.812 1102.3 511.675 1106.13 507 1106.49C499.777 1107.05 493.015 1105.41 488.417 1113.09C483.879 1120.68 482.228 1131.29 482.015 1140C481.92 1143.88 483.49 1150.27 481.802 1153.79C480.074 1157.38 475.466 1157.82 472 1158z"/>
</svg>
