<?xml version="1.0" standalone="yes"?>
<svg xmlns="http://www.w3.org/2000/svg" width="1216" height="1450">
<path style="fill:#010101; stroke:none;" d="M0 0L0 1450L1216 1450L1216 0L0 0z"/>
<path style="fill:#ffffff; stroke:none;" d="M786 983C784.349 986.752 780.451 994.43 775.576 994.403C768.801 994.366 765.918 988.274 759.214 994.483C754.642 998.717 750.74 1008.89 749.713 1015C749.057 1018.9 750.853 1022.18 748.617 1025.89C745.461 1031.14 741.615 1028.27 737.17 1030.21C732.413 1032.28 729.726 1038.44 725.83 1041.68C720.179 1046.39 705.526 1044.41 712.519 1055.96C713.437 1057.47 714.811 1058.72 716 1060C708.961 1063.27 703.201 1073.47 706 1081C714.92 1074.18 718.733 1067.04 731 1067L729 1079C738.481 1078.59 753.41 1085.29 760 1078L761 1078C764.294 1081.44 768.365 1082.44 772.892 1080.3C779.663 1077.09 779.987 1067.8 788 1064.34C798.27 1059.9 810.687 1068.99 818 1060L819 1060L831.107 1063.02L836.533 1075.14L854 1073C854.089 1062.2 857.032 1048.97 863.702 1040.18C868.255 1034.19 876.901 1033.61 877.67 1025C879.038 1009.65 865.091 1006.41 855.213 1000.68C852.075 998.863 851.161 995.029 848.61 992.61C843.807 988.055 833.358 980.209 827 978.529C821.067 976.96 818.45 982.754 813.325 983.258C809.527 983.631 807.948 977.429 804.012 977.037C800.362 976.673 798.628 981.091 795.791 982.563C792.732 984.151 789.242 983.383 786 983z"/>
</svg>
