<?xml version="1.0" standalone="yes"?>
<svg xmlns="http://www.w3.org/2000/svg" width="1216" height="1450">
<path style="fill:#010101; stroke:none;" d="M0 0L0 1450L1216 1450L1216 0L0 0z"/>
<path style="fill:#ffffff; stroke:none;" d="M448 1041C451.344 1040.93 455.719 1039.54 458.907 1040.64C462.013 1041.72 463.485 1045.71 467.039 1045.7C475.438 1045.7 473.322 1031.7 472 1027L483 1022C479.44 1012.82 481.221 1009.04 481.221 1000C481.221 987.292 476.988 980.258 487 969L487 968L474 957L472 961C462.082 954.485 468.239 948.089 466.262 939C465.489 935.443 462.361 932.573 460 930C477 922.875 473.633 905.571 474.015 890C474.174 883.48 476.4 877.104 472.633 871.104C467.298 862.609 456.224 862.96 449.189 857.436C444.985 854.135 446.194 847.675 442.436 844.708C439.567 842.444 436.473 845.985 433.424 845.353C426.81 843.984 417.766 839.218 415 833L402 829C404.803 825.085 410.505 819.268 409.957 814.059C409.515 809.859 389.868 804.265 386.279 806.333C382.13 808.723 382.117 816.811 382.015 821C381.804 829.604 379.345 836.857 378.575 845C378.178 849.2 380.817 852.706 379.663 857C377.512 864.999 370.417 864.076 367.028 870.109C364.085 875.346 366.208 884.043 364.695 889.985C363.598 894.295 359.723 896.66 358.688 901.015C357.471 906.135 359.975 910.924 359.451 916C358.971 920.654 355.726 924.179 357.395 929C360.363 937.576 368.549 943.004 371.926 951.17C374.381 957.107 372.789 965.367 375.235 972C379.242 982.87 389.619 994.006 396.888 1002.96C401.379 1008.49 411.141 1018.65 417.3 1021.93C419.934 1023.34 423.167 1022.02 426 1022.67C434.459 1024.64 446.096 1032.35 448 1041z"/>
</svg>
