<?xml version="1.0" standalone="yes"?>
<svg xmlns="http://www.w3.org/2000/svg" width="1216" height="1450">
<path style="fill:#010101; stroke:none;" d="M0 0L0 1450L1216 1450L1216 0L0 0z"/>
<path style="fill:#ffffff; stroke:none;" d="M866 829C860.259 830.489 852.392 835.523 848.938 840.464C846.996 843.241 847.098 846.969 843.856 848.817C835.584 853.531 826.156 843.43 818 846.812C812.557 849.068 805.747 853.19 803.603 859C801.937 863.517 803.363 867.68 800.467 872C795.571 879.302 787.577 882.688 781.536 888.86C776.797 893.701 769.817 892.589 764.019 895.353C757.311 898.55 752.752 911.381 756 918L757 918C762.274 913.847 765.418 912.702 772 914C769.727 921.757 764.891 925.163 758 929C759.302 936.998 765.873 934.592 770.034 940.133C778.44 951.328 786.024 963.993 796.425 973.836C801.392 978.537 807.143 977.635 812 984C815.946 982.037 820.378 977.341 825 977.503C840.7 978.053 848.597 1001.31 864 1001.74C875.347 1002.06 886.227 998.466 897 996.405C900.928 995.654 905.104 997.849 908.911 996.393C913.526 994.627 920.895 987.707 924.606 984.214C929.964 979.172 925.653 969.961 933.044 966.514C940.051 963.246 950.643 964.021 958 965.247C962.973 966.075 968.124 968.078 971.2 962.941C980.213 947.888 960.218 936.1 969 920C961.715 917.252 952.579 912.333 945 911.214C940.943 910.615 937.013 912.184 933 911.748C928.946 911.307 925.118 907.491 921 908.248C917.287 908.93 914.131 912.604 911 914.533C896.314 923.583 878.27 938.5 864.213 921.999C861.748 919.105 859.712 915.562 858.367 912C856.192 906.243 857.745 899.21 856 893C867.041 893 872.123 888.539 880 881L880 880L877 878L877 877L887.702 860.603L898.391 857.972L910 845C909.729 836.53 922.156 830.865 929 828C926.007 808.821 906.538 815.623 895.213 823.363C890.81 826.373 889.582 830.086 883.999 831.625C877.046 833.542 870.347 836.51 866 829z"/>
</svg>
