<?xml version="1.0" standalone="yes"?>
<svg xmlns="http://www.w3.org/2000/svg" width="936" height="1450">
<path class = "AkitaD" onclick = "Yokote()" id = "Yokote" style = "fill:#010101; stroke:none;" d="M0 0L0 1450L936 1450L936 0L0 0z"/>
<path class = "AkitaD" onclick = "Yokote()" id = "Yokote" style = "fill:#ffffff; stroke:none;" d="M499 984C501.225 995.336 488.76 994.271 485 986L467.945 998.799L456 996.922L440 1003.42L419 999L425.6 1016.82L438.957 1019.14L457.785 1027.19L462 1043C470.075 1042.7 467.661 1049.57 470.009 1054.91C471.546 1058.4 477.198 1060.78 476.824 1064.96C476.497 1068.61 471.321 1070.11 469.573 1073.11C467.292 1077.01 463.586 1089.48 463.478 1093.96C463.359 1098.89 470.41 1102.97 472 1108L473 1108C481.337 1096.67 489.066 1099.83 501 1098.83C506.849 1098.34 515.098 1101.56 513 1109L513 1110L523.985 1118.04L530.001 1129.69L554 1134.07L567 1139.32L579.946 1139.22L591 1151L591 1152C586.133 1159.12 590.225 1167.04 596 1172L597 1172L599 1165L603 1167C608.733 1153.18 633.42 1157.42 641.298 1167.22C651.201 1179.56 649.951 1200.7 647 1215C653.988 1219.15 656.744 1223.22 659 1231C670.048 1229.18 682.685 1243.95 692.66 1240.31C702.754 1236.62 694.765 1219.81 694.495 1213.29C694.317 1208.97 697.649 1204.83 694.973 1200.51C692.124 1195.92 686.138 1194.05 682 1191L681 1191C674.501 1196.1 671.421 1196.06 664 1193C667.131 1185.31 667.054 1178.24 662.032 1171.1C659.713 1167.81 654.818 1165.63 654.967 1161.02C655.141 1155.6 661.357 1156.58 664.066 1153.44C665.763 1151.46 665.697 1148.42 667.703 1146.64C669.737 1144.84 672.578 1145.85 675 1145.82C688.596 1145.63 691.218 1153.97 703 1158.91C712.469 1162.89 716.875 1154.83 725 1153.02C729.727 1151.97 735.305 1155.41 739.714 1152.97C746.938 1148.97 747.316 1141.55 750.649 1135.11C753.186 1130.21 759.954 1130.69 761.566 1124.98C763.37 1118.59 759.216 1115.01 754.999 1111C745.427 1101.9 733.576 1097.81 723.019 1090.3C716.202 1085.45 720.157 1069.21 711 1070C709.15 1065.4 705.443 1066 701 1066C701.228 1060.68 700.532 1052.78 702.854 1048.01C704.813 1044 710.24 1041.61 710.598 1036.96C711.255 1028.41 703.508 1029.43 700.514 1023.78C698.152 1019.31 693.911 1011.78 692.742 1007C690.321 997.101 692.008 990.863 678 990.796C668.879 990.753 664.21 1003.99 655 1006C654.103 1002.89 652.933 998.714 649.787 997.117C646.542 995.471 641.401 997.544 638 997.999C629.36 999.155 617.927 996.147 610.589 1002.86C607.571 1005.62 607.068 1012.33 605 1016L603 1011L602 1011L601 1015L598 1014L601 1020L582.39 1013.26L565 995C561.888 1000.25 554.107 1008.05 548 1009L550 975L553 974L543 974.157L531.105 973.725L516 982.124L499 984z"/>
</svg>
