<?xml version="1.0" standalone="yes"?>
<svg xmlns="http://www.w3.org/2000/svg" width="936" height="1450">
<path class = "AkitaD" onclick = "Kitaakita()" id = "Kitaakita" style = "fill:#010101; stroke:none;" d="M0 0L0 1450L936 1450L936 0L0 0z"/>
<path class = "AkitaD" onclick = "Kitaakita()" id = "Kitaakita" style = "fill:#ffffff; stroke:none;" d="M477 157L458.664 200L457.671 224L448 247C443.9 247 439.06 246.329 435.104 247.573C421.438 251.869 429.313 262.178 429.498 271C429.59 275.395 427.434 279.641 427 284L441 291L427.39 295.728L420.61 305.273L412.843 311.109L413.385 330L406.51 368L411 383L408 384C409.642 386.443 412.119 388.995 412.579 392C413 394.756 410.378 398.741 412.785 400.987C423.694 411.162 447.898 393.466 455 386C460.31 397.411 467.976 387.79 476 385.968C481.239 384.779 485.658 386.902 491 385C489.532 396.68 495.905 409.61 492.86 420.996C490.805 428.683 479.311 438.118 479.954 446C480.702 455.158 491.345 462.435 491.106 472C490.924 479.252 482.61 481.149 480.268 487.104C478.003 492.861 481.393 498.33 482.066 504C482.509 507.724 480.871 511.245 481.315 515C482.55 525.46 490.387 532.571 492.197 543C493.062 547.987 490.568 553.05 491.43 558C492.36 563.347 496.873 566.976 498.502 572C502.955 585.729 500.93 598.378 511.584 609.487C514.461 612.486 526.891 618.057 531 618.192C537.126 618.393 540.742 614.453 546.892 618.367C554.894 623.46 552.268 636.51 562 640C564.918 630.173 579.556 635.436 583.397 626.775C586.675 619.384 581.243 610.475 581.858 603.004C582.387 596.585 589.03 596.544 591.836 591.867C596.206 584.583 593.787 573.564 601.144 567.513C604.566 564.699 622.267 554.081 625.996 554.828C629.515 555.533 631.203 559.325 634.17 560.973C640.57 564.53 650.235 564.816 655.982 560.39C662.246 555.566 664.594 545.658 663.894 538C663.41 532.695 660.848 528.949 664.642 524.109C672.273 514.371 691.955 511.27 688 494C691.752 494 696.567 494.67 699.682 492.107C702.368 489.896 702.056 485.894 703.653 483C708.483 474.248 716.226 463.94 727 465C726.058 453.604 714.016 446.55 708.479 437C701.236 424.508 699.874 409.644 692 397C682.054 402.192 683.874 395.425 676.772 391.434C672.256 388.895 668.047 390.967 665 386C659.431 387.604 655.06 389.98 652 395L651 395C647.354 390.735 642.264 386.843 641.228 381C639.979 373.96 643.028 365.587 638.297 359.425C630.999 349.92 619.132 353.044 610.375 347.066C602.357 341.592 602.969 335.145 600 327L589 334.752L572 334L570.185 310.224L562.508 298L564.435 283.004L555.318 271.895L553.397 259.213L539 250C540.556 238.085 520.351 246.509 514.253 239.772C509.776 234.826 516.444 232.595 516.368 227.934C516.319 224.957 512.283 223.093 510.726 220.896C506.323 214.679 504.79 201.699 496 201C495.995 193.341 493.025 188.202 491.163 181C488.383 170.252 490.312 161.218 477 157z"/>
</svg>
