<?xml version="1.0" standalone="yes"?>
<svg xmlns="http://www.w3.org/2000/svg" width="936" height="1450">
<path class = "AkitaD" onclick = "Happou()" id = "Happou" style = "fill:#010101; stroke:none;" d="M0 0L0 1450L936 1450L936 0L0 0z"/>
<path class = "AkitaD" onclick = "Happou()" id = "Happou" style = "fill:#ffffff; stroke:none;" d="M257 101C252.384 97.6844 247.064 92.0221 241 92.1598C236.148 92.27 231.961 95.7726 227 95.4329C217.274 94.767 212.354 91.4937 202 95C206.241 108.401 216.809 113.238 226.697 121.951C229.674 124.574 229.466 128.737 231.879 131.721C236.175 137.034 246.392 140.941 253 141C253.008 150.869 260.186 157.731 260.942 167.004C262.815 189.969 257.029 213.508 254 236L264 237C265.854 226.771 270.471 230.152 278 231.595C287.883 233.489 291.924 233.794 297 244C301.604 242.535 304.399 242.671 307 247L330.861 235.686L333.661 217L332.502 196L335.22 186L333.406 175L351 131L345.357 118.042L330 114L315 115C314.862 109.122 313.503 105.553 308 103C313.894 94.7748 312.21 75.0934 305.347 67.3943C302.618 64.3318 291.048 60.6842 286.961 60.1621C279.563 59.217 265.274 68.6814 260.318 73.8843C255.603 78.8335 260.966 83.5527 261.017 89C261.055 93.0145 257.945 97.0668 257 101z"/>
</svg>
