<?xml version="1.0" standalone="yes"?>
<svg xmlns="http://www.w3.org/2000/svg" width="936" height="1450">
<path class = "AkitaD" onclick = "Oga()" id = "Oga" style = "fill:#010101; stroke:none;" d="M0 0L0 1450L936 1450L936 0L0 0z"/>
<path class = "AkitaD" onclick = "Oga()" id = "Oga" style = "fill:#ffffff; stroke:none;" d="M45 460C43.8416 467.78 39.4269 476.386 42.5949 484.625C44.0032 488.287 45.7254 495.602 48.0895 498.562C50.2152 501.223 53.2455 499.774 55.9414 501.055C62.6895 504.26 57.4856 511.295 56 516L55 516C53.9973 513.01 50.1659 510.908 48.7076 515.229C44.585 527.445 56.5039 544.677 68 545C66.453 553.865 69.4933 571.987 74.314 579.787C76.5856 583.462 80.2488 584.767 82 589L95 583L96 586L101 581C104.581 581.635 108.583 580.133 111.961 581.484C118.428 584.07 126.842 593.298 127 580C136.527 578.822 141.286 579.52 149 573L149 572L145 573C143.319 550.648 177.158 546.636 193 550.927C198.391 552.388 202.918 555.81 208 558C210.245 554.411 214.046 551.032 215.386 547C217.854 539.572 213.105 521.166 208.351 515.184C203.995 509.704 194.623 507.794 193.349 499.999C191.324 487.609 203.832 473.992 203.177 462.039C202.979 458.425 199.031 455.347 197.704 451.996C193.317 440.919 201.639 435.76 210 431L218 411C214.251 408.401 207.891 403.402 203.681 407.333C195.583 414.895 192.995 428.798 187.035 438C171.622 461.797 153.726 484.549 128 498.088C109.557 507.794 102.027 492.291 86 486.761C77.8719 483.956 65.6111 483.133 59.0548 477.61C53.3486 472.802 50.8826 465.045 45 460z"/>
</svg>
