<?xml version="1.0" standalone="yes"?>
<svg xmlns="http://www.w3.org/2000/svg" width="936" height="1450">
<path class = "AkitaD" onclick = "Gojome()" id = "Gojome" style = "fill:#010101; stroke:none;" d="M0 0L0 1450L936 1450L936 0L0 0z"/>
<path class = "AkitaD" onclick = "Gojome()" id = "Gojome" style = "fill:#ffffff; stroke:none;" d="M323 476C323.973 481.839 326.569 499.786 315.536 499.323C312.532 499.196 308.791 496.168 306 495C304.566 501.938 310.468 504.417 316 507C307.483 518.812 289.118 523.783 275 522L277 527C287.63 525.415 294.477 527.609 305 528.815C314.628 529.918 321.515 528.102 329.491 535.599C331.819 537.788 331.912 541.352 333.728 543.895C335.731 546.701 339.151 547.76 341.262 550.39C342.89 552.419 342.831 556.223 345.433 557.354C349.249 559.014 355.715 556.787 359.957 557.449C364.199 558.111 364.974 562.894 368.213 565.062C373.541 568.628 380.942 565.261 385.682 570.279C389.098 573.894 387.188 578.717 388.584 583C391.222 591.093 397.613 597.375 402.625 604C404.374 606.312 405.635 610.1 408.39 611.397C419.531 616.64 429.026 608.584 440 610C449.281 592.36 440.784 579.112 439.6 561C439.399 557.917 441.337 555.088 440.925 552C440.445 548.399 437.464 545.712 437.232 542C436.987 538.069 438.674 534.071 436.486 530.318C434.53 526.962 429.309 528.306 426.468 525.682C421.021 520.652 413.727 508.608 410.458 502C407.407 495.833 412.188 489.498 409.736 483.015C407.857 478.046 402.487 477.122 400.028 472.815C398.167 469.555 399 464.618 399 461L384 455.603L362 458.326L350.09 457.033L323 476z"/>
</svg>
