<?xml version="1.0" standalone="yes"?>
<svg xmlns="http://www.w3.org/2000/svg" width="936" height="1450">
<path class = "AkitaD" onclick = "Daisen()" id = "Daisen" style = "fill:#010101; stroke:none;" d="M0 0L0 1450L936 1450L936 0L0 0z"/>
<path class = "AkitaD" onclick = "Daisen()" id = "Daisen" style = "fill:#ffffff; stroke:none;" d="M471 744C461.206 740.694 456.691 742.768 448 748C448.348 750.694 448.894 753.329 449.389 756C452.957 775.245 434.766 758.859 425.434 765.314C417.563 770.759 429.104 773.294 433 773C433.986 785.596 427.733 791.026 422.934 802C419.386 810.111 416.931 819.309 412.972 826.985C410.995 830.818 406.563 831.944 404.302 835.39C400.304 841.484 399.48 849.304 397 856C412.174 859.184 405.399 869.662 411.178 879.892C413.404 883.832 418.489 884.354 420.991 888.108C423.993 892.612 424.863 899.859 427 905L422 907C426.064 914.329 440.852 936.251 424 939C424.004 944.593 423.671 952.21 427.653 956.697C432.267 961.896 459.952 967.899 440.958 978.558C438.821 979.757 436.335 980.323 434 981C439.361 987.139 447.607 985.448 453.787 989.854C458.199 993 460.757 1000.71 467.867 998.306C473.741 996.317 474.11 987.181 481.957 986.287C488.046 985.593 491.961 993.21 500 991C499.462 988.261 498.402 984.884 501.242 983.028C505.294 980.379 512.334 982.412 517 981.124C528.583 977.928 542.487 965.51 555 975L551 976L549 1008C553.896 1007.19 563.374 999.004 564.577 993.996C565.871 988.608 563.536 984.393 566 979L567 979L571 982C573.895 978.585 576.034 980.133 580 981L579 969C584.233 967.634 587.698 964.918 590 960C572.641 950.5 602.877 936.161 612 934C611.152 927.254 613.524 920.28 605 920L621 905L624 912C632.197 910.589 636.066 905.163 643.043 902.047C661.472 893.816 675.928 896.758 691.375 907.999C698.007 912.826 702.104 912.963 704 922L721 911L716.422 897.015L731.892 868L726.012 846L721.362 828.638L705 819L704 819L694.911 826.932L675.039 827.108L664.066 834.789L656.787 827.815L641 821C637.709 839.451 621.375 827.342 611 823C610.994 832.253 607.666 834.7 603.085 842.089C601.683 844.35 601.226 848.572 598.596 849.824C595.701 851.202 582.428 844.117 580.133 841.815C574.188 835.85 571.967 820.998 569 813C557.763 816.511 551.913 801.366 552.989 792C554.082 782.495 554.795 772.639 559.532 764.04C561.661 760.177 565.76 758.131 567.437 753.96C571.333 744.265 568.903 735.103 578 728C573.177 719.483 572 713.759 572 704C560.953 707.496 551.289 715.204 540 718.279C533.045 720.174 527.868 713.325 521 713.529C514.288 713.727 508.211 720.618 502.896 723.919C491.214 731.174 472.626 725.95 471 744z"/>
</svg>
