<?xml version="1.0" standalone="yes"?>
<svg xmlns="http://www.w3.org/2000/svg" width="936" height="1450">
<path class = "AkitaD" onclick = "Akita()" id = "Akita" style = "fill:#010101; stroke:none;" d="M0 0L0 1450L936 1450L936 0L0 0z"/>
<path class = "AkitaD" onclick = "Akita()" id = "Akita" style = "fill:#ffffff; stroke:none;" d="M291 589L290 590C291.359 598.154 282.564 595.052 281.422 601.214C280.119 608.247 285.499 621.723 287 629L268 634L273 653C269.389 656.283 271.112 666.447 275 669L275 660L279 662C277.022 670.612 284.401 676.876 287 685L286 685L278 675L276.867 683.791L282.728 696L286 729L301 731L301 732L286 732C290.796 757.742 285.215 785.046 285 811C296.15 811.262 295.039 817.952 301 825L302 825C313.322 817.527 318.259 827.421 327.285 832.864C332.156 835.801 336.977 833.223 341.787 834.773C351.591 837.932 353.568 854.461 351 862C355.091 863.692 364.629 860.828 367.154 863.643C373.64 870.875 357.479 883.351 367.148 891.351C375.37 898.154 393.529 894.628 399 904C391.625 905.2 387.767 914.718 394.43 920.031C401.315 925.52 404.166 934.176 413 937.597C427.432 943.187 434.184 930.885 428.247 919C426.122 914.747 423.886 910.784 421 907L426 905C424.606 900.159 423.039 891.289 419.991 887.418C417.363 884.081 412.662 883.854 410.457 879.895C403.989 868.284 411.372 859.753 395 856C399.721 850.367 399.628 842.509 403.302 836.105C405.233 832.74 409.157 831.802 411.397 828.787C413.752 825.617 412.531 821.366 414.599 818C421.749 806.359 434.633 788.233 432 774C424.202 774.525 422.204 771.734 423 764L434.985 762.349L450 765C449.436 760.564 447.035 754.474 448.042 750.09C450.225 740.595 463.221 740.73 470 743C473.953 727.361 487.829 729.52 499.985 724.677C506.958 721.898 512.319 714.624 520 713.029C526.241 711.732 531.024 718.134 537 718.231C547.663 718.404 569.5 706.245 576.581 698.624C585.151 689.401 584.034 671.128 576.911 661.39C574.827 658.541 570.863 657.868 569.027 654.787C567.026 651.428 567.793 647.431 565.196 644.133C562.187 640.314 557.664 639.584 555.324 634.982C552.66 629.741 551.498 621.457 545.945 618.457C539.772 615.121 533.924 620.295 528 617.852C518.761 614.041 506.44 605.567 496 606.575C479.677 608.151 477.638 624.541 468.532 633.772C463.68 638.692 454.422 639.191 448 641C449.378 636.916 450.999 633.383 450.086 629C449.19 624.7 448.818 617.947 446.543 614.228C438.892 601.723 419.15 618.425 408.213 611.972C398.439 606.205 395.483 585.752 384 582.693C376.571 580.714 376.311 588.556 373.147 592.945C370.493 596.626 366.367 598.118 362 598.696C356.964 599.362 352.806 596.277 348 596.599C343.092 596.929 339.221 599.586 334.015 598.857C330.54 598.37 327.623 595.093 324.029 595.623C318.002 596.51 312.681 606.75 305.425 605.273C298.236 603.81 297.811 592.16 291 589z"/>
</svg>
