<?xml version="1.0" standalone="yes"?>
<svg xmlns="http://www.w3.org/2000/svg" width="936" height="1450">
<path class = "AkitaD" onclick = "Mitane()" id = "Mitane" style = "fill:#010101; stroke:none;" d="M0 0L0 1450L936 1450L936 0L0 0z"/>
<path class = "AkitaD" onclick = "Mitane()" id = "Mitane" style = "fill:#ffffff; stroke:none;" d="M272 334L262 356C256.371 356.759 249.647 360.514 244 359.338C238.81 358.257 234.839 352.029 229.044 354.183C223.805 356.13 223.135 362.372 221.656 367C217.613 379.655 210.492 391.231 207 404C214.906 408.833 218.761 409.312 227 405C225.942 403.45 224.175 401.493 224.39 399.462C224.651 396.984 227.679 395.627 228.995 393.74C231.658 389.919 230.083 381.438 237.005 382.364C242.865 383.149 246.334 389.569 251.015 392.532C261.94 399.447 275.612 401.391 284.786 411.171C297.409 424.626 292.637 449.234 293.816 466C294.107 470.15 291.45 475.167 293.694 478.957C300.861 491.061 314.314 483.339 324 482L322 475C333.582 473.134 341.385 458.003 352.004 455.782C355.654 455.018 358.456 457.656 362 457.647C369.07 457.629 376.841 454.048 384 455.024C388.767 455.673 394.551 462.545 399.363 458.393C407.336 451.512 405.538 430.019 400.076 422.213C397.68 418.787 393.19 417.781 390.34 414.787C387.672 411.984 387.07 406.064 383.697 404.237C380.665 402.595 373.775 405.254 370 405L367 389C353.283 376.812 364.12 367.668 368 354C363.394 353.962 358.494 352.096 354 352.563C345.053 353.493 336.214 356.43 327.001 353.297C320.41 351.056 319.585 344.663 314.787 340.638C309.63 336.312 297.493 333.617 291 331.714C284.796 329.897 279.018 335.384 272 334z"/>
</svg>
