<?xml version="1.0" standalone="yes"?>
<svg xmlns="http://www.w3.org/2000/svg" width="936" height="1450">
<path class = "AkitaD" onclick = "Ogata()" id = "Ogata" style = "fill:#010101; stroke:none;" d="M0 0L0 1450L936 1450L936 0L0 0z"/>
<path class = "AkitaD" onclick = "Ogata()" id = "Ogata" style = "fill:#ffffff; stroke:none;" d="M236.275 385.762C230.396 388.316 232.088 402.672 227.581 407.674C225.072 410.459 221.53 411.895 219.529 415.184C216.341 420.426 215.22 426.992 211.362 431.826C207.759 436.34 200.986 438.647 200.163 445C199.127 452.994 208.777 457.703 207.227 465C204.883 476.036 194.493 487.591 196.485 499.985C197.341 505.314 203.083 508.082 206.985 511.014C217.103 518.615 227.824 520.863 240 524.424C244.846 525.842 249.947 528.411 255 526.609C284.732 516.002 289.521 481.362 288.043 454C287.426 442.565 289.814 433.724 283.586 423.039C279.564 416.138 271.553 412.101 265 408.074C259.358 404.606 249.879 397.623 245.637 392.772C243.143 389.919 241.379 383.543 236.275 385.762z"/>
</svg>
