<?xml version="1.0" standalone="yes"?>
<svg xmlns="http://www.w3.org/2000/svg" width="936" height="1450">
<path class = "AkitaD" onclick = "Kosaka()" id = "Kosaka" style = "fill:#47714d; stroke:none;" d="M0 0L0 1450L936 1450L936 0L0 0z"/>
<path class = "AkitaD" onclick = "Kosaka()" id = "Kosaka" style = "fill:#ffffff; stroke:none;" d="M791 30C788.019 34.5817 782.491 37.7885 780.703 43.0039C778.434 49.6229 777.813 58.9575 776.378 66C775.816 68.7578 776.471 73.2604 773.566 74.9136C770.341 76.7488 766.723 72.6361 764 71.429C760.075 69.6886 754.12 69.8086 750.228 71.7277C741.441 76.0593 742.08 87.3683 729 84C729.07 92.4017 731.338 102.237 721 105C716.462 89.6865 693.657 93.1797 690.303 108C688.04 118.001 690.047 131.996 695.214 140.61C699.797 148.25 709.128 151.221 707 162L719 178C715.068 188.332 714.571 204.44 723.563 213.437C726.391 216.266 732.313 217.488 736 219C738.685 212.986 741.972 207.144 746 216C757.812 209.302 754 195.239 754 183L759 189C767.488 185.67 764.392 171.535 766 163L761 163L760 158C772.515 153.74 784.168 144.445 785.732 130C786.119 126.415 783.652 123.495 783.757 120.001C783.887 115.654 791.349 99.2483 795.051 96.9128C802.511 92.2061 804.321 109.077 810.171 111.883C819.205 116.217 829.002 108.398 837 106.419C844.025 104.681 850.179 106.768 854 99C848.471 97.0004 839.827 96.5314 834.414 99.51C829.239 102.358 821.461 109.361 814.684 104.091C810.621 100.931 811.414 95.5714 809.167 91.4244C806.758 86.9786 802.859 82.7727 801.148 78C799.944 74.639 801.652 71.4434 800.076 68C796.422 60.0165 789.15 50.3567 795.024 41.3904C801.93 30.8484 823.252 31.1815 834 32C825.729 14.1725 804.393 33.9587 791 30z"/>
</svg>
