<?xml version="1.0" standalone="yes"?>
<svg xmlns="http://www.w3.org/2000/svg" width="936" height="1450">
<path class = "AkitaD" onclick = "Nikaho()" id = "Nikaho" style = "fill:#010101; stroke:none;" d="M0 0L0 1450L936 1450L936 0L0 0z"/>
<path class = "AkitaD" onclick = "Nikaho()" id = "Nikaho" style = "fill:#ffffff; stroke:none;" d="M189 1107L179.74 1129L174.423 1141L182.342 1162L175.03 1186.99L165.953 1197.43L165.683 1207.96L160 1219C175.605 1219 189.639 1221.87 205 1223.52C208.758 1223.92 212.252 1222.29 216 1222.76C222.297 1223.54 229.856 1228.73 235.996 1228.11C243.035 1227.39 245.169 1217.34 251.039 1214.32C260.309 1209.54 274.92 1212.49 283.362 1206.01C288.789 1201.85 287.545 1186.19 283.347 1181.53C280.65 1178.54 276.153 1178.01 273.696 1174.78C271.399 1171.75 272.924 1168.06 271 1165L271 1164C279.88 1157.44 276.762 1149.45 278.888 1140C279.846 1135.74 282.471 1130.27 280.592 1126C277.611 1119.23 269.856 1115.54 266.369 1109C264.28 1105.08 267.643 1100.8 264.639 1097.34C261.652 1093.91 256.873 1094.21 253.17 1092.1C244.059 1086.94 240.378 1077.96 244 1068C240.541 1065.44 237.449 1056.73 233.827 1055.83C230.022 1054.89 227.788 1061.7 226.072 1063.98C217.79 1075.03 205.556 1068.98 196.376 1075.73C189.218 1080.99 179.533 1100.56 189 1107z"/>
</svg>
