<?xml version="1.0" standalone="yes"?>
<svg xmlns="http://www.w3.org/2000/svg" width="936" height="1450">
<path class = "AkitaD" onclick = "Ikawa()" id = "Ikawa" style = "fill:#010101; stroke:none;" d="M0 0L0 1450L936 1450L936 0L0 0z"/>
<path class = "AkitaD" onclick = "Ikawa()" id = "Ikawa" style = "fill:#ffffff; stroke:none;" d="M279 528C281.965 535.143 281.964 539.415 281 547C299.347 545.173 308.726 547.377 314.302 566.995C315.077 569.721 317.359 573.165 320 571L321 571L331 580C344.363 578.431 351.042 589.19 364 589.606C373.637 589.915 377.294 579.67 387 583L385.397 570.514L370.043 566.736L362 557L343 559L330 535C324.865 534.61 322.67 530.792 317.957 529.508C313.824 528.381 310.132 530.175 306 529.8C296.316 528.921 288.495 523.612 279 528z"/>
</svg>
