<?xml version="1.0" standalone="yes"?>
<svg xmlns="http://www.w3.org/2000/svg" width="936" height="1450">
<path class = "AkitaD" onclick = "Noshiro()" id = "Noshiro" style = "fill:#010101; stroke:none;" d="M0 0L0 1450L936 1450L936 0L0 0z"/>
<path class = "AkitaD" onclick = "Noshiro()" id = "Noshiro" style = "fill:#ffffff; stroke:none;" d="M307 249C304.923 243.226 301.307 243.114 296 245C293.154 233.162 287.462 234.579 278 232.323C270.383 230.507 265.555 227.332 265 238L254 237C251.915 243.158 245.752 262.719 249.117 268.525C254.389 277.622 278.437 271.343 275.533 287.995C275.156 290.158 274.008 292.096 273 294C271.791 290.486 272.462 285.307 270.243 282.39C263.473 273.493 246.931 277.728 242.124 286.17C239.24 291.234 240.814 297.503 239.289 303C234.549 320.089 229.99 337.763 226 355C234.476 351.128 237.042 358.206 245 358.721C259.746 359.675 267.062 344.782 272 333C279.259 335.019 283.797 329.479 290 330.808C296.668 332.236 309.342 335.784 314.787 339.966C319.142 343.311 319.745 349.485 325.043 351.911C334.573 356.273 345.492 352.195 355 351.853C359.576 351.689 364.332 352.997 369 353C366.148 363.047 351.521 381.467 368 388L367 394C371.492 396.543 371.323 399.188 371 404C374.949 404.687 381.492 401.77 384.57 403.916C391.104 408.47 389.489 419.677 400.895 419.639C404.377 419.627 406.312 415.575 407.899 412.999C413.083 404.586 413.73 391.279 407 384L410 383C408.866 378.098 406.072 373.034 405.843 368C405.277 355.549 411.237 342.399 412.561 330C413.205 323.969 409.181 317.764 411.879 312.015C413.853 307.809 417.442 307.249 420.61 304.441C427.369 298.447 427.587 292.852 438 292C435.502 286.813 431.514 285.455 426 285L428.698 270L425 255L410 256L409 253C401.093 253.813 397.002 251.31 394 244L389 245L389 235L385 235L388 214L384 216C384.532 209.194 384.793 205.242 377 204C376.996 197.225 374.192 192.422 373.213 186C372.285 179.911 375.261 172.734 373.269 167.001C371.566 162.1 366.57 158.757 363.139 155.104C360.277 152.058 349.816 140.061 345.858 144.478C343.171 147.476 343.518 153.309 342.073 157C336.708 170.711 333.243 181.403 333.275 196C333.303 208.42 338.291 221.686 332.351 233.981C329.26 240.379 313.286 244.485 307 249z"/>
<path class = "AkitaD" onclick = "Noshiro()" id = "Noshiro" style = "fill:#010101; stroke:none;" d="M245 342C258.783 347.155 252.03 318.985 246.595 335.996C245.962 337.977 245.464 339.976 245 342z"/>
</svg>
