<?xml version="1.0" standalone="yes"?>
<svg xmlns="http://www.w3.org/2000/svg" width="936" height="1450">
<path class = "AkitaD" onclick = "Higashinaruse()" id = "Higashinaruse" style = "fill:#010101; stroke:none;" d="M0 0L0 1450L936 1450L936 0L0 0z"/>
<path class = "AkitaD" onclick = "Higashinaruse()" id = "Higashinaruse" style = "fill:#ffffff; stroke:none;" d="M665 1193C671.72 1195.72 675.898 1195.68 681 1190L682 1190C686.125 1194.29 694.008 1196 696.396 1202.09C697.942 1206.04 695.221 1209.19 695.178 1213C695.118 1218.3 698.411 1223.55 698.4 1229C698.379 1239.57 693.733 1250.99 696.303 1261.83C698.218 1269.91 707.804 1272.93 709.682 1280.04C713.087 1292.92 701.434 1309.12 718 1314C712.63 1334.75 737.478 1339.21 741 1356L755 1356C752.4 1347.8 746.043 1329.42 748.694 1321.09C750.607 1315.08 759.369 1309.04 762.688 1303C767.08 1295.01 772.58 1284.1 773.872 1275C774.589 1269.95 772.765 1263.48 773 1258L760 1253C757.687 1253.27 755.332 1253.74 752.998 1253.44C732.318 1250.83 749.541 1226.87 750.003 1217.04C750.27 1211.35 741.341 1209.31 740.755 1203.93C740.405 1200.71 744.699 1197.55 746.204 1194.96C752.869 1183.49 760.207 1173.6 774 1170C771.121 1154.05 752.736 1161.14 749 1145C745.356 1147.59 742.232 1152.97 737.961 1154.31C733.172 1155.81 727.786 1152.18 723 1154.1C717.377 1156.36 713.783 1161.71 707 1160.76C698.287 1159.54 693.492 1150.4 686 1146.85C682.063 1144.99 679.038 1146.53 675 1146.65C672.906 1146.71 670.417 1145.83 668.513 1147.07C666.017 1148.68 666.281 1152.37 664.272 1154.41C661.979 1156.75 657.131 1155.91 655.836 1159.3C653.857 1164.49 661.013 1168.27 663.201 1172.04C667.627 1179.67 667.293 1184.94 665 1193z"/>
</svg>
