<?xml version="1.0" standalone="yes"?>
<svg xmlns="http://www.w3.org/2000/svg" width="936" height="1450">
<path class = "AkitaD" onclick = "Ugo()" id = "Ugo" style = "fill:#010101; stroke:none;" d="M0 0L0 1450L936 1450L936 0L0 0z"/>
<path class = "AkitaD" onclick = "Ugo()" id = "Ugo" style = "fill:#ffffff; stroke:none;" d="M465 1110L464 1110C458.46 1113.58 448.62 1110.09 442 1111.76C434.213 1113.73 424.867 1115.79 418.001 1120.05C414.23 1122.39 411.873 1127.05 407.91 1128.88C402.913 1131.2 396.878 1126.01 392.164 1128.21C387.425 1130.42 398.353 1150.19 401 1154C412.93 1151.66 411.918 1162.26 418.059 1169C421.505 1172.78 425.942 1176.21 428.066 1181C429.757 1184.81 429.344 1189.18 431.442 1192.91C434.391 1198.15 439.833 1201.57 442.736 1207C447.225 1215.4 449.316 1225.5 453.6 1233.67C455.136 1236.6 460.288 1235.41 462.957 1237.02C467.985 1240.07 468.967 1245.69 470 1251L487 1237.79L504.701 1227L512.858 1208.18L523.147 1197.91L530.419 1179.6L547 1173L538.97 1159L537.06 1141L525.256 1126.07L523.126 1117.63L512 1110C515.042 1101.06 506.656 1099.35 500 1099.82C486.846 1100.74 482.702 1098.84 472.406 1108.72C469.949 1111.08 468.006 1110.97 465 1110z"/>
</svg>
