<?xml version="1.0" standalone="yes"?>
<svg xmlns="http://www.w3.org/2000/svg" width="936" height="1450">
<path class = "AkitaD" onclick = "Kazuno()" id = "Kazuno" style = "fill:#010101; stroke:none;" d="M0 0L0 1450L936 1450L936 0L0 0z"/>
<path class = "AkitaD" onclick = "Kazuno()" id = "Kazuno" style = "fill:#ffffff; stroke:none;" d="M864 92C857.433 104.135 846.231 103.963 835 107.702C827.146 110.317 821.041 115.169 812.015 112.972C804.892 111.239 801.622 92.3035 794.278 97.8981C791.385 100.102 784.575 116.335 784.438 120.004C784.305 123.529 786.967 126.453 786.474 130C784.554 143.815 773.648 154.385 761 158L767 162C764.969 172.781 767.3 183.702 759 191L755 184L754.258 209.942L747 218C742.339 210.228 739.002 211.381 737 220L722 215C716.15 227.228 724.593 243.954 721.826 256.999C720.553 262.998 711.745 265.292 712.527 271.015C713.914 281.166 724.161 289.321 726 300C720.252 299.984 707.082 293.692 706.109 302.019C705.159 310.144 706.703 323.53 714.595 328.027C718.656 330.342 733.988 330.033 733.929 336.059C733.894 339.594 730.587 347.885 728.272 350.571C726.341 352.813 722.78 353.145 721.689 356.144C719.314 362.674 716.499 371.829 716.093 379C715.783 384.493 718.108 389.531 716.83 395C713.321 410.02 700.962 419.774 708.417 436C715.563 451.554 730.356 463.011 738.564 478C740.883 482.234 741.82 493.265 746.303 495.397C759.174 501.517 769.458 485.289 781 485.72C793.688 486.193 798.873 500.228 809 504C798.872 479.306 807.453 453.154 806.871 428C806.683 419.874 800.487 408.604 802.411 401C805.014 390.713 817.685 387.718 821.647 378C826.351 366.462 817.31 360.204 817.438 350C817.535 342.309 823.929 335.445 824 327C818.647 326.826 809.165 322.098 812.904 315.174C816.406 308.689 825.761 307.103 829.852 300.907C835.693 292.059 833.27 281.07 843.001 273.39C848.666 268.919 857.481 270.07 862.397 265.987C864.817 263.977 863.768 259.741 864.573 257.015C865.813 252.811 869.288 250.772 873 249C871.398 245.569 868.467 241.934 868.542 238C868.651 232.348 873.378 227.747 873.59 222.015C873.787 216.701 867.234 215.134 867.356 209.996C867.468 205.273 872.694 200.479 874.3 196C878.843 183.337 879.802 174.649 878 162C882.508 162.695 887.37 168.782 891.812 167.338C897.898 165.359 897.975 154.067 897.999 149C898.086 131.09 888.577 113.661 892 96L864 92z"/>
</svg>
