<?xml version="1.0" standalone="yes"?>
<svg xmlns="http://www.w3.org/2000/svg" width="1303" height="1450">
<path class = "AkitaD" onclick = "Kesennuma()" id = "Kesennuma" style = "fill:#010101; stroke:none;" d="M0 0L0 1450L1303 1450L1303 0L0 0z"/>
<path class = "AkitaD" onclick = "Kesennuma()" id = "Kesennuma" style = "fill:#ffffff; stroke:none;" d="M1195 243L1203 245L1205 241L1192 238C1191.34 229.749 1185.18 220.899 1185.75 213.015C1186.63 200.921 1194.05 188.729 1192.94 176C1191.99 165.07 1181.79 161.544 1185 149C1192.2 152.276 1188.7 155.786 1190.66 161.961C1192.46 167.656 1202.24 181.415 1208 183L1210 179L1214 180C1216.68 174.84 1220.05 171.449 1226 171L1224 168L1224 167L1235 159L1232 174L1237 174C1235.95 179.683 1238.05 183.53 1244 184C1239.06 200.044 1254.46 203.538 1264 211L1265 211C1271.38 203.75 1263.31 190.699 1260.24 183C1258.45 178.514 1261.3 174.874 1259.93 170.925C1257.99 165.338 1251.14 163.314 1248.65 157.985C1245.86 152.005 1248.03 145.784 1245.99 140C1243.91 134.071 1238.76 130.703 1235 126L1243 114C1236.81 111.211 1234.51 106.038 1232 100L1238 101C1237.85 88.7183 1229.98 84.15 1221 78.3156C1216.11 75.1412 1212.3 70.4852 1207 67.9159C1198.85 63.9598 1190.4 64.4152 1182 61.8912C1176.54 60.2493 1172.9 55.4982 1167 55.0548C1157.89 54.3705 1148.76 58.0769 1140 57.3202C1132.73 56.6925 1131.28 50.3291 1125.79 47.5139C1116.93 42.9742 1103.63 50.1268 1100.59 59C1095.94 72.5538 1105.15 90.3331 1105.79 104C1106.16 111.9 1100.54 119.022 1101.12 127C1101.54 132.887 1107.38 138.032 1105.54 144C1102.34 154.412 1093.33 160.884 1086.39 168.439C1083.6 171.481 1082.86 175.618 1080.35 178.826C1074 186.949 1065.72 192.228 1071.65 203.826C1074.08 208.567 1078.87 208.633 1082.62 211.573C1089.18 216.708 1094.12 222.646 1102 226.201C1106.54 228.25 1111.58 227.36 1116 229.558C1121.06 232.071 1128.84 240.514 1134.95 238.697C1144.69 235.795 1141.19 216.681 1155 216.84C1169.39 217.007 1170.77 234.551 1179.17 242.826C1184.57 248.144 1191.31 251.119 1195 243M1213 203L1207.06 206.148L1211.33 215L1221 239L1234 230L1223.08 216.624L1222 203C1232.91 201.251 1232.67 184.049 1221.92 181.694C1218.34 180.909 1215.09 185.21 1212 186.454C1208.12 188.016 1202.23 189.032 1204.61 194.87C1206.09 198.502 1210.92 199.518 1213 203z"/>
</svg>
