<?xml version="1.0" standalone="yes"?>
<svg xmlns="http://www.w3.org/2000/svg" width="936" height="1450">
<path class = "AkitaD" onclick = "Katagami()" id = "Katagami" style = "fill:#010101; stroke:none;" d="M0 0L0 1450L936 1450L936 0L0 0z"/>
<path class = "AkitaD" onclick = "Katagami()" id = "Katagami" style = "fill:#ffffff; stroke:none;" d="M226 535L219.241 555L228 566L225 567L216 556L215 556L212 559L212 560L224.91 569.39L245.547 592L268 633L286 628C284.77 622.036 278.623 605.43 281.132 600.214C282.575 597.214 286.19 597.145 288.387 595.081C290.153 593.421 289.698 588.349 293.276 589.735C299.755 592.245 298.055 602.713 305.015 604.554C312.207 606.456 317.953 596.229 324.011 595.086C327.276 594.47 329.963 597.393 333.09 597.857C338.532 598.664 342.828 596.384 348 596.012C358.921 595.227 369.662 602.31 375 588C367.241 588.794 361.967 591.166 354.015 588.467C345.511 585.581 341.286 577.08 331 582C329.267 577.011 324.342 571.637 319 575C313.657 567.286 312.739 556.851 305.699 550.39C300.1 545.253 284.675 543.035 279.769 550.569C276.391 555.754 276.262 566.889 276 573C263.303 567.674 261.845 554.734 253.197 545.51C247.593 539.533 233.644 537.487 226 535z"/>
</svg>
