<?xml version="1.0" standalone="yes"?>
<svg xmlns="http://www.w3.org/2000/svg" width="936" height="1450">
<path class = "AkitaD" onclick = "Odate()" id = "Odate" style = "fill:#010101; stroke:none;" d="M0 0L0 1450L936 1450L936 0L0 0z"/>
<path class = "AkitaD" onclick = "Odate()" id = "Odate" style = "fill:#ffffff; stroke:none;" d="M464 84C468.157 99.7117 462.17 117.026 465.824 132.995C468.264 143.656 479.725 142.603 477 156C490.801 162.454 488.837 169.648 492.159 182C493.87 188.365 496.94 193.233 497 200C505.007 202.371 506.911 214.383 511.135 220.787C512.617 223.034 516.634 224.395 517.083 227.174C517.823 231.767 509.755 234.655 514.361 239.57C521.277 246.951 539.771 235.927 540 250L554.397 259.213L556.318 272.61L565.058 283.001L563.048 298L570.612 309.274L569.991 316.911L572 331L573 332L589 334.273L600 326C603.116 333.649 602.999 341.009 610.375 346.157C619.703 352.668 631.609 349.664 639.297 360.17C647.729 371.693 636.71 384.975 652 394L665 385C667.977 389.854 672.293 388.285 676.867 390.653C683.828 394.257 682.296 403.084 692 396L704 420C719.894 400.836 713.771 377.905 720.911 356.109C722.964 349.842 735.917 344.811 733.184 335.318C731.82 330.582 717.05 330.003 713 330C711.092 323.8 697.058 302.547 708.228 297.201C712.124 295.337 720.446 298.987 725 299L711.888 271.005L721.527 253L719.599 221L721.198 212L714.248 189L718 179L706 162C709.776 150.719 698.171 148.079 694.344 139.895C689.227 128.953 689 119.023 689 107L662 117L659.142 102.394L647 97.2314L635 88C630.128 98.9449 620.811 91.1892 613.36 97.5887C605.403 104.422 624.944 113.582 615.718 119.948C609.751 124.064 594.096 112.234 591.547 106.892C589.629 102.873 593.818 97.0634 590.968 93.6427C588.692 90.9095 581.546 93.8331 578 91.8518C570.597 87.7158 566.58 79.4352 559.79 75.4568C552.05 70.9219 543.798 73.786 536 76C533.444 69.85 532.622 56.2052 528.972 51.6034C525.277 46.9443 517.405 53.0024 513.004 52.7469C507.928 52.4524 505.918 46.553 501.012 45.8812C496.512 45.2651 495.749 50.0878 492.61 51.9584C488.02 54.6945 483.107 50.9907 478.468 55.3943C470.516 62.9423 473.596 78.9796 464 84z"/>
</svg>
