<?xml version="1.0" standalone="yes"?>
<svg xmlns="http://www.w3.org/2000/svg" width="936" height="1450">
<path class = "AkitaD" onclick = "Misato()" id = "Misato" style = "fill:#47714d; stroke:none;" d="M0 0L0 1450L936 1450L936 0L0 0z"/>
<path class = "AkitaD" onclick = "Misato()" id = "Misato" style = "fill:#ffffff; stroke:none;" d="M624 914L620 906L607 919C613.877 921.012 612.238 928.968 613 935C603.792 935.809 571.091 953.64 592 960L580 970L580 983L573 979L571 983L566 980C561.22 990.976 570.178 997.268 576.61 1004.3C579.018 1006.93 580.044 1011.1 583.213 1012.97C587.597 1015.57 594.114 1016.58 599 1019L597 1012L601 1013L602 1010L603 1010L605 1014C607.491 1010.5 606.991 1004.62 610.433 1001.94C617.733 996.247 627.812 998.491 636 997.417C639.745 996.925 645.331 994.894 648.957 996.317C652.495 997.706 654.193 1001.95 656 1005C667.542 1002.46 675.913 989.594 679.302 979C680.212 976.156 679.514 972.828 681.028 970.185C684.203 964.639 691.494 965.264 694.171 958.981C698.033 949.916 691.052 943.789 693.458 936C695.375 929.792 703.547 925.749 702.512 918.997C701.404 911.761 696.103 912.082 691.209 908.367C684.014 902.904 677.364 898.143 668 896.847C653.242 894.805 635.95 907.199 624 914z"/>
</svg>
