<?xml version="1.0" standalone="yes"?>
<svg xmlns="http://www.w3.org/2000/svg" width="936" height="1450">
<path class = "AkitaD" onclick = "Fujisato()" id = "Fujisato" style = "fill:#010101; stroke:none;" d="M0 0L0 1450L936 1450L936 0L0 0z"/>
<path class = "AkitaD" onclick = "Fujisato()" id = "Fujisato" style = "fill:#ffffff; stroke:none;" d="M309 103C313.606 105.521 315.466 108.823 316 114L336.039 116.927L345.643 117.218L352 130L349 142C356.268 146.305 372.822 160.412 374.481 169C375.807 175.864 372.579 183.028 374.965 190C376.18 193.548 376.979 198.319 378.6 201.586C381.332 207.095 385.695 206.603 385 214L388 213C390.101 219.548 381.53 232.528 390 234L390 244L395 243C397.273 253.391 404.006 249.545 410 255C415.555 254.207 421.615 255.409 426.896 252.995C430.082 251.538 431.751 248.206 435.043 246.893C438.41 245.55 443.385 247.214 446.272 244.972C448.671 243.111 449.109 238.599 450.519 236C457.567 222.999 455.769 215.872 457.563 202C458.429 195.312 462.597 186.831 464.318 180C467.083 169.023 477.987 162.078 477.471 149C477.14 140.586 465.893 139.938 464.655 131C463.416 122.052 463.153 109.932 463.648 101C463.888 96.6694 466.909 90.3337 463.258 86.6034C459.846 83.118 454.064 86.2075 450 85.5525C443.097 84.4397 438.708 79.3715 431 80.2932C423.432 81.1982 413.164 83.024 406 85.5479C400.953 87.3259 396.603 91.0278 391 90.3411C382.456 89.2938 373.217 84.2544 365 84.098C357.662 83.9584 350.438 87.9921 343 87.2029C335.568 86.4144 329.327 87.8149 322 87.8209C319.31 87.8231 315.888 86.4324 313.434 88.0424C309.884 90.3706 311.137 99.0557 309 103z"/>
</svg>
