<?xml version="1.0" standalone="yes"?>
<svg xmlns="http://www.w3.org/2000/svg" width="936" height="1450">
<path class = "AkitaD" onclick = "Semboku()" id = "Semboku" style = "fill:#010101; stroke:none;" d="M0 0L0 1450L936 1450L936 0L0 0z"/>
<path class = "AkitaD" onclick = "Semboku()" id = "Semboku" style = "fill:#ffffff; stroke:none;" d="M689 495C690.575 503.56 680.986 514.868 673.999 519.146C670.945 521.016 667.286 521.222 664.971 524.228C660.964 529.429 664.477 533.462 664.88 539C665.495 547.431 661.718 556.382 655 561.39C649.511 565.481 639.946 565.333 634.089 561.397C631.299 559.522 629.581 555.956 625.985 555.426C620.086 554.557 615.544 561.329 611 563.912C607.988 565.625 604.044 565.704 601.303 567.854C594.073 573.526 596.909 585.958 591.992 592.775C589.049 596.855 583.043 597.063 582.529 603.004C581.878 610.52 587.679 619.272 584.397 626.786C581.015 634.526 568.163 630.957 564.047 636.728C561.38 640.466 567.614 646.41 568.586 649.996C570.405 656.71 574.448 656.66 577.911 662.105C585.234 673.617 586.412 695.508 572 702C573.674 711.016 571.506 720.254 579 727L579 728C569.432 733.668 571.988 743.822 568.437 752.996C566.649 757.614 562.249 759.817 560.055 764.093C555.614 772.747 554.304 783.444 553.569 793C552.786 803.168 558.557 816.068 570 812C571.082 818.933 575.41 836.643 580.279 841.671C582.483 843.947 594.873 850.117 597.812 849.248C600.519 848.449 601.28 844.104 602.698 842.039C607.933 834.415 610 831.562 610 822L637 831L641 819L656.787 827.074L667 835C675.243 821.86 684.135 825.266 697 827L704 818L705 818L719.895 826.97L727 839C738.911 835.547 742.412 830.211 749.637 821.105C754.265 815.272 757.971 815.266 758 807C775.97 804.717 773.399 796.665 777.637 782C779.476 775.635 784.774 770.631 785.787 764C787.409 753.386 783.88 743.131 788 733L777.157 717.278L767.532 710.775L758 693C762.882 690.967 769.641 688.669 773.196 684.61C776.237 681.138 774.891 676.857 777.028 673.21C778.876 670.056 782.901 669.268 785.012 666.39C787.303 663.266 787.102 659.644 790.101 656.745C794.837 652.168 805.029 642.332 801.145 635.133C796.923 627.307 781.104 626.538 774 622.972C760.756 616.326 756.572 590.198 761.893 577.043C764.783 569.901 782.58 561.286 789.895 564.423C793.153 565.82 794.326 569.7 797.213 571.633C803.804 576.044 819.143 576.745 823.678 568.775C827.826 561.488 815.956 541.652 812.425 535C807.455 525.637 811.134 516.246 808.679 507.209C806.216 498.142 791.675 488.714 783 486.677C770.608 483.768 759.767 502.465 746.228 496.397C742.434 494.696 741.899 488.527 740.856 485C738.54 477.169 733.456 466.055 724 465.514C705.274 464.442 707.697 494.936 689 495z"/>
<path class = "AkitaD" onclick = "Semboku()" id = "Semboku" style = "fill:#010101; stroke:none;" d="M670.059 678.832C663.383 681.124 658.834 700.99 661.367 707C667.559 721.69 679.552 725.656 693.981 720.243C699.981 717.992 698.851 711.832 700.854 707C702.423 703.216 706.568 700.439 706.167 696.004C705.108 684.263 679.995 675.42 670.059 678.832z"/>
</svg>
