<?xml version="1.0" standalone="yes"?>
<svg xmlns="http://www.w3.org/2000/svg" width="936" height="1450">
<path class = "AkitaD" onclick = "Yuzawa()" id = "Yuzawa" style = "fill:#010101; stroke:none;" d="M0 0L0 1450L936 1450L936 0L0 0z"/>
<path class = "AkitaD" onclick = "Yuzawa()" id = "Yuzawa" style = "fill:#ffffff; stroke:none;" d="M535 1132L539.638 1159L548 1174C543.953 1174.73 531.787 1178 529.558 1181.32C526.083 1186.49 526.553 1193.71 523.146 1198.91C520.462 1203 514.898 1204.64 512.893 1209.18C510.156 1215.38 509.586 1221.55 504.857 1227C500.001 1232.6 494.675 1232.74 489 1236.53C478.686 1243.43 470.468 1253.21 464.986 1264.01C461.704 1270.48 469.245 1273.11 469.391 1278.99C469.494 1283.1 464.202 1285.05 463.337 1289C461.012 1299.61 477.247 1298.25 483 1298C483 1302.04 482.78 1306.12 484.108 1310C493.605 1337.73 524.458 1317.31 537.865 1338.26C544.53 1348.68 539.585 1359.42 541.683 1370C542.481 1374.03 545.954 1377.23 547.522 1381C548.787 1384.04 549.031 1388.06 551.513 1390.44C554.796 1393.58 560.218 1392.71 563.775 1395.65C567.961 1399.12 567.82 1405.68 574.015 1406.77C581.548 1408.09 589.493 1403.56 596.985 1405.72C606.947 1408.61 605.208 1424.22 614.044 1426.24C619.003 1427.38 624.013 1422.85 628 1420.6C633.65 1417.41 640.943 1415.66 647 1413.15C654.951 1409.85 660.8 1419.44 669 1416.75C674.421 1414.96 682.474 1410.18 686.034 1405.67C689.824 1400.87 690.76 1394.64 696.043 1390.97C703.011 1386.12 711.477 1386.22 717.775 1380.41C721.946 1376.55 722.197 1370.37 726.214 1366.3C729.594 1362.87 737.659 1360.29 739.306 1355.67C742.2 1347.57 732.319 1345.53 728.278 1341.61C721.638 1335.17 714.668 1324.04 717 1315C702.443 1306.04 711.415 1294.89 708.853 1280.09C707.778 1273.88 698.661 1269.22 695.921 1262.83C693.517 1257.23 698.259 1251.78 695.851 1246.06C694.052 1241.78 689.785 1241.61 686 1239.97C677.023 1236.07 667.975 1230.18 658 1232C656.905 1223.91 654.169 1218.37 646 1216C648.848 1202.2 651.599 1178.01 640.298 1166.7C632.574 1158.97 607.102 1153.08 604 1168L600 1167L597 1173L596 1173C593.305 1169.84 589.935 1167.1 588.653 1163C585.881 1154.13 590.144 1147.79 581.455 1140.73C577.539 1137.54 572.425 1140.68 568 1140.06C563.47 1139.43 559.474 1136.08 555 1134.94C548.448 1133.26 541.831 1133.95 535 1132z"/>
</svg>
