<?xml version="1.0" standalone="yes"?>
<svg xmlns="http://www.w3.org/2000/svg" width="936" height="1450">
<path class = "AkitaD" onclick = "Kamikoani()" id = "Kamikoani" style = "fill:#010101; stroke:none;" d="M0 0L0 1450L936 1450L936 0L0 0z"/>
<path class = "AkitaD" onclick = "Kamikoani()" id = "Kamikoani" style = "fill:#ffffff; stroke:none;" d="M455 387L440.09 395.727L429.999 403.347L413.433 404.042L401 421C403.402 429.306 406.314 439.377 404.802 448C403.412 455.923 396.784 464.112 400.603 472.671C402.55 477.034 408.247 478.355 410.346 483.004C412.991 488.858 409.12 494.122 410.398 500C411.918 506.991 419.98 515.778 423.927 521.981C427.452 527.521 434.869 525.528 437.485 531.059C439.293 534.88 437.626 538.14 437.765 542C437.906 545.96 441.324 548.759 441.703 552.576C442.02 555.764 439.936 558.728 440.39 562C441.833 572.415 448.102 586.266 446.52 597C445.843 601.595 442.573 605.678 441 610C451.435 613.633 451.469 629.88 450 639C457.017 638.427 466.213 637.127 470.451 630.956C473.572 626.413 474.112 619.314 478.394 615.727C489.202 606.672 496.315 607.42 509 608L501.858 595.999L497.765 572L491.009 559L489.27 533L480.505 515L481.491 505L479.667 487.043L490.432 473L479.576 446L492.258 420.996L490 386C485.111 387.559 480.856 385.699 476 386.695C467.731 388.391 460.937 397.818 455 387z"/>
</svg>
