<?xml version="1.0" standalone="yes"?>
<svg xmlns="http://www.w3.org/2000/svg" width="1450" height="1361">
<path style="fill:#010101; stroke:none;" d="M0 0L0 1361L1450 1361L1450 0L0 0z"/>
<path style="fill:#ffffff; stroke:none;" d="M592 756L577 755.842L565 747L578 746C574.329 733.255 565.245 734.936 557.637 726.61C551.679 720.089 549.768 709.952 546.547 702C544.473 696.881 540.731 692.269 538.972 687.089C537.595 683.033 541.75 679.802 544.127 676.999C548.837 671.444 555.926 662.159 557.711 655C560.628 643.305 545.44 645.266 540.854 639.581C538.607 636.795 539.268 630.076 535.57 628.708C531.185 627.086 526.272 629.195 521 627C525.653 612.691 515.454 604.658 510 592C503.81 593.281 498.076 597.138 492 598.073C486.68 598.892 481.397 595.67 476.39 599.14C470.776 603.031 470.682 612.416 464.787 615.976C461.356 618.048 456.786 617.015 453.17 618.589C448.819 620.483 446.626 625.558 442.91 628.351C439.697 630.767 435.281 631.374 432.51 634.394C428.688 638.558 429.876 645.505 425.581 649.297C419.526 654.644 410.313 653.726 404.589 660.666C400.762 665.305 401.936 672.071 397.786 677C385.872 691.152 375.773 709.768 371.127 728C369.868 732.94 366.757 739.901 367.873 745C371.345 760.867 391.396 767.813 402.961 776.633C411.387 783.061 418.825 794.989 424.289 804C430.321 813.946 424.501 819.208 424.149 829C423.92 835.364 429.788 839.947 431.178 846C434.994 862.61 427.99 878.642 451.985 880.351C460.349 880.947 461.498 866.964 468.093 863.303C477.836 857.895 489.374 870.112 497.787 863.346C504.649 857.828 514.804 838.554 516.71 830C518.333 822.717 517.69 813.877 520.564 807.004C523.133 800.86 534.214 793.048 539.174 788.185C555.282 772.392 578.694 774.963 592 756z"/>
</svg>
