<?xml version="1.0" standalone="yes"?>
<svg xmlns="http://www.w3.org/2000/svg" width="1450" height="1361">
<path style="fill:#010101; stroke:none;" d="M0 0L0 1361L1450 1361L1450 0L0 0z"/>
<path style="fill:#ffffff; stroke:none;" d="M946 47C940.143 47.2308 937.242 47.4116 934 42L933 42C930.649 47.3291 920.039 53.2103 920.662 58.855C921.338 64.979 936.328 56.66 940 56.3896C946.99 55.8749 952.302 63.1686 958.957 61.1805C966.411 58.954 972.031 49.0095 979 45.1211C983.014 42.8812 988.551 43.9995 993 44C989.496 41.345 985.096 42.174 981 40.7407C969.853 36.8402 949.081 27.8896 946 47M849 119C849.58 111.642 848.652 108.469 845 102C839.349 103.455 828.755 106.62 827.068 113.004C825.898 117.43 829.887 123.913 831.424 128C835.355 138.458 839.165 150.058 841.482 161C842.698 166.744 840.453 173.735 844.148 178.775C848.585 184.827 858.864 182.195 862.347 189.108C866.4 197.15 858.842 200.73 857.789 208C855.655 222.741 868.68 232.409 881 234C881.095 245.49 879.614 255.794 877.276 267C876.199 272.162 872.287 276.585 872.275 282C872.224 304.111 883.39 325.584 889.779 346C892.184 353.685 891.192 362.56 893.994 370C898.082 380.857 906.861 379.185 914.787 384.854C919.238 388.038 920.226 393.678 926.001 395.49C930.358 396.857 944.656 394.886 946.647 399.318C948.81 404.133 943.047 414.941 942 420C949 422.847 967.368 423.304 973.581 418.03C979.751 412.792 981.089 404.876 990.039 401.6C997.399 398.907 1006.91 405.359 1014 407C1016.72 399.534 1016.2 391.575 1021.39 385.005C1024.36 381.245 1033.46 379.762 1034.53 375.852C1036.19 369.747 1036.01 352.113 1027 356C1022.46 340.25 1022.05 327.927 1027.35 312C1029.4 305.853 1038.46 292.723 1037.61 287C1035.87 275.171 1031.71 264.58 1028.85 253C1026.97 245.43 1027.85 237.118 1023.72 230.104C1020.19 224.102 1013.49 214.256 1008.25 209.563C1002.89 204.756 998.15 203.463 995.074 196C990.909 185.895 990.661 171.175 983.861 162.514C980.802 158.617 975.181 161.63 971.951 157.812C966.904 151.846 964.225 140.701 956 139C955.997 134.94 956.507 131.529 953 129L955 125C947.438 123.749 943.084 128.912 943 136C934.33 133.289 936.359 124.483 939 118L933 112L928 113C926.521 108.754 924.406 106.897 920 106L918 124L905 107L905 115C894.924 113.607 895.245 108.435 894 100C883.635 102.282 873.235 92.9137 864.044 97.2484C852.57 102.659 864.628 116.84 849 119z"/>
</svg>
