<?xml version="1.0" standalone="yes"?>
<svg xmlns="http://www.w3.org/2000/svg" width="1450" height="1361">
<path style="fill:#010101; stroke:none;" d="M0 0L0 1361L1450 1361L1450 0L0 0z"/>
<path style="fill:#ffffff; stroke:none;" d="M807 108L809 120L798.985 120.691L787 115C781.781 124.545 771.642 128.745 783 139C779.499 140.014 772.377 142.948 777 147L775 155C771.607 154.037 766.599 151.532 763.305 153.697C758.329 156.967 760.764 161.504 759.191 166C755.468 176.648 748.111 184.758 748 197L740 190L739 190C728.495 198.468 718.01 206.788 708 215.83C704.335 219.141 698.638 222.544 698.318 228C697.669 239.047 707.02 247.44 711 257C700.012 252.555 685.258 257.887 690.634 271.945C692.287 276.268 696.474 275.907 698.86 279.303C704.356 287.126 702.445 291.246 714 288C717.709 300.879 726.112 319.497 736.518 328.298C740.292 331.49 745.8 331.558 749.961 334.086C754.184 336.652 756.36 341.33 760.171 344.363C764.543 347.842 770.243 349.566 775 352.464C790.742 362.052 797.254 371.679 817 368C816.025 360.327 812.071 345.018 814.839 338C817.863 330.338 825.641 324.384 828.741 316.896C833.128 306.298 833.701 295.914 842.104 287.039C854.379 274.075 878.206 266.56 880.786 247C882.647 232.898 874.125 237.26 866.418 231.143C862.329 227.897 858.267 216.058 857.267 211C855.619 202.668 867.373 197.101 861.062 188.279C856.067 181.296 845.121 185.052 841.703 174.999C840.084 170.237 841.519 164.898 840.482 160C838.244 149.429 834.613 138.104 830.807 128C829.057 123.355 827.774 116.934 823.775 113.654C819.996 110.553 811.764 109.501 807 108z"/>
<path style="fill:#010101; stroke:none;" d="M711 257L712 258L711 257z"/>
</svg>
