<?xml version="1.0" standalone="yes"?>
<svg xmlns="http://www.w3.org/2000/svg" width="1450" height="1361">
<path style="fill:#010101; stroke:none;" d="M0 0L0 1361L1450 1361L1450 0L0 0z"/>
<path style="fill:#ffffff; stroke:none;" d="M628 835C624.105 836.842 620.365 840.185 616 840.736C608.798 841.645 602.753 836.513 596 836.677C590.823 836.802 584.022 841.676 579.089 839.096C574.034 836.452 571.571 830.035 566.83 826.854C562.434 823.904 556.071 823.81 551 822.916C542.415 821.402 531.072 815.121 522.228 817.357C517.617 818.524 518.345 827.356 517.204 831C514.405 839.938 505.707 855.695 499.363 862.61C492.754 869.812 483.826 862.934 476 862.39C466.635 861.74 461.153 869.997 458.397 878C455.04 887.747 473.516 904.327 477.741 913C484.667 927.22 482.654 945.313 489.434 958.911C493.673 967.414 505.198 970.352 509.543 979.001C511.629 983.153 510.308 987.711 511.653 992C513.785 998.8 521.379 1005.04 527 1009L527 1010C507.377 1027.03 514.556 1052.71 518.576 1075C521.208 1089.6 517.283 1109.28 525.352 1121.96C528.356 1126.67 533.844 1127.26 537.471 1131.21C541.406 1135.5 543.72 1140.8 548.015 1144.91C558.118 1154.57 569.997 1160.02 581.996 1166.8C589.474 1171.02 592.044 1181.06 599.3 1184.93C601.665 1186.2 604.47 1185.18 607 1185.73C632.986 1191.33 659.671 1174.81 670 1150C667.29 1148.8 662.637 1146.96 662.445 1143.41C662.225 1139.32 667.875 1134.73 669.387 1131C671.862 1124.89 672.745 1115.59 672.725 1109C672.707 1102.72 667.235 1098.24 666.356 1092.29C665.627 1087.33 671.183 1082.68 672.323 1078C673.373 1073.69 670.824 1069.26 671.889 1065C673.205 1059.74 679.521 1057.94 681.397 1052.99C682.738 1049.44 681.822 1045.59 683.414 1042C686.463 1035.13 692.704 1029.35 694.586 1022C697.417 1010.94 695.614 994.141 693.334 983C690.218 967.773 683.034 970.423 672.21 963.976C669.165 962.163 668.099 958.457 664.815 956.854C661.819 955.392 658.038 955.543 655.43 953.272C651.708 950.032 651.28 942.545 650 938L663 936L677 902L669 902C669.34 897.477 671.922 895.08 673.405 891C675.821 884.354 676.234 876.411 679.139 870C682.333 862.951 688.441 856.224 693.039 850.015C695.693 846.433 700.53 844.542 702.682 840.787C707.149 832.993 703.01 824.078 703.29 816.424C703.797 802.554 722.974 797.972 733 798C728.156 784.771 719.658 786.696 708 784.671C685.668 780.793 668.461 782.041 651.638 799.61C648.379 803.013 647.8 808.06 645.032 811.791C638.321 820.834 615.589 823.761 628 835z"/>
</svg>
