<?xml version="1.0" standalone="yes"?>
<svg xmlns="http://www.w3.org/2000/svg" width="1450" height="1361">
<path style="fill:#010101; stroke:none;" d="M0 0L0 1361L1450 1361L1450 0L0 0z"/>
<path style="fill:#ffffff; stroke:none;" d="M769 881L768 881L763 877C758.652 884.299 745.226 888.787 738.954 880.852C732.085 872.159 732.915 865.214 733 855L695 873L692 854C680.645 862.71 678.23 876.088 674.698 889C673.481 893.449 670.362 896.195 670 901L678 901L664 937L651 939C652.128 943.005 652.53 949.402 655.564 952.436C658.018 954.89 661.987 954.677 664.907 956.303C668.029 958.042 669.24 961.872 672.379 963.411C683.943 969.083 691.289 969.12 694.334 984C696.467 994.42 698.667 1011.83 695.302 1022C693.018 1028.91 687.354 1034.38 684.414 1041C682.703 1044.85 683.841 1049.3 681.972 1053C679.778 1057.33 674.144 1059.3 672.693 1064.01C671.42 1068.15 674.009 1072.74 673.192 1077C672.187 1082.24 666.662 1086.49 667.028 1092C667.433 1098.11 673.288 1102.75 673.502 1109C673.723 1115.49 672.72 1125.11 669.951 1131C668.177 1134.77 662.502 1139.43 663.161 1143.9C663.675 1147.37 668.242 1148.84 671 1150C663.53 1162.8 654.736 1175.13 641 1182C633.254 1185.88 624.077 1186.91 616 1190C619.775 1199.08 618.112 1218.51 627.3 1223.68C634.298 1227.62 643.189 1219.29 650 1217.82C660.715 1215.5 672.104 1213.52 683 1212.29C687.613 1211.76 692.644 1213.77 697 1211.86C705.131 1208.28 707.013 1199.6 714.043 1195.37C721.498 1190.87 731.105 1192.74 739 1189.2C753.859 1182.56 763.229 1170.5 777 1162.91C785.917 1157.99 796.896 1159.34 806 1155.01C822.143 1147.34 827.068 1127.2 846 1123.32C853.133 1121.86 864.905 1127 873 1127C873.932 1122.05 873.961 1114.99 878.228 1111.59C881.447 1109.02 886.06 1109.93 888.895 1106.69C896.462 1098.04 899.128 1086.05 900 1075L916 1079L914 1067L905 1066C907.783 1061.91 910.801 1055.55 915.184 1053.03C918.739 1050.98 922.493 1051.53 925.79 1048.52C930.16 1044.53 931.898 1038.41 936.21 1034.38C939.715 1031.1 945.953 1029.5 947.852 1024.79C953.727 1010.23 935.863 983.063 928.648 971C926.639 967.641 922.633 964.793 921.546 961C919.297 953.157 926 939.675 926 931C935.43 934.919 948.836 931.218 948.837 918C948.838 912.581 942.194 909.372 941.318 904C938.549 887.019 953.512 873.534 967 868L967 867C962.595 866.088 956.426 862.808 952 864.042C945.147 865.951 943.024 871.93 935 869.698C924.56 866.794 912.32 860.088 903 854.547C898.604 851.933 894.117 847.5 889 846.458C882.609 845.157 876.993 850.433 871 849.644C861.205 848.354 840.893 832.773 837 824C822.206 827.423 813.648 837.061 801 844.185C794.441 847.88 786.798 846.745 781.638 853.044C778.059 857.414 779.975 861.104 778.517 866C776.721 872.03 772.5 876.011 769 881z"/>
</svg>
