<?xml version="1.0" standalone="yes"?>
<svg xmlns="http://www.w3.org/2000/svg" width="1450" height="1361">
<path style="fill:#010101; stroke:none;" d="M0 0L0 1361L1450 1361L1450 0L0 0z"/>
<path style="fill:#ffffff; stroke:none;" d="M805 472C798.56 472.133 774.89 474.304 773 480L749 483.714L733.318 480.284L726.839 500L698 536L748 526.105L777 531C777.991 507.927 805.996 512.149 823 510C821.085 514.461 822.535 526.429 827.148 529.161C832.214 532.16 837.579 530.113 843 530.518C852.179 531.204 861.039 534.15 870 536L866 528C868.396 528.816 870.675 529.769 873.002 530.762C891.629 538.715 878.471 513.917 882.944 508.059C888.685 500.539 902.807 510.736 902.995 496.999C903.017 495.342 903.027 493.644 902.79 492C902.456 489.684 901.704 487.153 900.467 485.148C897.751 480.745 892.31 482.495 888 481.39C884.327 480.449 880.817 477.832 877 477.603C873.354 477.383 870.444 480.035 867 480.734C861.582 481.834 853.417 478.298 849.001 475.301C836.479 466.802 847.157 459.055 845.513 448C844.719 442.655 839.147 437.154 837 432C828.796 434.369 828.591 438.995 823.581 444.7C815.2 454.243 805.293 457.827 805 472z"/>
</svg>
