<?xml version="1.0" standalone="yes"?>
<svg xmlns="http://www.w3.org/2000/svg" width="1450" height="1361">
<path style="fill:#010101; stroke:none;" d="M0 0L0 1361L1450 1361L1450 0L0 0z"/>
<path style="fill:#ffffff; stroke:none;" d="M998 877C993.647 877.012 988.159 878.669 984 877.421C971.178 873.574 967.04 864.154 953.228 874.969C946.697 880.083 940.08 897.748 942.515 906C943.767 910.245 949.883 913.912 949.492 918.424C948.477 930.141 936.408 935.879 927 932C926.994 940.941 920.246 952.658 921.929 961C922.777 965.205 927.487 968.387 929.648 972C936.768 983.903 953.014 1008.57 949.133 1022.98C947.549 1028.87 940.967 1030.11 938 1035C948.118 1035.81 960.987 1039.86 971 1036.41C981.874 1032.67 990.712 1019.36 1002 1017.11C1023.9 1012.74 1059.13 1021.75 1074.64 1000.91C1078.17 996.167 1073.55 990.807 1072.35 986C1071.4 982.229 1071.86 973.826 1072.73 970C1073.88 965.018 1079.8 952.538 1082.85 948.213C1084.37 946.073 1087.32 945.049 1088.38 942.61C1090.52 937.691 1086.47 931.233 1088.02 926C1090.05 919.19 1096.44 913.771 1099 907C1095.41 905.647 1091.3 905.093 1088.04 902.995C1081.25 898.621 1077.58 887.781 1083.31 881.185C1091.77 871.459 1107.98 865.036 1118.91 858.583C1124.41 855.339 1126.58 849.185 1133 847.171C1142.78 844.104 1153.4 843.394 1163 839.74C1172.61 836.083 1174.85 829.507 1186 828.96C1192.24 828.653 1213.79 820.644 1216 815L1204 811L1207 808L1207 807L1203 805C1201.03 811.816 1197.47 815.287 1191 818L1191 815L1190 815L1189 815C1185.22 819.487 1182.43 819.102 1177 818L1180 811C1174.3 811.001 1169.77 810.301 1169 817L1162 814L1155.79 822.992L1146 830L1131 817C1124.97 823.166 1109.48 823.643 1106 815L1094 820C1096.62 814.103 1101.19 813.038 1105.21 808.61C1112.98 800.063 1116.91 789.302 1128 784L1128 774L1123 778C1120.13 763.989 1135.35 740.065 1149 736C1146.96 729.377 1144.9 716.708 1136.96 714.421C1131.59 712.873 1115.52 722.904 1110 725.281C1090.97 733.469 1070.92 738.746 1052 747.109C1047.99 748.886 1045.87 753.153 1041.96 754.802C1037.37 756.737 1030.85 752.201 1026.9 755.618C1008.26 771.741 1015.72 792.523 1012 813C1010.25 822.642 1007.86 836.732 1004.4 846C1002.8 850.274 997.964 852.57 996.774 857C995.318 862.419 998 871.147 998 877z"/>
</svg>
