<?xml version="1.0" standalone="yes"?>
<svg xmlns="http://www.w3.org/2000/svg" width="1450" height="1361">
<path style="fill:#010101; stroke:none;" d="M0 0L0 1361L1450 1361L1450 0L0 0z"/>
<path style="fill:#ffffff; stroke:none;" d="M818 369C813.206 369.378 807.769 371.247 803 370.277C793.676 368.381 788.322 362.258 781 356.885C774.761 352.307 767.171 349.957 761.039 345.363C757.407 342.641 755.288 338.443 751.711 335.702C747.724 332.648 742.289 332.565 738.093 329.914C731.303 325.624 725.123 314.239 722 307L700 312C701.371 317.011 704.36 318.991 709 321C703.169 335.003 684.316 338.852 682.507 354C681.158 365.295 694.372 366.756 698.424 375.04C700.338 378.955 698.635 382.966 699.649 387C702.318 397.619 706.701 408.867 707.161 420C707.648 431.797 699.026 440.144 694.843 450C689.077 463.583 685.021 480.366 682 495C693.693 501.799 704.597 504.3 708 519C716.013 516.342 725.22 506.45 727.107 498.015C728.215 493.063 727.999 484.152 732.318 480.539C736.756 476.825 750.826 484.107 757 483.603C763.276 483.09 769.472 477.753 775.209 475.584C782.607 472.788 795.898 471.64 804 471C804.999 458.468 814.678 453.738 822.581 445.335C828.284 439.271 828.413 434.576 837 431C839.323 436.578 845.671 443.205 846.255 449C847.126 457.656 838.284 466.317 847.059 473.582C851.423 477.195 861.262 481.2 867 480.189C870.473 479.577 873.352 476.808 877 477.025C880.807 477.25 884.266 479.874 888 480.621C896.497 482.321 900.815 480.948 903.39 491C904.38 494.861 904 499.048 904 503C911.572 500.579 922.277 499.285 930 501C934.203 492.015 938.801 485.777 933.352 476.228C929.081 468.744 918.02 471.71 922 459L906 451C909.615 449.682 926.062 447.871 918 442L936 442.671L946.999 440.518L962 444C960.874 452.122 955.88 454.815 948 455L948 456C954.225 457.155 960.017 454.866 966 455.779C972.889 456.831 987.72 464.979 994.397 459.817C997.453 457.454 996.436 447.692 997.084 444C998.448 436.234 1000.43 427.065 1004 420C1006.35 415.336 1010.3 412.005 1012 407C1005.04 405.35 996.5 399.728 989.17 402.6C980.964 405.814 979.605 413.37 973.775 418.362C966.576 424.528 948.983 423.313 941 420L947 398C939.959 398 930.214 399 924.004 395.107C919.988 392.589 918.412 387.774 914.61 385.303C908.785 381.517 901.55 381.941 896.904 375.895C890.299 367.3 891.831 356.017 889.073 346C883.431 325.506 874.181 306.6 871.745 285C870.805 276.672 878.232 270.202 876 262C860.927 268.34 842.495 283.302 835.273 298C832.1 304.459 832.331 312.639 828.701 318.741C825.005 324.951 816.219 331.652 814.914 339C813.429 347.368 816.897 360.316 818 369z"/>
</svg>
