<?xml version="1.0" standalone="yes"?>
<svg xmlns="http://www.w3.org/2000/svg" width="1450" height="1361">
<path style="fill:#010101; stroke:none;" d="M0 0L0 1361L1450 1361L1450 0L0 0z"/>
<path style="fill:#ffffff; stroke:none;" d="M935 1035C932.397 1040.5 928.975 1046.61 923.985 1050.28C916.56 1055.73 910.891 1054.88 907 1065L915 1066L917 1080L901 1076C898.955 1087.01 896.758 1097.9 889.211 1106.85C886.177 1110.45 881.875 1109.45 878.43 1111.99C874.419 1114.94 874.358 1123.47 874 1128C869.051 1128 863.834 1128.48 859 1127.24C854.539 1126.1 849.714 1122.69 845 1124.09C824.96 1130.03 821.044 1151.85 801 1157.51C786.497 1161.6 776.822 1162.34 765 1172.72C761.939 1175.4 757.011 1178.47 756.836 1183C756.34 1195.82 768.357 1200.68 776.787 1206.14C780.237 1208.37 781.185 1212.74 783.637 1215.83C787.271 1220.41 794.153 1223.19 796.063 1229C797.724 1234.06 793.309 1239.65 791.262 1244C787.678 1251.62 787.885 1263.63 795.019 1269.07C807.334 1278.46 824.945 1282.35 840 1284.16C844.205 1284.66 851.678 1287.19 855.536 1284.96C867.639 1277.97 867.747 1259.56 884 1258.17C908.557 1256.08 934.599 1267.83 959 1268.74C966.815 1269.03 975.46 1265.93 983 1264.13C987.794 1262.99 995.522 1264.58 999.61 1261.97C1004.93 1258.57 1005.96 1248.84 1010.21 1244.04C1018.37 1234.84 1021.93 1230.35 1023.87 1218C1025.39 1208.35 1030.19 1200.27 1031 1190C1041.32 1188.61 1051.91 1182.31 1062 1181.84C1075.42 1181.22 1086.29 1190.29 1092 1201L1123 1195.21L1140 1203.2L1159 1201L1162.17 1216L1148.82 1250L1150.66 1281L1147 1308C1162.68 1309.98 1173.15 1300.77 1187 1295L1187 1294C1169.52 1293.63 1181.38 1285.49 1179.68 1275C1178.81 1269.62 1173.75 1263.7 1171 1259C1180.94 1256.34 1174.69 1246.68 1181 1240L1196 1272L1199 1271C1198.31 1265.88 1198.64 1256.57 1196.79 1252.17C1194.54 1246.82 1188.67 1244.71 1188.83 1238C1189.14 1225.05 1203.13 1221.05 1199 1236L1202 1237C1201.33 1238.25 1200.36 1239.58 1200.17 1241.04C1198.32 1255.09 1212.21 1238.27 1213.94 1238.47C1218.2 1238.95 1220.52 1246.19 1225 1248C1225 1240.81 1220.06 1230.57 1230 1229C1230.15 1245.45 1242.89 1251.36 1252.4 1236C1254.91 1231.95 1251.52 1225.15 1254.53 1222.15C1264.54 1212.16 1273.65 1226.63 1271 1236L1284 1238C1284 1233.6 1279.92 1225.76 1281.33 1222.21C1282.85 1218.39 1288.89 1215.79 1292 1213.41C1300.53 1206.86 1310.44 1198.36 1322 1199L1320 1194C1324.62 1191.8 1325.36 1188.88 1326 1184C1320.77 1182.76 1313.8 1182.04 1309 1179.86C1299.57 1175.57 1296.97 1170.54 1286 1171L1288 1173L1286 1179L1297 1190L1297 1191L1290 1196.08L1271 1181C1272.5 1188.98 1275.83 1196.11 1269 1202C1268.5 1198.09 1267.77 1185.27 1263.57 1183.71C1258.73 1181.9 1256.09 1185.8 1251 1182C1269.08 1177.85 1255.03 1169.58 1261 1158L1270 1168L1279.64 1156L1282 1143C1296.87 1156.74 1297.25 1128.61 1314 1130C1317.87 1118.57 1319.94 1113.9 1333 1116C1330.32 1110.36 1310.7 1105.2 1304 1104C1303.78 1110.6 1299.88 1112.27 1295 1116C1292.34 1101.02 1299.71 1086.32 1283 1078C1286.63 1075.29 1298.59 1074.21 1301.86 1078.36C1304.11 1081.2 1303.88 1085.94 1307.39 1087.88C1312.26 1090.58 1316.91 1088.83 1322 1093L1323 1093C1327.32 1088.09 1325.86 1076.61 1326 1070L1332 1071L1339 1058C1344.22 1057.78 1348.55 1057.15 1352 1053L1353 1053L1359 1058L1359 1059C1354.05 1063.99 1358.93 1065.94 1364 1066L1371 1052C1381 1056.16 1394.13 1060.97 1405 1061L1400 1044C1388.1 1042.5 1375.44 1047.99 1369 1036L1368 1036C1365.29 1044.72 1355.83 1036.67 1350 1035L1350 1052L1336 1051.7L1323 1057.83L1308 1052L1313 1045L1308 1039L1316 1037L1319 1033L1317 1029L1298 1033L1301.41 1042.57L1292 1053C1288.8 1050.4 1282.78 1047.05 1281.56 1042.91C1279.6 1036.26 1288.28 1030.08 1280 1025L1275 1033L1269 1029L1270 1043L1255 1027L1254 1027L1244 1034C1242.47 1028.7 1240.44 1023.95 1235 1022C1232.17 1034.24 1227.01 1040.97 1214 1042L1214 1041C1227 1035.53 1228.4 1023.6 1230 1011C1225.03 1008.66 1222.86 1009.25 1220 1014L1219 1014C1215.56 1008.2 1206.89 998.933 1200 1000L1201 988L1196 991C1192.68 982.505 1201.05 979.394 1203 971L1204 971L1207 982L1208 982L1207.51 962.004L1224.88 942L1228 919L1233 919C1232.27 911.306 1236.48 910.409 1243 913C1248.83 905.93 1250.94 910.602 1258 912.061C1267.03 913.927 1280.27 917.345 1290 915.786C1297.16 914.637 1300.41 906.382 1309 905.344C1315.92 904.508 1331.35 906.702 1333 897C1325.81 896.851 1322.69 895.151 1319 889C1312.5 890.26 1304.55 890.77 1299 894.652C1293.84 898.266 1290.74 905.925 1284 906.847C1276.48 907.876 1274.29 900.423 1268 898.777C1264.36 897.824 1260.67 900.32 1257 900.122C1252.88 899.9 1249.23 897.381 1245 897.261C1238.94 897.089 1231.77 899.694 1226 901.439C1218.06 903.841 1210.39 907.654 1204 912.924C1199.69 916.477 1195.65 922.75 1190 923.891C1177.39 926.435 1165.86 920.553 1153 923.39C1147.59 924.584 1138.82 926.365 1134 928.988C1129.73 931.311 1126.95 936.975 1122 937.933C1113.15 939.645 1098.94 929.462 1091.32 932.786C1087.53 934.439 1090.49 939.847 1088.93 942.787C1087.66 945.201 1084.77 946.116 1083.3 948.39C1076.88 958.334 1073.07 971.364 1072.58 983C1072.35 988.645 1078.83 994.571 1075.47 999.985C1061.15 1023.07 1023.09 1013.71 1001 1018.11C989.712 1020.36 980.874 1033.67 970 1037.41C959.293 1041.1 945.695 1036.38 935 1035M1248 953C1241.82 956.405 1231.79 953.109 1231 963L1226 961L1226 970L1231 969L1214.72 990.911L1217 998L1229 1000C1234.98 992.12 1240.76 985.85 1250 982C1247.57 974.605 1237.8 977.907 1232 979C1236.81 973.977 1253.66 959.264 1248 953M1214 959L1215 964L1216 964L1216 959L1214 959M1394 1004C1392.91 1010.38 1390.73 1017.07 1384 1019L1384 1020L1391 1034L1392 1034C1393.34 1029.06 1394.43 1026.09 1400 1026C1398.5 1017.91 1402.16 1009.2 1394 1004M1363 1073L1367 1082L1363 1073M1213 1255C1213.16 1257.87 1211.32 1262.11 1212.54 1264.68C1214.99 1269.86 1225.15 1265.79 1229 1265C1226.07 1259.36 1218.64 1257.35 1213 1255M1226 1320L1229 1327C1224.97 1329.5 1225.11 1336.01 1230.96 1333.93C1240.48 1330.54 1232.69 1320.61 1226 1320z"/>
</svg>
