<?xml version="1.0" standalone="yes"?>
<svg xmlns="http://www.w3.org/2000/svg" width="1450" height="1361">
<path style="fill:#010101; stroke:none;" d="M0 0L0 1361L1450 1361L1450 0L0 0z"/>
<path style="fill:#ffffff; stroke:none;" d="M589 589L589 590L603 604L603 605C582.36 619.539 563.592 645.172 551.308 667C548.448 672.081 538.636 680.088 539.286 686C539.77 690.398 543.828 695.065 545.741 699C549.955 707.669 551.345 719.576 558.39 726.61C566.57 734.775 573.965 733.906 579 746L566 747L566 748L577 755.312L593 756C588.499 760.539 584.512 766.819 578.999 770.143C574 773.156 567.377 773.043 562 775.337C549.342 780.738 541.512 787.547 531.91 796.895C524.801 803.815 520.465 805.169 520 816C532.791 816.549 553.621 819.348 564.985 825.303C570.745 828.321 573.74 837.565 580.089 839.096C585.55 840.413 591.356 835.506 597 836.101C608.691 837.334 616.748 843.809 627 834C624.413 831.917 620.771 829.013 623.148 825.318C625.49 821.677 633.778 821.372 637.407 818.459C645.126 812.262 646.995 801.861 655.015 796.615C661.216 792.56 667.046 785.565 674 783.032C685.631 778.795 696.591 782.394 708 783.815C714.179 784.584 720.306 783.545 725.907 787.086C729.769 789.527 731.562 794.075 735 797C743.668 776.324 766.464 775.88 781.697 763.034C787.437 758.194 786.552 748.201 793.015 742.424C802.303 734.125 818.57 728.543 814 714L820 712C816.756 698.464 813.047 683.434 826 673C823.109 663.494 800.171 657.046 791.059 660.607C780.475 664.744 795.394 686.442 785.137 690.431C781.537 691.831 776.36 686.64 773 685.65C768.108 684.208 762.655 688.897 758.576 687.01C754.287 685.026 746.758 679.994 743.394 676.61C741.203 674.406 740.328 670.042 736.871 669.492C731.18 668.588 724.759 678.178 720 681L716 672C709.646 674.646 703.246 675.976 697 678.366C684.38 683.193 680.052 689.512 666 684.656C661.356 683.051 653.087 681.64 652.148 675.956C649.56 660.294 662.86 654.071 666.276 641C668.035 634.273 660.386 627.414 664.029 621.214C668.11 614.266 678.279 618.969 684 614.682C695.801 605.839 697.741 595.618 702.109 583C704.597 575.811 707.995 571.971 708 564C699.944 564.023 693.359 570.538 686 570.117C675.147 569.496 664.398 558.686 653.004 561.792C647.915 563.18 645.671 568.286 641.826 571.363C637.403 574.902 631.419 576.898 626 578.275C618.06 580.292 610.531 573.757 603.039 574.993C597.71 575.872 592.375 585.137 589 589z"/>
</svg>
