<?xml version="1.0" standalone="yes"?>
<svg xmlns="http://www.w3.org/2000/svg" width="1450" height="1361">
<path style="fill:#010101; stroke:none;" d="M0 0L0 1361L1450 1361L1450 0L0 0z"/>
<path style="fill:#ffffff; stroke:none;" d="M328 544L321 548L324 566C320.732 566.067 314.411 565.702 312.18 568.6C308.862 572.909 311.72 585.03 309.518 590.985C307.354 596.836 301.453 598.365 297.394 602.518C290.433 609.639 292.415 621.054 299 627C293.68 628.533 289.539 630.41 288 636C298.096 638.404 328.609 623.82 326.584 646C326.276 649.378 324.764 652.699 324 656C328.772 658.297 336.627 656.921 340.062 661.419C346.242 669.508 343.572 678.194 342.3 687C339.941 703.326 341.507 720.119 337 736L366 744L386.796 690L398.991 675L403.589 661.3L424.721 649.146L432.419 633.638L443.714 627.351L453.09 618.024L465.363 614.976L478.043 597.657L492 597.439L510 591C515.516 604.178 525.418 612.185 522 627L538 627L541.728 639.49L559 653L572.754 636L602 605L602 604L588 590L588 589C590.256 587.181 592.109 585.161 594.052 582.995C595.52 581.358 597.017 579.739 598.365 578C607.933 565.656 587.24 568.824 581.019 564.436C575.27 560.38 576.585 551.045 568.995 549.458C560.531 547.689 549.709 554.608 542.019 549.237C536.748 545.555 537.022 540.238 534.431 535.004C531.411 528.902 520.767 519.5 514 517.912C508.285 516.571 503.034 521.955 497.424 521.754C488.33 521.427 480.976 513.395 471.043 517.264C464.741 519.719 465.333 530.003 458.004 530.289C453.594 530.461 453.834 526.043 450.571 524.642C447.976 523.528 444.764 525.001 442 524.323C434.973 522.598 430.577 515.745 427 510C423.806 510.406 419.294 512.044 416.21 510.686C409.685 507.811 401.933 483.509 390.928 496.152C389.69 497.574 388.721 499.28 387.966 501C386.843 503.56 386.371 506.255 386 509C372.117 503.22 365.194 488.308 351 483.593C345.135 481.644 334.013 483.895 328 485.185C309.884 489.071 316.051 510.831 317.441 523C317.909 527.101 315.089 531.961 317.067 535.826C319.077 539.753 324.39 541.863 328 544z"/>
</svg>
