<?xml version="1.0" standalone="yes"?>
<svg xmlns="http://www.w3.org/2000/svg" width="1450" height="1361">
<path style="fill:#010101; stroke:none;" d="M0 0L0 1361L1450 1361L1450 0L0 0z"/>
<path style="fill:#ffffff; stroke:none;" d="M545 237C544.999 247.385 545.204 263.095 537 270C530.074 258.815 519.104 287.473 519.561 294C520.649 309.525 537.451 323.413 537.486 339C537.505 347.652 526.964 359.732 519.996 363.925C516.829 365.831 510.187 366.592 508.692 370.394C501.202 389.434 515.728 410.88 518.916 429C520.183 436.203 523.454 447.636 514.995 451.396C509.462 453.855 498.264 451 492 451C491.035 456.281 493.37 460.991 492.566 466C491.716 471.299 487.192 475.459 487.279 481C487.368 486.667 492.183 489.855 493.355 495C495.168 502.962 484.415 511.106 479 515L479 516C485.572 516.286 490.809 520.458 497 520.984C502.195 521.425 506.823 517.145 512 517.19C518.376 517.245 525.595 525.297 529.985 529.286C536.054 534.8 535.876 545.857 543.019 549.527C551.293 553.777 562.546 545.201 570.981 549.587C576.753 552.589 575.302 558.619 579.314 562.697C584.05 567.51 595.616 567.496 602 568C605.21 583.535 632.694 577.882 641.7 571.034C645.435 568.194 647.586 563.692 652.004 561.662C656.588 559.556 663.5 563.935 666.925 559.678C672.733 552.46 669.37 536.321 677.419 531.029C682.923 527.41 691.696 534.472 697 536C700.166 531.592 705.825 526.357 707.088 521C710.383 507.029 691.164 498.927 681 496C684.021 481.366 688.077 464.583 693.843 451C698.121 440.921 707.013 432.057 706.491 420C705.994 408.544 701.01 397.025 698.724 386C697.885 381.957 699.531 378.076 697.427 374.184C693.246 366.447 680.608 364.886 681.771 354C683.444 338.335 703.628 336.175 708 321C703.205 318.711 700.374 316.219 699 311L721 306L713 289C701.198 292.284 703.838 286.652 698.062 279.513C696.406 277.465 693.506 277.325 691.728 275.437C686.991 270.405 689.207 262.894 690 257C696.907 256.43 704.369 248.993 693.982 246.305C687.931 244.739 682.919 246.526 677 246.171C672.592 245.906 668.412 243.199 664 242.436C657.272 241.273 650.627 242.094 644 241L642 252L641 252C638.523 234.092 620.304 249.348 609.019 245.606C600.762 242.867 606.227 233.54 595 237C591.877 233.431 582.317 235.116 578 236.143C568.082 238.501 554.679 239.726 545 237z"/>
</svg>
