<?xml version="1.0" standalone="yes"?>
<svg xmlns="http://www.w3.org/2000/svg" width="1450" height="1361">
<path style="fill:#010101; stroke:none;" d="M0 0L0 1361L1450 1361L1450 0L0 0z"/>
<path style="fill:#ffffff; stroke:none;" d="M973 622L981 639C971.282 636.988 969.693 632.041 965 624L959 627C959.592 630.054 965.643 649.3 958.169 647.248C952.93 645.81 950.355 632.421 948 628C932.513 632.952 908.95 635.228 905 654L904 654L901 644C896.284 645.328 879.231 650.305 892 655L892 656C884.54 657.592 876.925 653.919 876 664L839 649.171L823 649.678L799 638C797.657 645.234 797.523 656.258 805.21 660.348C810.827 663.337 823.094 662.342 825.226 670.029C826.301 673.903 818.888 685.229 817.749 690C815.659 698.753 819.036 704.805 821 713L815 715C818.858 728.052 804.114 732.753 796.001 739.951C792.309 743.226 788.742 746.245 786.966 751C785.626 754.587 786.117 759.407 783.411 762.363C776.117 770.329 760.338 774.193 751 779.734C743.17 784.38 740.329 793.699 733.61 797.972C729.8 800.395 725.074 797.537 721 798.473C715.31 799.78 708.754 807.302 705.668 812C702.079 817.465 705.873 829.862 704.695 836.996C703.484 844.334 695.521 844.526 693.183 851.015C691.226 856.447 695.996 865.822 696 872L734 854C733.915 864.213 732.123 872.005 739.324 880.683C745.477 888.097 759.437 883.265 763 876L768 880L769 880L781.459 853.015L802 843.185L837 823C840.999 832.454 860.491 847.769 871 849.15C877.112 849.953 882.463 844.063 889 845.792C894.062 847.13 898.5 851.56 903 854.127C911.932 859.223 922.363 864.464 932 868.049C942.74 872.044 945.871 862.635 955 863.318C966.404 864.171 973.05 873.254 983 876.435C987.349 877.826 992.523 876.092 997 876C997 870.542 994.943 863.167 996.042 858C996.995 853.526 1001.82 851.216 1003.4 847C1007.06 837.207 1008.67 824.136 1011.21 814C1013.91 803.241 1009.33 789.673 1011.87 779C1013.52 772.063 1021.26 761.588 1025.9 756.163C1030.71 750.54 1038.24 757.116 1043.71 753.383C1064.17 739.43 1089.02 733.64 1112 723.85C1117.05 721.699 1131.67 712.531 1136.57 713.677C1145.28 715.709 1146.29 728.901 1150 735C1157.17 729.973 1167.46 726.776 1170 718L1165 719C1164.07 707.858 1174.68 702.173 1178.86 693C1181.81 686.524 1176.56 683.857 1176.26 678.011C1176.03 673.529 1180.59 668.968 1181 664C1198.36 673.714 1197.32 650.406 1209 644C1205.95 630.198 1189.29 638.437 1181 642.208C1178.27 643.451 1171.84 644.07 1170.78 647.303C1169.19 652.114 1175.08 656.279 1178 659L1157 652.438L1137.96 659.741L1094 667.87L1075 664L1075 655L1074 655L1072 664L1066 665C1065.18 659.107 1059.03 652.981 1052.74 658.028C1050.12 660.132 1050.24 665.938 1050 669L1043 667L1046 661L1029.58 660.647L1008 650L1013 639C1007.04 637.263 1006.27 641.739 1000.99 642.623C995.572 643.531 992.839 636.934 991 633L990 633L993 657L992 657L982 623L973 622M1246 623L1246 625L1252 632C1257.3 629.082 1263.38 629.598 1265 623L1246 623z"/>
</svg>
