<?xml version="1.0" standalone="yes"?>
<svg xmlns="http://www.w3.org/2000/svg" width="1450" height="1361">
<path style="fill:#010101; stroke:none;" d="M0 0L0 1361L1450 1361L1450 0L0 0z"/>
<path style="fill:#ffffff; stroke:none;" d="M1293 760L1291 768C1295.94 766.498 1298.6 763.477 1301 759L1293 760M1289 772C1284.65 773.67 1280.52 774.165 1279 779C1283.61 778.799 1290.2 778.057 1289 772M1101 906C1095.85 913.639 1087.33 922.408 1089 932C1099.76 930.561 1111.06 938.566 1122 937.382C1127.05 936.836 1130.04 931.186 1134 928.589C1138.7 925.508 1148.46 923.613 1154 922.39C1167 919.523 1179.14 926.47 1191.91 922.697C1198.16 920.852 1203.62 912.574 1209 908.785C1218.26 902.266 1230.89 898.486 1242 896.705C1247.62 895.804 1251.69 899.366 1257 899.476C1260.64 899.551 1264.39 897.04 1268 898.328C1274.95 900.806 1277.29 907.888 1286 905.682C1292.97 903.916 1296.31 894.974 1303 891.97C1306.83 890.249 1315.39 890.776 1317.93 887.262C1323.08 880.152 1312.17 875.061 1307 875C1306.22 864.501 1319.09 863.273 1315 853L1298 859C1296.01 870.283 1301.34 893.32 1284 891L1282 896C1276.78 892.566 1278.83 888.272 1275.36 884.938C1269.82 879.619 1263.19 885.072 1263 891C1254.37 887.406 1247.86 883.239 1248 873C1240.15 868.053 1244.76 859.351 1249 854L1237 858L1237 880L1228 878C1227.25 883.272 1231.4 885.669 1235 889L1216 889L1214 872L1204.42 877.425L1186 870L1191 882C1180.49 880.19 1168.18 878.47 1161 871L1165 870L1165 869L1155 863L1168.68 860.638L1172.74 853.21L1181 847L1178 846C1181.1 834.248 1189.31 838.697 1198 840L1204 836C1201.86 822.257 1216.98 825.598 1220 816C1209.99 818.928 1200.76 825.156 1191 828.856C1185.89 830.795 1179.85 828.605 1175 831.028C1170.41 833.321 1167.74 838.19 1163 840.348C1153.05 844.88 1141.23 844.642 1131.04 848.482C1126.08 850.352 1123.98 855.296 1119.91 858.351C1116.04 861.261 1111.01 861.928 1107 864.634C1100.87 868.765 1086.75 876.125 1082.99 882.185C1074.56 895.744 1090.01 904.52 1101 906M1320 848C1325.68 846.63 1328.79 843.813 1332 839C1318.45 834.728 1322.86 835.634 1320 848z"/>
</svg>
