<?xml version="1.0" standalone="yes"?>
<svg xmlns="http://www.w3.org/2000/svg" width="1450" height="1361">
<path style="fill:#010101; stroke:none;" d="M0 0L0 1361L1450 1361L1450 0L0 0z"/>
<path style="fill:#ffffff; stroke:none;" d="M451 196L445 191C439.82 200.828 441.432 209.694 439.112 220C437.476 227.266 433.588 235.564 436.148 243C439.679 253.257 451.574 258.231 449.783 271C447.978 283.872 436.062 289.824 430.009 300C425.423 307.71 429.508 321.096 434 328L393 332.224L379 334.88L366 330.564L352 331.985L313 328.696L299.09 324.298L288.961 316.149L267 325.034L251 326.21L222 336.26L187 362.899L172.616 373.105L174.984 384L174.371 398.786L185.756 408.044L193.43 422.86L209.895 429.638L225.518 451.61L245.171 469.648L260.593 479.301L261.947 493.981L272.258 503.133L277.344 516.968L288 517.025L314 515C314 495.988 319.043 483.752 340 482.989C343.557 482.86 347.608 481.54 351 483.003C364.705 488.914 371.305 502.298 385 508C385.797 505.252 386.546 502.508 387.966 500C397.453 483.246 410.051 500.535 415 511L425.826 510.314L439.015 522.633L453 523C453.544 526.382 454.598 530.34 458.975 529.369C464.284 528.191 464.297 521.816 467.638 518.513C470.812 515.375 476.134 515.51 480 513.573C485.484 510.824 488.805 506.292 491.625 501C495.788 493.187 487.455 489.317 486.588 482C485.942 476.553 490.566 472.13 491.606 467C492.688 461.659 490.574 455.603 491 450C497.513 450 511.676 453.673 516.852 449.953C522.398 445.966 518.925 433.736 517.916 428C514.577 409.024 502.182 391.213 507.888 371.105C509.33 366.025 517.066 365.347 520.961 362.925C527.901 358.609 536.626 347.53 536.721 339C536.895 323.504 520.849 309.334 518.927 294C518.034 286.875 528.97 259.975 537 269C547.971 262.141 542.717 240.672 540 231L531 234C531.148 230.545 532.871 225.64 531.393 222.39C530.128 219.611 526.279 218.4 524 216.61C517.456 211.467 511.579 206.219 510 198C505.12 200.984 503.972 208.542 497.985 208.927C487.7 209.587 478.71 203.801 471.637 197.402C469.152 195.154 468.521 191.538 464.895 190.616C459.999 189.37 454.817 193.482 451 196z"/>
</svg>
