<?xml version="1.0" standalone="yes"?>
<svg xmlns="http://www.w3.org/2000/svg" width="1450" height="1361">
<path style="fill:#010101; stroke:none;" d="M0 0L0 1361L1450 1361L1450 0L0 0z"/>
<path style="fill:#ffffff; stroke:none;" d="M171 395L154 403.363L142.175 406.589L138.561 422L128.121 486.895L105.279 500.529L98.9946 516.961L77 535C79.8396 539.99 83.5872 544.468 85.402 550C87.1345 555.281 86.9307 560.988 89.5432 566C95.1464 576.75 104.057 587.069 104.16 600C104.227 608.29 94.5944 613.406 95.483 622C96.4582 631.431 101.467 630.493 107.814 634.856C109.628 636.103 112.268 638.876 110.978 641.276C109.103 644.764 103.232 643.903 100 644.286C91.4669 645.296 84.2932 647.777 76 649.382C72.0311 650.15 66.8056 649.784 64.8935 654.133C55.8602 674.682 82.7895 682.39 97 683L98 689C94.7139 689.949 91.8412 691.28 89 693.22C60.7049 712.541 112.086 734.992 129 739C127.008 747.384 120.354 753.683 118.533 762C117.131 768.407 121.34 774.679 120.012 781C118.844 786.555 114.122 791.626 112.065 797C104.017 818.021 99.6383 833.572 77 843C81.1715 858.251 86.9011 853.475 99 855.698C106.704 857.114 121.534 861.123 127.816 865.728C136.874 872.368 133.732 885.648 140.728 892.142C143.642 894.847 148.51 893.799 151.816 895.938C157.755 899.783 159.214 906.852 167 908.606C176.499 910.747 187.083 908.303 195.999 913.049C206.792 918.794 207.049 934.189 215.888 942.681C219.216 945.879 223.858 944.258 228 943.975C240.838 943.099 253.644 935.505 258.867 923C262.119 915.213 265.164 904.507 264.726 896C264.486 891.335 261.318 886.719 262.319 882C264.268 872.809 273.601 866.528 269.062 856C263.367 842.791 248.604 833.684 240.509 822C227.559 803.307 227.022 771.352 239.532 751.147C245.47 741.558 258.779 756.211 268 753.487C280.348 749.839 284.412 735.211 295.015 730.042C304.755 725.294 325.817 734.025 336 736C339.971 725.626 338.096 715.748 339.171 705C340.525 691.449 347.838 674.78 339.698 662.279C336.287 657.04 328.018 661.208 324.929 655.772C320.036 647.161 330.896 639.498 317 633.573C309.085 630.197 296.409 638.189 287 637C288.486 631.359 291.788 629.187 297 627L297 625C280.465 612.403 304.797 601.404 308.518 591.907C311.211 585.032 307.979 574.868 311.194 569.148C313.342 565.325 319.155 565.304 323 565C323.857 558.209 323.507 554.038 320 548L326 543C322.259 541.137 317.002 538.397 315.89 533.985C314.534 528.607 319.755 521.007 313.606 517.028C304.133 510.898 286.461 523.912 277.189 517.382C271.908 513.663 274.715 507.877 271.821 503.279C268.917 498.664 262.952 500.181 261.189 493.985C259.794 489.082 263.375 482.623 259.667 478.681C255.218 473.95 248.07 472.916 243.289 468.61C237.29 463.204 228.669 456.148 223.76 449.957C219.203 444.209 216.322 436.741 211.366 431.39C206.269 425.888 197.752 427.66 192.513 423.146C188.705 419.865 188.317 412.357 185.38 408.108C181.843 402.988 175.216 399.991 171 395z"/>
</svg>
