<?xml version="1.0" standalone="yes"?>
<svg xmlns="http://www.w3.org/2000/svg" width="1450" height="1361">
<path style="fill:#010101; stroke:none;" d="M0 0L0 1361L1450 1361L1450 0L0 0z"/>
<path style="fill:#ffffff; stroke:none;" d="M667 563L688 569.433L709 563C708.995 570.971 705.597 574.811 703.109 582C698.393 595.625 695.65 606.204 683 615.682C678.017 619.416 668.756 615.531 665.028 620.653C660.595 626.743 669.032 634.433 666.967 641C663.005 653.597 648.833 661.291 653.318 676.867C654.654 681.507 662.971 683.021 667 684.329C680.458 688.699 685.054 682.621 697 677.836C703.489 675.236 710.35 673.769 717 671L720 679C726.565 677.807 731.249 666.774 737.775 668.778C741.371 669.882 742.143 675.466 745.214 677.648C748.705 680.13 755.891 686.411 760 686.759C764.27 687.122 767.418 683.426 772 684.664C775.879 685.713 780.491 690.788 784.682 689.867C790.739 688.537 785.952 670.847 786.242 667C786.921 657.978 795.819 659.735 802 660C799.872 653.26 799.305 645.552 797.228 639.274C795.327 633.531 790.228 630.097 788.808 623C787.157 614.749 784.513 605.358 784.105 597C783.802 590.8 785.519 585.251 784.112 579C780.132 561.314 769.658 551.065 777 532C766.431 531.993 757.485 526.08 747 527.105C739.276 527.86 727.609 529.221 720.184 531.318C714.4 532.952 712.926 536.986 706 537C698.661 537.015 683.284 527.987 677.51 532.028C671.682 536.106 668.873 556.152 667 563z"/>
</svg>
