<?xml version="1.0" standalone="yes"?>
<svg xmlns="http://www.w3.org/2000/svg" width="911" height="1450">
<path style="fill:#010101; stroke:none;" d="M0 0L0 1450L911 1450L911 0L0 0z"/>
<path style="fill:#ffffff; stroke:none;" d="M602 636C603.672 640.159 605.564 642.095 610 643L606.399 656.996L609.253 666.95L604.066 674.039L597.864 694.907L588 704L593.434 720.062L603.891 720.735L612.109 712.228L636 711L635 708L645 709C642.754 703.21 634.036 695.138 633.532 689.961C632.799 682.448 642.222 674.927 642.219 667C642.211 646.93 618.836 636.347 602 636z"/>
</svg>
