<?xml version="1.0" standalone="yes"?>
<svg xmlns="http://www.w3.org/2000/svg" width="911" height="1450">
<path style="fill:#010101; stroke:none;" d="M0 0L0 1450L911 1450L911 0L0 0z"/>
<path style="fill:#ffffff; stroke:none;" d="M292 884C286.983 884.676 279.699 884.815 275.104 886.742C271.462 888.27 269.995 892.331 265.985 893.413C255.986 896.111 249.572 891.932 239.871 897.472C235.701 899.854 224.697 900.247 224.318 906.058C223.3 921.643 244.354 925.221 241 941C256.177 952.816 242.84 957.143 238.87 970C237.352 974.913 241.356 980.022 238.061 984.61C233.577 990.852 224.697 991.741 223.449 1000.98C222.618 1007.14 229.614 1006.2 231.802 1010.39C233.997 1014.6 233.077 1022.01 235 1027L257.412 1023.86L265.39 1010.03L294 1000C292.535 988.66 290.675 976.845 306 978L314 955C318.306 955 325.872 955.979 329.012 952.272C332.057 948.677 330.747 943.625 335.059 940.407C339.949 936.758 346.03 939.197 349.809 932.907C353.055 927.502 346.723 921.352 353.214 916.938C363.2 910.147 375.916 911.269 385.682 905.348C390.19 902.615 388.558 894.966 394.043 891.836C399.133 888.931 406.878 891.327 412.945 888.211C420.211 884.478 424.696 875.542 431.174 870.702C438.208 865.446 448.022 864.376 454.957 858.61C460.844 853.714 464.512 843.577 462.427 836C461.643 833.15 458.459 830.157 458.917 827.105C459.393 823.926 465.07 820.845 467.981 820.576C476.339 819.802 471.943 831.051 472.951 834.911C474.116 839.369 481.072 845.011 485 847C487.136 839.774 483.651 831.141 487.356 824.224C490.817 817.764 503.695 806.206 510.001 802.58C513.26 800.706 518.687 800.219 521.393 797.976C524.724 795.214 520.775 789.703 524.438 786.619C528.265 783.396 533.679 788.232 538 787.809C542.124 787.405 544.495 783.907 548 782.178C555.829 778.318 562.423 782.38 564 771C561.534 769.54 559.554 765.985 556.776 765.36C553.47 764.617 550.114 766.892 547 767.625C533.914 770.706 526.798 777.348 515 782.486C511.192 784.144 505.698 782.717 502.353 785.028C499.884 786.733 500.085 790.49 497.813 792.57C491.966 797.926 480.582 800.831 473 802.621C465.766 804.329 459.075 799.792 452 801.562C444.016 803.558 438.438 812.534 430 813.255C426.396 813.562 423.51 810.942 420 810.691C415.582 810.374 411.46 812.959 407 812.87C394.46 812.621 383.357 810.507 371 812.066C366.407 812.646 361.665 808.902 357.259 811.333C352.577 813.916 343.878 825.414 345.218 831C346.101 834.676 355.625 842.311 352.418 845.606C342.39 855.914 329.333 859.565 315 862.971C307.982 864.639 299.936 862.771 294.603 869.39C291.941 872.696 292.326 879.874 292 884z"/>
</svg>
