<?xml version="1.0" standalone="yes"?>
<svg xmlns="http://www.w3.org/2000/svg" width="911" height="1450">
<path style="fill:#010101; stroke:none;" d="M0 0L0 1450L911 1450L911 0L0 0z"/>
<path style="fill:#ffffff; stroke:none;" d="M601 230L605.686 213.83L611 186C607.769 184.277 601.99 182.989 600.117 179.61C598.335 176.392 601.05 168.52 594.924 168.306C588.008 168.065 583.358 184.412 580.298 189C578.059 192.357 573.564 195.032 572.417 199C571.574 201.918 573.702 205.064 573.877 208C574.093 211.647 571.283 215.481 572.657 218.957C576.256 228.058 592.906 228.976 601 230z"/>
</svg>
