<?xml version="1.0" standalone="yes"?>
<svg xmlns="http://www.w3.org/2000/svg" width="911" height="1450">
<path style="fill:#010101; stroke:none;" d="M0 0L0 1450L911 1450L911 0L0 0z"/>
<path style="fill:#ffffff; stroke:none;" d="M217 376L215 384C219.256 386.487 224.217 390.552 229 391.686C233.191 392.68 239.579 390.535 242.248 395.134C244.698 399.353 237.597 402.691 235.133 404.888C231.489 408.138 231.758 413.107 228.487 416.351C225.573 419.241 220.583 420.112 217 422L219.552 440.895L207 449.742L167 464C168.344 470.162 173.025 473.38 175.103 479C177.538 485.588 174.321 490.519 179.044 496.961C184.759 504.756 195.384 511.245 199.347 520.001C201.133 523.946 202.26 530.946 199.397 534.621C197.806 536.664 193.636 538.035 193.636 541.041C193.636 544.284 198.77 544.735 201 545.443C207.408 547.477 212.106 551.767 214.647 558C216.099 561.56 215.033 566.966 219.148 568.657C222.731 570.128 231.308 572.974 234.683 570.357C237.826 567.921 237.598 558.453 243.296 559.685C250.923 561.334 247.375 567.384 243 570C246.528 574.892 252.294 571.128 256.61 574.603C263.359 580.04 262.758 591.216 267.702 597.826C271.86 603.386 280.524 604.726 284.223 610.379C289.406 618.3 283.915 633.164 288.684 641C295.045 651.45 293.686 669.293 309 665L315 673C316.473 667.044 313.923 659.196 320.39 655.027C325.832 651.52 338.962 652.939 341.721 645.867C343.767 640.619 339.743 636.711 338.263 632C336.888 627.62 335.806 614.466 336.417 610C338.347 595.911 350.566 587.689 355 575L349 576C349.384 570.944 352.789 569.271 354.518 564.896C358.552 554.687 363.234 545.785 368.243 536C371.201 530.221 373.065 524.412 380 523L375.882 513L387.415 501.367L394.094 491.39L404.087 481.985L399 467C389.06 470.106 381.766 457.937 384 449L350 441L350 440C356.572 437.212 366.183 420.331 365.638 413C364.955 403.799 359.04 401.722 363 392C352.462 386.432 342.538 403.477 330 400.804C319.096 398.48 303.609 395.628 294.015 389.914C288.745 386.776 286.813 379.36 280.957 377.394C274.561 375.248 270.985 378.492 265 378.984C261.05 379.308 251.891 377.52 248 376.427C242.669 374.931 236.643 364.635 232.871 364.636C227.457 364.636 223.87 374.639 217 376z"/>
</svg>
