<?xml version="1.0" standalone="yes"?>
<svg xmlns="http://www.w3.org/2000/svg" width="911" height="1450">
<path style="fill:#010101; stroke:none;" d="M0 0L0 1450L911 1450L911 0L0 0z"/>
<path style="fill:#ffffff; stroke:none;" d="M150 1176C152.93 1188.36 162.576 1199.6 153.614 1211.17C152.288 1212.88 151.098 1215.65 148.802 1216.25C143.408 1217.65 141.15 1204.08 135.739 1209.61C133.051 1212.35 134.866 1216.69 134.737 1220C134.424 1228.02 131.072 1236.04 130 1244L99 1233L90 1246C91.7926 1246.5 93.1667 1246.66 95.0085 1246.83C99.5886 1247.26 100.854 1251.79 95.9653 1253.51C90.1061 1255.56 79.849 1248.3 74.6427 1252.12C72.5099 1253.68 73.2983 1260.47 73 1263L61 1259C59.3128 1263.46 63.8777 1278.27 68 1281L68 1274C75.5233 1276.23 79.5344 1289.81 72.5702 1295.22C69.4675 1297.63 64.434 1295.67 61 1295C60.6722 1299.31 56.6334 1306.25 51.3943 1302.35C48.0585 1299.87 48.5588 1295.28 45 1293C43.7132 1301.75 46.6598 1307.62 46.4977 1316C46.3274 1324.8 42.081 1335.17 48.0895 1343.62C52.9319 1350.43 63.6766 1352.75 69.8148 1358.38C74.3608 1362.55 75.4034 1368.33 77 1374C84.7009 1372.52 104.155 1370.51 94 1360L94 1359C98.5766 1355.5 110.828 1344.53 109.124 1338.04C107.276 1331 97.6759 1329.06 102.573 1320.13C105.678 1314.47 112.739 1316.1 117.91 1314.68C121.347 1313.74 124.448 1310.05 126.686 1307.42C134.086 1298.73 122.482 1285.13 129.383 1277.21C137.426 1267.97 145.344 1274.27 155 1274.97C161.78 1275.46 169.975 1270 176.787 1274.03C183.999 1278.29 177.719 1285.94 180.657 1291.81C183.087 1296.68 189.146 1296.8 192.796 1300.28C196.761 1304.06 197.899 1311.95 200 1317L201 1317C206.767 1303.62 216.653 1289.79 226.518 1279.13C231.562 1273.67 237.027 1277.97 239 1269L247 1280C252.643 1277.99 253.84 1274.5 252 1269C256.917 1269.62 260.74 1270.77 262 1265L255 1259C262.429 1256.95 270.018 1249.66 260 1245C264.024 1237.83 270.288 1241.1 277 1242C276.46 1246.29 275.294 1251.04 278.653 1254.57C282.662 1258.78 294.15 1254.05 296.806 1249.7C298.798 1246.44 297.586 1239.62 297 1236C292.704 1236.85 291.165 1236 288 1233C296.798 1231.19 305.246 1227.36 307 1239C314.456 1237.45 314.172 1231.34 313 1225L320 1223C317.475 1221.47 315.984 1218.34 312.942 1217.67C306.423 1216.23 300.082 1219.42 293.04 1216.85C288.861 1215.33 287.148 1208.96 282.859 1208.47C279.27 1208.05 278.102 1212.35 275.61 1213.99C269.566 1217.95 261.621 1213.73 257.638 1208.82C251.629 1201.39 248.788 1183.62 252.62 1175.02C255.252 1169.11 271.979 1163.25 261.581 1155.01C254.38 1149.3 243.553 1154.85 236 1155.77C224.29 1157.19 208.628 1149.95 197 1147.67C190.991 1146.48 187.319 1148.19 183 1143L166.302 1146.79L150 1176z"/>
</svg>
