<?xml version="1.0" standalone="yes"?>
<svg xmlns="http://www.w3.org/2000/svg" width="911" height="1450">
<path style="fill:#010101; stroke:none;" d="M0 0L0 1450L911 1450L911 0L0 0z"/>
<path style="fill:#ffffff; stroke:none;" d="M626 842C607.757 842.014 602.158 865.689 605 881C595.412 881 591.388 881.699 590 892C577.605 884.801 562.659 891.576 549.148 885.262C542.586 882.195 543.315 872.761 533.018 873.413C526.904 873.8 525.328 882.609 519 883.972C511.184 885.656 502.514 877.964 495.514 884.699C489.04 890.928 494.906 905.922 489.308 912.697C486.959 915.539 478.601 919.433 475 919.974C472.768 920.309 469.516 918.8 467.708 920.694C464.552 924 470.837 929.905 470.71 933.56C470.575 937.428 465.787 939.123 465.148 943.043C463.564 952.768 463.254 966.586 469.702 974.695C474.825 981.137 489.573 982.393 494 975C486.69 969.101 492.545 960.327 483 956L483 955L494 954C494.44 949.482 496.666 947.88 501 947L503 955C497.155 955.465 493.286 961.376 497.657 966.482C501.4 970.856 506.567 971.951 512 972C510.064 984.584 521.435 975.064 524 969L529 971L530 967L517 965L517 962L513 962L516 955C518.602 959.228 521.473 958.557 526 958C524.881 952.927 523.229 950.84 518 950C524.335 938.969 530.96 959.152 537 962L538 958L524 928C529.839 927.88 537.168 925.535 535 934L541 937L542 931L544 943L545 943L551 936L553 926L557 952L561 951L566.152 938L562 925L568 928C567.417 916.675 580.036 921.286 585 914L586 914C589.095 916.712 591.393 915.429 595 914L594 925C589.179 922.027 585.866 923.797 584 929L593 936L585 934L589 946L602.532 942.143L611.105 932.357L626 928C625.735 919.64 636.295 920.916 642 917C639.562 912.044 637.36 911.06 632 912L657 894L657 893L654 891L653 894L647 893L649 897L642 899C640.038 892.701 633.997 896.324 629 897L629 896C633.7 894.007 636.158 892.18 637 887L642 889L643 882L652 884L647 881L650 874L642 869L666 867L659 874L659 875L662 875L661 885L662 885L671 875L668 871L668 870L670 864L680 864C677.963 867.795 677.283 870.433 680 874L685 868L685 872L692 873L686 887L685 887L683 881L678 882L679 886L673 885L675 890L669 895L673 897C663.608 901.283 664.204 912.176 664 922C670.797 918.238 683.713 913.013 685 905L675 903C674.82 891.021 694.441 891.48 702.941 886.12C706.723 883.736 709.635 876.393 711.977 872.486C714.325 868.568 711.814 864.166 711.252 860.17C710.683 856.125 714.522 852.979 713.671 849C712.166 841.961 705.326 839.095 706 831C693.275 824.771 683.048 826.297 670 830C669.074 826.957 668.052 824.538 664.895 823.265C660.731 821.586 657.186 823.343 653 823.367C645.587 823.409 632.194 816.138 626.229 821.434C622.133 825.071 626.117 836.309 626 842M577 929C581.257 928.094 582.754 926.092 584 922L577 929M561 954L560 955L564 960C564.803 956.566 564.302 955.328 561 954z"/>
</svg>
