<?xml version="1.0" standalone="yes"?>
<svg xmlns="http://www.w3.org/2000/svg" width="911" height="1450">
<path style="fill:#010101; stroke:none;" d="M0 0L0 1450L911 1450L911 0L0 0z"/>
<path style="fill:#ffffff; stroke:none;" d="M393 437L392 444C377.032 445.687 385.574 471.129 400 466C401.344 470.915 406.203 477.896 404.218 482.985C402.42 487.592 397.653 488.75 394.189 491.637C390.91 494.37 391.046 498.435 388.401 501.363C380.789 509.79 371.318 511.252 382 523C367.449 526.062 360.168 551.393 355.518 563.985C353.924 568.301 350.381 570.198 350 575L356 574L337.328 609L342 650C333.736 650.658 319.437 653.415 316.396 662.001C314.984 665.988 316.436 670.765 316 675L308 666C300.32 668.089 293.271 662.506 286.09 665.268C271.728 670.792 278.346 681.961 278.737 692C278.968 697.93 276.894 702.951 278 709C286.157 710.025 290.71 707.785 298 704.258C301.294 702.665 306.18 699.619 309.787 701.846C323.117 710.078 306.345 724.791 323 732C315.757 745.691 307.316 755.462 306 772C323.535 772 343.173 774.057 360 767.972C364.199 766.454 367.005 762.811 371 760.988C374.646 759.325 378.606 760.471 381.867 757.682C384.808 755.168 391.835 748.016 393.397 744.621C394.739 741.703 393.297 738.254 395.603 735.637C400.139 730.491 405.51 729.965 408.733 723C413.119 713.521 401.473 707.821 404.177 699C405.946 693.232 410.881 692.017 414.157 687.726C418.193 682.439 421.406 674.804 425.049 669C438.774 647.132 445.01 619.339 469.039 606.433C474.934 603.267 478.463 609.602 483.683 608.044C486.034 607.342 486.193 604.056 487.599 602.387C489.999 599.536 496.745 593.803 500.093 592.269C504.858 590.085 510.955 593.987 515.961 593.682C520.001 593.436 521.938 589.165 526.004 588.984C539.238 588.394 548.121 598.515 560 601L559 580L555 581L566 573L564 569L556 570L558 565L553 563L549 568L550 564L545 562L544 565L539.26 551L539 537L539 536C546.903 526.953 543.574 510.124 547.547 499C550.925 489.541 556.102 478.434 561.548 470C565.889 463.278 572.442 457.711 575 450C572.045 448.477 569.236 445.575 566 444.773C561.429 443.641 555.508 446.74 551 447.536C538.317 449.777 528.629 447.305 519 458C516.05 453.144 502.859 444.761 497 443.843C492.806 443.185 489.231 444.686 485.043 442.866C481.406 441.285 475.86 435.837 474.772 431.961C473.268 426.601 477.156 418.76 468.981 417.063C462.351 415.687 446.521 421.33 441.285 425.513C437.12 428.84 434.166 434.114 429 436.161C425.638 437.493 422.412 435.405 419 435.485C409.875 435.697 402.468 438.197 393 437z"/>
</svg>
