<?xml version="1.0" standalone="yes"?>
<svg xmlns="http://www.w3.org/2000/svg" width="911" height="1450">
<path style="fill:#010101; stroke:none;" d="M0 0L0 1450L911 1450L911 0L0 0z"/>
<path style="fill:#ffffff; stroke:none;" d="M598 724C601.959 735.959 591.919 730.233 587.653 738.214C583.902 745.23 582.668 766.359 586 773L588 773L590 768C598.193 775.905 600.478 766.289 608.576 765.557C611.657 765.279 614.888 768.302 618 768.786C624.189 769.75 630.752 768.004 637 768L649 746L632 743L640 725L634 728C630.647 720.647 634.415 719.206 636 712L612.144 713.148L606.487 720.146L598 724z"/>
</svg>
