<?xml version="1.0" standalone="yes"?>
<svg xmlns="http://www.w3.org/2000/svg" width="911" height="1450">
<path style="fill:#010101; stroke:none;" d="M0 0L0 1450L911 1450L911 0L0 0z"/>
<path style="fill:#ffffff; stroke:none;" d="M351 440L351 441L384 448L392 436C401.691 437.225 409.635 434.915 419 434.79C422.831 434.739 426.259 437.197 430 435.393C435.057 432.954 437.763 427.785 442.09 424.513C447.78 420.209 461.836 415.426 468.995 416.546C479.078 418.124 473.388 431.32 478.889 437.151C485.943 444.628 491.86 440.887 500 444.306C505.875 446.774 509.586 451.973 516 453L515 423L510 422C514.233 414.748 519.693 405.652 519.863 397C519.93 393.571 517.379 390.681 517.537 387.424C517.662 384.85 519.605 382.649 519.827 379.999C520.721 369.346 515.882 363.034 510 355C500.272 366.7 483.669 355.736 475.313 348.401C471.945 345.445 472.719 339.886 471.172 336C466.179 323.455 460.913 318.496 447 317.989C444.109 317.884 440.124 316.593 437.464 318.067C424.817 325.076 430.342 349.198 422.397 359.674C417.507 366.122 408.849 366.362 402 369.13C391.961 373.186 386.781 380.946 377.999 386.045C373.24 388.808 366.296 389.303 363.009 394.133C358.003 401.489 365.933 405.971 366.377 413C366.808 419.829 357.081 437.294 351 440z"/>
</svg>
