<?xml version="1.0" standalone="yes"?>
<svg xmlns="http://www.w3.org/2000/svg" width="911" height="1450">
<path style="fill:#010101; stroke:none;" d="M0 0L0 1450L911 1450L911 0L0 0z"/>
<path style="fill:#ffffff; stroke:none;" d="M157 1375L175 1380C180.254 1366.27 184.145 1352.25 190.753 1339C193.668 1333.15 200.099 1323.78 199.153 1317C198.583 1312.91 195.693 1303.28 192.652 1300.51C189.351 1297.51 184.52 1297.13 181.431 1293.67C176.834 1288.52 181.829 1283.52 179.59 1278.06C176.021 1269.36 161.849 1275.83 155.424 1275.73C146.233 1275.59 138.585 1268.55 130.348 1276.59C122.919 1283.85 134.466 1297.07 128.397 1305.83C126.202 1309 121.593 1313.99 117.961 1315.4C111.437 1317.92 102.557 1314.98 102.113 1325C101.701 1334.32 119.351 1339.26 127 1340.17C130.423 1340.57 133.533 1338.43 137 1339.39C149.657 1342.87 157.462 1363.46 157 1375z"/>
</svg>
