<?xml version="1.0" standalone="yes"?>
<svg xmlns="http://www.w3.org/2000/svg" width="911" height="1450">
<path style="fill:#010101; stroke:none;" d="M0 0L0 1450L911 1450L911 0L0 0z"/>
<path style="fill:#ffffff; stroke:none;" d="M480 193C480 198.404 482.62 207.114 480.453 211.961C477.433 218.717 469.196 220.795 466.208 228.004C460.73 241.214 461.451 260.283 465 274C471.094 273.226 476.963 271.376 483 273.482C487.494 275.05 491.12 280.077 496 280.182C504.487 280.365 514.408 276.313 523 275.286C531.594 274.258 540.437 275.996 548.999 274.866C562.067 273.142 548.199 263.297 553.542 258.777C555.812 256.856 560.392 258.651 563 259L567 241L550 241L552 208C546.132 204.51 544.685 196.744 538.981 194.613C530.717 191.526 515.685 189.516 507 190.478C497.488 191.532 489.602 195.672 480 193z"/>
</svg>
