<?xml version="1.0" standalone="yes"?>
<svg xmlns="http://www.w3.org/2000/svg" width="911" height="1450">
<path style="fill:#010101; stroke:none;" d="M0 0L0 1450L911 1450L911 0L0 0z"/>
<path style="fill:#ffffff; stroke:none;" d="M238 1103L223 1100C223 1105.19 224.19 1110.9 223.496 1116C222.927 1120.18 220.1 1124.73 220.864 1129C222.411 1137.63 230.858 1144.04 228 1154C238.552 1156.51 252.402 1146.88 261.775 1154.65C272.831 1163.82 256.262 1168.55 253.248 1175.02C249.365 1183.35 252.545 1203.74 259.39 1210.24C263.566 1214.2 270.379 1216.57 275.61 1213.01C278.019 1211.37 279.352 1206.86 282.95 1207.75C287.066 1208.77 288.209 1214.28 292.184 1215.85C299.627 1218.8 306.031 1215.63 312.981 1216.99C317.198 1217.81 318.707 1222.07 323 1223L315 1201L302 1210L301 1210L295 1201C300.612 1201.98 304.5 1201.32 305 1195C312.929 1193.27 309.622 1183.77 308 1178L320.015 1187.97L338 1191C335.346 1195.33 329.688 1193.49 327.512 1197.32C322.701 1205.78 343.387 1207.57 348 1207C349.393 1204.29 352.238 1202.55 353.397 1199.79C357.629 1189.73 346.727 1187.72 344 1180L350 1183L354 1174L342 1173L338 1163C346.158 1167.08 354.24 1164.09 362 1160C360.769 1156.74 358.929 1155.21 355.985 1153.32C348.394 1148.47 319.002 1134.19 339 1123L339 1122C323.508 1115.44 308.872 1125.9 301 1107C310.924 1106.92 318.726 1104.46 327 1099C319.706 1093.17 313.154 1096.11 305 1095.79C294.948 1095.39 288.446 1090.51 279 1096C275.61 1083.32 268.283 1079.12 261 1069C249.226 1073.89 225.032 1069.26 230.692 1090C232.105 1095.17 237.143 1097.49 238 1103M342 1097L354 1084L355 1085L355 1087C350.081 1089.34 348.984 1092.92 354 1096L352 1103C357.907 1101.22 359.51 1097.94 360 1092L371 1090C370.485 1094.1 369.331 1097.34 373 1100C384.481 1078.44 357.033 1070.58 343.618 1085.9C341.39 1088.45 342.536 1093.75 342 1097z"/>
<path style="fill:#010101; stroke:none;" d="M337 1162L338 1163L337 1162z"/>
</svg>
