<?xml version="1.0" standalone="yes"?>
<svg xmlns="http://www.w3.org/2000/svg" width="911" height="1450">
<path style="fill:#010101; stroke:none;" d="M0 0L0 1450L911 1450L911 0L0 0z"/>
<path style="fill:#ffffff; stroke:none;" d="M487 609C481.453 609.13 476.306 604.596 471.015 606.153C465.711 607.713 463.014 612.992 458.961 616.331C455.663 619.047 450.281 620.911 447.792 624.39C445.598 627.458 446.573 632.415 444.732 635.996C442.418 640.499 437.967 642.896 435.558 647.174C431.827 653.797 430.167 661.439 426.049 668C422.113 674.271 419.028 681.868 414.914 687.775C411.724 692.357 406.489 692.851 404.816 699.001C402.595 707.161 412.905 712.854 410.099 721C407.251 729.266 401.659 729.901 396.603 735.637C394.307 738.243 395.641 741.926 393.972 744.79C391.766 748.577 386.026 753.668 382.867 756.942C378.799 761.16 374.77 759.812 370 761.988C366.005 763.811 363.199 767.454 359 768.972C339.135 776.156 316.492 772.361 296 772.133C291.912 772.087 288.865 774.472 285 775.193C280.978 775.943 277.003 774.072 273 774.397C269.604 774.674 267.227 777.252 264 777.987C258.33 779.279 252.007 776.999 246 778.085C240.132 779.145 223.421 783.812 220.653 789.185C218.043 794.25 221.059 800.124 217.987 804.896C213.988 811.108 205.764 813.663 207.876 823C209.977 832.287 219.057 845.255 223.572 854C229.915 866.289 228.289 883.617 243 890.972C247.591 893.268 263.086 894.176 267.791 892.107C271.056 890.67 272.605 887.079 276.015 885.742C280.355 884.042 286.617 886.078 290.142 882.272C292.73 879.479 291.354 875.29 292.603 872.015C294.217 867.787 299.075 865.459 303 863.811C319.418 856.919 339.766 860.73 352.11 845.066C354.786 841.669 345.827 834.458 344.655 831.17C342.922 826.308 352.873 812.733 357.143 810.613C361.425 808.487 365.655 811.516 370 811.487C378.155 811.431 385.456 810.312 394 810.911C402.712 811.521 410.577 810.025 419 810.059C423.667 810.079 427.156 813.494 432 812.184C439.183 810.243 446.531 804.242 452.721 800.24C456.597 797.735 455.623 792.715 457.652 789C459.715 785.224 463.562 782.15 464.889 778C467.815 768.846 463.018 756.894 454 755L454 753L476 745.308L485.896 746.762L495.015 739.434L517 736L517 735L508 731C513.367 723.141 520.325 711.503 526 725C531.711 724.141 536.338 720.769 542 719.758C545.959 719.052 551.084 720.566 554.7 719.307C557.733 718.251 559.348 714.757 562.09 713.139C566.583 710.487 572.246 709.075 577 706.757C583.491 703.591 591.448 702.408 596.273 696.485C601.153 690.497 601.138 682.86 602.888 676.001C603.804 672.411 608.06 670.513 608.539 666.87C608.949 663.745 605.908 661.115 605.692 657.985C605.407 653.847 608.97 650.249 608.472 646.209C607.18 635.723 589.165 632.373 581 632L582 637L573 631L568 646C562.869 639.096 569.679 632.433 571 625L564 624L560 631L540 625C546.409 622.68 563.136 615.592 559.353 606.015C557.901 602.338 554.12 600.633 551.169 598.407C548.803 596.622 546.875 594.457 543.985 593.499C539.323 591.953 528.831 588.48 524.089 589.776C520.532 590.749 519.032 594.375 514.996 594.424C510.638 594.476 506.365 592.061 502.04 592.402C495.37 592.929 487.074 602.803 487 609z"/>
</svg>
