<?xml version="1.0" standalone="yes"?>
<svg xmlns="http://www.w3.org/2000/svg" width="911" height="1450">
<path style="fill:#010101; stroke:none;" d="M0 0L0 1450L911 1450L911 0L0 0z"/>
<path style="fill:#ffffff; stroke:none;" d="M110 1336C110.458 1344.81 100.588 1352.93 95 1359L95 1360C103.549 1372.57 86.5936 1370.99 78 1375C80.659 1384.21 95.3487 1397.31 105 1394L110.819 1415.79L130 1425C125.794 1400.05 153.834 1427.29 163.566 1417.57C166.453 1414.68 166.196 1409.73 167.155 1406C169.367 1397.41 171.799 1389.3 175 1381C168.68 1376.87 163.426 1376 156 1376C156.495 1364.44 150.485 1344.5 138 1340.18C133.942 1338.77 130.071 1341.5 126 1340.42C120.479 1338.94 115.918 1335.82 110 1336z"/>
</svg>
