<?xml version="1.0" standalone="yes"?>
<svg xmlns="http://www.w3.org/2000/svg" width="911" height="1450">
<path style="fill:#010101; stroke:none;" d="M0 0L0 1450L911 1450L911 0L0 0z"/>
<path style="fill:#ffffff; stroke:none;" d="M811 701C806.951 699.237 802.819 699.248 800 703L804 703L803 710L787 713L788 716C782.8 718.082 784.902 721.989 790.004 721.862C795.555 721.723 799.337 717.31 805 717C807.656 712.401 816.659 705.451 822 707L821 711C826.377 707.951 823.832 698.065 822 693C817.115 694.148 813.488 696.622 811 701M766 723L770 736L764 741C750.375 738.955 754.84 751.299 750.43 758.996C744.979 768.51 726.814 779.491 738.009 793.683C740.361 796.664 745.718 797.05 749 798.796C756.719 802.902 767.836 815.874 776.01 816.833C781.685 817.498 781.002 812.138 785.228 810.774C789.441 809.414 795.036 812.869 799 814L793 819L793 820L808 835C807.976 829.735 809.946 827.351 815 826L813 831C822.891 825.886 822.025 837.013 831 840L832 839L832 828C825.976 821.612 835.858 807.921 843 806L838 782C843.992 777.63 834.111 771.786 831 768C827.015 770.426 824.386 770.505 820 769L821 776C814.732 776.996 811.24 780.014 815 786L807 791L810 772L804 772L804 767L800 767L799 761L804 750L795.74 745.808L786 746L784 751L783 751C782.999 744.251 783.281 735.348 775 734C774.503 727.914 773.513 721.001 766 723M808 745L811 747L821 736L828 736L830 725C825.152 724.531 802.274 732.518 802.596 738.776C802.728 741.335 806.695 742.904 808 745M788 737L789 742L795 737L788 737z"/>
</svg>
