<?xml version="1.0" standalone="yes"?>
<svg xmlns="http://www.w3.org/2000/svg" width="911" height="1450">
<path style="fill:#010101; stroke:none;" d="M0 0L0 1450L911 1450L911 0L0 0z"/>
<path style="fill:#ffffff; stroke:none;" d="M592 770L590 770C587.855 773.423 586.145 773.423 584 770L565 771C562.331 783.229 553.868 779.732 545 784C547.721 791.465 550.695 801.21 548.201 809C546.694 813.707 542.495 817.164 541.434 822C540.59 825.848 543.138 829.248 542.579 833C541.804 838.19 539.802 842.484 539.203 848C538.578 853.759 531.795 866.366 535.067 871.49C537.048 874.592 542.152 875.182 544.687 878.107C546.372 880.051 546.927 883.174 549.313 884.412C562.129 891.06 575.699 886.215 589 890C592.216 881.68 595.102 880.006 604 880C601.402 866.007 607.891 841.2 625 841C625.428 835.575 623.048 830.643 623.326 825.961C623.602 821.333 629.483 819.938 630.682 815.791C634.206 803.607 627.701 795.614 622 786C628.719 782.644 634.085 775.893 637 769C631.143 769.001 624.758 770.656 619 769.786C615.325 769.23 611.734 765.682 608 766.276C601.911 767.245 598.161 775.909 592 770z"/>
</svg>
