<?xml version="1.0" standalone="yes"?>
<svg xmlns="http://www.w3.org/2000/svg" width="911" height="1450">
<path style="fill:#010101; stroke:none;" d="M0 0L0 1450L911 1450L911 0L0 0z"/>
<path style="fill:#ffffff; stroke:none;" d="M643 668L634.361 690.826L646 710L637 710L631 721L634 727L641 723L633 742L650 744C650.394 751.707 643.8 754.046 640.032 760C633.889 769.71 634.182 778.986 623 786C625.038 790.849 630.399 794.84 631.616 799.718C632.916 804.928 628.93 814.904 634.318 818.721C646.265 827.186 662.312 815.66 671 829C676.22 827.519 682.508 824.581 688 825.097C694.536 825.711 704.659 832.346 710.787 828.138C718.523 822.826 712.614 812.664 720.018 806.148C724.453 802.246 733.543 804.008 736.384 798.852C739.078 793.963 734.406 784.11 735.443 778C736.971 768.998 744.094 767.613 748.767 760.957C755.163 751.846 749.237 744.624 761 739C760.035 734.344 757.763 724.806 753.49 722.067C751.186 720.59 747.619 721.729 745 721.01C732.6 717.607 722.567 717.149 714 706L709 708L714 723L713 723C711.313 717.506 708.268 717 703 716L702 720L701 720C701.238 716.449 704.675 711.439 703.543 708.189C700.484 699.403 683.663 706.405 678 708C683.294 701.548 688.479 696.557 690 688L684 689C681.182 684.636 674.615 685.304 670 683.533C659.701 679.58 650.671 675.879 643 668M691 696L690 701L691 701L693 696L691 696M695 701L708 705L709 704L709 702C704.276 698.66 699.071 695.023 695 701z"/>
</svg>
