<?xml version="1.0" standalone="yes"?>
<svg xmlns="http://www.w3.org/2000/svg" width="911" height="1450">
<path style="fill:#010101; stroke:none;" d="M0 0L0 1450L911 1450L911 0L0 0z"/>
<path style="fill:#ffffff; stroke:none;" d="M612 185C609.411 194.125 609.51 205.397 606.412 213.911C604.776 218.408 597.78 224.05 602.858 229.142C605.328 231.619 609.848 230.896 613 231.039C621.664 231.433 631.413 236.26 639.892 234.851C643.579 234.238 644.99 229.26 649.018 229.948C655.506 231.054 664.18 242.562 668.911 247.07C671.557 249.593 675.628 253.896 679.357 250.141C681.895 247.586 679.321 242.083 679.09 239C678.187 226.936 676.967 216.126 677 204L678 204C680.097 212.848 684.59 221.079 686.482 230C687.437 234.5 686.016 239.683 687.858 243.956C690.214 249.42 697.782 251.185 701.292 245.694C703.288 242.572 700.653 238.825 699.247 236C695.473 228.42 691.685 221.049 689 213C685.387 202.169 689.402 185.811 683.972 176.286C676.436 163.064 658.756 160.57 649.376 149.625C643.184 142.4 644.133 128.828 634 125C633.11 128.739 634.489 134.515 632.802 137.732C630.787 141.578 620.488 139.564 617 138.682C605.693 135.825 604.704 108.662 592 111.364C580.809 113.745 582.248 121.485 580.139 130C576.375 145.197 589.446 157.845 597.691 169C603.716 177.15 600.068 181.737 612 185z"/>
</svg>
