<?xml version="1.0" standalone="yes"?>
<svg xmlns="http://www.w3.org/2000/svg" width="911" height="1450">
<path style="fill:#010101; stroke:none;" d="M0 0L0 1450L911 1450L911 0L0 0z"/>
<path style="fill:#ffffff; stroke:none;" d="M553 208L553.652 222L551 240L568 240C564.822 251.281 566.906 259.862 553 258C552.418 262.492 557.301 267.971 555.183 271.811C551.352 278.756 536.523 275.997 530 276C518.913 276.004 506.69 281.607 496 280.687C491.806 280.326 488.77 276.41 485 274.85C471.687 269.342 464.404 275.605 462 288C477.002 286.816 489.209 287.247 500.787 299.185C504.409 302.92 505.371 308.728 509.39 312.031C515.001 316.642 523.136 317.177 528.892 321.789C534.662 326.411 537.86 333.656 544 338.536C552.389 345.202 568.621 350.148 579 353.14C591.697 356.8 603.065 358.608 616 360.289C619.772 360.779 627.094 364.21 630.361 361.397C634.649 357.704 630.939 348.881 632 344L629 345L632 337L627 337L627 336L647 327C641.866 324.29 633.458 320.257 632 329C627.26 327.507 626.436 323.403 625 319C633.781 318.322 633.801 310.682 629 305L634 306C636.375 297.527 630.941 292.369 634.912 284C639.683 273.945 654.095 270.497 652 259L643 262L640 258L640 257L644 251L632.573 244.866L626.852 233.742L587 228.43L553 208M644 276L637 292L648 297L652 290L652 289L652 284L644 276z"/>
</svg>
