<?xml version="1.0" standalone="yes"?>
<svg xmlns="http://www.w3.org/2000/svg" width="911" height="1450">
<path style="fill:#010101; stroke:none;" d="M0 0L0 1450L911 1450L911 0L0 0z"/>
<path style="fill:#ffffff; stroke:none;" d="M241 559C238.981 562.318 238.334 567.01 235.683 569.812C231.193 574.559 221.501 570.067 216 569C212.324 575.298 209.653 584.22 201 584.845C195.399 585.249 189.651 581.493 184 581C189.137 590.888 206.575 589.231 205.849 604C205.318 614.782 193.299 622.258 189.117 631.17C187.48 634.657 190.085 638.398 189.436 642C188.753 645.795 186.155 648.698 188.434 652.61C193.6 661.474 210.843 670.033 220 674.208C226.339 677.097 233.032 676.829 236 684C242.667 681.675 252.902 669.03 259 675L268 672L274 679C279.47 670.138 284.529 661.602 296 665L286.804 638L286.866 627L285 610C278.484 606.919 269.873 602.345 266.086 595.985C262.46 589.898 262.291 580.7 257.034 575.603C252.886 571.582 246.536 575.035 242 570C249.511 566.306 248.005 561.972 241 559z"/>
</svg>
