<?xml version="1.0" standalone="yes"?>
<svg xmlns="http://www.w3.org/2000/svg" width="911" height="1450">
<path style="fill:#010101; stroke:none;" d="M0 0L0 1450L911 1450L911 0L0 0z"/>
<path style="fill:#ffffff; stroke:none;" d="M711 914L712 914L719 911L716 904C719.958 901.596 720.632 898.463 721 894L724 898L730 894L732 903L732 904L730 910L735 909L734 915C740.111 917.472 743.239 917.342 749 914L748 911L754 909C752.245 903.96 748.763 901.998 744 900L751 882L756 884L756 885C743.674 889.719 758.801 896.733 765 897L765 898L759 903C765.833 901.67 774.77 900.809 778 894L786 897L786 898L781 900L781 901L787 902L787 903L770 906L770 907C775.31 909.478 778.407 912.108 784 909C787.241 916.211 791.089 916.792 798 914L798 920L773 917L774 921L769 922C771.43 927.834 773.23 931.778 780 932L781 925L790 926L789 931L793 932L793 933L788 934L789 938L782 936L769 942C768.933 936.385 767.791 933.931 762 933L758 939L758 931L742 929L742 933C737.185 929.871 728.964 927.115 723.104 928.612C718.752 929.724 716.934 932.839 712 933L712 934L745 947.985L783 954C783.332 943.769 790.999 940.937 800 942C802.158 931.435 810.867 928.13 822 928C820.571 923.605 820.157 919.121 817.694 915.089C816.187 912.621 812.835 910.554 812.468 907.561C811.946 903.301 816.373 899.303 815.264 895.17C813.099 887.106 802.415 884.331 806.367 874C810.594 862.954 824.495 860.267 828 849L818 853L817 849L814 856L813 856L812 853L796 869L793 859L798 857L795 851L785 856C786.987 839.87 774.208 858.888 767 861L759 847C763.384 847.826 769.616 850.215 774 849.262C780.848 847.774 785.705 838.564 791 848L801 844L800 841L805 841C801.947 833.131 799.361 824.718 792 820L792 819L797 816L797 814C793.787 812.82 788.755 810.382 785.302 811.693C780.977 813.336 781.368 819.681 775.014 817.392C764.295 813.53 756.801 800.927 745.001 797.638C738.878 795.932 737.765 800.371 732.907 802.412C726.454 805.123 719.976 803.338 716.322 811.001C714.309 815.222 716.651 819.683 714.679 823.985C712.912 827.839 707.182 829.93 706.647 834.055C705.877 839.986 712.404 843.748 714.177 848.714C715.324 851.929 712.329 854.87 711.963 858C711.416 862.68 715.418 867.226 712.973 871.816C706.63 883.724 699.783 890.072 686 893.622C683.036 894.385 674.649 894.769 675.971 899.741C677.412 905.162 687.164 903.733 691 903.889C697.48 904.153 706.401 909.747 711 914M804 847L798 849L803 855L804 847M755 916C757.748 918.632 759.523 918.362 763 917L755 916z"/>
</svg>
