<?xml version="1.0" standalone="yes"?>
<svg xmlns="http://www.w3.org/2000/svg" width="911" height="1450">
<path style="fill:#010101; stroke:none;" d="M0 0L0 1450L911 1450L911 0L0 0z"/>
<path style="fill:#ffffff; stroke:none;" d="M510 731L518 734C513.307 741.726 502.614 738.767 495.043 740.228C490.507 741.104 489.268 746.292 484.985 747.363C481.9 748.134 479.073 745.666 476 745.797C470.479 746.033 459.306 750.525 455 754C476.879 762.91 457.854 785.344 456 800C469.107 803.4 486.749 801.788 497.672 792.273C500.338 789.951 499.809 785.917 503.098 784.028C507.192 781.677 512.679 783.339 517 781.012C531.35 773.284 542.664 764.408 560 764C561.253 770.01 576.958 773.53 581.362 769.242C589.271 761.542 581.824 746.905 587.14 738.105C589.854 733.612 595.547 732.919 600 731L598 723C595.291 721.885 592.007 721.004 590.998 717.891C589.489 713.239 594.659 706.224 586.981 704.688C574.824 702.254 563.811 717.45 553.91 720.111C548.914 721.454 543.248 719.876 538 721.379C534.887 722.27 531.462 725.351 528.105 724.864C524.27 724.308 523.823 718.206 519.985 718.207C515.201 718.207 510.909 727.177 510 731z"/>
</svg>
