<?xml version="1.0" standalone="yes"?>
<svg xmlns="http://www.w3.org/2000/svg" width="911" height="1450">
<path style="fill:#010101; stroke:none;" d="M0 0L0 1450L911 1450L911 0L0 0z"/>
<path style="fill:#ffffff; stroke:none;" d="M352 930C344.744 942.448 331.351 936.978 331 954L315 956L307 979C302.673 978.659 298.303 977.09 295.264 981.148C290.776 987.14 297.032 995.443 292.593 1000.47C281.77 1012.73 260.504 1003.54 260 1025C254.565 1025.73 241.623 1024.84 237.588 1028.14C227.976 1036 232.472 1049.12 231.298 1059C230.513 1065.61 227.414 1068.5 231 1075C238.648 1072.51 244.316 1072.58 252 1071.75C254.649 1071.46 257.854 1068.95 260.485 1069.67C269.159 1072.04 276.774 1086.16 279 1094C293.593 1091.42 312.496 1093.12 327 1097L320 1075L334 1069L335 1074L325 1078L327 1084L334 1082L333 1078L354 1062L357 1069C350.919 1069.48 350.376 1073.47 347.035 1077.79C341.677 1084.71 335.046 1086.69 340 1097C342.279 1093.64 340.488 1089.51 342.693 1086.38C345.057 1083.02 356.962 1075 361 1075.74C366.564 1076.76 372.301 1081.37 378 1083L384 1075C381.237 1067.51 373.884 1071.56 369 1075L363 1072L362 1066L368 1064C366.709 1060.01 363.361 1059.85 360.985 1056.72C357.067 1051.56 361.446 1046.61 364 1042C360.309 1038.99 359.49 1036.53 361 1032L362 1032L365 1036L366 1036L366 1028L374 1026L374 1025C371.982 1016.87 382.116 1015 388 1015L395 1009L397 1014L401 1012L403 1001L395 1001L395 1000C404.313 997.226 408.239 988.893 419 990C415.259 993.535 414.061 995.858 414 1001C418.575 1000.48 420.127 1001.89 422 1006C430.973 1001.81 427.619 998.509 428.383 991C429.499 980.044 427.44 970.964 419.865 961.514C413.623 953.726 393.939 960.929 385.104 957.258C381.582 955.795 374.228 949.544 372.933 945.957C371.494 941.971 373.224 938.572 369.848 935.148C365.71 930.952 357.52 931.461 352 930M388 1019L391 1031L392 1031L388 1019M375 1031L375 1035L379 1031L375 1031z"/>
</svg>
