<?xml version="1.0" standalone="yes"?>
<svg xmlns="http://www.w3.org/2000/svg" width="911" height="1450">
<path style="fill:#010101; stroke:none;" d="M0 0L0 1450L911 1450L911 0L0 0z"/>
<path style="fill:#ffffff; stroke:none;" d="M544 785C537.058 790.866 529.988 782.871 524.743 787.032C521.271 789.786 525.19 795.254 522.243 798.397C519.3 801.536 511.132 802.065 507.105 804.735C500.884 808.858 494.91 817.405 489.419 822.799C484.032 828.092 490.391 842.98 485.4 845.94C482.597 847.602 479.424 842.765 477.834 841.168C475.97 839.296 473.412 837.581 472.554 834.961C470.714 829.344 474.437 815.861 463.059 823.112C455.889 827.681 462.663 832.009 463.617 838C464.596 844.153 461.765 851.428 457.787 855.985C450.624 864.19 439.836 865.281 431.3 871.086C424.744 875.544 420.873 884.505 413.892 888.443C401.865 895.227 389.053 887.351 389 906C377.592 907.536 368.77 910.818 358.897 915.492C354.136 917.745 347.403 919.761 351.461 926.786C355.335 933.494 365.552 929.734 370.812 936.019C376.791 943.162 373.735 951.966 385.09 956.397C395.363 960.407 410.079 958.138 421 959C422.188 967.771 429.189 973.636 430.821 982C432.042 988.26 426.04 991.681 432 997L439 988L438 984L450 982C447.981 984.447 443.686 995.514 451.059 993.928C457.432 992.557 469.619 984.784 474 980L474 979C464.039 970.688 460.887 954.602 464.318 942.104C465.423 938.079 470.598 936.728 469.806 931.996C469.239 928.617 464.479 923.776 467.531 920.492C469.74 918.114 473.268 919.86 476 919.264C479.213 918.563 486.833 914.997 488.976 912.437C494.871 905.393 487.64 888.881 496.144 883.414C505.488 877.408 517.571 888.612 525.302 879.532C535.278 867.816 536.561 856.138 538.456 841.286C538.845 838.24 541.503 836.162 541.809 832.999C542.14 829.567 539.992 826.412 540.523 823C541.223 818.504 545.253 815.174 546.857 811C549.697 803.605 548.451 791.514 544 785z"/>
</svg>
