<?xml version="1.0" standalone="yes"?>
<svg xmlns="http://www.w3.org/2000/svg" width="911" height="1450">
<path style="fill:#010101; stroke:none;" d="M0 0L0 1450L911 1450L911 0L0 0z"/>
<path style="fill:#ffffff; stroke:none;" d="M476 66C460.901 63.6848 463.45 77.4976 461.6 87C460.853 90.8344 458.103 97.9478 460.117 101.61C463.183 107.184 475.025 111.431 479.91 116.17C483.811 119.953 489.292 125.187 489.113 131C488.623 146.904 481.074 161.458 480.999 177C480.981 180.877 478.603 188.131 481.029 191.436C486.115 198.367 504.665 188.684 512 189.924C521.066 191.455 531.439 190.404 539.981 194.363C545.225 196.794 543.45 201.634 547.318 204.637C554.033 209.849 563.717 212.247 571 217C573.74 210.533 570.133 205.205 571.661 199.424C572.628 195.77 577.233 193.095 579.298 190C584.422 182.319 586.617 171.994 595 167C586.961 153.076 577.446 144.913 579.791 128C580.273 124.52 579.235 120.344 581.603 117.39C584.203 114.147 589.41 111.991 593 110C586.077 93.4589 571.484 86.842 561.857 72.7909C558.701 68.1844 559.436 62.0118 556.201 57C553.287 52.4845 549.473 40.9036 542.961 40.8511C532.449 40.7664 535.734 56.4707 526.985 58.6659C517.256 61.1067 507.46 56.3794 497.039 59.9282C490.461 62.1687 488.704 71.1688 481.986 72.6235C477.344 73.6287 475.882 69.7148 476 66z"/>
</svg>
