<?xml version="1.0" standalone="yes"?>
<svg xmlns="http://www.w3.org/2000/svg" width="911" height="1450">
<path style="fill:#010101; stroke:none;" d="M0 0L0 1450L911 1450L911 0L0 0z"/>
<path style="fill:#ffffff; stroke:none;" d="M445 317C450.884 317.049 461.077 317.731 465.297 322.43C471.094 328.885 470.666 339.532 474.564 346.683C475.829 349.003 478.695 349.036 480.611 350.595C490.014 358.247 501.81 363.703 512 353L519.853 369.015L518.208 388L520.247 400L512 422L517 423C515.642 429.517 515.785 452.109 520 457C528.4 446.302 539.138 448.395 551 446.7C555.235 446.095 559.707 443.807 564 443.983C568.536 444.169 572.171 450.524 576.83 448.759C584.3 445.928 588.368 434.133 592.789 428.209C601.885 416.02 612.385 403.709 619.215 389.985C623.496 381.385 624.46 372.659 628 364C619.64 360.864 611.523 362.069 603 360.536C585.802 357.441 565.503 350.676 550 342.9C540.249 338.008 536.552 328.319 528.775 322.105C522.785 317.319 513.857 317.068 508.39 311.61C504.633 307.859 503.789 302.132 499.787 298.532C485.476 285.663 465.463 282.027 452.966 299.174C449.236 304.292 447.273 311.139 445 317z"/>
</svg>
