<?xml version="1.0" standalone="yes"?>
<svg xmlns="http://www.w3.org/2000/svg" width="1393" height="1450">
<path style="fill:#010101; stroke:none;" d="M0 0L0 1450L1393 1450L1393 0L0 0z"/>
<path style="fill:#ffffff; stroke:none;" d="M470 1211C494.856 1209.92 521.034 1213.7 546 1210.71C557.173 1209.38 566.326 1202.8 577 1200.81C583.692 1199.56 595.379 1201.72 602 1203.41C606.333 1204.52 620.3 1208.3 622.347 1212.15C626.838 1220.58 616.143 1230.48 622.738 1237.27C624.753 1239.35 628.471 1240.24 631 1241.59C633.533 1242.94 636.056 1244.46 639 1244.62C652.418 1245.32 661.93 1226.83 675 1222.93C685.649 1219.75 693.115 1235.9 702.682 1227.3C707.674 1222.82 704.32 1212 708.008 1206.01C712.532 1198.68 723.562 1202 724.811 1193C726.141 1183.41 718.056 1171.49 721.238 1163C724.651 1153.9 727.745 1141.89 733.637 1134.04C739.581 1126.12 746.969 1121.32 751.623 1112C757.598 1100.04 758.53 1085.82 764.427 1074C767.754 1067.33 773.632 1062.14 776 1055C763.83 1050.84 761.787 1038.04 772 1030C767.133 1023.67 761.901 1027.07 755 1026.98C743.433 1026.83 728.691 1020.75 719.858 1032.39C716.113 1037.32 719.781 1043.95 714.852 1048.52C710.352 1052.68 704.867 1050.03 700.498 1053.03C697.088 1055.37 697.173 1060.66 693.61 1062.97C691.785 1064.16 688.358 1063.56 687.161 1065.6C684.986 1069.32 691.22 1074.13 689.011 1078.83C685.391 1086.53 679.4 1101.12 672.674 1106.41C668.373 1109.8 662.89 1107.49 658.39 1109.6C655.086 1111.16 649.405 1117.41 646.318 1119.99C641.584 1123.96 644.641 1131.18 637.96 1134.69C619.428 1144.42 597.096 1139.32 578 1147.86C563.423 1154.38 557.849 1172.12 542 1177.4C537.1 1179.03 532.149 1175.53 527 1176.69C519.198 1178.45 512.283 1184.43 505 1187.69C498.693 1190.51 490.16 1190.01 484.39 1193.43C479.47 1196.35 473.362 1206.23 470 1211z"/>
</svg>
