<?xml version="1.0" standalone="yes"?>
<svg xmlns="http://www.w3.org/2000/svg" width="1393" height="1450">
<path style="fill:#010101; stroke:none;" d="M0 0L0 1450L1393 1450L1393 0L0 0z"/>
<path style="fill:#ffffff; stroke:none;" d="M903 779L910.352 802.787L920.61 810.39L929.698 825L932.354 847L944 868C940.131 869.101 936.675 866.993 932.999 868.113C921.931 871.489 916.005 882.092 918 893L935 893C935.54 899.846 934.66 915.306 939.843 920.382C943.335 923.801 948.582 919.611 952.089 918.545C961.157 915.788 976.37 922.044 982.968 912.363C984.973 909.422 983.096 904.309 983.015 901C982.53 881.222 968.472 872.582 950 869C952.684 864.384 957.769 861.723 963 861C968.842 850.401 955.354 843.276 960.637 831C963.438 824.493 968.903 813.926 974.019 809.105C978.507 804.877 984.651 803.114 988.351 797.985C992.344 792.45 998.842 784.976 1001.64 778.961C1004.02 773.841 1003.81 768.401 1008.19 764.228C1012.74 759.888 1019.95 761.324 1024.35 757.272C1029.09 752.908 1027.76 744.869 1033.21 740.728C1036.32 738.372 1040.56 738.367 1044 736.712C1050.4 733.635 1056.19 727.524 1063 725.513C1068.03 724.028 1072.38 725.573 1077 722.276C1089.54 713.336 1091.15 696.264 1106 688.573C1112.9 685.001 1119.8 691.096 1127 689.606C1136.98 687.54 1154.88 665.222 1154.91 655C1154.93 648.969 1150.8 645.058 1148.3 640C1145.19 633.728 1146.62 624.887 1138.96 621.411C1135.19 619.702 1131.75 622.459 1128 622.697C1124.58 622.914 1121.44 621.158 1118 621.611C1112.42 622.346 1107.53 625.972 1102 626.744C1095.94 627.59 1090.98 622.094 1085 621.731C1079.95 621.424 1076.16 625.847 1071 625.225C1064.45 624.437 1060.96 618.589 1055 616.649C1044.58 613.26 1033.05 614.95 1023.02 609.723C1018.3 607.264 1017.57 602.833 1013.78 599.649C1009.58 596.126 1003.22 595.663 998 595L997 589C975.647 595.818 962.713 627.783 970.549 648C972.769 653.727 976.681 661.722 979.875 667C982.202 670.846 986.704 674.261 987.106 679C989.005 701.358 966.572 709.804 958.799 728C953.254 740.981 969.233 748.951 968.664 760.576C968.228 769.483 955.706 772.428 949 774.127C941.933 775.916 937.703 782.265 931 783.73C923.34 785.404 911.09 779.855 903 779z"/>
</svg>
