<?xml version="1.0" standalone="yes"?>
<svg xmlns="http://www.w3.org/2000/svg" width="1393" height="1450">
<path style="fill:#010101; stroke:none;" d="M0 0L0 1450L1393 1450L1393 0L0 0z"/>
<path style="fill:#ffffff; stroke:none;" d="M859 681L859 669C848.758 664.829 843.718 655.252 836.916 647C829.26 637.713 819.766 629.039 813.147 619C809.512 613.486 808.292 606.685 804.481 601C796.709 589.409 788.331 579.383 793 565C773.518 553.467 750.025 558.564 734.529 575.326C730.337 579.86 729.712 586.066 726.298 590.961C722.577 596.295 716.288 599.343 712.854 605C708.059 612.899 714.002 629.379 718.213 637C727.835 654.417 736.798 651.256 754 653.286C759.872 653.978 766.257 653.149 772 654.39C776.509 655.365 780.345 659.039 785 659.285C796.275 659.88 807.431 656.536 819 660.228C827.097 662.813 828.416 671.57 834.529 676.062C840.088 680.147 852.249 680.142 859 681z"/>
</svg>
