<?xml version="1.0" standalone="yes"?>
<svg xmlns="http://www.w3.org/2000/svg" width="1393" height="1450">
<path style="fill:#010101; stroke:none;" d="M0 0L0 1450L1393 1450L1393 0L0 0z"/>
<path style="fill:#ffffff; stroke:none;" d="M300 1020C305.299 1023.1 311.18 1028.83 317 1030.42C325.665 1032.8 336.194 1030.54 345 1030.85C349.258 1031.01 352.776 1034.1 357 1034.44C362.312 1034.86 370.002 1031.7 375 1029.91C381.251 1027.67 389.4 1024.68 394.91 1021.01C399.312 1018.07 401.959 1013.54 407 1011.37C413.3 1008.65 428.182 1007.83 435 1008.55C441.736 1009.28 446.847 1013.65 453 1015.91C461.54 1019.04 471.117 1019.75 479 1024.66C491.324 1032.34 499.821 1041.87 516 1040.11C525.109 1039.12 533.964 1028.79 543 1026.43C548.41 1025.02 555.88 1027.91 560.57 1024.14C564.93 1020.64 565.618 1013.4 570.174 1009.39C580.979 999.889 598.387 1005.22 610 1010C614.236 997.482 606.724 982.767 599 973C617.21 970.532 599.391 959.585 593.105 954.391C590.455 952.202 589.007 948.301 585.787 946.897C581.604 945.075 577.201 947.979 573 946.177C555.332 938.599 541.125 923.586 522 918.8C515.414 917.152 508.615 921.169 502 921.467C497.165 921.685 486.605 918.954 482 917.146C477.675 915.448 474.331 911.893 470 910.093C459.742 905.83 447.472 903.887 438 898.005C431.261 893.821 425.869 887.645 419 883.464C409.125 877.453 398.955 874.939 388 871.845C383.888 870.683 379.326 867.33 375 867.557C370.172 867.811 367.556 872.731 363 873.642C354.717 875.299 345.132 867.737 337 866.608C330.335 865.683 322.375 869.439 316 871.116C312.575 872.016 305.202 872.397 303.067 875.564C300.636 879.171 303.684 888.132 304.626 892C306.228 898.579 304.521 904.423 305.171 911C305.662 915.977 308.394 920.2 309.062 925C310.331 934.107 303.442 943.807 303.039 953C302.636 962.223 306.745 970.717 305.941 980C305.518 984.896 301.172 988.077 301.113 993C301.061 997.418 304.424 1000.7 304.851 1005C305.388 1010.41 301.99 1015.22 300 1020z"/>
</svg>
