<?xml version="1.0" standalone="yes"?>
<svg xmlns="http://www.w3.org/2000/svg" width="1393" height="1450">
<path style="fill:#010101; stroke:none;" d="M0 0L0 1450L1393 1450L1393 0L0 0z"/>
<path style="fill:#ffffff; stroke:none;" d="M276 1128C276.439 1138.23 277.816 1145.98 282.691 1155C284.457 1158.27 288.801 1164.73 286.799 1168.58C284.879 1172.27 277.411 1172.99 274 1174.96C269.594 1177.5 265.956 1182.01 261 1183.49C250.25 1186.68 239.199 1178.08 237 1168C219.138 1176.49 241.306 1190.26 244.662 1198C248.243 1206.26 246.888 1217.42 257.039 1221.24C265.495 1224.41 277.717 1221.62 284.981 1225.33C290.178 1227.99 289.539 1233.74 292.943 1237.78C296.592 1242.1 303.676 1242.69 309 1242.9C320.882 1243.36 331.547 1231.8 343 1232.77C348.729 1233.26 354.433 1236.44 360 1236.49C367.339 1236.55 374.473 1232.44 382 1233.36C388.576 1234.18 395.355 1240.89 401.985 1239.15C407.157 1237.79 408.703 1232.39 413.09 1230.03C417.269 1227.77 423.779 1230.27 426.092 1224.79C428.863 1218.22 421.127 1213.89 420.144 1208C418.534 1198.36 422.317 1189.24 421.425 1180C420.911 1174.68 416.577 1170.33 415.783 1165C415.266 1161.53 418.109 1156.66 415.806 1153.6C411.741 1148.2 399.53 1153.86 394.572 1148.68C391.826 1145.82 392.278 1141.61 390.062 1138.51C384.423 1130.65 370.793 1123.12 361 1123.26C356.465 1123.33 348.782 1123.92 345.603 1127.57C340.98 1132.87 344.072 1138.56 335 1140.86C325.743 1143.22 317.128 1138.5 308 1138.1C303.707 1137.92 299.121 1140.21 295 1138.45C288.108 1135.51 283.52 1130.41 276 1128z"/>
</svg>
