<?xml version="1.0" standalone="yes"?>
<svg xmlns="http://www.w3.org/2000/svg" width="1393" height="1450">
<path style="fill:#010101; stroke:none;" d="M0 0L0 1450L1393 1450L1393 0L0 0z"/>
<path style="fill:#ffffff; stroke:none;" d="M803 368C804.861 372.831 805.565 380.411 808.854 384.366C814.341 390.966 821.927 394.775 824.171 404C827.264 416.713 816.294 425.741 816.098 437C815.836 452.043 827.772 444.643 836 448.113C844.203 451.572 848.76 457.093 858 459C855.443 470.768 860.198 477.836 870 482C875.495 471.677 885.04 453.651 896 448.523C901.382 446.005 913.802 444.767 920 444.177C926.395 443.569 932.929 448.728 939 446.912C952.406 442.901 960.601 428.705 972.004 422.089C978.932 418.069 987.889 418.376 994.895 414.581C999.152 412.276 1000.07 407.243 1005.02 405.72C1011.13 403.838 1017.87 405.418 1023.79 403.682C1027.43 402.615 1038.53 394.302 1041.35 391.363C1045.42 387.114 1042.83 380.854 1045.43 376C1048.74 369.833 1055.25 367.058 1059.27 361.7C1061.82 358.314 1062.05 353.684 1064.36 350.108C1067.69 344.954 1074.63 341.914 1067.66 335.43C1063.37 331.448 1055.27 330.385 1050 327.752C1043.13 324.318 1038.81 319.143 1032.68 315.139C1029.05 312.77 1020.9 312.668 1020.6 306.957C1020.43 303.875 1023.04 300.944 1023.76 298C1025.46 291.016 1023.75 282.116 1028.65 276.225C1031.63 272.642 1037.49 272.466 1039.96 268.471C1042.64 264.133 1038.67 258.865 1042.51 254.329C1049.56 246.016 1060.35 248.311 1063 236C1056.8 232.384 1048.91 226.557 1042 224.789C1035.88 223.224 1030.39 226.668 1024 224.069C1018.04 221.648 1015.51 213.93 1008.99 213.398C1000.98 212.746 993.461 219.026 985 217.57C977.92 216.352 971.997 210.903 965 209.39C958.833 208.057 952.03 210.327 946 208.297C941.674 206.841 938.609 203.022 934 202.228C925.709 200.801 918.823 209.666 911.015 206.952C905.608 205.073 897.616 194.996 898.418 189C898.93 185.174 902.007 181.815 903 178C897.188 174.413 891.424 168.623 884 170.42C880.098 171.364 877.123 174.772 873 174.912C863.406 175.238 855.024 164.753 845 166.688C819.424 171.624 838.157 209.641 839.321 224C839.872 230.798 837.564 239.181 836.715 246C836.174 250.354 835.944 255.259 833.437 259C828.61 266.201 816.536 275.953 818.987 285.995C820.856 293.654 829.965 290.975 836 292.289C848.987 295.118 864.262 305.516 861.172 320.985C858.619 333.769 846.927 323.744 840.633 328.028C834.945 331.899 826.054 339.764 822.905 346.001C820.697 350.375 821.983 355.95 818.682 359.699C814.601 364.335 808.397 365.608 803 368z"/>
</svg>
