<?xml version="1.0" standalone="yes"?>
<svg xmlns="http://www.w3.org/2000/svg" width="1393" height="1450">
<path style="fill:#010101; stroke:none;" d="M0 0L0 1450L1393 1450L1393 0L0 0z"/>
<path style="fill:#ffffff; stroke:none;" d="M905 886C902.054 884.354 900.544 880.496 897.701 879.237C894.157 877.667 885.257 881.9 882.39 884.075C872.999 891.199 873.679 907.316 868.431 916.892C866.379 920.638 862.296 920.674 859.56 923.51C855.834 927.372 853.928 933.676 850.384 938C842.155 948.039 834.002 950.185 834 964C826.487 959.636 808.333 958.22 803.604 968.303C801.707 972.348 803.946 979.851 804.888 984C806.156 989.582 807.473 998.915 810.988 1003.49C813.049 1006.17 816.914 1006.26 818.86 1009.22C821.433 1013.14 820.213 1019.88 823.738 1023.06C827.066 1026.07 832.392 1024.61 835.593 1028.34C839.297 1032.67 835.12 1039.07 839.318 1043.48C844.067 1048.48 854.97 1057.08 862 1057.7C866.396 1058.08 871.693 1054.91 875.892 1056.5C879.742 1057.96 879.869 1062.94 883.225 1064.97C886.159 1066.75 889.95 1066.05 893 1067.86C904.451 1074.65 912.871 1081.89 926.995 1083.23C935.194 1084 933.955 1073.06 944 1076C945.685 1065.61 935.236 1065.53 934.697 1057C934.219 1049.43 942.987 1042.04 939.141 1034.04C935.529 1026.53 922.117 1024.18 922.117 1015.01C922.117 1007.05 932.706 1009.69 933.852 1002.94C934.791 997.413 935.784 989.457 934.39 984C933.241 979.5 929.617 974.762 930.016 970C931.191 955.976 937.139 942.093 938.866 928C940.056 918.286 935.818 903.795 934 894L917 894L920 876C911.966 876.067 908.447 878.719 905 886z"/>
</svg>
