<?xml version="1.0" standalone="yes"?>
<svg xmlns="http://www.w3.org/2000/svg" width="1393" height="1450">
<path style="fill:#010101; stroke:none;" d="M0 0L0 1450L1393 1450L1393 0L0 0z"/>
<path style="fill:#ffffff; stroke:none;" d="M1162 1058L1166 1067C1160.56 1069.71 1154.56 1073.9 1152.65 1080C1152.09 1081.82 1151.2 1086.51 1153.6 1087.51C1155.96 1088.49 1159.05 1085.39 1161 1084.45C1169.1 1080.55 1174.19 1082.39 1176 1091L1167 1089L1167 1102C1154.93 1102.1 1149.93 1110.82 1139 1104L1133 1116C1158.69 1127.44 1184.8 1115.97 1211 1113.34C1218.53 1112.58 1225.63 1116.8 1233 1116.53C1241.02 1116.23 1245.68 1112.12 1254 1114L1253.49 1095.27L1246 1084L1276 1071.44L1297 1072L1298 1068L1258.83 1049.3L1239 1047.64L1227.78 1036.31L1216 1039.07L1204 1034.41L1176.06 1037.01L1170.08 1049L1162 1058z"/>
</svg>
