<?xml version="1.0" standalone="yes"?>
<svg xmlns="http://www.w3.org/2000/svg" width="1393" height="1450">
<path style="fill:#010101; stroke:none;" d="M0 0L0 1450L1393 1450L1393 0L0 0z"/>
<path style="fill:#ffffff; stroke:none;" d="M554 679C558.777 694.742 576.021 692.124 588 694.522C595.174 695.958 601.606 699.396 609 700C605.889 716.035 596.051 731.122 583 740.957C572.779 748.659 559.498 750.897 550.39 760.464C545.643 765.45 542.623 773.699 540 780C560.528 780 567.512 796.956 585 803.034C601.575 808.795 616.953 794.834 633 796.631C641.243 797.554 648.023 802.914 656 804.61C661.148 805.705 668.122 803.309 672.787 806.027C679.064 809.685 681.294 818.73 690 818L689 807C693.784 808.843 707.859 816.323 712.142 812.138C715.652 808.708 713.044 802.179 715.179 798.015C717.782 792.939 723.762 791.202 726.914 786.675C731.821 779.628 734.708 770.636 740.225 764C747.579 755.153 756.81 743.437 766.004 736.558C778.962 726.862 792.596 720.291 802.374 707C806.12 701.909 808.185 695.395 813.018 691.225C818.55 686.452 836.322 687.445 832.82 676C825.943 653.523 801.838 661.182 785 659.848C777.112 659.223 770.501 655.194 762 654.985C749.419 654.677 735.37 655.239 723 652.826C716.799 651.617 711.437 647.169 705 647.083C694.64 646.943 681.444 654.185 672 652.651C665.072 651.526 662.531 641.296 655.964 641.296C651.91 641.296 649.721 645.323 646.911 647.583C642.576 651.067 632.601 655.881 627 655.944C620.738 656.014 615.869 651.62 610 650.391C605.124 649.371 601.613 653.905 597.59 653.223C594.604 652.716 592.944 649.129 589.911 648.318C583.969 646.729 569.96 647.226 564.015 648.487C549.431 651.579 565.288 664.183 563.628 671.982C562.653 676.562 557.738 677.555 554 679z"/>
</svg>
