<?xml version="1.0" standalone="yes"?>
<svg xmlns="http://www.w3.org/2000/svg" width="1393" height="1450">
<path style="fill:#010101; stroke:none;" d="M0 0L0 1450L1393 1450L1393 0L0 0z"/>
<path style="fill:#ffffff; stroke:none;" d="M1098 1081C1095.28 1085.66 1085.27 1089.48 1084.65 1094.11C1084.08 1098.32 1087.99 1102.05 1088.82 1106C1089.39 1108.69 1088.13 1111.36 1089.04 1114C1090.66 1118.71 1095.59 1122.59 1099 1126C1109.3 1136.32 1120.96 1146.62 1136 1148.7C1145.88 1150.06 1157.32 1146.88 1167 1145L1157 1121L1132 1117L1136.88 1103.32L1116.72 1098.22L1098 1081z"/>
</svg>
