<?xml version="1.0" standalone="yes"?>
<svg xmlns="http://www.w3.org/2000/svg" width="1393" height="1450">
<path style="fill:#010101; stroke:none;" d="M0 0L0 1450L1393 1450L1393 0L0 0z"/>
<path style="fill:#ffffff; stroke:none;" d="M264 493L246 485C238.228 501.621 223.865 494.627 209 495.015C198.322 495.293 192.046 501.129 183 505.457C179.161 507.294 174.259 507.803 171.357 511.225C168.5 514.594 170.429 519.147 171.079 523C171.706 526.709 171.616 531.34 173.434 534.7C177.863 542.888 183.848 543.439 180 554C185.876 553.878 192.201 551.004 198 552.42C208.953 555.095 218.409 570.022 224 579C231.912 577.17 240.816 571.168 249 571.85C264.747 573.164 289.241 600.576 279.86 616.96C273.541 627.997 243.305 626.727 246.889 643C249.943 656.868 257.911 656.606 266.606 665.39C272.526 671.371 275.423 680.068 286 679.595C295.971 679.149 299.476 670.519 308.004 668.634C316.362 666.787 327.178 672.6 333.297 664.787C342.601 652.907 325.296 642.944 334 632C339.95 644.68 346.524 636.729 357 637.708C363.054 638.274 369.91 641.613 376 640.272C380.683 639.242 384.72 633.217 389.424 633.48C406.961 634.46 419.22 653.086 435 658.3C444.932 661.582 453.915 651.391 465 654L465 648C478.769 648 490.355 654.038 504 655.714C509.703 656.414 517.74 654.261 522.911 657.028C533.706 662.804 541.278 679.492 555.996 677.276C572.861 674.738 554.076 660.298 557.408 653.019C561.575 643.916 571.789 649.402 579 648C576.265 633.854 561.894 625.433 554.857 613.985C549.638 605.494 545.557 581.869 546.938 572C547.642 566.96 550.934 562.148 552 557C544.604 553.706 533.782 545.23 526 545.18C513.151 545.096 493.046 555.307 482.305 544.772C471.381 534.058 481.455 513.101 479.772 500C478.397 489.293 465.097 484.393 459.468 476C452.851 466.133 455.714 455.086 446.575 446.148C440.462 440.17 429.703 444.202 422 441.66C409.608 437.57 398.467 421.037 384.005 422.232C377.143 422.799 377.18 429.689 375.985 435C374.492 441.638 371.119 448.763 364.985 452.2C357.95 456.141 350.51 454.075 343 455.9C336.523 457.473 331.365 461.76 325 463.51C302.43 469.716 274.997 469.474 264 493z"/>
<path style="fill:#efefef; stroke:none;" d="M395 426L396 427L395 426z"/>
</svg>
