<?xml version="1.0" standalone="yes"?>
<svg xmlns="http://www.w3.org/2000/svg" width="1393" height="1450">
<path style="fill:#010101; stroke:none;" d="M0 0L0 1450L1393 1450L1393 0L0 0z"/>
<path style="fill:#ffffff; stroke:none;" d="M1262 1049C1267.44 1057.23 1289.56 1064.28 1299 1067L1298 1073L1277 1071.73L1260 1082.06L1247 1085L1254.44 1095.22L1255 1115L1266 1115C1266.47 1125.81 1273.19 1126.79 1279.91 1134C1286.25 1140.82 1289.97 1149.06 1300 1151C1305.73 1137.98 1313.8 1144.9 1322.68 1138.97C1326.99 1136.1 1323.64 1129.14 1327.43 1125.51C1331.71 1121.42 1339.57 1124.86 1345 1123C1342.33 1118.72 1338.7 1114.81 1336.97 1110C1335.62 1106.23 1336.86 1101.63 1334.4 1098.3C1329.12 1091.18 1319.45 1089.89 1314.25 1082C1311.7 1078.13 1309.35 1072.7 1309.53 1068C1309.66 1064.57 1311.9 1058.72 1309.93 1055.64C1303.59 1045.67 1291.65 1050.46 1283 1050.53C1275.64 1050.58 1269.76 1048.02 1262 1049z"/>
</svg>
