<?xml version="1.0" standalone="yes"?>
<svg xmlns="http://www.w3.org/2000/svg" width="1393" height="1450">
<path style="fill:#010101; stroke:none;" d="M0 0L0 1450L1393 1450L1393 0L0 0z"/>
<path style="fill:#ffffff; stroke:none;" d="M1158 1121C1158.02 1126.58 1159.29 1129.39 1162.38 1134C1164.35 1136.94 1165.39 1141.97 1168.42 1143.97C1171.78 1146.2 1179.01 1145.6 1183 1146.05C1204.06 1148.41 1217.3 1139.85 1237 1134.87C1246.96 1132.35 1266.39 1127.29 1265 1116C1258.84 1116 1252.86 1113.24 1247 1113.4C1241.77 1113.54 1237.42 1117.41 1232 1117.24C1224.95 1117.01 1218.19 1113.59 1211 1114.19C1193.14 1115.67 1176.18 1124 1158 1121z"/>
</svg>
