<?xml version="1.0" standalone="yes"?>
<svg xmlns="http://www.w3.org/2000/svg" width="1393" height="1450">
<path style="fill:#010101; stroke:none;" d="M0 0L0 1450L1393 1450L1393 0L0 0z"/>
<path style="fill:#ffffff; stroke:none;" d="M668 847L669 842L674 842C675.27 851.378 686.284 865.997 696.848 857.436C701.301 853.827 698.274 847.831 699.637 843C702.018 834.563 710.364 819.87 700.486 812.139C697.778 810.019 693.208 809.236 690 808L691 819C681.795 818.744 679.653 809.88 672.61 806.603C668.102 804.506 661.838 806.639 657 805.61C648.323 803.765 641.078 798 632 797.326C628.038 797.032 608.716 799.158 612.238 805.737C615 810.897 623.316 809.497 628 810.213C634.665 811.232 645.657 817.064 650.606 821.637C656.912 827.464 651.907 834.791 655.272 840.49C657.2 843.755 664.612 845.591 668 847z"/>
</svg>
