<?xml version="1.0" standalone="yes"?>
<svg xmlns="http://www.w3.org/2000/svg" width="1393" height="1450">
<path style="fill:#010101; stroke:none;" d="M0 0L0 1450L1393 1450L1393 0L0 0z"/>
<path style="fill:#ffffff; stroke:none;" d="M421 1193C418.47 1203.65 422.659 1209.9 426.644 1219C428.201 1222.56 427.402 1226.34 429.272 1229.95C431.355 1233.96 434.972 1236.55 436.377 1241C438.205 1246.8 435.607 1258.22 439.603 1262.64C442.524 1265.87 448.972 1264.29 452.787 1267.61C458.31 1272.41 460.605 1281.03 464.954 1286.9C466.93 1289.56 470.336 1290.73 472.167 1293.39C475.63 1298.42 469.728 1306.35 470.62 1312C472.028 1320.93 480.144 1330.74 484 1339L486 1339C504.045 1310.02 530.264 1286.92 564 1277.43C574.156 1274.57 585.345 1280.6 595 1276.2C616.778 1266.27 616.675 1249.7 620.023 1230C621.034 1224.05 625.376 1218.57 621.566 1212.31C619.575 1209.05 606.822 1205.39 603 1204.41C596.102 1202.65 582.882 1200.03 576 1201.68C564.907 1204.34 555.749 1210.71 544 1211.83C522.778 1213.86 500.877 1208.85 480 1210.39C463.89 1211.58 449.681 1224.97 433.039 1215.06C424.203 1209.8 425.997 1200.19 421 1193z"/>
</svg>
