<?xml version="1.0" standalone="yes"?>
<svg xmlns="http://www.w3.org/2000/svg" width="1393" height="1450">
<path style="fill:#010101; stroke:none;" d="M0 0L0 1450L1393 1450L1393 0L0 0z"/>
<path style="fill:#ffffff; stroke:none;" d="M940 923C939.822 938.98 931.735 954.231 930.6 970C930.233 975.106 934.175 980.162 935.39 985C936.648 990.011 935.699 997.85 934.852 1002.96C933.581 1010.62 921.747 1007.2 923.153 1016.96C924.434 1025.85 938.279 1026.94 940.334 1036C942.145 1043.99 933.587 1051.34 935.739 1058.9C936.766 1062.5 940.297 1063.61 942.603 1066.21C945.338 1069.3 944.223 1074.49 947.332 1076.91C954.076 1082.16 966.041 1078 972.787 1082.1C978.624 1085.65 978.342 1093.66 986.015 1095.37C996.373 1097.67 994.496 1091.24 999.514 1085.33C1002.44 1081.88 1008.01 1078.39 1012 1076.3C1028.57 1067.61 1042.28 1079.3 1055 1088C1058.13 1079.42 1049.17 1060.26 1060.15 1053.9C1063.27 1052.1 1068.4 1053.78 1072 1053L1070 1046C1080.51 1043.03 1094.55 1047.84 1105 1050L1103 1031L1116 1024C1113.84 1016.67 1110.08 1014.1 1103 1018C1102.21 1014.16 1102.71 1009.41 1100.75 1006C1096.44 998.477 1086.4 992.823 1084.45 984.004C1082.74 976.279 1099.26 974.445 1093.39 967.317C1090.41 963.693 1083.1 964.82 1079 962.286C1073 958.578 1069.36 952.86 1063.99 948.518C1052.63 939.347 1043.74 935.553 1039 921C1030.91 922.633 1028.18 934.437 1020.98 934.667C1007.17 935.108 1003.6 917.574 991 914.255C983.31 912.228 979.07 917.081 972 918.61C965.831 919.943 959.3 918.231 953.089 919.143C948.596 919.804 944.677 922.392 940 923z"/>
</svg>
