<?xml version="1.0" standalone="yes"?>
<svg xmlns="http://www.w3.org/2000/svg" width="1393" height="1450">
<path style="fill:#010101; stroke:none;" d="M0 0L0 1450L1393 1450L1393 0L0 0z"/>
<path style="fill:#ffffff; stroke:none;" d="M566 1082C562.292 1088.39 562.717 1099.37 557.57 1104.36C552.652 1109.13 543.146 1108.19 539.573 1114.13C535.996 1120.08 539.921 1129.55 533.606 1134.36C529.127 1137.77 522.57 1134.16 517.514 1138.64C507.321 1147.67 503.969 1163.33 489 1166C488.086 1170.63 487.265 1173.61 483 1176L484 1192C500.335 1189.92 511.06 1181.14 526 1176.25C532.746 1174.05 538.507 1179.2 545 1175.52C556.244 1169.14 561.122 1158.12 571.004 1151.22C576.447 1147.42 584.522 1143.23 591 1141.68C595.219 1140.66 599.877 1143.18 603.272 1139.43C607.298 1134.98 606.621 1127.32 608.879 1122.04C611.116 1116.81 618.195 1115.44 619.682 1109.91C622.027 1101.19 616.361 1093.14 615.217 1085C613.711 1074.29 622.361 1060.78 608.907 1053.46C601.322 1049.33 585.317 1058.21 581.569 1065.1C577.39 1072.79 578.48 1085.27 566 1082z"/>
</svg>
