<?xml version="1.0" standalone="yes"?>
<svg xmlns="http://www.w3.org/2000/svg" width="1393" height="1450">
<path style="fill:#010101; stroke:none;" d="M0 0L0 1450L1393 1450L1393 0L0 0z"/>
<path style="fill:#ffffff; stroke:none;" d="M396 1022C401.071 1025.16 407.448 1028.97 409.347 1035C411.415 1041.56 409.093 1048.45 412.036 1055C416.603 1065.17 424.679 1072.64 430.468 1082C434.775 1088.97 436.576 1096.67 440 1104C454.059 1102.11 467.152 1098.19 481 1095.33C484.526 1094.61 493.112 1090.12 496.275 1091.99C503.673 1096.37 491.786 1106.62 490.345 1111C486.935 1121.36 490.879 1129.07 491.698 1139C492.406 1147.59 489.006 1156.35 489 1165C503.856 1163.48 507.605 1147.4 517.325 1138.39C522.558 1133.54 528.685 1137.17 533.348 1133.96C539.128 1129.98 535.584 1119.47 539.148 1114.05C543.208 1107.88 551.536 1109.11 556.697 1104.36C561.215 1100.2 563.278 1086.98 565 1081C578.502 1085.6 576.183 1071.6 581.703 1064.1C585.889 1058.42 594.022 1057.51 598.397 1051.57C602.307 1046.27 608.596 1032.59 609.496 1026C610.23 1020.62 608.142 1016.41 610 1011C599.783 1004.94 579.022 1001.16 569.468 1010.39C565.349 1014.37 565.154 1021.74 560.721 1024.91C554.991 1029.01 547.231 1025.51 541 1027.73C532.827 1030.63 524.476 1039.14 516 1040.55C499.49 1043.29 491.634 1032.11 479 1025.07C471.224 1020.74 462.221 1019.93 454 1016.91C448.454 1014.87 443.841 1011.29 438 1009.9C424.884 1006.78 403.369 1010.25 396 1022z"/>
</svg>
