<?xml version="1.0" standalone="yes"?>
<svg xmlns="http://www.w3.org/2000/svg" width="1393" height="1450">
<path style="fill:#010101; stroke:none;" d="M0 0L0 1450L1393 1450L1393 0L0 0z"/>
<path style="fill:#ffffff; stroke:none;" d="M553 557C551.663 561.7 548.55 566.324 547.679 571C545.829 580.933 550.647 605.011 555.314 613.961C558.172 619.442 564.371 623.922 568.116 629C571.74 633.915 575.528 642.573 580.609 645.972C583.338 647.798 586.989 646.473 589.961 647.603C592.86 648.705 594.811 652.558 598.039 652.659C602.075 652.786 604.517 648.634 609 649.41C624.141 652.029 632.132 658.334 646.829 647.301C656.87 639.764 651.494 628.274 651.039 618C650.775 612.016 648.332 605.794 648.485 600C648.74 590.357 654.43 583.871 646.861 574.564C643.982 571.024 637.8 572.275 634.224 569.347C631.096 566.787 630.23 562.791 625.982 561.576C622 560.438 618 562.258 614 561.031C607.193 558.942 600.364 553.064 593 553.387C589.034 553.56 585.918 556.562 582 556.845C577.25 557.187 572.932 554.486 568 555.214C562.143 556.078 559.102 558.791 553 557z"/>
</svg>
