<?xml version="1.0" standalone="yes"?>
<svg xmlns="http://www.w3.org/2000/svg" width="1393" height="1450">
<path style="fill:#010101; stroke:none;" d="M0 0L0 1450L1393 1450L1393 0L0 0z"/>
<path style="fill:#ffffff; stroke:none;" d="M746 544L755.004 537.334L767.262 537.357L775.109 520.036L813.83 514.976L823.001 507.558L837.787 501.581L860 481L857 460C849.272 457.083 843.471 451.53 836 448.715C827.76 445.61 819.981 452.251 815.971 440.999C813.629 434.428 818.712 429.649 821.197 424C823.221 419.397 824.003 411.055 823.725 406C823.082 394.278 812.112 391.376 807.303 382.895C805.091 378.992 805.733 370.457 800.776 368.694C794.784 366.562 792.831 373.322 790.034 376.721C787.891 379.325 784.021 379.504 782.175 382.303C778.06 388.544 778.95 397.385 774.377 404C766.362 415.595 755.466 423.431 750.323 437C744.456 452.482 748.412 469.938 747.985 486C747.807 492.712 742.84 496.472 742.171 503.001C741.205 512.413 746.051 517.406 747.237 526C748.082 532.123 744.87 537.631 746 544z"/>
</svg>
