<?xml version="1.0" standalone="yes"?>
<svg xmlns="http://www.w3.org/2000/svg" width="1393" height="1450">
<path style="fill:#010101; stroke:none;" d="M0 0L0 1450L1393 1450L1393 0L0 0z"/>
<path style="fill:#ffffff; stroke:none;" d="M221 813L232 817L227.464 847L228.603 856.933L255 854.015L277.039 863.103L288 862.298L297 866L295.853 837L307 819C299.321 814.153 292.739 801.326 292.793 792C292.823 786.899 295.887 782.168 295.617 777C294.913 763.579 288.27 745.92 300.727 734.643C303.111 732.485 307.108 734.151 310 733.595C313.876 732.85 317.061 730.035 321 729.56C325.587 729.007 330.568 731.8 335 729.972C341.928 727.116 347.063 720.276 354 716.985C359.769 714.249 365.866 715.15 370.37 709.942C377.87 701.268 378.16 682.547 368.895 674.904C362.186 669.369 354.727 671.341 347.104 668.775C342.646 667.275 339.927 664.037 335 663C329.014 673.357 317.674 667.714 308.015 669.444C302.764 670.384 301.065 674.281 296.91 676.995C289.513 681.824 282.171 680.319 275.015 676.204C264.682 670.261 254.688 646.818 239.189 657.995C229.927 664.674 237.816 673.072 240.892 680.004C242.959 684.662 247.651 692.558 247.729 697.576C247.784 701.095 245.873 704.301 246.094 708C246.33 711.954 248.937 716.927 247.382 720.787C246.597 722.734 244.743 723.742 243.15 724.942C241.145 726.454 238.862 729.113 236.09 727.941C230.759 725.687 222.937 704.763 216.269 719.093C214.717 722.43 216.657 726.545 216.91 730C217.3 735.331 216.351 740.803 217.901 746C219.875 752.618 224.694 758.37 226.137 765C227.452 771.044 223.296 777.013 222.428 783C220.964 793.111 223.07 802.959 221 813z"/>
</svg>
