<?xml version="1.0" standalone="yes"?>
<svg xmlns="http://www.w3.org/2000/svg" width="1393" height="1450">
<path style="fill:#010101; stroke:none;" d="M0 0L0 1450L1393 1450L1393 0L0 0z"/>
<path style="fill:#ffffff; stroke:none;" d="M444 442L444 443C447.557 446.862 452.223 451.111 454.297 456C457.452 463.437 456.115 471.057 461.171 477.985C466.804 485.706 478.796 489.809 480.57 500C482.708 512.28 472.578 533.224 481.724 543.772C492.454 556.149 514.733 542.201 527.999 544.522C537.956 546.265 545.886 556.112 557 557.377C561.657 557.908 565.409 554.372 570 554.145C574.459 553.924 578.596 556.894 583 556.178C587.71 555.413 590.921 551.888 596 552.971C602.334 554.321 607.732 558.71 614 560.362C618.662 561.591 623.407 559.204 627.892 561.573C634.771 565.207 635.056 572.307 644.907 571.682C648.541 571.452 650.209 567.872 653.093 566.134C659.667 562.174 668.732 559.392 674.1 553.722C681.882 545.504 689.886 524.34 688.557 513C686.388 494.485 671.137 476.756 684.684 459C687.359 455.494 690.511 452.66 694 450L686.774 440L688.273 428L685 412C695.574 410.539 693.396 405.35 698.028 398.419C699.965 395.519 703.951 395.706 706.61 393.861C710.684 391.035 711.81 387.101 717.001 385.441C723.282 383.431 727.873 386.252 734 385.556C744.95 384.313 755.537 379.826 766 378.56C772.744 377.745 779.274 381.347 785.957 378.736C790.761 376.859 791.226 371.614 795.213 368.938C802.134 364.294 812.605 366.94 818.397 359.532C823.278 353.287 820.722 344.68 828.104 338.61C831.74 335.62 838.06 328.137 842.105 326.619C848.247 324.313 859.727 332.258 860.591 319.985C861.639 305.096 850.355 296.199 837 293.289C830.831 291.945 821.531 294.097 818.697 286.995C814.089 275.446 831.531 265.413 834.277 256C836.758 247.494 839.748 231.711 838.521 223C836.57 209.153 825.15 190.131 832.889 176.089C835.136 172.012 840.355 168.767 844 166C837.509 152.011 845.614 138.645 840.11 125.015C836.357 115.719 824.797 114.027 818.171 107.787C813.272 103.174 810.228 97.0129 805.816 92C801.884 87.533 796.142 84.1194 793.086 78.9854C786.126 67.2948 783.329 45.2076 764.09 46.3186C758.504 46.6412 756.903 53.5078 756.289 58C754.953 67.7676 757.506 86.9104 752.397 95C744.183 108.005 727.571 110.221 716.213 118.966C707.77 125.467 708.08 133.499 696 136.664C691.419 137.864 687.557 135.027 683 135.213C675.823 135.505 670.432 139.064 664 141.648C653.089 146.033 631.884 135.472 626.928 150.039C621.108 167.149 622.957 191.496 629.955 208C636.269 222.888 648.643 244.809 636.914 260.721C632.573 266.61 623.896 260.253 619 258.15C608.264 253.539 595.635 250.268 586.39 260.301C575.789 271.807 578.388 292.256 582.301 306C584.701 314.429 591.44 321.402 585.057 329.956C577.176 340.518 558.33 337.435 547 341.093C534.41 345.157 524.627 356.415 511 357.363C502.336 357.965 490.63 349.167 482.434 354.434C478.001 357.283 481.77 366.114 482.913 370C486.872 383.463 488.233 397.069 482.968 410.996C478.916 421.714 467.068 419.258 459.004 424.13C452.018 428.349 449.468 436.233 444 442z"/>
</svg>
