<?xml version="1.0" standalone="yes"?>
<svg xmlns="http://www.w3.org/2000/svg" width="1393" height="1450">
<path style="fill:#010101; stroke:none;" d="M0 0L0 1450L1393 1450L1393 0L0 0z"/>
<path style="fill:#ffffff; stroke:none;" d="M788 967C787.394 978.649 779.148 974.906 771 979L773 985L767 987L756 975C750.128 990.564 755.459 995.156 763.757 1008C767.236 1013.39 766.187 1022.55 770.318 1026.68C774.47 1030.83 784.47 1029.18 790 1030.31C794.515 1031.24 797.05 1035.07 801.17 1036.23C804.855 1037.27 809.189 1035.01 813 1035.21C821.251 1035.63 828.235 1038.78 836 1041C836.033 1029.22 834.979 1025.56 822 1025C821.376 1020.17 820.933 1012.2 817.436 1008.51C815.101 1006.05 811.198 1006.03 809.563 1002.78C804.528 992.761 802.092 978.124 802 967L788 967z"/>
</svg>
