<?xml version="1.0" standalone="yes"?>
<svg xmlns="http://www.w3.org/2000/svg" width="1393" height="1450">
<path style="fill:#010101; stroke:none;" d="M0 0L0 1450L1393 1450L1393 0L0 0z"/>
<path style="fill:#ffffff; stroke:none;" d="M296 1242C297.232 1247.19 301.343 1252.61 299.475 1258C296.514 1266.54 284.599 1272.62 284.518 1282C284.462 1288.44 290.25 1294.6 293.088 1300C296.408 1306.32 297.544 1314.95 296.715 1322C296.248 1325.97 296.244 1330.37 294.442 1334C291.514 1339.89 283.042 1348.39 285.693 1355.78C286.908 1359.16 292.316 1360.38 295 1362.38C302.211 1367.76 309.555 1373.25 318 1376.65C321.87 1378.2 326.302 1377.37 329.985 1379.32C337.352 1383.22 339.445 1393.8 344.68 1399.9C349.784 1405.84 359.89 1409.07 367 1412C371.608 1401.01 382.906 1399.07 390.83 1390.91C396.401 1385.18 401.139 1378.47 404.073 1371C408.884 1358.76 408.149 1348.51 423 1344.76C432.976 1342.24 437.317 1349.12 446 1351.88C453.085 1354.13 477.327 1349.32 482.242 1343.36C486.98 1337.62 474.115 1321.4 471.406 1316C467.611 1308.44 474.283 1302.22 472.223 1295.1C471.241 1291.71 467.02 1290.45 464.965 1287.79C460.243 1281.67 458.066 1271.94 451.787 1267.25C448.251 1264.6 444.609 1265.81 441.059 1264.03C430.617 1258.78 441.538 1233.9 426.687 1228.42C415.179 1224.16 409.081 1239.83 400 1240.08C394.29 1240.23 388.736 1235.22 383 1234.33C375.156 1233.11 367.654 1237.41 360 1237.15C353.302 1236.92 346.979 1232.96 340 1233.38C331.275 1233.91 321.721 1241.26 313 1243.39C307.615 1244.7 301.4 1242.68 296 1242z"/>
</svg>
