<?xml version="1.0" standalone="yes"?>
<svg xmlns="http://www.w3.org/2000/svg" width="1393" height="1450">
<path style="fill:#010101; stroke:none;" d="M0 0L0 1450L1393 1450L1393 0L0 0z"/>
<path style="fill:#ffffff; stroke:none;" d="M714 814L703 813C704.002 818.147 706.518 823.715 705.783 829C705.081 834.051 701.456 838.063 700.39 843C699.562 846.841 701.197 851.459 699.227 854.981C691.012 869.664 675.701 852.223 673 843L670 843L669 848L664 846C665.867 856.211 665.195 872.1 677 877L678 865C682.781 867.004 688.611 869.881 690.717 875.001C692.845 880.175 689.693 882.917 695 887L695 888C683.221 895.66 682.914 898.239 684 912C696.154 909.652 698.531 916.177 703.373 926C704.787 928.867 708.172 932.422 708.322 935.7C708.466 938.87 703.328 940.439 704.497 943.721C707.073 950.953 720.608 940.874 722 937L739.721 954L744.572 965.79L767 986L772 984L770 979C778.654 974.985 786.896 977.449 787 966C792.731 965.754 799.461 966.471 805 965.326C816.877 962.873 820.434 958.416 833 962C833.108 949.17 845.444 944.744 852.51 935C855.062 931.481 855.968 926.626 858.727 923.419C861.271 920.461 865.609 920.412 867.697 916.867C873.054 907.771 873.5 896.23 879.352 887.044C882.338 882.355 887.905 882.449 891.142 878.501C893.736 875.337 893.757 867.983 894.232 864C895.189 855.986 889.422 853.958 886.514 847.896C884.081 842.824 882.374 832.995 881.429 827.424C879.294 814.84 879.327 801.515 875.986 789C870.417 768.135 860.482 747.502 857.527 726C855.523 711.418 859 696.941 859 682C853.39 680.943 840.547 676.341 835.379 679.117C831.858 681.009 831.041 685.361 826.96 686.852C821.3 688.92 815.688 688.156 811.279 693.108C805.584 699.504 803.657 710.633 796.775 716.034C786.517 724.086 773.869 729.865 764.089 738.34C748.451 751.893 738.642 769.001 727.914 785.907C725.128 790.298 719.675 791.938 716.742 796.174C713.77 800.467 714.405 808.871 714 814z"/>
</svg>
