<?xml version="1.0" standalone="yes"?>
<svg xmlns="http://www.w3.org/2000/svg" width="1393" height="1450">
<path style="fill:#010101; stroke:none;" d="M0 0L0 1450L1393 1450L1393 0L0 0z"/>
<path style="fill:#ffffff; stroke:none;" d="M1104 1031L1107.93 1059L1099 1080L1116.04 1097.32L1135 1100.85L1147 1107.71L1166 1101L1167 1088L1175 1090C1171.73 1075.21 1161.23 1089.93 1153.72 1088.23C1146 1086.49 1155.84 1074.18 1158.01 1072.17C1160.18 1070.18 1162.52 1068.55 1165 1067C1160.57 1056.26 1170.51 1050.51 1171 1039C1158.13 1043.2 1146.55 1042.99 1133 1043C1142.11 1020.5 1116.15 1025.33 1104 1031z"/>
</svg>
