<?xml version="1.0" standalone="yes"?>
<svg xmlns="http://www.w3.org/2000/svg" width="1393" height="1450">
<path style="fill:#010101; stroke:none;" d="M0 0L0 1450L1393 1450L1393 0L0 0z"/>
<path style="fill:#ffffff; stroke:none;" d="M175 561C165.486 576.937 138.924 572.526 124 576.43C117.456 578.142 112.275 584.292 106 587C107.935 596.375 109.972 607.302 101.891 614.772C99.0077 617.438 94.3449 617.6 91.8573 620.513C89.8031 622.919 89.7859 626.409 87.686 628.895C84.7582 632.361 78.6282 633.478 77.3171 638.105C76.0143 642.703 76.3376 647.392 74.5363 652C73.187 655.452 69.3802 660.112 69.9938 663.961C71.3919 672.729 81.0963 674.607 77.2978 686C74.3631 694.803 63.9452 696.74 60.9082 704.185C59.0588 708.719 62.518 713.374 61.0818 718C59.2957 723.754 54.3191 728.073 52.6373 734C51.1158 739.362 53.7936 744.724 52.3588 750C50.8385 755.591 46.6848 760.094 46.1049 766C44.9609 777.652 50.4041 788.444 49.8958 800C49.4355 810.467 44.229 830.133 51.0239 839.487C53.6012 843.035 61.9951 843.998 66 845.333C73.6457 847.882 82.7425 849.313 89.9853 852.513C96.4301 855.361 99.5039 859.032 107 860L112 880C117.432 880 129.856 883.4 134.272 879.972C141.243 874.562 138.903 861.293 151 859.719C166.648 857.684 167.987 877.341 180.004 880.257C188.967 882.432 196.982 871.471 203 866.62C209.101 861.701 219.131 862.338 224.397 857.157C226.781 854.81 226.039 850.063 226.666 847C228.79 836.626 228.272 827.245 230 817L220 813C222.717 803.333 220 793.861 221.428 784C222.362 777.558 226.628 771.555 225.366 765C223.59 755.777 216.306 748.879 216.015 739C215.816 732.2 211.795 714.494 222.7 713.693C228.648 713.256 233.015 726.855 239 729C241.129 726.346 245.104 723.917 246.393 720.791C248.042 716.791 245.502 712.04 245.189 708C244.889 704.119 247.246 700.748 246.973 697C246.594 691.792 241.522 680.448 238.298 676.3C231.529 667.594 220.634 662.682 213.419 654.674C209.884 650.751 211.304 644.224 207.486 640.843C203.452 637.271 196.346 638.864 192.857 634.57C189.682 630.662 189.783 623.626 187.687 619C185.79 614.814 181.711 611.915 179.99 607.911C178.157 603.645 183.108 600.153 183.188 596C183.28 591.24 178.611 587.653 177.938 583C176.735 574.672 184.31 566.82 175 561z"/>
</svg>
