<?xml version="1.0" standalone="yes"?>
<svg xmlns="http://www.w3.org/2000/svg" width="1393" height="1450">
<path style="fill:#010101; stroke:none;" d="M0 0L0 1450L1393 1450L1393 0L0 0z"/>
<path style="fill:#ffffff; stroke:none;" d="M893 879L905 885C911.736 872.925 930.569 868.787 943 868L931.354 846L928.698 824L920.363 810.637L909.966 802.895L901 777C908.143 779.26 924.848 785.021 931.996 782.94C937.816 781.245 940.976 775.584 947 773.889C954.101 771.89 966.867 770.426 967.911 760.999C969.164 749.683 952.961 741.379 957.835 729C960.499 722.234 963.632 716.099 969.004 711.093C972.509 707.827 978.384 705.522 980.973 701.482C992.924 682.831 979.615 665.034 970.509 649C968.699 645.812 969.457 640.247 966.987 637.661C964.05 634.586 953.849 643.282 950 643.883C943.073 644.964 935.304 640.176 928 641.317C913.709 643.55 907.142 653.423 895 659.085C885.662 663.439 867.863 662 860.742 669.702C857.549 673.156 859.946 679.806 859.996 684C860.142 696.275 857.834 707.731 858.508 719.714C859.852 743.582 870.79 766.787 876.986 790C880.296 802.4 879.73 815.655 882.199 828C883.283 833.422 884.899 843.835 887.513 848.61C889.768 852.73 893.505 853.836 894.578 859.001C895.861 865.178 893.787 872.775 893 879z"/>
</svg>
