<?xml version="1.0" standalone="yes"?>
<svg xmlns="http://www.w3.org/2000/svg" width="1393" height="1450">
<path style="fill:#010101; stroke:none;" d="M0 0L0 1450L1393 1450L1393 0L0 0z"/>
<path style="fill:#ffffff; stroke:none;" d="M256 1043C259.623 1056.28 264.575 1071.58 266.556 1085C267.28 1089.91 264.544 1094.83 265.185 1100C267.376 1117.66 278.57 1130.2 294 1137.53C299.326 1140.06 307.034 1136.97 313 1137.87C320.272 1138.98 326.417 1141.4 334 1140.44C343.061 1139.3 340.605 1133.65 344.603 1128.19C348.191 1123.29 357.326 1121.83 363 1122.6C372.611 1123.91 384.349 1130.79 390.436 1138.32C392.911 1141.39 392.211 1146.63 395.572 1148.97C400.209 1152.2 411.484 1151 417 1151C417.527 1155.99 415.641 1161.22 416.649 1166C417.678 1170.88 421.437 1175.07 422.038 1180C423.315 1190.47 421.204 1207.06 432.174 1214.06C456.22 1229.4 490.323 1202.26 482 1176C489.146 1172.6 487.449 1165.76 488.174 1159C488.88 1152.41 491.218 1145.71 490.856 1139C490.329 1129.24 487.628 1122.61 489.318 1112.42C490.083 1107.82 502.702 1097.65 496.396 1092.82C493.634 1090.7 486.065 1094.86 483 1095.62C473.059 1098.1 460.981 1102.45 451 1103.04C447.793 1103.22 443.249 1105.11 440.34 1103.22C435.761 1100.25 435.009 1091.66 432.741 1087C426.624 1074.44 414.774 1065.34 410.248 1052C407.59 1044.17 411.425 1034.93 404.786 1028.67C390.317 1015.01 374.52 1034.91 358 1035.1C353.686 1035.15 350.197 1032.01 346 1031.56C337.21 1030.64 325.441 1034.09 317 1031.09C310.568 1028.81 306.469 1021.58 299 1021.51C281.667 1021.37 269.751 1035.64 256 1043z"/>
</svg>
