<?xml version="1.0" standalone="yes"?>
<svg xmlns="http://www.w3.org/2000/svg" width="1393" height="1450">
<path style="fill:#010101; stroke:none;" d="M0 0L0 1450L1393 1450L1393 0L0 0z"/>
<path style="fill:#ffffff; stroke:none;" d="M333 633L336 662C353.76 669.246 386.727 674.919 375.15 703C369.668 716.296 356.429 715.034 346 722.093C341.716 724.992 337.398 730.707 332 731.261C327.987 731.673 324.018 729.737 320 730.43C316.095 731.103 312.925 733.932 309 734.52C305.906 734.984 302.557 733.342 300.379 736.322C294.091 744.925 291.923 757.401 293.48 768C293.995 771.508 296.366 774.358 296.348 778C296.306 786.506 292.365 791.367 295.576 800C297.814 806.019 299.819 817.685 308.001 818.191C320.471 818.964 331.652 798.68 342.039 793.649C352.539 788.563 366.869 780.561 379 781.498C387.391 782.147 395.311 787.029 404 787.674C416.817 788.625 430.987 779.09 431 799C438.792 796.631 443.168 787.785 452 786.703C462.299 785.441 474.555 790.315 485 790.907C502.257 791.884 521.745 788.003 536.895 780.348C542.543 777.494 544.245 769.079 547.352 764.015C550.301 759.207 555.389 755.842 560 752.749C566.904 748.118 575.117 746.038 582 741.402C595.216 732.501 604.997 716.475 608 701L588 695.326L572 694.204L523.714 658.028L505 656.714L466 649L466 655C454.784 652.331 444.77 662.179 435 658.931C419.636 653.823 406.471 633.893 389 634.151C384.149 634.223 380.646 639.634 376 640.86C369.936 642.461 363.029 639.124 357 638.479C351.192 637.859 344.752 643.187 339.21 639.972C336.59 638.452 335.045 635.173 333 633z"/>
</svg>
