<?xml version="1.0" standalone="yes"?>
<svg xmlns="http://www.w3.org/2000/svg" width="1393" height="1450">
<path style="fill:#010101; stroke:none;" d="M0 0L0 1450L1393 1450L1393 0L0 0z"/>
<path style="fill:#ffffff; stroke:none;" d="M964 862C958.81 861.454 954.399 864.206 951 868C963.059 872.09 975.055 876.375 982.397 888C986.386 894.318 982.277 902.969 985.148 909.772C986.77 913.613 992.755 913.836 996 915.989C1004.4 921.567 1010.12 935.202 1021.9 933.812C1027.58 933.14 1032.46 922.876 1038 920C1036.81 911.136 1034.56 904.071 1036.48 895C1037.63 889.548 1041.56 885.824 1044 881C1046.63 875.827 1047.44 869.962 1050.56 865C1058.06 853.077 1068.19 842.673 1076.1 831C1080.51 824.495 1079.24 813.613 1083.74 808.333C1089.81 801.217 1101.92 810.896 1105.99 796.999C1107.63 791.416 1102.94 787.388 1100.34 783C1097.25 777.788 1091.69 763.797 1091.19 758C1090.06 744.848 1106.86 733.397 1110.36 721C1112.16 714.645 1107.52 711.758 1106.52 705.999C1105.47 699.94 1108.34 693.262 1111 688C1091.64 690.102 1089.42 714.862 1075 723.968C1070.53 726.789 1065.67 725.022 1061 726.854C1055.01 729.207 1049.67 734.093 1044 737.19C1040.7 738.995 1036.46 738.996 1033.39 741.14C1027.71 745.097 1029.35 754.031 1023.79 758.272C1019.27 761.711 1012.61 760.488 1008.34 764.43C1004.2 768.252 1004.61 774.261 1002.16 778.985C999.102 784.895 993.274 791.425 989.351 796.999C985.275 802.791 979.017 804.618 974.059 809.213C969.392 813.537 963.473 824.987 961.256 831C956.617 843.584 967.293 850.081 964 862z"/>
</svg>
