<?xml version="1.0" standalone="yes"?>
<svg xmlns="http://www.w3.org/2000/svg" width="1393" height="1450">
<path style="fill:#010101; stroke:none;" d="M0 0L0 1450L1393 1450L1393 0L0 0z"/>
<path style="fill:#ffffff; stroke:none;" d="M1071 1046L1073 1054C1069.59 1054.36 1062.12 1052.49 1059.6 1054.69C1052.8 1060.66 1055.97 1074.73 1056.85 1082C1057.36 1086.15 1055.86 1089.12 1058.27 1093C1064.17 1102.52 1076.88 1108.17 1087 1112C1090.38 1104.62 1081.35 1098.59 1084.42 1092.28C1086.27 1088.48 1092.43 1088.08 1095.21 1084.79C1099.67 1079.5 1110.05 1057.75 1105.3 1052.43C1100.67 1047.25 1091.17 1048.37 1085 1047.41C1080.26 1046.67 1075.79 1045.25 1071 1046z"/>
</svg>
