<?xml version="1.0" standalone="yes"?>
<svg xmlns="http://www.w3.org/2000/svg" width="1393" height="1450">
<path style="fill:#010101; stroke:none;" d="M0 0L0 1450L1393 1450L1393 0L0 0z"/>
<path style="fill:#ffffff; stroke:none;" d="M695 449L695 450C691.702 451.907 688.921 454.057 686.468 457.015C669.054 478.016 692.469 495.521 689.393 517C687.672 529.019 682.307 547.443 672.7 555.491C666.595 560.605 652.269 563.416 649.129 571.044C646.579 577.237 652.409 581.861 652.664 587.576C652.866 592.09 649.045 596.178 649.275 601C649.89 613.923 653.998 626.769 654 640L672 652.152L685 648.594L704 646.213L730 653C721.673 642.63 708.929 626.447 709.883 612C710.492 602.773 720.402 598.472 725.298 591.83C729.096 586.678 729.767 580.045 734.329 575.184C739.249 569.941 751.077 560.042 758 558.318C763.736 556.889 769.346 559.219 774.999 559.429C777.482 559.521 780.007 557.955 782.424 558.55C786.431 559.537 789.882 562.811 794 564C788.848 579.84 797.772 590.093 806.135 603C809.619 608.377 810.731 614.819 814.147 620C820.058 628.965 828.506 636.77 835.411 645C841.009 651.673 847.238 664.463 856.015 667.053C862.158 668.866 868.132 665.331 874 663.898C881.627 662.037 889.93 661.282 897 657.597C902.315 654.828 905.237 649.822 910.039 646.6C913.99 643.949 923.311 641.597 928 640.599C942.075 637.601 950.862 647.712 963.786 636.1C970.603 629.976 969.995 617.88 974.313 610C979.469 600.592 992.294 595.27 996.4 586.621C1000.33 578.354 995.941 569.341 996.263 561C996.65 550.987 1003.28 540.056 1005.33 530C1006.33 525.14 1004.14 518.995 1005.68 514.576C1009.33 504.08 1021.09 496.176 1027.03 487C1033.79 476.566 1035.43 462.077 1036.81 450C1037.83 441.144 1029.85 441.593 1026.32 434.985C1020.49 424.088 1021.83 416.015 1025 405C1018.23 405 1008.47 403.828 1002.39 407.434C998.778 409.576 998.138 414.005 993.957 415.751C986.507 418.861 976.749 418.96 970.089 423.703C959.931 430.937 951.839 441.766 940 446.988C933.723 449.756 925.861 444.447 919 445.174C912.914 445.818 900.123 446.814 895.001 449.448C884.636 454.778 874.809 472.712 870 483C853.472 474.181 845.763 497.653 834.996 503.911C830.675 506.423 825.335 506.48 821.039 509.086C816.514 511.83 814.568 516.095 809 517.111C798.44 519.039 783.759 515.39 774.303 521.318C768.739 524.806 772.479 534.29 767.486 538.167C760.508 543.586 753.406 532.998 748 545L746 545C743.83 537.973 747.403 532.804 746.495 526C745.344 517.366 740.007 512.375 741.29 503C742.068 497.317 746.6 493.664 746.956 487.999C748.14 469.151 743.521 450.969 751.425 433C756.311 421.892 766.597 414.808 773.377 405C778.325 397.843 779.43 389.335 781 381C767.649 379.313 759.85 383.116 747 384.715C738.611 385.76 729.734 383.764 722 384.854C711.006 386.404 701.393 396.355 696.973 404.999C694.74 409.366 688.358 410.474 686.643 414.429C685.018 418.175 688.223 423.281 688.752 427C690.195 437.16 684.536 441.603 695 449z"/>
</svg>
