<?xml version="1.0" standalone="yes"?>
<svg xmlns="http://www.w3.org/2000/svg" width="1393" height="1450">
<path style="fill:#010101; stroke:none;" d="M0 0L0 1450L1393 1450L1393 0L0 0z"/>
<path style="fill:#ffffff; stroke:none;" d="M430 800C430 796.748 430.965 791.33 428.821 788.603C426.887 786.143 420.851 786.045 418 786.13C407.989 786.426 401.234 789.071 391 785.961C362.372 777.259 337.992 796.112 317.675 814.61C310.242 821.378 301.087 824.381 296.978 835C294.713 840.851 299.26 848.106 299.823 854C300.59 862.041 297.158 866.549 302 874C311.96 871.194 325.647 865.102 336 865.818C344.613 866.414 352.308 872.561 361 872.887C367.284 873.123 370.863 865.893 377 867.154C390.445 869.916 406.235 875.302 418 882.464C425.133 886.806 430.779 893.62 438 897.583C447.554 902.828 458.956 904.919 469 909.093C473.331 910.893 476.675 914.448 481 916.146C485.839 918.046 496.916 921.003 502 920.671C507.904 920.284 514.121 917.004 520 917.702C528.036 918.656 536.147 923.917 543 927.85C552.611 933.367 562.701 941.881 573 945.771C576.976 947.273 580.969 944.509 584.957 945.933C588.588 947.229 589.776 950.922 592.39 953.391C599.11 959.74 607.915 961.478 609 972L601 974C605.28 982.642 612.018 991.91 612.385 1002C612.565 1006.94 609.562 1011.19 609.383 1016C609.243 1019.79 610.865 1023.14 610.057 1027C608.177 1035.98 601.087 1041.22 601 1051C623.69 1052.18 613.57 1073.91 616.39 1087C617.897 1094 623.243 1102.49 620.396 1109.96C618.572 1114.74 612.832 1116.1 610.314 1120.32C607.303 1125.38 606.616 1133.31 605 1139C613.211 1141.02 633.978 1138.83 640.427 1132.49C643.431 1129.53 642.15 1125.47 644.028 1122.1C646.25 1118.12 653.252 1113.76 656.633 1110.32C660.784 1106.09 667.736 1109.29 672.482 1106.01C679.049 1101.47 684.421 1086.66 688.015 1079.58C690.701 1074.28 684.653 1069.83 686.457 1065.32C687.56 1062.56 691.495 1063.35 693.61 1061.97C697.071 1059.73 698.219 1054.77 698 1051C703.307 1051 710.479 1052.28 714.682 1048.28C719.775 1043.43 714.683 1034.87 721.144 1030.35C732.915 1022.11 741.043 1025.68 754 1025.99C757.941 1026.08 765.277 1026.69 766.682 1021.86C770.112 1010.06 756.521 1002.32 752.608 993C750.065 986.944 754.17 979.163 755 973C739.436 965.723 739.687 942.716 722 939C719.922 942.651 706.203 951.178 703.775 944.025C702.65 940.712 707.564 939.076 707.698 935.91C707.839 932.542 704.384 928.835 702.89 926C697.273 915.335 696.051 910.469 683 913L683.028 895.394L694 888L694 887C686.851 878.815 691.463 871.225 679 866L678 878C670.361 875.301 671.028 869.968 666.775 864.043C663.368 859.296 657.365 856.03 652 854L645 870C641.521 868.651 637.791 866.524 634 866.383C630.465 866.252 626.604 868.633 623.225 866.782C617.947 863.89 620.781 856.679 616.682 853.17C611.201 848.477 604.447 845.425 599.001 840.787C594.11 836.621 590.961 830.692 585.91 826.789C579.299 821.679 571.923 818.403 566.213 811.961C559.518 804.407 561.062 786.931 552.786 782.028C540.991 775.039 527.496 787.111 517 789.4C508.291 791.3 492.993 792.679 484 791.711C474.079 790.642 461.823 786.417 452 787.419C442.621 788.376 438.232 797.646 430 800z"/>
<path style="fill:#efefef; stroke:none;" d="M698 1051L699 1052L698 1051z"/>
</svg>
