<?xml version="1.0" standalone="yes"?>
<svg xmlns="http://www.w3.org/2000/svg" width="1393" height="1450">
<path style="fill:#010101; stroke:none;" d="M0 0L0 1450L1393 1450L1393 0L0 0z"/>
<path style="fill:#ffffff; stroke:none;" d="M557 785L564.966 809.985L585.961 826.529L598.015 839.787L617.682 853.07L623.279 865.958L634 865.679L644 869L651 852L663 859C663.516 854.914 665.244 849.189 662.142 845.702C659.941 843.228 655.833 843.273 654.504 839.867C653.132 836.352 654.744 831.856 653.556 828.001C651.14 820.165 641.88 816.621 635 813.274C626.603 809.19 614.311 813.392 610 803C601.981 804.014 592.832 806.798 585 803.648C574.184 799.298 568.38 788.349 557 785z"/>
</svg>
