<?xml version="1.0" standalone="yes"?>
<svg xmlns="http://www.w3.org/2000/svg" width="1393" height="1450">
<path style="fill:#010101; stroke:none;" d="M0 0L0 1450L1393 1450L1393 0L0 0z"/>
<path style="fill:#ffffff; stroke:none;" d="M176 561C185.029 568.44 176.775 574.874 178.728 584C179.619 588.162 183.759 591.653 183.652 596C183.556 599.88 179.358 602.951 179.994 606.911C180.502 610.079 184.321 612.44 186.034 615.015C189.552 620.302 189.698 631.35 194.433 635.062C198.4 638.173 204.701 637.015 208.436 640.702C211.588 643.814 210.546 649.096 212.573 652.816C215.654 658.472 228.287 668.216 234 671C234.038 659.915 239.722 657.133 249 653C247.503 648.317 244.041 641.019 245.933 636.133C247.492 632.108 252.549 632.003 255.985 630.521C259.463 629.021 261.712 625.977 265.039 624.313C270.131 621.768 276.39 622.909 279.347 616.906C287.828 599.693 265.474 574.138 249 572.557C241.052 571.795 231.465 577.571 224 580C216.739 565.421 204.497 550.344 187 554.116C181.436 555.315 178.876 555.8 176 561z"/>
</svg>
