<?xml version="1.0" standalone="yes"?>
<svg xmlns="http://www.w3.org/2000/svg" width="1450" height="1341">
<path style="fill:#010101; stroke:none;" d="M0 0L0 1341L1450 1341L1450 0L0 0z"/>
<path style="fill:#ffffff; stroke:none;" d="M1320 518C1322.07 523.506 1328.7 533.058 1323.64 538.701C1321.12 541.515 1317.02 542.453 1314.3 545.189C1310.13 549.389 1308.57 553.726 1302 553C1300.93 557.663 1303.17 562.638 1301.74 566.996C1299.42 574.031 1289.96 576.662 1285.39 582.089C1279.8 588.732 1281.41 611.434 1267.3 598.614C1265.51 596.985 1264.28 595.024 1263 593C1247.55 598.919 1255.54 574.612 1250 568L1249 568C1243.49 572.417 1238.06 569.196 1232.02 572.279C1224.88 575.922 1223.72 584.243 1218.48 589.775C1211.18 597.489 1200.85 595.77 1198.06 608C1196.99 612.672 1200.31 616.484 1200.71 621C1201.48 629.841 1197.78 639.446 1203.73 647.83C1210.76 657.738 1225.76 667.694 1228.85 680C1229.85 684.028 1227.82 688.797 1228.09 693C1228.39 697.686 1229.86 702.438 1227.43 706.867C1224.69 711.853 1218.53 709.852 1214.9 713.514C1205.88 722.63 1200.55 735.961 1185 731C1183.57 736.055 1178.54 738.196 1176.94 743.015C1171.09 760.602 1196.91 750.854 1204 751L1192 795L1178 799C1180.12 815.715 1186.89 815 1202 815C1201.78 821.791 1193.37 825.115 1193.96 831.011C1194.63 837.759 1202.87 837.628 1206.77 841.303C1210.64 844.949 1212.01 852.152 1214 857C1221.53 854.224 1217.18 845.102 1216 839L1223 838L1222 843C1225.06 844.43 1230.02 845.477 1231.97 848.418C1235.42 853.607 1233.7 862.121 1237.3 867.722C1240.42 872.576 1248.31 872.015 1252.79 875.086C1263.84 882.663 1255.61 893.904 1251 902L1270 903.153L1286 914C1293.59 905.769 1312.27 910.784 1307 924C1312.59 926.561 1315.51 923.633 1321 922.452C1324.26 921.751 1327.04 922.636 1330 920.655C1335.09 917.247 1342.18 911.79 1344.41 905.83C1346.03 901.503 1344.23 896.425 1344.04 892C1343.69 883.712 1344.43 872.698 1347.85 865.043C1349.53 861.302 1354.26 856.487 1358.04 854.878C1360.8 853.704 1366.07 854.04 1367.34 850.697C1369.32 845.479 1360.55 837.128 1358 833L1390 856L1399 842L1394 840L1396 834C1388.28 831.372 1372.78 826.542 1369.97 817.91C1366.96 808.627 1373.55 801.573 1368 793C1381.73 798.339 1372.65 806.717 1378.99 816.7C1381.01 819.875 1384.88 821.889 1388 823.796C1391.26 825.785 1397.59 831.271 1401.68 830.044C1404.5 829.2 1404.6 824.351 1404.83 822C1405.66 813.46 1405 804.578 1405 796L1408 796C1408.19 786.567 1414.97 777.438 1414.85 769C1414.74 761.911 1405.91 757.966 1406.53 750C1407 744.003 1410.79 738.872 1411.53 733C1412.61 724.391 1409.61 710.657 1405.6 703C1399.72 691.785 1390.22 675.341 1381.24 666.43C1377.47 662.69 1371.24 662.158 1367 658.671C1358.93 652.034 1357.28 643.849 1352.74 635C1350.74 631.097 1346.98 626.705 1346.36 622.286C1345.84 618.58 1349.43 615.445 1350.31 612C1351.51 607.342 1349.29 602.737 1350.97 598C1354.61 587.744 1363.5 577.67 1362.72 566.015C1362.21 558.436 1352.65 557.961 1348.73 552.787C1346.57 549.938 1346.5 546.117 1344.88 543C1342.59 538.611 1338.51 535.428 1336.3 531C1331.49 521.361 1333.91 512.931 1320 518z"/>
<path style="fill:#010101; stroke:none;" d="M1357 832L1358 833L1357 832z"/>
<path style="fill:#ffffff; stroke:none;" d="M1351 899C1349.63 906.842 1354.75 908.537 1361 912L1364 906L1359 904L1360 899L1351 899M1303 921L1293 923L1289 933C1286.64 929.014 1283.76 921.577 1278.82 920.333C1263.11 916.382 1249.98 935.682 1257.56 948.815C1262.69 957.713 1271.23 949.256 1277 945.954C1287.82 939.762 1304.97 937.822 1303 921M1227 953C1231.48 955.91 1229.51 960.079 1226 963C1230.69 964.425 1245.39 962.693 1247.93 957.867C1249.3 955.274 1248.26 951.822 1248.7 949C1249.16 946.1 1250.88 942.172 1248.97 939.449C1243.55 931.718 1228.92 948.464 1227 953z"/>
</svg>
