<?xml version="1.0" standalone="yes"?>
<svg xmlns="http://www.w3.org/2000/svg" width="1450" height="1341">
<path style="fill:#010101; stroke:none;" d="M0 0L0 1341L1450 1341L1450 0L0 0z"/>
<path style="fill:#ffffff; stroke:none;" d="M879 1025L882 1024L883 1029L885 1029L886 1024C893.83 1023.57 896.1 1018.17 894 1011L883 1012L884 1008C874.291 1008.42 875.424 1018.94 879 1025M851 1019L850 1030C858.519 1034.15 855.923 1022.12 851 1019M904 1021C904.789 1025.59 907.585 1026.85 912 1026L912 1025L904 1021M899 1024C896.382 1028.71 892.008 1028.66 888.637 1032.3C879.955 1041.69 872.045 1053.82 872 1067C861.658 1066.22 863.577 1055.44 855 1053C849.966 1059.69 847.499 1062.96 852 1071L826 1068L829 1075L809 1075C810.902 1077.71 815.302 1081.14 815.606 1084.56C815.851 1087.33 812.803 1089.39 812.396 1092.09C811.333 1099.14 817.449 1108.51 823.089 1112.14C829.76 1116.44 844.554 1118.38 851.911 1115.28C856.81 1113.21 859.23 1109.37 865 1109.04C870.501 1108.73 881.451 1114.07 885.088 1108.65C889.103 1102.67 881.957 1089.46 885.691 1082C888.569 1076.25 893.688 1071.78 896.573 1066C899.776 1059.58 900.783 1051.76 903.319 1045C904.58 1041.64 909.593 1035.74 908.339 1032.17C907.126 1028.72 901.871 1025.96 899 1024M833 1053L841 1059C846.287 1051.41 835.839 1040.14 833 1053z"/>
</svg>
