<?xml version="1.0" standalone="yes"?>
<svg xmlns="http://www.w3.org/2000/svg" width="1450" height="1341">
<path style="fill:#010101; stroke:none;" d="M0 0L0 1341L1450 1341L1450 0L0 0z"/>
<path style="fill:#ffffff; stroke:none;" d="M392 1005L401 1002C405.093 1008.32 411.774 1005.35 418 1007L420 1003C411.864 997.842 427.568 986.305 421.062 978.361C418.959 975.794 415.752 977.269 413.97 979.395C409.873 984.28 409.275 990.996 404.699 995.906C401.017 999.856 394.747 1000.64 392 1005M454 1012C457.341 1028.48 443.194 1021 433 1020.33C429.749 1020.12 426.723 1022.1 423.576 1021.65C419.616 1021.07 414.033 1017.91 411.618 1023.39C407.035 1033.78 420.846 1036.84 421.369 1045C421.814 1051.96 412.381 1055.34 411.492 1062C410.715 1067.8 418.464 1072.58 423.298 1068.97C426.093 1066.88 427.423 1061.08 429 1058L430 1058C436.757 1066.37 453.119 1075.18 454.512 1087C455.037 1091.47 451.447 1096.57 450.708 1101C449.756 1106.71 453.194 1111.89 446 1114C445.812 1108.26 437.913 1092.16 433 1089C428.495 1094.47 422.858 1095.71 416 1095C415.646 1086.77 412.755 1080.79 408.314 1074C405.283 1069.37 404.706 1062.62 400.582 1058.8C388.529 1047.64 369.715 1054.63 356 1056L354 1050C347.28 1062.09 379.106 1076.9 362 1091C370.224 1108.38 386.246 1115.63 397.196 1130.1C400.849 1134.93 398.278 1138.73 399.353 1143.91C400.097 1147.49 403.501 1150.61 405 1154C408.275 1151.12 413.59 1129.21 417.857 1132.16C421.318 1134.54 421.174 1140.39 425.015 1143.37C428.611 1146.15 431.082 1147.74 433 1152C424.235 1148.88 422.036 1153.99 421 1162L425 1163L409 1207L423 1197L422 1203C429.61 1201.59 437.745 1202.39 445.09 1199.65C452.454 1196.89 454.682 1190.67 463 1194C463.727 1189.91 465.769 1186.2 465.953 1182C466.352 1172.86 457.639 1152.57 448 1151L449 1130L456 1132L463.467 1119L471 1074C464.734 1068.61 469.555 1066.26 471.208 1060C472.407 1055.46 472.449 1047.81 472.814 1043C473.551 1033.28 465.577 1028.63 460.699 1021.91C458.154 1018.4 457.861 1014.34 454 1012M388 1162L375 1159C373.206 1156.07 361.939 1148.61 359.694 1154.32C357.058 1161.02 361.583 1175.41 365.814 1180.78C372.225 1188.9 388.129 1186.87 391.756 1177C393.433 1172.43 389.904 1166.09 388 1162M413 1172L404 1189C412.52 1186.35 416.089 1181.39 416 1173L413 1172z"/>
</svg>
