<?xml version="1.0" standalone="yes"?>
<svg xmlns="http://www.w3.org/2000/svg" width="1450" height="1341">
<path style="fill:#010101; stroke:none;" d="M0 0L0 1341L1450 1341L1450 0L0 0z"/>
<path style="fill:#ffffff; stroke:none;" d="M103 670C99.3934 687.427 90.2329 695.127 78.1698 707.17C73.4253 711.906 69.69 718.352 63.9853 722.006C55.8294 727.231 43.2502 728.05 36.5725 735.39C32.13 740.274 36.6236 745.802 33.9576 750.826C31.8383 754.82 26.9306 756.3 25.6968 761.01C23.7922 768.28 34.9884 768.751 38.5517 773.185C42.2568 777.796 38.1899 782.96 40.0486 787.985C42.2282 793.878 49.0385 795.848 51.0718 802.004C54.598 812.68 60.5446 825.792 61.3619 837C62.0869 846.943 56.3708 856.606 54.3897 866C53.4142 870.625 55.432 874.498 55.5046 879C55.5952 884.609 53.706 890.443 53 896L60 897L52 938C56.8174 940.068 59.3118 937.057 63.9961 937.531C67.9213 937.927 76.7424 945.481 79.6057 948.39C85.3487 954.226 82.024 964.559 89.0579 969.397C95.1207 973.567 106.247 963.273 108.647 968.167C113.264 977.58 101.409 990.162 106 1001C113.554 996.381 112.761 981.893 123 990L124 990L130 970C133.932 969.69 139.048 967.842 142.907 968.889C158.654 973.162 150.675 999.003 146.8 1008C145.132 1011.87 144.908 1016.28 148.303 1019.35C152.289 1022.96 167.489 1030.65 172.61 1027.67C176.683 1025.29 176.993 1020.16 182.015 1018.56C188.474 1016.5 192.978 1019.27 199 1021L195 1001L198 1004L199 1004L204 1000L208 1007C193.584 1015.29 208.397 1025.48 212.566 1034.04C215.494 1040.05 216.358 1047.64 219 1054C228.038 1051.43 244.467 1038.7 245 1029C260.296 1032.28 259.158 1018.08 266.228 1010.09C271.519 1004.11 278.803 1002.58 280 994C294.497 991.641 295.71 970.099 300.09 960.001C302.396 954.683 307.297 951.892 312 949L316 958L327 954L320 955L317 949L331 944L332 947L336 946L334 940L323 944L326 938L324 925C314.921 925.519 298.091 905.265 298.292 896C298.415 890.305 302.683 884.546 304 879C292.912 876.122 296.085 872.856 292 864C283.202 868.165 279.631 877.252 281.38 887C282.205 891.599 286.309 898.53 281.682 902.396C277.696 905.727 268.63 900.392 265.603 897.273C260.428 891.939 266.604 881.984 262.142 876.43C253.54 865.723 235.014 876.543 233 858C225.418 857.606 218.943 848.172 212.107 849.412C204.977 850.706 204.008 861.369 199.581 865.343C194.777 869.656 183.988 867.016 178 867L174.002 856L172.768 844.059L162.63 835.997L167 831L166 826L177 826L178 818L175 817C177.348 810.409 176.604 802.992 178.104 796.039C180.205 786.305 187.424 781.762 179.077 771.43C170.906 761.315 155.396 758.646 149.859 745C144.82 732.584 164.646 730.6 163.534 721.105C162.835 715.141 146.375 717.289 142.044 714.057C135.642 709.28 136.593 701.425 132.861 695.089C127.79 686.479 112.25 673.584 103 670M309 994C300.697 1009.66 283.813 1012.03 270.3 1021.09C262.682 1026.2 265.021 1032.88 262.397 1040C260.774 1044.4 255.79 1050.7 252.992 1054.58C250.021 1058.7 244.717 1057.55 243 1063C250.658 1067.16 248.768 1084.01 257.043 1083.51C278.37 1082.24 283.925 1064.22 298.001 1052.21C306.69 1044.8 319.206 1038.67 324.348 1027.91C328.887 1018.41 322.643 1014.21 318.414 1006.96C315.502 1001.97 314.899 996.234 309 994z"/>
</svg>
