<?xml version="1.0" standalone="yes"?>
<svg xmlns="http://www.w3.org/2000/svg" width="1450" height="1341">
<path style="fill:#010101; stroke:none;" d="M0 0L0 1341L1450 1341L1450 0L0 0z"/>
<path style="fill:#ffffff; stroke:none;" d="M738 179C743.859 178.259 751.195 175.628 757 176.994C764.156 178.677 772.062 184.466 779.816 182.643C783.687 181.732 785.57 176.9 788.3 174.39C796.279 167.054 803.544 163.651 814 165C813.134 171.399 810.887 182.368 807.972 187.961C806.374 191.027 802.753 192.659 801.693 196.039C797.476 209.489 806.652 227.294 813 238C830.593 233.627 814.584 250.337 818.068 256.671C820.353 260.824 826.045 260.967 829.945 262.482C833.293 263.783 842.933 270.101 845.397 272.702C852.285 279.977 838.933 296.008 853 298.556C854.995 298.918 856.981 298.958 859 299C860.954 313.596 846.538 322.156 851.603 338C855.309 349.591 869.374 357.15 877.895 364.666C888.591 374.1 898.827 386.532 908.985 397C915.116 403.319 914.559 412.672 920 418C923.064 410.693 928.692 408.385 933.143 402.485C938.63 395.211 937.367 383.8 949 382L953 399C961.018 398.18 973.479 404.344 978.142 411.185C980.316 414.374 979.316 419.461 982.514 421.948C987.446 425.786 995.291 421.665 995.937 431.004C996.489 438.991 982.397 445.389 986.201 452.682C988.105 456.331 994.645 454.559 997.852 456.457C1001.2 458.438 1000.22 462.901 1003.32 464.782C1005.84 466.313 1009.34 465.105 1012 464.611C1029.26 461.403 1020.32 450.201 1023 438L1042 446C1047.87 438.986 1070.58 449.882 1073.52 458.015C1076.04 464.997 1071.64 471.063 1072.6 477.895C1073.05 481.015 1076.33 482.621 1079 483.632C1082.56 484.98 1085.69 484.259 1087.72 480.891C1091.35 474.889 1092.51 465.513 1100.04 462.603C1107.52 459.714 1124.48 463.993 1130.18 458.397C1145.4 443.477 1110.01 431.702 1105.85 422.895C1101.3 413.258 1106.7 407.225 1106.94 398C1107.12 391.18 1101.24 385.939 1101.91 379.043C1102.26 375.368 1105.89 373.906 1107.54 370.896C1109.2 367.88 1108.49 364.108 1110.6 361.326C1123.02 344.977 1135.88 349.056 1153 346.41C1160.11 345.31 1165.75 342.937 1172 339.424C1174.2 338.186 1177.64 335.581 1180.25 336.994C1191.73 343.188 1195.45 360.756 1196.48 372C1196.77 375.233 1194.4 377.801 1194.37 380.956C1194.34 384.422 1202.78 391.061 1206.09 391.378C1211.86 391.932 1214.8 383.552 1218.17 380.174C1229.34 368.993 1241.19 365.46 1236 347C1247.08 342.963 1254.4 349.488 1265 349.953C1273.12 350.309 1281.07 345.543 1289 344C1283.02 323.254 1260.3 313.456 1257.16 291C1255.27 277.429 1266.74 259.757 1268.5 246C1269.32 239.577 1264.82 234.111 1263.7 228C1262.51 221.546 1265.46 213.097 1267.44 207.001C1270.37 197.997 1281.85 192.172 1282.61 182C1283.12 175.137 1281.72 161.684 1277.35 156.209C1273.17 150.98 1267.07 147.404 1262.82 142C1257.84 135.676 1254.53 127.991 1248.7 122.326C1244.69 118.43 1239.1 116.388 1235.64 111.907C1232.47 107.808 1233.2 103.584 1231.4 99.1698C1229.07 93.4449 1221.88 83.231 1216.98 79.4182C1212.44 75.876 1203.52 72.7534 1198.7 77.564C1195.77 80.4932 1195.86 85.1798 1190.96 85.8364C1184.61 86.6862 1176.67 84 1170 84C1155.88 84 1142.05 85.9614 1128 86.0302C1122.31 86.058 1115.38 91.7506 1110.09 90.3627C1098.53 87.3313 1094.5 67.7484 1080 67.1975C1069.92 66.8147 1061.38 72.4473 1052 73.3232C1044.87 73.9885 1038.12 70.2753 1031.04 73.5139C1022.71 77.3207 1017.35 90.4448 1006 87.3218C984.95 81.5271 981.678 50.2947 957 51.3866C947.716 51.7974 950.218 59.3115 946.142 64.6064C942.885 68.8367 924.293 76.8866 919 76.6636C913.834 76.4459 909.761 71.2876 905 69.7021C896.721 66.9452 887.864 69.4318 880.004 64.1459C872.976 59.4197 871.572 50.2903 864.957 45.3573C859.214 41.0748 840.173 47.5487 834.184 50.652C829.945 52.8489 827.554 58.2738 824.848 62C818.371 70.9177 803.947 81.0183 801.378 92C799.902 98.3103 810.221 103.815 805.304 109.876C800.613 115.658 791.554 114.552 786.499 119.51C782.773 123.165 781.267 129.69 778.115 134C772.918 141.106 766.112 145.794 760.394 152.286C757.355 155.735 756.219 160.367 753.316 163.957C748.434 169.995 738.973 170.467 738 179z"/>
</svg>
