<?xml version="1.0" standalone="yes"?>
<svg xmlns="http://www.w3.org/2000/svg" width="1450" height="1341">
<path style="fill:#010101; stroke:none;" d="M0 0L0 1341L1450 1341L1450 0L0 0z"/>
<path style="fill:#ffffff; stroke:none;" d="M1072 481C1071.79 488.204 1065.87 492.235 1065.15 499C1064.43 505.793 1067.71 512.419 1067.79 519C1067.82 522.352 1065.06 524.737 1064.76 528C1064.46 531.129 1066.35 533.854 1065.25 537C1063.53 541.877 1060.41 549.753 1057.49 554C1054.58 558.236 1049.03 562.136 1051.41 567.941C1054.27 574.922 1066.13 576.656 1071.9 580.14C1079.61 584.805 1084.06 595.917 1091.61 600.972C1104.43 609.558 1117.56 597.696 1123.78 618C1126.54 627.015 1122.82 640.821 1117.2 648C1113.77 652.371 1105.45 659.192 1105.2 665C1104.5 681.32 1118.4 683.965 1126.61 694.019C1130.48 698.756 1128.55 708.185 1134 710L1143 707C1141.94 716.222 1147.61 713.925 1151.91 720.214C1153.3 722.241 1153.55 726.421 1156.25 727.248C1159.89 728.368 1160.65 721.94 1164.11 721.451C1169.65 720.666 1180.36 724.509 1186 726L1185 730C1201.86 737.252 1205.57 719.279 1216.21 711.858C1219.23 709.751 1223.69 710.562 1226.14 707.566C1229.62 703.316 1227.32 696.84 1227.1 692C1226.92 687.752 1229.37 683.106 1228.06 679C1223.69 665.352 1207.34 657.421 1201.65 644.996C1197.92 636.843 1200.15 630.112 1200.23 622C1200.27 618.153 1197.62 614.798 1197.29 611C1196.95 607.09 1199.2 602.822 1200 599L1189 591.349L1180 591.087L1167.99 579.419L1149 572C1159.36 562.318 1148.04 563.722 1149.45 553.996C1150.76 544.951 1162.83 542.294 1163.5 533C1164.23 522.749 1149 511.887 1140.68 508.641C1138.27 507.704 1135.63 508.921 1133.39 507.307C1130.09 504.936 1127.79 498.687 1126.36 495C1124 488.937 1128.22 485.573 1129.58 480C1131.02 474.115 1130 467.035 1130 461C1121.56 461 1105.66 459.731 1098.3 464.028C1091.2 468.176 1090.75 486.677 1081 484.82C1077.91 484.231 1074.9 482.206 1072 481z"/>
</svg>
