<?xml version="1.0" standalone="yes"?>
<svg xmlns="http://www.w3.org/2000/svg" width="1450" height="1341">
<path style="fill:#010101; stroke:none;" d="M0 0L0 1341L1450 1341L1450 0L0 0z"/>
<path style="fill:#ffffff; stroke:none;" d="M679 348C676.147 353.455 671.699 356.811 666 359C663.098 348.394 652.054 345.639 644.603 355.329C640.919 360.121 645.172 369.883 636 369.883C630.997 369.883 630.372 365.521 626.61 363.564C620.991 360.641 608.28 358.52 602 359.106C591.33 360.101 592.863 368.429 585.775 372.686C581.633 375.174 576.186 374.221 572.043 376.857C568.409 379.17 567.182 383.509 563.787 386.006C557.849 390.373 547.495 395.807 540.911 398.937C531.943 403.198 524.34 399.122 518.458 411C514.695 418.597 520.169 421.382 524.274 426.389C530.536 434.028 539.575 442.974 542.336 453C544.08 459.331 539.345 467.576 543.938 473.363C548.54 479.161 558.753 479.345 560.718 488C562.085 494.028 553.435 498.788 551.6 504C549.998 508.553 552.584 512.576 553.027 517C553.439 521.118 550.581 524.72 551.164 528.895C551.612 532.112 562.139 543.64 565 546C568.612 541.887 572.056 543.338 577 544L569.861 560.682L561.232 569.005L566.369 584.286L548.428 625L546.972 650.787L522 667C531.325 674.221 549.281 677.164 550 691C563.943 686.252 562.839 674.89 571 665L572 665L575 668L584.562 660.721L588 646L609 649.684L620 644.966L630.961 646.063L649 634L647 641C655.498 643.79 669.875 655.133 667.675 665.425C666.357 671.591 659.276 678.036 659.217 684C659.179 687.82 663.121 690.356 663.861 694C665.867 703.878 664.431 709.499 662 719L666 720L667 729L669 729C677.207 716.178 675.826 701.655 694 704C697.629 697.512 703.028 699.757 708.625 696.566C718.246 691.081 725.097 682.75 736 678.352C741.968 675.944 750.478 677.647 753.972 670.981C756.168 666.793 755.657 660.615 756.921 656C760.063 644.518 769.78 627.859 767.852 616.043C766.931 610.404 758.826 606.742 756.338 601C750.74 588.081 756.725 586.346 762.86 576.787C766.465 571.171 766.23 566.505 772 562C770.486 554.244 779.848 542.841 773.566 536.637C765.964 529.13 745.403 536.844 742.333 523.957C739.85 513.538 748.814 505.559 753.914 498.61C757.71 493.439 760.237 484.167 762 478C757.769 476.022 753.569 472.228 749 471.207C744.028 470.095 739.152 475.38 735.778 468.902C733.343 464.228 739.518 460.294 740.502 456C741.956 449.648 746.355 446.5 748.358 440.83C750.437 434.947 748.926 423.492 749.004 417C749.044 413.676 751.119 407.56 748.968 404.728C746.423 401.375 737.878 400.803 734 399.884C718.889 396.303 703.104 394.886 688 392.329C681.036 391.151 673.276 395.135 669.029 386.96C661.79 373.031 688.539 377.961 690.925 368.995C692.937 361.436 682.192 355.502 681 348L679 348z"/>
</svg>
