<?xml version="1.0" standalone="yes"?>
<svg xmlns="http://www.w3.org/2000/svg" width="1450" height="1341">
<path style="fill:#010101; stroke:none;" d="M0 0L0 1341L1450 1341L1450 0L0 0z"/>
<path style="fill:#ffffff; stroke:none;" d="M310 515C305.64 519.503 299.647 518.688 296.427 525.005C292.664 532.387 293.342 549.429 285.61 553.933C280.884 556.686 275.456 551.655 271 550.911C267.646 550.351 263.81 552.597 261.09 554.352C256.765 557.142 251.135 571.793 246.791 571.793C241.132 571.793 236.365 562.607 229 562L230 556C222.962 552.252 208.983 549.393 203.264 557.144C199.829 561.8 201.472 568.603 194.96 570.953C184.366 574.775 180.8 557.915 171.225 561.643C167.501 563.092 167.013 568.678 166.115 572C164.535 577.845 161.415 584.204 157.39 588.787C150.218 596.955 136.544 597.026 127 601L120 584C117.36 588.313 113.991 592.897 113.213 598C112.586 602.11 114.532 607.177 112.883 611C109.366 619.15 100.671 621.772 101.104 632C101.295 636.507 101.192 643.749 103.433 647.726C105.038 650.575 108.704 651.463 109.215 655.044C109.926 660.04 103.233 664.965 105.816 669.714C111.245 679.698 125.489 685.16 132.57 694.089C136.732 699.338 135.732 707.502 140.43 712.316C146.195 718.222 160.018 712.51 163.914 719.429C167.008 724.925 151.874 732.854 150.029 738C146.082 749.002 165.086 763.196 173.209 767.347C183.859 772.789 184.493 760.828 188.703 755.105C192.099 750.488 197.598 749.127 203 749C204.378 753.193 217.543 758.075 221.378 754.968C223.968 752.869 221.053 748.747 221.728 746.039C222.499 742.941 225.724 738.808 227.414 736.012C232.197 728.1 242.263 726.501 249.715 722.254C254.395 719.586 258.39 715.769 264 716C276.675 705.551 292.597 704.57 308 702.306C318.154 700.813 326.777 698.854 336 704L336 697L340 696L343.062 710.911L340 720C347.797 719.741 346.128 714.459 351.094 710.309C354.889 707.138 362.253 704.139 364.976 700.362C371.888 690.777 366.963 679.308 367.272 669.015C367.55 659.738 373.526 651.287 377 643L382 645C383.555 637.726 379.713 633.861 373 632C366.713 643.206 345.627 639.415 338.677 630.697C335.871 627.178 337.742 618.547 336.985 614C335.408 604.54 330.204 588.4 323 582L323 581C328.52 577.508 336.897 564.883 336.695 558C336.597 554.658 333.089 552.007 331.879 549C329.388 542.811 331.759 537.779 334 532C321.976 530.338 321.294 516.575 310 515z"/>
</svg>
