<?xml version="1.0" standalone="yes"?>
<svg xmlns="http://www.w3.org/2000/svg" width="1450" height="1341">
<path style="fill:#010101; stroke:none;" d="M0 0L0 1341L1450 1341L1450 0L0 0z"/>
<path style="fill:#ffffff; stroke:none;" d="M867 671L866 667L865 667C860.537 672.922 857.089 679.011 849 677C847.183 686.932 852.681 692.091 855 701C843.17 704.408 835.827 712.638 823 710C819.956 718.188 823.902 736.801 832.185 741.431C839.402 745.466 848.495 743.572 855 749.144C864.432 757.224 864.116 762.814 867.869 773C869.449 777.289 872.672 780.517 874 785C883.356 784.782 880.992 789.283 883.603 795.911C884.727 798.762 887.585 800.351 888.973 803.039C891.542 808.017 890.996 816.482 891 822L861 810C862.475 819.985 868.488 827.83 874 836C857.284 844.356 876.675 856.853 877.83 869C878.44 875.407 873.137 881.371 873.994 887C874.924 893.113 881.523 894.957 881 902C891.567 903.969 905.163 908.509 909.397 920C911.792 926.502 906.295 934.974 913.39 939.86C919.103 943.794 924.16 937.936 930 939.044C936.323 940.244 940.766 946.06 947 947.582C954.535 949.421 971.845 944.536 976.887 952.303C979.177 955.832 977.807 966.5 978 971C996.609 970.846 1008.22 958.433 1025 954.14C1031.86 952.385 1040.58 957.359 1046.26 950.581C1048.54 947.861 1048.73 943.35 1049.4 940C1051.09 931.538 1057.94 915.401 1054.26 907.213C1052.71 903.77 1048.22 902.344 1045 901L1057 901L1052 892C1063.36 892.37 1074.12 902.701 1085 905.829C1095.51 908.851 1101.33 902.3 1110 897.786C1113.1 896.173 1117.85 895.401 1120.07 892.57C1122.58 889.371 1123.2 883.89 1124 880C1120.54 879.864 1115.31 883.868 1112.36 882.03C1107.57 879.043 1112 873.61 1104 873C1104.23 863.943 1117.01 849.928 1123 843L1123 842C1120.36 839.001 1117.82 835.423 1114 833.858C1110.48 832.417 1106.41 833.721 1103.19 831.397C1093.68 824.543 1089.16 810.217 1085 800L1081 801C1081.01 790.67 1082.58 785.322 1075.13 777.019C1072.63 774.232 1069.37 770.86 1065.22 772.608C1061.66 774.113 1061.69 778.9 1058.61 780.987C1054.35 783.872 1050.32 781.913 1049 788C1039.98 781.592 1036.87 772.112 1025 779C1018.47 763.326 1023.13 759.358 1030.24 745C1031.85 741.749 1032.09 737.32 1034.02 734.394C1037.4 729.29 1053.37 726.66 1050.28 717.999C1047.56 710.378 1041.42 707.965 1035 704.598C1025.99 699.873 1017.41 691.464 1006.04 693.603C1001.56 694.447 1001.28 699.546 997.775 701.697C991.942 705.28 970.602 709.045 964 707.547C956.277 705.795 949.203 695.504 943 690.848C936.414 685.904 927.959 686.901 921 682.911C907.575 675.215 897.123 657.05 879.019 658.694C872.679 659.27 874.507 668.762 867 671M1065 928L1066 932C1070.54 930.988 1072.86 929.658 1074 925L1065 928M1069 973L1064 975L1061 970C1061.21 976.521 1073.32 986.195 1079.81 981.976C1093.3 973.21 1093.08 947.609 1083.03 936.434C1080.35 933.451 1072.47 932.984 1070.64 937.303C1069.36 940.332 1070.71 944.672 1069.98 948C1067.67 958.401 1062.47 962.263 1069 973z"/>
</svg>
