<?xml version="1.0" standalone="yes"?>
<svg xmlns="http://www.w3.org/2000/svg" width="1450" height="1341">
<path style="fill:#010101; stroke:none;" d="M0 0L0 1341L1450 1341L1450 0L0 0z"/>
<path style="fill:#ffffff; stroke:none;" d="M120 1022C114.706 1031.07 110.491 1040.83 117.089 1050.7C119.233 1053.91 123.21 1055.53 124.958 1059.04C128.382 1065.92 120.945 1075.19 124.117 1081.83C129.041 1092.14 137.105 1087.85 144.536 1089.66C147.092 1090.28 148.345 1093.07 151.09 1093.51C160.468 1095.03 173.125 1091 183 1091C181.375 1096.73 173.645 1107.45 175.302 1112.95C176.735 1117.7 183.731 1119.03 188 1119.44C197.744 1120.38 214.679 1111.86 223 1107C221.012 1102.22 218.828 1096.05 214.787 1092.64C212.007 1090.29 206.843 1089.38 205.328 1085.79C202.255 1078.49 212.824 1058.81 218 1054C216.235 1047.87 214.468 1037.5 211.062 1032.29C208.522 1028.4 203.64 1026.72 202.303 1021.99C200.745 1016.46 199.897 1010.24 206 1008L203 1002L197 1004L200 1023C194.014 1019.51 185.032 1015.55 178.637 1020.86C175.713 1023.29 175.114 1027.88 170.957 1028.89C165.61 1030.2 151.262 1023.07 147.43 1019.36C141 1013.14 148.548 1005.39 150.363 999C151.779 994.009 151.439 987.138 150.892 982C150.459 977.935 147.414 970.303 142.815 969.488C127.436 966.762 132.565 981.282 125.387 988.433C122.294 991.515 119.022 985.504 115.703 987.887C113.354 989.573 113.191 993.573 111.866 995.961C105.221 1007.94 106.654 1015.69 120 1022z"/>
</svg>
