<?xml version="1.0" standalone="yes"?>
<svg xmlns="http://www.w3.org/2000/svg" width="1450" height="1341">
<path style="fill:#010101; stroke:none;" d="M0 0L0 1341L1450 1341L1450 0L0 0z"/>
<path style="fill:#ffffff; stroke:none;" d="M418 657L417 657C414.128 653.647 406.302 644.565 401.985 644.203C398.702 643.928 396.177 646.429 393.039 646.424C388.676 646.416 385.203 640.375 383 647L377 644C373.571 651.81 369.135 659.425 368.162 668.075C366.929 679.045 372.496 689.039 365.976 699.787C363.211 704.345 355.341 707.181 351.295 710.951C346.288 715.616 347.241 720.732 339 721C340.499 711.542 343.69 706.435 338 697L336 705C329.387 699.848 325.723 701.78 318 701.985C304.258 702.35 290.128 704.143 277.043 708.904C270.28 711.364 266.957 716.505 259 716C251.139 725.048 236.668 724.819 229.286 734.043C227.095 736.781 223.007 742.725 222.371 746.089C221.794 749.145 225.019 753.642 221.664 755.802C217.591 758.423 204.246 753.858 202 750C186.999 750.353 190.35 762.835 180 769L184.512 784L179.259 795.089L176 817L178 827L167 827L168 832L162 834L173.167 844.019L174.734 857L179 866C184.451 866.112 194.08 868.796 198.721 865.254C204.166 861.099 205.69 845.379 215.896 849.044C219.426 850.312 229.823 856.079 232.412 858.599C235.797 861.895 235.276 866.621 240.093 869.079C246.86 872.532 256.422 869.479 262.436 875.652C269.86 883.273 259.165 902.917 278.02 902.883C283.716 902.872 283.243 897.124 282.32 893C280.38 884.332 278.035 868.229 289.815 864.876C295.326 863.307 293.498 871.99 295.193 874.567C297.101 877.47 301.906 877.6 305 878C303.592 883.927 299.083 889.943 298.754 896C298.222 905.786 315.466 925.749 325 924C323.981 929.494 324.043 933.134 327 938L345 931L347 936L343 937L346 946L349 945L348 942L355 941L355 929C359.912 932.432 374.248 932.203 378 927L383 929L397 913C394.317 919.445 384.598 930.319 391 936L393 931C400.536 932.252 405.167 922.962 408 917L409 917L406 928L415 931L419 920L420 920C419.995 928.14 415.838 936.28 427 935C422.588 939.452 418.431 943.366 419 950L420 950L420 946L428 947C433.857 935.839 450.692 945.555 457 932C464.64 950.212 471.78 935.555 479 927L479 937C486.049 938.089 490.26 933.102 493 927L498 929L512.001 911.059L522 902C529.066 904.24 543.33 902.715 543 913L555 916C558.174 908.87 567.06 905.934 573 912C579.502 909.451 581.804 911.841 588 914.035C601.856 918.94 607.174 926.47 603 941C612.744 945.298 616.312 941.507 620.016 933.108C621.783 929.102 626.883 927.811 627.252 922.995C628.073 912.289 618.246 900.995 622 891C611.999 883.757 621.067 865.715 629.184 859.727C632.889 856.994 639.011 856.462 640.022 850.996C640.33 849.327 639.661 847.62 639.367 846C636.78 831.769 629.712 840.938 620.001 838.461C613.824 836.885 613.615 830.554 608.775 828.288C605.147 826.589 602.464 830.372 599.286 831.283C596.429 832.102 593.106 830.463 590 831C588.073 821.816 581.94 823.207 578.028 816.772C574.346 810.716 581.284 796.729 584 791C581.383 789.343 575.984 786.277 578.086 782.39C580.544 777.846 588.711 777.521 593 775.986C600.864 773.172 606.756 765.226 607 757L622 758L625.407 742.518L639 729L649 726C650.528 735.241 660.998 733.258 667 730L665 721L660 719C665.624 711.046 665.661 702.167 663.21 692.961C662.335 689.674 658.127 687.02 658.59 683.424C659.669 675.051 670.8 667.768 666.64 658C662.044 647.206 648.154 645.6 647 634L630.985 646.578L620 645.576L608.424 650.428L588 647L584.856 661.697L575 669L572 666L571 666C561.487 675.161 564.09 686.862 549 692C548.885 679.109 533.115 673.462 522.961 668.353C515.502 664.601 506.687 665.419 511 654L497 638C494.201 643.258 486.436 657.199 478.39 652.882C475.313 651.231 472.918 646.728 470.074 644.425C465.085 640.385 456.368 639.74 458 632C445.764 625.154 443.46 634.511 435.826 641.787C430.196 647.154 423.445 651.309 418 657z"/>
<path style="fill:#010101; stroke:none;" d="M492 916C493.045 909.062 497.15 904.702 504 903L517 863C508.991 860.081 499.707 863.19 493.854 869.699C491.617 872.188 491.897 875.987 489.487 878.427C484.788 883.186 479.316 881.335 476.514 889C474.445 894.659 475.448 912.108 481.279 915.412C484.421 917.193 488.577 915.935 492 916M397 912L398 913L397 912z"/>
<path style="fill:#ffffff; stroke:none;" d="M496 936L504.576 963L508 987L532 988L526.109 966L526.308 945L521.397 931.493L513 934.857L496 936M403 931L401 936L412 941L414 935L403 931M438 945L439 956L441 956L442 955L440 945L438 945z"/>
</svg>
