<?xml version="1.0" standalone="yes"?>
<svg xmlns="http://www.w3.org/2000/svg" width="1450" height="1341">
<path style="fill:#010101; stroke:none;" d="M0 0L0 1341L1450 1341L1450 0L0 0z"/>
<path style="fill:#ffffff; stroke:none;" d="M487 941L493 953C484.446 950.606 482.544 946.41 473 948C472.931 953.901 467.75 961.652 476 963L476 960C480.48 961.289 483.807 964.923 482.667 969.985C481.349 975.833 474.269 976.157 471.805 981.108C467.053 990.656 478.614 1003.12 483 1011C490.975 1009.35 498.033 1008.87 502 1001L509 1003C502.889 992.696 506.634 978.12 504.557 966C502.921 956.452 496.745 947.824 495 938L487 941M456 951L459 967L461 967C464.513 960.72 462.524 956.595 461 950L456 951z"/>
</svg>
