<?xml version="1.0" standalone="yes"?>
<svg xmlns="http://www.w3.org/2000/svg" width="1450" height="1341">
<path style="fill:#010101; stroke:none;" d="M0 0L0 1341L1450 1341L1450 0L0 0z"/>
<path style="fill:#ffffff; stroke:none;" d="M896 556C887.599 552.502 882.284 553.644 874 552.015C869.968 551.223 865.748 547.479 861.43 549.604C857.66 551.46 857.316 559.5 855.467 562.996C853.456 566.8 849.132 569.053 847.603 573.039C845.977 577.281 848.29 581.668 847.813 585.957C847.288 590.69 843.308 593.72 843.228 599C843.171 602.723 846.248 605.138 846.444 608.576C846.712 613.287 840.413 616.232 840.216 621C839.933 627.852 847.818 629.773 853 630L852 644C863.328 650.992 864.998 657.813 868 670C875.366 667.738 871.881 658.266 880.001 658.06C897.565 657.615 906.714 674.295 920 681.911C926.959 685.901 935.414 684.904 942 689.848C948.254 694.542 956.053 705.828 964 707.111C970.791 708.208 990.665 704.537 996.867 701.347C999.855 699.81 1000.71 696.505 1003.22 694.472C1007.06 691.366 1013.64 693.267 1018 694.301C1024.89 695.933 1038.38 703.657 1043.68 708.419C1047.62 711.963 1049.61 718.858 1055.09 720.413C1060.65 721.987 1068 717.831 1073 715.716C1078.84 713.249 1090.35 710.992 1093.97 705.471C1096.16 702.135 1095.59 697.582 1097.97 694.043C1100.94 689.62 1104.96 687.5 1106.39 681.999C1108.05 675.583 1103.61 670.049 1104.58 664.424C1105.59 658.509 1114.26 651.801 1117.75 647C1124.79 637.309 1126.69 616.864 1118.03 607.513C1112.17 601.184 1100.4 605.406 1093.1 602.397C1089.35 600.847 1087.67 596.158 1084.81 593.464C1077.53 586.601 1072.48 582.513 1064.04 577.865C1061.32 576.369 1059.3 573.363 1055.96 573.282C1048.18 573.092 1039.6 584.72 1032.01 582.958C1028.41 582.121 1026.33 578.305 1022.96 576.879C1017.97 574.767 1011.89 575.284 1007.09 572.686C1003.33 570.647 1001.9 566.322 998.535 563.857C988.405 556.446 966.449 548.837 954.148 556.318C951.057 558.198 951.181 562.001 948.683 564.363C941.48 571.174 938.859 572.129 938 583L924 578C923.847 582.71 922.521 584.899 919 588L908.944 569L904 545C898.686 547.365 896.789 550.297 896 556z"/>
</svg>
