<?xml version="1.0" standalone="yes"?>
<svg xmlns="http://www.w3.org/2000/svg" width="1450" height="1341">
<path style="fill:#010101; stroke:none;" d="M0 0L0 1341L1450 1341L1450 0L0 0z"/>
<path style="fill:#ffffff; stroke:none;" d="M531 978C541.734 975.927 543.162 982.027 552 986.442C559.169 990.024 565.891 988.929 569 998C578.534 993.952 577.096 988.072 580.309 980.089C581.695 976.644 585.629 974.925 586.161 970.996C586.972 964.993 581.838 960.013 585.603 954C589.734 947.401 605.375 939.436 605.191 932C604.871 919.057 583.764 907.223 573 913C570.195 909.111 560.579 908.119 557.367 912.318C551.248 920.314 551.152 933.147 546.686 941.996C542.908 949.482 534.809 950.205 529.653 955.513C523.655 961.687 528.339 971.597 531 978z"/>
</svg>
