<?xml version="1.0" standalone="yes"?>
<svg xmlns="http://www.w3.org/2000/svg" width="1450" height="1341">
<path style="fill:#010101; stroke:none;" d="M0 0L0 1341L1450 1341L1450 0L0 0z"/>
<path style="fill:#ffffff; stroke:none;" d="M1108 681C1105.17 686.277 1100.53 689.954 1097.84 695.043C1095.41 699.644 1096.59 704.547 1091.94 707.892C1080.1 716.424 1064.63 716.901 1052 722.102C1032.74 730.036 1016.99 758.728 1025 778C1037.13 772.994 1038.86 780.274 1048 787L1049 782C1052.31 781.858 1056.76 781.878 1059.3 779.411C1061.85 776.935 1061.99 772.126 1066.1 771.377C1080.09 768.831 1082.01 791.801 1082 800L1085 799C1089.28 809.305 1093.52 823.013 1102.53 830.397C1105.49 832.821 1109.62 831.489 1113 832.858C1117.49 834.68 1120.33 839.047 1124 842L1124 843L1109.29 862L1105.06 869.701L1110.23 875.143L1112.62 881.712L1125 880L1122 893C1140.62 891.477 1159.52 879.923 1177 873.901C1182.18 872.118 1186.75 876.029 1191.96 873.311C1199.16 869.559 1198.67 861.496 1207 858L1203.06 841.274L1193.59 831.003L1201 816C1192.51 816 1171.51 815.43 1178.31 800.214C1180.46 795.411 1187.13 796.93 1189.97 793.272C1191.7 791.049 1190.68 787.683 1192.01 785.209C1197.91 774.224 1203 764.968 1203 752C1199.8 751.748 1196.13 750.594 1193 751.613C1189.84 752.641 1187.53 755.711 1184.02 755.704C1167.28 755.668 1183.65 732.605 1185 727C1180.85 725.005 1168.55 721.464 1164.14 722.373C1160.7 723.084 1160.21 729.377 1156.18 728.248C1152.7 727.273 1152.69 721.783 1150.49 719.418C1145.95 714.552 1141.24 715.999 1142 708C1139.03 707.541 1132.48 710.656 1130.63 709.11C1128.42 707.273 1130.02 702.53 1129.35 700C1127.43 692.776 1122 689.577 1115 689C1114.09 684.603 1112.03 682.815 1108 681M1237 870C1233.86 879.037 1223.93 880.732 1225 890L1220 891C1218.92 884.415 1214.26 886.351 1209 886C1209 900.958 1213.94 896.814 1225 895.675C1229.05 895.258 1233.9 896.497 1237.49 893.836C1240.84 891.348 1240.95 887.263 1245 885L1251 901C1263.42 883.515 1254.53 875.703 1237 870M1171 933L1173 937L1174 937L1184.57 911L1196 895L1199 897C1205.2 884.195 1198.18 879.33 1186 878.17C1172.91 876.924 1163.23 884.013 1152 889.236C1147.73 891.221 1140.95 891.437 1138.03 895.637C1134.66 900.468 1139.98 906.296 1140.78 911C1141.52 915.417 1139.36 920.897 1141.12 925C1146.12 936.724 1160.84 936.702 1171 933M1123 917L1137 913L1129 897C1116.52 902.521 1119.2 906.095 1123 917M1222 926C1224.96 927.745 1229.21 931.068 1232.85 930.434C1240.23 929.152 1241.3 913.44 1240 908L1239 908L1238 911C1235.54 910.147 1233.29 909.174 1231 907.926C1216.27 899.898 1223.99 918.685 1222 926M1205 911C1199.13 920.116 1215.22 920.05 1205 911M1108 920C1106.42 921.863 1104.97 923.272 1102.97 924.696C1089.65 934.216 1116.63 931.46 1108 920M1114 936C1116.18 945.95 1113.19 947.525 1104 951C1104.72 956.396 1101.14 960.911 1101.85 966C1103.29 976.327 1112.66 983.355 1116.97 992C1119.66 997.391 1117.71 1003.61 1122.64 1008.35C1126.77 1012.32 1133.42 1011.07 1137.61 1015.34C1143.34 1021.19 1147.67 1037.25 1159.85 1032.09C1164.24 1030.23 1161.27 1024.59 1162.45 1021C1164.43 1014.94 1169.86 1012.9 1173 1008C1171.06 1008.15 1168.94 1008.62 1167 1008.49C1161.25 1008.1 1160.51 1002.34 1162.99 998.044C1165.17 994.26 1181.24 984.888 1168 982L1160 960C1151.67 962.183 1141.98 955.099 1139.64 947C1138.83 944.196 1139.98 939.146 1137.4 937.194C1132.44 933.449 1119.97 936.421 1114 936M1103 937L1104 942L1107 938L1103 937M1043 966L1042 969L1038 968C1035.02 971.863 1031.69 974.062 1030.38 979.004C1029.47 982.443 1029.16 985.47 1029.58 989C1030.39 995.752 1035.97 1009.12 1045.3 1000.4C1053.62 992.619 1052.92 972.022 1043 966M1060 998L1058 991C1051.72 995.474 1052.53 999.793 1049.44 1006C1044.32 1016.29 1036.12 1028.46 1034.51 1040C1033.36 1048.21 1040.54 1056.31 1049 1055.38C1057.28 1054.47 1068.53 1051.92 1074.82 1046.33C1079.68 1042 1082.24 1035.93 1088 1032.48C1094.82 1028.4 1105.03 1028.8 1110.16 1021.79C1116.72 1012.81 1112.52 991.697 1102 987.117C1095.06 984.097 1088.5 990.443 1082.91 992.951C1080.04 994.241 1076.99 992.892 1074 993.433C1068.95 994.348 1065.35 997.711 1060 998z"/>
</svg>
