<?xml version="1.0" standalone="yes"?>
<svg xmlns="http://www.w3.org/2000/svg" width="1450" height="1341">
<path style="fill:#010101; stroke:none;" d="M0 0L0 1341L1450 1341L1450 0L0 0z"/>
<path style="fill:#ffffff; stroke:none;" d="M738 180C737.891 192.022 729.728 195.153 719 196L720.307 215.667L705.058 218.264L696 232C684.937 227.394 667.992 219.774 657.702 231.532C653.531 236.299 653.919 243.869 649.363 248.57C643.213 254.917 632.17 257.551 625.637 263.699C618.084 270.809 614.617 280.982 606 288L606 289C612.232 295.743 615.543 292.475 623 294.947C627.111 296.31 629.797 300.231 634 301.486C638.201 302.74 642.978 300.982 646.985 303.028C650.105 304.62 651.806 308.097 655.089 309.397C660.065 311.365 667.139 308.863 671.146 313.513C679.606 323.332 676.959 343.611 683.854 355C686.797 359.86 693.452 363.506 691.095 369.995C687.452 380.025 665.653 371.761 669.319 385.961C671.681 395.113 682.707 390.085 689 391.786C708.241 396.986 730.983 400.305 751 403C750.778 413.769 752.078 429.803 749.228 439.961C747.839 444.908 742.647 447.538 741.502 453C740.523 457.665 733.283 465.212 736.644 469.64C740.15 474.261 744.238 469.613 748.424 470.384C753.429 471.307 758.29 475.97 763 478C760.429 484.268 758.551 492.229 754.914 497.895C751.305 503.519 747.566 505.116 745.33 512C744.044 515.96 741.288 522.435 744.028 526.363C751.172 536.604 773.715 525.587 776.396 541.004C777.205 545.659 773.975 549.026 772.389 553C769.383 560.53 768.496 570.677 763.146 577.61C759.639 582.154 755.387 582.42 754.505 589.001C752.459 604.261 768.99 608.705 769 622C772.628 621.539 777.469 619.758 780.996 621.198C785.968 623.227 789.037 629.417 793.004 632.856C796.907 636.238 804.013 638.896 809 640.262C816.194 642.234 819.775 635.668 825.714 633.704C831.205 631.888 836.865 632.554 843 630L839.602 620.576L845.784 609L842.473 600L846.838 585.961L846.607 574.004L853.925 564.911L859 548L874 551.412L895 555C896.768 548.981 899.211 546.434 905 544L909.869 570L919 586C923.284 584.278 922.985 581.226 923 577L937 581C939.23 571.95 940.531 570.325 947.683 564.648C951.361 561.729 951.025 556.936 956.005 554.857C969.376 549.275 986.859 555.484 997.826 562.857C1001.28 565.178 1002.75 569.555 1006.32 571.686C1010.91 574.418 1017.1 573.871 1022 575.879C1025.92 577.489 1028.56 582.273 1033.01 582.508C1038.22 582.783 1048.65 575.999 1053 573C1047.39 559.404 1060.93 549.97 1064.88 537C1068.7 524.427 1062.26 511.718 1064.32 499C1065.01 494.739 1068.62 491.895 1070.15 488C1072.54 481.904 1073.98 469.588 1073.74 463C1073.33 452.083 1064.36 450.598 1056 447.151C1050.6 444.925 1046.02 440.449 1042 447L1024 439C1019.01 451.089 1030.39 462.243 1011 465.607C1008.39 466.061 1005.55 466.72 1003.15 465.168C1000.14 463.224 1000.55 459.077 997.683 457.179C993.899 454.677 987.363 457.509 985.496 451.941C982.449 442.853 1001.34 437.613 993.972 426.534C991.026 422.103 985.704 425.365 982.189 422.304C978.135 418.773 979.834 412.637 975.721 409.093C971.761 405.682 965.876 401.98 961 400.089C958.252 399.023 954.891 399.755 952.638 397.593C948.99 394.09 948.598 387.708 948 383C937.48 384.657 938.831 394.941 934.143 401.816C929.593 408.487 923.318 412.603 919 420C916.412 414.163 916.462 407.372 913.03 402C904.697 388.958 889.384 376.594 878.61 365.666C869.745 356.675 857.789 350.63 851.529 339C849.44 335.121 849.346 322.73 851.662 319C854.093 315.085 859.013 311.945 859.396 307.001C860.117 297.684 849.847 301.677 846.573 295.852C843.053 289.59 847.604 281.809 845.682 275.134C844.561 271.24 840.154 271.163 837.133 269.443C834.538 267.965 833.389 265.058 830.776 263.651C826.414 261.302 820.663 261.533 817.697 256.815C813.898 250.773 823.486 245.838 821.579 240.163C820.235 236.164 814.768 238.232 812 239L804.51 225.961L800.742 198.001L806.972 188.83L813 166C803.086 163.436 794.853 168.218 787.669 175.39C785.166 177.888 783.476 182.142 779.907 183.307C772.403 185.756 763.987 179.128 757 177.649C751.309 176.444 743.677 178.942 738 180z"/>
</svg>
