<?xml version="1.0" standalone="yes"?>
<svg xmlns="http://www.w3.org/2000/svg" width="1450" height="1341">
<path style="fill:#010101; stroke:none;" d="M0 0L0 1341L1450 1341L1450 0L0 0z"/>
<path style="fill:#ffffff; stroke:none;" d="M648 728L640 730L624 743L623 759L608 758C606.972 765.697 600.116 773.58 593 776.606C588.878 778.36 581.691 778.172 579.047 782.404C576.471 786.526 582.087 789.531 585 791C581.778 795.701 574.789 811.864 579.028 817.262C583.1 822.45 588.067 822.792 591 830C593.613 829.959 596.449 831.173 599 830.735C602.336 830.163 605.159 826.217 608.786 827.546C613.752 829.365 613.922 836.53 620.001 837.997C629.362 840.256 642.703 831.818 640.536 850C639.817 856.027 633.493 857.336 629.325 860.135C621.499 865.39 612.519 885.328 623 891C617.38 901.248 631.832 913.823 627.242 924.981C625.564 929.062 617.248 942.682 612.96 943.269C607.711 943.986 601.18 939.207 596.464 942.029C590.984 945.307 584.852 953.547 585.045 960C585.152 963.59 587.308 967.468 586.624 970.999C585.792 975.295 578.391 978.812 581.337 983.57C586.714 992.254 604.713 985.696 611.957 987.206C623.818 989.679 630.93 1007.23 635 1017L667 998.301L676 991.556L687 994C695.137 980.993 710.394 969.114 725 965L727.854 998L755 1031C763.311 1023.09 763.077 1008.44 769.086 999.105C773.899 991.626 793.631 981.852 801.772 988.564C805.81 991.894 808.872 1002.07 811 1007L815 1006L817 1014C828.598 1012.01 822.079 998.602 822.079 991C822.078 987.631 823.778 983.568 822.394 980.329C821.399 978 819.112 977.039 817 976L817 975C825.69 970.969 832.927 947.844 823.786 941.352C814.336 934.64 802.916 933.122 793 928.161C787.66 925.489 784.227 920.169 778 919.319C770.823 918.341 763.456 921.568 756 921C758.256 912.991 762.64 901.834 770.224 897.314C775.456 894.196 782.455 894.907 788 892C786.38 888.109 784.579 882.465 780.787 880.175C772.713 875.298 758.979 878.245 754.786 866.997C752.854 861.814 757.728 859.774 762.001 860.305C770.156 861.318 776.179 858.686 784 858.843C792.589 859.016 797.016 861.531 806 859C809.585 866.29 813.521 863.361 819.961 865.585C829.448 868.861 845.582 882.726 854.982 875.742C863.418 869.472 859.207 858.336 867 852C865.974 844.048 865.634 840.627 873 836L859 808L890 821C889.993 810.055 887.738 805.088 883.027 795.961C880.368 790.809 882.547 783.342 874 787C872.647 781.307 868.679 777.348 866.944 772C863.827 762.395 864.217 756.447 855 749.303C848.808 744.505 839.898 745.959 833.04 742.431C822.839 737.185 819.978 718.933 822 709C834.425 711.563 843.26 706.269 854 700L848 676C856.674 678.407 866.81 670.853 865.362 661C864.118 652.535 858.31 647.636 851 644L852 631C844.062 630.002 840.341 633.595 833 634.645C830.27 635.035 827.7 633.567 825 634.526C820.045 636.287 816.852 641.78 811 641.278C795.31 639.932 786.28 616.261 771.105 622.89C765.275 625.436 764.137 633.508 763.066 639C761.474 647.166 758.73 664.264 754.397 670.995C749.468 678.651 740.315 676.822 733 680.262C723.457 684.751 716.631 693.099 707.896 697.566C704.161 699.477 695.782 703.127 691.896 703.962C688.542 704.683 685.357 702.663 682.059 704.357C676.91 707.003 678.114 713.292 676.722 717.985C675.628 721.675 671.706 726.607 668.726 729.046C662.585 734.074 652.608 735.971 648 728z"/>
</svg>
