<?xml version="1.0" standalone="yes"?>
<svg xmlns="http://www.w3.org/2000/svg" width="1450" height="1341">
<path style="fill:#010101; stroke:none;" d="M0 0L0 1341L1450 1341L1450 0L0 0z"/>
<path style="fill:#ffffff; stroke:none;" d="M806 860C797.266 861.803 792.279 859.511 784 859.51C777.181 859.51 772.075 862.987 765 861.661C761.052 860.922 753.01 860.478 755.198 866.989C758.597 877.101 772.185 875.522 779.895 878.89C784.814 881.038 787.079 888.385 789 893C771.916 897.661 762.194 901.56 757 920C764.515 921.374 771.875 916.872 779 918.738C784.478 920.173 787.856 925.405 793 927.633C803.136 932.023 818.897 933.951 826.346 943.213C832.604 950.993 825.929 970.662 818 975L818 976C826.282 980.948 823.832 996.809 825 1006L831 1008C833.303 1003.47 836.852 1000.5 842 1002L839 990L852 983L855 986C858.094 971.854 874.763 977.41 881 965C884.909 967.621 887.508 972.98 892.043 974.272C902.107 977.137 911.764 961.708 922 960.117C929.088 959.016 937.972 965.843 945 967.331C952.703 968.962 957.759 963.947 965 964.063C969.512 964.135 973.161 968.043 977 970C976.83 966.031 978.466 955.317 976.214 952.514C970.449 945.334 954.688 950.807 947 948.301C940.927 946.322 936.412 940.886 930 939.727C924.079 938.656 918.828 944.438 913.213 940.269C905.635 934.642 911.079 926.242 908.397 919.001C904.244 907.792 890.482 903.827 880 903C881.297 894.968 873.713 892.784 873.569 886C873.37 876.603 879.635 869.425 875.11 859.174C873.81 856.228 868.975 851.467 865.514 853.876C857.14 859.705 864.95 875.568 850 878.674C843.299 880.067 828.014 870.008 821.714 866.973C815.159 863.815 810.47 867.482 806 860z"/>
</svg>
