<?xml version="1.0" standalone="yes"?>
<svg xmlns="http://www.w3.org/2000/svg" width="1450" height="1341">
<path style="fill:#010101; stroke:none;" d="M0 0L0 1341L1450 1341L1450 0L0 0z"/>
<path style="fill:#ffffff; stroke:none;" d="M1102 376C1102.91 383.179 1107.51 390.145 1107.85 397C1108.31 406.449 1100.87 413.996 1107.14 423.787C1113.58 433.837 1129.81 435.72 1133.53 449C1134.57 452.704 1131.95 456.417 1131.33 460C1130.2 466.499 1132.35 473.676 1130.3 480C1128.55 485.412 1124.9 488.97 1126.97 495C1132.65 511.591 1151.14 509.997 1161.06 524.001C1170.55 537.409 1154.05 540.992 1150.65 551.999C1148.62 558.583 1155.12 559.347 1155.39 564.715C1155.51 567.204 1152.13 569.874 1151 572C1164.22 575.132 1168.34 583.811 1179.01 590.137C1182.78 592.368 1185.85 589.589 1189.42 590.848C1193.1 592.144 1195.29 596.148 1199 597.47C1203.57 599.097 1212.96 593.59 1216.67 590.926C1222.97 586.408 1223.62 577.392 1230.04 572.966C1236.4 568.586 1244.17 572.74 1249 567L1250 567L1257 595L1263 592C1265.12 596.209 1274.07 606.635 1278.97 599.566C1282.25 594.841 1280.22 588.212 1284.39 583.015C1288.77 577.551 1298.22 574.44 1300.87 567.957C1302.7 563.503 1300.42 556.939 1301 552C1308.69 553.341 1309.95 548.974 1315.09 544.189C1317.57 541.877 1322.23 540.636 1323.93 537.701C1327.27 531.937 1321.54 522.208 1318 518L1332 515C1332.15 511.458 1333.42 507.414 1332.13 504C1330 498.372 1323.9 494.974 1322.36 489C1320.94 483.478 1325.97 479.222 1326.79 474C1327.87 467.01 1323.59 460.765 1324.47 454C1325.57 445.496 1332.39 440.336 1334.95 432.911C1336.55 428.269 1332.34 425.4 1332.36 421C1332.39 412.816 1339.39 404.786 1336.41 396C1333.93 388.683 1327.72 387.717 1322.21 383.914C1318.9 381.627 1318.62 377.272 1315.58 374.857C1311.82 371.872 1306.14 372.035 1302.13 369.034C1295.18 363.825 1298.46 352.237 1291.47 346.607C1285.73 341.988 1274.98 349.462 1269 350.62C1258.39 352.674 1248.48 344.267 1237 347C1240.92 366.062 1229.98 368.571 1218.3 380.3C1214.76 383.853 1212.1 392.403 1206.1 392.199C1203.25 392.102 1197.51 386.922 1195.32 385.01C1191.56 381.72 1195.18 377.845 1195.68 374C1196.23 369.846 1194.57 362.264 1194.09 357.985C1193.18 349.847 1184.63 342.246 1180 336L1151 347.557L1126 348.643L1111.03 361.518L1102 376z"/>
</svg>
