<?xml version="1.0" standalone="yes"?>
<svg xmlns="http://www.w3.org/2000/svg" width="1450" height="1341">
<path style="fill:#010101; stroke:none;" d="M0 0L0 1341L1450 1341L1450 0L0 0z"/>
<path style="fill:#ffffff; stroke:none;" d="M687 995L676 991.932L665 999.926L635 1019C632.023 1008.66 624.035 991.433 612.791 987.915C609.063 986.749 604.821 989.476 601 989.387C594.406 989.235 587.473 987.22 581 986L569 1000C566.362 989.057 558.908 991.181 551 986.286C542.907 981.276 529.597 970.661 533 989C524.771 989.17 500.126 983.216 507.134 998.995C508.096 1001.16 509.641 1003.08 511 1005L502 1002C497.305 1009.42 491.555 1009.17 484 1012C485.644 1017.84 489.917 1024.29 490.758 1030C492.025 1038.58 486.655 1046.77 491.395 1055.68C493.541 1059.71 500.19 1056.31 503.123 1061.06C505.67 1065.18 502.002 1067.72 500 1071L508 1074L509 1071L519 1070L520 1076L534 1077C532.685 1083.29 531.124 1088.46 524 1089L525 1093L512 1089C505.549 1101.4 516.94 1102.95 518.533 1114C519.269 1119.1 512.042 1127.63 519.148 1130.99C526.952 1134.68 533.746 1125.42 542 1128L555.869 1113L570.39 1090.77L582 1088L578 1099C585.742 1100.2 586.843 1093.27 593 1090C586.382 1104.28 595.155 1116.08 610 1118L609 1121C612.496 1121.72 629.934 1116.8 631.382 1113.68C632.73 1110.77 630.886 1106.79 630 1104C637.315 1103.69 648.541 1104.75 654 1110C659.31 1107.97 657.619 1104.72 659.559 1100.29C662.972 1092.48 668.076 1083.42 676 1079.46C683.867 1075.52 703.102 1073.53 712 1073.81C719.116 1074.04 723.891 1077.98 731 1075L729 1070C733.432 1068.35 740.904 1066.99 742.759 1061.96C746.16 1052.73 733.496 1050.42 728 1054L726 1049C732.485 1045.02 726.495 1035.22 726 1029L755 1032L739.171 1016.77L727.302 998L724 966C709.938 969.961 693.686 981.578 687 995M665 1105C680.701 1102.81 660.81 1093.11 665 1105M709 1172C716.191 1166.89 736.037 1165.15 734.203 1151.06C733.325 1144.31 724.979 1149.6 727 1140L730 1141C731.237 1137.45 730.756 1134.16 726.972 1132.28C723.963 1130.78 721.139 1132.6 718 1132.11C710.876 1131.01 704.562 1128.24 698 1125.69C695.315 1124.65 694.514 1125.6 694 1128C688.731 1124.78 682.473 1119.91 676 1120.33C664.576 1121.08 652.368 1132.8 661.024 1144.44C665.634 1150.64 674.022 1147.38 679.999 1148.22C686.03 1149.06 686.928 1155.96 692.019 1158.21C695.391 1159.71 714.205 1153.77 712.325 1163.58C711.705 1166.82 709.147 1168.43 709 1172M618 1158C622.522 1158.27 625.571 1156.85 628 1153L636 1156L635 1161C643.104 1157.79 657.397 1147.9 654.766 1137.01C653.474 1131.67 648.468 1127.88 647 1122L625.075 1133.28L618 1158M489 1125L485 1134C488.231 1131.97 489.852 1128.79 489 1125M510 1125L500 1127C494.096 1134.96 487.157 1135.61 480.749 1141.51C474.56 1147.22 471.34 1157.98 470.147 1166C469.363 1171.28 468.184 1179.09 470.84 1183.9C474.373 1190.29 484.627 1190.7 480.541 1199.98C477.743 1206.34 473.39 1203.43 468.3 1205.6C465.646 1206.74 464.226 1209.54 461.826 1211.06C456.131 1214.68 449.643 1213.63 447 1221L444 1218L443 1218C437.86 1225.51 431.51 1230.17 423 1234L423 1250C431.463 1253.28 431.628 1257.16 435 1265C443.286 1262.75 448.895 1253.53 458 1259C463.016 1254.24 468.805 1255.25 473.258 1251.93C476.393 1249.6 474.655 1241.37 480.428 1241.61C485.967 1241.85 486.456 1249.33 490.299 1251.68C495.31 1254.73 504.775 1244.8 509 1242C509.99 1249.1 512.731 1249.76 518 1245C522.836 1257.59 520.618 1267.35 518 1280C524.272 1280.79 529.127 1281.66 532 1275L524 1278C524.154 1265 540.793 1254.91 541.941 1241.99C542.287 1238.09 540.74 1227.69 546.655 1226.77C550.246 1226.21 555.126 1234.62 559 1236L566 1227L565 1226L557 1230L557 1215C544.103 1209.78 522.211 1224.8 516 1236L515 1236L512 1217C521.994 1214.8 520.344 1205.98 523.613 1198C525.806 1192.64 529.181 1188.93 530 1183L525 1191L522 1182L507.059 1184.37L496 1175L496 1174C501.145 1171.59 509.601 1170.02 513.855 1167.12C518.758 1163.78 519.884 1145.69 530 1158C532.939 1154.89 525.108 1140.22 520.856 1138.93C517.921 1138.03 513.142 1141.46 510.928 1138.5C508.605 1135.39 511.643 1128.92 510 1125M779 1132L780 1137L776 1141L782 1142L790 1131L779 1132M777 1170L770 1173L771 1180C790.445 1185.47 809.91 1177.36 825 1164.16C830.075 1159.72 835.863 1157.09 837 1150C831.736 1147.49 828.364 1144.36 826 1139L821 1140L819 1130C811.806 1131.99 806.331 1137.88 799.791 1140.82C785.715 1147.15 771.593 1150.76 777 1170M755.005 1139.59C744.465 1141.36 733.379 1171.97 751 1169.68C758.15 1168.75 767.366 1161.93 767.231 1154C767.141 1148.76 760.997 1138.59 755.005 1139.59M741 1175L729 1180L730 1185C734.513 1183.53 745.486 1181.51 741 1175M495 1301C497.771 1302.56 501.501 1305.93 504.867 1305.53C514.69 1304.39 511.477 1281.84 511 1276C501.279 1277.09 497.76 1292.8 495 1301z"/>
</svg>
