<?xml version="1.0" standalone="yes"?>
<svg xmlns="http://www.w3.org/2000/svg" width="1450" height="1341">
<path style="fill:#010101; stroke:none;" d="M0 0L0 1341L1450 1341L1450 0L0 0z"/>
<path style="fill:#ffffff; stroke:none;" d="M414 386L400.603 396.39L398.593 410.482L374 433C369.001 430.922 361.193 428.988 357.649 424.775C353.329 419.641 354.702 411.935 346.996 409.978C332.723 406.355 325.287 420.783 312 420.131C304.897 419.783 298.753 411.598 293 408L277 437C272.173 434.99 267.044 432.834 263.465 428.895C253.945 418.422 247.954 395.754 228.015 402.703C217.164 406.485 224.637 417.118 222.362 425C219.87 433.633 211.158 437.577 206.938 445C201.467 454.624 207.066 474.749 189 473.09C185.636 472.781 182.303 471.681 179 471C178.186 474.306 178.16 478.794 176.062 481.582C171.293 487.918 160.428 486.206 154 489.565C142.163 495.749 130.572 505.25 121.367 514.585C119.29 516.691 115.719 517.092 114.028 519.51C110.957 523.901 114.44 529.702 118.019 532.362C124.416 537.115 140.454 534.74 141.839 545C142.31 548.495 138.885 552.135 137.312 555C133.143 562.593 123.892 573.911 122.079 582C121.02 586.72 126.625 595.156 128 600C137.09 596.216 150.232 596.355 157.096 588.61C162.272 582.768 164.497 563.029 171.214 560.694C180.874 557.336 184.492 574.747 195.811 569.967C200.959 567.793 200.165 560.125 203.684 556.144C210.853 548.035 222.553 552.69 231 555L230 561C235.509 562.201 242.404 571.709 246.802 571.079C249.936 570.629 251.617 565.294 253.09 563C256.594 557.545 261.371 552.127 268 550.576C273.674 549.249 281.061 557.084 286.351 552.393C289.749 549.38 290.276 543.133 291.424 539C294.734 527.094 297.809 517.977 311.169 515.185C317.611 513.839 320.008 521.978 323.159 525.942C326.355 529.963 330.087 530.785 335 531C332.46 537.548 330.061 543.014 332.879 550C333.925 552.595 336.802 554.838 337.275 557.576C338.374 563.946 328.546 577.256 324 581L324 582C330.551 590.262 335.783 603.589 337.826 614C338.693 618.416 336.48 626.121 338.422 629.697C340.016 632.631 344.106 632.761 347 633C349.028 642.503 369.805 637.717 373 631L390.424 645.261L402.985 643.658L417 656L418 656L436.532 640.787L445.108 629.704L459 631C458.428 632.718 457.345 634.871 458.238 636.687C459.423 639.099 462.811 638.903 464.91 640.008C469.824 642.594 475.055 651.735 480.105 652.508C488.7 653.822 494.068 643.273 497 637C503.534 641.38 504.083 652.384 512 653C502.652 676.139 539.649 660.529 545.972 651.366C548.746 647.346 546.185 640.447 546.043 636C545.843 629.717 548.13 623.934 549.86 618C553.188 606.582 564.113 595.448 565.755 584C566.68 577.554 558.172 574.034 561.014 567.019C562.725 562.796 566.476 563.308 569.066 560.401C572.075 557.023 573.759 549.342 575 545C570.659 543.388 567.638 542.742 565 547C562.036 543.804 560.852 539.802 558.147 536.637C555.689 533.761 551.223 533.158 550.361 528.957C549.509 524.805 552.854 521.182 552.377 517C551.956 513.303 549.602 509.832 550.357 506C551.668 499.352 562.549 494.459 559.968 487.001C557.131 478.804 547.21 479.155 542.938 472.787C538.312 465.89 543.796 457.256 540.586 450C534.808 436.936 518.684 428.552 516 415C507.734 415.545 501.782 408.845 494 407.851C488.917 407.202 485.128 412.195 480 412.196C473.829 412.198 464.927 412.729 459 411.595C448.081 409.506 442.173 405.448 431 410C431 397.274 424.982 392.317 414 386z"/>
</svg>
