<?xml version="1.0" standalone="yes"?>
<svg xmlns="http://www.w3.org/2000/svg" width="1450" height="800">
                        <path onclick = "Ibaraki()" class = "Ibaraki" style = "fill:#010101; stroke:none;" d="M0 0L0 800L1450 800L1450 0L0 0z"/>
                        <path onclick = "Ibaraki()" class = "Ibaraki" style = "fill:#ffffff; stroke:none;" d="M458 349C457.312 353.187 459.348 358.156 457.968 361.985C456.653 365.639 452.977 368.099 449.996 370.294C447.177 372.37 443.674 376.202 440 376.455C425.166 377.476 417.758 354.365 405 350C402.399 358.8 404.139 372.965 405.264 382C405.695 385.458 408.716 388.455 408.342 392C407.721 397.89 399.908 399.721 400.269 406.004C400.508 410.167 403.175 413.839 403.585 418C404.917 431.521 401.867 448.74 391.772 458.772C387.099 463.416 378.926 462.369 373 464.439C361.521 468.45 354.084 475.758 343.83 480.934C341.489 482.116 338.676 480.95 336.43 482.269C333.39 484.053 333.154 489.206 331.297 492C326.1 499.821 318.234 504.306 309 504C309.056 510.798 310.66 520.464 315.965 525.381C319.328 528.498 323.13 523.014 326.455 526.373C332.317 532.294 336.418 541.133 341.814 547.61C351.516 559.256 364.242 565.362 378 570.598C381.562 571.954 384.054 575.957 388 576.292C394.033 576.805 410.495 573.546 416 570.822C423.995 566.866 432.246 559.919 442 563L444 556L430.961 549.933L418 552L422 545C418.077 539.261 412.015 541.778 406 540.316C403.041 539.596 391.031 531.151 398.282 528.341C400.669 527.416 403.683 530.602 406.039 531.034C411.839 532.097 420.207 532.444 425 529L425 528L416 521L413 512L421 513L440.359 544.867L446 555L464 560C460.85 554.279 456.544 546.711 450 545C455.117 536.531 447.733 524.293 447 515L461 540C460.554 546.409 465.332 551.792 466.15 558C466.889 563.615 462.777 567.536 467.638 572.682C471.226 576.481 476.817 575.404 480.363 580.044C486.331 587.855 490.838 597.757 502 599C484.32 568.267 454.525 531.802 456.098 494C456.41 486.5 463.11 477.648 465.075 470C466.994 462.529 462.693 454.365 464.482 447C469.055 428.181 480.106 411.852 483.804 393C484.915 387.335 486.169 380.792 489.648 376.043C491.184 373.948 496.143 371.183 495.248 368.123C494.339 365.012 489.572 364.585 487 363.844C481.121 362.15 471.226 359.8 466.104 356.972C462.685 355.085 461.345 351.044 458 349z"/>
                        <path onclick = "Ibaraki()" class = "Ibaraki" style = "fill:#dadada; stroke:none;" d="M404 350L405 351L404 350M460 350L461 351L460 350M409 351L410 352L409 351M457 351L458 352L457 351M411 352L412 353L411 352M457 355L458 356L457 355M463 355L464 356L463 355M403.333 356.667L403.667 357.333L403.333 356.667M465 357L466 358L465 357M417 358L418 359L417 358M475 358L476 359L475 358M477 359L478 360L477 359M419 361L420 362L419 361M480 361L481 362L480 361M458 362L459 363L458 362M404 364L405 365L404 364M489 364L490 365L489 364M455 366L456 367L455 366M495 366L496 367L495 366M427 370L428 371L427 370M405.333 371.667L405.667 372.333L405.333 371.667M429 371L430 372L429 371M448 371L449 372L448 371M431 372L432 373L431 372M435 375L436 376L435 375M405.333 376.667L405.667 377.333L405.333 376.667M442 376L443 377L442 376M405 384L406 385L405 384M485 385L486 386L485 385M484 389L485 390L484 389M483.333 394.667L483.667 395.333L483.333 394.667M482.333 400.667L482.667 401.333L482.333 400.667M479 408L480 409L479 408M401 410L402 411L401 410M403 416L404 417L403 416M403 421L404 422L403 421M472 422L473 423L472 422M470 427L471 428L470 427M468 434L469 435L468 434M403 438L404 439L403 438M467 438L468 439L467 438M402 440L403 441L402 440M400 443L401 444L400 443M464 445L465 446L464 445M463.333 448.667L463.667 449.333L463.333 448.667M396 449L397 450L396 449M464 451L465 452L464 451M465 452L466 453L465 452M465 454L466 455L465 454M394 455L395 456L394 455M464 456L465 457L464 456M464 459L465 460L464 459M388 461L389 462L388 461M381 462L382 463L381 462M370 465L371 466L370 465M367 466L368 467L367 466M362 468L363 469L362 468z"/>
                        <path onclick = "Ibaraki()" class = "Ibaraki" style = "fill:#c1e9ff; stroke:none;" d="M465 468L466 469L465 468z"/>
                        <path onclick = "Ibaraki()" class = "Ibaraki" style = "fill:#dadada; stroke:none;" d="M385 470L386 471L385 470M354 472L355 473L354 472z"/>
                        <path onclick = "Ibaraki()" class = "Ibaraki" style = "fill:#c1e9ff; stroke:none;" d="M464 472L465 473L464 472M463 474L464 475L463 474M462 477L463 478L462 477z"/>
                        <path onclick = "Ibaraki()" class = "Ibaraki" style = "fill:#dadada; stroke:none;" d="M345 480L346 481L345 480M336 481L337 482L336 481M339 481L340 482L339 481z"/>
                        <path onclick = "Ibaraki()" class = "Ibaraki" style = "fill:#c1e9ff; stroke:none;" d="M461 481L462 482L461 481z"/>
                        <path onclick = "Ibaraki()" class = "Ibaraki" style = "fill:#dadada; stroke:none;" d="M455 483L455 485L457 485L457 483L455 483z"/>
                        <path onclick = "Ibaraki()" class = "Ibaraki" style = "fill:#c1e9ff; stroke:none;" d="M460 484L461 485L460 484M459 486L460 487L459 486z"/>
                        <path onclick = "Ibaraki()" class = "Ibaraki" style = "fill:#dadada; stroke:none;" d="M333 487L334 488L333 487z"/>
                        <path onclick = "Ibaraki()" class = "Ibaraki" style = "fill:#c1e9ff; stroke:none;" d="M458 487L459 488L458 487M457 488L458 489L457 488M456 489L457 490L456 489z"/>
                        <path onclick = "Ibaraki()" class = "Ibaraki" style = "fill:#dadada; stroke:none;" d="M332 490L333 491L332 490M331 492L332 493L331 492M324 499L325 500L324 499M321 501L322 502L321 501M319 502L320 503L319 502M317 503L318 504L317 503M457.333 505.667L457.667 506.333L457.333 505.667M458 510L459 511L458 510z"/>
                        <path onclick = "Ibaraki()" class = "Ibaraki" style = "fill:#01a3ff; stroke:none;" d="M413 512L416 521L425 528L425 529C420.175 531.638 411.3 532.229 405.87 530.752C403.468 530.099 400.919 526.925 398.279 527.751C390.614 530.147 401.657 539.502 405 540.316C411.563 541.914 416.891 539.695 422 545L418 552C430.068 549.75 433.929 553.849 445 557C446.636 550.046 443.029 549.559 440.359 543.945C435.493 533.717 429.924 520.055 421 513L413 512M447 515C447.413 524.617 454.332 535.93 450 545L464 560L458 561C460.72 568.191 466.57 567.121 466.574 559C466.577 552.741 461.746 546.378 461 540L447 515z"/>
                        <path onclick = "Ibaraki()" class = "Ibaraki" style = "fill:#dadada; stroke:none;" d="M461 522L462 523L461 522M322 524L323 525L322 524M315 525L316 526L315 525M462 525L463 526L462 525M320 526L321 527L320 526M463 528L464 529L463 528M464 531L465 532L464 531M332 535L333 536L332 535M333 536L334 537L333 536M466 536L467 537L466 536M334 537L335 538L334 537M335 538L336 539L335 538M468 541L469 542L468 541M340 545L341 546L340 545M345 550L346 551L345 550M474 551L475 552L474 551M476 553L477 554L476 553M350 555L351 556L350 555M450 556L451 557L450 556M478 558L479 559L478 558M442 559L443 560L442 559M355 560L356 561L355 560M479 560L480 561L479 560M356 561L357 562L356 561M358 562L359 563L358 562M480 562L481 563L480 562M370 568L371 569L370 568M415 571L416 572L415 571M466 571L467 572L466 571M405 572L406 573L405 572M412 572L413 573L412 572M485 572L486 573L485 572M403 573L404 574L403 573M398 574L398 575L401 575L398 574M486 574L487 575L486 574M475 575L476 576L475 575M477 576L478 577L477 576M487 576L488 577L487 576M480 579L481 580L480 579M490 581L491 582L490 581M483 585L484 586L483 585M488 591L489 592L488 591M497 598L498 599L497 598z"/>
</svg>
