<?xml version="1.0" standalone="yes"?>
<svg xmlns="http://www.w3.org/2000/svg" width="1450" height="800">
                        <path onclick = "Hokkaido()" class = "Hokkaido" style = "fill:#010101;" d="M0 0L0 800L1450 800L1450 0L924 0C923.489 6.41522 923.493 16.0755 921.258 22C917.002 33.2853 907.768 38.4164 911 52C900.944 46.7799 899.529 36.8423 892.491 29.4182C887.975 24.6554 879.448 22.8068 874 18.9568C869.194 15.5602 865.51 9.39478 859.961 7.34027C838.332 -0.66626 817.706 0 795 0L721 0L444 0L449 3C457.159 17.3398 472.002 0.982727 481.816 5.21216C486.553 7.25397 489.772 15.2302 493.174 18.9962C504.062 31.0507 514.706 40.4301 524 54C527.396 54.8426 529.723 57.6713 533.004 59.0201C540.676 62.1747 560.705 66.4913 559.118 78.8527C558.68 82.2623 552.373 82.8485 550 84.5139C540.249 91.3574 534.415 97.623 523 102C517.274 91.4674 486.755 78.9502 481 95L480 95L480 77C464.26 75.0107 466.485 84.7172 457.674 94.9846C452.256 101.298 439.863 100.814 436.178 106.317C430.289 115.115 435.923 126.968 433.933 136C432.011 144.722 416.978 150.725 409 151C408.081 154.072 397.951 168.142 394.895 169.33C386.102 172.75 367.083 165.6 363.714 156.996C353.093 129.877 361.317 107.9 371.603 83.1049C373.353 78.8843 378.555 78.5086 380.058 73.9452C386.358 54.809 380.134 31.2178 369.301 15.0154C364.927 8.47412 358.518 8.67822 352 5.44293C330.414 -5.2724 299.274 0 275 0L0 0z"/>
                        <path onclick = "Hokkaido()" class = "Hokkaido" style = "fill:#d3d3d3;" d="M345 0L346 1L345 0z"/>
                        <path onclick = "Hokkaido()" class = "Hokkaido" style = "fill:#ffffff;" d="M346 0C350.233 8.25977 359.364 5.30945 365.482 10.5641C374.389 18.2134 380.081 34.703 381.7 46C382.944 54.6849 382.966 65.5255 380.28 73.9561C378.83 78.507 374.512 77.9834 372.179 81.4298C368.571 86.7603 365.453 96.7283 362.666 103C356.486 116.905 358.009 132.544 361.003 147C362.103 152.31 362.833 159.503 367.225 163.2C372.919 167.993 377.837 165.004 384 166.498C387.403 167.324 390.169 170.946 393.957 170.044C400.468 168.494 400.73 158.632 404.649 154.419C412.184 146.318 430.168 150.224 433.958 136.999C436.617 127.72 429.701 114.573 436.024 105.318C439.314 100.501 451.624 101.794 456.816 96.787C467.071 86.8957 463.129 75.6702 480 77L480 94C489.935 85.2021 501.881 87.19 513 93.3133C516.787 95.3987 520.622 99.9534 525 100.498C535.178 101.765 542.626 90.8967 549.17 85.3032C551.727 83.1172 558.466 82.858 559.694 79.686C560.994 76.3268 555.211 68.9637 552.726 66.9661C542.924 59.085 527.951 60.1742 519.51 49.8148C515.982 45.4847 515.06 39.4944 511.471 35.0394C505.984 28.2303 498.034 23.563 492.174 17C489.187 13.6555 486.548 7.24609 482.621 5.07098C476.756 1.82288 464.584 10.2203 457 8.4707C450.935 7.07153 446.907 1.63715 441 0.303223C431.524 -1.83667 419.71 0 410 0L346 0z"/>
                        <path onclick = "Hokkaido()" class = "Hokkaido" style = "fill:#d3d3d3;" d="M443 0L444 1L443 0z"/>
                        <path onclick = "Hokkaido()" class = "Hokkaido" style = "fill:#ffffff;" d="M837 0L837 1C844.267 2.68134 854.435 4.5072 860.911 8.16437C866.178 11.1392 869.792 16.9275 875 20.3009C880.12 23.6174 887.36 25.1633 891.722 29.3936C899.148 36.5958 899.763 48.1775 911 52C908.532 38.658 917.049 34.163 921.258 23C923.605 16.7792 923.468 6.7334 924 0L837 0z"/>
                        <path onclick = "Hokkaido()" class = "Hokkaido" style = "fill:#d3d3d3;" d="M444 1L445 2L444 1M445 2L446 3L445 2M448.333 3.66669L448.667 4.33331L448.333 3.66669M349 4L350 5L349 4M923 4L924 5L923 4M449 5L450 6L449 5M476 5L477 6L476 5M451 6L452 7L451 6M473 6L474 7L473 6M357 7L358 8L357 7M453 7L454 8L453 7M470 7L471 8L470 7M360.667 8.33331L361.333 8.66669L360.667 8.33331M456 8L457 9L456 8M465.667 8.33331L466.333 8.66669L465.667 8.33331M485 8L486 9L485 8M364.667 9.33331L365.333 9.66669L364.667 9.33331M487 11L488 12L487 11M367 12L368 13L367 12M369 15L370 16L369 15M490 15L491 16L490 15M371 18L372 19L371 18z"/>
                        <path onclick = "Hokkaido()" class = "Hokkaido" style = "fill:#ffffff;" d="M531 19L532 20L531 19z"/>
                        <path onclick = "Hokkaido()" class = "Hokkaido" style = "fill:#d3d3d3;" d="M372 20L373 21L372 20M373 22L374 23L373 22z"/>
                        <path onclick = "Hokkaido()" class = "Hokkaido" style = "fill:#01ffff;" d="M530 23L531 24L530 23z"/>
                        <path onclick = "Hokkaido()" class = "Hokkaido" style = "fill:#d3d3d3;" d="M374 24L375 25L374 24M500 25L501 26L500 25z"/>
                        <path onclick = "Hokkaido()" class = "Hokkaido" style = "fill:#ffffff;" d="M529 25L530 26L529 25z"/>
                        <path onclick = "Hokkaido()" class = "Hokkaido" style = "fill:#d3d3d3;" d="M375 26L376 27L375 26z"/>
                        <path onclick = "Hokkaido()" class = "Hokkaido" style = "fill:#67cdff;" d="M527 26L528 27L527 26z"/>
                        <path onclick = "Hokkaido()" class = "Hokkaido" style = "fill:#d3d3d3;" d="M887 26L888 27L887 26M376 28L377 29L376 28M377 30L378 31L377 30M506 30L507 31L506 30M378 33L379 34L378 33M379.333 36.6667L379.667 37.3333L379.333 36.6667M512 36L513 37L512 36M514 39L515 40L514 39M380 40L381 41L380 40M515 41L516 42L515 41M516 43L517 44L516 43M381 44L381 47L382 47L381 44M517 46L524 54L517 46M525 53L525 55L527 55L525 53M382 55L382 58L383 58L382 55M528 56L529 57L528 56M533 59L534 60L533 59M538 60L539 61L538 60M541 61L542 62L541 61M544 62L545 63L544 62M381.333 66.6667L381.667 67.3333L381.333 66.6667M380.333 72.6667L380.667 73.3333L380.333 72.6667M379.333 76.6667L379.667 77.3333L379.333 76.6667M376.667 78.3333L377.333 78.6667L376.667 78.3333M466 78L467 79L466 78M371 81L372 82L371 81M465 81L466 82L465 81M550 83L551 84L550 83M549 84L550 85L549 84M548 85L549 86L548 85M463 86L464 87L463 86M547 86L548 87L547 86M478 87L479 88L478 87M493 87L494 88L493 87M484 89L485 90L484 89M504 89L505 90L504 89M478 90L479 91L478 90M507 90L508 91L507 90M508 91L509 92L508 91M481 92L482 93L481 92M480 94L481 95L480 94M515 94L516 95L515 94M539 94L540 95L539 94M538 95L539 96L538 95M518 96L519 97L518 96M365 97L366 98L365 97M364 99L365 100L364 99M453 99L454 100L453 99M530 99L531 100L530 99M451 100L452 101L451 100M522 100L523 101L522 100M527 100L528 101L527 100M449 101L450 102L449 101M523 101L524 102L523 101M446 102L446 103L449 103L446 102M362 103L363 104L362 103M435 107L436 107L443 104C439.296 102.463 436.306 103.064 435 107M434 111L434 114L435 114L434 111M359 113L360 114L359 113M433 118L434 119L433 118M358 119L358 122L359 122L358 119M433 124L434 125L433 124M358 129L358 132L359 132L358 129M433 131L434 132L433 131M434 134L435 135L434 134M433 138L434 139L433 138M359 139L360 140L359 139M360 144L361 145L360 144M427 144L428 145L427 144M421 147L422 148L421 147M361 149L362 150L361 149M412 150L413 151L412 150M411 151L412 152L411 151M403 156L410 152L403 156M362 153L363 154L362 153M402 157L403 158L402 157M400 162L401 163L400 162M399 164L400 165L399 164M378 167L378 168L387 169C384.727 164.982 382.036 165.767 378 167M398 166L399 167L398 166M397 168L398 169L397 168z"/>
                        <path onclick = "Hokkaido()" class = "Hokkaido" style = "fill:#ffffff;" d="M406 437L406 444L407 444C408.267 440.833 408.823 439.169 406 437z"/>
</svg>
