                        <?xml version="1.0" standalone="yes"?>
                        <svg xmlns="http://www.w3.org/2000/svg" width="1450" height="800">
                        <path style="fill:#ffffff; stroke:none;" d="M1296 668C1293.74 675.687 1279.51 680.516 1272 680.763C1269.13 680.857 1265.34 678.335 1262.7 680.071C1259.74 682.016 1258.35 687.983 1256.69 691C1249.5 704.002 1249.72 712.05 1247 726L1258.63 736.089L1267 750C1268.22 746.684 1275.84 733.014 1279.51 741.103C1282.78 748.298 1274.26 757.196 1272.94 764C1271.04 773.772 1276.26 778.251 1277.81 787C1278.53 791.071 1276.52 795.937 1276 800L1286 800L1297 768L1298 768L1296 792L1308.09 799.643L1332 800C1339 786.636 1348.14 795.451 1357.26 799.397C1361.65 801.297 1376.37 801.514 1380.68 799.397C1384.33 797.607 1384.2 790.514 1388.04 787.649C1393.88 783.3 1401.27 782.871 1406.69 777.405C1413.92 770.107 1416.67 757.719 1421.03 749C1424.08 742.894 1430.73 738.826 1433.99 732.83C1437.72 725.974 1437.78 719.381 1439 712C1431.76 713.499 1426.27 707.375 1419 707.293C1413.8 707.235 1410.1 711.948 1405 712.651C1396.3 713.85 1393.83 702.414 1395 696L1374 707.498L1351.99 695.592L1336 702.176L1325 695.728L1315.33 693.168L1307.54 680.259L1296 668z"/>
                        <path style="fill:#e0e0e0; stroke:none;" d="M1297 669L1298 670L1297 669z"/>
                        <path style="fill:#ededed; stroke:none;" d="M1295 671L1296 672L1295 671z"/>
                        <path style="fill:#e0e0e0; stroke:none;" d="M1294 672L1295 673L1294 672z"/>
                        <path style="fill:#d1d1d1; stroke:none;" d="M1291 674L1292 675L1291 674z"/>
                        <path style="fill:#ededed; stroke:none;" d="M1290 675L1291 676L1290 675z"/>
                        <path style="fill:#d1d1d1; stroke:none;" d="M1287 676L1288 677L1287 676z"/>
                        <path style="fill:#ededed; stroke:none;" d="M1288 676L1289 677L1288 676z"/>
                        <path style="fill:#d1d1d1; stroke:none;" d="M1280 677L1281 678L1280 677z"/>
                        <path style="fill:#ededed; stroke:none;" d="M1304 677L1305 678L1304 677M1278 678L1279 679L1278 678z"/>
                        <path style="fill:#e0e0e0; stroke:none;" d="M1266 679L1267 680L1266 679z"/>
                        <path style="fill:#d1d1d1; stroke:none;" d="M1261 680L1262 681L1261 680z"/>
                        <path style="fill:#ededed; stroke:none;" d="M1268 680L1269 681L1268 680M1275 680L1276 681L1275 680z"/>
                        <path style="fill:#d1d1d1; stroke:none;" d="M1308.33 680.667L1308.67 681.333L1308.33 680.667z"/>
                        <path style="fill:#e0e0e0; stroke:none;" d="M1308 682L1309 683L1308 682z"/>
                        <path style="fill:#ededed; stroke:none;" d="M1260 683L1261 684L1260 683M1308 683L1309 684L1308 683M1259 685L1260 686L1259 685z"/>
                        <path style="fill:#e0e0e0; stroke:none;" d="M1310 685L1311 686L1310 685z"/>
                        <path style="fill:#d1d1d1; stroke:none;" d="M1311 686L1312 687L1311 686z"/>
                        <path style="fill:#ededed; stroke:none;" d="M1258 687L1259 688L1258 687z"/>
                        <path style="fill:#e0e0e0; stroke:none;" d="M1257 689L1258 690L1257 689M1312 690L1313 691L1312 690M1256 691L1257 692L1256 691z"/>
                        <path style="fill:#ededed; stroke:none;" d="M1255 693L1256 694L1255 693M1314 693L1315 694L1314 693z"/>
                        <path style="fill:#e0e0e0; stroke:none;" d="M1321 693L1322 694L1321 693M1323 694L1324 695L1323 694z"/>
                        <path style="fill:#ededed; stroke:none;" d="M1324 695L1325 696L1324 695M1352 695L1353 696L1352 695M1253 696L1254 697L1253 696z"/>
                        <path style="fill:#d1d1d1; stroke:none;" d="M1326 696L1327 697L1326 696z"/>
                        <path style="fill:#e0e0e0; stroke:none;" d="M1391.67 696.333L1392.33 696.667L1391.67 696.333z"/>
                        <path style="fill:#ededed; stroke:none;" d="M1393 696L1394 697L1393 696z"/>
                        <path style="fill:#d1d1d1; stroke:none;" d="M1395 696L1396 697L1395 696z"/>
                        <path style="fill:#ededed; stroke:none;" d="M1252 697L1253 698L1252 697z"/>
                        <path style="fill:#e0e0e0; stroke:none;" d="M1328 697L1329 698L1328 697z"/>
                        <path style="fill:#ededed; stroke:none;" d="M1390 697L1391 698L1390 697z"/>
                        <path style="fill:#d1d1d1; stroke:none;" d="M1251 698L1252 699L1251 698M1329 698L1330 699L1329 698z"/>
                        <path style="fill:#ededed; stroke:none;" d="M1345 698L1346 699L1345 698M1357 698L1358 699L1357 698M1394 698L1395 699L1394 698z"/>
                        <path style="fill:#d1d1d1; stroke:none;" d="M1330 699L1331 700L1330 699z"/>
                        <path style="fill:#e0e0e0; stroke:none;" d="M1343 699L1344 700L1343 699z"/>
                        <path style="fill:#d1d1d1; stroke:none;" d="M1358 699L1359 700L1358 699M1331 700L1332 701L1331 700z"/>
                        <path style="fill:#e0e0e0; stroke:none;" d="M1341 700L1342 701L1341 700z"/>
                        <path style="fill:#d1d1d1; stroke:none;" d="M1359 700L1360 701L1359 700z"/>
                        <path style="fill:#e0e0e0; stroke:none;" d="M1332 701L1333 702L1332 701M1339 701L1340 702L1339 701z"/>
                        <path style="fill:#ededed; stroke:none;" d="M1386 701L1387 702L1386 701z"/>
                        <path style="fill:#e0e0e0; stroke:none;" d="M1249 702L1250 703L1249 702z"/>
                        <path style="fill:#ededed; stroke:none;" d="M1337 702L1338 703L1337 702M1383 702L1384 703L1383 702z"/>
                        <path style="fill:#d1d1d1; stroke:none;" d="M1379 704L1380 705L1379 704z"/>
                        <path style="fill:#ededed; stroke:none;" d="M1394 704L1395 705L1394 704z"/>
                        <path style="fill:#e0e0e0; stroke:none;" d="M1248 705L1249 706L1248 705M1368 705L1369 706L1368 705z"/>
                        <path style="fill:#ededed; stroke:none;" d="M1248 706L1249 707L1248 706z"/>
                        <path style="fill:#d1d1d1; stroke:none;" d="M1371 706L1372 707L1371 706M1372 707L1373 708L1372 707z"/>
                        <path style="fill:#ededed; stroke:none;" d="M1421 707L1422 708L1421 707M1373 708L1374 709L1373 708z"/>
                        <path style="fill:#d1d1d1; stroke:none;" d="M1374 708L1375 709L1374 708z"/>
                        <path style="fill:#ededed; stroke:none;" d="M1375 708L1376 709L1375 708M1397 708L1398 709L1397 708z"/>
                        <path style="fill:#d1d1d1; stroke:none;" d="M1424 708L1425 709L1424 708z"/>
                        <path style="fill:#e0e0e0; stroke:none;" d="M1427 709L1428 710L1427 709z"/>
                        <path style="fill:#d1d1d1; stroke:none;" d="M1428 709L1429 710L1428 709z"/>
                        <path style="fill:#e0e0e0; stroke:none;" d="M1411 710L1412 711L1411 710z"/>
                        <path style="fill:#d1d1d1; stroke:none;" d="M1398 711L1399 712L1398 711M1409 711L1410 712L1409 711z"/>
                        <path style="fill:#e0e0e0; stroke:none;" d="M1431 711L1432 712L1431 711z"/>
                        <path style="fill:#d1d1d1; stroke:none;" d="M1406 712L1407 713L1406 712z"/>
                        <path style="fill:#ededed; stroke:none;" d="M1432 712L1433 713L1432 712z"/>
                        <path style="fill:#d1d1d1; stroke:none;" d="M1437 712L1438 713L1437 712M1439 712L1440 713L1439 712z"/>
                        <path style="fill:#e0e0e0; stroke:none;" d="M1247 714L1248 715L1247 714z"/>
                        <path style="fill:#ededed; stroke:none;" d="M1438 714L1439 715L1438 714z"/>
                        <path style="fill:#d1d1d1; stroke:none;" d="M1438 718L1439 719L1438 718z"/>
                        <path style="fill:#ededed; stroke:none;" d="M1247 720L1248 721L1247 720z"/>
                        <path style="fill:#d1d1d1; stroke:none;" d="M1247 721L1248 722L1247 721M1247 724L1248 725L1247 724z"/>
                        <path style="fill:#e0e0e0; stroke:none;" d="M1435 726L1436 727L1435 726z"/>
                        <path style="fill:#ededed; stroke:none;" d="M1250 727L1251 728L1250 727z"/>
                        <path style="fill:#d1d1d1; stroke:none;" d="M1251 728L1252 729L1251 728z"/>
                        <path style="fill:#e0e0e0; stroke:none;" d="M1252 729L1253 730L1252 729z"/>
                        <path style="fill:#ededed; stroke:none;" d="M1253 730L1254 731L1253 730z"/>
                        <path style="fill:#d1d1d1; stroke:none;" d="M1435 730L1436 731L1435 730z"/>
                        <path style="fill:#ededed; stroke:none;" d="M1254 731L1255 732L1254 731M1257 733L1258 734L1257 733z"/>
                        <path style="fill:#e0e0e0; stroke:none;" d="M1434 733L1435 734L1434 733z"/>
                        <path style="fill:#d1d1d1; stroke:none;" d="M1433 734L1434 735L1433 734z"/>
                        <path style="fill:#ededed; stroke:none;" d="M1431 735L1432 736L1431 735M1430 736L1431 737L1430 736M1276.67 737.333L1277.33 737.667L1276.67 737.333M1274 738L1275 739L1274 738M1260 739L1261 740L1260 739z"/>
                        <path style="fill:#d1d1d1; stroke:none;" d="M1273 739L1274 740L1273 739M1279 739L1280 740L1279 739z"/>
                        <path style="fill:#ededed; stroke:none;" d="M1428 739L1429 740L1428 739z"/>
                        <path style="fill:#d1d1d1; stroke:none;" d="M1260 740L1261 741L1260 740M1272 740L1273 741L1272 740z"/>
                        <path style="fill:#e0e0e0; stroke:none;" d="M1271 741L1272 742L1271 741M1304 741L1305 742L1304 741z"/>
                        <path style="fill:#d1d1d1; stroke:none;" d="M1260.33 742.667L1260.67 743.333L1260.33 742.667z"/>
                        <path style="fill:#ededed; stroke:none;" d="M1270 742L1271 743L1270 742M1280.33 742.667L1280.67 743.333L1280.33 742.667z"/>
                        <path style="fill:#d1d1d1; stroke:none;" d="M1263 747L1264 748L1263 747z"/>
                        <path style="fill:#ededed; stroke:none;" d="M1267 747L1268 748L1267 747z"/>
                        <path style="fill:#e0e0e0; stroke:none;" d="M1279 747L1280 748L1279 747z"/>
                        <path style="fill:#ededed; stroke:none;" d="M1279 748L1280 749L1279 748M1420 748L1421 749L1420 748M1264 749L1265 750L1264 749z"/>
                        <path style="fill:#e0e0e0; stroke:none;" d="M1278 750L1279 751L1278 750z"/>
                        <path style="fill:#ededed; stroke:none;" d="M1277 753L1278 754L1277 753M1276 755L1277 756L1276 755z"/>
                        <path style="fill:#e0e0e0; stroke:none;" d="M1419 757L1420 758L1419 757M1274 758L1275 759L1274 758M1418 759L1419 760L1418 759z"/>
                        <path style="fill:#ededed; stroke:none;" d="M1273 760L1274 761L1273 760z"/>
                        <path style="fill:#e0e0e0; stroke:none;" d="M1416 761L1417 762L1416 761M1272 764L1273 765L1272 764z"/>
                        <path style="fill:#ededed; stroke:none;" d="M1272.33 765.667L1272.67 766.333L1272.33 765.667M1412 765L1413 766L1412 765M1297 768L1298 769L1297 768z"/>
                        <path style="fill:#d1d1d1; stroke:none;" d="M1410 768L1411 769L1410 768z"/>
                        <path style="fill:#ededed; stroke:none;" d="M1296 770L1297 771L1296 770M1298 770L1299 771L1298 770z"/>
                        <path style="fill:#e0e0e0; stroke:none;" d="M1298 771L1298 776L1299 776L1298 771z"/>
                        <path style="fill:#ededed; stroke:none;" d="M1409 771L1410 772L1409 771z"/>
                        <path style="fill:#e0e0e0; stroke:none;" d="M1295 772L1296 773L1295 772M1409 772L1410 773L1409 772z"/>
                        <path style="fill:#ededed; stroke:none;" d="M1272 773L1272 776L1273 776L1272 773M1409 773L1410 774L1409 773z"/>
                        <path style="fill:#d1d1d1; stroke:none;" d="M1294 774L1295 775L1294 774z"/>
                        <path style="fill:#e0e0e0; stroke:none;" d="M1409 774L1410 775L1409 774z"/>
                        <path style="fill:#ededed; stroke:none;" d="M1293 775L1294 776L1293 775z"/>
                        <path style="fill:#d1d1d1; stroke:none;" d="M1293 776L1294 777L1293 776z"/>
                        <path style="fill:#ededed; stroke:none;" d="M1298 776L1299 777L1298 776M1408 776L1409 777L1408 776M1292 777L1293 778L1292 777z"/>
                        <path style="fill:#d1d1d1; stroke:none;" d="M1405 778L1406 779L1405 778z"/>
                        <path style="fill:#ededed; stroke:none;" d="M1291 779L1292 780L1291 779z"/>
                        <path style="fill:#e0e0e0; stroke:none;" d="M1297 779L1298 780L1297 779z"/>
                        <path style="fill:#ededed; stroke:none;" d="M1403 779L1404 780L1403 779M1297 780L1298 781L1297 780M1402 780L1403 781L1402 780M1290 781L1291 782L1290 781M1401 781L1402 782L1401 781M1289 783L1290 784L1289 783M1296 783L1297 784L1296 783z"/>
                        <path style="fill:#e0e0e0; stroke:none;" d="M1398 783L1399 784L1398 783z"/>
                        <path style="fill:#d1d1d1; stroke:none;" d="M1394 784L1395 785L1394 784z"/>
                        <path style="fill:#e0e0e0; stroke:none;" d="M1288 786L1289 787L1288 786z"/>
                        <path style="fill:#ededed; stroke:none;" d="M1295 787L1295 792L1296 792L1295 787M1387 787L1388 788L1387 787z"/>
                        <path style="fill:#d1d1d1; stroke:none;" d="M1386 788L1387 789L1386 788z"/>
                        <path style="fill:#ededed; stroke:none;" d="M1287 789L1288 790L1287 789z"/>
                        <path style="fill:#d1d1d1; stroke:none;" d="M1385 789L1386 790L1385 789z"/>
                        <path style="fill:#ededed; stroke:none;" d="M1384 790L1385 791L1384 790M1299 792L1300 793L1299 792M1338 792L1338 793L1342 793L1338 792M1383 792L1384 793L1383 792z"/>
                        <path style="fill:#e0e0e0; stroke:none;" d="M1336 793L1337 794L1336 793z"/>
                        <path style="fill:#d1d1d1; stroke:none;" d="M1345 793L1346 794L1345 793z"/>
                        <path style="fill:#e0e0e0; stroke:none;" d="M1346 793L1347 794L1346 793z"/>
                        <path style="fill:#ededed; stroke:none;" d="M1347 793L1348 794L1347 793z"/>
                        <path style="fill:#d1d1d1; stroke:none;" d="M1383 793L1384 794L1383 793z"/>
                        <path style="fill:#ededed; stroke:none;" d="M1302 794L1303 795L1302 794z"/>
                        <path style="fill:#d1d1d1; stroke:none;" d="M1350 794L1351 795L1350 794z"/>
                        <path style="fill:#e0e0e0; stroke:none;" d="M1351 794L1352 795L1351 794z"/>
                        <path style="fill:#ededed; stroke:none;" d="M1352 794L1353 795L1352 794M1333 796L1334 797L1333 796M1354 796L1355 797L1354 796M1304 797L1305 798L1304 797M1322 797L1323 798L1322 797z"/>
                        <path style="fill:#ededed; stroke:none;" d="M1327 797L1328 798L1327 797z"/>
                        <path style="fill:#d1d1d1; stroke:none;" d="M1354 797L1355 798L1354 797z"/>
                        <path style="fill:#ededed; stroke:none;" d="M1332 798L1333 799L1332 798z"/>
                        <path style="fill:#ededed; stroke:none;" d="M1315 799L1316 800L1315 799M1319 799L1320 800L1319 799M1330 799L1331 800L1330 799M1355 799L1356 800L1355 799z"/>
</svg>
