<?xml version="1.0" standalone="yes"?>
<svg xmlns="http://www.w3.org/2000/svg" width="1450" height="800">
                        <path onclick = "Fukuoka()" class = "Fukuoka" style = "fill:#010101; stroke:none;" d="M0 0L0 800L1450 800L1450 0L0 0z"/>
                        <path onclick = "Fukuoka()" class = "Fukuoka" style = "fill:#ffffff; stroke:none;" d="M204 183C202.606 187.694 199.674 188.744 195 189C194.678 193.278 191.43 195.98 190.911 199.911C190.528 202.815 193.357 204.919 192.914 208.015C191.608 217.13 179.565 226.645 171 228C174.151 232.876 182.334 224.946 188 226C182.378 237.816 171.832 243.629 159 244L150 229C147.639 232.874 145.545 234.492 141 235L140 242C135.575 242.193 131.519 242.38 130 247C131.658 247.327 133.413 247.563 135.008 248.148C149.099 253.315 123.842 262.17 122 267L161 265.293L174 272.895L185 281C189.052 277.945 194.496 271.7 199.999 271.736C207.974 271.789 208.499 285.63 206.397 290.942C203.457 298.374 193.821 301.318 191 310L187 308L179 314C178.92 318.336 176.581 319.91 173 322C174.979 327.949 175.532 336.377 181 340L185 360L200 360C197.223 352.306 205.975 341.015 214.019 338.772C216.834 337.987 219.948 339.676 222.686 338.393C226.866 336.434 224.85 328.899 231.019 329.589C239.326 330.517 247.682 340.582 255.956 338.843C261.81 337.613 261.961 329.606 262 325C257.66 323.751 255.834 321.551 256 317C251.828 311.994 259.089 308.599 259.203 302.999C259.273 299.545 256.995 296.462 257.383 293C257.816 289.134 261.078 286.359 262.711 283C267.155 273.863 271.142 262.24 282 258.613C290.189 255.878 303.13 263.204 310.451 257.972C315.947 254.044 312.453 242.864 314 237C310.313 237 304.596 238.198 301.21 236.687C297.759 235.147 295.908 230.081 294.15 227C288.934 217.858 283.841 208.868 285 198C275.477 197.316 261.744 192.932 254 187.236C248.655 183.305 244.64 175.04 237.985 173.638C229.058 171.758 227.046 180.07 219.995 182.852C214.855 184.88 209.367 182.477 204 183z"/>
                        <path onclick = "Fukuoka()" class = "Fukuoka" style = "fill:#ededed; stroke:none;" d="M228 175L229 176L228 175M227 176L228 177L227 176M225.333 178.667L225.667 179.333L225.333 178.667z"/>
                        <path onclick = "Fukuoka()" class = "Fukuoka" style = "fill:#e1e1e1; stroke:none;" d="M224 180L225 181L224 180z"/>
                        <path onclick = "Fukuoka()" class = "Fukuoka" style = "fill:#ededed; stroke:none;" d="M223 181L224 182L223 181z"/>
                        <path onclick = "Fukuoka()" class = "Fukuoka" style = "fill:#e1e1e1; stroke:none;" d="M221 182L222 183L221 182z"/>
                        <path onclick = "Fukuoka()" class = "Fukuoka" style = "fill:#ededed; stroke:none;" d="M211 183L212 184L211 183M218 183L219 184L218 183M277 195L278 196L277 195M279 197L280 198L279 197M284 200L284 203L285 203L284 200M192 203L193 204L192 203M193 204L193 207L194 207L193 204M285 208L286 209L285 208M192 210L193 211L192 210M191 212L192 213L191 212M286 212L287 213L286 212M287 214L288 215L287 214M189 215L190 216L189 215M288 216L289 217L288 216M290 220L291 221L290 220M183 221L184 222L183 221M182 222L183 223L182 222M291 222L292 223L291 222M181 223L182 224L181 223M292 224L293 225L292 224M182 225L183 226L182 225z"/>
                        <path onclick = "Fukuoka()" class = "Fukuoka" style = "fill:#e1e1e1; stroke:none;" d="M183 225L184 226L183 225z"/>
                        <path onclick = "Fukuoka()" class = "Fukuoka" style = "fill:#ededed; stroke:none;" d="M177 226L178 227L177 226M180 226L181 227L180 226M187.333 226.667L187.667 227.333L187.333 226.667M178 227L179 228L178 227z"/>
                        <path onclick = "Fukuoka()" class = "Fukuoka" style = "fill:#e1e1e1; stroke:none;" d="M294 227L295 228L294 227z"/>
                        <path onclick = "Fukuoka()" class = "Fukuoka" style = "fill:#ededed; stroke:none;" d="M175 229L176 230L175 229M186 229L187 230L186 229M295 229L296 230L295 229M173.667 231.333L174.333 231.667L173.667 231.333M296 231L297 232L296 231M184 232L185 233L184 232z"/>
                        <path onclick = "Fukuoka()" class = "Fukuoka" style = "fill:#e1e1e1; stroke:none;" d="M183 233L184 234L183 233z"/>
                        <path onclick = "Fukuoka()" class = "Fukuoka" style = "fill:#ededed; stroke:none;" d="M306 236L306 237L309 237L306 236z"/>
                        <path onclick = "Fukuoka()" class = "Fukuoka" style = "fill:#e1e1e1; stroke:none;" d="M309 236L310 237L309 236z"/>
                        <path onclick = "Fukuoka()" class = "Fukuoka" style = "fill:#ededed; stroke:none;" d="M154 237L155 238L154 237z"/>
                        <path onclick = "Fukuoka()" class = "Fukuoka" style = "fill:#e1e1e1; stroke:none;" d="M302 237L303 238L302 237z"/>
                        <path onclick = "Fukuoka()" class = "Fukuoka" style = "fill:#ededed; stroke:none;" d="M158 238L160 240L160 238L158 238M177 239L178 240L177 239z"/>
                        <path onclick = "Fukuoka()" class = "Fukuoka" style = "fill:#e1e1e1; stroke:none;" d="M172 241L173 242L172 241z"/>
                        <path onclick = "Fukuoka()" class = "Fukuoka" style = "fill:#ededed; stroke:none;" d="M173 241L174 242L173 241M312 241L313 242L312 241M159 243L160 244L159 243M165 243L166 244L165 243M312 246L313 247L312 246z"/>
                        <path onclick = "Fukuoka()" class = "Fukuoka" style = "fill:#e1e1e1; stroke:none;" d="M313 247L314 248L313 247M137 248L138 249L137 248M139 250L140 251L139 250z"/>
                        <path onclick = "Fukuoka()" class = "Fukuoka" style = "fill:#ededed; stroke:none;" d="M140 252L141 253L140 252M312 254L313 255L312 254M286 257L287 258L286 257z"/>
                        <path onclick = "Fukuoka()" class = "Fukuoka" style = "fill:#e1e1e1; stroke:none;" d="M287 257L288 258L287 257z"/>
                        <path onclick = "Fukuoka()" class = "Fukuoka" style = "fill:#ededed; stroke:none;" d="M288 257L289 258L288 257M281 258L282 259L281 258z"/>
                        <path onclick = "Fukuoka()" class = "Fukuoka" style = "fill:#d2d2d2; stroke:none;" d="M292 258L293 259L292 258M279 259L280 260L279 259M298 259L298 260L304 260L298 259z"/>
                        <path onclick = "Fukuoka()" class = "Fukuoka" style = "fill:#ededed; stroke:none;" d="M130 260L131 261L130 260z"/>
                        <path onclick = "Fukuoka()" class = "Fukuoka" style = "fill:#d2d2d2; stroke:none;" d="M277 260L278 261L277 260z"/>
                        <path onclick = "Fukuoka()" class = "Fukuoka" style = "fill:#ededed; stroke:none;" d="M127 261L128 262L127 261M124 262L125 263L124 262M274 262L275 263L274 262M122 264L123 265L122 264M146 264L147 265L146 264z"/>
                        <path onclick = "Fukuoka()" class = "Fukuoka" style = "fill:#e1e1e1; stroke:none;" d="M150 264L151 265L150 264z"/>
                        <path onclick = "Fukuoka()" class = "Fukuoka" style = "fill:#ededed; stroke:none;" d="M158 264L159 265L158 264z"/>
                        <path onclick = "Fukuoka()" class = "Fukuoka" style = "fill:#e1e1e1; stroke:none;" d="M159 264L160 265L159 264z"/>
                        <path onclick = "Fukuoka()" class = "Fukuoka" style = "fill:#d2d2d2; stroke:none;" d="M155 265L156 266L155 265z"/>
                        <path onclick = "Fukuoka()" class = "Fukuoka" style = "fill:#ededed; stroke:none;" d="M272 265L273 266L272 265z"/>
                        <path onclick = "Fukuoka()" class = "Fukuoka" style = "fill:#e1e1e1; stroke:none;" d="M121 266L122 267L121 266z"/>
                        <path onclick = "Fukuoka()" class = "Fukuoka" style = "fill:#ededed; stroke:none;" d="M123 266L124 267L123 266z"/>
                        <path onclick = "Fukuoka()" class = "Fukuoka" style = "fill:#e1e1e1; stroke:none;" d="M124.667 266.333L125.333 266.667L124.667 266.333z"/>
                        <path onclick = "Fukuoka()" class = "Fukuoka" style = "fill:#d2d2d2; stroke:none;" d="M131 266L132 267L131 266z"/>
                        <path onclick = "Fukuoka()" class = "Fukuoka" style = "fill:#ededed; stroke:none;" d="M166 267L167 268L166 267M271 267L272 268L271 267z"/>
                        <path onclick = "Fukuoka()" class = "Fukuoka" style = "fill:#d2d2d2; stroke:none;" d="M167 268L168 269L167 268z"/>
                        <path onclick = "Fukuoka()" class = "Fukuoka" style = "fill:#ededed; stroke:none;" d="M269 269L270 270L269 269M170 270L171 271L170 270z"/>
                        <path onclick = "Fukuoka()" class = "Fukuoka" style = "fill:#d2d2d2; stroke:none;" d="M268 270L269 271L268 270z"/>
                        <path onclick = "Fukuoka()" class = "Fukuoka" style = "fill:#ededed; stroke:none;" d="M198 271L199 272L198 271z"/>
                        <path onclick = "Fukuoka()" class = "Fukuoka" style = "fill:#e1e1e1; stroke:none;" d="M202 271L203 272L202 271z"/>
                        <path onclick = "Fukuoka()" class = "Fukuoka" style = "fill:#d2d2d2; stroke:none;" d="M267 271L268 272L267 271z"/>
                        <path onclick = "Fukuoka()" class = "Fukuoka" style = "fill:#ededed; stroke:none;" d="M173 272L174 273L173 272M196 272L197 273L196 272M266 272L267 273L266 272M265 274L266 275L265 274z"/>
                        <path onclick = "Fukuoka()" class = "Fukuoka" style = "fill:#d2d2d2; stroke:none;" d="M180 275L181 276L180 275z"/>
                        <path onclick = "Fukuoka()" class = "Fukuoka" style = "fill:#e1e1e1; stroke:none;" d="M191 275L192 276L191 275z"/>
                        <path onclick = "Fukuoka()" class = "Fukuoka" style = "fill:#ededed; stroke:none;" d="M206 275L207 276L206 275z"/>
                        <path onclick = "Fukuoka()" class = "Fukuoka" style = "fill:#e1e1e1; stroke:none;" d="M182 276L183 277L182 276z"/>
                        <path onclick = "Fukuoka()" class = "Fukuoka" style = "fill:#d2d2d2; stroke:none;" d="M183 277L184 278L183 277z"/>
                        <path onclick = "Fukuoka()" class = "Fukuoka" style = "fill:#ededed; stroke:none;" d="M188 277L189 278L188 277z"/>
                        <path onclick = "Fukuoka()" class = "Fukuoka" style = "fill:#d2d2d2; stroke:none;" d="M184 279L185 280L184 279z"/>
                        <path onclick = "Fukuoka()" class = "Fukuoka" style = "fill:#e1e1e1; stroke:none;" d="M186 280L187 281L186 280z"/>
                        <path onclick = "Fukuoka()" class = "Fukuoka" style = "fill:#ededed; stroke:none;" d="M263 281L264 282L263 281z"/>
                        <path onclick = "Fukuoka()" class = "Fukuoka" style = "fill:#d2d2d2; stroke:none;" d="M263 282L264 283L263 282z"/>
                        <path onclick = "Fukuoka()" class = "Fukuoka" style = "fill:#e1e1e1; stroke:none;" d="M262 284L263 285L262 284z"/>
                        <path onclick = "Fukuoka()" class = "Fukuoka" style = "fill:#ededed; stroke:none;" d="M261 285L262 286L261 285M260 286L261 287L260 286M259 287L260 288L259 287z"/>
                        <path onclick = "Fukuoka()" class = "Fukuoka" style = "fill:#e1e1e1; stroke:none;" d="M206 292L207 293L206 292z"/>
                        <path onclick = "Fukuoka()" class = "Fukuoka" style = "fill:#d2d2d2; stroke:none;" d="M203 294L204 295L203 294z"/>
                        <path onclick = "Fukuoka()" class = "Fukuoka" style = "fill:#ededed; stroke:none;" d="M204 294L205 295L204 294M200 296L201 297L200 296M257 296L258 297L257 296z"/>
                        <path onclick = "Fukuoka()" class = "Fukuoka" style = "fill:#d2d2d2; stroke:none;" d="M198 297L199 298L198 297z"/>
                        <path onclick = "Fukuoka()" class = "Fukuoka" style = "fill:#ededed; stroke:none;" d="M199 297L200 298L199 297z"/>
                        <path onclick = "Fukuoka()" class = "Fukuoka" style = "fill:#e1e1e1; stroke:none;" d="M258 298L259 299L258 298z"/>
                        <path onclick = "Fukuoka()" class = "Fukuoka" style = "fill:#ededed; stroke:none;" d="M259 301L260 302L259 301M193 302L194 303L193 302M259 303L260 304L259 303z"/>
                        <path onclick = "Fukuoka()" class = "Fukuoka" style = "fill:#e1e1e1; stroke:none;" d="M192 306L193 307L192 306z"/>
                        <path onclick = "Fukuoka()" class = "Fukuoka" style = "fill:#ededed; stroke:none;" d="M191 307L192 308L191 307M258 307L257 310L258 307z"/>
                        <path onclick = "Fukuoka()" class = "Fukuoka" style = "fill:#d2d2d2; stroke:none;" d="M186 309L187 310L186 309M188 309L189 310L188 309z"/>
                        <path onclick = "Fukuoka()" class = "Fukuoka" style = "fill:#ededed; stroke:none;" d="M190 309L191 310L190 309z"/>
                        <path onclick = "Fukuoka()" class = "Fukuoka" style = "fill:#d2d2d2; stroke:none;" d="M258 309L259 310L258 309z"/>
                        <path onclick = "Fukuoka()" class = "Fukuoka" style = "fill:#e1e1e1; stroke:none;" d="M185 311L186 312L185 311z"/>
                        <path onclick = "Fukuoka()" class = "Fukuoka" style = "fill:#ededed; stroke:none;" d="M184 312L185 313L184 312z"/>
                        <path onclick = "Fukuoka()" class = "Fukuoka" style = "fill:#e1e1e1; stroke:none;" d="M253 312L254 313L253 312M253 314L254 315L253 314z"/>
                        <path onclick = "Fukuoka()" class = "Fukuoka" style = "fill:#ededed; stroke:none;" d="M179 316L180 317L179 316M254 316L255 317L254 316z"/>
                        <path onclick = "Fukuoka()" class = "Fukuoka" style = "fill:#e1e1e1; stroke:none;" d="M255 318L256 319L255 318z"/>
                        <path onclick = "Fukuoka()" class = "Fukuoka" style = "fill:#d2d2d2; stroke:none;" d="M255 320L256 321L255 320z"/>
                        <path onclick = "Fukuoka()" class = "Fukuoka" style = "fill:#e1e1e1; stroke:none;" d="M256 322L257 323L256 322z"/>
                        <path onclick = "Fukuoka()" class = "Fukuoka" style = "fill:#d2d2d2; stroke:none;" d="M257 323L258 324L257 323z"/>
                        <path onclick = "Fukuoka()" class = "Fukuoka" style = "fill:#ededed; stroke:none;" d="M258 324L259 325L258 324z"/>
                        <path onclick = "Fukuoka()" class = "Fukuoka" style = "fill:#e1e1e1; stroke:none;" d="M174 325L175 326L174 325M262.333 326.667L262.667 327.333L262.333 326.667M175 328L176 329L175 328z"/>
                        <path onclick = "Fukuoka()" class = "Fukuoka" style = "fill:#d2d2d2; stroke:none;" d="M228 328L229 329L228 328M227 329L228 330L227 329z"/>
                        <path onclick = "Fukuoka()" class = "Fukuoka" style = "fill:#ededed; stroke:none;" d="M226 330L227 331L226 330z"/>
                        <path onclick = "Fukuoka()" class = "Fukuoka" style = "fill:#d2d2d2; stroke:none;" d="M236 330L237 331L236 330M239 330L240 331L239 330z"/>
                        <path onclick = "Fukuoka()" class = "Fukuoka" style = "fill:#e1e1e1; stroke:none;" d="M233 331L234 332L233 331z"/>
                        <path onclick = "Fukuoka()" class = "Fukuoka" style = "fill:#d2d2d2; stroke:none;" d="M261 332L262 333L261 332M225 333L226 334L225 333z"/>
                        <path onclick = "Fukuoka()" class = "Fukuoka" style = "fill:#ededed; stroke:none;" d="M242 333L243 334L242 333z"/>
                        <path onclick = "Fukuoka()" class = "Fukuoka" style = "fill:#e1e1e1; stroke:none;" d="M260 335L261 336L260 335z"/>
                        <path onclick = "Fukuoka()" class = "Fukuoka" style = "fill:#d2d2d2; stroke:none;" d="M245 336L246 337L245 336z"/>
                        <path onclick = "Fukuoka()" class = "Fukuoka" style = "fill:#ededed; stroke:none;" d="M251 337L252 338L251 337z"/>
                        <path onclick = "Fukuoka()" class = "Fukuoka" style = "fill:#d2d2d2; stroke:none;" d="M259 337L260 338L259 337z"/>
                        <path onclick = "Fukuoka()" class = "Fukuoka" style = "fill:#e1e1e1; stroke:none;" d="M212 338L213 339L212 338M216 338L217 339L216 338z"/>
                        <path onclick = "Fukuoka()" class = "Fukuoka" style = "fill:#d2d2d2; stroke:none;" d="M252 338L253 339L252 338z"/>
                        <path onclick = "Fukuoka()" class = "Fukuoka" style = "fill:#ededed; stroke:none;" d="M257 338L258 339L257 338M179 339L180 340L179 339z"/>
                        <path onclick = "Fukuoka()" class = "Fukuoka" style = "fill:#d2d2d2; stroke:none;" d="M219 339L220 340L219 339z"/>
                        <path onclick = "Fukuoka()" class = "Fukuoka" style = "fill:#e1e1e1; stroke:none;" d="M220.667 339.333L221.333 339.667L220.667 339.333z"/>
                        <path onclick = "Fukuoka()" class = "Fukuoka" style = "fill:#d2d2d2; stroke:none;" d="M222 339L223 340L222 339M256 339L257 340L256 339z"/>
                        <path onclick = "Fukuoka()" class = "Fukuoka" style = "fill:#ededed; stroke:none;" d="M180 340L181 341L180 340z"/>
                        <path onclick = "Fukuoka()" class = "Fukuoka" style = "fill:#e1e1e1; stroke:none;" d="M209 341L210 342L209 341z"/>
                        <path onclick = "Fukuoka()" class = "Fukuoka" style = "fill:#ededed; stroke:none;" d="M180 343L181 344L180 343M181 344L182 345L181 344M207 344L208 345L207 344z"/>
                        <path onclick = "Fukuoka()" class = "Fukuoka" style = "fill:#e1e1e1; stroke:none;" d="M182 345L183 346L182 345z"/>
                        <path onclick = "Fukuoka()" class = "Fukuoka" style = "fill:#ededed; stroke:none;" d="M183 346L184 347L183 346M204 346L205 347L204 346M203 348L204 349L203 348M185 350L186 351L185 350z"/>
                        <path onclick = "Fukuoka()" class = "Fukuoka" style = "fill:#e1e1e1; stroke:none;" d="M185.333 351.667L185.667 352.333L185.333 351.667z"/>
                        <path onclick = "Fukuoka()" class = "Fukuoka" style = "fill:#ededed; stroke:none;" d="M185.333 353.667L185.667 354.333L185.333 353.667z"/>
                        <path onclick = "Fukuoka()" class = "Fukuoka" style = "fill:#d2d2d2; stroke:none;" d="M198 356L199 357L198 356z"/>
                        <path onclick = "Fukuoka()" class = "Fukuoka" style = "fill:#ededed; stroke:none;" d="M184 358L185 359L184 358M199 358L200 359L199 358M187 360L188 361L187 360z"/>
                        <path onclick = "Fukuoka()" class = "Fukuoka" style = "fill:#e1e1e1; stroke:none;" d="M199 360L200 361L199 360z"/>
                        <path onclick = "Fukuoka()" class = "Fukuoka" style = "fill:#d2d2d2; stroke:none;" d="M190 361L191 362L190 361z"/>
                        <path onclick = "Fukuoka()" class = "Fukuoka" style = "fill:#ededed; stroke:none;" d="M191 361L191 362L195 362L191 361z"/>
                        <path onclick = "Fukuoka()" class = "Fukuoka" style = "fill:#e1e1e1; stroke:none;" d="M195 361L196 362L195 361z"/>
                        <path onclick = "Fukuoka()" class = "Fukuoka" style = "fill:#d2d2d2; stroke:none;" d="M196 361L197 362L196 361z"/>
</svg>
