<?xml version="1.0" standalone="yes"?>
<svg xmlns="http://www.w3.org/2000/svg" width="1450" height="800">
<path style="fill:#010101; stroke:none;" d="M0 0L0 800L1450 800L1450 0L0 0z"/>
<path style="fill:#e0e0e0; stroke:none;" d="M1172 485L1173 486L1172 485z"/>
<path style="fill:#d0d0d0; stroke:none;" d="M1173 485L1175 487L1173 485z"/>
<path style="fill:#ffffff; stroke:none;" d="M1152 493C1154.74 507.794 1143.39 513.218 1137.46 525C1135.11 529.652 1135.86 535.293 1133.57 539.961C1131.75 543.67 1126.47 545.677 1126.26 550.09C1125.92 557.052 1133.79 572.702 1138.3 578C1141.71 581.996 1147.35 585.686 1148.68 591C1150.11 596.7 1149.57 605.815 1146.72 610.984C1145.4 613.389 1142.41 616.807 1139.51 614.454C1135.23 610.971 1137.1 600.977 1135 596C1122.96 600.288 1125.25 614.987 1130 624L1104 625C1106.58 638.892 1101.37 639.424 1090 641C1085.12 631.339 1075.78 643.843 1089 644C1087.16 646.486 1071.65 660.488 1069.83 652.812C1068.8 648.456 1074.45 644.784 1074 640C1065.98 643.818 1046.22 662.036 1049 641L1044 645L1043 640L1042 640C1039.23 650.408 1043.86 658.04 1049.7 666C1051.35 668.247 1051.78 672.036 1054.32 673.437C1058.38 675.677 1063.67 674.831 1068 676.14C1076.12 678.598 1081.12 682.087 1089.91 678.853C1095.29 676.872 1097.21 670.158 1102.13 668.171C1106.23 666.513 1109.41 671.438 1112.86 666.847C1116.73 661.694 1115.65 654.266 1119.97 649.206C1123.11 645.528 1127.55 649.678 1131 651C1136.2 644.191 1141.95 645.515 1147.4 641.008C1149.57 639.213 1148.88 635.639 1151.43 634.117C1153.67 632.785 1157.19 634.71 1158.93 632.382C1162.54 627.562 1154.87 619.804 1154.81 615C1154.62 600.292 1173.97 612.857 1180 615C1181.63 609.431 1183.71 597.295 1187.32 593.213C1193.94 585.723 1208.98 590.601 1217 594C1229.46 579.811 1261.21 597.159 1269.78 576.714C1273.41 568.031 1263.09 560.146 1259.12 553.871C1253.31 544.692 1255.2 539.226 1259 530C1255.03 530.033 1248.6 532.952 1245.1 531.709C1237.19 528.896 1234.28 517.685 1225 515.641C1214.86 513.409 1207.51 520.588 1200 511C1184.78 513.5 1187.03 492.544 1173.62 487.157C1169.24 485.393 1157.9 492.947 1152 493z"/>
<path style="fill:#e0e0e0; stroke:none;" d="M1168 488L1169 489L1168 488M1164 490L1165 491L1164 490M1176 490L1177 491L1176 490M1178 491L1179 492L1178 491z"/>
<path style="fill:#d0d0d0; stroke:none;" d="M1179 491L1180 492L1179 491z"/>
<path style="fill:#e0e0e0; stroke:none;" d="M1181 492L1182 493L1181 492z"/>
<path style="fill:#d0d0d0; stroke:none;" d="M1186 498L1187 499L1186 498z"/>
<path style="fill:#e0e0e0; stroke:none;" d="M1186 499L1187 500L1186 499M1151 505L1152 506L1151 505M1187 506L1188 507L1187 506M1150 507L1151 508L1150 507M1188 508L1189 509L1188 508M1149 509L1150 510L1149 509M1189 509L1190 510L1189 509M1190 510L1191 511L1190 510z"/>
<path style="fill:#d0d0d0; stroke:none;" d="M1193 511L1194 512L1193 511z"/>
<path style="fill:#e0e0e0; stroke:none;" d="M1197 511L1198 512L1197 511M1201 513L1202 514L1201 513M1214 515L1215 516L1214 515M1221 515L1222 516L1221 515z"/>
<path style="fill:#d0d0d0; stroke:none;" d="M1204 516L1205 517L1204 516z"/>
<path style="fill:#e0e0e0; stroke:none;" d="M1217.67 516.333L1218.33 516.667L1217.67 516.333M1143 517L1144 518L1143 517M1207 517L1208 518L1207 517M1228 517L1229 518L1228 517M1142 518L1143 519L1142 518M1234 521L1235 522L1234 521M1137 524L1138 525L1137 524M1236 524L1237 525L1236 524M1240 526L1241 527L1240 526z"/>
<path style="fill:#d0d0d0; stroke:none;" d="M1241 528L1242 529L1241 528M1242 530L1243 531L1242 530z"/>
<path style="fill:#e0e0e0; stroke:none;" d="M1251 530L1252 531L1251 530M1244 532L1245 533L1244 532M1247 532L1248 533L1247 532z"/>
<path style="fill:#d0d0d0; stroke:none;" d="M1258 532L1259 533L1258 532z"/>
<path style="fill:#e0e0e0; stroke:none;" d="M1134 537L1135 538L1134 537M1254 541L1254 544L1255 544L1254 541M1132 542L1133 543L1132 542z"/>
<path style="fill:#d0d0d0; stroke:none;" d="M1255 547L1256 548L1255 547M1258.33 552.667L1258.67 553.333L1258.33 552.667z"/>
<path style="fill:#e0e0e0; stroke:none;" d="M1157 557L1158 560L1157 557M1264 561L1265 562L1264 561M1267 564L1268 565L1267 564z"/>
<path style="fill:#d0d0d0; stroke:none;" d="M1268 565L1269 566L1268 565z"/>
<path style="fill:#e0e0e0; stroke:none;" d="M1269 568L1270 569L1269 568z"/>
<path style="fill:#d0d0d0; stroke:none;" d="M1270 573L1271 574L1270 573z"/>
<path style="fill:#e0e0e0; stroke:none;" d="M1136 575L1137 576L1136 575M1270 576L1271 577L1270 576M1268 578L1269 579L1268 578M1267 579L1268 580L1267 579z"/>
<path style="fill:#d0d0d0; stroke:none;" d="M1265 584L1266 585L1265 584z"/>
<path style="fill:#e0e0e0; stroke:none;" d="M1254 585L1255 586L1254 585z"/>
<path style="fill:#d0d0d0; stroke:none;" d="M1261 585L1262 586L1261 585z"/>
<path style="fill:#e0e0e0; stroke:none;" d="M1262.67 585.333L1263.33 585.667L1262.67 585.333z"/>
<path style="fill:#d0d0d0; stroke:none;" d="M1264 585L1265 586L1264 585z"/>
<path style="fill:#e0e0e0; stroke:none;" d="M1252 586L1253 587L1252 586M1194 588L1195 589L1194 588z"/>
<path style="fill:#d0d0d0; stroke:none;" d="M1195.67 588.333L1196.33 588.667L1195.67 588.333z"/>
<path style="fill:#e0e0e0; stroke:none;" d="M1197 588L1198 589L1197 588z"/>
<path style="fill:#d0d0d0; stroke:none;" d="M1192 589L1193 590L1192 589z"/>
<path style="fill:#e0e0e0; stroke:none;" d="M1199 589L1200 590L1199 589M1221.67 589.333L1222.33 589.667L1221.67 589.333M1229 589L1230 590L1229 589z"/>
<path style="fill:#d0d0d0; stroke:none;" d="M1201 590L1202 591L1201 590M1226 590L1227 591L1226 590z"/>
<path style="fill:#e0e0e0; stroke:none;" d="M1227 590L1228 591L1227 590z"/>
<path style="fill:#d0d0d0; stroke:none;" d="M1228 590L1229 591L1228 590z"/>
<path style="fill:#e0e0e0; stroke:none;" d="M1188 591L1189 592L1188 591M1206 591L1207 592L1206 591M1214 592L1215 593L1214 592z"/>
<path style="fill:#d0d0d0; stroke:none;" d="M1185 594L1186 595L1185 594z"/>
<path style="fill:#e0e0e0; stroke:none;" d="M1135 596L1136 597L1135 596M1136.33 598.667L1136.67 599.333L1136.33 598.667M1137 604L1137 612L1138 612L1137 604M1160.67 606.333L1161.33 606.667L1160.67 606.333M1183 606L1184 607L1183 606z"/>
<path style="fill:#d0d0d0; stroke:none;" d="M1158 607L1159 608L1158 607z"/>
<path style="fill:#e0e0e0; stroke:none;" d="M1182 607L1183 608L1182 607z"/>
<path style="fill:#d0d0d0; stroke:none;" d="M1165 608L1166 609L1165 608M1156 609L1157 610L1156 609z"/>
<path style="fill:#e0e0e0; stroke:none;" d="M1167 609L1168 610L1167 609M1181 609L1182 610L1181 609z"/>
<path style="fill:#d0d0d0; stroke:none;" d="M1170 611L1171 612L1170 611z"/>
<path style="fill:#e0e0e0; stroke:none;" d="M1146 612L1147 613L1146 612M1154 613L1155 614L1154 613M1176 613L1177 614L1176 613z"/>
<path style="fill:#d0d0d0; stroke:none;" d="M1180 613L1181 614L1180 613z"/>
<path style="fill:#e0e0e0; stroke:none;" d="M1138 614L1139 615L1138 614z"/>
<path style="fill:#d0d0d0; stroke:none;" d="M1154 614L1155 615L1154 614M1177 614L1178 615L1177 614z"/>
<path style="fill:#e0e0e0; stroke:none;" d="M1126 615L1127 616L1126 615z"/>
<path style="fill:#d0d0d0; stroke:none;" d="M1179 615L1180 616L1179 615z"/>
<path style="fill:#e0e0e0; stroke:none;" d="M1141 616L1142 617L1141 616M1154 616L1155 617L1154 616M1127 618L1128 619L1127 618M1129 623L1130 624L1129 623z"/>
<path style="fill:#ffffff; stroke:none;" d="M1103 624L1104 625L1103 624z"/>
<path style="fill:#e0e0e0; stroke:none;" d="M1123.67 624.333L1124.33 624.667L1123.67 624.333M1158 624L1159 625L1158 624M1117.67 625.333L1118.33 625.667L1117.67 625.333M1159 628L1160 629L1159 628M1150 633L1151 634L1150 633z"/>
<path style="fill:#d0d0d0; stroke:none;" d="M1159 633L1160 634L1159 633M1157.67 634.333L1158.33 634.667L1157.67 634.333z"/>
<path style="fill:#e0e0e0; stroke:none;" d="M1104 636L1105 637L1104 636M1103 638L1104 639L1103 638M1092 639L1093 640L1092 639M1090 640L1091 641L1090 640M1094 640L1095 641L1094 640M1096 641L1097 642L1096 641M1100 641L1101 642L1100 641M1148 641L1149 642L1148 641M1040.33 642.667L1040.67 643.333L1040.33 642.667M1139 642L1139 643L1142 643L1139 642z"/>
<path style="fill:#d0d0d0; stroke:none;" d="M1143 642L1144 643L1143 642z"/>
<path style="fill:#e0e0e0; stroke:none;" d="M1074 643L1075 644L1074 643z"/>
<path style="fill:#d0d0d0; stroke:none;" d="M1137 643L1138 644L1137 643M1040 644L1041 645L1040 644z"/>
<path style="fill:#e0e0e0; stroke:none;" d="M1044 644L1045 645L1044 644M1048 644L1049 645L1048 644M1084 644L1084 645L1089 646L1084 644M1073 645L1074 646L1073 645M1041 646L1042 647L1041 646M1072 646L1073 647L1072 646M1087 646L1088 647L1087 646M1042 647L1043 648L1042 647M1063 647L1064 648L1063 647M1086 647L1087 648L1086 647M1047 648L1048 649L1047 648M1062 648L1063 649L1062 648M1085 648L1086 649L1085 648z"/>
<path style="fill:#d0d0d0; stroke:none;" d="M1125 648L1126 649L1125 648z"/>
<path style="fill:#e0e0e0; stroke:none;" d="M1132 648L1133 649L1132 648M1043 649L1044 650L1043 649M1127 649L1128 650L1127 649M1049 650L1050 651L1049 650M1059 650L1060 651L1059 650M1069 650L1070 651L1069 650M1082 650L1083 651L1082 650z"/>
<path style="fill:#d0d0d0; stroke:none;" d="M1128 650L1129 651L1128 650z"/>
<path style="fill:#e0e0e0; stroke:none;" d="M1051 651L1052 652L1051 651M1056 651L1057 652L1056 651M1118 651L1119 652L1118 651z"/>
<path style="fill:#d0d0d0; stroke:none;" d="M1129 651L1130 652L1129 651z"/>
<path style="fill:#e0e0e0; stroke:none;" d="M1042 652L1043 653L1042 652M1079 652L1080 653L1079 652z"/>
<path style="fill:#d0d0d0; stroke:none;" d="M1041 653L1042 654L1041 653z"/>
<path style="fill:#e0e0e0; stroke:none;" d="M1077 653L1078 654L1077 653z"/>
<path style="fill:#d0d0d0; stroke:none;" d="M1117 653L1118 654L1117 653z"/>
<path style="fill:#e0e0e0; stroke:none;" d="M1075 654L1076 655L1075 654M1070 655L1070 656L1073 656L1070 655M1116 655L1117 656L1116 655M1041 656L1042 657L1041 656z"/>
<path style="fill:#01a3ff; stroke:none;" d="M1014 659L1015 660L1014 659z"/>
<path style="fill:#e0e0e0; stroke:none;" d="M1044 659L1045 660L1044 659M1115 660L1116 661L1115 660z"/>
<path style="fill:#d0d0d0; stroke:none;" d="M1115 661L1116 662L1115 661M1048 664L1049 665L1048 664M1049 665L1050 666L1049 665z"/>
<path style="fill:#e0e0e0; stroke:none;" d="M1051 667L1052 668L1051 667z"/>
<path style="fill:#d0d0d0; stroke:none;" d="M1105 667L1106 668L1105 667z"/>
<path style="fill:#e0e0e0; stroke:none;" d="M1112 667L1113 668L1112 667M1109 670L1110 671L1109 670z"/>
<path style="fill:#d0d0d0; stroke:none;" d="M1098 672L1099 673L1098 672M1052 673L1053 674L1052 673M1058 674L1059 675L1058 674z"/>
<path style="fill:#e0e0e0; stroke:none;" d="M1095 674L1096 675L1095 674M1061 675L1062 676L1061 675M1063 675L1064 676L1063 675M1066 675L1067 676L1066 675M1094 675L1095 676L1094 675M1069 676L1070 677L1069 676M1093 676L1094 677L1093 676M1092 678L1093 679L1092 678M1075 679L1076 680L1075 679M1087 679L1088 680L1087 679M1077 680L1078 681L1077 680M1081 680L1082 681L1081 680z"/>
<path style="fill:#d0d0d0; stroke:none;" d="M1082 680L1083 681L1082 680z"/>
</svg>
