<?xml version="1.0" standalone="yes"?>
<svg xmlns="http://www.w3.org/2000/svg" width="1450" height="800">
                        <path onclick = "Kagawa()" class = "Kagawa" style = "fill:#010101; stroke:none;" d="M0 0L0 800L1450 800L1450 0L0 0z"/>
                        <path onclick = "Kagawa()" class = "Kagawa" style = "fill:#ffffff; stroke:none;" d="M815 79L814 83L810 82L808 83C800.826 94.5104 788.118 80.7126 778.108 82.1628C773.534 82.8254 770.716 89.9068 766 92L767 87C762.708 88.3029 762.139 90.735 762 95C755.649 96.045 750.71 102.094 745 105.019C737.051 109.09 727.57 108.591 719 107C723.318 112.339 728.756 114.5 729 122L733 122L726 151C729.772 152 738.153 156.751 741.741 155.342C749.181 152.421 749.775 142.661 760 144C765.903 136.671 773.585 137.365 782 135C783.83 139.569 786.239 144.014 791.985 142.216C796.219 140.892 798.827 136.922 803.004 135.417C805.853 134.391 809.955 135.492 812.412 133.782C816.225 131.129 815.673 125.636 821.004 123.781C834.651 119.032 851.345 123.876 865 125C865.321 116.856 862.604 111.166 856 106L855 109L836.117 99.6821L836 90L832 91C828.776 86.1129 825.177 88.4957 823 93L815 79z"/>
                        <path onclick = "Kagawa()" class = "Kagawa" style = "fill:#dadada; stroke:none;" d="M774.333 82.6667L774.667 83.3333L774.333 82.6667M791 85L792 86L791 85M824 89L825 90L824 89M765 92L766 93L765 92M761 94L762 95L761 94M835 96L836 97L835 96z"/>
                        <path onclick = "Kagawa()" class = "Kagawa" style = "fill:#b7e5ff; stroke:none;" d="M755 98L756 99L755 98M752 100L753 101L752 100z"/>
                        <path onclick = "Kagawa()" class = "Kagawa" style = "fill:#dadada; stroke:none;" d="M835 100L836 101L835 100z"/>
                        <path onclick = "Kagawa()" class = "Kagawa" style = "fill:#72ccff; stroke:none;" d="M750 101L751 102L750 101z"/>
                        <path onclick = "Kagawa()" class = "Kagawa" style = "fill:#dadada; stroke:none;" d="M837 101L837 102L840 102L837 101z"/>
                        <path onclick = "Kagawa()" class = "Kagawa" style = "fill:#b7e5ff; stroke:none;" d="M749 102L750 103L749 102z"/>
                        <path onclick = "Kagawa()" class = "Kagawa" style = "fill:#dadada; stroke:none;" d="M843 102L844 103L843 102z"/>
                        <path onclick = "Kagawa()" class = "Kagawa" style = "fill:#72ccff; stroke:none;" d="M747 103L748 104L747 103z"/>
                        <path onclick = "Kagawa()" class = "Kagawa" style = "fill:#dadada; stroke:none;" d="M845 103L846 104L845 103z"/>
                        <path onclick = "Kagawa()" class = "Kagawa" style = "fill:#b7e5ff; stroke:none;" d="M746 104L747 105L746 104z"/>
                        <path onclick = "Kagawa()" class = "Kagawa" style = "fill:#72ccff; stroke:none;" d="M744 105L745 106L744 105z"/>
                        <path onclick = "Kagawa()" class = "Kagawa" style = "fill:#dadada; stroke:none;" d="M850 106L851 107L850 106z"/>
                        <path onclick = "Kagawa()" class = "Kagawa" style = "fill:#72ccff; stroke:none;" d="M739 107L740 108L739 107z"/>
                        <path onclick = "Kagawa()" class = "Kagawa" style = "fill:#dadada; stroke:none;" d="M855 107L856 108L855 107M854 108L855 109L854 108M861 112L862 113L861 112M865 116L866 117L865 116M831 122L832 123L831 122M839 122L840 123L839 122M855 122L856 123L855 122M820 123L821 124L820 123M824.667 123.333L825.333 123.667L824.667 123.333M828 123L829 124L828 123M846 123L847 124L846 123M860 124L861 125L860 124M863 125L864 126L863 125M731 128L732 129L731 128M805 134L806 135L805 134M807.667 134.333L808.333 134.667L807.667 134.333M812 134L813 135L812 134M730 135L731 136L730 135M780.667 135.333L781.333 135.667L780.667 135.333M776 136L777 137L776 136M799 136L800 137L799 136M730.333 137.667L730.667 138.333L730.333 137.667M768 137L768 138L772 138L768 137M783 138L784 139L783 138M797 138L798 139L797 138M793 141L794 142L793 141M786 142L787 143L786 142M760 143L761 144L760 143M729 146L730 147L729 146M746 149L747 150L746 149M745 150L746 151L745 150M727.667 151.333L728.333 151.667L727.667 151.333M744 151L745 152L744 151M735 153L736 154L735 153M737 154L738 155L737 154M743 155L744 156L743 155M739 156L740 157L739 156z"/>
</svg>
