<?xml version="1.0" standalone="yes"?>
<svg xmlns="http://www.w3.org/2000/svg" width="1450" height="800">
                        <path onclick = "Wakayama()" class = "Wakayama" style = "fill:#010101; stroke:none;" d="M0 0L0 800L1450 800L1450 0L0 0z"/>
                        <path onclick = "Wakayama()" class = "Wakayama" style = "fill:#e4e4e4; stroke:none;" d="M1067 83L1068 84L1067 83z"/>
                        <path onclick = "Wakayama()" class = "Wakayama" style = "fill:#ffffff; stroke:none;" d="M978 97C969.548 104.078 976.776 106.147 981.606 112.043C983.635 114.52 984.302 117.958 986.56 120.201C988.929 122.553 993.348 123.915 993.248 127.961C993.12 133.178 986.653 132.873 983.529 135.012C980.36 137.182 978.814 141.452 978 145C983.505 146.878 995.119 154.669 984 158C986.594 169.347 986.591 188.251 995.109 196.895C1003.07 204.971 1020.01 206.236 1026.4 215.394C1029.59 219.957 1022.27 223.713 1019 225C1020.56 230.266 1025.21 232.006 1030 234C1025.25 254.724 1061.28 259.186 1075 262.845C1083.06 264.993 1094.35 262.849 1091 274L1109 269L1109 268L1096 268C1098.74 257.608 1112.26 255.639 1119.22 248.381C1123.74 243.667 1119.39 241.131 1120.85 236.015C1121.93 232.224 1125.97 230.763 1128.02 227.675C1130.14 224.465 1131.12 219.711 1132 216L1131 215C1115.3 219.1 1106 194.561 1106 182L1092 182.938L1079 181.423L1067 186L1064.9 175.996L1068.26 161.143L1053.87 142.96L1067.66 123.896L1073.03 114.898L1083 115C1085.38 106.337 1078.62 106.295 1075.16 99.9807C1072.47 95.0494 1073.01 88.4177 1072 83C1063.64 83.6596 1057.5 88.9446 1050 90.0023C1030.16 92.8005 1011.22 95.028 993 103.826C986.9 106.771 977.754 104.663 978 97z"/>
                        <path onclick = "Wakayama()" class = "Wakayama" style = "fill:#e4e4e4; stroke:none;" d="M1060 84L1061 85L1060 84M1072 85L1073 86L1072 85M1055 87L1056 88L1055 87M1043 88L1044 89L1043 88M1035 90L1036 91L1035 90M1073 94L1074 95L1073 94M1006 96L1007 97L1006 96M1014 97L1015 98L1014 97M1074 99L1075 100L1074 99M977 101L978 102L977 101M996 101L997 102L996 101M1075 101L1076 102L1075 101M978 102L979 103L978 102M994 103L995 104L994 103M992 104L993 105L992 104M1078 104L1079 105L1078 104M1083 108L1084 109L1083 108M982 112L983 113L982 112M983 114L984 115L983 114M1072 114L1073 115L1072 114M1080 114L1081 115L1080 114M984.333 116.667L984.667 117.333L984.333 116.667M985 120L986 121L985 120M987.667 121.333L988.333 121.667L987.667 121.333M990 122L991 123L990 122M1067 124L1068 125L1067 124M993 125L994 126L993 125M1064 127L1065 128L1064 127M993 129L994 130L993 129M992 131L993 132L992 131M988 133L989 134L988 133M1054 139L1055 140L1054 139M1053 141L1054 142L1053 141M1054 146L1055 147L1054 146M984 147L985 148L984 147M1057 148L1058 149L1057 148M1059 149L1060 150L1059 149M988 150L989 151L988 150M989 153L990 154L989 153M1062 156L1063 157L1062 156z"/>
                        <path onclick = "Wakayama()" class = "Wakayama" style = "fill:#77cdff; stroke:none;" d="M984 160L985 161L984 160z"/>
                        <path onclick = "Wakayama()" class = "Wakayama" style = "fill:#e4e4e4; stroke:none;" d="M1068 160L1069 161L1068 160z"/>
                        <path onclick = "Wakayama()" class = "Wakayama" style = "fill:#77cdff; stroke:none;" d="M985 163L986 164L985 163z"/>
                        <path onclick = "Wakayama()" class = "Wakayama" style = "fill:#e4e4e4; stroke:none;" d="M1035 163L1036 164L1035 163z"/>
                        <path onclick = "Wakayama()" class = "Wakayama" style = "fill:#77cdff; stroke:none;" d="M986 172L987 173L986 172M987 175L988 176L987 175z"/>
                        <path onclick = "Wakayama()" class = "Wakayama" style = "fill:#e4e4e4; stroke:none;" d="M1064 176L1065 177L1064 176z"/>
                        <path onclick = "Wakayama()" class = "Wakayama" style = "fill:#77cdff; stroke:none;" d="M988 178L989 179L988 178z"/>
                        <path onclick = "Wakayama()" class = "Wakayama" style = "fill:#e4e4e4; stroke:none;" d="M1100.67 180.333L1101.33 180.667L1100.67 180.333M1065 181L1066 182L1065 181M1087 182L1088 183L1087 182M1074 183L1075 184L1074 183z"/>
                        <path onclick = "Wakayama()" class = "Wakayama" style = "fill:#77cdff; stroke:none;" d="M989 184L990 185L989 184z"/>
                        <path onclick = "Wakayama()" class = "Wakayama" style = "fill:#e4e4e4; stroke:none;" d="M1071 185L1072 186L1071 185z"/>
                        <path onclick = "Wakayama()" class = "Wakayama" style = "fill:#77cdff; stroke:none;" d="M990 187L991 188L990 187z"/>
                        <path onclick = "Wakayama()" class = "Wakayama" style = "fill:#e4e4e4; stroke:none;" d="M994 196L997 199L994 196z"/>
                        <path onclick = "Wakayama()" class = "Wakayama" style = "fill:#d3d3d3; stroke:none;" d="M994 197L995 198L994 197M995 198L996 199L995 198z"/>
                        <path onclick = "Wakayama()" class = "Wakayama" style = "fill:#e4e4e4; stroke:none;" d="M999 200L1000 201L999 200M1001 201L1002 202L1001 201M1003 202L1004 203L1003 202M1005 203L1006 204L1005 203M1113 204L1114 205L1113 204M1015 208L1016 209L1015 208M1018 210L1019 211L1018 210M1022 212L1023 213L1022 212M1024 213L1025 214L1024 213M1026 214L1027 215L1026 214M1121 215L1122 216L1121 215M1128 215L1129 216L1128 215M1028.33 216.667L1028.67 217.333L1028.33 216.667M1122 216L1123 217L1122 216M1126 216L1127 217L1126 216M1132 216L1133 217L1132 216M1131 218L1132 219L1131 218M1026 220L1027 221L1026 220M1023 223L1024 224L1023 223M1126 229L1127 230L1126 229M1123 231L1124 232L1123 231z"/>
                        <path onclick = "Wakayama()" class = "Wakayama" style = "fill:#d3d3d3; stroke:none;" d="M1024 232L1027 238L1028 238C1028.56 234.349 1027.31 233.407 1024 232z"/>
                        <path onclick = "Wakayama()" class = "Wakayama" style = "fill:#e4e4e4; stroke:none;" d="M1025.67 232.333L1026.33 232.667L1025.67 232.333M1122 232L1123 233L1122 232M1028 233L1029 234L1028 233M1121 233L1122 234L1121 233M1029.33 234.667L1029.67 235.333L1029.33 234.667M1120 235L1121 236L1120 235M1120 239L1121 240L1120 239M1121 241L1122 242L1121 241M1107 256L1108 257L1107 256z"/>
                        <path onclick = "Wakayama()" class = "Wakayama" style = "fill:#d3d3d3; stroke:none;" d="M1050 257L1050 258C1061.63 261.933 1072.55 265.992 1085 266L1085 265L1050 257z"/>
                        <path onclick = "Wakayama()" class = "Wakayama" style = "fill:#e4e4e4; stroke:none;" d="M1053.67 257.333L1054.33 257.667L1053.67 257.333M1056.67 258.333L1057.33 258.667L1056.67 258.333M1060.67 259.333L1061.33 259.667L1060.67 259.333M1065 260L1065 261L1068 261L1065 260M1070 261L1071 262L1070 261M1098 261L1099 262L1098 261M1073 262L1074 263L1073 262M1076.67 263.333L1077.33 263.667L1076.67 263.333M1080 264L1080 265L1083 265L1080 264z"/>
</svg>
