<?xml version="1.0" standalone="yes"?>
<svg xmlns="http://www.w3.org/2000/svg" width="1450" height="800">
<path style="fill:#010101; stroke:none;" d="M0 0L0 800L1450 800L1450 0L0 0z"/>
<path style="fill:#ffffff; stroke:none;" d="M1253 304C1254.15 318.511 1261.67 331.772 1261.95 346C1262.53 376.156 1241.76 402.505 1226.66 426.985C1218.2 440.705 1205.48 455.4 1193 465.532C1187.21 470.229 1175.04 474.233 1176.24 483.981C1176.86 489.093 1183.7 490.491 1186.57 494.094C1189.67 497.991 1187.96 505.16 1192.3 507.972C1203.15 514.984 1213.25 511.026 1225 513.2C1233 514.68 1240.84 523.527 1245 530L1259 527L1262.13 511.299L1274 493C1258.09 483.747 1265.53 460.702 1265.98 446C1266.14 441.018 1268.41 434.677 1267.88 430C1267.39 425.599 1263.8 422.818 1264.12 418C1264.43 413.379 1267.5 409.613 1267.89 405C1268.19 401.417 1266.07 397.456 1266.95 394.044C1268.01 389.931 1272.97 389.252 1273.89 384.945C1276.04 374.937 1275.43 360.834 1281.6 352.184C1287.31 344.191 1299.73 341.405 1309 341L1310 312C1306.06 313.843 1301.78 321.826 1297.9 321.96C1294.44 322.079 1291.74 318.348 1288 318.279C1285.04 318.224 1278.89 320.027 1278.75 315.05C1278.53 307.187 1289.67 310.663 1292 315C1298.41 311.956 1311.57 308.614 1308 300L1307 300L1288 307L1287 303L1280 305L1288 293C1287.76 288.229 1288.84 285.561 1294 286L1293 289C1311.29 301.276 1311.66 278.212 1324 272C1330.29 268.835 1341.11 272.723 1345.1 265.941C1349.21 258.962 1338.4 253.261 1343.85 245.059C1347.55 239.5 1356.24 241.097 1362 239C1361.41 235.599 1361.25 228.04 1359.3 225.43C1355.53 220.391 1345.93 222.679 1341 224.221C1333.76 226.485 1324.57 229.627 1318 233.39C1310.4 237.746 1304.43 244.3 1296 247.3C1283.24 251.843 1265.5 249.378 1256.75 263.043C1254.32 266.837 1256.51 270.915 1255.46 275C1253.35 283.138 1236.84 303.809 1253 304z"/>
<path style="fill:#eaeaea; stroke:none;" d="M1312 237L1313 238L1312 237M1308 240L1309 241L1308 240M1302 244L1303 245L1302 244M1343 244L1344 245L1343 244M1300 245L1301 246L1300 245M1298 246L1299 247L1298 246M1295 247L1296 248L1295 247M1342 247L1343 248L1342 247M1291.67 248.333L1292.33 248.667L1291.67 248.333M1341 251L1342 252L1341 251M1256.33 271.667L1256.67 272.333L1256.33 271.667M1324 271L1325 272L1324 271z"/>
<path style="fill:#dcdcdc; stroke:none;" d="M1325 271L1326 272L1325 271z"/>
<path style="fill:#eaeaea; stroke:none;" d="M1322 272L1323 273L1322 272M1319 274L1320 275L1319 274M1255 275L1256 276L1255 275z"/>
<path style="fill:#dcdcdc; stroke:none;" d="M1318 275L1319 276L1318 275z"/>
<path style="fill:#eaeaea; stroke:none;" d="M1317 276L1317 279L1318 279L1317 276z"/>
<path style="fill:#dcdcdc; stroke:none;" d="M1317 279L1318 280L1317 279z"/>
<path style="fill:#eaeaea; stroke:none;" d="M1253 280L1254 281L1253 280M1316 281L1317 282L1316 281M1252 282L1253 283L1252 282z"/>
<path style="fill:#dcdcdc; stroke:none;" d="M1316 282L1317 283L1316 282z"/>
<path style="fill:#eaeaea; stroke:none;" d="M1251 284L1252 285L1251 284z"/>
<path style="fill:#dcdcdc; stroke:none;" d="M1315 284L1316 285L1315 284z"/>
<path style="fill:#eaeaea; stroke:none;" d="M1314 285L1315 286L1314 285z"/>
<path style="fill:#dcdcdc; stroke:none;" d="M1293 286L1294 287L1293 286z"/>
<path style="fill:#eaeaea; stroke:none;" d="M1313 286L1314 287L1313 286M1293 287L1294 288L1293 287M1312 287L1313 288L1312 287z"/>
<path style="fill:#dcdcdc; stroke:none;" d="M1311 288L1312 289L1311 288M1287 289L1288 290L1287 289z"/>
<path style="fill:#eaeaea; stroke:none;" d="M1293 289L1294 290L1293 289M1309 289L1310 290L1309 289M1295 290L1296 291L1295 290z"/>
<path style="fill:#dcdcdc; stroke:none;" d="M1307 290L1308 291L1307 290z"/>
<path style="fill:#eaeaea; stroke:none;" d="M1288 291L1289 292L1288 291z"/>
<path style="fill:#dcdcdc; stroke:none;" d="M1296 291L1297 292L1296 291z"/>
<path style="fill:#eaeaea; stroke:none;" d="M1298 292L1299 293L1298 292M1305 292L1306 293L1305 292M1286 293L1287 294L1286 293M1304 293L1305 294L1304 293z"/>
<path style="fill:#dcdcdc; stroke:none;" d="M1285 294L1286 295L1285 294M1301 294L1302 295L1301 294z"/>
<path style="fill:#eaeaea; stroke:none;" d="M1302.67 294.333L1303.33 294.667L1302.67 294.333z"/>
<path style="fill:#dcdcdc; stroke:none;" d="M1284 295L1285 296L1284 295z"/>
<path style="fill:#eaeaea; stroke:none;" d="M1283 296L1284 297L1283 296z"/>
<path style="fill:#dcdcdc; stroke:none;" d="M1282 298L1283 299L1282 298z"/>
<path style="fill:#eaeaea; stroke:none;" d="M1281 300L1282 301L1281 300z"/>
<path style="fill:#dcdcdc; stroke:none;" d="M1305 301L1306 302L1305 301z"/>
<path style="fill:#eaeaea; stroke:none;" d="M1305 302L1306 303L1305 302M1280 304L1281 305L1280 304z"/>
<path style="fill:#dcdcdc; stroke:none;" d="M1282 304L1283 305L1282 304z"/>
<path style="fill:#eaeaea; stroke:none;" d="M1287 304L1288 305L1287 304M1292 304L1293 305L1292 304M1298 304L1299 305L1298 304z"/>
<path style="fill:#dcdcdc; stroke:none;" d="M1299 304L1300 305L1299 304z"/>
<path style="fill:#eaeaea; stroke:none;" d="M1290 305L1291 306L1290 305M1301.67 305.333L1302.33 305.667L1301.67 305.333M1288 306L1289 307L1288 306M1253 308L1253 311L1254 311L1253 308z"/>
<path style="fill:#dcdcdc; stroke:none;" d="M1285 309L1286 310L1285 309M1288 309L1289 310L1288 309M1299 310L1300 311L1299 310z"/>
<path style="fill:#eaeaea; stroke:none;" d="M1280 311L1281 312L1280 311M1290 311L1291 312L1290 311M1278 312L1279 313L1278 312M1296 312L1297 313L1296 312M1291 313L1292 314L1291 313z"/>
<path style="fill:#dcdcdc; stroke:none;" d="M1295 313L1296 314L1295 313z"/>
<path style="fill:#eaeaea; stroke:none;" d="M1293 314L1294 315L1293 314M1303 316L1304 317L1303 316M1254.33 317.667L1254.67 318.333L1254.33 317.667z"/>
<path style="fill:#dcdcdc; stroke:none;" d="M1302 317L1303 318L1302 317M1284 318L1285 319L1284 318z"/>
<path style="fill:#eaeaea; stroke:none;" d="M1285 318L1286 319L1285 318z"/>
<path style="fill:#dcdcdc; stroke:none;" d="M1291 318L1292 319L1291 318z"/>
<path style="fill:#eaeaea; stroke:none;" d="M1301 319L1302 320L1301 319M1300 321L1301 322L1300 321M1255 322L1256 323L1255 322z"/>
<path style="fill:#dcdcdc; stroke:none;" d="M1299 322L1300 323L1299 322z"/>
<path style="fill:#eaeaea; stroke:none;" d="M1256 325L1257 326L1256 325M1260.33 334.667L1260.67 335.333L1260.33 334.667M1261 341L1261 352L1262 352L1261 341M1260 360L1260 363L1261 363L1260 360M1257 373L1258 374L1257 373M1256 375L1257 376L1256 375M1255 377L1256 378L1255 377M1254 379L1255 380L1254 379M1253 381L1254 382L1253 381M1252 383L1253 384L1252 383M1251 385L1252 386L1251 385M1247 392L1248 393L1247 392M1246 394L1247 395L1246 394M1244 397L1245 398L1244 397M1243 399L1244 400L1243 399M1241 402L1242 403L1241 402M1240 404L1241 405L1240 404M1238 407L1239 408L1238 407M1236 410L1237 411L1236 410M1234 413L1235 414L1234 413z"/>
<path style="fill:#c1e9ff; stroke:none;" d="M1228 423L1229 424L1228 423M1227 426L1228 427L1227 426M1226 427L1227 428L1226 427M1225 428L1226 429L1225 428M1224 430L1225 431L1224 430M1223 431L1224 432L1223 431M1221 434L1222 435L1221 434M1220 435L1221 436L1220 435M1219 437L1220 438L1219 437M1218 438L1219 439L1218 438M1217 439L1218 440L1217 439M1216 440L1217 441L1216 440M1215 441L1216 442L1215 441M1214 443L1215 444L1214 443M1213 444L1214 445L1213 444M1212 446L1213 447L1212 446z"/>
<path style="fill:#dcdcdc; stroke:none;" d="M1204 453L1205 454L1204 453M1203 454L1204 455L1203 454z"/>
<path style="fill:#eaeaea; stroke:none;" d="M1201 457L1202 458L1201 457M1200 458L1201 459L1200 458M1199 459L1200 460L1199 459M1198 460L1199 461L1198 460M1197 461L1198 462L1197 461z"/>
<path style="fill:#dcdcdc; stroke:none;" d="M1196 462L1197 463L1196 462M1195 463L1196 464L1195 463z"/>
<path style="fill:#eaeaea; stroke:none;" d="M1194 464L1195 465L1194 464M1193 465L1194 466L1193 465z"/>
<path style="fill:#dcdcdc; stroke:none;" d="M1190 467L1191 468L1190 467z"/>
<path style="fill:#eaeaea; stroke:none;" d="M1189 468L1190 469L1189 468M1187 469L1188 470L1187 469M1183 471L1184 472L1183 471M1180 472L1181 473L1180 472M1179 475L1180 476L1179 475M1177 479L1178 480L1177 479M1175 482L1176 483L1175 482z"/>
</svg>
