<?xml version="1.0" standalone="yes"?>
<svg xmlns="http://www.w3.org/2000/svg" width="1450" height="800">
                            <path style="fill:#010101; stroke:none;" d="M0 0L0 800L1450 800L1450 0L0 0z"/>
                            <path style="fill:#ffffff; stroke:none;" d="M1152 635C1151.65 645.675 1144.7 642.31 1138.01 646.603C1135.41 648.277 1133.24 652.466 1129.91 652.694C1127.21 652.88 1124.23 650.258 1122 649L1112.67 670.638L1103.3 670.301L1094 682L1103 695C1112.22 696.474 1104.11 708.092 1105.75 715C1108.58 726.907 1103.12 733.824 1103.39 745C1103.59 753.478 1109.74 757.413 1111.4 765C1112.14 768.375 1110.01 772.631 1112.03 775.678C1114.1 778.804 1117.96 776.692 1120.79 778.117C1126.04 780.755 1135.55 789.075 1136 795C1144.22 794.55 1146.52 788.609 1150 782C1143.14 779.891 1147.58 775.294 1153 775.735C1160.68 776.359 1167.49 783.887 1175 781.867C1186.78 778.699 1197.91 767.868 1201.21 756C1202.23 752.307 1200.79 748.647 1201.72 745C1203.47 738.177 1207.83 728.299 1206.05 721.089C1204.7 715.589 1199.11 710.359 1196.96 705C1194.46 698.794 1200.24 678.709 1205 675L1195 640C1183.61 645.991 1185.76 633.393 1184 626C1175.87 624.952 1173.18 608.035 1161.11 609.997C1150.49 611.722 1173.14 642.457 1152 635z"/>
                            <path style="fill:#01a3ff; stroke:none;" d="M1157 659L1154 658L1155 653C1151 653.65 1149.64 655.38 1148 659C1139.55 654.942 1136.12 667.484 1137.48 674.015C1138.49 678.843 1142.37 683.228 1144 688L1134 691C1133.1 696.809 1128.24 698.249 1125.72 703.093C1123.2 707.955 1123.52 713.91 1121.32 719C1116.07 731.167 1099.37 750.224 1117 759C1117.99 751.194 1120.95 746.154 1122.96 739C1123.8 735.998 1121.93 732.966 1123.7 730.133C1127.81 723.542 1135.9 723.225 1137 714C1150.24 710.737 1165.64 707.508 1174.58 695.985C1179.75 689.327 1183.45 671.737 1170 673L1169 668L1165 662L1168 662C1166.91 651.116 1157.14 643.935 1157 659z"/>
                            <path style="fill:#c8e9fb; stroke:none;" d="M1163 704L1164 705L1163 704M1162 705L1163 706L1162 705z"/>
                            <path style="fill:#70cbff; stroke:none;" d="M1160 706L1161 707L1160 706M1158 707L1159 708L1158 707z"/>
                            <path style="fill:#c8e9fb; stroke:none;" d="M1159 707L1160 708L1159 707z"/>
                            <path style="fill:#70cbff; stroke:none;" d="M1157 708L1158 709L1157 708M1154 709L1155 710L1154 709M1151 710L1152 711L1151 710M1148 711L1149 712L1148 711M1123 712L1124 713L1123 712M1144 712L1145 713L1144 712z"/>
                            <path style="fill:#c8e9fb; stroke:none;" d="M1122 716L1123 717L1122 716M1121 718L1122 719L1121 718M1119 722L1120 723L1119 722M1118 724L1119 725L1118 724z"/>
                            <path style="fill:#70cbff; stroke:none;" d="M1130 724L1131 725L1130 724z"/>
                            <path style="fill:#c8e9fb; stroke:none;" d="M1117 726L1118 727L1117 726M1125 727L1126 728L1125 727M1116 728L1117 729L1116 728M1124 728L1125 729L1124 728M1122 730L1123 731L1122 730z"/>
</svg>
