<?xml version="1.0" standalone="yes"?>
<svg xmlns="http://www.w3.org/2000/svg" width="1450" height="800">
<path style="fill:#010101; stroke:none;" d="M0 0L0 800L849 800C847.087 793.732 840.657 790.424 839.002 784.896C837.765 780.764 841.93 777.896 842.241 774C842.798 767.018 838.914 760.1 840.336 752.439C840.916 749.316 844.458 747.412 846.162 744.911C849.814 739.549 851.714 732.102 855.589 727.228C857.322 725.047 860.347 724.585 862.011 722.441C865.546 717.885 862.105 713.911 858 712L861 706C870.735 709.46 881.823 700.057 880.585 689.83C879.618 681.844 878.356 673.259 874.782 666.104C873.168 662.871 869.597 661.539 868.394 657.957C864.528 646.439 865.791 636.738 859 626C866.457 623.107 874.919 617.233 883 616.69C888.188 616.341 892.772 619.944 898 619.443C912.319 618.069 921.629 611.49 935 621L936 621L939 619L938.042 631.83L945.455 641L952.019 647.638L968 644C967.716 650.632 971.725 664.996 965.852 669.442C960.866 673.216 952.08 664.984 948.738 672.148C942.095 686.39 953.989 691.737 963.999 697.735C966.777 699.399 969.975 703.406 973.17 703.956C977.397 704.684 980.488 699.397 984.941 700.708C989.992 702.196 988.607 709.017 994 711C990.582 723.593 1002.91 718.622 1010 720C1008.72 728.768 1024.42 723.276 1027.35 732.054C1029.99 739.95 1020.48 741.202 1018.75 746.339C1018.1 748.242 1019.85 750.263 1020.17 752.089C1022.13 763.325 1025.58 767.011 1038 768C1033.15 773.318 1027.99 795.422 1037.29 799.397C1043.99 802.258 1055.76 800 1063 800L1124 800L1450 800L1450 0L0 0z"/>
<path style="fill:#e0e0e0; stroke:none;" d="M914 615L915 616L914 615z"/>
<path style="fill:#ededed; stroke:none;" d="M915 615L915 616L924 616L915 615z"/>
<path style="fill:#ffffff; stroke:none;" d="M859 626C861.002 630.605 864.636 634.942 865.497 640C866.572 646.311 865.896 653.769 868.728 659.791C872.012 666.777 879.815 674.621 879.815 683.004C879.814 694.431 876.906 709.824 861 706L858 712C868.244 718.948 858.996 721.203 854.988 727.228C851.601 732.318 849.666 738.693 846.162 743.961C844.351 746.684 840.817 748.696 840.117 752.039C838.479 759.858 842.504 767.035 841.74 774C841.206 778.871 836.067 782.393 839.858 787.406C842.027 790.274 847.216 797.954 850.299 799.397C853.973 801.116 860.026 800 864 800L896 800L1036 800C1031.74 791.984 1030.58 775.388 1038 769C1026.74 765.158 1021.96 764.375 1020.51 752.17C1020.28 750.2 1018.41 748.261 1019.18 746.235C1021.23 740.891 1032.89 736.964 1025.68 729.39C1021.26 724.745 1016.09 727.138 1011.31 724.652C1008.9 723.396 1008.87 719.996 1005.85 719.618C1002.33 719.177 998.64 722.055 995.434 719.382C990.773 715.497 991.868 703.025 985.772 700.643C981.087 698.813 977.399 704.203 973 703.417C966.534 702.261 949.08 690.55 947.448 684C946.24 679.152 947.737 669.402 954.005 669.126C958.104 668.945 961.697 672.279 965.772 669.82C970.945 666.698 969.001 651.118 967.227 646.319C965.13 640.649 955.104 649.049 951.058 647.494C939.492 643.049 938.92 628.712 939 619L917 616.015L898 619.607L883 616.397L859 626z"/>
<path style="fill:#e0e0e0; stroke:none;" d="M909 616L910 617L909 616z"/>
<path style="fill:#ededed; stroke:none;" d="M910.667 616.333L911.333 616.667L910.667 616.333M927 616L928 617L927 616z"/>
<path style="fill:#d0d0d0; stroke:none;" d="M876 617L877 618L876 617z"/>
<path style="fill:#ededed; stroke:none;" d="M888 617L889 618L888 617M906 617L907 618L906 617M929 617L930 618L929 617M891 618L892 619L891 618M902.667 618.333L903.333 618.667L902.667 618.333M931 618L932 619L931 618M873 619L874 620L873 619M894 619L895 620L894 619z"/>
<path style="fill:#e0e0e0; stroke:none;" d="M898 619L899 620L898 619z"/>
<path style="fill:#ededed; stroke:none;" d="M899 619L900 620L899 619M933 619L934 620L933 619M937 619L938 620L937 619M871 620L872 621L871 620M869 621L870 622L869 621z"/>
<path style="fill:#d0d0d0; stroke:none;" d="M939.333 621.667L939.667 622.333L939.333 621.667z"/>
<path style="fill:#ededed; stroke:none;" d="M867 622L868 623L867 622z"/>
<path style="fill:#e0e0e0; stroke:none;" d="M862 624L863 625L862 624z"/>
<path style="fill:#ededed; stroke:none;" d="M860 625L861 626L860 625z"/>
<path style="fill:#e0e0e0; stroke:none;" d="M938 626L939 627L938 626z"/>
<path style="fill:#d0d0d0; stroke:none;" d="M937 630L938 631L937 630z"/>
<path style="fill:#e0e0e0; stroke:none;" d="M937 632L938 633L937 632z"/>
<path style="fill:#d0d0d0; stroke:none;" d="M939 634L940 635L939 634z"/>
<path style="fill:#e0e0e0; stroke:none;" d="M940 635L941 636L940 635z"/>
<path style="fill:#ededed; stroke:none;" d="M941 636L942 637L941 636z"/>
<path style="fill:#e0e0e0; stroke:none;" d="M942 637L943 638L942 637M943 638L944 639L943 638M944 639L945 640L944 639M945 640L946 641L945 640M946 641L947 642L946 641M961 644L962 645L961 644M967 644L968 645L967 644M947 645L948 646L947 645z"/>
<path style="fill:#ededed; stroke:none;" d="M959 645L960 646L959 645z"/>
<path style="fill:#d0d0d0; stroke:none;" d="M948 646L949 647L948 646z"/>
<path style="fill:#ededed; stroke:none;" d="M949 647L950 648L949 647M956 647L957 648L956 647M952.667 648.333L953.333 648.667L952.667 648.333M967 648L968 649L967 648z"/>
<path style="fill:#d0d0d0; stroke:none;" d="M967 649L968 650L967 649z"/>
<path style="fill:#e0e0e0; stroke:none;" d="M967 654L968 655L967 654z"/>
<path style="fill:#ededed; stroke:none;" d="M968 657L969 658L968 657M968 667L969 668L968 667M953.667 668.333L954.333 668.667L953.667 668.333M965 670L966 671L965 670M948 671L949 672L948 671z"/>
<path style="fill:#d0d0d0; stroke:none;" d="M961.667 671.333L962.333 671.667L961.667 671.333z"/>
<path style="fill:#e0e0e0; stroke:none;" d="M947 678L948 679L947 678M947 685L948 686L947 685M948 687L949 688L948 687z"/>
<path style="fill:#ededed; stroke:none;" d="M953 692L954 693L953 692z"/>
<path style="fill:#d0d0d0; stroke:none;" d="M956 693L957 694L956 693z"/>
<path style="fill:#ededed; stroke:none;" d="M958 694L959 695L958 694z"/>
<path style="fill:#d0d0d0; stroke:none;" d="M960 695L961 696L960 695z"/>
<path style="fill:#e0e0e0; stroke:none;" d="M963 697L964 698L963 697M965 698L966 699L965 698z"/>
<path style="fill:#d0d0d0; stroke:none;" d="M967 699L968 700L967 699z"/>
<path style="fill:#ededed; stroke:none;" d="M968 700L969 701L968 700M981 700L982 701L981 700M969 701L970 702L969 701z"/>
<path style="fill:#d0d0d0; stroke:none;" d="M970 702L971 703L970 702M988 702L989 703L988 702z"/>
<path style="fill:#e0e0e0; stroke:none;" d="M972 704L973 705L972 704z"/>
<path style="fill:#ededed; stroke:none;" d="M991 710L992 711L991 710M993 711L994 712L993 711z"/>
<path style="fill:#e0e0e0; stroke:none;" d="M993 717L994 718L993 717M994 719L995 720L994 719z"/>
<path style="fill:#ededed; stroke:none;" d="M1004 719L1005 720L1004 719M1008 719L1009 720L1008 719M995 720L996 721L995 720z"/>
<path style="fill:#e0e0e0; stroke:none;" d="M1000 720L1001 721L1000 720z"/>
<path style="fill:#ededed; stroke:none;" d="M1009 720L1010 721L1009 720M1009 724L1010 725L1009 724z"/>
<path style="fill:#d0d0d0; stroke:none;" d="M1013 725L1014 726L1013 725z"/>
<path style="fill:#ededed; stroke:none;" d="M1019 725L1020 726L1019 725z"/>
<path style="fill:#e0e0e0; stroke:none;" d="M1021 726L1022 727L1021 726z"/>
<path style="fill:#d0d0d0; stroke:none;" d="M1025 728L1026 729L1025 728z"/>
<path style="fill:#ededed; stroke:none;" d="M1026 729L1027 730L1026 729z"/>
<path style="fill:#d0d0d0; stroke:none;" d="M1027 730L1028 731L1027 730z"/>
<path style="fill:#ededed; stroke:none;" d="M1027 736L1028 737L1027 736z"/>
<path style="fill:#e0e0e0; stroke:none;" d="M1025 740L1026 741L1025 740z"/>
<path style="fill:#ededed; stroke:none;" d="M1024 741L1025 742L1024 741M1022 743L1023 744L1022 743z"/>
<path style="fill:#d0d0d0; stroke:none;" d="M1023 743L1024 744L1023 743z"/>
<path style="fill:#e0e0e0; stroke:none;" d="M1019 744L1020 745L1019 744z"/>
<path style="fill:#ededed; stroke:none;" d="M1017 746L1018 747L1017 746z"/>
<path style="fill:#e0e0e0; stroke:none;" d="M1017 747L1018 748L1017 747z"/>
<path style="fill:#ededed; stroke:none;" d="M930 749L931 750L930 749z"/>
<path style="fill:#e0e0e0; stroke:none;" d="M1019 749L1020 750L1019 749z"/>
<path style="fill:#ededed; stroke:none;" d="M1019.33 757.667L1019.67 758.333L1019.33 757.667z"/>
<path style="fill:#d0d0d0; stroke:none;" d="M1023 763L1024 764L1023 763z"/>
<path style="fill:#ededed; stroke:none;" d="M1024 764L1025 765L1024 764M1026 765L1027 766L1026 765M1032 767L1033 768L1032 767z"/>
<path style="fill:#d0d0d0; stroke:none;" d="M1033 767L1034 768L1033 767z"/>
<path style="fill:#e0e0e0; stroke:none;" d="M1037 768L1038 769L1037 768z"/>
<path style="fill:#d0d0d0; stroke:none;" d="M1035 770L1036 771L1035 770M1033 775L1034 776L1033 775z"/>
<path style="fill:#ededed; stroke:none;" d="M1034 778L1035 779L1034 778M1032 788L1033 789L1032 788z"/>
<path style="fill:#d0d0d0; stroke:none;" d="M1032 789L1033 790L1032 789z"/>
<path style="fill:#ededed; stroke:none;" d="M1033 796L1034 797L1033 796M1035 798L1036 799L1035 798z"/>
</svg>
