<?xml version="1.0" standalone="yes"?>
<svg xmlns="http://www.w3.org/2000/svg" width="1450" height="800">
                        <path onclick = "Osaka()" class = "Osaka" style = "fill:#010101; stroke:none;" d="M0 0L0 800L1450 800L1450 0L1143 0L1099 0C1094.74 0 1086.15 -1.6261 1082.56 1.02777C1079.95 2.96051 1080.37 7.15753 1079.29 9.91052C1076.76 16.3781 1067.83 33.1024 1076 38C1074.72 41.613 1072.78 45.0325 1073.15 49C1074.02 58.3367 1081.56 69.9466 1072.57 78.4861C1069.03 81.844 1063.32 81.129 1059 82.6882C1045 87.7429 1029.2 90.7893 1014 94.3889C1010.27 95.2715 1006.78 93.9237 1003 95.2477C998.794 96.7205 983.285 108.534 980.752 98.9097C979.082 92.567 997.098 89.7135 1000.91 87.1574C1014.1 78.315 1028.62 55.7632 1034.19 41C1037.09 33.2963 1036.72 24.4003 1029 20C1033.18 16.7767 1046.73 7.1496 1038.35 1.02777C1034.25 -1.96051 1023.89 0 1019 0L969 0L777 0L0 0z"/>
                        <path onclick = "Osaka()" class = "Osaka" style = "fill:#ffffff; stroke:none;" d="M1039 0C1041.43 9.47711 1037.27 13.3431 1030 19L1030 20C1044.87 36.5747 1023.66 60.644 1012.41 74C1008.91 78.1529 1005.33 83.2305 1000.96 86.49C996.865 89.545 978.913 92.017 980.377 98.8148C982.386 108.148 998.443 97.4034 1002 95.8009C1006.28 93.8715 1009.81 95.812 1014 94.7168C1028.94 90.8094 1045.31 88.5289 1059 82.8395C1063.23 81.083 1069.83 81.9846 1073.07 78.2971C1082.37 67.6857 1070.78 50.7416 1076 39C1067.49 30.7881 1078.59 9.35156 1082 0L1039 0z"/>
                        <path onclick = "Osaka()" class = "Osaka" style = "fill:#d8d8d8; stroke:none;" d="M1080.33 3.66669L1080.67 4.33331L1080.33 3.66669M1039 10L1040 11L1039 10M1079 10L1080 11L1079 10M1078 12L1079 13L1078 12M1036 14L1037 15L1036 14M1033 16L1034 17L1033 16M1075.33 17.6667L1075.67 18.3333L1075.33 17.6667M1030 18L1031 19L1030 18M1029 19L1030 20L1029 19M1030 20L1031 21L1030 20M1033 23L1034 24L1033 23M1074 23L1075 24L1074 23M1035 27L1036 28L1035 27M1073 27L1074 28L1073 27M1072.33 32.6667L1072.67 33.3333L1072.33 32.6667M1072 35L1073 36L1072 35M1035 36L1036 37L1035 36M1073 37L1074 38L1073 37M1075 38L1076 39L1075 38M1075 40L1076 41L1075 40M1073 43L1074 44L1073 43z"/>
                        <path onclick = "Osaka()" class = "Osaka" style = "fill:#73ccff; stroke:none;" d="M1032 44L1033 45L1032 44z"/>
                        <path onclick = "Osaka()" class = "Osaka" style = "fill:#b5e4ff; stroke:none;" d="M1031 46L1032 47L1031 46z"/>
                        <path onclick = "Osaka()" class = "Osaka" style = "fill:#73ccff; stroke:none;" d="M1030 47L1031 48L1030 47z"/>
                        <path onclick = "Osaka()" class = "Osaka" style = "fill:#d8d8d8; stroke:none;" d="M1072 48L1073 49L1072 48z"/>
                        <path onclick = "Osaka()" class = "Osaka" style = "fill:#b5e4ff; stroke:none;" d="M1029 49L1030 50L1029 49z"/>
                        <path onclick = "Osaka()" class = "Osaka" style = "fill:#73ccff; stroke:none;" d="M1028 50L1029 51L1028 50z"/>
                        <path onclick = "Osaka()" class = "Osaka" style = "fill:#b5e4ff; stroke:none;" d="M1027 52L1028 53L1027 52z"/>
                        <path onclick = "Osaka()" class = "Osaka" style = "fill:#73ccff; stroke:none;" d="M1026 53L1027 54L1026 53z"/>
                        <path onclick = "Osaka()" class = "Osaka" style = "fill:#b5e4ff; stroke:none;" d="M1025 55L1026 56L1025 55z"/>
                        <path onclick = "Osaka()" class = "Osaka" style = "fill:#73ccff; stroke:none;" d="M1023 59L1024 60L1023 59z"/>
                        <path onclick = "Osaka()" class = "Osaka" style = "fill:#d8d8d8; stroke:none;" d="M1076 59L1076 70L1077 70L1076 59z"/>
                        <path onclick = "Osaka()" class = "Osaka" style = "fill:#b5e4ff; stroke:none;" d="M1022 61L1023 62L1022 61M1020 63L1021 64L1020 63z"/>
                        <path onclick = "Osaka()" class = "Osaka" style = "fill:#d8d8d8; stroke:none;" d="M1075 72L1076 73L1075 72M1011 75L1012 76L1011 75M1074.33 75.6667L1074.67 76.3333L1074.33 75.6667M1072 79L1073 80L1072 79M1069 80L1070 81L1069 80M1064 81L1065 82L1064 81M1058 82L1059 83L1058 82M1004 83L1005 84L1004 83M1055 84L1056 85L1055 84M1037 87L1038 88L1037 87M1051 87L1052 88L1051 87M1048.67 88.3333L1049.33 88.6667L1048.67 88.3333M1031 90L1032 91L1031 90M1020 91L1021 92L1020 91M1018 92L1019 93L1018 92M1016 93L1017 94L1016 93M1004 94L1005 95L1004 94M1002 95L1003 96L1002 95M1011 95L1012 96L1011 95M996 98L997 99L996 98M981 101L982 102L981 101M984 102L984 103L988 103L984 102z"/>
</svg>
