<?xml version="1.0" standalone="yes"?>
<svg xmlns="http://www.w3.org/2000/svg" width="1450" height="800">
                        <path onclick = "Chiba()" class = "Chiba" style = "fill:#010101; stroke:none;" d="M0 0L0 800L1450 800L1450 0L0 0z"/>
                        <path onclick = "Chiba()" class = "Chiba" style = "fill:#ffffff; stroke:none;" d="M323 527L334.532 557L342.442 570L342.147 596L345.642 608.985L340 624L341 625C345.617 623.535 347.838 622.088 347 617C356.601 613.957 375.88 619.542 374.392 633C373.026 645.356 355.539 662.579 344 665C345.474 676.999 338.703 672.764 332.652 679.318C329.82 682.385 329.367 686.225 326 689L326 690C331.629 692.483 335.475 696.595 336.718 702.83C337.856 708.543 330.907 710.095 329.894 715.093C328.705 720.96 331.37 728.962 331.592 735C331.717 738.393 329.658 741.407 330.438 744.896C331.269 748.617 336.201 750.59 333.953 754.895C331.229 760.111 323.865 759 319 759L331 773C337.621 773 346.617 774.589 351.347 768.786C355.731 763.408 354.521 755.697 359.329 750.015C363.819 744.71 370.811 743.2 375.441 738.366C378.593 735.075 379.161 730.49 384.004 728.758C388.355 727.201 392.545 730.481 397 729.347C403.317 727.74 407.123 723.524 414 725C417.906 718.872 425.969 716.718 428.095 709.995C431.669 698.689 425.218 685.473 426.174 674C428.597 644.913 454.426 615.995 482 608L483 611C487.415 609.954 491.561 607.435 495.996 606.668C501.969 605.635 510.44 612.546 507 600C492.101 602.856 487.099 590.657 478.582 581.148C475.459 577.662 470.658 578.361 467.224 575.486C459.657 569.152 456.841 560.546 446 558C441.888 568.852 432.145 563.346 423.17 568.175C413.496 573.38 399.961 579.733 388.004 578.593C383.58 578.171 381.111 573.686 376.985 572.417C359.141 566.931 347.067 556.369 335.701 542C331.725 536.973 326.895 533.699 326 527L323 527z"/>
                        <path onclick = "Chiba()" class = "Chiba" style = "fill:#e0e0e0; stroke:none;" d="M323 528L324 529L323 528M324 531L325 532L324 531M326 531L327 532L326 531M325 533L326 534L325 533M326 534L327 535L326 534M328 534L329 535L328 534M329 540L330 541L329 540M330 545L331 546L330 545M338 547L339 548L338 547M342 551L343 552L342 551M333 554L334 555L333 554M447 557L448 558L447 557M445 559L446 560L445 559M450 559L451 560L450 559M453 561L454 562L453 561M338 562L339 563L338 562M444 562L445 563L444 562M455 562L456 563L455 562M339 563L340 564L339 563M444 564L445 565L444 564M435 565L436 566L435 565M441 565L442 566L441 565M443 565L444 566L443 565M341 566L342 567L341 566M363 566L364 567L363 566M426 566L426 567L433 567L426 566M365 567L366 568L365 567M423 567L424 568L423 567M342 569L343 570L342 569M420 570L421 571L420 570M378 572L379 573L378 572M418 572L419 573L418 572M464 572L465 573L464 572M414 574L415 575L414 574M465 574L466 575L465 574M466 575L467 576L466 575M382 576L383 577L382 576M395 576L396 577L395 576M402 576L403 577L402 576M467 576L468 577L467 576M470 577L471 578L470 577M391 578L392 579L391 578M477 579L478 580L477 579M481 586L482 587L481 586M482 588L483 589L482 588M490 595L491 596L490 595M341 596L342 597L341 596M499 601L500 602L499 601M344 602L345 603L344 602M345 604L346 605L345 604M476 609L477 610L476 609M343 613L344 614L343 613M351 615L352 616L351 615M356.667 615.333L357.333 615.667L356.667 615.333M348 616L349 617L348 616M360 616L361 617L360 616M362 617L363 618L362 617M347 618L348 619L347 618M364 618L365 619L364 618M348 620L349 621L348 620M367 620L368 621L367 620M368 621L369 622L368 621M340 622L341 623L340 622M347 622L348 623L347 622M369 622L370 623L369 622M346 623L347 624L346 623M370 623L371 624L370 623M340 624L341 625L340 624M342 624L342 625L345 625L342 624M373 627L374 628L373 627M374 630L375 631L374 630M373 636L374 637L373 636M372 637L373 638L372 637M371 639L372 640L371 639z"/>
                        <path onclick = "Chiba()" class = "Chiba" style = "fill:#bee6fd; stroke:none;" d="M439 639L440 640L439 639M438 641L439 642L438 641z"/>
                        <path onclick = "Chiba()" class = "Chiba" style = "fill:#e0e0e0; stroke:none;" d="M368 644L369 645L368 644M367 646L368 647L367 646M366 647L367 648L366 647M365 649L366 650L365 649M364 650L365 651L364 650z"/>
                        <path onclick = "Chiba()" class = "Chiba" style = "fill:#bee6fd; stroke:none;" d="M433 650L434 651L433 650z"/>
                        <path onclick = "Chiba()" class = "Chiba" style = "fill:#e0e0e0; stroke:none;" d="M363 651L364 652L363 651M362 652L363 653L362 652z"/>
                        <path onclick = "Chiba()" class = "Chiba" style = "fill:#bee6fd; stroke:none;" d="M432 652L433 653L432 652z"/>
                        <path onclick = "Chiba()" class = "Chiba" style = "fill:#e0e0e0; stroke:none;" d="M361 653L362 654L361 653M360 654L361 655L360 654z"/>
                        <path onclick = "Chiba()" class = "Chiba" style = "fill:#bee6fd; stroke:none;" d="M431 654L432 655L431 654z"/>
                        <path onclick = "Chiba()" class = "Chiba" style = "fill:#e0e0e0; stroke:none;" d="M359 655L360 656L359 655M357 656L358 657L357 656M355 657L356 658L355 657z"/>
                        <path onclick = "Chiba()" class = "Chiba" style = "fill:#bee6fd; stroke:none;" d="M430 657L431 658L430 657M429 659L430 660L429 659z"/>
                        <path onclick = "Chiba()" class = "Chiba" style = "fill:#e0e0e0; stroke:none;" d="M354 660L355 661L354 660M353 661L354 662L353 661M352 662L353 663L352 662z"/>
                        <path onclick = "Chiba()" class = "Chiba" style = "fill:#bee6fd; stroke:none;" d="M428 662L429 663L428 662z"/>
                        <path onclick = "Chiba()" class = "Chiba" style = "fill:#e0e0e0; stroke:none;" d="M349.667 663.333L350.333 663.667L349.667 663.333M427 663L428 664L427 663M344 664L344 665L347 665L344 664z"/>
                        <path onclick = "Chiba()" class = "Chiba" style = "fill:#87afc7; stroke:none;" d="M427 664L428 665L427 664z"/>
                        <path onclick = "Chiba()" class = "Chiba" style = "fill:#e0e0e0; stroke:none;" d="M344 668L344 674L345 674L344 668M426 671L426 674L427 674L426 671M339.667 676.333L340.333 676.667L339.667 676.333M333 677L334 678L333 677M332 678L333 679L332 678M426.333 679.667L426.667 680.333L426.333 679.667M331 680L332 681L331 680M330.333 681.667L330.667 682.333L330.333 681.667M329 684L329 687L330 687L329 684M427 685L428 686L427 685M326.667 688.333L327.333 688.667L326.667 688.333M325 689L326 690L325 689M326.667 690.333L327.333 690.667L326.667 690.333M329 691L330 692L329 691M331 692L332 693L331 692M333 694L334 695L333 694M334.333 696.667L334.667 697.333L334.333 696.667M428 697L429 698L428 697M335 699L336 700L335 699M336 701L337 702L336 701M337 704L338 705L337 704M336 707L337 708L336 707M335 708L336 709L335 708M334 709L335 710L334 709M331 711L332 712L331 711M329 713L329 716L330 716L329 713M329 717L329 720L330 720L329 717M330 722L331 723L330 722M331.333 724.667L331.667 725.333L331.333 724.667M405 725L406 726L405 725M331 727L332 728L331 727M383 728L384 729L383 728M389 728L390 729L389 728M330 729L331 730L330 729M329.333 730.667L329.667 731.333L329.333 730.667M394 730L395 731L394 730M330 732L331 733L330 732M378 732L379 733L378 732M331 733L332 734L331 733M332 734L333 735L332 734M377 734L378 735L377 734M332 736L333 737L332 736M331 737L332 738L331 737M330 738L331 739L330 738M376 738L377 739L376 738M329 739L330 740L329 739M374 739L375 740L374 739M372 740L373 741L372 740M370 741L371 742L370 741M330.333 742.667L330.667 743.333L330.333 742.667M363 745L364 746L363 745M356 753L357 754L356 753z"/>
</svg>
