<?xml version="1.0" standalone="yes"?>
<svg xmlns="http://www.w3.org/2000/svg" width="1450" height="800">
                            <path style="fill:#010101; stroke:none;" d="M0 0L0 800L1450 800L1450 353L1449 353C1446.02 365.49 1442.17 375.125 1431 383C1430.55 374.234 1426.82 355.867 1422.43 348.225C1419.58 343.267 1413.64 342.93 1411 337L1439 328.399L1448.97 323.351L1450 304L1450 252L1450 0L0 0z"/>
                            <path style="fill:#ffffff; stroke:none;" d="M1411 338L1422.14 348.133L1427.42 371L1431 383C1451.6 368.491 1450 346.601 1450 324L1411 338z"/>
                            <path style="fill:#dddddd; stroke:none;" d="M1443 326L1444 327L1443 326M1438 328L1439 329L1438 328M1433 330L1434 331L1433 330M1430 331L1431 332L1430 331M1427 332L1428 333L1427 332M1424 333L1425 334L1424 333M1421 334L1422 335L1421 334M1418 335L1419 336L1418 335M1411 337L1412 338L1411 337M1412 340L1413 341L1412 340M1413 342L1414 343L1413 342M1414 343L1415 344L1414 343M1417 344L1418 345L1417 344M1420 345L1421 346L1420 345M1422 347L1423 348L1422 347M1423 350L1424 351L1423 350M1448 354L1449 355L1448 354M1447 357L1447 360L1448 360L1447 357M1424 358L1425 359L1424 358M1425 360L1426 361L1425 360M1426 362L1427 363L1426 362M1444 368L1445 369L1444 368M1442 371L1443 372L1442 371M1429 375L1430 376L1429 375M1439 375L1440 376L1439 375M1438 376L1439 377L1438 376M1430 377L1431 378L1430 377M1437 377L1438 378L1437 377M1436 378L1437 379L1436 378M1435 379L1436 380L1435 379M1434 380L1435 381L1434 380M1433 381L1434 382L1433 381M1432 382L1433 383L1432 382z"/>
                            <path style="fill:#939393; stroke:none;" d="M668 638L669 639L668 638z"/>
                            <path style="fill:#676767; stroke:none;" d="M666 639L666 640L669 640L666 639z"/>
</svg>
