<?xml version="1.0" standalone="yes"?>
<svg xmlns="http://www.w3.org/2000/svg" width="975" height="1450">
<path style="fill:#010101; stroke:none;" d="M0 0L0 1450L975 1450L975 0L0 0z"/>
<path style="fill:#ffffff; stroke:none;" d="M883 957C888.193 953.466 897.799 946.167 898 940L906 942L897.815 953.351L888 960C891.766 959.223 897.522 958.881 900.49 956.262C904.942 952.332 906.048 945.604 911.015 941.468C919.459 934.435 930.413 930.285 938.681 923.034C944.755 917.707 935.099 906.754 949 909C949.933 897.177 947.789 889.487 941.738 879.059C938.445 873.383 930.321 873.586 927 879L922 878L920 889C909.748 888.667 897.741 877.979 892 870C883.966 872.168 885.655 881.068 886.043 888C886.701 899.741 894.562 910.745 893.295 923C892.123 934.329 881.644 946.008 883 957z"/>
</svg>
