<?xml version="1.0" standalone="yes"?>
<svg xmlns="http://www.w3.org/2000/svg" width="975" height="1450">
<path style="fill:#010101; stroke:none;" d="M0 0L0 1450L975 1450L975 0L0 0z"/>
<path style="fill:#ffffff; stroke:none;" d="M375 641C361.391 653.184 377.167 656.466 378.485 669.001C378.972 673.63 376.11 678.261 377.322 682.896C378.489 687.361 383.648 689.09 384.566 694.001C386.281 703.175 385.348 711.83 395.325 717.683C402.505 721.895 413.085 716.823 419.606 721.028C426.828 725.684 425.158 737.589 436.985 737.482C449.491 737.369 443.071 711.859 444.84 705C445.802 701.266 452.778 694.552 449.953 690.742C443.269 681.729 424.042 695.67 416 695C419.536 679.974 404.083 680.269 396.43 671.772C392.607 667.528 393.086 661.017 390.431 656.174C387.509 650.842 379.822 644.688 375 641z"/>
</svg>
