<?xml version="1.0" standalone="yes"?>
<svg xmlns="http://www.w3.org/2000/svg" width="975" height="1450">
<path style="fill:#010101; stroke:none;" d="M0 0L0 1450L975 1450L975 0L0 0z"/>
<path style="fill:#ffffff; stroke:none;" d="M823 790L816 804C812.221 804 807.766 803.361 804.089 804.317C800.701 805.198 798.791 808.336 794.996 807.948C790.379 807.477 785.147 801.936 780.513 805.18C767.923 813.993 780.297 833.827 785 842L807 845L805 856L805 866C822.113 860.511 838.513 887.594 843.302 901C844.844 905.317 845.217 914.953 848.603 917.975C851.322 920.403 860.313 920.746 864 921C864.976 928.233 872.981 935.925 878 941L871 943L876 951L877 951L878 945C888.477 944.876 890.245 934.847 891.995 926C894.336 914.164 888.438 902.199 885.609 891C883.954 884.448 885 876.724 885 870L884 870C873.23 881.663 855.823 864.787 845 860.839C840.11 859.055 833.037 860.47 831.318 853.957C826.728 836.564 850.042 846.88 854.397 837.697C856.621 833.006 853.466 826.364 851.808 822C849.41 815.689 847.042 807.438 842.363 802.394C837.95 797.639 828.521 794.217 823 790M859 926C843.559 919.882 851.27 938.365 859 926M862 929L863 937L867 935L862 929z"/>
</svg>
