<?xml version="1.0" standalone="yes"?>
<svg xmlns="http://www.w3.org/2000/svg" width="975" height="1450">
<path style="fill:#010101; stroke:none;" d="M0 0L0 1450L975 1450L975 0L0 0z"/>
<path style="fill:#ffffff; stroke:none;" d="M225 959L230 962L229 966C232.911 968.588 249.101 981.569 252.918 975.482C254.561 972.862 251.962 968.833 251.88 966.002C251.803 963.362 251.831 961.543 251 959C246.378 959.464 243.692 960.156 240 957L248 954C242.601 950.673 230.59 956.86 225 959M271 961L272 965C264.278 967.718 271.017 981.281 276 984C279.419 976.9 287.274 978.901 288 969L284 969L284 966L271 961M209 967L205 978L204 974L202 974L201 979L195 976L196 971L191 973C193.092 981.225 185.324 987.174 193 994L194 994L204 985L205 988L213 986L210 992L217 992L215 969L209 967M229 977L229 982C214.549 984.182 222.409 1000.52 233 996L232 992L228 992L232 983L229 977M169 986C172.034 985.504 173.071 985.126 173 982L169 986M282 991L283 992L282 991M283 993L284 994L283 993M218 998L217 1004L218 1004L218 998M201 1036L208 1034L201 1036z"/>
</svg>
