<?xml version="1.0" standalone="yes"?>
<svg xmlns="http://www.w3.org/2000/svg" width="975" height="1450">
<path style="fill:#010101; stroke:none;" d="M0 0L0 1450L975 1450L975 0L0 0z"/>
<path style="fill:#ffffff; stroke:none;" d="M462 1154L444.14 1175.27L439 1192C445.089 1195.06 457.274 1198.31 464 1198.61C467.71 1198.78 472.209 1195.78 475.772 1197.33C483.526 1200.69 479.149 1213.75 490 1217L496 1204L511 1213L508 1222L519 1223L520 1202C525.084 1200.12 527.741 1195.75 530 1191L527 1192L530 1185L537 1181L534 1181L534 1180L540 1174L541 1177C545.413 1173.08 545.289 1169.19 547.96 1164.61C549.886 1161.32 553.68 1159.13 555.957 1155.99C560.543 1149.66 563.496 1142.29 568.159 1136C571.328 1131.74 575.597 1130.87 579.096 1127.44C583.759 1122.86 589.243 1113.95 591.926 1108C595.233 1100.67 591.945 1092.01 595.457 1085C599.726 1076.48 610.608 1073.51 614.637 1064.96C616.183 1061.68 618.672 1056.64 618.647 1053C618.561 1040.76 605.219 1023.06 593 1027.34C572.782 1034.43 564.245 1064.16 549.561 1078.85C546.723 1081.69 543.459 1081.05 540.39 1083.03C537.149 1085.12 536.249 1089.42 532.895 1091.65C526.653 1095.79 519.181 1095.5 513.039 1098.99C507.991 1101.86 503.493 1108.41 500.043 1113C489.68 1126.78 484.851 1160.54 462 1154z"/>
</svg>
