<?xml version="1.0" standalone="yes"?>
<svg xmlns="http://www.w3.org/2000/svg" width="975" height="1450">
<path style="fill:#010101; stroke:none;" d="M0 0L0 1450L975 1450L975 0L0 0z"/>
<path style="fill:#ffffff; stroke:none;" d="M578 626L570 631C567.891 629.492 563.481 625.114 560.603 626.458C557.976 627.684 557.663 638.159 556.536 641C554.017 647.348 548.282 649.126 545.028 654.465C540.339 662.156 544.281 682.858 528.025 678.332C525.961 677.757 524.586 676.337 523 675L522 675C506.365 688.781 530.703 700.822 543 701.214C551.457 701.484 560.466 698.708 569 699.083C573.672 699.289 577.123 703.198 582 702.744C590.563 701.946 596.597 696.786 604.039 694.617C609.625 692.99 616.257 694.201 622 692.302C628.192 690.253 633.514 685.386 639 682C638.156 676.595 633.306 671.491 633.761 666.015C634.241 660.237 642.093 657.819 645.298 653.7C648.602 649.454 648.62 643.354 652.418 639.39C659.364 632.139 677.949 622.893 674 611C666.522 611.966 660.008 615.912 653 617.11C649.411 617.724 646.366 615.002 643 614.299C635.763 612.785 628.69 614.241 622.148 609.647C616.586 605.741 621.305 596.274 613.906 593.643C608.307 591.652 601.999 596.322 597 598.033C592.817 599.465 588.148 596.976 584.274 598.618C571.519 604.025 577.231 616.338 578 626z"/>
</svg>
