<?xml version="1.0" standalone="yes"?>
<svg xmlns="http://www.w3.org/2000/svg" width="975" height="1450">
<path style="fill:#010101; stroke:none;" d="M0 0L0 1450L975 1450L975 0L0 0z"/>
<path style="fill:#ffffff; stroke:none;" d="M494 654C492.138 660.63 492.024 674.011 500.108 677.243C503.32 678.527 506.708 676.805 510 677.096C515.546 677.587 517.876 678.56 522 674L523 674C527.109 678.933 536.546 679.498 539.637 672.941C542.244 667.414 541.248 660.136 544.028 655.174C547.236 649.447 553.468 647.742 555.91 640.999C557.132 637.624 556.926 626.804 560.863 625.692C563.533 624.938 567.693 628.851 570 630L576.512 622.776L574.556 610.039L582 598C575.428 595.178 567.72 602.168 561.419 597.972C555.5 594.031 558.232 581.06 556.683 575C555.109 568.841 546.958 566.149 545.948 560.001C545.033 554.438 552.657 551.29 555.397 547.572C557.504 544.712 556.584 541.156 557.858 538C560.029 532.623 565.386 527.318 570 524C568.918 519.026 565.711 518.39 561 518C561 503.993 560.571 496.04 566 483C557.889 476.613 564.004 461.343 550 461.677C541.187 461.887 528.183 469.414 526.851 479.004C526.411 482.175 528.938 484.885 528.35 488C527.583 492.068 523.44 494.738 522.851 499C522.165 503.963 526.32 507.881 524.011 513C520.311 521.203 511.03 524.015 506.363 531.174C502.307 537.396 499.99 544.892 495.302 550.787C491.755 555.248 487.5 556.844 486.059 563C484.888 568.007 489.885 572.079 488.353 577C485.847 585.052 476.813 590.039 474.677 599C472.974 606.144 480.067 609.511 481.344 615.83C482.112 619.627 478.155 623.02 478.099 627C477.963 636.605 485.315 650.241 494 654z"/>
</svg>
