<?xml version="1.0" standalone="yes"?>
<svg xmlns="http://www.w3.org/2000/svg" width="975" height="1450">
<path style="fill:#010101; stroke:none;" d="M0 0L0 1450L975 1450L975 0L0 0z"/>
<path style="fill:#ffffff; stroke:none;" d="M246 34L246 37L235 35L233 41C241.572 48.3549 235.094 62.7916 242.951 72.895C247.867 79.2177 262.344 77.3971 269.775 82.9938C273.288 85.6389 273.693 90.2715 275.514 94C277.94 98.9664 282.652 104.436 283.16 110C284.305 122.547 267.848 132 257 132C254.777 137.294 250.819 141.864 251.302 148C252.043 157.405 260.544 172.814 255.111 181.807C251.626 187.576 239.739 186.038 234.09 187.769C228.045 189.621 219.152 199.131 215.279 204C212.788 207.131 207.17 215.077 207.113 219.043C207.011 226.215 211.788 232.379 210.532 240C209.265 247.689 204.018 253.823 202.676 261C201.042 269.738 204.737 278.382 203.191 287C202.031 293.468 196.8 303.671 200.939 309.775C204.18 314.555 213.704 316.554 219 318C223.005 308.185 230.736 294.386 243 292.884C247.598 292.32 252.033 296.277 257 295.748C263.017 295.106 270.861 289.952 276.961 291.55C284.073 293.414 291.148 299.122 298 302C298.098 290.293 305.772 283.689 316 278.783C322.735 275.553 329.17 279.532 330.377 269.001C331.296 260.985 320.806 258.694 319.444 250.999C317.719 241.257 319.899 232.446 322.351 223C323.565 218.324 326.308 214.986 324.742 210C320.253 195.715 305.719 191.465 308.349 175.073C309.132 170.191 318.94 171.337 321.86 166.787C324.256 163.055 322.668 157.925 325.028 154.43C327.096 151.367 331.219 151.78 332.606 147.891C334.951 141.315 333.88 133.741 339.39 128.418C344.849 123.146 352.689 124.716 358.826 121.427C365.99 117.589 366.5 107.957 371.637 102.394C373.905 99.9375 378.219 99.4624 379.93 96.5818C381.28 94.3088 379.973 91.4446 380.044 89C380.164 84.8365 382.891 81.1769 382.686 77C382.468 72.574 379.239 68.5608 380.003 64C381 58.0479 387.581 54.3025 390.101 49C392.977 42.9481 391.279 35.2711 383.015 37.3025C378.212 38.4833 378.136 42.5771 374.582 44.9762C372.056 46.681 367.902 46.942 365 48L364 45L368 40L360 40L361 45C353.383 45.3607 345.657 41.8109 344 52L340 52L339 44L343 45L343 35C331.789 37.3524 331.684 47.0865 323.112 52.0216C320.732 53.3915 316.758 52.2449 314 53L314 55L317 56C305.012 70.2343 305.122 49.3877 296.85 45.9113C291.599 43.7048 278.157 42.0659 277 49C272.3 48.0486 268.994 46.4122 266 51L246 34z"/>
</svg>
