<?xml version="1.0" standalone="yes"?>
<svg xmlns="http://www.w3.org/2000/svg" width="975" height="1450">
<path style="fill:#010101; stroke:none;" d="M0 0L0 1450L975 1450L975 0L0 0z"/>
<path style="fill:#ffffff; stroke:none;" d="M541 833C543.695 841.502 542.401 860.278 550.51 865.972C554.498 868.773 564.94 867.843 570 869C566.134 890.892 592.009 872.061 602 870L600 875C604.85 875.312 610.373 876.687 613 881L629 878.386L636.561 874.768L646.834 879.681L671 867L669 862C675.574 857.258 660.386 847.33 658.183 841.911C656.923 838.811 657.991 834.312 658 831C668.787 829.17 672.938 809.445 683.103 805.368C687.347 803.666 696.683 812.524 702 813.606C708.219 814.872 712.165 810.129 718 809C718.475 797.945 722.767 779.535 717 770C719.535 769.24 723.486 768.181 723.673 764.895C723.911 760.704 719.058 752.934 717.305 749C713.828 741.196 714.92 714.425 700 720.023C680.251 727.433 681.756 749.377 669.697 762.7C663.321 769.743 656.744 765.182 650.318 769.457C645.277 772.809 647.19 783.091 640.957 787.853C635.58 791.96 625.455 796.351 619 798.436C614.982 799.734 610.788 798.35 607.015 800.742C598.522 806.125 604.226 813.141 599.443 818.351C596.835 821.192 591.513 822.581 588 823.939C579.016 827.413 567.57 834.211 558 835.065C552.619 835.545 546.625 833.004 541 833z"/>
</svg>
