<?xml version="1.0" standalone="yes"?>
<svg xmlns="http://www.w3.org/2000/svg" width="975" height="1450">
<path style="fill:#010101; stroke:none;" d="M0 0L0 1450L975 1450L975 0L0 0z"/>
<path style="fill:#ffffff; stroke:none;" d="M439 1193C435.864 1198.37 431.216 1202.9 428.302 1208.1C425.06 1213.9 425.032 1221.14 421.586 1226.96C419.43 1230.6 415.475 1231.2 412.994 1234.3C408.005 1240.54 404.171 1253.18 403 1261C413.118 1259.54 419.214 1267.19 428 1260L430 1265C440.205 1262.57 448.968 1264.75 458 1258C463.014 1270.04 472.859 1277.95 486 1279C482.802 1284.3 481.937 1293.27 475 1294L480.694 1323L477.071 1337.61L484.316 1343.39L503 1366C517.755 1359.1 531.563 1352.82 547 1347.31C551.77 1345.6 560.839 1344.09 562.971 1338.9C564.608 1334.91 561.225 1332.55 560.309 1328.96C558.837 1323.19 558.882 1317.18 555.298 1312.04C551.246 1306.23 543.634 1303.34 540.303 1296.99C536.708 1290.12 538.227 1280.63 533.146 1274.32C529.787 1270.14 523.784 1270.6 521.032 1265C516.749 1256.29 522.33 1239.95 520.695 1230C519.55 1223.03 512.836 1223.46 507 1223L510 1213L496 1205L490 1218C480.593 1213.85 479.53 1206 477 1197C463.71 1198.79 451.947 1197.83 439 1193M560 1314L567 1326L560 1314M567.333 1328.67L567.667 1329.33L567.333 1328.67z"/>
</svg>
