<?xml version="1.0" standalone="yes"?>
<svg xmlns="http://www.w3.org/2000/svg" width="975" height="1450">
<path style="fill:#010101; stroke:none;" d="M0 0L0 1450L975 1450L975 0L0 0z"/>
<path style="fill:#ffffff; stroke:none;" d="M836 675C827.102 684.003 824.138 697.622 840 700C840.833 710.448 848.271 718.514 852.15 728C854.121 732.818 853.318 738.206 859 740C858.994 747.858 854.985 754.536 847 757C849.228 760.72 851.763 761.614 856 762C856.83 768.425 864.751 795.533 875.262 786.062C877.434 784.104 877.05 780.664 878.857 778.43C881.184 775.553 885.084 775.773 886.442 771.891C887.925 767.652 887.008 762.097 889.858 758.394C893.098 754.183 899.781 753.633 903.682 749.957C906.287 747.503 905.808 744.105 907.075 741C909.553 734.928 917.659 728.515 918.093 722.004C918.724 712.506 905.296 716.026 900.043 714.427C895.398 713.014 894.919 707.758 890.787 705.893C883.608 702.655 873.63 703.8 867.589 697.351C860.834 690.141 868.66 683.394 870.212 676.83C871.01 673.458 868.063 670.084 867.13 667C864.922 659.699 874.786 643.113 865.581 638.603C852.441 632.166 846.742 646.494 837.996 650.708C832.71 653.255 827.17 649.823 822.133 652.438C808.856 659.33 824.916 663.979 828.582 666.858C831.687 669.297 832.377 672.892 836 675z"/>
</svg>
