<?xml version="1.0" standalone="yes"?>
<svg xmlns="http://www.w3.org/2000/svg" width="975" height="1450">
<path style="fill:#010101; stroke:none;" d="M0 0L0 1450L975 1450L975 0L0 0z"/>
<path style="fill:#ffffff; stroke:none;" d="M525 282L508 283.725L490 281C490.984 286.538 495.216 292.21 494.022 298C491.039 312.47 475.82 308.94 466.004 313.009C461.178 315.009 455.253 320.741 451.465 324.39C447.706 328.01 444.794 332.671 445.634 338C446.317 342.331 449.988 346.929 447.786 351.169C443.73 358.981 431.464 357.56 428.643 364.39C425.209 372.703 436.37 376.563 440.771 380.609C445.579 385.029 444.326 398.051 440.362 402.787C437.022 406.777 424.224 413.86 419.015 411.716C412.629 409.088 410.798 402.736 403 402.093C393.411 401.303 376.728 406.592 373 394L361 406L370.64 421.714L365.742 441L370.688 458.956L381.621 467.394L393 485C381.017 488.602 389.462 496.062 390.321 504C392.151 520.923 402.441 542.148 421 526C421.564 533.133 422.543 539.063 429 543L439.184 529.314L459 528C461.895 537.511 470.098 533.278 475.363 527.482C480.189 522.17 478.195 514.034 483.148 509.343C489.233 503.58 499.392 504.503 505.031 497.61C508.877 492.909 508.807 484.508 513.638 480.693C516.241 478.637 519.919 480.467 522.895 479.678C526.776 478.649 534.788 469.12 534.863 464.996C535.015 456.771 524.869 454.755 521 449L527 446C525.645 439.433 522.801 430.641 524.642 424C526.244 418.222 530.841 416.184 534.186 411.791C538.577 406.025 540.154 399.279 543.299 393C545.708 388.193 552.714 383.778 552.704 378.058C552.696 373.45 544.142 370.579 542.154 365.999C540.257 361.628 542.544 356.612 541.775 352C540.842 346.4 537.428 341.947 537.259 336C536.901 323.401 538.753 308.285 541.529 296C542.622 291.163 547.687 284.958 546.752 280C543.829 264.503 525.051 267.516 525 282z"/>
</svg>
