<?xml version="1.0" standalone="yes"?>
<svg xmlns="http://www.w3.org/2000/svg" width="975" height="1450">
<path style="fill:#010101; stroke:none;" d="M0 0L0 1450L975 1450L975 0L0 0z"/>
<path style="fill:#ffffff; stroke:none;" d="M831 698L832 736C817.706 722.783 809.097 744.398 810.561 757C811.138 761.968 814.814 766.437 816.648 771C820.316 780.126 820.333 787.379 828.428 794.697C832 797.926 837.111 797.751 840.895 800.652C845.623 804.276 848.352 811.623 850.548 817C852.648 822.143 859.8 835.407 853.682 839.86C848.234 843.826 833.526 840.11 832.148 848.105C831.698 850.718 831.51 855.017 833.603 856.991C836.492 859.714 841.501 858.75 845 860.26C855.752 864.899 868.171 877.023 880.656 872.307C886.121 870.243 882.65 863.018 883.407 859.039C884.067 855.576 887.265 853.731 890 852C889.68 849.624 889.123 847.349 888.666 844.998C885.155 826.948 903.277 842.799 909 845C910.359 836.786 899.23 824.247 895 817L908 812C905.724 804.975 887.58 802.744 881 799L884 798L875.829 788.643L866.302 786.667L855.297 765.279L846 756C850.823 755.226 857.871 750.493 857.883 745.028C857.891 741.145 854.29 738.622 853.254 734.985C849.801 722.857 843.349 702.816 831 698z"/>
</svg>
