<?xml version="1.0" standalone="yes"?>
<svg xmlns="http://www.w3.org/2000/svg" width="975" height="1450">
<path style="fill:#010101; stroke:none;" d="M0 0L0 1450L975 1450L975 0L0 0z"/>
<path style="fill:#ffffff; stroke:none;" d="M482 644L473.066 656L470.192 666.867L458.318 675.213L445.804 704L446.505 719L443.787 746L439.322 769.815L456.643 785.428L460 797C470.749 794.061 472.849 797.635 483 799.154C486.414 799.665 489.553 797.861 492.907 799.449C498.669 802.177 500.645 812.894 508.957 810.306C518.098 807.46 512.103 795.416 514.855 789.015C516.856 784.359 521.685 781.831 523.475 776.999C527.525 766.067 525.339 752.683 524.707 742.015C524.56 739.531 527.157 738.132 527.596 735.791C528.295 732.057 526.117 727.495 525 724C530.463 722.455 534.689 725.027 539.999 724.436C551.825 723.12 548.467 708.873 547 701C539.167 703.01 524.849 699.541 519.728 692.787C516.817 688.948 518.015 683.05 514.486 679.657C510.179 675.515 504.935 679.872 500.105 678.067C491.677 674.917 491.576 660.925 493 654L482 644z"/>
</svg>
