<?xml version="1.0" standalone="yes"?>
<svg xmlns="http://www.w3.org/2000/svg" width="975" height="1450">
<path style="fill:#010101; stroke:none;" d="M0 0L0 1450L975 1450L975 0L0 0z"/>
<path style="fill:#ffffff; stroke:none;" d="M502 938C512.342 943.765 519.104 953.248 528 960.787C533.785 965.69 541.539 968.804 548 972.808C558.733 979.458 570.955 988.926 583 992.776C590.107 995.048 605.904 996.134 612.683 992.436C616.488 990.36 622.918 978.959 619 976C615.786 983.277 609.437 976.079 604.083 977.111C599.902 977.917 597.771 980.404 593 979.972C588.801 979.592 586.942 975.621 584 980C580.882 973.322 577.213 968.651 578 961C571.082 956.996 572.778 945.379 572.644 938C572.605 935.824 573.934 931.718 572.154 930.028C569.378 927.393 560.611 929 557 929L556 936C550.944 936.39 549.488 938.852 547 943C544.023 936.71 540.083 934.824 535.302 930.363C531.552 926.863 532.263 920.872 527.811 917.746C517.527 910.526 506.186 931.307 502 938z"/>
</svg>
