<?xml version="1.0" standalone="yes"?>
<svg xmlns="http://www.w3.org/2000/svg" width="975" height="1450">
<path style="fill:#010101; stroke:none;" d="M0 0L0 1450L975 1450L975 0L0 0z"/>
<path style="fill:#ffffff; stroke:none;" d="M457 1259C447.968 1265.75 439.205 1263.57 429 1266L428 1262C418.982 1265.72 417.999 1260.62 409.961 1260.55C399.886 1260.47 395.417 1274.87 395 1283C389.03 1283.61 384.694 1287.7 379 1288.82C373.485 1289.91 366.452 1285.8 362 1283L350.966 1295.21L339 1314C342.64 1322.35 341.871 1327.25 341 1336C349.733 1336.1 354.325 1345.24 349.308 1353C346.473 1357.38 341.419 1359.45 339 1364L362 1358.26L376 1360C376.161 1356.31 380.964 1349.76 385.4 1352.96C387.39 1354.39 387.949 1358.83 389 1361C385.236 1362.01 383.648 1363.08 383 1367L379 1366C376.967 1370.88 371.165 1377.38 373.283 1382.85C374.909 1387.05 381.484 1386.12 385 1388.11C396.546 1394.63 395.67 1400.65 394 1412C405.215 1411.11 415.091 1405.71 426 1403.48C434.877 1401.66 444.913 1402.96 453 1398.38C460.968 1393.86 465.341 1387.24 472.04 1381.46C480.345 1374.31 491.386 1369.46 502 1367L483.545 1343.39L476.133 1337.61L479.855 1323L474 1293C480.968 1293.91 482.286 1285.56 484 1280C470.896 1276.57 465.189 1268.87 457 1259M464 1422C462.646 1426.8 462.852 1430.49 458 1433L459 1443C469.51 1440.45 475.937 1427.87 464 1422z"/>
</svg>
