<?xml version="1.0" standalone="yes"?>
<svg xmlns="http://www.w3.org/2000/svg" width="975" height="1450">
<path style="fill:#010101; stroke:none;" d="M0 0L0 1450L975 1450L975 0L0 0z"/>
<path style="fill:#ffffff; stroke:none;" d="M226 350C222.789 358.876 227.374 364.424 228.657 373C229.357 377.681 227.618 382.251 228.465 387C229.122 390.688 231.678 395.189 230.932 398.961C229.622 405.584 216.802 411.744 212 416.076C204.761 422.607 197.954 433.001 189.91 438.142C186.514 440.313 182.706 439.207 179.17 440.6C175.509 442.041 173.38 446.032 169 445.802C162.082 445.44 153.522 438.553 146 437C139.04 448.924 119.681 462.643 132.857 478.363C137.871 484.344 152.171 481.941 153.577 491.005C154.31 495.729 149.79 499.396 149.781 504C149.764 512.581 153.566 521.698 153.644 530C153.688 534.744 150.11 540.018 153.028 544.656C156.002 549.382 160.766 546.316 164.895 547.693C168.405 548.863 175.234 559.461 176.049 563.039C176.744 566.094 174.562 568.999 174.302 572C172.988 587.129 167.341 605.858 172.97 620.985C176.207 629.685 183.872 627.611 191 629.637C200.523 632.345 208.702 644.217 208 654L211 655L210 659C214.35 658.18 222.78 655.322 226.164 659.564C228.554 662.559 225.583 666.729 225.539 670C225.482 674.134 228.717 680.612 231.637 683.487C234.037 685.849 242.686 690.129 246 689.844C249.131 689.575 251.524 686.427 254.856 687.684C259.7 689.512 257.95 696.045 260.317 699.567C262.114 702.241 266.117 702.438 269 703L274 691C269.574 688.518 266.453 682.408 268.606 677.213C270.768 671.998 277.898 668.483 280.711 663C288.096 648.605 286.513 636.17 289.198 621C290.204 615.319 293.693 610.915 294 605C303.863 606.212 303.542 602.02 298 595L310 580L327 577.149L341 582C342.263 577.794 343.922 575.688 348 574L338.503 554.424L342 544C331.935 538.348 344.094 530.785 346.751 524C348.824 518.704 346.531 510.636 349.194 506.303C351.883 501.926 358.892 503.676 362.787 501.062C366.463 498.594 366.818 493.468 370.39 490.988C375.704 487.299 384.871 487.238 391 485C389.868 479.13 385.48 470.699 380.621 467.005C377.45 464.595 373.351 464.518 371.024 460.891C368.988 457.718 364.942 444.69 365.179 441C365.438 436.978 367.569 434.194 367 430L359 436L358 436C353.659 428.481 347.708 421.325 339 427C335.516 418.924 326.933 401.388 316 402.839C305.862 404.186 302.487 417.57 291.039 409.2C281.99 402.583 283.525 392.574 277.4 385.495C270.156 377.12 260.046 375.869 252.039 369.581C243.458 362.842 237.441 352.04 226 350z"/>
</svg>
