<?xml version="1.0" standalone="yes"?>
<svg xmlns="http://www.w3.org/2000/svg" width="975" height="1450">
<path style="fill:#010101; stroke:none;" d="M0 0L0 1450L975 1450L975 0L0 0z"/>
<path style="fill:#ffffff; stroke:none;" d="M403 38C402.329 44.0878 397.479 42.8944 393 41C391.218 50.0282 382.591 54.7422 380.735 63C379.727 67.4807 382.619 71.7313 383.287 76C383.894 79.8778 382.239 92.0048 381.188 95.7863C380.179 99.4159 374.856 100.04 372.39 102.418C367.481 107.156 366.382 114.817 361.532 119.775C355.489 125.956 344.711 122.677 338.969 129.418C334.507 134.657 335.496 141.843 333.442 147.945C332.058 152.057 328.247 151.552 326.027 154.563C323.844 157.524 324.746 162.506 323.146 165.895C320.3 171.922 313.493 171.68 308 173C309.082 177.734 307.81 185.799 310.032 189.7C314.932 198.304 325.521 201.034 326 213C326.517 225.902 311.582 244.811 322.589 257.239C330.004 265.612 334.824 255.768 342.576 256.364C346.382 256.657 349.971 259.949 354 260.556C364.148 262.085 374.754 261.307 385 262.151C396.332 263.085 404.734 270.762 408 255C404.714 251.741 405.514 249.118 407 245L425 244.144L438 244.502L452.999 239.982L462.814 251.775L477.861 266.224L483.228 277.315L496 279.829L524 281C524.065 275.502 530.05 266.195 537 268.33C541.365 269.671 545.352 276.512 548 280C550.586 278.777 553.809 275.915 556.675 275.684C558.988 275.499 561.063 278.116 563.093 278.988C570.228 282.052 578.475 285.548 584.895 289.994C591.339 294.456 592.436 302.176 602 298.211C611.699 294.191 615.415 286.119 624.004 281.573C628.323 279.286 635.485 281.322 637.799 275.941C639.818 271.244 635.399 264.932 635.459 260C635.54 253.307 638.063 246.734 636.61 240C634.919 232.17 629.977 225.132 628.945 217C628.415 212.819 631.024 209.167 630.898 205C630.794 201.561 628.257 199.556 627.647 196.424C626.967 192.938 630.777 189.304 631.582 186C632.972 180.289 629.549 164.947 625.258 160.858C620.407 156.234 611.382 162.163 606 162.816C600.796 163.447 594.908 161.909 590 164.14C575.319 170.812 564.837 183.588 547.004 181.412C531.396 179.507 538.46 160.918 531.725 153.424C522.898 143.603 513.379 135.865 504.363 126.634C499.613 121.77 491.595 115.677 489.175 109.039C487.716 105.036 493.261 103.487 495.062 100.787C497.895 96.5397 499.04 87.0769 500.348 82C503.582 69.4481 493.756 57.6495 496 45C483.831 44.0406 481.085 49.0603 477 60C471.917 57.3036 469.293 58.4268 465 62C467.845 55.6841 475.092 53.6855 473 46C465.905 48.0057 462.741 45.0231 458 40L457 40L455 42L454 38C448.47 39.5195 446.198 34.2606 441 34.9368C436.753 35.4891 421.271 47.2261 418.555 40.6814C417.32 37.7056 419.53 33.3049 419 30C410.174 36.0076 416.999 43.0059 403 38z"/>
</svg>
