<?xml version="1.0" standalone="yes"?>
<svg xmlns="http://www.w3.org/2000/svg" width="975" height="1450">
<path style="fill:#010101; stroke:none;" d="M0 0L0 1450L975 1450L975 0L0 0z"/>
<path style="fill:#ffffff; stroke:none;" d="M533 740C530.264 746.589 527.419 751.796 525.648 759C522.831 770.463 525.574 775.102 517.498 785.424C512.848 791.369 516.128 796.6 515.047 803C513.928 809.625 507.264 814.038 515.213 819.648C521.943 824.398 528.685 821.023 534.956 824.194C538.009 825.738 538.82 829.173 541.495 830.972C544.613 833.07 555.318 834.942 559 834.297C568.807 832.58 591.393 825.238 598.551 818.301C601.718 815.232 598.532 812.008 599.823 808.576C602.123 802.464 608.304 799.702 613.815 797.726C618.473 796.055 620.389 789.497 619.323 785C617.264 776.314 607.679 756.15 597.982 754.526C587.913 752.84 580.512 761.099 572.961 765.223C570.029 766.824 567.079 765.202 564 765.588C558.918 766.225 554.271 768.583 549 769C554.114 756.697 554.758 744.788 539 741L537 746L536 746L535 740L533 740z"/>
</svg>
