<?xml version="1.0" standalone="yes"?>
<svg xmlns="http://www.w3.org/2000/svg" width="975" height="1450">
<path style="fill:#010101; stroke:none;" d="M0 0L0 1450L975 1450L975 0L0 0z"/>
<path style="fill:#ffffff; stroke:none;" d="M446 788C449.436 805.72 445.264 812 427 812L427 822L422 822C425.318 830.291 436.034 831.067 441.581 836.434C453.734 848.19 444.857 863.602 462 871L462 872C457.587 874.119 452.756 877.739 451.924 883C451.233 887.362 455.312 892.581 456.076 897C458.605 911.647 453.013 922.147 467 932L468 929L474 931L479 921L483 924L484 924C490.22 915.305 506.998 906.086 516 917L523 915C517.621 902.295 509.043 895.1 509 880C517.557 879.899 515.625 873.709 522.108 871.032C531.14 867.303 538.411 871.469 547 873C550.35 863.592 543.725 845.832 541.24 836C540.405 832.696 539.336 827.999 536.581 825.742C530.872 821.066 521.16 825.206 514.213 819.363C507.689 813.876 501.021 804.515 493.671 800.434C490.165 798.488 486.648 800.252 483 799.659C472.723 797.988 470.774 793.821 460 798L456.382 786.457L446 788z"/>
</svg>
