<?xml version="1.0" standalone="yes"?>
<svg xmlns="http://www.w3.org/2000/svg" width="975" height="1450">
<path style="fill:#010101; stroke:none;" d="M0 0L0 1450L975 1450L975 0L0 0z"/>
<path style="fill:#ffffff; stroke:none;" d="M117 807C110.222 806.307 101.384 804.32 97 799C84.2252 801.688 88.8262 809.179 83.9722 817.826C80.4865 824.036 68.9775 822.943 67.4576 830.019C66.2163 835.798 76.6738 840.706 79.3966 845.001C83.2723 851.114 77.7279 858.381 80.6034 864.621C82.4728 868.678 89.1095 869.175 89.7886 874.043C90.4373 878.694 81.9249 889.402 80.4321 895C78.5855 901.925 82.7003 909.106 84 916C94.0576 906.856 100.367 903.399 114 900L109 896L112 887L113 887L122 906L126 905C126.73 914.174 133.995 910.726 136 904L137 904C141.046 928.872 175.565 893.811 163 889L164 885L167 886L167 877L185 874L181 886C193.083 878.079 180.147 873.49 177.328 866.787C175.939 863.486 178.312 858.335 179 855L165 856L160.258 837L153.728 826L152.536 813L149.678 797.876L128 809L120 795C114.487 796.831 116.798 802.305 117 807z"/>
</svg>
