<?xml version="1.0" standalone="yes"?>
<svg xmlns="http://www.w3.org/2000/svg" width="975" height="1450">
<path style="fill:#010101; stroke:none;" d="M0 0L0 1450L975 1450L975 0L0 0z"/>
<path style="fill:#ffffff; stroke:none;" d="M341 584L326 578.109L310 581L299 595C302.802 601.686 305.401 606.984 295 606C294.117 610.955 291.072 615.066 290.198 620C288.934 627.142 290.352 634.024 289.581 641C288.939 646.809 284.575 655.532 282.185 661C279.411 667.347 272.096 671.233 269.603 677.209C267.356 682.599 270.141 688.69 275 691L270.769 703L273.837 716L270.403 725L271.324 738L266 752C275.168 756.633 282.199 755.202 292 755L283 790L295 798L305 795C308.541 802.575 326.154 829.519 305 829.435C299.098 829.412 293.916 821.978 287.278 824.782C284.52 825.946 283.511 829.81 281.722 831.996C276.822 837.984 272.239 838.895 265 838C266.524 843.584 271.653 845.817 273.751 851.015C277.855 861.184 274.967 874.299 274 885C282.647 882.149 282.382 879.196 281 871C286.899 874.937 294.876 871.013 298 865L305 867L304 875C308.708 874.028 321.147 868.433 310 866L310 861C316.138 861 324.385 859.106 328 865C320.614 865.832 321.001 870.691 321 877L329 877L330 856L334 861L339 857L336 870L342 860C346.353 863.662 347.839 866.973 341 868L347 873C349.747 868.179 352.608 863.872 358 862L354 871L357 872L363 868L362 873L371 871L368 867C378.485 866.201 384.688 870.341 394.039 873.987C400.957 876.684 409.662 877.886 417 880L420 863C416.547 861.77 409.116 862.657 407.032 859.562C401.337 851.105 419.693 844.684 423.502 840.61C426.024 837.911 427.227 834.578 430 832L420 821L426 821L426 811C430.629 811 437.394 812.252 441.7 810.397C450.901 806.431 446.385 794.143 445 787L455 785C450.986 779.752 439.722 775.389 438.358 768.96C436.701 761.146 448.636 746.816 441.258 739.639C438.254 736.717 431.829 737.317 428.105 734.363C423.936 731.056 423.121 722.785 417.892 721.318C410.432 719.225 400.935 723.011 394.325 717.486C390.669 714.431 384.953 707.623 383.678 703C382.589 699.05 384.767 695.084 382.991 691.105C381.331 687.386 376.697 686.286 376.188 681.957C375.598 676.951 378.776 672.042 377.413 667.039C375.747 660.927 366.931 656.182 368.133 649.004C368.72 645.494 372.331 643.462 374.352 640.83C379.163 634.564 378.999 629.286 387 626C386.21 622.173 386.353 613.515 383.972 610.618C381.19 607.232 375.909 609.913 372.938 604.98C370.579 601.064 370.906 596.063 368.558 592.133C366.563 588.793 362.726 587.488 360.84 583.956C359.513 581.473 359.501 577.72 357.4 575.746C350.971 569.703 342.434 578.052 341 584M291 875L292 879L298 877L296 873L291 875M342 874L341 879L342 879L342 874M363 882L369 883L370 875C365.382 875.756 363.756 877.382 363 882z"/>
</svg>
