<?xml version="1.0" standalone="yes"?>
<svg xmlns="http://www.w3.org/2000/svg" width="975" height="1450">
<path style="fill:#010101; stroke:none;" d="M0 0L0 1450L975 1450L975 0L0 0z"/>
<path style="fill:#ffffff; stroke:none;" d="M485 926L501 937C503.88 934.676 506.241 931.951 508.497 929C510.66 926.17 515.447 921.013 514.839 917.144C514.134 912.663 507.172 913.101 504 913.619C494.622 915.149 487.421 915.42 485 926M484 929L487 934C482.189 934.383 480.809 936.737 479 941C486.813 944.092 491.054 941.073 493 933L484 929M497 937L500 944L495 942L493 944L493 945L507 952L510 948L510 947L497 937z"/>
</svg>
