<?xml version="1.0" standalone="yes"?>
<svg xmlns="http://www.w3.org/2000/svg" width="975" height="1450">
<path style="fill:#010101; stroke:none;" d="M0 0L0 1450L975 1450L975 0L0 0z"/>
<path style="fill:#ffffff; stroke:none;" d="M458 529L438 529L429 544C423.25 539.205 421.742 535.051 420 528C417.189 529.613 414.257 532.408 411 532.948C393.132 535.905 392.021 512.578 389.312 502C388.001 496.882 385.133 493.538 385 488C380.57 488.441 372.983 489.416 369.637 492.564C366.57 495.45 365.783 499.753 361.957 502.062C358.555 504.115 352.439 503.06 350.032 506.514C347.615 509.981 349.609 517.593 348.096 522C345.693 529.003 330.961 539.997 344 544C338.765 552.554 339.299 565.438 348.482 572.358C351.707 574.788 356.383 572.531 358.976 576.395C360.661 578.906 360.273 582.276 362.009 584.871C364.352 588.373 368.196 589.999 370.03 594.005C371.817 597.908 371.572 603.418 374.564 606.678C378.112 610.545 382.9 606.995 386 612C397.925 610.6 396.574 618.923 405.133 622.218C409.451 623.881 414.622 620.672 419 620.47C427.39 620.083 435.637 626.301 443.996 623.272C450.686 620.848 451.568 613.379 457.043 609.663C461.697 606.504 468.225 610.626 472.358 606.181C474.465 603.916 473.925 598.923 475.266 596C478.245 589.508 486.199 583.639 487.667 577C488.85 571.647 484.171 567.395 485.84 562C487.584 556.363 491.638 554.87 494.93 550.61C499.733 544.394 501.822 536.208 506.638 530.174C509.701 526.337 514.307 524.062 517.829 520.7C526.853 512.087 519.953 507.376 522.58 498C524.032 492.821 531.494 488.064 526.029 482.603C514.995 471.576 509.997 491.341 506.031 496.895C500.627 504.463 490.828 503.793 484.148 508.879C480.446 511.698 481.414 516.055 480.034 520C476.744 529.408 465.115 539.892 458 529z"/>
</svg>
