<?xml version="1.0" standalone="yes"?>
<svg xmlns="http://www.w3.org/2000/svg" width="975" height="1450">
<path style="fill:#010101; stroke:none;" d="M0 0L0 1450L975 1450L975 0L0 0z"/>
<path style="fill:#ffffff; stroke:none;" d="M886 871C892.878 869.334 902.308 879.156 908 883.371C910.674 885.351 915.585 890.146 918.86 886.396C921.02 883.923 921.357 879.114 922 876L927 878C930.396 873.923 933.955 874.004 939 874C936.358 864.597 937.942 852.607 927.83 847.028C923.407 844.587 917.746 847.339 913 846.888C906.074 846.23 900.045 840.199 896 835C886.409 837.883 891.414 842.746 889.933 849.91C889.272 853.109 885.805 854.401 884.607 857.3C883.04 861.093 884.864 867.262 886 871z"/>
</svg>
