<?xml version="1.0" standalone="yes"?>
<svg xmlns="http://www.w3.org/2000/svg" width="975" height="1450">
<path style="fill:#010101; stroke:none;" d="M0 0L0 1450L975 1450L975 0L0 0z"/>
<path style="fill:#ffffff; stroke:none;" d="M779 496L771 510C772.246 516.614 773.062 521.155 769.091 527C766.538 530.758 765.529 537.067 761.852 539.647C755.159 544.345 738.063 546.152 730 545.309C725.603 544.849 721.665 542.442 717.093 543.152C713.86 543.654 712.66 546.582 709.816 547.677C705.8 549.222 700.473 546.624 696.04 547.634C686.577 549.791 683.217 562.854 685.351 571C686.56 575.615 689.948 578.053 691.988 582.089C694.721 587.5 694.172 592.587 698 598L694 599L701 614C689.137 614.467 686.971 605.025 675 610C675.844 616.168 674.344 618.505 670.013 623C662.289 631.017 650.554 638.694 648.098 650C646.157 658.933 661.61 672.961 670 670L672 697C681.982 698.825 687.717 692.147 694 703L695 703C701.859 690.68 703.461 682.676 706 669C719.354 674.141 719.402 666.224 728.184 658.39C732.097 654.9 737.601 653.86 741.485 650.363C753.434 639.603 760.534 628.836 778 636L780 628C786.565 634.703 794.024 641.04 793 651L809 648.383L835.999 650.995L846.43 640.728L856 637C855.127 633.939 852.891 630.254 853.847 627.018C856.636 617.581 869.523 612.116 876 620C881.492 617.792 879.068 612.556 881.498 608C886.68 598.289 904.478 593.677 904.951 583.004C905.303 575.079 896.448 572.704 895.676 565C895.151 559.765 898.811 545.34 894.343 542.028C889.474 538.418 879.701 541.223 874 539.161C870.577 537.923 863.021 536.445 860.742 533.682C858.38 530.819 860.022 525.101 855.852 523.774C851.686 522.448 845.143 525.357 841 526.199C830.906 528.25 823.167 529.369 813 528C812.628 519.986 820.288 517.365 820.457 510C820.827 493.82 788.485 498.168 779 496z"/>
</svg>
