<?xml version="1.0" standalone="yes"?>
<svg xmlns="http://www.w3.org/2000/svg" width="975" height="1450">
<path style="fill:#010101; stroke:none;" d="M0 0L0 1450L975 1450L975 0L0 0z"/>
<path style="fill:#ffffff; stroke:none;" d="M407 246C406.095 249.845 405.599 252.545 409 255C404.331 271.407 397.14 263.371 385 262.715C375.195 262.186 365.832 262.197 356 261.62C351.064 261.331 347.582 257.733 343 257.117C338.781 256.55 333.779 260.427 330 262C334.771 281.612 312.919 277.5 302.419 288.518C298.46 292.671 299.001 298.7 299 304C293.712 300.216 282.427 292.202 275.961 291.823C269.419 291.439 262.516 296.298 256 296.617C251.369 296.843 247.417 293.03 243 293.457C233.34 294.391 221.351 307.701 220.269 317C219.569 323.009 227.24 326.196 227.821 332C228.315 336.936 225.334 342.785 227.603 347.61C229.17 350.94 234.024 351.963 236.625 354.375C241.875 359.244 246.902 366.231 253.039 369.911C261.414 374.933 271.645 377.366 278.258 385.418C284.966 393.585 281.679 405.125 294.004 410.466C303.936 414.771 307.591 403.969 316 402.376C326.425 400.4 335.455 418.505 339 426C348.325 421.506 352.582 427.81 358 435C372.81 426.562 371.122 417.39 360 406C366.651 402.279 365.315 393.661 374 393C375.063 406.37 393.395 400.384 402 401.093C409.796 401.736 411.879 407.672 418.09 410.806C423.251 413.41 435.606 407.145 439.362 403.363C443.433 399.263 444.904 385.101 440.566 380.901C436.376 376.845 423.967 372.463 428.118 364.213C431.71 357.075 442.859 359.542 446.848 351.981C449.934 346.132 443.998 341.066 444.708 335C445.712 326.431 456.211 320.326 462.09 315.198C471.258 307.201 486.305 313.814 492.424 300.985C497.073 291.238 488.102 282.864 482.227 276.7C479.281 273.61 479.377 269.587 477.063 266.274C473.253 260.817 466.932 257.487 462.699 252.606C459.231 248.608 458.268 241.045 451.999 239.982C446.863 239.111 441.73 244.275 437 245.498C429.263 247.498 414.759 247.595 407 246z"/>
</svg>
