<?xml version="1.0" standalone="yes"?>
<svg xmlns="http://www.w3.org/2000/svg" width="975" height="1450">
<path style="fill:#010101; stroke:none;" d="M0 0L0 1450L975 1450L975 0L0 0z"/>
<path style="fill:#ffffff; stroke:none;" d="M207 654C204.485 658.78 201.277 663.594 200.329 669C199.717 672.486 201.046 677.479 198.397 680.277C189.662 689.503 167.909 688.886 165.851 704C164.716 712.334 174.498 713.949 177.106 720.104C180.703 728.592 178.445 738.463 177 747C181.343 746.361 191.058 746.003 194.563 743.883C201.234 739.85 198.13 733.121 209 733C201.89 745.255 215.494 748.586 213.508 759.424C212.348 765.754 206.839 777.127 202.532 781.892C199.85 784.859 194.457 786.048 193.318 790.108C190.901 798.722 197.013 800.159 201.031 806.043C204.028 810.432 205.964 816.102 208 821L221 814L218.319 848L219.458 858.895L204.318 870.468L201 885C205.556 881.321 204.19 875.099 212 877L219 870C219.385 872.981 219.503 880.018 222.559 881.607C228.082 884.478 238.16 865.89 240 862L250 873L264 873C264.127 876.902 264.599 878.915 268 881C270.534 874.172 276.211 867.733 275.442 860C274.335 848.869 265.228 844.104 262.355 834C260.881 828.817 262.975 821.194 264.123 816C266.11 807.014 272.264 806.259 277.034 799.867C281.242 794.229 282.184 787.409 284.482 781C288.092 770.932 292.444 767.426 291 756C280.602 756.215 274.692 756.498 265 752C266.743 747.813 269.852 743.524 270.52 739C271.157 734.691 269.109 730.311 269.599 726C271.025 713.439 276.523 704.263 259 702C258.698 698.175 258.745 690.267 254.721 688.288C251.204 686.558 248.735 690.548 245.424 690.546C242.273 690.545 233.015 686.127 230.966 683.697C228.302 680.536 224.927 674.192 224.908 670C224.894 666.921 227.961 662.512 225.356 659.858C221.747 656.181 213.304 659.189 209 660L210 655L207 654z"/>
</svg>
