<?xml version="1.0" standalone="yes"?>
<svg xmlns="http://www.w3.org/2000/svg" width="975" height="1450">
<path style="fill:#010101; stroke:none;" d="M0 0L0 1450L975 1450L975 0L0 0z"/>
<path style="fill:#ffffff; stroke:none;" d="M780 630L779 637C769.137 632.955 758.394 632.549 749.749 640.514C746.288 643.703 744.501 648.363 740.816 651.363C737.056 654.422 732.008 655.473 728.326 658.637C720.083 665.721 719.733 674.867 707 670L704.299 688L695 704L694 704C688.361 692.159 682.222 699.2 672 698C672.021 704.08 680.239 728.368 688.004 727.082C694.971 725.928 700.757 713.853 708.61 720.565C719.794 730.124 713.168 750.687 723.513 761.682C727.573 765.997 734.087 762.413 738.816 765.024C749.657 771.01 760.912 780.487 774.911 778.593C788.785 776.716 799.248 767.002 814 767C809.776 756.856 806.739 742.314 816.63 734.934C818.977 733.183 820.697 730.194 824.015 730.461C826.771 730.683 829.505 732.917 832 734L833.61 715L827.523 687L835 675C832.34 672.902 831.029 669.852 828.505 667.742C820.412 660.974 815.964 665.159 819 652C809.35 647.831 801.891 650.743 792 652C793.148 642.708 788.741 634.259 780 630z"/>
</svg>
