<?xml version="1.0" standalone="yes"?>
<svg xmlns="http://www.w3.org/2000/svg" width="975" height="1450">
<path style="fill:#010101; stroke:none;" d="M0 0L0 1450L975 1450L975 0L0 0z"/>
<path style="fill:#ffffff; stroke:none;" d="M197 737C197.937 748.337 179.533 746.586 171.04 750.468C166.081 752.736 162.829 758.355 160.292 763C157.694 767.756 160.744 772.873 159.367 778C154.983 794.316 149.966 808.937 154.43 826C155.626 830.574 159.889 833.517 161.183 838C162.929 844.05 162.128 848.812 165 855L180 854L177 868L188 875L186.772 861.104L192 849L193 849L201 857C195.541 866.698 195.852 874.754 199 885L203.318 871.174L218.998 858.787L217.519 848L220 815L208 823C206.37 817.343 203.607 809.93 200.031 805.213C196 799.896 190.843 799.056 192.148 791.043C193.018 785.701 199.083 785.304 202.316 781.775C206.192 777.546 212.415 764.696 212.883 759C213.689 749.186 203.963 744.993 207 734L197 737M187 877L183 888L191 881L187 877z"/>
</svg>
