<?xml version="1.0" standalone="yes"?>
<svg xmlns="http://www.w3.org/2000/svg" width="975" height="1450">
<path style="fill:#010101; stroke:none;" d="M0 0L0 1450L975 1450L975 0L0 0z"/>
<path style="fill:#ffffff; stroke:none;" d="M646 654C642.488 656.787 635.261 660.286 634.488 665.09C633.547 670.942 641.654 677.512 637.588 682.535C628.355 693.944 616.336 692.268 604.089 694.964C601.14 695.613 599.556 698.635 596.961 699.973C593.533 701.741 585.882 703.073 582 703.505C577.451 704.013 574.316 700.156 570 699.718C563.214 699.031 555.035 701 548 701C549.079 709.528 552.424 723.243 540 725.062C535.284 725.752 530.85 723.241 526 724L529 739L524 743C528.516 744.944 530.958 743.878 532 739L536 739L537 743L539 740C553.882 745.201 555.382 755.053 550 768C555.875 767.536 567.995 767.133 572.911 764.882C581.185 761.093 586.402 753.402 596.996 753.657C602.566 753.791 603.365 758.109 606.414 761.714C616.159 773.236 622.211 783.349 617 798C624.396 796.92 640.372 790.244 644.633 783.791C647.44 779.539 645.562 773.086 649.318 769.653C654.257 765.138 661.389 769.057 666.942 764.826C675.976 757.941 682.321 738.229 687 728C679.113 725.26 680.312 719.488 677.486 713C675.894 709.346 672.307 706.953 671.318 703C668.757 692.766 671.598 681.545 669 671C658.821 674.162 652.794 659.71 646 654z"/>
</svg>
