<?xml version="1.0" standalone="yes"?>
<svg xmlns="http://www.w3.org/2000/svg" width="975" height="1450">
<path style="fill:#010101; stroke:none;" d="M0 0L0 1450L975 1450L975 0L0 0z"/>
<path style="fill:#ffffff; stroke:none;" d="M887 776C873.555 777.863 877.145 790.135 885 797L885 798L883 800C891.622 802.917 904.17 804.861 910 812L897 817L910 846L926 845C907.812 817.033 930.914 787.622 936 759C929.47 759.275 917.564 754.767 921.994 745.171C924.799 739.093 934.675 734.895 941 735.209C944.212 735.369 951.578 737.759 953.338 733.61C955.186 729.254 947.369 728.499 945 727.313C936.32 722.968 932.362 718.26 922.039 722.264C911.359 726.407 910.707 739.583 905.973 747.816C902.836 753.27 895.689 753.75 891.434 757.699C887.473 761.374 887.403 770.897 887 776z"/>
</svg>
