<?xml version="1.0" standalone="yes"?>
<svg xmlns="http://www.w3.org/2000/svg" width="975" height="1450">
<path style="fill:#010101; stroke:none;" d="M0 0L0 1450L975 1450L975 0L0 0z"/>
<path style="fill:#ffffff; stroke:none;" d="M422 884L416 892L421 893C424.5 886.722 428.336 882.794 435 880L425 893C429.04 896.044 437.238 904.517 438 895L442 897C438.007 904.557 446.013 912.916 451.772 904.775C460.577 892.33 444.332 881.722 461 872C457.146 868.636 451.251 866.068 449.313 860.999C446.433 853.463 449.815 839.416 438.892 835.39C436.59 834.542 432.539 833.188 430.108 833.812C426.622 834.708 425.95 839.126 423.582 841.363C418.76 845.917 405.048 848.549 407.337 857.852C408.754 863.611 418.272 858.344 419.968 865.105C421.748 872.195 414.902 878.648 422 884z"/>
</svg>
