<?xml version="1.0" standalone="yes"?>
<svg xmlns="http://www.w3.org/2000/svg" width="975" height="1450">
<path style="fill:#010101; stroke:none;" d="M0 0L0 1450L975 1450L975 0L0 0z"/>
<path style="fill:#ffffff; stroke:none;" d="M80 620C64.9249 620.363 57.2492 626.78 47.7755 636.711C44.1798 640.48 37.7446 643.733 38.865 649.995C40.3476 658.283 53.6084 655.587 54.311 663.719C54.657 667.725 48.7901 671.229 47.6042 675C46.2973 679.155 49.2999 682.868 49.1713 687C48.8494 697.342 31.0037 705.207 34.1142 714.981C35.8474 720.427 43.013 721.008 46.9606 724.34C53.1822 729.592 58.7875 737.556 62 745C66.1781 741.31 63.8929 737.278 66.6929 733.39C70.4679 728.149 85.7389 718.837 92 718L89 726C100.529 729.925 102.627 717.787 112.001 715.314C116.216 714.202 122.849 713.238 126.942 715.008C129.643 716.177 131.145 719.978 134.144 720.177C143.464 720.796 158.497 714.769 167 711C160.751 694.721 178.778 692.24 188.791 686.687C200.075 680.429 196.957 673.154 201.785 663C203.882 658.588 208.585 653.206 207.18 648C205.361 641.263 199.649 633.3 192.999 630.966C184.908 628.126 176.626 630.731 172.367 620.996C166.154 606.794 171.866 586.432 173.559 572C173.913 568.985 176.033 566.21 175.462 563.089C174.871 559.859 168.644 549.952 165.61 548.618C160.632 546.429 155.502 550.267 152.028 543.906C148.457 537.369 156.877 529.076 149.852 523.728C141.864 517.646 124.263 519.233 118.075 527.39C113.381 533.579 114.285 541.025 112.582 548C111.634 551.883 108.709 554.949 108.253 559C107.811 562.925 109.253 566.193 107.463 569.999C102.841 579.825 90.5667 576.494 83.6181 583.966C80.7624 587.037 83.7352 592.316 83.2955 596C82.3067 604.286 80 611.206 80 620z"/>
</svg>
