<?xml version="1.0" standalone="yes"?>
<svg xmlns="http://www.w3.org/2000/svg" width="975" height="1450">
<path style="fill:#010101; stroke:none;" d="M0 0L0 1450L975 1450L975 0L0 0z"/>
<path style="fill:#ffffff; stroke:none;" d="M554 375C553.478 381.932 548.146 385.329 544.839 391C541.001 397.585 539.44 405.379 534.926 411.787C532.129 415.758 527.773 417.072 525.97 422.004C523.261 429.412 526.466 439.566 528 447L522 449L536 464C540.924 462.984 546.964 460.195 552 461.269C562.45 463.499 559.583 469.458 561.333 476.961C561.99 479.778 565.382 481.601 565.431 484.464C565.507 488.791 561.043 492.609 560.564 497C559.89 503.173 562 510.582 562 517L570 518C570.414 526.046 562.703 529.341 559.317 536C557.56 539.456 558.654 543.601 556.397 546.83C553.459 551.033 545.811 553.882 546.507 560.004C547.173 565.868 554.469 568.997 556.972 574C560.061 580.173 556.031 591.276 560.858 596.397C564.686 600.457 572.569 596.907 577 596.326C582.946 595.545 588.991 598.628 595 597.783C600.872 596.958 606.77 591.061 612.985 592.774C622.151 595.3 617.222 607.023 625.019 610.637C630.883 613.354 637.067 611.846 643 613.546C646.66 614.594 649.975 617.351 654 616.325C662.682 614.111 673.851 606.37 682.996 606.569C689.798 606.718 691.546 614.039 700 613L693 599L696 598C692.014 582.461 678.444 569.505 688.193 554.001C690.963 549.596 693.582 546.825 699 546.329C703.037 545.96 707.03 547.465 711 548C716.924 538.085 723.218 545.149 732 544.606C749.717 543.513 766.082 541.736 771.309 522C775.987 504.337 747.438 512.717 743.318 497.895C742.198 493.865 742.934 487.623 745.563 484.325C747.624 481.74 752.036 479.976 751.11 475.985C747.427 460.12 729.716 463.857 721.558 453.621C718.414 449.677 722.444 445.862 723.61 442C725.304 436.385 725.452 430.242 722.583 425.001C717.018 414.838 706.367 417.583 697 418.685C691.525 419.329 686.311 415.651 681 416.731C668.567 419.259 662.48 432.789 652 439C650.047 434.889 644.383 420.162 640.697 418.308C638.231 417.068 634.69 418.6 632 418.356C625.349 417.752 614.661 415.064 609.318 410.914C604.715 407.339 608.33 399.845 603.852 395.443C595.852 387.578 582.995 388.185 573 384.441C566.216 381.9 561.191 376.724 554 375z"/>
</svg>
