<?xml version="1.0" standalone="yes"?>
<svg xmlns="http://www.w3.org/2000/svg" width="975" height="1450">
<path style="fill:#010101; stroke:none;" d="M0 0L0 1450L975 1450L975 0L0 0z"/>
<path style="fill:#ffffff; stroke:none;" d="M386 613L388 627C386.018 627.434 383.923 627.758 382.209 628.938C367.746 638.898 386.148 648.392 390.911 656.09C393.841 660.825 393.061 668.495 397.43 672.262C402.352 676.507 409.613 678.674 414.697 682.966C418.09 685.831 417.853 690.073 417 694C424.022 695.357 430.302 689.706 437 688.124C441.44 687.076 447.679 690.042 451.656 687.883C455.745 685.663 454.621 679.434 457.318 676.043C460.543 671.988 465.808 671.111 469.196 667.502C472.251 664.247 470.697 660.671 472.197 657C474.475 651.423 480.538 648.42 481.566 642C482.424 636.646 477.752 633.048 477.279 628C476.6 620.738 484.453 616.389 477.363 609.448C474.641 606.783 460.295 607.907 457.105 609.933C451.857 613.266 450.772 620.13 444.996 623.347C437.141 627.723 428.197 621.452 420 621.26C415.349 621.151 410.652 624.136 406.044 623.254C401.78 622.438 401.245 618.094 398.582 615.394C394.99 611.753 390.589 612.161 386 613z"/>
</svg>
