<?xml version="1.0" standalone="yes"?>
<svg xmlns="http://www.w3.org/2000/svg" width="975" height="1450">
<path style="fill:#010101; stroke:none;" d="M0 0L0 1450L975 1450L975 0L0 0z"/>
<path style="fill:#ffffff; stroke:none;" d="M719 770L719 810C714.121 810.264 710.421 811.59 708 816L693.213 811.698L684.089 805.623L676.533 812.897L659 832C658.932 835.28 657.573 839.681 659.052 842.714C661.68 848.104 674.997 856.599 670 862L672 868L646.911 880.393L635.961 875.345L628 879.311L612 882C610.129 876.605 604.085 876.056 599 876L601 871L573 882C574.962 892.42 570.227 907.194 558.999 911.15C551.722 913.714 534.603 914.154 533.474 924.166C532.814 930.015 543.865 937.589 548 941C549.645 937.38 551.002 935.65 555 935L556 928C560.318 928 570.14 926.179 573.049 930.148C578.605 937.729 567.198 956.495 579 960C578.153 966.858 579.519 971.034 583 977L591 977L590 979C595.619 979 599.914 976.722 605.018 976.296C609.654 975.91 615.879 982.252 618 975L623 976L614 994C620.722 996.965 623.942 1004.8 631.004 1006.62C651.049 1011.78 667.679 1000.21 686 994.939C694.787 992.41 703.99 993.367 713 990.782C720.238 988.704 737.705 989.956 742 984L734 975L742 974L734 971C736.085 967.599 738.098 967.127 742 967L740 956C746.093 957.932 751.793 959.74 755 953L764 951L761 947L761 946C773.092 938.546 779.382 942.23 792 940L792 932L808 932.518L831 922C819.953 897.048 800.318 875.004 806 846L785 843C778.572 832.527 773.082 826.142 776.375 813C777.245 809.529 778.162 805.069 782.055 803.8C786.305 802.415 790.791 806.706 794.985 807.272C797.326 807.587 812.233 803.488 814.302 801.972C824.244 794.687 819.651 787.839 817.418 779C816.482 775.292 817.478 769.714 812.786 768.318C800.396 764.631 787.097 776.402 775.83 779.312C770.763 780.62 759.557 776.672 754.039 776.104C748.133 775.497 744.155 768.86 739.486 766.024C732.493 761.776 724.893 766.95 719 770M824 935L831 935L830 926C824.093 926.46 824.019 929.738 824 935M808 939L819 937C817.308 929.249 809.035 932.644 808 939M795 936L796 940L802 939C800.052 935.85 798.631 935.391 795 936M769 945L770 948L780 946L779 943L769 945M794 961L821 957L812 948L819 948C816.406 940.617 799.039 942.616 794.604 947.638C791.742 950.879 793.919 957.068 794 961M787 987L783 978L774 980L772 976L780 973L778 969C773.725 969.826 770.522 970.957 767 968L774 964L764 964L770 962C766.331 955.367 756.142 959.823 754.317 966.209C748.685 985.922 774.505 987 787 987M760 1005L783 1003C778.697 992.856 761.27 992.723 760 1005z"/>
</svg>
