<?xml version="1.0" standalone="yes"?>
<svg xmlns="http://www.w3.org/2000/svg" width="975" height="1450">
<path style="fill:#010101; stroke:none;" d="M0 0L0 1450L975 1450L975 0L0 0z"/>
<path style="fill:#ffffff; stroke:none;" d="M173 71L172 66L167 79L155 76L155 80L132 82L133 85L121 87L120 92C130.121 95.8744 143.263 100.425 147.393 112C149.339 117.454 145.183 123.49 148.179 128.895C151.226 134.392 159.303 133.901 159.941 141.015C160.553 147.834 161.237 157.396 159.363 164C158.185 168.148 154.087 172.503 154.647 176.985C155.379 182.853 162.437 182.151 164.933 186.394C166.665 189.339 164.761 193.728 165.217 197C165.897 201.885 168.877 206.224 170.072 211C171.455 216.527 168.635 221.581 169.388 227C170.036 231.662 172.295 243.739 175.013 247.501C178.85 252.811 195.672 258.177 202 260C206.553 252.582 210.58 244.019 209.826 235C209.393 229.821 204.972 221.882 206.617 217.104C210.057 207.115 224.173 191.253 234.039 187.312C241.035 184.517 249.327 186 256 182L255.273 168L250.548 146L256 131L268.7 129.972L283 118C281.845 108.223 277.714 89.1621 268.867 83.0741C261.297 77.8657 253.217 79.762 246.105 76.4498C242.62 74.8269 240.432 70.0653 238.105 67.1389C233.53 61.3844 241.585 41.323 230.957 41.8225C222.742 42.2086 211.512 46.0367 205.39 51.6373C202.74 54.062 201.916 58.0507 198.787 59.9869C195.667 61.918 191.633 61.4125 188.44 63.3796C181.649 67.563 181.807 71.6643 173 71z"/>
</svg>
