<?xml version="1.0" standalone="yes"?>
<svg xmlns="http://www.w3.org/2000/svg" width="975" height="1450">
<path style="fill:#010101; stroke:none;" d="M0 0L0 1450L975 1450L975 0L0 0z"/>
<path style="fill:#ffffff; stroke:none;" d="M88 726L91 719C85.1375 719.784 70.3417 728.554 67.0664 733.637C63.7785 738.74 63.6424 747.069 59.8642 752.786C55.9583 758.696 46.8303 758.991 42.3326 765.015C39.3429 769.02 42.1609 772.758 40.6867 777C39.1615 781.389 35.3155 784.386 34.0579 789C31.7621 797.423 35.78 799.766 38.3974 807C40.0454 811.555 39.0228 816.334 41 821L53.8951 819.353L66 831C70.3986 824.05 77.6799 824.983 82.3966 819.316C87.164 813.587 82.499 801.764 93.0108 799.412C98.7877 798.12 109.442 805.329 116 806C115.286 789.33 122.169 798.542 128 808C134.491 805.298 139.823 801.078 146 797.942C148.263 796.793 151.521 797.129 153.4 795.362C160.572 788.62 156.116 773.45 158.514 765.576C161.456 755.915 171.108 753.211 175.772 745.867C181.323 737.125 179.108 716.439 168 713.119C159.109 710.462 144.522 720.147 135.019 720.616C131.256 720.801 129.977 717.057 126.871 715.742C122.718 713.983 115.26 715.171 111.015 716.314C101.277 718.935 100.002 730.601 88 726z"/>
</svg>
