<?xml version="1.0" standalone="yes"?>
<svg xmlns="http://www.w3.org/2000/svg" width="944" height="1450">
<path style="fill:#010101; stroke:none;" d="M0 0L0 1450L944 1450L944 0L0 0z"/>
<path style="fill:#ffffff; stroke:none;" d="M288 967C285.523 972.958 280.727 981.298 282.947 988C286.045 997.353 294.895 997.585 301.896 1002.09C306.535 1005.07 307.606 1010.88 311.39 1014.61C315.464 1018.62 334.324 1028.1 339.891 1027.75C344.172 1027.48 344.936 1021.29 348.109 1018.97C355.67 1013.42 362.241 1013.35 371 1015C368.212 1008.4 362.602 1000.34 357.334 995.43C354.39 992.688 349.854 992.512 348.921 987.971C347.721 982.129 356.767 978.034 356.985 971C357.295 960.972 352.027 957.751 349.518 949C348.204 944.419 350.597 939.676 349.609 935C348.33 928.953 343.964 925.798 340.85 920.911C334.172 910.429 334.989 903.028 320 901L324 909C318.036 906.517 310.644 905.027 305.09 902.031C300.236 899.413 293.346 893.916 287.286 897.067C278.507 901.633 280.748 909.365 279.316 917C278.067 923.663 274.234 930.209 273.816 937C273.42 943.443 282.506 963.662 288 967z"/>
</svg>
