<?xml version="1.0" standalone="yes"?>
<svg xmlns="http://www.w3.org/2000/svg" width="944" height="1450">
<path style="fill:#010101; stroke:none;" d="M0 0L0 1450L944 1450L944 0L0 0z"/>
<path style="fill:#ffffff; stroke:none;" d="M381 296C381 303.438 380.886 309.681 376.363 316C372.568 321.301 366.427 324.993 363.649 331C360.335 338.166 360.795 349.706 352.826 353.958C343.553 358.905 333.638 351.581 325 362L324 362C320.675 357.224 316.506 351.212 310.999 348.854C304.822 346.208 295.756 347.451 290.419 343.146C285.409 339.105 284.626 328.714 282.124 323C280.344 318.934 276.892 312.91 271.429 315.604C265.409 318.573 265.051 337.05 262.475 343C251.867 367.495 239.087 392.609 236.674 420C236.065 426.913 245.198 429.981 243.663 436.957C241.898 444.975 223.893 449.846 218.514 456.428C212.355 463.965 216.155 476.805 210.272 484.815C202.706 495.118 179.391 503.667 169.514 492.61C166.012 488.689 168.257 480.209 163.567 477.564C159.759 475.416 154.181 476.145 150 475.961C141.709 475.594 131.062 472.354 123 474.637C108.144 478.844 118.494 497.852 111.968 507.995C106.098 517.119 98.165 509.871 91.7415 515.028C89.0594 517.181 90.04 521.88 88.0617 524.61C86.1847 527.199 82.7923 528.089 80.6096 530.39C75.4181 535.865 69.9879 544.588 65.9938 551C62.641 556.383 56.7374 569.217 61.0278 575.363C63.8562 579.414 69.5666 580.621 72.6412 585.015C76.8655 591.052 81.9121 595.512 86.3511 601.174C88.6181 604.065 89.2835 607.912 92.2245 610.301C97.5445 614.622 109.271 614.74 112.436 621.214C113.886 624.181 113.411 627.75 114.969 630.714C117.834 636.165 123.236 641.571 125.4 647.104C126.748 650.548 125.412 654.458 126.318 657.985C127.234 661.552 130.403 663.256 132.437 666.089C137.525 673.178 135.934 677.888 146 680L159.487 671.683L171 658L173 671C177.602 671.095 182.445 672.571 187 671.609C191.531 670.651 195.189 667.242 200 667.545C208.245 668.063 217.095 674.212 224 678.352C234.503 684.648 242.433 702.07 255 704.177C270.347 706.751 275.626 680.457 289 676.863C306.353 672.2 325.853 690.148 343 686.261C349.451 684.798 367.199 675.489 369.022 668.896C371.882 658.549 363.195 654.356 371.465 645.093C374.805 641.352 380.851 636.347 386 635.705C391.181 635.06 396.968 638.736 401.698 635.142C409.912 628.9 418.652 611.997 432 616L432 610L437 616C446.59 604.95 437.853 598.884 434.509 588C430.662 575.478 433.222 563.704 425.452 552.015C421.538 546.126 415.009 543.757 410.418 538.675C407.467 535.409 407.066 530.608 403.725 527.637C400.558 524.82 395.255 524.164 392.769 520.61C386.255 511.294 388.9 493.989 395.075 485.214C397.166 482.242 401.629 481.539 402.682 477.867C406.484 464.606 396.904 454.112 397.394 442C397.828 431.299 408.591 424.099 415.892 417.87C420.957 413.548 423.023 406.747 428.09 402.225C432.618 398.182 439.348 396.839 445 395C445.575 402.282 446.215 411.984 453.171 416.306C463.261 422.576 473.369 407.876 475 400L459 396C462.869 382.367 467.505 369.168 468.83 355C469.391 349.004 466.607 342.84 467.699 337C469.785 325.843 479.594 308.041 474.393 296.379C471.97 290.947 458.514 285.837 453 284.724C440.801 282.263 443.235 298.321 433.957 299.852C424.171 301.466 421.342 293.443 413 292.148C402.889 290.579 391.502 295.971 381 296z"/>
</svg>
