<?xml version="1.0" standalone="yes"?>
<svg xmlns="http://www.w3.org/2000/svg" width="944" height="1450">
<path style="fill:#010101; stroke:none;" d="M0 0L0 1450L944 1450L944 0L0 0z"/>
<path style="fill:#ffffff; stroke:none;" d="M634 982L634 987C613.97 987.166 607.326 1001.16 609.059 1019.96C609.416 1023.83 615.967 1026.91 613.914 1030.62C612.302 1033.53 607.692 1034.39 605 1035.95C598.185 1039.91 592.627 1047.84 585 1050.23C580.441 1051.66 574.477 1048.02 570.858 1052.43C567.613 1056.39 569.55 1062.47 569.914 1067C571.752 1089.87 595.056 1094.51 608.61 1109.21C613.549 1114.57 613.739 1122.23 615 1129C629.986 1129.01 632.263 1146.99 647 1147.97C652.215 1148.32 657.365 1143.24 662 1141.35C667.326 1139.19 674.121 1140.48 679 1137.4C691.719 1129.35 702.132 1113.65 717 1108.78C724.535 1106.31 729.125 1112.48 736 1113.82C741.359 1114.87 754.736 1107.95 757.911 1103.61C768.017 1089.79 760.017 1074.51 763 1060L746.981 1035.59L714.093 1013.36L703.826 1003.03L687 1000.29L678 996.324L669.576 997.296L659 990.377L634 982z"/>
</svg>
