<?xml version="1.0" standalone="yes"?>
<svg xmlns="http://www.w3.org/2000/svg" width="944" height="1450">
<path style="fill:#010101; stroke:none;" d="M0 0L0 1450L944 1450L944 0L0 0z"/>
<path style="fill:#ffffff; stroke:none;" d="M701 815C701 801.032 695.847 795.12 688.221 784C681.066 773.568 678.442 753.69 666.535 747.067C657.406 741.989 652.061 753.948 646.961 758.335C644.188 760.719 639.184 763.76 639.306 768.001C639.411 771.63 643.445 773.821 644.716 777C646.992 782.693 640.908 788.095 647.61 793.012C651.126 795.592 656.342 794.385 659.593 797.653C661.694 799.765 660.693 802.923 662.617 805.096C671.697 815.348 688.716 817.289 701 815z"/>
</svg>
