<?xml version="1.0" standalone="yes"?>
<svg xmlns="http://www.w3.org/2000/svg" width="944" height="1450">
<path style="fill:#010101; stroke:none;" d="M0 0L0 1450L944 1450L944 0L0 0z"/>
<path style="fill:#ffffff; stroke:none;" d="M715 637C704.967 640.785 684.516 649.913 674.015 648.424C667.311 647.473 664.909 640.63 657 640C657.886 646.761 653.74 650.845 649.873 656C641.386 667.316 633.608 676.718 621 683.688C604.175 692.988 590.414 707.8 574 718.971C562.351 726.899 548.427 731.44 537 739.637C531.232 743.776 527.85 750.467 521.999 754.436C517.587 757.429 511.988 756.814 507 758.043C498.413 760.159 493.146 764.15 484 763C488.772 771.409 499.043 769.11 506.957 771.314C511.194 772.494 511.966 777.525 516.105 778.682C526.269 781.524 536.929 778.878 546.996 783.133C552.836 785.602 555.102 791.458 559.464 795.61C563.805 799.742 570.541 801.76 576 804L583 790L598 803C602.911 792.615 607.609 770.94 619 766.473C624.787 764.204 632.206 769.932 637.486 766.933C645.106 762.605 648.488 752.593 655.213 747.858C661.53 743.411 670.131 746.113 677 747C677.978 741.987 675.174 735.609 678.049 731.144C681.799 725.32 692.439 726.925 697.985 722.746C704.277 718.004 705.235 711.029 709.966 705.279C713.245 701.293 718.815 702.442 723 700.062C728.134 697.141 731.301 690.316 737 688.492C742.041 686.879 747.873 691.392 753 691.515C761.886 691.729 768.455 684.933 775 680C771.301 664.018 761.744 651.056 746 645L741 663C729.056 658.922 730.548 647.721 717 646L715 637z"/>
</svg>
