<?xml version="1.0" standalone="yes"?>
<svg xmlns="http://www.w3.org/2000/svg" width="944" height="1450">
<path style="fill:#010101; stroke:none;" d="M0 0L0 1450L944 1450L944 0L0 0z"/>
<path style="fill:#ffffff; stroke:none;" d="M332 868C329.096 874.139 319.381 883.125 326 889L326 890L319 899C325.203 901.673 333.028 903.225 337.146 909.184C339.733 912.929 339.307 917.935 341.85 921.714C344.894 926.238 348.853 929.472 350.359 935C351.712 939.971 349.035 945.02 350.514 950C352.724 957.443 358.097 960.505 357.996 969C357.91 976.278 348.496 982.234 349.782 987.958C350.659 991.855 354.991 992.672 357.536 995.228C362.88 1000.59 367.236 1007.8 371.561 1014C377.009 1021.81 380.182 1035.82 390.004 1039.3C404.037 1044.28 412.03 1033.5 412.726 1020C412.938 1015.9 409.905 1009.18 412.693 1005.64C418.922 997.719 429.406 1006.33 436.501 1001.01C439.509 998.758 440.624 993.52 440.907 990C441.418 983.641 439.652 977.395 440.09 971C440.522 964.675 443.547 955.039 441.393 949C437.198 937.241 420.317 928.732 409 926.275C404.103 925.211 397.42 926.369 393.17 923.397C378.908 913.423 387.705 897.499 378.272 886.61C370.682 877.847 360.918 885.384 352.015 883.111C345.102 881.347 338.865 871.419 332 868z"/>
</svg>
