<?xml version="1.0" standalone="yes"?>
<svg xmlns="http://www.w3.org/2000/svg" width="944" height="1450">
<path style="fill:#010101; stroke:none;" d="M0 0L0 1450L944 1450L944 0L0 0z"/>
<path style="fill:#ffffff; stroke:none;" d="M344 1029L314 1018C310.645 1023.74 313.673 1026.1 314.012 1032C314.476 1040.08 311.022 1052.32 317.318 1059.41C323.611 1066.5 338.094 1071.91 341.382 1081.04C344.133 1088.68 338.469 1094 336.032 1100.1C334.305 1104.43 334.365 1110.37 334 1115L358 1115L366 1137C359.663 1139.81 353.267 1140.35 350 1147L364.61 1160.3L385 1171C393.672 1159.49 393.038 1154.78 393 1141L399 1142L398 1165C404.948 1160.86 403.874 1155.44 407.303 1149.04C409.686 1144.59 414.841 1141.59 419 1139L409.624 1119L400.042 1106L402 1093C386.202 1083.53 393.566 1059.53 390.227 1044.04C389.234 1039.43 385.491 1037.52 382.785 1033.96C379.123 1029.14 377.309 1023.04 373.648 1018.3C364.998 1007.11 345.53 1017.71 344 1029z"/>
</svg>
