<?xml version="1.0" standalone="yes"?>
<svg xmlns="http://www.w3.org/2000/svg" width="944" height="1450">
<path style="fill:#010101; stroke:none;" d="M0 0L0 1450L944 1450L944 0L0 0z"/>
<path style="fill:#ffffff; stroke:none;" d="M137 758C140.136 774.169 147.105 789.076 150.482 805C154.098 822.05 148.716 845.869 170 852C167.435 859.882 162.442 868.647 162.133 877C161.843 884.842 165.156 893.264 163.239 901C159.022 918.023 148.385 934.751 145.87 952C145.258 956.19 148.826 958.962 148.669 963C148.302 972.46 143.554 982.082 143.214 992C143.1 995.307 146.331 999.421 144.978 1002.42C141.602 1009.92 127.152 1015.92 120 1019C121.582 1026.54 127.275 1028.61 130.146 1035.04C132.943 1041.31 132.098 1048.87 135.303 1054.99C138.8 1061.66 144.669 1062.49 143 1071L127 1066C129.83 1073.87 139.914 1071.98 143.141 1079.1C146.502 1086.53 137.701 1088.53 136.502 1095C134.158 1107.66 155.44 1104.02 162 1104L162 1112L170 1112C170 1117.88 166.624 1124.74 167.121 1130C168.289 1142.37 182.016 1152.13 193 1153C194.354 1163.05 198.306 1173.75 195.362 1184C192.881 1192.63 184.065 1199.91 183.302 1209C182.675 1216.47 189.596 1218.13 190.067 1224.04C190.764 1232.79 185.035 1243.53 191.738 1251.58C194.038 1254.34 198.055 1254.94 200.671 1257.39C208.893 1265.11 208.885 1277.21 222.91 1274.85C229.689 1273.71 231.882 1264.45 237.174 1260.85C245.234 1255.37 259.662 1253.83 269 1250L272 1261L307 1256L306 1248C312.215 1248.13 320.15 1250.87 325.682 1246.77C329.216 1244.15 327.574 1238.75 328.637 1235C330.699 1227.73 334.823 1220.81 338 1214C348.741 1220.2 350.937 1210.09 360 1206.06C363.491 1204.51 367.36 1206.44 371 1205.3C380.513 1202.31 386.439 1198.09 397 1198C396.999 1190.01 392.57 1181.53 393.182 1174C393.82 1166.16 406.704 1147.09 394 1142C394.013 1146.58 395.378 1151.49 394.841 1156C394.518 1158.71 393.149 1160.86 391.532 1163C378.067 1180.78 362.175 1152.49 349 1147C353.501 1140.49 358.127 1139.97 365 1137L357 1116C345.978 1118.27 334.04 1116.99 323.001 1114.52C313.673 1112.43 312.27 1109.11 302 1112L304 1122L287.174 1121.97L264.83 1097.02L238 1094L233 1115C230.002 1108.66 224.395 1103.47 221.854 1097C219.654 1091.4 221.429 1084.03 215.61 1079.99C205.314 1072.84 185.748 1077.48 178.308 1063.9C174.183 1056.36 183.232 1052.86 183.128 1046C183.036 1039.92 181.083 1031.05 183.603 1025.21C184.94 1022.12 188.524 1021.16 189.787 1017.9C192.418 1011.08 194.236 1002.27 198.089 996.093C200.043 992.962 203.752 991.673 205.697 988.621C208.994 983.446 205.965 976.82 209.357 972C216.356 962.056 226.845 952.994 232 942L227 936C240.703 933.172 242.676 927.534 250.505 917.089C254.063 912.342 258.651 906.56 258.097 900C257.498 892.894 248.933 888.873 249.771 881C250.951 869.9 258.909 863.827 263 854C236.613 843.011 241.328 809.216 251.84 789.018C254.558 783.795 259.577 784.227 263.406 780.57C275.399 769.116 288.517 759.011 300.682 747.907C306.192 742.878 299.204 734.39 303.458 728.001C306.484 723.456 311.746 721.176 314.583 716.787C318.159 711.256 318.75 704.953 324.093 700.39C329.767 695.546 338.096 694.755 342 688C329.83 684.579 317.32 682.176 305 679.349C298.74 677.912 292.279 675.738 286.004 678.514C275.072 683.35 268.984 707.417 255 704.704C244.809 702.727 236.543 688.605 229 682.213C221.929 676.22 207.652 667.507 198 668.302C193.661 668.66 190.216 671.787 186 672.595C182.039 673.354 177.002 670.681 173.418 673.029C169.55 675.563 168.977 682.325 166.351 685.985C163.792 689.552 159.193 691.809 157.603 696.015C155.782 700.833 157.376 706.054 155.204 711C152.34 717.524 146.641 724.602 144.677 731.17C142.842 737.309 149.929 749.257 145.357 754.272C143.481 756.331 139.499 756.923 137 758z"/>
</svg>
