<?xml version="1.0" standalone="yes"?>
<svg xmlns="http://www.w3.org/2000/svg" width="944" height="1450">
<path style="fill:#010101; stroke:none;" d="M0 0L0 1450L944 1450L944 0L0 0z"/>
<path style="fill:#ffffff; stroke:none;" d="M479 768C480.089 771.875 482.532 777.861 479.397 781.351C477.25 783.741 472.869 783.874 471.773 787.225C470.255 791.866 473.115 800.249 474 805L482 804L483 809L504 807C505.067 815.401 508.999 821.201 511.351 829C513.876 837.371 514.701 846.92 521.39 853.61C526.074 858.293 533.546 859.931 539 863.598C551.781 872.192 563.048 885.802 569 900C562.927 901.75 556.858 904.924 554.144 911.001C552.501 914.678 555.123 920.229 550.848 922.384C545.933 924.863 539.882 919.87 535 919L531 929C523.825 926.573 503.245 924.873 502.122 937.015C501.528 943.437 511.073 951.66 514.896 956C519.608 961.35 524.093 971.564 526.898 978.089C528.843 982.612 525.89 988.281 526.303 993C526.695 997.471 530.299 1000.67 531.065 1005C533.044 1016.17 529.943 1027.93 536.419 1038.77C538.922 1042.96 545.166 1042.05 548.711 1045.28C555.846 1051.78 557.41 1057.54 568 1058C570.585 1046.25 577.79 1052.1 586 1049.27C592.844 1046.91 598.116 1040.22 604 1036.22C606.516 1034.52 610.353 1033.58 612.377 1031.3C615.592 1027.68 608.411 1023.06 608.059 1019C606.516 1001.18 614.193 986.808 633 986L633 981C646.73 983.834 656.52 992.115 669 996.473C672.131 997.566 674.557 995.109 677.576 995.571C680.501 996.019 683.069 998.51 686 999.292C691.458 1000.75 697.692 999.995 702.961 1002.03C707.842 1003.92 709.562 1009.14 713.325 1012.36C717.268 1015.74 722.704 1016.8 726.776 1019.97C734.164 1025.71 745.983 1032.14 751.436 1040.01C755.786 1046.3 752.979 1055.43 762.001 1058.48C768.515 1060.69 779.763 1050.98 787 1050C789.841 1071.98 807.416 1050.25 819 1053.52C826.643 1055.67 842.19 1071 850.836 1060.4C857.048 1052.78 853.798 1037.77 854.133 1029C854.379 1022.56 858.056 1014.87 860.62 1009C864.887 999.232 878.052 996.637 881.735 986.961C885.19 977.885 880.388 962.186 881.089 952C881.96 939.363 881.274 925.432 883.214 913C883.906 908.564 886.959 905.164 888.39 901C890.553 894.709 890.502 887.547 891.424 881C892.656 872.265 900.056 855.186 896.921 847C888.174 824.157 859.086 813.46 839 805.387C832.378 802.726 826.981 798.011 820 796L818 804C801.528 802.113 801.872 828.582 807.854 839C811.201 844.829 816.721 848.712 820.682 854C823.194 857.353 823.582 861.344 821.436 865C816.743 872.994 808.59 878.423 800 881.452C790.5 884.802 782.334 882.461 779 894C774.777 891.535 769.844 889.785 766.09 886.61C756.619 878.598 752.105 867.491 741 882L740 882C736.37 876.137 735.155 873.746 737 867L715 854.028L687 858.79L661 851C651.318 867.252 640.138 852.001 628 852C628 856.2 629.008 861.952 627.397 865.895C624.567 872.819 618.966 869.609 613.996 868.417C608.805 867.173 603.268 868.6 598.108 866.772C592.071 864.633 592.452 861.084 585 862C588.574 844.673 589.683 819.47 575.606 805.394C571.398 801.185 564.683 800.568 560.174 796.61C555.767 792.741 553.562 786.584 547.961 784.133C537.643 779.62 526.549 782.589 516.105 779.682C512.259 778.611 511.945 774.189 508.61 772.603C502.801 769.84 484.561 765.784 479 768z"/>
<path style="fill:#010101; stroke:none;" d="M486 788L502.606 798.301L515 812L512 823L528 815L528 814L517 802L513 805L496 783L486 788z"/>
</svg>
