<?xml version="1.0" standalone="yes"?>
<svg xmlns="http://www.w3.org/2000/svg" width="944" height="1450">
<path style="fill:#010101; stroke:none;" d="M0 0L0 1450L944 1450L944 0L0 0z"/>
<path style="fill:#ffffff; stroke:none;" d="M752 384C766.634 393.032 770.478 407.369 776.09 423C777.776 427.696 781.265 432.08 782.193 437C783.193 442.302 780.289 447.743 781.652 453C783.807 461.31 793.215 477.409 782.697 484.861C772.852 491.836 763.551 482.615 755 479C751.805 494.436 758.482 506.578 757.617 522C757.096 531.304 749.084 539.233 746.638 548C745.329 552.692 747.876 557.518 745.682 562C741.933 569.659 731.685 575.966 723.213 570.972C720.309 569.261 719.768 564.9 716.61 563.693C710.098 561.204 705.876 567.503 702 559L685.603 563.934L683.366 578L674.875 595L672.143 610L657 639L674.015 647.616L689 644L717 636C717.464 646.621 722.648 642.58 728.298 648.514C733.72 654.209 731.852 659.799 741 662C744.85 655.507 745 650.401 745 643C759.03 652.544 770.895 660.676 775 678C784.941 674.627 793.881 666.539 804 662.453C809.793 660.114 818.698 659.593 823.366 655.298C827.786 651.231 830.369 644.097 833.45 639C838.449 630.729 846.007 622.652 848.323 613C849.524 607.996 846.625 603.042 847.944 598C849.801 590.899 855.012 584.359 855.751 577C857.118 563.379 846.982 550.305 849.773 537.015C851.302 529.737 860.007 529.643 866 527.645C874.451 524.827 883.644 517.376 885.636 508C886.594 503.488 881.346 499.098 878.753 496.001C870.707 486.392 858.118 481.346 853.968 469C851.85 462.698 854.897 458.179 855.636 452C856.196 447.311 853.727 442.651 854.727 438C855.721 433.374 859.073 429.544 860.363 425C862.75 416.59 861.096 405.136 858.316 397.015C855.59 389.055 846.065 389.601 840.228 385.031C835.901 381.643 836.633 375.625 833.861 371.3C831.092 366.98 825.72 365.236 822.317 361.536C814.951 353.525 822.396 336.016 828.225 329C831.593 324.946 836.753 321.842 836.351 316C835.79 307.833 833.588 299.734 826.911 294.43C821.379 290.035 815.104 291.819 812.594 283.996C810.236 276.647 807.048 250.344 794.105 254.418C787.033 256.644 784.276 272.277 780.034 277.787C777.144 281.541 770.604 282.137 768.603 286.39C765.641 292.688 769.557 302.199 768.826 309C767.657 319.888 762.274 330.219 760.261 341C757.495 355.812 759.844 371.388 752 384z"/>
</svg>
