<?xml version="1.0" standalone="yes"?>
<svg xmlns="http://www.w3.org/2000/svg" width="944" height="1450">
<path style="fill:#010101; stroke:none;" d="M0 0L0 1450L944 1450L944 0L0 0z"/>
<path style="fill:#ffffff; stroke:none;" d="M486 221L478.393 258L480.295 272L473.625 322L468.418 337L469.826 354L460 395L475 399L485.028 367.015L492.56 360.591L499.495 365.887L507 366L508 375C496.123 375.52 497.486 383.436 498.127 393C498.324 395.954 497.02 399.067 498.937 401.697C503.804 408.375 515.374 405.267 521 402L520 422L529 426L535.486 405.039L540 396C529.801 396.769 524.672 387.017 528.603 377.09C531.314 370.245 538.58 364.014 541.872 356.83C544.163 351.83 541.228 348.014 546 344L543 320L551 321C552.146 330.023 553.223 337.589 562 342C565.968 333.111 575.66 336.281 578.508 345C581.218 353.293 577.314 362.813 578.481 371C580.004 381.693 588.293 395.134 587.495 405.961C587.153 410.606 581.068 412.852 578.603 416.286C576.083 419.797 577.346 425.075 578.185 429C579.318 434.301 583.406 438.068 585.387 443C588.284 450.208 587.303 457.204 591.901 464C597.747 472.64 606.225 480.016 610.005 490C612.195 495.783 610.866 502.891 612 509C616.06 508.997 619.471 509.507 622 506C632.684 509.032 649.1 510.656 657.985 517.43C662.83 521.124 664.766 527.05 668 532C684.636 528.494 684.006 553.378 684 563L702 558C705.937 566.655 710.334 560.131 716.787 563.198C719.683 564.574 720.124 568.223 722.637 569.972C729.791 574.95 741.27 569.82 744.686 563C747.006 558.369 744.421 553.746 745.652 549C748.028 539.838 756.519 531.751 756.806 522C757.118 511.371 751.96 501.297 751.789 491C751.712 486.321 753.964 481.521 755 477C768.81 489.68 787.895 489.912 786.617 467C786.292 461.159 781.254 456.738 780.56 451C779.998 446.355 782.204 441.631 781.52 437C780.741 431.722 776.88 426.985 775.09 422C769.743 407.106 766.017 391.47 751 384C759.03 374.683 755.23 366.197 757.08 355C761.31 329.403 774.854 303.241 762.985 278C761.169 274.139 761.44 266.854 757.57 264.434C750.925 260.278 743.986 268.908 738 271C736.14 264.54 733.298 258.925 733.129 252C732.82 239.32 737.397 225.87 737.961 213C738.38 203.415 736.081 194.45 735.17 185C734.619 179.288 740.94 168.861 737.968 164.51C730.787 153.996 711.142 160.406 702 163C697.454 147.22 689.197 133.115 685.727 117C683.846 108.265 689.07 102.851 682.405 95.0154C673.355 84.3755 657.829 81.8599 645 78.625C639.502 77.2385 636.722 72.9089 631.816 71.2786C622.868 68.3057 612.535 68.7976 604 65.9668C598.712 64.213 591.28 59.812 588.414 54.9568C586.026 50.9127 585.244 43.8639 580.775 41.5139C569.299 35.479 555.982 41.235 545 43.6096C540.622 44.5563 536.022 43.2354 532.394 46.5725C527.711 50.8785 526.294 59.3584 523.691 65C521.05 70.7224 516.461 75.9619 514.649 82C510.201 96.8239 529.098 96.8781 533.415 109C538.822 124.183 539.296 141.888 544.994 157C550.57 171.788 560.653 182.992 560.41 200C560.305 207.375 554.389 212.143 553.225 219C552.185 225.117 558.266 235.051 554.948 239.797C551.494 244.737 543.142 236.154 539 235.055C531.191 232.981 522.853 233.452 515 231.486C505.101 229.007 495.66 224.268 486 221z"/>
<path style="fill:#010101; stroke:none;" d="M573 297L581 323C586.003 319.434 595.15 301.394 588.272 296.028C584.521 293.101 576.985 295.88 573 297z"/>
</svg>
