<?xml version="1.0" standalone="yes"?>
<svg xmlns="http://www.w3.org/2000/svg" width="944" height="1450">
<path style="fill:#010101; stroke:none;" d="M0 0L0 1450L944 1450L944 0L0 0z"/>
<path style="fill:#ffffff; stroke:none;" d="M261 976L269 994L260 992C255.266 1000.88 243.113 1011.48 243 1021C235.299 1021.7 232.274 1027.85 231 1035C243.759 1040.37 239.556 1051.05 240.047 1062C240.293 1067.49 243.118 1072.22 241.682 1078C240.658 1082.12 235.546 1085.24 237.207 1089.85C239.773 1096.98 257.058 1093.2 262.985 1095.59C273.609 1099.87 276.995 1115.23 286.464 1120.97C290.802 1123.6 298.17 1121.04 303 1121L301 1111L312.961 1109.06L333 1115C333.6 1110.25 333.466 1104.6 335.147 1100.1C337.509 1093.79 343.54 1087.97 340.396 1080.17C336.722 1071.05 322.6 1066.07 316.318 1058.71C310.172 1051.52 313.862 1040.03 313.411 1032C313.047 1025.5 310.67 1023.38 314 1017C309.121 1013.37 307.748 1007.61 303.39 1003.7C292.811 994.216 279.502 995.579 283 977L276 973L261 976z"/>
</svg>
