<?xml version="1.0" standalone="yes"?>
<svg xmlns="http://www.w3.org/2000/svg" width="944" height="1450">
<path style="fill:#010101; stroke:none;" d="M0 0L0 1450L944 1450L944 0L0 0z"/>
<path style="fill:#ffffff; stroke:none;" d="M583 791L577.603 804L589.393 839L586 861C593.116 860.182 593.144 864.396 599.055 866.137C603.627 867.484 608.435 866.32 613 867.418C617.269 868.445 623.534 872.67 626.397 866.61C628.337 862.501 627 855.48 627 851C638.777 851.001 652.616 867.096 661 850L687 857.896L714 853.318L738 867C735.53 873.115 735.9 875.737 740 881L741 881C745.25 877.089 749.049 873.445 755 873C751.611 856.862 738.482 859.868 728.004 852.276C723.593 849.08 721.659 844.094 717.671 840.637C713.887 837.357 709.173 836.44 706.353 831.957C704.054 828.302 704.35 819.35 701.258 817.067C698.368 814.934 692.327 817.586 689 817.505C683.999 817.382 678.448 814.325 674 812.219C663.629 807.31 655.305 804.06 644 801.8C640.521 801.105 635.382 799.134 632.603 802.333C628.847 806.656 632.675 815.295 634 820L627 822C625.058 807.578 614.025 802.161 606 791L598 804L583 791z"/>
</svg>
