<?xml version="1.0" standalone="yes"?>
<svg xmlns="http://www.w3.org/2000/svg" width="944" height="1450">
<path style="fill:#010101; stroke:none;" d="M0 0L0 1450L944 1450L944 0L0 0z"/>
<path style="fill:#ffffff; stroke:none;" d="M413 775L410 790C414.925 788.046 416.995 784.77 419 780C427.158 783.318 434.525 782.091 436 772L413 775M449 788L449 789L460 796C451.093 806.068 442.875 796.559 433.39 803.14C425.964 808.292 425.681 817.672 423.846 825C421.665 833.708 413.564 848.814 428 852C424.412 862.607 421.972 873.947 409 875.309C398.345 876.427 377.547 861.19 368.843 871.433C366.723 873.928 365.994 877.946 365 881C388.937 881.576 378.06 909.666 391.59 921.682C395.827 925.445 402.773 924.14 408 925.275C413.181 926.4 423.235 930.367 427.91 933.013C433.474 936.163 435.526 944.741 442 946.582C451.673 949.332 457.905 934.562 466.866 946.004C468.375 947.931 469.709 949.927 471 952C477.728 949.215 479.436 951.232 486.001 951.219C489.156 951.213 491.64 948.565 494.715 948.555C499.172 948.541 504.937 955.585 507.942 958.424C514.35 964.478 511.419 972.875 522 973C520.273 967.694 518.974 961.517 515.581 957C511.448 951.497 502.941 945.391 501.508 938.285C500.642 933.993 505.794 931.157 509.004 929.835C517.872 926.183 520.711 924.859 530 928L537.105 919.241L550.678 921.667L553.667 911L568 899C562.427 885.706 551.981 872.654 540 864.598C533.928 860.515 524.524 858.706 519.966 852.787C510.397 840.358 512.293 821.271 502.825 809.603C498.967 804.849 486.217 808.638 482 811C481.304 804.954 478.265 805.351 473 806L470 786C465.135 786.367 461.916 787.197 460 782L449 788z"/>
<path style="fill:#010101; stroke:none;" d="M467 843C466.955 848.4 464.748 853.768 470 857L472 852L481.228 860.107L503 862L503 852L497 854L495 843L467 843z"/>
</svg>
