<?xml version="1.0" standalone="yes"?>
<svg xmlns="http://www.w3.org/2000/svg" width="944" height="1450">
<path style="fill:#010101; stroke:none;" d="M0 0L0 1450L944 1450L944 0L0 0z"/>
<path style="fill:#ffffff; stroke:none;" d="M496 1051C495.488 1048.36 494.75 1045.68 494.529 1043C493.995 1036.5 498.232 1030.42 505 1034.6C513.687 1039.96 521.074 1052.31 532 1053.73C537.142 1054.39 542.263 1047.84 546 1045L546 1044C527.827 1038.24 532.404 1020.39 530.437 1005C529.875 1000.6 526.132 997.399 525.563 993C524.96 988.336 528.035 982.638 526.357 978.189C524.181 972.417 516.417 975.74 513.453 970.852C509.124 963.711 506.222 949.909 495 949.226C491.812 949.032 489.202 951.715 486 951.725C479.484 951.746 477.366 949.321 471 953L463 941C457.323 942.172 447.661 943.548 444.024 948.637C438.729 956.046 440.715 975.416 441.715 984C442.514 990.867 437.988 996.583 438.576 1003C438.948 1007.07 441.812 1011.29 443.424 1015C447.55 1024.48 451.286 1038.18 459.105 1045.2C462.052 1047.84 466.667 1052.48 471 1051.73C474.947 1051.04 478.426 1045.9 482.576 1046.64C488.316 1047.66 489.427 1053.67 496 1051z"/>
</svg>
