<?xml version="1.0" standalone="yes"?>
<svg xmlns="http://www.w3.org/2000/svg" width="944" height="1450">
<path style="fill:#010101; stroke:none;" d="M0 0L0 1450L944 1450L944 0L0 0z"/>
<path style="fill:#ffffff; stroke:none;" d="M628 821L633 819C631.91 815.131 629.682 810.057 630.408 806.001C632.405 794.842 652.842 802.651 660 804L661 798C654.785 795.718 647.239 795.819 644.164 788.995C641.11 782.219 647.256 777.329 639.956 771.303C625.455 759.333 603.941 771.167 606.813 790C608.053 798.13 617.69 802.867 622.772 808.286C626.053 811.785 626.743 816.537 628 821z"/>
</svg>
