<?xml version="1.0" standalone="yes"?>
<svg xmlns="http://www.w3.org/2000/svg" width="944" height="1450">
<path style="fill:#010101; stroke:none;" d="M0 0L0 1450L944 1450L944 0L0 0z"/>
<path style="fill:#ffffff; stroke:none;" d="M547 1044L532.576 1054.47L520 1049L514.383 1069L514.307 1080.36L496 1090C501.999 1099.65 502.144 1108.38 505.436 1119C506.592 1122.73 510.244 1127.46 509.644 1131.42C508.479 1139.12 500.46 1145.83 495 1150.58C491.822 1153.34 487.504 1159.27 483 1159.44C477.749 1159.64 471.982 1155.03 467 1153.63C461.694 1152.15 455.835 1153.03 451 1149.97C445.605 1146.56 441.462 1139.83 435 1138.31C426.286 1136.28 412.897 1140.16 408.303 1148.17C406.212 1151.82 406.427 1156.37 404.146 1159.96C401.22 1164.57 394.727 1167.15 393.814 1173C392.608 1180.72 397.999 1190.69 398 1199C386.626 1199.01 380.286 1203.36 370 1206.26C366.68 1207.2 363.276 1205.51 360 1206.62C349.95 1210.03 349.532 1219.79 338 1215C334.833 1221.05 330.837 1228.31 329.39 1235C328.554 1238.87 330.212 1244.13 326.682 1246.93C320.917 1251.49 313.573 1249.14 307 1249L308 1257C298.712 1257 281.195 1255.58 273.603 1262.14C270.598 1264.74 272.321 1270.66 272.715 1274C274.091 1285.67 274.885 1294.52 281 1305C293.967 1301.32 301.423 1299.78 311.721 1310.46C315.43 1314.31 314.391 1322.86 321.019 1323.39C328.694 1324.01 344.366 1309.22 351.593 1316.41C356.763 1321.55 348.554 1332.26 353.603 1338.32C360.289 1346.33 374.603 1337.04 379.33 1350.04C381.923 1357.17 373.273 1360.2 369.213 1363.64C359.77 1371.64 359.534 1386.07 370 1392.73C379.572 1398.83 395.093 1386.12 404 1383.1C411.085 1380.7 418.928 1381.18 426 1378.75C432.458 1376.53 438.017 1371.49 444 1368.23C449.039 1365.48 457.019 1362.94 458.745 1356.96C461.634 1346.94 454.928 1334.94 453 1325C458.534 1323.72 468.427 1321.69 472.437 1317.49C477.445 1312.25 476.645 1305.15 483.004 1300C488.015 1295.95 500.682 1289.3 494.106 1281.32C489.607 1275.86 479.852 1280.99 474 1279.7C465.307 1277.77 457.929 1269.57 449 1267L453 1250C456.708 1250 462.361 1251.04 465.363 1248.4C470.254 1244.09 473.017 1229.74 481.891 1231.38C486.581 1232.24 486.046 1238.48 488.14 1241.67C491.076 1246.16 499.924 1252.16 505 1253.81C508.461 1254.94 511.545 1252.77 515 1252.79C520.83 1252.83 526.114 1256.99 532 1256.45C543.04 1255.43 549.116 1249.95 560.956 1253.72C565.976 1255.32 566.115 1260.12 568.702 1264C571.933 1268.84 576.747 1272.72 582 1275.14C595.932 1281.53 611.311 1283.98 626 1288.14C632.086 1289.87 639.618 1293.51 646 1292.2C654.396 1290.47 662.664 1286.92 670 1282.55C674.076 1280.12 678.314 1275.53 683 1274.47C686.836 1273.6 690.183 1276.62 694 1276.41C699.939 1276.09 707.648 1272.18 713 1269.68C717.388 1267.62 723.052 1264.7 725.925 1260.67C728.192 1257.5 728.422 1252.45 732.225 1250.56C735.52 1248.93 739.593 1249.38 743 1247.92C748.947 1245.36 753.69 1240.8 760 1238.91C769.397 1236.1 782.12 1234.71 787.987 1225.54C791.814 1219.55 789.485 1210.58 792.032 1204.04C793.694 1199.77 799.069 1198.47 799.852 1193.9C801.117 1186.51 796.862 1178.96 800.854 1172C803.591 1167.23 809.067 1158.54 814.09 1156.07C817.415 1154.43 821.355 1156.99 824.363 1154.39C829.463 1149.98 831.739 1140.07 834.201 1134C837.521 1125.81 844.439 1124.17 849.012 1117.49C851.288 1114.16 851.412 1108.85 852.375 1105C855.265 1093.44 860.054 1075.17 850.86 1064.6C848.054 1061.38 839.99 1064.27 836 1063.32C829.253 1061.7 824.906 1054.95 818 1054.14C808.167 1052.99 798.65 1061 788 1061L786 1051C778.743 1051.98 765.339 1056.21 762.947 1064.04C761.227 1069.67 764.416 1074.52 765.066 1080C765.931 1087.29 761.231 1102.65 754.956 1106.65C750.788 1109.3 741.635 1115.41 736.576 1114.64C728.222 1113.38 724.186 1106.34 715 1110.13C700.607 1116.07 690.752 1130.33 678 1138.4C673.121 1141.48 666.326 1140.19 661 1142.35C656.811 1144.06 652.058 1148.71 647.424 1148.72C636.921 1148.77 632.401 1136.87 625.536 1131.6C622.425 1129.22 617.686 1130 614 1130L609.03 1110.21L571.6 1078.96L568 1059C556.942 1058.12 554.597 1050.64 547 1044z"/>
</svg>
