<?xml version="1.0" standalone="yes"?>
<svg xmlns="http://www.w3.org/2000/svg" width="944" height="1450">
<path style="fill:#010101; stroke:none;" d="M0 0L0 1450L944 1450L944 0L0 0z"/>
<path style="fill:#ffffff; stroke:none;" d="M391 1041C391.559 1054.02 390.147 1067.58 394.914 1079C397.535 1085.28 395.13 1089.63 403 1092C402.152 1096.37 399.614 1102.61 400.773 1107C402.373 1113.06 409.477 1117.65 412.647 1123C415.065 1127.08 416.221 1134.32 420.39 1136.97C425.662 1140.33 432.28 1135.41 438 1139.15C442.917 1142.36 446.566 1147.66 452 1150.07C456.997 1152.28 462.881 1151.41 468 1153.32C472.383 1154.96 479.239 1159.75 484 1159.01C488.221 1158.35 491.933 1153.09 495 1150.42C500.542 1145.61 507.33 1139.65 508.821 1132C509.689 1127.55 506.104 1123.08 504.748 1119C501.308 1108.65 502.42 1098.61 495 1090C499.775 1088.01 512.531 1084.07 514.227 1078.79C515.541 1074.69 512.89 1070.33 514.387 1066C516.22 1060.7 520.561 1052.7 517.933 1047C515.714 1042.2 502.542 1029.38 496.938 1035.6C493.256 1039.69 496.101 1047.37 497 1052C490.139 1053.3 488.013 1047.5 482 1047.24C477.507 1047.05 474.596 1052.09 470.285 1052.49C465.104 1052.98 456.777 1043.96 454.353 1039.99C449.317 1031.73 445.836 1021.88 442 1013C440.55 1009.64 439.007 1004.25 434.895 1003.41C429.651 1002.34 417.452 1001.03 413.643 1005.64C410.774 1009.11 413.785 1015.89 413.505 1020C412.478 1035.08 404.61 1041.28 391 1041z"/>
</svg>
