<?xml version="1.0" standalone="yes"?>
<svg xmlns="http://www.w3.org/2000/svg" width="944" height="1450">
<path style="fill:#010101; stroke:none;" d="M0 0L0 1450L944 1450L944 0L0 0z"/>
<path style="fill:#ffffff; stroke:none;" d="M668 746C670.607 752.197 675.35 757.174 678.662 763C682.488 769.729 684.351 777.48 688.549 784C692.092 789.503 697.31 793.895 699.895 800C704.259 810.305 700.431 824.536 707.966 833.61C710.568 836.743 714.82 837.709 717.815 840.39C722.045 844.178 723.81 849.685 729.004 852.57C736.056 856.488 742.352 856.029 748.985 861.754C760.711 871.876 760.566 888.714 779 892C783.148 882.138 789.901 883.578 799 881.073C807.39 878.763 815.947 873.637 820.436 866C822.511 862.469 822.606 857.499 820.397 854C816.891 848.447 811.087 844.59 807.483 839C801.234 829.307 800.924 802.18 817 803L819 794C824.384 797.142 838.2 807.851 844.57 805.306C847.834 804.003 847.999 797.901 848.651 795C850.744 785.683 854.917 770.199 849.683 761.326C843.663 751.119 825.663 743.68 817 735C814.227 732.221 810.121 729.126 809.488 725C807.807 714.053 819.828 715.565 822.968 707.895C829.106 692.895 826.911 672.118 823 657C810.472 661.075 797.322 664.458 786 671.468C777.265 676.875 770.464 686.237 761 690.366C751.847 694.359 745.387 687.02 737 688.904C731.297 690.184 727.667 697.285 723 700.436C719.469 702.82 714.671 702.135 711.39 704.742C705.146 709.704 703.982 718.613 696.999 723.746C692.039 727.393 682.74 726.251 679.013 730.564C673.09 737.419 683.685 750.003 668 746z"/>
</svg>
