<?xml version="1.0" standalone="yes"?>
<svg xmlns="http://www.w3.org/2000/svg" width="1332" height="1450">
<path style="fill:#010101; stroke:none;" d="M0 0L0 1450L1332 1450L1332 0L0 0z"/>
<path style="fill:#ffffff; stroke:none;" d="M1110 1175C1102.9 1179.14 1098.8 1184.7 1092.61 1189.01C1089.85 1190.94 1086.46 1190.56 1084.1 1193.3C1081.03 1196.89 1080.99 1202.03 1078.15 1205.58C1073.79 1211.01 1065.66 1213.18 1065.78 1222C1065.84 1225.9 1069.36 1227.92 1070.99 1231.09C1074.92 1238.71 1079.6 1245.64 1083.7 1253.09C1086.13 1257.52 1083.67 1263.75 1086.07 1267.49C1088.2 1270.81 1093.62 1270.45 1096.3 1273.42C1099.09 1276.5 1100.01 1282.29 1105 1282.76C1108.14 1283.06 1111.99 1280.69 1115 1279.89C1123.75 1277.54 1135.56 1275.05 1142.79 1269.3C1145.95 1266.79 1146.71 1262.1 1150.21 1260.03C1156.17 1256.51 1164.86 1261.67 1170.58 1257.14C1173.88 1254.53 1174.1 1249.43 1176.65 1246.17C1180.56 1241.17 1187.35 1237.64 1193 1235L1186.44 1217L1182 1186C1173.86 1189.39 1161.13 1191.77 1154.17 1196.73C1148.11 1201.04 1145.11 1209.97 1136.04 1208.51C1131 1207.7 1128.43 1200.79 1125.95 1197.02C1122.75 1192.16 1117.1 1190.97 1113.94 1186.61C1111.51 1183.26 1112.14 1178.56 1110 1175z"/>
</svg>
