<?xml version="1.0" standalone="yes"?>
<svg xmlns="http://www.w3.org/2000/svg" width="1332" height="1450">
<path style="fill:#010101; stroke:none;" d="M0 0L0 1450L1332 1450L1332 0L0 0z"/>
<path style="fill:#ffffff; stroke:none;" d="M421 25C417.628 36.9661 405.084 47.0093 393 39L392 39L377 49L376 49L360 52C357.361 56.4067 343.222 62.2421 338.105 60.3782C333.647 58.7543 333.326 54.4235 328 54C326.818 76.7858 297.893 64.4851 284.425 72.4698C273.475 78.9622 279.794 88.7767 272.351 97.787C268.632 102.289 262.641 102.51 258.171 105.727C251.622 110.439 247.963 119.608 241.61 124.012C238.035 126.489 232.125 126.494 228 128L227 125C220.054 127.922 218.357 136.273 211.961 138.672C206.928 140.56 199.946 137.231 195 136.428C189.488 135.534 184.383 138.592 179 138.856C175.796 139.014 172.363 137.499 169.21 138.333C164.722 139.519 162.1 146.602 158.028 149.219C152.9 152.515 142.629 163.313 148 169L148 170C134.504 179.505 116.097 194.995 99 197.52C91.3249 198.654 83.4995 195.197 76 194.546C71.1451 194.124 65.7475 196.079 61 197L56.6057 180.194L42 180C39.7465 197.831 51.6059 213.391 48.5702 231C47.8971 234.905 45.2283 238.131 44.3904 242C43.1317 247.812 44.2733 254.483 40.8603 259.787C38.3661 263.664 30.1204 265.04 31.7122 270.989C32.9152 275.485 38.5025 277.411 41.0062 281.093C55.4658 302.363 77.2253 314.249 93.6968 334.089C101.214 343.145 91.5808 362.576 106.379 369.397C112.314 372.132 119.299 368.59 125 367.39C131.188 366.087 138.825 370.062 144.621 367.397C147.485 366.08 148.909 362.453 151.185 360.379C156.599 355.445 168.116 346.578 175 344.514C181.521 342.559 189.266 344.55 196 343.826C204.878 342.873 211.822 338.5 221 340.015C227.779 341.134 234.059 346.918 241 346.595C246.296 346.348 250.132 342.887 255 341.509C261.102 339.782 268.084 341.53 273.787 337.86C278.169 335.041 278.772 329.848 284.015 327.711C290.547 325.048 298.049 321.539 305 320.329C309.199 319.598 314.715 321.228 318.61 319.397C325.563 316.127 326.465 303.896 329.937 298.039C332.835 293.15 336.237 284.017 340.147 280.228C343.707 276.778 349.013 276.464 352.366 272.671C357.293 267.096 358.923 257.152 365.213 252.938C368.692 250.608 373.979 250.749 378 250C377.449 237.163 366.944 231.622 359.966 221.896C354.636 214.468 353.725 203.893 355.148 195.015C356.348 187.534 364.857 188.552 369.826 185.146C374.969 181.62 375.714 174.625 377 169C382.423 170.655 384.82 169.83 389 166L396 177C405.091 175.016 398.231 166.841 398 161C397.751 154.712 403.329 146.974 409 145C404.438 131.553 384.563 134.968 385.15 119C385.493 109.684 393.619 103.33 396.294 95C397.441 91.427 395.028 86.6385 397.618 83.6489C402.733 77.7438 412.028 74.3718 417.582 68.6096C423.505 62.4631 424.748 51.5081 428.373 44C429.769 41.1093 432.574 37.625 431.353 34.2091C430.018 30.4742 424.121 27.1705 421 25z"/>
<path style="fill:#010101; stroke:none;" d="M77 200C72.7295 207.617 65.4033 206.638 64 217L81 215C77.8115 222.409 77.155 229.204 70 234L69 244C75.2846 248.088 80.7208 248 88 248L88 247C79.495 239.336 94.1704 229.143 95 219C104.893 221.868 107.162 210.351 100.39 204.603C95.4428 200.403 83.5626 203.041 77 200z"/>
</svg>
