<?xml version="1.0" standalone="yes"?>
<svg xmlns="http://www.w3.org/2000/svg" width="1332" height="1450">
<path style="fill:#010101; stroke:none;" d="M0 0L0 1450L1332 1450L1332 0L0 0z"/>
<path style="fill:#ffffff; stroke:none;" d="M966 1366C974.119 1362.21 987.435 1352.86 990 1344C983.674 1338.45 987.784 1333.04 994 1329.35C1000.24 1325.65 1005.53 1328.25 1011.91 1326.28C1019.34 1323.97 1024.51 1317.95 1033 1316C1032.29 1312.03 1029.63 1308.09 1030.31 1304C1031.29 1298.03 1036.6 1292.17 1033.68 1286C1030.68 1279.67 1023.78 1276.3 1019.64 1270.91C1017.68 1268.36 1016.7 1264.06 1013.61 1262.6C1007.38 1259.67 1000.6 1261.81 994.043 1257.65C987.943 1253.78 987.831 1246.33 983.034 1241.6C980.771 1239.37 976.918 1239.52 974 1238.88C970.488 1238.1 966.73 1235.61 963.039 1236.36C958.063 1237.37 952.134 1249.82 950.117 1254.17C948.73 1257.16 950.383 1261.03 951.127 1264C952.027 1267.6 952.447 1272.43 954.854 1275.39C961.075 1283.05 972.006 1284.99 974.761 1296C978.578 1311.25 963.006 1320.11 959.677 1334C957.336 1343.77 964.037 1356.52 966 1366z"/>
</svg>
