<?xml version="1.0" standalone="yes"?>
<svg xmlns="http://www.w3.org/2000/svg" width="1332" height="1450">
<path style="fill:#010101; stroke:none;" d="M0 0L0 1450L1332 1450L1332 0L0 0z"/>
<path style="fill:#ffffff; stroke:none;" d="M402 177C395.136 177.353 392.354 172.386 389 167C385.05 169.57 382.741 171.146 378 170C375.61 175.654 375.201 181.455 369.91 185.487C366.093 188.396 357.883 187.947 356.318 193.214C353.831 201.585 355.399 215.825 360.965 222.61C367.871 231.029 378.925 238.119 378.921 250C378.916 266.475 364.836 277.877 367 295L395 284L386 301L387 301C391.658 294.516 397.815 288.712 402.006 282C406.105 275.437 407.906 267.96 413.465 262.213C422.672 252.693 436.214 244.48 443.633 232.826C446.45 228.402 445.349 223.818 446.39 219C447.949 211.791 451.574 201.76 454.652 195C460.746 181.616 477.468 172.305 468 156C476.069 154.219 479.939 141.639 470.981 137.539C464.273 134.468 451.957 144.545 445 145.922C439.442 147.022 434.393 143.388 429 142.774C425.215 142.343 422.532 144.52 419 145.273C409.278 147.347 399.606 146.037 398.6 160C398.202 165.532 401.948 171.166 402 177M440 282L428 276C425.27 288.548 423.121 309.753 404 306L399 316C407.405 319.708 412.447 331.608 402.775 337.895C399.307 340.149 394.795 338.541 391 340C385.421 328.721 384.753 300.448 364.043 309.382C358.251 311.88 357.497 318.263 351 320L353 313C349.748 313.613 345.135 313.637 342.513 315.858C332.979 323.933 341.38 341.391 348 347.682C351.412 350.924 356.175 348.224 359.297 352.152C361.839 355.35 362.74 361.007 362.529 365C361.988 375.274 352.677 372.242 347.988 378.499C345.969 381.194 346.56 385.059 344.987 387.985C342.832 391.993 338.447 394.182 335.994 398.015C329.096 408.79 330.436 415.916 318 423C322.073 432.607 328.227 428.933 335.787 433.317C342.194 437.033 342.616 443.119 351 445.24C375.468 451.431 384.92 432.335 397.276 415C399.764 411.509 399.058 407.593 401.028 404.109C403.958 398.924 412.79 399.107 418 399L430 374C438.737 381.349 448.024 376.667 457.985 380.711C467.764 384.681 469.963 398.369 481.981 401.138C486.757 402.239 487.809 397.594 488.999 394C491.439 386.632 491.972 373.635 488.411 366.379C486.347 362.173 480.505 361.045 477.514 357.621C473.523 353.054 475.653 347.196 468.985 344.563C458.837 340.557 447.841 344.992 441.51 334C438.294 328.415 438.265 318.797 441.317 313.093C445.692 304.917 450.491 310.217 450 317L463 317.009L476 311C471.982 298.083 449.166 304.109 453 289L447 277C456.855 274.152 457.146 268.079 456 259C450.651 261.638 440.548 276.008 440 282z"/>
</svg>
