<?xml version="1.0" standalone="yes"?>
<svg xmlns="http://www.w3.org/2000/svg" width="1332" height="1450">
<path style="fill:#010101; stroke:none;" d="M0 0L0 1450L1332 1450L1332 0L0 0z"/>
<path style="fill:#ffffff; stroke:none;" d="M982 1217C982 1230.02 981.714 1250.32 995.043 1257.74C1001 1261.05 1008.46 1258.89 1013.79 1262.03C1019.17 1265.2 1018.72 1273.61 1026 1274.63C1036.21 1276.06 1046.26 1270.95 1056 1269.33C1065.13 1267.8 1074.75 1269.17 1084 1268C1085.4 1256.9 1082.17 1254.66 1077.02 1245.83C1074.4 1241.33 1072.56 1232.06 1068.68 1228.89C1065.12 1225.98 1060.09 1228.17 1056 1226.63C1049.62 1224.24 1043.65 1219.98 1037 1218.38C1018.54 1213.93 1000.56 1216.2 982 1217z"/>
</svg>
