<?xml version="1.0" standalone="yes"?>
<svg xmlns="http://www.w3.org/2000/svg" width="1332" height="1450">
<path style="fill:#010101; stroke:none;" d="M0 0L0 1450L1332 1450L1332 0L0 0z"/>
<path style="fill:#ffffff; stroke:none;" d="M559 527C557.913 529.811 557.154 534.358 553.867 535.431C549.795 536.759 546.197 532.158 542 532.915C532.247 534.675 523.004 543.336 512 539.995C502.044 536.971 499.677 526.169 490 523.652C484.686 522.27 477.553 524 472 524C460.088 524 445.546 522.342 434 524.433C430.209 525.119 427.54 528.024 424 529.23C418.503 531.102 414.396 525.207 409.019 529.322C401.22 535.289 401.146 548.978 400 558L371 557C372.941 564.459 381.082 565.046 383.319 571.108C385.913 578.14 372.155 585.587 369 591C389.696 602.017 393.086 614.722 383 635C389.884 640.103 395.894 645.446 398.363 654C399.755 658.82 398.506 665.337 401.028 669.711C406.867 679.84 421.768 682.728 430.996 688.616C434.478 690.837 436.838 695.834 440.39 697.382C450.747 701.895 465.041 689.581 475 689.148C482.06 688.842 488.024 694.761 495 694.49C505.588 694.079 515.789 688.819 526 687.714C530.085 687.272 534.074 690.541 537.961 688.303C546.829 683.197 551.908 671.544 560.015 665.318C564.124 662.161 568.475 664.273 572.787 662.397C575.725 661.119 583.88 653.05 586.298 650.487C590.56 645.968 590.497 638.201 593.995 633.104C600.35 623.844 616.606 617.696 627 615C625.977 604.117 638.88 598.424 648 596.127C653.895 594.641 660.125 590.651 666 589.963C670.984 589.379 676.946 592.285 682 592.834C692.752 594.003 702.334 592.799 713 595L721 586C712.108 564.519 746.2 566.244 753 550L747 549C746.082 542.185 747.221 535.588 746.44 529C746.023 525.485 743.688 522.653 743.879 519C744.317 510.599 750.338 498.906 739.895 493.319C734.103 490.219 724.091 493.852 718 495C715.634 486.786 713.306 482.741 715 474C704.52 468.411 698.532 451.547 686.001 450.093C677.495 449.105 675.391 462.044 670.787 466.7C665.617 471.928 655.487 480.422 648 481.616C644.507 482.173 641.44 479.044 638 480.241C634.389 481.497 632.148 485.377 629 487.4C625.638 489.562 619.853 488.609 617.653 492.314C612.889 500.334 617.781 507.873 617.82 516C617.878 527.942 606.348 541.299 595.171 545.214C587.742 547.815 588.96 532.864 584.467 530.042C579.659 527.024 565.269 528.181 559 527z"/>
</svg>
