<?xml version="1.0" standalone="yes"?>
<svg xmlns="http://www.w3.org/2000/svg" width="1332" height="1450">
<path style="fill:#010101; stroke:none;" d="M0 0L0 1450L1332 1450L1332 0L0 0z"/>
<path style="fill:#ffffff; stroke:none;" d="M1084 1110L1093 1128C1086.42 1129.4 1084.9 1135.88 1078 1131L1082 1130L1081 1127L1069 1128C1068.44 1130.03 1067.9 1132.06 1066.94 1133.95C1060.21 1147.21 1051.8 1132.11 1046.57 1127.85C1043.64 1125.47 1038.6 1124.83 1035 1124L1023.49 1150.36L1010 1154.48L994 1165C1000.22 1179.97 996 1198.72 996 1215C1009.44 1214.72 1023.8 1213.73 1037 1217.63C1047.57 1220.76 1054.51 1227.44 1066 1226C1063.26 1215.54 1071.61 1211.91 1077.27 1205.5C1080.32 1202.06 1080.75 1196.78 1083.79 1193.14C1087.27 1188.98 1093.97 1185.29 1098.21 1181.39C1102.39 1177.54 1109.48 1176.9 1111.44 1170.96C1114.39 1162.02 1107.04 1158.1 1107.68 1150C1108.62 1138.18 1123.43 1127.34 1117.4 1114.28C1113.6 1106.06 1098.88 1111.41 1098 1100C1088.28 1098.88 1090.84 1106.05 1084 1110z"/>
</svg>
