<?xml version="1.0" standalone="yes"?>
<svg xmlns="http://www.w3.org/2000/svg" width="1332" height="1450">
<path style="fill:#010101; stroke:none;" d="M0 0L0 1450L1332 1450L1332 0L0 0z"/>
<path style="fill:#ffffff; stroke:none;" d="M1194 1320C1188.82 1332.34 1180.5 1328.61 1172.36 1335.59C1168.47 1338.92 1171.93 1342.45 1170.33 1346.25C1168.21 1351.26 1160.5 1354.51 1156 1357L1160 1364C1173.59 1358.34 1177.74 1365.73 1175 1379C1185.08 1382.75 1189.69 1374.58 1199 1373.36C1206.14 1372.42 1216.02 1377.93 1224 1378C1220.66 1368.14 1216.21 1356.69 1226 1349L1223 1333L1214 1336C1211.5 1330.52 1210.84 1327.74 1213 1322L1194 1320z"/>
</svg>
