<?xml version="1.0" standalone="yes"?>
<svg xmlns="http://www.w3.org/2000/svg" width="1332" height="1450">
<path style="fill:#010101; stroke:none;" d="M0 0L0 1450L1332 1450L1332 0L0 0z"/>
<path style="fill:#ffffff; stroke:none;" d="M1033 1316C1028.9 1317.81 1024.08 1318.41 1020.18 1320.57C1016.71 1322.49 1015.02 1326.14 1010.99 1327.27C1004.94 1328.98 999.997 1326.53 994 1329.8C987.826 1333.16 983.801 1339.37 991 1344L968 1368C976.308 1370.27 981.864 1373.22 986.1 1381C988.264 1384.98 989.092 1391.19 992.51 1394.27C997.08 1398.39 1007.17 1398.36 1013 1400L1028 1380L1008 1378L1008 1377C1014.22 1372.89 1019.68 1368.07 1027 1365.91C1030.59 1364.85 1036.33 1367.24 1039.26 1364.97C1042.56 1362.41 1042.17 1354.66 1041.83 1351C1040.71 1339.01 1039.42 1326.51 1033 1316z"/>
</svg>
