<?xml version="1.0" standalone="yes"?>
<svg xmlns="http://www.w3.org/2000/svg" width="1332" height="1450">
<path style="fill:#010101; stroke:none;" d="M0 0L0 1450L1332 1450L1332 0L0 0z"/>
<path style="fill:#ffffff; stroke:none;" d="M1027 625C1027.51 629.516 1025.82 638.121 1022.35 641.401C1019.29 644.291 1014.4 643.496 1012.61 648.094C1010.57 653.317 1014.21 659.627 1013.69 665C1013.37 668.358 1010.72 671.228 1009 674L1008 674C1003.19 665.951 997.817 669.713 990 670.011C983.908 670.243 965.967 669.896 961.603 674.009C959.162 676.311 960.058 680.992 959.035 684C957.333 689 956.182 691.175 959 696C946.863 701.381 931.579 710.41 918 710.59C899.806 710.832 881.996 700.644 864.39 709.588C853.818 714.959 856.082 727.317 852.397 735.787C851.081 738.811 847.564 739.577 845.278 741.637C840.078 746.325 841.081 750.88 833 752C830.41 744.298 817.112 755.081 813 758C814.153 763.562 819.601 768.7 819.188 774.004C818.252 786.019 810.587 787.803 805.433 796.39C802.373 801.488 797.756 808.428 795.765 814C794.306 818.083 794.71 823.089 792.544 826.857C789.172 832.722 782.127 836.916 780.314 844.089C778.776 850.172 779.171 864.266 781.379 869.961C783.979 876.668 788.91 878.585 794 873L795 873C802.012 881.625 812.582 874.386 819 882C807.698 885.47 816.714 906.11 828 898C830.18 902.605 839.769 909.345 839.119 914C837.719 924.025 825.776 920.813 820.491 924.07C803.472 934.557 820.226 953.257 826 963L828 963C831.107 957.413 840.646 953.517 843.353 962.005C844.537 965.717 841.755 969.404 841.213 973C840.206 979.672 840.37 987.794 843 994C855.71 992.803 861.077 1008.05 862.434 1018C863.417 1025.21 871.587 1029.11 871.231 1037C871.005 1042 866.967 1043.1 865.263 1047.14C861.624 1055.78 861.574 1067.59 865 1076L836 1082L839.439 1099L835.481 1110L834.762 1121L821 1138L837.911 1135.01L848.001 1127.36L871 1135L884.714 1128.9L901 1117.39L923 1113C918.653 1102.91 910.21 1094.31 911 1083L924.985 1085.66L939 1091C937.556 1102.49 945.256 1102.71 947.366 1112.02C949.112 1119.72 945.335 1122.45 944.617 1129.09C944.181 1133.13 947.018 1136.94 946.588 1141C945.865 1147.83 940.466 1156.83 937.459 1163C934.753 1168.55 937.154 1173.55 931 1177C936.788 1183.03 942.636 1186.61 944 1196L961 1201C958.099 1193.92 957.146 1191.03 949 1191C950.617 1183.54 946.452 1178.61 942 1173C956.351 1177.38 968.736 1160 982 1159L984 1168L1010 1153.92L1023.26 1149.61L1035 1123C1045.64 1126.4 1049.29 1130.28 1056 1139C1064.34 1137.87 1067.11 1133.98 1069 1126C1073.43 1128.96 1076.22 1127.61 1081 1126L1080 1133L1091 1127L1082 1110C1090.88 1106.77 1087.7 1098.55 1099 1099C1099.31 1108.34 1110.48 1109.55 1118 1112C1117.37 1108.94 1117.04 1104.08 1114.44 1101.99C1110.89 1099.14 1106.11 1100.73 1102.9 1096.85C1093.63 1085.68 1094.99 1079.15 1095 1066L1088 1066L1088 1059C1083.87 1059.03 1078.98 1060.51 1075 1059.28C1064.04 1055.9 1064.17 1047.59 1073 1042L1058 1023L1072 1027C1073.05 1020.53 1067.99 1018.27 1065.3 1013C1062.65 1007.8 1063.09 1001.34 1060.35 996.213C1057.52 990.934 1052.88 989.401 1051 983C1057.27 980.376 1069.97 975.254 1073.18 968.957C1074.96 965.473 1071.96 960.789 1072.1 957C1072.43 948.683 1076.23 941.77 1077.14 934C1077.55 930.466 1074.85 927.598 1075.26 924C1077.01 908.989 1086.41 894.812 1089.48 880C1090.91 873.09 1087.91 865.948 1088.27 859C1088.65 851.924 1092.82 844.676 1095 838C1077.88 827.994 1082.02 812.006 1078.62 795C1075.77 780.717 1068.75 767.615 1066 753C1081.09 749.493 1069.08 740.08 1073.18 730.17C1075.77 723.911 1080.72 718.731 1083.03 712C1084.36 708.143 1083.16 703.652 1085.03 700.015C1091.15 688.066 1100.87 683.395 1096 668C1088.13 672.689 1083.88 684.698 1072.9 685.218C1065.74 685.556 1059.68 671.664 1057.6 666C1056.47 662.915 1057.71 659.382 1056.4 656.375C1054.21 651.342 1049.34 647.007 1046.91 641.83C1045.51 638.856 1045.84 635.137 1043.44 632.649C1039.72 628.793 1031.9 627.012 1027 625z"/>
</svg>
