<?xml version="1.0" standalone="yes"?>
<svg xmlns="http://www.w3.org/2000/svg" width="1332" height="1450">
<path style="fill:#010101; stroke:none;" d="M0 0L0 1450L1332 1450L1332 0L0 0z"/>
<path style="fill:#ffffff; stroke:none;" d="M1249 1269C1244.07 1280.11 1227.43 1286.09 1218.02 1293.38C1214.46 1296.13 1212.28 1301.86 1208.61 1303.88C1206.01 1305.32 1202.86 1303.56 1200.19 1305.04C1196.87 1306.87 1192.83 1315.99 1196.61 1318.97C1199.47 1321.23 1209.91 1320.16 1214 1321C1211.87 1326.54 1211.31 1329.56 1214 1335L1224 1332C1224.59 1336.6 1226.95 1342.3 1225.98 1346.91C1224.31 1354.86 1219.72 1358.79 1221.33 1368C1222.87 1376.83 1230.14 1380.42 1232.97 1388C1235.28 1394.2 1233.75 1401.21 1237.97 1406.86C1243.95 1414.86 1254.15 1409.67 1262 1410.39C1268.29 1410.98 1270.17 1419.05 1276.04 1418.5C1289.63 1417.23 1291.12 1398.17 1296.14 1389C1298.13 1385.38 1303.53 1382.86 1304.54 1378.91C1305.37 1375.69 1301.84 1372.22 1299.83 1370.17C1294.44 1364.69 1288.81 1359.43 1285.99 1352C1283.46 1345.3 1286.63 1337.61 1283.57 1331C1280.82 1325.09 1274.72 1316.24 1270.7 1311C1267.75 1307.15 1263.69 1304.38 1264.23 1299C1265.37 1287.74 1275.83 1285.1 1279 1276L1249 1269z"/>
</svg>
