<?xml version="1.0" standalone="yes"?>
<svg xmlns="http://www.w3.org/2000/svg" width="1332" height="1450">
<path style="fill:#010101; stroke:none;" d="M0 0L0 1450L1332 1450L1332 0L0 0z"/>
<path style="fill:#ffffff; stroke:none;" d="M679 717C670.856 720.807 660.161 730.748 662.073 740.999C663.087 746.432 668.605 749.519 668.188 755.004C667.295 766.722 658.267 778.53 660.148 789.957C661.273 796.793 671.343 797.403 674.837 803.043C683.256 816.633 672.366 831.659 667.114 843.17C665.683 846.306 667.768 849.726 667.189 853C666.236 858.39 662.17 863.05 660.059 868C654.863 880.189 655.304 890.592 639 886L632 907C618.866 903.273 611.261 905.272 603 917C611.06 922.976 618.386 933.411 608.61 942.363C603.502 947.04 595.784 948.658 590.109 952.619C583.211 957.433 575.824 973.172 578.319 981.787C579.372 985.423 584.285 987.267 586.66 990.043C589.695 993.592 589.67 999.144 592.738 1002.27C601.623 1011.33 620.54 1006.67 631 1006.26C635.92 1006.07 641.919 1008.5 646.674 1006.4C652.397 1003.86 659.677 993.1 663.648 988.184C667.421 983.513 673.438 981.19 677.536 976.816C685.199 968.637 687.806 959.072 692 949L708 952.945L719.772 952.607L726.144 959.57L750 966.93L761 960.684L776 958C774.651 951.462 771.267 943.735 771.908 937.001C772.535 930.425 785.41 915.149 792 913.414C804.102 910.227 815.737 925.698 828 922.797C832.327 921.774 840.665 916.645 837.929 911.209C835.709 906.798 830.572 903.61 828 899C816.688 905.215 807.278 887.504 817 882L795 874L794 874C779.613 885.131 780.954 862.716 780.441 855C780.214 851.587 778.514 848.522 779.318 845.015C781.004 837.658 788.169 832.601 791.826 826.701C794.041 823.128 793.498 817.931 795.133 814C797.47 808.383 801.588 802.556 804.433 797.105C807.114 791.968 813.128 790.789 815.662 784.996C817.262 781.338 819.693 774.35 818.312 770.375C816.926 766.388 811.739 764.196 813.492 759.09C815.469 753.335 830.08 744.835 834 751C840.327 749.984 840.032 746.686 843.702 742.39C845.916 739.799 849.97 739.062 851.397 735.787C855.142 727.184 854.157 713.424 865.105 708.588C883.512 700.456 899.417 711.157 918 710.114C931.49 709.357 945.82 701.169 958 696C955.657 690.015 957.273 674.864 964.019 672.009C969.39 669.737 976.279 671.263 982 670.196C990.986 668.52 1001.83 665.175 1008 673C1017.4 665.31 1008.54 658.313 1011.64 649.015C1013.28 644.104 1018.07 643.789 1021.57 641.027C1024.11 639.015 1026.22 632.161 1026.53 629C1027.36 620.53 1020.04 615.618 1015.39 609.961C1010.69 604.242 1005.04 599.106 1000.6 593.61C998.471 590.969 999.38 587.314 996.682 584.966C991.522 580.475 984.351 578.549 979 574C972.391 578.655 967.938 584.448 959 583.698C954.82 583.347 951.227 579.625 947 580.089C936.906 581.198 930.607 590.459 919 589.324C911.186 588.56 903.15 581.932 896 578.873C880.552 572.262 862.283 565.927 846 561.761C838.894 559.943 828.356 559.267 821 559.343C816.943 559.385 813.084 561.569 809 560.734C802.961 559.498 797.792 554.981 792 552.966C783.743 550.094 764.522 547.994 756.105 550.318C751.201 551.672 750.199 558.31 745.907 560.86C738.14 565.476 724.265 565.71 719.883 575.043C718.013 579.024 721.734 582.824 720.022 586.255C718.389 589.525 715.111 591.016 714.485 595.001C712.721 606.212 721.473 616.869 712.71 625.891C705.882 632.92 696.951 632.634 692.343 643C689.582 649.21 694.105 655.518 689.925 661.895C686.761 666.722 680.418 667.476 676.728 671.634C672.75 676.117 669.572 691.042 669.742 697C669.922 703.285 676.944 710.695 679 717z"/>
</svg>
