<?xml version="1.0" standalone="yes"?>
<svg xmlns="http://www.w3.org/2000/svg" width="1332" height="1450">
<path style="fill:#010101; stroke:none;" d="M0 0L0 1450L1332 1450L1332 0L0 0z"/>
<path style="fill:#ffffff; stroke:none;" d="M777 959L759 961.872L748 967.532L725.228 959.86L719.698 953.604L708 953.867L692 950L677.7 976.907L664.649 987.515L645.907 1007.4L631 1007.13L618 1009.4L592 1004C587.88 1018.63 591.97 1031.54 610 1032.41C614.647 1032.63 618.103 1029.57 622.985 1030.87C627.829 1032.16 629.888 1037.65 635.015 1038.17C640.321 1038.71 643.622 1033.1 649 1033.23C662.465 1033.57 676.496 1043.86 689 1048.31C693.325 1049.85 701.317 1050.99 704.339 1054.7C706.991 1057.95 701.3 1064.18 701.059 1068C700.194 1081.68 702.809 1096.81 698 1110C702.695 1112.74 706.305 1119.27 712.015 1119.59C718.428 1119.95 723.57 1112.6 729.867 1117.59C734.396 1121.17 732.615 1127.4 736.514 1131.03C741.518 1135.7 749.634 1136.05 754.581 1140.65C758.195 1144.01 757.381 1150.91 763.055 1151.85C773.155 1153.53 792.464 1151.16 800.682 1144.65C807.931 1138.91 801.078 1126.56 794 1125C787.06 1136.62 778.122 1122.11 780.546 1114.04C782.584 1107.25 794.558 1103.59 800 1100C797.367 1095.77 793.061 1091.43 794.323 1086C796.815 1075.27 807.849 1074.67 812 1084L864 1075C859.628 1064.25 863.512 1054.05 865 1043C871.111 1041.98 871.442 1036.12 869.386 1031C867.735 1026.89 864.143 1024.01 862.404 1020C860.646 1015.95 862.036 1011.24 860.146 1007.04C858.435 1003.24 854.247 1000.33 851.576 997.133C848.125 993.009 842.366 995.019 840.514 988.995C837.858 980.358 846.017 966.958 841.971 960.152C837.922 953.338 829.527 960.01 828 965C820.478 956.621 810.247 947.257 813.43 935C814.524 930.788 817.55 927.158 819 923C812.291 919.182 797.74 911.012 790.001 914.609C784.099 917.351 782.736 922.093 779.301 926.961C777.351 929.724 773.731 931.666 772.773 935.039C770.842 941.84 775.612 952.277 777 959z"/>
</svg>
