<?xml version="1.0" standalone="yes"?>
<svg xmlns="http://www.w3.org/2000/svg" width="1332" height="1450">
<path style="fill:#010101; stroke:none;" d="M0 0L0 1450L1332 1450L1332 0L0 0z"/>
<path style="fill:#ffffff; stroke:none;" d="M432 38C427.176 47.2063 425.041 58.0496 419.586 66.895C415.122 74.136 404.224 77.5676 398.607 83.6991C395.9 86.6542 398.3 91.4413 396.9 95C392.496 106.191 380.31 116.308 389.213 128.772C392.207 132.964 397.938 131.655 401.83 134.564C406.614 138.14 408.514 143.589 415.004 144.541C419.817 145.247 423.377 142.077 428 142.059C434.218 142.036 439.639 146.71 446 145.056C452.396 143.394 463.578 134.755 469.999 136.824C478.838 139.672 479.115 154.099 470 156L471 172C479.973 168.8 487.91 162.248 498 163L490 173C497.025 178.401 499.553 181.985 508 177L507 168C496.299 161.941 505.125 142.234 513 137C508.881 127.358 496.544 124.774 491.105 116.721C487.916 112 491.816 103.093 489.829 97.0402C487.521 90.0049 479.573 90.1929 476.028 84.6104C473.823 81.1383 475.845 76.5995 473.397 73.0586C469.56 67.5111 464.292 70.615 459.214 68.3966C453.441 65.8746 453.812 57.9274 455 53C444.483 49.6593 440.599 44.934 432 38z"/>
</svg>
