<?xml version="1.0" standalone="yes"?>
<svg xmlns="http://www.w3.org/2000/svg" width="1332" height="1450">
<path style="fill:#010101; stroke:none;" d="M0 0L0 1450L1332 1450L1332 0L0 0z"/>
<path style="fill:#ffffff; stroke:none;" d="M224 341C225.219 350.592 230.388 358.825 231.787 368C233.27 377.726 226.381 382.441 225.312 391C224.74 395.577 230.267 398.473 230.836 403C231.505 408.319 227.725 412.102 226.731 417C225.622 422.463 229.523 428.986 231.308 434C233.236 439.417 234.579 448.261 238.702 452.436C241.104 454.868 245.043 454.717 248 456.124C257.65 460.717 272.784 467.494 284 463.145C287.474 461.798 295.877 457.268 297.382 453.726C299.346 449.104 296.18 445.493 300.149 441.089C308.495 431.83 321.989 424.351 329.062 414.485C331.727 410.767 331.837 405.152 333.905 401C336.361 396.069 341.384 393.534 343.987 388.911C345.664 385.932 345.068 382.239 346.564 379.225C350.19 371.919 361.26 375.532 361.736 365C362.519 347.666 346.93 352.166 340.026 338.961C333.187 325.88 340.307 315.699 352 312L350 301L364.396 297.03L365.908 284L378 251C361.938 253.032 362.545 260.282 353.366 271.907C349.663 276.596 343.095 276.828 339.589 281.228C331.387 291.52 329.41 307.072 321.035 317.852C316.895 323.18 299.886 322.483 293 325.05C289.016 326.535 283.591 327.606 280.39 330.51C277.732 332.922 276.967 336.778 273.787 338.697C268.092 342.135 261.161 341.041 255 342.278C250.064 343.269 246.242 347.163 241 347.323C235.284 347.496 229.143 343.138 224 341z"/>
</svg>
