<?xml version="1.0" standalone="yes"?>
<svg xmlns="http://www.w3.org/2000/svg" width="1332" height="1450">
<path style="fill:#010101; stroke:none;" d="M0 0L0 1450L1332 1450L1332 0L0 0z"/>
<path style="fill:#ffffff; stroke:none;" d="M317 424C311.768 429.68 302.468 436.306 299.032 443.039C297.058 446.906 300.436 451.966 297.393 455.302C288.026 465.569 270.538 466.67 258 462.301C251.01 459.865 246.811 455.622 239 455C239.732 464.281 236.809 472.922 237.274 482C237.725 490.814 244.262 499.23 236.695 506.852C230.556 513.036 221.118 508.238 214.515 515.301C206.242 524.148 192.767 540.923 178.015 536.81C171.551 535.008 171.673 528.716 167.363 524.702C163.652 521.246 157.371 520.577 153 518.046C140.905 511.042 125.638 495.701 113.969 511.21C104.191 524.206 108.755 536.24 105.239 550C101.344 565.248 96.591 581.018 100.264 597C101.382 601.867 105.739 605.102 106.721 610C108.582 619.286 102.44 626.482 109.299 634.867C113.595 640.118 121.215 639.506 127 642.377C133.541 645.624 139.147 650.829 146 653.444C157.561 657.857 170.646 658.277 182 662.879C187.202 664.987 195.266 671.362 196.682 677C197.76 681.293 195.243 687.69 199.318 690.775C207.312 696.829 222.256 699.685 232 700.711C236.006 701.132 241.138 698.817 244.721 701.133C248.318 703.457 248.38 709.308 249.7 713C251.823 718.94 255.918 723.59 259 729C277.646 724.684 282.117 700.058 302 698.164C308.749 697.52 315.225 702.552 322 702.487C326.243 702.446 329.75 699.433 334 699.12C347.195 698.147 360.069 706.227 362.22 720C363.623 728.983 350.877 743.152 355.053 749.787C360.303 758.127 372.866 758.705 380.895 762.032C385.018 763.74 397.527 778.731 398.897 783C401.455 790.975 391.244 790.306 388.564 795.39C380.27 811.124 393.794 822.378 406.09 828.972C410.729 831.46 424.886 830.133 428.077 825.772C431.11 821.626 431.914 813.54 437.21 811.328C440.609 809.908 446.284 812.058 450 811.985C465.532 811.679 476.147 813.723 491 818L490.606 804L484 785L499 782C499.143 764.699 501.124 752.47 492 737C503.401 736.057 508.636 722.838 518 716.951C522.036 714.414 528.269 712.476 529.107 706.996C529.91 701.75 525.185 693.673 523 689C515.498 692.118 501.196 696.301 493 695.03C486.767 694.063 481.522 689.874 475 690.059C464.272 690.362 454.324 698.985 443.015 698.566C438.087 698.384 436.482 692.851 432.895 690.243C422.939 683.004 406.34 680.613 400.028 668.911C396.327 662.049 398.341 653.278 394.204 646.015C391.987 642.123 384.502 638.462 383.755 634.335C383.194 631.234 387.538 626.462 388.035 623C390.418 606.404 382.58 597.815 368 591C371.616 586.572 385.686 577.754 382.713 571.133C379.923 564.92 372.015 563.749 370 556C375.938 555.531 394.048 559.172 398.258 555.958C400.71 554.086 400.621 548.775 401.08 546C402.275 538.789 403.852 531.527 411 527.708C416.128 524.969 421.742 530.09 428 527C424.638 521.177 419.977 512.381 415.351 507.637C413.077 505.305 409.754 504.436 407.727 501.787C401.479 493.623 399.028 484.516 388 480.6C381.467 478.279 371.895 480 365 480L365 454C358.088 453.449 346.46 446.626 341.637 441.581C339.429 439.271 338.645 435.901 335.787 434.175C328.256 429.627 323.304 431.457 317 424z"/>
</svg>
