<?xml version="1.0" standalone="yes"?>
<svg xmlns="http://www.w3.org/2000/svg" width="1332" height="1450">
<path style="fill:#010101; stroke:none;" d="M0 0L0 1450L1332 1450L1332 0L0 0z"/>
<path style="fill:#ffffff; stroke:none;" d="M1104 1298C1094.47 1303.53 1085.81 1299.62 1076 1302.51C1068.29 1304.79 1062.18 1310.82 1054 1312.95C1049.16 1314.21 1039.39 1311.34 1036.12 1316.56C1033.36 1320.96 1039.38 1328.77 1040.48 1333C1043.47 1344.45 1042.48 1355.54 1041 1367C1028.4 1366.74 1017.57 1366.84 1009 1378L1030 1379C1024.96 1387.47 1014.86 1389.62 1014 1400C1029.71 1400 1040.68 1406.94 1055 1412.34C1064.34 1415.86 1078.06 1418.17 1088 1419.67C1103.35 1422 1116.5 1411 1132 1414C1134.41 1407.62 1134.89 1400.01 1138.14 1394C1144.16 1382.85 1163.95 1369.72 1155 1357L1167 1350L1146 1347C1147.95 1342.18 1149.42 1337.24 1143 1335.11C1137.13 1333.17 1130.85 1339.14 1125 1336.8C1109.52 1330.61 1108.46 1310.43 1104 1298z"/>
</svg>
