<?xml version="1.0" standalone="yes"?>
<svg xmlns="http://www.w3.org/2000/svg" width="1332" height="1450">
<path style="fill:#010101; stroke:none;" d="M0 0L0 1450L1332 1450L1332 0L0 0z"/>
<path style="fill:#ffffff; stroke:none;" d="M628 616C617.611 617.342 600.347 623.966 594.417 633.21C590.973 638.579 591.014 646.906 586.351 651.436C584.246 653.481 581.015 653.44 578.966 655.564C576.635 657.981 576.113 661.949 572.787 663.397C568.682 665.183 564.027 662.971 560.039 665.603C551.302 671.372 546.498 684.602 536.996 689.071C533.079 690.913 528.292 687.928 524 689C525.684 693.977 530.627 701.707 529.533 706.999C528.384 712.558 522.303 714.818 518 717.348C508.716 722.807 504.079 734.814 494 738L500.644 752.714L498.781 761.001L500 783L485 785C486.371 791.626 489.967 797.484 491.351 804C492.256 808.262 490.807 812.628 491.619 817C492.405 821.233 495.261 825.687 495.012 830C494.536 838.215 479.271 844.498 485.14 852.57C488.722 857.496 497.928 856.861 503 855.626C513.61 853.042 533.279 845.57 543.981 849.028C552.099 851.651 546.597 862.432 552.434 865.397C561.771 870.14 574.525 870.833 585 871.83C590.233 872.328 596.487 870.637 599.593 876.059C602.297 880.778 599.73 885.119 599.39 890C598.857 897.672 599.123 907.926 602 915C614.557 909.144 615.891 901.713 631 906C635.007 899.135 637.977 893.037 638 885C641.508 885.988 647.181 888.637 650.7 886.882C657.027 883.726 656.589 875.619 658.66 870C660.686 864.502 664.949 859.762 666.323 854C667.195 850.343 664.937 846.536 666.762 843.089C672.426 832.393 682.654 814.572 673.851 802.213C670.135 796.996 660.284 796.917 659.148 789.957C657.299 778.626 666.802 765.921 667.513 754.043C667.797 749.298 662.72 746.623 661.653 741.999C659.236 731.53 669.917 721.303 678 717C676.4 710.087 671.808 705.403 669.603 699C667.65 693.325 672.148 676.939 675.728 672.213C679.756 666.894 687.554 666.517 690.365 659.957C692.788 654.3 689.237 648.374 691.944 643C697.437 632.095 714.306 630.131 716.977 619C717.873 615.264 714.649 612.557 714.308 609C713.977 605.553 715.132 602.524 713.735 599.109C710.007 589.989 696.89 595.131 690 594.536C682.437 593.884 674.382 590.643 667 590.539C662.47 590.475 658.203 593.867 654 595.251C642.857 598.919 626.153 600.974 628 616z"/>
</svg>
