<?xml version="1.0" standalone="yes"?>
<svg xmlns="http://www.w3.org/2000/svg" width="1332" height="1450">
<path style="fill:#010101; stroke:none;" d="M0 0L0 1450L1332 1450L1332 0L0 0z"/>
<path style="fill:#ffffff; stroke:none;" d="M921 1235C933.038 1237.52 941.535 1243.62 948 1254L962.039 1236.07L982 1239C981.76 1233.42 982.696 1223.26 980.397 1218.28C978.982 1215.21 974.567 1214.59 972.089 1212.58C962.444 1204.78 956.489 1197.58 943 1197C942.386 1177.69 921.606 1174.33 915.14 1193C913.59 1197.48 917.489 1202.68 918.623 1207C921.09 1216.41 921 1225.34 921 1235z"/>
</svg>
