<?xml version="1.0" standalone="yes"?>
<svg xmlns="http://www.w3.org/2000/svg" width="1332" height="1450">
<path style="fill:#010101; stroke:none;" d="M0 0L0 1450L1332 1450L1332 0L0 0z"/>
<path style="fill:#ffffff; stroke:none;" d="M1105 1284C1106.67 1291.32 1103.71 1298.96 1105.36 1305.79C1106.12 1308.94 1109.8 1309.91 1110.68 1313.1C1113.28 1322.52 1113.03 1330.93 1124 1335.93C1129.8 1338.58 1136.11 1332.9 1142 1334.4C1148.31 1336.02 1148.94 1340.83 1147 1346C1151.56 1346.36 1165.96 1350.17 1169.15 1346.39C1172.31 1342.66 1167.68 1338.38 1173.1 1334.57C1179 1330.43 1186.07 1332.7 1190.65 1325.83C1194.89 1319.45 1193.13 1309.13 1200.09 1304.64C1202.79 1302.91 1205.97 1304.47 1208.61 1302.93C1212.46 1300.7 1215.22 1295.23 1219 1292.38C1228.56 1285.15 1244.2 1279.34 1249 1268L1280 1275C1275.64 1263.21 1264.05 1271.54 1257.32 1263.81C1252.43 1258.2 1259.37 1248.92 1255.31 1244.64C1249.17 1238.19 1234.68 1251.91 1228.02 1250.6C1222.71 1249.55 1223.45 1244.06 1221.49 1240.32C1219.39 1236.34 1212.53 1231.65 1208 1231.52C1198.22 1231.26 1183.9 1238.13 1177.65 1245.46C1174.53 1249.12 1174.58 1255.15 1170.61 1258.06C1164.72 1262.38 1156.5 1257.73 1150.39 1260.6C1146.44 1262.46 1145.78 1268.19 1141.9 1270.59C1130.75 1277.46 1117.04 1279.36 1105 1284z"/>
</svg>
