<?xml version="1.0" standalone="yes"?>
<svg xmlns="http://www.w3.org/2000/svg" width="1332" height="1450">
<path style="fill:#010101; stroke:none;" d="M0 0L0 1450L1332 1450L1332 0L0 0z"/>
<path style="fill:#ffffff; stroke:none;" d="M870 1136L879 1153L873 1153C873.624 1160.56 884.482 1169.58 892.536 1164.96C897.246 1162.25 901.016 1151.98 907.421 1152.57C911.4 1152.94 913.874 1158.16 916.464 1160.61C921.232 1165.12 930.038 1166.55 935.856 1162.99C939.277 1160.89 947.991 1141.84 945.203 1138.6C942.337 1135.28 932.983 1137 929 1137C929 1129.62 930.05 1118.54 924 1114C921.781 1112.34 914.922 1115.36 913 1116C909.825 1117.06 903.988 1115.51 901 1117C896.953 1119.02 891.25 1123.08 888 1126C886.587 1127.27 886.691 1130.15 885 1131C883.075 1131.96 879.69 1129.1 877 1130C872.624 1131.46 872.453 1136.61 870 1136z"/>
</svg>
