<?xml version="1.0" standalone="yes"?>
<svg xmlns="http://www.w3.org/2000/svg" width="1105" height="1450">
<path style="fill:#010101; stroke:none;" d="M0 0L0 1450L1105 1450L1105 0L0 0z"/>
<path style="fill:#ffffff; stroke:none;" d="M668 657C664.164 666.639 657.434 673.094 652.657 682C649.61 687.68 651.982 694.29 647.034 699.643C642.178 704.896 626.241 698.66 621 696C624.598 704.505 634.351 709.504 643 712C641.717 715.081 638.428 719.472 638.994 722.91C640.195 730.206 655.222 733.771 661 736C668.141 725.163 674.821 712.448 680.98 701C684.02 695.349 687.237 692.572 685 686C690.977 686.923 692.979 684.417 695 679C684.263 673.129 681.452 659.925 668 657z"/>
</svg>
