<?xml version="1.0" standalone="yes"?>
<svg xmlns="http://www.w3.org/2000/svg" width="1105" height="1450">
<path style="fill:#010101; stroke:none;" d="M0 0L0 1450L1105 1450L1105 0L0 0z"/>
<path style="fill:#ffffff; stroke:none;" d="M262 763L264 770L260 772L255 766L256 786L252 785C253.308 776.935 247.98 771.157 245 764L233 770L235 775L240 774L235 778L239 792C234.61 794.561 233.658 798.14 233 803L228 803L230 794L221 799L220 789L229 789L226 782C214.681 785.992 218.276 796.672 215.034 806C213.014 811.813 209.303 816.508 210.472 823C212.74 835.593 223.207 833.066 228 824L229 824C236.483 828.245 237.673 828.405 242 837L275 843C274.139 848.578 269.836 850.484 267.434 855.17C265.677 858.597 265.655 863.238 265.13 867C263.416 879.3 264.081 889.921 264.086 902C264.088 905.802 265.418 911.467 270.054 911.562C279.515 911.755 281.096 901.159 285.027 895.43C287.135 892.358 291.797 892.352 294.273 889.467C299.054 883.897 302.037 875.524 306.854 870.539C309.558 867.741 314.59 870.934 318 870.489C328.084 869.174 334.373 865.657 345 867L345.147 847L344.987 822.043L336 812L297 824C298.061 818.367 302.027 809.507 301.086 804C300.547 800.841 297.992 798.032 296.899 795C292.969 784.102 275.626 756.478 262 763z"/>
</svg>
