<?xml version="1.0" standalone="yes"?>
<svg xmlns="http://www.w3.org/2000/svg" width="1105" height="1450">
<path style="fill:#010101; stroke:none;" d="M0 0L0 1450L1105 1450L1105 0L0 0z"/>
<path style="fill:#ffffff; stroke:none;" d="M680 384C673.004 392.674 676.927 404.065 665 408C665.893 417.478 655.771 419.345 655.089 429C654.09 443.169 663.359 453.106 665.012 467C665.613 472.053 660.663 478.101 663.219 482.772C666.11 488.055 675.18 490.175 679.034 495.213C685.156 503.216 683.189 511.301 694 515C698.964 504.387 706.49 493.873 707 482C720.941 481.538 727.827 459.978 730.717 449C731.567 445.77 728.884 441.097 732.322 438.792C736.861 435.75 743.217 444.154 748 444.461C751.552 444.69 753.865 441.696 757 440.599C761.476 439.033 766.372 439.687 771 438C767.384 417.718 748.338 420.66 735.225 409.363C729.181 404.157 729.784 394.107 720 392.851C712.803 391.927 708.231 402.876 701.719 401.329C697.094 400.231 696.127 395.469 693.352 392.39C690.083 388.764 684.245 386.354 680 384z"/>
</svg>
