<?xml version="1.0" standalone="yes"?>
<svg xmlns="http://www.w3.org/2000/svg" width="1105" height="1450">
<path style="fill:#010101; stroke:none;" d="M0 0L0 1450L1105 1450L1105 0L0 0z"/>
<path style="fill:#ffffff; stroke:none;" d="M427 513L425 509C421.282 510.456 419.476 511.22 416 509L415 509L399 506L404 521C401.374 520.264 397.132 518.397 394.603 520.218C389.186 524.12 391.431 539.579 398 541L404 532C405.568 540.035 404.515 547.777 406.475 556C407.236 559.191 407.021 563.819 411.109 564.627C415.351 565.466 418.348 561.563 422 560.312C425.183 559.223 428.788 560.57 432 561C432.023 567.473 432.964 570.771 440 571C439.102 573.329 438.159 575.641 437.344 578.002C435.247 584.076 437.43 592.199 443.189 583.941C445.696 580.346 449.235 576.237 450.487 572C451.437 568.785 450.357 565.129 452.028 562.105C453.523 559.398 456.32 558.183 459 557C458.006 549.172 459.025 539.371 457.258 532C456.412 528.47 452.986 525.739 452.988 522C452.989 517.089 457.453 514.29 455.877 509C451.116 493.029 433.749 505.44 427 513z"/>
</svg>
