<?xml version="1.0" standalone="yes"?>
<svg xmlns="http://www.w3.org/2000/svg" width="1105" height="1450">
<path style="fill:#010101; stroke:none;" d="M0 0L0 1450L1105 1450L1105 0L0 0z"/>
<path style="fill:#ffffff; stroke:none;" d="M549 594L555 612L569 610L550 622L551 623C559.771 619.562 558.812 624.865 565.213 629.012C568.787 631.327 571.634 631.049 574 635C568.664 636.945 563.302 636.201 558 637.8C550.627 640.024 540.238 647.345 534.319 652.324C529.018 656.782 536.624 670.187 542.015 671.886C546.778 673.387 550.71 668.882 555 667.653C558.805 666.563 562.349 668.034 566 669C564.587 676.725 570.081 691.215 577.225 695.431C581.61 698.019 587.586 697.904 591.682 701.086C595.449 704.012 592.555 708.929 595.028 712.348C598.352 716.945 613.51 718.7 619 720L617 728L621 729L634.895 723.82L642 713C633.229 707.827 624.157 704.909 620 695C626.075 697.694 642.673 704.836 647.647 697.848C651.438 692.522 649.407 686.231 652.943 681C657.828 673.774 667.566 665.765 665.951 656C664.616 647.935 662.094 637.112 657.725 630.133C652.661 622.044 648.446 630.586 648 636C638.894 632.216 634.582 632.992 626 638L619 616C612.146 614.728 605.255 617.626 599.015 616.558C595.648 615.982 593.469 612.776 589.961 612.552C584.503 612.205 578.159 616.407 573.873 610.606C571.059 606.796 574.29 603.01 574.232 599C574.159 594.04 570.609 588.102 567 585L566 589C557.957 585.88 551.998 583.934 549 594z"/>
<path style="fill:#010101; stroke:none;" d="M619 694L620 695L619 694z"/>
</svg>
