<?xml version="1.0" standalone="yes"?>
<svg xmlns="http://www.w3.org/2000/svg" width="1105" height="1450">
<path style="fill:#010101; stroke:none;" d="M0 0L0 1450L1105 1450L1105 0L0 0z"/>
<path style="fill:#ffffff; stroke:none;" d="M96 1127C109.859 1130.79 111.668 1141.48 114 1154L111 1153L102.981 1169.04L102 1185C115.079 1188.46 118.518 1181.91 130 1178.11C135.189 1176.39 139.668 1176.86 145 1174.4C153.011 1170.7 168.952 1170.57 178 1170.11C182.21 1169.89 186.934 1172.73 190.682 1169.84C193.455 1167.69 192.798 1163.95 194.009 1161C196.292 1155.44 205.335 1148.21 198.991 1141.61C195.412 1137.88 187.034 1142.01 182.09 1138.35C177.193 1134.72 175.583 1127.46 170.61 1124.31C164.034 1120.15 155.149 1122.91 148 1122.27C143.624 1121.88 140.282 1118.32 136 1117.39C126.89 1115.41 101.527 1118.92 96 1127z"/>
</svg>
