<?xml version="1.0" standalone="yes"?>
<svg xmlns="http://www.w3.org/2000/svg" width="1105" height="1450">
<path style="fill:#010101; stroke:none;" d="M0 0L0 1450L1105 1450L1105 0L0 0z"/>
<path style="fill:#ffffff; stroke:none;" d="M120 877C118.2 879.555 115.424 882.572 116.237 885.96C117.377 890.713 123.497 892.598 126.391 896.104C131.692 902.526 135.541 910.597 139.247 918C143.684 926.862 152.051 930.092 157.272 938.015C160.737 943.272 159.978 950.486 163.442 955.721C166.34 960.101 173.066 961.51 176.61 966.001C181.64 972.375 183.196 980.968 189.105 986.714C197.481 994.857 213.64 997.402 220.308 1006.21C224.425 1011.65 217.565 1018.57 221.194 1023.4C225.317 1028.88 238.499 1026.06 243 1023C244.066 1031.44 243.64 1040.77 245.39 1049C247.257 1057.78 252.945 1065.66 256.049 1074C259.327 1082.81 260.088 1092.89 262.971 1102C264.05 1105.41 265.44 1109.42 264.472 1113C263.521 1116.52 257.418 1121.92 262.192 1124.97C272.551 1131.59 280.958 1119.8 289.04 1118.17C295.796 1116.8 302.571 1119.95 310 1117.39C318.805 1114.35 327.289 1105.27 336.004 1103.33C341.101 1102.2 346.02 1107.73 350.775 1105.44C353.805 1103.98 354.134 1099.97 357.225 1098.6C360.782 1097.03 365.204 1098.68 368.49 1096.06C371.546 1093.63 371.392 1087.89 375.62 1086.66C378.985 1085.68 391.827 1084.48 395 1086.03C401.811 1089.35 403.744 1095.32 412 1096L400.799 1065L391.687 1036L377.424 1018L372.957 981L370.555 967L377 946L357 944L365 937C360.097 932.185 352.805 930.183 348.509 925.606C344.491 921.325 342.487 914.057 336.896 911.218C333.572 909.529 329.501 910.872 326 909.343C322.03 907.61 318.711 902.446 314.015 902.778C307.499 903.238 304.369 914.454 301.046 918.892C297.001 924.294 289.851 923.089 285.303 927.43C281.242 931.307 279.476 941.605 278 947L276 947L266 929L264 929L261 945L260 945C255.201 935.159 250.098 942.633 243 938.327C237.763 935.15 234.456 929.139 229.406 926.042C226.502 924.262 222.287 925.833 219 924.637C201.265 918.186 188.493 914.752 170 920C168.343 911.995 166.158 899.528 160.034 893.603C157.405 891.06 152.327 891.985 149 890.648C138.891 886.586 130.799 879.5 120 877z"/>
</svg>
