<?xml version="1.0" standalone="yes"?>
<svg xmlns="http://www.w3.org/2000/svg" width="1105" height="1450">
<path style="fill:#010101; stroke:none;" d="M0 0L0 1450L1105 1450L1105 0L0 0z"/>
<path style="fill:#ffffff; stroke:none;" d="M564 827C564 835.861 555.947 843.34 558.211 850.999C561.275 861.366 567.793 858.173 576 859.484C581.548 860.37 585.236 866.749 590.911 866.708C602.642 866.623 615.033 849.303 624 866L625 866L629 826C624.08 824.614 617.365 824.129 613.144 821.146C610.44 819.234 610.015 815.802 607.571 813.738C604.033 810.75 594.478 809.646 590.018 810.383C577.662 812.426 575.734 826.894 564 827z"/>
</svg>
