<?xml version="1.0" standalone="yes"?>
<svg xmlns="http://www.w3.org/2000/svg" width="1105" height="1450">
<path style="fill:#010101; stroke:none;" d="M0 0L0 1450L1105 1450L1105 0L0 0z"/>
<path style="fill:#ffffff; stroke:none;" d="M861 328L864.744 349L863 362L858 362C858 374.95 853.021 387.549 841 394C841.888 399.541 855.863 415.993 862.062 409.382C865.074 406.169 863.666 399.961 864.305 396C865.063 391.302 867.799 388.306 871 385C870.876 390.271 868.144 394.824 868.083 400C867.954 410.776 876.125 418.822 882 427L898 411L912 419C914.02 413.124 913.159 404.314 908.351 399.702C905.618 397.08 900.29 396.74 900.086 391.997C899.752 384.216 923.286 379.323 929 376C927.322 370.088 926.095 363.213 922.74 358C908.79 336.325 883.775 333.486 861 328z"/>
</svg>
