<?xml version="1.0" standalone="yes"?>
<svg xmlns="http://www.w3.org/2000/svg" width="1105" height="1450">
<path style="fill:#010101; stroke:none;" d="M0 0L0 1450L1105 1450L1105 0L0 0z"/>
<path style="fill:#ffffff; stroke:none;" d="M196 294C197.644 286.313 191.406 281.885 189 275C201.812 270.889 201.659 282.359 206 291C209.375 297.719 207.848 304.108 209.901 311C213.992 324.729 220.573 337.395 225 351L212 350C217.589 357.974 217.937 367.097 223.363 374.772C225.407 377.663 228.977 377.933 231.302 380.426C234.585 383.947 236.14 389.212 242 389.328C246.177 389.41 250.088 385.297 254 384L258 390L285 394L280 410L281 410C286.145 399.864 287.365 389.225 291.97 379C293.981 374.535 298.081 371.901 300.586 367.83C304.28 361.83 305.322 354.07 313.001 351.653C319.433 349.628 326.831 352.539 333 354.29C338.588 355.876 344.148 356.33 348 361C352.354 359.801 353.591 357.435 356.374 354.085C359.843 349.91 367.21 343.612 364.393 337.278C361.402 330.551 345.023 332.008 339 329.872C335.764 328.724 332.576 326.408 329.001 326.583C325.819 326.737 323.897 328.736 322 331L326 332L326 333C321.639 334.193 315.547 338.42 311.04 336.577C306.713 334.808 305.596 328.391 300.896 327.619C296.779 326.943 293.169 330.413 289 330.107C274.148 329.017 265.318 321.317 255 312L258 311C250.819 298.367 255.12 292.14 269 294L276 284L277 284L281 287L291 276C281.423 264.745 268.022 268.175 256 263.005C244.491 258.056 235.048 240.06 222.17 237.863C218.934 237.311 212.901 240.918 210.004 242.327C205.307 244.612 193.026 253.587 190.894 258.225C189.084 262.159 189.573 266.869 187.766 271C184.114 279.35 186.021 290.95 196 294z"/>
</svg>
