<?xml version="1.0" standalone="yes"?>
<svg xmlns="http://www.w3.org/2000/svg" width="1105" height="1450">
<path style="fill:#010101; stroke:none;" d="M0 0L0 1450L1105 1450L1105 0L0 0z"/>
<path style="fill:#ffffff; stroke:none;" d="M450 459L436.09 458.353L427.985 452.498L420 447C415.4 444.824 409.152 437.987 404.019 438.216C398.087 438.481 396.79 448.91 394.319 453C388.729 462.253 394.888 466.944 392.569 476C391.101 481.734 385.199 485.645 385.514 492C385.878 499.351 390.56 503.092 389 511L401 514L398 505C403.896 505.784 409.883 512.848 415 508L416 508L428 512C432.071 506.771 446.377 494.675 453.034 502.318C460.595 510.999 451.608 515.697 453.821 524C454.689 527.256 457.42 529.626 458.062 533C459.423 540.152 456.737 547.828 459.89 554.867C461.416 558.276 465.243 559.571 466.895 563.044C469.416 568.344 469.69 575.588 474.144 579.721C478.794 584.036 484.581 582.576 489.961 584.599C493.772 586.032 495.828 589.141 500 590L500 569L496 570L493 560L504 553.661L522 561L523 560C519.696 552.899 507.293 549.101 500 547L502 541C512.216 545.824 512.044 535.965 515 529L516 529L520 541L522 532L529 538C525.335 525.151 524.023 508.682 540 504C535.848 502.258 531.297 503.72 527 502.49C518.596 500.084 509.789 495.685 503 490.195C500.291 488.005 494.386 484.216 494.921 480.104C495.88 472.735 508.506 470.701 501.062 460.39C493.503 449.92 476.471 444.58 465.615 440.454C462.196 439.154 460.259 434.447 456.039 435.137C444.912 436.955 447.965 452.382 450 459z"/>
</svg>
