<?xml version="1.0" standalone="yes"?>
<svg xmlns="http://www.w3.org/2000/svg" width="1105" height="1450">
<path style="fill:#010101; stroke:none;" d="M0 0L0 1450L1105 1450L1105 0L0 0z"/>
<path style="fill:#ffffff; stroke:none;" d="M474 940L477 958L460 957.936L449 955L451.393 973.91L426.924 995.043L426 1014L420 1011C405.795 1014.26 405.092 1018.7 399.352 1030.99C397.676 1034.57 394.189 1036.76 394.228 1041.01C394.289 1047.68 397.69 1052.07 399.867 1058C403.276 1067.29 405.53 1076.9 409.78 1086C412.701 1092.26 412.089 1102.66 417.533 1107.27C422.461 1111.45 430.148 1108.96 436 1110C438.158 1105.76 446.403 1096.14 451.105 1095.04C459.525 1093.07 464.547 1097.67 471 1089L472 1089C477.796 1095.92 484.234 1094.24 487.289 1086C492.494 1071.97 486.271 1058.24 501 1049L494 1037C499.704 1036.28 507.566 1037.21 512.714 1034.57C525.77 1027.89 527.99 1012.22 520.034 1001.09C515.678 995.001 504.33 995.8 502.319 987.96C499.751 977.952 515.66 974.011 517.595 964C520.683 948.022 507.566 947.16 498.426 939.161C494.857 936.038 495.144 930.301 488.996 930.583C483.606 930.831 478.192 936.986 474 940z"/>
</svg>
