<?xml version="1.0" standalone="yes"?>
<svg xmlns="http://www.w3.org/2000/svg" width="1105" height="1450">
<path style="fill:#010101; stroke:none;" d="M0 0L0 1450L1105 1450L1105 0L0 0z"/>
<path style="fill:#ffffff; stroke:none;" d="M281 288L277 285L276 285C273.685 287.675 271.215 292.314 267.826 293.672C263.809 295.282 259.236 291.655 255.757 295.654C250.336 301.884 259.261 312.481 265.001 314.401C272.006 316.745 279.987 322.789 287 323.628C290.949 324.101 294.167 321.605 298 321.542C302.311 321.472 318.075 327.013 321 330C329.976 324.516 332.612 328.077 342 329.904C359.665 333.343 380.625 345.477 398 339C386.828 319.369 372.077 301.145 348 297.595C341.842 296.687 334.436 304.064 329.576 302.042C314.428 295.741 294.049 262.845 281 288z"/>
</svg>
