<?xml version="1.0" standalone="yes"?>
<svg xmlns="http://www.w3.org/2000/svg" width="1105" height="1450">
<path style="fill:#010101; stroke:none;" d="M0 0L0 1450L1105 1450L1105 0L0 0z"/>
<path style="fill:#ffffff; stroke:none;" d="M270 458L248.09 447.718L240 449L240 466L229 467L224 484L215 482C212.418 487.457 201.934 498.738 212 502L214 497C232.706 502.424 230 519.125 230 536L242 538L237 532L242 531L231 528L231 524L257 533C260.502 527.4 265.322 520.296 271.004 516.742C274.855 514.334 279.7 515.192 284 514.381C295.731 512.169 309.107 506.935 320 514L325 497L325 496L322 494L322 493C330.177 487.411 321.017 483.595 320.163 476.999C319.503 471.902 322.725 467.83 323.367 463C323.815 459.628 321.641 456.43 322.361 453.105C323.436 448.146 330.1 448.502 332.79 444.772C340.416 434.199 343.417 422.521 346 410C341.537 406.856 334.295 396.128 328.109 397.876C322.181 399.551 323.201 413.036 317.815 417.351C313.526 420.787 304.353 425.9 299 427.015C294.595 427.933 290.34 426.651 286.015 428.653C278.728 432.025 270.63 450.356 270 458z"/>
</svg>
