<?xml version="1.0" standalone="yes"?>
<svg xmlns="http://www.w3.org/2000/svg" width="1105" height="1450">
<path style="fill:#010101; stroke:none;" d="M0 0L0 1450L1105 1450L1105 0L0 0z"/>
<path style="fill:#ffffff; stroke:none;" d="M739 536L740 536L748 530L762 548C745.756 555.99 773.739 579.285 780 587L781 587C792.931 576.585 805.567 566.894 817 556.04C821.557 551.714 826.926 549.605 828 543L840 537C836.411 529.952 829.848 536.797 825.938 530.876C823.187 526.709 825.574 522.453 824.528 518.089C823.797 515.041 820.94 513.114 820.357 509.985C819.589 505.859 822.784 501.967 819.412 498.322C815.118 493.679 804.55 495.562 799 496L799 492C811.727 490.014 811.951 482.479 816.442 473C817.844 470.041 823.192 465.017 820.203 461.607C818.258 459.388 814.471 460.519 812 460.87C804.302 461.965 793.676 462.261 787 466L786.647 445.319L773 438C767.529 439.56 761.196 439.789 756 441.599C753.253 442.556 751.082 445.184 748 445.045C743.416 444.838 737.074 436.175 732.604 439.122C729.867 440.926 731.992 445.06 731.707 447.576C731.161 452.385 727.91 460.523 726.377 465.282C724.289 471.764 714.329 474.567 714.266 482C714.21 488.599 723.311 491.774 725.971 497.015C728.325 501.651 725.047 506.266 725.564 511C726.443 519.052 733.731 530.13 739 536z"/>
</svg>
