<?xml version="1.0" standalone="yes"?>
<svg xmlns="http://www.w3.org/2000/svg" width="1105" height="1450">
<path style="fill:#010101; stroke:none;" d="M0 0L0 1450L1105 1450L1105 0L0 0z"/>
<path style="fill:#ffffff; stroke:none;" d="M171 830L177 832C168.51 842.126 173.738 857.998 187 858C186.487 867.874 178.246 870.811 171 876L172 881L166 883L162 881L168 895L165 896L161 892L171 919C189.494 913.752 201.249 918.165 219 924.031C222.146 925.07 225.896 923.671 228.791 925.117C234.193 927.817 237.433 934.963 243 938.064C250.097 942.018 254.579 934.855 260 944L261 944L263 928L277 946C280.073 940.229 280.387 931.798 285.144 927.228C289.606 922.942 296.861 923.833 300.676 918.775C304.028 914.332 307.944 901.57 315.001 902.327C318.82 902.737 321.591 906.823 325 908.347C329.054 910.159 334.085 908.65 337.787 911.049C342.793 914.292 344.921 921.142 348.839 925.347C351.665 928.381 361.03 933.379 365 935C366.445 925.71 377.922 921.727 380.968 913C382.472 908.694 379.108 904.752 377.528 901C373.881 892.339 369.908 870.775 359 869C358.892 871.447 357.905 875.102 354.458 874.32C348.78 873.032 346.021 867.582 339 867.089C327.355 866.273 319.589 872.298 308 869C304.054 876.85 300.547 883.15 294.571 889.671C292.222 892.235 288.018 892.847 286.027 895.559C283.806 898.586 284.082 901.63 281.154 904.594C277.94 907.848 271.363 917.131 266.075 910.667C261.336 904.875 264.628 899.294 264.853 893C264.995 889.002 262.467 885.855 262.151 882C261.597 875.245 263.799 864.523 265.723 858.004C267.394 852.341 273.063 850.054 274 844L242 838C237.813 828.977 236.885 827.873 228 825L225 833C222.443 833 219.533 833.341 217.04 832.682C201.608 828.603 214.796 808.684 215 800C196.262 800 167.417 806.005 171 830z"/>
</svg>
