<?xml version="1.0" standalone="yes"?>
<svg xmlns="http://www.w3.org/2000/svg" width="1105" height="1450">
<path style="fill:#010101; stroke:none;" d="M0 0L0 1450L1105 1450L1105 0L0 0z"/>
<path style="fill:#ffffff; stroke:none;" d="M366 336C365.634 351.2 348.513 357.595 347.823 372.996C347.447 381.368 360.105 380.175 362.508 387.093C365.129 394.642 351.607 401.25 355.897 410.772C358.287 416.075 371.867 414.24 377 416.09C382.875 418.208 385.315 422.447 390.104 425.891C393.712 428.486 398.306 429 401.486 432.224C407.318 438.134 414.903 447.093 424 447.617C428.507 447.877 435.662 447.283 438.768 443.697C442.851 438.981 448.274 424.819 456.004 426.141C463.427 427.411 467.062 434.593 471.584 439.37C476.061 444.099 483.577 447.971 489 451.656C492.79 454.231 499.022 459.751 503.682 456.091C510.356 450.849 501.62 438.807 500.279 433C499.39 429.153 501.715 425.848 501.347 422C500.751 415.769 494.876 404.689 491.697 399.105C489.574 395.377 479.32 393.771 479.192 389.945C478.993 383.992 490.106 381.193 494 379L493 369L490 372C485.221 371.222 483.786 368.245 482 364L487 362C483.262 356.025 475.176 343.502 467 344.028C460.134 344.47 454.343 349.651 447 348.775C437.926 347.693 430.056 340.833 421 339.633C409.988 338.174 397.91 342.639 387 342.653C379.962 342.662 372.446 338.486 366 336z"/>
</svg>
