<?xml version="1.0" standalone="yes"?>
<svg xmlns="http://www.w3.org/2000/svg" width="1105" height="1450">
<path style="fill:#010101; stroke:none;" d="M0 0L0 1450L1105 1450L1105 0L0 0z"/>
<path style="fill:#ffffff; stroke:none;" d="M166 446L167 446C170.439 442.987 176.253 432.158 180.109 431.604C184.599 430.959 194.225 433.38 197.397 436.702C200.468 439.918 200.071 449.853 207.678 447.083C210.69 445.987 209.336 440.887 211.342 438.594C219.813 428.909 230.788 417.981 245 420C242.606 415.781 236.412 414.788 235.002 409.961C231.779 398.922 254.197 403.009 259 404C258.265 396.572 257.554 390.922 253 385C249.451 386.177 245.759 389.863 242 389.838C236.143 389.799 234.061 383.863 230.505 380.559C227.75 377.998 224.486 377.377 222.363 373.956C218.936 368.433 219.75 361.116 216.397 356.039C214.056 352.496 210.046 350.086 207.17 346.985C203.814 343.367 199.49 335.933 194.015 335.546C187.691 335.099 187.688 345.049 182.945 347.698C177.513 350.731 169.171 351.834 166.117 358.174C164.537 361.454 166.632 365.585 166.74 369C166.946 375.536 166.075 382.401 165.996 389C165.935 394.108 166.587 402.259 165.056 407C163.779 410.957 160.5 414.109 158.931 418C154.744 428.382 159.187 437.986 166 446z"/>
</svg>
