<?xml version="1.0" standalone="yes"?>
<svg xmlns="http://www.w3.org/2000/svg" width="1105" height="1450">
<path style="fill:#010101; stroke:none;" d="M0 0L0 1450L1105 1450L1105 0L0 0z"/>
<path style="fill:#ffffff; stroke:none;" d="M145 262L183 253.992L195 253.837L207.039 243.638L220 235C214.141 232.56 205.043 228.796 203.318 221.996C201.451 214.638 207.44 203.478 200.57 197.603C197.112 194.646 189.372 195.494 185 194.546C178.638 193.168 172.735 189.274 168.001 184.907C155.31 173.199 156.266 157.989 146.622 145C137.174 132.275 125.401 125.146 114.09 114.7C106.432 107.627 99.5886 99.0992 92.108 91.7145C84.9189 84.6174 82.5409 69.4645 79.4244 60C77.6302 54.5514 74.494 47.7488 67.9961 46.8511C61.6843 45.979 53.993 52.7039 53.8071 59C53.7003 62.6167 56.5896 65.7124 57.7546 69C60.3929 76.4453 60.9264 85.2625 65.26 92C73.6015 104.969 86.9914 114.763 93.5872 129C98.2137 138.986 90.9642 148.169 93.6412 158C95.7681 165.811 102.328 171.576 105.396 179C112.691 196.655 117.241 215.27 124.029 232.999C126.167 238.584 131.775 241.062 135.699 245.174C140.241 249.932 142.661 255.971 145 262z"/>
</svg>
