<?xml version="1.0" standalone="yes"?>
<svg xmlns="http://www.w3.org/2000/svg" width="1105" height="1450">
<path style="fill:#010101; stroke:none;" d="M0 0L0 1450L1105 1450L1105 0L0 0z"/>
<path style="fill:#ffffff; stroke:none;" d="M529 502L541 505C521.565 507.634 529.103 527.249 529 540L522 534L519 542L516 530L515 530C512.422 538.482 512.568 544.109 502 543L501 546L518.894 554.138L521.754 560.292L506 554.114L494 560L497 569L501 568C500.76 573.589 498.225 584.584 502.028 589.397C504.099 592.018 508.999 590.187 510.379 593.724C513.568 601.896 505.158 609.661 507.075 617C510.284 629.282 524.675 641.594 531 653L557 637.533L573 635L573 633C570.292 631.672 566.754 631.15 564.39 629.262C561.913 627.284 561.009 623.625 557.896 622.391C556.375 621.788 550.696 623.643 550.6 621.187C550.383 615.609 563.282 613.6 567 612C562.827 609.166 559.115 610.695 555 613C549.599 601.418 545.668 580.515 565 588C568.153 579.995 560.286 576.354 560.357 569C560.506 553.68 578.083 550.314 589 554C589.507 547.957 584.709 544.946 580 542L580 541C582.935 538.994 585.743 535.139 582.397 531.843C579.177 528.672 572.902 527.968 569.004 525.532C558.119 518.73 557.472 509.358 559 498C549.763 498.107 551.478 493.719 544.772 490.373C537.675 486.83 530.772 496.625 529 502z"/>
</svg>
