<?xml version="1.0" standalone="yes"?>
<svg xmlns="http://www.w3.org/2000/svg" width="1105" height="1450">
<path style="fill:#010101; stroke:none;" d="M0 0L0 1450L1105 1450L1105 0L0 0z"/>
<path style="fill:#ffffff; stroke:none;" d="M869 387C863.628 394.26 866.941 420.222 852 407.871C848.71 405.152 845.935 402.731 842 401C837.949 415.87 820.442 416.599 809 421.8C801.722 425.109 788.062 433.046 787.089 442C786.699 445.593 789.84 448.425 789.52 452C789.116 456.522 786.357 459.115 787 464C795.68 462.536 804.268 461.072 813 459.871C815.864 459.477 820.011 458.577 821.265 462.149C822.685 466.195 817.795 470.357 816.651 474C815.553 477.498 815.966 480.849 813.566 483.91C809.87 488.624 803.239 490.21 800 495C805.647 494.559 815.391 493.478 819.613 498.163C823.174 502.115 820.233 506.395 821.318 510.911C821.973 513.638 824.358 515.395 825.173 518.039C826.467 522.238 822.882 531.305 829.144 533.046C845.885 537.699 860.002 524.447 874 516.468C882.812 511.444 897.106 506.562 907 504.453C912.989 503.176 920.29 502.016 925.999 505.013C930.123 507.178 932.347 511.474 937.039 512.695C946.992 515.285 957.42 511.698 967 509L967 508C959.597 503.452 955.587 501.588 947 504C944.314 497.408 942.979 491.536 947.005 485.015C948.886 481.966 953.034 479.604 953.752 475.961C954.519 472.064 950.944 463.185 950 459C948.292 460.815 947.052 462.944 945.39 464.791C933.682 477.797 931.866 456.646 933.622 449C934.105 446.898 934.879 444.347 933.731 442.317C931.348 438.105 923.771 439.997 920.279 436.683C917.083 433.651 916.759 428.681 914.518 425.015C910.899 419.096 904.142 414.906 898 412L883 428L882 428L867.671 404L869 387z"/>
</svg>
