<?xml version="1.0" standalone="yes"?>
<svg xmlns="http://www.w3.org/2000/svg" width="1105" height="1450">
<path style="fill:#010101; stroke:none;" d="M0 0L0 1450L1105 1450L1105 0L0 0z"/>
<path style="fill:#ffffff; stroke:none;" d="M583 799C579.229 801.315 577.462 806.761 582.279 809.503C587.768 812.628 598.244 809.11 604.982 811.613C609.668 813.355 609.317 817.264 612.563 820.146C616.268 823.434 624.262 824.022 629 825L645 766C636.981 764.816 628.585 758.829 620.224 761.318C616.685 762.371 615.896 767.1 612.086 767.828C606.836 768.831 604.736 760.419 598.303 765.09C595.161 767.372 595.942 771.652 593.412 774.302C587.288 780.715 575.356 789.925 583 799z"/>
</svg>
