<?xml version="1.0" standalone="yes"?>
<svg xmlns="http://www.w3.org/2000/svg" width="1105" height="1450">
<path style="fill:#010101; stroke:none;" d="M0 0L0 1450L1105 1450L1105 0L0 0z"/>
<path style="fill:#ffffff; stroke:none;" d="M532 447L522.741 442.692L505 443C506.818 449.469 507.571 453.409 502 458C502.862 462.181 505.228 467.761 502.971 471.826C501.178 475.057 495.02 476.876 495.466 481.103C496.474 490.652 511.999 495.099 519 498.081C521.288 499.055 524.057 501.676 526.722 501.119C529.534 500.531 529.975 496.355 531.702 494.509C534.03 492.021 538.12 490.812 541 489C537.612 479.221 529.007 474.025 532.434 462.019C533.993 456.556 541.961 457.128 541.677 450.982C541.379 444.508 533.955 437.63 532 447z"/>
</svg>
