<?xml version="1.0" standalone="yes"?>
<svg xmlns="http://www.w3.org/2000/svg" width="1105" height="1450">
<path style="fill:#010101; stroke:none;" d="M0 0L0 1450L1105 1450L1105 0L0 0z"/>
<path style="fill:#ffffff; stroke:none;" d="M239 420C232.352 422.549 223.754 424.694 218.965 430.389C216.626 433.171 212.905 436.644 211.062 439.633C209.306 442.484 211.442 446.844 206.938 447.789C199.664 449.317 199.849 441.355 196.988 437.51C194.48 434.14 182.264 430.632 178.559 433.067C166.902 440.731 161.396 469.812 169.032 482C173.774 489.569 185.764 497.028 184.655 506.999C183.237 519.745 161.569 521.034 156 532C172.019 532.044 172.577 549.283 186 552.03C192.68 553.397 205.745 541.104 213 539L213 537L206 536C213.005 527.48 201.029 513.293 198 504C212.776 510.698 208.979 534.404 229 536C229 520.531 232.256 501.818 214 498C211.365 502.58 205.909 502.283 207.007 495.996C207.925 490.74 212.876 485.923 215 481L223 483L228 466L239 465L237.495 437L239 420z"/>
</svg>
