<?xml version="1.0" standalone="yes"?>
<svg xmlns="http://www.w3.org/2000/svg" width="1105" height="1450">
<path style="fill:#010101; stroke:none;" d="M0 0L0 1450L1105 1450L1105 0L0 0z"/>
<path style="fill:#ffffff; stroke:none;" d="M546 869C546.96 873.654 549.586 880.234 548.227 884.96C544.75 897.047 521.84 891.803 514.289 898.318C505.008 906.326 501.555 920.447 494 930L494 931C497.904 936.794 505.01 947.607 513.83 945.228C516.518 944.503 518.425 941.944 521.015 940.878C524.254 939.545 527.909 939.53 530.697 937.146C534.228 934.126 533.759 928.745 536.652 925.214C539.952 921.185 548.461 916.765 553.039 914.085C560.573 909.675 572.983 916.078 578.501 910.566C583.173 905.898 579.087 902.581 579.475 897.576C580.098 889.542 587.511 884.752 579 878C581.634 875.733 586.759 872.892 587.029 868.999C587.655 859.976 563.854 857.756 558.004 858.637C552.394 859.482 550.055 865.692 546 869z"/>
</svg>
