<?xml version="1.0" standalone="yes"?>
<svg xmlns="http://www.w3.org/2000/svg" width="1105" height="1450">
<path style="fill:#010101; stroke:none;" d="M0 0L0 1450L1105 1450L1105 0L0 0z"/>
<path style="fill:#ffffff; stroke:none;" d="M708 483L695 516L684 509C672.352 511.411 655.828 516.859 650 528C657.721 530.448 664.812 532.411 665 542L675 549L676 549C683.698 541.58 700.14 550.056 702.323 560.714C703.629 567.093 696.101 568.326 703.023 574.711C712.211 583.186 725.935 577.06 728 592C717.291 592.876 716.151 597.581 722 606C737.024 599.755 738.269 609.063 751 615L753 611L753 610L751 595C755.357 597.673 754.996 601.256 755 606C765.408 604.144 771.729 593.946 780 588C774.313 578.907 745.555 557.253 761 548L748 531L740 537C733.766 530.616 727.268 520.853 725.14 512C724.102 507.685 726.485 503.389 725.848 499.004C724.892 492.422 714.399 483.486 708 483z"/>
</svg>
