<?xml version="1.0" standalone="yes"?>
<svg xmlns="http://www.w3.org/2000/svg" width="1105" height="1450">
<path style="fill:#010101; stroke:none;" d="M0 0L0 1450L1105 1450L1105 0L0 0z"/>
<path style="fill:#ffffff; stroke:none;" d="M596 1067C599.704 1064.71 601.249 1057.99 595.772 1056.32C589.944 1054.54 581.814 1056.92 576 1058C572.595 1046.25 569.66 1053.57 562.957 1057.16C559.486 1059.02 554.575 1058.94 552.14 1062.39C543.622 1074.46 548.634 1086.87 555.482 1097.98C560.621 1106.32 566.34 1101.35 574 1101.5C576.888 1101.56 579.989 1103.87 582.826 1102.76C587.41 1100.97 588.461 1095.26 594.004 1094.59C599.157 1093.96 603.767 1099.12 608.895 1097.1C612.081 1095.85 618.161 1088.34 618.535 1084.92C618.926 1081.34 614.518 1079.79 611.999 1078.52C605.921 1075.45 598.932 1073.47 596 1067z"/>
</svg>
