<?xml version="1.0" standalone="yes"?>
<svg xmlns="http://www.w3.org/2000/svg" width="1105" height="1450">
<path style="fill:#010101; stroke:none;" d="M0 0L0 1450L1105 1450L1105 0L0 0z"/>
<path style="fill:#ffffff; stroke:none;" d="M581 541C584.822 545.74 589.816 548.403 590 555C579.081 551.313 557.983 553.854 561.319 571C562.985 579.565 570.839 586.803 573.802 595C575.596 599.96 571.309 606.444 574.746 610.566C578.705 615.314 585.113 611.512 589.985 611.944C593.775 612.28 596.163 616.035 600.015 616.168C606.583 616.395 612.957 614.444 620 615L626 637C634.538 633.445 638.105 631.327 647 635C648.453 628.341 654.647 622.136 658.895 631.044C662.103 637.771 662.364 648.85 666.938 654.487C670.363 658.709 677.803 660.833 681.985 665.015C685.027 668.056 688.944 675.936 693.17 677.11C698.115 678.483 703.377 668.09 705.924 665C715.071 653.9 723.143 640.827 734.039 631.326C738.187 627.709 747.886 622.557 747.797 616C747.566 598.92 723.461 608.777 718.958 601.965C714.303 594.922 720.978 592.264 727 591C725.164 577.749 711.671 582.786 703.008 574.833C695.458 567.901 703.508 567.211 701.557 560C698.979 550.47 682.661 540.935 676 550C672.804 547.426 668.138 544.976 665.754 541.625C663.131 537.94 663.495 533.755 658.91 531.317C651.232 527.234 648.835 533.049 642.31 533.392C639.147 533.558 637.321 529.313 633.985 529.071C630.405 528.812 627.687 532.115 624 531.308C615.319 529.407 600.209 519.388 591.174 524.194C584.442 527.775 586.204 536.312 581 541z"/>
</svg>
