<?xml version="1.0" standalone="yes"?>
<svg xmlns="http://www.w3.org/2000/svg" width="1105" height="1450">
<path style="fill:#010101; stroke:none;" d="M0 0L0 1450L1105 1450L1105 0L0 0z"/>
<path style="fill:#ffffff; stroke:none;" d="M736 212C731.46 219.807 730.283 229.351 725.86 236.911C723.753 240.513 719.147 242.54 718.607 247.001C717.731 254.246 723.218 263.26 727 269C712.019 268.648 701.303 253.209 687 252.272C681.282 251.897 679.612 257.331 675.791 260.298C673.241 262.278 669.967 262.741 667.799 265.278C655.488 279.687 661.535 290.741 658 307L673 312.938L682.957 314.333L691.969 328.57L700.503 335.911L694.272 342.278L694.163 354L684 370L695 366C692.191 370.101 679.474 378.464 682.122 383.675C683.92 387.214 688.963 388.303 691.895 390.637C695.54 393.54 696.84 400.001 702.018 400.727C710.721 401.947 714.064 388.56 723.985 393.816C730.764 397.407 730.5 405.53 736.225 409.648C744.724 415.764 757.9 416.789 765.57 423.702C770.583 428.22 770.292 440.971 778.184 442.593C786.322 444.264 798.155 427.967 805 423.548C814.494 417.418 826.51 417.652 835.71 410.436C842.054 405.46 838.289 399.752 841.772 394.329C845.619 388.341 853.102 383.688 855.968 376.816C857.921 372.131 857 365.967 857 361L862 361L860 328C838.67 326.138 835.292 295.765 823.96 281.09C818.692 274.269 810.496 273.559 804.39 268.301C797.886 262.698 795.027 253.374 787.961 247.681C779.944 241.221 769.216 240.045 761 234.072C751.731 227.332 746.945 216.813 736 212z"/>
</svg>
