<?xml version="1.0" standalone="yes"?>
<svg xmlns="http://www.w3.org/2000/svg" width="1105" height="1450">
<path style="fill:#010101; stroke:none;" d="M0 0L0 1450L1105 1450L1105 0L0 0z"/>
<path style="fill:#ffffff; stroke:none;" d="M113 1188C114.205 1190.9 116.064 1193.86 116.52 1197C118.615 1211.41 100.768 1210.67 97.6165 1222C95.481 1229.68 108.744 1238.4 107.833 1247C107.391 1251.17 102.457 1256.63 98.0015 1255.02C95.5427 1254.13 93.4024 1252.1 91 1251C84.6117 1264.36 101.868 1262.3 108.996 1264.55C112.825 1265.76 114.924 1268.81 117 1272C133.727 1265.78 145.263 1249.07 156 1236C157.398 1247.31 147.578 1273.64 164 1275L164 1279C156.285 1279.89 158 1286.81 158 1293C167.055 1290.91 174.622 1288.89 177 1279C181.907 1279.9 186.358 1279.88 191 1277.74C194.127 1276.29 198.176 1271.82 201.902 1272.68C206.536 1273.74 204.302 1283.39 205.549 1287C206.425 1289.54 208.384 1292.23 208.292 1295C208.157 1299.06 198.265 1316.45 194.856 1319.2C190.447 1322.75 183.607 1322.34 179.728 1326.64C176.527 1330.19 175.39 1338.38 174.709 1343C174.063 1347.39 176.877 1356.91 180.317 1359.89C187.455 1366.08 201.559 1367.69 189.61 1379.61C179.327 1389.87 170.466 1375.99 160 1377.94C153.812 1379.1 149.585 1383.72 144 1386.2C140.432 1387.78 136.631 1386.36 133.278 1387.78C130.34 1389.02 129.776 1392.83 126.867 1394.35C120.204 1397.82 111.206 1399.65 104 1402L104 1404C118.112 1410.43 126.569 1406.5 141 1407.66C156.426 1408.91 172.852 1412.3 188 1405L187 1402C194.199 1402.89 203.635 1401.11 208.397 1394.79C210.896 1391.47 210.986 1387.28 213.88 1383.93C218.916 1378.11 227.586 1373.5 230.272 1366C233.322 1357.48 226.889 1348.67 227.383 1340C227.831 1332.12 233.893 1323.49 236.302 1316C239.273 1306.76 238.546 1297.03 245.225 1289C252.205 1280.6 260.2 1271.86 269 1265.35C275.309 1260.68 280.855 1259.01 286.209 1253.01C289.148 1249.72 296.858 1246.57 297.381 1241.91C297.859 1237.64 294.626 1233.68 293.059 1230C289.343 1221.26 286.929 1207.31 279.697 1200.64C275.355 1196.63 267.487 1196.99 263.854 1192.57C259.467 1187.23 260 1177.45 260 1171L248 1172C249.698 1187.3 225.391 1168.26 220.961 1164.67C219.211 1163.25 217.218 1161.63 215 1161.04C211.917 1160.21 208.806 1161.92 206 1163L201 1155C192.56 1158.03 196.576 1168.17 188.981 1171.22C185.621 1172.57 181.528 1170.92 178 1171.04C169.507 1171.35 159.375 1172.28 151 1173.32C137.633 1174.96 124.779 1181.72 113 1188z"/>
</svg>
