<?xml version="1.0" standalone="yes"?>
<svg xmlns="http://www.w3.org/2000/svg" width="1105" height="1450">
<path style="fill:#010101; stroke:none;" d="M0 0L0 1450L1105 1450L1105 0L0 0z"/>
<path style="fill:#ffffff; stroke:none;" d="M421 338L421 339C429.789 341.399 438.839 347.656 448 347.942C454.677 348.15 464.344 341.353 470.17 343.944C475.973 346.526 491.035 359.999 483 365L489 371L490 367L494 369L495 379C501.398 376.745 504.139 370.745 510 368.067C514.463 366.028 519.305 369.807 522.633 364.852C529.679 354.359 518.438 344.537 518.183 335.039C517.977 327.387 525.022 315.163 528 308C510.587 302.854 502.533 322.564 488.999 327.74C475.972 332.722 471.575 321.576 460 322.329C445.973 323.243 434.296 333.749 421 338z"/>
</svg>
