<?xml version="1.0" standalone="yes"?>
<svg xmlns="http://www.w3.org/2000/svg" width="1105" height="1450">
<path style="fill:#010101; stroke:none;" d="M0 0L0 1450L1105 1450L1105 0L0 0z"/>
<path style="fill:#ffffff; stroke:none;" d="M260 405C255.306 404.032 233.223 399.42 235.631 409.911C236.882 415.359 244.276 415.488 246 421L241 420C239.698 425.467 234.984 442.887 240.742 446.918C243.654 448.957 248.284 447.039 252 449.535C255.331 451.772 263.211 459.337 267.487 456.766C269.65 455.466 270.241 452.015 271.545 449.999C278.184 439.736 279.976 427.899 294 426L280.043 408.895L284 395C278.262 393.133 261.147 384.006 258.616 394.058C257.737 397.548 259.651 401.499 260 405z"/>
</svg>
