<?xml version="1.0" standalone="yes"?>
<svg xmlns="http://www.w3.org/2000/svg" width="1105" height="1450">
<path style="fill:#010101; stroke:none;" d="M0 0L0 1450L1105 1450L1105 0L0 0z"/>
<path style="fill:#ffffff; stroke:none;" d="M281 411C287.283 414.724 290.643 422.725 296.274 425.777C300.935 428.303 316.922 418.712 319.867 414.786C323.198 410.344 321.59 398.439 328.105 397.172C332.394 396.338 336.314 401.416 339 403.988C343.854 408.637 348.69 410.943 355 413L356 395C361.09 393.914 361.997 390.765 363 386C358.7 383.167 349.678 380.913 347.666 375.895C345.599 370.74 350.943 363.18 345.566 358.938C342.421 356.456 336.785 356.082 333 355C326.385 353.11 317.799 350.108 311.043 353.009C304.948 355.627 304.323 362.953 301.006 367.911C291.938 381.465 287.622 395.917 281 411z"/>
</svg>
