<?xml version="1.0" standalone="yes"?>
<svg xmlns="http://www.w3.org/2000/svg" width="1105" height="1450">
<path style="fill:#010101; stroke:none;" d="M0 0L0 1450L1105 1450L1105 0L0 0z"/>
<path style="fill:#ffffff; stroke:none;" d="M348 685L357 689C345.244 698.808 338.335 676.404 326 681L332 695L318 685L314 695C322.133 701.493 312.139 701.384 307 700L299.402 713.999L301 725L294 721C290.86 728.501 283.408 736.187 295 739L292 744L283 740L281 750L277 749L274 754C279.821 758.797 278.843 765.679 282.428 772C288.236 782.24 300.586 792.605 301.652 805C302.111 810.336 299.01 817.639 298 823C306.469 820.292 315.751 819.941 324 817.035C327.231 815.896 331.94 811.822 335.486 812.65C351.074 816.289 345.763 837.415 346.059 848C346.265 855.38 347.743 859.46 346 867C350.52 870.512 352.91 874.775 359 873L358 868C369.469 868.885 374.739 891.907 378.129 901C379.561 904.842 383.143 908.702 381.381 913C376.676 924.479 362.658 932.297 359 944L378 945C377.312 952.831 372.111 959.183 371.34 967C370.826 972.202 373.671 976.87 373.957 982C374.678 994.935 372.627 1009.08 379.303 1020.96C382.588 1026.8 388.907 1031.57 393 1037L405.637 1015.43L420 1010L425 1013L426.498 995.015L450.397 974.7L448 955L461 957.371L476 957C478.938 941.119 466.018 934.213 461.094 921C457.481 911.303 459.781 898.913 456.243 890.109C454.624 886.079 449.752 885.508 446 885C446.158 878.274 448.384 874.655 454 871L443.353 856.867L437.316 841L426.272 816L435 793C427.621 788.615 417.13 777.355 428.055 770.148C433.379 766.636 440.89 767.001 447 767C447.585 763.402 449.189 762.2 451.644 759.626C455.03 756.075 457.614 751.69 463 751.103C476.893 749.587 489.02 762.325 496.651 743C503.141 726.565 481.092 733.269 475.843 722.981C474.658 720.658 469.619 708.793 469.871 706.971C470.699 700.98 478.885 696.096 472.486 689.804C466.47 683.888 448.355 684.888 441.594 689.012C435.9 692.486 431.471 698.157 424 697.852C413.662 697.43 410.442 688.267 402.711 684.042C399.574 682.328 395.427 684.043 392 683.522C384.096 682.318 376.75 678.793 369 677L365 684C363.157 678.022 349.111 664.577 344.256 676.171C343.05 679.052 347.645 681.977 348 685z"/>
</svg>
