<?xml version="1.0" standalone="yes"?>
<svg xmlns="http://www.w3.org/2000/svg" width="1105" height="1450">
<path style="fill:#010101; stroke:none;" d="M0 0L0 1450L1105 1450L1105 0L0 0z"/>
<path style="fill:#ffffff; stroke:none;" d="M146 263C155.216 279.179 166.028 296.822 167.823 316C168.298 321.086 165.584 325.098 165.105 330C164.24 338.845 165 348.112 165 357L185.146 345.487L193.043 334.891L209.09 348.307L224 350C219.573 336.395 212.992 323.729 208.901 310C206.983 303.562 208.602 297.267 205.522 291C201.572 282.964 201.449 272.774 190 275L197 295C177.592 289.438 188.971 268.041 190 255L169 258.195L146 263z"/>
</svg>
