<?xml version="1.0" standalone="yes"?>
<svg xmlns="http://www.w3.org/2000/svg" width="1105" height="1450">
<path style="fill:#010101; stroke:none;" d="M0 0L0 1450L1105 1450L1105 0L0 0z"/>
<path style="fill:#ffffff; stroke:none;" d="M535 667L524.828 683.04L530.57 694L534 708C540.82 706.549 541.437 713.911 535.42 715.285C533.172 715.798 530.06 713.757 528 713L517.839 725.09L515 740C523.217 736.142 526.723 738.753 535 737.775C543.018 736.829 568.076 723.185 565 742L584 751C585.387 747.782 585.985 743.039 588.652 740.603C593.467 736.206 606.652 739.489 610.211 744.059C613.331 748.065 613.134 756.279 617.303 758.972C620.252 760.878 624.682 759.751 628 760.329C634.059 761.383 640.053 764.312 646 766L659.497 738.225L650 732.214L637 724.939L615 728L618 721C611.372 717.914 600.661 718.278 595.318 713.348C591.695 710.005 594.663 704.156 590.682 701.275C586.718 698.405 581.191 698.533 577.108 695.911C570.737 691.821 563.809 677.251 565 670C552.919 664.186 545.611 677.895 535 667z"/>
</svg>
