<?xml version="1.0" standalone="yes"?>
<svg xmlns="http://www.w3.org/2000/svg" width="1105" height="1450">
<path style="fill:#010101; stroke:none;" d="M0 0L0 1450L1105 1450L1105 0L0 0z"/>
<path style="fill:#ffffff; stroke:none;" d="M320 515C313.915 509.428 308.637 511.994 301 512C280.44 512.016 254.722 521.776 251 545C258.029 544.446 263.71 543.153 264 552L251 551C253.562 557.372 265.48 556.044 269 551C272.411 552.99 276.984 556.433 281 554.292C290.027 549.479 294.329 538.254 303 532.893C314.644 525.695 327.796 535.632 335.171 520C337.501 515.062 334.907 492.592 325.344 498.067C320.781 500.68 322.003 510.397 320 515z"/>
</svg>
