<?xml version="1.0" standalone="yes"?>
<svg xmlns="http://www.w3.org/2000/svg" width="1105" height="1450">
<path style="fill:#010101; stroke:none;" d="M0 0L0 1450L1105 1450L1105 0L0 0z"/>
<path style="fill:#ffffff; stroke:none;" d="M155 533C155 545.278 152.609 559.8 158 571C147.258 573.247 143.95 577.65 142 588C150.548 591.789 158.09 594.605 167 591L168 598C176.182 591.987 170.168 586.754 166 580L177 583C176.523 588.62 180.132 590.129 185 587.667C192.842 583.701 199.176 577.165 207 573C200.133 564.021 190.301 557.425 182 549.896C172.183 540.991 169.102 533.002 155 533z"/>
<path style="fill:#010101; stroke:none;" d="M165 579L166 580L165 579z"/>
</svg>
