<?xml version="1.0" standalone="yes"?>
<svg xmlns="http://www.w3.org/2000/svg" width="1105" height="1450">
<path style="fill:#010101; stroke:none;" d="M0 0L0 1450L1105 1450L1105 0L0 0z"/>
<path style="fill:#ffffff; stroke:none;" d="M542 457C531.733 457.849 530.737 468.283 533.97 476.985C537.828 487.369 550.054 497.199 560 497C557.334 516.801 565.271 526.436 585 531C598.482 509.509 629.372 546.164 635 519L618.015 516.07L607 504C624.999 499.722 612.879 491.608 611 481L600 475L601 469C595.216 462.484 595.736 448.311 589.895 440.043C586.417 435.12 580.969 433.984 576.001 431.12C570.255 427.808 566.361 422.391 560.055 428.148C555.578 432.235 555.057 438.159 551.775 443C548.465 447.884 543.228 451.042 542 457z"/>
</svg>
