<?xml version="1.0" standalone="yes"?>
<svg xmlns="http://www.w3.org/2000/svg" width="1105" height="1450">
<path style="fill:#010101; stroke:none;" d="M0 0L0 1450L1105 1450L1105 0L0 0z"/>
<path style="fill:#ffffff; stroke:none;" d="M448 768C441.679 768 432.615 767.043 427.279 771.148C418.234 778.107 428.525 789.836 436 792C434.404 799.633 428.047 807.141 427.164 814.015C425.858 824.172 435.105 834.367 438.776 843C441.575 849.581 441.231 857.214 449 860C446.877 854.779 444.658 848.766 450.144 844.599C452.735 842.631 456.097 842.754 458.062 839.852C461.248 835.149 460.065 828.521 464.394 824.318C467.888 820.926 472.763 822.702 476.985 821.347C486.461 818.306 490.066 814 501 814L491.376 789L495.431 770L493 752C489.157 753.576 485.263 755.808 481 755.813C472.854 755.824 464.95 748.208 457.213 753.971C454.912 755.685 453.581 758.316 451.669 760.407C449.287 763.012 448.275 764.437 448 768z"/>
</svg>
