<?xml version="1.0" standalone="yes"?>
<svg xmlns="http://www.w3.org/2000/svg" width="1105" height="1450">
<path style="fill:#010101; stroke:none;" d="M0 0L0 1450L1105 1450L1105 0L0 0z"/>
<path style="fill:#ffffff; stroke:none;" d="M528 309C525.248 315.709 518.539 328.125 518.63 335.089C518.766 345.414 530.112 353.237 523.199 364.941C519.681 370.898 515.206 366.818 510.001 368.618C506.098 369.968 503.495 373.939 501 377L501 378C509.135 388.295 505.012 393.031 495 400L506 425C499.027 427.452 499.166 436.953 505.39 440.973C511.245 444.754 517.196 440.671 522.791 441.812C525.797 442.425 527.756 445.313 531 446C534.955 436.509 540.538 445.295 543 451C553.81 445.274 552.82 429.778 563.996 425.086C568.359 423.255 572.496 428.767 576.004 430.676C592.862 439.852 596.077 450.131 600 468C611.477 454.385 611.725 468.223 620 476L621 476L624 474L620 463C633.191 459.867 643.159 449.65 627 442L629.238 424.001L637 408C647.711 407.279 646.168 420.425 656.001 419.421C663.81 418.623 662.484 413.021 665.772 408.417C667.524 405.964 670.85 405.601 672.297 402.775C676.058 395.43 676.625 387.54 681.259 380.093C684.307 375.197 689.935 373.061 693 368C676.779 372.569 689.928 361.663 693.307 354.996C695.419 350.828 692.057 347.099 693.505 343.055C694.9 339.156 699.459 338.044 701 334C697.84 332.403 694.032 331.537 691.638 328.772C688.194 324.795 687.828 318.883 683.786 315.319C679.409 311.459 674.842 313.842 674 319C666.986 318.942 661.228 316.89 655 321C648.486 307.753 644.148 324.16 637.826 328.012C633.984 330.353 628.345 330.191 624 331C626.95 326.88 630.08 322.849 631.749 318C637.904 300.123 613.586 289.243 607 276C583.68 283.89 578.448 316.23 551 317.467C542.924 317.831 535.885 310.406 528 309z"/>
</svg>
