<?xml version="1.0" standalone="yes"?>
<svg xmlns="http://www.w3.org/2000/svg" width="1105" height="1450">
<path style="fill:#010101; stroke:none;" d="M0 0L0 1450L1105 1450L1105 0L0 0z"/>
<path style="fill:#ffffff; stroke:none;" d="M496 1038L502 1049C487.168 1056.41 493.031 1070.84 488.637 1084C485.443 1093.57 479.999 1096.73 472 1090L471 1090C463.451 1097.14 458.587 1096.24 449 1095L438 1109C449.956 1105.16 453.336 1114.6 456.225 1124C457.856 1129.31 461.608 1133.2 462.229 1139C463.328 1149.25 459.001 1161.31 459 1172L477.853 1171.59L497.133 1148.99L518 1147L516 1153L532 1146L531 1136C535.225 1135.32 538.049 1132.07 542.039 1131.36C553.749 1129.26 549.703 1144.16 550 1150L565 1142C563.636 1130.45 571.487 1112.71 581 1106L581 1104C574.23 1101.54 565.79 1106.17 560.04 1103.08C546.571 1095.85 541.296 1067.07 556 1059C554.357 1050.86 547.066 1046.33 541.105 1041.37C536.729 1037.72 538.384 1031.21 533.852 1028.23C524.209 1021.89 518.805 1032.98 510.961 1035.97C506.191 1037.78 500.871 1036.56 496 1038z"/>
</svg>
