<?xml version="1.0" standalone="yes"?>
<svg xmlns="http://www.w3.org/2000/svg" width="1105" height="1450">
<path style="fill:#010101; stroke:none;" d="M0 0L0 1450L1105 1450L1105 0L0 0z"/>
<path style="fill:#ffffff; stroke:none;" d="M928 377C921.577 380.735 904.939 383.041 901.223 389.417C897.949 395.036 907.616 397.671 910.005 401.108C917.34 411.658 911.144 424.893 919.854 435.683C923.397 440.072 930.993 437.029 934.084 442.148C938.034 448.69 927.697 461.33 935.653 466.968C941.663 471.228 947.024 462.214 949 458C962.82 473.565 940.803 485.996 947 503C950.632 502.253 954.351 500.926 958 502.267C962.572 503.947 965.689 508.338 971 507.167C975.755 506.12 980.651 503.382 985 501.244C1000.99 493.382 1039.47 477.732 1044 507L1064 512C1061.09 504.884 1060.15 500.961 1067 496C1063.07 489.51 1066.42 487.663 1066.49 481C1066.56 473.954 1063.67 461.861 1060 456L1058 458L1057 455C1043.06 465.85 1022.98 469.809 1007 458.363C1001.01 454.074 998.062 446.536 991.907 442.796C976.456 433.41 953.927 422.612 942.904 407.996C936.08 398.949 933.768 386.564 928 377z"/>
</svg>
