<?xml version="1.0" standalone="yes"?>
<svg xmlns="http://www.w3.org/2000/svg" width="1105" height="1450">
<path style="fill:#010101; stroke:none;" d="M0 0L0 1450L1105 1450L1105 0L0 0z"/>
<path style="fill:#ffffff; stroke:none;" d="M206 1162C220.363 1158.13 232.701 1174.88 247 1179L247 1171L261 1170C261 1176.41 259.697 1188.55 265.43 1193.07C270.071 1196.72 277.26 1196.51 281.272 1201.39C289.553 1211.47 295.378 1230.51 299 1243C304.133 1240.42 310.402 1236.63 316 1235.49C323.807 1233.89 331.659 1239.21 336 1230L339 1231L339 1225C343.742 1222.76 353.006 1219.05 355.933 1214.61C358.119 1211.29 355.393 1206.79 356.273 1203.01C359.627 1188.63 363.278 1176.59 378 1169.28C387.67 1164.47 391.207 1170.39 400 1169.76C405.733 1169.36 410.625 1163.52 417 1163.04C421.598 1162.68 425.105 1166.88 429.83 1165.68C432.903 1164.9 435.287 1160.3 438.572 1160.77C443.243 1161.43 443.218 1167.76 445.023 1170.82C448.267 1176.33 453.1 1174.38 458 1173C458.001 1162.03 462.072 1150.59 461.595 1140C461.313 1133.75 457.654 1129.52 455.549 1124C453.475 1118.57 454.128 1112.55 447.96 1109.65C439.162 1105.53 428.203 1114.24 419.093 1108.86C414.622 1106.22 414.755 1101.03 411.273 1097.94C400.394 1088.29 390.36 1085.23 376.108 1087.22C371.697 1087.84 371.945 1093.81 369.298 1096.41C366.036 1099.62 361.045 1097.88 357.274 1099.6C354.498 1100.87 353.608 1104.31 350.981 1105.89C346.403 1108.63 340.39 1102.96 335.039 1104.32C325.072 1106.86 316.611 1116.86 306 1119.18C300.028 1120.49 294.492 1117.74 289.093 1118.71C284.719 1119.48 282.551 1124.55 277.996 1125.7C269.471 1127.84 264.673 1123.89 257 1123.84C251.135 1123.81 245.078 1127.86 239 1128.32C230.549 1128.95 223.851 1125.39 215 1127.94C197.485 1132.99 197.596 1148.31 206 1162z"/>
</svg>
