<?xml version="1.0" standalone="yes"?>
<svg xmlns="http://www.w3.org/2000/svg" width="1105" height="1450">
<path style="fill:#010101; stroke:none;" d="M0 0L0 1450L1105 1450L1105 0L0 0z"/>
<path style="fill:#ffffff; stroke:none;" d="M473 939C478.416 937.204 481.857 932.611 487 930.483C490.448 929.057 493.357 929.978 496.073 926.851C503.833 917.914 505.63 903.479 516.039 896.603C524.01 891.339 539.664 895.456 546.393 887.442C549.698 883.505 546.592 874.25 545 870L520 871C519.672 866.848 520.773 849.955 517.681 848.284C510.889 844.614 505.482 854.959 500 845L492 844C495.613 839.504 515.223 822.121 501.606 815.603C491.422 810.729 484.317 819.731 475.999 822.347C472.119 823.568 466.88 821.771 464.005 825.318C460.656 829.451 461.605 835.664 458.436 839.941C455.588 843.786 449.855 843.481 448.033 848.059C444.735 856.348 453.56 861.393 453.431 868.957C453.351 873.699 446.909 875.426 447.253 880.892C447.578 886.052 455.283 885.355 457.067 890.105C460.262 898.608 458.595 910.66 461.439 920C463.705 927.443 469.928 932.017 473 939z"/>
</svg>
