<?xml version="1.0" standalone="yes"?>
<svg xmlns="http://www.w3.org/2000/svg" width="1105" height="1450">
<path style="fill:#010101; stroke:none;" d="M0 0L0 1450L1105 1450L1105 0L0 0z"/>
<path style="fill:#ffffff; stroke:none;" d="M154 1238L122 1272C135.172 1277.15 136.591 1306.99 123.914 1314.08C119.293 1316.67 117.742 1311.08 113.946 1309.83C109.973 1308.53 104.336 1310.46 100 1310L103 1313L97.5702 1323.38L88 1324.19L67 1329.78L45 1328.17L36.858 1327.66L36 1342C52.9733 1355.09 78.688 1350.79 94.6713 1367.21C102.654 1375.42 100.651 1381.63 99.4684 1391.17C99.16 1393.66 99.394 1400.12 102.318 1401.05C106.361 1402.33 113.222 1398.01 117 1396.7C124.019 1394.25 127.19 1390.19 133.133 1387.27C136.113 1385.81 139.812 1387.11 143 1386.03C148.191 1384.28 151.985 1380.13 157 1378.14C169.119 1373.32 183.239 1392.34 192.239 1374.99C193.421 1372.71 194.293 1370.46 195 1368C190.144 1364.84 183.399 1363.63 179.317 1359.47C172.159 1352.18 172.443 1333.79 179.43 1326.39C183.907 1321.65 192.15 1322.57 196.066 1317.47C199.038 1313.59 207.627 1299.42 207.639 1295C207.649 1291.14 204.755 1287.74 204.018 1284C203.47 1281.22 205.78 1274.77 202.643 1273.24C199.268 1271.59 194.639 1276.14 192 1277.67C187.48 1280.29 183.066 1280.84 178 1280C173.046 1289.96 165.976 1290.27 157 1295L157 1279L163 1277C160.361 1275.37 156.847 1274.72 155.179 1271.86C149.429 1262 160.414 1246.51 154 1238z"/>
</svg>
