<?xml version="1.0" standalone="yes"?>
<svg xmlns="http://www.w3.org/2000/svg" width="1105" height="1450">
<path style="fill:#010101; stroke:none;" d="M0 0L0 1450L1105 1450L1105 0L0 0z"/>
<path style="fill:#ffffff; stroke:none;" d="M287 564L288 564L297 559C289.563 568.42 293.737 574.471 303 581L315 570C312.386 573.243 306.281 578.561 306.331 582.996C306.395 588.639 322.42 601.629 327 605L336 592L339 593C330.432 605.711 328.7 609.452 338 622L340 622C341.96 615.684 338.384 611.697 336 606C342.521 604.508 355.473 613.413 353.707 620.857C353.052 623.617 349.585 624.753 348 627C353.367 626.981 358.447 626.537 356 620L360 619L363 627L368 626L369 630L364 650C357.739 637.72 352.357 635.054 339 634L342 653L378 654L378 658L348 660L348 661L358 662L358 663L351 664L351 665C361.128 669.217 369.625 676.344 380 679.656C386.568 681.753 396.253 680.492 401.91 683.117C410.002 686.872 412.581 696.01 423 696.891C431.727 697.63 435.51 691.684 442.209 688.012C449.808 683.848 466.13 683.235 472.721 689.533C480.022 696.508 471.099 700.343 470.631 706.988C470.393 710.375 473.519 710.855 474.807 713.414C476.421 716.622 474.843 720.462 476.84 723.852C482.515 733.488 498.193 725.255 499 740C509.668 735.854 523.607 723.186 527 712C532.695 714.093 541.121 716.624 539 707L534 709L530.063 694L524.394 683.015L535 667C532.909 655.269 525.93 643.379 518.764 634C514.826 628.847 508.343 623.433 506.579 617C505.341 612.483 509.348 597.805 511 593C506.787 591.743 502.099 592.052 498.015 590.298C495.044 589.022 493.061 586.184 489.91 585.313C484.079 583.702 478.853 584.409 474.058 579.867C468.317 574.429 468.957 558.208 459 558.403C451.499 558.549 449.203 575.139 445.435 581C443.906 583.379 441.653 588.597 438.083 588.079C431.576 587.134 437.807 575.092 439 572C431.286 570.805 433.449 563.618 427.852 561.268C420.839 558.323 417.428 566.392 411.105 565.549C406.623 564.951 406.38 559.409 405.687 556C403.966 547.541 403.629 541.638 404 533L403 533L398 543C388.437 536.736 388.069 515.94 403 520C403.109 513.216 383.749 509.328 378.39 505.147C374.192 501.87 373.207 495.369 366.999 494.393C361.979 493.604 357.792 500.77 355 504C349.675 510.159 342.995 512.979 337.329 518.39C334.015 521.554 332.953 527.337 328.787 529.486C320.347 533.84 308.798 528.947 301.004 534.573C296.435 537.87 281.222 551.293 281.207 556.961C281.199 559.909 285.06 562.283 287 564z"/>
</svg>
