<?xml version="1.0" standalone="yes"?>
<svg xmlns="http://www.w3.org/2000/svg" width="1105" height="1450">
<path style="fill:#010101; stroke:none;" d="M0 0L0 1450L1105 1450L1105 0L0 0z"/>
<path style="fill:#ffffff; stroke:none;" d="M347 411C342.543 422.879 340.346 433.761 333.471 444.867C331.006 448.849 324.509 448.392 323.333 453.109C322.509 456.414 324.459 459.67 324.005 463C323.295 468.222 320.295 472.438 321.149 477.985C322.184 484.71 329.947 486.715 323 493L333.258 499.303L337 516C345.145 514.53 350.529 509.054 355.729 503C358.163 500.166 361.644 494.513 365.576 493.727C371.031 492.636 374.677 500.565 377.633 503.571C380.421 506.405 385.285 507.855 389 509C389.697 502.188 385.187 498.34 384.859 492C384.554 486.112 390.176 482.346 391.57 477C393.007 471.493 389.78 467.216 389.922 462C390.106 455.236 398.341 440.371 404 437L391.015 426.891L379.985 417.88L347 411z"/>
</svg>
