<?xml version="1.0" standalone="yes"?>
<svg xmlns="http://www.w3.org/2000/svg" width="1105" height="1450">
<path style="fill:#010101; stroke:none;" d="M0 0L0 1450L1105 1450L1105 0L0 0z"/>
<path style="fill:#ffffff; stroke:none;" d="M115 896C111.629 900.361 110.324 902.936 113 908L106 905C102.57 909.87 101.348 912.457 104 918L114 913L116 917L113 918L115 923L96 933L96 934L98 937L114 933L114 935C98.0551 939.558 81.8756 945.33 65 944L65 945C84.894 950.428 116.255 955.649 126.883 975.911C130.032 981.914 120.403 986.78 123.708 993C132.679 1009.88 151.316 1024.93 142.11 1046.96C137.472 1058.06 116.691 1060.25 108.209 1068.33C90.3614 1085.33 94.4642 1103.21 94 1125C106.315 1121.64 119.874 1114.88 133 1116.11C138.272 1116.6 141.955 1120.89 147 1121.53C154.394 1122.46 161.617 1119.71 168.957 1122.88C177.392 1126.52 177.225 1138.94 188 1139.89C199.734 1140.93 206.003 1129.35 217 1126.68C230.887 1123.31 255.692 1133.95 263.146 1115C266.325 1106.92 260.1 1097.67 258.239 1090C256.877 1084.38 257.079 1078.46 255.049 1073C252.031 1064.89 246.947 1057.4 244.634 1049C242.514 1041.3 244.307 1032.79 242 1025L220 1026L220.504 1007.21L208 999.68L186.39 983.985L174.787 964.058L162.442 954.945L156.272 937.09L143.39 925.791L129 905L115 896z"/>
</svg>
