<?xml version="1.0" standalone="yes"?>
<svg xmlns="http://www.w3.org/2000/svg" width="1105" height="1450">
<path style="fill:#010101; stroke:none;" d="M0 0L0 1450L1105 1450L1105 0L0 0z"/>
<path style="fill:#ffffff; stroke:none;" d="M514 731C509.215 734.632 500.686 738.383 497.363 743.214C491.662 751.504 495.846 760.223 496.147 769C496.537 780.397 490.569 788.957 493.863 801C496.167 809.425 506.264 814.446 505.671 824C504.966 835.379 497.838 835.63 493 844L500 844C505.06 854.873 511.78 843.459 518.678 848.114C524.447 852.007 515.343 864.697 522.514 869.682C534.483 878.002 550.379 865.545 557.354 857.201C560.247 853.74 555.568 849.046 557.201 845.089C558.347 842.313 561.301 840.817 562.397 837.961C563.634 834.733 561.946 830.271 564.603 827.603C566.649 825.549 570.089 826.583 572.015 824.397C576.806 818.959 576.005 816.098 584 814L584 811C578.568 807.979 576.922 803.272 582 799C575.342 788.227 587.023 781.203 593.062 773.502C595.786 770.028 595.274 765.619 600.019 763.627C605.494 761.33 611.87 771.388 615.663 764.655C617.513 761.37 615.052 758.091 614.009 755C610.349 744.151 604.301 736.602 591.109 740.318C586.587 741.591 587.352 750.436 583.28 750.404C577.562 750.36 568.867 743.689 563 742C566.335 735.986 562.705 732.247 556 732.474C548.506 732.727 542.195 737.493 535 738.581C526.273 739.901 522.877 736.808 514 741L514 731z"/>
</svg>
