<?xml version="1.0" standalone="yes"?>
<svg xmlns="http://www.w3.org/2000/svg" width="1105" height="1450">
<path style="fill:#010101; stroke:none;" d="M0 0L0 1450L1105 1450L1105 0L0 0z"/>
<path style="fill:#ffffff; stroke:none;" d="M523 1026C535.397 1023.99 534.488 1030.85 539.179 1038.79C541.868 1043.34 553.007 1054.31 557.594 1056.93C563.821 1060.49 566.178 1050.2 570.999 1050.21C573.979 1050.21 575.747 1054.89 577 1057C582.374 1056 590.622 1053.42 595.891 1055.6C601.137 1057.77 601.354 1064.26 597 1067C599.724 1074.58 613 1078.75 620 1082L630.619 1049L638.154 1029L639 1016C627.317 1009.01 634.619 991.257 636 981L635 981L635 983L634 983L636 967L626 956L637 964L638 959L643 962C646.58 955.929 650.694 948.778 643 944C644.413 933.259 632.792 929.104 629 920L607 928C607.025 924.888 608.293 920.103 606.731 917.303C602.778 910.214 582.37 911.73 576 913.035C571.266 914.005 566.732 911.912 562 912.213C554.552 912.687 542.816 919.42 537.652 924.649C534.082 928.264 534.863 933.99 530.856 937.442C526.925 940.828 519.949 940.025 516.937 944.279C513.515 949.11 519.364 957.335 518.52 963C516.935 973.641 498.657 978.654 503.603 989.671C505.77 994.496 513.104 994.604 516.957 997.569C527.533 1005.71 525.713 1014.99 523 1026z"/>
</svg>
