<?xml version="1.0" standalone="yes"?>
<svg xmlns="http://www.w3.org/2000/svg" width="1105" height="1450">
<path style="fill:#010101; stroke:none;" d="M0 0L0 1450L1105 1450L1105 0L0 0z"/>
<path style="fill:#ffffff; stroke:none;" d="M628 442C643.871 450.853 632.785 458.415 621 464L625 474L621 477L620 477C614.761 470.677 613.714 462.906 605 461L601 474L612 480C611.528 485.13 614.094 488.56 619 490C618.934 497.845 616.785 501.75 609 504C614.546 517.378 624.432 516.119 637 518L634 528L641 534C651.703 529.081 658.6 518.125 670 512.782C673.112 511.323 681.001 510.219 682.303 506.697C686.944 494.144 666.109 490.248 662.55 482.867C660.221 478.036 664.832 472.97 664.432 468C663.519 456.66 656.639 449.326 654.39 439C653.305 434.016 656.597 425.663 653.958 421.495C652.531 419.239 644.233 408.794 641.922 408.662C637.954 408.435 637.244 413.359 635.452 415.831C628.894 424.882 630.948 431.638 628 442z"/>
</svg>
