<?xml version="1.0" standalone="yes"?>
<svg xmlns="http://www.w3.org/2000/svg" width="1450" height="864">
<path style="fill:#010101; stroke:none;" d="M0 0L0 864L1450 864L1450 0L0 0z"/>
<path style="fill:#ffffff; stroke:none;" d="M750 704C744.584 698.992 733.888 696.662 730.693 706.174C728.47 712.791 733.736 731.49 738.133 736.682C740.553 739.539 744.622 738.979 748 739.424C757.883 740.727 768.337 738.876 778 741.905C788.264 745.123 785.779 751.348 790.089 759C792.491 763.266 795.996 766.444 798 771C802.546 770.062 813.396 769.825 815.395 764.856C817.458 759.727 809.419 755.3 807.734 751C806.458 747.745 807.428 732.453 808.757 729.105C813.497 717.165 837.072 722.979 842.262 709.996C844.276 704.958 833.557 684.142 828.815 681.458C825.083 679.345 820.543 681.477 817.148 678.643C811.16 673.642 814.186 666.778 804 666.344C797.146 666.052 786.967 674.517 781 678C780.464 671.203 780.911 659.323 777.486 653.398C773.549 646.588 767.065 654.982 765.745 659.015C764.939 661.479 763.42 663.568 762.569 666C759.541 674.654 763.99 685.743 760.397 693.772C758.476 698.064 752.401 699.076 750 704z"/>
</svg>
