<?xml version="1.0" standalone="yes"?>
<svg xmlns="http://www.w3.org/2000/svg" width="1450" height="864">
<path style="fill:#010101; stroke:none;" d="M0 0L0 864L1450 864L1450 0L0 0z"/>
<path style="fill:#ffffff; stroke:none;" d="M1067 690C1070.48 702.745 1067.3 719.673 1081 724L1082 715L1087 715L1096 737C1112.23 738.281 1126.36 739.712 1141 732.049C1146.47 729.187 1156.11 724.054 1150.88 715.513C1147.81 710.5 1131.52 707.958 1126 705.572C1117.32 701.818 1111.12 690.991 1103 688.501C1099.09 687.303 1095.78 690.362 1092 690.867C1082.92 692.079 1075.87 690.405 1067 690z"/>
</svg>
