<?xml version="1.0" standalone="yes"?>
<svg xmlns="http://www.w3.org/2000/svg" width="1450" height="864">
<path style="fill:#010101; stroke:none;" d="M0 0L0 864L1450 864L1450 0L0 0z"/>
<path style="fill:#ffffff; stroke:none;" d="M492 451C489.476 455.816 489.189 461.039 487.123 466C482.502 477.1 473.552 492.432 475.554 505C477.042 514.339 484.852 520.266 486.503 529C487.461 534.065 484.994 538.953 485.275 544C485.557 549.065 488.439 554.209 490 559C501.337 556.377 510.313 549.776 521 545.969C544.447 537.617 568.445 532.648 574.269 504C575.646 497.231 570.599 488.826 569.793 482C569.006 475.327 571.981 468.771 572 462L521 461.3L508 461.856L492 451z"/>
</svg>
