<?xml version="1.0" standalone="yes"?>
<svg xmlns="http://www.w3.org/2000/svg" width="1450" height="864">
<path style="fill:#010101; stroke:none;" d="M0 0L0 864L1450 864L1450 0L0 0z"/>
<path style="fill:#ffffff; stroke:none;" d="M1284 690L1291 703C1285.22 704.394 1278.6 709.447 1286 714C1283.52 720.973 1284.91 735.323 1293 738.272C1299.01 740.46 1305.89 737.796 1312 739.318C1316.79 740.512 1326.52 752.503 1331.17 744.652C1333.54 740.65 1327.19 732.071 1327.75 727.015C1328.61 719.141 1341.71 717.701 1339.26 708.044C1337.16 699.799 1323.64 702.322 1318.53 696.772C1310.4 687.94 1309 664.522 1309 653C1292.31 656.674 1308.2 699.858 1284 690z"/>
</svg>
