<?xml version="1.0" standalone="yes"?>
<svg xmlns="http://www.w3.org/2000/svg" width="1450" height="864">
<path style="fill:#010101; stroke:none;" d="M0 0L0 864L1450 864L1450 0L0 0z"/>
<path style="fill:#ffffff; stroke:none;" d="M805 402C791.482 403.822 778.972 409.419 765 406.358C760.658 405.407 751.535 400.963 748.14 405.438C742.255 413.193 751.408 421.789 753.036 429C754.468 435.338 753.576 443.584 758.558 448.57C767.904 457.925 789.431 458.815 794.976 473.015C796.322 476.461 795.153 480.422 795 484L847 464C845.746 446.659 862.703 452.118 873 453.177C877.386 453.629 881.925 450.647 881.498 445.989C880.889 439.36 875.369 440.042 871.174 436.57C866.369 432.595 861.378 426.655 857.213 421.961C842.465 405.338 838.842 380.595 847 361C842.661 357.959 829.907 353.867 828.557 348.995C826.888 342.969 836.272 337.112 832.214 331.275C829.972 328.048 812.68 316.795 809.318 318.831C806.715 320.407 807.054 324.436 806.392 327C804.57 334.057 798.53 340.319 797.233 347C796.505 350.747 798.999 355.191 799.319 359C799.604 362.379 798.143 365.684 798.592 369C800.12 380.282 805.899 390.173 805 402z"/>
</svg>
