<?xml version="1.0" standalone="yes"?>
<svg xmlns="http://www.w3.org/2000/svg" width="1450" height="864">
<path style="fill:#010101; stroke:none;" d="M0 0L0 864L1450 864L1450 0L0 0z"/>
<path style="fill:#ffffff; stroke:none;" d="M746 566C744.682 562.516 741.32 558.807 741.118 555.043C740.583 545.057 756.614 550.749 761 552C762.794 549.809 765.838 547.784 766.476 544.896C767.262 541.338 765.381 538.421 767.476 535C769.952 530.958 777.087 524.872 775.292 519.375C773.852 514.965 767.592 510.199 765 506C757.838 506.97 752.466 514.266 746 514.622C740.332 514.934 734.76 504.52 729.434 508.762C726.263 511.287 727.954 515.64 726.917 519C724.79 525.89 718.682 531.584 712 534.002C702.486 537.446 690.028 521.913 681.669 528.603C664.327 542.484 669.867 562.494 677.138 579C679.418 584.175 678.739 593.095 685.019 594.937C689.645 596.293 695.632 593.441 700 591.999C718.004 586.057 725.297 566.057 746 566z"/>
</svg>
