<?xml version="1.0" standalone="yes"?>
<svg xmlns="http://www.w3.org/2000/svg" width="1450" height="864">
<path style="fill:#010101; stroke:none;" d="M0 0L0 864L1450 864L1450 0L0 0z"/>
<path style="fill:#ffffff; stroke:none;" d="M567 83C562.517 96.1646 559.75 107.975 551 119L551 120L568 137C557.085 140.211 547.399 147.778 537.714 153.35C533.089 156.012 528.539 153.696 525.009 159.094C520.803 165.528 522.065 174.115 524 181L514 183.536L497 176C502.617 197.071 475.144 195.203 466.569 210.21C462.279 217.717 465.814 226.209 463.566 233.957C462.163 238.794 456.325 239.545 456.078 245.015C455.853 249.992 461.453 253.401 460.789 257.895C460.136 262.306 453.306 263.468 450.637 266.39C445.861 271.621 442.843 281.261 441 288C445.327 290.668 449.81 294.755 455 295.52C469.461 297.651 470.753 286.328 477.564 278.39C481.805 273.446 494.019 266.31 500 263.879C505.083 261.812 511.687 258.871 517 257.727C525.304 255.939 532.973 259.491 538.306 249.999C540.653 245.822 537.271 241.4 538.294 237C540.023 229.567 546.499 223.294 549.034 216C551.946 207.621 549.48 200.284 554 192L545 191L544 186C555.338 183.66 559.846 173.507 570 170.867C577.685 168.868 585.669 177.45 592.772 173.562C596.519 171.513 598.031 165.173 601.044 162.004C606.97 155.77 615.512 150.092 623 145.855C631.218 141.204 641.475 159.207 649.161 144.945C656.701 130.953 641.474 115.662 630 110.302C626.491 108.663 622.418 108.954 619.044 106.911C615.546 104.792 614.527 99.1559 610.775 97.9159C604.658 95.8938 598.533 101.198 592 98.1713C583.172 94.082 576.639 85.2651 567 83z"/>
</svg>
