<?xml version="1.0" standalone="yes"?>
<svg xmlns="http://www.w3.org/2000/svg" width="1450" height="864">
<path style="fill:#010101; stroke:none;" d="M0 0L0 864L1450 864L1450 0L0 0z"/>
<path style="fill:#ffffff; stroke:none;" d="M1035 411C1050.82 406.554 1061.86 417.578 1077 420.262C1082.92 421.312 1088.06 416.522 1093.49 421.699C1098.63 426.607 1097.69 437.69 1101 444C1115.9 441.192 1115.78 451.916 1128 456.272C1134.28 458.51 1140.81 453.985 1147 456.453C1153.75 459.147 1166.41 469.593 1168.16 455C1168.85 449.265 1162.95 445.296 1162.08 440C1161.2 434.666 1165.61 431.623 1162.2 426.147C1159.33 421.548 1152.62 422.106 1148.02 420.285C1140.63 417.366 1136.8 407.388 1138 400C1132.26 398.938 1125.52 401.656 1120.22 400.112C1117.03 399.182 1116.08 393.919 1112.13 394.832C1106.34 396.17 1106.24 408.275 1096.42 407.66C1091.98 407.381 1089.05 402.094 1085 400.602C1079.78 398.678 1073.45 398.696 1068 397.087C1055.88 393.508 1042.15 385.45 1036.34 403C1035.49 405.58 1035.21 408.312 1035 411z"/>
</svg>
