<?xml version="1.0" standalone="yes"?>
<svg xmlns="http://www.w3.org/2000/svg" width="1450" height="864">
<path style="fill:#010101; stroke:none;" d="M0 0L0 864L1450 864L1450 0L0 0z"/>
<path style="fill:#ffffff; stroke:none;" d="M799 772C803.862 792.279 826.968 782.257 841 779.611C860.115 776.006 881.594 774.27 900 767.899C907.445 765.322 911.81 758.772 919 756.094C932.076 751.225 944.786 752.292 957 744.11C962.79 740.231 965.597 735.002 970.326 730.214C976.096 724.37 995.841 713.879 983 704C975.99 715.725 971.554 702.703 962.996 703.725C954.039 704.794 947.375 714.825 939.325 715.311C936.114 715.505 933.506 710.154 931.87 708C925.391 699.472 919.162 691.997 915 682L903 690C900.803 681.66 893.695 679.07 886.004 682.208C875.003 686.697 869.387 700.224 859 706.387C854.397 709.118 849.696 707.808 845.039 709.603C839.138 711.879 835.514 717.464 829 719.667C823.843 721.412 814.186 723.138 810.603 727.419C808.343 730.12 807.036 748.785 808.524 752C810.257 755.744 816.39 759.166 816.427 763.42C816.487 770.481 803.6 770.277 799 772z"/>
</svg>
