<?xml version="1.0" standalone="yes"?>
<svg xmlns="http://www.w3.org/2000/svg" width="1450" height="864">
<path style="fill:#010101; stroke:none;" d="M0 0L0 864L1450 864L1450 0L0 0z"/>
<path style="fill:#ffffff; stroke:none;" d="M699 314C699.378 316.975 699.441 321.022 701.174 323.571C703.073 326.363 707.91 326.783 707.605 331.015C707.128 337.642 696.943 339.905 700.404 348C703.884 356.136 717.205 363.834 717.62 372.985C717.846 377.974 710.375 381.882 709.07 387C708.056 390.979 711.696 395.068 709.879 398.79C707.911 402.821 698.609 404.503 701.608 410.569C704.079 415.567 714.064 409.403 718 409C714.989 419.742 721.981 439.132 732.39 444.883C738.072 448.023 749.05 446.672 755 445C753.731 438.848 753.526 431.926 751.526 426C749.864 421.075 745.944 417.49 745.765 412C745.521 404.496 756.342 399.937 755.119 393.209C754.61 390.413 751.103 388.679 750.032 385.957C747.514 379.556 743.89 368.808 742.621 362.335C741.776 358.024 745.873 353.855 744.681 349C743.46 344.025 738.433 341.256 735.934 337C730.631 327.97 724.947 308.734 712 308.78C707.611 308.796 702.972 312.346 699 314z"/>
</svg>
