<?xml version="1.0" standalone="yes"?>
<svg xmlns="http://www.w3.org/2000/svg" width="1450" height="864">
<path style="fill:#010101; stroke:none;" d="M0 0L0 864L1450 864L1450 0L0 0z"/>
<path style="fill:#ffffff; stroke:none;" d="M1022 463L1003 478L1000 469C994.961 470.611 981.944 470.658 978.587 473.618C974.423 477.29 978.61 483.483 978.09 488C977.42 493.83 971.302 496.751 970.604 502.039C969.413 511.063 978.223 518.793 981 527L973 530L983.049 539.213L984.043 548.357L993.775 550.438L1001 560C999.745 542.069 1025.46 525.508 1036 544C1049.97 534.942 1032.04 525.354 1035.57 515.634C1037.3 510.877 1044.19 512.27 1048 511.895C1051.66 511.535 1055.16 508.48 1058.7 508.569C1063.54 508.691 1069.36 519.435 1072 523L1095 523L1106 509C1099.15 504.996 1092.49 500.666 1085 497.954C1080.38 496.281 1074.14 496.259 1070.52 492.697C1057.93 480.314 1051.81 456.661 1036.49 447.028C1032.08 444.257 1018.73 445.002 1017.36 451.185C1016.43 455.386 1019.85 459.739 1022 463z"/>
</svg>
