<?xml version="1.0" standalone="yes"?>
<svg xmlns="http://www.w3.org/2000/svg" width="1450" height="864">
<path style="fill:#010101; stroke:none;" d="M0 0L0 864L1450 864L1450 0L0 0z"/>
<path style="fill:#ffffff; stroke:none;" d="M1296 592L1316 582C1314.91 576.645 1309.29 574.123 1308.49 568.996C1306.72 557.718 1311.74 553.018 1305 542L1319 537L1305 500C1292.94 504.945 1264.71 521.297 1270.77 538.698C1272.66 544.103 1282.7 543.46 1282.7 550.96C1282.7 559.887 1266.25 556.584 1271.97 568.985C1274.7 574.905 1281.03 575.592 1285.96 578.966C1290.48 582.062 1293.39 587.307 1296 592z"/>
</svg>
