<?xml version="1.0" standalone="yes"?>
<svg xmlns="http://www.w3.org/2000/svg" width="1450" height="864">
<path style="fill:#010101; stroke:none;" d="M0 0L0 864L1450 864L1450 0L0 0z"/>
<path style="fill:#ffffff; stroke:none;" d="M1154 355C1166.35 353.837 1163.05 362.965 1157 369L1157 370C1161.67 374.298 1166.52 379.556 1172 382.772C1174.92 384.484 1178.91 384.648 1181.49 386.854C1188.3 392.694 1189.99 399.111 1200 402L1204 381L1241 402C1244.46 393.496 1242.03 382.989 1253 381C1249.84 372.77 1245.01 365.633 1242.35 357C1240.29 350.345 1240.71 343.78 1235 339C1229.15 351.985 1217.03 341.842 1207 339.934C1202.13 339.008 1194.34 339.444 1190.73 335.487C1185.18 329.404 1185.99 313.838 1185 306C1174.66 308.262 1176.72 316.255 1170.77 322.945C1166.9 327.296 1161.4 326.309 1157.51 329.742C1151.67 334.905 1150.87 348.674 1154 355z"/>
</svg>
