<?xml version="1.0" standalone="yes"?>
<svg xmlns="http://www.w3.org/2000/svg" width="1450" height="864">
<path style="fill:#010101; stroke:none;" d="M0 0L0 864L1450 864L1450 0L0 0z"/>
<path style="fill:#ffffff; stroke:none;" d="M687 597C687.992 602.113 689.983 607.768 689.241 613C688.462 618.504 684.251 625.173 687.434 630.61C692.562 639.366 706.666 638.904 715 637.562C729.911 635.161 743.304 627.879 758 625.105C762.732 624.212 767.232 626.325 772 625.552C777.086 624.728 780.698 621.726 786 622L783 634L792 641L810 630C809.466 625.801 807.811 621.032 809.742 617C812.186 611.899 818.493 608.1 818.417 602C818.356 597.129 816.543 589.168 812.606 585.994C809.912 583.821 806.055 583.461 803.858 580.606C798.956 574.237 797.467 564.337 787.83 561.421C783.833 560.212 776.903 565.669 773 567L769 557L753 566.745L734 568.573L710.999 588.298L687 597z"/>
</svg>
