<?xml version="1.0" standalone="yes"?>
<svg xmlns="http://www.w3.org/2000/svg" width="1450" height="864">
<path style="fill:#010101; stroke:none;" d="M0 0L0 864L1450 864L1450 0L0 0z"/>
<path style="fill:#ffffff; stroke:none;" d="M573 462C572.895 474.536 566.975 489.128 575.854 500.721C579.606 505.62 588.619 504.2 594 505.904C602.179 508.494 609.835 515.325 617 520C624.032 503.681 633.681 498.018 648 489.05C652.494 486.235 657.074 481.395 662 479.603C667.232 477.699 672.898 481.011 678 479.131C682.536 477.46 685.502 472.993 690 471.338C694.605 469.643 699.127 472.336 704 470.203C716.406 464.771 719.527 452.463 731 447C727.212 433.889 712.824 425.351 717 410C711.94 410.518 703.536 412.225 699 414.356C695.149 416.165 692.489 420.423 688 420.817C676.673 421.811 663.505 409.684 652.152 415.804C647.478 418.324 650.449 425.42 645.786 429.034C637.832 435.199 625.978 445.453 616 447.61C608.637 449.201 599.144 445.632 592.209 448.603C584.059 452.095 583.404 460.648 573 462z"/>
</svg>
