<?xml version="1.0" standalone="yes"?>
<svg xmlns="http://www.w3.org/2000/svg" width="1450" height="864">
<path style="fill:#010101; stroke:none;" d="M0 0L0 864L1450 864L1450 0L0 0z"/>
<path style="fill:#ffffff; stroke:none;" d="M743 136C750.202 139.196 759.705 152.463 756.396 160.91C754.629 165.42 749.777 166.912 748.634 172.015C746.247 182.673 745.822 196.442 748 207L741 207L738 222L716 218C715.966 227.723 704.526 230.306 707.318 239.856C709.564 247.539 721.302 240.602 724.782 246.318C727.966 251.548 722.752 261.328 722.572 267C722.434 271.353 725.036 275.622 725.557 280C726.954 291.727 722.848 301.164 713 307L723.301 313.394L734 331L735 331C747.657 319.023 743.976 340.823 754.815 336.399C762.407 333.3 757.305 324.133 761.742 319.603C766.939 314.298 778.06 322.156 784 322.323C787.194 322.412 790.313 319.722 793.424 320.694C796.204 321.562 798.767 324.226 801 326L802 326C804.129 323.563 807.144 318.333 810.579 317.755C814.244 317.14 832.843 329.275 833.6 333.044C834.813 339.081 824.221 347.315 831.163 352.358C833.813 354.283 844.926 359.951 848 360.237C856.531 361.03 862.031 350.154 859.397 343C858.094 339.461 854.756 337.263 852.988 334C850.43 329.278 850.416 322.272 850 317L860 316C858.762 312.322 855.217 308.889 854.962 305C854.493 297.825 859.652 293.036 857.877 285C856.424 278.424 849.992 271.952 850.938 265C852.295 255.034 862.424 244.299 861.427 234.004C860.727 226.779 852.8 224.647 849.353 218.985C842.46 207.666 845.826 197.604 849 186L869 188C860.234 177.136 846.534 163.759 835 155.889C828.539 151.48 821.098 149.738 815.039 144.535C804.469 135.46 798.78 123.894 785 118.352C770.873 112.67 745.542 119.16 743 136z"/>
</svg>
