<?xml version="1.0" standalone="yes"?>
<svg xmlns="http://www.w3.org/2000/svg" width="1450" height="864">
<path style="fill:#010101; stroke:none;" d="M0 0L0 864L1450 864L1450 0L0 0z"/>
<path style="fill:#ffffff; stroke:none;" d="M1245 524L1242 543L1220 544C1219.6 538.684 1217.35 535.822 1212 538C1212.88 541.077 1215.25 544.742 1214.47 548C1212.87 554.705 1205.22 558.457 1205.39 566C1205.61 575.573 1215.92 582.383 1215.03 591C1214.21 598.906 1204.42 610.138 1206.45 618C1207.82 623.327 1215.29 627.993 1218.82 632C1222.21 635.869 1224.43 640.975 1228.33 644.366C1240.89 655.294 1257.17 656.338 1273 654.282C1277.27 653.728 1283.9 654.15 1287.57 651.682C1292.46 648.389 1287.16 641.385 1291.44 637.603C1296.4 633.216 1306.58 639.771 1309.05 631.941C1310.62 626.972 1308.13 622.762 1307.12 618C1304.34 604.886 1298.67 590.08 1287.67 580.637C1281.37 575.22 1272.45 575.566 1270.28 566.001C1268.22 556.932 1281.24 558.262 1281.79 550.96C1282.32 544.024 1273.61 542.598 1269.02 540.164C1260.15 535.468 1256.04 526.13 1245 524z"/>
</svg>
