<?xml version="1.0" standalone="yes"?>
<svg xmlns="http://www.w3.org/2000/svg" width="1450" height="864">
<path style="fill:#010101; stroke:none;" d="M0 0L0 864L1450 864L1450 0L0 0z"/>
<path style="fill:#ffffff; stroke:none;" d="M701 472L701 474C706.051 477.73 713.276 480.554 717.391 485.213C724.945 493.764 732.179 512.29 745 514.063C758.212 515.891 761.996 498.424 769.108 492.904C774.829 488.465 790.191 488.137 793.486 482.57C798.649 473.849 790.426 467.303 784 463.079C768.923 453.167 754.97 445.627 737 446.264C724.792 446.696 722.943 456.584 715.699 463.787C711.812 467.653 705.994 469.921 701 472z"/>
</svg>
