<?xml version="1.0" standalone="yes"?>
<svg xmlns="http://www.w3.org/2000/svg" width="1450" height="864">
<path style="fill:#010101; stroke:none;" d="M0 0L0 864L1450 864L1450 0L0 0z"/>
<path style="fill:#ffffff; stroke:none;" d="M742 363C749.701 369.583 747.357 378.385 751.032 386.787C752.083 389.191 755.669 390.548 755.884 393.213C756.111 396.023 753.065 399.463 752 402C763.697 406.413 781.307 408.758 793 404.424C796.84 403.001 803.089 402.471 804.412 397.891C805.605 393.763 802.892 389.954 802.198 386C800.015 373.549 796.382 360.949 796.414 348.286C796.433 340.456 805.533 332.097 806 323L802 327C792.735 319.654 788 324.79 778 321.655C774.012 320.405 766.517 316.931 762.603 320.028C757.584 324 762.955 334.416 754.13 337.24C747.302 339.425 741.711 318.477 736.118 331.02C733.029 337.948 742.414 342.83 744.971 348C747.481 353.073 743.919 358.384 742 363z"/>
</svg>
