<?xml version="1.0" standalone="yes"?>
<svg xmlns="http://www.w3.org/2000/svg" width="1450" height="864">
<path style="fill:#010101; stroke:none;" d="M0 0L0 864L1450 864L1450 0L0 0z"/>
<path style="fill:#ffffff; stroke:none;" d="M669 565C669.656 560.953 668.217 557.901 668.271 554C668.368 547.026 678.06 526.396 686.015 526.361C697.143 526.312 704.366 538.011 715.996 531.556C727.56 525.138 722.698 511.977 732 506C724.334 492.674 710.924 475.477 695 471.919C687.152 470.165 683.69 477.886 677 480.056C671.935 481.7 666.176 478.719 661 480.603C656.362 482.29 652.22 486.79 648 489.424C635.713 497.092 622.922 502.597 618.497 518C616.135 526.223 628.811 533.595 633.956 537.885C638.14 541.373 638.647 545.64 641.424 550C648.251 560.721 656.824 565 669 565z"/>
</svg>
