<?xml version="1.0" standalone="yes"?>
<svg xmlns="http://www.w3.org/2000/svg" width="1450" height="864">
<path style="fill:#010101; stroke:none;" d="M0 0L0 864L1450 864L1450 0L0 0z"/>
<path style="fill:#ffffff; stroke:none;" d="M782 676C790.975 673.415 801.524 660.966 810.941 667.6C815.009 670.465 813.985 676.677 818.148 678.933C822.81 681.459 827.169 678.504 831.471 683.214C836.933 689.194 837.906 706.311 847.093 707.852C864.875 710.834 870.844 690.67 883.039 683.075C890.252 678.583 899.823 679.14 903 688C905.631 686.966 909.297 685.515 908.543 681.96C906.541 672.514 895.22 665.158 891.631 656C888.289 647.472 892.627 638.904 889 630L884 633C883.713 629.551 888.702 619.883 886.292 617.831C882.739 614.806 874.174 625.416 869 624.307C861.615 622.724 860.943 616.196 856.363 611.638C849.564 604.873 840.644 604.998 835 596C825.017 598.095 812.771 607.763 809.817 618C808.736 621.747 811.518 626.187 809.227 629.621C802.847 639.185 785.998 643.194 780.067 653.39C777.314 658.124 780.772 670.856 782 676z"/>
</svg>
