<?xml version="1.0" standalone="yes"?>
<svg xmlns="http://www.w3.org/2000/svg" width="1450" height="864">
<path style="fill:#010101; stroke:none;" d="M0 0L0 864L1450 864L1450 0L0 0z"/>
<path style="fill:#ffffff; stroke:none;" d="M769 555L773 566C776.956 565.06 783.802 559.779 787.536 560.677C795.438 562.577 795.859 571.458 806 568L811.133 576.093L819 572.525L841.883 562.49L842.032 553.001L850.096 541.961L849 519C845.424 518.927 841.242 517.738 838 519.643C833.092 522.526 829.928 529.469 824 530.573C817.251 531.831 812.326 522.924 805 523.634C795.979 524.509 794.888 530.375 788.675 535.437C785.575 537.963 781.255 538.133 778.564 541.34C774.631 546.027 774.318 550.9 769 555z"/>
</svg>
