<?xml version="1.0" standalone="yes"?>
<svg xmlns="http://www.w3.org/2000/svg" width="1450" height="864">
<path style="fill:#010101; stroke:none;" d="M0 0L0 864L1450 864L1450 0L0 0z"/>
<path style="fill:#ffffff; stroke:none;" d="M1197 622L1197 637C1192.25 637.039 1183.66 636.492 1179.43 638.603C1175.96 640.336 1175.21 646.623 1171.95 649.316C1164.39 655.546 1150.28 662.507 1141 665.644C1136.14 667.289 1120.78 670.916 1123.54 679.043C1130.52 699.547 1163.16 684.012 1166 706C1157.23 706.718 1144.44 721.192 1152.62 730.035C1163.56 741.864 1179.61 738.585 1193 743.714C1199.02 746.019 1202.63 751.539 1207 756L1208 756C1215.16 750.232 1221.32 744.165 1219.43 734C1218.63 729.679 1213.67 724.555 1215.45 720.105C1218.26 713.089 1230.2 712.175 1236 709.102C1241.09 706.406 1245 701.888 1250 699C1248.66 693.204 1245.21 689.324 1243.18 684C1241.66 679.995 1242.83 676.744 1239.66 673.174C1235.5 668.501 1228.23 666.257 1225.01 660.826C1219.4 651.366 1228.1 645.338 1221.65 636C1215.58 627.203 1207.92 616.326 1197 622z"/>
</svg>
