<?xml version="1.0" standalone="yes"?>
<svg xmlns="http://www.w3.org/2000/svg" width="1450" height="864">
<path style="fill:#010101; stroke:none;" d="M0 0L0 864L1450 864L1450 0L0 0z"/>
<path style="fill:#ffffff; stroke:none;" d="M761 553C753.82 550.075 748.416 549.297 741 552C741.912 558.062 746.006 568.838 754.001 565.874C766.109 561.386 770.761 551.28 777.564 542.094C780.465 538.177 784.84 537.75 788.485 535.066C792.281 532.272 793.946 527.417 798.039 524.858C809.166 517.903 814.37 531.823 824 530.062C830.501 528.874 833.545 521.698 839 518.773C843.316 516.459 852.961 516.419 858 515.926C860.632 515.668 869.573 513.257 869.654 518.109C869.737 523.02 861.54 527.453 861 534C865.699 533.031 871.587 533.031 876 531.397C879.228 530.201 881.609 527.35 884 525.003C886.631 522.421 891.437 519.456 892.759 515.911C893.955 512.706 891.172 508.688 889.688 506C883.744 495.239 875.412 491.89 867.3 483.79C862.313 478.81 859.141 468.814 852.815 465.657C845.903 462.207 838.261 469.176 832 471.456C819.047 476.174 805.258 481.735 792 485.359C784.064 487.528 773.575 488.01 767.703 494.61C757.891 505.637 774.621 511.586 776.007 520.104C776.94 525.841 770.075 530.62 767.69 535C765.733 538.595 768.286 542.207 767.017 545.867C766.012 548.767 762.639 550.424 761 553z"/>
</svg>
