<?xml version="1.0" standalone="yes"?>
<svg xmlns="http://www.w3.org/2000/svg" width="1450" height="864">
<path style="fill:#010101; stroke:none;" d="M0 0L0 864L1450 864L1450 0L0 0z"/>
<path style="fill:#ffffff; stroke:none;" d="M933 637C933.95 644.23 929.64 643.403 925.994 648.228C920.449 655.565 914.553 667.348 918 676L919 676C923.088 666.789 933.835 663.847 942.896 668.433C946.938 670.479 948.704 675.82 954.001 675.149C966.483 673.567 966.331 659.475 969 650L950 657C951.417 639.818 976.151 638.595 990 638C988.371 634.088 986.082 626.298 981.787 624.643C977.598 623.029 973.416 625.174 969.105 622.583C963.074 618.957 961.248 610.032 952.225 615.457C944.096 620.343 941.923 632.453 933 637z"/>
</svg>
