<?xml version="1.0" standalone="yes"?>
<svg xmlns="http://www.w3.org/2000/svg" width="1450" height="864">
<path style="fill:#010101; stroke:none;" d="M0 0L0 864L1450 864L1450 0L0 0z"/>
<path style="fill:#ffffff; stroke:none;" d="M1158 258C1153.03 262.327 1145.04 265.164 1141.11 270.214C1137.27 275.144 1137.59 282.105 1133.44 286.775C1129.51 291.204 1122.99 291.175 1119.36 296.108C1115.77 300.999 1119.95 307.814 1116.58 311.347C1111.25 316.932 1101.18 313.823 1095.02 317.028C1088.45 320.442 1090.68 326.294 1088.4 331.791C1085.61 338.529 1079.5 343.265 1078 351L1046 342C1044.1 347.219 1043.13 358.032 1035.04 356.918C1031.75 356.465 1029.45 353.553 1026 353L1025 361L1000 361C1001.6 366.565 1006.25 372.102 1006.3 378C1006.34 381.661 1002.74 384.353 1003.4 388C1005.11 397.45 1013.36 400.322 1006 410L1006 411C1015.96 419.02 1021.72 414.825 1033 418C1033.91 413.097 1033.82 407.663 1035.69 403C1042.82 385.23 1054.82 392.736 1068 396.359C1073.24 397.8 1080.22 397.682 1085 400.024C1088.81 401.888 1091.56 406.364 1096 406.907C1106.13 408.143 1105.49 396.562 1112.04 394.372C1116.19 392.985 1117.1 398.184 1120.27 399.228C1125.14 400.827 1132.62 398.335 1138 399L1141.15 382.113L1156 381C1155.52 377.135 1154.76 373.564 1156.86 370C1158.72 366.842 1163.18 364.1 1162.71 360.019C1161.93 353.226 1152.39 356.512 1151.17 348.999C1150.35 343.978 1153.67 331.013 1158.22 328.317C1162.39 325.852 1167.09 326.96 1170.57 322.867C1176.7 315.66 1174.31 308.14 1185 305C1181.21 295.889 1174.29 289.533 1169.82 281C1165.51 272.759 1166.12 263.864 1158 258z"/>
</svg>
