<?xml version="1.0" standalone="yes"?>
<svg xmlns="http://www.w3.org/2000/svg" width="1450" height="864">
<path style="fill:#010101; stroke:none;" d="M0 0L0 864L1450 864L1450 0L0 0z"/>
<path style="fill:#ffffff; stroke:none;" d="M334 296C332.398 316.274 319.581 331.264 301 339C304.067 363.244 322.648 371.143 339.907 384.637C347.324 390.437 342.585 399.047 349.059 404.61C357.167 411.578 365.952 413.443 375 417.845C384.811 422.618 395.004 431.532 406 432.696C416.271 433.783 423.53 428.527 434 431C432.98 436.497 433.366 442.733 431.426 448C430.109 451.577 426.507 454.164 425.889 458C425.231 462.087 427.827 466.983 428.536 471C430.131 480.025 426.588 488.455 419.816 494.621C414.62 499.352 401.352 508.286 394.303 502.987C389.547 499.411 390.234 492.896 383.985 490.063C378.369 487.517 375.425 491.836 370 491.772C363.905 491.699 358.727 487.408 353 487.329C348.431 487.266 335.12 489.969 331.174 492.179C322.869 496.829 321.903 503.289 311 503.907C296.34 504.737 282.162 499.027 268 496.688C260.633 495.472 253.738 498.887 246.004 496.745C241.832 495.59 240.149 492.422 236.675 490.302C223.813 482.452 208.289 470.152 201.302 456C198.366 450.05 198.238 440.466 199.213 434C199.841 429.833 202.619 426.251 200.667 422.001C197.587 415.296 189.46 414.067 187 407C176.892 413.085 160.195 420.357 148 419.359C142.015 418.869 138.172 414.471 133 412.139C126.399 409.162 115.165 411.084 109.301 415.086C100.516 421.081 100.062 438.927 94.5363 448C89.9572 455.518 84.2603 462.204 77 467.226C72.5716 470.289 66.3177 471.849 62.966 476.213C55.6824 485.697 56.116 502.38 62.966 511.829C66.9137 517.275 73.2366 520.516 77.2909 526C81.7413 532.02 86.4176 543.689 88.1721 551C91.2702 563.911 70.49 576.487 81.6381 587.486C96.9386 602.582 124.412 591.826 140.942 605.681C149.352 612.729 144.309 624.08 148.564 632.786C150.423 636.59 162.388 643.909 166.17 646.357C169.752 648.676 175.12 646.721 179 646.08C187.099 644.742 195.781 643.527 204 644.089C220.13 645.194 229.131 657.53 241.17 667.582C247.599 672.95 254.149 673.267 259 681C265.011 676.576 268.424 669.818 276 667.645C286.946 664.505 302.064 667.874 311.852 661.583C318.401 657.373 317.195 643.634 324.174 637.379C330.882 631.366 342.179 623.954 351 622.015C360.444 619.94 367.829 622.414 376.907 617.176C385.603 612.158 384.917 600.301 397 599.496C414.924 598.302 425.269 621.429 438.093 629.204C449.383 636.048 458.003 629.969 469 633.144C477.47 635.59 486.815 646.922 494.181 637.98C498.986 632.146 497.678 625.971 501.027 620.213C504.681 613.931 510.023 611.724 509.501 603C509.107 596.418 503.781 592.066 502.469 586C501.591 581.938 503.818 578.003 502.011 574C497.481 563.965 488.389 558.226 485.108 547C483.26 540.677 486.853 534.403 485.517 528C483.671 519.154 475.626 513.613 474.688 504C473.489 491.702 481.6 477.864 486.123 467C488.482 461.334 489.157 455.564 492 450L493 450C503.035 461.483 508.879 459.037 522 460.594C539.129 462.627 553.833 464.187 571 461C567.557 452.815 560.547 446.789 556.399 439C553.688 433.908 551.946 425.532 546.621 422.434C538.498 417.707 523.522 418.832 517.228 411.938C510.936 405.046 512.813 394.027 508.431 386.185C506.034 381.894 500.223 379.382 496 377.27C490.375 374.457 479.321 367.487 473 369.071C465.462 370.96 451.468 384.993 443.39 379.968C436.175 375.481 442.553 366.59 438.106 361.333C433.519 355.91 423.542 363.227 418 362.706C405.529 361.534 402.449 351.617 394.363 344.857C391.195 342.209 385.607 343.437 383.984 338.867C382.664 335.151 384.875 330.519 386 327C377.704 324.663 369.734 322.573 363.09 316.671C352.749 307.486 349.62 297.278 334 296z"/>
</svg>
