<?xml version="1.0" standalone="yes"?>
<svg xmlns="http://www.w3.org/2000/svg" width="1450" height="864">
<path style="fill:#010101; stroke:none;" d="M0 0L0 864L1450 864L1450 0L0 0z"/>
<path style="fill:#ffffff; stroke:none;" d="M592 218C588.454 225.745 594.592 229.941 596.539 237C597.91 241.973 594.74 254.692 591.968 258.996C588.42 264.508 578.471 273.62 572 275.242C564.167 277.205 554.487 276.747 547.213 281.417C543.762 283.633 542.651 287.805 540.363 291C537.947 294.374 534.07 297.021 532.603 301C529.394 309.705 532.001 325.565 532 335L554 334.203L574 336C574.878 347.032 583 365.321 596.895 363.809C608.761 362.517 603.192 340.024 613.019 336.804C626.212 332.482 637.657 343.957 650 343.61C664.142 343.211 666.793 330.732 678.004 326.604C685.338 323.904 692.024 329.228 700 326C699.512 322.155 699.328 317.601 696.606 314.599C688.872 306.069 680.878 312.183 684 297C667.657 297.337 648.273 305.275 632 299.756C628.093 298.431 622.448 296.882 619.728 293.606C614.451 287.254 615.437 277.889 606.985 273.448C601.667 270.654 592.898 273.984 587 274C592.858 267.02 598.663 268.685 605.826 264.686C609.898 262.413 611.668 257.681 616.015 255.652C623.971 251.937 631.662 252.811 635 243L592 218z"/>
</svg>
