<?xml version="1.0" standalone="yes"?>
<svg xmlns="http://www.w3.org/2000/svg" width="1450" height="864">
<path style="fill:#010101; stroke:none;" d="M0 0L0 864L1450 864L1450 0L0 0z"/>
<path style="fill:#ffffff; stroke:none;" d="M601 365L641 390C626.361 396.924 615.092 406.575 602 415.83C598.193 418.522 592.025 419.141 588.97 422.513C584.75 427.169 586.395 442.172 591.563 445.972C594.672 448.258 601.343 447 605 447C620.351 447 636.024 439.009 646.566 427.61C649.907 423.997 646.889 418.164 651.163 415.558C663.985 407.738 679.076 424.783 691 419.593C698.574 416.296 697.449 410.627 701.603 405.379C703.816 402.583 708.829 401.637 709.589 397.79C710.399 393.689 707.362 390.258 708.904 386C710.68 381.098 718.651 376.513 716.752 370.999C713.549 361.702 701.31 355.627 699.326 346C697.923 339.196 709.635 335.199 706.712 329.278C703.891 323.561 697.094 328.557 693 328.845C687.616 329.224 682.548 325.481 677.039 327.603C669.972 330.325 666.287 339.368 659 342.581C648.068 347.402 635.944 339.535 625 337.615C620.941 336.903 613.973 335.787 610.589 338.858C607.356 341.792 607.596 349.051 605.738 353C603.854 357.002 601.782 360.613 601 365z"/>
</svg>
