<?xml version="1.0" standalone="yes"?>
<svg xmlns="http://www.w3.org/2000/svg" width="1450" height="864">
<path style="fill:#010101; stroke:none;" d="M0 0L0 864L1450 864L1450 0L0 0z"/>
<path style="fill:#ffffff; stroke:none;" d="M1093 501L1107 508C1116.61 493.005 1132.35 494.765 1148 496C1146.65 492.226 1141.05 489.116 1141.47 485.025C1142.09 478.893 1151.51 476.634 1148.76 469C1144.23 456.473 1136.85 460.856 1128 456.86C1121.64 453.99 1118.5 445.653 1112 443.693C1108.42 442.615 1103.57 444.327 1100 445C1098.36 439.005 1097.31 425.914 1092.57 421.819C1087.65 417.571 1083.31 421.378 1078 420.988C1071.24 420.49 1062.78 417.047 1057 413.696C1052.52 411.1 1033.03 405.906 1034.51 416.791C1035.3 422.617 1054.39 426.151 1058.96 430.213C1063.29 434.056 1064.78 439.521 1068.56 443.502C1071.95 447.074 1077.13 448.241 1080.53 452.093C1092.45 465.577 1096.95 484.335 1093 501z"/>
</svg>
