<?xml version="1.0" standalone="yes"?>
<svg xmlns="http://www.w3.org/2000/svg" width="1450" height="864">
<path style="fill:#010101; stroke:none;" d="M0 0L0 864L1450 864L1450 0L0 0z"/>
<path style="fill:#ffffff; stroke:none;" d="M850 187C844.683 196.985 843.888 211.259 850.966 220.816C854.485 225.566 861.492 227.297 862.103 234.001C862.997 243.827 853.695 254.64 851.728 264C849.9 272.699 858.765 281.276 859.529 290C860.077 296.265 854.797 300.774 856 307L871 300.163L881 303.85L893 301.944L915 315C912.897 326.328 915.592 333.675 927 338C928.833 332.586 931.642 324.619 931.975 319C932.201 315.194 928.783 311.963 929.998 308.105C931.133 304.504 935.138 303.871 937.582 301.502C939.947 299.209 940.358 295.665 942.649 293.357C948.005 287.962 966.524 297.535 968.914 287.941C970.46 281.738 958.97 271.63 958 264C949.047 264.759 951.511 255.404 947.272 250.418C943.364 245.821 935.761 245.707 931.514 241.363C926.851 236.593 925.321 226.034 921 220C929.851 216.279 931.048 211.992 929.199 203C928.704 200.593 928.431 196.738 925.697 195.773C917.3 192.809 904.066 199.561 895 198.812C885.977 198.066 880.144 192.353 872 189.699C865.362 187.536 857.016 188.447 850 187z"/>
</svg>
