<?xml version="1.0" standalone="yes"?>
<svg xmlns="http://www.w3.org/2000/svg" width="1450" height="864">
<path style="fill:#010101; stroke:none;" d="M0 0L0 864L1450 864L1450 0L0 0z"/>
<path style="fill:#ffffff; stroke:none;" d="M861 343C860.986 360.508 838.288 363.817 841.6 384C842.193 387.615 845.026 390.563 846.236 394C847.842 398.562 847.144 403.555 848.728 408C851.768 416.534 858.887 422.687 864.826 429.039C869.681 434.231 874.057 439.966 882 440.14C890.012 440.315 899.031 431.621 906 428.32C910.635 426.124 921.992 426.541 924.721 422.682C929.928 415.322 923.141 401.977 919.741 395C914.726 384.71 907.649 383.788 900.39 376.606C896.435 372.693 895.362 366.674 892.034 362.3C884.042 351.798 873.581 345.595 861 343z"/>
</svg>
