<?xml version="1.0" standalone="yes"?>
<svg xmlns="http://www.w3.org/2000/svg" width="1450" height="864">
<path style="fill:#010101; stroke:none;" d="M0 0L0 864L1450 864L1450 0L0 0z"/>
<path style="fill:#ffffff; stroke:none;" d="M1290 653C1268.45 654.701 1252.74 658.671 1233 647.884C1229.48 645.96 1224.96 645.366 1223.24 650.023C1219.17 661.025 1235.5 667.758 1240.65 674.039C1243.62 677.657 1242.37 681.102 1244.05 685C1246.16 689.893 1249.3 693.777 1251 699L1236 710L1236 711C1243.1 716.781 1252.28 731.52 1263 727.978C1267.87 726.368 1270.67 722.082 1275 719.689C1279.47 717.218 1282.89 719.741 1285 714C1279.37 709.188 1283.01 704.798 1289 703L1283 689C1303.35 697.289 1296.94 669.922 1300.57 658.044C1301.87 653.804 1305.67 654.269 1307.97 651.273C1310.62 647.815 1308.31 640.937 1308 637L1291.18 638.603L1290 653z"/>
</svg>
