<?xml version="1.0" standalone="yes"?>
<svg xmlns="http://www.w3.org/2000/svg" width="1450" height="864">
<path style="fill:#010101; stroke:none;" d="M0 0L0 864L1450 864L1450 0L0 0z"/>
<path style="fill:#ffffff; stroke:none;" d="M649 123C649.138 128.899 652.532 135.155 651.273 141C649.872 147.501 642.244 154.085 635.213 150.803C631.424 149.035 631.085 144.446 625.985 145.298C617.921 146.644 603.077 158.242 598.728 165C595.255 170.396 594.941 184.142 601.394 187.887C605.437 190.234 614.273 189.504 613.534 196.989C612.531 207.14 595.12 207.737 593 218C605.034 220.86 609.654 229.751 619.039 236.298C623.956 239.728 631.209 241.66 637 243L614.174 257.14L604.961 265.686L589 273C594.157 272.957 601.23 270.284 605.999 272.523C614.834 276.672 615.063 285.818 619.934 292.775C622.259 296.095 627.334 297.497 631 298.757C647.865 304.551 668.036 296.35 685 296C684.304 299.373 682.096 304.465 684.194 307.667C685.906 310.282 689.229 309.016 691.714 310.073C699.957 313.576 718.329 309.345 722.397 298.957C727.172 286.76 720.371 275.52 722.218 264C722.881 259.87 726.728 250.282 723.958 246.603C720.15 241.548 708.643 248.213 706.318 239.891C704.068 231.841 710.46 231.409 713.972 226.363C715.683 223.905 715 219.833 715 217L737 221L740 206L747 206C745.006 196.331 744.774 180.528 748.148 171.015C749.873 166.151 755.52 164.385 755.938 158.961C756.565 150.81 750.966 139.423 743 137C739.81 142.517 732.185 142.442 727.09 139.143C722.018 135.857 721.404 129.058 716.775 125.757C713.507 123.426 709.623 125.402 706 124.669C697.942 123.038 688.03 117.677 680.018 117.693C674.033 117.705 675.009 125.174 669.942 126.817C664.08 128.719 654.867 124.211 649 123z"/>
</svg>
