<?xml version="1.0" standalone="yes"?>
<svg xmlns="http://www.w3.org/2000/svg" width="1450" height="864">
<path style="fill:#010101; stroke:none;" d="M0 0L0 864L1450 864L1450 0L0 0z"/>
<path style="fill:#ffffff; stroke:none;" d="M479 315L479 316C466.275 328.141 485.994 333.096 494 336.031C500.838 338.538 506.584 344.311 511 335L531 335L531.603 302L540.034 291L547.105 280.995L564 275C559.471 261.68 548.469 265.776 538.039 263.112C530.44 261.171 526.027 256.873 517 258.43C501.642 261.078 472.652 275.273 471.24 293C471.005 295.951 473.243 299.137 473.877 302C474.993 307.046 475.088 311.271 479 315z"/>
</svg>
