<?xml version="1.0" standalone="yes"?>
<svg xmlns="http://www.w3.org/2000/svg" width="1450" height="864">
<path style="fill:#010101; stroke:none;" d="M0 0L0 864L1450 864L1450 0L0 0z"/>
<path style="fill:#ffffff; stroke:none;" d="M484 138C480.175 149.756 474.897 161.073 467.391 170.996C464.31 175.07 459.811 177.761 456.966 182.015C451.35 190.411 447.513 202.53 444.133 212C440.021 223.525 451.995 236.626 446.968 248.895C443.672 256.938 431.799 251.342 427.955 261.015C425.091 268.224 429.223 278.397 422.941 283.581C411.996 292.614 407.635 275.932 397 278.059C379.116 281.635 370.274 298.777 354 303C362.073 325.01 383.484 326.337 403 323.08C409.162 322.052 417.979 321.538 422.517 316.772C426.721 312.358 426.223 306.182 428.839 301C431.592 295.546 436.81 292.115 440.006 287C443.507 281.398 444.894 274.659 448.353 269.015C451.01 264.679 458.917 262.634 460.11 257.895C461.266 253.301 455.117 249.821 455.117 245.015C455.118 239.672 460.641 239.195 462.397 234.895C465.261 227.878 461.968 219.4 465.133 212.015C471.762 196.55 506.466 195.369 495 175C506.751 175.635 510.909 186.437 523 180C520.395 170.731 520.676 161.185 529 155L529 154L510 156C503.937 143.014 498.051 139.892 484 138z"/>
</svg>
