<?xml version="1.0" standalone="yes"?>
<svg xmlns="http://www.w3.org/2000/svg" width="1450" height="864">
<path style="fill:#010101; stroke:none;" d="M0 0L0 864L1450 864L1450 0L0 0z"/>
<path style="fill:#ffffff; stroke:none;" d="M511 336C506.016 344.911 501.006 338.798 494 336.72C483.924 333.731 468.257 329.334 478 316L478 315L470 293C464.959 294.375 459.33 297.466 454 295.941C449.7 294.711 444.551 288.371 440 289.458C427.552 292.431 429.57 310.583 421.826 317.772C413.201 325.779 399.036 321.852 389.133 326.703C385.483 328.491 383.222 334.975 384.782 338.772C386.354 342.599 391.794 341.996 394.61 344.514C402.537 351.605 405.462 360.862 418 362.177C423.966 362.804 430.908 356.104 436.811 359.773C444.038 364.265 436.089 375.966 444.214 379.393C456.131 384.418 467.052 364.674 479 369.278C488.05 372.765 502.245 377.198 508.297 385.185C513.555 392.124 511.898 402.543 516.14 409.981C519.3 415.523 538.307 420.636 544.995 420.58C554.722 420.499 549.885 406.83 550.559 401C551.8 390.281 551.949 379.919 552.47 369C552.94 359.151 555.363 347.287 547.86 338.603C545.844 336.27 541.735 337.092 539 336.83C529.434 335.915 520.33 338.462 511 336z"/>
</svg>
