<?xml version="1.0" standalone="yes"?>
<svg xmlns="http://www.w3.org/2000/svg" width="1450" height="864">
<path style="fill:#010101; stroke:none;" d="M0 0L0 864L1450 864L1450 0L0 0z"/>
<path style="fill:#ffffff; stroke:none;" d="M545 187C547.672 190.812 551.584 190.908 556 191C549.768 198.409 552.474 204.375 550.61 213C548.847 221.151 542.471 227.428 539.453 235C537.75 239.272 540.419 242.807 539.731 247C539.061 251.083 534.757 254.239 532 257L532 258C538.105 264.457 545.002 261.331 553 263.72C559.515 265.666 562.341 273.297 569.015 274.498C573.922 275.38 577.442 271.818 581 269.003C590.181 261.739 597.418 250.573 596.245 238C595.641 231.537 588.223 227.149 590.457 220C593.714 209.575 612.051 207.064 612.793 196.975C613.409 188.602 604.607 191.454 600.638 188.307C596.793 185.259 596.149 178.428 595 174L570 171.635L545 187z"/>
</svg>
