<?xml version="1.0" standalone="yes"?>
<svg xmlns="http://www.w3.org/2000/svg" width="1450" height="864">
<path style="fill:#010101; stroke:none;" d="M0 0L0 864L1450 864L1450 0L0 0z"/>
<path style="fill:#ffffff; stroke:none;" d="M928 195C930.938 205.451 933.893 214.755 922 220L932.434 241.363L947.487 249.649L953.513 262.933L961 263.618L976 267.667L985 266.472L1017 270C1014.78 264.651 1010.1 255.886 1018.1 252.603C1021.07 251.387 1024.77 252.791 1027.3 250.397C1031.44 246.48 1033.53 236.403 1035 231C1043.63 239.619 1053.56 242.144 1054.88 226C1055.75 215.42 1040.41 192.841 1050 184C1038.97 166.422 1025.11 174.196 1010 180.663C996.844 186.292 979.935 193.647 966 196.61C953.449 199.279 940.7 193.395 928 195z"/>
</svg>
