<?xml version="1.0" standalone="yes"?>
<svg xmlns="http://www.w3.org/2000/svg" width="1450" height="864">
<path style="fill:#010101; stroke:none;" d="M0 0L0 864L1450 864L1450 0L0 0z"/>
<path style="fill:#ffffff; stroke:none;" d="M994 710L989 709L982 724L987 726C986.12 730.668 985.694 735.638 983.647 739.982C982.327 742.783 978.902 745.061 978.419 748.129C977.386 754.69 981.728 757.621 976.61 763.985C970.632 771.416 956.794 772.503 954 782C963.003 780.395 972.527 772.405 981.996 773.707C990.563 774.885 989.021 786.11 999.001 784.698C1012.29 782.817 1020.65 771.656 1032 766C1028.73 759.432 1022.71 755.22 1019.09 749C1010.74 734.66 1010.95 715.533 1017 701L994 710z"/>
</svg>
