<?xml version="1.0" standalone="yes"?>
<svg xmlns="http://www.w3.org/2000/svg" width="1450" height="864">
<path style="fill:#010101; stroke:none;" d="M0 0L0 864L1450 864L1450 0L0 0z"/>
<path style="fill:#ffffff; stroke:none;" d="M860 535C860.621 527.466 868.14 524.847 869.079 518.975C869.911 513.767 852.206 516.671 850.14 519.434C845.439 525.719 850.965 533.368 850.794 539.999C850.651 545.554 844.149 547.078 842.773 552.015C841.793 555.532 844.895 560.229 842.307 563.298C837.511 568.986 824.518 569.907 818 573.524C815.789 574.751 812.973 577.427 810.225 576.518C807.472 575.607 806.239 571.305 805 569L802 570C803.411 581.104 808.176 579.752 814.351 587.214C817.947 591.559 818.251 597.845 820 603L835 595C840.02 605.049 849.495 604.288 856.61 611.39C861.135 615.908 861.664 622.268 869.001 623.591C873.746 624.447 884.168 614.456 886.755 617.546C889.3 620.586 884.607 627.594 884 631L889 629L891.906 655L910 683C912.733 681.794 916.453 680.334 917.006 676.957C917.544 673.673 914.518 671.084 915.627 667.714C917.593 661.737 921.858 653.383 925.363 648.133C929.004 642.681 933.347 643.72 932 636C943.123 633.064 944.622 616.883 955.004 613.654C963.287 611.077 964.099 619.429 970.043 622.427C975.575 625.218 982.237 622.732 988 622C990.023 612.193 991.906 599.998 990.707 590C988.847 574.504 983.405 566.112 988 550C979.42 550.322 985.11 544.028 982.717 539.39C980.874 535.817 972.595 530.038 969 528.357C965.077 526.523 961.062 528.998 957 527.955C941.149 523.885 927.611 521.343 911 521C910.335 512.39 901.338 514.373 895 516.588C887.498 519.209 883.477 527.307 877 531.397C872.672 534.129 865.064 533.955 860 535z"/>
</svg>
