<?xml version="1.0" standalone="yes"?>
<svg xmlns="http://www.w3.org/2000/svg" width="1450" height="864">
<path style="fill:#010101; stroke:none;" d="M0 0L0 864L1450 864L1450 0L0 0z"/>
<path style="fill:#ffffff; stroke:none;" d="M549 336C549.982 343.292 554.285 349.897 555.09 357C555.553 361.087 553.42 364.95 553.263 369C552.851 379.65 553.168 389.496 551.429 400C550.144 407.76 554.825 414.852 548 421C553.27 433.23 560.963 450.98 571.669 459.393C577.929 464.312 586.055 456.346 588.532 451C592.911 441.551 580.571 431.316 588.638 422.279C591.929 418.591 597.923 418.255 602 415.532C615.002 406.847 626.244 397.628 640 390C619.706 367.938 579.56 370.712 573 337L549 336z"/>
</svg>
