<?xml version="1.0" standalone="yes"?>
<svg xmlns="http://www.w3.org/2000/svg" width="1450" height="864">
<path style="fill:#010101; stroke:none;" d="M0 0L0 864L1450 864L1450 0L0 0z"/>
<path style="fill:#ffffff; stroke:none;" d="M960 385L958.216 401L967 415L927 413L926.212 426L937.292 445L938 464C942.329 460.524 948.732 457.303 952.441 453.49C956.727 449.084 957.958 443.003 965 441.469C975.796 439.117 988.202 453.178 997.566 444.436C1001.47 440.789 998.799 434.626 999.289 430C1000.31 420.4 1001.59 407.931 992.787 401.247C988.597 398.064 983.363 397.795 979 395.146C971.849 390.805 969.071 385.101 960 385z"/>
</svg>
