<?xml version="1.0" standalone="yes"?>
<svg xmlns="http://www.w3.org/2000/svg" width="1450" height="864">
<path style="fill:#010101; stroke:none;" d="M0 0L0 864L1450 864L1450 0L0 0z"/>
<path style="fill:#ffffff; stroke:none;" d="M928 340C918.014 333.262 911.633 328.749 914 316C906.08 312.778 900.801 305.329 893 302.41C888.296 300.651 885.668 304.254 881.286 304.521C878.319 304.701 875.847 301.934 872.999 301.303C866.021 299.757 861.2 304.149 856 308L862 317L851 318C851.674 326.538 851.878 336.181 860.001 341.146C865.501 344.508 871.898 343.701 877 348.133C881.934 352.419 888.29 357.096 892.363 362.174C895.762 366.412 896.73 372.531 900.637 376.351C904.446 380.074 909.941 380.889 913.699 385.043C918.867 390.756 922.096 408.54 928.278 411.397C932.117 413.171 937.869 411.787 942 412.044C946.111 412.3 949.12 415.461 953 415.728C956.769 415.988 961.002 414.014 965 414L957.569 401.285L960.879 393.996L959 384C968.071 384.101 970.849 389.805 978 394.146C987.93 400.174 994.99 399.971 1000 412C1017.18 408.505 1003.48 396.129 1002.67 387.285C1002.34 383.681 1006 381.04 1005.49 377C1003.43 360.668 990.779 351.729 977 346L992 321C978.634 320.99 968.83 305.601 967 293L944.394 292.693L938.351 301.582L930.786 308.108L932.728 318.576L928 340z"/>
</svg>
