<?xml version="1.0" standalone="yes"?>
<svg xmlns="http://www.w3.org/2000/svg" width="1450" height="864">
<path style="fill:#010101; stroke:none;" d="M0 0L0 864L1450 864L1450 0L0 0z"/>
<path style="fill:#ffffff; stroke:none;" d="M938 716C946.167 712.136 952.794 704.628 962 703.19C970.524 701.859 976.849 715.508 983 703L993 709C996.512 696.469 983.1 690.139 975.001 682C972.249 679.235 968.754 673.589 964.911 672.418C960.08 670.946 956.109 677.143 951.015 675.33C943.24 672.563 940.744 666.725 931 667.275C914.301 668.217 915.913 686.057 922.598 696C927.272 702.952 933.101 709.18 938 716z"/>
</svg>
