<?xml version="1.0" standalone="yes"?>
<svg xmlns="http://www.w3.org/2000/svg" width="1450" height="864">
<path style="fill:#010101; stroke:none;" d="M0 0L0 864L1450 864L1450 0L0 0z"/>
<path style="fill:#ffffff; stroke:none;" d="M912 520C921.011 520.711 931.206 519.653 940 521.518C952.543 524.178 967.877 532.999 980 526C975.944 514.01 966.282 508.8 956 502L956 501L960 496C949.161 488.589 948.986 481.263 942.87 471C940.556 467.116 935.38 462.961 934.571 458.424C934.038 455.432 936.352 452.011 936.66 449C937.467 441.109 932.613 431.8 925.999 427.603C915.928 421.212 902.454 430.736 894 435.573C890.804 437.4 886.041 438.78 883.618 441.637C880.919 444.82 883.791 448.899 879.848 451.644C873.534 456.038 868.571 450.911 862 451.329C857.058 451.643 845.312 452.953 847.85 460.856C848.877 464.051 853.309 464.919 855.471 467.228C860.088 472.156 862.542 478.839 867.464 483.621C871.409 487.454 876.882 489.087 880.7 493.105C886.19 498.884 888.89 508.334 894.637 513.397C900.376 518.452 910.228 509.115 912 520z"/>
</svg>
