<?xml version="1.0" standalone="yes"?>
<svg xmlns="http://www.w3.org/2000/svg" width="1450" height="864">
<path style="fill:#010101; stroke:none;" d="M0 0L0 864L1450 864L1450 0L0 0z"/>
<path style="fill:#ffffff; stroke:none;" d="M1141 457L1149.66 471L1142.34 484.169L1150 497C1138.65 496.513 1124.15 493.217 1114.04 500.249C1106.98 505.162 1101.71 521.061 1092.9 522.933C1090.03 523.54 1074.5 523.282 1072.17 522.072C1067.17 519.473 1065.61 512.512 1060.71 509.816C1058.95 508.846 1039.51 512.508 1037.48 514.028C1033.56 516.954 1038.81 523.864 1040.12 527C1043.34 534.652 1042.26 539.614 1036 545L1030 535C1014.25 537.123 1000.63 543.48 1002 561L989 550C982.777 565.275 989.51 575.227 991.546 590C992.877 599.661 990.956 611.517 989 621C997.344 621.645 994.315 629.213 1000.22 632.682C1004.39 635.124 1009.71 633.351 1013.67 636.564C1018.47 640.445 1021.44 647.279 1025.44 651.999C1029.65 656.974 1035.43 660.534 1039.03 666.001C1043.35 672.546 1046.17 681.393 1052.44 686.436C1061.23 693.51 1082.63 691.24 1093 689.867C1095.84 689.492 1098.59 687.254 1101.42 687.475C1107.05 687.915 1108.27 693.583 1112.39 695.934C1118.14 699.219 1126.44 692.923 1130 689L1130 688C1127.8 685.477 1121.87 680.396 1122.68 676.665C1124.42 668.547 1135.71 666.77 1142 664.644C1154.81 660.312 1175.07 651.319 1177 637C1187.27 637 1203.09 636.995 1196 622C1205.44 617.583 1216.58 599.091 1214.27 588C1212.52 579.618 1204.52 575.454 1204.64 566C1204.73 559.004 1211.58 555.11 1213.76 549C1215.26 544.769 1209.67 530.929 1206.91 527.318C1204.4 524.031 1199.55 525.344 1196 524.366C1188.28 522.237 1175.72 517.36 1171.82 509.999C1168.34 503.427 1174.81 502.781 1178.36 498.726C1181.99 494.586 1184.04 485.341 1182.34 480.043C1180.97 475.765 1176.57 473.93 1173 471.799C1164.92 466.979 1150.63 454.655 1141 457z"/>
</svg>
