<?xml version="1.0" standalone="yes"?>
<svg xmlns="http://www.w3.org/2000/svg" width="1450" height="864">
<path style="fill:#010101; stroke:none;" d="M0 0L0 864L1450 864L1450 0L0 0z"/>
<path style="fill:#ffffff; stroke:none;" d="M1274 405C1270.23 411.375 1266.78 412.94 1261 408L1260 408C1255.21 413.005 1246.81 416.551 1242.94 421.499C1238.17 427.587 1244.27 432.785 1244.45 438.715C1244.59 443.361 1242.6 445.957 1244 451L1197 461.921L1169 456L1163 466C1175.69 471.47 1188 478.538 1181.65 493.999C1178.71 501.157 1167.53 503.373 1173.35 511.787C1177.3 517.493 1189.37 522.201 1196 523.61C1199.04 524.257 1202.89 523.273 1205.61 525.028C1209.18 527.334 1209.93 533.221 1211 537C1216.42 535.974 1219.46 537.563 1221 543L1239.49 541.682L1245 522L1260.79 531.633L1269 539C1270.09 534.559 1270.11 529.153 1272.31 525.093C1279.18 512.43 1293.35 505.62 1305 499C1302 490.134 1299.1 480.154 1294.47 472C1290.88 465.659 1284.96 460.288 1283.14 453C1281.5 446.495 1285.21 439.438 1285.82 433C1286.83 422.447 1281.33 412.184 1274 405z"/>
</svg>
