<?xml version="1.0" standalone="yes"?>
<svg xmlns="http://www.w3.org/2000/svg" width="1450" height="864">
<path style="fill:#010101; stroke:none;" d="M0 0L0 864L1450 864L1450 0L0 0z"/>
<path style="fill:#ffffff; stroke:none;" d="M1022 703L1017 702C1010.62 717.347 1012.22 742.088 1024.03 755C1026.46 757.659 1030.79 765.016 1034.99 764.534C1039.66 763.997 1041.85 755.405 1043.93 752C1049.22 743.299 1055.78 733.254 1061.73 725.185C1063.81 722.355 1067.52 721.111 1068.97 717.79C1074.36 705.427 1069.32 689.842 1055 689.214C1048.43 688.925 1041.8 692.926 1036 695.457C1029.11 698.462 1025.56 694.616 1022 703z"/>
</svg>
