<?xml version="1.0" standalone="yes"?>
<svg xmlns="http://www.w3.org/2000/svg" width="1450" height="864">
<path style="fill:#010101; stroke:none;" d="M0 0L0 864L1450 864L1450 0L0 0z"/>
<path style="fill:#ffffff; stroke:none;" d="M1051 184L1047 186C1049.06 195.983 1050.55 206.05 1052.47 216C1053.1 219.264 1056.11 223.126 1055.51 226.424C1054.92 229.643 1050.72 240.364 1046.89 240.364C1042.69 240.365 1038.73 234.741 1035 233C1033.28 238.291 1031.57 247.581 1027.35 251.397C1024.5 253.971 1020.57 252.084 1017.39 253.603C1010.6 256.856 1016.14 266.52 1018 271L959 264C959.763 273.656 966.086 276.734 969.073 285C970.387 288.635 967.606 292.23 968.318 296C970.787 309.073 979.82 320 993 320L978 346L999.3 359.397L1024 360L1025 352C1028.73 352.578 1030.74 355.332 1034.17 356.227C1042.64 358.437 1043.85 346.284 1046 341L1077 349C1080.4 343.933 1085.13 337.286 1087.4 331.791C1089.88 325.802 1088.55 320.75 1095 316.603C1100.81 312.872 1111.21 313.48 1118 311C1117.51 308.129 1115.91 304.924 1116.23 302C1117.38 291.45 1128.98 292.559 1133.77 285.775C1137.6 280.349 1137.15 273.267 1142.33 268.394C1146.46 264.509 1153.09 263.794 1156.3 258.711C1159.56 253.571 1152.07 236.788 1150.42 231C1147.1 219.328 1150.54 209.145 1148.53 198C1146.58 187.187 1135.92 177.72 1127 172.248C1123.22 169.928 1103.25 169.133 1100.46 173.318C1097.53 177.704 1100.32 183.694 1095.66 187.397C1091.7 190.536 1084.72 188.702 1080 190.228C1075.03 191.839 1074.18 198.122 1069.79 199.582C1062.69 201.941 1054.29 188.58 1051 184z"/>
</svg>
