<?xml version="1.0" standalone="yes"?>
<svg xmlns="http://www.w3.org/2000/svg" width="1450" height="864">
<path style="fill:#010101; stroke:none;" d="M0 0L0 864L1450 864L1450 0L0 0z"/>
<path style="fill:#ffffff; stroke:none;" d="M961 496L957 501L957 502L971 511C968.944 500.079 976.535 497.776 977.448 488C977.931 482.822 973.526 476.513 979.204 472.693C983.722 469.653 995.199 469.855 1001 468L1004 477L1020 463C1019.2 459.52 1016.17 455.634 1016.53 452.04C1017.4 443.345 1031.16 445 1037 445L1040 422C1035.18 419.998 1030.32 417.213 1025 416.799C1021.81 416.551 1018.76 419.266 1015.71 418.269C1011.87 417.012 1007.87 410.436 1003.32 412.601C1000.14 414.115 1001.06 419.19 1000.99 422C1000.83 428.212 1002.49 442.166 996.786 445.86C986.459 452.546 975.393 439.584 964 442.434C957.411 444.082 957.034 449.231 953.273 453.581C949.69 457.725 942.847 457.114 940.661 463.015C939.169 467.046 943.355 470.638 944.951 474C949.561 483.708 950.429 490.545 961 496z"/>
</svg>
