<?xml version="1.0" standalone="yes"?>
<svg xmlns="http://www.w3.org/2000/svg" width="1450" height="864">
<path style="fill:#010101; stroke:none;" d="M0 0L0 864L1450 864L1450 0L0 0z"/>
<path style="fill:#ffffff; stroke:none;" d="M1157 371L1151.46 391L1162.33 405L1191 426.295L1210 444L1210 445L1202 460C1214.86 458.109 1231.42 456.068 1243 450C1241.87 445.45 1244.26 442.25 1243.72 438C1243 432.275 1237.73 427.345 1241.99 421.418C1246.24 415.499 1255.19 413.908 1260 407L1261 407C1264.32 410.92 1272.63 412.749 1272.73 404.985C1272.84 397.202 1255.52 377.721 1247.32 383.442C1244.02 385.743 1242.25 399.666 1241 404C1237.14 401.113 1231.99 400.21 1228.39 397.272C1219.83 390.281 1216.86 384.479 1205 382L1200 403L1181.28 387.728L1172 383.146L1157 371z"/>
</svg>
