<?xml version="1.0" standalone="yes"?>
<svg xmlns="http://www.w3.org/2000/svg" width="1450" height="864">
<path style="fill:#010101; stroke:none;" d="M0 0L0 864L1450 864L1450 0L0 0z"/>
<path style="fill:#ffffff; stroke:none;" d="M1209 445C1202.63 433.832 1190.25 426.039 1180 418.64C1170.13 411.514 1161.27 405.776 1153.53 395.961C1149.86 391.296 1152.26 382.672 1145 381.827C1137.27 380.927 1137.26 403.739 1139.35 409C1144.45 421.838 1155.41 416.477 1162.03 425.147C1167.01 431.651 1160.65 436.375 1163.68 443C1169.22 455.157 1176.03 458.871 1189 460.169C1192.26 460.495 1196.58 461.948 1199.58 459.972C1203.66 457.281 1205.94 449.016 1209 445z"/>
</svg>
