<?xml version="1.0" standalone="yes"?>
<svg xmlns="http://www.w3.org/2000/svg" width="1450" height="864">
<path style="fill:#010101; stroke:none;" d="M0 0L0 864L1450 864L1450 0L0 0z"/>
<path style="fill:#ffffff; stroke:none;" d="M576 503L557.367 533.501L541 539.262L492 559C494.179 565.41 500.366 568.906 502.997 575C504.67 578.876 502.44 582.993 503.434 587C504.851 592.714 509.746 596.806 510.182 603C510.808 611.887 504.659 613.845 501.603 620.39C500.236 623.318 500.956 626.923 499.633 630C497.393 635.21 493.098 639.315 490 644C505.774 650.47 521.717 642.084 538 648.133C556.717 655.085 572.123 676.16 593 677.776C600.577 678.363 607.677 672.464 615 673.808C620.979 674.905 626.12 679.422 632 681.081C639.948 683.324 655.603 684.318 664 683.787C673.417 683.191 683.556 680.817 693 679.576C696.699 679.089 703.346 677.355 706.786 679.117C713.917 682.771 709.665 694.402 714.653 699.667C718.628 703.864 724.659 699.789 729 705C738.099 699.816 740.601 696.684 750 703C752.296 699.124 758.537 696.777 759.682 692.856C763.367 680.236 758.053 667.117 766.603 655.174C772.772 646.556 785.077 655.011 790.238 643.958C792.818 638.433 786 635.678 782 634L785 623C779.607 622.118 776.215 625.846 771 626.517C766.181 627.137 761.855 624.878 757 626.029C735.575 631.111 711.142 647.391 690.058 633.648C680.843 627.642 689.439 617.305 688.522 609C687.53 600.027 682.53 597.996 679.603 590.895C676.884 584.299 676.466 577.544 672.688 571.019C669.045 564.73 664.895 567.246 659 565.486C654.864 564.251 651.122 560.696 648.015 557.829C642.313 552.569 640.73 546.166 636.272 540.464C627.247 528.919 612.695 516.427 600 509.071C592.806 504.903 583.808 505.475 576 503z"/>
</svg>
