<?xml version="1.0" standalone="yes"?>
<svg xmlns="http://www.w3.org/2000/svg" width="1450" height="864">
<path style="fill:#010101; stroke:none;" d="M0 0L0 864L1450 864L1450 0L0 0z"/>
<path style="fill:#ffffff; stroke:none;" d="M1333 743L1349 742C1347.59 743.907 1346.18 745.681 1345.51 748.005C1340.05 767.057 1359.92 755.586 1367 760C1370.85 750.548 1370 739.233 1370 729C1370 710.216 1369 691.832 1369 673C1369 667.119 1374.19 649.88 1370.97 645.728C1368.87 643.014 1363.05 642.554 1360 641.219C1347.51 635.759 1344.84 640.043 1333 642.697C1319.73 645.672 1308.88 647.53 1310.09 664C1310.66 671.718 1313.55 690.926 1318.8 696.57C1324.27 702.45 1338.48 698.908 1340.04 709.004C1341.23 716.688 1331.98 718.818 1329.07 724.3C1326.33 729.446 1330.68 738.403 1333 743z"/>
</svg>
