<?xml version="1.0" standalone="yes"?>
<svg xmlns="http://www.w3.org/2000/svg" width="1450" height="864">
<path style="fill:#010101; stroke:none;" d="M0 0L0 864L1450 864L1450 0L0 0z"/>
<path style="fill:#ffffff; stroke:none;" d="M984 623L991 639C978.048 639.107 952.316 640.044 951 656L970 648C968.711 654.245 964.27 663.705 965.762 670C968.162 680.118 986.677 695.389 996 699L1014.27 683.621L1021 659L1032 660C1027.27 653.285 1020.09 641.702 1013.48 636.938C1009.35 633.96 1003.49 636.07 999.394 633.062C991.45 627.235 996.448 621.428 984 623z"/>
</svg>
