<?xml version="1.0" standalone="yes"?>
<svg xmlns="http://www.w3.org/2000/svg" width="1450" height="864">
<path style="fill:#010101; stroke:none;" d="M0 0L0 864L1450 864L1450 0L0 0z"/>
<path style="fill:#ffffff; stroke:none;" d="M1307 542C1307.8 546.164 1310.93 549.781 1311.14 554C1311.4 559.216 1308.23 564.745 1309.36 569.961C1310.19 573.822 1316.65 576.608 1315.54 580.791C1314.15 586.006 1301.53 590.115 1297 592C1299.21 597.315 1304.36 600.457 1306.4 605.213C1311.93 618.144 1309.96 637.194 1310 651L1324 642.728L1335 641.437L1348 636.5L1372 644C1366.71 615.946 1355.05 592.384 1340.55 568C1333.66 556.422 1320.8 552.16 1319 538L1307 542z"/>
</svg>
