<?xml version="1.0" standalone="yes"?>
<svg xmlns="http://www.w3.org/2000/svg" width="1450" height="818">
<path style="fill:#010101; stroke:none;" d="M0 0L0 818L1450 818L1450 0L0 0z"/>
<path style="fill:#ffffff; stroke:none;" d="M714 507C716.919 515.118 729.576 514.539 731.315 523.997C732.366 529.712 723.098 534.145 719 536.243C704.867 543.478 691.984 551.212 686 567C694.487 564.909 705.328 559.086 714 561.804C720.467 563.831 723.949 571.721 731 571.852C742.064 572.057 749.729 564.233 761 564C762.652 551.99 772.86 549.91 777.436 540.674C779.154 537.207 783.44 528.522 783.718 525C783.969 521.808 782.326 519.34 783.239 516C785.183 508.891 789.329 501.925 792 495L771 494.324L756 489.893L735 505.644L714 507z"/>
</svg>
