<?xml version="1.0" standalone="yes"?>
<svg xmlns="http://www.w3.org/2000/svg" width="1450" height="818">
<path style="fill:#010101; stroke:none;" d="M0 0L0 818L1450 818L1450 0L0 0z"/>
<path style="fill:#ffffff; stroke:none;" d="M887 408L888 424L872 425C871.706 433.983 858.339 433.327 859.036 441.015C860.192 453.757 875.304 460.477 877 473C882.586 471.14 880.562 457.556 881 452L909 446C911.211 456.711 917.302 483.425 933 476L931 468L939 464C935.25 453.07 952.127 442.077 948.778 430.105C947.508 425.565 939.926 422.928 936 421.352C928.835 418.476 920.632 421.499 913 419.215C903.548 416.385 897.182 409.316 887 408z"/>
</svg>
