<?xml version="1.0" standalone="yes"?>
<svg xmlns="http://www.w3.org/2000/svg" width="1450" height="818">
<path style="fill:#010101; stroke:none;" d="M0 0L0 818L1450 818L1450 0L0 0z"/>
<path style="fill:#ffffff; stroke:none;" d="M425 436C418.808 436 412.813 438.904 407 438.656C402.138 438.449 394.761 434.706 390.228 437.218C385.482 439.848 384.919 449.359 383.074 454C380.944 459.36 376.303 464.32 375.179 470C373.447 478.752 379.582 496.801 387.09 501.648C391.65 504.592 399.374 508.94 405 507.397C414.727 504.731 427.335 492.892 437.391 503.303C444.136 510.287 445.305 519.515 448.876 528C456.267 545.565 467.306 566.4 486 573.934C496.622 578.215 508.395 576.527 516.411 567.391C518.701 564.782 518.17 561.045 519.988 558.213C522.788 553.853 533.839 547.979 539 547.695C546.271 547.295 548.039 555.521 554.039 557.227C558.121 558.388 562.898 555.938 567 555.748C570.662 555.579 573.426 558.249 577 558.204C580.795 558.157 584.135 555.669 588 555.843C592.095 556.028 597.651 560.037 601.61 557.882C604.769 556.162 606.082 551.186 607 548L617.108 562.64L637 570.49L649 569.526L674 583C680.296 568.595 694.429 549.127 708 540.979C713.549 537.648 731.38 533.288 731.044 524.961C730.645 515.063 716.594 514.929 713 507C706.917 508.259 701.033 511.651 695 512.521C691.275 513.058 687.773 511.826 684 512.761C679.009 513.997 672.356 517.77 667.09 516.227C662.732 514.95 660.335 509.554 655.985 507.62C648.354 504.227 639.641 503.951 637.808 494C635.865 483.452 646.314 479.329 650.861 471.83C654.724 465.46 653.073 457.772 655.363 451C657.609 444.359 663.124 439.668 667 434C649.639 427.498 631.422 436.995 614.005 429.792C607.768 427.213 607.399 422.6 604.738 417C598.336 403.526 593.329 389.256 576 391.108C572.161 391.518 569.201 393.589 566 395.576C562.391 397.817 558.878 399.86 556 403C548.531 394.705 534.833 392.387 524 395.649C519.859 396.896 516.593 400.587 512 399.939C508.129 399.393 504.957 396.591 501 396.383C496.277 396.136 491.714 398.984 487 398.192C471.373 395.565 451.056 382.211 436.637 396.637C431.482 401.796 432.739 408.569 431.367 415C429.787 422.401 425.991 428.161 425 436z"/>
</svg>
