<?xml version="1.0" standalone="yes"?>
<svg xmlns="http://www.w3.org/2000/svg" width="1450" height="818">
<path style="fill:#010101; stroke:none;" d="M0 0L0 818L1450 818L1450 0L0 0z"/>
<path style="fill:#ffffff; stroke:none;" d="M851 434L852 434L856 440L858 440L870.396 429.698L866.301 413L866 394L860 394L860 390C854.806 389.957 849.129 388.182 844.018 389.394C839.204 390.536 838.79 395.236 834.867 397.431C831.3 399.427 826.82 399.177 823.325 401.303C814.236 406.832 811.158 419.05 814.589 429C819.253 442.527 842.698 443.181 851 434z"/>
</svg>
