<?xml version="1.0" standalone="yes"?>
<svg xmlns="http://www.w3.org/2000/svg" width="1450" height="818">
<path style="fill:#010101; stroke:none;" d="M0 0L0 818L1450 818L1450 0L0 0z"/>
<path style="fill:#ffffff; stroke:none;" d="M755 489C749.988 483.885 743.872 479.913 739.637 474C733.217 465.036 729.505 455.495 720 448.904C708.275 440.774 694.728 438.846 681 436.725C675.574 435.887 669.791 432.969 665.17 437.163C654.164 447.15 657.982 458.107 652.351 469.985C648.143 478.864 635.711 482.908 638.677 495C641.052 504.68 650.927 503.697 657.961 508.075C661.205 510.094 663.303 514.805 667.174 515.593C672.953 516.769 679.529 513.023 685 511.775C688.709 510.929 692.313 512.289 696 511.596C702.132 510.442 707.738 507.183 714 506.084C720.961 504.862 728.638 508.238 735 505.164C742.807 501.39 748.209 494.174 755 489z"/>
</svg>
