<?xml version="1.0" standalone="yes"?>
<svg xmlns="http://www.w3.org/2000/svg" width="1450" height="818">
<path style="fill:#010101; stroke:none;" d="M0 0L0 818L1450 818L1450 0L0 0z"/>
<path style="fill:#ffffff; stroke:none;" d="M519 567C537.992 559.686 548.643 577.552 567 579.844C588.869 582.575 611.552 581.142 633 587.57C655.995 594.462 673.612 608.893 693 622.204C699.631 626.756 707.756 627.434 713.829 633.21C719.77 638.859 722.775 646.769 728.379 652.536C735.479 659.843 744.83 664.125 751.572 672C756.934 678.263 758.309 685.409 762.702 692C766.02 696.977 770.58 700.432 773.135 706C780.598 722.263 785.764 741.355 804 749C806.119 744.778 808.64 738.717 806.875 734C804.654 728.063 796.143 722.483 796.086 716.015C796.023 708.847 807.535 708.567 807.655 700C807.78 691.099 802.555 682.79 802.109 674C801.777 667.456 805.888 662.707 802.867 656.104C799.995 649.83 790.461 649.001 788.557 641.999C786.173 633.229 798.515 623.088 806 623C806.119 628.745 806.716 638.264 813.171 640.759C825.695 645.601 831.106 625.125 826.697 617.089C815.097 595.948 791.435 580.64 770.039 572.852C765.562 571.222 763.851 565.834 758.961 565.163C747.981 563.656 740.785 574.558 730 572.593C724.058 571.51 720.859 564.641 715 562.804C699.001 557.788 679.917 569.88 674 584C666.432 579.368 657.59 572.422 649 570.056C644.829 568.908 641.136 571.359 637 571.157C622.865 570.469 614.902 561.197 609 550L607 550C605.841 552.784 604.513 557.345 601.61 558.799C597.639 560.787 592.088 556.695 588 556.51C584.16 556.336 580.794 558.84 577 558.731C573.439 558.628 570.702 556.192 567 556.494C562.927 556.826 558.046 559.245 554.015 557.686C548.787 555.665 547.056 549.503 541 548.526C530.294 546.8 519.422 557.202 519 567z"/>
</svg>
