<?xml version="1.0" standalone="yes"?>
<svg xmlns="http://www.w3.org/2000/svg" width="1450" height="818">
<path style="fill:#010101; stroke:none;" d="M0 0L0 818L1450 818L1450 0L0 0z"/>
<path style="fill:#ffffff; stroke:none;" d="M857 442L853.892 473L850.238 484L855.682 494L855 506C872.157 515.026 892.467 523 912 523C912.003 499.052 926.965 496.738 945 507C953.115 493.319 946.836 477.906 940 465L932 468L934 476C916.911 483.803 912.352 458.536 908 447C902.619 448.82 885.198 450.134 882.318 454.434C877.538 461.569 885.145 469.385 877 475L864.988 454.91L857 442z"/>
</svg>
