<?xml version="1.0" standalone="yes"?>
<svg xmlns="http://www.w3.org/2000/svg" width="1450" height="818">
<path style="fill:#010101; stroke:none;" d="M0 0L0 818L1450 818L1450 0L0 0z"/>
<path style="fill:#ffffff; stroke:none;" d="M597 398C606.106 393.47 611.214 384.94 619.185 379.988C622.594 377.871 628.486 378.924 630.958 375.347C632.818 372.655 630.971 368.11 631.482 365C633.296 353.976 636.755 352.813 631 342L630 342L626 349C612.69 338.436 601.675 324.887 586 337.611C582.309 340.607 577.085 343.629 577.725 349.004C579.542 364.272 593.59 366.798 598.618 379.004C601.049 384.905 597.806 392.012 597 398z"/>
</svg>
