<?xml version="1.0" standalone="yes"?>
<svg xmlns="http://www.w3.org/2000/svg" width="1450" height="818">
<path style="fill:#010101; stroke:none;" d="M0 0L0 818L1450 818L1450 0L0 0z"/>
<path style="fill:#ffffff; stroke:none;" d="M749 301C738.567 305.625 727.169 306.692 716 308.424C712.597 308.952 705.346 308.854 703.028 311.742C696.629 319.713 706.776 335.447 708.749 343C710.444 349.488 709.054 355.457 709 362L730 363.27L758 356C758 350.004 759.098 344.901 753 342C754.666 336.983 752.127 334.808 751.978 330C751.698 320.919 753.495 309.455 749 301z"/>
</svg>
