<?xml version="1.0" standalone="yes"?>
<svg xmlns="http://www.w3.org/2000/svg" width="1450" height="818">
<path style="fill:#010101; stroke:none;" d="M0 0L0 818L1450 818L1450 0L0 0z"/>
<path style="fill:#ffffff; stroke:none;" d="M341 302L341 303L353 316L348 316C349.141 324.756 354.096 325.463 359.61 331.326C365.758 337.862 374.276 348.538 377.302 357C380.083 364.779 382.776 377.878 382.305 386C381.964 391.869 378.919 398.125 379.6 404C380.379 410.718 388.057 414.865 388.705 422C389.261 428.119 384.779 431.486 387 438C397.719 432.834 413.044 442.237 423.258 433.972C425.45 432.198 424.903 428.425 425.853 426C429.334 417.11 429.993 400.835 438.105 394.966C454.924 382.798 469.917 395.141 487 397.52C491.739 398.18 496.249 395.272 501 395.68C505.83 396.094 509.939 400.217 515 399.316C520.087 398.411 523.539 394.358 529 394.043C538.937 393.47 548.452 393.661 555 402C564.245 396.853 575.247 385.935 586.907 390.603C590.585 392.076 592.424 396.174 596 398L598.026 379.015L580.213 359L574.622 343L556 323C549.235 330.096 544.933 319.148 538 317.419C529.45 315.286 523.025 319.973 515 320.498C510.052 320.821 505.4 317.829 501 316C503.756 329.849 518.232 327.018 527.91 333.086C538.054 339.446 537.914 354.69 536 365C525.135 361.94 514.836 363.486 504 361.535C495.688 360.039 488.269 355.689 480 354.004C473.762 352.732 466.899 353.234 461 350.587C447.727 344.631 439.635 333.028 428 325.093C420.129 319.726 409.553 318.707 402.225 313.031C394.183 306.803 387.696 289.809 375.015 289.507C369.921 289.386 369.442 295.976 364.895 296.469C361.39 296.849 358.488 293.774 355 293.781C349.744 293.792 344.813 298.929 341 302z"/>
</svg>
