<?xml version="1.0" standalone="yes"?>
<svg xmlns="http://www.w3.org/2000/svg" width="1450" height="818">
<path style="fill:#010101; stroke:none;" d="M0 0L0 818L1450 818L1450 0L0 0z"/>
<path style="fill:#ffffff; stroke:none;" d="M355 292C352.787 285.562 351.444 265.498 357.228 260.969C365.603 254.41 380.117 254.251 387.006 245.61C397.29 232.71 392.102 221.702 390.56 208C389.916 202.277 393.864 197.544 390.877 192C387.795 186.281 382.283 183.144 378.653 177.985C375.738 173.843 377.596 168.401 374.972 164.637C367.489 153.901 346.385 147.35 334 146.171C323.722 145.193 312.973 151.029 303 148.854C289.639 145.941 279.575 133.21 266 130.811C257.528 129.314 249.85 135.204 241 131.648C219.745 123.108 207.191 92.9119 183 90.4822C168.072 88.9829 166.041 107.211 154.996 112.676C143.028 118.598 132.512 116.421 120 119.188C109.571 121.495 89.6144 136.157 85.1397 146C79.0088 159.485 89.6446 186.7 99.3904 196.482C106.938 204.057 116.391 205.366 119.39 217C122.323 228.372 118.494 240.923 121.637 252C124.811 263.182 135.738 271.159 138.57 282C142.344 296.446 139.066 309.022 147 323C151.905 331.642 163.402 349.685 174.17 351.512C181.999 352.841 188.775 346.961 196 345.938C199.992 345.372 204.916 348.227 208.012 344.346C210.614 341.084 209.613 335.81 210.724 332.004C212.069 327.396 216.173 324.366 220 321.785C230.773 314.522 246.3 304.884 259 301.386C265.234 299.669 271.586 304.234 277.996 302.079C284.393 299.93 286.532 292.44 293 290.441C305.525 286.57 319.616 307.584 332.96 307.771C339.262 307.859 349.086 295.504 355 292z"/>
</svg>
