<?xml version="1.0" standalone="yes"?>
<svg xmlns="http://www.w3.org/2000/svg" width="1450" height="818">
<path style="fill:#010101; stroke:none;" d="M0 0L0 818L1450 818L1450 0L0 0z"/>
<path style="fill:#ffffff; stroke:none;" d="M633 375C651.359 378.408 665.031 377.372 680 390.91C683.033 393.654 689.917 396.485 690.215 401.043C690.813 410.195 679.433 426.1 676 435C697.013 438.915 722.391 451.313 735.576 428C737.408 424.759 740.118 420.83 740.281 417C740.731 406.41 732.399 396.337 731 386L752 395L755 384C748.424 382.294 741.353 380.686 736.39 375.621C732.799 371.955 732.144 366.07 726.957 364.032C717.232 360.212 705.161 363.052 695 362.999C690.968 362.978 686.844 361.006 683 361.218C676.758 361.562 671.892 365.501 665.043 363.682C655.824 361.234 651.2 347.846 638.329 353.603C630.823 356.961 632.197 368.647 633 375z"/>
</svg>
