<?xml version="1.0" standalone="yes"?>
<svg xmlns="http://www.w3.org/2000/svg" width="1450" height="818">
<path style="fill:#010101; stroke:none;" d="M0 0L0 818L1450 818L1450 0L0 0z"/>
<path style="fill:#ffffff; stroke:none;" d="M754 342C759.415 345.038 758.999 349.329 759 355C769.584 351.125 794.487 334.422 798 357C816.192 359.237 804.327 337.324 807.265 328C810.086 319.043 819.034 317.261 827 315L818 278C813.217 278.928 807.35 279.408 803.174 282.089C798.856 284.861 796.629 289.628 791.996 292.201C785.311 295.912 777.499 296.935 770 297.845C766.04 298.325 753.456 298.157 751.693 302.434C750.289 305.84 752.222 312.43 752.729 316C753.792 323.477 755.35 334.892 754 342z"/>
</svg>
