<?xml version="1.0" standalone="yes"?>
<svg xmlns="http://www.w3.org/2000/svg" width="1450" height="818">
<path style="fill:#010101; stroke:none;" d="M0 0L0 818L1450 818L1450 0L0 0z"/>
<path style="fill:#ffffff; stroke:none;" d="M174 353C177.396 361.959 184.402 376.78 191.213 383.561C200.093 392.403 211.701 397.226 222 404.003C234.501 412.228 246.895 421.164 261 426.532C271.776 430.633 284.3 429.311 295 433.854C301.863 436.768 307.173 443.599 313 448.112C326.67 458.699 341.967 470.993 360 471C364.342 471.002 371.583 472.472 374.651 468.682C384.099 457.01 383.532 445.244 385.356 432C385.9 428.048 388.871 425.214 387.991 421C386.595 414.318 379.449 409.568 378.904 403C378.409 397.02 381.459 390.984 381.609 385C381.848 375.434 378.75 359.596 374.175 351.004C367.43 338.336 348.837 329.139 347 315L351 315L340 303C328.934 321.521 307.184 287.354 293.001 290.901C285.983 292.656 284.171 301.009 276.999 303.08C270.882 304.847 264.943 300.533 259 301.876C249.164 304.098 239.251 312.002 231 317.273C227.251 319.668 222.744 320.245 219.001 322.785C209.711 329.089 214.67 339.263 207.686 345.333C204.049 348.494 200.129 346.107 196 346.564C189.129 347.325 180.96 351.285 174 353z"/>
</svg>
