<?xml version="1.0" standalone="yes"?>
<svg xmlns="http://www.w3.org/2000/svg" width="1450" height="818">
<path style="fill:#010101; stroke:none;" d="M0 0L0 818L1450 818L1450 0L0 0z"/>
<path style="fill:#ffffff; stroke:none;" d="M598 260C597.965 272.028 584.876 276.795 588.318 288.815C589.788 293.948 598.233 297.003 601.695 301.015C607.553 307.804 605.596 315.541 609.314 323C612.945 330.283 621.16 332.998 617 342L626 348L640 319L643 320L651 296L652 296C656.054 302.386 658.592 301.951 665 299C662.013 291.828 656.217 286.867 653.059 280C650.965 275.449 652.018 268.99 647.852 265.702C637.175 257.274 610.993 260.108 598 260z"/>
</svg>
