<?xml version="1.0" standalone="yes"?>
<svg xmlns="http://www.w3.org/2000/svg" width="1450" height="818">
<path style="fill:#010101; stroke:none;" d="M0 0L0 818L1450 818L1450 0L0 0z"/>
<path style="fill:#ffffff; stroke:none;" d="M377 289C383.229 293.475 390.395 297.828 395.786 303.3C398.683 306.24 399.714 310.576 403.133 313.005C410.922 318.541 421.106 319.418 429 325.529C439.659 333.779 447.959 344.958 461 350.01C467.59 352.563 475.161 351.952 482 353.665C489.805 355.62 496.891 359.955 505 360.826C515.42 361.946 524.712 361.102 535 364C537.546 355.387 536.913 339.691 528.699 334.086C522.616 329.934 514.311 330.444 508.039 326.86C500.794 322.721 499.869 313.66 491.999 309.912C485.336 306.739 478.78 307.287 472 305.363C465.04 303.387 459.115 298.311 452 296.674C447.96 295.744 443.943 298.174 440.015 296.453C428.823 291.549 427.658 274.664 414 272.448C402.846 270.637 383.906 280.644 377 289z"/>
</svg>
