<?xml version="1.0" standalone="yes"?>
<svg xmlns="http://www.w3.org/2000/svg" width="1450" height="818">
<path style="fill:#010101; stroke:none;" d="M0 0L0 818L1450 818L1450 0L0 0z"/>
<path style="fill:#ffffff; stroke:none;" d="M867 394C866.385 401.789 863.596 418.04 872.39 422.883C875.763 424.739 883.115 423 887 423L886 407L912 418.215L932 419.43L947 426C949.011 421.328 954.036 411.933 952.898 407C950.457 396.414 933.07 390.338 925 384.334C920.905 381.288 917.445 377.843 912 378.305C899.038 379.403 892.204 390.289 881 394.397C876.65 395.991 871.444 394.351 867 394z"/>
</svg>
