<?xml version="1.0" standalone="yes"?>
<svg xmlns="http://www.w3.org/2000/svg" width="1450" height="818">
<path style="fill:#010101; stroke:none;" d="M0 0L0 818L1450 818L1450 0L0 0z"/>
<path style="fill:#ffffff; stroke:none;" d="M812 423C806.071 430.26 791.436 443.643 781.214 437.683C776.46 434.911 778.628 428.996 775.143 425.799C773.311 424.12 764.974 424.7 762 424C761.338 432.388 761.376 452.307 754.487 458.142C750.537 461.487 741.048 462.295 736 464C738.649 478.861 752.791 487.619 766 492.138C776.72 495.806 786.204 493.143 797 494.17C815.643 495.943 836.238 499.001 854 505C855.125 500.996 856.457 497.042 854.718 493C853.434 490.016 849.467 486.964 849.583 483.576C849.672 480.955 851.96 478.55 852.582 476C854.982 466.152 857.851 442.949 852 435L851 435C835.208 446.979 819.064 439.187 812 423z"/>
</svg>
