<?xml version="1.0" standalone="yes"?>
<svg xmlns="http://www.w3.org/2000/svg" width="1450" height="818">
<path style="fill:#010101; stroke:none;" d="M0 0L0 818L1450 818L1450 0L0 0z"/>
<path style="fill:#ffffff; stroke:none;" d="M1158 280L1157 280C1145.26 259.688 1129.62 267.515 1112 259.918C1103.92 256.435 1096.41 247.159 1087 247.391C1075.62 247.672 1071.48 257.995 1060 258C1051.12 258.004 1041.83 258.76 1033 257.714C1027.06 257.011 1019.55 254.52 1014.02 257.653C1005.7 262.36 1004.56 273.178 1000.62 281C996.16 289.862 988.096 296.902 979 300.841C968.302 305.474 958.958 289.659 948 291.218C934.876 293.084 924.281 307.887 912 313C916.265 327.918 919.184 339.165 918.996 355C918.923 361.137 914.959 372.234 918.032 377.711C925.21 390.506 949.943 391.912 953.362 407C954.467 411.879 950.053 418.152 949.058 423C947.25 431.805 947.735 440.681 944.721 449.892C943.47 453.718 938.577 454.623 938.441 459.019C938.277 464.339 942.768 467.245 945.015 471.375C947.268 475.515 949.817 487.183 950.52 492C951.495 498.673 945.737 502.907 945.528 509C945.233 517.568 949.752 526.239 949.725 535C949.712 539.541 946.791 543.564 946 548C963.022 553.759 981.863 560.745 997 570.548C1005.49 576.044 1012.57 583.594 1021 589.251C1030.25 595.458 1044.27 599.314 1051.35 608.185C1060.34 619.445 1056.48 636.93 1066.61 647.61C1074.43 655.854 1090.19 652.158 1096.47 660.885C1100.5 666.484 1088.47 677.044 1097.31 682.57C1107.35 688.841 1119.08 683.093 1129 680.025C1148.74 673.92 1163.63 671.02 1183 678.989C1190.84 682.215 1197.11 683.84 1201 692L1217 693.799L1229 686C1226.24 674.063 1220.69 662.891 1215.25 652C1213.34 648.177 1211.63 642.479 1208.36 639.603C1198.74 631.123 1185.17 641.634 1181 650C1177.44 646.448 1173.01 639.842 1168 644L1167 644L1159 635L1168 634L1154 596C1165.39 596.879 1161.98 612.108 1168.7 618.397C1171.24 620.773 1175.82 620 1179 620C1187.19 620 1202.84 622.542 1208 615L1192 604C1193.01 601.454 1194.49 598.804 1193.65 596C1192.27 591.41 1188.04 587.254 1185.78 583C1180.87 573.755 1179.71 557.734 1170 553L1170 552C1176.57 547.929 1172.59 533.142 1170 527L1165 528L1166 521L1173 521C1173 509.638 1172.62 495.307 1180.39 486.09C1184.64 481.045 1190.94 479.047 1195.53 474.61C1202.14 468.218 1204.94 462.316 1213 457L1220 479L1212 484L1209 468C1203.59 469.971 1203.46 474.825 1199.78 478.714C1190.88 488.113 1182.23 490.822 1188 505L1216 487C1215.88 497.483 1204.01 505.846 1197 513L1197 514C1203.88 518.203 1211.24 509.843 1217 506C1224.04 501.308 1231.18 494.016 1239 490.85C1245.88 488.067 1255.65 488.316 1263 488L1264 475L1273 475L1273 484L1269 484L1270 490L1278 489L1278 496C1272.42 496.015 1266.22 498.295 1262 494C1256.77 496.101 1253.69 522.057 1258.73 525.972C1262.52 528.925 1272.37 526.003 1277 526L1278 533L1265 533L1265 549L1271 547L1275 561L1276 561C1285.45 535.659 1280.69 506.37 1283.84 480C1284.81 471.964 1284.39 461.373 1287.9 454C1290.9 447.692 1297.21 442.006 1302 437C1300.07 447.232 1296.41 457.753 1295.18 468C1294.46 474.058 1296.55 479.967 1295.7 486C1294.54 494.178 1289.34 504.717 1291.74 513C1297.01 531.152 1317.5 519.705 1327 513.927C1330.09 512.045 1334.94 510.792 1336.97 507.61C1339.04 504.369 1338 498.672 1338 495C1338 484.277 1334.19 464.336 1340.01 455.04C1349.24 440.285 1378.98 439.409 1381.39 420C1383.49 403.128 1361.86 394.771 1356.66 381C1351.78 368.046 1358.69 354.799 1356.53 342C1354.31 328.795 1343.14 319.316 1341.63 306C1340.97 300.17 1349.86 285.714 1346.57 282.426C1341.77 277.622 1333.69 289.524 1327.3 285.307C1318.57 279.55 1323.7 269.114 1327 262C1316.68 259.987 1310.25 267.68 1301 268.52C1294.33 269.126 1291.25 261.708 1285.91 259.603C1278.58 256.716 1269.52 260.804 1262 258.298C1258.07 256.988 1253.59 254.016 1252.23 249.96C1250.41 244.544 1252.35 235.86 1244.98 234.502C1234.66 232.599 1229.83 247.951 1219 246.411C1206.1 244.578 1201.88 227.023 1190 224.914C1185.97 224.199 1180.54 227.121 1177 228.782C1174.53 229.942 1171.53 231.077 1169.51 232.966C1162.96 239.096 1173.55 248.983 1173.33 256C1172.94 268.193 1164.28 271.275 1158 280M1239 495L1239 516C1246.8 514.39 1254.89 514.348 1255 505L1252 505L1252 496L1239 495M1233 500L1223.68 511.829L1205 523L1203 519C1200.55 523.551 1205.87 535.093 1211.04 536.555C1213.53 537.256 1215.89 534.819 1218.25 536.022C1221.04 537.44 1223.19 541.554 1225 544C1230.2 538.341 1227.16 533.398 1225 527C1235.91 524.467 1237.03 509.593 1233 500M1195 525L1197 530C1191.87 532.552 1178.24 542.125 1185.02 549.382C1187.45 551.98 1191.53 550.123 1194.21 553.163C1200.12 559.84 1205.66 569.211 1210 577L1211 577C1217.57 564.652 1213.64 556.442 1203 547L1203 546C1209.59 539.508 1200.83 530.764 1198 524L1195 525M1213 539L1209 541L1221 558C1223.59 550.395 1218.33 544.242 1213 539M1220 589L1251 571C1239.96 556.574 1214.96 572.88 1220 589M1238 582L1246 597L1259 591L1253 575L1238 582M1233 586L1223 592C1228.58 598.919 1234.51 604.938 1243 600L1233 586M1174 626C1174 634.28 1174.25 637.966 1183 640L1189 626L1174 626z"/>
</svg>
