<?xml version="1.0" standalone="yes"?>
<svg xmlns="http://www.w3.org/2000/svg" width="1450" height="818">
<path style="fill:#010101; stroke:none;" d="M0 0L0 818L1450 818L1450 0L0 0z"/>
<path style="fill:#ffffff; stroke:none;" d="M377 166C377.009 179.584 386.428 181.913 391.798 193C394.232 198.026 390.882 202.817 391.302 208C391.822 214.401 396.294 219.216 395.073 226C393.874 232.66 391.115 242.841 385.786 247.363C378.195 253.805 359.975 255.197 355.434 264.105C352.987 268.907 355.732 273.995 355.319 279C354.998 282.903 353.341 287.108 355.461 290.787C357.348 294.063 362.995 297.083 366.61 294.958C379.317 287.489 396.172 269.365 413 271.484C427.062 273.254 428.539 291.606 440.04 295.951C443.986 297.442 447.97 295.005 452 296.045C458.38 297.691 463.829 301.89 470 304.034C475.138 305.819 480.729 305.225 486 307.004C495.17 310.099 502.26 317.935 512 319.518C520.146 320.841 527.413 314.762 536 316.225C543.282 317.464 546.657 324.824 554 326C558.806 314.658 552.53 306.116 552.113 295C551.938 290.341 555.141 285.401 560 284.548C566.039 283.487 569.17 289.796 574.17 291.231C577.943 292.313 583.176 290.484 587 290L597 260C580.45 255.1 587.226 227.273 579.558 216.318C575.164 210.041 565.604 217.743 561.434 208.995C558.851 203.577 560.85 189.407 554.606 186.618C551.373 185.174 545.501 186.868 542 187.039C528.232 187.708 513.617 193.283 500 192.625C491.939 192.236 484.03 189.777 476 189.377C472.209 189.188 468.789 190.655 465 189.677C457.459 187.732 450.493 180.468 443 179.718C437.668 179.185 432.877 182.931 428 184.367C420.666 186.526 414.108 185.382 407 183.111C395.866 179.554 387.789 170.089 377 166z"/>
</svg>
