<?xml version="1.0" standalone="yes"?>
<svg xmlns="http://www.w3.org/2000/svg" width="1450" height="818">
<path style="fill:#010101; stroke:none;" d="M0 0L0 818L1450 818L1450 0L0 0z"/>
<path style="fill:#ffffff; stroke:none;" d="M810 339C809.514 350.327 809.647 358.533 797 358C796.752 350.422 789.671 345.109 782 345.513C773.459 345.963 766.55 352.865 759 355.925C749.448 359.797 740.593 358.23 731 364C736.825 384.221 754.399 380.964 770.996 384.634C776.678 385.891 779.312 391.168 784.015 394.185C793.521 400.285 806.797 399.199 813 409L824.093 400.303L835.586 396.147L844.005 388.654L860 389C859.955 376.254 843.96 371.579 857 361L857 360L842 350L835 364L829.958 348.418L810 339z"/>
</svg>
