<?xml version="1.0" standalone="yes"?>
<svg xmlns="http://www.w3.org/2000/svg" width="1450" height="818">
<path style="fill:#010101; stroke:none;" d="M0 0L0 818L1450 818L1450 0L0 0z"/>
<path style="fill:#ffffff; stroke:none;" d="M835 363L842 349L857 360C866.42 349.94 873.093 336.449 884.004 327.666C887.987 324.46 897.243 319.965 897.045 314C896.821 307.265 890.618 301.018 884 301.38C873.981 301.927 865.503 307.709 856 310.007C843.614 313.002 830.243 314.195 818.001 318.356C811.61 320.528 805.561 326.464 807.692 333.957C810.367 343.361 824.836 341.251 830.382 347.649C834.358 352.235 829.219 358.185 835 363z"/>
</svg>
