<?xml version="1.0" standalone="yes"?>
<svg xmlns="http://www.w3.org/2000/svg" width="1450" height="818">
<path style="fill:#010101; stroke:none;" d="M0 0L0 818L1450 818L1450 0L0 0z"/>
<path style="fill:#ffffff; stroke:none;" d="M854 506C840.501 499.715 825.184 500.76 811 496.876C806.923 495.759 797.15 493.574 793.419 496.029C784.464 501.92 786.055 517.435 784.293 525.576C783.18 530.722 777.995 533.765 779.357 539.911C780.263 543.997 785.201 547.185 787.996 550.001C794.529 556.584 807.592 577.738 819.938 571.882C826.329 568.85 819.435 558.829 823.086 553.105C826.001 548.535 831.813 547.513 835.911 544.363C841.239 540.266 846.788 533.699 850.337 528C854.999 520.515 851.059 513.661 854 506z"/>
</svg>
