<?xml version="1.0" standalone="yes"?>
<svg xmlns="http://www.w3.org/2000/svg" width="1450" height="818">
<path style="fill:#010101; stroke:none;" d="M0 0L0 818L1450 818L1450 0L0 0z"/>
<path style="fill:#ffffff; stroke:none;" d="M651 297L644 321L641 320C637.911 325.292 630.817 335.69 631.912 342C634.019 354.143 644.605 350.469 652.996 353.715C657.755 355.555 659.692 361.359 664.21 362.682C671.235 364.739 677.009 360.591 683.424 360.535C691.342 360.465 699.833 362 708 362L701 311C687.496 316.503 669.618 317.07 665 300C657.467 302.359 657.108 301.927 651 297z"/>
</svg>
