<?xml version="1.0" standalone="yes"?>
<svg xmlns="http://www.w3.org/2000/svg" width="1450" height="818">
<path style="fill:#010101; stroke:none;" d="M0 0L0 818L1450 818L1450 0L0 0z"/>
<path style="fill:#ffffff; stroke:none;" d="M576 345C582.157 341.149 589.612 331.085 597 330.337C603.838 329.645 611.171 337.108 616 341C622.685 334.009 610.414 327.236 607.879 321C604.489 312.661 606.371 304.993 598.91 298.329C590.089 290.451 584.775 294.205 575.039 291.975C569.673 290.746 566.288 284.152 560.001 284.943C547.237 286.548 555.707 304.111 556.7 311C557.216 314.584 556.399 318.543 557.589 322C560.819 331.386 571.709 335.983 576 345z"/>
</svg>
