<?xml version="1.0" standalone="yes"?>
<svg xmlns="http://www.w3.org/2000/svg" width="1450" height="1366">
<path style="fill:#010101; stroke:none;" d="M0 0L0 1366L1450 1366L1450 0L0 0z"/>
<path style="fill:#ffffff; stroke:none;" d="M873 992C863.322 998.952 859.62 1000.25 848 998L852.225 1013L860.86 1026L860.299 1037L864 1070C872.02 1067.97 883.742 1067.2 882.845 1080C882.396 1086.41 876.807 1091.77 875.387 1098C873.025 1108.35 874.256 1119.83 871.682 1130C870.72 1133.8 866.845 1135.51 865.693 1139.09C863.868 1144.76 865.398 1152.11 864.181 1158C861.385 1171.54 855 1181.29 855 1196C867.064 1195.75 880.902 1196.77 885 1184C873.496 1178.86 873.086 1170.95 883 1162.94C894.832 1153.37 907.852 1149 921 1142C919.479 1133.93 915.78 1123.07 918.178 1115.02C920.445 1107.4 936.752 1097.12 944 1094C942.086 1085.93 937.318 1076.55 940.603 1068.04C942.549 1063 948.789 1060.8 952.049 1056.7C959.125 1047.81 963.556 1036.81 967 1026C960.579 1024.42 954.936 1026.58 949 1025.62C943.633 1024.74 940.881 1021.42 935 1022.85C927.114 1024.77 922.153 1034.18 913.105 1031.68C907.977 1030.27 906.335 1021.72 902.895 1018.02C897.534 1012.24 890.14 1010.13 884.093 1005.37C879.538 1001.78 876.999 996.141 873 992z"/>
</svg>
