<?xml version="1.0" standalone="yes"?>
<svg xmlns="http://www.w3.org/2000/svg" width="1450" height="1366">
<path style="fill:#010101; stroke:none;" d="M0 0L0 1366L1450 1366L1450 0L0 0z"/>
<path style="fill:#ffffff; stroke:none;" d="M547 365L578.871 383.336L593 391.01L604 383C602.898 396.834 585.9 410.442 594.514 425.697C596.934 429.983 606.618 430.531 611 431.627C623.483 434.747 639.393 444.957 642 426L693 436C693.82 430.684 700.24 427.107 700.044 422C699.708 413.247 686.844 404.493 681.978 398C678.406 393.232 678.138 386.552 676 381C686.046 376.541 688.456 365.544 683.951 356C682.535 353 678.005 349.109 678.653 345.576C680.035 338.035 708.945 313.974 687 312.059C684.363 311.828 681.646 312 679 312C678.974 304.535 673.231 294.405 666 303C663.881 301.143 659.701 298.702 659.558 295.561C659.161 286.846 673.399 275.096 663.722 267.746C659.98 264.904 656.022 268.23 652.185 266.672C648.996 265.377 648.053 261.466 644.79 260.148C635.058 256.218 621.705 259.68 612 261.88C608.821 262.601 604.104 262.611 601.564 264.858C596.65 269.205 601.694 276.806 597.902 282C589.881 292.985 586.289 304.908 579.276 316C568.511 333.029 555.741 346.518 547 365z"/>
</svg>
