<?xml version="1.0" standalone="yes"?>
<svg xmlns="http://www.w3.org/2000/svg" width="1450" height="1366">
<path style="fill:#010101; stroke:none;" d="M0 0L0 1366L1450 1366L1450 0L0 0z"/>
<path style="fill:#ffffff; stroke:none;" d="M1148 114L1139.78 122.914L1126 129L1125 117L1109.03 122.563L1105.3 133.486L1093.6 138.14L1091.58 147L1083.88 162L1086.64 176L1082.65 197L1065 219C1081.48 229.162 1103.07 220.349 1121 215.873C1126.15 214.588 1133.11 215.396 1137.81 213.397C1142.49 211.406 1141.62 205.756 1144.73 202.589C1148.22 199.037 1157.31 199.37 1162 199L1164 209L1179.83 205.973L1200 196.977L1216 200.535L1238 204C1244.26 187.87 1253.64 174.811 1270 168C1265.4 158.625 1254.58 161.7 1247.22 155.363C1239.56 148.766 1248.41 131.211 1239.72 127.643C1235.2 125.783 1221.68 123.115 1217.17 125.434C1213.59 127.273 1211.87 132.353 1207.91 133.339C1205.35 133.975 1202.65 132.315 1200 132.623C1188.58 133.946 1179.54 135.435 1168 133.464C1165.1 132.969 1161 134.162 1158.39 132.802C1153.08 130.029 1151.88 118.679 1148 114z"/>
</svg>
