<?xml version="1.0" standalone="yes"?>
<svg xmlns="http://www.w3.org/2000/svg" width="1450" height="1366">
<path style="fill:#010101; stroke:none;" d="M0 0L0 1366L1450 1366L1450 0L0 0z"/>
<path style="fill:#ffffff; stroke:none;" d="M788 426C801.092 433.296 824.33 418.985 830 407C840.777 417.443 848.463 409.538 861 409L861 400L872 399L872 397L867 395L867 394C875.3 394 883.397 394.583 891 390.598C901.025 385.344 902.87 376.985 915 378L915 377C909.06 373.225 904.835 367.486 899 363.728C888.976 357.271 876.301 356.335 865 355L864 358C850.542 350.063 833.246 340.468 818 338.271C814.03 337.699 806.073 335.031 802.418 337.117C794.938 341.387 792.994 362.352 793.194 370C793.392 377.573 798.919 387.297 802.27 394C803.551 396.563 807.023 400.539 806.323 403.576C804.325 412.254 791.069 416.974 788 426z"/>
</svg>
