<?xml version="1.0" standalone="yes"?>
<svg xmlns="http://www.w3.org/2000/svg" width="1450" height="1366">
<path style="fill:#010101; stroke:none;" d="M0 0L0 1366L1450 1366L1450 0L0 0z"/>
<path style="fill:#ffffff; stroke:none;" d="M185 790C182.412 799.099 191.846 802.622 192.377 811C192.889 819.104 184.058 827.582 182.333 835.089C180.879 841.414 185.679 847.079 183.725 854C180.652 864.891 170.773 865.168 163.39 870.995C158.79 874.624 152.998 885.361 151.512 890.999C149.985 896.787 157.709 899.534 159.972 904.004C163.626 911.219 161.992 923.022 163 931L149 923.303L129 918.471L110 925.189L79 921C76.7646 925.147 71.1514 928.558 75 933L75 934C66.1018 939.441 68.0312 951.856 66.1968 961C64.5391 969.263 59.6607 976.608 56 984L61 985C60.5181 993.772 52.4418 994.19 48.3634 1001.01C41.5962 1012.34 44.1594 1018.3 45 1030L48 1030L47 1055C51.1432 1056.33 53.0901 1057.63 54 1062L55 1062L61 1058C61 1064.75 59.0165 1073.68 67 1076L71 1069C76.771 1071.48 87.4583 1073.39 92 1069C94.678 1080.17 103.373 1081 105 1069C118.173 1070.7 122.534 1081.27 135 1074C133.928 1080.86 138.268 1087.09 129 1089L129 1108L118 1109C117.999 1103.23 114.378 1097.62 114.529 1092.58C114.644 1088.7 120.151 1083.37 115.667 1080.05C111.771 1077.17 100.056 1083.04 96 1085L97 1098L104 1109L97 1112C96.946 1106.03 94.5697 1103.27 92.392 1098C90.676 1093.85 93.5261 1088.19 90.142 1084.6C82.4009 1076.39 74.6721 1090.78 70.787 1094.7C62.278 1103.29 53.4615 1112.21 47.5571 1123.09C43.0793 1131.34 41.0506 1143.8 34 1150L34 1151C40.0757 1153.92 44.6803 1152.93 50 1149L51 1152L60 1148C57.5883 1155.07 60.4893 1158.25 67 1161L74 1151L72 1157C79.4035 1162.72 78.4487 1169.64 80 1178C75.0904 1179.75 73.0048 1183.36 71 1188L70 1188L70 1177C63.6743 1179.1 66.8054 1186.76 65.7215 1192C64.7955 1196.47 61.4281 1199.33 58 1202L60 1208L63 1207L66 1213L78 1201C80.9896 1213.59 91.227 1217.05 96.9761 1202.95C98.9478 1198.11 95.9974 1191.83 95 1187L109 1192L109 1202C113.76 1198.36 117.161 1193.19 123 1191C127.409 1189.34 131.48 1191.46 135.91 1190.84C141.501 1190.05 147.313 1182.55 150 1178L141 1176L148 1167L148 1166C139.825 1156.24 148.591 1151.74 158 1151L158 1152C149.708 1154.24 152.611 1161.67 155 1168C167.486 1165.38 166.842 1156.67 166 1146L161 1148L158 1137C167.686 1138.22 183.835 1137.02 173 1124C185.879 1120.47 194.747 1104.25 204 1095L209 1106C214.892 1103.25 241.302 1089.22 225.895 1081.5C221.854 1079.47 216.498 1081.95 212 1081L207 1087L210 1064C214.164 1068.41 217.078 1069 223 1069C221.061 1063.99 218.353 1058.98 225 1057L224 1042L230 1048L231 1048C235.234 1043.77 238.673 1039.18 245 1039C241.383 1044.47 225.008 1069.03 242.09 1070.35C250.002 1070.97 253.168 1062.73 257.637 1058.36C259.697 1056.34 262.275 1057.27 264.501 1055.89C267.226 1054.19 272.202 1044.89 273.4 1041.83C275.831 1035.63 273.212 1029.31 276.591 1023C279.52 1017.53 290.239 1008.12 290.809 1002.89C291.516 996.393 285.058 989.936 283 984L289 983C284.121 966.537 272.696 969.39 267 983L262 981C266.621 975.666 270.316 967.313 264 962L264 961C269.34 956.088 277.317 946.247 274 939L282 938L268.519 903.039L264.908 892.015L275 878L271 877C272.509 867.691 265.208 861.419 262.442 853C260.735 847.805 264.185 843.172 263.685 838C263.327 834.29 260.403 831.61 259.796 828C258.399 819.703 261.128 812.062 265 805C254.614 801.715 256.452 789.674 245 787.379C236.257 785.626 222.553 786.21 214 788.637C209.245 789.987 205.051 793.947 200 794.146C194.839 794.349 189.832 791.379 185 790M262 795L261 799L265 796L262 795M427 814C418.764 817.651 409.568 817.617 408 828L402 828L401 821C387.001 824.973 375.235 832.317 365.343 843.184C361.503 847.404 361.728 853.28 356.942 856.768C345.922 864.797 333.596 869.034 322.213 875.569C314.559 879.963 308.42 887.541 300 891.698C292.062 895.616 280.705 896.318 274.618 903.633C267.203 912.546 283.168 929.457 286.683 936.09C288.601 939.709 287.78 944.371 290.14 947.809C291.983 950.494 294.336 949.777 297 949L296 943C305.592 949.465 312.61 950.179 309 963L314 964C311.909 969.041 307.762 969.358 304.514 973.225C297.36 981.741 309.807 984.033 315.772 980.57C325.557 974.889 321.744 951.794 335.985 950.502C344.257 949.752 343.042 961.735 349.133 964.627C352.507 966.23 356.394 963.787 360 964.403C366.447 965.503 372.352 968.841 379 968.945C397.114 969.229 411.172 956.697 415 940C418.48 943.64 419.427 948.037 419 953L424 953L422 960C433.066 962.053 439.788 958.168 448 951L448 950C442.218 942.087 446.321 933.617 448.705 925C449.514 922.076 451.722 916.317 449.883 913.478C447.364 909.589 434.009 918.524 429 917.786C417.541 916.099 403.943 904.549 404.503 892C404.646 888.793 407.305 886.081 408.137 883C409.235 878.937 408.122 871.477 412.303 868.955C416.018 866.714 421.443 870.989 425 872.006C429.866 873.398 434.185 870.572 439 870.485C444.273 870.39 449.804 875.865 454.562 871.343C458.931 867.192 453.454 863.007 452.027 859C449.482 851.853 452.91 843.131 460 841C458.941 835.443 456.551 829.995 451 828L449 833L444 826L444 825L451 817L439 827L439 817L433 815L428 819L427 814M298 1007C303.483 1003.25 301.855 995.884 304 990C294.655 988.665 294.565 1001.27 298 1007M207.004 1112.12C199.624 1113.17 195.577 1128.98 205.015 1127.64C215.273 1126.18 219.448 1110.35 207.004 1112.12z"/>
<path style="fill:#010101; stroke:none;" d="M60 1147L61 1148L60 1147M74 1150L75 1151L74 1150z"/>
<path style="fill:#ffffff; stroke:none;" d="M40 1192L38 1200L39 1200L43 1193L40 1192M137 1210L145 1210L146 1204L137 1210M87 1219L89 1226C78.1044 1228.33 82.0536 1242.91 85 1250L86 1250C87.8799 1246.26 90.4224 1233.64 95.0231 1233.41C102.697 1233.02 105.855 1249.92 113 1252C113 1237.17 107.092 1236.31 98 1226L104 1226C100.207 1218.1 95.0514 1215.79 87 1219M30 1222L41 1229C39.8752 1223.62 35.5743 1214.27 30 1222M117 1239L120 1247L119 1239L117 1239z"/>
</svg>
