<?xml version="1.0" standalone="yes"?>
<svg xmlns="http://www.w3.org/2000/svg" width="1450" height="1366">
<path style="fill:#010101; stroke:none;" d="M0 0L0 1366L1450 1366L1450 0L0 0z"/>
<path style="fill:#ffffff; stroke:none;" d="M677 381C681.62 397.933 688.869 413.582 708 416C709.375 410.419 709.565 404.407 711.559 399C714.239 391.737 719.05 387.156 718.995 379C718.876 361.189 695.481 345.708 719 332C716.136 325.827 705.731 315.012 698.325 319.318C693.639 322.042 690.641 328.708 687.573 333C685.049 336.53 679.521 341.468 679.241 346C678.794 353.223 688.184 358.564 687.066 367C686.241 373.218 682.596 378.479 677 381z"/>
</svg>
