<?xml version="1.0" standalone="yes"?>
<svg xmlns="http://www.w3.org/2000/svg" width="1450" height="1366">
<path style="fill:#010101; stroke:none;" d="M0 0L0 1366L1450 1366L1450 0L0 0z"/>
<path style="fill:#ffffff; stroke:none;" d="M1081 1065C1079.39 1070.09 1079.02 1075.39 1076.03 1080C1067.21 1093.6 1050.3 1099.24 1037 1107C1042.34 1120.87 1037.78 1138.24 1050.09 1148.61C1056.37 1153.9 1064.44 1152.87 1070.83 1156.94C1076.63 1160.64 1077.25 1166.74 1085 1167C1085.63 1147.44 1104 1155.95 1116 1155L1117 1150C1103.49 1140.74 1118.51 1131.51 1121.97 1122C1124.07 1116.21 1121.28 1107.73 1119.7 1102C1118.14 1096.36 1109.23 1084.33 1103.98 1081.49C1100.24 1079.47 1095.64 1079.44 1092.09 1077.14C1087.57 1074.22 1084.89 1068.69 1081 1065z"/>
</svg>
