<?xml version="1.0" standalone="yes"?>
<svg xmlns="http://www.w3.org/2000/svg" width="1450" height="1366">
<path style="fill:#010101; stroke:none;" d="M0 0L0 1366L1450 1366L1450 0L0 0z"/>
<path style="fill:#ffffff; stroke:none;" d="M1325 358C1318 361.727 1309.52 363.087 1303 367.649C1288.31 377.933 1272.9 394.406 1254 397.217C1241.14 399.129 1239.54 384.871 1229.96 384.059C1223.83 383.54 1222.88 388.671 1217.9 389.254C1212.99 389.827 1207.94 387.241 1203 387.354C1190.11 387.649 1177.09 389 1164 389L1175.7 425L1183 443L1177 441C1177.12 445.975 1177.88 449.48 1183 451C1183 461.897 1183.14 472.232 1184.92 483C1185.42 486.009 1185.29 491.805 1188.43 493.397C1196.11 497.284 1210.3 488.146 1213.97 481.7C1216.17 477.838 1213.3 473.149 1215.01 469.023C1217.46 463.128 1232.95 464.329 1237.91 467.028C1244.93 470.856 1242.55 479.273 1246.94 484.436C1251.95 490.344 1263.82 486.963 1268.93 494.214C1275.89 504.103 1268.87 512.879 1272.53 522.895C1277.87 537.467 1294.37 540.128 1307 545L1312.52 526L1306 506C1315.9 505.253 1314.78 497.226 1317.85 490C1321.79 480.754 1329.4 467.159 1337.39 460.723C1352.38 448.652 1365.39 455.838 1382 454.787C1388.41 454.381 1394.19 451.413 1400 449C1394.97 434.069 1380.03 428.951 1368 421.135C1357.87 414.552 1351.69 405.618 1343.33 397.394C1340.23 394.345 1335.58 393.796 1332.64 390.606C1323.15 380.337 1330.7 368.717 1325 358z"/>
</svg>
