<?xml version="1.0" standalone="yes"?>
<svg xmlns="http://www.w3.org/2000/svg" width="1450" height="1366">
<path style="fill:#010101; stroke:none;" d="M0 0L0 1366L1450 1366L1450 0L0 0z"/>
<path style="fill:#ffffff; stroke:none;" d="M808 884L810 902C807.623 902.32 805.339 902.82 802.998 903.35C785.008 907.419 797.192 918.083 795.221 931C793.937 939.407 788.773 946.048 792.589 954.906C795.641 961.991 804.133 957.66 808.214 962.564C812.167 967.313 805.028 974.633 810.966 980.397C816.472 985.741 829.228 981.258 836 983.589C842.795 985.928 843.924 992.054 848.559 996.262C857.172 1004.08 866.957 996.059 874 991C880.637 1004.97 893.011 1007.59 902.957 1018C906.181 1021.38 908.511 1029.39 913.108 1030.68C923.553 1033.61 928.471 1022.15 938 1021.55C942.26 1021.28 945.014 1024.54 949 1025.14C953.44 1025.8 962.278 1024.98 967 1024.6C970.959 1024.28 973.477 1021.13 977 1019.75C981.138 1018.14 989.482 1016.57 994 1015.94C1000.05 1015.09 1006.67 1018.98 1013 1019C1012.78 1008.43 1013.4 999.767 1018.56 990.039C1022.09 983.389 1029.44 982.627 1028.91 973.999C1028.68 970.284 1029.12 962.565 1026.97 959.513C1025.48 957.392 1022.47 957.191 1020.64 955.437C1016.52 951.509 1010.12 940.562 1008.99 935C1008.03 930.283 1010.1 924.628 1011 920C1002.07 918.336 983.011 921.427 976.286 915.682C964.9 905.955 972.355 898.402 968.272 887C965.251 878.562 955.609 875.887 949.043 870.957C941.207 865.073 938.896 857.499 928 856L925 862C919.211 859.261 913.117 855.734 910 850C902.526 851.729 894.73 855.883 887 855.921C880.341 855.953 871.328 852.499 865.004 855.104C859.184 857.501 855.755 863.644 850 866.471C842.667 870.072 834.257 869.893 827.044 874.363C818.298 879.784 819.816 884 808 884z"/>
</svg>
