<?xml version="1.0" standalone="yes"?>
<svg xmlns="http://www.w3.org/2000/svg" width="1450" height="1366">
<path style="fill:#010101; stroke:none;" d="M0 0L0 1366L1450 1366L1450 0L0 0z"/>
<path style="fill:#ffffff; stroke:none;" d="M954 1054C951.112 1059.32 944.956 1061.28 942.028 1066.3C937.521 1074.03 942.47 1086.52 945 1094C937.301 1097.22 923.535 1105.74 919.653 1113.14C916.119 1119.88 919.31 1138.88 922.584 1145.59C925.669 1151.9 932.73 1158.69 933.852 1166C935.065 1173.92 929.101 1176.39 926.937 1183C925.492 1187.41 926.982 1193.18 926 1198C930.791 1199.1 937.708 1196.24 941.812 1198.77C948.682 1203.01 946.069 1212.76 949.317 1218.91C954.902 1229.5 970.842 1235.43 974.462 1247C977.571 1256.94 964.389 1261.2 966.283 1271C967.609 1277.85 973.775 1275.31 977.397 1279.43C980.257 1282.69 980.278 1287.38 983.595 1290.79C992.196 1299.62 1011.04 1303.57 1023 1301.57C1026.76 1300.94 1039.5 1299.16 1041.26 1295.68C1043.8 1290.66 1040.41 1284.12 1043.03 1279.01C1046.75 1271.74 1058.33 1270.23 1061.4 1263.61C1064.83 1256.2 1055.24 1249.96 1052.86 1244C1050.22 1237.41 1054.69 1230.7 1053.69 1224C1052.84 1218.32 1047.38 1215.33 1046.41 1210C1044.79 1201.13 1054.95 1190.45 1048.84 1183C1042.3 1175.03 1032.47 1173.65 1025.01 1166.83C1017.75 1160.18 1012.25 1148.43 1004.37 1143.03C997.577 1138.37 990.012 1147.89 985.108 1138.99C981.55 1132.54 988.609 1127.21 987.045 1121.1C985.805 1116.26 979.456 1114.54 977.889 1109C976.234 1103.15 973.603 1096.1 973.6 1090C973.599 1085.3 975.87 1080.77 974.682 1076C972.933 1068.98 960.406 1057.05 954 1054z"/>
</svg>
