<?xml version="1.0" standalone="yes"?>
<svg xmlns="http://www.w3.org/2000/svg" width="1450" height="1366">
<path style="fill:#010101; stroke:none;" d="M0 0L0 1366L1450 1366L1450 0L0 0z"/>
<path style="fill:#ffffff; stroke:none;" d="M970 420L971 437C959.462 428.874 956.365 440.984 946 445C948.346 451.089 951.366 458.337 950.15 465C948.942 471.621 943.068 481.327 946.471 487.896C950.07 494.845 959.516 508.633 968 509.424C973.191 509.909 977.586 506.183 983 506.794C990.554 507.646 1000.49 511.276 1007.96 508.397C1012.46 506.661 1014.23 501.004 1019 499.708C1024.52 498.208 1029.12 504.375 1035 503.018C1044.91 500.729 1055.14 490.179 1064 485C1062.41 477.31 1060.21 473.677 1052 473L1044.36 448L1049.68 437L1051 414L1027 409.34L970 420z"/>
</svg>
