<?xml version="1.0" standalone="yes"?>
<svg xmlns="http://www.w3.org/2000/svg" width="1450" height="1366">
<path style="fill:#010101; stroke:none;" d="M0 0L0 1366L1450 1366L1450 0L0 0z"/>
<path style="fill:#ffffff; stroke:none;" d="M1083 892C1074.32 896.135 1067.22 905.483 1058 907.787C1048.26 910.221 1039.23 904.059 1029.09 908.26C1025.17 909.887 1024.01 913.851 1020.79 916.272C1018.08 918.308 1014.15 918.267 1012.16 921.279C1005.46 931.443 1013.04 946.987 1020.64 954.487C1022.74 956.56 1026.17 956.737 1027.82 959.303C1030.04 962.744 1029.52 969.956 1029.83 974C1030.39 981.429 1024.72 982.53 1020.7 987.464C1016.62 992.485 1013 1003.55 1013.13 1010C1013.31 1019.16 1018.57 1023.93 1021.3 1032C1024.26 1040.75 1022.37 1049.77 1027.99 1057.9C1030.68 1061.78 1035.28 1062.59 1038.61 1065.64C1042.68 1069.36 1045.61 1077.73 1046.96 1083C1049.54 1093.09 1035.46 1096.71 1037 1106C1057.75 1097.36 1076.97 1086.85 1080 1063C1083.6 1067.13 1086.79 1072.99 1091.3 1076.14C1095.96 1079.4 1102.14 1079.23 1106.89 1082.91C1111.21 1086.25 1112.09 1092.09 1116.04 1095.94C1120.19 1099.97 1134.01 1103.32 1140 1103.9C1153.32 1105.18 1157.06 1092.71 1161.55 1083C1167.51 1070.14 1179.51 1057.79 1175.58 1042C1171.69 1026.34 1153.42 1027.92 1147.31 1015.99C1144.14 1009.78 1146.78 1004.34 1146.65 998C1146.51 991.516 1141.49 987.03 1140.28 981C1138.96 974.473 1141.59 966.472 1138.27 960.317C1136.26 956.587 1129.56 957.315 1126 956.678C1118.99 955.426 1112.06 952.212 1107.21 946.91C1102.65 941.921 1100.91 934.842 1097.69 929C1094 922.333 1088.91 916.409 1086.62 909C1084.91 903.437 1085.75 897.177 1083 892z"/>
</svg>
