<?xml version="1.0" standalone="yes"?>
<svg xmlns="http://www.w3.org/2000/svg" width="1450" height="1366">
<path style="fill:#010101; stroke:none;" d="M0 0L0 1366L1450 1366L1450 0L0 0z"/>
<path style="fill:#ffffff; stroke:none;" d="M830 584C828.322 590.813 824.439 600.078 826.699 607C829.839 616.617 841.365 622.659 845.971 632C848.436 636.996 844.845 642.618 846.318 647.816C848.555 655.706 861.192 657.859 868 658C869.215 673.271 883.637 700.92 902.957 693.397C909.065 691.018 909.216 682.676 914.213 678.994C920.654 674.247 930.216 674.699 936.471 670.062C942.457 665.626 940.747 659.996 942.447 654.089C943.808 649.359 946.609 644.939 948 640C940.86 635.769 935.579 631.369 927 631L932 626L932 625L912 611L894 617.225L875 607C873.21 611.022 869.461 616.17 864.39 612.971C858.291 609.124 863.024 601.935 859.382 597.637C853.337 590.504 838.479 587.271 830 584z"/>
</svg>
