<?xml version="1.0" standalone="yes"?>
<svg xmlns="http://www.w3.org/2000/svg" width="1450" height="1366">
<path style="fill:#010101; stroke:none;" d="M0 0L0 1366L1450 1366L1450 0L0 0z"/>
<path style="fill:#ffffff; stroke:none;" d="M1163 210C1161.76 200.433 1157.34 198.805 1148.06 201.724C1142.05 203.612 1143.07 212.025 1136.96 214.397C1133.34 215.802 1128.82 214.884 1125 215.666C1114.29 217.858 1103.72 220.81 1093 222.996C1087.81 224.054 1081.31 225.98 1076 225.296C1071.73 224.745 1069.08 220.822 1065 219.937C1060.44 218.948 1046.67 220.583 1042.39 222.603C1038.74 224.33 1036.94 230.615 1035.25 234C1028.05 248.401 1032.27 261.295 1027.15 276C1024.98 282.239 1015.78 288.327 1015.86 294.981C1015.92 299.906 1021.66 300.107 1024.79 302.139C1027.81 304.103 1029.98 308.557 1031.06 311.911C1032.39 316.036 1028.31 318.81 1028.92 323C1029.8 329.031 1035.72 334.576 1035.73 340.576C1035.73 343.833 1033.07 346.834 1032.39 350C1030.46 358.956 1037.03 364.819 1045 367.604C1053.82 370.683 1057.4 359.753 1065 359.573C1072.59 359.392 1081.68 361.277 1087.79 365.966C1090.3 367.893 1091.41 371.437 1094.21 372.933C1097.5 374.687 1101.47 372.292 1105 373.14C1117.67 376.185 1118.29 382.217 1123 392C1133.76 388.532 1139.66 398.02 1150 396.189C1156.37 395.062 1160.59 388.971 1167 388.133C1178.34 386.652 1192.66 386.346 1204 386.613C1208.53 386.719 1213.4 389.02 1217.9 388.396C1222.79 387.717 1224.07 382.321 1229.99 383.153C1239.77 384.529 1240.87 398.195 1254 396.531C1273.19 394.1 1289.19 377.019 1304 366.649C1310.52 362.087 1319 360.727 1326 357C1322.12 336.406 1316.36 313.402 1323 293L1290 294C1287.73 276.445 1269.12 284.766 1256 283C1262.55 262.339 1250.19 235.002 1227 235C1226.94 232.038 1225.77 227.921 1227.12 225.185C1230.33 218.649 1239.42 215.664 1236.31 206.055C1233.81 198.363 1223.56 202.219 1218 201.661C1211.91 201.05 1205.15 196.541 1199 197.687C1192.54 198.889 1185.85 203.884 1179.91 206.586C1174.88 208.876 1168.41 208.98 1163 210z"/>
</svg>
