<?xml version="1.0" standalone="yes"?>
<svg xmlns="http://www.w3.org/2000/svg" width="1450" height="1366">
<path style="fill:#010101; stroke:none;" d="M0 0L0 1366L1450 1366L1450 0L0 0z"/>
<path style="fill:#ffffff; stroke:none;" d="M782 278C779.617 287.904 773.343 298.47 765 304L763 300C755.118 301.823 746.83 306.385 742.303 313.39C740.13 316.753 740.735 321.421 738.146 324.57C731.428 332.741 716.924 328.9 710.653 340.015C702.746 354.027 718.969 363.937 719.91 377C720.505 385.266 715.964 389.823 712.954 397C710.41 403.069 709.825 410.508 709 417L699 416L694 437L643 427C641.193 435.448 646.204 438.972 654 439L650 453C653.606 456.277 659.392 456.536 662.397 460.343C668.058 467.516 660.756 476.384 674 477C673.051 489.035 681.191 492.06 687 502C674.637 498.116 674.26 506.344 677 516C661.491 514.217 674.607 540.266 675.018 548.985C675.185 552.509 677.21 555.51 677.102 559.015C676.835 567.626 672.382 578.511 679.564 586.214C685.936 593.049 696.464 593.392 705 595C705.93 593.437 706.785 591.557 707.976 590.167C716.221 580.548 723.314 602.868 728.104 603.872C730.563 604.387 732.79 602.776 735.286 603.63C742.904 606.237 749.357 612.548 757 615.536C764.013 618.278 772.179 618.418 778.961 621.652C789.333 626.599 800.341 640.273 804 651C812.47 649.056 822.606 632.578 826 648L845 649C845.014 643.754 847.228 636.994 845.397 632C841.664 621.82 830.038 616.773 826.075 607C822.458 598.08 831.382 589.145 827.196 580.015C820.154 564.657 793.123 568.887 780 569.816C774.143 570.23 770.44 568.956 765 572C762.549 566.626 761.952 562.501 769 560.464C774.966 558.739 780.529 562.603 787 560.073C794.353 557.199 800.779 552.445 808 549.338C812.81 547.268 818.324 547.037 823 544.701C836.189 538.111 838.748 531.66 854 538L858.519 518L853.214 504L853 485C858.009 485.395 865.999 488.032 870.775 486.307C874.806 484.852 875.345 478.424 878.39 475.637C884.412 470.126 893.387 469.435 901 468C900.609 463.051 901.389 454.465 898.972 450.174C895.35 443.743 887.364 445.18 882.213 441.272C879 438.835 878.443 434.384 875.363 431.938C871.956 429.234 866.879 430.477 863.093 428.566C859.074 426.537 857.811 421.367 853.7 419.603C848.679 417.45 843.022 420.851 838 421.121C834.172 421.327 830.871 419.05 827 419.333C812.637 420.382 801.237 431.02 787 427C790.009 418.149 805.135 411.914 805.748 403C806.369 393.96 794.632 381.338 792.649 372C789.854 358.839 799.018 347.294 800.79 335C802.937 320.108 793.254 300.706 804 288C798.801 281.208 790.133 279.449 782 278z"/>
</svg>
