<?xml version="1.0" standalone="yes"?>
<svg xmlns="http://www.w3.org/2000/svg" width="1450" height="1366">
<path style="fill:#010101; stroke:none;" d="M0 0L0 1366L1450 1366L1450 0L0 0z"/>
<path style="fill:#ffffff; stroke:none;" d="M1126 116L1127 127L1149 113L1157.7 131.357L1168 132.669L1209 134C1219.56 119.755 1226.09 127.176 1241 126C1239.6 121.609 1235.66 117.639 1235.33 113C1234.69 104.022 1241.11 98.6864 1236.47 89C1227.18 69.6115 1210.13 59.1754 1193.1 47.9259C1187.39 44.1509 1186.39 36.2354 1180.79 32.3527C1172.58 26.666 1156.78 25.7336 1147 23.5756C1138.71 21.7476 1123.22 16.2158 1115 18.6929C1105.4 21.5852 1099.39 35.9104 1090 40.6829C1080.78 45.3706 1070.86 31.0837 1063.7 38.5139C1059.17 43.2104 1057.98 52.8477 1056.8 59C1055.26 67.0735 1052.35 79.9711 1054.32 88C1057.27 100.023 1067.61 111.271 1075.96 120C1080.26 124.491 1085.84 134.528 1092.04 136.223C1105.67 139.952 1103.19 127.245 1108.6 121.728C1112.27 117.988 1121.09 117.382 1126 116z"/>
</svg>
