<?xml version="1.0" standalone="yes"?>
<svg xmlns="http://www.w3.org/2000/svg" width="1450" height="1366">
<path style="fill:#010101; stroke:none;" d="M0 0L0 1366L1450 1366L1450 0L0 0z"/>
<path style="fill:#ffffff; stroke:none;" d="M687 704C697.334 720.521 712.951 733.926 726.3 747.826C730.824 752.536 737.225 755.261 740.643 761.015C747.57 772.672 732.569 781.415 733.306 791.775C733.588 795.737 741.237 796.38 743.896 798.086C748.639 801.128 751.682 808.041 754 813L769 801L766 792C776.199 791.999 777.372 788.969 784.313 782.495C786.302 780.64 789.832 779.299 789.168 775.956C788.179 770.974 782.044 768.325 779.777 764C777.763 760.158 780.186 754.946 781 751C768.737 750.474 757.638 746.432 749.394 736.83C746.712 733.707 745.944 729.366 742.775 726.637C735.21 720.123 722.893 717.242 714 712.752C702.606 706.999 700.585 698.936 687 704z"/>
</svg>
