<?xml version="1.0" standalone="yes"?>
<svg xmlns="http://www.w3.org/2000/svg" width="1450" height="1366">
<path style="fill:#010101; stroke:none;" d="M0 0L0 1366L1450 1366L1450 0L0 0z"/>
<path style="fill:#ffffff; stroke:none;" d="M496 712L487 706L492 722L484 722L483 709C480.872 709.346 477.6 709.629 477.042 712.279C476.228 716.138 480.667 718.873 478.302 722.911C474.889 728.74 456.959 734.853 463.076 743.852C467.441 750.274 484 744.231 485.574 754.105C486.571 760.359 479.912 762.662 476.702 766.414C472.882 770.879 471.804 779.497 473 785L487 789.092L504 790L508 781L512 787L520 784L520 783L515 781C517.997 771.566 517.245 768.543 511 761C519.188 758.747 524.341 750.055 525 742L514 739L514 723L515 723L518 725L515 719C520.641 718.094 522.518 715.344 524 710C519.585 706.649 511.206 696.345 505.005 699.708C500.314 702.252 499.078 708.046 496 712M516 729L517 733L520 732L520 730L516 729M531 798L539.899 784L553 759C547.495 755.912 546.829 745.157 540.827 743.461C536.48 742.233 532.248 752.018 530.828 755C527.136 762.751 530.978 774.213 532.062 782C532.753 786.955 531.001 792.874 531 798M447 747L447 749L452 751L458 746C454.178 743.505 450.798 745.012 447 747M524 769L525 761C520.884 762.66 520.42 766.275 524 769M474 792C483.033 798.908 484.025 798.569 495 798C492.388 793.971 478.707 791.08 474 792M463 801L471 803L473 796C468.138 796.058 465.648 796.765 463 801M504 802C502.53 805.191 502.058 806.811 505 809L504 802M526 811L523 822L514 820L514 816C510.519 815.56 505.504 813.948 502.603 816.742C500.549 818.72 501.366 823.212 497.852 823.62C493.672 824.106 490.211 819.775 486 819.781C475.097 819.795 464.437 832.976 468 843L462 844L461 841C453.781 843.551 449.959 852.489 452.952 860C454.396 863.622 459.119 867.488 455.467 871.358C450.586 876.53 444.609 871.126 439 871.267C434.158 871.388 429.882 874.054 425 872.586C421.727 871.601 415.075 866.691 411.938 869.786C409.162 872.524 410.094 878.48 409.137 882C408.202 885.44 404.883 888.384 404.927 892C405.072 904.123 416.53 915.042 428 916.787C433.54 917.63 447.605 909.162 450.397 912.697C452.63 915.525 450.544 920.97 449.705 924C447.486 932.021 441.983 943.305 449 950L449 951L435 960.517L411 966C413.964 970.353 418.179 974.595 419.077 980C419.567 982.947 417.613 988.748 420.603 990.766C426.517 994.757 431.231 979.048 436.997 978.008C442.467 977.021 444.303 983.589 449 985C452.437 976.803 457.673 974.276 465 970C466.874 975.128 466.876 979.295 473 980C472.404 975.719 469.697 972.932 468.755 968.961C466.956 961.382 473.383 953.043 479 949L471 932L472 932C478.182 945.325 483.827 933.24 490 928L490 927C483.073 928.214 481.403 928.175 475 925C480.699 919.748 480.456 913.807 484.804 908.105C490.721 900.346 500.267 894.674 502.93 884C504.463 877.853 501.612 871.903 504.09 865C507.266 856.155 514.468 849.65 517.421 841C520.084 833.195 530.698 819.293 526 811M493 812L491 817L496 819C496.609 815.369 496.15 813.948 493 812M481 967C472.116 978.402 478.966 984.272 489 990L489 991C485.438 994.176 483.381 997.14 484 1002C491.533 999.46 497.339 993.229 502 987L497 986L496 990C488.268 981.637 492.187 973.209 481 967M386 999C390.749 997.259 391.756 993.635 393 989C384.576 987.093 384.223 992.112 386 999M416 997C407.334 1000.61 410.729 1004.51 415 1011C419.54 1008.94 421.034 1006.98 420 1002L416 1003L416 997M369 1023L391 1026L391 1027C383.4 1027 379.473 1027.75 378 1036L385 1031L386 1035C394.504 1032.03 405.123 1026.26 409 1018L408 1017C403.357 1018.07 396.437 1013.98 394 1010L392 1010L391 1013C385.71 1000.12 382.948 1008.77 375.37 1011.38C372.92 1012.22 368.803 1009.94 367.478 1013.32C366.487 1015.84 368.804 1020.25 369 1023M400 1039L396 1048C404.18 1053.62 400.607 1063.53 395 1070L393 1063C386.141 1064.98 370.686 1071.93 367 1078C373.129 1076.12 378.455 1074.54 385 1074.57C388.506 1074.58 391.411 1076.68 394.985 1076.04C412.203 1072.93 423.466 1057.48 431.262 1043C435.059 1035.95 442.045 1033.93 439 1025C428.65 1031.51 425.175 1020.34 415.105 1024.88C407.966 1028.09 409.26 1039.3 400 1039M367 1041L362 1043L366 1057L367 1057L367 1041z"/>
</svg>
