<?xml version="1.0" standalone="yes"?>
<svg xmlns="http://www.w3.org/2000/svg" width="1450" height="1366">
<path style="fill:#010101; stroke:none;" d="M0 0L0 1366L1450 1366L1450 0L0 0z"/>
<path style="fill:#ffffff; stroke:none;" d="M606 950C592.53 965.419 577.338 978.005 565.653 994.867C561.584 1000.74 553.408 1003.49 555 1012C557.88 1011.55 560.137 1011.79 563 1012.34C586.338 1016.86 554.645 1025.24 549.934 1032.26C545.889 1038.29 550.379 1045.45 549 1052L543 1048L534 1052L534 1060L539 1062C537.063 1066.8 536.105 1078.34 541.318 1081.82C547.965 1086.26 553.552 1080.25 557 1090C549.967 1087.91 548.261 1091.57 549 1098L539 1100C538.551 1095.05 536.981 1092.01 533 1089C532.559 1092.57 534.219 1095.45 534.208 1099C534.17 1110.17 531.845 1124.02 537.009 1134.85C539.577 1140.24 551.919 1142.43 556.532 1148.01C563.069 1155.92 559.178 1163.74 560.286 1173C560.662 1176.15 562.608 1181.57 560.307 1184.3C555.749 1189.7 543.362 1189.99 537 1192C544.104 1205.91 557.001 1200.65 566.816 1209.34C570.922 1212.97 579.196 1224.21 585.001 1223.11C595.687 1221.1 603.784 1209.92 615 1208.21C623.801 1206.87 642.14 1214.95 648.647 1206.68C654.967 1198.65 650.093 1193.31 650.059 1185C650.042 1180.61 652.357 1176.37 652.826 1172C653.497 1165.75 652.039 1159.13 653.61 1153C655.76 1144.6 657.639 1131 662.638 1124C668.192 1116.23 679.082 1111.43 682.4 1102C684.171 1096.97 680.841 1092.04 681.573 1087C682.591 1079.99 689.466 1076.06 687.556 1068C685.039 1057.38 674.784 1052.66 679.228 1040.1C682.74 1030.18 702.318 1029.24 709.895 1023.35C716.648 1018.1 716.86 1008.57 724 1003C719.227 983.214 701.562 1003 693 1008C688.552 992.599 678.963 996.354 667 997.182C663.262 997.441 659.708 995.302 656 995.809C652.365 996.307 649.889 998.835 646 998.006C639.829 996.69 632.517 987.009 626 989.24C617.566 992.127 611.547 1011.45 602.133 1005.62C598.432 1003.32 597.849 998.896 596.873 995C596.049 991.706 594.166 987.375 595.324 984C599.108 972.974 612.751 962.699 606 950z"/>
</svg>
