<?xml version="1.0" standalone="yes"?>
<svg xmlns="http://www.w3.org/2000/svg" width="1450" height="1366">
<path style="fill:#010101; stroke:none;" d="M0 0L0 1366L1450 1366L1450 0L0 0z"/>
<path style="fill:#ffffff; stroke:none;" d="M920 1143C906.556 1150.16 892.848 1154.56 881.019 1164.76C872.721 1171.91 876.183 1180.72 886 1183C884.979 1186.19 884.37 1190.91 881.57 1193.06C874.761 1198.3 860.672 1192.17 854.938 1198.6C845.564 1209.12 860.238 1212.49 865.826 1216.59C868.808 1218.77 870.299 1222.66 874.09 1223.68C877.152 1224.51 880.851 1224 884 1224C880.031 1244.47 887.451 1259.85 897 1278L910 1270C912.015 1274.84 916.164 1287.23 923.015 1285.5C927.146 1284.45 932.756 1277.5 936.867 1278.77C940.378 1279.86 945.978 1293.45 948 1297L978 1285C977.689 1275.66 966.565 1279.33 965.333 1270C964.266 1261.92 975.141 1258.17 974.326 1250C972.924 1235.94 954.22 1229.7 948.317 1217.99C945.639 1212.67 947.736 1202.36 941.66 1199.12C937.788 1197.05 929.608 1199.54 925 1199C926.019 1194.06 924.981 1188.59 926.103 1184C927.068 1180.05 931.016 1177.76 932.397 1174C935.132 1166.54 928.74 1149.65 921 1148L920 1143z"/>
</svg>
