<?xml version="1.0" standalone="yes"?>
<svg xmlns="http://www.w3.org/2000/svg" width="1450" height="1366">
<path style="fill:#010101; stroke:none;" d="M0 0L0 1366L1450 1366L1450 0L0 0z"/>
<path style="fill:#ffffff; stroke:none;" d="M1040 366C1036.32 372.309 1024.39 395.528 1033.32 401.544C1040.64 406.48 1053.55 403.003 1062 405C1056.45 410.498 1049.79 414.409 1049.47 423C1049.31 427.369 1051.73 431.602 1050.68 436C1049.6 440.512 1044.41 443.048 1044.91 448C1045.76 456.485 1052.55 463.243 1053 472C1065.98 474.832 1062.6 485.383 1067.65 494.787C1069.7 498.607 1075.24 500.537 1079 502.204C1086.11 505.351 1092.04 501.756 1099 502.998C1103.63 503.825 1106.97 507.504 1112 506.323C1123.22 503.689 1132.01 496.256 1144 494.963C1149.05 494.419 1152.28 497.642 1157 497.972C1166.62 498.646 1176.56 497.616 1186 494L1181.85 455.104L1176 439L1182 442L1175.07 425L1164 390C1158.59 391.791 1153.92 396.877 1148 396.944C1137.25 397.065 1133.35 389.31 1122 393C1119.29 382.745 1116.76 376.204 1105 373.728C1101.45 372.98 1097.57 375.415 1094.21 373.731C1091.05 372.143 1089.79 368.05 1086.9 365.966C1081.01 361.72 1071.23 359.867 1064.04 360.318C1053.27 360.994 1052.76 371.269 1040 366z"/>
</svg>
