<?xml version="1.0" standalone="yes"?>
<svg xmlns="http://www.w3.org/2000/svg" width="1450" height="1366">
<path style="fill:#010101; stroke:none;" d="M0 0L0 1366L1450 1366L1450 0L0 0z"/>
<path style="fill:#ffffff; stroke:none;" d="M517 1099L520 1106L513 1112L518 1118L495 1126L503 1139L493 1143C495.242 1148.46 496.559 1153.27 503 1154C501.237 1167.94 499.61 1181.78 515 1189.1C524.815 1193.77 540.085 1191.04 550 1187.97C552.995 1187.05 559.06 1186.13 560.227 1182.72C561.473 1179.08 559.329 1173.75 559.09 1170C558.422 1159.52 562.005 1152.55 552.91 1144.44C548.409 1140.43 540.331 1140.59 537.009 1135.85C534.079 1131.67 535.237 1125.77 534.101 1121C532.283 1113.36 526.838 1106.57 526 1099L517 1099z"/>
</svg>
