<?xml version="1.0" standalone="yes"?>
<svg xmlns="http://www.w3.org/2000/svg" width="1450" height="1366">
<path style="fill:#010101; stroke:none;" d="M0 0L0 1366L1450 1366L1450 0L0 0z"/>
<path style="fill:#ffffff; stroke:none;" d="M173 788L188 786C183.513 783.316 176.305 783.638 173 788M105 809L105 816C110.511 811.159 101.947 802.209 96.8302 800.694C91.0284 798.975 79.9051 807.958 78 813C84.1727 816.861 88.2222 823.582 96 821L100 833C107.916 837.416 116.886 853.033 113.361 862.791C111.962 866.664 107.561 868.904 105.995 873.001C104.513 876.875 105.583 881.153 103.991 884.985C102.198 889.298 97.79 891.256 95.3634 895.093C90.198 903.261 86.9081 912.125 81 920C88.1822 922.69 103.526 926.105 111 924.323C117.265 922.83 122.273 917.305 129 917.695C142.111 918.456 150.34 928.148 162 930C160.982 921.943 162.283 911.618 159.397 904.015C157.758 899.698 149.729 896.728 150.681 891.714C151.815 885.745 159.127 873.423 164.105 869.995C169.288 866.425 175.084 866.119 179.366 860.957C186.978 851.78 180.025 845.347 181.422 836.015C182.605 828.114 191.423 820.362 191.681 812C191.862 806.136 187.241 801.377 184 797C168.293 804.288 154.914 814.813 139 821.56C134.981 823.264 132.499 827.152 128 827.852C123.672 828.525 115.062 830.107 111 828.687C102.476 825.706 97.604 815.234 105 809z"/>
</svg>
