<?xml version="1.0" standalone="yes"?>
<svg xmlns="http://www.w3.org/2000/svg" width="1450" height="1366">
<path style="fill:#010101; stroke:none;" d="M0 0L0 1366L1450 1366L1450 0L0 0z"/>
<path style="fill:#ffffff; stroke:none;" d="M655 190L662 188C664.137 197.237 671.808 210.497 669.998 220C668.801 226.283 661.791 229.056 660.487 235.043C657.918 246.838 661.573 255.065 649 263L651 267C653.628 266.646 656.352 265.724 658.999 265.677C664.217 265.586 668.594 270.79 667.549 276C665.555 285.935 655.471 293.316 665 302L666 302C673.453 296.043 679.735 302.821 680 311C683.736 311 687.679 310.566 691 312.599C693.103 313.886 696.539 318.372 699.397 316.824C703.996 314.333 701.429 300.802 705.086 296.357C708.611 292.072 715.247 297.089 719.566 295.307C729.744 291.11 718.298 280.45 713 279C714.288 275.224 718.318 269.983 717.728 266C717.178 262.294 713.275 259.957 713.479 256C713.712 251.502 717.043 248.811 715.725 244C714.209 238.469 706.197 231.09 706.207 226.213C706.217 221.231 715.6 221.705 718.258 219.143C722.807 214.758 722.463 200.705 721.227 195.044C719.818 188.594 713.575 190.04 709.43 186.298C705.614 182.853 703.514 171.986 703.769 167C704.377 155.067 718.656 155 723.991 146.895C728.157 140.565 723.913 130.445 726 123C722.183 121.133 718.115 117.65 714 116.733C705.794 114.904 695.517 120.059 687 119.806C682.551 119.673 679.184 116.688 675 115.677C661.339 112.376 638.028 114.055 633.587 131C630.939 141.106 639.218 146.423 643.095 154.015C646.175 160.046 644.886 165.83 646.637 172C648.418 178.275 652.495 183.983 655 190z"/>
</svg>
