<?xml version="1.0" standalone="yes"?>
<svg xmlns="http://www.w3.org/2000/svg" width="1450" height="1366">
<path style="fill:#010101; stroke:none;" d="M0 0L0 1366L1450 1366L1450 0L0 0z"/>
<path style="fill:#ffffff; stroke:none;" d="M1028 308L1010 313C1009.02 318.997 1004.48 318.462 1000.3 321.702C990.076 329.632 972.658 334.811 959 334.996C955.466 335.044 939.064 332.896 937.497 336.564C936.642 338.564 943.317 347.744 944 351L930 344.869L911 341C910.889 346.362 910.735 352.902 909.046 358C907.954 361.294 904.919 365.389 906.238 368.985C909.381 377.559 921.518 376.968 923.8 387C926.524 398.971 919.199 409.693 926.303 421.867C931.325 430.472 942.172 434.679 946 444C956.637 440.876 958.24 430.166 970 435L969 419C981.403 419.256 993.87 417.44 1006 414.391C1013.2 412.581 1020.48 408.79 1028 408.471C1034.41 408.198 1039 412.665 1045 413.519C1051.27 414.413 1057.41 410.416 1060 405C1051.6 402.8 1039.39 407.829 1032.32 401.347C1023.46 393.227 1036.24 376.354 1037.89 368.015C1038.92 362.771 1031.82 360.183 1031.16 355C1030.46 349.426 1035.33 345.29 1034.97 340C1034.54 333.67 1028.19 328.531 1028.3 322C1028.4 315.921 1032.71 313.745 1028 308z"/>
</svg>
