<?xml version="1.0" standalone="yes"?>
<svg xmlns="http://www.w3.org/2000/svg" width="1450" height="1366">
<path style="fill:#010101; stroke:none;" d="M0 0L0 1366L1450 1366L1450 0L0 0z"/>
<path style="fill:#ffffff; stroke:none;" d="M762 565L765 571C774.12 567.31 792.179 565.736 802 567.666C809.713 569.182 819.271 574.346 827 573.521C831.842 573.004 839.147 572.377 842.687 568.721C845.677 565.634 845.923 561.258 850.019 559.013C858.499 554.367 863.37 556.786 869 547C861.18 543.345 852.914 535.629 844 535.144C834.106 534.607 829.954 541.726 822 545.701C811.147 551.124 798.342 555.846 787 560.663C777.702 564.612 770.87 558.734 762 565z"/>
</svg>
