<?xml version="1.0" standalone="yes"?>
<svg xmlns="http://www.w3.org/2000/svg" width="1450" height="1366">
<path style="fill:#010101; stroke:none;" d="M0 0L0 1366L1450 1366L1450 0L0 0z"/>
<path style="fill:#ffffff; stroke:none;" d="M901 460L902 469C894.329 469.606 884.106 470.617 878.394 476.39C875.565 479.249 875.181 484.894 871.606 486.883C867.414 489.216 858.624 486.365 854 486L854.105 504L859.309 519L855 539L881.581 554.39L891.044 569.553L904 563C903.27 557.346 900.113 549.51 903.028 544.09C904.806 540.784 908.508 538.895 910.677 535.826C913.308 532.103 915.193 527.593 920.004 526.314C932.41 523.016 946.596 528.796 956.486 518.24C968.016 505.933 946.758 495.53 944.953 484.999C943.837 478.49 948.386 471.296 949.443 465C950.517 458.599 947.937 450.595 945 445C936.236 447.469 927.272 449.399 919 453.32C912.848 456.237 908.142 460.94 901 460z"/>
</svg>
