<?xml version="1.0" standalone="yes"?>
<svg xmlns="http://www.w3.org/2000/svg" width="1450" height="1366">
<path style="fill:#010101; stroke:none;" d="M0 0L0 1366L1450 1366L1450 0L0 0z"/>
<path style="fill:#ffffff; stroke:none;" d="M698 744L698 748C690.217 746.785 685.28 737.967 678 737.451C670.66 736.932 661.513 752.101 657 757L657 758L661 765C652.802 763.992 648.471 767.376 648 776C639.869 777.323 630.739 805.276 625 796C614.224 800.642 608.685 803.807 604 815L640 834L640 835L609 827C618.203 841.29 637.832 837.2 652 839L652 840L637 840L636 843L651 853L651 854C640.743 853.759 623.885 842.243 614.109 847.471C606.825 851.367 607.902 866.335 613.637 871.143C619.769 876.282 631.013 874.441 638 873C628.879 888.629 634.627 902.693 641 918L636 920L640 925C630.613 927.71 612.39 937.694 608.404 947C606.704 950.971 609.244 954.921 608.736 959C608.096 964.137 603.82 969.247 601.78 974C600.263 977.536 596.724 980.3 595.776 984C594.46 989.135 598.273 1002.98 603.109 1005.53C611.517 1009.96 618.449 990.442 627 988.665C633.163 987.385 639.923 996.083 646 997.298C650.224 998.142 653.001 995.482 657 995.175C660.393 994.915 663.589 996.704 667 996.501C678.802 995.798 687.112 991.994 693 1006C702.91 1004.23 709.773 987.869 720.606 995.024C725.126 998.009 724.962 1005.45 726.85 1010C729.076 1015.36 733.422 1019.49 735.532 1025C736.693 1028.03 736.428 1032.77 739.318 1034.79C742.424 1036.97 745.073 1034.09 748.286 1034.66C753.096 1035.51 755.362 1036.99 759.999 1034.03C768.205 1028.79 768.272 1017.41 771.879 1009.04C773.334 1005.67 776.653 1003.89 778.651 1000.9C782.903 994.517 785.407 987.492 791.015 982.043C796.343 976.867 808 974.819 808.472 966.055C808.807 959.832 795.146 960.75 792.024 954.96C787.382 946.352 793.466 939.286 794.532 931C795.427 924.04 787.483 911.305 793.515 905.728C797.063 902.447 804.457 902.277 809 901L807 883L819.502 881.972L830.001 872.309L852.985 864.366L866 854.179L887 854.971L910 849C912.808 855.092 918.705 858.994 925 861C932.934 847.833 942.5 865.671 949.105 870.641C954.825 874.946 961.798 877.224 966.316 883.015C974.406 893.386 964.07 906.286 976.428 915.397C979.818 917.895 985.03 917 989 917C998.752 917 1010.75 921.231 1019.79 916.351C1024.38 913.871 1025.63 908.696 1031 906.928C1040.08 903.944 1047.2 908.401 1056 907.445C1064.97 906.471 1074.79 897.196 1081.69 891.791C1092.37 883.413 1078.25 863.401 1076.78 854C1075.86 848.105 1078.18 839.815 1079.45 834C1081.69 823.774 1093.43 824.171 1092.96 813C1092.66 805.776 1089.33 799.062 1088.88 792C1088.7 789.105 1090.67 786.007 1089.18 783.286C1082.88 771.763 1068.55 766.372 1058 760.875C1051.88 757.686 1048.29 752.912 1041 752.171C1026.6 750.707 1011.81 757.367 998 756.492C991.865 756.104 988.781 746.848 982.148 747.658C978.424 748.113 979.079 753.456 977.397 755.91C974.858 759.611 970.31 762.079 966 762.966C955.006 765.229 942.364 758.026 931 759.29C918.304 760.702 905.613 771.741 893 771.157C883.422 770.713 867.88 762.605 863.457 753.985C860.771 748.752 862.357 735.503 854.025 734.662C849.259 734.181 847.568 740.848 845.648 743.985C841.174 751.298 835.133 759.883 826 759C825.356 762.419 825.266 766.704 823.566 769.786C817.094 781.522 801.683 770.64 792.414 776.313C782.7 782.259 779.73 792.956 767 793L770 801L754 814C751.925 809.185 748.972 802.244 744.621 799.086C741.525 796.838 733.754 796.603 732.743 792.177C732.176 789.696 735.17 786.998 736.237 784.996C738.497 780.754 742.221 771.755 742.219 767C742.217 762.766 738.938 758.503 735.895 755.888C727.621 748.778 713.018 727.112 701 727.809C690.865 728.397 685.964 742.042 698 744z"/>
</svg>
