<?xml version="1.0" standalone="yes"?>
<svg xmlns="http://www.w3.org/2000/svg" width="1450" height="1366">
<path style="fill:#010101; stroke:none;" d="M0 0L0 1366L1450 1366L1450 0L0 0z"/>
<path style="fill:#ffffff; stroke:none;" d="M870 395L870 396L873 397C870.327 401.357 866.744 400.996 862 401L862 410C849.806 410.101 840.871 419.011 831 408L824 419L837 420.487L852.91 418.607L862.325 427.566L874.787 430.938L882.39 440.86L894.995 445.993L904.148 459.458L918 453.32L945 444C942.031 434.633 930.223 430.411 925.569 421.892C917.9 407.856 932.199 376.69 908.015 377.833C902.579 378.089 897.405 386.781 893 389.776C885.835 394.649 878.347 395 870 395z"/>
</svg>
