<?xml version="1.0" standalone="yes"?>
<svg xmlns="http://www.w3.org/2000/svg" width="1450" height="1366">
<path style="fill:#010101; stroke:none;" d="M0 0L0 1366L1450 1366L1450 0L0 0z"/>
<path style="fill:#ffffff; stroke:none;" d="M751 47C748.213 53.6582 742.771 59.1422 740.623 66C734.861 84.4036 738.273 108.921 716 115C718.377 119.33 722.333 120.881 727 122C724.844 129.673 728.657 139.198 725.157 145.957C721.402 153.209 711.445 153.626 706.728 160.174C697.929 172.386 709.812 188.2 722 190L720 221C716.57 221.273 707.568 221.614 706.921 226.214C706.304 230.607 714.534 238.18 716.003 243C717.719 248.629 713.491 251.793 713.904 257C714.197 260.706 718.164 262.971 718.447 266.576C718.713 269.965 715.114 274.733 714 278C723.814 283.264 723.328 286.546 722 297C717.76 296.665 711.357 294.375 707.278 295.773C701.598 297.719 702.04 312.164 702 317C707.839 317.92 716.185 325.856 719 331C724.016 329.631 732.479 328.239 736.57 325.062C739.595 322.714 739.389 318.276 740.854 315.043C743.968 308.17 758.023 295.488 765 303C773.918 298.816 779.806 285.476 782 276C786.854 278.833 791.706 278.78 796.424 280.885C799.417 282.22 801.505 285.563 805 285.774C811.723 286.179 822.358 277.26 826.621 272.7C830.556 268.491 832.286 262.224 836.529 258.357C840.139 255.068 844.787 257.941 849 257.603C853.196 257.266 862.447 252.354 865.411 249.301C867.815 246.826 867.141 243.122 868.564 240.214C870.425 236.411 875.701 236.599 877.397 232.775C880.976 224.704 877.141 212.772 879.637 204C881.743 196.601 889.356 193.354 891.759 186.911C893.501 182.24 886.766 178.032 888.994 173.615C892.202 167.254 900.878 166.883 905.61 162.501C911.466 157.077 914.962 145.296 918 138L907.61 127.028L891 124C890.898 115.432 885.831 115.42 879 112.218C867.86 106.996 857.159 106.06 846 102.032C835.039 98.0748 827.804 89.3323 818.911 82.6489C816.01 80.4692 812.078 79.8597 809.43 77.3511C806.713 74.7765 806.996 70.239 803.721 68.1791C794.85 62.598 783.735 72.4785 775 69.98C763.792 66.7742 760.99 54.0093 751 47z"/>
</svg>
