<?xml version="1.0" standalone="yes"?>
<svg xmlns="http://www.w3.org/2000/svg" width="1450" height="1366">
<path style="fill:#010101; stroke:none;" d="M0 0L0 1366L1450 1366L1450 0L0 0z"/>
<path style="fill:#ffffff; stroke:none;" d="M648 262C661.594 258.433 657.845 245.778 659.523 236.004C660.596 229.757 667.603 227.16 669.208 221C671.38 212.661 664.381 196.638 661 189L655 191C652.216 184.313 647.616 177.973 645.637 171C643.51 163.505 646.224 153.302 637.895 148.576C633.197 145.911 626.004 148.197 621 149.084C617.236 149.751 613.29 150.675 610.228 153.109C604.789 157.432 607.524 167.094 601.721 170.683C591.777 176.834 574.138 173.661 570.318 189C568.589 195.942 573.18 201.776 575.252 208C578.039 216.375 579.695 226.095 582.857 234C584.474 238.042 588.033 240.927 589.657 245C591.301 249.125 591.253 253.896 593.558 257.787C597.311 264.123 605.019 262.614 611 261.339C621.213 259.16 639.548 253.27 648 262z"/>
</svg>
