<?xml version="1.0" standalone="yes"?>
<svg xmlns="http://www.w3.org/2000/svg" width="1450" height="1366">
<path style="fill:#010101; stroke:none;" d="M0 0L0 1366L1450 1366L1450 0L0 0z"/>
<path style="fill:#ffffff; stroke:none;" d="M955 1052L955 1053C961.015 1059.14 972.467 1067.95 975.396 1076C977.092 1080.66 974.347 1085.34 974.347 1090C974.348 1096.53 977.121 1104.77 979.171 1110.96C980.691 1115.55 986.094 1116.67 987.431 1121.04C989.36 1127.35 981.618 1133.47 986.047 1139.93C990.417 1146.29 997.855 1138.54 1003.79 1142.03C1011.87 1146.78 1017.74 1160.17 1025.04 1166.7C1033.09 1173.9 1046.11 1175.17 1051.07 1186C1053.64 1191.63 1047.03 1202.46 1047.15 1209C1047.25 1214.73 1052.82 1217.72 1054.27 1223C1056.08 1229.59 1051.88 1236.23 1053.28 1243C1054.15 1247.24 1057.5 1250.62 1060 1254L1061 1254L1079 1235.04L1091 1236.79L1127 1251.82L1140 1251.82L1156 1255.78L1178 1249C1176.91 1242.87 1172.69 1238.02 1171.39 1232C1169.33 1222.47 1172.41 1213.21 1167.44 1204.05C1164.33 1198.32 1156.61 1197.94 1152.7 1192.81C1145.12 1182.86 1143.23 1168.78 1137.43 1158.18C1133.74 1151.46 1118.3 1144.66 1117 1156C1103.95 1156.27 1086.07 1147.76 1086 1168C1077.6 1167.73 1077.16 1160.94 1070.7 1157.43C1064.74 1154.2 1057.87 1154.61 1052 1150.36C1039.78 1141.51 1041.48 1131.13 1039.41 1118C1038.7 1113.51 1035.89 1108.47 1036 1104.01C1036.19 1096.28 1047.79 1093.25 1046.52 1084C1045.78 1078.59 1041.98 1069.19 1037.79 1065.64C1034.35 1062.72 1029.93 1061.87 1027.36 1057.9C1021.45 1048.74 1023.98 1038.13 1019.44 1029C1012.55 1015.14 997.28 1017.37 985 1019.71C979.753 1020.71 976.734 1019.57 972.043 1023.16C961.736 1031.05 963.412 1043.48 955 1052z"/>
</svg>
