<?xml version="1.0" standalone="yes"?>
<svg xmlns="http://www.w3.org/2000/svg" width="1450" height="1366">
<path style="fill:#010101; stroke:none;" d="M0 0L0 1366L1450 1366L1450 0L0 0z"/>
<path style="fill:#ffffff; stroke:none;" d="M581 234C575.459 239.361 571.67 238.595 565 240.969C559.064 243.082 554.52 247.191 548 247.823C526.836 249.872 505.746 242.074 485 251L494.298 258.692L499.367 270L507 320L519.576 314.298L533 318.821L547 311.588L567 312C561.279 326.856 569.552 330.799 578.276 317C582.883 309.714 584.182 300.462 588.962 293C591.854 288.486 597.87 284.263 599.224 279C600.46 274.192 598.92 268.253 600 263C588.235 257.778 590.511 242.313 581 234z"/>
</svg>
