<?xml version="1.0" standalone="yes"?>
<svg xmlns="http://www.w3.org/2000/svg" width="1450" height="1366">
<path style="fill:#010101; stroke:none;" d="M0 0L0 1366L1450 1366L1450 0L0 0z"/>
<path style="fill:#ffffff; stroke:none;" d="M720 1262C723.015 1254.12 722.655 1241.34 733 1241C731.918 1235.26 729.316 1227.42 733.564 1222.38C736.662 1218.7 742.093 1217.59 744.911 1213.62C747.578 1209.86 746.304 1205.03 748.14 1201C751.763 1193.04 759.58 1184.54 765.464 1178.1C775.87 1166.72 794.514 1158.39 799.258 1142C802.202 1131.83 794.071 1130.35 790.013 1123.79C786.837 1118.65 782.808 1109.69 780.5 1104C777.588 1096.82 783.812 1095.78 785.071 1089.91C786.02 1085.48 782.078 1080.32 781.329 1076C780.59 1071.75 782.442 1067.06 781.322 1063C778.424 1052.49 765.416 1045.55 761 1035L739.889 1035.7L734.532 1024L724 1004C716.411 1008.15 716.911 1017.15 710.895 1022.79C703.034 1030.15 682.292 1030.2 679.634 1042.02C676.852 1054.38 686.457 1058.5 688.481 1069C689.863 1076.17 683.732 1079.78 682.498 1086.01C681.501 1091.05 685.009 1096.11 683.386 1101C679.975 1111.28 667.529 1115.97 662.367 1125C659.36 1130.26 659.996 1136.34 658.37 1142C655.318 1152.62 655.258 1161.19 653.7 1172C653.037 1176.6 650.355 1181.32 650.691 1186C650.919 1189.19 653.092 1191.81 653.309 1195C653.671 1200.33 647.395 1206.01 649.816 1211C656.588 1224.95 670.893 1212.32 678.034 1222.11C684.978 1231.63 685.475 1244.99 694.529 1253.36C700.721 1259.09 712.028 1260.35 720 1262z"/>
</svg>
