<?xml version="1.0" standalone="yes"?>
<svg xmlns="http://www.w3.org/2000/svg" width="1450" height="1366">
<path style="fill:#010101; stroke:none;" d="M0 0L0 1366L1450 1366L1450 0L0 0z"/>
<path style="fill:#ffffff; stroke:none;" d="M1217 465C1215.13 470.126 1216.81 475.18 1215.31 479.961C1213.67 485.178 1204.57 490.515 1200 493.03C1195.51 495.498 1190.86 494.6 1186 495.3C1175.95 496.748 1167.34 498.766 1157.42 498.725C1153.39 498.709 1150.27 495.341 1146 495.533C1133.07 496.115 1123.87 503.794 1112 506.941C1106.95 508.279 1103.69 504.227 1099 503.592C1094.71 503.01 1090.4 505.271 1086 504.891C1073.99 503.856 1067.81 496.103 1064 486C1054.26 490.056 1039.89 498.07 1032.56 505.559C1029.59 508.601 1030.1 513.377 1026.77 516.39C1019.15 523.282 1007.8 529.514 999 534.881C991.016 539.75 983.95 546.297 976 550.914C972.669 552.849 966.252 553.103 964.067 556.51C962.481 558.984 963.849 563.154 963.316 566C960.572 580.651 962.008 592.222 964.996 607C966.021 612.068 967.833 619.909 966.667 624.985C965.047 632.041 960.07 632.856 963.634 641C971.608 659.22 992.029 654.152 1006.98 658.573C1011.41 659.88 1012.45 664.302 1016.21 666.351C1024.53 670.875 1034.92 670 1044 670C1041.41 678.108 1038.64 685.3 1029 686L1035.72 723L1020 752C1027.19 752 1034.93 750.215 1042 751.444C1048.22 752.524 1051.66 757.093 1057 759.875C1060.49 761.694 1064.61 761.795 1068 763.854C1080.55 771.475 1085.42 785.965 1102 782.113C1119.79 777.979 1105.41 754.939 1118.06 746.113C1128.94 738.52 1149.46 749.045 1161 751.076C1164.31 751.659 1172.35 754.083 1175.26 751.933C1178.1 749.832 1176.2 744.875 1177.77 742.015C1181.74 734.797 1187.76 732.076 1189.14 723C1189.78 718.743 1186.74 715.979 1186.16 712C1185.42 706.821 1188.73 701.258 1188.96 696C1189.2 690.528 1186.1 684.25 1187.33 679.04C1188.36 674.696 1193.23 673.204 1195.65 669.79C1203.24 659.083 1209.33 646.469 1216.99 636.225C1219.66 632.666 1226.74 629.774 1230.71 632.488C1233.99 634.724 1238.8 641.336 1243.36 637.057C1246.58 634.029 1242.91 625.047 1243.51 621C1244.65 613.284 1252.21 599.877 1256.36 593.039C1259.15 588.449 1267.44 578.88 1272.1 576.314C1277.35 573.424 1283.75 574.179 1289 570.867C1298.94 564.59 1303.36 556.773 1307 546C1300.44 542.545 1292.53 542.749 1286.21 539.486C1282.79 537.717 1275.21 528.122 1272.86 524.787C1267.18 516.723 1274.06 506.229 1269.75 497.015C1265.22 487.327 1254.5 491.222 1247.43 486.012C1242.57 482.431 1244.32 473.791 1240.2 469.318C1236.38 465.183 1222.63 465.728 1217 465z"/>
</svg>
