<?xml version="1.0" standalone="yes"?>
<svg xmlns="http://www.w3.org/2000/svg" width="1450" height="1366">
<path style="fill:#010101; stroke:none;" d="M0 0L0 1366L1450 1366L1450 0L0 0z"/>
<path style="fill:#ffffff; stroke:none;" d="M734 1242C717.765 1242.19 721.21 1269.03 726.558 1278.91C731.192 1287.47 743.06 1292.45 751 1297.32C763.269 1304.85 771.917 1314.59 786 1319.37C796.606 1322.97 801.608 1307.74 810 1321C819.034 1318.41 820.621 1321.99 829 1322.49C839.243 1323.09 849.561 1320.18 860 1321.17C867.96 1321.93 878.23 1326.24 885.985 1325.38C893.463 1324.56 896.933 1314.94 906 1314.38C913.073 1313.94 922.485 1321.29 928.787 1319.15C932.742 1317.81 934.759 1311.17 937.043 1308.01C939.428 1304.72 945.47 1301.68 946.553 1297.83C947.81 1293.36 938.073 1279.5 934 1278C923.116 1291.54 915.484 1284.17 910 1271L897 1279C888.345 1260.46 878.955 1245.86 883 1225C873.128 1225 872.66 1220.41 864.826 1216.51C860.121 1214.17 854.436 1213.86 852.328 1208C847.674 1195.06 862.501 1176.55 855.721 1164.06C850.75 1154.9 843.703 1166.37 838 1168.18C833.962 1169.46 829.031 1165.67 826.108 1163.24C821.516 1159.41 821.561 1153.93 818.722 1149.1C816.869 1145.95 813.331 1144.42 811.89 1140.96C808.671 1133.23 810.384 1123.79 807.11 1116.09C805.313 1111.86 800.123 1110.31 798.643 1105.96C797.669 1103.1 799.456 1100.03 798.357 1097.22C796.214 1091.75 786.081 1090.6 782.319 1094.49C775.544 1101.48 785.994 1109.93 788.501 1116C789.585 1118.62 789.309 1122.03 791.013 1124.36C793.09 1127.21 796.898 1127.83 798.683 1131.1C803.413 1139.79 796.625 1149.61 790.675 1155.79C777.189 1169.81 762.018 1180.58 750.928 1197C747.553 1202 749.012 1207.96 745.911 1212.9C743.053 1217.45 737.098 1218.45 733.938 1222.61C730.043 1227.73 732.935 1236.35 734 1242z"/>
</svg>
