<?xml version="1.0" standalone="yes"?>
<svg xmlns="http://www.w3.org/2000/svg" width="1450" height="1366">
<path style="fill:#010101; stroke:none;" d="M0 0L0 1366L1450 1366L1450 0L0 0z"/>
<path style="fill:#ffffff; stroke:none;" d="M709 588L706 596L676 593.213L660 598C655.646 605.478 643.702 602.838 637.633 608.649C632.585 613.482 625.882 620.102 622.133 626C619.424 630.263 619.021 635.896 615.581 639.671C608.259 647.707 598.239 649.498 589 653.363C581.724 656.407 575.894 660.366 568 662C572.443 678.023 594.472 669.9 606 666.785C609.607 665.81 613.528 666.5 617 665.066C621.52 663.2 624.845 660.407 630 660.261C635.541 660.104 640.523 663.524 646 663.487C652.754 663.441 662.121 661.177 668.956 659.867C676.167 658.484 675.854 647.504 684.001 644.859C690.74 642.671 696.458 648.266 703 649.288C710.774 650.502 718.706 648.101 727 649.984C733.424 651.442 739.065 657.193 745 660L758.17 644.394L769 635L781 638C783.089 634.223 786.446 630.405 783.692 626.109C779.438 619.472 766.886 619.518 760 617.251C751.273 614.378 744.464 607.53 736 604.522C732.971 603.445 729.531 605.683 726.823 604.045C718.917 599.264 720.478 590.213 709 588z"/>
</svg>
