<?xml version="1.0" standalone="yes"?>
<svg xmlns="http://www.w3.org/2000/svg" width="1450" height="1366">
<path style="fill:#010101; stroke:none;" d="M0 0L0 1366L1450 1366L1450 0L0 0z"/>
<path style="fill:#ffffff; stroke:none;" d="M467 1162L463 1178C455.512 1175.53 454.419 1185.7 448 1188L451 1193L443 1197L451 1200C439.65 1210.25 445.084 1219.16 445 1232L437 1230L439 1223L430 1224L428 1229L433 1230C431.478 1232.28 427.736 1235.41 427.542 1238.21C427.243 1242.52 432.058 1246.49 435.039 1248.87C442.088 1254.5 449.42 1259.85 453.738 1268C457.919 1275.89 461.238 1287.33 468.213 1293.21C483.03 1305.71 511.826 1306.27 529 1300.05C532.615 1298.75 538.462 1298.4 541.397 1295.86C544.493 1293.19 542.662 1286.61 543.133 1283C543.634 1279.17 546.035 1276.2 548 1273L549 1273C553.048 1277.56 558.732 1281.67 565 1278.86C567.784 1277.61 570.39 1274.49 573.576 1274.35C577.431 1274.19 581.321 1278.31 585 1279.36C591.017 1281.08 598.653 1278.19 603.942 1275.29C610.25 1271.83 608.423 1264.15 616.004 1261.35C626.141 1257.6 640.624 1259.66 649.671 1254.57C655.548 1251.26 664.551 1227.65 660.933 1221.39C652.643 1207.05 619.437 1205.6 606 1212.25C600.165 1215.13 588.569 1225.17 582.044 1223.63C575.067 1221.98 570.582 1210.94 563.96 1207.82C558.281 1205.14 551.715 1205.54 546.015 1202.47C541.561 1200.07 539.43 1194.49 534.829 1192.6C527.596 1189.64 520.077 1193.37 513 1188.28C503.363 1181.35 503.912 1172.6 497.633 1164.32C495.494 1161.49 491.489 1160.77 489 1158C479.963 1160.6 476.613 1164.62 467 1162z"/>
</svg>
