<?xml version="1.0" standalone="yes"?>
<svg xmlns="http://www.w3.org/2000/svg" width="1450" height="1366">
<path style="fill:#010101; stroke:none;" d="M0 0L0 1366L1450 1366L1450 0L0 0z"/>
<path style="fill:#ffffff; stroke:none;" d="M961 508C960.09 510.87 959.865 514.279 958.142 516.816C948.296 531.308 931.364 522.203 918.093 527.603C913.801 529.349 907.479 538.675 904.603 542.464C898.477 550.534 910.26 569.12 892.286 570.308C885.755 570.739 884.686 559.131 881.914 555.39C879.149 551.659 873.152 549.729 869 548C862.311 557.023 857.418 554.917 849.147 560.013C845.349 562.353 844.753 567.727 840.981 570.486C836.761 573.573 830.837 573.362 826 575C829.906 588.49 848.495 588.913 858.848 596.352C864.266 600.245 858.124 609.332 865.213 612.396C871.849 615.264 872.719 606.464 878.042 607.211C883.766 608.015 886.744 615.131 893 616.315C899.825 617.606 903.838 610.815 909.91 611.252C913.066 611.48 914.754 615.211 917.3 616.686C922.574 619.74 927.78 621.381 933 625L933 626L929 630L949 639L946 650C954.23 653.105 959.705 651.717 968 650C966.088 645.027 961.439 640.594 961.333 635.004C961.234 629.746 966.356 626.957 965.829 621C964.237 602.989 957.895 585.791 962.101 568C962.916 564.554 961.302 558.359 963.643 555.702C966.912 551.992 973.907 552.026 978 549.298C982.786 546.107 986 540.998 991 538.086C1005.78 529.476 1027.27 522.084 1031 504C1026.79 502.252 1021.66 498.68 1017.04 501.032C1012.72 503.227 1010.98 508.428 1006 509.682C997.802 511.747 989.146 507.712 981 507.38C973.216 507.062 969.107 510.29 961 508z"/>
</svg>
