<?xml version="1.0" standalone="yes"?>
<svg xmlns="http://www.w3.org/2000/svg" width="1450" height="1366">
<path style="fill:#010101; stroke:none;" d="M0 0L0 1366L1450 1366L1450 0L0 0z"/>
<path style="fill:#ffffff; stroke:none;" d="M858 1168L859 1168C863.552 1158.25 862.321 1150.02 864.889 1140.01C865.826 1136.36 869.72 1134.64 870.682 1130.96C873.216 1121.28 872.431 1109.98 874.198 1100C875.439 1092.99 881.936 1087.08 882.284 1080C882.876 1067.95 871.678 1066.58 864 1072C861.297 1060.32 860.742 1048.75 859.549 1037C859.176 1033.33 861.041 1029.64 860.317 1026C859.025 1019.49 852.097 1015.22 849.839 1009C847.688 1003.07 848.035 995.427 844.272 990.171C834.513 976.538 814.238 991.254 807 974C785.362 979.918 772.801 1006.22 767.13 1026C766.094 1029.61 761.888 1031.98 762.284 1036C763.366 1046.99 776.882 1052.87 781.397 1062C784.983 1069.26 781.672 1078.84 785.789 1086.96C788.599 1092.49 794.743 1091.46 798.382 1095.65C801.097 1098.78 798.177 1103.25 799.607 1106.83C801.152 1110.69 805.764 1112.31 807.683 1116.04C811.257 1122.98 810.327 1132.46 812.305 1139.96C813.363 1143.96 816.756 1145.02 818.915 1148.21C821.454 1151.97 821.49 1156.95 824.086 1160.67C836.792 1178.9 850.047 1149.04 858 1168z"/>
</svg>
