<?xml version="1.0" standalone="yes"?>
<svg xmlns="http://www.w3.org/2000/svg" width="1450" height="1366">
<path style="fill:#010101; stroke:none;" d="M0 0L0 1366L1450 1366L1450 0L0 0z"/>
<path style="fill:#ffffff; stroke:none;" d="M942 653C946.118 673.875 925.686 670.573 914.213 679.699C909.115 683.754 908.721 691.96 901.996 694.393C883.286 701.16 869.757 673.169 867 659L846 651C841.816 668.568 848.999 683.787 849.957 701C850.402 709.01 844.672 715.973 845.067 723C845.278 726.752 848.532 730.593 850 734C862.578 732.961 860.553 745.844 864.009 753.961C866.014 758.67 871.622 762.304 876 764.598C880.822 767.125 888.473 770.742 894 770.49C907.13 769.891 918.726 759.358 932 758.326C943.087 757.463 955.259 764.256 966 762.188C975.03 760.449 977.993 755.657 978 747C987.004 746.349 990.378 756.112 998 756.073C1000.71 756.059 1016.63 753.989 1018.01 752.396C1021.37 748.535 1021.35 741.505 1024.76 737.015C1029.32 731.017 1034.9 728.253 1034.99 720C1035.14 708.118 1028.1 697.137 1028 685C1037.85 684.885 1040.27 679.52 1043 671C1034.27 671 1025.13 671.314 1017.04 667.351C1013.25 665.491 1011.96 660.865 1007.9 659.573C1002.95 658.002 997.137 659.178 992 658.195C984.366 656.735 977.38 652.031 970 650.822C965.592 650.1 961.354 652.916 957 653.185C951.455 653.528 947.432 650.623 942 653z"/>
</svg>
