<?xml version="1.0" standalone="yes"?>
<svg xmlns="http://www.w3.org/2000/svg" width="1450" height="1366">
<path style="fill:#010101; stroke:none;" d="M0 0L0 1366L1450 1366L1450 0L0 0z"/>
<path style="fill:#ffffff; stroke:none;" d="M1270 168C1255.04 176.734 1245.73 185.408 1239.32 202C1237.58 206.518 1237.67 211.541 1235.85 215.985C1232.32 224.645 1227.16 223.379 1228 234C1249.94 234.063 1263.04 262.766 1257 282L1283 281.943L1292.43 292.357L1314 291.093L1323.91 290.968L1332 283L1332 282C1327.27 277.273 1320.57 272.337 1318.01 266C1315.87 260.726 1318.04 255.026 1314.35 250.17C1309.52 243.817 1300.04 240.559 1296.88 232.985C1287.16 209.655 1289.8 187.471 1270 168z"/>
</svg>
