<?xml version="1.0" standalone="yes"?>
<svg xmlns="http://www.w3.org/2000/svg" width="1450" height="1366">
<path style="fill:#010101; stroke:none;" d="M0 0L0 1366L1450 1366L1450 0L0 0z"/>
<path style="fill:#ffffff; stroke:none;" d="M786 630L781 639L770 636C765.442 643.094 755.732 647.082 749.921 653.998C748.416 655.789 746.256 659.474 743.536 659.311C738.103 658.986 733.299 652.253 728 650.788C719.416 648.414 711.121 651.173 703 649.995C697.742 649.233 693.244 644.94 688 644.719C675.675 644.201 678.401 658.269 669.895 660.683C663.544 662.485 651.43 664.51 645 664.118C639.507 663.784 634.656 660.751 629 661.185C623.486 661.609 619.999 664.845 615 666.437C605.685 669.403 594.665 670.199 585 672.201C577.503 673.753 570.555 671.225 568 664C559.626 666.275 544.858 673.625 544 683C531.966 683.108 523.306 689.347 518 700C521.499 701.468 525.605 702.995 526.682 707.043C527.82 711.322 524.96 718.911 531.059 720.171C536.402 721.276 543.672 716.369 549 715.21C559.582 712.909 570.81 714.591 581 712.261C587.005 710.887 590.322 704.783 596 702.982C606.331 699.706 621.093 697.364 632 698.097C637.015 698.435 641.975 701.956 647 701.181C659.966 699.183 671.409 694.072 684 690.205C689.813 688.42 696.14 688.698 701.83 686.775C706.841 685.083 710.403 680.121 715.996 679.562C720.709 679.09 724.837 684.53 730 685L730 686L722 690L722 710C714.759 704.123 710.455 701.001 701 701C709.574 714.667 727.802 717.034 740.957 724.796C746.154 727.863 746.588 733.369 750.394 737.572C758.782 746.836 769.939 749.9 782 750C781.156 754.091 778.389 759.948 780.118 764C785.04 775.536 793.387 773.199 803 773.498C806.125 773.596 808.863 775.591 812 775.397C822.253 774.763 824.327 766.51 825 758C835.523 759.294 848.237 746.088 848.972 735C849.289 730.223 844.22 726.99 844.348 722.424C844.546 715.353 849.218 708.977 848.985 701C848.464 683.262 842.701 668.193 845 650L825 649C823.554 633.108 810.745 648.532 804 653C801.259 642.979 795.821 634.128 786 630M544 722L550 727L549 738L558 737C558.268 741.517 557.497 744.043 554 747C556.604 766.211 573.689 740.904 576.911 733C578.647 728.74 577.192 723.557 578 719L555 717.314L544 722z"/>
</svg>
