<?xml version="1.0" standalone="yes"?>
<svg xmlns="http://www.w3.org/2000/svg" width="1450" height="1366">
<path style="fill:#010101; stroke:none;" d="M0 0L0 1366L1450 1366L1450 0L0 0z"/>
<path style="fill:#ffffff; stroke:none;" d="M802 335L827 339.032L864 357C874.146 347.774 895.501 362.656 905 367L910 340L929 343.944L943 350C942.354 346.923 935.962 337.872 937.06 336.029C939.548 331.852 952.827 334.002 957 334C970.587 333.995 990.098 329.842 1000.17 321.418C1004.4 317.884 1008.51 318.274 1009 312L1028 308C1025.88 301.955 1015.09 301.356 1015.38 294.985C1015.67 288.537 1024.02 283.098 1026.15 277C1029.59 267.131 1026.44 257.552 1028.39 248C1030.21 239.098 1038.29 231.9 1039.81 223C1040.61 218.259 1029.63 199.521 1026.3 195.304C1017.32 183.942 998.931 192.322 988.039 184.211C984.62 181.664 982.566 177.375 978.826 175.317C975.279 173.364 970.726 174.33 968.086 170.721C963.072 163.87 965.45 152.316 957.671 147.139C950.647 142.464 925.057 133.609 917.966 140.599C912.123 146.36 912.063 156.566 906.363 162.582C901.883 167.309 893.169 166.935 889.816 173.174C887.413 177.647 893.331 181.487 892.335 185.985C891.059 191.745 883.128 195.808 880.966 202C877.623 211.573 881.314 222.441 878.682 231.895C877.45 236.32 872.383 236.088 869.988 239.418C868.048 242.116 868.829 245.883 866.987 248.606C864.503 252.279 852.327 258.198 848 258.344C844.734 258.455 840.566 256.277 837.529 258.067C832.69 260.919 830.667 268.783 826.79 272.826C820.206 279.693 807.865 282.593 802.603 290.105C795.151 300.745 802 322.865 802 335z"/>
</svg>
