<?xml version="1.0" standalone="yes"?>
<svg xmlns="http://www.w3.org/2000/svg" width="1450" height="1063">
<path style="fill:#010101; stroke:none;" d="M0 0L0 1063L1450 1063L1450 0L0 0z"/>
<path style="fill:#ffffff; stroke:none;" d="M361 614C359.507 621.399 352.551 625.39 349.279 632C345.69 639.247 350.228 653.135 354.278 659.892C357.81 665.785 368.375 667.38 373.957 671.244C381.808 676.679 382.258 687.54 391.001 692.486C400.807 698.034 416.246 692.504 426.961 695.318C435.209 697.484 436.737 709.968 446 711.397C451.044 712.174 456.281 708.863 460 705.901C463.084 703.445 467.848 700.61 469.397 696.829C474.191 685.126 462.107 667.586 458 657L478 652C477.966 639.559 480.719 605.36 462 624C458.801 616.356 454.746 608.201 450.64 601C445.16 591.388 425.629 584.678 415.004 589.133C410.12 591.181 407.549 596.025 402.996 598.586C397.8 601.51 391.054 602.404 386.303 606.074C382.429 609.068 383.952 614.667 378.941 616.747C372.282 619.511 367.37 615.136 361 614z"/>
</svg>
