<?xml version="1.0" standalone="yes"?>
<svg xmlns="http://www.w3.org/2000/svg" width="1450" height="1063">
<path style="fill:#010101; stroke:none;" d="M0 0L0 1063L1450 1063L1450 0L0 0z"/>
<path style="fill:#ffffff; stroke:none;" d="M261 365C258.904 356.571 277.779 338.2 261 338C261.21 333.958 267.58 323.575 265.184 320.643C263.55 318.643 260.031 319.891 258 320.375C249.886 322.31 245.943 321.95 238.005 320.826C235.928 320.532 233.526 321.071 232.774 323.279C230.589 329.694 239.171 332.902 242.034 337.043C247.558 345.035 248.047 370.082 261 365M417 336L428 332L428 330C422.243 327.856 417.506 329.487 417 336M314 359C309.757 359.539 303.89 359.675 301.086 363.394C298.848 366.362 299 370.75 296.298 373.411C293.059 376.602 288.17 375.457 285.696 380.058C282.146 386.66 291.98 396.107 280 398C280.062 415.513 294.883 409.757 302 421L314 418C312.451 402.94 323.119 401.491 335 403C338.48 396.755 345.541 390.665 344.545 383C342.967 370.869 333.152 353.514 326.698 343.228C325.027 340.565 317.721 336.757 315.028 339.786C311.948 343.248 314 354.541 314 359M387 354C386.114 347.148 384.834 344.019 378 342C373.848 352.212 386.205 365.531 386.964 375.996C387.387 381.837 381.846 384.367 383 391L394 392L395 392L413.174 373.728L441 358C434.924 355.505 432.351 352.742 432 346C426.209 345.864 418.015 338.974 413.17 340.421C401.98 343.762 399.676 354.534 387 354M228 372C226.704 379.691 227.231 385.466 237 384C235.531 378.628 234.077 372.989 228 372M414 399L410 414C419.16 417.313 425.838 414.402 424 404C419.04 404.255 417.342 402.375 414 399M452 509L444 505L447 516L436 513L438 519L433 520L422 501L414 504C416.561 510.089 419.279 512.688 426 513L416 521L418 529L412 531L403 511L395 514C397.42 522.465 400.858 529.932 409 534L409 535L398 541L413 589C419.532 586.916 422.576 587.582 429 589.363C433.185 590.524 438.055 589.013 441.985 591.028C451.676 595.995 457.907 613.501 462 623C464.588 621.18 468.103 616.601 471.424 616.573C474.824 616.545 477.371 620.016 477.852 623.015C479.292 632.004 478.924 642.868 479 652C486.11 651.439 496.198 649.212 502.815 653.027C512.795 658.782 517.181 675.098 526.39 680.972C529.224 682.78 533.801 682 537 682C546.266 682 556.902 683.441 566 681.621C571.341 680.553 582.705 676.946 586.142 672.582C589.077 668.854 588.612 661.539 589.155 657C591.119 640.585 586.705 625.959 586.652 610C586.608 596.851 603.779 584.194 601.197 571C599.202 560.804 590.54 562.404 586.649 554.892C584.026 549.827 584.477 541.539 579.721 537.843C573.463 532.98 568.947 539.112 563 540.745C552.687 543.578 542.307 545.891 532 548.859C527.843 550.056 522.36 553.051 518 552.651C510.269 551.943 505.872 542.146 501.101 537.303C497.104 533.246 490.537 535.319 486.702 531.436C483.687 528.383 483.181 522.834 481.532 519C479.192 513.555 475.095 509.015 472 504L459 509L456 498C450.947 500.55 451.373 503.9 452 509z"/>
</svg>
