<?xml version="1.0" standalone="yes"?>
<svg xmlns="http://www.w3.org/2000/svg" width="1450" height="1063">
<path style="fill:#010101; stroke:none;" d="M0 0L0 1063L1450 1063L1450 0L0 0z"/>
<path style="fill:#ffffff; stroke:none;" d="M472 654L480 678C483.507 678.446 487.96 678.611 490.566 681.317C493.647 684.515 492.47 689.239 494.303 693C498.992 702.617 508.729 713.704 499.272 724.57C489.031 736.339 469.538 730.475 458 726C450.196 739.421 449.054 754.087 453 769C456.555 768.165 461.615 763.696 464.597 767.256C471.145 775.071 464.75 790.622 466.214 800C466.909 804.455 470.064 807.775 471.352 812C474.197 821.336 475.042 833.278 476.522 843C477.389 848.697 474.826 854.331 475.302 860C475.769 865.554 479.888 870.928 482 876C486.694 874.648 491.126 871.132 496 870.677C502.161 870.102 506.868 872.556 513 869.891C518.881 867.335 522.806 860.389 529 858.769C537.197 856.625 546.59 862.162 555 860.478C563.628 858.751 572.215 852.857 581 852.343C588.548 851.902 591.83 861.82 600 860.347C608.915 858.741 615.673 846.687 623 841.554C629.998 836.651 640.751 837.042 649 836C649.108 849.011 653.74 868.984 663.39 878.471C669.863 884.833 680.278 889.465 687.957 894.352C691.74 896.759 692.808 901.362 696.39 903.697C702.33 907.568 713.164 906.729 720 907.039C725.122 907.272 732.891 910.042 737.787 908.307C743.605 906.246 745.419 895.45 750.326 891.589C757.166 886.205 768.48 890.257 775.697 885.683C780.135 882.869 779.652 875.1 783.228 871.17C793.872 859.467 807.964 850.376 810.066 833.004C810.93 825.872 798.327 819.934 794.419 814.961C790.211 809.605 791.163 801.485 785.775 796.943C778.222 790.575 768.501 797.1 760 794.552C752.943 792.438 750.387 785.023 743.985 782.603C737.364 780.101 729.25 785.66 723.171 781.397C717.669 777.538 715.579 769.954 708.961 767.483C698.721 763.659 686.708 762.341 676 760.2C672.086 759.417 665.551 759.273 662.603 756.272C658.575 752.172 661.73 743.327 658.03 738.105C653.637 731.905 644.087 731.971 639.938 725.787C635.951 719.843 638.608 711.228 635.062 705C629.541 695.305 617.501 693.353 609 687.367C603.659 683.605 599.3 677.687 593 675.484C583.984 672.331 575.34 679.539 567 682.096C557.735 684.936 537.48 685.289 528.105 682.682C523.547 681.415 522.381 675.523 520.034 672.015C516.316 666.457 509.264 658.982 504.215 654.603C497.54 648.814 479.744 652.156 472 654z"/>
</svg>
