<?xml version="1.0" standalone="yes"?>
<svg xmlns="http://www.w3.org/2000/svg" width="1450" height="1063">
<path style="fill:#010101; stroke:none;" d="M0 0L0 1063L1450 1063L1450 0L0 0z"/>
<path style="fill:#ffffff; stroke:none;" d="M825 276C823.292 279.658 820.766 283.098 819.638 287C818.981 289.273 819.003 291.667 818.715 294C818.416 296.429 816.562 303.106 819.603 304.543C823.897 306.572 830.085 299.051 831.737 295.985C836.346 287.429 833.917 279.772 825 276M919 306L925 308L927 302C922.644 300.826 920.904 301.997 919 306M890 313L892.454 324.985L886 337C893.14 335.791 900.691 335.151 902 327C896.621 322.626 898.156 312.696 890 313M815 322C813.939 330.165 808.274 334.551 805.424 342C803.714 346.47 802.228 350.891 799.729 355C798.551 356.937 789.374 374.484 798.63 371.288C802.538 369.938 804.109 363.155 806.634 360.214C809.594 356.766 814.429 356.205 817.362 352.775C822.114 347.219 819.481 342.282 820.388 336.039C821.389 329.151 825.756 322.352 815 322M917 339L917 354L922 352L924.357 365L911.778 379.274L915.487 391L915 408C901.847 407.845 899.687 390.445 893.648 381.09C891.465 377.709 887.998 375.8 885.39 372.826C883.382 370.536 882.039 365.623 878.831 364.752C873.141 363.206 872.317 378.5 871.609 382C870.211 388.907 873.864 395.942 872.856 403C871.837 410.136 866.184 416.661 864.724 424C863.639 429.451 865.878 432.165 862 437C857.816 428.194 855.575 424.894 856 415L851 414L850 421L841 422L843 406L826 411L825 415C829.046 416.839 830.654 418.511 831 423L806 416.839L792 420.208L779 417.557L755 417L760 411C755.988 410.255 750.239 408.546 746.213 409.407C738.51 411.056 738.829 417.491 729 412.573C722.523 409.332 714.796 402.75 710.43 396.985C706.811 392.207 707.328 387.217 701 385C694.174 399.621 690.655 399.685 677 394C693.434 385.16 670.087 374.872 662 373C660.196 375.505 657.648 380.537 654.015 380.387C649.857 380.216 649.454 374.931 648.468 372C646.335 365.66 640.515 360.644 637 355L632 356C636.718 372.627 640.542 389.15 644.349 406C646.1 413.75 646.481 422.816 649.996 430C656.165 442.608 674.053 457.435 673 472C658.002 472 643.472 475.302 633 487L633 488C642.744 498.183 653.862 517.476 654.881 532C655.448 540.086 649.073 557.836 655.318 563.985C662.516 571.073 677.874 576.14 688 574.443C696.646 572.994 704.904 568.037 714 570.318C722.225 572.38 729.655 583.882 735 590C722.542 592.96 714.382 606.567 720.558 619C725.567 629.084 733.71 640.591 741.184 648.996C745.815 654.203 752.358 657.879 755.914 664C762.656 675.605 762.305 688.727 766.279 700.895C767.647 705.087 772.561 705.48 774.486 709.213C778.197 716.409 780.059 734.794 780.326 743C780.55 749.867 775.182 756.238 774.21 763C772.779 772.946 774.973 783.074 775 793C790.307 793.37 787.963 805.446 794.703 814.911C801.773 824.838 814.328 832.343 825 837.74C836.141 843.374 842.034 831.33 853 831.674C859.948 831.891 866.984 834.43 874 834.911C896.726 836.467 927.6 829.855 937.143 806C940.489 797.636 938.609 783.099 939 774C921.167 773.986 919.618 754.516 914.289 741C911.72 734.484 905.41 731.073 902.303 725C898.478 717.523 898.285 708.144 897.285 700C895.864 688.441 890.462 676.949 893.419 665C896.577 652.237 905.222 643.307 905.787 629C906.154 619.706 897.647 612.147 897.638 603C897.627 591.446 903.294 581.751 905.957 571C908.705 559.902 908.078 548.2 910.873 537C913.257 527.453 918.937 519.298 921.348 510C923.982 499.843 916.871 492.982 928 485.407C936.939 479.324 956.698 490.847 966 493L979 464C971.95 461.472 962.2 443.654 964.157 436C965.621 430.277 970.735 427.411 970.982 421C971.267 413.577 967.178 403.858 969.056 397C971.731 387.234 979.128 379.832 976.391 369C973.041 355.741 963.218 354.701 953 348.034C947.707 344.581 944.59 339.66 938 338.599C929.446 337.221 925.718 342.629 917 339M992 344L992 355L993 355L992 344z"/>
</svg>
