<?xml version="1.0" standalone="yes"?>
<svg xmlns="http://www.w3.org/2000/svg" width="1450" height="1063">
<path style="fill:#010101; stroke:none;" d="M0 0L0 1063L1450 1063L1450 0L0 0z"/>
<path style="fill:#ffffff; stroke:none;" d="M198 553C197.962 563.638 190.867 562.817 186.028 570.515C182.749 575.73 185.292 585.166 188 590C198.831 580.732 205.077 563.539 222 565.56C226.16 566.057 229.975 568.84 234 570L241 549C227.855 543.275 221.338 562.213 211.004 560.315C201.735 558.612 206.046 550.743 205.141 545C204.644 541.845 202.336 538.862 201 536C190.594 538.416 182.478 552.817 198 553M260 567L282 569C281.949 554.73 264.326 554.629 260 567M98 579C102.734 587.652 111.933 584.192 118.686 589.966C123.098 593.739 121.033 599.163 127 602L121 607C123.029 616.637 128.787 615.308 137 613C140.723 620.964 145.616 627.277 154 630.647C157.707 632.136 162.552 630.6 165.61 633.357C170.621 637.876 170.171 645.874 175.214 650.471C178.72 653.667 184.244 654.241 187.401 657.649C190.051 660.509 189.722 664.505 193.189 667.005C197.039 669.781 203.028 669.451 206.401 672.724C213.173 679.293 218.368 693.322 222 702L228 699L224.344 720L226.348 731L223 749C226.8 750.582 230.802 753.423 235 753.613C242.152 753.939 248.704 749.079 254.301 756.059C261.913 765.552 250.768 778.204 261.616 788.721C266.12 793.089 273.288 792.354 279 793.927C284.872 795.543 290.043 799.277 296 800.614C300.521 801.629 306.903 800.69 310.363 804.318C317.763 812.077 324.952 829.367 323.895 840C323.39 845.079 317.974 849.938 319.299 855C320.815 860.786 326.484 877.211 330.563 881.49C335.589 886.762 344.632 885.89 348.442 893.043C354.029 903.534 351.078 914.129 353.39 925C354.986 932.507 359.804 939.154 363 946C388.189 938.799 399.02 909.66 423 899.51C433.966 894.869 435.95 909.005 442.428 914.682C447.717 919.316 464.387 917.213 469.995 913.751C478.503 908.498 483.361 885.712 481.273 876C480.123 870.648 475.879 866.351 474.727 861C473.462 855.127 476.476 848.958 475.696 843C474.398 833.091 473.247 820.501 470.352 811C469.064 806.775 465.909 803.455 465.214 799C463.43 787.573 469.389 775.515 463 765L453 771C450.77 761.583 448.298 751.835 450.39 742C452.889 730.248 460.424 723.256 454 711C438.418 714.17 439.631 699.632 427.826 696.318C417.331 693.371 404.339 697.97 394 694.411C383.73 690.876 382.899 680.398 376.363 673.61C370.841 667.875 362.291 667.547 356.225 663.005C347.412 656.409 346.331 637.842 350 629L335.424 632.635L312 616L311 616C299.062 627.425 288.498 634.099 285 651L278 641L270 645L270 628L262 641C260.455 637.695 256.336 633.159 256.542 629.424C256.97 621.655 272.066 611.565 263 606C255.686 615.866 237.168 628.773 224 626.787C217.891 625.865 213.107 621.144 207 620.213C200.851 619.275 193.994 622.307 188.109 620.681C183.038 619.28 177.462 602.757 178 598C168.688 595.377 147.872 594.849 146 583C141.702 582.214 137.142 583.222 133 582.161C119.792 578.776 111.961 571.18 98 579M192 686L192 687L205 693C201.89 686.908 198.835 682.777 192 686z"/>
</svg>
