<?xml version="1.0" standalone="yes"?>
<svg xmlns="http://www.w3.org/2000/svg" width="1450" height="1063">
<path style="fill:#010101; stroke:none;" d="M0 0L0 1063L1450 1063L1450 0L0 0z"/>
<path style="fill:#ffffff; stroke:none;" d="M441 296C443.803 304.658 448.052 312.608 457 316L460 294L441 296M463 325L456 327C458.55 330.523 463.701 330.018 463 325M474 347C472.164 348.697 469.911 350.326 468.353 352.29C455.649 368.298 491.452 369.419 479.127 352.018C477.675 349.969 475.963 348.503 474 347M488 348L490 358L491 358L491 348L488 348M631 357C628.048 364.1 623.841 380.554 613.039 374.973C610.36 373.588 608.336 370.874 606 369C603.062 372.263 598.535 374.755 594 372.887C589.829 371.169 586.353 366.077 581.904 370.515C566.905 385.477 584.447 402.721 578.687 420C573.872 434.442 554.821 441.888 548 455C536.386 451.448 526.649 465.489 515 467.8C510.301 468.733 504.504 469.892 500.966 465.697C498.267 462.496 496.595 457.832 495 454C497.835 452.294 499.249 449.161 502.143 447.651C515.355 440.763 531.182 441.718 531.461 422C531.538 416.617 528.051 411.69 528 406C520.541 407.57 518.948 410.664 518 418L496 434L504 411L485 425L484 425L478 419C474.23 425.454 477.997 435.419 478 443C478.001 445.45 477.387 449.193 479.028 451.262C481.453 454.32 486.146 453.498 488.648 457.133C494.741 465.985 496.803 476.362 500.993 485.957C502.722 489.915 506.682 491.793 508.071 496.015C510.968 504.819 504.666 507.48 502.194 515C500.741 519.42 504.722 522.726 504.493 527C504.331 530.017 501.332 531.998 501.329 535C501.325 540.772 510.897 550.118 516 551.827C520.239 553.247 525.966 549.935 530 548.72C541.296 545.317 552.666 542.854 564 539.745C568.51 538.508 572.053 534.27 576.985 535.773C585.147 538.261 583.934 548.652 587.419 554.867C589.66 558.864 594.414 558.863 597.581 561.699C600.505 564.318 600.248 568.672 602.843 571.411C606.206 574.96 617.375 575.107 622 574.856C628.501 574.502 647.382 567.175 650.973 561.61C654.035 556.863 652.804 548.384 653.039 543C653.823 525.106 647.516 499.421 632 488L632 487C639.359 481.091 648.512 473.766 658 471.419C661.412 470.575 670.618 472.854 672.15 468.682C674.498 462.286 659.56 445.343 656 440C639.436 415.143 645.032 382.816 631 357z"/>
</svg>
