<?xml version="1.0" standalone="yes"?>
<svg xmlns="http://www.w3.org/2000/svg" width="1450" height="1063">
<path style="fill:#010101; stroke:none;" d="M0 0L0 1063L1450 1063L1450 0L0 0z"/>
<path style="fill:#ffffff; stroke:none;" d="M733 590C731.617 586.43 729.606 583.786 726.96 581C723.869 577.746 720.326 573.198 716 571.603C703.318 566.928 688.458 576.098 675 573.75C667.327 572.411 657.911 563.086 651 563.862C642.139 564.857 633.441 572.228 625 575.031C618.753 577.105 607.691 571.234 602.637 575.607C599.096 578.671 597.722 584.895 595.742 589C592.984 594.713 588.401 601.692 587.48 608C586.603 614.005 589.637 621.071 590.561 627C591.618 633.783 591.153 641.148 590.985 648C590.841 653.879 585.924 667.39 589.117 672.437C590.693 674.927 595.639 676.153 598 678.044C609.208 687.021 625.911 692.664 634.697 704C639.698 710.453 636.126 720.301 640.938 726.363C645.695 732.354 655.087 731.914 659.2 739.043C661.821 743.587 660.107 752.904 663.603 756.062C666.41 758.596 672.432 758.686 676 759.4C685.685 761.337 695.403 763.318 705 765.655C714.517 767.973 716.047 778.069 724.171 781.397C730.847 784.131 738.609 778.477 744.985 782.603C750.749 786.333 764.521 802.916 772.972 792.262C777.039 787.135 772.238 770.755 773.21 764C774.197 757.138 779.36 750.916 779.617 744C779.814 738.677 777.106 733.23 776.296 728C775.42 722.34 776.342 714.286 773.566 709.213C771.717 705.833 767.185 705.319 765.6 701.787C760.423 690.259 761.488 675.993 755.442 664C750.975 655.139 740.653 649.416 735.001 641C725.368 626.658 704.068 598.593 733 590z"/>
</svg>
