<?xml version="1.0" standalone="yes"?>
<svg xmlns="http://www.w3.org/2000/svg" width="1450" height="1063">
<path style="fill:#010101; stroke:none;" d="M0 0L0 1063L1450 1063L1450 0L0 0z"/>
<path style="fill:#ffffff; stroke:none;" d="M1007 451C1011.76 453.557 1014.29 455.349 1014 461L1000.96 466.722L980 465L966 494C971.716 497.236 970.217 502.241 969.424 508C968.27 516.379 964.521 531.079 967.938 539C970.692 545.383 977.38 549.163 979.467 556C981.393 562.312 977.392 566.88 977.043 573C976.691 579.182 979.611 583.262 980.296 589C980.735 592.681 979.081 596.312 979.274 600C979.58 605.832 983.189 611.13 983.386 617C984.055 636.989 977.592 656.952 977.129 677C976.935 685.399 982.408 693.588 981.241 702C979.004 718.122 970.421 733.419 966 749L996 733.988L1024 736.775L1050 726C1046.59 713.548 1045.41 683.115 1059.21 675.028C1064.66 671.832 1072.37 674.576 1078 671.566C1087.44 666.521 1094.32 656.803 1105 653.65C1115.89 650.434 1128.22 657.206 1138 661L1138.33 628L1143.62 611L1140.27 584L1162 557C1154.16 551.371 1138.79 543.446 1138 533L1131 532C1126.21 556.255 1097.26 521.058 1096.39 509C1095.31 493.906 1112.34 488.761 1120.4 479.367C1123.71 475.506 1121.01 469.475 1121.08 465C1121.19 458.657 1125.18 454.666 1124 448C1109.19 451.682 1114.66 436.586 1109.97 429.61C1105.92 423.585 1098.46 423.761 1094.35 429.105C1092.42 431.615 1090.76 434.366 1089 437C1086.82 440.265 1084.68 443.453 1083 447C1073.06 441.197 1062.64 435.157 1057.88 423.961C1053.82 414.42 1055.35 397.725 1042.96 393.476C1035.69 390.981 1037.88 400.18 1038.92 404C1041.13 412.068 1052.68 431.953 1036.96 434.732C1029.43 436.063 1021.7 433.324 1016.71 428.035C1014.9 426.108 1009.83 420.236 1006.64 422.172C1004.48 423.487 1005.87 428.13 1006.35 430C1008.7 439.24 1009.68 441.675 1007 451z"/>
</svg>
