<?xml version="1.0" standalone="yes"?>
<svg xmlns="http://www.w3.org/2000/svg" width="1450" height="1063">
<path style="fill:#010101; stroke:none;" d="M0 0L0 1063L1450 1063L1450 0L0 0z"/>
<path style="fill:#ffffff; stroke:none;" d="M459 658C462.75 667.666 475.574 686.491 469.972 696.911C467.151 702.158 459.689 706.466 455 710C456.09 713.995 456.844 722.363 459.603 725.301C467.37 733.573 492.158 733.035 499.062 723.697C507.615 712.129 498.179 702.002 493.303 692C491.667 688.643 492.861 683.392 489.566 681.013C486.856 679.056 482.202 679.137 479 679C478.916 668.844 475.819 662.655 471 654L459 658z"/>
</svg>
