<?xml version="1.0" standalone="yes"?>
<svg xmlns="http://www.w3.org/2000/svg" width="1450" height="1063">
<path style="fill:#010101; stroke:none;" d="M0 0L0 1063L1450 1063L1450 0L0 0z"/>
<path style="fill:#ffffff; stroke:none;" d="M1222 50C1217.86 59.9546 1208.09 67.4163 1204.6 77C1199.26 91.6624 1199.57 111.261 1186.98 122.714C1182.09 127.167 1175.85 133.897 1169 135.062C1160.3 136.542 1143.61 125.706 1142 140C1136.31 140 1128.38 141.424 1123.01 139.397C1116.86 137.074 1116.42 131.534 1109 134L1114 145L1112 151C1099.78 147.023 1086.32 139.954 1075.97 152.39C1070.37 159.112 1069.29 167.311 1062 172.981C1056.59 177.181 1051.04 176.632 1045 178.991C1038.22 181.637 1032.58 186.889 1026 190L1026 191C1032.96 194.641 1039.58 191.831 1045.98 194.879C1049.99 196.789 1050.33 203.821 1054.15 204.353C1060.24 205.199 1068.42 194.69 1074.08 202.513C1076.52 205.874 1072.29 210.787 1074 215C1082.52 212.942 1082.48 218.559 1084.68 224.625C1088.8 235.959 1087.28 249.708 1078.39 259.787C1074.04 264.716 1067.49 264.809 1066 272L1084 272L1084 284L1079 283C1076.4 288.773 1072.3 290.171 1067 293C1069.05 297.914 1071.48 307.834 1075.51 311.254C1083.02 317.629 1097.28 302.162 1099.59 296C1101.16 291.811 1098.27 289.04 1098.27 285C1098.28 280.36 1102.03 273.912 1104.35 270C1108.9 262.354 1126.24 250.902 1117 241L1117 240C1123.73 233.783 1122.97 223.599 1128.7 217.513C1133.82 212.078 1145.31 213.766 1152 211.942C1158.71 210.113 1161.28 203.898 1167.04 201.042C1172.22 198.475 1190.26 200.335 1194.53 204.318C1199.94 209.357 1202.1 226.633 1193.87 230.438C1189.73 232.348 1184.72 228.55 1181 227C1174.04 234.703 1159.47 225.009 1152.91 233.318C1148.35 239.083 1155.78 248.893 1153 256L1146 254L1151 262C1157.53 257.917 1166.44 253.214 1171.85 247.787C1174.33 245.303 1174.71 239.781 1178.15 238.558C1186.54 235.572 1191.73 245.776 1200 237L1201 237L1227 280L1228 280C1232.05 270.389 1223.86 262.019 1226.31 253.019C1227.62 248.21 1232.96 248.405 1235.69 244.852C1243.22 235.059 1252.29 216.952 1251.71 204.015C1251.37 196.487 1241.02 194.196 1239.79 186.001C1238.46 177.199 1259.03 169.883 1243 162C1245.47 153.533 1253.08 148.072 1255.49 140C1257.37 133.696 1253.19 127.048 1255.03 121C1256.45 116.314 1261.9 113.375 1261.08 108C1260.46 103.933 1256.94 96.3221 1253.39 94.0425C1247.78 90.4423 1238.41 92.0808 1240.73 81C1241.97 75.0496 1246.59 66.3781 1252.02 63.4421C1259.7 59.2874 1270.93 60.0523 1274 50L1241 63L1249 48L1222 50z"/>
</svg>
