<?xml version="1.0" standalone="yes"?>
<svg xmlns="http://www.w3.org/2000/svg" width="1450" height="1063">
<path style="fill:#010101; stroke:none;" d="M0 0L0 1063L1450 1063L1450 0L0 0z"/>
<path style="fill:#ffffff; stroke:none;" d="M223 750C222.38 757.852 217.16 764.777 216.718 772C215.799 787.037 220.126 803.449 210 817L210 818L214 822C205.455 823.886 206.021 831.409 206 839L213 840C212.973 849.671 211.099 859.35 211.059 869C211.041 873.183 213.33 876.794 212.517 881C211.313 887.227 205.255 891.437 204.327 896.975C203.7 900.721 208.12 902.96 207.697 907.004C206.37 919.671 200.356 939.761 190.61 948.487C187.264 951.483 181.855 952.27 178 954.696C170.427 959.461 164.226 964.083 155 963C157.97 972.321 166.382 988.168 178 984.238C182.592 982.685 189.837 974.821 194.576 975.73C201.036 976.969 205.809 986.319 213 988.363C220.969 990.627 229.867 987.967 238 989.326C255.088 992.179 267.315 1003.93 276 1018C287.49 1015.63 298.666 1011.88 310 1008.88C316.061 1007.28 323.649 1006.15 328.61 1002.03C336.554 995.436 334.425 982.523 338.687 974C343.613 964.147 358.775 957.177 361.579 947C362.887 942.249 356.01 933.462 354.154 929C349.55 917.931 352.998 905.523 348.286 894.043C344.911 885.82 334.798 887.505 329.728 881.581C325.131 876.21 321.296 861.951 318.771 855.17C317.095 850.669 322.433 845.644 322.895 841C323.987 830.028 318.11 812.475 310.034 804.603C306.985 801.63 300.889 802.487 297 801.614C291.043 800.277 285.872 796.543 280 794.927C274.614 793.444 267.745 794.045 263.171 790.486C258.012 786.473 254.02 779.642 254.263 773C254.482 767.028 258.449 761.545 254.053 756.148C249.033 749.984 241.357 754.778 235 754.309C230.858 754.004 226.977 751.146 223 750M52 802C52.5955 805.71 53.3133 807.806 57 809L58 823C63.548 820.909 72.517 814.113 73 808C67.1646 809.878 61.7265 810.596 61 803L52 802z"/>
</svg>
