<?xml version="1.0" standalone="yes"?>
<svg xmlns="http://www.w3.org/2000/svg" width="1450" height="1063">
<path style="fill:#010101; stroke:none;" d="M0 0L0 1063L1450 1063L1450 0L0 0z"/>
<path style="fill:#ffffff; stroke:none;" d="M1133 76C1131.84 70.5681 1128.09 69.6895 1123 69C1117.27 81.5998 1101.3 85.6396 1092.31 95.5903C1088.64 99.6545 1090.47 106.366 1084.94 108.751C1076.42 112.421 1067.88 108.367 1060 111.367C1051 114.794 1043.55 122.918 1034 124.826C1028.46 125.934 1022.3 125.286 1017 127.343C1012.76 128.992 1008.93 132.968 1004.01 132.392C996.741 131.539 990.583 119.429 990 113C979.718 118.626 985.519 126.309 982.007 133.829C978.459 141.426 971.493 144.884 969 154L978 148L981.154 162L1000 181C989.056 180.902 981.368 172.132 970.004 174.228C964.624 175.221 962.697 180.13 959.482 183.91C953.228 191.263 942.748 203.379 947.603 214.7C950.059 220.425 957.257 222.781 960 229C964.246 228.243 978.415 226.819 981.096 224.396C986.41 219.592 985.755 210.172 992.108 206.442C996.382 203.933 1001.66 204.518 1006 202.186C1011.64 199.157 1013.68 194.073 1018.39 190.693C1021.03 188.796 1024.99 189.903 1028 188.579C1034.03 185.927 1039 181.15 1045 178.416C1049.8 176.226 1055.41 176.883 1060 174.122C1072.82 166.409 1073.41 143.962 1092 143.908C1098.07 143.891 1105.24 148.125 1111 150L1113 145C1110.21 142.424 1105.63 132.903 1113.02 132.613C1116.84 132.463 1118.81 137.102 1122.09 138.397C1127.35 140.474 1135.39 139 1141 139C1144.52 125.851 1158.78 134.738 1168 134.497C1173.62 134.35 1179.01 129.544 1183 126.046C1193.57 116.779 1198.77 101.542 1202.24 88C1203.15 84.4301 1202.39 80.3465 1204.02 77C1208.84 67.1438 1217.79 61.1508 1221 50C1211.57 47.9764 1193.31 58.1899 1186.17 64.3904C1182.21 67.8226 1179.68 73.5027 1174.96 75.9722C1163.51 81.9624 1145.24 76 1133 76M967 130C973.186 129.978 975.203 129.065 977 123C971.758 123.477 969.183 125.185 967 130M951 133C956.115 130.425 960.118 129.811 962 124C955.115 124.142 949.242 124.81 951 133z"/>
</svg>
