<?xml version="1.0" standalone="yes"?>
<svg xmlns="http://www.w3.org/2000/svg" width="1450" height="1063">
<path style="fill:#010101; stroke:none;" d="M0 0L0 1063L1450 1063L1450 0L0 0z"/>
<path style="fill:#ffffff; stroke:none;" d="M1139 662C1128.56 657.95 1115.6 651.172 1104 654.649C1093.32 657.848 1086.45 667.514 1077 672.566C1071.53 675.49 1062.56 672.408 1057.9 676.603C1049.63 684.045 1048.78 702.483 1047.51 713C1047.1 716.399 1048.21 721.998 1051.42 723.933C1055.35 726.305 1062.62 723.122 1067 723.26C1073.71 723.471 1080.26 727.214 1087 726.586C1099.87 725.385 1111.82 718.708 1125 718.213C1131.14 717.983 1135.39 722.75 1141 724.362C1147.97 726.364 1156.18 723.429 1162.79 727.314C1167.85 730.291 1167.54 738.968 1174.04 739.836C1182.93 741.023 1189.73 731.992 1198 730.405C1210.92 727.929 1229.05 729.56 1242 732C1242 722.176 1248.22 708.648 1261 715.529C1270.06 720.406 1276.93 730.133 1285 736.482C1295.92 745.068 1308.14 749.35 1321 754.053C1326.49 756.061 1336.23 761.949 1342 759.603C1350.88 755.993 1364.28 745.839 1365.7 736C1366.81 728.316 1363.82 720.556 1365.53 713C1368.44 700.115 1375.96 688.105 1381 676C1365.52 673.999 1351.28 661.234 1340 651.166C1334.74 646.466 1328.57 642.536 1328 635L1336 636C1336 632.523 1336.9 627.449 1334.4 624.638C1326.91 616.229 1315.31 630.327 1310.56 616.005C1309.92 614.073 1310.02 612.004 1310 610L1316 613L1312.07 602.961L1302.83 589.599L1287 582L1286 582C1283.78 585.586 1284.04 587.304 1286 591C1280.77 593.485 1275.89 599.07 1270 599.732C1265.07 600.288 1261.52 596.52 1257 595.418C1252.43 594.305 1247.59 595.608 1243 594.61C1234.12 592.678 1221.88 584.628 1215 578.787C1206.78 571.814 1197.63 557.884 1187 554.958C1169.8 550.223 1147 567.713 1141.08 583C1138.12 590.644 1144.37 601.955 1144.36 610C1144.36 616.287 1139.96 621.807 1139.19 628C1137.81 639.027 1139 650.888 1139 662z"/>
</svg>
