<?xml version="1.0" standalone="yes"?>
<svg xmlns="http://www.w3.org/2000/svg" width="1450" height="1063">
<path style="fill:#010101; stroke:none;" d="M0 0L0 1063L1450 1063L1450 0L0 0z"/>
<path style="fill:#ffffff; stroke:none;" d="M692 146L692 156C699.542 154.791 700.073 150.598 698 144L692 146M773 149C769.106 158.353 765.438 167.318 754 166C757.622 177.136 758.822 191.838 771 197C767.523 184.808 771.508 176.294 773.054 164C773.758 158.401 776.898 153.982 773 149M694 168L695 168L703 160C697.534 160.239 691.141 161.309 694 168M799 194L793 193L803 199.498L841.787 214.14L860 230L870.213 212.464L889.427 195.996L891 175C884.024 177.705 873.451 180.147 867.988 172.582C865.907 169.699 866.432 162.583 861.85 161.921C858.518 161.44 855.926 166.291 852.985 167.397C849.409 168.741 845.536 167.519 842 169.317C835.782 172.479 831.582 178.723 825 181.387C818.664 183.951 811.995 179.501 806.109 182.576C802.139 184.651 800.716 190.155 799 194M706 175L705 175L707 184L715 175L706 175M721 196C725.577 193.258 726.7 191.106 725 186C720.818 188.251 719.876 191.49 721 196M918 197C912.882 196.053 905.941 195.484 901.228 198.317C898.142 200.172 896.81 205.413 900.318 207.566C908.43 212.542 919.776 200.876 926 197C924.11 192.296 919.89 192.296 918 197M695 197L697 206C700.867 204.461 701.448 201.956 702 198L695 197M669 202C665.678 208.372 666.66 215.227 674 218C673.982 211.892 672.986 206.812 669 202M729 202C728.62 206.429 730.836 208.135 734 211L735 211L738 204L729 202M686 204C687.122 212.686 687.544 223.889 690.879 231.996C694.37 240.482 701.11 240.594 699 251C706.563 251.09 715.08 257.355 721 262L722 262C728.041 256.69 731.034 260.349 738 259.659C747.077 258.76 752.926 252.109 756 244C751.843 243.326 749.656 244.83 747 248L746 248L737.682 232.669L713.589 215.674L710 204C706.107 207.086 702.587 211.451 697.015 209.396C692.474 207.721 691.29 203.547 686 204M737 215C738.263 220.459 739.322 225.931 745 228L755 216L754 212C750.32 212.711 746.451 214.362 744 211L737 215M673 233C673.56 245.804 686.758 246.992 685 233L677 237L675 233L673 233M760 264C758.344 264.006 756.623 263.909 754.976 264.133C742.076 265.888 755.592 279.028 760 264z"/>
</svg>
