<?xml version="1.0" standalone="yes"?>
<svg xmlns="http://www.w3.org/2000/svg" width="1450" height="1063">
<path style="fill:#010101; stroke:none;" d="M0 0L0 1063L1450 1063L1450 0L0 0z"/>
<path style="fill:#ffffff; stroke:none;" d="M929 485.117C917.192 490.204 924.195 500.076 922.273 509C920.087 519.151 913.631 528.565 911.13 539C908.689 549.189 909.459 559.896 906.957 570C904.182 581.203 897.807 591.907 898.38 604C898.795 612.768 906.833 620.094 906.61 629C906.436 635.987 904.603 644.689 901.598 651C899.345 655.731 895.125 659.699 894.225 665C891.689 679.921 897.174 696.284 899.3 711C901.217 724.265 908.887 728.962 914.442 740C918.57 748.202 919.673 757.911 924.046 765.999C926.719 770.942 931.897 774.956 937.787 772.397C943.124 770.078 944.076 761.284 948.213 757.379C952.814 753.036 961.256 752.172 965.066 747.49C967.708 744.243 967.964 738.835 969.464 735C973.566 724.513 980.648 711.528 980.653 700C980.656 692.213 976.09 684.786 976.26 677C976.698 656.937 983.046 636.989 982.645 617C982.527 611.125 978.901 605.81 978.495 600C978.215 595.988 980.184 591.99 979.492 588C978.612 582.92 975.758 579.491 976.044 574C976.412 566.941 980.804 562.36 978.471 555C976.145 547.665 967.91 543.479 966.307 536C964.561 527.853 967.443 516.228 968.576 508C968.992 504.981 970.683 499.372 968.933 496.638C965.248 490.883 950.26 488.343 944 487C939.701 486.078 933.274 483.276 929 485.117z"/>
</svg>
