<?xml version="1.0" standalone="yes"?>
<svg xmlns="http://www.w3.org/2000/svg" width="1450" height="1063">
<path style="fill:#010101; stroke:none;" d="M0 0L0 1063L1450 1063L1450 0L0 0z"/>
<path style="fill:#ffffff; stroke:none;" d="M184 418C180.156 430.02 185.217 433.059 189.034 444C190.845 449.19 190.197 453.997 193 459C207.056 451.291 200.368 439.179 193.637 429.985C190.337 425.477 189.293 420.603 184 418M212 452C227.384 459.684 216.898 438.382 212 452M249.303 469.418C246.334 470.507 245.884 475.474 247.067 477.911C248.61 481.088 252.094 482.955 253.914 486.015C257.84 492.614 258.853 504.676 269.995 500.607C287.918 494.062 266.437 477.01 259 472.862C256.573 471.508 252.242 468.34 249.303 469.418M365 547L369 560L363 562L358 550L350 553C350.822 559.467 357.177 569.998 356.493 575.572C355.811 581.13 345.924 584.676 342 587.609C331.661 595.336 320.091 605.966 312 616C318.508 620.675 326.313 629.325 334 631.647C345.157 635.018 358.963 621.709 361 612C366.338 615.116 375.669 620.859 381.062 614.437C384.586 610.24 383.15 606.644 389.005 604.005C396.371 600.684 408.992 598.194 411.241 589C414.745 574.674 402.948 554.754 398 542L381.285 548.615L365 547z"/>
</svg>
