<?xml version="1.0" standalone="yes"?>
<svg xmlns="http://www.w3.org/2000/svg" width="1450" height="1063">
<path style="fill:#010101; stroke:none;" d="M0 0L0 1063L1450 1063L1450 0L0 0z"/>
<path style="fill:#ffffff; stroke:none;" d="M478 453L491 474C474.135 475.333 451.909 489.746 460 508L472 503C474.493 508.012 478.271 512.155 481.046 517C484.424 522.899 492.095 543.622 502.639 530.851C506.655 525.987 500.369 521.182 501.478 516C502.596 510.776 508.321 507.637 508.475 502C508.674 494.747 503.478 492.47 500.649 486.896C494.194 474.179 494.645 456.241 478 453z"/>
</svg>
