<?xml version="1.0" standalone="yes"?>
<svg xmlns="http://www.w3.org/2000/svg" width="1433" height="1450">
<path style="fill:#010101; stroke:none;" d="M0 0L0 1450L1433 1450L1433 0L0 0z"/>
<path style="fill:#ffffff; stroke:none;" d="M904 759C904.253 764.869 905.333 771.582 912.001 773.347C915.542 774.285 918.621 772.882 921.722 775.576C936.15 788.106 949.425 802.932 971 803.737C976.564 803.944 980.789 800.715 986 799.811C990.006 799.116 994.93 803.002 998.566 800.778C1002.92 798.116 1000.45 789.689 999.046 786C994.085 772.958 990.248 763.709 977 758C971.938 769.477 962.735 770.979 954.279 761.711C951.388 758.542 951.501 754.649 949.686 751C944.991 741.561 940.001 738.298 940 727L923 726C923.473 723.07 923.662 720.804 922.468 718C921.34 715.353 919.793 710.727 917.351 709.032C911.028 704.64 898.999 715.912 891.015 712.512C885.762 710.274 884.721 704.299 881.363 700.301C879.139 697.654 875.745 696.294 873.599 693.624C871.877 691.483 871.88 687.35 868.852 686.447C866.14 685.638 863.123 688.253 861.001 689.576C851.561 695.464 853.681 706.007 855.688 715.985C857.169 723.355 867.922 722.927 872.239 728.108C875.529 732.056 880.661 738.858 881.523 744C882.144 747.707 878.59 751.199 880.376 754.771C882.943 759.906 899.004 759.618 904 759z"/>
</svg>
