<?xml version="1.0" standalone="yes"?>
<svg xmlns="http://www.w3.org/2000/svg" width="1433" height="1450">
<path style="fill:#010101; stroke:none;" d="M0 0L0 1450L1433 1450L1433 0L0 0z"/>
<path style="fill:#ffffff; stroke:none;" d="M817 747C809.484 744.261 790.121 745.536 784.603 752.303C781.88 755.644 782.494 768.097 783.934 772C786.731 779.575 795.383 789.898 802.3 793.973C805.365 795.778 808.947 795.231 812 797.433C816.207 800.467 825.541 811.527 831.036 810.963C836.924 810.358 839.092 800.837 844 798C845.812 802.367 845.826 811.188 848.604 814.363C850.371 816.382 859.122 824.468 861.302 825.227C865.469 826.677 870.63 823.821 875 824.724C886.255 827.049 893.87 831.777 904 823C908.058 831.723 923.717 828.509 925.957 837.105C927.007 841.135 923.362 855.381 921.142 858.961C918.398 863.384 913.934 865.155 914.11 871C914.546 885.496 924.771 891.441 932.682 902C937.177 907.998 931.557 916.275 937.279 921.427C939.206 923.164 942.232 924.367 944.787 923.378C949.378 921.602 950.476 916.132 956.001 914.878C960.197 913.926 966.773 912.374 971 912.721C974.462 913.005 978.596 915.416 981.853 913.303C987.722 909.496 986.209 897.665 990.684 892.019C996.006 885.307 1003.5 888.701 1009.87 884.03C1013.93 881.045 1013.77 875.947 1016.7 872.213C1021.41 866.218 1033.57 858.965 1041 858C1040.41 849.122 1034.13 841.332 1025.71 838.545C1022.06 837.335 1017.3 838.269 1014.77 834.606C1012.19 830.856 1015.46 823.178 1016 819C1009.58 814.948 1007.64 806.206 1001 803.102C990.38 798.141 983.207 803.575 973 804.47C966.947 805 959.641 801.923 954 799.911C948.818 798.062 942.485 795.864 938.184 792.363C932.702 787.899 931.751 783.641 924 783C923.094 773.096 917.699 776.634 911.001 773.477C905.359 770.818 903.739 765.691 903 760C897.742 760.552 882.743 760.129 880.002 754.887C878.231 751.503 881.228 747.617 880.756 744C880.122 739.134 876.054 733.979 873.304 730.044C869.156 724.11 861.996 724.774 857.359 719.775C853.402 715.51 857.012 711.76 855.167 707.319C853.247 702.693 839.404 706.726 836.213 708.569C830.837 711.673 830.701 719.612 825.981 723.787C822.283 727.058 809.737 726.705 808.817 730.228C806.957 737.349 818.63 739.086 817 747z"/>
</svg>
