<?xml version="1.0" standalone="yes"?>
<svg xmlns="http://www.w3.org/2000/svg" width="1433" height="1450">
<path style="fill:#010101; stroke:none;" d="M0 0L0 1450L1433 1450L1433 0L0 0z"/>
<path style="fill:#ffffff; stroke:none;" d="M352 1185L353 1197C342.722 1194.58 341.996 1200.1 334.815 1205.15C332.078 1207.07 328.062 1207.3 327.027 1211.06C325.544 1216.44 330.071 1223.43 328.66 1230C327.407 1235.83 320.124 1243.36 324.032 1249.72C326.278 1253.38 334.089 1254.88 338 1256L348.625 1250.06L381 1227L379 1236C382.238 1233.96 383.727 1230.09 387.105 1228.32C392.266 1225.62 398.849 1228.83 397.276 1235C393.961 1248 391.33 1259.16 384.443 1270.87C379.616 1279.07 372.028 1274.42 371 1267L355 1272.17L336 1274C335.702 1264.89 329.274 1265.52 323.09 1261.27C317.336 1257.32 314.057 1252.09 307 1250C306.08 1256.24 312.596 1261.16 310.747 1266.94C308.814 1272.99 296.258 1271.57 291.529 1276.39C287.781 1280.21 287.511 1288.11 282.775 1290.64C271.96 1296.43 258.77 1288.93 251.831 1304C248.042 1312.24 265.376 1313.19 262.293 1323C260.711 1328.04 256.012 1331.79 254.873 1337C253.822 1341.8 256.839 1346.13 254.566 1350.99C252.802 1354.75 244.984 1359.45 248.068 1364.36C250.013 1367.46 254.94 1368.55 257.536 1371.21C260.419 1374.17 262.492 1377.65 266.015 1379.97C271.8 1383.79 283.636 1384.57 287.825 1377.78C290.744 1373.04 290.646 1366.91 293.966 1362.04C297.512 1356.84 305.329 1351.03 311 1348.33C320.657 1343.73 335.371 1351.2 346 1349.06C356.739 1346.9 362.571 1337.33 372 1333.63C376.32 1331.93 381.591 1334.29 386 1334.7C390.204 1335.09 393.942 1332.44 397.996 1332.9C407.675 1334.01 408.482 1347.09 411 1354L413 1354C421.18 1342.03 422.94 1332.18 424.437 1318C425.033 1312.35 421.187 1307.53 424.173 1302C427.797 1295.29 434.97 1287.95 443 1287.39C447.298 1287.1 452.361 1290.6 456.135 1287.4C467.583 1277.67 470.435 1257.31 479 1245C472.732 1245.83 467.723 1250.4 461.015 1248.68C454.008 1246.89 449.353 1238.44 442 1235.99C434.917 1233.63 425.73 1233.81 421.265 1226.98C418.228 1222.34 420.762 1217.92 419.347 1213C416.899 1204.49 413.267 1198.18 409 1191L412 1180C406.678 1181.81 398.945 1192.3 397 1180C380.476 1179.66 367.632 1178.27 352 1185z"/>
</svg>
