<?xml version="1.0" standalone="yes"?>
<svg xmlns="http://www.w3.org/2000/svg" width="1433" height="1450">
<path style="fill:#010101; stroke:none;" d="M0 0L0 1450L1433 1450L1433 0L0 0z"/>
<path style="fill:#ffffff; stroke:none;" d="M788 1098C787.027 1093.75 784.654 1080.31 777.39 1084.12C774.626 1085.57 773.043 1089.69 770.895 1091.91C768.086 1094.81 763.02 1097.63 762.327 1101.99C761.004 1110.31 778.568 1114.1 779.504 1122C780.6 1131.26 765.29 1134.65 761.089 1140.39C757.643 1145.1 752.824 1155.23 751.865 1161C751.194 1165.04 753.526 1169.01 751.058 1172.79C749.204 1175.62 745.637 1176.55 743.599 1179.21C731.185 1195.44 721.103 1218.89 717.791 1239C716.687 1245.7 713.809 1250.99 716.89 1257.89C720.058 1264.98 726.048 1257.16 731 1258.27C736.038 1259.41 741.085 1263.72 746 1265.65C752.971 1268.39 763.49 1269.91 771 1271.32C776.723 1272.39 782.709 1267.48 787.996 1270.22C792.458 1272.52 803.728 1284.5 805.779 1289.04C808.344 1294.72 810.861 1306.4 815.572 1310.38C818.259 1312.65 822.761 1311.17 826 1312.36C829.819 1313.77 835.647 1318.24 839.867 1317.18C846.447 1315.54 844.463 1304.53 843.551 1300C840.296 1283.82 828.462 1267.07 836.653 1250.04C839.706 1243.7 847.154 1245.08 853 1245C858.568 1244.92 862.687 1241.91 868 1241.23C871.718 1240.75 875.283 1242.14 878.999 1241.22C885.276 1239.67 886.3 1234.32 891.105 1230.99C897.44 1226.61 905.556 1225.23 910.681 1218.91C913.915 1214.91 911.901 1210.61 912.104 1206C912.467 1197.74 916.817 1190.1 916.552 1182.02C916.341 1175.59 908.186 1173.13 905.97 1167C902.133 1156.39 910 1142.86 902.298 1133.47C895.303 1124.94 881.013 1122.65 874.862 1114.58C870.491 1108.86 875.723 1090.07 867.941 1087.57C860.796 1085.27 849.33 1080.37 842.004 1083.35C836.038 1085.78 828.07 1100.62 820.584 1097.01C812 1092.87 822.315 1082.84 824 1077L819 1071C802.18 1074 800.946 1090.43 788 1098z"/>
</svg>
