<?xml version="1.0" standalone="yes"?>
<svg xmlns="http://www.w3.org/2000/svg" width="1433" height="1450">
<path style="fill:#010101; stroke:none;" d="M0 0L0 1450L1433 1450L1433 0L0 0z"/>
<path style="fill:#ffffff; stroke:none;" d="M1049 421L1036.45 435L1038 448L1043 447L1025 464C1033.61 470.348 1040.83 467.631 1051 469C1045.24 491.282 1019.82 489.997 1003 497C1004.82 501.574 1009.54 500.517 1011.8 504.303C1014.58 508.948 1008.94 514.693 1010.33 519.772C1011.27 523.19 1016.26 524.262 1018.35 527.058C1022.05 532.015 1021.05 538.346 1020 544C1030.46 549.853 1029.94 562.951 1044 567L1045 564L1048 568C1058.29 565.619 1079.23 566.177 1083.29 580.09C1084.38 583.828 1075.51 596.227 1081.32 598.045C1085.56 599.371 1090.52 594.478 1095 594.677C1101.19 594.953 1104.6 600.006 1110 601.778C1113.36 602.88 1116.54 600.456 1120 601.743C1128.75 605.001 1135.53 619.503 1144 620.059C1150.59 620.491 1159.67 616.105 1167 615.839C1171.4 615.679 1175.58 618.595 1179.96 616.951C1184.28 615.331 1186.43 610.514 1191 609.309C1200.83 606.723 1212.14 607.429 1222 602.965C1228.2 600.155 1231 593.49 1237.01 590.854C1251.35 584.572 1264.14 590.189 1277 578L1277 577C1266.97 564.968 1252.22 555.927 1246 541C1232.26 543.449 1228.84 555.084 1218 561.871C1211.45 565.972 1206.28 565.312 1199 565C1201.53 544.855 1185.66 550.539 1173.05 544.867C1168.9 542.998 1166.94 538.406 1163 536L1163 535C1170.44 528.369 1172.72 516.932 1167.86 508C1165.34 503.357 1160.65 500.376 1159.39 495C1156.91 484.404 1164.6 469.139 1158.26 460.286C1153.17 453.176 1146.89 454.543 1140.04 451.176C1134.99 448.693 1130.49 443.769 1125 442.306C1121.63 441.407 1118.46 443.547 1115.04 442.308C1106.42 439.182 1095.71 432.97 1086 433.515C1079.8 433.863 1078.12 443.568 1074.29 443.319C1064.92 442.711 1054.28 427.367 1049 421z"/>
</svg>
