<?xml version="1.0" standalone="yes"?>
<svg xmlns="http://www.w3.org/2000/svg" width="1433" height="1450">
<path style="fill:#010101; stroke:none;" d="M0 0L0 1450L1433 1450L1433 0L0 0z"/>
<path style="fill:#ffffff; stroke:none;" d="M1278 578L1277 578C1271.14 583.72 1264.24 588.056 1256 589.443C1249.15 590.595 1242.88 588.724 1236.09 591.854C1230.21 594.568 1227.24 601.15 1221 603.965C1211.42 608.283 1200.64 607.81 1191 609.826C1185.99 610.875 1183.8 616.373 1179 617.817C1174.92 619.043 1171.07 616.339 1167 616.509C1159.6 616.818 1150.83 620.762 1144 620.467C1137.37 620.181 1133.92 611.125 1128.98 607.671C1126.05 605.616 1122.58 602.642 1119 601.887C1115.92 601.238 1113.04 603.205 1110 602.061C1104.7 600.069 1101.08 595.728 1095 595.405C1073.81 594.281 1067.86 626.11 1056.44 637.297C1051.15 642.476 1041.86 642.065 1036.65 648.329C1032.88 652.868 1035.15 658.702 1034 664L1039 664L1030 694C1034.75 695.131 1042.89 693.419 1046.33 697.318C1050.14 701.634 1046.04 707.163 1048.47 711.91C1050.38 715.623 1054.78 717.23 1056.41 721.09C1058.28 725.509 1056.97 730.835 1059.6 735C1065.42 744.197 1076.8 752.912 1072.36 765.96C1070.17 772.381 1063.78 770.242 1059.43 773.179C1055.18 776.045 1049.44 787.159 1047.71 792C1043.8 802.973 1054.64 802.193 1056.68 810.105C1059.16 819.771 1036.93 836.308 1029 839L1029 840C1036.45 841.991 1041.5 851.61 1042 859C1028.54 859.579 1016.95 870.857 1013 883C1025.47 887.669 1033.62 881.251 1045 878.419C1052.43 876.568 1060.8 878.303 1068 876.275C1072.07 875.128 1074.84 871.05 1079 870.423C1085.71 869.411 1098.33 879.344 1104.41 874.066C1111.89 867.572 1107.01 850.456 1112.02 842.214C1114.79 837.673 1122.33 836.601 1127 835.113C1130.06 834.136 1133.7 831.737 1137 832.53C1143.34 834.053 1146.63 841.213 1153 843C1157.44 835.572 1162.5 837.52 1170 837.906C1174.51 838.138 1178.56 835.567 1183 836.264C1193.37 837.891 1202.84 846.797 1212.96 839.348C1225.42 830.174 1212.34 822.606 1209.33 813C1208.01 808.802 1206.33 802.381 1206.94 798C1207.54 793.661 1210.43 790.611 1209.18 786C1207.99 781.591 1205.83 772.821 1203.26 769.209C1200.34 765.115 1195.92 763.481 1194.92 758C1193.04 747.728 1198.38 738.983 1196 729C1216.21 724.818 1225.36 706.346 1243 699C1241.56 690.474 1241.17 684.12 1247.21 677C1250.19 673.486 1255.3 670.684 1257.44 666.625C1264.77 652.747 1266.3 639.666 1280 629.269C1288.31 622.966 1294.25 614.708 1301.37 607.205C1305.01 603.375 1309.33 601.143 1307.35 595.043C1305.56 589.567 1298.93 588.118 1295.56 583.827C1294.06 581.92 1293.41 578.513 1290.77 577.816C1286.04 576.567 1283.11 580.606 1278 578z"/>
</svg>
