<?xml version="1.0" standalone="yes"?>
<svg xmlns="http://www.w3.org/2000/svg" width="1433" height="1450">
<path style="fill:#010101; stroke:none;" d="M0 0L0 1450L1433 1450L1433 0L0 0z"/>
<path style="fill:#ffffff; stroke:none;" d="M673 1332C676.799 1345.52 665.957 1351.21 662.639 1364C660.865 1370.83 667.702 1370.71 668.958 1376.1C671.234 1385.88 661.026 1394.62 654 1399L666.062 1413.19L670 1432C682.757 1431.96 685.503 1424.59 687 1413C700.456 1413.29 712.359 1429.71 725.957 1424.4C730.992 1422.43 733.162 1415.99 738.001 1413.28C741.652 1411.23 747.256 1411.62 749.566 1407.66C752.19 1403.15 753.534 1391.92 752.031 1387C750.824 1383.05 745.919 1375.32 751.243 1372.36C755.866 1369.78 762.074 1373.96 767 1373.61C778.147 1372.82 788.737 1364.67 800 1362.4C803.777 1361.64 809.281 1361.33 811.543 1357.72C815.044 1352.14 810.246 1346.47 809.174 1341C806.927 1329.55 807.781 1321.61 816 1313C811.557 1304.86 809.427 1294.81 804.077 1287.21C802.144 1284.47 798.791 1283.33 796.637 1280.79C793.499 1277.07 792.18 1271.75 786.996 1270.12C782.685 1268.77 778.316 1272.28 774 1272.37C767.115 1272.53 756.879 1269.09 750 1267.61C741.919 1265.86 732.08 1254.62 724.225 1260.85C721.057 1263.37 720.505 1267.63 717.606 1270.37C709.014 1278.47 698.923 1286.77 693.965 1298C689.297 1308.58 684.725 1327.3 673 1332z"/>
</svg>
