<?xml version="1.0" standalone="yes"?>
<svg xmlns="http://www.w3.org/2000/svg" width="1433" height="1450">
<path style="fill:#010101; stroke:none;" d="M0 0L0 1450L1433 1450L1433 0L0 0z"/>
<path style="fill:#ffffff; stroke:none;" d="M722 718L718 717C715.052 732.649 709.367 749.997 701.586 764C697.285 771.741 691.551 777.143 689 786L694 788L691 795L704 796L700.001 807.791L709.507 824.424L699.966 834.509L694 846C695.367 847.441 697.155 849.323 695.201 851.312C693.236 853.311 689.654 851.766 687.299 853.194C683.981 855.206 681.5 861.618 679.81 865C675.315 873.998 672.267 884.243 667.567 892.787C665.544 896.465 660.341 897.54 659.393 902.015C658.605 905.732 662.355 909.202 664.254 912C670.079 920.584 674.235 928.36 684 933C679.767 940.252 676.927 949.007 672.157 955.826C666.61 963.758 661.411 966.528 660 977C651.649 977.76 652.804 982.932 648 988L640.02 1008L648.446 1026L653.349 1041L659.379 1049.4L671 1049.13L689 1053C691.813 1044.68 694.928 1033.55 702 1028C699.417 1017.89 705.214 1005.43 706.787 995C708.931 980.792 705.072 964.994 708.133 951C709.563 944.464 714.525 933.846 722.985 935.284C727.868 936.114 743.99 951.488 746.583 956.039C748.445 959.308 747.961 968.103 752.148 969.068C755.49 969.838 764.79 966.471 767.726 964.687C770.63 962.922 771.872 957.99 775.972 960.546C785.432 966.444 776.162 972.674 777.758 979.996C779.582 988.368 794.986 994.84 801.777 998.508C804.401 999.926 805.609 1003.9 809.05 1003.53C815.044 1002.9 819.569 986.13 819.458 981C819.392 977.922 817.086 975.113 817.389 972.04C817.866 967.19 825.091 964.685 827.647 960.826C833.068 952.645 826.507 945.108 836.286 938.452C841.415 934.961 846.258 940.404 851 941.967C854.64 943.167 859.446 941.938 862.96 940.657C868.819 938.52 870.373 931.434 875.043 927.684C878.281 925.085 883.73 925.148 886.383 922.397C888.295 920.415 886.885 915.396 890.188 914.778C893.632 914.133 901.252 918.662 905 919.586C911.076 921.086 919.618 916.115 926 915.286C928.197 915 931.433 915.341 932.972 913.397C936.346 909.135 932.889 902.23 929.941 899C922.724 891.091 910.8 881.4 913.357 869.001C914.193 864.947 918.018 863.07 920.142 859.83C922.413 856.366 926.369 841.046 925.223 837.108C923.012 829.514 908.216 831.684 904 824C890.894 832.353 886.234 825.31 873 825.275C863.836 825.251 854.836 829.731 847 834L847 835C857.102 848.667 832.952 848.007 828 859L833 858L836 866L820 869C822.311 851.964 807.254 859.359 799.376 852.006C796.418 849.246 801.017 845.456 798.339 843.028C794.067 839.155 784.489 843.483 791 834L791 833C782.837 824.563 786.991 819.196 785.842 809C785.246 803.712 781.151 799.358 780.676 794C779.498 780.711 782.277 767.423 782 754C772.35 755.998 760.421 762.57 753 769C749.739 761.271 754.014 759.163 756 752C749.2 749.874 748.54 743.055 750 737L746 734L745 734C729.878 744.388 728.773 716.715 727 709L736 707C736.937 703.675 737.74 700.312 738.721 697C740.473 691.081 737.625 677.294 728.514 684.862C723.302 689.191 719.908 712.117 722 718z"/>
</svg>
