<?xml version="1.0" standalone="yes"?>
<svg xmlns="http://www.w3.org/2000/svg" width="1433" height="1450">
<path style="fill:#010101; stroke:none;" d="M0 0L0 1450L1433 1450L1433 0L0 0z"/>
<path style="fill:#ffffff; stroke:none;" d="M775 712C766.448 712.28 765.735 719.994 760 725L763 711C750.191 718.951 740.611 704.672 728 709C728.711 713.313 726.773 717.971 727.773 722C729.592 729.328 737.826 740.434 745 733L746 733C750.694 738.894 747.943 749.526 757 751C755.145 757.69 750.044 760.654 753 768C768.512 758.114 797.074 739.102 816 746L818 742C816.324 740.803 814.611 739.646 813 738.361C797.33 725.863 822.124 728.648 827.889 721.972C830.325 719.151 830.411 715.198 832.25 712C834.011 708.939 846.359 700.208 836 698L834 685L826 688C825.812 683.705 825.268 679.355 821.856 676.314C818.157 673.017 813.263 673.837 813 668C804.776 668.452 806.167 674.907 799.942 677.892C792.955 681.242 784.157 677.979 778.062 682.009C773.552 684.992 775.275 705.602 775 712z"/>
</svg>
