<?xml version="1.0" standalone="yes"?>
<svg xmlns="http://www.w3.org/2000/svg" width="1433" height="1450">
<path style="fill:#010101; stroke:none;" d="M0 0L0 1450L1433 1450L1433 0L0 0z"/>
<path style="fill:#ffffff; stroke:none;" d="M589 1213C594.687 1221.74 605.984 1240.55 605.867 1251C605.719 1264.34 596.949 1282.7 605.148 1295C609.505 1301.53 616.965 1299.26 621.272 1304.32C624.013 1307.53 623.424 1312.34 625.314 1315.96C628.38 1321.84 636.406 1327.21 642 1330.52C650.476 1335.54 666.08 1336.89 667 1349C674.817 1345.46 675.608 1337.01 670.856 1330.1C664.278 1320.54 646.534 1318.1 646.074 1303C645.904 1297.4 647.95 1286.59 651.633 1282.27C655.606 1277.62 661.322 1274.69 664 1269L666 1275C669.246 1274.08 672.964 1273.45 675.895 1271.72C688.002 1264.58 676.12 1249.09 672.966 1240C671.365 1235.39 672.66 1230.47 670.442 1226C668.299 1221.68 663.606 1217.73 662.532 1213C660.62 1204.57 673.82 1191.42 661.867 1183.8C647.398 1174.57 640.664 1191.74 629.83 1197.29C624.599 1199.97 617.572 1198.88 612.039 1201.03C604.568 1203.93 596.211 1209.01 589 1213z"/>
</svg>
