<?xml version="1.0" standalone="yes"?>
<svg xmlns="http://www.w3.org/2000/svg" width="1433" height="1450">
<path style="fill:#010101; stroke:none;" d="M0 0L0 1450L1433 1450L1433 0L0 0z"/>
<path style="fill:#ffffff; stroke:none;" d="M703 1028C694.94 1032.66 688.594 1051.06 687 1060C700.939 1062.88 712.951 1067.64 724 1056L725 1063C736.441 1063 745.355 1063.8 754 1072L755 1072L760 1068C758.691 1063.06 753.005 1051.83 754.569 1047.15C756.177 1042.34 764.61 1044.29 764.381 1037.96C764.029 1028.22 751.463 1027.2 749.847 1018.01C749.047 1013.47 757.951 1005.23 760.958 1002.17C762.78 1000.32 765.214 995.387 767.719 994.664C771.394 993.605 776.692 998.782 780 999.982C790.482 1003.79 793.599 1006.45 805 1004C800.491 993.343 780.352 992.343 777.222 979.999C776.193 975.939 779.667 972.827 780.149 969C780.551 965.812 778.285 961.286 775.012 960.346C771.858 959.44 770.631 963.567 768.586 965.062C765.428 967.371 753.536 971.178 750.318 968.497C746.999 965.731 747.966 959.781 746.08 956.09C743.585 951.206 726.302 935.042 720.996 935.826C713.374 936.953 709.572 945.115 708.608 952C706.712 965.54 709.835 980.431 707.787 994C706.21 1004.45 699.378 1017.98 703 1028z"/>
</svg>
