<?xml version="1.0" standalone="yes"?>
<svg xmlns="http://www.w3.org/2000/svg" width="1433" height="1450">
<path style="fill:#010101; stroke:none;" d="M0 0L0 1450L1433 1450L1433 0L0 0z"/>
<path style="fill:#ffffff; stroke:none;" d="M1220 327C1214.97 332.162 1204.43 340.829 1197.91 343.397C1191.28 346.006 1180.98 339.545 1178 349C1167.33 345.741 1171.59 352.252 1170.47 359C1169.24 366.363 1164.02 370.084 1173 375L1162 390C1167.72 390.02 1178.19 393.797 1180.09 400.044C1181.46 404.547 1178.63 409.324 1179.92 414C1181.58 420.037 1186.59 425.017 1187.82 431C1188.92 436.369 1186.04 445.961 1184 451C1190.29 453.775 1202.68 463.056 1204.39 470.004C1205.93 476.265 1201.81 482.039 1201.26 488C1200.65 494.777 1205.52 505.331 1209 511C1214.04 509.578 1226.92 506.534 1231.49 509.846C1235.65 512.855 1236.85 517.425 1242 520C1254.14 503.097 1250.43 488.234 1251.36 469.001C1251.64 463.238 1257.41 462.515 1258.67 457.787C1260.34 451.507 1257.18 444.675 1259.18 438C1262.99 425.314 1277.24 425.882 1282.14 413C1285.62 403.872 1278.66 400.33 1271 400C1271.03 388.215 1277.73 381.461 1281.06 371C1282.65 365.998 1279.66 359.389 1280.17 354C1280.62 349.254 1283.72 340.562 1279.99 336.604C1277.29 333.743 1272.4 336.17 1269 334.951C1265.77 333.792 1263.43 330.553 1260 329.975C1246.89 327.764 1233.55 331.295 1220 327z"/>
</svg>
