<?xml version="1.0" standalone="yes"?>
<svg xmlns="http://www.w3.org/2000/svg" width="1433" height="1450">
<path style="fill:#010101; stroke:none;" d="M0 0L0 1450L1433 1450L1433 0L0 0z"/>
<path style="fill:#ffffff; stroke:none;" d="M640 1098L621 1091C618.375 1099.94 614.604 1098.33 607 1100.97C603.976 1102.02 600.459 1104.91 597.108 1103.61C593.38 1102.16 593.002 1097.25 590 1095C590 1105.7 587.643 1113.65 579.687 1121.39C576.339 1124.65 570.783 1126 568.514 1130.33C564.846 1137.32 564.706 1149.75 572 1154C571.559 1159.1 575.812 1161.03 576.363 1165.58C576.816 1169.32 573.555 1173.74 573.64 1178C573.731 1182.48 576.111 1191.13 574.577 1194.99C572.791 1199.47 565.156 1202.39 565.998 1207.91C567.193 1215.74 586.138 1213.83 591 1211.44C598.177 1207.92 605.722 1202.77 613.004 1200.03C618.206 1198.08 624.807 1199.23 629.714 1196.92C641.226 1191.5 647.995 1172.79 662.867 1183.97C674.542 1192.74 661.126 1203.92 662.941 1213C663.959 1218.09 669.154 1222.39 671.442 1227C673.66 1231.47 672.365 1236.39 673.966 1241C677.204 1250.33 688.627 1265.35 675.895 1272.44C672.62 1274.27 668.581 1274.98 665 1276L665 1272C661.237 1273.87 658.7 1275.73 658 1280C649.273 1281.42 650.103 1287.93 648.61 1295C645.488 1309.8 657.668 1326.39 673.155 1330.21C679.618 1331.81 682.621 1319.85 685.435 1316C690.902 1308.53 691.834 1299.48 697.378 1292C704.268 1282.7 717.267 1273.65 721 1263C711.687 1256.62 715.738 1248.11 716.911 1239C719.604 1218.08 731.934 1199.02 742.008 1181.02C744.179 1177.14 749.276 1175.82 750.964 1171.79C752.453 1168.23 750.678 1164.63 751.253 1161C752.182 1155.13 756.807 1147.34 759.569 1142.04C763.537 1134.43 776.292 1133.03 778.857 1123.99C780.271 1119 775.464 1117.67 772.491 1115.18C766.942 1110.52 759.637 1103.78 756.839 1097C753.811 1089.66 756.596 1080.78 753.412 1073.02C749.149 1062.62 733.01 1064 724 1064L722 1058C712.352 1069.81 697.297 1062.82 685 1060L688 1054C680.836 1051.08 666.691 1046.74 659.515 1052.02C655.789 1054.77 658.425 1061.96 656.981 1066C652.968 1077.22 644.736 1086.62 640 1098z"/>
</svg>
