<?xml version="1.0" standalone="yes"?>
<svg xmlns="http://www.w3.org/2000/svg" width="1433" height="1450">
<path style="fill:#010101; stroke:none;" d="M0 0L0 1450L1433 1450L1433 0L0 0z"/>
<path style="fill:#ffffff; stroke:none;" d="M951 642C946.282 652.72 938.107 665.043 926 666L926 671C914.3 673.011 919.883 685.304 921.651 692C922.839 696.497 918.053 700.386 918.16 705C918.328 712.272 924.572 717.59 924 725L941 726C941 737.656 944.411 741.362 950.144 751C952.14 754.356 951.956 758.49 954.514 761.561C962.828 771.543 972.501 767.704 977 757C990.103 765.021 996.363 773.814 1000.7 789C1001.88 793.145 1000.5 798.2 1002.12 802C1005 808.754 1013.01 813.633 1015.68 820.174C1017.35 824.258 1014.55 830.763 1014 835L1028 839C1036.68 835.966 1058.61 820.958 1055.68 810.105C1053.77 803.028 1043.76 802.57 1046.75 793C1048.33 787.968 1054.54 776.207 1058.51 772.858C1062.5 769.502 1070.06 772.417 1071.67 765.906C1075.18 751.692 1065.1 744.27 1058.6 734C1055.99 729.876 1057.39 724.616 1055.41 720.3C1053.84 716.873 1049.93 715.232 1048.05 711.961C1045.46 707.457 1049.6 701.512 1045.99 697.603C1043.09 694.467 1033.16 695.526 1029 695C1031.41 688.534 1031.6 681.015 1034.99 675C1036.25 672.755 1039.57 669.366 1037.76 666.603C1036.19 664.209 1030.53 664.521 1028 663.841C1021.95 662.214 1016.31 659.802 1010 659.171C1006.34 658.805 1001.51 659.925 998.214 657.972C992.798 654.763 993.522 647.018 990.686 642.213C987.778 637.285 979.267 635.186 974 634.325C962.489 632.443 960.787 644.681 951 642z"/>
</svg>
