<?xml version="1.0" standalone="yes"?>
<svg xmlns="http://www.w3.org/2000/svg" width="1433" height="1450">
<path style="fill:#010101; stroke:none;" d="M0 0L0 1450L1433 1450L1433 0L0 0z"/>
<path style="fill:#ffffff; stroke:none;" d="M501 994L458 1038.83L419 1073L418 1073L412 1069L410 1073L410 1074L413 1076L413 1077L407 1082L406 1079L401 1083L401 1084L403 1086L398 1085L399 1089L397 1090L394 1088L395 1091C388.629 1093.65 382.728 1098.55 376 1100.17C371.077 1101.36 366.041 1099.49 361 1100.76C353.87 1102.56 346.555 1106.69 339 1106.18C328.619 1105.48 312.089 1092.19 302.105 1097.22C298.67 1098.95 286.84 1113.45 286.955 1117.01C287.183 1124.08 292.838 1131.08 293.552 1138C294.269 1144.95 288.706 1151.06 290.315 1158C292.485 1167.36 299.92 1176.14 300.887 1186C301.511 1192.35 298.134 1197.85 297.568 1204C296.434 1216.31 297.413 1232.54 303.453 1243.98C306.451 1249.67 317.662 1257.52 323.17 1260.86C329.095 1264.46 335.744 1264.93 337 1273C343.634 1271.75 350.531 1272.55 357 1270.96C360.6 1270.07 365.108 1266.52 368.856 1267.13C374.538 1268.06 373.262 1278.6 381.722 1272.86C390.551 1266.87 393.084 1250.52 394.775 1241C395.293 1238.09 397.443 1235.15 397.188 1232.13C396.788 1227.41 389.424 1227.46 386.39 1229.32C383.188 1231.28 380.922 1235.49 378 1238L380 1228L349.367 1250.41L338 1257C333.392 1255.12 325.45 1253.78 323.067 1248.95C319.988 1242.7 326.441 1236.67 327.66 1231C329.175 1223.95 325.196 1217.07 326.426 1211.04C327.304 1206.74 331.605 1206.63 334.671 1204.7C341.817 1200.2 341.632 1193.75 352 1196L351 1184L371 1177.98L398 1179C398.429 1191.9 407.439 1180.64 413 1179L413 1191L410 1192L410 1193L415 1194C415.946 1201.49 419.413 1207.92 420.517 1215C421.401 1220.67 418.671 1225.96 424.468 1230.06C430.189 1234.11 438.825 1233.31 445 1236.79C450.021 1239.61 454.675 1246.23 460.09 1247.68C468.325 1249.9 492.025 1244.04 485 1233C499.488 1229.65 511.209 1219.78 525 1214.97C541.429 1209.24 564.006 1215.62 573.667 1195.91C575.71 1191.74 572.641 1188.16 572.498 1184C572.278 1177.59 575.738 1171.8 575.737 1166C575.736 1161.71 571.39 1158.49 571 1154C548.986 1136.56 586.527 1121.56 588.852 1106.99C590.742 1095.13 587.989 1072.85 572 1079C567.119 1068.68 565.141 1059.64 554 1055L563.649 1036.21L576 1027C572.46 1025.14 569.733 1021.39 565.961 1020.11C562.988 1019.1 559.954 1020.28 557 1018.93C541.836 1011.96 523.41 996.029 507 1008C505.624 1002.22 506.092 997.879 501 994z"/>
</svg>
