<?xml version="1.0" standalone="yes"?>
<svg xmlns="http://www.w3.org/2000/svg" width="1433" height="1450">
<path style="fill:#010101; stroke:none;" d="M0 0L0 1450L1433 1450L1433 0L0 0z"/>
<path style="fill:#ffffff; stroke:none;" d="M22 1246C26.8992 1256.51 39.5579 1268.05 50 1272.69C54.9771 1274.9 66.1868 1271.78 68.3966 1277.07C73.4958 1289.29 67.0447 1299.86 69.5147 1312C71.218 1320.37 78.3537 1325.07 80.1767 1333C81.6655 1339.48 82.675 1349.41 81.8526 1356C81.4268 1359.41 78.7918 1362.47 79.5718 1366C80.8613 1371.83 87.6359 1375.38 89.9807 1381C92.517 1387.08 91.0081 1392.81 92.2785 1399C93.2272 1403.62 96.9149 1407.78 99 1412L138.44 1377.14L150.155 1355L167.682 1332.91L164.643 1319L167.289 1309L163 1299L180 1298.61L194 1294.66L220 1305.15L233 1302.33L248 1304.68L263.17 1292.76L282.722 1289.81L292.185 1275.39L309.667 1267.68L306.479 1255L296.391 1221L299.981 1187L289.329 1157L292.775 1139L286 1117L268.995 1134.3L256 1142.02L244 1144.61L225.787 1159.92L212.225 1165.8L204.892 1174.68L180 1188.41L162 1192.34L125.996 1209.37L76 1226.34L61 1234.9L47 1238.22L22 1246z"/>
</svg>
