<?xml version="1.0" standalone="yes"?>
<svg xmlns="http://www.w3.org/2000/svg" width="1433" height="1450">
<path style="fill:#010101; stroke:none;" d="M0 0L0 1450L1433 1450L1433 0L0 0z"/>
<path style="fill:#ffffff; stroke:none;" d="M540 195L539 198L542 199C537.582 203.587 533.258 204.978 527 205C528.899 211.934 524.238 213.201 521.89 219.015C520.214 223.164 516.502 228.116 515.451 232.129C513.405 239.947 515.097 251.106 507.621 257.436C501.829 262.34 494.248 259.828 488 262C487.344 268.967 480.321 275.022 475.597 279.71C464.759 290.466 458.395 299.858 443 303L430 333L427 334L429 337C424.733 346.49 418.217 357.905 408 362L408 364L412 365L402.147 380.491L391 395L395 395L388.099 409L387 425C396.086 433.657 384.868 435.374 381.319 441.278C378.169 446.517 382.092 449.548 387 449L386.945 464.961L384.831 473.971L398 484L399 484C403.233 475.568 406.76 459.623 415.109 454.414C430.557 444.773 453.35 466.524 453.952 482C454.445 494.667 440.141 497.862 432.213 503.966C428.081 507.147 423.852 513.877 420.637 518.089C418.586 520.776 415.618 525.462 415.824 528.985C416.08 533.347 421.382 534.667 421.762 539.043C422.878 551.921 413.238 580.473 398 579C392.6 584.822 383.049 581.913 376.599 586.012C369.043 590.814 371.637 599.164 377.299 604.211C381.61 608.055 395.491 611.192 400.985 609.976C406.318 608.795 408.641 601.051 414 603C419.266 598.021 429.55 592.329 437 591.742C447.285 590.933 454.545 594.054 464.83 588.447C480.661 579.816 492.546 563.91 506.015 552.213C513.248 545.931 523.346 543.563 530.621 538.083C538.249 532.335 539.61 519.948 551 520C548.282 494.266 568.598 470.5 579.547 448.961C582.76 442.64 581.506 435.538 585.306 429C589.509 421.767 600.041 399.782 590.351 393.032C586.292 390.204 576.111 395.229 571 395C566.097 403.276 559.479 402.248 551 403.174C546 403.719 541.774 407.971 537 408.005C528.453 408.068 519.046 399.01 512 395C513.303 405.309 522.367 414.043 513 422L511 413L509 413L507 417L503 411L503 410L505 406L502 407L504 390L510 391C505.799 357.013 530.19 327.744 544.081 298.576C546.451 293.599 545.767 287.297 547.156 282C548.613 276.443 551.995 271.498 553.323 266C555.589 256.625 554.687 247.492 555.104 238C555.419 230.84 555.518 222.741 558.066 216C559.79 211.437 564.057 206.102 560.617 201.318C556.643 195.79 545.575 199.687 540 195z"/>
</svg>
