<?xml version="1.0" standalone="yes"?>
<svg xmlns="http://www.w3.org/2000/svg" width="1433" height="1450">
<path style="fill:#010101; stroke:none;" d="M0 0L0 1450L1433 1450L1433 0L0 0z"/>
<path style="fill:#ffffff; stroke:none;" d="M622 859C623.316 867.423 617.631 874.631 614.312 882C606.433 899.488 599.13 914.845 588.333 931C583.075 938.867 577.551 949.498 567 948C561.981 956.684 551.918 955.69 544.286 960.02C539.768 962.583 536.273 967.262 532 970.281C520.817 978.181 511.731 983.035 502 993L502 994C505.92 998.24 506.98 1001.3 507 1007C529.536 995.275 556.745 1017.91 577 1027L564.649 1035.64L555 1055C566.074 1059.64 566.683 1068.4 572 1078C581.88 1075.34 581.269 1078.28 586.022 1085.61C587.699 1088.19 590.647 1089.03 591.775 1092.1C593.001 1095.45 592.945 1100.73 596.419 1102.78C600.306 1105.06 605.333 1100.69 609 1099.64C611.457 1098.94 614.489 1099.39 616.698 1097.97C619.451 1096.2 620.94 1091.57 623 1089L640 1097C646.448 1081.49 660.489 1067.9 657.167 1050C655.891 1043.12 650.514 1030.11 646.87 1024C644.331 1019.74 639.883 1016.11 639.148 1011C637.778 1001.48 648.848 996.926 647 987L662.995 965.015L683 933C678.383 930.369 674.213 927.312 671.04 922.985C667.701 918.432 659.207 908.984 658.64 903.424C658.165 898.765 664.688 896.252 666.686 892.791C668.742 889.23 668.391 884.708 670.299 881.039C673.712 874.478 683.821 863.907 683.404 856.093C682.815 845.061 662.944 846.549 657 850C656.988 844.5 659.272 837.254 658.498 832.144C657.763 827.3 648.484 826.747 645.584 829.611C636.111 838.966 635.502 852.559 622 859z"/>
<path style="fill:#010101; stroke:none;" d="M606 923L623 921.397L636 915.498L652 918C652.206 915.37 653.319 911.808 651.933 909.379C650.179 906.305 646.031 905.37 643.839 902.621C639.689 897.417 635.512 879.461 627 881.114C612.425 883.945 613.516 897.017 610.51 908C609.077 913.236 606.287 917.464 606 923z"/>
</svg>
