<?xml version="1.0" standalone="yes"?>
<svg xmlns="http://www.w3.org/2000/svg" width="1433" height="1450">
<path style="fill:#010101; stroke:none;" d="M0 0L0 1450L1433 1450L1433 0L0 0z"/>
<path style="fill:#ffffff; stroke:none;" d="M940 489C944.062 503.073 949.054 509.748 947 525L946 525L937 492C929.97 487.875 921.836 491.995 914 492L914 495L901 496L903 499C898.251 502.232 898.111 508.633 898 514L892 518L891 518L896 502C892.13 503.402 890.254 506.447 886.946 508.758C878.821 514.434 863.97 520.874 861 531C848.181 532.392 835.005 546.669 824 553.139C795.3 570.011 761.902 589.622 745.648 620.209C741.578 627.869 740.407 637.829 737.316 646C733.242 656.765 724.304 672.543 727 684L740 685C747.438 669.426 760.717 683.522 772 684.049C775.759 684.224 778.507 680.627 782 679.692C786.255 678.553 790.598 680.217 795 678.96C803.573 676.511 804.719 667.508 814 667L813 672C821.044 674.176 825.831 678.54 827 687L835 684L837 697L841 706L854 704C852.036 696.779 859.307 683.86 868.556 685.73C872.939 686.616 872.695 693.271 877 695C876.114 685.585 885.609 673.701 894 670L899 673C901.47 665.253 918.571 669.346 925 670L925 665C938.077 664.73 946.13 652.608 951 641C959.364 644.647 958.05 637.575 963.418 634.028C965.981 632.334 970.079 633 973 633L973 632C963.457 626.557 967.098 621.092 969 612C964.189 610.198 942.226 608.518 954.218 598.654C957.259 596.152 966.114 597.908 966.248 592.995C966.435 586.206 952.997 588.844 953.508 580.003C953.739 576.031 958.354 573.332 961 570.915C971.979 560.885 986.318 562.347 1000 565L1012 544L1014 549L1016 549C1021.14 539.137 1023.22 524.966 1009 523C1009.04 518.019 1013.2 509.632 1011.38 505.279C1009.04 499.691 1000.43 499.638 998.611 492C996.855 484.616 1001.58 469.18 989.96 466.072C984.702 464.666 981.931 471.978 977.957 474.096C965.75 480.6 951.878 482.421 940 489z"/>
</svg>
