<?xml version="1.0" standalone="yes"?>
<svg xmlns="http://www.w3.org/2000/svg" width="1433" height="1450">
<path style="fill:#010101; stroke:none;" d="M0 0L0 1450L1433 1450L1433 0L0 0z"/>
<path style="fill:#ffffff; stroke:none;" d="M767 994C763.618 1001.46 751.708 1008.25 750.426 1016.18C748.779 1026.38 764.818 1027.94 764.929 1037.98C765.002 1044.61 755.182 1042.89 754.824 1048.15C754.455 1053.57 759.378 1059.25 759.529 1064.99C759.635 1069.04 755.592 1071.07 755.191 1075.01C754.558 1081.25 757.562 1086.44 756 1093C763.852 1090.09 765.162 1083.34 769.723 1077.21C777.279 1067.06 780.859 1058.82 784.966 1047C786.591 1042.33 790.151 1038.06 790.567 1033C790.848 1029.59 789.064 1026.42 789.087 1023C789.122 1017.94 797.02 1013.77 795.338 1009.43C792.615 1002.39 773.516 996.713 767 994z"/>
</svg>
