<?xml version="1.0" standalone="yes"?>
<svg xmlns="http://www.w3.org/2000/svg" width="1433" height="1450">
<path style="fill:#010101; stroke:none;" d="M0 0L0 1450L1433 1450L1433 0L0 0z"/>
<path style="fill:#ffffff; stroke:none;" d="M1019 544L1014 550L1012 545C1006.83 548.627 1002.67 559.885 1001 566C987.939 563.467 971.637 561.248 961 570.98C958.46 573.304 953.854 576.132 953.931 580.011C954.096 588.326 967.235 585.857 966.914 593.024C966.631 599.326 957.994 596.217 954.395 599.009C942.812 607.996 965.498 610.071 970 611L967.448 626.776L989.697 639.966L996.994 656.397L1006 658.015L1031.68 663.223L1037.21 647.329L1055.49 637.146L1067.64 617L1081 599C1075.08 592.828 1084.13 587.035 1082.64 580.174C1079.65 566.386 1057.52 565.901 1048 569L1046 565L1044 568L1030.95 559.934L1019 544z"/>
</svg>
