<?xml version="1.0" standalone="yes"?>
<svg xmlns="http://www.w3.org/2000/svg" width="1433" height="1450">
<path style="fill:#010101; stroke:none;" d="M0 0L0 1450L1433 1450L1433 0L0 0z"/>
<path style="fill:#ffffff; stroke:none;" d="M1195 31C1193.11 43.4651 1182.35 53.3041 1177.15 64.0895C1167.24 84.6742 1160.47 106.329 1148.86 126C1144.8 132.886 1131.87 155.465 1140 161C1132.52 187.362 1134.83 215.399 1133.62 243C1133.29 250.581 1125.5 266.506 1135 270C1131.39 280.664 1124.38 291.162 1121.83 302C1120.78 306.474 1123.78 310.597 1122.62 315C1120.86 321.747 1115.09 327.375 1112.62 334C1110.24 340.401 1110.81 348.23 1110.17 355C1109.13 365.905 1114.46 385.697 1129 379C1131.24 386.397 1144.62 397.816 1153 395.232C1161.35 392.655 1168.32 382.403 1172 375C1163.22 369.562 1168.81 366.573 1169.73 359C1170.48 352.837 1167.12 345.612 1177 348C1182.04 339.586 1190.25 344.82 1197.82 342.682C1203.39 341.109 1216.13 331.135 1219 326L1259 329.461L1279 334C1276.55 321.336 1283.37 318.8 1286.65 308C1287.94 303.749 1286.38 299.395 1287 295C1303.12 300.153 1321.95 308.418 1339 306.15C1346.92 305.096 1350.15 298.002 1356.04 293.966C1364.18 288.383 1376.72 286.492 1383.61 279.61C1389.04 274.188 1391.33 264.781 1394.65 258.04C1398.82 249.575 1411.62 245.964 1408.27 234.015C1406.71 228.43 1400.89 226.349 1397.7 221.911C1385.68 205.144 1378.44 189.789 1357 183.638C1348.65 181.242 1342.14 187.086 1333 183.388C1326.11 180.599 1316.53 178.031 1311.21 172.699C1302.31 163.766 1305.99 148.672 1290 158C1290 152.651 1288.97 146.05 1291.01 141C1293.2 135.565 1298.11 132.234 1298.61 126C1299.06 120.398 1300.21 111.414 1299.31 106C1298.44 100.693 1294.79 94.4381 1295.5 89C1296.13 84.1718 1303.27 81.2737 1301.84 76.105C1299.31 66.9427 1280.24 65.7812 1273 64.3348C1266.02 62.9398 1257.47 64.1042 1251.14 60.4421C1246.35 57.6652 1244.78 51.8997 1239 49.9043C1233.92 48.1497 1229.09 51.6201 1224.01 49.1459C1214.08 44.303 1205.88 34.6677 1195 31z"/>
</svg>
