<?xml version="1.0" standalone="yes"?>
<svg xmlns="http://www.w3.org/2000/svg" width="1433" height="1450">
<path style="fill:#010101; stroke:none;" d="M0 0L0 1450L1433 1450L1433 0L0 0z"/>
<path style="fill:#ffffff; stroke:none;" d="M1109 342C1101.89 346.952 1098.49 356.822 1093.95 364C1085.49 377.349 1075.98 389.981 1065.73 402C1061.8 406.606 1050.56 415.445 1051.28 422C1052.3 431.208 1067.96 439.601 1075 444C1083.66 426.88 1099.68 434.914 1114.17 441.358C1117.91 443.024 1120.86 440.71 1124.42 441.499C1129.97 442.729 1134.89 448.155 1140 450.559C1146.69 453.703 1151.81 453.284 1157.72 458.861C1165.26 465.974 1158.61 476.467 1159.09 485C1159.34 489.34 1159.5 495.078 1161.46 499C1164.9 505.897 1170.95 509.539 1171.24 518C1171.47 525.025 1167.27 530.246 1164 536C1167.4 538.727 1169.91 542.915 1174.04 544.521C1185.73 549.065 1202.16 545.587 1200 564C1217.65 566.231 1220.58 556.463 1232.21 546.637C1235.72 543.675 1243.28 542.634 1244.68 537.787C1247 529.791 1237.7 512.03 1229.78 509.812C1223.91 508.168 1214.53 509.751 1209 512C1205.29 504.543 1201.95 497.733 1200.6 489.424C1199.75 484.169 1203.92 477.614 1203.82 472.001C1203.66 463.37 1190.24 454.044 1183 451C1191.19 436.359 1183.28 427.776 1179.27 414C1176.15 403.278 1182.31 396.985 1168.74 391.589C1162.26 389.013 1157.69 394.808 1152 396.088C1144.63 397.745 1132.19 386.873 1129 381C1102.96 383.156 1114.78 355.763 1109 342z"/>
</svg>
