<?xml version="1.0" standalone="yes"?>
<svg xmlns="http://www.w3.org/2000/svg" width="1433" height="1450">
<path style="fill:#010101; stroke:none;" d="M0 0L0 1450L1433 1450L1433 0L0 0z"/>
<path style="fill:#ffffff; stroke:none;" d="M782 772C778.337 784.778 784.662 796.899 786.662 809C788.222 818.437 782.567 826.132 792 833L792 834L788 840C790.911 840.86 798.223 840.015 799.522 843.318C800.735 846.4 797.157 849.264 800.337 851.925C808.963 859.145 820.178 851.562 821 868C826.581 868.986 830.143 867.821 835 865L832 859L827 860C831.398 850.03 857.678 846.117 846 835L846 834C851.293 831.084 864.417 827.714 855.697 819.637C853.168 817.295 848.898 816.666 847.042 813.61C844.875 810.04 845.772 803.357 844 799L831.014 811.231L814 799.225L801.3 793.682L782 772z"/>
</svg>
