<?xml version="1.0" standalone="yes"?>
<svg xmlns="http://www.w3.org/2000/svg" width="1272" height="1450">
<path style="fill:#010101; stroke:none;" d="M0 0L0 1450L1272 1450L1272 0L0 0z"/>
<path style="fill:#ffffff; stroke:none;" d="M391 887C388.34 891.589 383.171 894.958 381.558 900.015C379.981 904.957 381.93 914.555 377.682 917.925C370.755 923.422 358.649 916.808 353.738 922.434C351.004 925.567 351.164 931.149 350.076 935C347.838 942.925 341.134 959.643 333.79 963.973C325.206 969.035 312.153 965.19 303 965C305.424 973.179 315.522 970.291 317.092 977.105C319.359 986.944 305.374 984.766 303.418 991.059C301.627 996.821 310.026 1004.53 311.438 1010C312.974 1015.95 308.145 1022.81 308 1029L327 1027.89L352 1045C355.742 1038.74 359.464 1039.87 366 1040C367.565 1052.12 380.384 1060.1 392.91 1058.01C396.103 1057.47 398.139 1053.81 401.015 1052.43C412.585 1046.89 424.519 1044.39 430.242 1031C432.698 1025.25 425.396 1019.77 423.124 1015C419.929 1008.29 416.798 996.416 416.224 989C415.817 983.753 418.315 978.244 416.106 973.109C413.822 967.796 405.306 970.284 404.495 963.981C404.005 960.171 406.892 957.048 406.029 953C403.781 942.451 397.097 931.246 399.322 920.001C400.973 911.653 411.367 910.452 410.951 901.001C410.557 892.053 398.267 888.987 391 887z"/>
</svg>
