<?xml version="1.0" standalone="yes"?>
<svg xmlns="http://www.w3.org/2000/svg" width="1272" height="1450">
<path style="fill:#010101; stroke:none;" d="M0 0L0 1450L1272 1450L1272 0L0 0z"/>
<path style="fill:#ffffff; stroke:none;" d="M94 698L95 698L104 679L111 679C111.366 667.824 122.468 668.249 131 669.166C139.175 670.044 148.104 674.833 156 674.722C169.413 674.533 183.579 663.909 196 660.389C202.74 658.479 209.56 661.42 217 659C220.386 666.629 231.437 672.792 239.7 667.972C243.921 665.51 246.833 659.66 250 656C252.006 664.752 253.696 669.84 263 672L267 666L268 666C272.082 670.069 287.971 680.091 293.995 679.211C300.119 678.316 299.231 672.869 303.419 670.024C306.941 667.632 312.114 668.931 315.961 667.4C319.706 665.91 321.749 661.932 325.015 659.702C329.619 656.558 338.854 656.511 341.958 651.582C343.412 649.271 342.07 646.568 342.768 644.104C344.197 639.062 348.412 637.138 347.748 631C347.287 626.742 344.286 623.448 345.148 619C346.307 613.024 349.372 604.308 355.015 601.318C358.408 599.521 363.296 601.024 365.772 597.682C369.855 592.171 365.901 584.747 369.179 579.214C371.626 575.084 378.003 574.107 382 572L379 564C388.869 564.082 394.172 561.462 403 557L378 516C371.264 518.579 365.191 513.67 366.878 506C368.32 499.447 374.372 495.187 378.137 490C379.677 487.879 381.485 485.103 380.377 482.379C377.722 475.846 368.182 473.984 366.315 466C364.795 459.503 368.884 453.288 369.636 447C370.706 438.048 368.592 428.145 369.04 419C369.269 414.32 372.338 409.688 371.613 405.039C370.749 399.505 364.712 397.609 361.514 393.7C357.87 389.247 356.978 379.599 357.274 374C357.659 366.714 362.916 365.264 365.397 359.726C369.505 350.56 369.937 337.995 372 328C359.024 322.569 347.187 317.914 334 313.353C330.049 311.986 325.854 315.105 322.3 312.498C313.573 306.095 321.825 299.306 318.856 291.17C315.621 282.308 306.81 278.141 305 269C295.588 269.484 290.881 258.066 280 260.677C266.234 263.979 253.499 272.542 241 278.752C235.122 281.673 227.753 286.044 221 285.153C213.888 284.214 206.325 282.67 200 279.201C194.615 276.247 191.312 271.751 185 270.734C179.097 269.782 171.323 269.175 167.825 275.109C158.898 290.253 170.369 310.235 177.247 324C182.286 334.085 187.004 344.93 177.606 354.621C167.719 364.818 151.078 361.746 139 366.88C133.042 369.412 127.462 375.946 121 376.729C115.354 377.414 110.715 372.647 105.004 373.728C97.9312 375.066 95.9862 384.114 88.9961 384.809C77.6283 385.939 63.8256 368.653 53.6042 380.761C48.5635 386.732 53.7299 404.352 52.4429 412C51.8706 415.401 50.5127 420.885 47.581 423.012C40.755 427.962 30.3415 427.283 31.3025 439C32.1694 449.57 42.3788 451.13 48.8295 457.213C57.5326 465.42 61.3255 477.238 69.3256 485.895C75.2516 492.308 82.3466 493.176 83.9846 503C85.0963 509.668 87.2093 519.622 84.6466 526C81.2843 534.368 72.0781 539.828 69.6451 548.015C67.5857 554.945 64.2848 564.743 65.4182 572C66.3793 578.154 71.6438 583.604 71.0409 590C69.9736 601.322 65.561 614.104 62.2785 625C60.8878 629.617 57.3745 635.086 57.7438 640C59.5272 663.726 85.3484 677.22 94 698z"/>
</svg>
