<?xml version="1.0" standalone="yes"?>
<svg xmlns="http://www.w3.org/2000/svg" width="1272" height="1450">
<path style="fill:#010101; stroke:none;" d="M0 0L0 1450L1272 1450L1272 0L0 0z"/>
<path style="fill:#ffffff; stroke:none;" d="M950 372C954.204 372 959.947 370.995 963.896 372.603C968.029 374.286 968.726 379.439 972.379 381.683C978.417 385.392 988.199 384.37 995 385.819C998.135 386.486 1001.76 388.604 1005 388.107C1012.68 386.928 1012.24 374.98 1019.58 373.755C1023.57 373.089 1027.52 378.741 1031.96 378.833C1036.38 378.925 1038.23 374.953 1041.17 372.39C1048.1 366.359 1053.63 364.902 1056 355L1048 345C1062.12 341.883 1047.28 334.089 1048.1 326C1048.57 321.42 1051.68 317.739 1051.96 313C1052.43 304.759 1048.98 300.498 1047.14 293C1045.77 287.404 1048.13 282.332 1047.19 277C1046.19 271.325 1042.15 265.394 1040 260C1035.2 260.931 1024.23 259.683 1020.63 262.042C1013.48 266.736 1014.06 278.632 1004.99 281.852C992.678 286.217 970.804 281.44 963.032 295.289C959.581 301.438 962.736 317.437 961.816 325C959.911 340.653 953.208 356.46 950 372z"/>
</svg>
