<?xml version="1.0" standalone="yes"?>
<svg xmlns="http://www.w3.org/2000/svg" width="1272" height="1450">
<path style="fill:#010101; stroke:none;" d="M0 0L0 1450L1272 1450L1272 0L0 0z"/>
<path style="fill:#ffffff; stroke:none;" d="M134 840C132.284 843.224 129.734 846.466 128.738 850C125.991 859.754 136.853 864.235 139.69 872C141.253 876.279 138.918 881.432 139.892 886C142.656 898.963 149.82 911.886 157.14 922.621C160.83 928.033 169.57 928.478 171.953 935.043C175.652 945.234 164.911 960.309 160.824 969C158.09 974.813 160.306 980.099 159.193 986C158.465 989.86 155.29 993.044 155.028 997C154.725 1001.56 158.815 1006.28 160.988 1010C166.308 1019.11 167.419 1030.59 176.039 1037.47C180.972 1041.4 188.155 1041.6 192.471 1046.22C200.248 1054.56 205.367 1066.5 211.667 1076C217.083 1084.16 221.128 1101.34 233 1099.66C247.648 1097.58 257.554 1089.67 269 1081.43C273.009 1078.54 280.319 1075.39 282.397 1070.68C284.048 1066.93 282.614 1061.98 283.133 1058C283.748 1053.29 287.476 1045.16 289.938 1041.02C293.896 1034.37 303.389 1036.45 306.412 1029C308.292 1024.36 312.164 1014.88 310.93 1010C309.462 1004.2 302.433 998.274 302.569 992.286C302.642 989.082 329.355 975.089 310.004 973.105C308.023 972.902 305.988 973.001 304 973L302 964C311.178 964.19 325.956 968.67 334.391 962.973C341.029 958.49 346.962 943.487 349.076 936C350.309 931.635 350.058 924.98 353.514 921.657C358.91 916.467 369.01 922.355 375.852 918.291C381.456 914.962 378.574 904.476 381.317 899.015C383.835 894.001 388.627 891.758 390 886C384.279 884.135 373.962 884.4 369.39 881.883C365.351 879.659 365.591 873.384 361.61 871.067C357.706 868.795 352.306 872.26 348.093 871.111C339.136 868.669 337.615 855.165 339 848C326.661 843.345 312.824 841.337 302.603 851.965C294.576 860.313 310.92 871.822 305.972 879.61C301.885 886.044 291.921 885.471 286.228 889.024C281.463 891.997 282.739 900.163 277.61 902.802C273.836 904.744 269.05 901.442 265 902.897C257.02 905.765 246.282 913.198 239 918L236 910C222.06 917.893 219.627 914.986 208.572 905.318C205.101 902.282 200.131 903.868 197.363 899.852C190.858 890.413 185.173 876.73 181.065 866C179.358 861.543 178.582 854.059 175.157 850.604C172.307 847.731 167.507 850.21 164 849.312C154.008 846.752 144.343 842.393 134 840z"/>
</svg>
