<?xml version="1.0" standalone="yes"?>
<svg xmlns="http://www.w3.org/2000/svg" width="1272" height="1450">
<path style="fill:#010101; stroke:none;" d="M0 0L0 1450L1272 1450L1272 0L0 0z"/>
<path style="fill:#ffffff; stroke:none;" d="M764 674L773.545 695L770 705L784 710C785.407 706.331 786.23 701.103 789.938 698.956C793.784 696.73 800.812 702.164 801.254 706.043C802 712.596 797.271 717.871 796.561 724C795.417 733.868 796.421 745.042 793.682 754.895C792.322 759.789 785.893 760.525 782.529 763.637C776.92 768.826 772.214 778.124 769 785L788 796L784 808L794 813C791.085 822.112 787.918 825.287 779 829L790.006 843.109L801 866C815.052 863.495 823.431 853.973 835 846.681C841.821 842.382 851.119 838.208 856.2 831.816C861.715 824.877 859.06 816.37 862.313 809.214C864.107 805.269 869.517 805.324 872.363 802.49C875.281 799.584 876.126 795.24 879.213 792.39C886.481 785.683 896.25 788.624 905 789C905 795.254 902.438 808.783 907.318 813.427C912.581 818.436 919.899 814.417 926 815.508C931.398 816.474 935.195 821.56 941 821.552C952.076 821.537 972.798 802.331 971.771 791.004C971.192 784.616 964.465 782.601 960 779.185C952.191 773.211 945.476 775.762 937.09 772.397C933.378 770.908 931.656 766.84 927.91 765.249C923.643 763.437 918.899 763.301 915.518 759.772C908.311 752.252 905.478 737.192 894.999 734.378C888.772 732.706 882.092 732.419 876 730.401C872.318 729.182 868.833 725.792 865 725.312C860.449 724.742 855.86 732.963 852.317 726.872C846.366 716.641 852.263 711.453 856.683 703.787C858.557 700.537 857.502 695.406 861.279 693.361C865.299 691.185 868.968 695.301 873 694.961C886.577 693.816 894.901 681.009 895 669C902.936 669 909.684 669.862 915 663C905.697 659.086 906.547 654.621 909 646C903.176 645.811 895.412 641.064 899.032 634.089C901.027 630.248 905.574 628.458 907.914 624.829C913.969 615.44 911.078 604.263 901 600C903.067 594.671 905.531 590.528 903 585C894.03 588.023 873.037 590.966 864 587.186C858.025 584.687 850.772 581.438 845 578.435C842.019 576.884 838.679 573.08 835.043 574.831C823.26 580.506 824.356 601.909 820.161 612C817.672 617.984 813.523 622.301 812.479 629C811.813 633.277 814.67 638.861 812.802 642.787C810.837 646.919 802.885 649.737 799 651.742C786.556 658.164 776.703 668.71 764 674z"/>
</svg>
