<?xml version="1.0" standalone="yes"?>
<svg xmlns="http://www.w3.org/2000/svg" width="1272" height="1450">
<path style="fill:#010101; stroke:none;" d="M0 0L0 1450L1272 1450L1272 0L0 0z"/>
<path style="fill:#ffffff; stroke:none;" d="M505 568C506.569 575.605 511.719 587.358 509.983 595C508.465 601.681 502.283 605.441 502.275 613C502.271 618.117 508.995 623.647 507.096 628.424C501.705 641.985 486.836 645.007 477.39 653.637C473.554 657.143 472.99 663.084 468.787 666.272C464.545 669.491 457.465 668.13 454.009 672.43C449.983 677.439 452.1 685.029 447.625 691C440.488 700.522 431.396 706.093 427.902 718C424.958 728.032 432.59 730.061 434.682 738.039C435.715 741.98 434.509 746.077 435.995 750C438.647 757.004 444.276 762.66 446.363 770C448.411 777.208 447.34 784.997 448.873 792C449.81 796.284 452.534 799.472 453 804C465.019 806.645 467.389 825.385 473 835C480.22 833.053 478.074 826.909 483.228 822.994C488.854 818.72 497.535 818.626 502.582 813.582C506.562 809.603 508.251 799.458 515.576 799.455C520.432 799.453 526.621 806.819 531 809C535.74 801.389 539.602 796.272 540 787C545.468 788.684 564.424 786.022 567.566 780.656C573.283 770.893 570.513 761.612 580.964 754.049C584.365 751.589 588.143 744.715 593 745.752C600.127 747.273 605.423 757.735 611 762L614.089 726L637.384 710.867L644.281 698L640.934 679L650.36 653.001L660.721 635.015L648.113 613.961L648.617 600L643.15 585.133L630 573C617.721 575.541 607.242 582.795 597 589.699C592.27 592.888 588.981 598.922 583 599.852C574.163 601.226 563.239 596.668 559.564 587.985C557.529 583.176 558.318 574.191 552.61 571.607C546.593 568.884 541.777 576.582 536 576.577C526.115 576.568 513.984 571.74 505 568z"/>
</svg>
