<?xml version="1.0" standalone="yes"?>
<svg xmlns="http://www.w3.org/2000/svg" width="1272" height="1450">
<path style="fill:#010101; stroke:none;" d="M0 0L0 1450L1272 1450L1272 0L0 0z"/>
<path style="fill:#ffffff; stroke:none;" d="M900 438C895.414 455.725 896.256 473.807 903 490C908.296 489.056 912.726 485.19 918 484.56C922.026 484.079 925.971 486.002 930 485.701C934.471 485.366 938.401 483.135 943 483.015C947.512 482.897 953.293 484.004 956.397 479.852C962.247 472.026 956.712 453.015 956 444C961.788 444 968.32 442.875 974 443.56C984.172 444.787 1002.08 452.172 999.496 433C999.083 429.93 997.939 426.937 997 424L1004 423L994.302 407L997 387C989.684 385.641 980.954 385.994 974.043 383.11C965.113 379.384 962.009 367.211 949.04 374.028C943.13 377.134 940.819 385.162 935.907 389.536C931.185 393.74 921.779 395.012 919.483 401.044C918.183 404.46 916.954 409.335 917.314 413C918.005 420.042 926.207 437.494 911.96 439.258C908.125 439.732 903.8 438.48 900 438z"/>
</svg>
