<?xml version="1.0" standalone="yes"?>
<svg xmlns="http://www.w3.org/2000/svg" width="1272" height="1450">
<path style="fill:#010101; stroke:none;" d="M0 0L0 1450L1272 1450L1272 0L0 0z"/>
<path style="fill:#ffffff; stroke:none;" d="M752 444C750.204 451.45 745.742 453.384 739 456C739.663 459.439 742.793 463.168 742.648 466.576C742.47 470.751 737.22 475.597 735.054 479C728.06 489.987 721.224 500.794 714.13 511.375C710.317 517.063 704.073 529.726 695.105 527.663C691.512 526.836 690.888 522.984 688.363 520.854C685.241 518.221 680.767 518.905 678.652 514.867C669.047 496.527 686.476 475.903 673.152 459.02C667.679 452.086 653.469 458.004 645 458C633.776 457.995 632.032 447.822 620.058 451.72C614.264 453.606 612.032 466.126 607.675 470.907C600.552 478.723 589.483 481.421 580 485L584.914 523L598.312 544L605 569C597.722 570.266 597.533 566.062 591.7 563.604C588.021 562.054 584.976 564.608 581.424 564.474C574.14 564.198 569.724 557.957 562 563.228C553.21 569.228 556.278 572.507 558.699 581C562.243 593.428 570.635 602.284 585 598.682C590.395 597.33 593.566 591.688 598 588.699C608.117 581.879 618.162 575.359 630 572C635.482 584.325 647.854 580.058 657.999 584.514C662.377 586.437 664.77 590.858 669 593C671.803 587.723 681.896 579.347 688 578.467C695.337 577.409 702.42 585.628 707 576C723.368 580.553 726.83 561.233 735.488 551.335C737.449 549.092 738.219 542.406 742.109 542.921C750.257 544.001 754.791 556.625 763 558.682C773.883 561.41 789.055 555.736 800 554.553C803.469 554.178 807.151 550.503 810.57 552.913C819.958 559.53 809.209 579.203 818.483 586.382C827.447 593.32 829.856 573.024 837.424 573.742C846.4 574.594 855.731 583.954 864 586.838C866.948 587.866 869.996 586.393 873 586.463C883.523 586.707 893.839 587.431 904 584L902 600L912 610C916.287 609.116 920.896 608.41 925 606.871C932.615 604.016 938.317 594.01 934.417 586C927.823 572.457 912.014 566.444 906 552C913.899 550.128 922.699 547.2 923 538L917 539C917 529.32 916.011 523.191 926 519L926 518L913 514C910.23 518.965 907.662 522.51 902 524C902 508.911 909.107 491.085 896.211 478.514C890.701 473.142 883.27 479.508 877 478.75C869.592 477.855 848.843 471.541 848.927 487.039C848.96 492.982 853.863 500.49 856 506C836.248 509.898 827.544 494.187 821 479C817.442 480.022 813.788 482.38 810 481.435C805.185 480.235 800.202 474.876 795 475.941C783.582 478.277 766.718 511.085 753.603 491.91C744.405 478.46 772.39 449.351 752 444z"/>
</svg>
