<?xml version="1.0" standalone="yes"?>
<svg xmlns="http://www.w3.org/2000/svg" width="1272" height="1450">
<path style="fill:#010101; stroke:none;" d="M0 0L0 1450L1272 1450L1272 0L0 0z"/>
<path style="fill:#ffffff; stroke:none;" d="M943 891L914 867C910.624 873.614 903.854 878.241 900.938 885C896.465 895.368 897.607 908.827 891.005 918.96C885.911 926.779 870.635 932.017 870.217 943C870.096 946.166 872.905 948.41 874.258 951C875.638 953.64 874.524 956.969 876.066 959.363C878.256 962.761 883.855 963.952 886.852 966.681C890.581 970.077 889.181 974.85 891.988 978.487C898.843 987.367 912.758 978.246 919 974C922.213 985.152 944.76 996.39 927 1007C928.585 1014.68 931.292 1022.06 930.961 1030C930.858 1032.46 929.281 1036.99 931.617 1038.81C937.466 1043.36 941.409 1030.98 945.185 1029.12C948.23 1027.61 952.652 1030.19 954.781 1026.68C956.82 1023.32 953.241 1019.61 954.943 1016.27C956.558 1013.11 960.294 1015 962.882 1013.72C966.712 1011.82 966.813 1006.68 971.105 1005.28C977.517 1003.18 987.068 1009.48 991.722 1006.21C996.03 1003.19 996.498 995.396 999.353 991.108C1001.89 987.298 1005.98 986.541 1010 985L1003 978L999 986C992.404 981.954 994.101 965.478 992 958L998 954L999 954C1007.42 962.863 1013.92 955.197 1020 948L1015 946L1017 941C1025.13 943.278 1037.05 939.861 1030 930C1037.81 928.145 1040.61 924.281 1046 919L1046 918L1038 917L1053 911L1053 910L1051 904C1058.28 906.588 1061.16 903.749 1064 897L1067 901C1074.99 895.539 1062.24 874.314 1055 876C1056.66 882.278 1057 887.022 1050 890.062C1043.28 892.983 1034.99 890.151 1028 893.278C1015.49 898.874 1005.22 913.743 991 915.744C983.961 916.735 980.753 910.918 979.755 905C977.812 893.489 981.939 885.467 986 875C981.015 872.087 973.531 864.687 968 863.979C964.625 863.547 960.897 866.345 958 867.742C945.755 873.646 943 876.997 943 891M1070 922L1044 927C1045.35 931.685 1046.9 935.17 1052 936L1052 932L1069 931C1076.04 917.34 1081.55 925.733 1093 927L1092 923C1095.78 921.398 1098.27 920.22 1099 916L1090 918C1087.01 907.906 1072.09 914.67 1070 922M995 1012C990.201 1013.26 988 1015.5 986 1020C991.75 1022.63 995.291 1019.57 1001 1018.44C1010.74 1016.52 1019.28 1016.21 1023 1005C1013.13 1003.46 1003.39 1016.82 995 1012z"/>
</svg>
