<?xml version="1.0" standalone="yes"?>
<svg xmlns="http://www.w3.org/2000/svg" width="1272" height="1450">
<path style="fill:#010101; stroke:none;" d="M0 0L0 1450L1272 1450L1272 0L0 0z"/>
<path style="fill:#ffffff; stroke:none;" d="M911 645C905.344 654.739 907.928 658.695 917 664C909.165 667.897 904.931 670 896 670C895.485 682.003 885.913 693.33 873.286 695.616C869.433 696.313 866.19 692.214 862.228 693.786C858.297 695.346 859.269 700.668 857.566 703.787C853.032 712.094 848.678 714.908 852.558 725.89C855.284 733.606 860.869 723.768 865.286 724.732C869.017 725.545 872.235 728.622 876 729.699C883.414 731.82 894.295 730.913 900.606 735.854C908.142 741.754 908.619 755.129 917.326 760.861C920.789 763.141 925.346 763.037 928.91 765.139C931.982 766.951 933.643 770.649 937.174 771.686C949.314 775.251 960.783 775.39 970.436 785.637C978.187 793.866 962.369 806.633 973.144 814.142C984.388 821.977 994.571 812.749 1005 811.148C1009.7 810.427 1017.61 812.909 1021.41 809.397C1026.65 804.562 1018.24 796.205 1017.36 791C1016.58 786.315 1020.62 782.603 1023 779C1003.77 764.743 1021.09 749.724 1029.87 735C1035.77 725.111 1037.46 714.314 1033 704C1031.62 700.812 1030.31 696.899 1027.61 694.564C1024.86 692.191 1020.4 691.67 1017 690.71C1011.29 689.1 1005.88 689 1000 689C1001.67 683.123 1002.61 675.304 1006.09 670.213C1009.23 665.614 1016.34 664.599 1016.42 658C1016.52 649.581 1004.76 632.62 994.564 639.117C990.679 641.592 986.322 656.412 985 661L971.907 652.483L943 650C943 642.211 946.909 631.259 945.265 624.001C943.218 614.959 935.36 616.506 930 621L925 608C921.606 608.658 916.318 608.817 913.603 611.14C910.567 613.736 911.049 620.445 908.914 623.961C906.636 627.713 902.176 629.535 900.028 633.289C895.052 641.983 904.59 644.995 911 645z"/>
</svg>
