<?xml version="1.0" standalone="yes"?>
<svg xmlns="http://www.w3.org/2000/svg" width="1272" height="1450">
<path style="fill:#010101; stroke:none;" d="M0 0L0 1450L1272 1450L1272 0L0 0z"/>
<path style="fill:#ffffff; stroke:none;" d="M742 663C734.883 665.139 732.144 673.103 741.005 675.177C762.37 680.178 772.575 664.963 789 656.262C795.172 652.993 808.092 649.404 811.933 643.363C814.407 639.471 810.935 631.741 812.163 627C813.543 621.67 817.107 617.938 819.161 613C822.341 605.351 823.287 596.02 826 588C812.712 589.249 813.232 573.708 813 564C812.917 560.511 813.134 554.14 808.856 552.876C805.752 551.959 802.945 554.72 800 555.205C790.405 556.785 772.301 562.822 763 559.397C756.918 557.156 747.937 541.929 741.303 543.752C738.52 544.516 737.005 550.311 734.882 552.335C728.671 558.254 728.258 565.35 723.301 571.816C718.975 577.459 713.262 579.535 711.005 587C709.358 592.448 712.297 597.454 709.442 602.957C706.689 608.263 697.839 619.647 699.447 626C702.043 636.257 713.267 631.688 719.995 634.8C726.214 637.677 726.4 642.927 730.174 647.956C734.841 654.177 740.236 654.599 742 663z"/>
</svg>
