<?xml version="1.0" standalone="yes"?>
<svg xmlns="http://www.w3.org/2000/svg" width="1272" height="1450">
<path style="fill:#010101; stroke:none;" d="M0 0L0 1450L1272 1450L1272 0L0 0z"/>
<path style="fill:#ffffff; stroke:none;" d="M322 1089C322.708 1094.6 322.009 1107.02 325.938 1111.26C330.238 1115.89 339.787 1109.46 345 1109.89C350.644 1110.36 354.843 1113.98 361 1114L357.828 1125L359.072 1136.91L349.894 1147L346.987 1157.83L341.306 1167L347.726 1178L354 1200C358.367 1198.48 360.069 1194.24 364.104 1192.6C370.866 1189.87 380.198 1196.52 381 1186C360.657 1183.03 378.435 1169.58 383.826 1162.42C386.11 1159.38 385.691 1155.18 388.279 1152.02C392.277 1147.13 398.741 1146.5 402.686 1141.89C405.616 1138.47 404.806 1133.85 407.164 1130.28C409.467 1126.79 414.444 1127.39 416.697 1123.77C420.676 1117.39 420.179 1108.81 422.89 1102C425.481 1095.5 432.346 1092.24 430.643 1084C429.373 1077.86 421.358 1071.97 417.627 1067C414.664 1063.06 411.54 1055.69 407.39 1053.04C401.031 1048.98 396.723 1058.92 390.996 1058.37C383.828 1057.69 373.627 1056.32 368.514 1050.61C366.318 1048.16 366.712 1044.1 364.262 1041.99C361.951 1040 357.127 1039.59 354.789 1041.61C338.116 1056.03 350.171 1089 322 1089z"/>
</svg>
