<?xml version="1.0" standalone="yes"?>
<svg xmlns="http://www.w3.org/2000/svg" width="1272" height="1450">
<path style="fill:#010101; stroke:none;" d="M0 0L0 1450L1272 1450L1272 0L0 0z"/>
<path style="fill:#ffffff; stroke:none;" d="M497 562C492.415 566.223 485.542 574.066 479 574.769C473.947 575.313 470.252 571.19 465.015 573.382C458.716 576.018 460.383 583.61 454.867 586.11C449.117 588.716 436.714 585.799 432.603 589.746C424.68 597.353 440.159 608.305 434.145 616.787C430.502 621.925 423.048 623.047 418.394 626.966C415.384 629.5 415.196 633.839 412.351 636.397C410.449 638.106 407.384 638.259 405.204 636.971C399.58 633.65 403.865 622.595 402.803 617C401.638 610.859 401.333 603.734 398.725 598C394.778 589.322 386.912 581.416 382 573C378.267 574.44 372.225 575.577 370.028 579.225C366.786 584.607 370.056 592.034 366.467 597.852C362.67 604.007 353.828 599.144 350.105 607.04C348.162 611.162 345.137 617.36 345.575 622C345.98 626.29 349.046 629.473 348.513 633.999C348.003 638.335 344.199 640.364 343.407 644.209C342.899 646.67 344.302 649.279 342.933 651.606C339.833 656.875 329.925 657.119 325.039 660.086C321.567 662.195 319.606 666.101 315.985 667.973C312.212 669.924 307.008 668.445 303.51 671.013C299.18 674.193 299.985 679.981 292.999 679.937C286.248 679.894 273.656 670.645 268 667L267 667C258.31 677.098 251.938 667.365 250 658C245.636 660.565 243.89 665.524 239.826 668.397C232.086 673.869 220.34 667.416 217 660C209.976 661.624 201.1 659.026 195 661.179C183.473 665.247 168.683 675.444 156 675.489C145.498 675.526 134.049 669.631 123 669.213C115.621 668.934 112.081 673.159 112 680L105 680C103.574 686.621 97.9712 690.858 96.4174 697C95.5235 700.534 102.216 718.471 104.738 721.61C108.484 726.27 115.121 726.116 119.787 729.139C123.569 731.589 124.156 736.544 127.39 739.49C133.4 744.962 143.748 747.042 144.813 757C145.736 765.633 140.283 772.946 140.164 781C140.1 785.292 143.857 788.649 142.289 793C136.773 808.311 129.195 812.758 134.316 830C135.101 832.642 134.4 836.175 136.028 838.49C139.399 843.285 149.021 842.063 154 843.99C157.745 845.439 160.892 848.285 165 848.747C168.319 849.12 172.517 847.024 175.298 849.607C179.929 853.91 180.744 864.3 183.312 870C187.051 878.301 191.96 894.345 198.649 900.397C201.191 902.697 205.087 902.041 207.83 904.318C218.158 912.891 222.988 919.174 236 909L239 916C249.283 913.647 256.573 904.917 266 902.028C269.886 900.837 274.997 904.136 278.362 901.357C282.347 898.066 281.693 891.761 286.109 888.603C291.434 884.794 299.634 885.766 304.397 880.363C309.771 874.265 299.562 863.543 300.238 856.015C300.631 851.634 304.611 850.04 308 848.14C320.136 841.335 327.044 844.326 340 847C336.593 864.569 346.756 874.463 364 868.049C374.568 864.117 374.845 857.205 382.213 850.39C386.243 846.663 392.482 845.876 396.034 841.61C400.976 835.673 401.816 825.734 407.637 820.603C413.045 815.837 422.703 819.4 428.272 812.61C432.002 808.062 432.052 801.729 436.301 797.044C439.969 793 447.66 792.028 448.412 785.985C450.1 772.424 439.425 760.699 434.995 749C433.449 744.918 435.072 740.219 433.397 736.3C430.737 730.081 424.953 728.12 426.648 720C429.211 707.723 438.78 702.31 445.87 693C451.039 686.211 448.995 679.239 453.013 673.109C456.655 667.552 463.727 669.258 468.61 665.86C472.78 662.958 473.478 656.845 477.213 653.39C486.587 644.721 500.757 642.456 506.273 629C508.719 623.035 500.787 617.451 501.663 611C502.485 604.943 507.588 601.556 509.183 596C511.945 586.378 505.036 567.083 497 562z"/>
</svg>
