<?xml version="1.0" standalone="yes"?>
<svg xmlns="http://www.w3.org/2000/svg" width="1272" height="1450">
<path style="fill:#010101; stroke:none;" d="M0 0L0 1450L1272 1450L1272 0L0 0z"/>
<path style="fill:#ffffff; stroke:none;" d="M518 963L488.004 951.146L478.91 945.331L460.39 952.742L453.787 960.567L417 971C418.885 985.915 418.452 999.246 423.34 1014C424.841 1018.53 432.485 1024.61 431.431 1029.42C429.276 1039.27 416.436 1047.36 408 1051C411.604 1059.36 417.395 1067.11 423.3 1074C426.088 1077.25 430.822 1080.5 431.512 1085C432.648 1092.4 426.292 1095.2 423.89 1101.04C420.899 1108.31 421.66 1118.14 416.911 1124.72C414.803 1127.64 411.007 1127.35 408.589 1129.73C405.402 1132.86 406.054 1138.42 402.853 1141.96C394.481 1151.2 387.629 1150.04 385 1164C391.756 1162.61 396.982 1160.05 402 1166L403 1166C406.264 1161.67 409.862 1155.9 415.004 1153.67C420.376 1151.34 427.578 1151.62 432.486 1147.98C436.114 1145.28 435.883 1137.82 439.294 1134.04C444.648 1128.12 450.268 1127.88 451 1119L452 1119L455 1132C469.427 1130.91 458.601 1136.44 458 1144L471 1146L471 1139L478 1139C477.993 1129.72 474.273 1126.76 465 1126C467.573 1121.79 472.463 1121.85 477 1121L488 1077L489 1077C489 1096.13 496.339 1115.01 495.871 1134C495.538 1147.54 488.959 1170.05 494.603 1182.78C496.527 1187.11 504.829 1188.86 509 1190L510 1187L515 1189C521.129 1182.51 526.937 1191.9 533 1194L534 1193C532.716 1186.38 532.816 1173.66 528.262 1168.51C520.412 1159.64 508.226 1166.38 507 1151L512 1151C513.841 1156.37 522.481 1157.4 525.107 1151.77C528.924 1143.59 525.442 1133.52 527 1125C536.97 1133.95 534.332 1150.16 538.026 1162C539.178 1165.7 542.857 1173.76 548.272 1169.93C552.107 1167.22 553.257 1158.01 557 1154L555.348 1169.99L550.317 1178.09L552 1194L561 1191L567 1210L564 1211L579 1240C593.371 1236.68 603.84 1241.47 617 1246C617.773 1239.4 607.845 1215.27 602 1212L604 1206L608 1207C612.173 1199.98 621.212 1192.06 630 1191.48C634.474 1191.18 640.307 1194.15 645 1194.71C650.921 1195.43 659.741 1195.82 664.961 1198.77C671.775 1202.63 674.708 1210.03 683 1212C683.693 1206.1 681.553 1195.08 676.486 1191.14C670.149 1186.22 663.964 1188.81 661.681 1179C661.004 1176.1 659.526 1170.23 661.693 1167.73C664.52 1164.46 668.985 1165.05 670.258 1159.98C672.13 1152.53 667.969 1140.67 667 1133C661.814 1132.02 655.876 1131.73 652.603 1126.95C650.819 1124.33 651.801 1120.23 649.397 1118.14C643.432 1112.96 630.687 1115.11 625.966 1109.68C612.568 1094.27 622.85 1086.91 629.683 1073C632.778 1066.7 633.884 1058.68 636.603 1052C639.461 1044.99 642.681 1039.53 640 1032L620 1039C615.462 1030.11 611.401 1028.06 602 1030C600.925 1024.79 598.586 1018.28 600.603 1013.02C604.409 1003.09 622.044 999.775 627.861 990.7C633.237 982.313 630.508 970.351 631.043 961C631.499 953.036 634.205 949.217 628.214 942.213C622.401 935.415 604.957 938.37 598.589 943.938C592.657 949.123 598.54 960.614 592.683 966.39C584.508 974.453 575.335 967.88 567 973.029C562.6 975.746 556.267 979.007 552.637 982.637C549.042 986.233 548.545 991.757 543.895 994.468C540.988 996.163 537.333 997.4 534 997.815C509.806 1000.83 514.804 979.965 518 963M457 1164L470 1165L472 1150C459.847 1150 457 1151.72 457 1164M499 1206L506 1206L507 1199C501.661 1199.18 500.135 1200.86 499 1206M553 1245C554.236 1257.08 556.811 1262.2 568 1256L556 1245L553 1245M623 1256L623 1257L628 1260L631 1255L623 1256z"/>
</svg>
