<?xml version="1.0" standalone="yes"?>
<svg xmlns="http://www.w3.org/2000/svg" width="1272" height="1450">
<path style="fill:#010101; stroke:none;" d="M0 0L0 1450L1272 1450L1272 0L0 0z"/>
<path style="fill:#ffffff; stroke:none;" d="M363 869C369.158 890.378 398.34 878.738 410.258 896.105C417.339 906.424 402.572 910.901 400.152 919.015C396.736 930.467 405.576 943.119 406.86 954C407.312 957.832 403.454 962.121 405.423 965.682C408.644 971.509 420.987 969.129 426 968.25C434.396 966.778 446.434 964.014 453.787 959.686C456.913 957.846 457.586 953.99 460.39 951.858C463.144 949.765 475.399 945.061 478.7 944.742C481.829 944.441 484.997 949.413 488.015 950.517C493.797 952.633 500.296 952.444 505.985 954.85C510.712 956.85 513.911 960.526 519 962C517.573 969.572 511.188 990.645 519.394 995.972C522.823 998.198 530.084 997.228 534 996.907C537.375 996.63 541.008 995.591 543.895 993.775C548.202 991.067 548.943 985.838 552.39 982.39C556.339 978.442 563.209 974.98 568 972.029C575.713 967.276 586.526 974.552 592.987 965.39C600.058 955.363 591.404 943.453 592.384 934C593.148 926.64 598.188 923.06 595.671 915C593.693 908.663 587.68 903.764 587.123 897C586.192 885.697 592.162 870.94 584.695 861C577.28 851.129 564.552 840.933 553.83 835.028C550.348 833.11 545.756 835.146 542.637 832.397C532.995 823.897 532.674 801.752 516 800.157C508.415 799.432 507.077 809.479 503.351 813.606C498.295 819.207 488.905 818.813 483.303 823.699C477.857 828.45 480.531 834.122 472 836C469.182 826.219 463.337 806.032 452 805L448 792C432.858 794.051 436.693 805.022 428.487 813.363C422.699 819.245 412.88 816.982 407.637 821.603C402.39 826.23 401.103 835.272 397.034 840.895C393.377 845.949 386.809 846.6 382.39 850.637C374.596 857.759 373.901 864.462 363 869z"/>
</svg>
