<?xml version="1.0" standalone="yes"?>
<svg xmlns="http://www.w3.org/2000/svg" width="1272" height="1450">
<path style="fill:#010101; stroke:none;" d="M0 0L0 1450L1272 1450L1272 0L0 0z"/>
<path style="fill:#ffffff; stroke:none;" d="M224 1100L225.15 1119L220.369 1140L229.52 1157.42L224.352 1169L222 1186L228 1185L229 1204L240 1209L262 1201L265 1207C254.021 1212.44 248.108 1216 248 1229C254.929 1227.13 261.049 1230.49 267.961 1227.74C273.181 1225.66 275.223 1218.57 281.004 1217.79C288.384 1216.78 292.063 1222.59 299.811 1217.59C307.642 1212.53 304.977 1191.7 296 1189L296 1188L304 1185C306.611 1190.25 312.17 1203.11 318.043 1204.97C324.947 1207.15 332.735 1200.77 339 1199.06C343.497 1197.82 348.587 1200.09 353 1201C352.188 1190.79 349.395 1174.74 339.985 1168.85C329.69 1162.41 314.73 1169.98 311.498 1155C309.815 1147.2 318.224 1143.31 322.006 1137.83C326.657 1131.09 328.375 1121.87 330 1114L324 1113L321 1088C324.905 1088 330.301 1088.94 333.829 1086.97C341.725 1082.58 340.872 1072.47 342.927 1065C344.738 1058.42 348.387 1052.29 351 1046C340.376 1041.92 336.074 1028.56 324 1027.69C306.161 1026.4 289.274 1038.77 284.513 1055C283.057 1059.96 285.588 1066.21 282.972 1070.82C280.128 1075.82 272.561 1079.15 268 1082.43C254.119 1092.42 242.039 1101.41 224 1100M287 1243C284.113 1242.02 280.278 1240.63 278.028 1243.66C276.172 1246.15 276.287 1252.82 280.147 1253.35C286.89 1254.28 289.438 1244.64 296 1244C296.255 1237.51 289.822 1238.97 287 1243M285 1273C282.565 1281.26 286.496 1290.51 290 1298L297 1286C305.07 1287.33 307.617 1268 302.701 1265.29C298.433 1262.93 292.123 1274.64 285 1273M308 1297C301.135 1294.66 292.151 1299.61 296.333 1307.94C298.691 1312.64 303.944 1311.77 307.625 1314.57C319.419 1323.56 327.252 1330.67 343 1324C342.171 1320.97 341.205 1315.9 337.775 1314.77C333.322 1313.31 326.846 1316.83 324.736 1310.27C323.504 1306.43 329.036 1298.17 330 1294C335.342 1294.83 339.068 1293.76 340 1288C332.882 1290.73 333.183 1285.83 326.961 1284.32C321.262 1282.94 309.62 1291.87 308 1297z"/>
</svg>
