<?xml version="1.0" standalone="yes"?>
<svg xmlns="http://www.w3.org/2000/svg" width="1272" height="1450">
<path style="fill:#010101; stroke:none;" d="M0 0L0 1450L1272 1450L1272 0L0 0z"/>
<path style="fill:#ffffff; stroke:none;" d="M752 1063C747.815 1070.43 748.856 1085.54 737 1083C732.04 1093.64 716.251 1102.93 705 1105.47C700.897 1106.4 697.058 1101.61 693.147 1103.82C686.842 1107.37 690.763 1117.47 687.012 1122.57C683.061 1127.94 672.982 1126.45 669.042 1132.61C665.219 1138.59 671.591 1151.24 671.171 1158C670.732 1165.05 664.97 1164.04 662.117 1168.56C654.566 1180.54 670.206 1188.82 679 1190L683 1213C688.337 1213 694.848 1211.99 700 1213.51C710.195 1216.52 718.573 1222.02 730 1220L727 1216L729 1212L737 1217L738 1217L745 1214C745.732 1210.11 747.636 1204.79 745.934 1201C743.711 1196.05 738.284 1193.21 740.06 1187C741.746 1181.11 753.016 1170.35 758.043 1166.82C760.529 1165.07 766.442 1165.44 767.759 1162.67C769.976 1158.01 760.641 1144.04 759 1139L768 1131L765 1130C771.294 1121.25 783.559 1111.06 794.581 1119.86C797.961 1122.56 797.237 1127.43 799.854 1130.57C802.396 1133.61 812.075 1136.6 816 1138C816.482 1132.38 807.709 1123.51 804 1119L809 1117C800.923 1104.54 816.28 1087.2 830 1090L828 1095L833 1097C834.74 1089.8 835.743 1086.24 844 1088L842 1083L842 1082L845 1079C838.407 1072.54 846.106 1063.97 850 1058C839.324 1051.7 825.155 1058.59 813 1056.32C807.886 1055.36 800.421 1051.06 795.43 1054.32C786.944 1059.86 793.514 1075.03 780 1077.73C771.791 1079.38 770.883 1070.73 765.621 1067.14C761.949 1064.64 756.24 1064.19 752 1063M832 1145C830.007 1146.18 827.927 1147.26 826 1148.55C811.811 1158.02 836.095 1159.93 832 1145z"/>
</svg>
