<?xml version="1.0" standalone="yes"?>
<svg xmlns="http://www.w3.org/2000/svg" width="1272" height="1450">
<path style="fill:#010101; stroke:none;" d="M0 0L0 1450L1272 1450L1272 0L0 0z"/>
<path style="fill:#ffffff; stroke:none;" d="M634 399L634 400C620.33 408.575 609.227 434.995 623.818 448.357C625.986 450.343 629.241 448.891 631.61 450.642C634.14 452.511 634.797 455.763 638.105 456.682C651.481 460.398 667.071 448.549 675.576 462C686.24 478.868 667.381 499.389 679.938 515.57C681.881 518.075 685.33 518.097 687.787 519.854C690.573 521.847 691.55 525.764 695.105 526.677C704.786 529.166 709.543 517.081 713.708 511.209C720.821 501.184 727.307 490.598 734.054 480C736.47 476.205 741.387 471.61 741.904 467C742.332 463.174 738.886 459.081 737 456C745.279 453.633 749.999 450.618 752 442C766.581 452.514 756.139 463.29 753.754 478C752.98 482.772 751.587 489.648 755.318 493.516C759.898 498.264 770.843 496.155 775.61 492.272C781.43 487.533 787.872 474.612 797 475.396C802.048 475.829 805.982 480.489 811 481.15C814.319 481.587 818.436 477.891 821.436 479.955C824.822 482.284 826.176 491.26 828.262 494.956C832.375 502.243 847.285 507.82 855 505C853.119 500.151 847.313 491.259 848.637 486.039C852.645 470.239 867.547 477.701 877 478.223C883.181 478.564 888.587 475.089 895 476L896.34 454L899 437C903.213 437.532 908.609 439.257 912.816 438.512C917.489 437.685 919.729 431.072 919.955 427C920.526 416.758 913.697 409.572 919.569 399.134C922.138 394.566 928.88 394.354 932.985 391.532C939.139 387.301 945.38 378.651 948.701 372C956.351 356.677 959.37 333.797 961.576 317C962.359 311.034 959.319 300.063 962.618 295.171C968.23 286.848 979.173 285.486 988 283C987.142 276.213 986.722 269.257 983.737 263C980.216 255.621 974.252 250.735 974.275 242C974.302 231.565 986.52 218.977 981.976 208.059C978.09 198.722 962.167 210.225 959.726 198.424C957.907 189.63 969.868 178.486 968.382 169.015C967.622 164.173 962.235 163.538 960.028 159.787C957.415 155.347 961.931 144.273 956.682 141.757C949.266 138.202 941.19 142.189 934.464 134.892C927.049 126.849 920.68 110.884 908.999 108.824C899.526 107.154 894.693 117.38 886 117.883C882.97 118.058 880.92 115.432 878 115.234C874.889 115.024 872.23 117.241 869 116.86C863.698 116.233 859.13 112.323 854 110.927C851.002 110.112 844.463 108.181 841.92 110.643C827.473 124.628 837.243 140.419 828.738 155.985C824.793 163.204 813.388 162.335 813.278 172C813.207 178.219 814.569 188.365 817.14 194C818.519 197.025 823.307 200.804 822.252 204.424C820.254 211.282 810.162 213.003 808.318 220.039C806.974 225.166 808.859 230.835 808.985 236C809.323 249.785 809.7 266.003 804.121 278.957C802.452 282.833 798.354 283.972 796.14 287.329C794.046 290.504 794.06 294.669 792.185 298C786.307 308.441 779.339 319.082 776.468 331C773.735 342.35 773.246 356.45 768.633 366.996C764.482 376.484 755.082 384.254 750.303 394C747.866 398.97 749.309 404.939 747.397 409.996C744.565 417.489 735.401 421.419 728 421.791C715.77 422.405 715.349 413.274 706.79 408.649C698.279 404.05 683.294 406.108 676.637 398.721C669.34 390.624 670.997 377.87 659 374.584C647.562 371.451 620.156 385.651 634 399z"/>
</svg>
