<?xml version="1.0" standalone="yes"?>
<svg xmlns="http://www.w3.org/2000/svg" width="1272" height="1450">
<path style="fill:#010101; stroke:none;" d="M0 0L0 1450L1272 1450L1272 0L0 0z"/>
<path style="fill:#ffffff; stroke:none;" d="M347 176C358.251 182.403 364.491 188.963 378 189C378.356 194.081 375.767 199.311 376.419 204C376.983 208.057 380.693 210.859 381.297 215C381.875 218.96 379.542 223.139 380.693 227C384.067 238.315 395.958 246.213 391.442 259.957C388.069 270.222 377.734 262.429 372.938 267.607C363.877 277.389 370.305 291.769 365.968 302.96C363.361 309.685 356.658 311.121 355 319L373 328C370.124 338.209 369.492 348.858 366.682 358.892C365.734 362.278 362.017 363.251 360.279 366.133C356.751 371.98 358.408 379.678 359.438 386C360.898 394.958 371.946 397.949 372.446 406.004C372.694 409.995 370.239 413.938 370.04 418C369.578 427.439 371.657 437.74 370.396 447C369.483 453.702 365.65 460.021 367.314 467C369.176 474.808 377.905 475.996 380.914 482.21C382.301 485.075 380.043 487.844 378.366 490C374.378 495.125 368.943 499.313 367.638 506C366.205 513.345 371.178 518.61 378 515L397.518 546L402.391 556.721L389 564.702L380 565C386.487 581.815 399.668 594.292 402.75 612C403.602 616.895 401.286 633.583 404.587 635.972C406.441 637.314 409.709 637.208 411.582 635.972C414.755 633.878 415.246 629.156 418.214 626.637C422.698 622.832 430.384 621.73 433.697 616.61C439.378 607.832 422.957 595.711 433.148 588.782C438.036 585.458 447.954 587.728 453.891 585.606C459.338 583.658 458.343 576.089 464.019 573.292C469.879 570.404 473.316 574.669 479 574.252C485.493 573.776 493.295 565.843 497 561L498 561C505.314 569.978 513.939 569.91 524 572.633C529.119 574.019 534.586 577.194 540 575.142C548.848 571.789 560.057 560.569 569 560.074C573.747 559.811 576.649 563.371 581 563.779C584.447 564.102 587.366 561.335 590.91 562.619C596.653 564.7 596.933 570.022 604 568L597.312 543L583.914 522L579 484C588.605 482.018 600.677 478.31 607.485 470.815C614.217 463.404 612.77 453.006 623 450C620.925 443.866 617.207 437.441 616.368 431C614.87 419.495 624.738 406.747 633 400L633 399C625.273 387.855 636.512 384.076 640.397 375.621C642.346 371.379 641.437 362.422 640.137 358.058C639.064 354.453 636.073 354.002 633.633 351.586C628.236 346.245 620.668 340.423 613 338.43C603.905 336.066 596.034 337.601 588.184 330.61C578.781 322.233 577.333 308.011 563 308L562 286L573 279C571.391 266.541 576.587 252.099 565 243L565 242C573.828 235.503 574.807 229.964 572 220C577.665 221.812 582.726 226.279 588.089 227.683C596.235 229.814 603.182 223.187 610 220C606.567 205.11 621.792 194.854 611 179L616 177C612.212 163.751 605.085 149.769 598.129 138C596.403 135.08 595.965 130.953 593.487 128.563C588.935 124.174 581.295 126.13 576.174 123.012C570.425 119.511 567.053 112.756 561 109.144C556.901 106.699 552.106 108.175 548.174 105.972C543.99 103.629 542.66 97.6749 537.826 96.3179C531.513 94.5453 524.422 97.0354 518 95.3904C511.321 93.6796 505.715 88.3572 499 87.2246C494.866 86.5273 487.227 85.9181 483.325 87.6025C476.358 90.61 473.706 95.059 465 92.0339C453.683 88.1016 446.434 78.3868 436 73.652C430.722 71.2571 422.693 68.0168 417 67.2168C412.614 66.6003 408.364 68.4525 404 67.3866C397.53 65.8063 386.228 58.3268 379.464 62.0671C370.385 67.0876 367.118 80.0917 363.811 89C360.291 98.4816 361.087 107.29 359.7 117C358.484 125.51 354.995 133.557 353.463 142C351.329 153.757 350.866 164.573 347 176z"/>
</svg>
