<?xml version="1.0" standalone="yes"?>
<svg xmlns="http://www.w3.org/2000/svg" width="1272" height="1450">
<path style="fill:#010101; stroke:none;" d="M0 0L0 1450L1272 1450L1272 0L0 0z"/>
<path style="fill:#ffffff; stroke:none;" d="M1082 575C1066.78 580.881 1059.21 594.224 1052.32 608.015C1050.73 611.204 1050.02 624.534 1047.67 625.427C1044.79 626.52 1041.65 623.458 1039 622.789C1035.79 621.978 1032.27 623.992 1029.21 622.684C1024.24 620.558 1024.3 617.075 1018 617L1018.42 633L1021.36 641.576L1016.73 650L1016.69 659.999L1006.84 670.209L1001 688C1007 688.001 1012.21 688.648 1018 690.29C1024.18 692.045 1028.14 692.944 1031.24 699.004C1037.36 710.939 1038.01 720.784 1031.45 733C1023.98 746.904 1002.26 766.493 1024 779L1024 780C1019.56 783.405 1016.64 787.258 1018.55 793C1020.12 797.68 1025.88 803.967 1022.32 808.852C1018.39 814.257 1009.62 811.286 1004 812.148C991.548 814.059 972.587 826.031 968 805L944.649 822.104L938.606 832.298L923.514 840.278L915 867L942 890C942.002 876.116 946.215 872.727 958 867.218C960.916 865.855 964.613 863.043 968 863.626C974.525 864.748 980.184 872.036 987 874C984.846 879.552 981.551 885.141 980.379 891C979.739 894.197 979.866 897.759 980.089 901C982.328 933.509 1016.28 897.969 1029 892.278C1036.1 889.1 1045.46 892.375 1051.94 888.566C1057.13 885.516 1055.71 880.697 1054 876L1042.83 882.715L1024 885L1022 881L1036 877L1024.01 874.732L1016 868C1020.53 867.373 1023.36 866.476 1025 862C1016.42 858.223 1013.07 853.028 1003 853L1003 848L1025 853.348L1048 854.934L1064 858L1052 866L1052 869C1058.39 869.053 1063.85 869.757 1068 875L1097 867L1094 856L1104 858L1105 852C1111.49 853.049 1120.41 850.442 1121 843C1130.38 851.08 1149.48 849.099 1150 865L1152 865C1151.8 855.453 1144.67 846.035 1146.64 837C1147.82 831.603 1148.71 824.695 1151.73 820C1154.28 816.03 1161.25 812.189 1161.04 807.004C1160.71 798.364 1148.28 799.351 1146.32 791.957C1143.99 783.203 1150.55 772.126 1145.4 764.001C1139.16 754.177 1127.2 749.505 1119.39 741.61C1116.21 738.393 1115.92 732.65 1111.79 730.357C1103.75 725.899 1092.87 738.724 1088.57 725C1087.13 720.415 1089.82 715.649 1088.68 711C1086.39 701.671 1078.6 700.112 1081.52 689C1083.43 681.726 1090.2 677.02 1092.26 670C1093.77 664.843 1089.96 659.819 1093.36 655C1100.3 645.159 1120.67 642.238 1121.41 629C1122.07 617.361 1107.16 599.898 1098 594.344C1093.79 591.794 1088.07 592.522 1084.64 588.721C1080.17 583.766 1082.92 580.298 1082 575M1115 871L1110 872L1107 867L1104 879L1114 878L1111 885C1118.26 886.411 1132.23 885.732 1135 878L1140 879C1140.13 884.553 1146.21 896.69 1153.25 889.397C1156.63 885.896 1153.98 881.879 1159 879L1175 888L1180 883C1176.35 876.43 1174.19 873.008 1167 870L1168 866C1160.84 865.086 1158.23 875.686 1152.57 874.263C1145.78 872.557 1144.07 864.808 1139.36 860.969C1129.73 853.118 1113.39 856.966 1115 871M1035 862L1033 867L1043 867L1043 865L1035 862M1074 880C1078.4 886.461 1089.1 883.133 1096 884L1098 880C1089.68 876.466 1082.51 877.949 1074 880M1079 889C1078.88 893.603 1076.74 897.927 1081 901L1081 902L1078 904C1084.15 906.676 1089.3 904.012 1088 897L1096 901L1101 896L1088 891L1089 888L1079 889M1108 891C1109.99 893.794 1112.33 897.005 1115.98 897.623C1118.76 898.093 1122.58 895.544 1120.15 892.599C1117.83 889.79 1111.23 891 1108 891z"/>
</svg>
