<?xml version="1.0" standalone="yes"?>
<svg xmlns="http://www.w3.org/2000/svg" width="1272" height="1450">
<path style="fill:#010101; stroke:none;" d="M0 0L0 1450L1272 1450L1272 0L0 0z"/>
<path style="fill:#ffffff; stroke:none;" d="M346 177C343.327 181.335 339.758 190.409 334.895 192.397C330.225 194.306 324.768 192.056 320 194.089C315.406 196.047 312.01 199.875 307 201.032C299.614 202.74 291.77 197.645 285.603 204.637C277.486 213.841 295.524 222.201 298.11 230C302.68 243.779 301.652 260.718 307.032 273.895C309.691 280.407 317.386 284.632 319.852 292.039C322.861 301.077 316.456 304.845 323 314C332.753 311.751 344.428 314.511 354 318C356.525 311.813 363.438 308.796 365.276 302.907C368.971 291.069 364.16 278.11 372.14 267.322C376.501 261.426 387.254 269.92 390.606 259.957C395.371 245.789 382.764 237.771 379.89 226C378.931 222.077 381.224 218.009 380.427 214C379.644 210.059 375.807 207.001 375.704 203C375.583 198.352 377.877 194.965 377 190L346 177z"/>
</svg>
