<?xml version="1.0" standalone="yes"?>
<svg xmlns="http://www.w3.org/2000/svg" width="1272" height="1450">
<path style="fill:#010101; stroke:none;" d="M0 0L0 1450L1272 1450L1272 0L0 0z"/>
<path style="fill:#ffffff; stroke:none;" d="M612 179C614.886 184.649 617.26 190.522 616.073 197C614.209 207.171 607.475 209.159 611 220L590.004 228.836L574 222C574.767 231.474 572.7 234.999 566 242L566 243C577.109 255.384 577.238 277.134 563 286L564 307C577.69 307.162 579.57 323.904 589.184 331.034C597.16 336.948 604.59 334.764 613 337.727C620.756 340.459 636.679 348.709 640.436 356.228C643.221 361.801 642 369.974 642 376C650.191 375.575 657.997 370.193 665.606 376.703C672.178 382.325 670.948 394.839 678.39 399.697C686.525 405.006 698.502 403.052 706.896 408.139C710.52 410.335 711.564 414.583 714.61 417.297C719.833 421.953 729.734 421.537 736 419.722C749.463 415.823 744.661 404.467 749.303 395C752.054 389.391 756.863 380.112 760.599 375.39C762.843 372.552 766.029 371.459 767.633 367.957C772.592 357.122 772.331 342.593 775.719 331C779.887 316.739 787.645 300.719 795.14 288.093C797.346 284.377 801.937 283.08 803.467 278.896C808.339 265.569 808.066 250.933 807.999 237C807.974 231.878 806.051 226.027 807.318 221.004C809.149 213.741 822.204 210.796 821.758 202.999C821.544 199.246 817.636 196.28 816.14 193C813.776 187.819 811.716 176.675 812.589 171C813.981 161.947 825.362 161.701 829.239 153.999C833.886 144.768 828.897 137.036 831.014 128C832.597 121.245 838.956 115.996 841 109C836.948 108.966 833.029 108.32 829 108.024C826.119 107.812 823.662 107.382 821 106.204C799.975 96.8951 819.661 85.5146 825.062 73C827.775 66.7123 827 56.7961 827 50C820.54 50 812.177 47.8466 806 49.4305C798.919 51.2462 793.613 56.5059 786 57.9043C779.674 59.0664 772.795 55.825 767.104 59.368C761.024 63.1537 760.082 71.5109 753.985 75.3928C748.758 78.7201 743.101 72.3763 738.513 77.3596C730.785 85.7523 738.36 101.031 727.895 107.633C720.791 112.114 711.601 109.938 704 112.979C697.132 115.726 693 122.188 686 124.406C680.068 126.286 669.877 126.479 665.573 131.279C660.69 136.724 665.293 145.453 663.683 152C661.68 160.146 652.252 165.424 647.649 172C645.277 175.389 644.575 180.478 640.786 182.683C630.851 188.464 622.5 175.419 612 179z"/>
</svg>
