<?xml version="1.0" standalone="yes"?>
<svg xmlns="http://www.w3.org/2000/svg" width="1272" height="1450">
<path style="fill:#010101; stroke:none;" d="M0 0L0 1450L1272 1450L1272 0L0 0z"/>
<path style="fill:#ffffff; stroke:none;" d="M707 577C701.743 586.37 695.527 578.15 688 578.893C681.266 579.557 670.873 588.751 669 595C660.678 586.306 655.796 584.491 644 583L649.324 600L649.039 614.83L661.51 636.001L652.558 649.213L641.994 677L644.915 697L637.757 710.945L615.089 725.001L611 763C606.178 757.961 600.882 748.866 594 746.623C588.329 744.774 576.784 756.284 574.324 761.043C571.202 767.083 571.672 775.343 568.062 780.811C564.561 786.113 546.784 789.534 541 788C540.019 795.716 531.917 803.242 532.067 810C532.179 815.037 539.12 829.247 543.39 831.972C546.232 833.785 549.969 832.468 552.961 834.028C556.132 835.681 558.093 839.023 561.039 841.034C570.752 847.661 583.42 854.291 588.142 866C592.254 876.197 586.472 888.586 588.225 899C589.522 906.71 596.934 911.862 597.455 920C598.09 929.909 591.173 932.582 596 943C603.135 941.527 615.005 935.371 621.999 937.552C626.988 939.107 633.321 946.17 633.667 951.576C634.454 963.853 630.572 977.735 629.569 990C629.213 994.357 632.194 997.806 632.783 1002C633.349 1006.03 631.926 1009.97 632.058 1014C632.374 1023.63 644.154 1031.41 641.597 1041C639.157 1050.15 634.885 1065.03 630.142 1073C626.598 1078.96 617.807 1085.05 618.85 1093C621.055 1109.8 637.25 1115.01 652 1117C652.002 1134.02 664.723 1132.89 677 1126.81C679.747 1125.45 684.038 1124.86 686.062 1122.44C690.627 1116.97 685.893 1106.87 693.734 1102.99C697.114 1101.32 700.525 1105.33 704 1105.18C707.545 1105.02 717.871 1100 720.437 1097.44C726.058 1091.81 723.521 1072.07 734 1073C733.963 1059.65 730.162 1057.97 718 1058C724.835 1050.76 722.666 1046.91 718 1039C725.236 1039.57 735.627 1042.35 742 1038L729 1034L732 1027C737.595 1030.25 749.936 1037.63 756 1036L751 1027C757.493 1024.51 758.044 1028.56 764.001 1029.59C775.497 1031.58 771.018 1018.4 771 1012C773.477 1014.84 779.998 1026.07 784.492 1024.5C787.067 1023.6 790.03 1017.11 792 1015L792 1014L787 1009L787 1008L793 997L794 997L798 1010C802.892 1009.37 808.052 1007.46 813 1008.38C827.527 1011.1 841.963 1025.18 850 1006C856.437 1011.4 858.822 1019.37 862 1027L863 1027C866.138 1021.08 871.917 1016.67 878 1014C877.385 1022.09 868.469 1025.15 868.358 1034C868.147 1050.77 883.154 1043.56 893 1044.94C899.341 1045.83 903.235 1050.16 910 1047.75C917.05 1045.24 921.139 1039.41 929 1039C930.451 1027.52 929.13 1018.11 926 1007C943.955 998.17 922.905 985.375 919 976C911.827 977.701 907.022 983.653 899 982.292C888.323 980.48 892.684 974.01 887.4 967.681C884.312 963.981 878.471 963.468 875.693 959.61C873.742 956.9 874.966 953.022 873.295 950.001C871.866 947.419 868.725 944.966 869.847 941.714C873.572 930.918 886.422 927.292 891.08 917.96C896.089 907.927 895.746 895.717 899.938 886C904.028 876.522 913.682 869.652 918.096 859.996C920.894 853.874 919.286 844.767 923.013 839.419C925.835 835.37 932.867 835.171 936.892 832.725C940.396 830.597 941.592 826.622 943 823C937.137 821.77 932.634 817.689 927 816.434C919.382 814.736 911.282 820.117 905.603 811.906C901.979 806.666 904 796.133 904 790C896.781 789.088 887.673 787.227 881.105 791.367C876.488 794.278 876.097 799.89 872.363 803.437C869.791 805.88 865.258 806.745 862 808C865.169 833.631 843.175 840.035 826.015 852.786C820.52 856.868 810.593 868.392 802.213 865.582C798.847 864.453 797.187 858.867 795.753 856C793.644 851.781 792.044 846.032 789.006 842.43C784.352 836.912 780.554 836.833 778 829C786.638 825.404 790.864 822.312 793 813L783 808L787 796L768 785C772.439 778.291 776.099 770.158 781.529 764.213C784.514 760.945 790.583 759.955 792.397 755.787C796.395 746.596 794.471 733.554 795.927 724C796.822 718.121 802.642 710.609 800.307 704.379C795.348 691.148 786.386 704.305 785 711C781.532 709.578 772.819 707.797 770.906 704.49C769.365 701.827 772.785 697.907 772.782 695C772.779 690.79 766.244 678.276 762.582 676.067C754.984 671.484 742.665 682.019 735.604 672.772C731.665 667.613 737.103 664.337 741 662C739.423 654.794 734.109 653.453 729.904 647.985C726.473 643.524 725.503 637.824 719.985 635.367C711.945 631.789 705.453 636.38 699.542 627.17C697.127 623.406 701.651 619.66 702.582 616C704.177 609.728 708.271 606.017 709.941 599.996C712 592.573 710.808 586.666 714 579L707 577M752 1062C756.345 1063.64 762.027 1063.9 765.79 1066.73C769.823 1069.76 770.689 1075.64 776.043 1077.01C788.856 1080.31 791.832 1061.67 793 1053C801.034 1052.39 807.202 1055.29 815 1055.79C824.027 1056.36 833.18 1054.11 842 1054.19C848.893 1054.25 854.224 1060.9 859 1052C853.347 1047.34 855.068 1038.68 847 1037C846.82 1021.87 824.064 1029.01 815 1031.72C806.204 1034.35 798.823 1031.36 790 1032.17C775.206 1033.53 755.532 1047.27 752 1062z"/>
</svg>
