<?xml version="1.0" standalone="yes"?>
<svg xmlns="http://www.w3.org/2000/svg" width="1272" height="1450">
<path style="fill:#010101; stroke:none;" d="M0 0L0 1450L1272 1450L1272 0L0 0z"/>
<path style="fill:#ffffff; stroke:none;" d="M1167 318C1175.27 304.714 1182.08 293.378 1193.17 282.093C1198.37 276.796 1206.47 274.499 1211.03 268.674C1222.92 253.505 1213.28 241.582 1215.19 225.015C1215.92 218.612 1224.47 216.637 1228.79 213.096C1237.32 206.103 1239.91 192.62 1232.21 184.303C1217.81 168.739 1208.7 200.327 1203.3 206.61C1199.95 210.512 1193.52 212.496 1189 214.753C1183.84 217.335 1177.63 219.511 1173.29 223.39C1165.41 230.427 1158.36 242.58 1148 246.397C1138.63 249.849 1117.72 241.517 1111.04 251.51C1106.66 258.077 1114.83 269.818 1116.57 276C1118.68 283.505 1116.38 289.526 1121.02 296.957C1128.3 308.615 1154.19 315.037 1167 318z"/>
</svg>
