<?xml version="1.0" standalone="yes"?>
<svg xmlns="http://www.w3.org/2000/svg" width="1272" height="1450">
<path style="fill:#010101; stroke:none;" d="M0 0L0 1450L1272 1450L1272 0L0 0z"/>
<path style="fill:#ffffff; stroke:none;" d="M1041 260C1042.68 265.792 1046.54 271.186 1047.73 277C1048.87 282.559 1046.71 288.175 1048.14 294C1049.38 299.08 1052.82 302.544 1052.98 308C1053.19 314.844 1049.15 319.63 1048.69 326C1048.02 335.408 1062.53 340.429 1049 346C1050.27 350.638 1052.76 352.865 1057 355C1053.67 364.618 1048.52 366.62 1041.3 372.637C1038.37 375.076 1036.34 379.693 1031.99 379.627C1027.29 379.556 1023.63 373.322 1019.02 374.458C1008.87 376.957 1012.21 392.305 998 387L995.103 408L1005 424L998 425C998.932 427.913 1000.14 430.924 1000.36 434C1001.76 453.229 983.964 445.139 974 444.302C968.559 443.846 962.538 445 957 445C957.72 454.127 962.792 470.805 957.397 478.981C952.97 485.689 945.719 483.349 939 484.185C926.199 485.779 916.105 485.96 904 491L903 523C908.354 521.535 910.7 517.858 913 513L928 518L928 519C917.104 522.139 918 528.025 918 538L924 537C923.676 546.983 914.807 549.348 907 553C913.394 568.354 954.493 591.701 926 607L930 619C951.42 611.134 944 636.108 944 649L971.96 651.854L984 660C989.893 649.903 993.486 627.972 1008.91 642.143C1011.14 644.197 1013.01 646.718 1015 649L1016 649C1023.14 640.069 1017 627.493 1017 616C1022.87 616.069 1025.57 617.539 1028 623L1048 626C1049.02 621.979 1047.9 618.01 1049.25 614C1051.32 607.838 1055.83 604.368 1058.68 598.911C1060.7 595.042 1060.04 590.828 1063.28 587.464C1075.11 575.155 1092.84 571.582 1100.7 555C1102.45 551.313 1104.12 545.05 1103.27 541C1102.32 536.443 1098.97 532.883 1100.86 528C1102.92 522.678 1113.03 516.283 1110.21 510.055C1105.92 500.557 1091 505.6 1088.95 492C1087.75 484.003 1097.13 479.399 1101.78 474.575C1105.32 470.889 1105.64 465.032 1109.42 461.702C1116.2 455.724 1126.28 456.294 1134 453.893C1138.45 452.509 1141.1 450.145 1146 450C1146 443.367 1144.82 435.459 1146.42 429C1147.48 424.707 1151.28 421.541 1151.49 417C1151.72 412.16 1147.56 404.685 1151.41 400.637C1160.5 391.063 1178.77 393.72 1184.94 381.999C1187.99 376.219 1184.95 371.027 1185.7 365C1186.31 360.177 1190.49 356.692 1191.58 352C1192.51 347.99 1190.69 344.018 1191.62 340C1195.23 324.402 1205.85 311.008 1223 311.002C1230.07 310.999 1237.07 312.695 1244 314C1245.61 309.729 1248.07 303.615 1247.18 299C1246.43 295.127 1242.85 292.149 1243.36 288C1244.2 281.19 1253.02 273.352 1247.4 266.279C1243.06 260.818 1225.77 256.819 1219 254C1212.83 268.814 1203.84 271.61 1193.29 282.184C1182.39 293.102 1173.87 305.198 1167 319C1153.9 314.736 1133.43 310.461 1123.38 300.61C1115.75 293.137 1117.94 285.942 1116.26 277C1114.56 267.885 1109.76 260.645 1109 251L1088 236.349L1073 245.637L1059 250.302L1041 260z"/>
</svg>
