<?xml version="1.0" standalone="yes"?>
<svg xmlns="http://www.w3.org/2000/svg" width="1450" height="1128">
<path style="fill:#010101; stroke:none;" d="M0 0L0 1128L1450 1128L1450 0L0 0z"/>
<path style="fill:#ffffff; stroke:none;" d="M1109 967L1103 969C1105.16 978.205 1113.65 982.953 1106 992L1106 993L1120 1002C1114.83 1007.74 1106.16 1006.51 1099 1006L1099 1014L1109 1017L1109 1018C1106.39 1018.74 1097.21 1019.08 1095.83 1020.71C1093.88 1023 1097.33 1027.02 1098.34 1029C1101.42 1035 1097.43 1043.2 1105.17 1046.88C1114.91 1051.52 1126.87 1046.67 1137 1047.08C1144.13 1047.37 1149.68 1052.81 1155 1045L1156 1045L1159 1050L1176 1046L1177 1036L1178 1036C1178.08 1043.08 1185.2 1052.14 1192.69 1046.03C1197.33 1042.24 1200.06 1031.78 1199.16 1026C1196.47 1008.85 1174.86 1020.64 1170.23 1006.96C1168.6 1002.15 1169.79 996.762 1167.97 992.039C1164.89 984.048 1159.75 982.75 1162.4 973C1164.3 966.028 1175.78 958.006 1174.96 951C1173.84 941.489 1162.57 932.768 1159 924C1155 925.673 1151.21 928.555 1147 929.582C1142.88 930.586 1138.12 928.985 1134.17 930.603C1129.53 932.504 1127.55 938.14 1122.99 940.431C1116.48 943.693 1102.98 946.994 1103.29 957C1103.4 960.487 1107.12 964.237 1109 967M1125 1066C1123.02 1053.14 1108.82 1051.06 1098.04 1051.43C1095.18 1051.53 1093.04 1053.82 1094.57 1056.69C1096.11 1059.59 1101.27 1059.32 1104 1060.51C1106.66 1061.68 1109.29 1062.62 1112 1063.65C1116.92 1065.52 1119.66 1066.94 1125 1066z"/>
</svg>
