<?xml version="1.0" standalone="yes"?>
<svg xmlns="http://www.w3.org/2000/svg" width="1450" height="1128">
<path style="fill:#010101; stroke:none;" d="M0 0L0 1128L1450 1128L1450 0L0 0z"/>
<path style="fill:#ffffff; stroke:none;" d="M834 394C838.008 411.323 853.947 443.043 833 454L832 467C837.812 466.541 843.156 465.677 849 466.59C862.031 468.626 874.357 477.117 869.891 492C868.413 496.925 863.968 500.131 862.514 505C860.665 511.193 862.304 518.726 862.826 525C863.149 528.872 860.615 534.929 863.604 538.034C870.203 544.889 885.449 542 894 542L896.514 524L907.896 501L901.04 479L893.379 429L901.579 404L891.888 392L881 372L834 394z"/>
</svg>
