<?xml version="1.0" standalone="yes"?>
<svg xmlns="http://www.w3.org/2000/svg" width="1450" height="1128">
<path style="fill:#010101; stroke:none;" d="M0 0L0 1128L1450 1128L1450 0L0 0z"/>
<path style="fill:#ffffff; stroke:none;" d="M677 637C676.15 630.274 674.873 619.756 683.093 616.608C689.43 614.181 693.357 621.358 698.999 622.186C703.898 622.905 720.272 610.079 722.486 605.787C724.687 601.521 725.78 589.399 720.697 586.728C716.825 584.693 711.947 585.684 708.174 583.143C698.666 576.74 703.094 569.41 711 565C708.069 558.334 694.921 538.884 686.999 538.927C679.487 538.969 671.66 548.402 664 544.961C655.262 541.035 652.372 532.109 645.39 526.988C642.935 525.187 639.574 525.175 637 523.436C633.422 521.02 630.92 517.269 627 515.314C621.893 512.767 615.431 512.454 610 510.645C589.687 503.881 573.57 497.406 556 512.845C553.083 515.408 548.985 517.849 547.028 521.286C542.692 528.9 551.518 536.837 555.865 542C560.438 547.431 560.054 553.448 563.599 559C567.709 565.439 573.94 570.198 577.687 577C579.708 580.67 583.484 586.66 582.308 591C580.443 597.881 568.972 608.378 575.028 616.332C578.567 620.981 596.158 611.295 602 611.039C613.06 610.555 618.808 618.504 629 620.276C638.449 621.919 647.257 617.265 657 621.765C665.266 625.582 667.922 638.404 677 637z"/>
</svg>
