<?xml version="1.0" standalone="yes"?>
<svg xmlns="http://www.w3.org/2000/svg" width="1450" height="1128">
<path style="fill:#010101; stroke:none;" d="M0 0L0 1128L1450 1128L1450 0L0 0z"/>
<path style="fill:#ffffff; stroke:none;" d="M765 463C764.682 478.407 754.441 488.236 752.425 503C750.854 514.51 757.578 526.168 755.951 537C754.341 547.712 745.982 568.596 753.164 578.566C755.654 582.022 762.238 581.644 766 582.771C778.45 586.501 794.999 594.054 801.636 578C804.282 571.598 800.963 564.621 801.129 558C801.325 550.194 805.798 542.672 805.526 535C804.984 519.707 796.491 509.488 801.978 494C804.072 488.087 810.345 478.655 815.213 474.649C823.185 468.088 835.109 469.038 833 455L814 460L797 455.471L765 463z"/>
</svg>
