<?xml version="1.0" standalone="yes"?>
<svg xmlns="http://www.w3.org/2000/svg" width="1450" height="1128">
<path style="fill:#010101; stroke:none;" d="M0 0L0 1128L1450 1128L1450 0L0 0z"/>
<path style="fill:#ffffff; stroke:none;" d="M389 783C398.519 784.846 406.726 790.305 416 786C413.934 776.016 406.757 768.454 404.419 759C402.573 751.538 405.867 743.198 402.583 736C399.229 728.652 392.248 727.507 387.699 721.787C382.638 715.424 380.942 705.964 376.333 699C373.648 694.944 369.2 689.912 368.383 685C367.766 681.286 371.409 675.886 366.605 673.604C360.726 670.811 355.229 677.342 350 678.732C345.114 680.031 341.689 676.558 337 676.513C331.636 676.462 326.328 679.231 321 679.827C316.421 680.34 310.451 681.758 306 680.297C299.668 678.219 295.359 673.405 288.039 675.318C284.639 676.206 282.817 679.349 279.961 681.147C275.957 683.666 271.046 684.188 267.09 686.966C263.035 689.814 260.618 694.403 256.961 697.71C252.491 701.752 244.49 701.814 240.938 705.738C237.898 709.098 236.868 716.766 234.753 721C226.919 736.682 217.647 756.024 219.093 774C220.416 790.442 231.72 796.649 246 800.429C249.502 801.356 252.221 804.392 256 804.255C265.514 803.908 272.747 795.955 282.996 796.148C291.005 796.299 290.582 806.846 298.015 808.606C314.486 812.505 325.844 803.46 341 801.286C355.929 799.144 386.635 801.297 389 783z"/>
</svg>
