<?xml version="1.0" standalone="yes"?>
<svg xmlns="http://www.w3.org/2000/svg" width="1450" height="1128">
<path style="fill:#010101; stroke:none;" d="M0 0L0 1128L1450 1128L1450 0L0 0z"/>
<path style="fill:#ffffff; stroke:none;" d="M401 630C390.115 633.154 394.309 641.814 389.633 649.999C386.228 655.958 379.787 660.18 375.001 665C372.439 667.58 367.304 671.604 370.068 675.682C371.988 678.515 376.291 677.891 379 679.603C382.65 681.91 385.188 685.591 389 687.721C394.936 691.038 400.398 691.352 405 697C410.04 695.69 413.614 692.135 418 689.464C426.829 684.086 441.748 680.639 446.972 670.911C450.495 664.35 448.405 650.54 449 643C436.76 643.958 426.253 638.819 422.133 626C420.195 619.969 420.155 609.766 423.026 604C424.984 600.067 428.867 597.822 428.652 593C428.254 584.057 422.36 576.11 421.285 567C420.194 557.75 423.423 548.303 421.772 539C420.867 533.897 416.418 530.735 414.728 526C412.397 519.474 415.685 512.968 418 507C413.506 505.579 403.909 502.767 399.39 504.643C394.75 506.57 395.015 514.093 391.581 517.363C379.625 528.746 364.309 535.14 359.638 552C357.928 558.173 363.156 562.368 362.429 568C361.294 576.798 353.669 587.292 357.603 596.826C359.466 601.341 365.385 603.52 368.91 606.518C373.649 610.549 376.731 615.69 382.001 619.251C388.142 623.4 395.379 625.127 401 630z"/>
</svg>
