<?xml version="1.0" standalone="yes"?>
<svg xmlns="http://www.w3.org/2000/svg" width="1450" height="1128">
<path style="fill:#010101; stroke:none;" d="M0 0L0 1128L1450 1128L1450 0L0 0z"/>
<path style="fill:#ffffff; stroke:none;" d="M786 675L749 674C745.059 684.445 751.686 687.303 751.725 696.576C751.741 700.495 748.418 703.955 748.12 708C747.543 715.826 749.663 724.155 750 732L787 733.748L798 729.811L813 731.674L851 727C852.196 717.537 855.01 706.496 853.699 697C852.146 685.749 847.019 677.746 847 666C846.989 659.203 847.393 644.444 839 643C838.048 639.713 835.007 637.303 834.487 633.961C833.769 629.346 836.815 623.783 833.397 619.684C826.598 611.533 810.14 615.901 804.004 622.005C789.107 636.823 786 655.107 786 675z"/>
</svg>
