<?xml version="1.0" standalone="yes"?>
<svg xmlns="http://www.w3.org/2000/svg" width="1450" height="1128">
<path style="fill:#010101; stroke:none;" d="M0 0L0 1128L1450 1128L1450 0L0 0z"/>
<path style="fill:#ffffff; stroke:none;" d="M417 787C406.796 789.41 400.139 785.966 390 784C386.725 796.618 377.839 796.74 366 798.576C343.066 802.132 321.985 810 299 810L304.928 834L309.326 843.424L304 855C312.603 858.788 341.196 881.699 343 862C349.039 861.983 354.983 860.569 361 861.428C366.759 862.251 379.129 861.99 383.609 865.603C392.132 872.476 378.328 890.982 371.961 895.272C363.638 900.881 351.314 899.723 343.518 906.649C335.014 914.204 326.697 931.73 322 942C334.218 946.74 345.082 954.01 357 959.045C363.763 961.902 371.24 961.073 378 964.262C385.078 967.602 401.859 975.115 409.7 970.933C420.871 964.975 412.506 953.649 413.097 945C413.626 937.266 418.863 930.646 419.815 923C421.568 908.921 417.529 893.21 424.324 880C434.134 860.93 456.477 850.483 472.91 838.099C487.034 827.455 499.493 812.548 515 803.351C525.995 796.83 543.392 794.271 552.397 785.034C555.965 781.374 555 772.692 555 768C555.001 753.024 562.58 734.989 555 722C536.316 728.321 518.597 734.248 505 749C504.333 733.7 491.081 731.463 482.464 721C479.237 717.082 475.289 708.748 468.999 711.411C454.805 717.422 451.748 740.902 432 739.663C423.596 739.135 421.348 725.644 413.91 725.302C402.309 724.77 404.236 735.256 404.895 742C405.493 748.12 403.734 755.091 405.702 761C408.752 770.157 414.968 777.18 417 787z"/>
</svg>
