<?xml version="1.0" standalone="yes"?>
<svg xmlns="http://www.w3.org/2000/svg" width="1450" height="1128">
<path style="fill:#010101; stroke:none;" d="M0 0L0 1128L1450 1128L1450 0L0 0z"/>
<path style="fill:#ffffff; stroke:none;" d="M938 267C938.109 272.28 939.8 278.056 937.012 282.961C926.934 300.686 914.109 287.052 913 273C904.326 273.031 892.894 283.033 894.929 292.996C896.452 300.453 907.726 302.247 911.091 309.015C914.526 315.923 909.625 320.972 910.097 328C910.714 337.185 916.547 345.617 916.41 355C916.258 365.418 902.302 364.827 902.507 373.015C902.692 380.413 912.611 386.896 914.967 394C916.673 399.143 914.043 404.393 912 409L903 405C899.812 411.828 895.428 418.352 894.34 426C893.267 433.547 896.372 441.673 897.739 449C899.647 459.219 899.621 469.895 902.04 480C903.456 485.915 908.094 491.101 908.852 497C910.167 507.237 902.306 513.983 897.988 522C895.319 526.956 895.076 535.439 895.079 541C895.082 548.582 901.003 552.818 901.671 560C902.904 573.27 896.624 584.61 902.337 598C907.082 609.121 918.703 617.702 922.253 629C925.359 638.885 901.484 653.824 922.001 659.126C924.655 659.812 927.316 660.446 930 661C945.779 623.363 985.277 686.534 1001 653C1007.63 659.787 1021.49 693.007 1034 678L1035 678C1038.07 683.39 1042.79 691.812 1048.29 694.972C1053.1 697.734 1059.13 694.553 1063.3 699.394C1072.91 710.554 1067.14 732.295 1086 735.606C1097.2 737.572 1117.99 730.654 1125.99 722.956C1131.05 718.083 1136.03 713.357 1131 707L1130 707C1124.66 712.147 1123.17 711.056 1117 708C1120.77 705.585 1127.42 706.629 1129.97 702.606C1131.63 699.976 1130.03 697.207 1130.23 694.424C1130.61 689.157 1135.69 685.9 1140 684C1142.51 693.511 1157.89 694.31 1159.87 683.957C1162.75 668.846 1152.12 660.024 1152 645L1162 644C1162 637.953 1162.59 633.494 1157 630L1155 634L1144 625L1144 624L1157 609L1145 605.938L1129.42 615.508L1117 610L1123 603L1130 604L1128 597L1113 600L1118 583C1125.74 584.501 1131.28 584.52 1139 582.789C1140.96 582.349 1145.36 581.787 1145.36 579C1145.36 571.554 1127.35 577.309 1124 578C1121.82 566.772 1127.49 570.849 1135 567.981C1139.81 566.146 1145.71 562.025 1151 562.258C1157.09 562.528 1162.57 568.708 1168 571.04C1171.77 572.658 1175.96 571.076 1180 572L1179 581L1180 581C1185.39 575.622 1205.89 557.074 1187 554L1192 550L1189 546C1193.24 545.949 1195.53 545.612 1198 542L1192 539L1192 538C1201.66 537.121 1204.68 526.986 1208 519L1202 517L1195 532L1188 529C1194.11 519.053 1195.84 516.772 1189 507L1187 507L1181 521L1176 520L1186 497L1183 496C1177.95 504.88 1175.57 514.374 1164 509L1164 508L1175 499L1171 498L1166 500L1166 493L1165 493C1162.76 495.436 1159.8 500.52 1156.41 501.323C1148.52 503.192 1144.73 491.405 1144 486L1139 490L1138 490L1133 485L1132 485L1130 488L1129 488C1125.12 483.423 1122.88 473.645 1128.22 468.526C1130.01 466.806 1132.69 467.602 1134.73 466.299C1136.84 464.948 1138.56 461.454 1141.43 461.743C1147.81 462.386 1150.8 470.281 1158 470L1158 469L1152 466C1158.25 457.438 1151.97 456.001 1144 456C1146.45 451.639 1149.19 451.057 1154 451L1153 445C1166.8 441.024 1185.21 431.083 1192 418L1203 442L1213 438L1208 427L1211 420L1219 425L1220 436L1240 424C1230.91 402.17 1217.64 381.26 1204.17 362C1199.2 354.899 1198.25 346.323 1189.71 341.812C1184.88 339.255 1181.6 345.404 1177.83 347.022C1173.91 348.707 1165.22 344.333 1162.39 341.582C1150.17 329.695 1177.86 312.46 1158 302.259C1150.64 298.479 1145.69 300.372 1138 299.816C1132.05 299.386 1125.97 296.75 1120 297.34C1115.71 297.763 1111.34 300.214 1107 299.821C1100.41 299.225 1094.5 292.482 1088 290.637C1082.3 289.019 1076.72 291.13 1071 290.942C1065.71 290.769 1059.97 287.982 1055 286.24C1045.21 282.81 1041.69 274.981 1034.96 268.004C1031.15 264.051 1026.11 261.587 1022.39 257.671C1017.16 252.157 1015.79 245.969 1007 245.105C1000.76 244.492 982.388 242.901 978.179 248.564C970.362 259.083 975.411 286.415 955.043 285.176C948.176 284.758 945.226 270.087 938 267M1180 433L1182 438L1187 437L1188 442C1183.25 443.915 1180.69 457.655 1180 463C1202.72 466.084 1196.46 440.318 1191 428L1180 433M1228 441L1243 468L1259 461L1245 433L1228 441M1171 449L1183 448L1179 438C1172.49 440.148 1171.02 442.176 1171 449M1165 442L1155 446C1156.97 450.889 1161.36 449.999 1166 450L1165 442M1188 469C1191.68 482.047 1201.9 488.277 1214 494C1218.34 488.237 1222.72 484.476 1220 477L1208 481C1208.85 471.253 1219.32 468.405 1213 458L1188 469M1204 569L1202 573C1193.24 569.533 1187.05 575.895 1182 583C1188.13 585.884 1189.13 582.841 1194.71 580.823C1202.2 578.117 1205.3 580.09 1211 572L1204 569z"/>
</svg>
