<?xml version="1.0" standalone="yes"?>
<svg xmlns="http://www.w3.org/2000/svg" width="1450" height="1128">
<path style="fill:#010101; stroke:none;" d="M0 0L0 1128L1450 1128L1450 0L0 0z"/>
<path style="fill:#ffffff; stroke:none;" d="M724 584C724.056 590.708 727.476 601.711 722.4 607.363C719.494 610.599 714.534 611.441 711.3 614.39C708.486 616.957 706.676 620.831 702.961 622.292C697.239 624.543 693.221 618.32 688.001 617.279C675.499 614.786 677.03 630.322 678 638C667.761 638.689 669.624 631.472 662.895 625.904C656.558 620.66 646.993 619.544 639.001 620.044C632.298 620.463 631.522 625.693 626.895 629.363C619.246 635.428 611.029 634.442 605.915 644C603.033 649.387 603.257 660.362 597.772 663.686C587.34 670.009 563.845 667.124 557.908 681.213C552.51 694.026 572.281 700.812 569 713C575.908 710.095 581.614 704.96 589 702.927C596.219 700.939 602.85 702.56 610 701.571C614.937 700.888 623.22 697.758 627.91 700.067C638.297 705.181 638.77 717.954 652 720.877C663.319 723.377 675.406 711.231 685.852 716.657C693.866 720.819 683.196 736.13 693.213 739.223C698.685 740.913 707.434 736.095 713 735.3C720.018 734.297 738.363 740.001 742.972 733.427C745.229 730.209 744 723.755 744 720L745 720L748 729L749 729L747.252 708L750.971 696L746.059 683L751.83 633L752 597C747.274 597.387 741.567 601.175 737.105 600.549C731.677 599.788 728.451 588.199 726 584L724 584z"/>
</svg>
