<?xml version="1.0" standalone="yes"?>
<svg xmlns="http://www.w3.org/2000/svg" width="1450" height="1128">
<path style="fill:#010101; stroke:none;" d="M0 0L0 1128L1450 1128L1450 0L0 0z"/>
<path style="fill:#ffffff; stroke:none;" d="M217 777C212.336 782.979 205.721 785.377 200.289 790.379C190.365 799.518 179.271 817.676 176.39 831C172.468 849.144 177.262 875.019 184.13 892C186.17 897.044 190.496 900.721 192.058 906C195.01 915.98 192.6 928.775 198.228 937.895C201.932 943.897 210.132 947.032 214.625 953C218.177 957.719 221.414 964.498 226.325 967.914C230.715 970.969 236.446 972.004 241 974.966C247.906 979.458 251.151 984.119 260 981.845C277.78 977.275 288.061 960.854 303 950.439C309.832 945.676 319.18 943.484 324.61 936.957C332.003 928.069 334.536 915.763 342.518 907.214C350.602 898.555 365.179 900.828 373.711 893.57C376.415 891.269 378.503 888.08 380.204 885C382.406 881.016 386.851 874.761 385.817 870.019C384.608 864.473 379.415 865.206 375 864.572C364.132 863.01 354.891 862.775 344 863L343 870C327.34 872.021 316.916 860.85 303 855C304.628 851.518 308.815 846.93 308.701 843C308.601 839.512 305.009 836.33 303.928 833C300.256 821.686 298.82 814.474 291.965 804.896C290.099 802.288 289.213 798.313 285.787 797.319C274.931 794.169 266.753 803.591 257 804.729C253.174 805.176 250.505 802.352 247 801.429C233.212 797.8 222.14 792.175 219 777L217 777z"/>
<path style="fill:#010101; stroke:none;" d="M189 874L188 890C206.068 891.391 201.129 914.966 204.966 926C206.989 931.819 210.744 933.78 214.306 938.223C218.065 942.913 220.057 948.883 223.414 953.771C228.037 960.503 235.286 950.322 240 958L250 952L249 943L252 945C255.472 939.664 255.777 936.18 255 930C245.521 933.77 243.172 928.41 235.91 923.606C229.691 919.492 223.119 920.038 217.966 912.895C213.492 906.693 210.891 898.353 209.13 891C208.274 887.421 208.656 882.266 206.258 879.314C203.024 875.333 193.784 874.987 189 874z"/>
</svg>
