<?xml version="1.0" standalone="yes"?>
<svg xmlns="http://www.w3.org/2000/svg" width="1450" height="1128">
<path style="fill:#010101; stroke:none;" d="M0 0L0 1128L1450 1128L1450 0L0 0z"/>
<path style="fill:#ffffff; stroke:none;" d="M360 961C364.775 973.223 381.037 980.218 388.643 991C391.995 995.752 388.444 1000.83 389.677 1006C393.452 1021.82 408.275 1036.27 425 1037L426 1042L445 1042C441.419 1033.53 427.276 1026.94 419 1023C422.808 1016.71 420.354 1011.85 420.495 1005C420.601 999.85 423.132 995.226 421.272 990C415.142 972.772 403.559 973.844 389 969.699C378.908 966.826 370.517 962.954 360 961M447 1047L450 1050L447 1047z"/>
</svg>
