<?xml version="1.0" standalone="yes"?>
<svg xmlns="http://www.w3.org/2000/svg" width="1450" height="1128">
<path style="fill:#010101; stroke:none;" d="M0 0L0 1128L1450 1128L1450 0L0 0z"/>
<path style="fill:#ffffff; stroke:none;" d="M250 983C253.771 992.086 254.527 1003.22 256.242 1013C256.875 1016.61 255.997 1022.51 258.603 1025.35C264.385 1031.63 286.514 1030.75 295 1032.87C310.053 1036.63 323.366 1050.35 338 1052.52C346.314 1053.76 356.801 1049.68 365 1048.25C368.063 1047.72 372.814 1047.73 375.062 1045.26C379.617 1040.26 379.025 1032.58 386.015 1028.77C389.85 1026.68 394.808 1029.06 399 1028C395.91 1020.58 390.286 1012.96 388.807 1005C388.012 1000.72 390.802 996.098 388.933 992C386.819 987.366 381.544 983.538 378 980C367.71 969.727 357.054 958.818 344 952.248C337.564 949.009 325.321 940.885 318 943.009C306.943 946.218 293.601 955.693 285.326 963.518C274.527 973.728 267.558 985.895 250 983z"/>
</svg>
