<?xml version="1.0" standalone="yes"?>
<svg xmlns="http://www.w3.org/2000/svg" width="1450" height="1128">
<path style="fill:#010101; stroke:none;" d="M0 0L0 1128L1450 1128L1450 0L0 0z"/>
<path style="fill:#ffffff; stroke:none;" d="M965 146C962.274 153.666 967.51 160.528 963.161 168C959.29 174.648 952.18 182.815 945.985 187.363C941.85 190.399 935.259 191.55 932.569 196.213C928.697 202.923 936.216 214.541 927.992 217.683C923.411 219.433 917.688 216.021 914 213.652C899.517 204.348 887.435 170.962 870.444 195.015C868.308 198.038 866.916 201.307 866.458 205C864.842 218.049 879.893 217.233 888 221.248C909.396 231.843 925.554 253.602 942.895 269.464C946.915 273.141 948.755 282.687 954.105 284.292C972.393 289.778 972.011 257.966 977.179 249.144C981.305 242.101 1002.14 242.686 1009 244.637C1016.79 246.853 1017.76 252.188 1022.64 257.471C1026.57 261.725 1031.89 264.727 1035.96 269C1041.67 274.99 1044.85 281.69 1053 284.881C1058.14 286.892 1064.49 289.667 1070 289.956C1075.67 290.254 1081.41 288.053 1087 289.637C1093.69 291.533 1100.19 299.063 1107 299.258C1111.38 299.383 1115.67 297.015 1120 296.553C1125.6 295.956 1131.43 298.317 1137 298.829C1146.92 299.742 1153.01 297.859 1161.98 304.105C1174.31 312.687 1158.29 325.421 1159.85 335.996C1160.95 343.491 1171.85 346.242 1178 348C1185.45 338.448 1193.75 340.428 1199.7 351.093C1212.86 374.703 1229.48 397.73 1240 423L1249 419L1240 399L1255 393L1246 400L1253 415C1257.15 413.806 1265.62 411.53 1267.93 407.606C1273.05 398.915 1262.44 388.031 1270 379L1275 404C1280.76 401.604 1290.6 398.983 1294.39 393.787C1301.55 383.999 1288.58 381.173 1282 382L1305 359L1301 350C1310.9 351.92 1317.37 349.931 1322 340C1316.31 338.076 1310 334.02 1304 333.564C1300.54 333.301 1297.48 335.533 1294 334.824C1289.01 333.807 1285.42 329.861 1280 330.507C1263.71 332.451 1242.85 348.21 1227.32 336.861C1218.47 330.395 1230.67 319.459 1227.18 313.133C1222.26 304.19 1202.85 307.411 1195.64 299.606C1184.58 287.64 1188.83 267.286 1178.3 255.609C1170.39 246.843 1156.62 243.7 1147 237.251C1137.39 230.806 1129.87 221.253 1120 215.352C1098.53 202.515 1074.51 196.836 1052 186.688C1041.67 182.03 1040.05 171.439 1030.98 166.434C1024.27 162.724 1013.56 164.171 1006 161.78C992.344 157.463 978.79 149.239 965 146M1324 343L1314 351L1328 381L1334 380L1330 388L1335 390L1354 366L1324 343M1308 359C1304.74 362.401 1298.87 367.21 1297.93 372C1295.03 386.684 1309.06 388.999 1319 384C1317.75 374.716 1314.19 366.1 1308 359M1246 432L1259 460L1282 449C1280.8 443.802 1274.97 434.039 1278.49 429.204C1283.74 421.981 1297.82 437.151 1295 421L1309 416L1311 421L1337 409L1337 400L1315 397.688L1281 417.08L1271 419.005L1246 432z"/>
</svg>
