<?xml version="1.0" standalone="yes"?>
<svg xmlns="http://www.w3.org/2000/svg" width="1450" height="1128">
<path style="fill:#010101; stroke:none;" d="M0 0L0 1128L1450 1128L1450 0L0 0z"/>
<path style="fill:#ffffff; stroke:none;" d="M931 661C934.28 661.808 938.825 661.824 941.57 663.938C944.642 666.305 944.113 670.709 946.14 673.726C949.742 679.088 963.014 684.52 961.172 692.895C960.41 696.36 955.633 697.849 953 699.547C947.559 703.056 941.591 707.406 937.303 712.286C933.265 716.88 934.282 723.441 932.699 729C930.605 736.355 925.933 742.955 923 750C928.129 752.454 932.651 750.602 938 751.673C949.342 753.943 964.238 760.412 976 757.448C983.018 755.679 984.254 746.426 991.015 745.588C999.122 744.583 1010.74 753.072 1011 761C1018.36 757.56 1028.46 752.79 1034.49 747.363C1046.04 736.958 1054.32 724.941 1069 718L1062.49 699.434L1049.09 695.972L1035 679C1016.71 690.456 1012.02 662.187 1001 654C989.8 674.871 971.741 656.847 956 651.975C944.841 648.52 934.937 647.373 931 661z"/>
</svg>
