<?xml version="1.0" standalone="yes"?>
<svg xmlns="http://www.w3.org/2000/svg" width="1450" height="1128">
<path style="fill:#010101; stroke:none;" d="M0 0L0 1128L1450 1128L1450 0L0 0z"/>
<path style="fill:#ffffff; stroke:none;" d="M711 381C712.059 389.2 718.413 403.384 710.486 410.292C707.647 412.767 704.527 410.815 702 408.966C697.035 405.333 692.779 401.547 687 399.207C682.094 397.22 674.374 396.191 670.589 392.301C664.139 385.672 666.111 371.996 653.996 369.573C642.698 367.312 637.319 377.332 629 382.062C623.336 385.282 616.033 384.951 610 388C613.493 401.204 617.705 417.272 624.995 429C630.718 438.207 643.385 440.932 644.124 453C644.318 456.159 642.86 458.95 642.329 462C641.877 464.594 642.308 467.515 640.972 469.891C637.996 475.184 628.305 476.007 623 477.659C613.86 480.504 607.924 476.347 599 476.347C593.211 476.347 587.903 479.24 582 478.907C571.639 478.321 566.424 474.741 557 480.576C553.362 482.828 546.483 485.296 544.603 489.379C541.18 496.815 545.651 511.876 546 520C554.969 515.372 561.065 504.909 571 502.255C583.426 498.936 598.374 506.287 610 509.971C615.123 511.595 621.196 511.919 626 514.314C629.92 516.269 632.422 520.02 636 522.436C638.954 524.43 642.876 524.337 645.621 526.589C652.164 531.956 654.827 539.816 663 544.106C671.162 548.389 678.969 538.008 687 538.508C695.372 539.029 707.778 558.351 712 565C704.658 568.476 698.471 576.924 708.301 582.686C712.399 585.088 718.395 585.132 723 586L724 582L737.105 599.627L752 596C753.24 586.192 749.722 577.558 750.209 568C750.749 557.42 756.012 545.154 755.407 535C754.885 526.252 751.029 517.965 751.029 509C751.029 492.772 763.714 482.034 763.945 466C764.124 453.563 754.044 442.73 751.24 431C749.611 424.186 752.45 418.696 752.909 412C753.799 399.008 750.733 388.599 742.286 379C739.455 375.784 735.035 368.555 730 369.404C723.563 370.488 716.697 377.828 711 381z"/>
</svg>
