<?xml version="1.0" standalone="yes"?>
<svg xmlns="http://www.w3.org/2000/svg" width="1450" height="1128">
<path style="fill:#010101; stroke:none;" d="M0 0L0 1128L1450 1128L1450 0L0 0z"/>
<path style="fill:#ffffff; stroke:none;" d="M91 588C109.721 587.845 129.368 587.822 148 585.826C160.686 584.467 170.032 580.513 183 581.831C191.296 582.674 206.05 579.781 211.262 587.019C216.207 593.888 211.318 607.698 212.104 616C212.701 622.308 216.494 627.883 217.96 634C220.913 646.321 222.211 659.437 223.715 672C224.905 681.948 224.647 699.187 236.015 703.589C248.331 708.358 257.89 695.125 265.174 688.213C269.497 684.11 274.934 683.446 279.91 680.698C282.912 679.04 284.743 675.828 288.015 674.603C295.918 671.646 301.521 679.669 309 679.941C317.936 680.267 326.303 677.097 335 675.993C339.423 675.432 342.722 678.466 347 678.486C353.012 678.514 361.391 673.547 367 671.401C374.19 668.649 386.551 656.079 389.633 648.999C392.997 641.268 389.979 634.015 399 630L399 628C386.209 622.302 379.29 615.533 368.826 606.76C365.076 603.616 359.433 601.382 357.028 596.91C351.961 587.49 361.168 576.627 362.046 568C362.551 563.042 357.606 559.223 358.434 554C361.244 536.262 378.411 528.438 390.722 517.363C394.499 513.965 394.282 507.727 398.39 504.643C402.992 501.188 412.754 505.364 418 505.623C427.11 506.074 435.98 501.582 441.892 494.999C456.314 478.943 442.221 462.477 449 445C442.544 445.816 435.082 446.806 429 443.684C422.198 440.192 417.397 432.728 409 432.535C397.751 432.278 395.731 443.583 387.826 448.223C383.825 450.572 366.233 447.264 362.09 444.976C354.302 440.674 350.507 429.896 343 424.649C336.247 419.929 326.237 420.009 320.529 413.786C315.302 408.089 309.972 391.679 300.961 391.438C295.246 391.284 280.515 393.184 277.164 398.278C273.953 403.16 274.777 409.97 271.298 414.961C267.417 420.527 260.918 424.171 256.286 429.089C251.836 433.816 248.215 440.7 242.83 444.393C238.862 447.114 234.228 444.116 230 445.992C219.74 450.546 207.504 455.615 198 461.954C192.759 465.45 188.688 471.2 183 473.976C177.09 476.861 169.352 474.23 163 476.439C151.751 480.351 145.164 487.273 136 494.482C127.165 501.432 118.066 506.011 112.13 516C104.641 528.6 111.649 543.67 107.397 556C102.969 568.837 91.3164 572.671 91 588z"/>
</svg>
