<?xml version="1.0" standalone="yes"?>
<svg xmlns="http://www.w3.org/2000/svg" width="1450" height="1128">
<path style="fill:#010101; stroke:none;" d="M0 0L0 1128L1450 1128L1450 0L0 0z"/>
<path style="fill:#ffffff; stroke:none;" d="M569 328C562.017 332.15 557.42 341.544 550 344.238C544.499 346.235 537.971 340.117 532.688 344.603C528.427 348.221 531.304 353.693 528.475 358C525.582 362.403 522.435 368.873 518.772 372.536C514.787 376.523 509.241 378.902 505.649 383.3C503.091 386.432 502.49 390.695 499.606 393.61C495.86 397.396 490.132 398.797 486 402.198C471.835 413.856 456.525 430.071 448.866 447C443.832 458.127 449.766 461.722 450.603 472C451.136 478.555 448.037 484.979 446 491C462.584 491 474.521 500.726 491.91 496.022C496.912 494.668 498.851 489.609 502.3 486.214C506.316 482.261 514.391 479.01 520 478.418C529.995 477.364 535.688 486.221 544 486.748C551.253 487.208 558.112 477.642 564.83 475.691C572.566 473.443 583.141 478.961 592 476.87C600.622 474.834 606.624 478.656 615 478.653C619.74 478.651 624.506 476.43 629 475.141C632.298 474.196 637.896 473.635 639.972 470.57C641.926 467.686 643.122 458.569 643.448 455C644.62 442.145 630.919 437.972 624.649 429C618.461 420.145 618.438 407.589 611.363 399.213C607.42 394.546 600.833 393.734 596 390.351C586.611 383.778 578.095 373.466 571.749 364C563.042 351.012 574.129 340.229 569 328z"/>
</svg>
