<?xml version="1.0" standalone="yes"?>
<svg xmlns="http://www.w3.org/2000/svg" width="1450" height="1128">
<path style="fill:#010101; stroke:none;" d="M0 0L0 1128L1450 1128L1450 0L0 0z"/>
<path style="fill:#ffffff; stroke:none;" d="M611 397L609 388C615.595 384.939 623.934 384.51 630 381.062C637.908 376.566 645.022 364.502 655.985 369.587C665.942 374.205 665.022 385.946 671.564 392.182C676.913 397.28 686.772 397.579 693 401.785C696.757 404.323 702.886 411.968 707.891 410.979C719.159 408.754 709.733 388.789 711.042 383.093C712.451 376.966 725.831 370.878 731 368C722.134 358.959 710.503 353.144 700 346.305C694.442 342.686 689.089 337.419 683 334.754C677.555 332.37 673.506 338.748 668 335.303C657.09 328.478 649.995 308.524 636 308.02C623.147 307.557 622.442 323.033 611.985 325.067C603.042 326.807 594.738 314.958 584 318.728C573.518 322.409 572.217 328.647 570.112 338C563.827 365.928 586.705 386.885 611 397z"/>
</svg>
