<?xml version="1.0" standalone="yes"?>
<svg xmlns="http://www.w3.org/2000/svg" width="1450" height="1128">
<path style="fill:#010101; stroke:none;" d="M0 0L0 1128L1450 1128L1450 0L0 0z"/>
<path style="fill:#ffffff; stroke:none;" d="M1035 786C1037.16 797.444 1040.75 808.6 1034 819C1045.68 823.861 1047.35 829.57 1051 841L1047 843C1053.64 848.256 1058.23 841.862 1065 840.39C1079.68 837.199 1097.2 839.051 1110 830C1114.82 846.666 1141.82 836.086 1144.18 822C1145.63 813.293 1136.58 810.854 1131 806.999C1120.28 799.587 1118.08 803.708 1107 804.146C1097.16 804.534 1085 802.742 1076 799C1081.53 792.428 1090.9 789.897 1099 793C1101.61 783.695 1097.79 773.672 1086 776.792C1075.77 779.498 1069.89 790.448 1059 792.621C1050.32 794.354 1042.68 789.192 1035 786z"/>
</svg>
