<?xml version="1.0" standalone="yes"?>
<svg xmlns="http://www.w3.org/2000/svg" width="1450" height="1128">
<path style="fill:#010101; stroke:none;" d="M0 0L0 1128L1450 1128L1450 0L0 0z"/>
<path style="fill:#ffffff; stroke:none;" d="M304 390C308.216 397.302 315.608 409.95 322.329 415.005C328.387 419.563 336.914 419.676 343 424.394C349.866 429.716 353.756 438.223 360.464 443.397C364.532 446.536 380.801 448.976 385.91 448.382C395.171 447.304 397.192 431.735 409 431.897C422.414 432.08 434.072 453.781 449.535 443.062C459.406 436.219 466.489 420.84 475.039 412.004C482.24 404.563 492.46 400.412 499.351 393.363C502.732 389.904 503.385 384.864 507.105 381.464C510.908 377.987 516.055 375.616 519.273 371.536C522.309 367.687 527.547 360.56 529.064 356.001C530.701 351.083 528.183 347.347 533.302 343.6C539.15 339.318 545.176 346.148 550.996 343.473C563.318 337.809 571.676 318.985 587 317.317C595.919 316.346 605.386 326.616 612.911 324.303C620.647 321.925 623.15 310.495 631 307.603C646.368 301.942 657 328.769 668 334.975C673.545 338.104 677.291 331.704 682.286 333.863C688.607 336.595 694.19 342.247 700 345.946C716.826 356.658 743.168 370.434 751.121 390C755.693 401.247 753.331 413.706 751 425L784 412.21L795.363 408.146L802.695 396L819 375C821.513 380.046 827.485 390.796 833.17 392.582C837.14 393.829 843.822 388.943 847 386.91C858.53 379.534 868.383 375.76 881 371C876.943 360.539 870.508 354.338 865.086 345C860.03 336.295 858.367 328.656 850.911 321.04C844.524 314.518 835.753 310.927 829.185 304.674C822.534 298.343 819.568 288.821 812.7 282.518C806.563 276.886 798.685 276.554 792 272.236C770.418 258.296 752.111 242.871 727 235.439C713.356 231.401 697.207 228 683 227.09C671.61 226.361 661.44 228.131 650 225.076C639.208 222.195 631.102 212.771 621 210.239C605.094 206.252 598.511 218.523 585 222.487C578.352 224.438 568.797 221.216 563 217.918C544.822 207.577 533.635 187.463 525.313 169C521.411 160.342 520.907 148.03 512.482 141.938C500.974 133.617 488.871 145.315 478 147.609C471.24 149.035 465.252 144.826 460.004 141.099C447.819 132.446 452.736 121.572 445.558 111.318C442.775 107.342 435.179 109.197 431 108.911C417.144 107.961 410.338 100.571 398.04 110.155C391.208 115.479 382.752 127.762 384.727 137C386.2 143.892 390.668 149.888 392.097 157C393.884 165.892 391.355 174.685 393.424 184C396.241 196.677 403.235 208.009 404.56 221C405.822 233.378 390.47 237.642 389.164 248.004C388.465 253.546 392.661 257.985 394.225 263C396.753 271.107 398.209 281.562 396.775 290C394.707 302.172 380.497 307.518 375.248 318C370.587 327.308 375.607 336.483 371.467 346C366.012 358.539 344.555 379.064 332 384.581C323.975 388.107 312.663 388.019 304 390z"/>
</svg>
