<?xml version="1.0" standalone="yes"?>
<svg xmlns="http://www.w3.org/2000/svg" width="1450" height="1128">
<path style="fill:#010101; stroke:none;" d="M0 0L0 1128L1450 1128L1450 0L0 0z"/>
<path style="fill:#ffffff; stroke:none;" d="M450 642C449.681 646.041 447.396 652.847 450.028 656.437C452.895 660.348 458.406 661.329 461.452 666.001C463.793 669.591 465.777 676.914 471.015 677.11C474.994 677.258 478.059 672.728 481 670.638C486.95 666.411 494.698 663.773 501.039 660.084C507.606 656.264 517.509 655.108 517 665C526.316 666.177 536.6 668.89 546 667.892C551.06 667.355 554.76 663.53 560 663.859C571.606 664.586 586.774 670.236 597.697 662.836C604.208 658.424 604.149 643.618 610.465 637.225C617.187 630.42 627.774 632.765 631 622C616.107 616.072 605.695 608.059 589 614.467C584.531 616.182 577.55 621.951 574.013 615.782C568.053 605.387 583.775 597.282 581.912 588C579.398 575.47 569.033 568.08 562.599 558C559.836 553.673 560.368 548.333 557.278 544C553.584 538.821 547.388 534.276 545.514 528C540.98 512.817 551.489 486.132 531 480.606C522.006 478.18 510.756 479.571 503.3 485.649C499.184 489.005 497.276 494.994 491.961 496.772C486.659 498.544 476.399 499.748 471 498.348C462.718 496.2 457.214 490.716 448 492.148C441.239 493.199 437.987 500.622 432 503.348C424.983 506.543 418.624 505.329 415.905 514.001C412.376 525.257 420.048 529.359 422.57 539C425.022 548.372 421.161 558.502 422.285 568C423.3 576.571 429.366 584.68 429.412 593C429.438 597.617 425.121 599.981 423.6 604C421.117 610.557 420.907 621.473 423.475 628C428.475 640.713 437.992 642.948 450 642z"/>
</svg>
