<?xml version="1.0" standalone="yes"?>
<svg xmlns="http://www.w3.org/2000/svg" width="1450" height="1128">
<path style="fill:#010101; stroke:none;" d="M0 0L0 1128L1450 1128L1450 0L0 0z"/>
<path style="fill:#ffffff; stroke:none;" d="M818 376L795.61 408.487L783 413.21L751 426C752.753 435.035 756.802 442.534 760.2 451C761.384 453.95 762.452 459.191 765.418 460.883C771.102 464.124 783.138 457.201 789 456.004C799.292 453.902 804.47 458.955 814 459.408C821.167 459.749 835.715 453.522 840.096 447.957C845.65 440.904 842.109 432.997 840.611 425C836.962 405.526 832.681 390.397 818 376z"/>
</svg>
