<?xml version="1.0" standalone="yes"?>
<svg xmlns="http://www.w3.org/2000/svg" width="1450" height="1128">
<path style="fill:#010101; stroke:none;" d="M0 0L0 1128L1450 1128L1450 0L0 0z"/>
<path style="fill:#ffffff; stroke:none;" d="M1013 771L1020 769L1021 778L1037 772L1043 782L1036 785C1045.29 792.671 1058.58 794.274 1069 788.021C1074.75 784.57 1079.5 778.355 1086 776.255C1099.05 772.043 1101.22 784.893 1100 794C1092.79 791.082 1081.49 791.811 1077 799C1084.57 802.084 1110.42 807.307 1115.97 799.363C1122.28 790.334 1112.95 779.694 1110.56 772C1109.18 767.564 1109.42 762.338 1106.86 758.3C1105.05 755.441 1101.88 753.814 1100.09 750.91C1097.7 747.045 1098.61 740.975 1095.82 737.607C1093.63 734.949 1088.08 736.951 1085 736.081C1076.41 733.653 1072.37 727.219 1070 719C1053.51 722.189 1045.58 738.787 1033.82 748.363C1024.9 755.62 1009.55 756.513 1013 771z"/>
</svg>
