<?xml version="1.0" standalone="yes"?>
<svg xmlns="http://www.w3.org/2000/svg" width="1450" height="1128">
<path style="fill:#010101; stroke:none;" d="M0 0L0 1128L1450 1128L1450 0L0 0z"/>
<path style="fill:#ffffff; stroke:none;" d="M1142 709L1134 722L1133 722L1131 719L1130 719C1119.8 729.193 1109.68 730.541 1097 736C1097.95 741.051 1098.17 747.317 1101.09 751.7C1103.18 754.834 1106.68 756.544 1108.35 760.039C1111.76 767.2 1113.49 774.782 1116.98 782C1119.42 787.07 1116.01 793.886 1119.03 798.61C1124.62 807.378 1141.84 806.932 1144.53 818.004C1148.28 833.408 1116.91 848.416 1110 832C1099.9 834.592 1089.34 839.211 1079 840.787C1069.51 842.235 1061.78 839.714 1054 847L1070 856L1069 860C1079.65 861.682 1077.84 876.383 1087 881L1084 904C1095.29 897.608 1098.84 899.617 1110.01 904.448C1113.28 905.858 1119.07 907.606 1120.54 911.213C1121.51 913.592 1120.07 915.957 1118.96 918C1113.65 927.776 1108.13 925.093 1099 923L1088 931L1090 939C1072.86 941.378 1092.5 956.939 1099.98 955.623C1104.88 954.759 1107.78 948.336 1111.17 945.225C1115.18 941.539 1120.44 941.706 1124.83 938.911C1128.21 936.757 1129.93 932.878 1133.17 930.603C1137.16 927.81 1142.5 929.535 1147 928.775C1151.61 927.997 1155.72 924.792 1160 923L1176 951C1188.52 941.783 1198.16 930.151 1214 925.924C1223.58 923.365 1234.27 921.261 1244 919.601C1252.81 918.099 1255.22 921.38 1263 914L1263 913C1258.79 908.63 1255.64 909.556 1250 910L1252 904L1248 904C1248.02 897.099 1250.18 893.877 1255 889C1256.05 892.479 1261.56 900.433 1265.82 895.382C1268.27 892.483 1268.29 885.672 1269 882C1260.23 876.509 1256.13 868.596 1253 859L1254 859C1260.06 871.434 1275.39 869.019 1276 855L1294 845C1291.9 833.492 1277.71 831.303 1272 823C1260.74 826.663 1255.2 823.922 1244 823.213C1238.32 822.853 1232.7 825.099 1227 824.532C1215.13 823.352 1205.52 816.912 1195 812L1198 802L1187 783L1198 779C1197.14 774.584 1196.94 770.858 1192 770L1193 764C1185.13 759.812 1181.78 758.818 1173 760C1174.64 769.263 1176.45 773.432 1166 777L1169 790L1154.65 780.436L1143 765C1136.77 771.561 1131.01 765.838 1129 759C1141.23 760.511 1142.63 754.381 1136 745C1146.41 748.553 1147.79 734.8 1146 727L1168 720L1167 713L1142 709z"/>
<path style="fill:#010101; stroke:none;" d="M1135 744L1136 745L1135 744z"/>
<path style="fill:#ffffff; stroke:none;" d="M1157 750L1155 757L1150 754C1149.1 760.687 1148.43 763.95 1152 770C1156.96 767.562 1157.94 765.36 1157 760L1161 763C1163.32 757.148 1163.06 753.083 1157 750z"/>
</svg>
