<?xml version="1.0" standalone="yes"?>
<svg xmlns="http://www.w3.org/2000/svg" width="1450" height="1128">
<path style="fill:#010101; stroke:none;" d="M0 0L0 1128L1450 1128L1450 0L0 0z"/>
<path style="fill:#ffffff; stroke:none;" d="M449 658C449 680.062 422.583 687.673 406 698C410.549 708.942 416.627 738.632 432 739.191C438.07 739.412 451.194 732.68 454.648 727.787C458.456 722.392 463.453 709.688 471.985 710.407C476.881 710.82 480.703 718.311 483 722L484 722C494.921 703.671 483.802 691.373 480 673C476.999 674.38 473.534 678.063 470.043 677.534C465.097 676.784 463.309 669.615 461.073 666.005C457.998 661.04 454.391 659.535 449 658z"/>
</svg>
