<?xml version="1.0" standalone="yes"?>
<svg xmlns="http://www.w3.org/2000/svg" width="1450" height="1128">
<path style="fill:#010101; stroke:none;" d="M0 0L0 1128L1450 1128L1450 0L0 0z"/>
<path style="fill:#ffffff; stroke:none;" d="M857 540C859.688 546.249 866.791 546.765 869.972 552.21C877.529 565.146 857.371 570.354 849 570C848.998 567.362 849.19 564.592 848.606 562C844.25 542.647 824.681 558.654 813 554C807.749 563.226 805.364 581.119 795.79 586.987C790.907 589.979 784.279 588.667 779 588L786.637 602.698L793.397 608.228L798 627C807.638 620.21 815.594 609.982 828.999 616.14C840.138 621.257 831.733 628.856 835.988 636.405C838.302 640.51 843.048 642.57 845.006 647.019C849.315 656.808 847.019 667.78 848.108 678C848.847 684.939 853.834 690.809 854.685 698C855.791 707.344 852.737 717.659 852 727C865.126 727.11 887.451 732.58 898 740.379C901.436 742.919 909.53 747.803 908.789 752.895C908.182 757.061 901.145 759.165 898 761C902.567 768.3 909.967 764.608 917 763C915.899 760.184 913.264 756.41 915.047 753.394C916.613 750.744 920.219 750.325 922.363 748.301C925.968 744.897 928.204 738.47 930.204 734C933.614 726.382 931.669 717.415 938.058 711.286C942.255 707.259 960.719 697.489 960.627 691.895C960.471 682.345 949.257 680.203 945.303 673.775C942.985 670.007 943.885 665.235 938.942 663.558C932.298 661.304 918.398 662.428 914.304 655.772C908.002 645.526 923.057 639.61 921.753 630C920.067 617.572 904.838 607.179 900.548 595C895.117 579.583 905.455 563.717 896.529 549.831C895.26 547.856 894.82 544.736 892.567 543.603C887.299 540.955 878.775 543.668 873 542.787C866.932 541.862 863.211 537.333 857 540z"/>
</svg>
