<?xml version="1.0" standalone="yes"?>
<svg xmlns="http://www.w3.org/2000/svg" width="1450" height="1128">
<path style="fill:#010101; stroke:none;" d="M0 0L0 1128L1450 1128L1450 0L0 0z"/>
<path style="fill:#ffffff; stroke:none;" d="M804 572C807.408 567.445 807.786 557.973 812.928 554.993C815.398 553.562 819.114 555.796 822 555.002C836.453 551.029 849.818 548.674 850 569C859.031 570.135 875.175 564.917 869.397 552.379C866.698 546.523 858.698 545.73 856 539C865.984 535.332 860.865 519.173 861.005 511C861.236 497.457 880.268 482.748 861.995 471.245C837.577 455.874 802.375 477.023 799.563 504C798.454 514.646 806.632 525.288 806.235 536C805.76 548.839 800.039 558.726 804 572z"/>
</svg>
