<?xml version="1.0" standalone="yes"?>
<svg xmlns="http://www.w3.org/2000/svg" width="1450" height="1403">
<path style="fill:#010101; stroke:none;" d="M0 0L0 1403L1450 1403L1450 0L0 0z"/>
<path style="fill:#ffffff; stroke:none;" d="M720 581L715 582C718.845 593.816 718.93 601.991 733 602L738 617L730 619C731.145 624.54 735.118 626.716 740 629C735.729 638.281 745.69 640.041 749.772 647.001C754.154 654.473 754.073 663.459 759 671C769.335 665.798 777.892 664.504 789 666C789.001 674.419 788.817 688.801 798 692C797.031 697.484 799.055 711.887 802.179 716.581C807.22 724.157 814.186 718.926 811 731L812 732C820.415 730.27 837.47 728.941 842.566 738.214C845.892 744.264 843.879 753.294 846 760L863.213 739.637L883.583 723.945L890 695C883.455 693.577 858.776 694.413 866 681L866 680L860 673L872.292 669.64L870.951 649.859L883.999 643.896L897.105 631.333L916 633L913.758 620L914.817 605.015L905.105 596.363L898.61 589.303L881.133 582.034L867.536 567.938L847 561.191L825 565C828.044 554.193 830.348 547.31 820 540L819 543C807.63 538.266 798.472 540.433 787 537.581C782.958 536.576 779.382 532.379 775 534.234C763.849 538.953 758.532 550.955 748 556.015C740.858 559.447 732.69 556.869 726.214 559.607C719.594 562.407 718.235 575.272 720 581z"/>
</svg>
