<?xml version="1.0" standalone="yes"?>
<svg xmlns="http://www.w3.org/2000/svg" width="1450" height="1403">
<path style="fill:#010101; stroke:none;" d="M0 0L0 1403L1450 1403L1450 0L0 0z"/>
<path style="fill:#ffffff; stroke:none;" d="M220 900C220.686 913.402 206.741 901.811 201.812 909.318C198.642 914.147 205.261 918.212 205.451 922.464C205.831 930.927 200.022 935.863 197 943L191 943C192.167 955.296 173.942 965.861 164 970L167 974C157.959 972.397 149.35 976.579 141 979.677C122.915 986.385 97.5332 997.786 79 989C71.9672 996.73 60.6487 991.788 53 988L54.6373 1005L60.9066 1023L60.0324 1046.81L78.1103 1062L84.858 1098L93.1736 1106.98L106 1101.49L117 1097C113.908 1082.75 124.852 1092.45 131.335 1087.4C133.526 1085.69 134.903 1083.12 137.09 1081.39C145.98 1074.33 149.793 1087.63 156.299 1089.17C159.743 1089.98 162.444 1085.96 166 1086.44C170.308 1087.01 174.076 1091.34 178 1093.09C184.824 1096.16 191.216 1096.16 198 1100L203.43 1080.23L229 1070L234.513 1085.93L248 1089C244.73 1092.89 242.641 1095.89 244 1101L245 1101L249 1096C252.249 1111.8 242.911 1111.63 236.073 1123.02C233.765 1126.86 235.447 1142.92 237.573 1147C242.242 1155.96 254.886 1162.03 265 1159.69C269.04 1158.75 272.584 1153.92 276.996 1155.93C292.079 1162.83 280.943 1186.71 289.148 1196.68C293.849 1202.39 304.306 1194.16 309.153 1202.19C311.536 1206.14 307.042 1214.25 307 1219C321.168 1218.88 330.78 1202.67 345 1197.95C354.017 1194.97 354.577 1200.72 361.274 1203.36C364.043 1204.45 368.083 1203.13 371 1203C369.582 1195.82 364.948 1193.98 361.777 1188C360.025 1184.69 362.202 1181.45 361.476 1178.04C360.259 1172.33 352.779 1171.39 348 1171L354.976 1156.71L359.394 1142.39L381.961 1131.59L394.09 1119.09L409.525 1104L415.912 1085L420.342 1075.13L414 1071C414 1064.83 411.781 1055.68 414.013 1050C415.999 1044.95 421.763 1042.14 423.307 1037C425.378 1030.1 422.846 1025.02 427.015 1018C432.236 1009.21 437.859 1000.97 442.862 992C444.608 988.87 448.265 984.804 448.148 981.04C447.903 973.107 431.819 973.062 427.059 968.772C422.332 964.513 424.952 956.37 420.436 953.028C417.794 951.073 413.987 952.555 411.015 952.143C407.685 951.681 405.444 948.252 401.961 948.796C394.012 950.038 387.996 958.622 380 959.333C373.459 959.914 369.926 954.789 364.625 952.588C360.357 950.816 353.665 951.59 349 951C344.774 961.074 336.306 963.09 326 962L320 948L319 948C310.739 954.691 290.393 951.133 281.108 946.211C275.946 943.474 275.555 940.078 269 940C268.179 930.651 255.006 917.284 246 914.176C242.725 913.046 239.26 915.017 236.104 913.647C230.787 911.34 225.183 903.526 220 900z"/>
</svg>
