<?xml version="1.0" standalone="yes"?>
<svg xmlns="http://www.w3.org/2000/svg" width="1450" height="1403">
<path style="fill:#010101; stroke:none;" d="M0 0L0 1403L1450 1403L1450 0L0 0z"/>
<path style="fill:#ffffff; stroke:none;" d="M731 424L730 421L723 423L724 427L707 434C706.775 440.915 703.108 441.776 698.39 445.904C689.798 453.419 679.302 462.863 667 463C667.27 470.889 661.181 476.925 654 479C653.999 485.53 654.933 496.287 646 496C643.55 502.35 642.678 507.749 635 508C636.703 510.975 640.683 513.564 641.319 517.001C642.648 524.167 630.859 526.9 628 532C620.709 531.376 621.001 538.348 616.722 542.471C611.769 547.244 603.399 549.822 597 552L598 557C593.096 558.667 587.972 562.634 586.747 568C585.279 574.429 591.879 581.049 581 581C577.626 591.573 575.594 595.564 584 604L585 604L590 598L591 598L611.436 613.174L618.969 626.093L619.905 640L636 658L640 656C640.719 648.523 646.701 649.795 651.895 646.697C654.96 644.868 656.011 640.765 659.213 639.312C664.78 636.787 671.386 639.591 677 639.285C685.745 638.808 687.818 634.21 697 638L698 628C718.572 623.683 719.19 596.949 714 581L719 580C717.507 574.367 719.94 561.167 726.213 558.618C732.57 556.035 740.886 558.563 748 555.475C758.819 550.777 764.143 536.971 776 533.457C779.72 532.354 783.399 536.147 787 536.776C793.396 537.893 799.756 536.428 806 537.228C810.561 537.812 814.603 540.733 819 542L820 539C829.004 548.01 829.359 552.074 826 564C834.762 567.256 837.695 560.707 845.576 560.336C852.276 560.021 858.502 566.739 865.911 565.512C875.333 563.953 875.974 543.397 876 536C862.238 539.954 861.125 535.154 852.409 525.015C850.628 522.943 845.46 519.555 845.693 516.537C846.13 510.862 854.104 509.098 857.57 506.034C860.511 503.434 860.257 499.301 862.14 496.09C865.152 490.953 870.435 488.039 872.416 482C875.536 472.489 869.453 447.765 858.895 444.113C851.684 441.62 843.783 447.089 836 442.86C824.251 436.476 814.097 425.104 801 422L804.448 407L801 379C789.936 382.187 771.797 389.618 763.005 396.772C758.816 400.181 757.636 405.906 753.697 408.925C749.781 411.926 744.083 411.672 740.278 414.728C736.417 417.828 735.928 421.766 731 424z"/>
</svg>
