<?xml version="1.0" standalone="yes"?>
<svg xmlns="http://www.w3.org/2000/svg" width="1450" height="1403">
<path style="fill:#010101; stroke:none;" d="M0 0L0 1403L1450 1403L1450 0L0 0z"/>
<path style="fill:#ffffff; stroke:none;" d="M1226 37L1226 39L1233 40L1232 47L1237 51L1231 52L1237 56C1230.52 63.1239 1223.72 56.3794 1216 56.5486C1207.98 56.7244 1202.12 59.9274 1195 63L1195 65L1205 67C1203.83 75.4655 1197.03 84.7047 1188 85L1188 81C1175.52 82.9891 1179.46 92.681 1177 102L1148 95L1139.17 94.814L1130 99L1132 124L1090 126.015L1073 132L1080 180C1091.45 176.939 1102.61 172.231 1114 168.671C1118.05 167.404 1121.56 164.116 1126 164.315C1132.18 164.591 1137.03 169.666 1143 170.519C1151.3 171.704 1159.38 168.167 1168 171.148C1181.23 175.724 1181.39 185.27 1197 180C1194.42 199.788 1179.95 210.91 1161 207C1155.1 214.166 1147.85 210.533 1140.17 213.599C1136.36 215.119 1134.25 218.841 1130 219.721C1122.43 221.29 1113.13 219.39 1106 221.475C1098.53 223.661 1092.3 229.26 1085 231.446C1079.53 233.085 1072.38 232.773 1067.35 234.717C1064.57 235.791 1063.66 239.614 1061.61 241.582C1054.26 248.654 1051.42 248.788 1050 260L1056 261L1056 272C1064.16 274.112 1071.96 274.932 1080 272C1081.65 275.563 1085.16 280.301 1089.85 279.045C1092.8 278.256 1092.78 274.608 1095.31 273.363C1097.76 272.161 1105.11 272.282 1108 272.241C1116.53 272.122 1126.24 276.112 1135 276.826C1139.27 277.175 1142.9 274.814 1147 274.999C1151.37 275.197 1155.58 279.744 1159.89 279.006C1166.56 277.866 1167.14 267.111 1177 269.565C1182.11 270.836 1193.45 272.932 1194.59 279.04C1195.73 285.117 1191.6 290.665 1193.99 297C1197.03 305.031 1203.51 311.79 1208 319C1222.54 312.913 1227.98 300.548 1240 291.302C1245.69 286.927 1253.17 288.467 1259 284.025C1265.39 279.153 1268.23 269.123 1274.23 265.299C1278.98 262.273 1285.04 261.656 1290 259.096C1299.25 254.317 1304.98 243.764 1307 234C1302.3 229.321 1308.27 217.145 1310 211C1302.66 208.91 1296.94 204.854 1292 199L1286 202L1286 197L1268 199L1269 192L1255 194C1258.37 189.311 1256.16 183.746 1259.03 179.418C1261.29 175.998 1266.61 175.782 1269.7 173.301C1279.44 165.469 1267.31 157.485 1264 150L1268 149C1265.27 139.512 1259.83 132.328 1269.02 124.147C1272.23 121.289 1276.37 120.375 1279.14 116.941C1284.04 110.868 1282.63 104.563 1292 105L1291 110L1305 106C1308.37 109.859 1311.07 116.347 1316.7 111.566C1324.1 105.287 1330.08 96.9785 1339.04 92.2993C1344.96 89.2074 1351.68 90.5753 1358 89.5602C1372.13 87.29 1387.88 82.8156 1402 82.7546C1406.76 82.7341 1427.13 80.054 1427.13 74.0648C1427.13 65.9958 1405.06 65.8983 1400 63L1399 63L1390 62L1390 66L1365 65C1357.37 69.7355 1335.8 72.4611 1350 61L1337 59C1335.19 65.8073 1329.55 77.3994 1320.47 70.2277C1316.66 67.2174 1319.73 62.7456 1314 61L1314.18 74.4691L1309.91 74.7222L1294 77L1289 70C1286.26 75.2943 1278.18 82.6539 1271.74 76.382C1267.71 72.4548 1270.44 67.3478 1264 65L1264 63L1272 59L1272 58C1267.11 58.6588 1259.85 62.5214 1255.42 59.1389C1246.86 52.6075 1250.22 36.9589 1236 40C1234.33 34.8606 1230.46 35.4714 1226 37M1259 41C1255.39 44.4802 1254.59 47.1622 1256 52L1257 52L1259 41M1353 59C1356.21 60.332 1357.47 60.4174 1360 58L1353 59M1195 72L1196 75L1197 75L1197 72L1195 72M1313 132L1325 130L1320 121C1314.06 122.822 1314.04 126.442 1313 132M1291 134C1288.96 137.806 1284.87 146.535 1287.94 150.487C1290.15 153.33 1294.44 154.135 1297 157L1309 157L1312 140L1291 134z"/>
</svg>
