<?xml version="1.0" standalone="yes"?>
<svg xmlns="http://www.w3.org/2000/svg" width="1450" height="1403">
<path style="fill:#010101; stroke:none;" d="M0 0L0 1403L1450 1403L1450 0L0 0z"/>
<path style="fill:#ffffff; stroke:none;" d="M719 600C713.8 612.49 712.572 623.486 699 629L698 639L658 639C654.223 647.564 640.023 648.241 641 657L636 659C638.032 665.354 638.451 676.826 643.419 681.487C650.496 688.127 660.162 683.613 667.999 684.388C672.706 684.853 675.004 690.46 679.039 692.424C684.048 694.861 689.84 692.44 694.895 695.303C700.934 698.724 700.158 707.151 705.39 711.142C714.017 717.72 719.544 707.4 727 709.747C732.389 711.444 736.165 719.052 741.996 718.802C750.982 718.417 750.43 704.62 758.015 700.92C767.743 696.174 777.961 699.84 778 711C785.671 710.403 783.603 704.492 786.302 699C790.922 689.602 790.985 685.446 788.594 675C787.945 672.166 788.508 668.369 785.682 666.652C779.827 663.095 775.558 666.019 770 667.857C766.195 669.116 763.013 669.165 760 672L759 672C754.454 663.793 753.429 653.761 748.772 646.015C744.559 639.01 735.918 638.692 739 629C731.813 625.211 726.475 620.807 736 616L732 603L719 600z"/>
</svg>
