<?xml version="1.0" standalone="yes"?>
<svg xmlns="http://www.w3.org/2000/svg" width="1450" height="1403">
<path style="fill:#010101; stroke:none;" d="M0 0L0 1403L1450 1403L1450 0L0 0z"/>
<path style="fill:#ffffff; stroke:none;" d="M926 175L951 188C950.537 202.139 931.229 196.993 922 198.214C914.879 199.156 910.489 202.385 903 201L904 197L889 193L888 194L889 202C881.645 194.618 864.577 198.078 859 207L858 207L852 204L855 211L842 210L838 226C849.381 227.471 859.447 233.776 869 239.823C872.145 241.813 876.889 243.419 878.397 247.105C882.244 256.515 877.21 265.813 884 275C878.196 278.379 878.008 287.893 876.916 294C874.69 306.447 870.73 318.835 864.691 330C858.272 341.87 849.093 357.612 837 364.208C827.102 369.606 809.163 369.928 802.702 379.429C796.593 388.413 804.115 397.899 805.091 407C805.582 411.577 803.234 416.651 802 421C814.4 426.8 823.5 436.717 836 442.347C843.499 445.725 852.018 441.008 858.957 443.666C871.314 448.399 874 471.082 874 482C881.756 481.393 893.018 480.702 894 491L903 494L912 491C913.883 479.057 926.637 482.938 935 484C937.671 469.824 951.148 463.968 955.357 451C957.591 444.118 951.786 434.322 955.183 428.109C957.235 424.355 961.443 424.544 964.471 422.146C968.028 419.327 968.129 414.62 970.727 411.213C973.125 408.068 977.927 407.028 979.153 402.957C980.584 398.202 975.648 393.945 976.434 389C977.235 383.952 980.693 372.82 984.148 369.174C987.378 365.765 992.243 364.434 995.397 361.186C997.473 359.05 997.006 355.731 999.318 353.657C1005.19 348.384 1013.75 356.08 1019.55 351.142C1025.08 346.43 1015.18 340.564 1017.99 335.779C1019.68 332.914 1024.2 332.864 1026.96 331.759C1034.43 328.771 1041.38 324.596 1049 322C1045.47 306.961 1032.89 287.771 1056 281C1053.38 273.378 1059.84 262.764 1049 261C1049.55 256.635 1049.71 250.777 1052.56 247.214C1058.88 239.322 1068.68 238.95 1064 226L1055 229L1054 211L1048 208C1050.61 198.984 1037.5 196.589 1046.53 187.279C1054 179.574 1072.49 189.793 1077.93 180.606C1080.21 176.755 1077.12 168.982 1076.13 165C1073.55 154.68 1072.01 142.616 1072 132L1039 130.612L1024 138.348L1013.1 139.448L979 161.441L963 163.775L939 171.51L926 175z"/>
</svg>
