<?xml version="1.0" standalone="yes"?>
<svg xmlns="http://www.w3.org/2000/svg" width="1450" height="1403">
<path style="fill:#010101; stroke:none;" d="M0 0L0 1403L1450 1403L1450 0L0 0z"/>
<path style="fill:#ffffff; stroke:none;" d="M199 1102L178 1093.62L166 1086.88L155.313 1089.6L141.004 1079.9L129.83 1088.95L116 1089C117.559 1100.53 110.642 1099.64 102 1103.56C99.3324 1104.77 96.2472 1108.01 93.0903 1107.31C88.8194 1106.36 85.3714 1099.3 83 1096C77.1341 1100.13 73.6642 1105.75 66 1106C66 1118.17 68.5865 1131.93 60.4823 1141.99C56.6135 1146.79 51.1633 1151.11 46 1154.45C43.1616 1156.29 38.3176 1157.58 37.3225 1161.21C35.4944 1167.88 44.3919 1172.94 46.2145 1179C47.2243 1182.36 46.7873 1187.63 49.1644 1190.38C52.0275 1193.7 57.4803 1189.79 59.8017 1195.06C61.5148 1198.95 58.7296 1204.05 58.3395 1208C57.7883 1213.58 57.7339 1229.21 60.0424 1234C66.0219 1246.4 86.1856 1241.54 97 1243C106.037 1228.61 125.27 1242.28 138.787 1236.4C143.202 1234.48 145.17 1227.5 149.015 1224.39C155.647 1219.03 167.775 1219.18 172.892 1212.77C178.724 1205.47 181.473 1193.31 191.228 1189.65C195.22 1188.15 200.243 1192.05 204 1193.07C210.901 1194.95 217.18 1194.92 224 1193C228.339 1205.46 236.507 1195.85 245 1197.66C251.567 1199.06 255.183 1206.53 262 1207.89C269.452 1209.37 286.524 1194.48 286.739 1187C286.947 1179.78 284.639 1159.16 276.985 1156.21C272.198 1154.37 268.339 1159.75 264 1160.67C253.476 1162.91 241.185 1155.02 236.576 1146C234.686 1142.3 233.35 1127.64 235.217 1124C240.951 1112.82 250.852 1112.98 249 1098L245 1102L244 1102C241.917 1096.71 244.134 1093.97 246 1089L234.279 1086.31L228 1071C221.657 1073.73 209.39 1075.41 204.43 1079.73C199.502 1084.02 199.125 1095.92 199 1102z"/>
</svg>
