<?xml version="1.0" standalone="yes"?>
<svg xmlns="http://www.w3.org/2000/svg" width="1450" height="1403">
<path style="fill:#010101; stroke:none;" d="M0 0L0 1403L1450 1403L1450 0L0 0z"/>
<path style="fill:#ffffff; stroke:none;" d="M162 1370C167.707 1367.51 172.395 1364.19 179 1364.51C184.465 1364.78 188.568 1369.63 194 1370.37C207.724 1372.22 216.481 1360.76 218 1349C223.428 1349.43 228.734 1350.81 234 1348.61C239.44 1346.33 243.564 1340.64 250 1341.26C265.225 1342.71 268.828 1360.59 277 1370C281.765 1362.77 287.221 1352.89 290.437 1345C292.658 1339.55 292.418 1334.96 296.215 1330C300.476 1324.43 304.699 1317.93 310.09 1313.39C314.375 1309.78 320.054 1308.89 321.891 1302.98C326.682 1287.58 309.253 1273.44 307.356 1259C305.945 1248.25 319.178 1243.72 324.146 1236.7C327.691 1231.69 326.821 1224.52 329.353 1219C334.504 1207.76 347.728 1203.12 359 1204C353.338 1190.04 330.308 1203.62 323.213 1210.46C320.83 1212.76 319.569 1216.2 316.787 1218.06C313.694 1220.13 309.557 1219.97 306 1220C306.044 1215.07 311.062 1206.45 308.778 1202.34C304.322 1194.34 292.374 1202.97 287 1194C280.583 1197.04 268.824 1209.48 262 1208.33C255.21 1207.19 251.778 1199.47 245 1198.38C235.226 1196.82 230.16 1204.68 223 1194C216.581 1195.8 210.437 1195.78 204 1193.78C200.278 1192.62 195.339 1188.88 191.302 1190.62C181.096 1195.02 179.409 1206.35 172.471 1213.77C165.795 1220.91 153.293 1219.16 146.39 1227.1C137.562 1237.26 139 1256.55 133.235 1269C126.429 1283.7 113.422 1288 117.749 1306C119.45 1313.07 124.406 1317.51 126.442 1324C128.081 1329.23 127.15 1337.22 130.742 1341.58C133.026 1344.36 137.057 1344.86 139.61 1347.39C143.277 1351.03 143.7 1356.47 148.108 1359.53C153.255 1363.11 159.694 1363.58 162 1370z"/>
</svg>
