<?xml version="1.0" standalone="yes"?>
<svg xmlns="http://www.w3.org/2000/svg" width="1450" height="1403">
<path style="fill:#010101; stroke:none;" d="M0 0L0 1403L1450 1403L1450 0L0 0z"/>
<path style="fill:#ffffff; stroke:none;" d="M792 691C786.908 698.117 786.845 711.678 777 712C776.992 702.053 772.084 698.554 762 700.329C750.377 702.374 752.699 719.025 742.166 719.524C736.568 719.789 732.563 711.792 727.001 710.434C721.787 709.162 719.642 713.774 714.985 714.255C704.958 715.289 697.257 711.485 687.004 715.147C678.607 718.146 678.645 731.649 669.985 733.254C660.93 734.931 655.463 727.555 648 724.897C643.89 723.433 637.477 724.353 633 724L633 719C622.145 721.228 622.451 725.881 614.787 732.049C610.034 735.875 602.023 738.802 599 744C583.072 740.716 564.22 760.595 576.086 776.61C579.755 781.562 587.299 782.073 591.61 786.39C596.235 791.024 596.268 800.799 603.043 803.218C608.833 805.286 616.827 800.766 623 801.047C633.431 801.521 638.304 814.611 642.258 823C646.836 832.714 640.322 852.224 637.409 862C636.172 866.151 631.457 872.462 633.562 876.772C635.455 880.65 643.242 882.438 647 884L667.397 865.319L670.028 853.213L682 844L683 844C688.603 851.932 696.962 853.362 697 864C709.331 860.091 724.177 865.445 737 866.431C741.728 866.795 745.346 862.88 750 863.295C755.621 863.796 761.142 869.322 766.867 868.497C771.74 867.795 775.101 858.802 780 856.471C783.211 854.944 786.532 856.58 789.625 855.358C799.471 851.468 808.361 841.558 817.09 835.854C820.345 833.727 824.545 833.941 827.787 831.86C832.622 828.757 834.034 822.854 840 820.728C845.441 818.788 857.934 822.072 862.816 824.984C865.44 826.549 866.82 829.432 870.093 829.833C878.808 830.9 877.692 814.774 887.999 812.704C894.391 811.42 896.714 821.474 901.972 818.338C911.805 812.474 905.816 794.293 902.007 786.109C899.58 780.894 893.479 781.89 889 779.687C879.765 775.145 870.627 771.518 861 767.873C857.736 766.637 854.216 768.307 851.04 766.782C838.582 760.796 848.251 744.192 840.486 736.699C832.441 728.936 821.64 735.139 813.252 731.508C809.699 729.97 812.773 725.177 810.957 722.563C809.099 719.89 804.739 719.966 802.434 717.581C798.812 713.834 796.319 698.089 797 693L792 691z"/>
</svg>
