<?xml version="1.0" standalone="yes"?>
<svg xmlns="http://www.w3.org/2000/svg" width="1450" height="1403">
<path style="fill:#010101; stroke:none;" d="M0 0L0 1403L1450 1403L1450 0L0 0z"/>
<path style="fill:#ffffff; stroke:none;" d="M1342 191L1341 194L1338 193L1336 200C1324.17 192.813 1311.56 211.016 1308.51 221C1307.03 225.812 1302.75 230.213 1308 234C1305.16 244.098 1299.59 254.253 1290 259.556C1285.09 262.27 1278.88 262.766 1274.3 266.124C1267.65 271.011 1264.44 280.535 1257 285.786C1251.78 289.465 1245.19 288.071 1240 291.564C1227.7 299.849 1223.26 312.847 1209 319L1208.17 350L1217 402C1227.43 402 1229.9 403.362 1238.04 409.491C1240.37 411.245 1244.14 412.021 1245.07 415.133C1246.52 419.957 1241.91 425.196 1241.75 430C1241.5 436.944 1254.23 442.362 1260 443.424C1276.24 446.414 1293.17 427.799 1305 419.623C1318.26 410.453 1337.09 408.078 1352 402.74C1359.07 400.21 1364.47 394.689 1372 392.8C1383.53 389.906 1403.46 394.192 1412.41 383.606C1419.7 374.993 1409.49 366.166 1408 358C1407.2 353.63 1410.11 349.38 1409.4 345C1408.52 339.568 1402.93 336.261 1401.53 331C1400.38 326.687 1403.3 323.143 1403.75 319C1404.41 312.803 1401.2 306.138 1402.68 300C1405.76 287.151 1423.21 283.865 1423.47 271C1423.56 266.413 1420.11 262.575 1420.07 258C1420.01 251.351 1430.47 230.603 1415 233C1419.03 224.734 1411.32 220.536 1408 214C1398.98 215.846 1388.31 213.418 1380 209L1379 209C1371.39 214.671 1362.6 205.05 1359 199L1342 191z"/>
</svg>
