<?xml version="1.0" standalone="yes"?>
<svg xmlns="http://www.w3.org/2000/svg" width="1450" height="1403">
<path style="fill:#010101; stroke:none;" d="M0 0L0 1403L1450 1403L1450 0L0 0z"/>
<path style="fill:#ffffff; stroke:none;" d="M845 518C857.036 527.196 859.238 541.966 876 535C877.315 540.605 874.82 542.808 873.885 548C873.335 551.053 875.254 553.953 874.31 557C873.032 561.129 867.66 564.168 869.786 568.957C875.489 581.803 889.117 581.959 898.787 588.854C903.14 591.958 914.202 600.866 915.586 606.001C916.733 610.256 913.847 614.63 914.344 619C914.967 624.479 917.386 628.25 917 634C911.337 633.281 902.631 629.532 897.213 631.897C892.272 634.055 889.147 641.232 884 644.3C880.779 646.22 873.036 646.767 871.388 650.303C868.752 655.959 877.635 665.651 871.748 670.474C869.248 672.521 864.131 671.93 861 673L867 680L867 681C856.182 692.409 886.06 693.478 891 694L889 711L908 706.56L922 712L930.108 700.653L941.972 698.357L942 682C947.161 681.778 954.026 681.57 956.258 675.981C958.04 671.516 955.741 666.238 959.434 662.419C962.466 659.283 967.38 659.635 970.442 656.57C973.608 653.401 973.689 648.544 976.43 645.089C979.811 640.828 984.789 638.063 988.334 633.911C992.478 629.058 994.316 623.181 997.994 618.214C1002.14 612.618 1011.52 613.803 1015.15 607.787C1018.43 602.359 1009.59 598.085 1011.88 592.714C1015.49 584.234 1033.53 574.833 1030.98 565C1029.96 561.087 1027.55 547.782 1022.89 547.059C1016.3 546.035 1007.16 555.403 999.43 550.883C991.889 546.475 998.708 533.037 994.782 527.603C992.734 524.77 985.872 525.88 983 526.529C971.616 529.1 964.575 532.011 960 543C951.249 540.202 945.837 539.126 937 542C933.065 528.41 922.243 535.443 914.696 528.436C912.574 526.466 913.447 523.369 912.242 520.961C910.244 516.965 906.125 514.276 904.6 510C901.022 499.974 906.174 495.049 893 492C894.075 482.281 880.175 479.572 873.143 483.988C865.412 488.844 864.2 498.291 859.272 504.787C854.989 510.434 848.371 510.979 845 518z"/>
</svg>
