<?xml version="1.0" standalone="yes"?>
<svg xmlns="http://www.w3.org/2000/svg" width="1450" height="1403">
<path style="fill:#010101; stroke:none;" d="M0 0L0 1403L1450 1403L1450 0L0 0z"/>
<path style="fill:#ffffff; stroke:none;" d="M1080 273C1071.37 275.284 1064.7 274.688 1056 273L1057 282C1035.19 284.955 1042.55 309.471 1051 322L1017 336C1017.85 338.044 1018.8 340.007 1019.75 342.005C1027.62 358.467 1008.26 349.82 1001.15 353.024C997.425 354.701 998.823 358.719 996.397 361.301C992.561 365.383 985.989 365.659 983.027 371.09C980.661 375.428 976.947 386.073 977.148 391C977.325 395.325 981.352 399.598 979.438 403.895C977.914 407.316 974.063 408.042 971.727 410.637C968.596 414.116 968.446 419.256 964.671 422.487C962.182 424.617 958.068 424.63 956.179 427.43C952.326 433.141 958.024 443.423 956.227 450C952.419 463.936 937.232 469.419 936 485C927.547 483.926 913.425 479.183 913 492C895.763 492.013 907.365 512.36 912.566 520.83C913.907 523.013 913.29 526.396 915.476 527.976C923.919 534.077 931.487 530.04 938 541C946.445 538.259 951.61 540.077 960 542C964.562 531.046 971.32 529.473 982 526.093C985.67 524.932 992.46 523.625 995.168 527.318C999.122 532.709 993.052 545.532 999.564 549.933C1006.37 554.532 1016.76 545.786 1022.96 546.778C1028.91 547.73 1030.11 561.352 1032 566L1034 566C1037.93 558.672 1043.09 555.787 1051 553.64C1054.56 552.676 1061.57 552.369 1063.97 549.272C1066.32 546.239 1063.92 541.465 1065.18 538C1067.28 532.229 1077.63 529.107 1077.34 523.024C1077.16 519.314 1072.85 517.144 1071.32 513.985C1068.5 508.166 1072.93 503.546 1076 499L1077 499C1083.89 509.652 1091.4 504.497 1100.04 501.027C1103.95 499.46 1108.2 499.44 1109.96 494.906C1112.06 489.529 1107.98 486.246 1107.38 481.286C1107.04 478.395 1109.35 475.943 1109.31 472.999C1109.23 467.042 1106.78 461.172 1107.6 455.043C1108.1 451.377 1114.03 439.693 1117.06 437.603C1119.53 435.894 1124.16 436.859 1125.93 434.397C1128.84 430.361 1122.41 411.028 1121 406L1140 404C1141.12 400.215 1143.66 397.406 1148 398.743C1154.19 400.649 1159.41 404.576 1166 405.674C1172.33 406.729 1177.01 404.1 1183 403.69C1188.65 403.303 1194.22 406.215 1200 405.953C1205.51 405.703 1210.51 402.743 1216 402C1215.24 384.201 1208.86 366.72 1207.18 349C1206.29 339.663 1211.14 330.54 1208.2 321C1205.62 312.641 1197.92 305.801 1193.92 298C1190.35 291.052 1198 277.799 1189.94 274.114C1183.27 271.061 1173.89 268.159 1167.27 272.39C1164.19 274.36 1163.18 279.324 1158.98 279.431C1155.21 279.527 1151.71 276.303 1148 275.714C1143.55 275.01 1139.58 278.104 1135 277.699C1126.22 276.924 1116.5 272.762 1108 272.765C1105.12 272.765 1098.96 272.897 1096.31 273.783C1093.97 274.569 1093.7 277.605 1091.69 278.887C1086.94 281.916 1082.05 276.754 1080 273z"/>
</svg>
