<?xml version="1.0" standalone="yes"?>
<svg xmlns="http://www.w3.org/2000/svg" width="1450" height="1403">
<path style="fill:#010101; stroke:none;" d="M0 0L0 1403L1450 1403L1450 0L0 0z"/>
<path style="fill:#ffffff; stroke:none;" d="M1141 405C1133.49 403.452 1128.88 403.086 1122 407C1123.47 412.243 1129.53 430.101 1126.88 434.566C1124.91 437.892 1120.05 436.311 1117.15 438.028C1114.62 439.519 1109.02 451.244 1108.41 454.209C1107.13 460.439 1110.09 466.907 1109.91 473C1109.82 476.158 1107.61 478.773 1108.19 482C1109.02 486.618 1112.81 490.011 1110.55 494.96C1108.27 499.942 1103.58 500.101 1099.21 502.027C1090.21 505.986 1084.85 509.321 1077 500L1076 500C1072.12 504.477 1069.19 510.163 1072.86 515.83C1074.58 518.493 1078.1 520.399 1077.96 523.961C1077.66 531.627 1064.76 531.938 1065.47 542C1066.19 552.126 1073.11 566.461 1083 570.525C1088.68 572.856 1094.27 572.019 1100 573.418C1106.23 574.939 1110.2 580.987 1117 578.188C1122.17 576.063 1130.38 573.836 1134.57 570.182C1139.75 565.668 1139.12 555.792 1149 558.265C1154.5 559.641 1163.76 563.689 1167.3 568.213C1172.85 575.31 1175.92 585.084 1186 588.357C1196.85 591.88 1202.04 580.082 1210.01 576.514C1215.93 573.869 1221.11 577.121 1227 576.439C1234.72 575.545 1241.81 571.253 1250 571.499C1255.48 571.664 1265.03 583.173 1269.3 580.113C1273.69 576.963 1270.94 569.355 1271.79 565C1272.7 560.302 1275.14 555.769 1275.58 551C1276.53 540.812 1274.23 530.248 1277.77 520C1281.79 508.358 1292.29 507.362 1300.79 501.157C1314.02 491.506 1315.03 476.624 1311.16 463C1309.45 456.997 1306.71 448.283 1299.96 446.114C1295.18 444.577 1288.29 448.953 1283 449L1284 436C1270.01 442.928 1260.53 446.563 1246.17 437.988C1236.08 431.954 1245.64 424.027 1244.5 416.108C1243.99 412.612 1234.74 405.741 1231.71 404.028C1222.09 398.574 1209.48 406.186 1200 406.88C1194.49 407.284 1189.41 404.647 1184 404.405C1178.85 404.175 1174.38 407.312 1169 406.906C1161.09 406.308 1155.25 401.382 1148 399.179C1143.31 397.753 1141.33 400.91 1141 405z"/>
</svg>
