<?xml version="1.0" standalone="yes"?>
<svg xmlns="http://www.w3.org/2000/svg" width="1450" height="1403">
<path style="fill:#010101; stroke:none;" d="M0 0L0 1403L1450 1403L1450 0L0 0z"/>
<path style="fill:#ffffff; stroke:none;" d="M410 706C399.4 709.634 403.528 719.497 400 728C390.071 724.349 385.895 730.835 380.315 738C377.633 741.443 372.517 748.102 379 750L379 756C373.362 754.538 361.628 751.48 364 762C373.512 762.934 367.842 770.375 365.124 775.17C360.599 783.154 360.509 789.634 349 788L351 783C340.444 781.04 339.589 785.997 330.985 789.612C327.988 790.871 321.62 791.548 320.497 795.225C319.528 798.396 323.386 800.413 323.431 803.424C323.493 807.525 319.882 812.785 319 817C307.351 815.42 309.1 825.323 303.348 831.505C294.035 841.514 281.531 843.67 273 855L273 856C274.219 860.145 269.578 870.662 265.786 873.099C263.336 874.673 260.697 873.393 258.192 874.388C253.92 876.085 253.775 882.54 249.902 885.146C240.485 891.482 224.912 883.822 224.345 898.985C224.2 902.865 232.561 911.845 236.21 913.167C239.377 914.315 242.722 912.465 246 913.731C255.285 917.316 267.73 929.449 270 939C276.343 939.208 276.97 943.359 282.055 945.945C290.438 950.209 312.629 954.401 319 947L320 947C322.215 950.561 325.162 958.551 328.513 960.806C337.125 966.601 344.243 955.279 349.39 951.773C352.035 949.972 356.955 950.882 359.999 951.019C368.14 951.385 373 960.501 382 958.265C389.051 956.514 394.693 949.333 401.985 948.308C405.431 947.824 407.656 951.267 411.039 951.486C416.871 951.863 421.48 949.709 423 957C436.221 954.224 448.067 939.429 460 932.637C465.007 929.788 472.138 930.925 476.566 927.157C479.506 924.655 479.548 919.558 480 916C482.633 916.742 485.299 917.614 488 918.069C503.414 920.662 499.191 904.35 503.938 896C507.493 889.748 514.674 886.378 516.467 879C518.478 870.723 512.409 860.864 524 857.518C542.393 852.207 549.036 881.185 563 887L578 862C582.549 866.511 588 873.031 595 872.786C608.894 872.3 621.35 853.914 632 872C637.145 865.761 636.772 858.43 638.39 851C641.735 835.641 644.163 828.211 635.85 814C633.771 810.445 633.758 805.696 629.867 803.457C620.895 798.295 607.879 808.788 600.39 802.343C595.665 798.277 595.674 790.971 591.362 786.637C586.979 782.233 579.631 781.782 575.702 776.787C570.517 770.195 564.768 756.333 554.957 754.607C548.042 753.391 538.316 759.564 532 762C533.486 756.712 535.806 749.29 531.991 744.418C529.594 741.357 525.778 740.866 524.148 736.956C522.032 731.88 524.347 721.35 515.144 722.647C509.961 723.377 504.321 739.415 503 744C495.911 741.581 477.444 737.003 474.198 729.826C470.624 721.927 480.792 709.47 469 705C463.828 714.452 456.55 710.676 448 710.537C444.932 710.487 442.038 712.529 439.043 711.045C434.905 708.994 433.834 701.662 428.957 701.242C421.549 700.603 417.069 712.449 410 706z"/>
</svg>
