<?xml version="1.0" standalone="yes"?>
<svg xmlns="http://www.w3.org/2000/svg" width="1450" height="1403">
<path style="fill:#010101; stroke:none;" d="M0 0L0 1403L1450 1403L1450 0L0 0z"/>
<path style="fill:#ffffff; stroke:none;" d="M575 597C569.782 605.946 547.457 616.172 537 617.492C528.368 618.582 515.155 617.62 509.268 626.108C506.514 630.078 507.356 636.32 507 641L503 635L469 665.561L450 679.986L441.857 683.857L431 699C432.516 702.658 434.786 707.951 438.213 710.214C441.464 712.362 444.583 709.936 448 709.904C456.484 709.823 464.475 713.754 469 704C481.972 711.098 469.97 721.47 475.067 730.532C478.428 736.508 495.573 740.801 502 743L511 722C524.913 720.964 520.636 729.436 525.318 737.867C526.929 740.769 530.301 741.723 532.347 744.224C536.17 748.896 534.427 754.59 534 760L555.895 754.067L572 765C573.418 761.588 572.65 757.303 574.269 754.228C578.313 746.542 589.961 741.365 598 743L613.895 732.139L621.637 721.603L634 718L634 723C638.374 723.812 644.012 722.679 648 724.404C655.138 727.491 662.061 734.752 670.895 732.388C676.61 730.859 678.504 722.055 682.213 718.059C687.424 712.444 696.79 711.511 704 712C701.984 707.151 699.761 698.354 694.787 695.854C689.761 693.329 684.006 695.424 679.043 693.066C675.113 691.198 673.317 685.801 668.985 684.932C660.936 683.318 653.729 688.115 645.105 683.431C637.7 679.41 637.867 666.165 635.302 659C632.69 651.705 628.143 651.897 623.634 646.772C617.174 639.43 617.87 632.894 619 624L609.697 611.684L591 599L590 599L585 605L575 597z"/>
</svg>
