<?xml version="1.0" standalone="yes"?>
<svg xmlns="http://www.w3.org/2000/svg" width="1450" height="1098">
<path style="fill:#010101; stroke:none;" d="M0 0L0 1098L1450 1098L1450 0L0 0z"/>
<path style="fill:#ffffff; stroke:none;" d="M497 598C499.505 604.107 507.198 616.379 505.929 622.91C504.473 630.399 486.812 639.367 480 641C485.001 649.512 493.372 653.141 495 664C507.507 661.677 529.221 660.924 527 679L537.995 686.079L548.418 669.39L560.057 661.775L569.026 638L586 604C595.5 606.077 591.265 610.956 596 617L602 604C613.383 603.759 616.081 606.936 626 612C625.877 605.052 631.482 596.034 629.972 590C628.098 582.511 620.889 577.195 618.533 570C616.513 563.83 619.661 557.95 617.742 552C615.49 545.021 609.365 537.721 614.013 530.213C617.63 524.37 625.393 525.541 630.816 523.11C635.286 521.106 637.217 515.536 640.465 512.144C645.081 507.323 650.712 507.921 653.637 500.999C657.516 491.816 646.995 474.362 639 470C637.02 476.67 623.517 490.868 616.419 483.606C610.707 477.762 612.206 459.461 616.728 453.174C622.09 445.717 631.432 440.962 625.427 430.04C617.345 415.338 596.665 422.665 585.21 415.972C575.063 410.044 576.586 395.469 570.991 387.289C561.214 372.998 539.725 370.335 534.075 352C532.705 347.556 534.987 341.692 535 337C530.435 334.979 526.238 330.545 521 330.398C512.66 330.165 505.489 338.346 500.576 344C490.928 355.101 481.601 369.37 477.641 384C476.555 388.014 478.287 391.969 477.502 395.999C476.576 400.756 469.547 404.317 470.037 408.899C470.435 412.622 476.124 414.053 477.948 417.105C480.828 421.926 475.557 426.883 478.333 431.61C481.189 436.474 488.877 437.82 492.552 442.3C495.244 445.583 494.971 453.874 494.437 458C493.314 466.674 485.492 473.509 480.637 480.039C472.419 491.092 465.781 507.31 467.924 521C468.582 525.206 473.792 538.481 478.105 539.682C482.72 540.968 488.491 538.498 492.787 541.028C497.26 543.662 507.268 553.989 510.381 558.325C513.414 562.549 509.209 567.404 507.066 571C501.549 580.255 506.886 592.111 497 598z"/>
</svg>
