<?xml version="1.0" standalone="yes"?>
<svg xmlns="http://www.w3.org/2000/svg" width="1450" height="1098">
<path style="fill:#010101; stroke:none;" d="M0 0L0 1098L1450 1098L1450 0L0 0z"/>
<path style="fill:#ffffff; stroke:none;" d="M603 605L596 619C592.513 612.902 594.805 606.746 587 605C581.566 615.312 573.67 627.403 569.599 638C566.834 645.196 565.758 654.661 561.057 660.956C557.731 665.409 552.301 665.83 548.699 669.638C544.355 674.23 545.205 683.088 538.971 686.168C535.313 687.976 532.267 683.191 529.969 680.999C523.259 674.6 527.691 667.441 516 664.379C503.247 661.038 497.493 665.337 487.995 672.367C483.867 675.422 478.472 677.778 476.607 683C475.278 686.724 477.253 690.304 477.505 694C478.219 704.452 478.196 716.121 482 726C500.705 725.036 497.864 750.355 513 752L504 786L506.318 798.411L522 802C522.459 807.81 522.221 814.613 529.005 816.323C532.071 817.095 535.13 815.934 537.996 817.643C541.681 819.839 551.666 834.223 551.249 838.49C551.045 840.583 548.644 842.857 548 845C557.76 845.273 555.1 853.436 560.651 858.392C564.766 862.065 568.182 856.716 568.786 853.024C569.057 851.374 568.985 849.664 569 848C574.633 851.455 572.238 860.995 579.055 863.164C586.049 865.389 589.116 855.402 596.001 855.788C605.913 856.344 617.712 859.726 627 862.966C636.959 866.44 644.244 871.92 655 868C653.426 855.814 655.264 855.992 667 856C661.156 844.765 648.779 839.305 640 831C655.603 823.679 637.648 821.098 634 812L639 811C634.576 804.443 629.461 797.066 626.024 790C623.939 785.714 625.833 781.061 622.682 777.039C616.513 769.167 605.951 767.146 599.657 760.49C596.17 756.803 598.682 751.331 595.991 747.17C593.1 742.7 588.237 739.733 587.448 734.004C586.848 729.642 590.794 726.216 591.517 721.996C593.322 711.46 591.562 701.573 597.966 692.015C601.025 687.449 607.517 685.638 609.934 680.896C614.029 672.859 612.706 662.475 614.394 654C617.219 639.806 621.524 626.002 625 612C616.16 606.158 613.514 604.084 603 605z"/>
</svg>
