<?xml version="1.0" standalone="yes"?>
<svg xmlns="http://www.w3.org/2000/svg" width="1450" height="1098">
<path style="fill:#010101; stroke:none;" d="M0 0L0 1098L1450 1098L1450 0L0 0z"/>
<path style="fill:#ffffff; stroke:none;" d="M1279 584C1271.56 588.169 1265.03 585.548 1257 585.093C1249.08 584.645 1239.81 586.045 1232 587.463C1221.46 589.376 1215.35 596.408 1206 600.88C1200.36 603.58 1194.07 603.869 1188 605L1183 656L1187 656C1186.52 659.866 1185.88 663.333 1187.84 666.941C1191.28 673.28 1194.83 669.198 1195 664C1197.99 665.361 1200.74 667.991 1204 668.644C1213.96 670.636 1222.93 662.841 1232 660.677C1235.7 659.794 1239.42 661.638 1243 659.983C1254.59 654.628 1265.13 642.826 1276 657L1294 647L1294.01 632L1286.89 616L1288.98 601.213L1283.01 594.787L1279 584z"/>
</svg>
