<?xml version="1.0" standalone="yes"?>
<svg xmlns="http://www.w3.org/2000/svg" width="1450" height="1098">
<path style="fill:#010101; stroke:none;" d="M0 0L0 1098L1450 1098L1450 0L0 0z"/>
<path style="fill:#ffffff; stroke:none;" d="M1046 316C1047 335.254 1062.92 342.826 1074.85 355.286C1078.73 359.337 1077.09 364.68 1080.32 369C1085.12 375.419 1092.8 378.465 1097.53 384.225C1103.08 390.988 1099.14 403.844 1111 406.606C1123.75 409.574 1132.88 399.807 1144 396.003C1147.67 394.747 1153.07 391.839 1156.94 393.502C1161.59 395.497 1164.12 406.459 1165.65 410.999C1167.63 416.818 1173.03 418.017 1175.5 423.055C1178.02 428.162 1175.07 433.822 1178.56 439C1191.41 458.026 1202.77 445.864 1219 441.3C1226.29 439.25 1233.91 439.994 1241 437C1238.48 428.024 1235.73 416.011 1239.35 407C1241.81 400.873 1249.45 393.404 1249.98 387C1250.28 383.313 1246.31 380.329 1244 378C1238.57 372.532 1231.87 366.709 1229.65 359C1228.34 354.447 1232.23 348.315 1229.22 344.43C1227.18 341.802 1222.9 341.338 1220 340.125C1210.35 336.096 1200.31 333.189 1190 331.261C1184.44 330.22 1177.1 330.32 1174 325L1181 324L1168 317L1169 338L1140 327.213L1078 322.83L1046 316z"/>
</svg>
