<?xml version="1.0" standalone="yes"?>
<svg xmlns="http://www.w3.org/2000/svg" width="1450" height="1098">
<path style="fill:#010101; stroke:none;" d="M0 0L0 1098L1450 1098L1450 0L0 0z"/>
<path style="fill:#ffffff; stroke:none;" d="M616 650C613.659 659.833 614.822 670.472 610.803 679.985C608.52 685.39 601.478 687.067 598.352 692.04C592.333 701.615 594.324 711.671 592.276 721.999C591.497 725.932 588.093 728.96 588.163 733.039C588.271 739.298 593.084 742.49 596.347 747.089C599.112 750.986 596.914 756.05 599.746 759.582C605.683 766.984 617.448 769.783 623.682 778.004C626.6 781.851 625.083 785.82 626.603 790C629.147 796.998 635.812 806.654 641 812L635 813C638.765 821.752 656.286 822.791 641 831L654 842L670 834.154L689 834C688.972 826.226 679.891 816.644 692 813L686.843 796L701 763C706.04 762.612 729.546 748.513 718 746C724.045 728.274 706.394 731.451 699.854 721.891C694.696 714.351 693.355 704.195 689.301 696.133C687.524 692.599 683.214 691.945 680.853 688.867C677.524 684.525 677.152 677.38 673.273 673.603C670.881 671.274 666.814 672.174 664 670.397C654.243 664.233 651.381 659.008 639 659L636 650L635 650C628.105 656.07 623.609 653.163 616 650z"/>
</svg>
