<?xml version="1.0" standalone="yes"?>
<svg xmlns="http://www.w3.org/2000/svg" width="1450" height="1098">
<path style="fill:#010101; stroke:none;" d="M0 0L0 1098L1450 1098L1450 0L0 0z"/>
<path style="fill:#ffffff; stroke:none;" d="M1229 817C1221.64 825.609 1213.58 824.722 1204 826.728C1199.8 827.607 1196.54 830.39 1192 829.76C1185.11 828.802 1175.31 819.003 1168.86 826.639C1164.3 832.038 1165.21 844.492 1165.68 851C1166.25 859.057 1158.24 865.788 1161.86 873.941C1163.82 878.364 1167.28 876.745 1170.91 878.177C1180.8 882.08 1192.39 886.056 1203 888.27C1206.3 888.957 1210.72 886.776 1213.35 889.693C1216.23 892.88 1211.91 897.855 1213.61 901.61C1215.73 906.289 1222.97 906.088 1225.93 910.225C1230.19 916.181 1227.59 925.433 1231.86 930.562C1234.43 933.648 1246.62 935.174 1251 937C1250.79 928.402 1262.56 917.099 1256 910L1256 909C1260.8 905.799 1261.61 899.069 1268 903L1269 903C1275.29 897.987 1277.65 893.973 1279 886C1267.05 880.986 1272.37 874.049 1266.99 865C1262.68 857.757 1255.98 853.869 1251.23 847.852C1243.38 837.909 1240.39 823.723 1229 817z"/>
</svg>
