<?xml version="1.0" standalone="yes"?>
<svg xmlns="http://www.w3.org/2000/svg" width="1450" height="1098">
<path style="fill:#010101; stroke:none;" d="M0 0L0 1098L1450 1098L1450 0L0 0z"/>
<path style="fill:#ffffff; stroke:none;" d="M1054 965C1065.85 961.595 1073.08 964.306 1080.22 975.185C1083.19 979.718 1080.16 983.908 1087 985C1088.17 983.172 1091.45 981.151 1091.82 985.048C1092.39 990.856 1078.09 993.318 1078.2 1002C1078.31 1010.83 1085.96 1010.29 1090.79 1015.15C1094.61 1018.99 1093.92 1023.21 1095 1028L1104 1021C1108.22 1024.6 1110.08 1028.43 1110 1034L1117 1037L1117 1033L1120 1034C1118.83 1041.2 1127.11 1049.29 1134.87 1045.8C1138.03 1044.38 1138.55 1040.28 1141.24 1038.26C1149.38 1032.14 1159.44 1029.2 1167.68 1023.55C1170.18 1021.84 1169.93 1017.67 1172.86 1016.57C1175.46 1015.6 1178.18 1018.56 1180 1020C1182.57 1009.78 1168.06 1004.11 1178 996L1180 980C1175.63 978.517 1168.04 977.93 1167.47 971.995C1166.79 965.034 1180.4 957.203 1167.96 951.858C1145.86 942.364 1123.6 951.573 1101.01 947.853C1092.41 946.436 1091.15 936.91 1080 938.978C1076.04 939.713 1073.49 943.892 1070 945.682C1061.29 950.154 1047.56 950.007 1054 965z"/>
</svg>
