<?xml version="1.0" standalone="yes"?>
<svg xmlns="http://www.w3.org/2000/svg" width="1450" height="1098">
<path style="fill:#010101; stroke:none;" d="M0 0L0 1098L1450 1098L1450 0L0 0z"/>
<path style="fill:#ffffff; stroke:none;" d="M1285 518C1286.44 523.541 1290.37 527.821 1291.68 533.015C1293.59 540.599 1288.69 559.843 1284 566C1283.24 575.183 1279.21 582.243 1282.39 591.985C1283.65 595.841 1288.42 597.394 1289.31 601.104C1290.12 604.488 1286.98 608.362 1287.11 612C1287.6 626.097 1296.87 633.231 1310 636.029C1320.42 638.25 1325.36 626.705 1337 630L1338 619L1332 614L1331 614C1325.46 617.978 1312.53 617.477 1313.67 607.424C1314.17 603.066 1318.53 599.493 1319.13 595C1320.04 588.069 1315.43 584.559 1323 580L1318.34 571.896L1324.1 562L1347 528L1327 530.192L1312 522.876L1285 518M1389 621L1391 626L1397 624L1389 621z"/>
</svg>
