<?xml version="1.0" standalone="yes"?>
<svg xmlns="http://www.w3.org/2000/svg" width="1450" height="1098">
<path style="fill:#010101; stroke:none;" d="M0 0L0 1098L1450 1098L1450 0L0 0z"/>
<path style="fill:#ffffff; stroke:none;" d="M1109 449C1112.44 457.133 1120.1 462.325 1124.24 470C1127.08 475.285 1126.55 482.078 1130.43 486.83C1134.94 492.362 1142.43 495.793 1146.06 502.015C1151.87 511.955 1156.79 520.472 1163.96 530C1166 532.719 1167.47 536.94 1170.39 538.822C1176.61 542.824 1182.98 538.55 1189 537L1185 512C1168.79 507.903 1158.77 486.681 1148.53 475.093C1143.1 468.944 1135.55 468.222 1129.04 464.005C1121.89 459.369 1117.11 452.545 1109 449z"/>
</svg>
