<?xml version="1.0" standalone="yes"?>
<svg xmlns="http://www.w3.org/2000/svg" width="1450" height="1098">
<path style="fill:#010101; stroke:none;" d="M0 0L0 1098L1450 1098L1450 0L0 0z"/>
<path style="fill:#ffffff; stroke:none;" d="M421 835C422.597 838.843 425.103 842.679 424.631 847C423.985 852.913 419.74 858.924 420.593 865C421.54 871.754 428.482 876.447 431.763 882C435.002 887.481 435.402 894.747 439.328 899.999C447.117 910.42 454.033 906.611 464 910.199C466.402 911.064 472.6 912.818 472.654 916.043C472.783 923.77 453.638 928.351 450 935L454 937L453 941L457 943L441.603 952.529L432 965C434.847 971.018 440.423 982.334 446.213 985.825C457.437 992.592 477.218 992.426 490 996.667C497.026 998.998 513.306 1006.75 516 997L517 997C518.377 1003.96 521.097 1006.36 528 1008C531.619 999.591 542.204 970.612 524 974L519 956L523 957L526 949L502 917L504 913C524.947 912.926 504.729 896.054 509.358 887.225C512.369 881.482 522.008 878.615 526.406 873.787C531.634 868.048 531.734 863.074 534.951 857.105C536.966 853.365 541.576 852.791 544.436 850.034C547.776 846.813 548.086 842.216 552 839C549.054 833.557 544.063 821.966 538.957 818.607C534.395 815.606 528.76 818.565 524.318 814.362C521.214 811.425 522.962 806.678 520.142 803.742C515.426 798.833 506.722 803.294 503.603 794.995C498.683 781.901 509.511 765.837 512 753C506.214 751.151 502.74 747.841 501 742C495.682 742.821 493.851 746.973 489.285 748.978C485.682 750.561 482.274 746.449 478.213 748.588C474.669 750.454 473.58 754.938 471.363 757.996C468.649 761.738 464.513 764.164 461.995 768.039C459.585 771.747 459.033 776.342 456.351 779.911C451.505 786.359 442.823 789.603 439.024 797C433.466 807.822 432.391 828.372 421 835z"/>
</svg>
