<?xml version="1.0" standalone="yes"?>
<svg xmlns="http://www.w3.org/2000/svg" width="1450" height="1098">
<path style="fill:#010101; stroke:none;" d="M0 0L0 1098L1450 1098L1450 0L0 0z"/>
<path style="fill:#ffffff; stroke:none;" d="M947 479C947.138 480.665 947.204 482.324 947.724 483.931C951.796 496.522 960.389 479.621 965.957 478.921C969.35 478.495 971.485 483.362 974 485C972.684 479.525 966.422 473.643 967.273 468.001C967.765 464.743 977.211 453.227 980.827 454.346C983.336 455.122 984.78 458.948 986 461C998.358 456.556 988.917 442.924 990.218 434C991.122 427.792 997.516 420.803 1001.39 416.015C1009.51 405.97 1023.41 402.956 1032.15 394.147C1037.73 388.516 1039.42 378.161 1041.96 371C1048.19 353.445 1055.49 342.473 1047.14 324C1045.53 320.434 1045.65 313.378 1042.35 311.032C1030.45 302.57 1018.61 326.897 1008.1 317.721C997.737 308.662 1006.22 286.727 991.91 281.032C984.536 278.098 972.61 280.119 965 281.464C960.92 282.185 955.173 285.143 951.188 282.958C946.639 280.463 946.283 274.499 945.576 270C944.068 260.407 938.239 236.217 925 237.626C913.753 238.823 910.63 247.411 904.471 254.957C900.546 259.765 894.025 261.737 890.603 267.015C886.719 273.007 890.979 279.693 890.309 286C889.754 291.219 886.469 295.699 886.097 301C885.202 313.78 891.749 328.534 888.387 341C885.826 350.494 873.872 355.542 873.539 366C873.266 374.561 879.624 383.182 879.87 392C880.071 399.179 875.116 405.816 876.775 413C879.132 423.204 886.135 434.762 886.725 445C887.029 450.263 889.839 463.273 888.303 467.787C886.838 472.093 880.601 472.039 878.743 476.213C874.357 486.069 886.906 507.086 893.799 513.396C897.36 516.655 905.408 513.463 907.436 509.61C911.673 501.559 905.845 490.715 911.703 483.213C914.207 480.006 918.503 478.561 922 476.738C924.723 475.319 927.768 472.82 931 473.026C936.562 473.381 940.932 478.5 947 479z"/>
</svg>
