<?xml version="1.0" standalone="yes"?>
<svg xmlns="http://www.w3.org/2000/svg" width="1450" height="1098">
<path style="fill:#010101; stroke:none;" d="M0 0L0 1098L1450 1098L1450 0L0 0z"/>
<path style="fill:#ffffff; stroke:none;" d="M1075 800C1079.68 803.772 1081.08 808.362 1074 810L1068.64 817.209L1075 835L1070 830L1060 836L1060 837C1063.15 841.298 1063.84 846.307 1070 844C1070.73 849.246 1069.86 853.385 1064 854L1073 879L1076 880L1071 884L1071 885C1075.58 885.346 1078 886.84 1080 891C1094.3 889.862 1103.77 880.482 1115 872.745C1120.31 869.087 1124.15 863.345 1131 865C1130.23 859.398 1134.99 850.771 1139.54 859.062C1142.01 863.552 1139.46 868.346 1139 873C1146.79 870.109 1151.31 865.975 1160 867C1161.64 862.628 1164.39 858.783 1164.81 854C1165.76 843.184 1161.66 828.489 1174 823C1171.99 811.744 1164.65 813 1156.11 809.121C1152.55 807.505 1151.36 803.452 1147.95 801.533C1143.03 798.774 1136.62 799.648 1132.05 796.411C1126.57 792.525 1126.27 783.898 1124 778C1117.02 778.945 1112.41 783.677 1106 785.242C1092.85 788.454 1081.01 784.119 1075 800z"/>
</svg>
