<?xml version="1.0" standalone="yes"?>
<svg xmlns="http://www.w3.org/2000/svg" width="1450" height="1098">
<path style="fill:#010101; stroke:none;" d="M0 0L0 1098L1450 1098L1450 0L0 0z"/>
<path style="fill:#ffffff; stroke:none;" d="M1196 665C1193.89 678.488 1185.2 664.737 1186 657C1172.98 657.676 1170.49 665.087 1161.79 672.363C1153.85 679 1137.03 686.896 1127 689C1128.46 693.032 1128.29 695.811 1128.23 699.999C1128.15 704.926 1131.59 710.98 1127.49 715.458C1124.94 718.239 1119.38 714.194 1116 714.472C1106.43 715.261 1088.52 716.278 1082.03 724.728C1077.43 730.71 1090.6 747.546 1091 755C1082.31 755.668 1068.61 766.8 1065.56 775C1063.65 780.151 1067.9 786.94 1063 790C1064.55 795.457 1068.44 796.419 1073 799L1074 799C1076.32 795.956 1078.22 792.088 1081.21 789.649C1089.07 783.238 1098.51 786.883 1107 784.373C1111.77 782.963 1117.24 776.013 1122.79 778.329C1129.29 781.045 1126.33 791.316 1131.28 795.411C1136.23 799.504 1144.36 797.984 1149.78 801.993C1152.25 803.821 1153.29 806.917 1156.13 808.297C1160.28 810.311 1165.02 810.002 1168.9 812.854C1172.3 815.359 1173.23 819.661 1176.39 822.273C1186.28 830.442 1194.19 827.452 1205 825.938C1208.05 825.51 1210.97 826.982 1214 826.067C1218 824.858 1226.42 820.927 1228.13 816.892C1230.69 810.822 1226.72 807.531 1234 803.227C1239.84 799.779 1251.33 796.23 1258 795.213C1262.58 794.515 1268.48 796.318 1272.77 794.397C1276.18 792.87 1277.58 786.95 1279.64 784C1286.36 774.365 1296.65 760.311 1299.95 749.004C1301.18 744.774 1297.41 742.555 1296.03 738.961C1294.3 734.453 1293.38 727.823 1293.5 723C1293.67 716.084 1298.95 711.029 1301.42 705C1303.12 700.869 1300.53 697.116 1301.67 693C1303.22 687.434 1308.78 683.576 1312 679L1300 676.976L1288 670L1295 648L1278.04 656.257L1269.96 651.212L1256 651.678L1242 660.948L1231 661.641L1205 669.513L1196 665z"/>
</svg>
