<?xml version="1.0" standalone="yes"?>
<svg xmlns="http://www.w3.org/2000/svg" width="1450" height="1098">
<path style="fill:#010101; stroke:none;" d="M0 0L0 1098L1450 1098L1450 0L0 0z"/>
<path style="fill:#ffffff; stroke:none;" d="M61 977L121 972.039L143 974L137 965.996L134.539 956.001L122 940L110 932L110 936C107.053 934.473 93.0144 928.89 94.331 925.411C95.7558 921.645 101.359 922.97 101.424 917.945C101.526 909.95 92.6568 906.106 100 900L84 901L82 897L96 894C96.6532 888.836 101.613 886.839 106 885C101.191 880.462 94.68 887.714 88 885.318C82.5074 883.347 77.5476 881.821 73.0856 877.776C70.5165 875.447 68.0467 870.74 63.9961 871.323C52.6211 872.961 54.4846 888.808 53.9105 897C52.6413 915.109 59.6331 929.506 62.6713 947C64.351 956.671 61 967.188 61 977z"/>
</svg>
