<?xml version="1.0" standalone="yes"?>
<svg xmlns="http://www.w3.org/2000/svg" width="1450" height="1098">
<path style="fill:#010101; stroke:none;" d="M0 0L0 1098L1450 1098L1450 0L0 0z"/>
<path style="fill:#ffffff; stroke:none;" d="M1044 310C1046.97 318.264 1056.15 315.687 1063 318.348C1080.03 324.967 1098.26 321.965 1116 322.183C1123.14 322.271 1131.81 325.113 1139 326.213C1147.5 327.513 1156.32 339.405 1164.85 337.473C1171 336.082 1166.92 319.751 1169 315L1182 323L1175 326L1175 327C1191.44 333.167 1213.26 331.826 1227.88 342.728C1233.62 347.009 1230 360.926 1234.9 368C1238.22 372.787 1247.45 385.09 1254 384.214C1256.93 383.822 1260.26 381.652 1261.4 378.895C1263.7 373.326 1263.91 365.933 1265.72 360C1267.71 353.462 1271.42 347.659 1273 341C1261.3 332.359 1261.09 306.69 1258.38 293C1257.48 288.45 1260.12 278.999 1255.68 276.028C1246.88 270.138 1233.06 274.905 1224 276.535C1213.1 278.497 1201.88 275.626 1191 278.519C1183.48 280.518 1178.38 287.283 1171 289.751C1162.19 292.699 1157.12 284.141 1149 285.508C1138.36 287.3 1129.37 296.682 1119 299.334C1094.7 305.545 1068.64 305.425 1044 310z"/>
</svg>
