<?xml version="1.0" standalone="yes"?>
<svg xmlns="http://www.w3.org/2000/svg" width="1450" height="1098">
<path style="fill:#010101; stroke:none;" d="M0 0L0 1098L1450 1098L1450 0L0 0z"/>
<path style="fill:#ffffff; stroke:none;" d="M1060 344C1064.06 371.469 1074.93 396.849 1088.58 421C1092.07 427.178 1094.35 438.701 1099.56 443.273C1103.15 446.424 1108.93 447.792 1113 450.519C1118.7 454.341 1123.28 460.162 1129.09 463.583C1134.67 466.872 1140.89 467.944 1145.96 472.329C1151.38 477.013 1153.35 483.42 1157.64 488.83C1161.29 493.432 1166.72 496.148 1170.78 500.3C1174.04 503.64 1175.37 507.861 1180 509.767C1188.01 513.064 1191.79 500.602 1198 497.457C1204.21 494.318 1211.52 497.266 1218 495.57C1224.32 493.918 1228.2 488.045 1235 487.185C1242.14 486.282 1255.18 486.994 1258.03 477.961C1259.7 472.674 1252.66 470.608 1250.42 466.895C1247.19 461.552 1248.06 455.708 1246.57 450C1245.47 445.787 1242.45 442.16 1241 438C1233.13 440.495 1224.78 440.111 1217 442.595C1200.06 448.003 1190.5 457.175 1177.56 438C1174.23 433.064 1177.12 428.063 1174.98 423.133C1172.69 417.863 1166.71 416.109 1164.65 410C1163.37 406.198 1160.78 395.46 1156.85 393.951C1140.43 387.651 1122.65 419.403 1106.21 404.606C1099.71 398.752 1101.38 391.701 1097.78 385.225C1094.66 379.6 1084.68 374.399 1080.15 369C1077.09 365.355 1078 362.119 1076.4 358.089C1074.16 352.458 1065.56 345.891 1060 344z"/>
</svg>
