<?xml version="1.0" standalone="yes"?>
<svg xmlns="http://www.w3.org/2000/svg" width="1450" height="1098">
<path style="fill:#010101; stroke:none;" d="M0 0L0 1098L1450 1098L1450 0L0 0z"/>
<path style="fill:#ffffff; stroke:none;" d="M506 914L507 917L504 918C511.324 927.397 516.442 942.857 527 949L521 958L525 973C540.185 972.135 529.648 996.393 544.852 992.049C548.777 990.927 553.62 975.949 555.245 972.004C559.171 962.477 571.659 952.536 582 952C582 938.889 579.326 924.768 576.61 912C575.586 907.184 572.05 902.921 571.564 898C570.846 890.742 578.898 889.884 579.848 883.896C581.541 873.22 574.183 858.98 571 849C569.405 852.522 568.124 861.761 562.209 860.248C555.827 858.616 558.553 845.6 551.036 845.89C547.99 846.008 546.123 849.425 543.871 851.039C541.316 852.869 537.696 853.758 535.785 856.39C531.66 862.071 531.78 869.747 525.61 875.363C521.317 879.27 511.958 882.405 509.782 888.133C506.71 896.224 524.282 912.617 506 914z"/>
</svg>
