<?xml version="1.0" standalone="yes"?>
<svg xmlns="http://www.w3.org/2000/svg" width="1450" height="1098">
<path style="fill:#010101; stroke:none;" d="M0 0L0 1098L1450 1098L1450 0L0 0z"/>
<path style="fill:#ffffff; stroke:none;" d="M1109 452C1103.82 457.619 1099.05 463.244 1093 467.985C1088.53 471.485 1082.44 474.167 1079.37 479.093C1075.31 485.595 1075 494.571 1075 502L1084 502C1080.17 507.805 1078.77 515.525 1074.36 520.787C1071.17 524.603 1062.72 528.113 1064.79 534.697C1066.32 539.578 1083.42 542.435 1088 544.003C1104.75 549.73 1119.81 558.692 1132.98 570.425C1138.12 574.996 1139.95 582.859 1146 586L1144 588L1157.62 598.008L1171 618C1174.04 613.326 1179.35 616.537 1184 617C1180.9 622.215 1174.85 626.329 1173.93 632.961C1173.47 636.294 1176.95 638.599 1175.68 642.006C1173.5 647.883 1168.21 646.815 1168 641L1164 644L1159 640L1135 650C1131.25 643.92 1114.58 636.693 1110 645L1090 640L1089 632L1088 632L1086 638L1079.03 667L1075 678L1081 691L1072 686L1070 686C1066.85 699.288 1074.53 712.07 1081 723C1093.3 720.453 1102.25 715.084 1115 713.798C1118.12 713.483 1124.77 717.345 1126.98 715.15C1131.46 710.68 1127.91 693.237 1126 688C1142.97 686.612 1158.22 673.183 1169.46 662.279C1172.85 658.993 1179.28 659.292 1181.41 654.786C1183.11 651.191 1185.65 643.969 1185.28 640C1185.03 637.237 1182.82 634.847 1183.43 632C1185.25 623.488 1185.12 613.633 1187.75 605C1189.34 599.787 1192.93 595.903 1195 591L1190 590L1192 585L1186 581C1182.66 583.68 1178.94 589.498 1174.02 588.596C1168.89 587.657 1168.38 581.177 1168.09 577C1167.28 565.276 1166.54 550.743 1171 540C1163.37 533.458 1153.62 519.883 1148.65 511C1146.73 507.567 1146.82 503.363 1144.44 500.17C1139.89 494.084 1131.86 490.735 1128.14 483.996C1121.57 472.102 1120.19 461.777 1109 452M1168 630L1171 632L1168 630z"/>
</svg>
