<?xml version="1.0" standalone="yes"?>
<svg xmlns="http://www.w3.org/2000/svg" width="1450" height="1098">
<path style="fill:#010101; stroke:none;" d="M0 0L0 1098L1450 1098L1450 0L0 0z"/>
<path style="fill:#ffffff; stroke:none;" d="M1206 576L1189 604C1197.64 602.391 1205.27 601.365 1213 596.79C1216.92 594.469 1219.76 590.665 1224 588.854C1232.97 585.023 1244.4 584.863 1254 584.184C1260.69 583.712 1274.36 589.699 1278.97 582.606C1280.57 580.14 1279.86 576.71 1280.97 574C1285.51 562.862 1293.82 543.986 1290.68 532.089C1288.96 525.553 1283.63 520.149 1282.27 513C1280.97 506.142 1281.78 487.479 1271.01 487.712C1261.02 487.928 1261.76 505.042 1258.15 511C1253.51 518.64 1245.86 524.905 1240.39 532C1237.28 536.029 1235.76 541 1232.61 544.999C1229.55 548.883 1224.85 551.591 1222.57 556.039C1218.46 564.05 1217.66 576.964 1206 576z"/>
</svg>
