<?xml version="1.0" standalone="yes"?>
<svg xmlns="http://www.w3.org/2000/svg" width="1450" height="1098">
<path style="fill:#010101; stroke:none;" d="M0 0L0 1098L1450 1098L1450 0L0 0z"/>
<path style="fill:#ffffff; stroke:none;" d="M577 864C578.204 869.836 582.682 879.078 580.393 884.896C578.384 889.999 572.385 890.542 572.279 897.004C572.187 902.672 576.457 907.578 577.61 913C580.145 924.915 579.14 940.696 583.603 951.91C585.772 957.358 592.76 958.818 596.826 962.39C602.865 967.696 601.213 973.188 604.704 978.895C606.743 982.23 611.875 983.093 612.893 987.105C614.644 994 605.854 998.588 602.6 1003.17C598.05 1009.57 600.712 1017.82 604 1024L629 1029C626.509 1023.02 621.876 1017.29 620.39 1011C615.7 991.165 627.079 974.379 634.363 957C637.932 948.483 637.829 940.403 642.785 932.015C646.879 925.085 657.026 921.792 659.759 914C660.711 911.288 658.857 908.731 659.023 906C659.711 894.709 653.974 878.666 643.726 870.843C635.566 864.614 621.761 862.145 612 859.666C606.725 858.326 597.516 854.922 592.17 856.693C585.873 858.779 584.714 864.732 577 864z"/>
</svg>
