<?xml version="1.0" standalone="yes"?>
<svg xmlns="http://www.w3.org/2000/svg" width="1450" height="1098">
<path style="fill:#010101; stroke:none;" d="M0 0L0 1098L1450 1098L1450 0L0 0z"/>
<path style="fill:#ffffff; stroke:none;" d="M1051 336C1056.51 356.244 1035.63 376.062 1034 396C1019.37 397.206 994.778 417.248 991.394 432C989.45 440.479 996.567 449.905 991.697 457.782C987.005 465.369 984.223 454.635 979.971 454.636C976.868 454.636 969.307 463.343 968.201 466.039C965.418 472.826 974.25 479.877 974 487C972.314 484.957 970.631 481.462 968.367 480.047C961.595 475.818 958.233 489.738 952.566 489.307C948.444 488.994 947.672 484.121 945.701 481.512C942.906 477.811 932.57 472.521 928 474.013C923.088 475.617 913.289 480.173 911.148 485.105C905.529 498.047 915.294 514.895 894 516C897.911 529.325 885.358 542.698 884.39 556C883.284 571.184 891.016 585.58 894 600L895 600C895.906 594.918 898.749 590.813 900.452 586C902.876 579.152 903.498 572.862 908.518 567.105C923.016 550.478 950.206 552.565 970 551L965 535L968 533C968.89 537.314 969.767 546.556 974.39 548.608C978.037 550.227 982.844 545.888 986 544.525C995.955 540.227 1005.86 535.827 1016 532L1010 525L1016 524C1017.33 530.387 1022.32 530.673 1028 531.8C1039.28 534.039 1051.53 535.094 1063 536L1074.03 520.61L1082 503L1074 503C1074.01 494.197 1074.53 482.905 1081.21 476.326C1088.51 469.148 1105.24 463.235 1107.55 452.005C1108.59 446.955 1101.14 445.663 1098.56 442.772C1095.06 438.863 1094.06 432.659 1091.75 428C1083.56 411.46 1070.34 394.29 1066.39 376C1063.83 364.147 1064.16 341.709 1051 336z"/>
</svg>
