<?xml version="1.0" standalone="yes"?>
<svg xmlns="http://www.w3.org/2000/svg" width="1450" height="1098">
<path style="fill:#010101; stroke:none;" d="M0 0L0 1098L1450 1098L1450 0L0 0z"/>
<path style="fill:#ffffff; stroke:none;" d="M1130 858L1132 866C1124.13 863.597 1121.21 868.903 1115 873.075C1103.58 880.75 1094.26 890.156 1080 892L1080 903C1073.01 901.765 1070.04 905.243 1064 908L1064 909L1069 915C1065.6 915.729 1066.01 917.806 1066 921L1061 918L1060 918L1057 927L1053 926L1053 950C1058.53 947.856 1064.69 947.301 1070 945.142C1077.53 942.084 1080.75 936.393 1089.96 938.888C1093.72 939.908 1094.51 944.027 1097.53 945.972C1101.06 948.247 1110.73 948.687 1115 948.895C1124.32 949.35 1132.74 945.006 1142 945L1142 944C1133.91 936.91 1142.33 929.557 1145.46 922.001C1149.25 912.854 1157.24 913.698 1163.96 907.775C1170.52 901.99 1172.83 892.355 1173.77 884.005C1174.54 877.192 1167.79 879.67 1164.19 877.307C1160.97 875.196 1160.24 871.53 1160 868C1150.94 866.343 1146.08 871 1138 874C1138.74 866.577 1142.84 852.613 1130 858z"/>
</svg>
