<?xml version="1.0" standalone="yes"?>
<svg xmlns="http://www.w3.org/2000/svg" width="1450" height="1098">
<path style="fill:#010101; stroke:none;" d="M0 0L0 1098L1450 1098L1450 0L0 0z"/>
<path style="fill:#ffffff; stroke:none;" d="M535 991L529 1009C548.251 1013.45 566.251 1024.39 584 1032.68C590.435 1035.68 597.547 1036.96 604 1039.9C609.136 1042.24 613.619 1046.23 619 1048.02C624.599 1049.87 639.303 1053.75 644.996 1053.44C658.464 1052.72 644.494 1042.87 640 1041L641 1037C637.873 1034.81 634.859 1031.15 631 1030.36C627.289 1029.6 623.686 1031.97 620 1030.69C613.135 1028.3 610.954 1023.6 603 1025C601.173 1018.32 597.305 1011.91 601.013 1005.01C604.078 999.313 612.111 996.377 612.381 989.015C612.586 983.438 605.134 981.945 603.606 976.996C602.033 971.899 602.348 968.543 598.331 964.213C595.71 961.388 592.155 959.9 589 957.784C570.401 945.313 558.335 967.573 550.648 982C549.069 984.963 549.663 989.891 546.682 991.887C543.431 994.062 538.434 991.716 535 991z"/>
</svg>
