<?xml version="1.0" standalone="yes"?>
<svg xmlns="http://www.w3.org/2000/svg" width="1450" height="1098">
<path style="fill:#010101; stroke:none;" d="M0 0L0 1098L1450 1098L1450 0L0 0z"/>
<path style="fill:#ffffff; stroke:none;" d="M385 986L386 977L390 986C401.804 982.826 394.674 980.336 395.866 972.039C396.328 968.818 399.298 966.343 400 963C395.475 962.194 388.654 963.307 385.847 958.786C383.059 954.294 388.865 947.599 389.671 943C391.046 935.16 389.622 921.484 387.347 914C385.578 908.178 380.614 903.796 378.549 898C376.699 892.807 377.387 885.658 373.487 881.394C369.971 877.551 365.19 879.326 361.213 876.972C355.362 873.508 351.557 858.429 351.357 852.004C351.132 844.735 362.999 840.998 366.16 834.961C368.183 831.1 367.184 826.913 368.742 823.043C370.02 819.871 373.912 818.374 374.396 814.896C374.984 810.67 372.098 806.314 374.332 802.224C380.138 791.594 391.449 783.702 396 772C390.543 772.179 387.96 775.663 382.996 777.152C374.612 779.667 363.644 778.301 356.148 782.836C352.95 784.771 353.557 789.082 350.566 790.807C344.543 794.282 330.015 795.848 327.407 804.043C325.822 809.023 331.142 816.419 330.957 822C330.612 832.4 324.872 842.536 325.263 853C325.517 859.775 330.931 862.352 332.364 868.039C333.276 871.657 330.395 876.554 329.428 880C327.414 887.181 329.155 895.086 326.146 901.985C323.252 908.62 316.444 912.724 314.033 920C311.638 927.232 313.891 938.056 312.699 946C311.897 951.345 307.918 952.786 306.227 957.224C303.345 964.788 306.482 969.697 306.529 977C306.578 984.497 303.599 998.141 311.133 1003.24C316.212 1006.68 325.836 1000.39 331 998.667C348.519 992.826 366.926 990.144 385 986z"/>
</svg>
