<?xml version="1.0" standalone="yes"?>
<svg xmlns="http://www.w3.org/2000/svg" width="1450" height="1098">
<path style="fill:#010101; stroke:none;" d="M0 0L0 1098L1450 1098L1450 0L0 0z"/>
<path style="fill:#ffffff; stroke:none;" d="M719 745L724 746C723.001 752.335 708.012 762.277 702 764L687.459 796.996L693 814C679.745 814.571 689.976 828.166 690 835C676.334 835.009 668.065 835.101 656 842C662.595 855.535 679.989 867.311 691.957 875.951C695.031 878.17 696.741 883.167 700.154 884.593C703.439 885.964 703.825 882.184 704 880L696 875C698.632 874.823 702.403 876.131 704.741 874.768C710.007 871.696 713.496 862.122 716.427 857C724.498 842.9 741.071 827.274 729 811L728 811L723 813L724.448 791.054L744 760C737.25 756.958 725.623 734.846 719 745z"/>
</svg>
