<?xml version="1.0" standalone="yes"?>
<svg xmlns="http://www.w3.org/2000/svg" width="1450" height="1098">
<path style="fill:#010101; stroke:none;" d="M0 0L0 1098L1450 1098L1450 0L0 0z"/>
<path style="fill:#ffffff; stroke:none;" d="M1259 478C1250.36 488.752 1241.04 484.955 1230 489.144C1224.97 491.052 1221.41 495.813 1216 496.772C1204.5 498.812 1188.05 495.862 1186.31 513C1185.58 520.222 1188.32 530.929 1190 538C1171.61 539.67 1187.79 560.784 1189.6 570C1190.44 574.208 1187.06 576.943 1187.33 580.697C1187.5 583.249 1191.13 583.581 1193 584L1191 589C1198.69 589.644 1203.31 581.239 1206 575C1218.44 577.283 1217.79 561.07 1223.42 554.089C1234.23 540.687 1248.14 526.842 1257.15 512C1262.15 503.755 1263.39 494.495 1269 486L1259 478z"/>
</svg>
