<?xml version="1.0" standalone="yes"?>
<svg xmlns="http://www.w3.org/2000/svg" width="1450" height="1098">
<path style="fill:#010101; stroke:none;" d="M0 0L0 1098L1450 1098L1450 0L0 0z"/>
<path style="fill:#ffffff; stroke:none;" d="M468 697L454 696L458 700L458 701C453.21 702.991 446.369 704.09 442.213 707.009C439.281 709.068 438.259 713.075 434.895 714.589C429.541 716.998 423.892 713.369 418.174 717.086C409.452 722.754 406.957 732.859 395 733C395.435 738.644 390.951 743.477 393.438 749C395.642 753.898 405.396 758.253 404.315 763.988C403.544 768.076 399.306 769.452 396.993 772.39C390.813 780.237 385.842 788.358 380.698 796.776C379.137 799.331 375.912 800.288 374.757 803.133C373.074 807.278 376.28 811.661 375.111 815.787C373.281 822.244 364.462 828.248 368.132 836.985C370.778 843.283 380.055 842.924 381.667 850.004C383.226 856.849 376.697 862.255 378 869L393.039 861.405L402.853 859.292L414.965 842L425.292 829.961L438.024 798L455.351 780.711L477.213 748.718L489 748.555L501 741L488 726C473.414 726.751 478.995 697.482 475 688L468 697z"/>
</svg>
