<?xml version="1.0" standalone="yes"?>
<svg xmlns="http://www.w3.org/2000/svg" width="1450" height="1098">
<path style="fill:#010101; stroke:none;" d="M0 0L0 1098L1450 1098L1450 0L0 0z"/>
<path style="fill:#ffffff; stroke:none;" d="M1182 1019C1190.49 1015.75 1189.51 1004.67 1193.94 998.376C1198.02 992.573 1205.16 991.758 1211 989L1209 985L1215 985L1215 977L1229 976C1227.66 981.149 1221.59 989.307 1224.42 994.771C1226.49 998.76 1230.13 996.516 1233.42 996.405C1242.47 996.102 1247.22 993.964 1246 984L1236 979C1242.23 972.716 1238.25 971.265 1237.32 964C1236.03 953.939 1240.81 943.368 1250 939C1245.25 931.753 1235.15 936.209 1230.86 929.887C1227.43 924.845 1229.29 917.6 1226.29 912.055C1223.46 906.836 1217.06 906.984 1213.61 902.61C1210.49 898.656 1215.32 894.213 1212.93 890.448C1210.99 887.398 1206.83 889.399 1204 889.039C1196.55 888.09 1184.78 879.745 1177.21 882.909C1172.36 884.941 1173.54 890.896 1172.36 895C1170.95 899.952 1167.73 904.441 1163.98 907.892C1159.87 911.681 1154.69 912.397 1150.23 915.414C1146.21 918.125 1138.94 932.165 1138.72 936.996C1137.98 953.581 1167.02 945.479 1172.95 956.04C1176.67 962.673 1166.82 966.247 1168.34 972.942C1169.65 978.769 1177.6 976.138 1179.51 981.147C1182.38 988.694 1173.75 995.667 1173.95 1002.04C1174.13 1007.83 1181.11 1012.58 1182 1019z"/>
</svg>
