<?xml version="1.0" standalone="yes"?>
<svg xmlns="http://www.w3.org/2000/svg" width="1450" height="1098">
<path style="fill:#010101; stroke:none;" d="M0 0L0 1098L1450 1098L1450 0L0 0z"/>
<path style="fill:#ffffff; stroke:none;" d="M1296 632C1291.75 639.474 1295.29 641.672 1295.01 649C1294.81 654.176 1290.89 663.81 1289 669L1313 679L1302.4 693L1302.31 704L1294.33 724L1297.03 739.791L1300.78 748.015L1284 779C1291.66 779.09 1302.14 785.792 1307.27 791.509C1313.35 798.28 1319.68 810.907 1328 798L1329 801C1336.86 799.365 1334.64 791.78 1340.21 787.603C1346.16 783.149 1354.25 785.277 1360.61 779.24C1363.54 776.463 1368.53 769.49 1367.3 765.209C1366.6 762.803 1363.78 761.676 1364.16 758.896C1365.53 748.732 1372.16 738.702 1374.27 729C1376.22 720.098 1376.03 701.054 1364 708C1361.46 702.843 1360.39 694.706 1356.31 690.653C1350.86 685.235 1342.93 690.849 1337.02 687.103C1330.45 682.938 1334.36 677.849 1331.99 672.039C1328.01 662.315 1319.21 653.014 1337 653C1335.8 647.714 1338.6 635.335 1335.96 631.563C1329.73 622.661 1319.48 636.247 1313 636.894C1307.52 637.442 1301.4 633.129 1296 632z"/>
</svg>
