<?xml version="1.0" standalone="yes"?>
<svg xmlns="http://www.w3.org/2000/svg" width="1450" height="1098">
<path style="fill:#010101; stroke:none;" d="M0 0L0 1098L1450 1098L1450 0L0 0z"/>
<path style="fill:#ffffff; stroke:none;" d="M317 488L317 489C320.519 491.352 325.511 492.113 328.363 495.279C336.257 504.044 337.4 522.331 323 523C324.539 534.889 313.875 537.077 305 535C304.816 539.69 307.983 542.536 308.772 547C310.975 559.453 306.108 571.657 292 570C290.36 576.658 290.327 584.156 286.301 589.985C280.482 598.411 270.246 601.159 263.464 608.21C256.214 615.746 250.428 626.324 244.598 635C240.613 640.93 233.143 651.824 232.6 659C232.166 664.733 232.468 674.155 233.133 680C233.457 682.849 235.456 685.996 234.319 688.852C232.94 692.32 228.397 691.725 226.105 694.318C220.886 700.222 220.33 708.621 212.985 713.092C207.888 716.194 202.257 712.873 197.969 718.329C185.901 733.688 191.966 759.514 176.91 773.816C169.82 780.55 156.936 781.273 150.97 787.564C145.623 793.203 147.528 804.151 138.985 807.397C132.229 809.963 124.85 805.483 118 806.508C111.915 807.418 108.511 812.507 103 814.411C93.9343 817.543 81.8319 819.498 74.4298 826.638C71.5802 829.387 71.4937 833.763 69.2978 836.961C67.6284 839.392 64.5671 841.193 63.6582 844.089C62.3167 848.365 66.7573 852.866 67.5062 857C68.2874 861.313 65.4619 865.92 67.1034 870C70.2877 877.914 85.2954 887.196 94 886.158C97.2572 885.77 99.5978 882.431 102.896 882.465C105.86 882.496 108.942 886.161 112 887L105 873L109 872C107.167 865.707 110.626 859.711 113 854L120 862L129 860L129 867L122.458 879.895L113 887L118 890L117 894L119 895L120 895C122.753 890.138 124.311 883.411 127.564 879.108C133.073 871.821 150.885 864.611 156 874L169.213 857.816L182.957 859.836L193 852C190.719 857.478 188.864 865.846 183 868L185 872C177.458 873.745 167.484 877.305 166 886L174 887L165 893L161 888C159.765 895.769 152.687 900.332 148.873 907C142.82 917.58 139.253 930.801 139 943C143.217 942.467 155.819 942.666 155.288 936.129C154.873 931.017 150.043 934.402 149 937L144 936C147.644 931.465 158.803 926.712 154 920L154 919C156.056 917.974 158.476 916.324 160.897 916.823C163.272 917.312 165.7 921.789 168.305 919.914C170.98 917.988 171.031 911.895 172.353 909C175.537 902.023 185.339 895.965 193 896L179 914C191.487 917.984 167.541 928.719 171 936L171 937C169.361 938.573 168.7 939.867 167.545 941.809C166.326 943.859 163.725 945.559 163.465 948.061C162.341 958.885 188.988 957 195 957C184.399 965.972 169.078 960.769 157 958L159 954L149 952L144 962L152 967L146 974C173.898 974 203.789 979.995 231 985.789C239.191 987.534 258.011 995.911 265.752 993.226C270.778 991.483 264.697 985.77 263 984C269.723 985.471 271.729 988.27 270 995C279.963 999.721 292.917 1004.49 304 1005L304 1004C294.66 995.585 302.077 986.282 304.323 977C305.817 970.823 304.945 960.645 305 954C317.781 951.337 310.719 929.781 313.164 921C315.14 913.9 321.294 909.873 324.697 903.83C328.099 897.789 326.292 890.492 327.669 884C328.68 879.235 332.062 873.871 332.073 869.039C332.087 863.494 324.763 859.559 324.471 853C323.975 841.878 330.223 831.185 329.985 820C329.887 815.437 324.957 807.53 326.982 803.591C330.678 796.401 343.084 793.321 349.683 790.282C353.93 788.326 354.373 782.564 360 780.549C373.152 775.837 389.233 777.787 400.786 768.347C410.423 760.474 394.076 754.383 392.14 747C390.862 742.124 394.864 737.347 394 732C407.551 731.99 408.956 722.199 419.039 716.086C424.532 712.755 429.569 716.117 434.787 714.066C438.37 712.658 439.777 708.075 443.043 706.009C447.022 703.492 452.595 702.795 457 701L457 700L453 696L468 695C471.018 689.815 474.959 683.361 479.059 679.015C488.761 668.731 500.935 662.555 486.699 648.301C484.424 646.023 481.85 644.421 479 643L479 641L506 625L496 598C498.508 596.77 500.95 595.555 502.103 592.815C503.676 589.076 501.841 584.898 502.482 581C503.545 574.536 513.848 564.883 509.968 558.514C507.749 554.87 495.644 542.456 491.787 541.318C485.107 539.346 477.087 544.007 473.363 535.981C464.244 516.325 467.106 500.135 478.966 482.001C483.812 474.591 492.855 467.572 493.697 458C494.037 454.128 494.585 445.618 492.254 442.465C488.632 437.566 481.125 436.794 477.898 431.787C475.001 427.291 479.744 422.751 477.948 418.105C476.431 414.183 470.643 413.64 469.613 409.787C468.511 405.665 474.592 402.393 475.968 398.911C477.693 394.542 475.834 390.385 476.48 386C477.137 381.539 479.946 377.436 481 373C461.588 368.325 453.684 381.24 438 389.468C431.196 393.037 419.952 393.906 414.279 398.589C409.524 402.513 409.777 410.298 404.826 414.721C397.84 420.962 388.432 413.881 381.189 419.653C372.918 426.242 379.171 440.338 371.363 448.602C366.962 453.259 362.196 449.43 357 449.358C352.139 449.291 346.165 451.621 342.209 454.353C329.836 462.897 327.173 478.518 317 488z"/>
<path style="fill:#010101; stroke:none;" d="M226 932C221.746 937.574 216.482 943.819 216 951C223.106 948.888 232.494 939.186 226 932z"/>
</svg>
