<?xml version="1.0" standalone="yes"?>
<svg xmlns="http://www.w3.org/2000/svg" width="1450" height="1098">
<path style="fill:#010101; stroke:none;" d="M0 0L0 1098L1450 1098L1450 0L0 0z"/>
<path style="fill:#ffffff; stroke:none;" d="M583 125C602.798 134.863 583.335 144.965 580 159C587.347 165.871 577.072 169.721 578.817 176.867C580.726 184.683 594.429 179.38 596.431 185.163C597.735 188.932 593.594 193.495 592.641 197C590.796 203.784 594.96 210.671 589.431 216.721C583.515 223.196 569.239 220.859 564.029 228.499C561.401 232.353 564.017 242.005 563 247C568.128 249.508 574.611 252.483 575.142 259C575.399 262.156 573.305 265.55 574.618 268.621C576.14 272.181 581.058 273.389 583.436 276.326C588.449 282.516 583.647 292.713 580.985 299C575.62 311.672 568.012 306.067 558.015 311.442C546.428 317.672 533.48 336.383 534.409 350C535.711 369.083 563.152 374.28 571.991 388.089C576.784 395.579 575.567 410.875 585.379 415.397C597.016 420.759 612.193 416.305 622.815 426.329C634.749 437.591 622.961 444.12 617.14 453.3C613.472 459.084 612.419 474.62 615.148 480.895C620.862 494.032 637.77 474.902 638 468C645.324 472.923 658.438 490.902 654.637 500C651.391 507.769 645.845 507.217 640.669 512.303C637.136 515.775 635.43 521.264 630.907 523.683C625.864 526.379 616.686 524.688 614.228 531.213C610.713 540.545 618.106 546.344 619.09 555C619.812 561.35 617.242 566.674 620.31 573C623.159 578.874 629.648 584.267 630.628 591C631.305 595.649 627.122 599.522 626.559 604C624.657 619.155 619.869 634.548 617 650C623.863 652.8 629.643 655.753 635 649L636 649L640 658C650.549 658.087 654.031 662.714 662 668.682C665.527 671.324 670.473 670.183 673.57 673.318C677.224 677.016 677.958 683.477 680.67 687.867C682.959 691.574 687.644 692.22 689.836 696.055C694.323 703.902 695.422 714 700.302 721.772C702.961 726.006 709.093 725.427 712.982 728.029C717.78 731.238 718.579 736.183 721 741C731.528 740.617 734.974 756.954 745 759C749.281 742.985 761.34 736.283 777 732L776 725L780 730C787.029 728.021 790.941 720.829 798 718.062C816.137 710.953 833.964 705.02 851 695.336C856.833 692.021 864.587 689.854 869.049 684.621C876.193 676.245 899.376 648.858 878 645L878 656L866 652L865 662C866.913 663.978 869.594 666.156 870.184 669.001C871.4 674.858 862.151 678.509 864 671C858.01 666.011 858.187 649.765 857 642L860 643C861.067 638.45 860.747 635.823 858 632L863 633L868 623L869 623L870 626L871 626L874 624C878.123 614.193 890.223 612.765 892.973 602C894.508 595.992 889.655 587.507 887.616 582C885.016 574.982 883.492 564.498 883.59 557C883.752 544.486 894.637 533.343 894.461 521C894.348 512.996 888.628 509.023 884.856 502.961C880.624 496.156 876.193 482.865 878 475C871.775 477.35 866.625 485.404 863.333 491C861.587 493.969 859.432 499.067 855.421 499.443C850.135 499.939 841.772 493.484 836 492.464C827.774 491.01 817.705 493.985 810.043 489.825C803.58 486.315 802.77 477.267 797.532 472.419C792.936 468.165 785.455 471.348 781.728 466.757C775.638 459.256 777.562 447.631 775.215 439C771.554 425.533 762.374 415.09 758.637 402C755.632 391.471 763.213 371.139 755.606 363.529C751.426 359.348 745.955 359.232 741.039 356.687C735.45 353.793 732.263 347.44 725 348.522C719.75 349.305 706.787 354.089 702.39 357.14C697.892 360.261 697.311 366.667 690.999 367.802C686.633 368.587 674.472 360.105 671.39 356.786C661.104 345.711 670.825 334.046 666.999 321.001C664.49 312.446 652.148 308.771 651.924 300C651.788 294.714 656.695 290.414 658.901 286C663.999 275.799 670.993 265.742 670.992 254C670.992 242.437 659.304 231.556 660.588 221.004C661.307 215.09 667.923 212.432 670.045 206.996C673.476 198.205 670.588 188.951 672.379 180C673.67 173.545 678.398 167.858 677.772 161C677.271 155.519 672.47 152.169 671.303 147C670.012 141.28 672.574 134.55 669.682 129.17C667.406 124.934 662.724 122.606 660.858 118C656.321 106.798 658.669 94.4789 656.671 83C653.993 67.6158 645.773 53.5602 647 38C639.18 38.7159 628.961 50.1401 628.109 58C627.59 62.7794 629.849 67.3586 629.215 72C628.377 78.1395 623.964 83.2519 621.966 89C620.534 93.1211 621.463 97.3322 618.682 100.998C609.64 112.92 605.799 96.9023 597 101.698C589.016 106.048 585.248 116.779 583 125z"/>
</svg>
