<?xml version="1.0" standalone="yes"?>
<svg xmlns="http://www.w3.org/2000/svg" width="1450" height="1098">
<path style="fill:#010101; stroke:none;" d="M0 0L0 1098L1450 1098L1450 0L0 0z"/>
<path style="fill:#ffffff; stroke:none;" d="M1297 886L1295 882L1291 883C1295.82 877.485 1301.72 871.828 1304.63 865C1309.05 854.65 1309.32 842.992 1320 836C1318.54 824.774 1319.33 816.862 1323 806C1310.17 799.918 1304.37 785.612 1290.83 780.588C1279.1 776.234 1280.02 790.82 1273.61 794.972C1269.61 797.56 1262.54 795.659 1258 796.105C1252.2 796.674 1246.73 800.104 1241 801.424C1236.76 802.403 1230.15 803.978 1229.12 809.04C1227.74 815.801 1235.19 821.207 1238.56 826C1243.22 832.631 1245.79 840.596 1251.04 846.853C1256.3 853.116 1262.43 857.822 1267.35 865C1270.96 870.286 1268 878.698 1273.28 882.647C1279.83 887.552 1289.37 887.816 1297 886z"/>
</svg>
