<?xml version="1.0" standalone="yes"?>
<svg xmlns="http://www.w3.org/2000/svg" width="1450" height="1098">
<path style="fill:#010101; stroke:none;" d="M0 0L0 1098L1450 1098L1450 0L0 0z"/>
<path style="fill:#ffffff; stroke:none;" d="M420 836C411.992 844.921 407.943 858.827 396 863C392.832 859.727 380.791 868.788 377 871L379.972 847.225L367 837L366 837C362.014 840.449 354.301 844.207 352.212 849.171C350.249 853.835 355.348 866.475 357.338 870.995C361.114 879.575 371.239 875.555 375.697 884.015C378.279 888.916 377.882 894.882 379.93 900C385.203 913.181 391.195 922.974 390.981 938C390.89 944.455 384.844 950.924 385.647 956.895C386.635 964.247 396.165 959.014 399.168 963.514C401.11 966.424 396.773 969.275 396.448 972.089C395.982 976.116 399.226 979.724 399 984L443 985L432.689 966.325L437.977 959.536L455 942L452 941L453 937C445.982 931.024 468.132 921.031 473 918C470.062 908.668 459.967 912.031 453 910.323C447.355 908.938 441.649 903.639 438.403 899C434.892 893.983 434.28 887.264 431.451 882C428.324 876.182 421.294 871.78 420.002 865C417.958 854.27 428.511 846.323 420 836z"/>
</svg>
