<?xml version="1.0" standalone="yes"?>
<svg xmlns="http://www.w3.org/2000/svg" width="1011" height="1450">
<path style="fill:#010101; stroke:none;" d="M0 0L0 1450L1011 1450L1011 0L0 0z"/>
<path style="fill:#ffffff; stroke:none;" d="M523 173L529.616 194L525.053 208L515 237C523.531 239.698 524.563 248.425 531.594 252.972C537.389 256.72 545.831 252.489 551.852 257.513C558.277 262.874 556.061 278.322 558.691 285.675C560.417 290.498 564.982 294.738 567 300L583 296.812L595 301.933L610 303C614.418 297.211 622.96 289.458 625.307 282.7C628.01 274.919 624.669 263.081 624.983 255C625.123 251.394 628.833 248.753 627.843 245.043C626.529 240.125 620.393 239.796 618.028 235.787C615.034 230.712 615.128 214.78 615.953 209C616.515 205.061 619.923 202.38 621.701 199C624.925 192.868 625.294 183.831 629.599 178.39C637.118 168.885 647.897 164.827 652.648 153C654.745 147.781 652.533 143.203 653.43 138C654.159 133.772 657.389 130.359 657.617 126C657.883 120.895 653.395 115.892 654.133 111.104C655.34 103.272 668.302 102.567 674 103L673.981 92L678.091 77.0146L649 44C643.756 44.9464 639.922 48.2563 635 50.0316C622.685 54.4734 614.481 53.5376 606.024 65.6335C603.563 69.1527 604.394 74.9716 603.046 79C601.248 84.3741 597.597 89.5836 596.312 95C593.851 105.38 593.258 116.803 590.363 127C588.098 134.978 582.253 138.793 577.699 145.089C575.47 148.172 575.086 152.759 572.301 155.397C570.374 157.223 567.44 156.901 565.418 158.603C561.083 162.251 559.333 169.196 553.791 171.887C546.891 175.237 530.891 173 523 173z"/>
</svg>
