<?xml version="1.0" standalone="yes"?>
<svg xmlns="http://www.w3.org/2000/svg" width="1011" height="1450">
<path style="fill:#010101; stroke:none;" d="M0 0L0 1450L1011 1450L1011 0L0 0z"/>
<path style="fill:#ffffff; stroke:none;" d="M636 583C645.549 598.789 629.113 595.314 619 599L624.184 635L639.006 647.303L648.977 660.213L652.653 669.39L678 683L685 668C686.612 671.467 695.656 682.768 700.066 678.356C707.325 671.094 706.178 657.927 708.237 649C711.772 633.674 718.689 619.593 724 605C703.111 605 679.975 601.652 660 595.442C651.934 592.935 644.625 582.277 636 583z"/>
</svg>
