<?xml version="1.0" standalone="yes"?>
<svg xmlns="http://www.w3.org/2000/svg" width="1011" height="1450">
<path style="fill:#010101; stroke:none;" d="M0 0L0 1450L1011 1450L1011 0L0 0z"/>
<path style="fill:#ffffff; stroke:none;" d="M371 1127C379.845 1127.1 384.466 1137.16 392.957 1135.36C401.669 1133.52 402.318 1121.02 407.39 1115.17C414.396 1107.08 424.04 1105.43 432.941 1100.44C436.578 1098.41 436.571 1095.72 436 1092C440.847 1092.04 447.497 1094.34 451.956 1091.97C457.761 1088.89 456.674 1081.77 460.702 1077.51C463.872 1074.16 469.094 1075.16 472.775 1072.84C480.034 1068.25 485.379 1051.11 482.721 1043.18C479.922 1034.83 468.894 1036.96 463.419 1032.27C458.487 1028.05 460.986 1020.38 462 1015C454.294 1017.23 455.318 1021.08 451.15 1026.61C446.474 1032.82 439.83 1036.63 434.603 1041.97C432.851 1043.75 433.129 1046.5 431.397 1048.3C427.414 1052.43 420.653 1052.66 416.533 1057.3C412.665 1061.66 413.881 1068.11 407.981 1070.62C392.932 1077.02 384.182 1058.17 376.666 1048.98C374.243 1046.02 371.967 1041.26 367.91 1040.36C363.236 1039.32 357.88 1041.86 355.692 1046.02C353.651 1049.89 355.836 1053.91 355.16 1058C353.61 1067.39 345.34 1087.09 350.029 1095.91C356.435 1107.96 368.107 1112.13 371 1127z"/>
</svg>
