<?xml version="1.0" standalone="yes"?>
<svg xmlns="http://www.w3.org/2000/svg" width="1011" height="1450">
<path style="fill:#010101; stroke:none;" d="M0 0L0 1450L1011 1450L1011 0L0 0z"/>
<path style="fill:#ffffff; stroke:none;" d="M737 384C730.644 398.414 718.11 417.387 699.424 415.527C688.117 414.401 680.61 404.851 670.791 402.332C662.837 400.291 649.484 403.839 647 412C660.653 418.479 654.711 443.531 643.895 450.647C628.664 460.669 609.768 457.404 594.059 464.148C587.81 466.831 589.574 477.537 585.914 482.775C583.82 485.773 572.01 493.592 568.424 493.415C562.859 493.141 555.464 486.254 549 485C544.658 496.505 540.035 506.439 540 519C551.955 518.488 563.25 522.535 565 536C572.688 533.018 578.791 531.704 587 533.927C593.983 535.819 599.381 540.699 607 539.815C612.54 539.172 617.5 536.122 623 535.34C626.674 534.818 630.384 536.482 634 535.667C637.809 534.809 640.843 529.638 644.961 530.635C651.795 532.291 654.527 541.061 655 547L665 551L666 551C671.149 545.897 677.276 544.529 682.482 540.272C685.747 537.603 687.098 533.23 690.326 530.514C695.731 525.964 705.464 526.192 712 527C712.007 537.508 711.665 545.735 723 549L728 539L737 542C742.884 531.919 754.896 520.655 755 509C771.743 514.572 763.134 499.08 764.037 492C764.707 486.744 769.035 483.005 773 480C770.819 469.533 773.447 447.356 786 444C786.362 441.18 788.114 440.636 791 440.944C800.299 441.939 808.152 436.88 816 432L816 430C808.706 428.222 793.659 432.521 789 425L806 426L808 413L797 418L796 409C790.04 410.59 788.178 414.015 788 420L779 416C790.104 411.112 786.117 405.37 784 396L770 398.598L761 393.917L750.133 395.068L737 384z"/>
</svg>
