<?xml version="1.0" standalone="yes"?>
<svg xmlns="http://www.w3.org/2000/svg" width="1011" height="1450">
<path style="fill:#010101; stroke:none;" d="M0 0L0 1450L1011 1450L1011 0L0 0z"/>
<path style="fill:#ffffff; stroke:none;" d="M456 133C466.614 133.001 470.686 134.113 470.745 145C470.761 147.888 471.961 150.263 470.353 152.985C467.482 157.848 459.388 160.672 458.971 166.961C458.744 170.383 462.805 172.953 465 175L451 183L460 196C483.746 189.314 485.245 209.331 483 227L514 237L524.424 208L529.154 194L522 172C530.509 172 545.961 174.374 553.625 171.358C559.047 169.224 561.197 161.958 565.224 158.317C573.7 150.654 583.998 141.562 588.648 130C592.712 119.896 592.778 106.689 595.312 96C597.828 85.3939 603.762 77.5297 604 66C592.332 66 579.362 67.641 568 70.3757C563.695 71.4117 558.685 75.9114 554.093 74.3534C543.127 70.6322 551.534 53.0692 541.895 47.8434C534.184 43.6628 524.862 50.8718 517 51.6605C510.15 52.3477 502.763 49.0557 496 50.4082C476.81 54.2458 473.862 71.5594 465.86 85.9954C464.206 88.9808 460.59 90.5347 459.136 93.4553C456.853 98.0394 463.978 103.199 463.793 108C463.502 115.587 458.113 125.5 456 133z"/>
</svg>
