<?xml version="1.0" standalone="yes"?>
<svg xmlns="http://www.w3.org/2000/svg" width="1011" height="1450">
<path style="fill:#010101; stroke:none;" d="M0 0L0 1450L1011 1450L1011 0L0 0z"/>
<path style="fill:#ffffff; stroke:none;" d="M622 708C618.293 720.663 606.209 733.454 598.363 743.961C595.664 747.575 592.282 749.528 591 754L604 746C601.729 757.712 601.626 761.763 608 772C630.787 766.731 647.724 785.771 667 794L668 788L659 783C667.517 782.327 671.108 769.945 674 763L675 763L668 785C674.253 778.808 683.631 754.247 680.307 745.379C678.895 741.611 673.306 740.243 670.994 736.896C668.777 733.686 668.247 729.652 664.786 727.371C658.317 723.108 652.321 730.623 646.09 726.951C640.485 723.647 639.272 716.589 634.61 712.563C631.39 709.783 625.997 709.134 622 708z"/>
</svg>
