<?xml version="1.0" standalone="yes"?>
<svg xmlns="http://www.w3.org/2000/svg" width="1011" height="1450">
<path style="fill:#010101; stroke:none;" d="M0 0L0 1450L1011 1450L1011 0L0 0z"/>
<path style="fill:#ffffff; stroke:none;" d="M411 537C415.757 537.884 422.74 537.352 426.61 540.589C430.606 543.932 431.627 549.999 435.213 553.83C439.705 558.628 445.694 562.575 448.142 569C449.862 573.515 447.399 578.333 448.391 583C449.791 589.585 454.964 594.932 457.651 601C462.346 611.6 463.695 623.833 476 628.768C481.396 630.933 488.268 628.016 494 628L484.377 641.213L494 661L485 659C480.298 670.522 469.672 673.165 458 671.521C452.997 670.816 447.231 667.746 442.603 671.938C439.714 674.555 438.899 684.113 438 688C435.031 687.424 431.086 685.903 428.09 686.774C416.661 690.096 424.46 704.806 429.666 709.681C433.972 713.714 440.753 710.329 445.895 713.97C453.293 719.208 452.841 729.148 462.001 732.981C467.723 735.375 477.926 732.674 482.362 736.603C487.755 741.381 488.803 750.433 494.289 755.787C499.05 760.433 507.938 765.114 514 767.861C516.656 769.065 520.108 768.576 522.351 770.603C529.227 776.818 531.829 788.735 538.379 795.699C543.278 800.908 548.786 800.368 555 802.474C562.202 804.914 568.544 809.574 576 812L579 804L574 804L589 766C594.776 769.536 601.018 775.239 608 773C602.609 762.176 600.624 759.254 603 747L590 755C593.115 743.933 606.337 731.992 613.485 723C619.64 715.258 623.102 705.045 627 696L611.039 688.532L597.603 672L595.637 661L587.049 647L579.189 628L547 582L553 580C550.712 567.481 539.759 570.367 531.089 568.343C528.112 567.647 522.75 563.355 520.39 561.302C516.541 557.953 515.757 552.405 511.787 549.039C502.674 541.312 491.577 539.355 482.043 532.756C477.96 529.93 476.553 524.32 471.895 522.483C463.088 519.009 455.729 524.365 448 522.435C441.133 520.72 438.524 514.137 432.7 511.603C416.228 504.435 412.421 525.758 411 537z"/>
</svg>
