<?xml version="1.0" standalone="yes"?>
<svg xmlns="http://www.w3.org/2000/svg" width="1011" height="1450">
<path style="fill:#010101; stroke:none;" d="M0 0L0 1450L1011 1450L1011 0L0 0z"/>
<path style="fill:#ffffff; stroke:none;" d="M354 899C341.885 896.556 339.335 881.414 329.91 874.564C319.231 866.803 311.175 870.763 300 869.973C293.448 869.51 283.09 866.422 281 876C272.557 873.061 264.36 859.015 261 851C252.208 853.541 247.427 866.096 247.056 875C246.873 879.371 251.113 882.507 248.091 886.852C244.356 892.222 238.087 887.978 233 889.568C220.239 893.557 208.87 903.431 205.025 916C203.529 920.888 200.372 930.054 207.059 932.347C214.479 934.893 223.458 930.853 231 930.789C238.117 930.729 244.924 935.177 252 935.921C256.139 936.357 262.72 938.438 266.215 935.397C275.08 927.681 283.269 915.165 290.92 906C293.438 902.983 297.543 895.586 301.615 894.727C305.33 893.943 310.915 899.44 314 901.099C324.728 906.867 348.673 915.004 354 899z"/>
</svg>
