<?xml version="1.0" standalone="yes"?>
<svg xmlns="http://www.w3.org/2000/svg" width="1011" height="1450">
<path style="fill:#010101; stroke:none;" d="M0 0L0 1450L1011 1450L1011 0L0 0z"/>
<path style="fill:#ffffff; stroke:none;" d="M411 196C404.501 196.302 399.839 189.717 394.005 191.117C387.405 192.702 387.257 199.371 383.582 203.911C378.387 210.326 367.497 219.054 365.322 227.184C364.253 231.178 366.669 235.064 366.856 239C367.086 243.822 364.477 248.242 364.513 253C364.54 256.494 366.691 259.428 366.215 263C365.337 269.577 359.656 271.728 357.113 277.089C353.636 284.422 357.218 297.96 364.019 302.045C372.708 307.263 374.838 302.592 383 300.734C391.461 298.807 400.272 302.707 405.468 292.995C409.733 285.023 406.502 275.462 411.994 268.228C419.681 258.101 431.337 267.55 436 275C444.016 272.392 453.794 273.409 460.985 269.722C476.326 261.857 473.293 239.199 473 225L482 227C484.215 215.244 486.587 195.181 469 194.741C465.705 194.659 462.138 196.116 459 197C457.645 190.542 454.75 187.416 450 183L464 175C461.993 172.488 457.852 169.645 458.775 165.996C460.131 160.635 466.528 158.227 469.393 153.911C471.493 150.746 470.061 147.478 470.232 144C470.381 140.984 471.213 138.01 468.566 135.742C460.178 128.556 450.443 139.094 444 143.009C439.784 145.572 434.398 145.13 430.424 147.858C415.157 158.34 408.819 178.829 411 196z"/>
</svg>
