<?xml version="1.0" standalone="yes"?>
<svg xmlns="http://www.w3.org/2000/svg" width="1011" height="1450">
<path style="fill:#010101; stroke:none;" d="M0 0L0 1450L1011 1450L1011 0L0 0z"/>
<path style="fill:#ffffff; stroke:none;" d="M654 109C654.852 114.685 658.814 120.166 658.32 126C657.929 130.628 654.401 134.275 654.144 139C653.892 143.641 655.474 147.437 653.648 152C648.811 164.087 638.984 168.786 630.599 177.951C626.441 182.494 625.668 191.423 623.182 197C621.579 200.597 618.185 203.247 616.947 207C615.34 211.871 616.031 232.06 619.028 236.363C621.569 240.012 628.089 240.601 628.392 246.004C628.574 249.249 625.528 251.636 625.612 255C625.798 262.479 628.905 275.846 625.803 282.826C622.408 290.468 613.776 295.858 611 304C618.235 305.492 627.923 305.924 635 303.146C640.329 301.054 643.691 296.265 650 297.229C667.097 299.841 680.081 317.614 697.004 322.363C710.763 326.225 719.87 315.001 733 316C731.682 323.456 735.221 328.326 738 335C743.263 333.255 751.939 325.629 755.394 334.666C756.359 337.191 756.077 340.308 757 343C772.232 339.856 783.203 340.832 795.786 351.634C801.495 356.535 802.759 364.087 811 366.778C816.473 368.565 825.422 363.231 831 362.299C835.624 361.526 840.211 362.886 845 362C842.528 357.768 838.608 359.331 835.357 356.397C832.008 353.375 834.095 345.798 835 342L824 343L825 353L816 346L818 350L812 352L813.104 340L812.301 310L824 282C828.889 281.614 830.676 279.12 833 275L827 280L823 272C827.761 270.244 827.53 267.613 827 263L828 263C836.68 278.627 857.655 276.2 867.296 262.614C868.883 260.378 868.195 256.646 869 254L873 255L875.403 243L882 226L874 228L873 233L865 222C873.531 224.391 875.248 221.754 881 216L874 214C876.303 211.2 877.393 210.119 881 211C881.194 202.938 884.623 198.103 892 195L892 207C897.873 203.572 894.867 198.861 898.407 194.286C902.265 189.3 911.716 186.677 914.411 181.571C916.316 177.963 914.681 172.826 917.603 169.65C923.45 163.293 932.799 172.782 933 179L939 180C940.878 177.405 944.704 174.509 944.704 171.054C944.704 167.461 940.664 166.088 939.696 162.907C936.673 152.971 945.992 152.447 952 155C952.465 146.927 945.826 134.597 961 140L969 128C958.103 131.139 950.822 137.899 939 137C939.001 129.845 941.73 122.955 941.642 116C941.543 108.156 938.338 102.129 940.123 94C943.042 80.7148 951.689 72.2567 948 58C930.994 60.1608 914.346 48.2108 898 59C894.939 41.8402 867.668 39.745 855.589 49.1752C852.513 51.576 853.199 57.6218 851.742 61C846.792 72.4713 843.733 81.2007 836.951 92C834.65 95.6652 833.246 101.618 828.895 103.397C825.622 104.735 821.466 103.851 818 104.464C812.092 105.508 806.034 108.4 800 108.4C788.601 108.4 775.408 104.409 764 102.728C757.239 101.732 749.85 99.3113 743 100.302C731.248 102.001 729.749 121.002 718.996 120.188C708.699 119.408 696.418 116.948 687 112.687C680.502 109.747 675.564 103.304 668 103.275C662.895 103.256 658.445 106.924 654 109M936 186L939 189L936 186M913 198C913.978 201.701 912.592 202.487 909 203L909 204L916 207L915 211C922.994 210.761 930.344 209.713 932 200L928 202L921 202C919.657 197.753 917.178 197.231 913 198z"/>
</svg>
