<?xml version="1.0" standalone="yes"?>
<svg xmlns="http://www.w3.org/2000/svg" width="1011" height="1450">
<path style="fill:#010101; stroke:none;" d="M0 0L0 1450L1011 1450L1011 0L0 0z"/>
<path style="fill:#ffffff; stroke:none;" d="M432 1165C429.325 1169.75 428.286 1175.45 425.035 1179.87C422.536 1183.27 418.85 1184.18 419.124 1189.02C419.78 1200.59 432.288 1206.27 433.783 1217C435.091 1226.38 425.8 1231.5 425.177 1240C424.857 1244.36 427.682 1247.91 428.613 1252C430.468 1260.14 430.299 1268.82 428.801 1277C426.815 1287.84 414.864 1284.02 408.703 1290.64C402.264 1297.55 397.721 1318.67 400.317 1327.79C401.398 1331.59 405.908 1335.48 408 1339C421.081 1331.41 426.337 1332.02 440 1340L437 1341L437 1344C445.592 1347.19 448.957 1353.38 451 1362L452 1362C454.911 1358.18 461.018 1355.07 463.288 1361.73C464.801 1366.17 457.495 1372.18 458.228 1378C460.572 1396.62 476.16 1409.49 494.791 1401.26C498.302 1399.71 500.492 1395.86 504 1394L505 1398C508.491 1397 513.179 1393.85 516.697 1396.11C520.399 1398.49 520.29 1405.19 521.44 1409C523.869 1417.06 532.147 1423.29 540.96 1421.5C557.618 1418.13 537.251 1403.62 535.638 1398.98C532.984 1391.37 534.805 1384.24 544 1386C543.408 1382.86 541.763 1378.27 543.198 1375.21C547.894 1365.19 562.786 1368.25 564.853 1354.96C565.518 1350.69 565.994 1343.23 564.4 1339.17C561.975 1332.99 554.72 1327.9 557.908 1320.13C561.58 1311.19 583.226 1313.62 577 1300L534 1301C532.743 1291.73 526.934 1289.73 523 1299L508 1299C505.008 1285.95 496.695 1280.46 501 1267C492.308 1261.46 490.25 1256.77 493 1247C486.753 1244.01 484.441 1240.88 481 1235C488.83 1232.01 486.003 1224.75 483 1219L477 1220C475.604 1215.12 472.475 1210.22 472.629 1205C472.846 1197.64 476.78 1192.37 472.581 1185C468.12 1177.18 456.131 1173.7 450 1181L432 1165M580 1317L581 1311C577.187 1312.28 577.333 1314.31 580 1317M567 1338L569 1338L572 1332C567.494 1331.83 566.275 1333.65 567 1338z"/>
</svg>
