<?xml version="1.0" standalone="yes"?>
<svg xmlns="http://www.w3.org/2000/svg" width="1011" height="1450">
<path style="fill:#010101; stroke:none;" d="M0 0L0 1450L1011 1450L1011 0L0 0z"/>
<path style="fill:#ffffff; stroke:none;" d="M684 670L679 684C674.043 681.936 667.559 676.71 662 677.742C645.993 680.714 641.005 705.307 624 702L622 707C626.198 708.607 632.132 709.103 635.363 712.43C639.491 716.68 640.547 723.542 646.174 726.529C652.51 729.893 658.374 722.547 664.895 726.985C672.459 732.132 671.298 740.936 682 743C684.91 734.399 698.388 714.397 693 706L693 705L700 681L684 670z"/>
</svg>
