<?xml version="1.0" standalone="yes"?>
<svg xmlns="http://www.w3.org/2000/svg" width="1011" height="1450">
<path style="fill:#010101; stroke:none;" d="M0 0L0 1450L1011 1450L1011 0L0 0z"/>
<path style="fill:#ffffff; stroke:none;" d="M162 886C166.989 877.242 169.249 867.427 174.089 859C177.227 853.535 183.961 850.937 183.961 844.003C183.961 837.189 177.546 836.326 175.198 830.911C173.72 827.502 175.808 823.528 175.617 820C175.224 812.727 171.663 808.979 176.554 802C188.087 785.545 205.68 799.462 218.536 786.672C221.3 783.922 225.859 780.645 227.974 777.505C229.577 775.126 229.299 771.64 230.529 769C236.78 755.584 244.005 747.122 260 749C256.052 739.503 253.102 729.378 255 719C245.287 713.559 231.945 718.585 221 717.957C211.555 717.415 203.253 704.41 195 705.702C188.329 706.747 174.891 715.157 170.379 720.174C167.334 723.559 165.609 728.758 161.7 731.306C156.398 734.763 146.316 728.365 140 729.309C134.201 730.175 131.352 735.899 126 736.933C119.985 738.094 112.133 734.512 106 734.089C98.2848 733.558 88.2374 736.753 81 734.86C75.3356 733.379 64.6142 728.191 58.9969 729.668C49.6161 732.135 49.8487 742.185 45.0062 748.787C42.9362 751.609 39.31 752.756 37.8935 756.105C36.2334 760.03 36.4785 767.151 39.564 770.351C42.8166 773.724 48.9429 775.107 53 777.427C62.0943 782.63 71.6842 789.31 78.8302 797.015C84.5754 803.209 94.0882 811.963 96.8519 820C99.1628 826.72 96.0285 835.615 99.0671 841.961C101.76 847.583 108.679 850.078 111.347 856C113.463 860.697 110.396 869.833 113.618 873.157C124.211 884.089 148.02 883.107 162 886z"/>
</svg>
