<?xml version="1.0" standalone="yes"?>
<svg xmlns="http://www.w3.org/2000/svg" width="1011" height="1450">
<path style="fill:#010101; stroke:none;" d="M0 0L0 1450L1011 1450L1011 0L0 0z"/>
<path style="fill:#ffffff; stroke:none;" d="M326 446C326.856 452.626 326.781 460.651 328.498 467C329.538 470.843 332.496 474.005 333.062 478C333.805 483.242 331.415 487.644 333.854 492.907C336.925 499.533 345.859 500.265 350.671 505.213C359.003 513.779 354.36 522.901 353 533C356.88 532.427 362.15 529.415 365.985 530.546C370.87 531.985 372.611 538.338 378.001 539.123C387.343 540.483 392.796 528.957 401.197 540.019C402.381 541.578 403.166 543.247 404 545L405 545L412.878 522L431 500C423.527 495.82 425.326 485.587 425 478C429.717 477.514 434.591 480.013 438.985 479.162C442.793 478.424 444.861 474.784 448.039 472.934C457.422 467.473 471.674 464.542 473.678 451C474.407 446.076 470.766 440.789 469.808 436C468.251 428.215 469 419.906 469 412C474.696 411.095 477.987 407.346 483 404.916C489.336 401.844 499.596 400.848 504.396 395.363C507.243 392.109 505.446 384.476 503.687 381C498.432 370.619 488.645 362.438 488 350L493 352C492.981 345.488 490.824 335.076 482 335.834C477.386 336.231 473.815 339.586 469 339.305C460.288 338.797 451.773 335.109 443 334C442.999 327.628 441.292 321.291 441.456 315C441.592 309.782 444.379 304.176 443.273 299C441.831 292.253 436.312 286.901 435.212 280C433.649 270.19 425.32 259.286 414.225 266.938C402.522 275.007 414.666 295.647 396 300.745C391.497 301.975 387.387 300.703 383 301.393C376.363 302.437 374.242 307.467 367 304.087C358.367 300.058 360.21 292.95 354.436 287.858C351.867 285.592 347.208 285.651 344 284.996C335.547 283.27 318.016 275.626 310.214 281.152C301.961 286.997 309.441 298.609 303.991 305.697C300.096 310.761 290.587 307.432 288.1 314.109C285.542 320.973 292.451 328.78 290.667 335.895C288.922 342.859 280.558 345.126 279.285 354C277.487 366.534 282.594 373.282 284.518 385C285.711 392.271 284.186 399.494 285.818 407C290.29 427.565 304.436 446 326 446z"/>
</svg>
