<?xml version="1.0" standalone="yes"?>
<svg xmlns="http://www.w3.org/2000/svg" width="1011" height="1450">
<path style="fill:#010101; stroke:none;" d="M0 0L0 1450L1011 1450L1011 0L0 0z"/>
<path style="fill:#ffffff; stroke:none;" d="M474 226C474.275 239.335 476.148 256.436 465.7 266.787C459.299 273.128 435.006 269.973 436.232 281.005C437 287.909 443.027 293.204 444.073 300C445.283 307.856 437.727 326.582 445.603 332.821C461.198 345.174 493.748 324.127 494 352L529 369L530 351C535.166 352.514 538.211 354.292 541 359C550.694 354.994 552.555 362.143 562 363C562.841 373.169 568.733 371.557 577 370L574 387C583.902 383.772 600.88 376.503 596.297 363.001C594.502 357.711 588.966 355.195 587.148 349.996C584.678 342.933 586.372 336.067 580.811 330.09C573.992 322.762 549.81 314.485 566 301L557.887 284.907L552.397 258.513L532.209 253.972L519.61 239.433L507 235.91L474 226z"/>
</svg>
