<?xml version="1.0" standalone="yes"?>
<svg xmlns="http://www.w3.org/2000/svg" width="1011" height="1450">
<path style="fill:#010101; stroke:none;" d="M0 0L0 1450L1011 1450L1011 0L0 0z"/>
<path style="fill:#ffffff; stroke:none;" d="M589 768L575 803L580 803C574.421 820.117 567.804 834.558 567 853C559.301 852.365 559.397 847.037 553.61 844.643C546.423 841.669 533.055 846.5 534 855C524.476 857.715 518.383 857.697 510.004 851.39C505.755 848.192 502.702 842.143 496.999 841.438C490.273 840.606 484.159 846.257 478 847.944C474.602 848.875 471.387 847.211 468 847.811C461.285 849 454.939 852.693 448 854C445.006 841.057 442.272 829.097 428 837C429.265 843.007 430.744 844.925 437 845L424 881C430.569 882.243 447.924 893.743 443.893 902.286C438.667 913.365 430.534 904.054 423.728 911.637C419.912 915.888 422.236 921.153 422.816 926C424.213 937.682 424.116 947.374 436 953L447.015 940.879L458 940.223L467 933L471 960L458 958L462 973C459.299 973.559 456.648 974.222 454.001 975.001C432.66 981.277 459.357 996.822 462.137 1007C464.075 1014.09 457.82 1025.93 463.514 1031.44C466.386 1034.21 471.485 1034.27 475 1036C488.231 1042.5 499.149 1045.36 514 1046L516 1031L535.961 1030.03L546.171 1038.44L567 1043L570 1036C574.911 1038.85 586.12 1039.29 587.492 1045.72C588.331 1049.66 581.788 1053.61 584.85 1057.4C587.279 1060.4 593.596 1058.96 596.895 1061.57C600.894 1064.73 601.975 1070.11 606.105 1073.15C614.223 1079.11 630.292 1078.97 640 1079C638.82 1073.38 641.659 1071.19 642.386 1066C643.288 1059.55 639.719 1052.5 649 1051L657 1025C652.205 1025.36 649.839 1024.02 650 1019C644.652 1016.08 644.087 1013.18 647 1008C638.131 1008.91 636.015 1002.8 629 999L627.304 981.424L629 944L634 944L631 937L633 930L616 920L616 919L630 922L642 899L639 898L667 795C652.583 785.959 636.497 773.767 619 770.703C613.319 769.708 608.809 775.148 603.576 774.508C598.458 773.882 594.271 769.016 589 768M639 910L633 923L637 924L642 911L639 910M643 1069L645 1071L645 1069L643 1069z"/>
</svg>
