<?xml version="1.0" standalone="yes"?>
<svg xmlns="http://www.w3.org/2000/svg" width="1011" height="1450">
<path style="fill:#010101; stroke:none;" d="M0 0L0 1450L1011 1450L1011 0L0 0z"/>
<path style="fill:#ffffff; stroke:none;" d="M517 1032L515 1047L484 1042C484.193 1051.35 481.9 1066.72 473.606 1073.14C470.105 1075.85 464.854 1074.71 461.51 1077.73C458.657 1080.3 458.418 1084.88 456.298 1088C451.163 1095.55 444.737 1093.06 437 1093C437.332 1103.57 422.094 1104.53 415 1108.89C406.587 1114.05 399.842 1126.45 398 1136C409.926 1137.89 411.008 1147.77 418.483 1154.49C424.5 1159.9 433.994 1163.02 440.57 1167.98C444.263 1170.77 445.158 1176.65 449 1180L450 1180C458.664 1172.89 470.499 1177.75 474.525 1188C477.069 1194.47 473.465 1198.75 473.359 1205C473.275 1209.9 475.644 1214.86 478 1219C486.429 1218.73 490.366 1230.5 483 1235C484.179 1241.51 487.704 1244.49 494 1246C491.363 1255.36 491.088 1262.75 502 1266C497.635 1279.65 503.576 1285.4 509 1298L523 1298C525.213 1293.03 527.534 1291.18 533 1291C533.332 1293.45 533.487 1297.34 535.728 1298.93C537.872 1300.45 541.518 1299.14 544 1299.56C554.263 1301.28 566.636 1301.68 577 1299C576.619 1296.34 577.379 1291.81 575.782 1289.6C574.314 1287.57 571.115 1287.99 569.252 1286.4C565.202 1282.94 567.409 1275.47 570 1272C570.233 1276.48 571.112 1279.54 575 1282L575.941 1254.04L574.333 1241.11L584 1237L581 1233L581 1232L593 1215L595 1225L596 1225C598.961 1215.57 594.349 1208.32 600.069 1199C608.031 1186.02 625.646 1187.96 633.161 1173.91C636.588 1167.5 631.663 1161.87 633 1155C642.144 1156.6 642.065 1148.31 634 1147L636 1134L627 1132L627 1131C629.417 1128.47 629.332 1127.21 628 1124C634.951 1122.39 639.165 1120.24 641 1113L631 1110C638.058 1102.7 632.362 1099.53 635.671 1092.1C637.041 1089.03 643.574 1085.61 640.777 1081.6C639.212 1079.36 634.411 1079.74 632 1079.42C624.539 1078.44 615.881 1078.8 609.001 1075.31C602.684 1072.11 601.625 1064.58 595.895 1061.32C592.33 1059.29 585.64 1061.47 583.681 1057.02C581.992 1053.19 587.251 1049.95 586.878 1046.02C586.346 1040.42 574.42 1038.84 570 1037L567 1044L546.089 1038.99L536.829 1030.77L517 1032M592 1254L592 1255L594 1256L594 1257C588.167 1263.23 594.216 1275.43 600 1280L598 1252L592 1254z"/>
</svg>
