<?xml version="1.0" standalone="yes"?>
<svg xmlns="http://www.w3.org/2000/svg" width="1011" height="1450">
<path style="fill:#010101; stroke:none;" d="M0 0L0 1450L1011 1450L1011 0L0 0z"/>
<path style="fill:#ffffff; stroke:none;" d="M675 374C676.561 382.287 670.861 397.078 674.497 403.775C677.458 409.23 686.596 411.108 692 412.273C714.683 417.162 728.447 403.347 737 383C745.498 385.42 743.769 389.828 749.513 394.303C752.71 396.794 756.574 393.139 760 393.374C764.57 393.688 767.14 398.486 772 398.19C778.786 397.776 785.458 394.532 789.153 388.714C793.561 381.773 790.069 370.07 803 378L808 375C808.064 397.135 834.903 383.947 836 370C841.352 369.721 844.521 368.371 846 363C841.117 363.382 835.635 362.065 831 362.889C825.316 363.899 816.686 369.197 811 367.061C803.138 364.108 801.498 357.959 796.351 352.634C785.338 341.242 771.166 340.01 757 344L756 334C748.444 328.818 744.643 331.732 738 337L732 317C719.707 314.753 711.838 326.375 699 323.61C695.862 322.934 689.731 318.539 687.786 323.244C685.718 328.243 691.386 335.853 692.004 341C692.64 346.3 688.365 349.213 687.35 354C686.587 357.596 690.14 360.44 689.334 363.907C688.163 368.944 679.002 371.664 675 374M799 388L801 393L799 388z"/>
</svg>
