<?xml version="1.0" standalone="yes"?>
<svg xmlns="http://www.w3.org/2000/svg" width="1011" height="1450">
<path style="fill:#010101; stroke:none;" d="M0 0L0 1450L1011 1450L1011 0L0 0z"/>
<path style="fill:#ffffff; stroke:none;" d="M666 552L665 552L654 548C653.884 542.364 651.339 529.563 642.985 530.948C638.713 531.655 636.588 536.405 632 536.682C624.971 537.106 615.433 535.063 609.604 540.843C606.776 543.648 608.717 550.487 609.181 554C610.2 561.725 613.045 569.183 613.829 577C614.608 584.756 612.494 592.351 617 599C626.41 596.316 646.618 596.859 635 583C643.676 581.177 651.055 591.972 659 594.442C679.815 600.913 703.23 604 725 604C725 582.366 730.283 563.65 737 543L728 540L723 550C719.368 548.488 714.234 546.835 712.603 542.895C710.978 538.972 713.022 531.016 709.397 528.18C698.681 519.796 687.884 536.824 681.816 541.272C676.056 545.494 670.547 545.603 666 552z"/>
</svg>
