<?xml version="1.0" standalone="yes"?>
<svg xmlns="http://www.w3.org/2000/svg" width="1011" height="1450">
<path style="fill:#010101; stroke:none;" d="M0 0L0 1450L1011 1450L1011 0L0 0z"/>
<path style="fill:#ffffff; stroke:none;" d="M423 704L422 705L422.39 729L440.9 761L445.564 775.961L460.816 788.633L468.326 796.686L476.61 799.857L482.637 808.536L490.192 818.004L489 842C506.326 838.087 514.336 864.453 533 854C533.742 846.258 546.742 840.553 553.787 844.117C559.051 846.78 559.13 851.375 566 852L569.637 826L575 812L557 803.839L538.21 795.826L522.302 771.603L495.09 756.787L481.606 737.028L461.004 733.134L446.61 714.97L433.039 712.227L425 704L423 704z"/>
</svg>
