<?xml version="1.0" standalone="yes"?>
<svg xmlns="http://www.w3.org/2000/svg" width="1011" height="1450">
<path style="fill:#010101; stroke:none;" d="M0 0L0 1450L1011 1450L1011 0L0 0z"/>
<path style="fill:#ffffff; stroke:none;" d="M405 708C412.553 717.819 407.943 724.306 410.422 735C411.367 739.077 416.658 744.258 413.957 748.581C411.232 752.943 401.516 753.998 397 756C403.644 771.958 400.703 789.676 390 804L390 805C394.208 810.302 398.789 815.652 401.304 822C402.87 825.952 404.032 833.399 408.225 835.438C410.893 836.736 424.934 837.003 428 836.208C431.616 835.27 434.878 831.198 438.892 832.681C444.896 834.9 446.653 847.706 449 853C458.756 851.162 467.46 848.899 477 847.519C489.693 845.684 492.606 827.476 489.196 817.039C485.981 807.199 475.621 802.221 468.184 797.143C461.185 792.363 449.357 782.011 444.564 774.996C441.515 770.534 442.26 764.768 439.9 760C434.724 749.539 423.801 739.401 421.391 728C419.802 720.482 422.848 712.762 421 705L405 708z"/>
</svg>
