<?xml version="1.0" standalone="yes"?>
<svg xmlns="http://www.w3.org/2000/svg" width="1011" height="1450">
<path style="fill:#010101; stroke:none;" d="M0 0L0 1450L1011 1450L1011 0L0 0z"/>
<path style="fill:#ffffff; stroke:none;" d="M250 716L256 718C253.95 729.047 256.781 739.849 261 750C245.337 748.031 237.867 754.386 231.529 768C230.145 770.974 230.731 774.9 228.973 777.582C226.868 780.792 221.551 783.954 218.7 786.819C207.112 798.461 189.189 786.873 179.1 799.019C172.21 807.314 176.289 811.909 176.359 821C176.385 824.415 174.372 828.477 176.067 831.711C178.721 836.774 185.609 838.125 184.833 844.999C184.181 850.765 177.807 853.319 175.089 858.004C172.419 862.606 172.568 868.189 170.468 873C168.277 878.018 164.354 882.046 162 887C167.86 890.106 177.395 899.139 180.558 905.015C186.999 916.981 185.535 929.998 202 930C202.168 909.71 214.815 896.324 233 888.953C237.388 887.174 244.556 891.367 247.678 886.682C250.401 882.598 246.499 879.399 246.336 875.424C245.929 865.527 252.215 853.659 261 850C264.298 857.92 271.69 871.86 280 875L281 870C285.223 869.95 289.036 867.484 293 867.549C295.798 867.595 298.129 869.567 301 869.397C305.982 869.104 309.727 866.032 315 867.509C330.147 871.753 338.821 886.434 355 887.847C363.407 888.581 371.321 878.878 380 877.439C389.318 875.894 391.073 882.025 398.989 882.637C403.284 882.968 405.096 878.875 409.015 878.272C413.329 877.608 418.663 880.415 423 881L436 846L429 846C426.791 830.06 413.332 841.853 406.38 834.59C398.482 826.339 398.358 813.306 389 805L389 804C393.431 799.823 393.922 794.55 395.749 789C400.41 774.844 401.909 769.192 396 755C400.46 753.968 410.247 752.474 412.968 748.49C416.107 743.895 410.329 738.357 409.458 734C406.805 720.736 411.078 713.639 400.081 702.607C397.333 699.85 384.386 699.814 380.039 698.691C368.382 695.677 362.469 687.081 358 677C353.202 678.998 348.309 682.592 343 682.855C337.459 683.13 332.426 679.938 327 679.414C323.151 679.043 319.752 680.162 316 678.584C305.101 674 291.035 661.886 278.004 666.746C273.166 668.55 267.02 675.966 265.887 681C265.105 684.472 267.035 687.371 263.812 690.035C252.839 699.102 251.775 701.956 250 716z"/>
</svg>
