<?xml version="1.0" standalone="yes"?>
<svg xmlns="http://www.w3.org/2000/svg" width="1011" height="1450">
<path style="fill:#010101; stroke:none;" d="M0 0L0 1450L1011 1450L1011 0L0 0z"/>
<path style="fill:#ffffff; stroke:none;" d="M573 388L576 371C572.768 371.609 568.3 373.135 565.144 371.651C556.133 367.415 554.239 352.357 541 360C538.484 354.841 535.508 353.159 530 352L529 370L489 352C490.47 366.353 509.475 378.626 506.593 392.895C505.78 396.919 500.318 398.702 497 400.127C488.824 403.639 476.528 405.932 471.028 413.684C462.82 425.251 478.926 443.653 473.142 454C466.875 465.21 458.643 468.176 448.09 473.432C445.051 474.945 443.195 478.129 439.985 479.358C436.19 480.811 429.881 476.14 427.042 479.746C422.929 484.971 426.553 497.417 432 500L429 510C436.628 511.202 440.062 519.949 448 521.929C456.355 524.013 463.606 517.038 472.895 522.303C481.762 527.329 483.976 536.412 496 538.288C504.612 539.631 511.624 531.767 518.089 527.588C523.869 523.853 532.029 525.579 537.397 520.034C540.573 516.753 539.386 509.245 540.39 505C542.1 497.767 546.444 491.537 548 484C554.536 485.268 563.362 493.088 569 492.758C575.266 492.392 585.399 483.657 587.325 477.999C589.184 472.538 587.886 466.104 594.019 463.483C609.7 456.784 629.047 460.576 643.895 450.03C653.344 443.318 660.974 415.56 645 413C652.561 400.277 661.905 407.168 671.486 399.987C677.639 395.375 675.198 379.36 674 373L690 365L686.573 354.576L691.428 342L687 320C674.879 314.669 665.4 301.728 652 298.419C643.088 296.218 638.943 303.815 631 304.866C626.094 305.516 619.797 306.872 615 305.542C610.977 304.426 607.134 300.302 603 300.212C600.218 300.152 598.144 302.577 595.424 302.652C591.81 302.751 588.35 299.093 585 297.984C579.97 296.319 565.961 298.824 563.603 304.214C556.865 319.616 574.131 322.327 581.811 331.015C587.259 337.178 585.578 343.847 588.148 350.961C590.119 356.415 596.205 359.044 597.576 365C600.442 377.446 581.982 385.073 573 388z"/>
</svg>
