<?xml version="1.0" standalone="yes"?>
<svg xmlns="http://www.w3.org/2000/svg" width="1011" height="1450">
<path style="fill:#010101; stroke:none;" d="M0 0L0 1450L1011 1450L1011 0L0 0z"/>
<path style="fill:#ffffff; stroke:none;" d="M423 704C421.043 692.44 423.522 684.397 437 687C438.978 682.531 438.736 673.022 443.148 670.652C456.47 663.496 479.188 680.871 484 658L493 660L483.752 641.105L493 629C488.013 629.014 481.682 631.44 477 629.732C463.052 624.644 461.715 610.47 456.18 599C453.594 593.642 449.238 588.793 447.642 583C445.225 574.227 449.418 569.085 442.535 561.039C434.704 551.884 415.819 524.358 405 546C400.729 540.131 397.384 533.749 389 535.932C385.487 536.847 381.724 540.173 378 539.573C373.372 538.826 371.491 533.917 367.83 531.697C363.867 529.292 354.766 532.914 351.529 535.702C343.428 542.679 343.013 559.758 330.985 562.678C325.373 564.041 320.327 557.78 315.228 559.786C309.226 562.148 314.923 569.824 314.242 573.999C313.002 581.599 303.6 583.804 305.359 592.956C306.683 599.849 318.012 597.901 322.786 602.468C329.685 609.068 331.97 622.648 337.352 630.907C340.145 635.193 345.255 636.321 348.297 640.213C354.427 648.056 349.691 658.591 353.414 667C359.295 680.287 363.827 691.911 378.285 697.416C384.795 699.895 392.734 698.665 398.772 700.707C401.554 701.647 401.726 705.187 404.302 706.397C409.906 709.028 417.527 705.266 423 704z"/>
</svg>
