<?xml version="1.0" standalone="yes"?>
<svg xmlns="http://www.w3.org/2000/svg" width="1011" height="1450">
<path style="fill:#010101; stroke:none;" d="M0 0L0 1450L1011 1450L1011 0L0 0z"/>
<path style="fill:#ffffff; stroke:none;" d="M500 539L530 569C541.216 565.833 549.031 569.957 555 580L548 583C555.736 601.581 569.852 612.124 580.189 629C583.944 635.13 585.031 641.65 588.049 648C590.409 652.966 594.492 656.888 596.637 662C600.895 672.148 600.999 679.245 610.174 687.532C615.087 691.97 622.056 693.348 628 696L626 702C638.068 703.137 641.723 689.993 649.214 683.637C653.021 680.407 658.147 679.193 662 676C646.887 666.748 645.121 646.429 626 644L620.375 620L619.348 604L613.531 593L612.711 575L607 541C590.243 540.606 581.655 530.152 564 537C562.675 506.231 524.769 525.225 510.985 533.648C507.537 535.755 503.723 537.45 500 539z"/>
</svg>
