<?xml version="1.0" standalone="yes"?>
<svg xmlns="http://www.w3.org/2000/svg" width="938" height="1450">
<path style="fill:#010101; stroke:none;" d="M0 0L0 1450L938 1450L938 0L0 0z"/>
<path style="fill:#ffffff; stroke:none;" d="M354 852C346.322 853.249 343.591 862.332 346.353 868.995C348.173 873.388 362.208 883.707 367.014 884.358C373.968 885.301 374.182 877.123 378.225 873.637C382.468 869.979 388.199 869.942 392.715 867.066C398.739 863.229 403.239 856.889 410 854.024C417.193 850.976 424.958 859.725 432 860.787C437.987 861.69 442.713 860.225 444 854C448.256 855.449 454.473 860.071 459 858.929C477.626 854.229 479.602 823.927 469.969 812.228C464.708 805.839 451.344 814.692 446.333 805.772C442.421 798.81 448.793 785.783 451 779C445.577 779.293 441.308 783.029 436 783.232C429.644 783.476 417.793 775.544 418 769C409.982 769.624 407.773 780.443 401.787 785.034C397.393 788.404 391.06 789.58 388.5 795.04C386.623 799.044 389.159 803.074 386.471 806.985C383.773 810.909 379.367 813.31 376.39 817.015C371.951 822.54 369.318 829.851 365.765 835.982C362.109 842.292 355.512 844.187 354 852z"/>
</svg>
