<?xml version="1.0" standalone="yes"?>
<svg xmlns="http://www.w3.org/2000/svg" width="938" height="1450">
<path style="fill:#010101; stroke:none;" d="M0 0L0 1450L938 1450L938 0L0 0z"/>
<path style="fill:#ffffff; stroke:none;" d="M405 460C417.791 470.975 393.821 477.781 392 489L397 491L405.272 511L407.894 522.397L418 525C421.419 518.867 425.306 513.627 432 511C426.881 497.265 427.042 483.768 427 469L433 470C437.727 459.983 424.564 462.056 421.871 453.184C421.128 450.736 423.306 448.279 424 446C411.697 445.029 410.207 448.99 405 460z"/>
</svg>
