<?xml version="1.0" standalone="yes"?>
<svg xmlns="http://www.w3.org/2000/svg" width="938" height="1450">
<path style="fill:#010101; stroke:none;" d="M0 0L0 1450L938 1450L938 0L0 0z"/>
<path style="fill:#ffffff; stroke:none;" d="M471 445C479.195 435.193 489.627 447.207 496.313 451.432C502.173 455.135 508.663 454.484 512.856 461.015C516.304 466.387 517.563 478.799 523.278 482.11C524.935 483.069 526.495 482.537 528.001 481.573C531.601 479.27 533.875 475.488 538 473.893C541.059 472.71 546.924 473.593 548.879 470.436C550.891 467.186 546.732 463.763 547.662 460.479C549.703 453.276 557.822 457.309 556 447C585.195 446.739 560.773 415.632 567 402C556.389 397.996 541.512 391.386 530 396.009C523.745 398.521 519.862 405.796 513 406.852C503.299 408.345 487.091 401.973 478.348 407.067C474.456 409.335 475.915 415.275 475.417 419C474.516 425.737 461.618 441.226 471 445z"/>
</svg>
