<?xml version="1.0" standalone="yes"?>
<svg xmlns="http://www.w3.org/2000/svg" width="938" height="1450">
<path style="fill:#010101; stroke:none;" d="M0 0L0 1450L938 1450L938 0L0 0z"/>
<path style="fill:#ffffff; stroke:none;" d="M337 1034C335.491 1042.5 330.701 1049.93 328.876 1058C328.133 1061.28 329.675 1064.64 329.245 1068C328.686 1072.36 326.013 1077.43 328.514 1081.57C332.028 1087.38 340.825 1089.22 347 1091C356.371 1074.2 362.079 1090.3 373.015 1093.31C384.515 1096.47 397.645 1088.09 402 1078C415.66 1083.25 411.081 1075.27 418.514 1068.54C420.901 1066.38 424.173 1067.84 426.957 1066.81C430.794 1065.39 433.106 1061.6 437 1060L434 1053L416 1058C417.158 1055.16 420.017 1050.57 417.806 1047.6C415.871 1045.01 410.77 1046.12 408 1045.96C399.716 1045.48 394.601 1042.48 386 1045.04C381.908 1046.26 377.379 1049.83 373 1049.07C360.047 1046.82 348.3 1040.15 337 1034z"/>
</svg>
