<?xml version="1.0" standalone="yes"?>
<svg xmlns="http://www.w3.org/2000/svg" width="938" height="1450">
<path style="fill:#010101; stroke:none;" d="M0 0L0 1450L938 1450L938 0L0 0z"/>
<path style="fill:#ffffff; stroke:none;" d="M735 782C732.386 788.774 728.428 796.217 721.791 799.976C716.271 803.103 706.186 800.737 700 801.04C693.841 801.342 689.721 805.251 684 806.578C679.105 807.713 674.88 805.981 670 808C673.647 820.819 679.627 825.298 675 839C687.669 842.279 701.225 846.956 713 852.756C717.528 854.987 723.058 857.207 725.347 862.04C729.488 870.782 723.238 880.552 728.367 888.91C732.452 895.565 741.78 899.111 748.722 894.558C761.118 886.427 744.143 866.966 746.533 856C748.689 846.111 759.59 846.423 764 838C758.42 836.499 757.486 833.217 756 828L757 827C770.936 833.071 777.907 824.04 792 824C791.848 811.15 776.121 807.32 767 802.348C761.674 799.444 759.647 794.3 755.277 791.027C752.977 789.304 749.662 790.416 747.09 789.397C742.214 787.464 740.663 782.919 735 782z"/>
</svg>
