<?xml version="1.0" standalone="yes"?>
<svg xmlns="http://www.w3.org/2000/svg" width="938" height="1450">
<path style="fill:#010101; stroke:none;" d="M0 0L0 1450L938 1450L938 0L0 0z"/>
<path style="fill:#ffffff; stroke:none;" d="M660 511L632 531L632 533L647 549C644.748 554.857 646.777 561.076 643.442 566.985C639.193 574.511 632.211 574.14 632 584L641 582L642 582C649.257 586.568 648.596 575.726 653.803 574.782C658.181 573.989 658.971 591.716 659 595C667.331 592.796 674.674 590.891 680 599L686 594L672.967 569.055L681.316 559.945L688 534C702.486 540.228 712.632 525.799 720.089 517C722.629 514.004 730.642 504.951 727.918 500.584C724.647 495.339 714.448 493.49 709 492.127C691.03 487.628 660.619 485.295 660 511z"/>
</svg>
