<?xml version="1.0" standalone="yes"?>
<svg xmlns="http://www.w3.org/2000/svg" width="938" height="1450">
<path style="fill:#010101; stroke:none;" d="M0 0L0 1450L938 1450L938 0L0 0z"/>
<path style="fill:#ffffff; stroke:none;" d="M319 632C327.173 632.068 336.244 630.368 344 630.863C349.096 631.188 352.254 634.923 357.015 635.772C367.328 637.613 386.725 633.656 395.829 628.683C405.11 623.614 407.029 610.042 412.904 602.043C416.653 596.94 440.201 588.362 432.257 579.564C429.98 577.042 425.396 576.32 422.576 574.246C419.839 572.233 417.253 570.94 414 570C416.364 567.73 420.279 565.199 421.226 561.911C422.807 556.424 419.256 550.93 421.879 545.105C425.372 537.348 436.35 531.885 444 530L432 512C424.861 513.865 412.236 535.051 405.858 519.981C403.531 514.483 405.075 510.105 401 505L400 505C396.166 509.904 395.249 512.885 396 519C385.98 517.35 393 531.481 393 538L382 540L360 519L347.043 525.434L336.957 519.171L311 516C300.783 526.484 289.168 481.368 275.603 498.345C272.547 502.17 274.803 507.619 274.077 512C272.782 519.811 264.175 533.006 267.212 541C269.193 546.213 275.289 549.357 278.272 554C280.888 558.071 281.056 563.323 281.561 568C282.54 577.068 273.208 590.481 281.434 598.312C284.28 601.023 292.27 608.418 296.043 608.566C302.611 608.824 317.518 601.861 322.581 606.408C331.765 614.658 322.377 623.942 319 632z"/>
</svg>
