<?xml version="1.0" standalone="yes"?>
<svg xmlns="http://www.w3.org/2000/svg" width="938" height="1450">
<path style="fill:#010101; stroke:none;" d="M0 0L0 1450L938 1450L938 0L0 0z"/>
<path style="fill:#ffffff; stroke:none;" d="M615 181L610 190C623.208 197.254 607.146 201.827 603.969 208.105C598.434 219.043 592.034 218.713 583.228 225.853C579.452 228.915 580.494 234.224 577.272 237.397C573.659 240.955 559.997 244.319 554.83 246.454C546.73 249.803 534.235 243.097 530 252C537.973 255.222 546.843 258.788 554 263.598C561.248 268.468 567.621 275.208 576.957 275.652C581.003 275.844 582.762 272.282 586.043 270.557C591.659 267.605 596.902 267.536 603 268C604.715 263.834 606.775 257.628 610.228 254.638C619.005 247.038 627.738 249.623 632.157 237C633.407 233.43 633.053 220.666 630.396 217.854C627.303 214.581 621.967 215.554 620.032 210.891C617.412 204.573 620.378 199.123 619.976 193C619.709 188.934 617.367 185.176 617 181L615 181z"/>
</svg>
