<?xml version="1.0" standalone="yes"?>
<svg xmlns="http://www.w3.org/2000/svg" width="938" height="1450">
<path style="fill:#010101; stroke:none;" d="M0 0L0 1450L938 1450L938 0L0 0z"/>
<path style="fill:#ffffff; stroke:none;" d="M260 1156C256.919 1161.19 255 1170.24 248.961 1172.8C244.479 1174.7 238.76 1171.41 234.564 1174.94C231.264 1177.72 232.365 1183.22 230.486 1186.78C228.646 1190.26 224.159 1190.25 221.854 1193.28C216.139 1200.79 221.425 1212.88 223 1221C214.109 1223.06 203.766 1229.89 201 1239C209.737 1245.28 211.413 1251.1 216.558 1259.79C221.198 1267.62 226.379 1273.65 229.514 1283C231.118 1287.78 228.661 1292.5 231.149 1297C235.061 1304.07 242.437 1308.78 249.17 1312.86C260.749 1319.89 270.654 1310.79 279.209 1304.86C282.777 1302.38 288.157 1303.36 289.138 1297.98C290.336 1291.42 284.067 1284.08 285.948 1278C288.707 1269.08 300.11 1266.77 304.809 1259C307.872 1253.92 303.358 1249.97 302.405 1245C301.368 1239.59 303.622 1234.49 302 1229C284.969 1233.81 292.08 1210 280 1208C281.611 1201.63 289.794 1196.86 290.222 1191C290.615 1185.64 283.216 1185.22 280.004 1182.7C271.097 1175.71 270.786 1158.85 260 1156z"/>
</svg>
