<?xml version="1.0" standalone="yes"?>
<svg xmlns="http://www.w3.org/2000/svg" width="938" height="1450">
<path style="fill:#010101; stroke:none;" d="M0 0L0 1450L938 1450L938 0L0 0z"/>
<path style="fill:#ffffff; stroke:none;" d="M500 183C497.733 188.453 496.557 195.852 493.683 200.786C480.362 223.655 460.864 183.425 448.015 190.152C438.732 195.012 436.641 211.19 432.247 220C424.626 235.279 414.922 249.56 407.532 265C405.112 270.055 406.027 276.029 403.543 281C398.727 290.641 390.685 307.892 396 319C404.709 317.106 407.055 307.51 414.043 305.673C429.122 301.708 441.631 313.826 456 315L450.394 330L450.265 350L447.602 361.012L430 361L426 357L412.815 368.433L407.164 385L397 403L408.275 421.258L420.039 420.373L431 424L422 438C424.059 443.348 425.66 446.759 421 451C433.172 476.71 453.441 448.002 471 448C463.816 436.373 471.898 434.876 473.981 423C474.84 418.109 473.547 409.824 478.204 406.693C486.357 401.21 503.647 406.752 513 405.941C520.485 405.293 524.345 397.617 531 395.013C542.251 390.61 557.838 397.483 568 402L568 403C561.821 409.814 571.589 433.452 582.83 431.063C591.084 429.309 602.764 429.17 610.697 425.397C615.138 423.284 615.91 414.904 619.698 411.615C622.599 409.096 626.579 411.903 629.895 410.323C633.655 408.532 635.828 403.69 639 401C637.94 394.909 641.989 393.824 642.535 388.791C642.924 385.214 639.249 382.117 638.008 379C635.792 373.429 638.16 366.626 634.987 361.286C631.067 354.688 624.868 343.436 618.91 338.532C615.569 335.784 607.193 334.333 607.539 328.957C608.191 318.818 616.984 306.949 619.892 297C621.461 291.631 618.946 286.194 622.089 281.093C628.37 270.904 642.751 268.089 638.277 254.094C636.434 248.328 627.982 247.951 623 249.377C612.681 252.332 605.617 257.865 604 269L587.043 270.711L574.999 276.161L529 253L532 246C523.569 239.422 521.274 231.272 522 221L510 224L509.431 198L502 183L500 183z"/>
</svg>
