<?xml version="1.0" standalone="yes"?>
<svg xmlns="http://www.w3.org/2000/svg" width="938" height="1450">
<path style="fill:#010101; stroke:none;" d="M0 0L0 1450L938 1450L938 0L0 0z"/>
<path style="fill:#ffffff; stroke:none;" d="M381 702C371.45 707.091 359.23 708.595 354 719C349.949 716.328 344.398 710.534 339.896 709.317C324.571 705.177 321.661 726.799 316.362 736C312.911 741.991 307.088 746.892 301 750C307.647 760.377 314.608 757.919 325 759C323.124 770.288 336.269 778.951 345.957 772.397C350.026 769.644 351.127 764.927 353.962 761.224C360.098 753.211 367.083 744.951 373.394 737.015C376.883 732.626 383.857 729.471 385.758 724.004C387.745 718.289 381.689 717.412 378 719L381 702z"/>
</svg>
