<?xml version="1.0" standalone="yes"?>
<svg xmlns="http://www.w3.org/2000/svg" width="938" height="1450">
<path style="fill:#010101; stroke:none;" d="M0 0L0 1450L938 1450L938 0L0 0z"/>
<path style="fill:#ffffff; stroke:none;" d="M622 600L618 601C615.048 594.994 609.494 591.918 604.733 598.059C598.45 606.163 600.545 613.812 598.656 622.999C597.075 630.69 590.219 641.95 584 646.686C578.136 651.152 573.368 648.171 567 648.694C560.559 649.222 556.082 653.935 549 653.106C545.091 652.649 542.755 649.173 539 648.333C534.83 647.4 526.38 648.611 526.144 654.019C525.464 669.544 523.011 690.537 531.433 704.61C533.623 708.27 538.668 708.719 541.143 712.213C543.558 715.622 542.904 720.459 546.394 723.258C551.288 727.182 557.891 722.327 562.683 725.218C566.47 727.503 565.838 733.525 570.174 735.972C581.594 742.416 599.706 729.2 606.301 720.791C616.097 708.301 620.948 686.607 621.906 671C622.297 664.631 620.211 658.42 621.329 652C622.593 644.737 630.033 638.123 629.833 631C629.543 620.607 620.163 611.332 622 600z"/>
</svg>
