<?xml version="1.0" standalone="yes"?>
<svg xmlns="http://www.w3.org/2000/svg" width="938" height="1450">
<path style="fill:#010101; stroke:none;" d="M0 0L0 1450L938 1450L938 0L0 0z"/>
<path style="fill:#ffffff; stroke:none;" d="M332 984C332.269 990.251 335.088 996.771 334.49 1003C333.785 1010.35 328.115 1014.91 330.653 1023C335.204 1037.52 349.723 1040.4 362 1043.94C366.306 1045.18 370.34 1048.85 375 1048.54C381.803 1048.09 387.771 1042.86 395 1042.53C402.554 1042.19 411.005 1045 419 1045L417 1058L435 1052C439.278 1067.47 458.061 1061.57 469 1071L470 1071C477.559 1061.77 471.178 1047.61 485 1044L486.193 1030L476.414 1007L471.772 995.905L455 989.807L440.004 984.647L427 994L424 988C424.003 993.216 426.822 1001.53 423.388 1005.85C419.68 1010.51 412.198 1007.69 407 1008.43C398.809 1009.6 390.052 1013.72 382 1013.94C374.817 1014.14 368.466 1010 361 1010C360.004 1001.32 349.22 998.829 343.213 994.272C338.808 990.931 337.457 986.331 332 984z"/>
</svg>
