<?xml version="1.0" standalone="yes"?>
<svg xmlns="http://www.w3.org/2000/svg" width="938" height="1450">
<path style="fill:#010101; stroke:none;" d="M0 0L0 1450L938 1450L938 0L0 0z"/>
<path style="fill:#ffffff; stroke:none;" d="M367 346C367.011 331.849 374.535 333.81 384.625 329.401C388.577 327.673 391.891 323.96 396 322C388.754 300.533 403.756 276.786 411 257C407.974 256.835 404.95 255.129 402 255.333C395.642 255.775 388.403 259.57 382 259.111C376.501 258.717 370.785 253.648 366 251.222C362.728 249.564 357.131 245.723 356 251C348.624 247.929 342.793 241.845 335.896 238.889C330.878 236.739 324.356 236.805 319 235.92C315.132 235.28 309.872 233.424 306.039 234.782C296.947 238.003 299.074 247.705 298.996 255C298.843 269.376 294.585 279.434 299.421 294C301.488 300.227 298.356 307.284 302.148 312.895C306.622 319.515 314.618 317.622 320.957 320.653C325.351 322.754 331.26 329.682 334.867 333.213C338.303 336.577 337.802 349.056 341.302 350.029C344.821 351.008 346.975 346.094 350.104 345.332C355.004 344.138 361.854 346 367 346z"/>
</svg>
