<?xml version="1.0" standalone="yes"?>
<svg xmlns="http://www.w3.org/2000/svg" width="938" height="1450">
<path style="fill:#010101; stroke:none;" d="M0 0L0 1450L938 1450L938 0L0 0z"/>
<path style="fill:#ffffff; stroke:none;" d="M334 1258C333.979 1265.29 328.664 1271.9 329.469 1278.91C331.017 1292.39 343.322 1301.13 348.763 1313C351.324 1318.59 349.135 1329.3 350 1336C353.819 1334.84 356.116 1331.01 360.004 1330.21C367.181 1328.72 375.554 1331.36 382.985 1329.61C394.891 1326.79 402.051 1312.5 404 1302C387.939 1307.7 388.752 1295.29 380.258 1285.57C377.468 1282.38 372.528 1283.18 369.429 1280.35C359.804 1271.54 348.616 1258.17 334 1258z"/>
</svg>
