<?xml version="1.0" standalone="yes"?>
<svg xmlns="http://www.w3.org/2000/svg" width="938" height="1450">
<path style="fill:#010101; stroke:none;" d="M0 0L0 1450L938 1450L938 0L0 0z"/>
<path style="fill:#ffffff; stroke:none;" d="M352 1083L347 1092L332 1088C334.473 1095.56 340.675 1112.69 348.171 1116.57C354.551 1119.87 363.027 1116.91 369 1120.6C379.211 1126.91 389.196 1131.4 400 1136.67C405.31 1139.26 409.732 1143.63 416 1143.72C422.35 1143.81 429.19 1139.25 435 1137C439.313 1145.66 448.746 1155.28 457 1160C458.561 1147.37 446.986 1142.92 446.101 1131C445.741 1126.15 451.297 1119.86 444.89 1117.01C438.021 1113.96 429.968 1120.15 423 1120.32C412.779 1120.57 395.18 1113.75 391.643 1103C390.569 1099.73 391.93 1095.41 392 1092L373.004 1093.9L352 1083z"/>
</svg>
