<?xml version="1.0" standalone="yes"?>
<svg xmlns="http://www.w3.org/2000/svg" width="938" height="1450">
<path style="fill:#010101; stroke:none;" d="M0 0L0 1450L938 1450L938 0L0 0z"/>
<path style="fill:#ffffff; stroke:none;" d="M377 874C374.166 882.692 371.362 886.056 362 884C358.255 890.285 355.71 896.502 357.394 904C358.578 909.276 361.749 912.303 361 918C367.473 916.588 370.477 918.87 376 922L371.975 910L377 893C385.136 893.422 397.966 901.215 402 890L377 874M420 896C419.4 902.237 415.43 902.622 410 902C408.108 911.171 415.703 907.702 418.914 913.43C423.944 922.405 410.626 917.623 408 916L408 921C405.476 921.321 395.42 921.56 395.346 925.17C395.276 928.537 401.704 929.297 404 929.789C411.97 931.5 419.387 933.069 421 923L435 928L443 900L420 896z"/>
</svg>
