<?xml version="1.0" standalone="yes"?>
<svg xmlns="http://www.w3.org/2000/svg" width="938" height="1450">
<path style="fill:#010101; stroke:none;" d="M0 0L0 1450L938 1450L938 0L0 0z"/>
<path style="fill:#ffffff; stroke:none;" d="M759 500L752.468 517.957L732 555L734 558L743 548L744 551L745 551L751 544L743.742 562L745 578L748 577L749 590C760.626 586.911 764.371 597.417 772.376 601.933C774.933 603.376 778.224 602.005 781 602.368C789.864 603.527 794.738 605.745 804 604C801.906 593.888 798.701 597.388 792.702 592.307C787.166 587.618 787.542 577.815 790 572C783.421 570.774 774.193 570.307 769.603 564.61C767.127 561.535 767.703 555.769 767.08 552C765.376 541.689 762.997 531.441 761.589 521.089C760.412 512.433 774.159 504.6 759 500z"/>
</svg>
