<?xml version="1.0" standalone="yes"?>
<svg xmlns="http://www.w3.org/2000/svg" width="938" height="1450">
<path style="fill:#010101; stroke:none;" d="M0 0L0 1450L938 1450L938 0L0 0z"/>
<path style="fill:#ffffff; stroke:none;" d="M542 855L542 856C536.203 862.715 550.796 873.318 551 882L552 882L562.174 868.028L585 865C578.431 853.091 564.061 854.945 560 840C564.717 839.628 570.831 839.595 574.911 836.991C578.39 834.77 580.479 830.207 585.001 829.983C598.389 829.32 614.302 835.258 627 837.647C634.424 839.044 643.26 837.372 651 838.286C657.335 839.033 672.519 842.144 675.713 834.941C679.897 825.506 673.328 820.185 670.478 812C665.513 797.74 666.809 783.515 658.861 770.17C656.659 766.472 653.192 759.677 650.272 756.727C648.014 754.444 644.037 754.499 643.107 750.891C641.691 745.4 648.065 737.089 652 734C636.882 718.621 628.774 750.881 618.999 751.82C613.935 752.307 603.178 749.264 599.637 745.582C596.827 742.659 595.801 738.703 591.957 736.696C588.737 735.014 574.864 737.026 571.329 738.603C557.375 744.83 558.94 763.609 553.676 775C551.343 780.049 545.144 785.415 543.739 790.375C542.266 795.577 546.885 802.249 543.228 807.657C540.954 811.018 536.544 810.604 533.637 812.938C529.503 816.257 518.638 830.633 519.191 835.957C519.852 842.311 536.748 851.529 542 855z"/>
</svg>
