<?xml version="1.0" standalone="yes"?>
<svg xmlns="http://www.w3.org/2000/svg" width="938" height="1450">
<path style="fill:#010101; stroke:none;" d="M0 0L0 1450L938 1450L938 0L0 0z"/>
<path style="fill:#ffffff; stroke:none;" d="M336 777C330.481 773.69 324.269 766.713 324 760C319.577 759.053 315.343 760.947 311 759.161C307.547 757.74 302.708 751.5 298.965 752.497C286.34 755.858 290.106 772.889 287.131 781C284.002 789.532 277.035 795.287 272.298 802.389C265.295 812.888 262.007 827.501 263.564 840C264.373 846.49 269.618 848.943 273.302 853.39C276.126 856.799 276.934 861.438 279.823 864.957C284.269 870.374 290.026 874.291 294.32 880C297.58 884.334 301.619 893.811 308.725 889.677C311.459 888.088 312.236 884.57 314.394 882.39C317.614 879.135 323.364 878.157 325.972 874.366C330.828 867.307 322.283 854.789 323.488 847C324.269 841.952 329.473 839.381 329.941 834C331.625 814.664 332.301 796.076 336 777z"/>
</svg>
