<?xml version="1.0" standalone="yes"?>
<svg xmlns="http://www.w3.org/2000/svg" width="938" height="1450">
<path style="fill:#010101; stroke:none;" d="M0 0L0 1450L938 1450L938 0L0 0z"/>
<path style="fill:#ffffff; stroke:none;" d="M525 693C518.882 696.269 510.691 693.178 505.214 697.01C499.845 700.766 499.031 707.98 505 711L506 707L507 707L509 724L495 723C489.314 739.797 495.314 756.206 494 773C497.969 772.383 501.007 769.685 504.997 769.077C508.77 768.503 511.52 771.682 515.036 771.069C523.547 769.587 527.172 759.053 525 752L532 751L533 742C535.704 741.992 538.347 742.009 541 741.406C543.963 740.732 549.165 740.454 551.397 738.258C557.973 731.785 546.266 725.404 543.839 720.945C542.116 717.781 542.22 713.511 539.486 710.966C537.129 708.772 533.711 708.101 531.564 705.61C528.218 701.726 529.097 696.612 525 693z"/>
</svg>
