<?xml version="1.0" standalone="yes"?>
<svg xmlns="http://www.w3.org/2000/svg" width="938" height="1450">
<path style="fill:#010101; stroke:none;" d="M0 0L0 1450L938 1450L938 0L0 0z"/>
<path style="fill:#ffffff; stroke:none;" d="M281 1207C292.208 1210.53 285.692 1233.95 303 1228C304.544 1236.32 300.248 1247.93 307.637 1254.4C311.74 1257.98 316.585 1253.42 321 1253.43C325.529 1253.43 334.644 1256.05 339 1257.6C352.087 1262.27 360.276 1272.26 370.302 1280.26C373.089 1282.48 377 1282.15 379.772 1284.57C388.927 1292.57 388.452 1310.77 405 1300C403.495 1311.91 395.331 1327.53 381.999 1330.61C374.719 1332.29 365.815 1328.98 359.039 1330.92C355.922 1331.81 353.526 1335.09 351 1337L351 1338C355.35 1339.04 361.329 1338.15 364.258 1342.15C366.558 1345.29 364.721 1351.88 368.43 1353.83C373.031 1356.26 378.057 1351.74 381.976 1358.21C386.071 1364.97 382.024 1380.44 391.005 1381.51C401.961 1382.82 401.638 1371.48 408.109 1366.56C413.015 1362.83 420.432 1362.6 425.83 1359.47C439.123 1351.76 443.825 1344.91 460 1347C465.409 1335.42 474.032 1315.9 489 1314C493.69 1313.41 497.505 1319.92 501.649 1318.34C507.52 1316.09 512.31 1303.57 518 1299.43C522.992 1295.81 530.949 1298.59 534.468 1292.86C537.318 1288.21 541.138 1279.4 538.424 1274.17C536.74 1270.93 532.71 1269.39 531.492 1265.91C530.36 1262.68 532.283 1259.42 530.529 1256.19C526.324 1248.44 517.266 1243.38 524 1233C517.049 1225.73 505.418 1206.4 493.093 1211.26C485.138 1214.41 479.321 1224.33 472 1229L461 1216.46L444.228 1203.64L438.085 1217L427.652 1233L417 1251C413.771 1245.42 407.913 1245.08 403.09 1241.36C397.509 1237.06 398.523 1229.89 394.146 1225.64C391.927 1223.49 386.915 1224.49 384 1223.2C375.787 1219.54 373.547 1212.96 371 1205L377 1203C373.582 1197.42 364.012 1198.6 362.758 1190.99C361.601 1183.96 373.639 1177.7 368.627 1171.18C359.589 1159.43 341.354 1159.34 335.618 1142.99C333.762 1137.7 337.871 1132.21 338.183 1127C338.388 1123.57 335.64 1121.29 335.503 1118C335.356 1114.49 338.043 1111.42 338.52 1108C339.4 1101.68 333.999 1087.83 329.258 1083.8C323.801 1079.17 314.537 1095.62 310.826 1098.15C301.579 1104.44 284.784 1108.76 278.228 1118.02C275.074 1122.47 277.986 1127.65 275.307 1131.81C269.891 1140.22 262.53 1138.74 261.649 1150.98C261.308 1155.72 265.399 1156.46 267.442 1160.11C271.612 1167.55 271.881 1175.87 279.04 1181.7C282.474 1184.49 289.377 1184.15 290.638 1189.06C292.148 1194.93 282.524 1200.97 281 1207z"/>
</svg>
