<?xml version="1.0" standalone="yes"?>
<svg xmlns="http://www.w3.org/2000/svg" width="938" height="1450">
<path style="fill:#010101; stroke:none;" d="M0 0L0 1450L938 1450L938 0L0 0z"/>
<path style="fill:#ffffff; stroke:none;" d="M325 1290C320.126 1291.85 309.772 1305.06 308 1310L291 1297C287.183 1303.37 283.729 1301.91 278.594 1305.86C275.802 1308.01 274.256 1311.32 270.996 1312.97C267.285 1314.86 262.745 1313.48 259.514 1316.65C255.591 1320.5 257.976 1326.23 256.682 1330.9C255.64 1334.65 248.778 1336.4 249.832 1340.74C250.667 1344.18 256.283 1344.43 259 1345.05C267.876 1347.09 271.571 1349.65 281 1347C282.617 1352.66 286.356 1357.91 285.365 1364C283.936 1372.78 276.06 1382.15 279 1391L272 1399C283.182 1396.79 299.195 1390.12 306.062 1380.61C312.2 1372.11 314.729 1349.02 330 1355L348.667 1340.7L347.708 1327L349.081 1315L330 1282C326.189 1283.84 324.638 1285.71 325 1290z"/>
</svg>
