<?xml version="1.0" standalone="yes"?>
<svg xmlns="http://www.w3.org/2000/svg" width="938" height="1450">
<path style="fill:#010101; stroke:none;" d="M0 0L0 1450L938 1450L938 0L0 0z"/>
<path style="fill:#ffffff; stroke:none;" d="M617 179C617.889 183.582 620.705 189.033 620.732 193.576C620.766 199.248 618.691 204.024 620.572 209.942C622.206 215.083 628.404 214.382 631.382 218.34C637.369 226.297 631.341 240.317 628 248C638.81 250.663 639.051 254.541 641 265L649.911 264.693L662.465 284.238L674 282.12L696 284C690.753 275.766 685.387 258.941 686.024 249C686.268 245.186 688.938 241.869 689.184 238C689.418 234.311 685.928 231.598 686.522 228C687.729 220.696 698.948 216.719 694.806 208C693.116 204.442 689.681 201.988 687.228 199C684.059 195.141 676.645 170.535 668.248 180.319C662.427 187.1 669.358 195.971 665.303 201.605C659.677 209.422 644.183 201.642 643 194C627.316 192.264 635.028 172.249 617 179z"/>
</svg>
