<?xml version="1.0" standalone="yes"?>
<svg xmlns="http://www.w3.org/2000/svg" width="938" height="1450">
<path style="fill:#010101; stroke:none;" d="M0 0L0 1450L938 1450L938 0L0 0z"/>
<path style="fill:#ffffff; stroke:none;" d="M178 1344C178.559 1348.4 183.748 1357.25 182.648 1360.81C180.538 1367.63 171.189 1375.6 171.894 1383C172.781 1392.34 179.211 1394.19 183.895 1401.02C186.838 1405.3 189.212 1420.47 193.314 1422.21C198.782 1424.55 208.035 1416.84 213 1414.93C218.715 1412.72 222.628 1416.38 227.961 1415.32C232.905 1414.34 240.046 1402.88 242.926 1398.78C247.805 1391.83 242.662 1372.9 233.995 1370.36C229.775 1369.13 223.993 1373.64 220 1375C218.011 1367.48 215.215 1356.65 222 1351C218.044 1341.78 196.398 1334.37 187.005 1336.96C182.974 1338.07 180.97 1341.4 178 1344z"/>
</svg>
