<?xml version="1.0" standalone="yes"?>
<svg xmlns="http://www.w3.org/2000/svg" width="938" height="1450">
<path style="fill:#010101; stroke:none;" d="M0 0L0 1450L938 1450L938 0L0 0z"/>
<path style="fill:#ffffff; stroke:none;" d="M498.019 510.657C493.651 512.027 492.167 515.73 492.055 520C491.888 526.366 495.956 532.12 495.825 538C495.628 546.834 488.166 556.285 489.683 565C490.428 569.284 493.107 581.463 499.005 579.849C503.317 578.668 506.981 574.529 510.961 572.487C516.731 569.526 520.955 571.785 525.437 565.572C527.746 562.371 526.739 558.414 528.772 555.376C533.854 547.783 539.612 546.285 541.291 536C541.854 532.551 541.737 522.19 539.254 519.603C537.205 517.47 533.554 518.164 531 516.992C523.067 513.35 507.056 507.822 498.019 510.657z"/>
</svg>
