<?xml version="1.0" standalone="yes"?>
<svg xmlns="http://www.w3.org/2000/svg" width="938" height="1450">
<path style="fill:#010101; stroke:none;" d="M0 0L0 1450L938 1450L938 0L0 0z"/>
<path style="fill:#ffffff; stroke:none;" d="M330 987C320.432 998.216 307.655 1003.14 299.603 1016C295.696 1022.24 297.49 1034.44 286.424 1035.44C277.63 1036.24 268.506 1026.09 259 1026L253 1013C248.251 1012.12 244.834 1008.17 240.015 1007.54C233.056 1006.64 230.916 1017.84 230 1023C234.754 1025.93 233.995 1030.95 229.671 1034.41C223.973 1038.97 200.546 1046.16 200 1034C194.411 1030.73 195.856 1026.57 197 1021C188.561 1016.51 175.744 1020.27 174 1031L162.999 1039.23L134 1035C135.055 1039.85 141.727 1058.02 147.019 1058.3C155.402 1058.75 161.938 1051.34 170.996 1054.49C175.408 1056.02 177.759 1060.27 182.015 1061.99C185.911 1063.55 190.029 1061.9 194 1063.36C197.763 1064.75 203.671 1066.59 206.397 1069.64C208.746 1072.26 208.218 1075.92 211.148 1078.35C215.403 1081.88 220.413 1082.43 224 1087C227.113 1085.5 230.774 1085.42 233.715 1083.9C237.214 1082.08 239.475 1077.06 244 1077.52C253.736 1078.53 259.372 1090.78 265.465 1096.61C272.079 1102.93 279.073 1102.64 283 1112C291.615 1110.2 295.979 1105.28 303.09 1100.84C311.465 1095.61 321.077 1091.05 325.486 1081C328.835 1073.37 326.365 1065.34 328.386 1058C330.425 1050.59 336.704 1042.1 336.215 1034C335.875 1028.38 329.607 1025.01 329.11 1019C328.165 1007.57 338.236 998.852 330 987z"/>
</svg>
