<?xml version="1.0" standalone="yes"?>
<svg xmlns="http://www.w3.org/2000/svg" width="938" height="1450">
<path style="fill:#010101; stroke:none;" d="M0 0L0 1450L938 1450L938 0L0 0z"/>
<path style="fill:#ffffff; stroke:none;" d="M361 1003L362 1009C369.132 1009.06 374.934 1013.09 382 1012.98C390.468 1012.84 399.422 1008.62 408 1007.43C412.457 1006.81 419.894 1009.71 423.092 1005.68C426.199 1001.77 423.315 991.438 422 987L421 987L419 991L404 987L405 982C395.765 987.032 381.046 985.483 373.044 977.891C369.869 974.879 368.589 969.353 364.856 967.179C360.184 964.458 348.18 965.131 343 966.303C337.659 967.512 328.682 975.549 332.043 981.7C336.462 989.786 351.87 1002.16 361 1003z"/>
</svg>
