<?xml version="1.0" standalone="yes"?>
<svg xmlns="http://www.w3.org/2000/svg" width="938" height="1450">
<path style="fill:#010101; stroke:none;" d="M0 0L0 1450L938 1450L938 0L0 0z"/>
<path style="fill:#ffffff; stroke:none;" d="M757 828C758.109 833.27 759.282 836.347 765 837C761.234 844.256 754.322 844.706 749.703 850.278C742.654 858.781 751.02 876.6 755 885L761.224 879.809L775 882.406L789 881.148L800 883.722L812.996 881.219L824 888C821.612 894.553 818.74 910.556 827.105 914.107C834.139 917.091 841.93 913.414 849 913.106C853.244 912.921 857.895 916.395 861.907 915.153C868.831 913.009 866.993 905.037 870.027 900.414C876.106 891.152 887.844 887.718 898 889C895.067 880.876 901.454 877.052 900.903 869C900.082 857.006 891.23 853.247 886.573 843.96C884.543 839.913 886.581 833.064 883.258 829.934C873.026 820.299 854.109 828.038 843 828.617C837.836 828.885 833.841 825.616 829 824.822C822.861 823.814 813.313 822.829 807 823.104C799.712 823.422 789.961 823.662 783 825.637C777.566 827.179 772.16 831.647 766.286 831.539C763.212 831.483 759.974 828.881 757 828z"/>
</svg>
