<?xml version="1.0" standalone="yes"?>
<svg xmlns="http://www.w3.org/2000/svg" width="938" height="1450">
<path style="fill:#010101; stroke:none;" d="M0 0L0 1450L938 1450L938 0L0 0z"/>
<path style="fill:#ffffff; stroke:none;" d="M561 841C563.867 851.549 570.98 854.706 581 856C581.809 860.922 587.067 869.456 592.997 868.238C596.946 867.428 599.135 863.755 602.089 861.415C605.35 858.833 609.559 858.588 612.911 856.272C616.971 853.466 619.158 849.075 624 847.263C634.898 843.186 642.374 850.469 653 849.952C660.145 849.605 665.775 843.944 672 841L628 838.517L584.015 830.618L574.896 837.633L561 841z"/>
</svg>
