<?xml version="1.0" standalone="yes"?>
<svg xmlns="http://www.w3.org/2000/svg" width="938" height="1450">
<path style="fill:#010101; stroke:none;" d="M0 0L0 1450L938 1450L938 0L0 0z"/>
<path style="fill:#ffffff; stroke:none;" d="M692 56C693.329 66.8108 685.262 66.2535 679.637 74.0039C671.704 84.9358 672.238 104.184 659.582 111.958C656.416 113.902 652.352 111.259 649 111.194C643.032 111.08 636.55 114.562 632.904 119.184C624.38 129.993 628.95 148.477 627.972 161C627.505 166.989 621.355 171.716 619 177C635.648 174.909 628.199 192.618 644 193C644.247 200.578 659.714 209.265 664.932 201.347C669.153 194.944 659.172 183.51 670.21 178.121C676.782 174.913 678.481 184.186 683 186L690 173C682.505 166.801 689.298 164.868 691.4 157.985C692.698 153.737 692.125 149.337 693 145C703.832 153.56 718.205 149.473 730 144C723.335 134.734 708.415 126.586 709 114L704 116L707 96C714.674 95.748 711.442 92.0186 715.407 87.598C718.247 84.4325 722.663 82.0579 726 79.3997C732.544 74.1859 742.961 74.7162 748.382 69.8604C750.667 67.8135 749.096 63.6908 750.128 61C754.153 50.5044 759.9 45.1064 760 33L749 37.1929L729 38.9661L692 56z"/>
</svg>
