<?xml version="1.0" standalone="yes"?>
<svg xmlns="http://www.w3.org/2000/svg" width="938" height="1450">
<path style="fill:#010101; stroke:none;" d="M0 0L0 1450L938 1450L938 0L0 0z"/>
<path style="fill:#ffffff; stroke:none;" d="M713 197C709.122 204.393 703.073 204.346 696 207C697.373 216.673 689.807 218.864 687.198 227C685.872 231.138 689.811 233.981 689.786 238C689.762 241.921 686.84 245.153 686.603 249C686.141 256.485 690.926 278.808 697.055 283.347C701.017 286.282 704.628 284.811 709 285.724C715.639 287.109 727.058 290.199 732.945 293.453C736.128 295.212 736.673 298.987 739.509 300.782C742.293 302.543 746.809 300.99 750 301.684C757.213 303.255 765.509 313.597 772 307C760.786 296.929 770.037 289.021 779 283.015C787.977 276.999 794.481 281.097 803.999 280.613C808.33 280.392 810.259 276.533 814.089 275.542C817.221 274.731 821.03 277.151 824 278C827.707 271.588 832.373 266.692 840 266C838.649 255.546 829.589 250.423 829.26 240C829.034 232.838 836.495 218.745 833.778 213.17C825.572 196.334 812.566 206.426 800.005 200.911C792.063 197.424 789.522 184.201 778.148 189.855C773.443 192.194 774.977 198.91 771.914 202.643C769.735 205.3 755.135 211.23 751.343 211.326C748.138 211.408 747.159 205.817 743.891 204.72C734.155 201.452 723.092 199.083 713 197z"/>
</svg>
