<?xml version="1.0" standalone="yes"?>
<svg xmlns="http://www.w3.org/2000/svg" width="938" height="1450">
<path style="fill:#010101; stroke:none;" d="M0 0L0 1450L938 1450L938 0L0 0z"/>
<path style="fill:#ffffff; stroke:none;" d="M35 961C38.5136 963.032 40.2977 968.785 44.1327 969.593C52.2908 971.311 64.742 967.292 71.8951 970.667C79.2542 974.141 74.7785 983.823 80.1636 986.958C83.5667 988.939 88.2255 986.703 92 987.97C98.9387 990.299 100.519 996.524 106.133 999.324C109.688 1001.1 113.47 998.983 116.941 1001.53C125.474 1007.79 125.142 1028.25 135.43 1033.4C141.24 1036.3 158.691 1041.18 164.942 1037.96C176.121 1032.2 169.914 1026.59 166.89 1019.87C164.779 1015.18 165.493 1011.98 160 1010C164.325 1002.29 174.837 1004.73 182 1007C184.523 997.564 194.426 998.958 200.378 993.066C202.352 991.113 193.643 968.414 206.679 976.373C207.685 976.988 208.296 978.138 209 979L219 973C197.44 974.64 211.298 956.371 214 945L207 941C207.538 948.932 204.742 954.898 197 958C194.151 951.156 190.495 935.485 185.566 930.637C176.239 921.463 157.545 919.735 146 914.586C138.971 911.451 135.92 904.584 129.711 901.028C125.051 898.359 120.585 902.505 116 901.363C110.57 900.011 108.048 893.294 103 891.117C95.0568 887.693 75.8514 897.946 69.0394 902.086C56.7287 909.566 64.2812 924.8 55.3511 934.606C50.9408 939.448 45.1184 935.285 40.3179 938.458C36.4537 941.011 35.6364 956.274 35 961z"/>
</svg>
