<?xml version="1.0" standalone="yes"?>
<svg xmlns="http://www.w3.org/2000/svg" width="938" height="1450">
<path style="fill:#010101; stroke:none;" d="M0 0L0 1450L938 1450L938 0L0 0z"/>
<path style="fill:#ffffff; stroke:none;" d="M557 448C558.197 457.134 550.638 454.135 548.417 460.279C547.038 464.094 552.65 468.702 548.526 472.012C540.898 478.135 530.587 473.221 527 486L553 502C557.977 496.356 566.199 497.269 573 495.229C578.109 493.696 582.803 490.512 588 489.39C592.096 488.506 597.078 490.104 600.272 486.682C607.649 478.781 594.619 470.675 590.603 465.61C587.755 462.019 590.426 458.054 589.228 454.209C587.849 449.786 578.569 441.41 574.039 440.457C569.444 439.49 563.002 447.688 557 448z"/>
</svg>
