<?xml version="1.0" standalone="yes"?>
<svg xmlns="http://www.w3.org/2000/svg" width="938" height="1450">
<path style="fill:#010101; stroke:none;" d="M0 0L0 1450L938 1450L938 0L0 0z"/>
<path style="fill:#ffffff; stroke:none;" d="M482 501C471.865 499.474 459.948 491.234 455.314 482C451.415 474.23 451.537 467.497 446 460L428 470C428.016 475.405 430.244 480.706 429.88 486C429.624 489.715 426.612 493.296 427.36 497C429.628 508.227 435.568 515.949 442.273 524.375C445.553 528.497 445.28 533.547 451.015 535.579C457.86 538.003 466.607 530.733 474 530.474C481.58 530.208 488.414 535.38 496 536C491.277 528.492 486.641 512.729 499.001 509.677C505.007 508.195 511.974 511.508 518 512C516.073 503.809 517.802 490.728 525 486L525 484C516.174 477.337 517.472 461.961 507.907 456.533C496.923 450.299 493.211 464.112 487.61 470.961C485.201 473.905 481.196 476.058 480.357 480.015C479.014 486.346 481.722 494.531 482 501z"/>
</svg>
