<?xml version="1.0" standalone="yes"?>
<svg xmlns="http://www.w3.org/2000/svg" width="938" height="1450">
<path style="fill:#010101; stroke:none;" d="M0 0L0 1450L938 1450L938 0L0 0z"/>
<path style="fill:#ffffff; stroke:none;" d="M769 508L768 508C766.367 511.278 763.162 514.436 762.312 518C760.282 526.524 766.012 541.329 767.576 550C768.302 554.029 767.69 562.029 770.603 565.034C775.525 570.111 785.397 570.717 792 571C787.959 576.489 787.276 586.06 792.843 591.358C795.289 593.687 799.006 592.277 801.487 595.163C806.012 600.426 810.075 611.147 820 607.933C823.893 606.672 826.72 603.074 830 600.799C834.497 597.68 841.664 597.534 845.347 593.57C849.566 589.03 846.552 585.01 846.113 580.015C845.806 576.529 848.867 573.639 848.977 569.985C849.127 564.971 846.275 560.848 846.198 556C846.053 546.792 850.413 541.662 848.39 532C846.711 523.98 849.75 506.762 840.956 502.357C838.062 500.907 835.029 502.357 832.104 501.362C829.312 500.412 827.782 497.63 824.896 496.724C816.253 494.01 802.278 497.065 794 500.093C786.176 502.956 776.714 516.649 769 508z"/>
</svg>
