<?xml version="1.0" standalone="yes"?>
<svg xmlns="http://www.w3.org/2000/svg" width="938" height="1450">
<path style="fill:#010101; stroke:none;" d="M0 0L0 1450L938 1450L938 0L0 0z"/>
<path style="fill:#ffffff; stroke:none;" d="M350 1339L330 1356C321.54 1351.06 318.035 1358.62 313.486 1365C310.036 1369.84 310.177 1376.04 307.012 1380.61C300.156 1390.5 283.218 1396.97 272 1400C281.748 1409.9 291.561 1404.4 302.955 1407.32C309.444 1408.98 305.098 1417.02 312.019 1418.51C326.114 1421.56 345.667 1409.67 359 1406.26C363.712 1405.06 369.572 1409.52 373.362 1405.67C378.071 1400.88 375.875 1394.7 377.434 1389C380.442 1378 389.987 1370.19 380.976 1357.64C377.063 1352.19 370.268 1357.22 366.858 1353.51C364.039 1350.44 366.025 1345.62 363.821 1342.32C361.522 1338.88 353.753 1339.47 350 1339z"/>
</svg>
