<?xml version="1.0" standalone="yes"?>
<svg xmlns="http://www.w3.org/2000/svg" width="938" height="1450">
<path style="fill:#010101; stroke:none;" d="M0 0L0 1450L938 1450L938 0L0 0z"/>
<path style="fill:#ffffff; stroke:none;" d="M403 707L406 695L401 694C397.012 701.933 391.182 707.459 387.137 715C385.366 718.303 387.399 721.792 385.469 725C382.761 729.502 377.704 732.113 374.394 736.089C369.273 742.24 365.505 749.6 360.241 755.871C356.043 760.872 351.773 767.535 346.957 771.852C343.976 774.524 338.665 774.436 336.879 778.148C331.582 789.158 332.728 806.06 331.91 818C331.547 823.313 332.21 831.053 330.397 836C328.758 840.471 324.185 842.828 324.228 848C324.347 861.991 327.6 880.3 330.634 893.985C331.6 898.341 335.097 901.449 335.498 906.001C335.888 910.436 332.301 912.965 331.317 917C329.682 923.704 330.57 935.271 331.438 941.985C332.176 947.707 338.689 953.451 341 959L343 959C346.864 953.558 352.616 946.513 354.262 940C355.195 936.304 353.136 932.61 354.546 929.039C356.661 923.678 361.044 920.427 360.605 914C360.238 908.62 356.051 904.687 356.03 899C356.01 893.386 362.033 886.926 360.633 882.005C358.036 872.881 343.405 876.118 344.329 863C345.024 853.14 357.441 845.292 363.366 838.625C368.395 832.966 370.269 825.09 374.637 819C377.698 814.734 382.39 812.062 385.485 807.911C388.607 803.724 385.918 799.269 388.113 795.015C390.985 789.451 397.318 788.082 401.791 784.363C408.231 779.008 410 768.295 419 768C417.594 777.093 432.021 784.134 440 781.671C453.133 777.619 455.348 772.058 457 759C461.333 758.656 464.071 756.418 465.211 751.999C466.977 745.156 464.568 736.302 465.779 729C467.083 721.135 473.177 715.032 474 707C459.232 705.834 449.956 702.156 437 696L436 699L434 699C433.054 696.694 432.148 694.298 430.956 692.103C428.438 687.465 421.785 685.233 417.702 689.514C411.675 695.834 413.162 704.34 403 707z"/>
</svg>
