<?xml version="1.0" standalone="yes"?>
<svg xmlns="http://www.w3.org/2000/svg" width="938" height="1450">
<path style="fill:#010101; stroke:none;" d="M0 0L0 1450L938 1450L938 0L0 0z"/>
<path style="fill:#ffffff; stroke:none;" d="M711 604L712 610C704.164 607.314 705.924 601.672 701.397 596.638C694.669 589.156 685.048 596.576 679 600C676.871 593.064 663.66 590.546 659.43 597.394C655.012 604.547 658.915 613.738 654.941 620.996C650.962 628.265 642.501 630.963 637.969 638C633.883 644.345 633.34 651.978 631.072 659C626.363 673.576 620.552 686.952 622.6 702.911C623.976 713.636 636.319 729.559 647.001 730.576C653.23 731.168 655.913 732.653 659 726C668.117 727.698 674.782 719.634 681 714.101C688.014 707.859 697.926 703.495 706 698.656C709.077 696.811 712.047 693.41 715.576 692.529C727.061 689.661 737.191 692.992 745 682L746 682C760.469 700.849 784.492 684.254 803 691L808 683C812.495 700.168 828.245 689.202 838 684C832.635 671.113 826.064 655.982 824.214 642C823.152 633.978 823.905 617.186 818.258 610.728C808.891 600.016 785.619 607.225 773.213 603.227C769.537 602.042 768.445 596.893 765.532 594.603C762.136 591.932 755.205 590.083 751 589L749 593L748 593L748 578C741.086 581.595 743.539 588.109 740.012 593.816C733.764 603.925 721.128 605.77 711 604z"/>
</svg>
