<?xml version="1.0" standalone="yes"?>
<svg xmlns="http://www.w3.org/2000/svg" width="938" height="1450">
<path style="fill:#010101; stroke:none;" d="M0 0L0 1450L938 1450L938 0L0 0z"/>
<path style="fill:#ffffff; stroke:none;" d="M402 1079C399.84 1083.62 394.65 1087.41 393.302 1092.05C388.253 1109.48 408.491 1121.34 424 1119.49C432.97 1118.42 441.79 1111.62 449 1120C463.187 1116.05 470.986 1096.09 470.09 1083C469.619 1076.13 469.917 1069.19 461.999 1066.56C455.506 1064.41 442.649 1060.6 436 1061.58C432.379 1062.11 430.289 1065.92 426.985 1067.22C424.611 1068.15 421.693 1066.97 419.514 1068.28C416.73 1069.95 417.121 1074.32 415.686 1076.89C412.481 1082.64 407.001 1080.35 402 1079z"/>
</svg>
