<?xml version="1.0" standalone="yes"?>
<svg xmlns="http://www.w3.org/2000/svg" width="938" height="1450">
<path style="fill:#010101; stroke:none;" d="M0 0L0 1450L938 1450L938 0L0 0z"/>
<path style="fill:#ffffff; stroke:none;" d="M223 1273C212.195 1280.69 201.078 1277.34 189 1275C190.773 1280.49 197.411 1280.88 200.16 1286.04C208.345 1301.42 207.926 1325.8 192 1335L192 1336L207.961 1339.57L224 1349C217.549 1355.1 217.187 1366.08 221 1374C228.74 1371.36 231.175 1368.78 239 1372L238 1363C245.763 1361.31 246.378 1346.64 248.558 1340.04C249.896 1335.99 254.574 1334.89 255.682 1330.9C261.005 1311.71 238.899 1310.9 230.807 1297C226.339 1289.33 229.509 1281.11 223 1273z"/>
</svg>
