<?xml version="1.0" standalone="yes"?>
<svg xmlns="http://www.w3.org/2000/svg" width="938" height="1450">
<path style="fill:#010101; stroke:none;" d="M0 0L0 1450L938 1450L938 0L0 0z"/>
<path style="fill:#ffffff; stroke:none;" d="M571 429C571.576 441.564 583.549 443.537 589.242 453.209C591.424 456.915 588.574 461.773 591.028 465.367C594.601 470.6 606.411 476.818 601.863 484.981C598.423 491.155 592.694 489.161 587 490.39C581.803 491.512 577.109 494.696 572 496.229C565.739 498.107 556.865 497.047 553 503C546.855 498.126 535.019 487.392 527.001 486.884C519.443 486.405 515.994 504.287 518.604 509.682C521.701 516.084 534.897 514.442 539.343 518.603C542.033 521.121 541.099 524.763 541.407 528C542.547 540.014 539.446 549.299 528 555C529.928 573.747 510.854 569.306 501.314 579.468C489.983 591.538 494.366 615.603 500.009 628.982C502.003 633.707 517.488 652.07 523 652.249C527.636 652.4 531.467 646.998 537 647.318C541.081 647.554 543.257 651.229 547 652.228C553.899 654.067 559.769 649.733 566 648.294C574.06 646.432 579.857 650.751 586.981 643.941C599.044 632.41 593.925 616.139 601.073 603C605.606 594.668 612.147 590.197 618 600C624.491 597.517 625.158 580.735 627 574C645.192 576.95 642.584 560.262 646 549L631 533C636.952 523.109 650.811 518.46 658.017 509.316C662.762 503.296 661.279 495.979 669.001 491.899C675.704 488.357 688.549 492.812 693.382 487.347C695.808 484.605 694.028 479.327 694.005 476C693.931 465.652 691.961 455.144 692.083 445C692.153 439.149 694.98 428.59 696.969 423C698.364 419.078 702.06 415.417 701.254 411C699.004 398.672 682.207 393.39 672.015 398.92C667.072 401.602 664.909 406.911 658.999 407.937C651.862 409.176 645.025 400.544 638.213 402.846C634.314 404.164 633.103 409.486 629.154 411.218C626.033 412.587 622.584 410.1 619.8 412.603C615.896 416.115 615.334 423.36 610.856 425.972C604.706 429.559 596.428 428.192 590.036 428.556C586.993 428.729 584.946 431.419 581.961 431.643C578.511 431.901 574.401 429.711 571 429z"/>
</svg>
