<?xml version="1.0" standalone="yes"?>
<svg xmlns="http://www.w3.org/2000/svg" width="938" height="1450">
<path style="fill:#010101; stroke:none;" d="M0 0L0 1450L938 1450L938 0L0 0z"/>
<path style="fill:#ffffff; stroke:none;" d="M622 294C618.048 302.451 615.564 311.511 611.691 320C610.297 323.057 607.327 327.251 608.647 330.775C610.077 334.597 616.983 336.424 619.91 339.185C624.888 343.881 625.836 349.706 629.563 354.961C631.867 358.208 635.479 360.065 636.772 364.015C638.367 368.89 637.153 374.185 638.653 379C639.618 382.098 642.77 384.73 643.095 387.957C643.648 393.448 634.485 397.509 643.109 402.443C649.027 405.829 657.086 409.655 663.625 405.687C668.833 402.526 671.335 397.244 678 396.214C688.207 394.637 693.408 400.657 701 406C705.726 400.477 713.148 397.86 711.848 389.039C711.332 385.534 707.076 383.27 707.667 379.711C708.272 376.062 710.181 368.353 712.027 365.21C714.499 361.001 718.591 360.149 720 355C708.405 347.603 690.416 337.918 685 325C681.183 325.72 676.893 327.121 673 326.865C654.704 325.661 658.016 305.011 645.957 296.468C638.934 291.494 630.117 295.933 622 294z"/>
</svg>
