<?xml version="1.0" standalone="yes"?>
<svg xmlns="http://www.w3.org/2000/svg" width="938" height="1450">
<path style="fill:#010101; stroke:none;" d="M0 0L0 1450L938 1450L938 0L0 0z"/>
<path style="fill:#ffffff; stroke:none;" d="M750 789L757 789C759.559 807.365 792.352 804.05 793 824L829 824.29L842 827.786L854 824.676L873 825C870.548 821.242 868.083 815.422 864.61 812.603C860.476 809.247 852.908 808.068 848.043 805.205C844.418 803.072 842.105 799.766 837.985 798.444C828.304 795.337 817.781 795.32 808 792.572C799.564 790.202 793.491 784.822 785 783.061C771.464 780.253 753.225 765.184 750 789z"/>
</svg>
