<?xml version="1.0" standalone="yes"?>
<svg xmlns="http://www.w3.org/2000/svg" width="938" height="1450">
<path style="fill:#010101; stroke:none;" d="M0 0L0 1450L938 1450L938 0L0 0z"/>
<path style="fill:#ffffff; stroke:none;" d="M693 147C692.494 150.681 693.204 154.384 692.078 157.996C690.007 164.639 682.395 167.621 691 173L691 174C669.336 190.358 702.183 220.317 713 196L748 204L750 212C755.781 209.318 766.803 206.621 771.157 202.362C777.217 196.432 772.038 189.652 783 188C780.135 180.208 771.18 184.655 765.42 180.076C761.354 176.846 764.08 172.316 762.383 168.329C760.643 164.244 754.827 163.518 751 163C757.075 152.154 751.783 145.192 748 135C743.032 137.088 740.329 141.689 735.816 143.807C721.748 150.41 707.099 151.665 693 147z"/>
</svg>
