<?xml version="1.0" standalone="yes"?>
<svg xmlns="http://www.w3.org/2000/svg" width="938" height="1450">
<path style="fill:#010101; stroke:none;" d="M0 0L0 1450L938 1450L938 0L0 0z"/>
<path style="fill:#ffffff; stroke:none;" d="M733 724C726.061 740.689 712.535 752.693 697 762.293C686.329 768.888 674.01 764.631 674 779L663 780L670 807L685 805.582L700 800.093L721.625 799.397L737.09 782.176L749 789C750.481 781.941 759.647 765.941 767.09 763.888C777.384 761.049 800.248 763.95 805.392 750.899C808.259 743.624 798.165 743.364 794.039 740.918C785.375 735.781 784.571 736.606 775 735.848C765.867 735.124 762.797 729.917 758 741C746.461 736.787 742.65 734.002 735 724L733 724z"/>
</svg>
