<?xml version="1.0" standalone="yes"?>
<svg xmlns="http://www.w3.org/2000/svg" width="938" height="1450">
<path style="fill:#010101; stroke:none;" d="M0 0L0 1450L938 1450L938 0L0 0z"/>
<path style="fill:#ffffff; stroke:none;" d="M551 726C556.638 739.839 546.816 742.7 534 743L533 752L526 753C528.188 761.324 521.872 767.994 515 772C515.619 774.711 517.168 778.133 516.303 780.91C514.779 785.804 500.017 795.73 495 796C491.376 802.197 489.268 806.775 482 802L481 802C478.051 804.393 471.877 807.838 471.662 812.075C471.376 817.709 479.246 819.625 474 825L475.902 841.957L470 851C474.175 852.739 478.572 856.394 483 857.14C491.741 858.612 498.716 848.32 505.209 844.081C508.62 841.855 514.494 841.931 516.976 838.49C518.705 836.093 518.354 832.656 520.009 830.093C526.452 820.119 533.362 812.729 544 808C543.535 803.597 542.094 794.12 543.31 790.209C545.121 784.383 551.703 779.323 553.899 773C556.009 766.926 555.437 759.774 558.314 754C560.909 748.792 568.715 744.349 568.737 738C568.777 726.376 559.158 725.832 551 726z"/>
</svg>
