<?xml version="1.0" standalone="yes"?>
<svg xmlns="http://www.w3.org/2000/svg" width="938" height="1450">
<path style="fill:#010101; stroke:none;" d="M0 0L0 1450L938 1450L938 0L0 0z"/>
<path style="fill:#ffffff; stroke:none;" d="M655 309C664.204 307.093 664.72 302.117 671.213 296.637C675.805 292.762 680.425 291.939 683 286C679.914 284.826 676.414 282.237 673 282.715C669.609 283.19 666.719 286.973 663.174 285.11C655.273 280.959 657.946 265.14 647.961 265.228C638.582 265.312 613.854 279.393 622.028 291.682C625.765 297.301 635.848 292.023 641 293.437C648.697 295.549 651.644 302.707 655 309z"/>
</svg>
