<?xml version="1.0" standalone="yes"?>
<svg xmlns="http://www.w3.org/2000/svg" width="938" height="1450">
<path style="fill:#010101; stroke:none;" d="M0 0L0 1450L938 1450L938 0L0 0z"/>
<path style="fill:#ffffff; stroke:none;" d="M502 181L510.118 198L510 223L524 219C518.6 238.225 532.235 249.839 550.996 246.556C556.089 245.665 573.783 240.036 577.062 236.397C579.952 233.192 579.437 228.608 583.109 225.558C587.996 221.498 594.972 221.002 599.487 216.239C602.157 213.422 602.201 209.207 604.652 206.214C609.028 200.87 621.409 195.774 609 190C614.989 182.146 618.255 156.809 601.999 156.554C598.575 156.5 595.466 158.535 592 158.529C586.943 158.521 580.824 155.026 576 157.218C566.754 161.421 560.648 170.357 550 172.865C539.16 175.418 527.587 168.934 517 171.444C511.454 172.759 506.759 178.037 502 181z"/>
<path style="fill:#010101; stroke:none;" d="M576 179C575.255 185.259 574.024 192.754 583 192L584 195C589.722 195.111 591.336 193.852 590 188C594.55 186.491 595.893 184.814 595 180L583 183L582 178L576 179z"/>
</svg>
