<?xml version="1.0" standalone="yes"?>
<svg xmlns="http://www.w3.org/2000/svg" width="938" height="1450">
<path style="fill:#010101; stroke:none;" d="M0 0L0 1450L938 1450L938 0L0 0z"/>
<path style="fill:#ffffff; stroke:none;" d="M745 683C734.532 693.38 726.206 688.689 714 693.638C704.009 697.689 689.275 707.239 681 714.212C674.418 719.758 668.413 727.783 659 727C654.988 734.337 642.28 739.58 643.647 749.942C644.191 754.072 648.876 753.866 651.146 756.513C655.563 761.665 661.082 772.221 662 779L673 778C673.122 764.464 687.147 767.68 697 761.907C712.293 752.945 727.995 739.373 733 722C741.619 731.331 745.603 736.719 758 740C763.415 728.653 766.898 735.731 776 735.272C779.07 735.118 781.866 733.489 784.996 734.309C790.759 735.82 794.792 741.187 801 742.845C808.745 744.913 815.364 743.499 823 744.304C827.132 744.74 833.913 748.36 837.816 746.763C847.825 742.667 844.86 721.951 835.857 718.689C829.517 716.392 821.843 719.178 816.343 713.721C809.513 706.945 810.67 695.12 799.946 690.742C790.753 686.99 780.13 692.212 771 692.787C760.766 693.431 753.043 688.314 745 683z"/>
</svg>
