<?xml version="1.0" standalone="yes"?>
<svg xmlns="http://www.w3.org/2000/svg" width="938" height="1450">
<path style="fill:#010101; stroke:none;" d="M0 0L0 1450L938 1450L938 0L0 0z"/>
<path style="fill:#ffffff; stroke:none;" d="M642 583L641 583L631 585L632 576L628 575C620.829 588.467 622.219 605.919 625.599 620C626.55 623.964 630.484 626.785 630.628 631C630.862 637.848 623.093 644.711 622.185 652C621.387 658.406 623.333 664.694 622.812 671C620.722 696.288 611.939 720.277 590 734L590 735C597.752 739.892 610.921 758.117 622.786 750.067C630.622 744.751 629.753 735.173 640 731C635.628 721.569 624.603 714.425 621.873 703.791C618.048 688.887 625.711 673.499 630.072 660C632.464 652.594 632.99 644.523 637.638 638C642.115 631.718 650.19 628.506 653.941 621.957C658.807 613.462 658.84 594.419 656.9 585C656.385 582.497 657.591 577.616 655.426 575.832C653.138 573.947 647.96 584.753 642 583z"/>
</svg>
