<?xml version="1.0" standalone="yes"?>
<svg xmlns="http://www.w3.org/2000/svg" width="938" height="1450">
<path style="fill:#010101; stroke:none;" d="M0 0L0 1450L938 1450L938 0L0 0z"/>
<path style="fill:#ffffff; stroke:none;" d="M435 929L422 924C418.29 933.376 411.489 932.408 403 930.345C400.456 929.726 395.303 928.641 394.77 925.427C394.012 920.856 406.45 921.9 407 915C408.74 915.878 424.148 922.699 417.953 913.562C413.824 907.473 407.996 910.82 409 901C412.742 901.47 422.892 902.168 417.833 895.302C411.324 886.471 402.527 895.094 395.995 896.606C390.282 897.928 385.416 893.455 380.228 894.423C377.206 894.987 376.974 898.664 376.022 901.001C371.838 911.267 375.458 913.748 377 924C368.305 916.501 357.799 916.629 354.756 930.039C353.798 934.264 356.221 937.74 354.101 942C350.345 949.547 342.627 956.372 342 965C348.671 965 358.903 963.093 364.891 966.457C369.182 968.867 369.573 974.504 373.109 977.772C380.435 984.544 397.12 986.822 405 981L405 986L419 990C423.126 985.314 426.548 987.604 428 993C432.759 991.203 434.927 984.98 440.001 984.133C444.115 983.446 450.177 987.373 454 988.807C460.145 991.112 466.635 991.218 471.891 995.61C475.999 999.042 475.416 1003.51 477.414 1008C479.698 1013.14 484.027 1017.58 485.586 1023C487.493 1029.63 483.476 1036.82 486.033 1042.79C487.848 1047.02 493.328 1047.87 495.543 1052.04C497.21 1055.18 496.547 1058.82 498.008 1062C502.146 1071 507.064 1079.98 510.867 1089.01C514.206 1096.95 509.813 1104.24 511.677 1112C514.817 1125.08 531.728 1134.97 542 1142L543 1142C545.274 1139.83 548.45 1135.91 551.961 1136.11C556.968 1136.4 559.338 1143.51 564.427 1137.77C567.769 1134 573.276 1118.12 573.462 1113C573.619 1108.7 571.249 1105.32 573.09 1101C575.337 1095.73 582.672 1091.39 580.481 1085C577.841 1077.3 570.765 1072.85 567.434 1065.96C564.575 1060.05 567.154 1053.08 564.856 1047C563.344 1043 558.344 1038.61 559.133 1034.04C559.967 1029.21 567.367 1026.2 571 1023.77C577.182 1019.63 590.451 1008.28 592 1001C585.477 996.92 581.484 989.671 574.996 985.938C568.638 982.28 561.534 985.851 556.699 978.981C549.807 969.188 557.195 958.334 558.226 948C558.608 944.168 555.669 940.747 556.992 937C558.652 932.302 562.539 928.931 564 924C560.159 920.901 559.076 918.883 560 914C549.678 903.892 555.78 883.314 547.347 871C543.945 866.033 536.976 862.312 541 856C532.627 845.085 520.271 837.271 507.044 843.8C499.645 847.453 503.585 853.815 502.671 860C502.009 864.482 498.56 870.348 495.613 873.714C490.055 880.066 485.256 879.862 479.104 883.908C473.58 887.542 472.136 895.075 466.957 899.251C459.965 904.887 449.77 905.736 443.43 910.858C439.415 914.101 437.008 924.178 435 929z"/>
</svg>
