<?xml version="1.0" standalone="yes"?>
<svg xmlns="http://www.w3.org/2000/svg" width="938" height="1450">
<path style="fill:#010101; stroke:none;" d="M0 0L0 1450L938 1450L938 0L0 0z"/>
<path style="fill:#ffffff; stroke:none;" d="M368 123C372.266 131.416 369.728 131.573 369.206 140C368.857 145.627 375.122 149.012 373.677 154.961C372.691 159.024 368.289 161.227 365.666 164.174C360.274 170.23 355.812 177.265 351.333 184C346.285 191.592 344.45 200.985 337.61 207.391C331.793 212.84 324.909 219.367 318.791 224.351C314.717 227.67 310.033 227.636 308 233L335.896 238.032L355 250L354 246C363.269 248.688 371.678 256.651 381 258.178C386.916 259.147 394.952 255.738 401 255.07C404.196 254.717 407.72 256.611 410.787 255.381C416.694 253.013 419.837 240.111 423.205 235C431.338 222.658 434.521 208.724 441.532 196.04C445.923 188.097 455.377 182.571 458.968 173.826C460.63 169.778 458.983 166.089 459.056 162C459.179 155.02 469.966 146.383 465.933 139.278C461.093 130.753 444.293 125.621 435 126.069C431.582 126.234 428.362 128.863 425 128.405C417.108 127.33 409.225 120.525 401 118.819C394.101 117.389 390.375 121.471 384 122.57C378.661 123.491 373.496 121.692 368 123z"/>
</svg>
