<?xml version="1.0" standalone="yes"?>
<svg xmlns="http://www.w3.org/2000/svg" width="938" height="1450">
<path style="fill:#010101; stroke:none;" d="M0 0L0 1450L938 1450L938 0L0 0z"/>
<path style="fill:#ffffff; stroke:none;" d="M445 855C437.859 872.252 422.485 852.299 412 853.862C404.395 854.995 398.663 863.249 392.83 867.451C389.026 870.191 383.359 871.221 379 873L379 874C386.094 878.374 392.635 885.013 400.004 888.597C412.274 894.566 430.34 897.913 444 899L443 909C452.495 907.794 462.873 904.172 469.366 896.675C472.414 893.155 473.863 888.516 477.21 885.193C480.716 881.712 484.932 882.94 488.576 880.383C499.782 872.519 501.558 862.205 501 850L486.999 857.563L470 852.241L459 859.292L445 855z"/>
</svg>
