<?xml version="1.0" standalone="yes"?>
<svg xmlns="http://www.w3.org/2000/svg" width="938" height="1450">
<path style="fill:#010101; stroke:none;" d="M0 0L0 1450L938 1450L938 0L0 0z"/>
<path style="fill:#ffffff; stroke:none;" d="M481 801L482 801C488.077 806.688 492.19 801.264 494 795C487.717 789.036 481.71 782.813 485 774L489 775L493 773L491.12 748L494 721L508 723L507 710L506 710L505 713C499.726 707.502 500.108 704.956 502 698C495.506 698.361 483.571 692.255 478.513 697.434C475.136 700.893 475.581 706.707 474.038 711C471.867 717.04 467.393 722.53 466.465 729C465.443 736.117 467.349 744.195 466.012 751C464.935 756.479 459.88 757.931 457.738 762.299C455.499 766.863 455.316 772.245 452.886 777C449.584 783.459 443.725 797.593 446.757 804.856C451.851 817.057 475.662 807.151 481 801z"/>
</svg>
