<?xml version="1.0" standalone="yes"?>
<svg xmlns="http://www.w3.org/2000/svg" width="938" height="1450">
<path style="fill:#010101; stroke:none;" d="M0 0L0 1450L938 1450L938 0L0 0z"/>
<path style="fill:#ffffff; stroke:none;" d="M299 311C298.201 317.325 299.611 323.876 298.529 330C297.258 337.186 293.99 342.434 294 350C294.006 354.921 298.398 363.718 296.037 367.811C292.697 373.601 285.157 370.919 280.09 373.434C266.818 380.019 253.909 392.8 258 409L272 409L265.762 425.424L250.095 427.603L244.304 439.61L237.218 445.39L237.516 465L230.019 478L225.143 492.582L210.301 503.09L196 520C199.162 535.28 204.123 533.847 215.957 541.352C222.148 545.279 224.12 552.371 231 556.099C236.257 558.947 249.09 563.438 253.856 557.682C256.606 554.361 256.339 549.58 258.727 546.043C260.597 543.273 263.776 541.705 265.431 538.791C269.279 532.016 270.729 521.47 272.995 514C274.751 508.21 270.905 502.139 276.148 497.359C284.124 490.086 290.557 502.007 298 503.527C304.971 504.951 321.325 498.84 327.852 495.752C334.487 492.612 328.477 485.12 329.812 480.214C330.699 476.956 335.241 475.942 338 475L338 480C350.38 476.076 358.365 484.356 371 481.346C375.051 480.38 381.667 478.716 382.512 473.826C383.375 468.831 380.933 461.95 380 457C387.213 456.995 394.669 454.083 400 460L412.314 445.746L424 445L421 437C426.491 435.027 427.915 430.082 430 425L418 420C408.865 430.105 397.614 409.136 397.392 400.961C397.271 396.501 402.743 392.7 404.737 388.985C408.229 382.48 410.282 373.235 412 366C398.144 359.388 395.148 336.715 396 323C391.16 324.656 388.322 328.666 383.896 330.401C372.874 334.721 368 332.76 368 347L362 347C362.541 353.547 359.247 355.862 354 359L356 347L356 346L341.143 350.427L334.721 333.39L321.787 321.653L299 311z"/>
<path style="fill:#010101; stroke:none;" d="M347 386C345.605 392.414 347.497 397.617 351 403L352 403L350 386L347 386z"/>
</svg>
