<?xml version="1.0" standalone="yes"?>
<svg xmlns="http://www.w3.org/2000/svg" width="938" height="1450">
<path style="fill:#010101; stroke:none;" d="M0 0L0 1450L938 1450L938 0L0 0z"/>
<path style="fill:#ffffff; stroke:none;" d="M148 1060C160.539 1067.33 162.899 1072.83 170 1085C162.346 1089.82 151.505 1104.35 152.623 1114C153.287 1119.74 157.332 1121.73 160.015 1126.18C162.381 1130.11 161.032 1134.36 166 1136C169.241 1130.59 178.734 1127.92 183.164 1134.3C185.496 1137.66 182.417 1141.42 182.835 1145C183.328 1149.22 186.453 1156.05 188.275 1160C191.502 1166.99 199.12 1167.75 204 1173C214.936 1171.79 217.162 1183.37 221 1191C233.022 1188.21 226.805 1179.6 234.43 1173.99C239.354 1170.36 246.121 1174.69 250.695 1171.38C259.35 1165.12 258.928 1150.74 262.97 1142.02C265.454 1136.65 271.044 1136.66 274.382 1132.47C276.824 1129.4 274.468 1125.45 275.614 1122C276.92 1118.07 281.38 1115.42 281.331 1111C281.241 1102.87 271.019 1101.86 266.174 1097.61C259.531 1091.78 254.176 1079.01 244 1077.93C240.383 1077.55 227.547 1085.69 224 1088C220.751 1082.38 214.535 1082.16 210.148 1077.79C207.593 1075.24 207.41 1071.25 204.683 1068.99C197.552 1063.1 189.199 1065.98 182.004 1062.53C169.932 1056.74 161.364 1049.9 148 1060z"/>
</svg>
