<?xml version="1.0" standalone="yes"?>
<svg xmlns="http://www.w3.org/2000/svg" width="938" height="1450">
<path style="fill:#010101; stroke:none;" d="M0 0L0 1450L938 1450L938 0L0 0z"/>
<path style="fill:#ffffff; stroke:none;" d="M747 513L732 512L729 504C718.827 520.424 711.112 536.3 689 536C687.61 543.037 685.49 553.88 681.772 559.982C679.801 563.217 674.143 565.274 673.647 569.108C672.967 574.37 683.022 589.211 687.375 592.385C691.553 595.432 697.149 592.064 701.682 595.967C706.512 600.126 703.597 606.361 711 609L710 603C730.536 606.645 741.797 595.383 744.546 575C745.154 570.49 742.291 566.342 743.176 562C744.365 556.163 749.148 551.596 751 546L743 553L742 550L741 550L733 560L730 555C741.633 539.029 751.356 518.29 758 500L757 499C750.741 501.483 748.69 506.822 747 513z"/>
</svg>
