<?xml version="1.0" standalone="yes"?>
<svg xmlns="http://www.w3.org/2000/svg" width="938" height="1450">
<path style="fill:#010101; stroke:none;" d="M0 0L0 1450L938 1450L938 0L0 0z"/>
<path style="fill:#ffffff; stroke:none;" d="M378 1204L372 1206C374.488 1213.78 376.527 1220.16 385 1223.03C387.808 1223.98 391.997 1222.74 394.297 1224.69C398.096 1227.92 397.376 1234.88 400.72 1238.79C405.212 1244.04 412.629 1244.43 417 1250C424.449 1245.6 423.026 1240.66 426.652 1234C432.692 1222.91 438.532 1215.73 441 1203C434.067 1200.73 429.304 1192.15 422.996 1190.98C415.385 1189.56 403.831 1195.3 397 1191.97C389.02 1188.08 384.516 1176.82 375.015 1175.54C368.808 1174.7 362.189 1186.41 363.613 1191.91C365.435 1198.93 374.905 1197.19 378 1204z"/>
</svg>
