<?xml version="1.0" standalone="yes"?>
<svg xmlns="http://www.w3.org/2000/svg" width="938" height="1450">
<path style="fill:#010101; stroke:none;" d="M0 0L0 1450L938 1450L938 0L0 0z"/>
<path style="fill:#ffffff; stroke:none;" d="M219 974L209 980C206.907 976.504 200.914 972.872 199.323 979.059C198.351 982.838 200.51 985.637 201.682 988.985C202.213 990.502 202.481 991.953 201.342 993.272C195.722 999.781 184.22 997.148 183 1008C177.064 1006.12 165.232 1003.13 161 1009L174 1026C184.559 1021.36 186.156 1016.76 198 1020C196.905 1025.31 194.407 1031 201 1033L200 1038C207.703 1040.81 229.272 1039.6 232.278 1029.98C234.495 1022.89 226.496 1013.95 236.189 1007.69C241.845 1004.05 247.974 1012.55 254 1012C257.615 1024.29 266.959 1027.16 278 1031.54C282.967 1033.52 286.031 1036.32 290.995 1032.68C297.367 1028 295.025 1024.03 298.028 1018C300.321 1013.4 305.138 1008.04 308.529 1004.1C317.341 993.874 330.673 995.073 330 978C320.552 976.694 317.205 969.105 310 963.863C305.996 960.949 302.408 961.927 298.09 960.416C292.187 958.35 286.54 953.185 280 953.144C270.051 953.082 259.546 957.531 252.329 964.39C248.727 967.814 247.686 974.069 242.895 976.127C237.917 978.266 224.844 974.722 219 974z"/>
</svg>
