<?xml version="1.0" standalone="yes"?>
<svg xmlns="http://www.w3.org/2000/svg" width="938" height="1450">
<path style="fill:#010101; stroke:none;" d="M0 0L0 1450L938 1450L938 0L0 0z"/>
<path style="fill:#ffffff; stroke:none;" d="M656 310C660.425 325.367 670.781 327.513 685 324C689.523 334.859 706.728 348.9 718.039 352.948C729.634 357.098 729.888 341.734 728 335C732.77 333.586 736.315 329.895 741 328.513C754.152 324.633 773.532 327.45 774 308C764.22 311.79 761.197 305.415 752 302.927C748.271 301.919 743.547 303.232 740.133 301.651C736.985 300.194 736.564 296.27 733.722 294.453C725.071 288.921 707.149 285.42 697 285.047C678.075 284.351 671.466 304.021 656 310z"/>
</svg>
