<?xml version="1.0" standalone="yes"?>
<svg xmlns="http://www.w3.org/2000/svg" width="938" height="1450">
<path style="fill:#010101; stroke:none;" d="M0 0L0 1450L938 1450L938 0L0 0z"/>
<path style="fill:#ffffff; stroke:none;" d="M455 1120C448.508 1121.03 445.825 1126.8 447.147 1133C448.859 1141.03 456.597 1145.53 458.177 1153C459.367 1158.63 454.628 1162.06 453.302 1167C450.083 1179 447.782 1190.34 443 1202C452.487 1206.42 465.858 1218.46 472 1227C482.081 1224.95 487.204 1208.82 497.999 1209.7C509.811 1210.65 514.443 1226.18 523.09 1231.3C526.689 1233.44 530.599 1230.76 534 1229.46C546.261 1224.77 542.339 1223.1 544.727 1212C545.671 1207.61 548.279 1204.67 548 1200C544.33 1200.28 534.794 1200.18 534.441 1194.87C534.234 1191.74 537.158 1189.13 537.387 1186C537.686 1181.89 535.363 1179.11 537.436 1175C539.512 1170.88 544.43 1167.74 545.199 1163.02C546.033 1157.89 539.736 1157.73 538.418 1153.79C537.294 1150.42 541.059 1145.27 542 1142C530.899 1136.05 515.807 1125.32 511.391 1113C509.189 1106.86 512.593 1100.3 511.532 1094C510.147 1085.78 504.065 1074.76 500.572 1067C497.593 1060.38 490.402 1036.26 478.318 1047.51C474.682 1050.9 476.474 1056.64 475.786 1061C475.078 1065.5 471.126 1068.58 470.6 1073C469.818 1079.56 472.897 1086.6 470.661 1093C467.336 1102.52 456.412 1111.04 455 1120z"/>
</svg>
