<?xml version="1.0" standalone="yes"?>
<svg xmlns="http://www.w3.org/2000/svg" width="938" height="1450">
<path style="fill:#010101; stroke:none;" d="M0 0L0 1450L938 1450L938 0L0 0z"/>
<path style="fill:#ffffff; stroke:none;" d="M204 798C202.577 805.522 196.49 815.568 189.896 819.926C184.3 823.623 176.081 825.18 171.563 830.39C164.21 838.871 162.333 853.352 153.61 861.57C150.723 864.289 146.361 863.937 143.495 866.564C136.886 872.623 128.495 890.863 131.042 900C133.809 909.926 144.574 913.128 153 915.633C162.727 918.526 176.495 923.589 184.867 929.352C190.524 933.246 194.202 950.281 197 957C206.073 954.524 205.765 947.721 207 940C216.967 946.274 211.646 950.167 208.61 959C207.313 962.771 205.42 970.139 210.228 972.243C216 974.769 224.822 972.536 231 973.679C235.701 974.549 238.943 977.926 243.787 974.86C247.273 972.653 248.605 968.083 251.329 965.105C256.407 959.552 265.533 953.928 273 953.051C283.026 951.873 288.28 956.088 297.285 959.416C301.499 960.973 305.053 959.995 309 962.863C314.588 966.922 320.735 978.201 328.816 976.592C333.754 975.608 341.316 965.995 340.768 960.999C339.92 953.277 331.928 948.972 330.757 941.996C329.738 935.93 328.822 924.132 330.317 918C331.208 914.348 334.443 911.85 334.762 908C335.197 902.763 331.677 899.557 330.143 894.985C328.064 888.785 329.332 882.228 327 876C322.776 877.242 317.771 879.407 314.649 882.634C311.682 885.701 311.284 891.176 305.985 891.238C299.361 891.317 296.612 883.37 293.32 879C289.293 873.653 283.841 870.06 279.62 864.985C276.659 861.425 275.437 856.794 272.494 853.375C268.843 849.134 263.965 846.037 262.938 840C262.127 835.231 262.636 825.779 263.532 821C264.136 817.784 266.945 813.494 265.647 810.214C263.095 803.767 252.165 805.597 250 811L227 799.613L213.285 802.434L204 798z"/>
</svg>
