<?xml version="1.0" standalone="yes"?>
<svg xmlns="http://www.w3.org/2000/svg" width="938" height="1450">
<path style="fill:#010101; stroke:none;" d="M0 0L0 1450L938 1450L938 0L0 0z"/>
<path style="fill:#ffffff; stroke:none;" d="M672 841C666.115 844.615 659.19 850.828 652 850.916C641.187 851.048 634.338 843.979 623.004 848.263C612.69 852.162 603.923 866.244 592.999 868.763C589.71 869.522 587.169 866.841 584 866.603C579.109 866.235 566.766 866.679 562.3 868.603C549.629 874.062 553.759 894.57 557.034 904C558.393 907.913 557.408 911.41 561 914C559.068 919.803 564.367 922.159 563.24 927.015C562.367 930.773 558.647 933.272 557.583 937C556.422 941.063 559.314 944.849 558.762 949C557.354 959.571 547.296 982.393 566 983C561.787 970.848 569.275 969.999 573.86 959.999C575.466 956.497 574.603 952.547 576.086 949C579.28 941.357 584.49 934.447 588.099 927C590.598 921.843 590.999 911.132 596.885 908.67C608.19 903.941 612.373 927.784 622.787 925.627C629.449 924.247 633.52 911.033 636.62 906C643.011 895.622 650.795 886.847 656.787 876C659.205 871.622 658.672 866.341 661.14 862.043C665.058 855.218 672.601 850.072 672 841z"/>
</svg>
