<?xml version="1.0" standalone="yes"?>
<svg xmlns="http://www.w3.org/2000/svg" width="938" height="1450">
<path style="fill:#010101; stroke:none;" d="M0 0L0 1450L938 1450L938 0L0 0z"/>
<path style="fill:#ffffff; stroke:none;" d="M761 32L751 70L768 69C757.151 81.3831 742.568 91.8356 744 110C763.661 110.914 765.364 130.26 752 141C755.159 148.755 755.124 153.971 753 162C756.673 163.485 761.905 164.874 763.308 169.093C764.473 172.597 762.336 176.259 765.515 179.181C769.65 182.984 775.387 180.661 779.911 183.024C787.44 186.956 792.063 196.65 799.055 199.911C812.452 206.159 824.607 195.822 834.154 213.089C837.031 218.295 829.948 233.131 830.129 240C830.402 250.381 839.032 255.885 841 266C856.135 260.162 880.597 260.008 870.968 237.185C868.667 231.733 857.615 230.844 859.637 223.089C861.473 216.052 870.841 212.407 872.609 204.001C874.166 196.596 865.452 194.518 866.693 187.996C867.991 181.175 873.726 173.054 869.142 166.174C864.066 158.555 852.32 157.594 845 152.91C839.719 149.529 832.041 144.616 829.013 138.985C827.153 135.526 828.093 130.536 825.262 127.589C820.165 122.282 812.971 123.911 808.514 116C801.691 103.891 809.78 86.8717 809.945 74C810.032 67.2111 805.242 62.7319 802.377 57C799.635 51.5179 799.109 42.8094 794.362 38.6034C790.44 35.1288 782.783 37.5858 778 36.8518C771.684 35.8824 767.919 32.0054 761 32z"/>
</svg>
