<?xml version="1.0" standalone="yes"?>
<svg xmlns="http://www.w3.org/2000/svg" width="884" height="940">
<path style="fill:#010101; stroke:none;" d="M0 0L0 940L884 940L884 0L0 0z"/>
<path style="fill:#ffffff; stroke:none;" d="M718 707C709.133 708.833 712.704 716.159 712 723L718 729L728 729C728.875 740.084 731.494 751.515 723.521 760.956C717.896 767.617 696.227 777.585 700 787L676.576 799.604L665 793L664 794L670 800L664 822C673.164 823.158 690.018 821.762 698.625 818.358C707.262 814.942 717.141 803.847 725 798.304C736.119 790.462 747.799 784.022 759 776C754.814 758.833 767.079 763.845 776.505 757.012C780.843 753.868 787.892 747.204 790.865 742.625C792.786 739.666 792.069 735.257 794.6 732.728C799.265 728.065 804.67 730.656 807 723L806 722C790.285 724.918 781.714 720.891 783 704L790 703L797.295 685L802.7 657L802.464 647L816 623C812.454 621.091 809.798 617.908 805.985 616.479C793.962 611.974 783.622 618.085 772 619.786C766.666 620.567 761.021 616.995 756 619.154C750.476 621.53 747.605 626.939 742.911 630.298C736.443 634.926 728.037 636.713 721.313 640.513C718.516 642.094 718.043 645.613 714.941 647.117C708.975 650.012 700.7 646.362 694.094 649.032C687.626 651.648 684.399 667.853 680.634 673.942C679.139 676.361 674.991 678.162 674.827 681.143C674.464 687.759 681.355 692.209 687 692.826C698.249 694.056 715.52 691.263 718 707z"/>
</svg>
