<?xml version="1.0" standalone="yes"?>
<svg xmlns="http://www.w3.org/2000/svg" width="884" height="940">
<path style="fill:#010101; stroke:none;" d="M0 0L0 940L884 940L884 0L0 0z"/>
<path style="fill:#ffffff; stroke:none;" d="M212 18L191.286 28.5131L177.537 44.787L168 55L185 54L180 48L184 44C186.387 44.4944 189.56 44.3685 191.621 45.7686C195.875 48.6588 207.806 62.399 212 52C219.9 53.3744 221.369 47.6642 228 45L232 33L219 26C219.431 29.0229 216.08 44.5557 211.839 36.7169C208.909 31.3028 214.424 23.8334 212 18M191 74C190.441 86.2098 183.356 82.4157 176.603 88.9946C174.22 91.3157 173.833 96.851 173 100L194 90C196.178 85.9379 198.389 84.3486 203 84C200.702 79.9161 198.534 79.3034 194 80L191 74M88 162C99.6549 164.078 103.78 171.853 116 165C115.797 161.158 118.302 157.675 117.756 154C117.007 148.96 113.665 145.458 114.108 140C114.504 135.121 117.736 130.933 117.61 126C117.364 116.312 111.055 114.243 115 104C108.817 99.9774 115.965 97.7872 117.203 93.7261C117.963 91.2336 116.929 87.6426 117 85C104.412 91.1335 109.891 100.494 107.114 111C105.819 115.901 101.867 118.616 100.418 123.104C95.8565 137.237 95.3654 148.69 88 162M196 123L191 118L183 122L183 123L189 130L184 131L184 133L188 136L189 136C193.787 132.837 200.518 130.476 205 135L208 134C208.693 140.737 207.346 144.759 200 145L200 149L193 147L189 143L193.26 152.871L189 166C177.891 165.688 182.591 151.748 185 145C177.3 140.687 176.737 142.929 173 149L171 165C163.127 165.99 153.961 162.487 150 171L149 171C144.512 164.411 139.003 169.9 133 170.786C129.621 171.285 124.368 169.361 121.623 171.918C119.184 174.19 122.048 191.206 124 194L115 202L120 208L118 213C122.381 217.919 126.136 222.282 124 229L109 227L107 232L110 233C106.247 236.946 100.47 239.091 95 239L92 243C92.7697 249.493 94.6799 253.034 99 258C88.0549 261.671 104.515 266.818 106.585 268.589C110.343 271.803 111.274 275.536 116 278L112 281L111 281L105 276L109 288L108 288C101.213 275.187 91.558 273.816 80.9576 280.653C77.807 282.685 74.6517 284.078 73.5872 288.015C72.3911 292.439 73.0789 303.922 76.0093 307.57C78.7267 310.953 82.5515 310.411 84 315C89.2443 313.019 93.219 312.968 95 319L87.6952 327.673L77.9992 324.199L69.1289 324.431L56 306L52 307L52 317L56 318L50 324C51.1095 330.821 55.7537 331.317 60.7909 334.951C74.8817 345.116 82.9869 335.128 96 328.557C103.05 324.997 111.498 323.672 117.956 318.826C123.37 314.764 124.89 308.553 131 305C131.711 297.605 138.647 299.263 142.143 293.941C144.055 291.031 143.732 287.191 145.853 284.414C156.064 271.049 167.605 259.61 172 243C168.268 240.71 149.69 230.399 164 229L166 234L177 226C173.226 223.798 169.548 218.343 175.098 215.511C181.653 212.166 194.29 215.861 192 204C185.371 203.147 180.827 193.983 180 188L187 191C191.596 186.172 196.952 187.523 203 188C202.935 173.584 208.068 169.147 221 164L214.858 152.946L213 132L217 132L210 114C202.651 115.365 199.117 115.59 196 123M229 142L224 145L228.652 158.004L227 189C209.035 187.596 225.622 200.897 229 210L235 207C237.7 214.32 246.675 208.952 249.258 203.687C250.922 200.297 249.366 196.368 251.603 193.044C254.697 188.448 260.571 188.735 263.892 184.721C269.74 177.653 269.912 167.476 272 159L267 159L261 147L250 153L250 149C242.448 151.068 238.833 148.149 246 142L229 142M38 265L43 264L38 265M39 327L42 321C37.8414 320.846 34.845 324.141 39 327M44 326L43 329L47 331L44 326z"/>
</svg>
