<?xml version="1.0" standalone="yes"?>
<svg xmlns="http://www.w3.org/2000/svg" width="884" height="940">
<path style="fill:#010101; stroke:none;" d="M0 0L0 940L884 940L884 0L0 0z"/>
<path style="fill:#ffffff; stroke:none;" d="M568 645L570 651L548 654L545 650L545 649C551.519 638.99 533.584 644.25 530 645C530.827 637.948 528.079 635.041 525 629L509 634L509 626C502.796 626.638 497.484 624.707 492.133 621.471C487.585 618.721 487.091 613.864 481 616L480 624L477 622C474.105 636.836 484.925 641.611 493.606 650.39C498.392 655.23 498.096 663.959 503.394 668.262C508.696 672.569 515.342 669.035 520.999 670.948C526.599 672.841 527.411 679.61 532.213 681.789C539.355 685.028 551.057 681.383 559 683C557.388 685.478 555.607 687.973 555.268 691C554.8 695.173 557.402 698.882 557.515 703C557.726 710.746 549.058 725.446 558 730C563.321 718.078 576.475 729.645 585.791 724.782C599.86 717.439 608.91 700.016 625 695.279C632.435 693.089 642.474 692.536 650 694.382C654.591 695.508 659.214 698.837 664 698.594C669.52 698.314 674.3 694.501 679 692C677.626 688.812 674.092 684.626 674.39 681.058C674.659 677.842 678.629 676.443 680.164 673.857C684.487 666.572 690.115 656.906 687.566 648.04C682.733 631.226 669.326 649.049 662.665 645.967C657.186 643.432 655.108 635.387 650.541 631.742C647.415 629.248 641.785 629.379 638 628L637 632L636 632C634.427 623.685 640.163 622.819 645.362 618.161C647.997 615.801 648.423 612.026 650.698 609.414C655.486 603.918 661.714 602.026 663 594C672.467 593.357 685.77 599.913 688 586C693.23 585.829 695.4 584.326 696 579L710.258 577.396L714.318 569.086L723.346 563.722L725 540C704.244 534.63 682.81 530.812 662 527.576C653.316 526.225 642.77 521.721 634.001 524.703C625.109 527.726 627.558 537.881 618.999 541.106C614.98 542.621 611.97 540.409 608 540.585C598.525 541.005 586.103 547.72 581.314 556.133C575.277 566.738 577.002 583.305 575.896 595C575.396 600.289 572.751 604.524 573.429 610C574.972 622.462 582.498 638.918 568 645z"/>
</svg>
