<?xml version="1.0" standalone="yes"?>
<svg xmlns="http://www.w3.org/2000/svg" width="884" height="940">
<path style="fill:#010101; stroke:none;" d="M0 0L0 940L884 940L884 0L0 0z"/>
<path style="fill:#ffffff; stroke:none;" d="M524 511L510 529L512 533L508 535C511.753 542.409 507.803 550.886 508.015 559C508.359 572.228 518.441 584.242 530 590L530 591L526 593L526 599L530 599L541 608C536.191 609.768 534.287 615.116 537.858 619.502C540.091 622.244 544.195 623.253 546.896 625.529C551.98 629.812 555.074 635.986 559.698 640.401C561.868 642.473 564.826 642.767 567 645C582.132 638.693 573.602 622.046 572.465 609C572.061 604.363 574.468 600.519 574.896 596C576.08 583.48 575.563 570.131 579.789 558.015C582.945 548.968 598.057 541.016 607 540.071C612.183 539.523 615.825 542.451 620.941 539.718C627.01 536.477 627.055 528.026 634 524C627.963 511.879 622.013 514.986 612 509.567C606.41 506.542 602.616 501.03 599 496C591.817 498.069 585.295 504.096 578 505.335C573.736 506.059 570.438 502.055 566 503.608C561.216 505.283 558.473 510.386 554 512.682C543.773 517.932 533.737 513.334 524 511M490 570L488 572L488 573C490.987 577.521 491.005 583.735 495.329 587.347C503.228 593.945 505.185 585.084 502 579L490 570z"/>
</svg>
