<?xml version="1.0" standalone="yes"?>
<svg xmlns="http://www.w3.org/2000/svg" width="884" height="940">
<path style="fill:#010101; stroke:none;" d="M0 0L0 940L884 940L884 0L0 0z"/>
<path style="fill:#ffffff; stroke:none;" d="M403 624C401.561 630.623 405.853 644.312 409.97 649.787C412.435 653.065 416.4 654.335 418.468 658.043C421.645 663.741 421.062 670.881 427.019 674.656C438.888 682.176 454.984 671.733 457.502 658.985C459.281 649.979 447.799 643.768 447 634L446 634L446 659L428.34 643.772L415 627L414 627L406 629L405 624L403 624z"/>
</svg>
