<?xml version="1.0" standalone="yes"?>
<svg xmlns="http://www.w3.org/2000/svg" width="884" height="940">
<path style="fill:#010101; stroke:none;" d="M0 0L0 940L884 940L884 0L0 0z"/>
<path style="fill:#ffffff; stroke:none;" d="M311 417L298 429L309 427L309 428L305 433L296 435L308 440L308 441C295.894 441.009 300.871 446.655 294 453L294 464L286 462C283.429 475.354 288.275 488.476 295 500L291 500L290 511L289 511L287 497L286 497C284.815 508.569 273.887 511.313 269.924 521.001C266.761 528.731 270.685 536.796 273 544L269 545C274.663 554.489 283.103 555.203 275 568L275 569L279 571L278 576L279 576C279.662 574.337 280.233 572.623 280.936 570.976C286.507 557.933 290.413 576.214 299 577L299 578C292.266 582.861 299.843 593.139 302 599C306.382 597.688 308.935 594.125 313.039 592.599C320.878 589.685 329.697 593.249 334 584L358 583C360.803 572.163 355.132 562.896 360.652 552.109C362.929 547.659 369.787 546.346 374 544.247C387.967 537.29 396.951 529.471 412 536L420 525L425 527L417 506L415 501L397 492L396 495L388 487L384 489C381.668 484.714 378.853 482.649 374 482L373 492L370 491C368.886 496.286 370.939 498.184 376 496L378 501L372 505L371 505L368 502L367 502L363 513L352 499L357 499C352.662 484.419 362.4 477.934 363 464C368.861 463.558 371.923 460.356 374 455L365 446C360.954 447.839 359.346 449.512 359 454L356 452L356 457L349 456L350 453L347 452C353.74 442.825 353.675 440.015 349 430L337 434L337 433L342 425L332 419L332 426C328.217 419.518 319.87 406.237 310.214 408.046C304.418 409.131 307.071 415.755 311 417M253 440L254 450L251 449C243.768 456.552 237.911 461.862 237 473L216 474L218 482L222 481L214 499L218 500C223.709 492.064 242.265 487.858 236 476L250 475L254 479L261 468C263.938 477.081 273.123 461.742 267 461L271 455L265 454L276 442C267.222 442.204 261.288 443.979 253 440M276 461C271.649 465.062 269.2 467.72 271 474L273 474C275.692 469.608 278.62 466.079 276 461M198 492L199 493L198 492M202 493L203 494L202 493M204 494L204 498L211 499L211 495L204 494M245 553C237.593 561.551 246.782 580.698 258.895 578.396C272.41 575.827 264.795 557.161 256 554C253.367 557.958 250.651 558.784 246 559L245 553M240 613C246.506 614.53 251.188 613.226 252 606L240 613z"/>
</svg>
