<?xml version="1.0" standalone="yes"?>
<svg xmlns="http://www.w3.org/2000/svg" width="884" height="940">
<path style="fill:#010101; stroke:none;" d="M0 0L0 940L884 940L884 0L0 0z"/>
<path style="fill:#ffffff; stroke:none;" d="M367 59L367 65L367 66L373 70L372 75L368 73L360.417 86.0432L362 96C354.139 96.3384 344.363 100.516 343 109L347 108C350.904 117.948 366.072 114.732 364 103L371 104L370 108C373.019 105.46 372.713 101.656 372 98C376.504 97.7925 376.867 95.0899 377 91L398 99L399 93L381 83L384 70L380 70L382 64L372 62L371 58L367 59M339 64C340.084 69.3127 343.177 71.0804 348 73L343 63L339 64z"/>
<path style="fill:#010101; stroke:none;" d="M371 97L372 98L371 97z"/>
<path style="fill:#ffffff; stroke:none;" d="M314 101L312 111L314 116C319.913 112.739 316.364 107.474 317 102L314 101M403 109L414.608 121.313L416 138L413 139L414 150L417 151L409 155C409.693 159.262 411.091 161.157 415 163C413.566 166.485 413.633 168.095 417 170L421 156L438 155L435 152L435 151C444.328 150.34 449.82 149.645 453 140C449.644 137.587 446.741 135.402 443 138L442 138L439 135L438 142C434.352 138.958 429.885 135.233 429.919 130C429.947 125.629 433.533 121.51 430.257 117.394C425.464 111.372 410.107 112.898 403 109M386 122L385 125L391 129L392 125L386 122M303 136C297.991 141.832 291.982 143.404 294 152L286 149L285 150C284.201 158.064 276.854 154.331 272 152C272.471 158.661 269.77 166.678 271.573 172.996C274.466 183.13 290.221 192.412 297.671 198.563C300.558 200.947 301.687 205.975 305.329 207.353C309.431 208.906 314.122 204.958 318 204.139C322.797 203.126 328.215 205.77 331.999 208.494C334.612 210.374 337.949 212.662 338.593 216.039C339.314 219.823 336.715 223.795 339.603 227.124C344.244 232.473 352.96 237.656 360 238.66C363.67 239.183 367.409 237.614 370.985 238.907C377.679 241.328 380.147 247.571 388 248C387.493 236.215 378.13 235.448 374.604 225.985C372.505 220.353 376.545 214.055 378.55 209C383.948 195.395 385.239 185.09 401 181C400.245 173.922 397.772 166.794 397.189 160C396.963 157.365 398.77 154.74 398.046 152.148C396.843 147.847 390.296 148.623 388.012 151.434C385.88 154.058 385.765 158.067 384 161L384 162C385.25 165.461 382.168 166.164 379.153 164.653C372.71 161.424 370.418 151.882 361.019 154.343C350.675 157.05 338.331 184.323 325 167L318 166C309.951 179.163 308.941 159.407 302 157L306 153L308 136C311.847 137.581 313.747 137.09 315 133C309.721 132.176 308.862 125.733 304.788 125.176C297.972 124.244 299.258 133.451 303 136z"/>
</svg>
