<?xml version="1.0" standalone="yes"?>
<svg xmlns="http://www.w3.org/2000/svg" width="884" height="940">
<path style="fill:#010101; stroke:none;" d="M0 0L0 940L884 940L884 0L0 0z"/>
<path style="fill:#ffffff; stroke:none;" d="M409 434L410 437C415.041 436.361 417.32 438.927 421 442L422 441L420 438L427 436L427 442L436 445C430.525 447.457 427.713 448.205 422 446L421 450L426 450L421 464C430.83 466.226 434.853 454.235 436 446L442 456L442 449C451.404 445.68 455.155 437.626 467 441C468.831 417.996 487.03 435.116 499.772 425.034C505.695 420.348 504.095 408.779 506 402C490.987 393.096 479.844 406.064 465 405.322C456.669 404.905 452.85 396.018 444.228 402.818C439.068 406.888 443.826 412.083 441.238 416.83C435.772 426.859 420.581 434.077 409 434z"/>
</svg>
