<?xml version="1.0" standalone="yes"?>
<svg xmlns="http://www.w3.org/2000/svg" width="884" height="940">
<path style="fill:#010101; stroke:none;" d="M0 0L0 940L884 940L884 0L0 0z"/>
<path style="fill:#ffffff; stroke:none;" d="M505 416C502.98 423.095 499.093 428.529 491 429.324C481.716 430.236 469.524 423.368 468.309 436.999C467.649 444.403 475.153 446.127 479.996 449.847C484.319 453.168 485.645 457.784 489.302 461.406C494.196 466.252 500.962 467.817 505.83 472.228C509.848 475.869 517.493 482.116 519.552 487.09C522.414 493.999 518.559 502.8 523.699 508.582C530.297 516.005 546.638 515.975 555 511.682C559.379 509.434 562.213 504.02 567 502.662C570.748 501.599 573.373 505.238 577 505.049C583.478 504.713 591.031 498.485 597 496L597 494C592.002 490.691 589.712 483.82 585.437 481.117C582.763 479.427 578.944 481.628 576 480.968C571.14 479.88 565.322 473.645 562.148 469.985C557.079 464.141 559.255 455.834 552.826 450.637C543.648 443.22 530.869 440.159 521.015 433.56C513.423 428.476 514.741 418.176 505 416z"/>
</svg>
