<?xml version="1.0" standalone="yes"?>
<svg xmlns="http://www.w3.org/2000/svg" width="884" height="940">
<path style="fill:#010101; stroke:none;" d="M0 0L0 940L884 940L884 0L0 0z"/>
<path style="fill:#ffffff; stroke:none;" d="M664 823C664 828.4 663 836.322 667.314 840.431C672.962 845.812 683.673 844.774 684 855C697.352 852.117 705.274 871.12 693 879L695 884C701.374 882.684 708.594 882.089 712 876L719 875L711 867L722 872C728.844 871.725 739.257 872.729 744.015 866.502C747.4 862.072 747.231 855.249 752.213 851.757C755.457 849.483 759.566 851.327 762.89 849.092C768.574 845.27 770.461 831.445 766 827C778.698 826.738 796 830.577 807 824.065C811.603 821.34 815.81 820.713 817 815C829.04 814.609 848.318 800.128 846.353 786.133C845.92 783.045 842.518 782.537 840.724 780.491C838.572 778.037 837.972 774.04 837 771C845.211 769.304 856.546 754.028 858 746L832 736.275L813 738L795.302 737.618L776.582 757.988L761.43 762.653L756.748 777.536L725 798.61L698.791 818.887L690 819.609L664 823z"/>
</svg>
