<?xml version="1.0" standalone="yes"?>
<svg xmlns="http://www.w3.org/2000/svg" width="884" height="940">
<path style="fill:#010101; stroke:none;" d="M0 0L0 940L884 940L884 0L0 0z"/>
<path style="fill:#ffffff; stroke:none;" d="M443 402C445.997 400.987 449.772 398.757 453 399.541C457.734 400.691 460.651 404.802 466 404.617C481.387 404.082 490.17 394.486 506 401L507 396L525.49 394.958L529.527 381L522.443 368L517 345C504.956 345.525 493.233 351.924 481 350.84C475.709 350.37 468.383 344.215 463.17 346.237C445.425 353.12 438.996 385.749 443 402z"/>
</svg>
