<?xml version="1.0" standalone="yes"?>
<svg xmlns="http://www.w3.org/2000/svg" width="884" height="940">
<path style="fill:#010101; stroke:none;" d="M0 0L0 940L884 940L884 0L0 0z"/>
<path style="fill:#ffffff; stroke:none;" d="M287 305L286 308C295.931 304.894 300.117 296.5 308.104 290.994C312.193 288.176 317.717 287.036 318.108 280.999C318.388 276.67 314.141 273.954 313.154 270C312.024 265.473 314.773 259.354 316 255C306.148 251.969 300.184 234.487 288.174 237.336C284.965 238.098 283.571 241.45 280.826 242.973C278.181 244.441 275.052 243.836 272.429 245.499C258.818 254.128 270.905 266.632 273.721 276.015C276.416 284.992 277.664 300.146 287 305z"/>
</svg>
