<?xml version="1.0" standalone="yes"?>
<svg xmlns="http://www.w3.org/2000/svg" width="884" height="940">
<path style="fill:#010101; stroke:none;" d="M0 0L0 940L884 940L884 0L0 0z"/>
<path style="fill:#ffffff; stroke:none;" d="M469 613C467.469 622.438 471.71 627.178 462 633L461 647C450.461 645.413 452.474 639.464 448 632L447 632C447.802 636.135 448.196 641.139 450.442 644.787C452.676 648.415 456.924 649.574 458.157 654.015C460.669 663.07 447.629 675.396 440 678L440 679C448.205 681.364 451.461 683.878 460 681L460 690L461 690C469.981 676.326 489.563 685.596 498.822 673.867C503.542 667.887 498.47 659.944 495.56 654.043C492.737 648.317 485.834 645.983 481.809 640.996C476.025 633.832 477.961 629.131 475.898 621.274C475.018 617.922 471.628 616.868 471 613L469 613z"/>
</svg>
