<?xml version="1.0" standalone="yes"?>
<svg xmlns="http://www.w3.org/2000/svg" width="884" height="940">
<path style="fill:#010101; stroke:none;" d="M0 0L0 940L884 940L884 0L0 0z"/>
<path style="fill:#ffffff; stroke:none;" d="M359 584L334 585C329.392 593.398 320.969 591.227 313.09 593.317C309.417 594.291 306.192 597.957 303 600L310.987 613.019L315.073 638.714L328 658L338.683 657.198L342.434 665.791L357 682L366 667L367 670C373.099 668.298 374.748 665.392 381 669C383.717 664.049 387.445 662.43 393 663L393 665C386.233 668.217 377.968 684.938 381 692L392 694L399 709L407 710L400 721L403 725C406.978 724.264 415.838 723.307 415.257 730.005C414.969 733.331 411.084 735.474 411.306 738.942C411.804 746.701 421.455 742.33 424 739L425 739L431 748L419 765L427 766C431.089 759.245 434.205 755.667 440 763L441 763C445.234 755.459 451.97 737.427 461 736C461.559 749.257 451.941 754.052 446.874 765.209C444.499 770.439 445.399 776.985 439 779L442 784L433 786L434 793L427 794L421 785C425.945 784.141 426.14 780.416 427 776L420 777L419 785C414.561 784.419 394.272 782.858 397.241 790.914C399.041 795.801 405.683 798.312 409 802L415 798L413 794L414 793L422 795L417 826L416 823C404.187 831.776 399.051 850.051 397 864C389.98 864.56 393.116 869.363 389.471 873.61C385.364 878.398 378.024 881.736 372 883L369 892L368 892L367 884C359.649 886.636 355.439 894.799 358 902C364.883 898.75 376.12 890.499 383.935 893.792C387.779 895.411 388.04 899.847 392 901L390 893C411.197 884.175 439.937 864.42 435 838L436 837C442.494 840.26 452.011 841.202 455 833C461.171 835.459 462.66 831.696 467.129 828.306C471.207 825.211 477.096 822.103 479.981 817.815C483.736 812.232 483.851 804.55 487.653 799C490.864 794.311 501.291 784.702 493 780L494 771C497.782 774.188 500.158 774.842 505 774L507 761L512 764L518 758L514 752C525.636 747.252 532.797 738.861 521 728L521 727C524.755 724.836 528.218 723.519 529 719L553 725L557 683C549.459 682.109 540.285 684.803 533.043 682.459C527.203 680.569 526.896 672.33 519.999 671.368C516.344 670.858 505.447 669.547 502.3 671.117C498.243 673.142 496.687 677.347 491.996 678.829C478.841 682.986 468.975 681.053 459 692L459 682C449.874 685 428.478 679.359 422.6 670.91C419.631 666.643 420.159 660.684 416.925 656.39C413.658 652.051 409.002 650.587 406.97 645C405.341 640.521 402.694 634.582 401.827 630C401.124 626.281 403.485 623.432 400 621L397 626C396.508 618.975 396.212 608.809 403 605L404 615C409.642 611.758 412.441 606.356 413 600L409 601L411 586L396 591L394 581L400 579L395 578C397.532 568.968 389.689 560.052 392.492 552.093C394.314 546.919 402.417 544.778 407 543L403 562L408 558L406 579L411 581C417.021 571.199 426 549.149 416.146 538.599C404.254 525.867 387.597 538.055 376 543.756C372.023 545.712 365.67 547.399 362.564 550.56C354.28 558.991 360.299 573.932 359 584M536 725L541 736L554 737L553 733C548.521 733.144 546.835 731.491 547 727L536 725M376 771L375 775C379.344 777.593 384.194 789.364 388.976 789.364C392.993 789.364 389.902 783.536 389.15 782.001C386.154 775.882 382.24 773.457 376 771M365 814L370 829L371 829L373 816L365 814M388 924C392.1 916.286 401.297 916.253 397 906C394.442 906.229 390.605 905.36 388.394 906.809C383.482 910.027 383.614 920.837 388 924z"/>
</svg>
