<?xml version="1.0" standalone="yes"?>
<svg xmlns="http://www.w3.org/2000/svg" width="1418" height="1450">
<path style="fill:#010101; stroke:none;" d="M0 0L0 1450L1418 1450L1418 0L0 0z"/>
<path style="fill:#ffffff; stroke:none;" d="M582 767C593.497 757.504 588.438 740.762 591.873 727C592.927 722.779 593.421 714.561 598.133 712.716C601.184 711.522 604.953 713.592 608 714.113C622.838 716.649 628.128 730.95 644 733L649.932 720L639 702L656.105 685.17L677 666C667.897 661.745 661.296 656.58 656 648C644.438 649.469 638.707 657.291 631.702 666.3C629.088 669.662 628.984 674.259 624.892 676.448C615.346 681.553 611.085 664.102 602 667.974C593.017 671.804 595.723 676.387 591.397 682.961C575.311 707.401 575.2 738.452 582 767z"/>
</svg>
