<?xml version="1.0" standalone="yes"?>
<svg xmlns="http://www.w3.org/2000/svg" width="1418" height="1450">
<path style="fill:#010101; stroke:none;" d="M0 0L0 1450L1418 1450L1418 0L0 0z"/>
<path style="fill:#ffffff; stroke:none;" d="M1162 713C1166.72 711.709 1171.16 708.945 1176 708.213C1181.94 707.315 1188.22 709.043 1194 707.034C1200.28 704.85 1206.33 697.435 1213 697.562C1220.29 697.702 1221.51 703.387 1226.51 707.142C1232.01 711.268 1245.55 712.76 1251.96 710.606C1257.27 708.818 1257.72 702.948 1261.39 699.419C1266.05 694.947 1273.75 696.211 1278.21 691.581C1284.63 684.935 1284.16 675.735 1289.48 669.004C1293.6 663.795 1300.14 661.066 1304.03 655.816C1312.94 643.809 1317.01 628.935 1326.51 617C1332.36 609.665 1341.31 606.299 1347.35 599.482C1352.84 593.294 1352.09 584.11 1355.28 577C1357.76 571.457 1362.79 567.718 1365 562L1343 550.966L1323 546L1323 550L1310 544L1307 556L1306 556L1304 550C1299.48 551.801 1299.2 555.486 1299 560C1295.38 557.613 1290.44 555.827 1287.51 552.61C1284.05 548.813 1281.7 537.102 1274.09 539.418C1261.51 543.249 1257.93 563.718 1248.9 571.471C1244.06 575.623 1238.14 577.618 1234.36 583.04C1231.04 587.82 1231.6 592.884 1229.44 597.961C1227.96 601.419 1224.62 603.695 1222.82 607.015C1220.05 612.138 1218.95 618.227 1215.36 622.911C1209.59 630.454 1199.82 633.066 1193.7 639.637C1186.83 647.022 1188.06 660.224 1184.44 669C1181.65 675.741 1174.02 680.15 1169.79 686C1163.8 694.259 1162.78 703.103 1162 713z"/>
</svg>
