<?xml version="1.0" standalone="yes"?>
<svg xmlns="http://www.w3.org/2000/svg" width="1418" height="1450">
<path style="fill:#010101; stroke:none;" d="M0 0L0 1450L1418 1450L1418 0L0 0z"/>
<path style="fill:#ffffff; stroke:none;" d="M438 368C440.619 359.18 448.571 363.477 455 365C452.374 359.824 444.261 350.641 437.39 353.619C431.094 356.348 433.237 365.399 438 368M505 420L500 428C507.512 432.275 514.73 437.678 522.286 441.701C526.163 443.766 530.188 443.447 533.211 447.133C538.573 453.673 536.557 467.321 543.279 472.063C547.201 474.831 550.916 470.533 555 471.9C559.017 473.245 561.914 476.934 566 478.298C580.668 483.194 593.472 474.532 605 466C602.982 463.495 596.791 452.156 594.682 451.447C591.548 450.393 588.058 454.366 585 454.833C581.902 455.307 579.048 453.637 576 453.509C570.083 453.262 564.913 457.236 559.318 452.914C554.288 449.029 557.107 436.676 555.682 431C553.622 422.797 543.094 417.392 536 414.278C524.078 409.045 515.891 433.098 505 420z"/>
</svg>
