<?xml version="1.0" standalone="yes"?>
<svg xmlns="http://www.w3.org/2000/svg" width="1418" height="1450">
<path style="fill:#010101; stroke:none;" d="M0 0L0 1450L1418 1450L1418 0L0 0z"/>
<path style="fill:#ffffff; stroke:none;" d="M222 544C216.613 544.365 210.666 540.225 206 541.508C193.611 544.914 193.06 559.669 204 565C197.942 582.37 178.665 600.886 159 598.748C151.619 597.945 145.113 592.049 138 590L142 604C135.988 604.145 112.424 601.437 116.661 614.941C118.226 619.928 124.579 618.158 127.748 621.318C130.844 624.406 129.476 630.9 131 635L142.278 627.302L155 621C160.441 623.591 177.502 634.785 168.609 641.13C165.044 643.674 160.698 640.692 157.144 643.477C153.023 646.707 153.666 652.166 149 655L152 660C157.984 657.338 159.709 647.478 165.108 646.408C172.919 644.861 178.117 655.904 184.895 654.113C188.976 653.035 203.909 630.419 206.681 647.005C206.899 648.305 206.569 649.727 206.331 650.998C205.891 653.351 205.32 655.625 205 658L199 658L194 665C196.105 673.289 189.697 671.933 184 674.367C178.523 676.706 166.227 682.033 162.427 686.463C157.58 692.113 173.122 689.418 172.6 696.019C171.382 711.433 145.18 715.65 138 703L131 702C131.995 715.193 123.886 713.128 114 715.765C102.102 718.938 91.6394 722.968 80 727.648C76.908 728.892 72.012 728.038 69.4228 730.028C66.3413 732.395 70.2843 736.424 69.4707 739.424C67.3096 747.393 63.1119 753.21 62 762C71.5355 763.777 79.7148 761.636 89 762.325C98.8132 763.052 111.383 767.287 121 765.468C128.062 764.131 132.394 757.272 139 756.028C144.512 754.99 156.557 755.464 162 756.927C165.945 757.988 169.868 761.219 174 761.219C179.631 761.219 184.159 756.22 190 756.059C203.091 755.698 209.5 770.827 224 768.783C236.658 766.999 243.108 752.065 256 750.691C260.382 750.225 264.682 752.364 269 752.826C275.144 753.485 282.157 751.706 288 754.075C294.17 756.576 299.832 763.619 307 762.196C312.669 761.07 327.626 754.79 330.486 749.698C334.16 743.158 332.88 735.788 333.949 729C334.804 723.573 337.947 719.836 338 714C343.501 713.499 353.871 707.252 353.771 700.958C353.697 696.305 350.008 693.288 349.613 688.985C348.993 682.222 350.33 676.057 349 669C342.15 667.944 331.817 660.148 327.314 654.829C324.992 652.087 324.9 645.985 320.867 645.128C317.196 644.349 304.612 643.259 301.133 644.618C298.658 645.585 298.027 648.811 295.691 649.655C294.242 650.178 293.098 648.952 292.407 647.833C286.94 638.966 297.338 624.638 290.633 615.279C286.021 608.841 278.062 613.22 272.015 612.012C266.405 610.89 261.773 601.939 260.014 597C257.175 589.027 260.428 583.203 259.075 576C258.098 570.797 253.41 567.842 253.459 562C253.523 554.46 256.197 540.731 251.272 534.465C243.727 524.862 224.885 534.255 222 544M73 633C74.8225 631.532 76.9973 630.017 78.4228 628.134C85.7253 618.488 62.1953 614.385 69.4892 627.975C70.4435 629.753 71.8154 631.376 73 633z"/>
</svg>
