<?xml version="1.0" standalone="yes"?>
<svg xmlns="http://www.w3.org/2000/svg" width="1418" height="1450">
<path style="fill:#010101; stroke:none;" d="M0 0L0 1450L1418 1450L1418 0L0 0z"/>
<path style="fill:#ffffff; stroke:none;" d="M1353 588C1348.12 602.983 1334.87 606.022 1326.01 618C1317.45 629.584 1313.07 643.24 1305.03 654.96C1300.82 661.103 1293.12 663.612 1289.03 670.004C1284.84 676.564 1284.53 684.346 1279.21 690.892C1274.76 696.378 1267.67 695.18 1262.39 699.086C1259.11 701.514 1257.51 706.364 1256 710C1270.2 716.639 1284.16 713.245 1299 713.854C1304.35 714.074 1308.6 718.393 1314 718.894C1320.3 719.48 1325.01 715.753 1331 715.299C1344.27 714.295 1360.26 715.643 1373 711C1369.69 703.872 1365.45 694.078 1368.01 686C1372.26 672.6 1388.51 665.999 1390.79 651C1393.11 635.743 1380.36 631.174 1376.15 619C1372.43 608.269 1365.5 590.229 1353 588z"/>
</svg>
