<?xml version="1.0" standalone="yes"?>
<svg xmlns="http://www.w3.org/2000/svg" width="1418" height="1450">
<path style="fill:#010101; stroke:none;" d="M0 0L0 1450L1418 1450L1418 0L0 0z"/>
<path style="fill:#ffffff; stroke:none;" d="M644 809C649.887 829.744 646.999 847.773 647 869C647.001 879.843 649.631 891.239 646.686 901.961C645.385 906.698 640.005 909.527 637.786 914.015C633.633 922.41 631.844 932.105 629 941C633.672 941.59 640.444 943.838 645 942.357C652.463 939.932 656.676 930.759 664 927.417C670.195 924.591 678.603 927.893 682.567 920.699C685.309 915.723 685.391 908.5 686.651 903C689.067 892.463 692.389 882.428 697.796 873.015C702.607 864.64 721.802 859.841 721.059 848C720.406 837.604 707.81 832.826 701.093 827.39C690.565 818.871 685.661 803.499 669 803.769C660.776 803.903 653.076 809 644 809z"/>
</svg>
