<?xml version="1.0" standalone="yes"?>
<svg xmlns="http://www.w3.org/2000/svg" width="1418" height="1450">
<path style="fill:#010101; stroke:none;" d="M0 0L0 1450L1418 1450L1418 0L0 0z"/>
<path style="fill:#ffffff; stroke:none;" d="M994 838L1008.53 868L1014 902L1025 893.468L1040.06 886.581L1043.21 872L1048.21 827L1056 795C1044 794.752 1031.92 794.145 1020 794.499C1015.42 794.635 1011.41 799.153 1006.85 797.056C1000.56 794.171 999.024 786.426 995.648 781.039C990.818 773.332 977.924 766.967 991 759.018C992.94 757.839 994.922 756.896 997 756C993.841 742.87 968.054 737.747 958.109 746.483C952.645 751.283 954.246 759.64 947.945 763.647C940.185 768.581 931.457 764.533 923.213 770.352C917.149 774.632 915.454 782.651 909.149 787.347C907.892 788.284 906.205 789.734 907.176 791.479C910.277 797.055 921.555 793.738 926 792.627C938.156 789.588 959.07 780.989 969.351 792.394C976.118 799.9 979.286 815.538 982.772 825C985.663 832.849 984.257 837.965 994 838z"/>
</svg>
