<?xml version="1.0" standalone="yes"?>
<svg xmlns="http://www.w3.org/2000/svg" width="1418" height="1450">
<path style="fill:#010101; stroke:none;" d="M0 0L0 1450L1418 1450L1418 0L0 0z"/>
<path style="fill:#ffffff; stroke:none;" d="M628 1063L626 1055C622.526 1056.34 618.184 1057.39 615.649 1060.28C609.208 1067.62 608.953 1089.85 619.213 1094.72C622.912 1096.47 627.088 1092.78 631 1093.11C636.768 1093.61 642.159 1096.48 648 1096.91C660.245 1097.81 672.252 1094.08 684 1091.13C692.856 1088.9 701.974 1080.91 711 1080.62C718.003 1080.38 737.249 1098.6 744.562 1085.72C747.36 1080.8 743.139 1074.47 741.139 1070C739.051 1065.33 735.461 1060.98 734.238 1056C731.761 1045.91 733.456 1033.26 729 1024L696 1044.68L679.043 1037.95L667.957 1048.44L628 1063z"/>
</svg>
