<?xml version="1.0" standalone="yes"?>
<svg xmlns="http://www.w3.org/2000/svg" width="1418" height="1450">
<path style="fill:#010101; stroke:none;" d="M0 0L0 1450L1418 1450L1418 0L0 0z"/>
<path style="fill:#ffffff; stroke:none;" d="M489 1305L499 1319C508.996 1314.9 520.743 1311.43 530 1305.93C535.676 1302.55 539.418 1294.97 546 1293.32C558.119 1290.28 568.218 1300.66 579 1298.09C589.246 1295.65 596.985 1281.01 608 1282.23C617.917 1283.34 614.904 1297.19 624 1300.97C638.549 1307.02 654.302 1298.98 670 1297L666.262 1276L661.433 1265L661.483 1254L655.213 1238L653.518 1215L653.539 1201.32L641 1199L644 1167C634.634 1167 626.203 1170.28 617 1170.91C612.077 1171.25 606.821 1169.13 602 1170.32C596.603 1171.65 593.796 1178.7 588.004 1178.7C579.305 1178.7 580.036 1160.62 571.434 1164.62C568.233 1166.11 568.01 1173.1 566.161 1176C564.397 1178.77 561.939 1182.45 558.911 1183.93C553.576 1186.55 548.833 1182.63 547.609 1191C546.535 1198.35 553.874 1206.73 549.976 1213.82C536.025 1239.17 518.903 1261.43 501.518 1285C496.739 1291.48 494.088 1298.61 489 1305z"/>
</svg>
