<?xml version="1.0" standalone="yes"?>
<svg xmlns="http://www.w3.org/2000/svg" width="1418" height="1450">
<path style="fill:#010101; stroke:none;" d="M0 0L0 1450L1418 1450L1418 0L0 0z"/>
<path style="fill:#ffffff; stroke:none;" d="M1048 518L1041.1 506L1043.99 489L1030.53 460L1031.27 447L1025.22 433L1020 399C1013.95 397.928 1006.97 398.866 1002.43 403.532C999.484 406.562 999.563 411.215 994.956 412.566C989.325 414.218 974.49 412.368 971.272 418.303C968.155 424.052 975.349 431.135 977.131 436C978.291 439.164 977.328 442.759 976.949 446C976.125 453.042 973.583 459.887 973.209 467C973.015 470.693 974.638 474.33 974.073 478C973.482 481.841 970.404 484.966 970.823 489C971.3 493.608 974.651 497.492 975.543 502C976.393 506.294 974.171 509.706 976.293 513.957C981.835 525.059 994.532 520.96 1004 521.008C1012.73 521.053 1020.27 528.933 1029 528.256C1035.46 527.756 1042.37 520.995 1048 518z"/>
</svg>
