<?xml version="1.0" standalone="yes"?>
<svg xmlns="http://www.w3.org/2000/svg" width="1418" height="1450">
<path style="fill:#010101; stroke:none;" d="M0 0L0 1450L1418 1450L1418 0L0 0z"/>
<path style="fill:#ffffff; stroke:none;" d="M1048 518L1028 528.822L1007 522C1011.61 533.948 1009.81 544.042 1012.39 556C1015.27 569.306 1021.18 582.484 1023.85 596C1025.55 604.605 1017.91 613.472 1026.7 621.382C1033.52 627.522 1041.78 613.54 1049 615.583C1061.33 619.077 1071.61 635.707 1082 643C1084.29 636.84 1080.23 633.909 1079.68 628C1079.33 624.307 1081.06 620.691 1080.52 617C1079.38 609.278 1073.65 597.244 1070.35 590C1066.5 581.55 1058.6 577.23 1058.04 567C1057.45 556.089 1069.68 538.445 1061 530L1060 530L1050 538L1048 518z"/>
</svg>
