<?xml version="1.0" standalone="yes"?>
<svg xmlns="http://www.w3.org/2000/svg" width="1418" height="1450">
<path style="fill:#010101; stroke:none;" d="M0 0L0 1450L1418 1450L1418 0L0 0z"/>
<path style="fill:#ffffff; stroke:none;" d="M788 148L783 147C783.436 156.127 781.748 162.96 787 171C774.609 171.104 765.465 182.227 754 187L764 211C773.562 208.273 783.1 206.401 790.61 199.24C796.779 193.357 797.36 182.21 808 183C807.916 172.885 803.447 168.725 799.853 160C798.163 155.897 798.872 151.089 796.914 147.059C794.292 141.661 789.759 143.216 788 148z"/>
</svg>
