<?xml version="1.0" standalone="yes"?>
<svg xmlns="http://www.w3.org/2000/svg" width="1418" height="1450">
<path style="fill:#010101; stroke:none;" d="M0 0L0 1450L1418 1450L1418 0L0 0z"/>
<path style="fill:#ffffff; stroke:none;" d="M552 637L560.442 652L562.587 665.571L569.76 675.001L569 711C556.282 711.105 548.559 718.837 538 725C541.066 740.808 541.733 759.147 556 769.363C561.142 773.045 576.919 777.119 580.357 768.657C583.933 759.856 576.32 745.94 575.634 737C574.637 723.995 579.277 702.731 584.197 691.015C585.607 687.655 589.278 686.067 590.972 682.911C595.557 674.37 594.765 670.841 605 666L597 642L580 640C570.517 654.384 563.74 647.547 557 636L552 637z"/>
</svg>
