<?xml version="1.0" standalone="yes"?>
<svg xmlns="http://www.w3.org/2000/svg" width="1418" height="1450">
<path style="fill:#010101; stroke:none;" d="M0 0L0 1450L1418 1450L1418 0L0 0z"/>
<path style="fill:#ffffff; stroke:none;" d="M789 727C787.238 734.151 789.451 745.03 786.933 751C781.756 763.273 755.809 783.125 769.318 798.572C772.252 801.927 776.251 804.655 780 807L780 808C767.64 818.801 762.923 840.242 749.957 849.03C745.466 852.074 728.418 850.248 728.331 857.094C728.153 871.118 750.979 875.812 758.941 882.669C764.364 887.34 760.477 893.853 764.603 898.302C769.625 903.715 783.894 915.989 791 917.686C799.817 919.792 809.976 917.307 819 918.17C826.932 918.928 837.04 922.83 844.91 921.512C852.543 920.234 853.121 906.022 861.015 906.427C867.129 906.74 871.265 913.793 877 915.487C887.044 918.454 897.392 913.386 906.96 919.353C913.854 923.651 916.352 933.244 925 935.447C937.664 938.673 941.877 920.929 954 922.231C963.996 923.304 972.272 934.531 983 936.081C987.644 936.752 991.573 932.696 995 930.127C1004.55 922.969 1011.88 917.68 1013.23 905C1013.7 900.619 1010.85 897.198 1010.21 893C1008.72 883.213 1011.07 873.309 1006.32 864C1001.64 854.828 995.067 849.62 993 839L985 839C983.016 823.38 975.3 788.288 956 787.38C944.988 786.861 932.61 791.861 922 794.37C917.67 795.393 910.054 796.109 906.662 792.288C903.342 788.547 911.692 785.529 913.61 783.61C921.23 775.981 921.983 769.587 933 765C923.73 743.515 891.737 741.642 871 743.224C865.907 743.612 861.165 746.644 856 746.352C847.683 745.881 842.54 739.867 835 737.858C825.81 735.41 816.95 736.082 808 734.571C801.562 733.484 795.02 729.47 789 727z"/>
</svg>
