<?xml version="1.0" standalone="yes"?>
<svg xmlns="http://www.w3.org/2000/svg" width="1418" height="1450">
<path style="fill:#010101; stroke:none;" d="M0 0L0 1450L1418 1450L1418 0L0 0z"/>
<path style="fill:#ffffff; stroke:none;" d="M857 434L856 444C852.942 444 847.259 442.937 844.747 445.028C841.562 447.678 845.089 452.286 846.251 455C848.435 460.102 848.162 472.63 841.867 475.067C834.767 477.816 828.011 470.271 822 467.995C817.515 466.296 812.596 467.479 808 466.214C799.273 463.813 790.436 457.877 781.001 459.483C776.361 460.273 774.092 463.867 769.961 465.4C766.215 466.79 761.832 464.947 758.854 468.318C755.78 471.798 756.224 476.859 754.74 481C751.487 490.076 745.182 494.274 736 495C733.351 508.459 719.5 514.923 707 518.359C699.771 520.346 688.238 521.819 686.306 530.985C685.327 535.63 693.3 539.797 693.981 545C695.521 556.769 697.578 560.219 709 565C703.467 570.781 698.297 578.598 690 580.581C685.169 581.736 681.596 578.974 677 578.691C671.928 578.378 667.714 582.066 664 585L664 586L674.699 610L690.532 647L703.298 662L723.175 697.787L732.397 704.637L735 720L770 711.977L780 716C783.164 707.318 777.857 698.812 780.6 691C785.688 676.515 799.283 668.707 800 652C781.936 653.363 786.789 631.024 782.633 620C780.242 613.655 772.706 605.322 775.604 598.104C778.268 591.469 795.981 582.157 803 584.248C808.583 585.912 817.241 593.868 823.012 587.258C828.82 580.605 820.363 555.675 832.576 554.557C836.391 554.208 840.304 558.68 844 559.582C855.564 562.405 867.108 559.689 873.683 573.001C876.836 579.386 875.464 586.765 879.475 593C883.729 599.611 895.169 609.72 903.575 602.667C909.873 597.384 916.718 586.694 913.257 578.043C911.334 573.238 904.921 570.955 901.666 566.985C888.055 550.379 874.477 524.754 898 511C895.213 502.449 888.35 494.495 886.637 486C885.374 479.731 889.103 474.171 888.445 468C886.617 450.857 872.823 438.634 857 434z"/>
</svg>
