<?xml version="1.0" standalone="yes"?>
<svg xmlns="http://www.w3.org/2000/svg" width="1418" height="1450">
<path style="fill:#010101; stroke:none;" d="M0 0L0 1450L1418 1450L1418 0L0 0z"/>
<path style="fill:#ffffff; stroke:none;" d="M575 243C570.473 258.173 570.301 274.005 559.61 286.961C552.079 296.087 539.708 296.464 535 285L531 287C532.691 291.999 537.8 298.847 537.687 304C537.48 313.428 530.091 314.99 536 325C549.949 320.892 540.583 300.472 555 300C541.61 315.057 555.326 325.071 559.367 340C560.889 345.625 560.494 353.33 559.334 359C558.734 361.933 556.44 366.646 558.118 369.501C561.286 374.889 576.342 377.309 582 379.424C590.13 382.465 598.621 387.702 607 389.613C616.187 391.709 625.877 390.049 635 392.415C641.272 394.042 645.623 399.501 652 401C655.222 391.534 658.583 379.765 653.686 370C650.691 364.027 644.939 359.774 641.638 354C639.638 350.501 642.822 344.482 639.332 342.067C634.715 338.872 629.195 345.532 623.911 342.029C611.585 333.857 602.905 322.789 589 317C592.471 311.051 598.446 299.779 598.958 293C599.282 288.697 595.311 285.087 594.394 281C593.295 276.107 594.926 270.822 593.486 266C591.174 258.257 581.125 248.058 575 243z"/>
</svg>
