<?xml version="1.0" standalone="yes"?>
<svg xmlns="http://www.w3.org/2000/svg" width="1418" height="1450">
<path style="fill:#010101; stroke:none;" d="M0 0L0 1450L1418 1450L1418 0L0 0z"/>
<path style="fill:#ffffff; stroke:none;" d="M964 45L966 45L967 44C966.392 41.0605 959.662 19.4674 954.086 27.4445C952.424 29.8235 961.85 42.5514 964 45M999 68C1002.52 74.2865 1004.92 75.871 1012 75C1009.41 70.8414 1003.84 68.0896 999 68M1169 82L1150 84.8634L1131 82C1131.07 88.7806 1130 97.4342 1134 103C1127.14 105.857 1115.78 109.591 1110.97 115.39C1105.24 122.29 1105.81 132.92 1102.55 141C1094.01 162.14 1080.44 172.545 1059 177.46C1053.64 178.688 1050.67 184.365 1045 183L1047 178L1034 182C1037.17 174.444 1041.04 172.629 1049 172L1049 171C1040.57 165.28 1037.44 170.939 1029 172.536C1025.25 173.245 1020.69 170.771 1017 170L1037 159L1030 158C1031.69 152.95 1028.06 146.493 1022 148.411C1012.5 151.416 1009.27 160.076 1001 163C1000.47 150.521 1009.86 148.621 1020 143L1019 140L1001 147L999 140L1010 135L1007 128C988.972 131.496 962.591 137.619 970 161L961.467 169.907L950 178C950.657 183.175 954.686 192.966 952.672 197.79C951.696 200.127 945.706 204.671 943.824 201.029C942.05 197.597 945.594 189.041 944 184L922 196L921 193C915.904 194.526 913.281 197.25 911 202L909 199L879 205L882 193C891.259 202.771 910.123 191.539 921 188L921 185L916 183L916 182C938.355 181.539 956.964 173.022 960 149L950 149C952.438 142.107 955.433 142.723 962 143C961.958 131.11 937.76 115.359 930 128L925 123C915.652 123.007 916.599 127.193 909.895 132.034C904.352 136.036 895.808 139.647 889 140L904 122L895 122C895.118 112.042 905.709 113.793 904 104L889.603 107.175L887.911 117L883 136C878.101 133.188 878.985 130.003 880 125C874.3 125.068 871.694 126.364 870 132C864.863 129.001 859.025 127.485 858 121L826 115.198L805 118C805.762 120.59 808.374 123.001 808.625 125.615C809.253 132.171 799.953 139.43 795 142C802.713 158.621 805.946 175.905 812.349 192.985C813.65 196.455 816.613 198.713 817.856 202.104C821.031 210.769 820.1 220.505 824.558 228.961C831.638 242.39 855.421 241.323 847 262C857.982 265.094 858.15 271.817 866.329 278.006C868.858 279.92 876.473 281.322 875.248 285.829C874.038 290.285 867.38 289.366 864.39 291.742C860.285 295.004 856.372 301.802 853 306L852 306L847 297L832 305L843.586 328L850 345C858.305 342.544 861.45 347.517 869 349.262C873.001 350.186 877 347.977 881 348.868C884.098 349.558 886.657 351.989 890 351.589C901.576 350.203 900.503 338.589 905.612 332.148C912.124 323.938 925.612 330.258 930 337C939.175 336.236 939.799 342.8 946 347C942.513 359.378 946.652 369.619 947.992 382C948.604 387.657 947.071 392.395 950.302 397.791C952.885 402.104 958.395 405.997 961.981 409.576C965.152 412.741 965.79 417.309 970 419C976.478 411.146 987.494 415.004 995.856 411.397C999.871 409.664 1001.12 403.689 1005.02 401.134C1011.92 396.612 1019.04 399.578 1026 396.442C1031.1 394.144 1036.74 387.058 1042.89 388.362C1046.64 389.156 1048.98 394.719 1052 397L1060 376L1067 383C1070.27 376.241 1070.55 369.071 1072.32 362C1074.41 353.66 1078.96 352.34 1076 343L1089 337.962L1098 340.309L1116.86 334.481L1123.7 322.513L1131.71 317.697L1152 293C1147.47 292.015 1139.22 295.18 1135.65 292.307C1130.02 287.779 1118.35 260.118 1127.43 255.198C1131.84 252.811 1141.25 257.36 1146 258L1146 245C1154.2 246.508 1157.54 238.946 1159 232C1170.33 239.366 1169.94 219.237 1170 212C1163.55 212.001 1159.88 212.485 1155 217L1159 192L1163 193L1165 188L1169 189L1168 203L1174 204L1179 182C1170.86 177.74 1162.84 177.687 1160 168C1163.8 166.083 1166.27 164.326 1167 160L1180 161C1170.58 147.948 1186.76 148.47 1190 140C1184.4 136.681 1181.26 136.245 1175 138L1174 132C1185.67 128.629 1184.47 119.414 1185 109L1198 108L1199 100L1195 100L1201 83C1193.31 85.4366 1175.62 86.9792 1176 75L1180 77L1181 73C1174.01 70.6793 1169.53 74.9091 1169 82M917 105L917 112L924 113L924 119L968.001 123.247L992 113L980.985 101.238L958 107L957 103L952 104L951 100C939.185 104.919 929.738 105 917 105M1204 230L1211 278L1221 276L1214 230L1204 230z"/>
</svg>
