<?xml version="1.0" standalone="yes"?>
<svg xmlns="http://www.w3.org/2000/svg" width="1418" height="1450">
<path style="fill:#010101; stroke:none;" d="M0 0L0 1450L1418 1450L1418 0L0 0z"/>
<path style="fill:#ffffff; stroke:none;" d="M556 371C553.495 388.024 540.632 398.2 532 412C540.653 415.602 552.906 421.533 556.397 431C558.456 436.585 554.986 448.958 560.318 452.721C565.582 456.437 570.513 452.632 576 452.84C579.38 452.969 582.571 454.896 586 454.124C588.709 453.514 591.659 450.119 594.517 450.73C597.384 451.343 601.995 462.343 605 465L606 465L618.648 453.91L629.213 436.702L646.39 430.973L661 419C654.324 390.592 627.627 396.317 607 390.363C589.69 385.367 573.737 375.203 556 371z"/>
</svg>
