<?xml version="1.0" standalone="yes"?>
<svg xmlns="http://www.w3.org/2000/svg" width="1418" height="1450">
<path style="fill:#010101; stroke:none;" d="M0 0L0 1450L1418 1450L1418 0L0 0z"/>
<path style="fill:#ffffff; stroke:none;" d="M666 589C660.015 596.374 654.805 608.474 647.787 614.362C632.634 627.074 607.559 616.063 592 611L591 622C580.902 622.762 582.713 631.556 580 639L598 641C598.253 653.235 602.641 663.47 612.001 671.575C615.809 674.872 619.69 678.956 624.867 675.767C634.53 669.813 638.169 649.223 650.996 647.983C657.097 647.393 658.837 652.922 662.515 656.621C666.579 660.709 672.754 663.74 678 666L689.072 648L684.575 633L673.699 609L666 589z"/>
</svg>
