<?xml version="1.0" standalone="yes"?>
<svg xmlns="http://www.w3.org/2000/svg" width="1418" height="1450">
<path style="fill:#010101; stroke:none;" d="M0 0L0 1450L1418 1450L1418 0L0 0z"/>
<path style="fill:#ffffff; stroke:none;" d="M832.019 555.276C824.394 556.557 826.402 575.15 825.714 581C824.823 588.581 829.704 592.788 829.982 600C830.49 613.224 825.206 620.088 822.239 632C820.475 639.085 821.685 647.271 818.566 654C816.865 657.67 813.45 660.155 812.032 664C810.236 668.874 811.65 674.456 807.697 678.482C804.306 681.936 797.047 687.423 792.286 688.524C789.226 689.231 786.247 685.939 783.318 687.816C777.556 691.51 783.329 702.801 782.891 708C782.643 710.95 780.53 714.064 780.993 717C783.299 731.612 807.949 732.162 818 733.364C831.648 734.996 842.775 744.781 856 745.606C861.183 745.93 865.916 742.897 871 742.414C882.672 741.307 894.789 742.491 906 745.709C911.779 747.368 919.91 748.056 924.79 751.728C931.272 756.604 932.411 767.51 943 765.272C950.967 763.589 950.835 758.158 953.652 752.001C955.357 748.275 960.215 745.865 961.071 741.911C963.979 728.476 947.128 712.991 946.383 700C945.759 689.118 949.403 676.712 946.363 666C941.521 648.94 928.991 638.343 917.394 626.61C911.639 620.788 907.371 613.381 901.367 607.433C896.551 602.663 888.515 605.552 883.9 599.867C874.651 588.47 876.877 569.937 863 562.998C857.303 560.15 850.906 562.024 845 560.582C840.783 559.552 836.496 554.524 832.019 555.276z"/>
</svg>
