<?xml version="1.0" standalone="yes"?>
<svg xmlns="http://www.w3.org/2000/svg" width="1418" height="1450">
<path style="fill:#010101; stroke:none;" d="M0 0L0 1450L1418 1450L1418 0L0 0z"/>
<path style="fill:#ffffff; stroke:none;" d="M947 390C942.926 391.173 933.641 392.001 930.563 394.067C927.899 395.856 927.276 400.439 924.867 402.787C920.345 407.194 913.337 411.007 908 414.452C902.185 418.207 894.903 417.923 889.379 421.317C884.233 424.479 879.319 436.125 878.833 442C878.241 449.162 887.187 458.407 888.806 466C890.73 475.027 881.75 489.828 893.174 495.958C902.21 500.806 910.466 488.744 918 487.04C923.856 485.716 926.745 493.634 933 491.038C937.794 489.047 945.345 484.931 947.4 479.911C950.178 473.125 948.192 467.107 953.444 461.019C959.425 454.086 967.202 458.635 973.436 453.973C976.726 451.513 977.155 441.779 976.827 438C975.09 418.002 951.903 407.397 947 390z"/>
</svg>
