<?xml version="1.0" standalone="yes"?>
<svg xmlns="http://www.w3.org/2000/svg" width="1418" height="1450">
<path style="fill:#010101; stroke:none;" d="M0 0L0 1450L1418 1450L1418 0L0 0z"/>
<path style="fill:#ffffff; stroke:none;" d="M983 603C991.091 605.949 998.31 601.577 1006 603.51C1010.14 604.551 1016.01 610.242 1020.3 606.382C1026.28 601.003 1022.06 592.987 1020.09 587C1016.88 577.24 1012.73 563.952 1011.21 554C1010.05 546.362 1012.25 538.472 1009.77 531C1007.51 524.192 1002.02 518.517 994.333 523.434C991.572 525.199 992.787 529.242 992.056 532C990.657 537.281 986.407 542.393 986.535 548C986.648 552.946 990.438 557.134 990.639 562C990.872 567.639 984.03 569.867 982.904 575C981.613 580.886 988.278 584.562 988.779 590C989.208 594.665 984.438 598.734 983 603z"/>
</svg>
