<?xml version="1.0" standalone="yes"?>
<svg xmlns="http://www.w3.org/2000/svg" width="1418" height="1450">
<path style="fill:#010101; stroke:none;" d="M0 0L0 1450L1418 1450L1418 0L0 0z"/>
<path style="fill:#ffffff; stroke:none;" d="M500 429C497.921 433.928 500.184 439.9 497.748 444.17C494.001 450.735 486.314 455.713 481 460.999C458.736 483.147 425.26 501 394 501C400.988 514.281 407.684 511.091 419.985 517.055C425.916 519.93 426.829 524.447 434 522C433.066 518.536 430.927 515.749 431.319 511.996C434.17 484.74 460.092 493.33 476.826 484.566C482.02 481.846 482.132 475.165 486.133 471.305C494.312 463.415 507.707 464.188 518 465C517.994 472.795 516.374 475.906 509 479C513.12 488.896 521.875 493.288 517 504C506.224 500.615 496.759 507.937 487 512L487 515C496.323 518.792 505.954 514.943 506 528L489 524L485 536L491 537L484 552L495 555L494 561L485 558L486 567L490 568L487 573C483.395 569.903 480.77 567.401 476 569L484 578L478 579L479 584L473 586L468 573L462 575L471 588C468.931 589.023 467.043 590.311 464.995 591.366C451.98 598.072 459.392 578.701 449 577L449 584C438.312 584.031 416.108 591.244 413 602L412 602C409.828 591.477 406.123 590.088 396 588L391 596C390.154 589.754 387.317 584.641 380.059 587.858C373.737 590.659 377.235 599.621 371.941 604.112C362.244 612.339 358.809 608.142 348 608.735C337.018 609.338 324.091 608.598 323 594L297 592C301.892 587.77 310.793 580.5 317.891 581.503C322.244 582.118 323.112 591.208 328.532 587.353C333.61 583.742 336.284 572.178 329.772 568.654C324.808 565.966 320.906 569.344 316 569.617C307.909 570.067 292.511 568.503 286.564 562.351C283.178 558.849 283.65 552.316 281.598 548C279.561 543.716 274.933 539.243 276.6 534.089C279.071 526.454 287.668 524.054 290 516L266.834 497.169L258.228 491.921L256.015 501L257.381 513.995L245 529C258.286 538.58 252.841 549.811 254.34 564C254.862 568.936 259.18 572.357 259.64 577C260.067 581.312 257.03 584.491 258.353 589C260.4 595.984 263.177 608.287 271.043 611.066C277.873 613.479 285.476 607.579 291.03 615.133C298.501 625.294 288.189 639.456 294 650L296 650C300.625 640.926 305.635 644.501 313.999 645.194C316.927 645.436 320.225 643.178 322.867 645.114C325.896 647.335 325.431 651.856 327.589 654.711C331.995 660.541 342.746 667.765 350 668C350.546 674.911 349.303 683.453 350.404 689.911C351.089 693.936 354.648 696.539 354.562 700.985C354.449 706.801 344.126 713.872 339 715C338.728 720.037 335.806 723.293 334.739 728C334.054 731.02 335.438 733.972 334.82 737C334.011 740.965 331.093 745.622 332.642 749.791C336.012 758.861 347.23 761.253 353.826 766.51C357.785 769.665 359.822 774.385 365.004 775.987C368.727 777.138 372.309 774.549 375.91 776.027C396.758 784.581 409.174 800.788 426.609 812.987C430.809 815.926 436.423 813.95 441 815.128C447.435 816.785 451.766 821.592 455 827C466.549 822.656 479.959 829.799 474 811L483 811C486.616 801.332 470.377 793.285 466.442 785.985C463.002 779.603 465.479 774.344 464.258 768C463.3 763.02 459.468 758.985 458.39 754C456.873 746.982 458.08 740.905 455.15 734C453.587 730.318 445.208 719.755 447.086 716.429C449.904 711.441 456.066 715.385 460 715.181C465.544 714.894 467.957 711.448 474 713C479.567 699.443 495.048 688.825 508 683C510.459 692.142 520.134 691.514 521 682C538.209 681.436 518.694 661.775 532.055 656.148C544.717 650.816 543.62 669.743 553.997 671.59C560.247 672.703 561.332 666.932 560.806 662.015C559.663 651.342 557.264 645.342 550 637L558 635C558.805 637.794 559.849 640.402 561.263 642.96C570.328 659.35 587.451 632.536 568 631C568.517 626.933 570.265 622.075 569.481 618C566.459 602.293 542.357 582.818 529 576L531.131 565.039L547.465 545.225L565 534L566 534C569.307 538.311 579.624 546.847 585.258 541.257C589.338 537.208 587.537 520.343 585 516C572.376 519.07 572.249 510.923 567.676 502C565.238 497.244 562.04 493.524 562 488L556.142 473.361L542.279 471.613L533.521 448.133L522.17 442.186L500 429M285 470C286.525 468.73 287.709 467.889 288.421 465.941C293.647 451.649 269.485 452.08 279.633 464.571C281.226 466.531 283.201 468.237 285 470M347 473L347 474C354.475 482.754 354.69 501.912 370 500.776C374.032 500.477 378.041 498.819 382 498C378.455 487.106 371.853 452.329 353.598 465.012C350.909 466.88 349.012 470.458 347 473M473 495L476 502L483 499L485 503C491.947 500.311 499.674 502.742 505.891 498.775C513.77 493.749 508.384 481.723 499.996 481.395C490.804 481.036 480.756 490.871 473 495M365.044 532.252C358.222 533.602 363.276 542.88 363.016 547C362.612 553.421 349.717 575.104 366.982 572.732C382.667 570.576 377.843 553.111 374.07 544C372.433 540.046 371.521 530.971 365.044 532.252z"/>
</svg>
