<?xml version="1.0" standalone="yes"?>
<svg xmlns="http://www.w3.org/2000/svg" width="1418" height="1450">
<path style="fill:#010101; stroke:none;" d="M0 0L0 1450L1418 1450L1418 0L0 0z"/>
<path style="fill:#ffffff; stroke:none;" d="M523 145.545C516.863 145.943 515.583 152.245 510.891 153.083C504.252 154.27 495.976 145.296 488.477 152.703C486.014 155.136 487.918 157.712 487.401 160.576C485.153 173.037 485.085 174.663 496.715 180.664C499.837 182.275 502.078 184.906 505.91 184.752C515.683 184.359 518.322 170.565 522.853 164.209C527.348 157.906 543.078 152.53 528.999 146.75C527.023 145.939 525.156 145.405 523 145.545M580 149L585 161L589 160C589.916 167.21 591.353 170.401 597 175L598 175L605 172C599.874 161.707 592.413 149.111 580 149M623 183C624.196 186.934 628.368 189.985 628.427 194.043C628.701 212.716 605.933 236.079 587 235.867C578.067 235.767 575.937 230.738 569 227L581.515 250L594.143 266L595.394 282L599.702 292.576L590 317L625 342.243L640.304 342.318L641.419 353.001L655 371L677 367.129L688 368.227L699 360.949L716 358C715.265 354.436 713.879 350.675 714.522 347.004C715.577 340.99 727.196 333.169 733 332.368C736.594 331.872 740.296 333.824 743.829 332.396C747.837 330.776 752.094 324.7 754.078 321C757.011 315.528 751.77 311.231 750.808 306C749.806 300.549 753.358 295.396 750.682 290.015C741.358 271.263 715.737 275.534 700 280C697.606 275.193 693.063 271.167 691.512 266C690.178 261.556 691.525 255.536 688.973 251.515C685.797 246.511 679.406 244.516 676.434 238.999C673.885 234.269 675.499 228.797 672.517 224.043C669.306 218.924 663.353 217.99 659.379 213.787C651.59 205.548 647.317 194.468 644 184C636.331 186.024 630.588 185.007 623 183M559 217L558 223L564 223L559 217z"/>
</svg>
