<?xml version="1.0" standalone="yes"?>
<svg xmlns="http://www.w3.org/2000/svg" width="1418" height="1450">
<path style="fill:#010101; stroke:none;" d="M0 0L0 1450L1418 1450L1418 0L0 0z"/>
<path style="fill:#ffffff; stroke:none;" d="M499 1320L506.72 1343L502 1365L509 1366C504.467 1370.28 505.423 1374.21 502.397 1379C498.118 1385.77 487.368 1389.9 490 1399L497 1394L498 1397L506 1395L507 1401L500 1402L500 1407L474 1410C478.842 1417.45 499.136 1414.19 507 1413.16C516.746 1411.88 527.165 1410.42 537 1411.09C548.742 1411.89 562.402 1414.7 574 1412.18C579.356 1411.02 583.131 1407.61 588 1405.42C593.313 1403.02 599.39 1405.32 603.852 1400.85C608.189 1396.51 606.654 1390.33 605.244 1385C603.244 1377.44 600.981 1369.09 597.677 1362C595.427 1357.17 591.925 1352.67 593.319 1347C598.973 1324 638.096 1334.05 636.218 1308C635.717 1301.06 621.804 1301.47 617.318 1295.91C614.605 1292.55 615.873 1287.67 612.682 1284.74C602.487 1275.37 586.995 1298.04 577 1299.23C571.802 1299.84 567.762 1295.99 563 1294.64C558.159 1293.26 550.965 1293.38 546 1294.15C539.215 1295.2 535.376 1302.68 530 1306.3C520.816 1312.49 508.694 1314.48 499 1320z"/>
</svg>
