<?xml version="1.0" standalone="yes"?>
<svg xmlns="http://www.w3.org/2000/svg" width="1418" height="1450">
<path style="fill:#010101; stroke:none;" d="M0 0L0 1450L1418 1450L1418 0L0 0z"/>
<path style="fill:#ffffff; stroke:none;" d="M708 565C703.75 563.168 696.494 560.463 694.603 555.895C692.593 551.04 694.498 544.78 691.972 540.089C687.782 532.308 674.771 527.165 674.87 517C674.925 511.309 679.851 505.162 682 500C663.554 488.411 656.92 508.02 647.925 520.786C645.375 524.405 637.791 530.43 634.302 533.307C631.531 535.591 626.181 533.666 623 533.286C616.516 532.51 598.504 530.501 594.028 536.564C591.27 540.299 594.243 546.057 594.791 550C595.524 555.273 593.974 561.688 596.564 566.61C600.125 573.376 616.437 579.358 623 583.424C627.418 586.162 631.969 589.842 637 591.351C652.235 595.922 661.119 581.7 674 578.365C678.571 577.181 683.287 580.175 688 579.952C696.911 579.53 703.346 571.806 708 565z"/>
</svg>
