<?xml version="1.0" standalone="yes"?>
<svg xmlns="http://www.w3.org/2000/svg" width="1418" height="1450">
<path style="fill:#010101; stroke:none;" d="M0 0L0 1450L1418 1450L1418 0L0 0z"/>
<path style="fill:#ffffff; stroke:none;" d="M424 1179L433.308 1210L438.51 1221.96L450 1222L450.103 1239L447 1251L475 1270C472.476 1273.7 465.367 1280.12 466.312 1284.9C467.334 1290.05 483.223 1296.77 488 1296.02C491.351 1295.5 494.582 1292.09 496.91 1289.83C507.23 1279.83 513.528 1267.43 521.901 1256.04C531.766 1242.62 542.716 1229.1 549.397 1213.68C553.17 1204.96 543.962 1195.96 548.113 1187.06C550.582 1181.76 554.573 1185.01 558.829 1183.38C562.317 1182.05 564.408 1178.12 566 1175L541 1175L546 1168L544 1161L506 1169.74L489 1164.63L476 1160L465.576 1167.4L447.278 1160.62L439.914 1175.68L424 1179z"/>
</svg>
