<?xml version="1.0" standalone="yes"?>
<svg xmlns="http://www.w3.org/2000/svg" width="1418" height="1450">
<path style="fill:#010101; stroke:none;" d="M0 0L0 1450L1418 1450L1418 0L0 0z"/>
<path style="fill:#ffffff; stroke:none;" d="M936 513C927.795 514.944 918.382 518.245 911 522.349C901.211 527.79 897.381 533.698 886 529C881.848 540.173 895.619 560.696 903.464 568.787C907.37 572.816 913.954 574.602 914.682 581C915.903 591.719 900.268 600.437 903.425 608.957C904.921 612.993 908.728 613.954 911.607 616.637C915.643 620.398 918.567 633.387 926.961 629.184C944.055 620.624 941.629 590.536 939.899 575C939.264 569.303 932.701 563.032 936.939 557.42C940.402 552.835 945.928 555.812 950 557.576C957.08 560.642 977.221 576.022 983.999 571.577C996.451 563.411 983.581 555.346 986.337 545C987.924 539.042 994.331 531.516 990.681 525.225C986.793 518.521 977.172 520.346 974.566 511.17C973.763 508.344 975.496 505.835 975.178 502.996C974.625 498.052 970.743 493.962 970.295 489C969.932 484.983 972.99 481.868 973.439 478C974.269 470.851 973.053 463.456 974 456C965.021 456.025 954.16 455.966 950.585 466C948.907 470.71 950.303 476.641 947.397 480.911C943.396 486.788 934.782 488.02 931.028 493.61C927.219 499.281 933.191 508.188 936 513z"/>
</svg>
