<?xml version="1.0" standalone="yes"?>
<svg xmlns="http://www.w3.org/2000/svg" width="1418" height="1450">
<path style="fill:#010101; stroke:none;" d="M0 0L0 1450L1418 1450L1418 0L0 0z"/>
<path style="fill:#ffffff; stroke:none;" d="M952 713C954.866 709.702 956.587 705.368 960.104 702.649C964.447 699.292 970.6 699.145 973.443 693.945C982.515 677.354 977.267 660.802 979.17 643C979.912 636.055 986.438 631.863 985.89 624.999C985.395 618.785 979.117 613.457 979.289 607.424C979.473 601.02 988.169 597.621 988.253 591C988.455 575.152 967.65 566.284 956 560.781C951.834 558.813 944.851 554.174 940.133 555.937C936.919 557.138 935.854 560.878 936.458 564C938.558 574.85 943.114 583.176 941.714 595C940.922 601.694 941.249 610.994 938.012 617C935.526 621.613 927.368 626.468 927.33 632C927.304 635.826 931.98 640.132 934.127 643C939.266 649.867 944.198 657.839 947.034 666C950.863 677.02 946.036 689.812 947.252 701C947.712 705.225 950.39 709.134 952 713z"/>
</svg>
