<?xml version="1.0" standalone="yes"?>
<svg xmlns="http://www.w3.org/2000/svg" width="1418" height="1450">
<path style="fill:#010101; stroke:none;" d="M0 0L0 1450L1418 1450L1418 0L0 0z"/>
<path style="fill:#ffffff; stroke:none;" d="M645 183C647.062 193.945 651.734 205.35 659.609 213.61C663.663 217.861 669.43 218.866 672.891 224.015C676.19 228.922 674.743 233.969 676.938 238.996C679.619 245.134 686.845 246.732 689.973 252.184C692.427 256.462 691.126 262.381 692.512 267C693.847 271.445 697.578 275.11 700 279C712.896 276.331 722.842 273.187 736 277.533C742.641 279.727 748.41 290.77 755.981 286.613C764.107 282.152 759.077 271.492 760.326 264C762.698 249.764 782.232 234.952 759 232C761.849 221.887 765.427 209.278 760.992 199.043C759.115 194.713 754.821 192.533 753 188C732.459 193.786 701.114 206.447 680 197.066C673.018 193.963 673.847 182.67 668.852 181.333C660.878 179.197 653.272 185.251 645 183z"/>
</svg>
