<?xml version="1.0" standalone="yes"?>
<svg xmlns="http://www.w3.org/2000/svg" width="1418" height="1450">
<path style="fill:#010101; stroke:none;" d="M0 0L0 1450L1418 1450L1418 0L0 0z"/>
<path style="fill:#ffffff; stroke:none;" d="M1227 460C1222.81 476.163 1215.93 468.123 1204 470.826C1192.01 473.542 1178.98 479.868 1171.64 490.004C1167.52 495.681 1162.27 505.027 1161.21 512C1160.35 517.707 1163.08 523.456 1161.01 529C1158.36 536.089 1152.99 542.076 1149.9 549C1144.64 560.832 1142.41 573.663 1139.07 586C1135.19 600.33 1129.28 612.443 1130.07 628C1130.53 637.054 1142.59 639.784 1143.05 647.043C1143.57 655.242 1135.81 662.403 1134.28 670C1130.24 690.011 1143.05 701.476 1154 716C1164.86 713.357 1160.53 702.233 1164.53 694C1168.98 684.836 1178.43 679.691 1182.99 671C1186.86 663.615 1187.4 653.04 1190.35 645.001C1194.07 634.828 1207.61 632.023 1214.36 623.714C1219.23 617.724 1225.3 605.795 1228.44 598.83C1230.88 593.407 1230.34 588.154 1234.04 583.015C1238.21 577.233 1244.73 575.287 1249.61 570.471C1253.58 566.549 1255.43 560.55 1258.62 556C1263.18 549.488 1269.87 544.396 1273 537C1259.97 534.284 1267.57 507.575 1250 507C1249.44 493.879 1243.56 488.326 1238.62 477C1235.73 470.384 1234.49 462.609 1227 460z"/>
</svg>
