<?xml version="1.0" standalone="yes"?>
<svg xmlns="http://www.w3.org/2000/svg" width="1418" height="1450">
<path style="fill:#010101; stroke:none;" d="M0 0L0 1450L1418 1450L1418 0L0 0z"/>
<path style="fill:#ffffff; stroke:none;" d="M629 1093C626.761 1100.95 625.682 1105.88 618 1110C619.013 1118.01 614.542 1131.6 617.618 1138.61C619.608 1143.14 626.546 1144.2 629.176 1149.02C633.835 1157.55 633.655 1165.96 645 1166C643.635 1173.04 637.925 1191 643.028 1197.26C646.581 1201.62 653.425 1196.13 655.177 1204C656.201 1208.6 653.795 1213.36 654.365 1218C655.333 1225.89 654.97 1235.41 656.904 1243C658.022 1247.39 661.376 1250.71 662.448 1255C664.396 1262.8 663.299 1268.07 667 1276C676.026 1270.03 682.478 1260.38 694 1259.52C705.678 1258.64 715.879 1263.24 727 1264.79C739.936 1266.59 765.089 1263.04 775.787 1255.16C782.174 1250.45 781.972 1241.9 783.227 1235C783.9 1231.3 786.633 1228.59 787.57 1225C789.167 1218.89 787.913 1212.07 789.637 1206C792.306 1196.6 800.267 1189.96 804 1181C808.393 1185.36 813.91 1189.1 817.686 1194C823.457 1201.5 822.67 1207.2 834 1209.11C842.959 1210.62 853.333 1200.24 862.892 1205.46C867.294 1207.87 867.208 1213.21 870.499 1216.5C873.347 1219.35 877.807 1219.96 880.985 1222.42C885.752 1226.11 888.851 1231.22 894 1234.56C911.782 1246.11 932.583 1248.37 952 1256.72C955.786 1258.35 961.556 1259.52 964.397 1262.65C966.257 1264.7 965.435 1268.07 967.603 1269.82C976.154 1276.73 991.512 1269.71 999 1264.91C1016.2 1253.89 1017.95 1236.66 1024.71 1219C1026.57 1214.14 1031.31 1210.06 1032.32 1205C1033.75 1197.79 1028.78 1190.35 1030.39 1183C1032.19 1174.83 1039.26 1168.04 1042 1160C1027.25 1152.23 1012.74 1147.43 999.001 1137.39C986.334 1128.13 984.674 1118.73 998 1109.44C1001.16 1107.24 1004.46 1105.48 1008 1104C1006.21 1095.76 994.558 1098.19 988 1096.1C973.207 1091.39 968.56 1077.01 973 1063C957.153 1062.99 942.318 1054.68 929.536 1047.03C926.312 1045.1 922.305 1046.48 919 1044.4C912.328 1040.18 908.467 1032.59 901 1029.37C890.572 1024.87 880.572 1031.33 870.043 1024.65C861.575 1019.28 861.784 1007.25 855.034 1000.6C852.205 997.811 846.66 998.23 843 997.54C829.378 994.971 816.829 995.566 803 997.286C789.436 998.974 777.088 1002.73 764 1006.06C755.46 1008.23 752.702 1004.76 744.911 1010.49C739.044 1014.81 730.82 1013.4 730.535 1023C730.236 1033.05 732.043 1050.82 736.274 1060C739.339 1066.65 749.127 1078.13 745.332 1085.86C738.474 1099.81 719.068 1081.65 712 1081.32C703.318 1080.92 695.065 1088.7 687 1091.09C666.116 1097.26 649.983 1098.95 629 1093z"/>
</svg>
