<?xml version="1.0" standalone="yes"?>
<svg xmlns="http://www.w3.org/2000/svg" width="1418" height="1450">
<path style="fill:#010101; stroke:none;" d="M0 0L0 1450L1418 1450L1418 0L0 0z"/>
<path style="fill:#ffffff; stroke:none;" d="M1077 344C1079.66 352.41 1074.39 359.594 1072.61 368C1071.95 371.13 1068.99 375.234 1071.04 378.363C1077.55 388.273 1093.56 384.662 1103 386.148C1108.62 387.034 1110.28 393.55 1116.04 393.927C1119.87 394.178 1128.24 393.991 1131.21 391.397C1134.24 388.759 1135.09 384.219 1139.09 382.603C1146.05 379.797 1153.12 383.227 1160 382.584C1166.89 381.941 1172.83 377.657 1179 375L1176.57 364.616L1191.76 348L1188 339L1172 350L1172 343L1167 342C1174.85 332.261 1175.64 324.173 1174 312C1165.93 314.384 1163.09 320.568 1160 328C1150.87 311.456 1173.84 310.266 1174 297L1186.58 296.641L1195 299L1186 281C1172.67 285.346 1154.05 291.216 1144.1 301.17C1139.5 305.782 1137.23 312.162 1132.71 316.942C1130.14 319.658 1126.16 320.642 1123.84 323.429C1120.99 326.858 1121.76 332.073 1117.77 334.726C1112.74 338.071 1104.15 341.555 1098 340.899C1094.88 340.567 1092.2 338.394 1089 338.557C1084.76 338.773 1080.9 342.484 1077 344z"/>
</svg>
