<?xml version="1.0" standalone="yes"?>
<svg xmlns="http://www.w3.org/2000/svg" width="1418" height="1450">
<path style="fill:#010101; stroke:none;" d="M0 0L0 1450L1418 1450L1418 0L0 0z"/>
<path style="fill:#ffffff; stroke:none;" d="M558 475C559.205 480.062 558.143 485.021 563 488C562.326 493.2 569.742 511.763 574.148 514.771C577.83 517.284 583.497 514.826 586.323 518.252C589.129 521.654 587.963 532.501 588 537C598.059 533.125 607.246 531.751 618 532.015C622.335 532.121 628.586 534.626 632.725 533.227C635.75 532.205 636.681 527.873 639.214 525.994C648.615 519.019 661.224 505.28 666 494C656.756 491.471 644.483 481.161 643.148 471C642.497 466.044 645.517 461.782 645.284 457C644.835 447.805 644.025 442.569 646 433C626.66 433.162 628.021 445.338 616.787 456.7C609.708 463.859 601.145 467.366 593 472.525C589.126 474.978 585.659 480.054 581 480.934C572.921 482.459 565.078 477.678 558 475z"/>
</svg>
