<?xml version="1.0" standalone="yes"?>
<svg xmlns="http://www.w3.org/2000/svg" width="1418" height="1450">
<path style="fill:#010101; stroke:none;" d="M0 0L0 1450L1418 1450L1418 0L0 0z"/>
<path style="fill:#ffffff; stroke:none;" d="M571 961C571.006 969.758 579.118 978.976 576.502 987C572.263 999.996 559.174 996.338 551.434 1003.56C544.92 1009.65 552.505 1016.62 558 1019L558 1020C548.764 1023.98 541.781 1028.99 537.247 1038C535.845 1040.78 534.012 1046.17 529.957 1045.25C513.427 1041.51 528.789 1020.81 516 1015C512.892 1020.55 513.915 1027.82 510.4 1032.91C506.797 1038.13 499.693 1040.96 497.118 1047C492.787 1057.15 502.25 1063.46 488 1069C486.276 1063.21 475.905 1053.85 471.604 1063.28C470.038 1066.71 471.804 1071.41 471.961 1075C472.343 1083.73 474.053 1105.16 488.998 1097.45C491.592 1096.11 493.819 1093.9 496 1092C496.006 1099.52 497.414 1102.81 505 1105C509.32 1095.95 514.355 1097.93 523 1098L523 1083L546.143 1088.51L554 1106L555 1106C560.983 1099.5 565.793 1093.96 567 1085C575.211 1084.93 600.601 1079.55 602 1071C611.31 1070.23 610.169 1065.19 615.638 1059.42C618.427 1056.47 623.31 1055.42 627 1054L629 1061C641.208 1057.14 656.349 1053.53 667.895 1047.89C672.482 1045.65 673.172 1039.41 678.043 1037.72C685.512 1035.13 689.592 1047.49 698 1043.35C708.015 1038.41 719.49 1030.75 727.722 1023.36C730.18 1021.16 730.552 1017.8 732.702 1015.43C735.036 1012.85 748.73 1005.78 752.015 1005.03C755.96 1004.13 759.958 1006.3 764 1005.38C785.704 1000.43 806.386 994.651 829 994.129C841.78 993.834 851.801 999.252 865 996C860.673 985.607 854.62 976.624 854.104 965C853.732 956.601 858.058 948.16 857.498 940C857.193 935.562 853.145 932.514 852.711 928.424C852.187 923.481 855.769 920.743 854 915L852 915C844.223 927.388 830.223 919.575 818 919.039C806.045 918.516 793.966 919.005 782 919C777.296 918.998 771.524 917.412 767 918.664C759.669 920.692 752.452 927.037 746 931C744.545 925.679 741.525 913.05 736.582 910.067C732.873 907.83 726.112 910.705 722 910.657C709.393 910.507 701.114 907.787 689.044 914.044C684.035 916.64 683.042 922.522 677.995 925.347C672.676 928.325 666.433 926.271 661 929.483C655.092 932.977 650.613 941.418 644 943.227C638.528 944.723 623.594 943.537 618 942.351C614.056 941.515 610.25 938.476 606.093 940.052C599.402 942.59 596.916 952.07 591.816 956.61C585.913 961.863 578.321 961 571 961z"/>
</svg>
