<?xml version="1.0" standalone="yes"?>
<svg xmlns="http://www.w3.org/2000/svg" width="1418" height="1450">
<path style="fill:#010101; stroke:none;" d="M0 0L0 1450L1418 1450L1418 0L0 0z"/>
<path style="fill:#ffffff; stroke:none;" d="M690 649L677.826 665.985L656.213 685.286L640 702C644.833 711.716 657.561 722.814 643.61 732.226C639.323 735.119 632.379 730.944 629.015 728.316C621.075 722.116 611.424 709.643 599.109 713.037C593.213 714.662 591.975 728.926 591.084 734C589.848 741.038 591.983 749.714 590.471 756C586.195 773.785 569.768 774.965 556 771C553.576 775.371 549.387 779.993 548.508 785C547.58 790.28 550.406 795.678 549.175 801C547.629 807.684 542.618 818.329 552.019 822.199C556.834 824.181 561.281 817.576 565 815.352C574.301 809.789 587.352 802.927 598 800.724C613.57 797.502 629.145 805.649 644 807.79C653.768 809.198 660.21 803.493 669 803.247C675.061 803.077 682.425 807.838 688 810L690 805C680.563 801.041 680.604 795.278 676.442 787C674.598 783.332 671.154 780.767 669.514 777C664.936 766.489 668.849 755.391 671 745C674.723 748.938 677.494 760.522 683.019 761.203C691.312 762.225 696.268 751.095 700.669 746.108C709.501 736.101 731.342 735.001 733.848 717.985C735.719 705.281 727.16 706.137 722.317 697.787C712.904 681.558 706.316 660.493 690 649z"/>
</svg>
