<?xml version="1.0" standalone="yes"?>
<svg xmlns="http://www.w3.org/2000/svg" width="1418" height="1450">
<path style="fill:#010101; stroke:none;" d="M0 0L0 1450L1418 1450L1418 0L0 0z"/>
<path style="fill:#ffffff; stroke:none;" d="M847 408L859 406C858.475 412.649 854.769 425.614 857.604 431.698C860.073 436.993 871.563 441.859 877 443L888.379 421.514L908 414.073L925.487 401.787L929.728 393.643L945.86 387.787L945.143 374L945 347C939.244 341.727 938.223 336.505 929 338C926.485 329.73 916.881 328.178 909.094 330.318C903.976 331.724 905.405 336.215 903.807 340C901.958 344.381 894.882 351.447 890 352.211C886.746 352.721 884.082 350.042 881 349.508C877.33 348.872 873.688 350.718 870 350.065C861.481 348.556 858.308 343.075 849 346C846.484 337.181 837.538 305.926 825.619 324.043C824.433 325.845 823.098 327.909 822.497 330C820.66 336.393 829.333 340.938 826.396 347.787C823.998 353.378 814.714 354.18 810.43 357.966C805.643 362.196 807.337 370.497 808.301 375.996C810.412 388.039 819.912 379.899 827 383.677C835.985 388.468 842.744 399.043 847 408z"/>
</svg>
