<?xml version="1.0" standalone="yes"?>
<svg xmlns="http://www.w3.org/2000/svg" width="1418" height="1450">
<path style="fill:#010101; stroke:none;" d="M0 0L0 1450L1418 1450L1418 0L0 0z"/>
<path style="fill:#ffffff; stroke:none;" d="M1050 536L1060 529L1061 529C1070.59 540.77 1056.54 556.789 1059.38 571C1060.92 578.719 1066.27 582.753 1070.27 589C1074.46 595.535 1078.84 608.45 1080.94 616C1084.75 629.657 1079 645.29 1083.33 659C1085.78 666.76 1095.06 672.718 1095.49 681C1096.13 693.292 1100.94 703.02 1103.48 715C1105.26 723.368 1102.41 729.677 1112 733.648C1129.79 741.012 1137.13 720.77 1153 717C1149.48 706.614 1137.33 700.622 1134.43 690C1132.82 684.126 1131.67 674.807 1133.84 669C1136.37 662.24 1141.89 655.51 1142.33 648.015C1142.8 640.238 1129.21 636.286 1129.14 627C1129.04 612.036 1134.32 600.857 1138.07 587C1141.41 574.663 1143.64 561.832 1148.9 550C1152.09 542.844 1158.1 536.512 1160.35 529C1162.35 522.312 1158.67 515.672 1161.35 509C1164.01 502.38 1167.56 494.433 1172.21 489.004C1175.31 485.389 1180.98 482.489 1182.8 477.985C1184.66 473.356 1180.89 460.151 1176.77 457.371C1171.41 453.753 1159.15 457.044 1153 458.081C1143.47 459.687 1140.86 465.195 1133 469.586C1119.3 477.241 1104.68 484 1089 484C1089.47 478.067 1090.9 471.952 1090.82 466C1090.77 462.253 1088.54 458.752 1089.57 455C1091.55 447.805 1101.89 439.689 1100.88 432C1098.88 416.82 1076.45 414.474 1069 425C1063.95 420.898 1057.84 416.953 1054.84 410.999C1051.56 404.493 1052 391.593 1042.87 389.333C1038.91 388.353 1035.1 390.949 1032 393.029C1029.15 394.942 1024.05 396.933 1022.03 399.698C1019.51 403.137 1022.72 417.531 1023.3 422C1024.5 431.137 1029.89 438.375 1031.85 447C1032.94 451.816 1029.65 456.109 1031.39 461C1034.9 470.835 1042.56 479.731 1044.85 490C1046.09 495.568 1041.63 501.155 1042.06 507C1042.5 512.806 1047.82 514.962 1049.61 520C1051.23 524.558 1048.61 530.688 1050 536z"/>
</svg>
