<?xml version="1.0" standalone="yes"?>
<svg xmlns="http://www.w3.org/2000/svg" width="1418" height="1450">
<path style="fill:#010101; stroke:none;" d="M0 0L0 1450L1418 1450L1418 0L0 0z"/>
<path style="fill:#ffffff; stroke:none;" d="M834 317C831.857 306.617 826.079 299.477 815 299C814.269 282.268 791.404 276.905 778.174 283.652C773.653 285.957 772.168 291.533 767.826 293.972C763.704 296.288 755.346 293.653 752.703 298.318C746.423 309.403 761.867 324.255 765.455 334C769.88 346.018 771.159 358.468 773.247 371C773.948 375.21 773.774 383.04 776.858 386.258C781.673 391.284 790.792 387.624 796 385.681C799.182 384.493 803.091 383.349 805.667 381.034C810.164 376.994 805.26 367.476 807.268 362.015C810.244 353.922 820.824 355.118 824.972 348.61C828.917 342.421 822.146 337.913 821.492 332.424C820.73 326.026 828.993 319.209 834 317z"/>
</svg>
