<?xml version="1.0" standalone="yes"?>
<svg xmlns="http://www.w3.org/2000/svg" width="1418" height="1450">
<path style="fill:#010101; stroke:none;" d="M0 0L0 1450L1418 1450L1418 0L0 0z"/>
<path style="fill:#ffffff; stroke:none;" d="M1187 376L1189 381L1177 388L1177 381L1159 383.374L1138.33 383.603L1130.67 392.397L1118 394.811L1104.91 387.318L1087 386.621L1069 380L1068 384L1060 377C1051.95 396.756 1050.22 409.571 1068 424L1069 424C1077.71 415.324 1100.52 415.422 1101.62 432.576C1102.1 439.959 1091.93 447.884 1090.07 455C1089.07 458.842 1091.53 462.203 1091.65 466C1091.81 471.617 1090.44 477.407 1090 483C1105.59 483 1120.41 476.325 1133.99 468.586C1140.95 464.615 1143.48 458.977 1152 457.424C1158.91 456.163 1171.95 452.706 1177.77 457.642C1182.79 461.9 1182.78 471.127 1185 477C1191.46 474.814 1198.25 471.008 1205 469.97C1215.89 468.295 1223.07 475.056 1226 460C1215.13 455.646 1212.48 443.265 1207.2 434.039C1205.18 430.506 1202 428.063 1200.98 423.996C1199.5 418.12 1200.33 411.828 1198.44 406.019C1196.89 401.256 1191.34 401.216 1189.67 396.891C1187.31 390.771 1205.99 380.393 1192.01 376.06C1190.21 375.504 1188.81 375.755 1187 376z"/>
</svg>
