<?xml version="1.0" standalone="yes"?>
<svg xmlns="http://www.w3.org/2000/svg" width="1418" height="1450">
<path style="fill:#010101; stroke:none;" d="M0 0L0 1450L1418 1450L1418 0L0 0z"/>
<path style="fill:#ffffff; stroke:none;" d="M981 603C978.175 612.039 986.739 617.338 986.836 625.999C986.9 631.626 981.093 635.208 980.29 641C978.672 652.676 982.323 664.765 980.582 676C979.679 681.826 976.122 693.374 971.606 697.301C965.123 702.939 956.996 702.135 954.087 712C952.081 718.802 958.592 731.687 961.388 737.941C964.107 744.022 971.601 741.53 977 742.184C986.724 743.364 994.736 746.439 998 756C991.776 758.605 982.107 763.258 987.028 771.7C989.184 775.398 993.605 777.385 996.034 781.015C999.215 785.768 1000.59 793.411 1006.1 796.117C1011.37 798.7 1015.73 793.786 1021 793.803C1036.62 793.854 1053.41 795.435 1069 792.805C1078.23 791.249 1090.9 784.632 1091.41 774C1091.65 768.933 1087.07 765.208 1090.1 760.104C1094.9 752.04 1114.43 741.699 1123 738C1117.43 734.66 1109.19 735.321 1104.86 729.61C1101.26 724.872 1103.37 716.6 1101.65 711C1099.42 703.741 1095.93 696.47 1094.53 689C1093.77 684.937 1095.52 680.949 1093.91 677C1091.23 670.423 1085.18 665.683 1082.66 659C1080.5 653.265 1082.55 645.976 1078.68 641.039C1073.09 633.907 1056.56 616.116 1047 616.116C1040.22 616.116 1035.24 625.447 1028.21 623.226C1022.63 621.461 1023.76 612.294 1018.78 609.43C1006.14 602.169 994.356 606.809 981 603z"/>
</svg>
