<?xml version="1.0" standalone="yes"?>
<svg xmlns="http://www.w3.org/2000/svg" width="1418" height="1450">
<path style="fill:#010101; stroke:none;" d="M0 0L0 1450L1418 1450L1418 0L0 0z"/>
<path style="fill:#ffffff; stroke:none;" d="M756 319C752.725 323.418 748.878 330.361 743.911 332.968C740.153 334.941 735.953 332.574 732 333.293C717.421 335.947 714.486 346.814 717 359C711.139 359.252 703.314 359.292 698 361.949C694.213 363.843 691.279 368.159 687 368.937C678.565 370.469 665.127 365.104 657.603 371.938C653.986 375.223 657.079 382.828 656.942 387C656.769 392.271 652.547 396.842 652.798 402C653.076 407.723 659.881 414.378 663 419C644.008 424.194 644.747 441.411 645.845 457C646.834 471.049 642.824 477.286 655.439 488.582C661.829 494.303 676.834 492.381 681.006 499.903C683.194 503.848 676.56 511.012 675.728 515C674.404 521.339 679.764 526.261 683 531C688.125 528.503 690.753 523.045 696 520.652C710.624 513.983 733.389 514.218 735 494C744.028 493.814 750.463 491.145 753.74 482C755.646 476.682 755.081 470.325 760.188 466.603C763.429 464.242 767.334 465.771 770.83 464.4C773.867 463.21 775.859 460.397 779.004 459.268C782.702 457.94 786.351 459.387 790 458.447C796.126 456.868 802.961 449.654 807 445L808 445L819 448C819.001 436.309 819.242 422.737 824.403 412C826.806 407 837.389 399.156 837.029 394.004C836.417 385.238 824.169 383.657 818 384.191C813.952 384.542 810.85 381.591 807 381.915C800.588 382.454 794.422 387.8 788 389.125C783.763 389.999 779.211 388.535 775 388C773.294 366.41 770.735 335.898 756 319z"/>
</svg>
