<?xml version="1.0" standalone="yes"?>
<svg xmlns="http://www.w3.org/2000/svg" width="1418" height="1450">
<path style="fill:#010101; stroke:none;" d="M0 0L0 1450L1418 1450L1418 0L0 0z"/>
<path style="fill:#ffffff; stroke:none;" d="M671 747C669.51 757.127 666.102 767.868 670.514 778C672.154 781.767 675.598 784.332 677.442 788C681.648 796.363 681.575 801.072 691 805C686.237 818.993 703.637 826.822 711.961 834.213C718.505 840.024 722.686 848.039 726 856L750.787 848.03L762.309 830L779 808C771.724 798.983 763.145 795.406 766.418 782C769.397 769.8 782.174 762.297 786.592 751C788.065 747.231 785.535 743.006 785.963 739C786.498 733.983 788.944 728.5 785.667 724.001C782.615 719.81 776.297 713.684 771 712.687C762.341 711.057 739.063 717.849 732.015 722.942C726.613 726.845 724.07 733.381 718.826 737.298C714.01 740.896 707.142 740.898 702.465 744.702C696.289 749.725 693.273 760.985 684.004 761.768C675.952 762.448 676.985 750.139 671 747z"/>
</svg>
