<?xml version="1.0" standalone="yes"?>
<svg xmlns="http://www.w3.org/2000/svg" width="1418" height="1450">
<path style="fill:#010101; stroke:none;" d="M0 0L0 1450L1418 1450L1418 0L0 0z"/>
<path style="fill:#ffffff; stroke:none;" d="M825 262C816.61 259.666 794.266 266.197 799.082 278.999C802.94 289.257 814.436 285.969 816 298L826 299C828.334 309.932 841.402 299.533 847 296L852 305C858.062 301.174 860.1 293.417 866.043 290.175C868.542 288.812 874.364 288.985 874.364 284.999C874.364 281.08 866.857 279.325 864.529 276.786C861.916 273.938 860.562 270.152 857.957 267.303C855.276 264.372 851.242 264.37 848.039 262.277C839.156 256.473 827.139 245.449 825 262z"/>
</svg>
