<?xml version="1.0" standalone="yes"?>
<svg xmlns="http://www.w3.org/2000/svg" width="1418" height="1450">
<path style="fill:#010101; stroke:none;" d="M0 0L0 1450L1418 1450L1418 0L0 0z"/>
<path style="fill:#ffffff; stroke:none;" d="M866 997L856 999C859.284 1010.4 865.922 1025.8 879 1027.79C886.506 1028.93 893.814 1025.25 901 1028.84C907.862 1032.27 911.647 1039.39 918 1043.4C921.394 1045.54 925.439 1044.15 928.826 1046.03C945.704 1055.36 960.545 1063.35 981 1061.05C991.032 1059.92 999.823 1055.38 1010 1055.01C1013.16 1054.9 1020.06 1055.32 1022.17 1052.4C1023.76 1050.21 1021.53 1047.44 1019.67 1046.32C1012.98 1042.27 1008.5 1044 1005.6 1035C1001.41 1022.02 1017.97 1014.6 1014.08 1000C1010.89 988.061 1003.13 979.793 998.049 969C993.276 958.853 995.735 947.901 986.535 939.418C981.611 934.877 973.735 933.938 968 930.546C963.828 928.079 959.014 923.115 954 922.748C942.093 921.874 937.712 938.675 926 936.316C916.343 934.372 913.272 922.682 904.985 918.8C896.155 914.663 885.803 919.604 877 916.146C871.394 913.943 865.922 905.655 859.213 907.336C852.335 909.06 856.292 916.654 855.745 921C855.331 924.282 852.49 926.522 853.726 930C854.986 933.546 857.821 936.038 858.171 940C858.948 948.811 854.302 957.884 855.17 967C856.24 978.251 861.763 986.822 866 997z"/>
</svg>
