<?xml version="1.0" standalone="yes"?>
<svg xmlns="http://www.w3.org/2000/svg" width="1418" height="1450">
<path style="fill:#010101; stroke:none;" d="M0 0L0 1450L1418 1450L1418 0L0 0z"/>
<path style="fill:#ffffff; stroke:none;" d="M470 1079C463.208 1082.96 458.755 1084.58 451 1083C449.182 1090.91 457.833 1103.14 453.127 1109.61C447.825 1116.9 430.096 1122.95 422 1127.1C417.905 1129.2 412.875 1129.55 410.573 1134.05C405.136 1144.7 415.245 1157.19 419.623 1166C421.187 1169.15 421.505 1174.86 424.513 1176.97C427.235 1178.88 431.978 1177.52 434.981 1177.03C444.322 1175.52 439.701 1162.47 447.225 1159.65C454.425 1156.95 460.08 1168.49 467 1166.58C474.62 1164.48 472.228 1156.27 477.102 1152.47C483.763 1147.27 494.952 1147.52 503 1146L504.512 1114.13L497.728 1107.61L495 1094C492.404 1095.49 489.854 1097.79 487 1098.73C473.764 1103.06 473.163 1086.52 470 1079z"/>
</svg>
