<?xml version="1.0" standalone="yes"?>
<svg xmlns="http://www.w3.org/2000/svg" width="1418" height="1450">
<path style="fill:#010101; stroke:none;" d="M0 0L0 1450L1418 1450L1418 0L0 0z"/>
<path style="fill:#ffffff; stroke:none;" d="M524 1084L524 1099C514.874 1098.92 509.271 1096.14 505 1106L497 1103L505.397 1114.11L502.414 1132L504 1147C498.511 1147.43 468.86 1149.66 476.672 1159.85C479.703 1163.81 484.781 1162.56 489 1163.95C506.507 1169.76 523.492 1168.06 540.941 1160.74C548.27 1157.67 538.804 1143.72 540.702 1137C542.478 1130.71 544.578 1122.89 547.403 1117C548.884 1113.91 552.624 1110.55 552.684 1107C552.738 1103.84 549.659 1100.87 548.563 1098C547.381 1094.9 547.528 1090.25 544.567 1088.18C539.693 1084.76 529.807 1085.09 524 1084z"/>
</svg>
