<?xml version="1.0" standalone="yes"?>
<svg xmlns="http://www.w3.org/2000/svg" width="1418" height="1450">
<path style="fill:#010101; stroke:none;" d="M0 0L0 1450L1418 1450L1418 0L0 0z"/>
<path style="fill:#ffffff; stroke:none;" d="M602 1078C592.216 1078.77 576.55 1080.58 568.728 1087.01C566.057 1089.21 565.208 1094.19 562.956 1097C553.338 1109.01 542.147 1122.74 541.147 1139C540.562 1148.51 545.077 1159.67 547 1169L542 1174C554.65 1174 567.071 1178.18 569 1163C572.461 1163.08 576.83 1163.14 578.973 1166.39C581.588 1170.37 580.089 1176.17 586.09 1177.68C593.171 1179.45 596.263 1171.65 602 1169.61C606.194 1168.11 611.608 1170.07 616 1169.98C622.686 1169.85 629.589 1167.8 636 1166L627.031 1146.39L616.693 1137.9L618.313 1111.19L624.697 1104.62L628 1094C613.673 1097.96 610.511 1082.89 610 1071C604.983 1071.46 602.595 1072.82 602 1078z"/>
</svg>
