<?xml version="1.0" standalone="yes"?>
<svg xmlns="http://www.w3.org/2000/svg" width="1418" height="1450">
<path style="fill:#010101; stroke:none;" d="M0 0L0 1450L1418 1450L1418 0L0 0z"/>
<path style="fill:#ffffff; stroke:none;" d="M475 714C468.243 712.121 465.109 715.947 459 715.62C455.694 715.444 449.454 712.53 447.662 717.289C446.292 720.927 454.919 732.003 456.575 736C459.372 742.749 457.724 749.259 459.637 756C460.898 760.442 464.528 764.354 464.988 769C465.616 775.352 463.947 780.794 467.442 786.907C472.165 795.166 486.645 800.393 484 812L475 811L479.275 834L488.482 848L485.916 861L491 871C494.484 869.015 497.978 865.505 502 864.799C508.035 863.738 514.35 868.078 519.697 863.347C523.67 859.831 523.372 853.261 526.415 849C533.528 839.042 543.361 830.929 554 825L554 824C541.655 816.251 548.091 810.313 548.725 799C549.001 794.074 546.533 788.841 548.164 784C549.578 779.803 555.729 774.654 554.553 770C553.033 763.982 545.589 759.315 543.229 753C538.446 740.2 539.163 724.123 531.973 712.514C528.609 707.082 521.968 696.921 517.363 692.564C513.421 688.835 509.783 689.417 507 684C495.22 690.483 478.148 699.609 475 714z"/>
</svg>
