<?xml version="1.0" standalone="yes"?>
<svg xmlns="http://www.w3.org/2000/svg" width="1418" height="1450">
<path style="fill:#010101; stroke:none;" d="M0 0L0 1450L1418 1450L1418 0L0 0z"/>
<path style="fill:#ffffff; stroke:none;" d="M801 651C800.392 665.168 790.776 673.791 785 686C792.849 689.126 804.221 684.48 808.566 676.674C810.708 672.828 809.588 667.996 811.434 664C814.207 657.996 818.116 654.896 819.246 648C820.059 643.042 820.022 637.889 821.239 633C822.57 627.654 826.527 623.452 827.985 618C829.67 611.695 831.673 595.089 825.656 590.643C821.89 587.86 816.321 591.128 812 589.378C808.598 588 805.74 585.103 802 584.592C795.193 583.661 777.347 591.89 776.149 599.104C774.7 607.828 781.962 614.104 783.86 622C786.731 633.936 783.627 652.358 801 651z"/>
</svg>
