<?xml version="1.0" standalone="yes"?>
<svg xmlns="http://www.w3.org/2000/svg" width="1170" height="1450">
<path style="fill:#010101; stroke:none;" d="M0 0L0 1450L1170 1450L1170 0L0 0z"/>
<path style="fill:#ffffff; stroke:none;" d="M254 856C256.758 860.17 261.351 864.149 262.822 869C264.258 873.737 261.265 878.338 263.485 883C264.613 885.369 266.342 890.421 268.563 891.887C272.103 894.225 275.402 892.756 278.272 897.02C282.187 902.834 278.414 907.926 279.383 914C280.173 918.946 284.838 921.481 286.319 926C288.697 933.257 276.944 942.447 271 944C271.012 939.473 275.177 926.341 267.908 925.466C260.978 924.632 260.216 936.056 265 939C262.295 948.625 263.977 955.948 268 965C274.651 962.291 281.133 961.836 288 960.097C292.621 958.927 296.426 954.932 301 954.242C308.177 953.16 323.375 958.741 328 964C351.96 959.533 332.6 920.313 358 915C357.305 905.667 361.517 897.069 371 895L362.228 890.397L356.698 884.603L337 883L335 849L334 849L333 855C323.053 855.42 313.094 850.691 308 862C301.002 859.056 300.486 855.624 298 849L297 849L297 856C291.523 856.707 286.427 858.537 282.854 852.977C280.627 849.51 281.278 840.386 275.941 840.083C267.644 839.611 261.368 852.909 254 856z"/>
</svg>
