<?xml version="1.0" standalone="yes"?>
<svg xmlns="http://www.w3.org/2000/svg" width="1170" height="1450">
<path style="fill:#010101; stroke:none;" d="M0 0L0 1450L1170 1450L1170 0L0 0z"/>
<path style="fill:#ffffff; stroke:none;" d="M198 970C191.172 980.54 194.725 995.874 192.116 1008C191.117 1012.64 188.288 1020.37 189.934 1024.95C192.019 1030.74 199.003 1032.28 201 1039L189.892 1046.15L173 1051C185.152 1068.25 203.86 1077.9 216.905 1094C225.264 1104.32 226.069 1114.78 231.681 1126C238.542 1139.72 252.244 1148.13 267 1150C266.893 1137.11 263.779 1124.61 262.698 1112C262.321 1107.6 260.096 1104.54 261.563 1100C266.148 1085.81 278.563 1091.07 286.382 1082.2C292.143 1075.66 290.754 1066.48 293 1059L300 1060C297.351 1053.7 292.823 1053.89 287 1056L278.406 1035L279 1013C269.517 1014.79 263.687 1004.23 258 998C244.767 983.497 230.05 956.695 211 950.101C203.798 947.608 196.236 948.247 189 945.951C186.679 945.214 182.875 944.234 180.758 946.028C177.59 948.711 181.249 953.175 182.989 955.424C188.279 962.264 188.775 967.342 198 970z"/>
</svg>
