<?xml version="1.0" standalone="yes"?>
<svg xmlns="http://www.w3.org/2000/svg" width="1170" height="1450">
<path style="fill:#010101; stroke:none;" d="M0 0L0 1450L1170 1450L1170 0L0 0z"/>
<path style="fill:#ffffff; stroke:none;" d="M130 949C133.308 951.659 140.949 962.231 131.892 963.392C127.484 963.957 122.937 960.498 119 959C119.076 968.109 119.865 980.41 126.649 987.363C135.707 996.647 149.605 1001.37 155.124 1014C159.081 1023.05 160.788 1045.29 171.015 1049.35C181.613 1053.56 191.659 1040.23 200 1038L188.988 1023.98L191.866 1005L196 970C192.607 968.577 189.165 967.109 187.086 963.895C185.422 961.324 185.086 956.979 181.775 955.847C175.612 953.74 170.445 962.839 164.094 959.099C157.691 955.328 160.461 948.511 156.973 943.573C151.726 936.143 132.535 942.105 130 949z"/>
</svg>
