<?xml version="1.0" standalone="yes"?>
<svg xmlns="http://www.w3.org/2000/svg" width="1170" height="1450">
<path style="fill:#010101; stroke:none;" d="M0 0L0 1450L1170 1450L1170 0L0 0z"/>
<path style="fill:#ffffff; stroke:none;" d="M829 1128L817 1113C814.047 1113.37 806.011 1112.92 804.283 1115.6C801.79 1119.47 806.508 1130.04 805.867 1135C804.868 1142.71 798.401 1141.58 795.067 1146.56C791.959 1151.21 797.319 1158.57 800 1162L792 1163L792 1164C808.237 1161.32 816.912 1176.31 827.04 1185.9C834.759 1193.2 846.582 1194.12 854.996 1200.68C865.146 1208.59 868.773 1220.98 881 1226C875.442 1217.17 874.609 1208.46 864 1204L864 1203C871.563 1203.6 875.538 1203.87 876 1195C885.934 1200.8 897.141 1204.75 900.78 1191C901.527 1188.18 902.546 1185.83 901.193 1183C894.863 1169.76 883.732 1168.18 874.419 1159.36C870.201 1155.37 868.227 1146.36 866 1141L875 1140C869.987 1131.13 853.955 1117.57 845 1112.65C841.927 1110.96 835.768 1109.77 832.652 1112.03C828.337 1115.15 829.003 1123.36 829 1128M889 1231L892 1234L889 1231z"/>
</svg>
