<?xml version="1.0" standalone="yes"?>
<svg xmlns="http://www.w3.org/2000/svg" width="1170" height="1450">
<path style="fill:#010101; stroke:none;" d="M0 0L0 1450L1170 1450L1170 0L0 0z"/>
<path style="fill:#ffffff; stroke:none;" d="M768 268C759.361 264.272 757.08 262.227 748 266C748.769 271.957 751.987 288.366 740.209 286.968C734.44 286.283 721.093 269.119 719.174 286.004C718.174 294.812 727.108 299.831 733.17 305.139C741.331 312.285 739.065 317.54 743.558 325.911C745.247 329.058 750.34 331.667 750.431 335.425C750.553 340.509 745.488 344.405 746.163 350C746.707 354.513 750.992 357.458 751.301 362C751.962 371.724 740.392 377.267 733 373C729.411 381.537 718.791 386.764 719.102 396.985C719.398 406.735 733.317 412.791 734.513 423C735.305 429.756 730.076 436.052 730.38 443C730.626 448.606 733.862 454.447 734.996 460C736.263 466.205 735.619 474.027 737.878 479.83C739.426 483.805 742.496 486.774 743.699 491C745.984 499.024 743.387 507.799 745.419 516C746.905 521.997 752.081 525.106 755.066 530.089C757.08 533.453 756.904 537.596 759.147 540.895C762.898 546.411 778.609 555.901 785 557.57C797.311 560.786 797.419 549.157 807 545.992C815.488 543.188 821.86 546.366 830 545.552C833.947 545.157 836.949 541.783 841 541.757C844.985 541.732 847.824 544.945 852 544.002C858.982 542.425 859.79 535.193 865.21 532.028C868.854 529.9 874.135 531.282 878 532L885.851 517.985L878.904 500.985L876.934 484L865.655 461L874.323 432L877 413C868.22 410.533 843.327 407.13 839 418C830.34 414.357 831.619 409.039 827.005 402.089C820.493 392.279 810.031 388.834 811 376C823.1 380.652 823.373 374.019 830.214 366.004C836.399 358.757 841.148 356.531 839.514 346C838.431 339.02 831.047 334.955 831.679 327C832 322.96 833.219 313.202 836.243 310.513C839.124 307.951 843.209 308.171 845.482 304.772C849.917 298.141 847.112 294.77 848.052 288C848.447 285.148 850.592 282.961 850.668 280C850.832 273.655 847.565 266.474 846.954 260C846.716 257.485 847.862 254.539 846.293 252.303C841.661 245.7 833.296 246.97 830.398 237C828.803 231.513 833.763 227.181 834.52 222C835.311 216.587 831.914 211.42 832.559 206C833.186 200.727 836.518 189.332 839.653 185.09C843.438 179.967 848.255 177.314 850.633 171C852.727 165.442 848.39 160.44 849.912 155.004C852.026 147.454 858.944 145.054 857 136C849.928 137.992 838.049 137.409 832.174 141.603C820.715 149.781 818.496 168.87 808.61 178.606C803.328 183.807 794.931 181.475 789.418 185.995C785.874 188.9 785.43 194.302 782.597 197.83C778.776 202.589 775.292 208.678 770.896 212.856C768.48 215.152 764.349 216.085 762.893 219.228C759.105 227.408 765.3 237.121 766.671 245C768.046 252.903 765.76 260.03 768 268z"/>
</svg>
