<?xml version="1.0" standalone="yes"?>
<svg xmlns="http://www.w3.org/2000/svg" width="1170" height="1450">
<path style="fill:#010101; stroke:none;" d="M0 0L0 1450L1170 1450L1170 0L0 0z"/>
<path style="fill:#ffffff; stroke:none;" d="M583 1078C583.173 1085.36 587.825 1089.33 589.57 1096C593.629 1111.52 588.515 1132.45 606 1140L610 1135C610.15 1139.63 613.683 1147.34 619.363 1142.4C626.983 1135.77 628.74 1123.04 635.43 1116.64C642.407 1109.97 657.777 1115.91 662 1123L671 1122C673.027 1118.52 679.134 1114.19 679.133 1110.09C679.131 1106.94 675.019 1104.76 672.996 1102.9C667.889 1098.19 661.037 1084.22 653.995 1083.52C645.281 1082.65 632.791 1091.92 627 1082L608 1086.07L583 1078z"/>
</svg>
