<?xml version="1.0" standalone="yes"?>
<svg xmlns="http://www.w3.org/2000/svg" width="1170" height="1450">
<path style="fill:#010101; stroke:none;" d="M0 0L0 1450L1170 1450L1170 0L0 0z"/>
<path style="fill:#ffffff; stroke:none;" d="M262 954L260 966C256.292 964.793 245.759 959.292 243.773 965.229C242.155 970.067 246.084 973.746 242 978C246.965 989.14 260.566 1003.09 270.001 1010.84C272.918 1013.23 277.901 1012.33 280.012 1015.25C284.327 1021.24 278.692 1027.75 279.12 1034C279.625 1041.36 285.636 1048.06 288 1055C294.756 1052.68 298.591 1054.19 301 1061L293 1060C292.534 1067.36 292.22 1077.82 285.837 1083.2C278.341 1089.51 267.86 1086.66 263.338 1097C260.719 1103 262.748 1106.08 263.441 1112C264.907 1124.53 267.735 1137.18 268 1150C275.603 1149.75 277.005 1142.23 284 1140.01C292.121 1137.43 298.794 1145.88 306.906 1142.15C316.331 1137.8 309.911 1126.93 313.471 1120.06C317.062 1113.13 324.739 1117.78 329.61 1113.42C335.867 1107.82 334.073 1098.64 338.147 1092C343.039 1084.03 359.22 1083.52 359.941 1074.99C360.612 1067.04 357.572 1057.49 352.895 1051.1C350.052 1047.22 345.333 1045.05 344.178 1040C342.611 1033.14 337.623 1023.2 338.465 1016C338.996 1011.45 344.158 1009 343.793 1004.11C343.486 999.998 338.162 997.392 337.044 992.999C334.577 983.306 336.774 973.687 337 964L327 965C324.871 959.574 319.055 959.523 314 957.975C309.938 956.731 304.3 953.9 300 954.912C295.37 956.002 291.78 959.887 287 961.097C280.42 962.763 274.067 962.601 268 966L264 954L262 954z"/>
</svg>
