<?xml version="1.0" standalone="yes"?>
<svg xmlns="http://www.w3.org/2000/svg" width="1170" height="1450">
<path style="fill:#010101; stroke:none;" d="M0 0L0 1450L1170 1450L1170 0L0 0z"/>
<path style="fill:#ffffff; stroke:none;" d="M697 559L695 567C698.703 567.882 703.573 567.203 706.906 569.028C715.251 573.598 712.902 584.964 716.88 592C719.982 597.488 726.01 601.688 727 608L751 606C752.392 616.775 765.226 630.291 751 635L769 661C782.137 656.797 789.196 640.477 804 642L799 630L811 630L810.382 611.001L822 591C826.033 592.828 827.851 594.7 829 599C834.66 597.121 832.647 590.897 833.174 586C833.827 579.926 837.588 576.412 839.348 570.961C840.41 567.67 839.826 564.182 841.457 561.015C843.396 557.249 848.72 555.243 849.458 550.958C850.131 547.044 846.603 543.428 842.996 542.604C838.1 541.486 834.518 545.517 830 546.201C821.016 547.563 813.306 543.09 804.044 547.769C796.817 551.419 798.324 559.756 788 558.877C776.851 557.927 765.484 544.609 756.486 539.027C747.763 533.615 730.802 532.27 721.005 534.603C713.152 536.474 718.159 542.997 715.667 547.985C712.914 553.494 702.835 558.075 697 559z"/>
</svg>
