<?xml version="1.0" standalone="yes"?>
<svg xmlns="http://www.w3.org/2000/svg" width="1170" height="1450">
<path style="fill:#010101; stroke:none;" d="M0 0L0 1450L1170 1450L1170 0L0 0z"/>
<path style="fill:#ffffff; stroke:none;" d="M516 1160L515 1167C503.47 1167.28 503.483 1186.8 495 1194C494.124 1182.92 490.175 1176.23 479 1173L474 1181L461 1177C459.04 1187.99 454.453 1197.47 458.842 1209C463.544 1221.36 474.998 1222.99 475 1238C469.426 1238.17 459.741 1241.79 455.657 1245.73C452.079 1249.18 454.818 1253.19 459.005 1253.85C464.559 1254.73 479.714 1255.49 484.675 1253.39C489.955 1251.16 492.033 1243.18 499 1244.55C509.72 1246.66 508.99 1256.81 517 1261L527.44 1252.57L536.015 1240.44L560.683 1222.39L573 1196C570.283 1189.47 566.369 1181.69 559 1179.57C553.779 1178.07 547.987 1180.22 543 1177.68C533.373 1172.79 526.471 1163.83 516 1160z"/>
</svg>
