<?xml version="1.0" standalone="yes"?>
<svg xmlns="http://www.w3.org/2000/svg" width="1170" height="1450">
<path style="fill:#010101; stroke:none;" d="M0 0L0 1450L1170 1450L1170 0L0 0z"/>
<path style="fill:#ffffff; stroke:none;" d="M709 727L705 743C703.366 742.336 701.684 741.462 699.979 740.995C688.384 737.823 698.329 756.657 692.721 761.388C686.796 766.387 676.987 759.242 670.059 764.032C665.637 767.09 666.498 771.447 665.049 776C661.438 787.349 654.748 800.38 653 812L661.957 810.357L669.209 815.649L688.697 827.213L691.042 842.351L702.674 849.39L713.39 863.663L732 856L738 846L744 856L746 856C750.886 846.917 762.064 845.979 772 848C777.286 841.365 783.042 839.064 791 837L791 811L778 809C773.311 813.788 765.09 812.131 759 811C763.189 804.693 766.756 799.423 775 802C780.434 792.314 795.921 801.747 799 792C810.392 794.307 815.9 793.442 820.181 782C821.045 779.689 824.886 774.211 822.342 772.042C818.327 768.62 809.268 774.262 805 774.772C794.75 775.996 787.865 760.481 789 752L773 753L773 759C767.402 759.417 764.84 757.941 761 754C754.313 761.078 750.531 756.046 743 754L743 759L728.39 757.883L720.648 743.004L712 727L709 727z"/>
</svg>
