<?xml version="1.0" standalone="yes"?>
<svg xmlns="http://www.w3.org/2000/svg" width="1170" height="1450">
<path style="fill:#010101; stroke:none;" d="M0 0L0 1450L1170 1450L1170 0L0 0z"/>
<path style="fill:#ffffff; stroke:none;" d="M453 1252C450.386 1260.84 454.207 1265.77 458.772 1273C464.325 1281.8 468.283 1292.21 480 1293.64C493.396 1295.26 508.045 1283.27 519 1277.54C523.2 1275.35 529.927 1276.05 533.181 1272.49C537.025 1268.27 535.511 1262.77 534 1258L525 1261C523.496 1254.09 519.282 1257.36 517 1262C508.953 1257.35 509.351 1245.98 498 1244.86C491.6 1244.23 489.523 1251.44 484.816 1253.96C478.309 1257.44 459.262 1255.44 453 1252z"/>
</svg>
