<?xml version="1.0" standalone="yes"?>
<svg xmlns="http://www.w3.org/2000/svg" width="1170" height="1450">
<path style="fill:#010101; stroke:none;" d="M0 0L0 1450L1170 1450L1170 0L0 0z"/>
<path style="fill:#ffffff; stroke:none;" d="M360 1066C363.671 1085.77 346.975 1078.32 339.147 1091C334.723 1098.17 336.565 1107.48 329.787 1113.64C325.526 1117.51 318.731 1114.33 315.009 1118.56C311.922 1122.07 314.046 1126.9 313.671 1131C313.259 1135.5 311.115 1139.12 309 1143C318.986 1148.56 334.384 1153.7 342.625 1161.38C354.031 1172 362.816 1191.53 379 1195.35C387.94 1197.46 395.778 1186.5 403 1183.37C414.303 1178.46 428.356 1181.44 440 1178C431.717 1169.58 424.281 1166.6 419.337 1155C415.449 1145.88 417.928 1135.41 414.397 1126C412.768 1121.67 408.339 1120 405.51 1116.68C403.239 1114.01 402.972 1109.97 400.351 1107.6C395.552 1103.27 386.116 1107.34 381 1109C380.653 1100.93 376.553 1091.91 386 1088C382.874 1077.15 371.281 1067.56 360 1066z"/>
</svg>
