<?xml version="1.0" standalone="yes"?>
<svg xmlns="http://www.w3.org/2000/svg" width="1170" height="1450">
<path style="fill:#010101; stroke:none;" d="M0 0L0 1450L1170 1450L1170 0L0 0z"/>
<path style="fill:#ffffff; stroke:none;" d="M832 819L835 815L849 824C848.837 804.328 842.446 759.058 874 765C880.086 754.584 880.999 745.981 881 734C865.319 734.045 860.636 751.31 848.066 758.037C844.38 760.009 841.664 755.166 838.044 755.306C834.82 755.43 827.078 765.141 825.612 768.043C821.341 776.499 826.58 791.27 823.121 801C821.672 805.078 816.835 809.145 819.336 813.775C821.53 817.836 827.926 818.451 832 819z"/>
</svg>
