<?xml version="1.0" standalone="yes"?>
<svg xmlns="http://www.w3.org/2000/svg" width="1170" height="1450">
<path style="fill:#010101; stroke:none;" d="M0 0L0 1450L1170 1450L1170 0L0 0z"/>
<path style="fill:#ffffff; stroke:none;" d="M639 296C625.339 304.049 615.897 312.375 600 305C587.811 327.714 548.657 310.911 541.084 336C540.207 338.906 540.433 348.79 542.067 351.363C543.698 353.929 547.216 354.489 548.821 357.213C550.575 360.189 549.351 363.746 550.603 366.83C552.981 372.686 558.174 375.012 558.921 382C559.256 385.129 560.231 389.014 558.948 392C557.311 395.808 553.169 398.466 553.282 402.996C553.467 410.474 564.428 415.398 565.699 424C567.264 434.591 563.497 444.553 563.039 455C562.533 466.548 565.611 476.801 567.535 488C569.324 498.404 561.583 510.336 569.966 519.667C574.202 524.383 577.669 517.5 582.015 517.465C589.472 517.406 593.153 525.088 602 524L603 517L609 519L612 508C624.23 509.537 627.161 504.412 632 494C638.639 497.332 646.564 496.546 653 500.225C665.321 507.266 677.115 518.877 684.012 531.039C685.924 534.413 685.542 538.552 687.31 542C690.411 548.046 694.088 552.278 696 559C701.496 557.432 711.719 554.079 714.681 548.891C717.49 543.973 713.22 538.533 719.035 534.933C729.982 528.155 744.681 536.967 756 537L744.702 516L743.38 493L736.343 476.996L729.649 442L733.365 421L718.272 395.999L733 372C739.731 377.534 749.086 372.634 750.474 364C751.402 358.225 746.29 355.188 745.357 350C744.401 344.682 749.232 340.948 749.716 336.004C749.995 333.162 742.032 321.758 739.491 320.032C735.645 317.422 732.024 321.471 731.279 325.005C729.339 334.202 729.289 339.365 718 335L709 346C705.216 339.518 703.153 335.948 696 333L692 345L686 344C685.577 326.032 655.791 320.941 644.189 311.362C638.948 307.034 641.269 301.407 639 296z"/>
</svg>
