<?xml version="1.0" standalone="yes"?>
<svg xmlns="http://www.w3.org/2000/svg" width="1170" height="1450">
<path style="fill:#010101; stroke:none;" d="M0 0L0 1450L1170 1450L1170 0L0 0z"/>
<path style="fill:#ffffff; stroke:none;" d="M688 593C688.988 597.159 690.393 602.251 693.498 605.367C695.9 607.775 700.29 609.084 700.685 613.001C701.297 619.066 682.442 629.159 678 633C675.289 625.749 651.706 624.324 648.647 632.325C646.879 636.95 652.343 637.872 654.686 640.313C657.311 643.049 662.837 656.378 661.859 659.957C657.753 674.972 638.685 662.933 634.148 674.019C627.985 689.079 646.738 688.514 650.107 700C652.238 707.268 645.224 713.913 644.289 721C642.185 736.948 655.478 754.289 670 759.995C674.664 761.827 690.758 764.449 693.681 759.655C696.915 754.352 687.237 737.163 699.956 740.412C701.301 740.756 702.72 741.489 704 742L708 726L713 726L722.073 745L728.39 756.933L742 758L742 753C749.556 755.052 755.651 761.619 761 752C764.734 757.733 771.677 761.702 772 752L790 751C788.745 758.105 792.641 772.243 801.015 773.771C806.99 774.861 815.123 771.609 820.907 770.022C828.42 767.96 830.35 758.004 836.758 755.022C840.594 753.238 843.682 759.148 847.791 757.597C857.471 753.945 864.755 740.071 873 734C866.806 724.104 851.731 710.919 841 706.337C831.96 702.478 822.817 701.118 814 696.204C804.873 691.117 795.017 673.548 787 690L779 659L768 662C765.435 651.2 755.25 646.629 751.971 637.189C750.572 633.163 757.481 633.098 757.677 628.941C757.849 625.317 755.744 622.028 754.076 619C752.389 615.937 752.01 611.212 749.836 608.603C744.934 602.722 731.749 608.252 726 609L718 594L713 596L714 606C704.134 602.521 699.782 590.44 688 593z"/>
</svg>
