<?xml version="1.0" standalone="yes"?>
<svg xmlns="http://www.w3.org/2000/svg" width="1170" height="1450">
<path style="fill:#010101; stroke:none;" d="M0 0L0 1450L1170 1450L1170 0L0 0z"/>
<path style="fill:#ffffff; stroke:none;" d="M872 1087L867.704 1099.99L880.397 1111.33L888.525 1136.42L883 1150C896.61 1151.99 893.899 1163.32 899.589 1172C902.209 1176 908.03 1179.03 909.403 1183.71C910.473 1187.37 906.121 1190.1 909.362 1193.69C913.109 1197.83 920.989 1197.02 926 1197C941.992 1196.92 961.626 1196.34 976 1189L960 1151L952 1154C949.371 1144.87 943.656 1136.76 940.012 1128C929.852 1103.59 919.578 1079.3 909.15 1055C906.318 1048.4 900.414 1024.95 891.985 1025.24C882.399 1025.58 880.03 1032.12 872.957 1036.23C867.124 1039.62 853.316 1041.29 850.752 1049.34C849.802 1052.32 855.682 1056.23 856.736 1059.01C860.871 1069.95 858.594 1085.18 872 1087z"/>
</svg>
