<?xml version="1.0" standalone="yes"?>
<svg xmlns="http://www.w3.org/2000/svg" width="1170" height="1450">
<path style="fill:#010101; stroke:none;" d="M0 0L0 1450L1170 1450L1170 0L0 0z"/>
<path style="fill:#ffffff; stroke:none;" d="M601 305C616.76 312.92 627.21 300.77 641 295L642.318 308.787L654.911 315.839L680.957 332.349L691 344L695 331C700.87 335.148 705.081 337.041 708 344L718 334C731.291 341.335 727.156 329.058 731.893 322.059C733.727 319.349 741.18 318.153 740.712 314.852C739.123 303.628 719.558 300.386 718.163 289.985C717.945 288.364 718.134 286.593 718.483 285.004C722.348 267.38 736.874 289.251 743.949 285.328C752.541 280.563 743.041 259.149 758 262.664C760.752 263.311 763.277 265.134 766 266C763.931 239.559 765.324 208.859 743.7 189.394C739.199 185.343 732.985 185.982 728 182.991C722.782 179.861 719.404 174.322 714 171.434C705.237 166.749 692.051 172.679 683.564 164.298C680.599 161.369 681.428 156.707 680.61 153C679.387 147.454 675.884 142.762 675.184 137C674.339 130.035 677.704 121.225 673.517 115.144C667.921 107.017 651.123 110.938 643.004 105.2C633.466 98.4586 633.1 89.3409 627.697 80.3002C622.445 71.5132 608.531 56.7402 598 54.743C594.439 54.0679 591.447 56.3845 588 56.7477C580.891 57.4968 575.976 52.8398 570.638 60.0193C562.189 71.3838 567.767 87.3936 569.572 100C570.757 108.278 572.285 119.785 571.675 128C571.216 134.19 568.446 140.817 569.483 147C571.33 158.016 581.082 168.097 581.525 179C581.754 184.632 579.786 190.217 580.039 196C580.305 202.065 582.634 207.937 581.151 214C579.68 220.016 573.453 221.22 571.693 226.213C569.717 231.817 573.071 249.897 574.39 256C577.177 268.887 590.13 273.674 597.297 283.184C601.665 288.981 601.807 298.164 601 305z"/>
</svg>
