<?xml version="1.0" standalone="yes"?>
<svg xmlns="http://www.w3.org/2000/svg" width="1170" height="1450">
<path style="fill:#010101; stroke:none;" d="M0 0L0 1450L1170 1450L1170 0L0 0z"/>
<path style="fill:#ffffff; stroke:none;" d="M812 377C809.844 388.831 822.216 393.882 828.005 403.015C831.664 408.787 831.103 413.891 838 417C847.466 406.39 865.843 410.363 878 412C875.197 419.228 876.79 425.18 874.944 432C872.111 442.471 864.527 451.519 866.809 463C868.527 471.638 875.406 477.752 878.301 486C880.17 491.324 877.919 496.854 879.89 501.911C882.002 507.324 886.279 510.68 886.641 516.999C887.011 523.441 879.504 526.315 879 533L864.609 533.028L850 545L850 554C857.877 552.376 869.802 551.433 876.732 556.854C881.951 560.937 879.948 569.468 888.999 570.316C897.737 571.134 902.464 556.138 911 554C911.747 548.764 914.787 544.269 915.676 539C917.372 528.944 917.071 517.531 921.133 508.015C922.676 504.402 926.606 502.512 927.89 498.896C929.726 493.727 928.409 487.58 930.436 482C933.707 472.995 939.458 466.347 943.427 458C947.569 449.292 949.204 438.971 953.399 430C956.633 423.084 962.138 418.357 965.995 412C970.996 403.755 969.208 392.792 973.542 384.039C978.026 374.987 986.579 371.083 994 365C989.526 352.725 991.648 340.486 994 328C981.284 322.053 970.108 326.069 957 322.981C951.203 321.615 947.937 315.456 941.999 315.198C935.302 314.907 929.28 319.256 923 319.127C916.514 318.994 912.559 311.721 906 311.542C899.132 311.355 895.435 319.99 889 319.373C882.572 318.758 871.869 318.913 866 316.967C856.203 313.718 849.406 304.429 838.109 309.854C833.902 311.874 834.944 315.149 834.444 319C833.706 324.694 831.635 328.094 833.599 334C835.125 338.59 839.691 342.22 840.259 347C841.582 358.122 835.268 359.006 829.652 367.004C824.309 374.612 822.655 381.007 812 377z"/>
</svg>
