<?xml version="1.0" standalone="yes"?>
<svg xmlns="http://www.w3.org/2000/svg" width="1170" height="1450">
<path style="fill:#010101; stroke:none;" d="M0 0L0 1450L1170 1450L1170 0L0 0z"/>
<path style="fill:#ffffff; stroke:none;" d="M643 1233L640 1225C633.087 1227.18 635.562 1234.59 632.683 1239.9C630.159 1244.55 625.937 1245.24 625 1251L624 1251L622 1245C614.88 1247.76 608.328 1250.09 608 1240L585 1237L573.093 1230.91L564 1221L563 1221L535.105 1241.44L525 1255L526 1260L534 1257C536.764 1264.18 535.715 1267.76 534 1275C539.302 1277.51 543.881 1281.75 550 1281.94C567.676 1282.5 574.595 1261 592 1260.15C609.073 1259.31 618.602 1275.95 637 1265.86C650.5 1258.45 654.726 1242.45 666.089 1233.43C670.533 1229.9 677.567 1229.12 683 1228C682.227 1224.62 681.927 1217.53 678.682 1215.66C673.59 1212.72 670.579 1217.73 666.961 1220.35C659.78 1225.55 650.512 1227.94 643 1233z"/>
</svg>
