<?xml version="1.0" standalone="yes"?>
<svg xmlns="http://www.w3.org/2000/svg" width="1170" height="1450">
<path style="fill:#010101; stroke:none;" d="M0 0L0 1450L1170 1450L1170 0L0 0z"/>
<path style="fill:#ffffff; stroke:none;" d="M393 874L379 875C382.478 884.351 379.098 886.66 371 891L372 896C361.259 896.886 357.845 906.167 359 916C355.463 916.289 350.379 916.612 347.988 919.652C345.531 922.776 345.962 928.291 344.772 932C340.583 945.05 335.721 964.371 336.834 978C337.476 985.86 334.941 997.92 345 1000C344.921 1006.65 338.45 1011.07 339.009 1017C340.315 1030.85 346.528 1041.25 353.895 1052.02C356.332 1055.58 357.362 1061.29 360.56 1064.15C365.982 1068.98 374.193 1071.03 379.787 1075.65C383.726 1078.9 385.477 1084.68 388 1089C377.261 1090.21 381.023 1100.27 382 1108C386.969 1106.38 395.677 1102.45 400.362 1106.6C403.5 1109.38 403.693 1114.2 406.51 1117.25C409.508 1120.51 413.771 1122.62 415.397 1127C419.305 1137.53 416.736 1148.72 421.757 1159C423.859 1163.3 437.785 1181.95 442.788 1170.85C444.87 1166.23 440.082 1158.49 438.941 1154C437.829 1149.62 438.997 1144.51 439 1140L440 1140L441 1143C447.085 1138.91 455.915 1137.99 460.343 1131.91C464.679 1125.95 458.782 1121.31 459.607 1115.11C460.258 1110.22 467.031 1109.66 467.81 1103.99C468.702 1097.49 468.516 1087.53 467.812 1081C467.322 1076.46 464.517 1071.6 466.099 1067.02C469.502 1057.15 490.499 1057.18 491.681 1046.95C492.822 1037.07 480.239 1034.09 475 1028C490.136 1025.58 476.996 1017.56 476.809 1010C476.695 1005.42 481.318 1000.39 479.759 996.005C476.975 988.17 467.419 991.841 462.015 987.516C453.971 981.078 452.787 971.422 448 963L465 965C465.437 960.824 464.177 958.669 461 956L461 955C471.285 947.234 466.69 933.959 456 929C465.511 912.705 455.464 895.868 448.543 880C444.782 871.376 448.979 866.56 438 861.954C430.014 858.605 415.618 859.194 407 860.108C403.15 860.516 398.983 864.07 395.214 861.883C390.11 858.922 391.627 852.767 392 848C375.955 852.418 391.676 865.734 393 874z"/>
</svg>
