<?xml version="1.0" standalone="yes"?>
<svg xmlns="http://www.w3.org/2000/svg" width="1170" height="1450">
<path style="fill:#010101; stroke:none;" d="M0 0L0 1450L1170 1450L1170 0L0 0z"/>
<path style="fill:#ffffff; stroke:none;" d="M858 135C858.978 144.496 852.176 147.022 850.523 155.015C849.548 159.729 852.924 164.284 851.85 169C849.979 177.213 842.002 180.012 839.009 187.039C836.737 192.374 833.071 202.204 833.264 208C833.41 212.375 835.701 216.585 835.32 221C834.917 225.671 831.145 229.342 830.662 234C829.359 246.566 843.232 245.322 847.022 253.058C854.661 268.646 849.68 291.65 846 307L865 316.002L890 319.049L906 310.924L922 318.432L942 314.398L956.004 321.981L994 327L1004.35 298L1003.61 283L1009 265C1002.42 262.21 996.797 264.629 990 263.816C979.352 262.541 966.761 259.196 957.043 255.258C952.658 253.481 951.354 248.592 948.39 245.329C943.796 240.271 936.281 239.522 930 241C929.775 228.995 935.299 229.108 942.416 222.273C948.846 216.099 950.944 210.661 960 207C954.948 198.141 947.848 199.244 941.015 192.895C936.061 188.292 934.909 182.293 931.072 177C927.096 171.516 922.018 169.721 917.278 165.491C914.888 163.359 914.14 160.072 911.722 157.942C906.983 153.768 899.954 154.93 895.329 150.606C888.439 144.164 890.534 128.242 880.985 125.515C875.597 123.977 863.022 132.358 858 135z"/>
</svg>
