<?xml version="1.0" standalone="yes"?>
<svg xmlns="http://www.w3.org/2000/svg" width="1170" height="1450">
<path style="fill:#010101; stroke:none;" d="M0 0L0 1450L1170 1450L1170 0L0 0z"/>
<path style="fill:#ffffff; stroke:none;" d="M236 874C227.267 873.993 223.746 871.344 218 865C213.937 869.845 204.538 869.069 202.201 874.189C199.323 880.495 207.572 886.168 209.957 891.004C213.566 898.323 212.31 907.06 211 915L203 909L202 909C200.326 916.796 200.952 930.063 202.367 938C202.803 940.444 201.556 944.176 203.067 946.262C206.599 951.136 217.724 951.75 222.575 957.043C226.341 961.153 235.772 976.765 241.693 976.654C245.582 976.582 241.968 966.709 243.198 964.398C246.073 958.993 254.973 963.69 259 965L264 939C259.947 935.537 260.684 923.933 267.947 924.921C275.411 925.937 272.013 938.291 272 943C277.941 941.436 287.995 933.102 285.883 926C284.519 921.416 279.68 918.773 278.663 914C277.34 907.793 281.807 902.079 277.272 896.149C274.758 892.861 271.267 894.302 268.303 892.228C265.7 890.406 263.799 884.87 262.559 882C260.804 877.936 262.985 874.144 262.436 870C261.765 864.942 255.07 855.835 250.625 853.333C237.366 845.872 235.999 867.201 236 874z"/>
</svg>
