<?xml version="1.0" standalone="yes"?>
<svg xmlns="http://www.w3.org/2000/svg" width="1170" height="1450">
<path style="fill:#010101; stroke:none;" d="M0 0L0 1450L1170 1450L1170 0L0 0z"/>
<path style="fill:#ffffff; stroke:none;" d="M351 1191C351.016 1185.48 355.879 1176.71 353.063 1172.09C346.35 1161.08 333.491 1157.8 323 1152.1C318.422 1149.61 314.096 1145.13 309 1143.79C306.014 1143.01 303.015 1144.34 300 1143.73C292.243 1142.18 284.395 1136.89 277.639 1144.39C272.393 1150.22 278.364 1154.77 278.725 1161C279.047 1166.55 276.097 1173.6 279.028 1178.83C281.781 1183.73 288.477 1185.68 293 1188.47C301.389 1193.64 309.11 1200.55 317 1206.48C320.547 1209.14 325.299 1214.74 329.996 1215.03C341.685 1215.75 337.539 1192.01 351 1191z"/>
</svg>
