<?xml version="1.0" standalone="yes"?>
<svg xmlns="http://www.w3.org/2000/svg" width="1170" height="1450">
<path style="fill:#010101; stroke:none;" d="M0 0L0 1450L1170 1450L1170 0L0 0z"/>
<path style="fill:#ffffff; stroke:none;" d="M384 709C381.147 713.748 377.936 713.2 373 712L385.815 742L381.383 779L385 803C388.419 802.736 392.679 799.375 395.876 800.991C400.222 803.187 397.181 812.051 396.715 816C395.411 827.039 393.886 837.911 392.83 849C392.432 853.18 391.027 858.351 395.228 861.214C399.277 863.972 408.663 858.664 414 859.17C431.386 860.818 450.788 861.733 456.994 841C459.183 833.687 457.22 824.639 459.514 817C462.091 808.418 471.795 804.048 474.363 795C476.931 785.951 469.998 778.41 468 770C474.762 769.462 476.669 762.599 479 757L502 753C504.526 742.359 498.525 736.094 488 736C487.059 728.552 486.541 715.73 491.857 709.514C494.099 706.893 498.796 707.742 500.397 704.567C502.101 701.187 500.612 696.64 501.995 693C503.802 688.244 509.224 684.217 509.508 679C509.77 674.198 507.015 669.103 507 664C491.184 666.98 477.81 664.678 470 649C461.525 650.399 453.018 645.764 445.044 650.638C439.391 654.094 437.612 668.19 430.421 668.4C427.646 668.48 425.305 665.198 422.999 664.008C417.724 661.287 406.113 656.788 400.318 659.742C394.497 662.71 401.49 673.057 398.64 677.999C392.922 687.918 360.762 698.098 384 709z"/>
</svg>
