<?xml version="1.0" standalone="yes"?>
<svg xmlns="http://www.w3.org/2000/svg" width="1170" height="1450">
<path style="fill:#010101; stroke:none;" d="M0 0L0 1450L1170 1450L1170 0L0 0z"/>
<path style="fill:#ffffff; stroke:none;" d="M961 208C951.242 210.046 949.176 214.745 943.416 221.772C940.853 224.899 936.353 224.738 933.742 227.652C931.353 230.32 931.225 235.64 930 239L931 240C945.9 236.76 945.927 249.662 956.21 254.258C965.635 258.469 978.52 261.545 989 262.816C996.792 263.76 1002.53 261.69 1010 265C1013.9 252.429 1017.43 239.527 1021.67 227C1023.6 221.269 1025.79 215.78 1032 214C1030.83 199.945 1041.93 180.282 1055 174.885C1061.14 172.35 1066.14 180.977 1070.74 174.851C1076.37 167.334 1066.32 153.464 1068 144C1065.36 143.264 1061.67 143.766 1059.38 142.227C1054.81 139.163 1054.02 132.836 1048 131.318C1036.67 128.459 1022.69 125.301 1011 124.17C1005.74 123.661 998.803 126.299 994 124.174C988.077 121.553 984.896 115.448 979.961 111.61C974.165 107.102 966.868 104.585 960 102.228C952.153 99.5354 941.037 94.2806 933 93.5686C923.432 92.7208 917.351 96.0886 908 90.6512C896.492 83.9597 888.609 69.3855 882.213 58C880.169 54.3619 879.982 49.6034 876.721 46.7277C872.283 42.813 866.15 45.4562 862.318 49.0439C859.801 51.4 859.812 54.8156 859.195 58C858.03 64.0173 855.903 70.0056 858.514 76C861.277 82.3438 867.436 86.0046 869.331 93C871.453 100.836 876.765 106.608 879.082 114C880.015 116.979 878.307 120.696 880.042 123.366C882.033 126.43 885.856 127.575 887.682 131.015C890.862 137.007 889.757 144.164 894.789 149.606C898.947 154.102 906.101 153.254 910.945 156.942C913.941 159.224 914.823 162.781 917.509 165.161C922.576 169.652 927.88 172.215 932.072 178C935.273 182.417 936.225 187.967 940.109 191.895C947.354 199.224 955.256 197.918 961 208z"/>
</svg>
