<?xml version="1.0" standalone="yes"?>
<svg xmlns="http://www.w3.org/2000/svg" width="1170" height="1450">
<path style="fill:#010101; stroke:none;" d="M0 0L0 1450L1170 1450L1170 0L0 0z"/>
<path style="fill:#ffffff; stroke:none;" d="M606 611C604.987 624.432 588.667 621.982 579 624.518C574.108 625.801 570.304 629.287 565 628.684C560.021 628.119 555.582 623.24 550.961 623.375C546.09 623.518 542.858 628.591 538.015 629.018C533.541 629.413 531.014 623.427 526.314 625.747C522.214 627.77 521.337 642.568 519.547 647C516.948 653.435 510.976 658.062 508.603 664.089C506.382 669.733 511.203 674.746 509.933 680C508.863 684.427 504.62 687.721 502.995 692C501.248 696.596 502 702.167 502 707C491.863 708.31 483.452 722.232 488.742 732.683C490.178 735.52 494.444 735.416 496.91 737.009C503.458 741.239 503.871 747.068 503 754C514.486 758.648 520.108 749.775 530.816 758.633C539.301 765.654 540.047 774.455 545.748 783C548.279 786.793 551.19 792.317 555.3 794.567C558.879 796.527 563.352 796.015 566.896 798.14C576.559 803.933 578.375 809.685 591 810.015C599.443 810.235 613.702 812.051 616 801C626.098 800.322 641.032 808.682 649 815L650 815C654.68 806.924 659.517 796.138 661.613 787C663.569 778.473 663.791 768.677 671 763L671 761C657.787 754.42 641.568 739.275 643.171 723C643.953 715.047 651.367 708.125 649.427 700.001C646.848 689.196 628.583 689.523 632.804 676C637.229 661.822 653.708 674.058 660.562 661.625C664.725 654.076 654.091 641.769 649.433 637.416C646.85 635.002 647.206 631.108 644.683 628.609C635.728 619.739 618.2 613.066 606 611z"/>
</svg>
