<?xml version="1.0" standalone="yes"?>
<svg xmlns="http://www.w3.org/2000/svg" width="1170" height="1450">
<path style="fill:#010101; stroke:none;" d="M0 0L0 1450L1170 1450L1170 0L0 0z"/>
<path style="fill:#ffffff; stroke:none;" d="M355 1176L352 1192C340.336 1192.14 338.677 1207.3 333 1216L356 1222.95L402 1254.22L422 1250.11L451 1263C451.01 1248.51 459.016 1239 474 1237C473.999 1224.04 466.844 1222.7 460.595 1213C452.883 1201.02 460.621 1185.92 444 1180.01C434.931 1176.79 409.518 1180.48 401.015 1184.84C394.762 1188.04 388.747 1196.25 381 1196.21C369.792 1196.16 361.896 1184.01 357 1176L355 1176z"/>
</svg>
