<?xml version="1.0" standalone="yes"?>
<svg xmlns="http://www.w3.org/2000/svg" width="1170" height="1450">
<path style="fill:#010101; stroke:none;" d="M0 0L0 1450L1170 1450L1170 0L0 0z"/>
<path style="fill:#ffffff; stroke:none;" d="M529 881L541 899L530 900C527.732 909.509 518.95 908.319 512.039 912.969C507.274 916.176 504.43 920.61 499 923C502.029 928.79 507.846 928.128 513 931.089C518.13 934.035 522.107 939.455 524.034 945C527.007 953.555 512.748 964.763 519.244 970.03C527.489 976.715 547.566 975.177 558 977.514C565.381 979.167 570.231 984.001 576.999 986.59C581.729 988.4 591.769 986.456 594.323 992.148C596.524 997.055 591.149 1005.04 590 1010C586.503 1007.73 577.307 1003.78 576.161 1011.11C574.758 1020.07 582.993 1028.88 580 1039L604 1045.52L620 1038.89L638 1046.67L658 1044.83L672.621 1045.49L682.76 1032.04L697 1016C690.037 1012.33 682.384 1010.49 680 1002L686 999C676.762 995.019 670.714 987.072 662 982.532C655.765 979.283 647.501 978.738 644 972L616 966.34L564 965L583.258 942.787L585.598 934.209L589.377 925.012L576 911L571 913C570.007 905.318 560.459 888.931 552.945 885.738C546.088 882.825 536.376 882.691 529 881z"/>
</svg>
