<?xml version="1.0" standalone="yes"?>
<svg xmlns="http://www.w3.org/2000/svg" width="1170" height="1450">
<path style="fill:#010101; stroke:none;" d="M0 0L0 1450L1170 1450L1170 0L0 0z"/>
<path style="fill:#ffffff; stroke:none;" d="M894 632L894 627L910 627L911 617L893 618C893 604.82 899.541 588.927 896.602 576.019C895.148 569.636 888.347 571.907 884.005 568.591C879.948 565.492 880.294 560.999 877.223 557.854C870.831 551.31 850.926 551.79 844.394 557.652C840.153 561.459 841.828 567.267 839.562 571.961C831.457 588.749 831.609 609.092 850.004 619.914C856.457 623.711 864.074 622.562 871 624.634C879.593 627.206 884.542 631.994 894 632z"/>
</svg>
