<?xml version="1.0" standalone="yes"?>
<svg xmlns="http://www.w3.org/2000/svg" width="1170" height="1450">
<path style="fill:#010101; stroke:none;" d="M0 0L0 1450L1170 1450L1170 0L0 0z"/>
<path style="fill:#ffffff; stroke:none;" d="M609 1137L608 1137C603.504 1142.34 598.232 1136.05 595 1132L572 1139L588 1178L570 1186L574 1197C560.842 1201.57 562.268 1221.65 571.514 1229.3C576.099 1233.09 581.769 1231.3 586 1236L609 1239C609.039 1249.94 614.966 1247.12 623 1244L624 1248L625 1248C626.757 1244.61 630.543 1243.17 632.11 1239.79C634.479 1234.68 636.579 1216.62 643 1231C656.634 1227.8 668.273 1213.2 682 1215L684 1227L700 1219.62L719 1221.96L737 1217.32L757 1205.45L794 1222L786.937 1202L793.683 1191.71L803 1165C796.171 1164.14 792.513 1168.81 786.982 1168.51C770.517 1167.6 760.912 1162.24 752 1181C746.692 1172.24 756.463 1165.58 764 1164C759.586 1157.26 743.022 1155.1 747 1144C738.002 1140.94 728.742 1137.88 720 1134.13C716.078 1132.44 711.411 1128.72 707.015 1128.78C701.647 1128.86 699.398 1135.81 693.996 1137.08C683.539 1139.54 669.973 1134.73 660 1132L658 1151C653.519 1141.93 650.651 1130.02 661 1124C659.176 1116.56 643.621 1111.6 637.144 1116.01C633.966 1118.18 633.777 1121.66 632.518 1124.96C629.478 1132.91 613.937 1154.53 609 1137z"/>
</svg>
