<?xml version="1.0" standalone="yes"?>
<svg xmlns="http://www.w3.org/2000/svg" width="1170" height="1450">
<path style="fill:#010101; stroke:none;" d="M0 0L0 1450L1170 1450L1170 0L0 0z"/>
<path style="fill:#ffffff; stroke:none;" d="M469 1085C467.414 1091.66 470.266 1098.64 468.427 1104.99C467.118 1109.5 461.223 1110.82 460.488 1115.13C459.686 1119.85 463.953 1124.37 462.33 1129C459.094 1138.22 449.701 1135.93 444.318 1141.32C438.098 1147.54 443.743 1159.37 446 1166L448 1166L450 1162L451 1162C455.565 1172.91 462.62 1177.64 474 1180C483.195 1165.39 493.446 1181.64 496 1192C505.575 1186.09 501.846 1167.36 514 1166L515 1158C523.646 1163.72 533.591 1173.35 543 1177.14C547.745 1179.06 553.134 1177.18 558 1178.57C561.989 1179.72 564.263 1183.36 568 1184.8C574.371 1187.26 582.02 1181.07 587 1178L572.684 1143L565.787 1133.75L546.286 1141.43L536.279 1137.18L523 1153L524 1149C516.894 1144.65 507.499 1140.4 503.086 1132.99C500.046 1127.88 500.624 1121.32 497.687 1116.32C492.417 1107.37 484.761 1106.5 488 1095C478.088 1095.57 475.859 1091.09 469 1085z"/>
</svg>
