<?xml version="1.0" standalone="yes"?>
<svg xmlns="http://www.w3.org/2000/svg" width="1170" height="1450">
<path style="fill:#010101; stroke:none;" d="M0 0L0 1450L1170 1450L1170 0L0 0z"/>
<path style="fill:#ffffff; stroke:none;" d="M632 495C627.275 504.246 624.586 510.361 613 509C611.484 514.327 610.538 519.389 604 518L603 525L582.039 517.863L572 523C573.241 527.858 566.21 539.065 561.966 542.034C558.497 544.461 552.69 545.492 550.514 549.39C548.226 553.488 548.515 558.707 546.201 563C541.852 571.068 535.416 577.687 531.27 586C525.294 597.984 524.002 611.812 524 625C530.112 623.937 532.68 628.587 538.015 628.381C542.937 628.191 546.206 622.872 550.985 622.743C555.81 622.612 560.548 627.663 566 627.894C572.287 628.161 577.815 623.798 584 622.755C592.098 621.389 607.431 622.09 604 610C613.164 610.912 624.011 615.317 632 619.648C636.885 622.297 642.546 628.69 648.286 629.228C657.964 630.135 670.011 621.491 678 631C682.898 629.116 701.745 618.117 700.069 612.09C699.076 608.523 694.866 607.773 692.56 605.363C689.664 602.336 688.326 596.897 687 593C698.821 588.937 703.244 601.092 713 605C712.915 600.014 712.268 596.716 717 594C714.211 587.287 714.371 574.216 707.657 570.028C704.124 567.825 697.186 568.108 693 567C700.182 558.206 690.392 548.959 686.31 541C684.564 537.595 684.981 533.457 683.012 530.17C676.206 518.812 665.142 506.758 653 500.687C646.625 497.499 638.733 497.51 632 495z"/>
</svg>
