<?xml version="1.0" standalone="yes"?>
<svg xmlns="http://www.w3.org/2000/svg" width="1170" height="1450">
<path style="fill:#010101; stroke:none;" d="M0 0L0 1450L1170 1450L1170 0L0 0z"/>
<path style="fill:#ffffff; stroke:none;" d="M525 1148L524 1152C531.672 1148.85 529.643 1140.45 535.419 1136.89C539.199 1134.56 542.375 1140.46 546 1140.76C556.92 1141.67 563.243 1126.07 571 1139L594 1131L588.57 1095L582 1078C573.306 1077.8 557.044 1072.78 550 1067.57C544.83 1063.74 540.581 1052.28 533.043 1054.66C527.984 1056.26 527.883 1062.11 523.891 1065.03C520.308 1067.66 514.98 1068.22 511.966 1071.51C508.836 1074.93 508.279 1080.26 504.61 1083.27C497.062 1089.46 488.608 1088.56 486.796 1100.96C485.94 1106.83 495.27 1111.87 498.147 1116.18C501.367 1121.02 500.835 1127.78 503.558 1132.96C507.272 1140.03 517.571 1145.81 525 1148z"/>
</svg>
