<?xml version="1.0" standalone="yes"?>
<svg xmlns="http://www.w3.org/2000/svg" width="1170" height="1450">
<path style="fill:#010101; stroke:none;" d="M0 0L0 1450L1170 1450L1170 0L0 0z"/>
<path style="fill:#ffffff; stroke:none;" d="M462 918L457 929C467.991 935.014 470.335 946.065 462 955L462 956L466 966L450 964C452.296 972.416 455.24 982.948 463.015 987.967C468.876 991.75 476.489 987.658 480.007 996.001C481.942 1000.59 477.033 1006.09 477.518 1011C478.381 1019.74 488.651 1022.13 477 1029C483.255 1038.73 493.711 1037.51 492 1052C485.567 1052.58 470.822 1059.38 467.461 1065.21C463.185 1072.64 470.624 1088.77 477.174 1092.91C480.728 1095.15 485.043 1094.36 489 1095C491.523 1086.02 498.805 1087.45 504.61 1082.44C508.276 1079.27 508.81 1073.77 512.39 1070.51C515.822 1067.39 521.056 1067.12 524.57 1064.03C527.199 1061.72 527.488 1057.94 530.228 1055.65C532.645 1053.64 536.926 1053.84 538.821 1051.4C544.051 1044.66 538.43 1027.28 530 1027L532 1021C539.42 1020.07 546.724 1020.5 552.786 1025.64C555.693 1028.1 556.206 1031.89 558.699 1034.57C561.291 1037.35 574.106 1039.42 577.721 1038.22C589.219 1034.42 564.646 1005.25 582.998 1006.22C585.32 1006.34 587.727 1007.51 590 1008C591.023 1003.69 595.47 997.525 594.002 993.148C592.059 987.358 581.439 988.87 577 987.058C570.268 984.31 565.485 979.742 558 978.311C547.189 976.244 530.389 977.117 521.016 971.633C511.288 965.942 521.44 960.947 523.427 954C525.304 947.44 522.331 939.896 517.787 935.108C503.323 919.865 478.9 925.842 462 918z"/>
</svg>
