<?xml version="1.0" standalone="yes"?>
<svg xmlns="http://www.w3.org/2000/svg" width="1170" height="1450">
<path style="fill:#010101; stroke:none;" d="M0 0L0 1450L1170 1450L1170 0L0 0z"/>
<path style="fill:#ffffff; stroke:none;" d="M608 828C604.314 829.027 597.123 828.013 594.39 829.847C587.344 834.575 582.245 854.005 587.969 860.57C591.461 864.576 598.616 864.514 603 867.638C614.83 876.068 623.331 887.836 635 896.464C641.466 901.245 647.446 899.863 653 907C644.575 907.203 635.603 902.403 627.043 904.916C620.406 906.864 620.742 914.229 625 918L625 919C619.257 924.682 615.988 935.747 624 941L623 938C629.53 936.347 641.203 945.239 645.787 950.105C648.179 952.644 649.581 957.133 653.1 958.353C657.724 959.955 663.128 948.696 669 947C669.68 934.617 686.606 940.622 695 941.738C704.345 942.982 703.114 956.114 710.214 958.045C713.864 959.037 718.904 955.334 721.996 953.752C741.949 943.547 731.364 916.566 747 904C743.672 889.622 735.174 888.429 726.213 878.895C717.833 869.979 711.745 859.296 703.24 850.39C699.91 846.904 694.699 846.603 691.333 843.351C686.509 838.692 692.11 829.993 685.772 824.966C677.062 818.057 659.195 805.473 650 816C642.338 809.925 633.447 807.203 625 802.575C622.542 801.228 617.986 800.751 616.89 804.224C615.385 808.996 627.281 810.021 624.002 815.111C619.582 821.974 603.452 814.312 608 828z"/>
</svg>
