<?xml version="1.0" standalone="yes"?>
<svg xmlns="http://www.w3.org/2000/svg" width="1170" height="1450">
<path style="fill:#010101; stroke:none;" d="M0 0L0 1450L1170 1450L1170 0L0 0z"/>
<path style="fill:#ffffff; stroke:none;" d="M119 973L118 958C121.864 959.47 130.303 965.383 134.138 961.382C139.851 955.422 126.897 949.644 131.711 944.603C136.616 939.466 153.744 936.97 157.973 944.189C160.704 948.851 158.4 955.602 164.189 958.667C169.201 961.32 175.788 956.458 180 954L179 944L201 947L201 907L210 914C214.131 899.011 208.872 893.485 202.302 880.985C199.874 876.367 198.363 869.204 192 868.288C188.524 867.788 184.841 871.384 182 873C183.885 888.977 171.122 887.523 166.905 874C164.198 865.317 169.9 857.513 171 849C156.456 851.178 138.49 858.357 126 866.065C115.611 872.477 104.12 882.211 92.1698 885.434C86.3892 886.994 82.8602 879.362 78 877.604C73.5965 876.012 57.9328 883.171 54.6682 886.649C49.9458 891.68 57.9945 899.072 57.4429 905C55.8457 922.166 60.3743 939.273 69.4792 954C71.3409 957.011 71.3102 961.715 74.314 963.86C79.7872 967.77 88.7369 965.574 95 966.17C104.012 967.027 110.532 970.561 119 973z"/>
</svg>
