<?xml version="1.0" standalone="yes"?>
<svg xmlns="http://www.w3.org/2000/svg" width="1170" height="1450">
<path style="fill:#010101; stroke:none;" d="M0 0L0 1450L1170 1450L1170 0L0 0z"/>
<path style="fill:#ffffff; stroke:none;" d="M1111 1409L1100.33 1398.98L1075.57 1367L1012 1262L1015 1261C1009.6 1248.04 1001.41 1235.67 993.667 1224C989.413 1217.58 983.334 1210.01 984 1202L977 1204L976 1201C971.448 1202.91 969.16 1205.07 966.049 1208.8C963.686 1211.64 959.102 1212.76 957.603 1216.21C953.391 1225.91 964.38 1241.17 969 1249C952.279 1247.18 954.822 1222.62 950.005 1212.04C947.427 1206.38 939.418 1203.27 934 1201L935 1197C928.417 1198.22 920.479 1199.05 914 1196.85C911.445 1195.99 907.303 1191.77 904.599 1193.75C898.731 1198.06 897.217 1207.58 896.443 1214C895.462 1222.13 891.696 1228.44 894.136 1237C895.893 1243.16 901.001 1248.99 903.573 1255C906.699 1262.3 909.31 1272.23 916.174 1277.01C922.228 1281.21 931.048 1280.47 938 1282.13C955.517 1286.31 971.79 1290.92 984.91 1304.09C997.008 1316.23 994.138 1334.31 1003.97 1347.9C1007.24 1352.42 1013.4 1354.51 1018 1357.44C1026.72 1362.98 1035.22 1368.84 1044 1374.32C1051.85 1379.23 1056.98 1386.6 1064.01 1392.33C1077.94 1403.68 1093.23 1409 1111 1409M940 1197L954 1206.98L973 1197C969.601 1191.51 946.474 1195.09 940 1197z"/>
</svg>
