<?xml version="1.0" standalone="yes"?>
<svg xmlns="http://www.w3.org/2000/svg" width="1170" height="1450">
<path style="fill:#010101; stroke:none;" d="M0 0L0 1450L1170 1450L1170 0L0 0z"/>
<path style="fill:#ffffff; stroke:none;" d="M823 592L810.974 611.004L812 631L800 632L805 643C796.602 641.963 780.986 647.443 780.238 658C779.966 661.836 783.775 665.303 784.606 669C785.886 674.69 785.261 681.155 786 687L795.004 682.047L814 695.738L845.985 708.352L875.039 732.681L887 731C894.982 714.133 916.788 701.865 909 680L904 683C899.468 672.1 890.159 653.513 893.889 641.228C895.13 637.138 900.152 637.889 901 633C888.901 633 883.055 628.943 872 625.634C866.117 623.874 859.791 624.498 854 622.286C845.737 619.129 836.038 607.122 833 599L828 600L823 592z"/>
</svg>
