<?xml version="1.0" standalone="yes"?>
<svg xmlns="http://www.w3.org/2000/svg" width="1170" height="1450">
<path style="fill:#010101; stroke:none;" d="M0 0L0 1450L1170 1450L1170 0L0 0z"/>
<path style="fill:#ffffff; stroke:none;" d="M223 751C218.711 755.289 214.492 760.678 209 763.442C204.382 765.766 196.222 765.788 193.14 770.279C190.026 774.815 188.29 785.716 189.652 791C190.674 794.965 193.855 798.684 192.972 803C189.151 821.683 176.212 838.287 170.402 856C167.443 865.02 164.298 874.925 172.225 882.848C182.155 892.775 180.762 866.982 191.576 867.586C194.791 867.765 197.899 871.94 200 874L201 874L218 863C222.532 870.626 226.108 872.993 235 873C234.999 862.525 237.421 850.879 251 852C250.316 842.925 237.262 838.738 237.431 830.424C237.596 822.264 248.651 811.82 251.437 804C253.935 796.985 249.024 792.327 246.981 786C244.841 779.376 248.09 767.592 239.61 763.603C236.424 762.105 231.448 763 228 763L223 751z"/>
</svg>
