<?xml version="1.0" standalone="yes"?>
<svg xmlns="http://www.w3.org/2000/svg" width="1170" height="1450">
<path style="fill:#010101; stroke:none;" d="M0 0L0 1450L1170 1450L1170 0L0 0z"/>
<path style="fill:#ffffff; stroke:none;" d="M738 928C734.288 939.685 731.668 949.397 720 955.247C717.01 956.746 712.628 959.928 709.214 958.045C704.809 955.615 704.298 948.642 700.786 945.149C696.15 940.536 684.245 940.899 678 940.742C675.599 940.682 671.913 939.449 670.623 942.318C668.413 947.233 675.96 950.353 678.572 953.105C686.345 961.295 695.918 973.814 700.708 984C704.065 991.137 701.621 999.983 705.029 1007.82C707.135 1012.66 713.212 1013.55 715.683 1018.1C719.208 1024.6 717.779 1033.16 721.059 1039.96C725.235 1048.62 734.169 1055.78 739.453 1064C748.135 1077.51 753.487 1091.82 763.157 1104.49C769.561 1112.89 764.863 1127.04 775.301 1133.86C778.254 1135.8 781.935 1136.54 785 1138.35C787.46 1139.81 789.486 1141.99 792 1143.32C807.935 1151.74 803.906 1125.66 803.371 1119C803.177 1116.59 803.75 1114.63 806.124 1113.6C818.336 1108.34 820.002 1122.3 828 1127C828.054 1120.51 828.868 1114.41 834 1110L830 1101C842.939 1106.56 843.196 1091.68 849 1086L849 1084L830 1072C838.262 1071.19 842.252 1073.36 845 1064C841.075 1062.43 837.049 1059.59 835.714 1055.29C835.076 1053.23 836.688 1050.69 835.126 1048.93C831.532 1044.88 813.884 1037.33 829 1034C828.618 1029.15 828.36 1023.3 825.911 1019C822.251 1012.57 812.592 1008.86 821 1002C819.81 999.274 817.052 996.16 817.131 993.089C817.212 989.987 820.073 988.236 818.288 985.001C815.904 980.682 810.883 979.537 807.495 976.377C804.824 973.887 803.21 969.548 798.996 969.276C794.279 968.972 789.403 973.496 785 974.755C777.75 976.829 760.316 976.967 754.105 972.197C749.589 968.729 746.911 959.565 748.541 954C749.642 950.243 753.397 948.261 753.232 944.001C752.972 937.269 742.824 931.874 738 928z"/>
</svg>
