<?xml version="1.0" standalone="yes"?>
<svg xmlns="http://www.w3.org/2000/svg" width="1170" height="1450">
<path style="fill:#010101; stroke:none;" d="M0 0L0 1450L1170 1450L1170 0L0 0z"/>
<path style="fill:#ffffff; stroke:none;" d="M341 692C334.301 706.738 320.544 692.661 311 697.318C307.019 699.26 301.342 703.579 300.042 708.004C298.831 712.123 301.463 715.901 297.602 719.298C289.267 726.629 274.677 724.871 266.214 731.803C255.285 740.755 261.683 757.739 256.991 768.985C254.557 774.817 247.12 775.834 247.199 783.001C247.274 789.79 254.213 795.052 252.671 802C250.661 811.061 237.426 821.821 238.133 831C238.791 839.556 250.713 845.848 253 855C262.849 853.242 265.3 841.953 274.714 839.534C276.926 838.966 278.893 840.382 280.002 842.218C282.3 846.022 281.217 851.277 284.513 854.667C290.312 860.632 295.932 853.713 296 848L308 861C313.641 850.381 322.327 855.216 332 854L333 847C339.311 855.116 338.428 872.033 338 882C343.628 882.711 350.524 881.809 355.891 883.318C359.488 884.329 359.65 888.665 363.144 889.682C375.613 893.312 381.973 884.658 378 874L392 873L384.029 856L391.413 845.586L395.439 819L397.713 804.133L392 800L384 804L380.676 779L384.671 740L372 710C376.073 712.27 378.681 712.977 383 711L383 709C374.325 704.342 374.52 700.714 377 692L341 692z"/>
</svg>
