<?xml version="1.0" standalone="yes"?>
<svg xmlns="http://www.w3.org/2000/svg" width="1170" height="1450">
<path style="fill:#010101; stroke:none;" d="M0 0L0 1450L1170 1450L1170 0L0 0z"/>
<path style="fill:#ffffff; stroke:none;" d="M792 811L792 838C784.266 838.999 775.884 840.886 773 849C763.819 847.107 749.897 846.555 747 857L739 847L718 865L718 866C721.244 870.254 723.294 875.984 727.213 879.61C734.014 885.902 741.702 887.492 745.531 897C749.06 905.764 737.661 914.562 739.144 925C740.425 934.014 750.146 933.263 753.117 940.108C755.604 945.841 750.972 948.222 749.211 953C747.455 957.764 750.124 968.843 754.214 971.856C760.894 976.776 767.71 973.63 775 973.463C778.374 973.386 781.638 975.044 785 974.211C789.472 973.103 793.871 968.693 798.576 968.622C803.791 968.543 808.244 976.858 813 979L814 961L815 961C820.646 974.583 830.028 995.72 826 1010C834.282 1014.54 829.698 1020.58 833.618 1027C838.778 1035.45 846.547 1036.4 849 1047C855.178 1046.14 857.055 1042.42 862.04 1039.35C865.677 1037.11 870.484 1037.69 873.787 1035.36C881.593 1029.85 884.194 1024.94 895 1024C892.949 1010.11 885.509 996.948 880.464 984C875.028 970.049 870.547 953.536 866.895 939C860.901 915.141 854.824 889.459 852.166 865C851.031 854.554 853.383 834.148 847.821 825.278C845.196 821.092 837.728 819.815 834 816C828.29 822.011 820.095 817.522 817 811L792 811z"/>
</svg>
