<?xml version="1.0" standalone="yes"?>
<svg xmlns="http://www.w3.org/2000/svg" width="1170" height="1450">
<path style="fill:#010101; stroke:none;" d="M0 0L0 1450L1170 1450L1170 0L0 0z"/>
<path style="fill:#ffffff; stroke:none;" d="M479 758C476.818 763.24 474.817 769.278 469 771C470.634 777.88 476.659 784.773 475.772 792C474.485 802.474 463.308 806.694 460.514 816C458.137 823.917 459.978 833.473 457.555 841C454.701 849.867 446.906 855.381 440 861L440 862C448.685 868.406 445.72 871.354 449.078 880C451.533 886.321 456.037 892.388 457.61 899C459.072 905.142 459.288 913.674 464.394 918.196C469.736 922.928 476.767 919.814 483 920.951C487.785 921.823 493.109 923.613 498 922.606C504.271 921.314 507.186 916.157 512.015 912.638C518.812 907.684 528.317 909.141 529 899L540 898L529 880C536.607 882.432 545.776 881.877 552.956 885.008C559.852 888.016 569.601 904.156 572 911L576 910L590.338 925.985L586.595 934.209L583.991 942.787L574.174 949.637L565 964C581.799 966.123 598.365 963.782 615 965.415C622.53 966.154 629.607 972.549 636.995 972.482C642.83 972.43 643.892 966.781 642.682 962.004C639.937 951.167 624.449 952.025 618 944L622 942C618.057 932.515 617.802 927.705 624 919L624 918C610.842 901.016 642.34 904.81 650 907L651 906C647.368 898.854 641.412 901.573 635.961 897.452C624.237 888.589 615.647 877.04 603.996 868.638C598.4 864.602 590.199 865.209 586.364 858.956C582.004 851.847 587.72 834.712 594.123 829.539C597.353 826.93 602.877 829.213 607 827C604.764 816.366 618.114 817.331 625 815C619.807 803.984 610.805 809.799 602 811.292C595.574 812.381 584.923 811.766 579 808.95C574.122 806.631 571.883 801.986 567.625 799.14C561.317 794.923 555.537 796.899 550.425 789.995C541.529 777.981 538.254 759.971 523 753.785C518.701 752.041 515.205 756.519 511 756.82C505.864 757.188 501.324 753.076 496 753.264C489.734 753.485 485.271 758.33 479 758z"/>
</svg>
