<?xml version="1.0" standalone="yes"?>
<svg xmlns="http://www.w3.org/2000/svg" width="1007" height="1450">
<path style="fill:#010101; stroke:none;" d="M0 0L0 1450L1007 1450L1007 0L0 0z"/>
<path style="fill:#ffffff; stroke:none;" d="M248 1228L228.428 1254L207 1279.3L182 1288.07L165 1299C166.212 1304.86 169.39 1311 169.4 1317C169.409 1322.84 166.665 1328.18 169.075 1334C171.658 1340.22 176.199 1338.96 180.621 1342.59C184.506 1345.78 185.319 1352.29 189.61 1354.93C191.934 1356.36 195.386 1355.26 198 1355.8C208.676 1358.02 216.248 1359.61 226.996 1356.07C237.269 1352.69 240.664 1340.21 252 1337.35C266.009 1333.81 289.499 1356.12 297.361 1331C304.257 1308.97 275.908 1294.97 269.764 1278C265.97 1267.53 258.568 1258.45 255.224 1248C253.032 1241.15 254.895 1232.13 248 1228z"/>
</svg>
