<?xml version="1.0" standalone="yes"?>
<svg xmlns="http://www.w3.org/2000/svg" width="1007" height="1450">
<path style="fill:#010101; stroke:none;" d="M0 0L0 1450L1007 1450L1007 0L0 0z"/>
<path style="fill:#ffffff; stroke:none;" d="M523 826L523 827C530.224 830.852 533.266 832.627 535 841L506 830C505.472 834.18 503.26 840.742 504.693 844.787C505.823 847.976 510.247 849.376 513 850.753C520.316 854.413 526.908 854.845 535 853.444C543.969 851.891 555.136 846.08 560 857C553.529 856.182 546.713 853.36 542 859L556 865L556 866L544 866L542 898C530.024 889.383 536.963 881.203 530.348 870.318C528.338 867.01 524.261 868.649 521.209 867.401C515.593 865.104 512.455 862.216 506 861L511 889L498 888C496.812 878.649 496.485 856.642 490.258 849.51C487.047 845.832 479.506 844.469 475 843L483 903C495.833 903 508.835 901.585 521 906.192C524.265 907.429 530.949 908.37 532.111 912.225C535.125 922.218 526.179 930.736 523 939C530.137 941.262 534.567 943.479 539.413 949.593C542.206 953.118 541.461 955.841 546 958L546 959L538 963L538 964C543.713 964.769 559.663 967.656 556.316 976.891C554.663 981.451 548.273 982.114 546 987C563.044 987.201 558.032 1001.76 558 1013L563 1005C571.402 1015.49 563.237 1023.96 566.448 1034.85C568.009 1040.14 575.667 1035.99 577.431 1041.15C578.564 1044.46 575.792 1048.45 576.228 1052C576.923 1057.65 580.866 1065.84 583.43 1070.96C588.678 1081.45 603.526 1078.21 609.442 1090C612.176 1095.45 614.1 1105.71 614.525 1111.71C614.769 1115.15 612.18 1117.34 613.407 1121C616.066 1128.92 636.208 1133.81 644 1134C639.722 1120.7 652.21 1113.83 660.816 1105.56C667.593 1099.05 674.075 1087.26 675.991 1078C677.621 1070.12 667.178 1057.27 665.39 1049C664.094 1043 663.599 1031.75 665.854 1026C667.605 1021.54 672.215 1018.21 671.721 1013C670.686 1002.09 661.078 996.128 662 984L678 989C680.558 984.642 680.324 981.768 679 977L693 978L694 960C708.48 963.479 709.736 976.138 704 988L733 991L731 977L739 978C737.691 973.87 736.281 969.389 737.313 965.015C737.883 962.603 740.427 960.422 740.369 957.935C740.289 954.507 734.937 952.654 733.275 949.895C727.57 940.427 725.224 925.963 713 923C715.143 911.623 716.635 904.002 703 904L703 914C695.493 914 688.721 914.457 685.854 906C684.919 903.242 685.833 899.058 683.972 896.742C681.116 893.187 674 894.915 670.225 892.683C666.164 890.282 665.59 884.461 661.895 881.43C657.868 878.126 648.858 878.803 646.603 873.772C642.627 864.901 648.871 854.518 645 845C637.359 848.615 627.218 858.61 618.043 857.218C611.677 856.251 612.321 847.278 606.895 844.703C588.599 836.019 566.105 830.603 546 827.729C538.896 826.714 529.986 824.235 523 826M525 914L524 918C515.195 917.306 512.668 918.489 509 927L521 932L529 915L525 914M483 917L480 926L489 930C491.702 923.17 489.811 919.886 483 917z"/>
</svg>
