<?xml version="1.0" standalone="yes"?>
<svg xmlns="http://www.w3.org/2000/svg" width="1007" height="1450">
<path style="fill:#010101; stroke:none;" d="M0 0L0 1450L1007 1450L1007 0L0 0z"/>
<path style="fill:#ffffff; stroke:none;" d="M521 351C519.687 360.741 516.39 370.459 511.576 379C507.396 386.415 500.542 395.305 500.043 404C499.288 417.175 500.292 430.931 498.576 444C496.41 460.496 505.206 470.753 515.961 482C518.938 485.113 523.164 492.607 528 492.669C531.744 492.717 537.12 487.838 539.61 485.331C553.756 471.081 538.446 461.564 539.329 447C540.032 435.402 540.081 422.18 543.558 411C544.989 406.398 549.028 403.407 550.867 399C557.054 384.169 550.692 368.839 537.996 359.637C533.002 356.018 526.676 353.363 521 351z"/>
</svg>
