<?xml version="1.0" standalone="yes"?>
<svg xmlns="http://www.w3.org/2000/svg" width="1007" height="1450">
<path style="fill:#010101; stroke:none;" d="M0 0L0 1450L1007 1450L1007 0L0 0z"/>
<path style="fill:#ffffff; stroke:none;" d="M847 492C852.113 502.811 863.452 514.538 863 526C858.475 526.575 849.207 526.5 845.858 529.858C843.128 532.595 844.118 537.622 844.576 541C845.796 549.982 841.109 564.76 846.938 572.39C859.596 588.958 895.366 583.527 909.852 573.265C919.989 566.085 908.649 542.9 909.685 533C910.044 529.571 911.205 524.109 913.702 521.588C915.344 519.93 918.347 519.856 919.357 517.567C920.628 514.688 918.924 511.112 920.008 508C921.202 504.575 923.899 501.862 922.922 498C920.304 487.648 910.791 486.974 902 485.59C882.547 482.528 863.54 480.119 847 492z"/>
</svg>
