<?xml version="1.0" standalone="yes"?>
<svg xmlns="http://www.w3.org/2000/svg" width="1007" height="1450">
<path style="fill:#010101; stroke:none;" d="M0 0L0 1450L1007 1450L1007 0L0 0z"/>
<path style="fill:#ffffff; stroke:none;" d="M384 1074L369 1103C379.716 1107.45 399.69 1100.42 394.382 1085C392.8 1080.4 387.814 1076.69 384 1074M412 1084L405 1096L403 1090L402 1090L381.419 1111.43L374 1130C387.342 1135.59 396.198 1146.94 406.015 1157C413.764 1164.94 423.022 1172.51 428.968 1182C431.114 1185.42 430.378 1189.63 432.603 1192.91C437.719 1200.45 444.493 1204.65 447.377 1214C450.706 1224.8 445.409 1234.35 446.302 1245C447.115 1254.69 453.043 1272.49 462 1276.97C466.093 1279.02 470.87 1277.23 475 1279.43C480.005 1282.11 483.4 1287.14 489 1288.79C493.261 1290.04 504.775 1292.52 508.362 1289.39C513.707 1284.74 511.431 1276.96 511.093 1271C510.345 1257.78 513.803 1248.89 507.895 1236.01C504.919 1229.53 497.877 1226.04 493.213 1220.91C488.046 1215.23 484.246 1206.12 481.464 1199C479.234 1193.3 477.34 1186.16 477.34 1180C477.34 1176.45 479.979 1170.85 477.933 1167.64C475.716 1164.16 469.433 1162.66 466 1160.65C459.699 1156.96 452.05 1151.09 447.966 1144.99C440.427 1133.71 443.778 1122.4 438.911 1111C434.393 1100.41 421.206 1090.41 412 1084z"/>
</svg>
