<?xml version="1.0" standalone="yes"?>
<svg xmlns="http://www.w3.org/2000/svg" width="1007" height="1450">
<path style="fill:#010101; stroke:none;" d="M0 0L0 1450L1007 1450L1007 0L0 0z"/>
<path style="fill:#ffffff; stroke:none;" d="M833 829C823.426 842.27 805.548 833.465 791.184 838.279C786.522 839.841 785.276 845.518 781.674 848.436C777.832 851.548 771.664 851.134 767 852L766 862L777.815 864.938L792 874C789.849 890.93 786.191 925.919 813 915C818.004 925.578 824.518 928.935 835 933C837.113 925.5 837.74 915.352 842.43 909C848.456 900.839 859.414 895.117 863.972 886C867.162 879.62 863.909 870.853 865.39 864C867.404 854.687 876.769 844.296 866.722 835.653C860.133 829.984 841.666 831.005 833 829z"/>
</svg>
