<?xml version="1.0" standalone="yes"?>
<svg xmlns="http://www.w3.org/2000/svg" width="1007" height="1450">
<path style="fill:#010101; stroke:none;" d="M0 0L0 1450L1007 1450L1007 0L0 0z"/>
<path style="fill:#ffffff; stroke:none;" d="M528 494C531.507 506.178 530.825 519.144 535.464 531C540.84 544.741 551.908 556.609 555.649 571C557.377 577.648 552.857 596.986 559.148 600.146C575.133 608.174 592.861 580.884 599.062 570C606.958 556.14 599.4 544.891 600.688 531C601.821 518.772 604.849 503.085 610.124 492C614.843 482.085 623.092 472.142 621.186 460C620.219 453.841 612.652 447.846 609 443C590.66 447.346 563.622 457.295 549.39 469.904C545.537 473.319 544.885 478.803 542.031 482.91C538.723 487.668 532.852 491.005 528 494z"/>
</svg>
