<?xml version="1.0" standalone="yes"?>
<svg xmlns="http://www.w3.org/2000/svg" width="1007" height="1450">
<path style="fill:#010101; stroke:none;" d="M0 0L0 1450L1007 1450L1007 0L0 0z"/>
<path style="fill:#ffffff; stroke:none;" d="M531 314C529.93 324.392 518.006 338.424 522.643 349.61C524.518 354.133 533.224 355.928 537 358.637C546.052 365.13 553.228 374.811 554.292 386C555.356 397.199 545.52 403.822 543.754 414C541.855 424.943 538.812 438.946 540.228 450C541.085 456.697 545.98 462.198 547 469C555.563 467.349 564.191 461.151 572 457.247C588.432 449.031 607.483 447.055 615 429L648 436C648 417.819 645.817 402.961 640.648 386C639.41 381.939 640.215 377.102 638.411 373.213C636.9 369.956 632.797 369.586 631.067 366.61C629.425 363.784 631.93 360.091 629.958 357.426C627.056 353.507 622.204 360.648 618.615 358.978C613.077 356.4 609.703 348.044 607 343C603.694 343.938 600.369 345.124 597 345.802C579.365 349.35 582.269 327.054 587.382 318C588.853 315.396 591.246 311.422 590.223 308.278C589.406 305.766 586.158 305.057 583.999 304.189C577.626 301.628 573.158 294.166 567 292.418C558.503 290.006 555.775 302.517 551.786 306.911C545.57 313.756 539.618 314 531 314z"/>
</svg>
