<?xml version="1.0" standalone="yes"?>
<svg xmlns="http://www.w3.org/2000/svg" width="1007" height="1450">
<path style="fill:#010101; stroke:none;" d="M0 0L0 1450L1007 1450L1007 0L0 0z"/>
<path style="fill:#ffffff; stroke:none;" d="M790 610L800 606C798.908 601.392 794.849 597.763 794.653 593C794.518 589.722 795.371 586.216 795.921 583C800.457 556.467 825.464 580.129 838.995 575.821C841.317 575.082 844.048 573.35 844.512 570.79C845.2 566.998 843.239 562.863 843.495 559C844.043 550.718 846.122 538.359 843.227 530.314C841.788 526.315 833.579 527.001 830.638 523.721C827.555 520.283 827.742 513.781 824.272 511.024C821.115 508.515 814.796 509.261 811 508.701C799.039 506.934 786.654 500.955 775.225 508.934C771.309 511.669 770.853 517.106 766.895 520.046C760.063 525.119 747.02 529.647 745.002 539.004C743.394 546.456 754.6 551.729 758.362 557C761.216 560.998 762.277 565.908 764.969 569.985C768.487 575.312 774.228 578.735 777.957 584C783.831 592.294 786.082 600.896 790 610z"/>
</svg>
