<?xml version="1.0" standalone="yes"?>
<svg xmlns="http://www.w3.org/2000/svg" width="1007" height="1450">
<path style="fill:#010101; stroke:none;" d="M0 0L0 1450L1007 1450L1007 0L0 0z"/>
<path style="fill:#ffffff; stroke:none;" d="M728 207L728 208C721.382 212.121 701.66 218.851 699.929 227.039C699.21 230.44 701.633 234.898 702.808 238C704.036 241.242 705.047 247.855 709.133 248.624C713.652 249.473 716.334 244.674 720 243.116C722.718 241.962 726.139 242.879 729 243C729.99 250.349 733.772 258.6 730.436 265.895C728.7 269.691 723.503 270.207 722.318 274.213C720.752 279.506 722.781 285.579 721.61 291C717.854 308.373 713.879 323.169 713.504 341C713.403 345.816 709.432 350.213 709.892 355C710.217 358.384 713.136 360.896 714.276 364C715.683 367.83 715.163 372.171 716.574 376C718.116 380.183 721.838 383.088 723.875 387C726.076 391.227 725.635 396.969 729.303 400.363C736.912 407.401 752.256 410.304 756.397 421.039C758.249 425.842 757 432.914 757 438C757 453.878 753.289 470.27 754.144 486C754.695 496.115 763.962 508.458 769 517C773.856 510.577 780.491 497.742 782.596 490C784.624 482.537 783.833 474.901 788.363 468.133C791.749 463.076 798.084 464.535 802.482 461.146C810.187 455.209 814.964 442.713 818.575 434C823.17 422.913 818.794 408.807 825.303 398.225C828.281 393.383 835.456 393.535 839.714 390.298C846.25 385.328 847.184 378.187 851.728 372.213C855.009 367.899 860.247 367.032 863 362C844.215 351.985 825.875 346.275 812.634 328C810.072 324.463 806.592 319.432 806.102 315C805.091 305.868 813.877 294.354 799 293L800.397 268L797 246C786.106 246.469 785.326 253.453 776.911 257.972C771.22 261.028 760.384 260 754 260C756.461 247.315 766.075 246.988 772.768 237C776.125 231.99 772.802 227.373 773.807 222C775.33 213.857 780.385 209.898 778.739 201C778.02 197.112 776.94 185.27 772.697 183.773C764.957 181.042 754.252 187.592 746.105 186.397C738.398 185.266 738.516 171.881 727.089 178.028C714.538 184.78 718.998 200.115 728 207z"/>
</svg>
