<?xml version="1.0" standalone="yes"?>
<svg xmlns="http://www.w3.org/2000/svg" width="1007" height="1450">
<path style="fill:#010101; stroke:none;" d="M0 0L0 1450L1007 1450L1007 0L0 0z"/>
<path style="fill:#ffffff; stroke:none;" d="M586 222C580.751 231.428 571.368 239.401 566.988 249C564.062 255.414 567.799 265.098 560.867 269.633C552.563 275.064 541.115 268.948 532 270.329C519.186 272.27 510.142 280.714 500 288C502.917 295.005 506.9 307.342 512.637 312.397C515.479 314.9 519.651 313.681 523 313.286C530.495 312.402 540.428 315.207 546.996 310.852C552.43 307.249 558.866 287.906 567.424 291.994C574.391 295.322 579.403 301.451 586.98 304.7C589.06 305.592 591.049 306.589 591.214 309.108C591.943 320.241 573.495 333.891 589.105 343.987C607.717 356.025 610.134 325.051 614.652 316.105C618.267 308.946 628.551 310.405 633.262 304.606C635.916 301.339 636.093 295.85 637.781 292C643.02 280.05 648.069 269.784 651 257C646.212 255.007 638.957 252.676 636.314 247.895C633.271 242.391 635.24 235.051 628.945 231.434C620.211 226.416 613.483 237.302 605.004 235.881C597.612 234.643 593.514 225.129 586 222z"/>
</svg>
