<?xml version="1.0" standalone="yes"?>
<svg xmlns="http://www.w3.org/2000/svg" width="1007" height="1450">
<path style="fill:#010101; stroke:none;" d="M0 0L0 1450L1007 1450L1007 0L0 0z"/>
<path style="fill:#ffffff; stroke:none;" d="M844 945C835.466 947.214 829.887 955.004 821 956.738C814.047 958.095 809.593 962.931 803 964.532C799.823 965.303 793.183 964.853 791.067 967.742C789.67 969.65 790.747 972.863 790.914 975C791.833 986.701 798.332 987.535 807 993.885C815.983 1000.47 822.921 1011.97 834 1014.86C839.392 1016.27 844.503 1012.55 849 1010C861.015 1003.18 867.925 998.101 867.999 983C868.026 977.5 869.161 970.424 867.682 965.105C865.219 956.245 848.335 954.773 844 945z"/>
</svg>
