<?xml version="1.0" standalone="yes"?>
<svg xmlns="http://www.w3.org/2000/svg" width="1007" height="1450">
<path style="fill:#010101; stroke:none;" d="M0 0L0 1450L1007 1450L1007 0L0 0z"/>
<path style="fill:#ffffff; stroke:none;" d="M479 927C476.193 933.742 470.595 940.455 472 948L483 948L478 957C483.832 959.723 490.351 965.753 496.996 965.836C509.551 965.994 516.433 942.196 520 933L508 928L502 944C495.038 941.144 487.171 939.746 488 931L479 927M521 940L496 976C510.138 986.471 522.366 990.148 539.996 987.266C545.802 986.317 559.439 977.967 554.721 971.133C550.874 965.562 541.687 965.855 536 963L545 959C535.862 950.357 535.159 941.799 521 940z"/>
</svg>
