<?xml version="1.0" standalone="yes"?>
<svg xmlns="http://www.w3.org/2000/svg" width="1007" height="1450">
<path style="fill:#010101; stroke:none;" d="M0 0L0 1450L1007 1450L1007 0L0 0z"/>
<path style="fill:#ffffff; stroke:none;" d="M480 673C489.298 678.144 492.504 675.732 501 670L498 681L561 660L561 661C540.729 670.632 524.32 685.47 503 694C494.586 697.366 486.836 698.865 486 709L513 701C508.333 706.561 501.139 706.117 496.858 710.728C491.721 716.261 491.938 733.619 491 741C500.334 740.993 499.122 736.484 506.105 732.557C511.009 729.799 518.163 729.611 521.648 724.775C525.397 719.573 526.54 711.873 531.39 707.513C535.738 703.605 544.439 703.147 550 702C545.688 712.357 539.419 712.968 532.637 720.39C529.059 724.307 528.474 730.984 524.363 734.357C521.008 737.11 513.589 732.912 511.774 738.278C509.354 745.432 524.132 755.689 530 756.245C540.976 757.283 550.38 748.073 556 740L557 740L562 744L562 745L557 750L570 752L570 758L560 758L563 765C555.468 765.318 552.792 765.061 549 758C541.065 760.918 544.558 778.409 543 786C554.668 789.94 563.867 786.566 575 782C571.058 795.423 553.736 796.211 542 794L540 807C529.469 806.963 529.695 800.336 526 792L513 795L516 813L508 814L506 805L504 805L504 815C493.684 814.964 497.726 809.679 491.436 805.028C487.308 801.976 476.979 803.001 472 803C475.07 817.881 481.962 816.949 496 817.911C507.82 818.72 520.303 816.377 532 818.326C543.975 820.321 554.808 826.258 566 830.539C579.05 835.532 592.809 838.899 605.957 843.533C612.274 845.76 611.622 855.238 618.044 856.462C634.415 859.582 642.432 837.602 660 846L662 833L678 833L678 842L706 844L707 839C714.004 843.841 714 847.947 714 856L719 856L719 843L729 847C731.876 839.378 730.882 828.331 741 828L740 818L732 817C730.229 811.664 725.479 813.761 721 812.301C713.79 809.95 706.258 804.942 706 797L721 802C721.898 790.619 730.634 773.014 713 773L713 767L707 767C706.412 763.597 705.351 762.728 702 762C703.993 751.264 701.598 744.986 699 735L707 736L707 731L704 731C703.529 725.29 701.851 722.134 697 719L697 718L706 715C706 705.816 702.677 683.674 712.214 678.028C718.417 674.355 725.536 681.469 731.467 676.297C735.417 672.852 733.815 668.178 736.028 664.09C739.895 656.947 747.86 656.001 755 656L747 645L757 647L759 634L740 639C740.339 631.109 742.975 620.36 732 620L734 629L725 628C728.093 636.285 723.662 640.819 715 640C714.977 631.63 714.839 620.184 707.895 614.314C704.925 611.803 700.381 612.197 697.727 609.436C694.881 606.475 694.442 602.726 691 600L691 599L704 588L704 587C698.289 579.798 692.408 571.305 702 565L702 563C697.385 560.683 690.776 560.399 687.604 555.891C684.359 551.279 692.582 539.569 684.977 539.587C677.199 539.606 676.888 545.346 671.788 549.273C667.692 552.427 663.976 553.129 661.137 558.004C658.041 563.321 658.91 570.893 651 572.378C647.949 572.951 645.17 571.156 642 571.948C635.858 573.482 629.517 579.775 623 578.694C614.787 577.331 609.995 567.29 601 570.603C593.043 573.535 591.835 581.973 587.351 587.91C583.223 593.374 575.316 598.597 569 601.161C559.969 604.828 547.546 593.108 539.514 600.703C532.052 607.759 545.59 619.282 536.852 626.034C530.177 631.192 521.144 631.97 514.21 636.417C509.452 639.468 508.425 645.956 503.79 649.062C492.183 656.841 484.413 657.682 480 673M451 724L483 730C483 725.279 484.696 716.572 481.397 712.786C471.985 701.985 453.437 712.393 451 724M466 757L463 753L463 752L475 741C471.171 736.315 466.877 734.701 461 733.87C455.85 733.141 446.318 729.814 441.39 731.693C430.591 735.81 432.142 753.538 440.529 758.972C447.912 763.756 459.04 760.23 466 757M467 767L469 778C477.19 779.029 481.879 776.695 487 770L488 770L492 774L492 775C486.43 778.496 483.836 781.308 485 788L500 785L504 793L530 783C528.868 776.991 529.217 766.222 525.258 761.418C519.943 754.968 511.682 758.435 505 759.242C500.774 759.751 497.148 757.294 493 757.513C484.872 757.942 474.331 763.572 467 767z"/>
</svg>
