<?xml version="1.0" standalone="yes"?>
<svg xmlns="http://www.w3.org/2000/svg" width="1007" height="1450">
<path style="fill:#010101; stroke:none;" d="M0 0L0 1450L1007 1450L1007 0L0 0z"/>
<path style="fill:#ffffff; stroke:none;" d="M742 956C739.48 964.971 736.913 969.26 740 979L732 978L734 992L703 989L701.564 1011L706.852 1027L702.394 1040L703 1052C717.049 1054.61 733.568 1057.08 740.182 1072C743.55 1079.59 738.466 1084.63 738.043 1092C737.153 1107.51 751.347 1113.16 765 1115L778.298 1094L780.17 1072L782.586 1054L778 1027C786.849 1027.07 794.059 1030.6 797 1020C792.959 1018.32 785.201 1016 783.198 1011.79C780.636 1006.4 785.44 997.689 787.752 993C790.979 986.457 792.517 975.074 788.566 968.278C786.438 964.617 780.69 964.104 777 962.975C765.662 959.507 753.532 959.248 742 956z"/>
</svg>
