<?xml version="1.0" standalone="yes"?>
<svg xmlns="http://www.w3.org/2000/svg" width="1007" height="1450">
<path style="fill:#010101; stroke:none;" d="M0 0L0 1450L1007 1450L1007 0L0 0z"/>
<path style="fill:#ffffff; stroke:none;" d="M695 961L694 979L680 978C683.497 991.916 671.253 987.686 663 985C660.808 996.994 671.204 1002.34 672.448 1013C673.063 1018.27 667.298 1022.03 666.279 1027C663.48 1040.63 666.786 1059.88 675 1071C679.773 1067.15 682.801 1061.32 688.015 1057.99C691.695 1055.65 698.433 1055.27 700.968 1051.5C702.978 1048.51 700.858 1044.32 701.43 1041C702.418 1035.27 706.413 1031.17 705.891 1025C705.433 1019.59 701.074 1015.36 700.854 1010C700.262 995.581 708.218 983.146 705.852 969.09C704.977 963.895 699.48 962.077 695 961z"/>
</svg>
