<?xml version="1.0" standalone="yes"?>
<svg xmlns="http://www.w3.org/2000/svg" width="1007" height="1450">
<path style="fill:#010101; stroke:none;" d="M0 0L0 1450L1007 1450L1007 0L0 0z"/>
<path style="fill:#ffffff; stroke:none;" d="M621 1299C633.501 1296.41 635.745 1290.94 645.09 1283.63C653.218 1277.28 663.197 1271 672 1265.56C677.81 1261.97 686.506 1262.84 691.61 1258.44C697.696 1253.18 698.32 1245.87 706 1241.43C722.229 1232.04 741.635 1228.05 759.714 1225.36C765.343 1224.52 770.525 1229.53 776.787 1227.68C781.758 1226.21 782.051 1219.03 787.043 1216.88C801.219 1210.77 820.811 1224.67 834.482 1215.97C839.092 1213.04 842.722 1204.82 845 1200C839.455 1195.54 838.631 1189.54 834.362 1184.29C830.998 1180.15 826.191 1177.62 823.352 1172.99C820.29 1167.99 818.708 1160.75 814.363 1156.7C810.114 1152.75 802.943 1152.79 798 1149.91C793.057 1147.04 790.294 1141.94 785.961 1138.39C782.093 1135.22 777.12 1133.94 773.105 1131.03C767.892 1127.26 768.031 1119.53 762.786 1116.14C755.095 1111.17 746.122 1110.98 739.318 1103.54C732.289 1095.84 741.145 1086.11 740.786 1078C740.017 1060.63 719.307 1054.32 705 1053.33C680.052 1051.59 679.076 1076.25 670.677 1092C664.569 1103.45 644.865 1113.48 642.89 1126C641.567 1134.38 651.616 1138.6 652.856 1146C655.591 1162.34 648.378 1173.58 645.015 1189C643.513 1195.89 644.029 1205.59 640.566 1211.78C637.868 1216.59 630.505 1216.71 626.185 1219.42C622.714 1221.59 621.336 1225.71 617.896 1227.91C613.457 1230.76 607.462 1230.67 603.225 1233.84C598.73 1237.21 594.6 1249.5 593.934 1255C592.444 1267.29 611.875 1269.81 616.582 1278.04C620.617 1285.1 616.113 1291.85 621 1299z"/>
</svg>
