<?xml version="1.0" standalone="yes"?>
<svg xmlns="http://www.w3.org/2000/svg" width="1007" height="1450">
<path style="fill:#010101; stroke:none;" d="M0 0L0 1450L1007 1450L1007 0L0 0z"/>
<path style="fill:#ffffff; stroke:none;" d="M707 716L698 718L698 719L708 730L708 737L700 736C702.439 745.387 704.884 750.853 703 761L708 762L708 766L714 766L714 772L723 772C723.939 776.302 729.137 779.281 733.258 775.972C737.519 772.552 735.677 763.82 740.133 759.428C754.072 745.693 776.205 748.998 794 749C794.065 767.328 818.72 756.6 830 756.459C835.29 756.393 840.947 758.577 846 760C849.635 744.738 854.579 732.617 860.604 718C862.999 712.19 868.452 706.381 868.853 700C869.385 691.518 864.236 688.09 861.603 681C860.084 676.911 861.615 671.188 858.976 667.51C854.433 661.18 842.622 662.337 836 661.957C830.809 661.659 826.936 658.458 822 657.39C812.903 655.424 801.169 656.629 792 657.714C785.176 658.522 776.414 663.429 770 662.973C760.078 662.267 752.733 652.576 742.005 658.854C734.096 663.482 737.695 673.319 729.907 677.895C724.414 681.123 718.031 675.922 712.394 678.603C703.434 682.865 707 708.001 707 716z"/>
</svg>
