<?xml version="1.0" standalone="yes"?>
<svg xmlns="http://www.w3.org/2000/svg" width="1007" height="1450">
<path style="fill:#010101; stroke:none;" d="M0 0L0 1450L1007 1450L1007 0L0 0z"/>
<path style="fill:#ffffff; stroke:none;" d="M712 879C714.705 892.947 716.637 908.002 714 922C726.987 928.513 726.014 945.174 736.278 952.637C744.947 958.94 758.828 958.826 769 960.181C776.075 961.123 782.853 965.471 790 965.646C800.093 965.893 806.472 961.344 815 957.433C818.784 955.697 823.161 955.993 827 954.362C832.753 951.918 837.695 947.274 843 944L813 916L793 917C792.655 912.631 792.66 904.1 789.825 900.603C787.133 897.283 768.154 896.828 764.275 898.603C760.785 900.201 760.762 904.915 758.301 907.487C755.984 909.909 752.122 910.353 749 911L739.753 880L731.895 870.153L712 879z"/>
</svg>
