<?xml version="1.0" standalone="yes"?>
<svg xmlns="http://www.w3.org/2000/svg" width="1007" height="1450">
<path style="fill:#010101; stroke:none;" d="M0 0L0 1450L1007 1450L1007 0L0 0z"/>
<path style="fill:#ffffff; stroke:none;" d="M517 989L507.603 1006L504.877 1016L490 1037L499.323 1045.67L498.191 1058.94L510 1061.56L524.397 1075L525.326 1093L534.453 1127L547.171 1175L545.468 1203L556.785 1225L547.055 1254L545 1277C548.752 1278.77 552.786 1282.61 557 1282.96C567.419 1283.83 573.828 1271.07 580.174 1265.38C583.982 1261.96 589.709 1260.28 592.468 1255.79C596.433 1249.33 596.489 1238.78 602.394 1233.7C606.303 1230.34 612.359 1230.1 616.896 1227.89C620.937 1225.93 622.438 1221.47 626.093 1218.99C629.836 1216.46 635.13 1216.27 638.486 1213.18C642.809 1209.21 642.425 1198.5 643.424 1193C646.194 1177.77 660.292 1156.38 650.397 1141C642.25 1128.34 618.696 1135.32 613.318 1122C611.735 1118.08 613.912 1115.81 613.857 1112C613.767 1105.65 610.902 1092.37 607.298 1087C600.983 1077.59 587.641 1080.78 582.43 1070C580.029 1065.03 575.617 1056.46 575.318 1051C575.149 1047.91 579.003 1042.51 576.214 1040.03C573.99 1038.04 568.757 1039 566 1039L565 1007L563 1007L557 1015C557.004 1009.45 559.969 1003.21 559.134 998C556.529 981.72 528.903 989 517 989z"/>
</svg>
