<?xml version="1.0" standalone="yes"?>
<svg xmlns="http://www.w3.org/2000/svg" width="1007" height="1450">
<path style="fill:#010101; stroke:none;" d="M0 0L0 1450L1007 1450L1007 0L0 0z"/>
<path style="fill:#ffffff; stroke:none;" d="M663 834L661 848C655.79 843.929 652.34 842.859 646 845L647.603 873.697L659.996 879.728L669.498 891.258L686 895C686 908.311 688.286 913 702 913L702 903L713 903L711 878C726.282 874.836 735.943 867.273 738 852L720 844L720 857L713 857C713 850.797 714.681 843.799 708 841L707 845L677 843L677 834L663 834z"/>
</svg>
