<?xml version="1.0" standalone="yes"?>
<svg xmlns="http://www.w3.org/2000/svg" width="1007" height="1450">
<path style="fill:#010101; stroke:none;" d="M0 0L0 1450L1007 1450L1007 0L0 0z"/>
<path style="fill:#ffffff; stroke:none;" d="M839 608L840.028 618.482L858.397 631.174L863 656C870.12 651.881 874.718 643.056 880.171 637C885.215 631.397 891.958 627.119 896.363 620.999C905.365 608.49 903.673 593.347 901 579C888.668 583.172 873.904 585.223 861 581.351C855.987 579.847 852.096 575.326 847 574.208C842.667 573.257 839.392 577.297 835 576.532C826.292 575.017 815.06 568.401 806 570.792C794.021 573.952 792.013 596.135 800.749 603.397C803.391 605.593 807.755 605.149 811 605.576C820.093 606.77 829.828 607.606 839 608z"/>
</svg>
