<?xml version="1.0" standalone="yes"?>
<svg xmlns="http://www.w3.org/2000/svg" width="1007" height="1450">
<path style="fill:#010101; stroke:none;" d="M0 0L0 1450L1007 1450L1007 0L0 0z"/>
<path style="fill:#ffffff; stroke:none;" d="M390 53C379.44 53.0874 371.756 56.7933 374.39 69C377.707 84.3679 385.741 78.2533 395.815 84.0277C400.014 86.4347 402.201 92.585 403.355 97C406.298 108.259 397.38 117.88 398.468 129C398.899 133.407 399.404 138.976 401.312 143C403.569 147.756 408.4 152.013 406.968 157.91C405.878 162.401 400.323 163.766 398.024 167.464C394.493 173.143 394.418 192.421 399.564 197.157C404 201.239 421.096 208.995 427 209.772C432.683 210.52 437.461 207.993 442.985 210.839C450.35 214.634 450.164 225.316 458.043 227.826C468.361 231.112 482.079 225.133 490.895 232.533C494.748 235.767 496.522 240.755 499 245L525 238.953L544 251.775L565 257C565.175 242.204 582.997 231.625 588.157 218C590.674 211.352 588.067 203.788 588.198 197.015C588.285 192.453 591.376 187.827 591.83 183C592.411 176.824 590.106 171.085 590.144 165C590.179 159.388 599.157 152.643 595.954 147.419C591.768 140.594 571.354 137.014 564 133.989C550.497 128.434 535.87 119.6 521 119.04C513.342 118.752 508.215 126.075 501.001 124.926C494.007 123.812 492.583 116.157 485.96 114.889C479.146 113.584 475.351 116.454 469 116.984C463.808 117.417 456.508 113.512 452 111.18C446.201 108.179 439.362 103.791 437.944 96.9993C434.82 82.0424 449.061 67.3231 431.961 54.9043C426.529 50.9596 421.515 52.2648 416.184 49.8025C412.789 48.2344 411.665 43.9772 408.535 42.0238C398.788 35.9401 390.119 42.8672 390 53z"/>
</svg>
