<?xml version="1.0" standalone="yes"?>
<svg xmlns="http://www.w3.org/2000/svg" width="1007" height="1450">
<path style="fill:#010101; stroke:none;" d="M0 0L0 1450L1007 1450L1007 0L0 0z"/>
<path style="fill:#ffffff; stroke:none;" d="M355 1129L355 1130C362.278 1136.38 361.786 1138.8 357 1147L351 1137L345 1141L345 1142L352 1151C347.468 1153.14 343.585 1156.45 339 1158.47C330.153 1162.37 316.264 1161.73 318.833 1176C319.953 1182.22 330.226 1190.09 328.303 1196.42C325.52 1205.59 314.789 1213.6 310 1222C318.126 1225.74 328.623 1216.45 335.7 1220.78C341.96 1224.61 356.701 1243.74 357.755 1251C358.408 1255.51 354.794 1259.39 356.062 1264C358.499 1272.86 365.35 1283.03 370 1291C385.92 1284.84 380.038 1299.85 392 1304.91C396.545 1306.83 401.282 1304.69 406 1305.3C417.051 1306.75 427.781 1309.89 439 1310.67C446.349 1311.19 466.471 1306.74 472.787 1302.84C478.707 1299.17 478.402 1292.28 486 1290C479.538 1277.9 468.397 1282.94 460 1275.85C454.772 1271.44 447.16 1267.83 442.564 1263.3C439.107 1259.89 439.135 1254.76 434.981 1251.39C430 1247.36 421.937 1246.99 417.589 1242.35C415.346 1239.96 415.742 1236.3 413.436 1233.9C406.743 1226.95 392.793 1224.39 388.032 1215.82C385.925 1212.02 388.361 1207.11 387.783 1203C386.882 1196.59 376.56 1185.16 380.492 1179.1C382.813 1175.53 394.907 1177.38 400 1175L397 1164L407 1159C398.707 1147.18 386.64 1135.29 373 1129.93C367.14 1127.62 360.473 1125.3 355 1129z"/>
</svg>
