<?xml version="1.0" standalone="yes"?>
<svg xmlns="http://www.w3.org/2000/svg" width="1007" height="1450">
<path style="fill:#010101; stroke:none;" d="M0 0L0 1450L1007 1450L1007 0L0 0z"/>
<path style="fill:#ffffff; stroke:none;" d="M464 955L455 967L463 965L466 972L462 974L464 978C476.86 973.921 471.635 961.777 464 955M435 960L425.316 976L435.715 990L457.09 1013.3L475.775 1021.09L490 1036C494.879 1029.53 500.858 1023.35 504.438 1016C506.02 1012.75 505.406 1009.11 507.318 1006C510.069 1001.52 517.922 996.34 515.392 990.213C513.838 986.449 508.169 984.97 505 982.899C494.692 976.163 477.895 968.089 482 988L472 991L471 981L464 983L467 990C460.084 991.892 455.854 994.253 453 1001C450.352 998.343 446.936 995.618 445.603 992C441.847 981.806 445.82 966.704 435 960z"/>
</svg>
