<?xml version="1.0" standalone="yes"?>
<svg xmlns="http://www.w3.org/2000/svg" width="1007" height="1450">
<path style="fill:#010101; stroke:none;" d="M0 0L0 1450L1007 1450L1007 0L0 0z"/>
<path style="fill:#ffffff; stroke:none;" d="M293 1200C287.043 1205.96 279.921 1216.41 272.285 1220.01C269.715 1221.22 267.577 1219 264.996 1219.24C260.757 1219.64 254.864 1226.09 253.693 1230C250.8 1239.65 257.909 1253.18 262.6 1261C266.933 1268.22 268.638 1277.3 273.38 1284C281.159 1294.99 291.821 1302.85 296.452 1316C301.798 1331.18 301.233 1352.62 318 1361C322.289 1354.11 328.19 1343.5 335.09 1339.07C342.849 1334.1 353.033 1334.17 360.895 1329.7C365.231 1327.23 365.985 1322 368.363 1318.01C373.179 1309.95 377 1309.14 377 1299L383 1299L380 1288L369 1292L355.548 1264L356.308 1248L336 1220C329.573 1220.87 320.333 1225.49 314.004 1223.96C305.092 1221.8 299.258 1206.14 293 1200z"/>
</svg>
