<?xml version="1.0" standalone="yes"?>
<svg xmlns="http://www.w3.org/2000/svg" width="1007" height="1450">
<path style="fill:#010101; stroke:none;" d="M0 0L0 1450L1007 1450L1007 0L0 0z"/>
<path style="fill:#ffffff; stroke:none;" d="M792 986C788.782 991.513 779.876 1005.78 784.067 1012.36C786.454 1016.11 794.044 1018.35 798 1020C793.833 1030.71 788.976 1028.08 779 1028C779 1034.47 778.466 1048.68 784.513 1052.97C787.533 1055.11 793.473 1054 797 1054C798.951 1069.36 808.381 1067.81 818.985 1076.39C828.225 1083.87 830.582 1100.1 846 1091C845.117 1087.27 843.244 1083.75 842.568 1080C840.393 1067.92 854.712 1064.29 864 1065.5C867.578 1065.97 872.27 1068.06 875.397 1065.14C878.288 1062.44 876.948 1055.62 877.424 1052C880.099 1031.63 874.382 1019.67 864 1003C855.85 1006.39 845.803 1015.32 837 1015.83C828.031 1016.35 822.508 1007.47 816.961 1002.09C809.847 995.197 801.109 989.792 792 986z"/>
</svg>
