<?xml version="1.0" standalone="yes"?>
<svg xmlns="http://www.w3.org/2000/svg" width="1007" height="1450">
<path style="fill:#010101; stroke:none;" d="M0 0L0 1450L1007 1450L1007 0L0 0z"/>
<path style="fill:#ffffff; stroke:none;" d="M743 543C736.316 552.017 730.043 559.784 719 563.402C713.276 565.277 703.111 563.67 698.607 568.009C693.398 573.029 701.268 583.685 705 587L705 588L692 599L692 600C694.398 602.696 695.918 606.851 698.559 609.143C703.505 613.434 708.96 613.342 712.583 620C715.067 624.566 713.522 635.86 717.603 638.802C720.651 641 724.585 637.656 727 636L724 627L733 628C730.439 615.591 717.092 583.262 734.21 575.198C738.766 573.051 746.137 576.543 751 576.606C755.782 576.669 759.946 573.158 764 571C760.501 558.762 753.343 550.258 743 543z"/>
</svg>
