<?xml version="1.0" standalone="yes"?>
<svg xmlns="http://www.w3.org/2000/svg" width="1007" height="1450">
<path style="fill:#010101; stroke:none;" d="M0 0L0 1450L1007 1450L1007 0L0 0z"/>
<path style="fill:#ffffff; stroke:none;" d="M428 1008C427.332 1013.28 425.838 1017.83 431 1021L427 1030C431.252 1033.06 438.664 1038.36 430 1041L434 1055C431.221 1053.11 426.762 1048.65 423.152 1049.17C414.857 1050.38 424.545 1062.02 429 1063L426 1070C421.261 1068.03 417.886 1065.62 414 1070L413 1070L405 1048C396.521 1053.25 408.31 1064 400 1071C403.359 1074.18 406.048 1072.6 410 1071L406 1076L406 1077C416.564 1087.56 432.545 1097.52 439.431 1111C445.129 1122.15 441.052 1134.61 448.966 1145.91C456.196 1156.23 471.712 1158.2 478.307 1167.39C480.758 1170.81 478.179 1176.18 478.179 1180C478.179 1186.47 480.121 1194.01 482.464 1200C485.089 1206.72 488.651 1215.36 493.39 1220.83C498.004 1226.16 505.159 1229.6 508.443 1236C515.688 1250.14 512.343 1265.71 513 1281C515.794 1279.63 518.763 1277.17 522 1277.22C529.01 1277.32 538.404 1282.57 544.062 1274.72C548.351 1268.78 545.012 1262.33 545.934 1256C547.347 1246.29 558.303 1232.58 556.087 1223C554.281 1215.19 546.092 1210.19 544.468 1202C542.495 1192.05 547.8 1183.3 546.381 1174C543.871 1157.55 536.39 1141.33 533.262 1125C531.121 1113.82 526.118 1103.05 524.326 1092C523.273 1085.5 527.033 1078.81 522.682 1073C520 1069.42 515.274 1063.83 511 1062.21C507.01 1060.71 503.922 1063.64 500 1060.75C487.949 1051.88 474.915 1044.53 463 1035.35C451.552 1026.53 440.465 1015.2 428 1008z"/>
</svg>
