<?xml version="1.0" standalone="yes"?>
<svg xmlns="http://www.w3.org/2000/svg" width="1007" height="1450">
<path style="fill:#010101; stroke:none;" d="M0 0L0 1450L1007 1450L1007 0L0 0z"/>
<path style="fill:#ffffff; stroke:none;" d="M790 624C770.703 624 759.717 626.251 758 648L750 647C753.237 654.065 761.753 661.861 770 662.397C778.258 662.933 788.999 656.706 798 656.089C818.592 654.679 840.591 659.674 860 666C863.195 658.78 862.588 637.107 857.397 630.468C849.883 620.86 838.012 624.112 838 609C827.385 607.659 798.222 600.236 791.028 611.394C788.949 614.617 790 620.323 790 624z"/>
</svg>
