<?xml version="1.0" standalone="yes"?>
<svg xmlns="http://www.w3.org/2000/svg" width="1007" height="1450">
<path style="fill:#010101; stroke:none;" d="M0 0L0 1450L1007 1450L1007 0L0 0z"/>
<path style="fill:#ffffff; stroke:none;" d="M664 505L664 506C668.896 512.169 672.081 519.765 676.966 525.721C681.631 531.409 685.862 531.997 688.888 539.83C690.998 545.292 684.024 551.21 688.603 556.57C690.893 559.25 694.873 559.327 697.957 560.482C709.528 564.816 720.803 565.341 731.711 556.363C738.892 550.452 740.993 541.927 746.43 535.089C751.905 528.203 761.002 522.446 769 519L754 489C747.425 496 740.367 511.942 730 513.933C725.324 514.831 711.706 511.37 709.6 506.775C707.695 502.623 709.341 497.28 706.397 493.464C701.01 486.48 689.588 480.474 681.428 486.6C675.009 491.418 669.726 499.274 664 505z"/>
</svg>
