<?xml version="1.0" standalone="yes"?>
<svg xmlns="http://www.w3.org/2000/svg" width="1007" height="1450">
<path style="fill:#010101; stroke:none;" d="M0 0L0 1450L1007 1450L1007 0L0 0z"/>
<path style="fill:#ffffff; stroke:none;" d="M845 1200L846 1200C853.265 1194.24 871.241 1186.72 869.337 1175C867.652 1164.63 854.123 1159.71 857.555 1148C861.015 1136.19 873.971 1128.67 878.648 1117C880.635 1112.04 879.065 1107.15 879.004 1102C878.862 1090.08 878.494 1077.82 877 1066C866.746 1069.17 839.17 1060.61 843.532 1081C844.264 1084.42 845.88 1087.69 847 1091C844.777 1092.09 842.428 1093.93 839.998 1094.47C827.85 1097.19 825.648 1081.75 818.956 1076.64C813.356 1072.36 805.514 1071.09 800.279 1066.36C794.69 1061.32 797.363 1051.91 786.228 1055.32C782.491 1056.46 782.607 1061.81 782.08 1065C780.611 1073.89 782.133 1084.5 779.298 1093C776.729 1100.7 764.965 1108.53 765.859 1117C767.209 1129.79 777.932 1131.22 785.985 1138.21C790.159 1141.84 792.943 1146.88 798.001 1149.44C803.195 1152.07 810.287 1152.27 814.61 1156.42C819.011 1160.65 820.768 1167.77 823.796 1172.96C826.714 1177.97 831.909 1180.58 835.362 1185.09C839.171 1190.07 840.191 1195.63 845 1200z"/>
</svg>
