<?xml version="1.0" standalone="yes"?>
<svg xmlns="http://www.w3.org/2000/svg" width="1007" height="1450">
<path style="fill:#010101; stroke:none;" d="M0 0L0 1450L1007 1450L1007 0L0 0z"/>
<path style="fill:#ffffff; stroke:none;" d="M106 1315C109.494 1331.49 85.81 1328.12 77 1327C75.8251 1316.57 68.9672 1320.1 62 1321.48C54.0672 1323.04 45.5738 1323.2 38.213 1327.56C32.3993 1331 32.0069 1336.66 24 1336L23 1343C28.0798 1343.64 39.7484 1342.82 42.3279 1348.15C45.9771 1355.69 32.2072 1359.84 32.5918 1368C33.241 1381.77 46.4426 1392.43 49 1406C56.2521 1406.31 64.0992 1404.47 71 1405.1C75.7447 1405.53 80.0976 1408.24 84.9853 1406.4C90.1955 1404.43 92.1866 1397.04 98 1396.36C105.019 1395.55 111.991 1402.01 119 1402.25C124.032 1402.43 127.142 1397.33 132 1396.7C136.337 1396.14 140.651 1398.2 145 1397.63C154.094 1396.45 162.13 1389.94 170 1385.78C174.18 1383.57 181.014 1381.72 183.697 1377.61C190.129 1367.75 189.779 1351.79 181.096 1343.59C176.981 1339.7 172.232 1340.76 169.059 1335C163.526 1324.94 171.596 1313.02 164.581 1302.32C162.031 1298.43 156.728 1301.24 153 1300.57C149.59 1299.95 146.555 1296.75 143 1297.15C137.636 1297.75 132.634 1303.86 128 1306.35C121.466 1309.86 113.039 1311.67 106 1315z"/>
</svg>
