<?xml version="1.0" standalone="yes"?>
<svg xmlns="http://www.w3.org/2000/svg" width="1007" height="1450">
<path style="fill:#010101; stroke:none;" d="M0 0L0 1450L1007 1450L1007 0L0 0z"/>
<path style="fill:#ffffff; stroke:none;" d="M879 338C874.914 347.815 868.62 357.814 861.367 365.61C858.919 368.24 855.108 368.992 852.728 371.637C847.944 376.953 846.341 384.45 840.714 389.775C836.755 393.521 830.278 393.489 826.728 397.499C820.915 404.065 822.653 417.004 821.896 425C821.347 430.803 818.161 436.792 815.68 442C812.686 448.281 807.63 458.128 801.816 462.146C797.798 464.922 792.159 464.059 788.994 468.228C784.123 474.644 785.769 482.848 783.302 490C781.232 496.001 776.793 500.774 775 507L792 503.764L826 509C827.872 522.893 835.662 529.497 850 527.245C854.13 526.597 860.906 526.81 862.257 521.891C863.743 516.482 853.506 505.523 850.954 500C849.423 496.688 845.953 493.554 849.256 490.294C862.072 477.644 884.917 482.059 901 484.59C908.749 485.81 915.948 486.05 920.779 493.005C925.872 500.34 920.305 510.199 921 519L942 528C950.701 513.092 971.997 486.602 960.968 469C954.627 458.879 939.452 454.231 934.854 443.961C931.345 436.123 931.486 426.882 928.034 419C921.49 404.057 905.693 395.026 890 393C890 376.789 892.992 349.602 879 338z"/>
</svg>
