<?xml version="1.0" standalone="yes"?>
<svg xmlns="http://www.w3.org/2000/svg" width="1007" height="1450">
<path style="fill:#010101; stroke:none;" d="M0 0L0 1450L1007 1450L1007 0L0 0z"/>
<path style="fill:#ffffff; stroke:none;" d="M398 1164L401 1176C396.961 1176.96 382.247 1176.93 380.708 1179.19C377.161 1184.41 386.904 1196.65 388.359 1202C389.607 1206.59 386.392 1212.32 389.028 1216.48C392.903 1222.61 404.008 1227.01 409.995 1230.95C414.968 1234.23 414.817 1238.56 418.564 1242.3C422.576 1246.3 429.487 1246.87 433.999 1250.39C440.895 1255.78 441.264 1263.12 450 1266C453.79 1257.72 445.765 1252.1 445.498 1244C445.234 1235.94 448.702 1228.13 447.714 1220C446.116 1206.86 438.154 1202.1 431.603 1191.99C429.627 1188.93 430.266 1185.18 428.566 1182C425.435 1176.15 414.041 1160.74 407 1160.25C403.999 1160.04 400.623 1162.78 398 1164z"/>
</svg>
