<?xml version="1.0" standalone="yes"?>
<svg xmlns="http://www.w3.org/2000/svg" width="1007" height="1450">
<path style="fill:#010101; stroke:none;" d="M0 0L0 1450L1007 1450L1007 0L0 0z"/>
<path style="fill:#ffffff; stroke:none;" d="M735 778L724 778L722 803L707 798C707.427 810.87 721.281 809.32 729.791 812.585C734.139 814.253 735.933 816.764 741 817L742 829C731.743 829.122 731.737 839.584 730 848L765 862L766 851C770.575 850.639 777.652 850.825 781.482 848.062C785.387 845.245 786.462 839.57 791.093 837.589C801.958 832.941 816.729 839.551 826.7 835.393C833.318 832.632 832.997 823.828 834.019 818C834.821 813.422 837.872 810.284 839.298 806C840.589 802.123 839.537 797.949 840.39 794C842.237 785.46 851.621 770.562 844.972 761.564C834.463 747.342 793.285 774.049 793 750C777.036 749.956 749.521 745.697 738.857 761.286C735.854 765.676 735.655 772.843 735 778z"/>
</svg>
