<?xml version="1.0" standalone="yes"?>
<svg xmlns="http://www.w3.org/2000/svg" width="1007" height="1450">
<path style="fill:#010101; stroke:none;" d="M0 0L0 1450L1007 1450L1007 0L0 0z"/>
<path style="fill:#ffffff; stroke:none;" d="M652 258C647.206 269.142 643.086 280.633 638.334 292C636.705 295.897 636.729 301.236 634.143 304.61C630.159 309.806 622.008 309.395 617.303 313.649C612.216 318.249 607.195 338.434 608.944 345C610.084 349.275 614.923 358.501 620.039 358.694C623.253 358.816 626.969 353.694 629.953 356.542C632.834 359.293 630.167 363.516 632.042 366.61C633.662 369.281 637.284 369.764 638.973 372.39C642.436 377.774 643.6 389.584 646.006 396C649.469 405.234 648.996 419.168 649 429C649.002 434.393 648.693 442.258 652.564 446.582C655.911 450.32 664.193 452.666 669 453.621C673.499 454.515 678.431 454 683 454C684.459 465.3 687.519 473.125 683 484C692.831 483.578 701.063 485.283 707.397 494.174C710.037 497.879 708.661 502.81 710.589 506.722C712.7 511.006 726.618 514.369 731 513.223C748.82 508.562 752.572 485.525 754.286 471C755.742 458.657 756 446.429 756 434C756 429.687 757.197 423.161 754.972 419.289C749.244 409.321 736.01 407.715 728.43 400.363C724.913 396.951 725.241 391.261 723.352 387C718.769 376.665 711.07 366.623 709.463 355C708.849 350.56 712.372 346.38 712.701 342C713.028 337.627 711.007 333.396 711.604 329C714.231 309.655 721 292.649 721 273L687 279.286L671.419 278.972L665.157 265.214L652 258z"/>
</svg>
