<?xml version="1.0" standalone="yes"?>
<svg xmlns="http://www.w3.org/2000/svg" width="1007" height="1450">
<path style="fill:#010101; stroke:none;" d="M0 0L0 1450L1007 1450L1007 0L0 0z"/>
<path style="fill:#ffffff; stroke:none;" d="M615 430L610.53 444L621.736 463L603.888 516L604.62 553L601 569C610.328 569.033 614.208 576.55 623 578.11C630.064 579.362 636.212 572.178 643 571.117C646.496 570.571 649.595 572.995 652.995 571.381C659.232 568.422 658.025 561.992 661.448 557.004C666.721 549.318 678.147 540.297 687 538L676.966 526.697L663 506C673.869 495.131 696.192 473.883 681.836 456.603C679.055 453.257 662.994 452.455 658.001 450.395C650.892 447.462 652.037 440.529 646.697 437.514C642.831 435.331 637.265 436.094 633 435.409C626.726 434.4 621.086 431.661 615 430z"/>
</svg>
