<?xml version="1.0" standalone="yes"?>
<svg xmlns="http://www.w3.org/2000/svg" width="1303" height="1450">
<path style="fill:#010101; stroke:none;" d="M0 0L0 1450L1303 1450L1303 0L0 0z"/>
<path style="fill:#ffffff; stroke:none;" d="M173 1030C178.126 1032.51 183.498 1035.13 185.347 1041C187.132 1046.67 184.848 1053.31 188.303 1058.61C193.355 1066.35 202.46 1064.86 204 1076L246 1071L259.791 1072.03L271 1088L287 1083.62L300 1086.16L318 1080C319.817 1093.5 324.555 1103.04 335.17 1111.36C339.485 1114.75 345.829 1115.78 349.297 1120.21C353.602 1125.71 351.204 1134.87 357 1139C363.913 1127.33 381.301 1133 393 1133C391.62 1123.02 381.405 1117.71 383.225 1107C384.147 1101.57 388.696 1098.68 390.976 1094C393.504 1088.82 391.162 1082.45 393.352 1077C399.422 1061.89 416.356 1043.55 401.301 1027.64C394.384 1020.33 384.865 1026.38 378.213 1022.17C375.958 1020.74 375.105 1017.69 372.61 1016.62C366.833 1014.15 357.423 1022.15 352 1024C346.444 1014.49 339.172 1024.19 332 1025.86C327.037 1027.01 311.987 1024.57 307.019 1023.09C303.502 1022.04 302.619 1018.4 299.701 1016.64C293.109 1012.66 282.75 1010.12 275.148 1010.81C270.663 1011.22 272.579 1018.96 269.762 1021.68C265.951 1025.36 255.109 1024.77 250.043 1024.57C244.692 1024.35 244.185 1017.48 238.957 1016.34C233.457 1015.15 227.569 1016.51 222 1015.81C217.893 1015.3 214.228 1012.94 210 1013.51C205.408 1014.14 201.657 1018 197 1017.82C191.384 1017.61 183.507 1011.11 178.228 1014.78C173.922 1017.77 174.141 1025.37 173 1030z"/>
</svg>
