<?xml version="1.0" standalone="yes"?>
<svg xmlns="http://www.w3.org/2000/svg" width="1303" height="1450">
<path style="fill:#010101; stroke:none;" d="M0 0L0 1450L1303 1450L1303 0L0 0z"/>
<path style="fill:#ffffff; stroke:none;" d="M541 725C545.196 722.774 553.892 714.192 556.391 724.04C557.129 726.949 554.551 729.328 553.92 732C551.426 742.563 542.905 754.541 545.344 765.982C546.771 772.675 553.388 770.838 557.624 774.514C563.705 779.79 568.063 787.052 574.375 792.447C578.377 795.868 583.348 795.907 587 800L603 802C602.774 795.142 610.03 789.92 611.142 783C611.674 779.69 609.947 776.383 610.186 773C611.214 758.464 613.743 741.148 607.121 727.21C602.152 716.752 592.803 728.542 586.043 722.812C576.673 714.871 586.012 700.118 578.566 693.742C576.247 691.757 572.826 691.963 570 692.286C556.143 693.871 559.475 701.838 552.298 710.775C547.38 716.9 541.284 715.43 541 725z"/>
</svg>
