<?xml version="1.0" standalone="yes"?>
<svg xmlns="http://www.w3.org/2000/svg" width="1303" height="1450">
<path style="fill:#010101; stroke:none;" d="M0 0L0 1450L1303 1450L1303 0L0 0z"/>
<path style="fill:#ffffff; stroke:none;" d="M530 1185L556.956 1174.25L565.51 1185.6L575 1182.65L592 1181L596 1140L592 1144L575 1139C580.981 1133.92 587.885 1130.21 594 1137L597 1136C596.14 1132.95 595.694 1128.89 593.436 1126.51C589.708 1122.58 585.165 1122.81 582.966 1117C580.051 1109.29 584.081 1104.37 583.787 1097C583.368 1086.52 571.473 1070.74 560 1071.5C548.065 1072.3 548.687 1085.37 538.985 1088.81C532.157 1091.24 519.572 1080.96 514.812 1089.15C512.047 1093.91 517.251 1108.25 517.675 1114C518.195 1121.03 514.76 1127.94 515.144 1135C515.749 1146.11 525.259 1158.17 528.262 1169C529.801 1174.55 527.306 1179.4 530 1185z"/>
</svg>
