<?xml version="1.0" standalone="yes"?>
<svg xmlns="http://www.w3.org/2000/svg" width="1303" height="1450">
<path style="fill:#010101; stroke:none;" d="M0 0L0 1450L1303 1450L1303 0L0 0z"/>
<path style="fill:#ffffff; stroke:none;" d="M679 512C673.304 521.699 676.887 519.352 687 522C684.963 524.787 684.304 534.741 681.806 535.539C676.884 537.11 671.16 518.737 665.382 532.044C657.808 549.486 679.9 549.04 687.523 556.699C690.128 559.317 688.177 562.813 688.713 566C689.552 570.993 692.319 580.62 695.978 584.137C701.877 589.805 707.585 583.264 714 583.275C717.984 583.281 721.2 586.472 725 587.272C728.375 587.983 731.612 586.358 735 586.688C742.02 587.373 748.971 590.053 756 591C756 595.516 755.285 600.933 758.009 604.856C759.959 607.663 763.103 607.867 765.606 609.853C770.019 613.354 778.905 625.487 780.121 631C782.02 639.611 778.759 649.675 772.895 655.985C768.707 660.491 761.489 662.905 761.514 670.001C761.568 685.354 773.119 672.127 778.011 675.157C782.237 677.776 779.909 683.815 785 687L795.896 678.995L820 665C815.945 657.678 811.971 647.606 813.383 639C813.973 635.408 817.13 632.747 817.228 629C817.343 624.581 814.34 620.516 814.347 616C814.357 610.169 818.272 605.795 821 601C810.562 601.001 801.68 604.347 792.278 597.861C788.807 595.467 788.471 590.455 786.031 587.21C782.987 583.162 775.672 578.297 771 576.397C766.903 574.73 763.139 577.608 759 577.309C749.052 576.592 733.246 568.918 729 560C735.164 557.609 739.36 555.399 746 557L748 554L748 553C737.875 544.68 714.46 546.311 710.742 530.95C709.912 527.517 713.295 519.795 714 516L695 515.905L679 512z"/>
</svg>
