<?xml version="1.0" standalone="yes"?>
<svg xmlns="http://www.w3.org/2000/svg" width="1303" height="1450">
<path style="fill:#010101; stroke:none;" d="M0 0L0 1450L1303 1450L1303 0L0 0z"/>
<path style="fill:#ffffff; stroke:none;" d="M328 665C323.483 670.566 319.1 677.966 312.985 681.856C309.056 684.356 302.945 683.787 299.589 686.857C296.571 689.618 297.268 695.367 296.046 699C292.021 710.975 286.711 726.004 294 738C287.365 741.314 285.797 746.928 280.621 751.487C277.974 753.819 274.246 753.793 271.465 755.854C267.599 758.717 265.572 763.582 261.96 766.786C254.795 773.142 247.932 774.249 245.649 785C243.606 794.622 251.188 804.566 249.596 814C248.095 822.898 239.605 825.81 232 824L220.603 840.17L217.737 860.996L202.988 874.609L200 896L211.004 890.433L243.715 884.237L255 884.702L281 877.59L300 880.79L320.83 880.755L362 900L359 907L373.896 909.178L390 920L388 924C401.228 931.937 419.552 930.895 432.721 940.136C442.783 947.196 437.008 963.685 443.074 972.542C449.216 981.51 462.091 974.877 470 976.518C473.959 977.339 480.787 981.401 484.697 980.208C487.323 979.407 487.729 975.516 489.474 973.684C492.834 970.155 497.492 969.127 502 968L502 966C495.866 961.542 493.135 957.562 485 959C486.893 952.853 486.257 948.878 479 950C478.58 946.9 477.504 944.049 476.934 941C476.148 936.788 480.815 929.275 485.852 930.613C488.876 931.416 488.425 935.192 490.599 936.817C495.507 940.486 501.65 934.845 504 931L505 931C514.702 940.092 547.329 941.956 545 958C548.088 959.869 549.133 964.221 553.055 964.681C562.339 965.77 577.878 958.776 584 969L606.867 968.397L609 954C611.76 963.656 617.83 972.229 628 975C630.32 969.427 632.606 963.117 638 960L637 966L638 966C644.972 941.612 660.422 916.51 676.246 897C681.831 890.115 683.164 878.896 693 878L693 877L665 874C671.96 866.2 679.323 874.915 686.501 869.972C689.14 868.155 690.032 863.859 691 861L686 859C683.294 863.529 680.38 866.071 676 862C670.441 862.463 666.327 859.473 661 858.468C650.468 856.481 634.709 860.614 632 846C626.799 841.169 632.071 833.516 631 827C623.376 828.559 611.823 825.677 610.071 815.999C609.283 811.647 612.61 803.285 614 799L610 795L603 797L604 803L586 801C583.958 795.87 578.163 796.071 574.17 792.672C568.431 787.788 562.125 776.875 555.791 773.879C547.05 769.745 538.606 774.429 530 775L527 787L517 783L520 772L511 770C513.994 755.489 509.577 754.872 501.702 743.911C499.614 741.004 499.164 737.12 495.867 735.175C488.405 730.774 478.723 729.153 471 725.698C459.925 720.745 450.443 714.534 438 714L439 708C429.76 700.501 427.75 691.009 414 691C412.108 700.212 407.66 706.892 398 709C397.191 699.191 392.358 700.696 385.001 697C376.475 692.717 369.773 689.844 360.791 687.317C357.024 686.258 352.749 687.954 349.174 685.973C340.083 680.937 335.419 671.608 328 665M699 859L698 863L695 862L693 867C702.026 870.042 708.421 866.702 699 859M635 970L636 971L635 970M634 972L633 978L634 978L634 972z"/>
</svg>
