<?xml version="1.0" standalone="yes"?>
<svg xmlns="http://www.w3.org/2000/svg" width="1303" height="1450">
<path style="fill:#010101; stroke:none;" d="M0 0L0 1450L1303 1450L1303 0L0 0z"/>
<path style="fill:#ffffff; stroke:none;" d="M629 844L633 846C632.5 860.05 652.454 855.719 661 857.681C666.868 859.027 670.773 862.01 677 861C680.327 866.137 684.016 862.035 686 858L697 862L707 853L699 834C692.005 835.055 680.039 836.776 673 835.783C667.414 834.996 664.148 830.292 658.961 828.863C652.639 827.121 651.067 830.805 645.791 832.245C635.312 835.106 632.09 830.642 629 844z"/>
</svg>
