<?xml version="1.0" standalone="yes"?>
<svg xmlns="http://www.w3.org/2000/svg" width="1303" height="1450">
<path style="fill:#010101; stroke:none;" d="M0 0L0 1450L1303 1450L1303 0L0 0z"/>
<path style="fill:#ffffff; stroke:none;" d="M936 282C930.979 280.575 922.342 276.262 917.174 277.777C911.233 279.518 908.537 289.242 905.652 293.961C901.132 301.353 897.135 312.292 891.363 318.61C888.119 322.16 882.982 323.185 879.174 325.966C876.36 328.021 874.476 332.148 870.91 332.958C857.493 336.005 858.35 318.329 854.954 311C852.008 304.644 846.696 299.347 841 295.39C832.936 289.788 829.03 293.88 821 294.664C816.893 295.066 811.858 292.255 808 291L805.448 308L815 352C807.071 352.067 804.584 357.162 797.957 358.667C792.614 359.881 787.698 355.796 782 356.758C765.502 359.544 744.443 375.295 737.637 390C734.258 397.302 725.888 397.861 729 407L721 408C724.113 416.008 730.375 414.275 735.297 419.513C738.719 423.155 738.276 429.471 739.619 434C741.052 438.836 743.999 442.831 740 447C748.833 459.244 756.103 453.617 768 453C768.002 472.505 788.55 481.803 802.714 491.474C807.856 494.984 812.773 501.101 819 502.766C822.178 503.616 824.091 501.185 827 500.617C831.195 499.798 838.723 503.809 841.682 506.637C846.311 511.061 842.887 519.413 844.699 525C847.842 534.692 852.619 534.236 859.896 539.008C864.534 542.05 866.106 545.929 872 547C873.776 539.522 877.916 530.567 885.015 526.836C889.084 524.697 895.05 524.848 898.348 521.487C904.381 515.338 899.03 507.721 901.607 501.093C904.926 492.558 916.215 495.981 923 496L926.172 511L925 537C932.688 534.966 940.412 539.465 947 537.396C961.542 532.829 974.063 520.282 988.015 514.893C992.196 513.278 996.735 514.661 1001 513.697C1008.55 511.99 1021.11 501.361 1023.76 494C1024.84 491.018 1025.15 479.814 1023.36 477.213C1021.23 474.133 1017.21 473.265 1015.3 469.895C1012.59 465.112 1013.03 459.026 1010.43 454.17C1008.1 449.802 1003.86 446.811 1002.11 442C998.555 432.203 1008.42 426.329 1008.36 418.228C1008.34 413.749 1000.17 415.021 998.889 410.775C994.959 397.79 995.42 379.502 996 366C1000.91 365.855 1012.04 364.113 1015.56 360.566C1018.1 358.015 1017.43 353.943 1020.24 351.589C1023.76 348.633 1029.26 350 1032.55 346.567C1037.71 341.18 1026.01 327.971 1022 324C1025.99 319.663 1032.56 314.409 1034.88 309C1039.43 298.431 1025.48 284.443 1017 280.843C1013.61 279.401 1009.38 279.946 1006.21 277.987C999.632 273.914 999.858 266.655 991 264.351C982.809 262.22 973.689 268.729 967.015 266.33C959.159 263.506 959.219 251.78 951.83 248.068C947.194 245.739 943.915 250.274 942.352 254.005C938.893 262.258 938.02 273.188 936 282z"/>
</svg>
