<?xml version="1.0" standalone="yes"?>
<svg xmlns="http://www.w3.org/2000/svg" width="1303" height="1450">
<path style="fill:#010101; stroke:none;" d="M0 0L0 1450L1303 1450L1303 0L0 0z"/>
<path style="fill:#ffffff; stroke:none;" d="M338 397C330.962 412.05 325.198 427.689 318.414 443C315.299 450.03 315.742 457.475 307.961 461.896C296.737 468.272 286.539 453.918 277.996 450.352C272.59 448.095 266.229 446.84 263.363 453.019C256.819 467.134 267.504 479.182 273.598 491C275.746 495.165 276.094 500.065 278.703 504C283.435 511.138 289.018 515.057 290.564 524C292.601 535.782 290.079 547.141 284.727 558C281.94 563.655 276.985 568.484 276.341 575C275.626 582.234 280.962 583.736 287 584C288.191 594.086 282.155 610.218 289.319 618.895C296.456 627.54 310.216 626.347 316.751 636.015C321.758 643.423 317.671 653.98 322.028 660.582C323.805 663.274 328.227 664.581 331 666C339.903 654.413 355.291 651.076 365.2 640.57C370.146 635.326 366.279 629.29 369.41 623.954C373.839 616.408 385.247 613.594 391.401 608.066C395.939 603.989 396.166 596.659 402.09 592.858C409.812 587.902 420.156 592.292 427.721 586.647C431.333 583.952 431.533 578.619 433.993 575.001C436.853 570.794 441.078 568.28 444.366 564.536C450.047 558.068 451.075 551.361 460 548.244C466.725 545.895 473.199 548.727 480 547.536C486.861 546.335 490.089 542.315 496.043 540.032C501.431 537.965 508.303 538.595 514 537.704C518.621 536.981 526.337 531.808 530.772 534.118C535.643 536.655 532.73 545.527 534.8 549.995C537.658 556.164 542.308 554.678 546.683 558.653C551.206 562.762 559.052 580.803 567.001 578.583C581.826 574.441 571.935 552.623 582 544C581.17 540.505 580.147 536.239 577.362 533.728C573.485 530.233 567.364 531.74 563.059 529.062C556.368 524.9 555.294 508.114 562 504L562 502C550.366 492.124 541.537 478.42 530.96 467.318C527.843 464.046 522.821 465.193 519.39 462.297C515.51 459.022 513.604 453.024 510.486 449C505.334 442.35 498.89 437.808 493.213 431.826C483.411 421.499 476.393 406.671 463 400L463 405C459.159 405.488 454.699 407.041 451 405.316C440.967 400.639 434.272 382.591 421.96 382.099C414.762 381.811 410.499 387.693 404 389.093C398.548 390.267 393.564 386.404 388.108 389.457C382.156 392.787 382.919 400.371 375 401.666C365.704 403.186 365.703 390.247 356.001 391.152C347.101 391.982 348.497 400.377 338 397z"/>
</svg>
