<?xml version="1.0" standalone="yes"?>
<svg xmlns="http://www.w3.org/2000/svg" width="1303" height="1450">
<path style="fill:#010101; stroke:none;" d="M0 0L0 1450L1303 1450L1303 0L0 0z"/>
<path style="fill:#ffffff; stroke:none;" d="M390 1216C383.749 1226.71 381.388 1231.04 369 1234.49C360.548 1236.84 343.564 1235.62 339.152 1246.1C337.201 1250.74 340.173 1255.38 338.755 1260C337.492 1264.12 332.968 1267.53 333.067 1272C333.121 1274.42 334.638 1276.78 335.457 1279C341.397 1295.13 353.536 1286.48 366 1288.81C371.616 1289.86 376.636 1293.98 382 1295.91C385.301 1297.1 391.986 1297.3 394.033 1300.51C396.459 1304.32 390.082 1311.37 390.563 1316C391.183 1321.96 396.471 1326.92 396.323 1333C396.133 1340.81 390.862 1347.52 389.379 1355C388.175 1361.07 390.024 1369.03 391.387 1375C396.142 1395.84 418.49 1398.8 427 1417C440.483 1414.22 452.382 1414.59 466 1417.9C474.931 1420.07 482.6 1426.79 492 1423C489.453 1412.5 478.617 1409.82 471.093 1403.47C468.072 1400.92 464.368 1396.44 469.103 1393.55C475.286 1389.79 484.36 1396.74 490 1398.94C497.368 1401.81 502.588 1400.44 510 1401.31C518.729 1402.35 529.706 1407.07 537.852 1400.97C546.407 1394.56 539.589 1376.43 539.263 1368C539.015 1361.58 537.548 1348.88 539.238 1343C540.735 1337.79 545.865 1334.68 546.631 1329C547.251 1324.4 544.581 1321.22 543.65 1317C542.83 1313.28 544.053 1307.99 543.877 1304C543.53 1296.14 545.989 1285.69 541.062 1278.3C538.683 1274.73 534.286 1273.62 531.419 1270.61C528.619 1267.68 528.096 1263.36 525.867 1260.04C520.342 1251.82 502.307 1241.01 499 1257C480.605 1255.38 478.342 1243.33 479 1228C469.675 1229.66 461.383 1235.7 452 1237.86C446.44 1239.15 441.465 1236.82 436 1237.46C429.933 1238.18 420.913 1241.74 415.004 1239.25C401.185 1233.43 416.578 1224.59 410.393 1217.33C406.831 1213.15 395.405 1217.6 390 1216z"/>
</svg>
