<?xml version="1.0" standalone="yes"?>
<svg xmlns="http://www.w3.org/2000/svg" width="1303" height="1450">
<path style="fill:#010101; stroke:none;" d="M0 0L0 1450L1303 1450L1303 0L0 0z"/>
<path style="fill:#ffffff; stroke:none;" d="M487 1011C484.755 1014.03 482.383 1016.96 480.155 1020C478.728 1021.95 477.316 1023.93 476.07 1026C470.631 1035.04 483.681 1041.18 492 1040.15C495.845 1039.68 499.108 1036.67 502.999 1036.41C505.386 1036.25 507.093 1037.46 508.706 1039.1C515.807 1046.31 511.817 1056.05 513.147 1065C514.162 1071.82 517.426 1077.73 518 1085C525.308 1085.17 533.818 1091.14 540.826 1087.43C549.806 1082.67 549.324 1068.61 563 1071C570.562 1072.32 585.745 1087.94 588.393 1095.04C590.182 1099.84 586.966 1105.1 587.56 1110C588.282 1115.95 593.874 1120.23 598 1124L600.424 1090L612 1029L591 1022C588.31 1014.52 581.965 1016.36 577.954 1022.04C572.323 1030.02 572 1036.59 572 1046C569.143 1046.59 565.481 1050.64 562.914 1050.23C559.655 1049.72 558.093 1045.32 556.367 1043.01C548.905 1033.04 549.941 1032.97 552 1021C543.497 1025.72 537.119 1030.46 527 1027.58C522.735 1026.37 519.459 1023.34 515 1022.47C503.345 1020.19 495.159 1020.57 487 1011z"/>
</svg>
