<?xml version="1.0" standalone="yes"?>
<svg xmlns="http://www.w3.org/2000/svg" width="1303" height="1450">
<path style="fill:#010101; stroke:none;" d="M0 0L0 1450L1303 1450L1303 0L0 0z"/>
<path style="fill:#ffffff; stroke:none;" d="M335 674C349.067 670.694 364.146 656.834 375 647.754C385.271 639.162 396.035 636.68 406.7 629.861C412.082 626.42 414.623 621.83 421 619.425C426.47 617.362 437.355 615.677 443 617.603C447.288 619.065 450.415 622.662 455 623.606C463.48 625.352 482.125 623.738 490 620.105C501.716 614.699 513.577 607.794 527 608.054C537.165 608.251 551.789 615.301 561.682 610.258C564.689 608.725 563.982 603.99 565.376 601.286C573.734 585.067 562.182 577.186 551.144 566.701C548.836 564.509 548.637 561.058 546.401 559.009C543.674 556.51 539.493 557.59 536.966 554.682C533.254 550.409 534.139 535.347 529.772 534.408C525.34 533.455 520.184 537.051 516 538.097C509.567 539.705 502.373 538.755 496.104 540.724C489.893 542.675 486.109 547.361 479 548.532C470.162 549.989 461.409 545.634 453.39 551.994C449.643 554.965 448.322 560.183 445.366 563.826C442.011 567.961 437.211 570.355 434.343 575.004C432.109 578.627 431.994 583.415 428.721 586.363C420.999 593.318 410.565 588.733 402.171 593.317C395.676 596.864 396.715 603.911 392.397 608.272C386.72 614.007 375.054 615.903 370.383 623.214C367.655 627.483 370.236 632.457 367.996 636.996C365.492 642.071 361.384 642.338 357.637 645.727C354.957 648.151 354.21 651.812 350.895 653.697C341.094 659.27 328.144 659.803 335 674z"/>
</svg>
