<?xml version="1.0" standalone="yes"?>
<svg xmlns="http://www.w3.org/2000/svg" width="1303" height="1450">
<path style="fill:#010101; stroke:none;" d="M0 0L0 1450L1303 1450L1303 0L0 0z"/>
<path style="fill:#ffffff; stroke:none;" d="M337 677C342.166 678.81 344.648 683.405 349.3 685.397C355.514 688.056 360.962 683.802 365 691C375.958 689.608 396.477 695.984 399 708C407.996 706.021 412.434 698.903 413 690C424.193 690.007 439.455 700.193 439 713C451.1 714.537 460.089 720.493 471 725.405C478.69 728.867 488.387 730.211 495.892 734.456C499.931 736.741 500.109 741.304 502.702 744.714C510.284 754.684 514.772 755.565 512 769L521 771L519 782L526 786L529 774L546 772C541.676 753.083 556.425 742.584 556.137 725.04C555.956 714.046 544.156 723.618 541 726C538.882 715.837 547.214 716.676 551.914 710.581C556.827 704.211 565.918 679.588 579.343 693.514C585.213 699.602 578.672 711.828 583.009 718.995C589.937 730.443 599.885 715.836 607.143 726.21C618.114 741.893 608.007 764.228 612 781C616.632 780.174 620.451 776.786 625 776.167C628.516 775.688 631.57 778.565 634.961 778.007C642.41 776.78 645.215 765.07 646 759L650 759C648.286 750.833 642.712 749.302 639.028 742.816C637.264 739.711 637.733 734.503 637.514 731C637.066 723.822 640.696 718.628 642.288 712C643.786 705.765 642.5 698.878 643.808 693.039C644.642 689.315 649.013 687.317 648.377 683.054C647.653 678.202 638.703 676.418 636.317 670.999C633.404 664.383 638.083 656.541 628.996 653.653C622.229 651.502 617.366 655.935 611 655.864C606.51 655.815 600.419 652.714 596.189 655.042C589.157 658.914 590.847 664.911 581 665L584 676C574.421 679.046 573.361 669.371 565 668.448C553.219 667.148 543.489 668.415 532.001 662.622C525.277 659.232 521.144 652.271 513.83 649.585C498.239 643.859 477.173 645.869 480 623C472.365 623.158 463.525 625.879 456 624.57C450.986 623.698 447.718 619.369 443 618.028C439.215 616.952 431.013 617.869 427 618.365C417.001 619.601 413.617 626.301 405.91 630.861C400.118 634.288 392.881 634.932 387 638.479C378.597 643.548 371.702 651.153 364 657.181C355.938 663.49 341.786 667.632 337 677z"/>
</svg>
