<?xml version="1.0" standalone="yes"?>
<svg xmlns="http://www.w3.org/2000/svg" width="1303" height="1450">
<path style="fill:#010101; stroke:none;" d="M0 0L0 1450L1303 1450L1303 0L0 0z"/>
<path style="fill:#ffffff; stroke:none;" d="M1080 210L1070.1 230L1072.79 246L1071 263L1053 264C1055.02 270.195 1058.77 285.655 1054.96 291.57C1053.09 294.472 1048.96 293.974 1046.43 295.938C1043.02 298.586 1042.54 305.022 1042 309C1033.03 309.291 1028.6 316.917 1023 323L1023 324C1030.26 334.193 1035.83 347.735 1050.91 341.736C1054.79 340.194 1056.81 334.767 1061.04 334.392C1066.74 333.887 1070.58 339.348 1076.79 336.851C1080.9 335.2 1081.24 329.152 1086.04 328.762C1093.35 328.169 1102.99 336.889 1111 338.193C1119.2 339.527 1133.54 333.565 1142 332C1141.13 328.922 1140.57 325.054 1138.3 322.649C1135.28 319.466 1130.6 319.282 1128.5 314.956C1126.28 310.385 1128.69 297.964 1129.82 293.019C1132.1 283.12 1151.81 281.663 1158.47 275.363C1162.21 271.817 1161.16 265.712 1165.23 262.604C1168.46 260.138 1171.55 261.498 1174 264C1184.48 262.096 1177.89 256.167 1182.75 250.438C1186.71 245.767 1191.82 249.987 1195 243L1203 245L1205 241L1192 238C1191.34 229.749 1185.18 220.899 1185.75 213.015C1186.63 200.921 1194.05 188.729 1192.94 176C1191.99 165.07 1181.79 161.544 1185 149C1192.2 152.276 1188.7 155.786 1190.66 161.961C1192.46 167.656 1202.24 181.415 1208 183L1210 179L1214 180C1216.68 174.84 1220.05 171.449 1226 171L1224 168L1224 167L1235 159L1232 174L1237 174C1235.95 179.683 1238.05 183.53 1244 184C1239.06 200.044 1254.46 203.538 1264 211L1265 211C1271.38 203.75 1263.31 190.699 1260.24 183C1258.45 178.514 1261.3 174.874 1259.93 170.925C1257.99 165.338 1251.14 163.314 1248.65 157.985C1245.86 152.005 1248.03 145.784 1245.99 140C1243.91 134.071 1238.76 130.703 1235 126L1243 114C1236.81 111.211 1234.51 106.038 1232 100L1238 101C1237.85 88.7183 1229.98 84.15 1221 78.3156C1216.11 75.1412 1212.3 70.4852 1207 67.9159C1198.85 63.9598 1190.4 64.4152 1182 61.8912C1176.54 60.2493 1172.9 55.4982 1167 55.0548C1157.89 54.3705 1148.76 58.0769 1140 57.3202C1133.15 56.7284 1131.47 51.307 1126.61 47.9877C1120.29 43.6763 1110.19 47.4194 1105.29 52.2137C1092.09 65.123 1106.01 89.443 1105.82 105C1105.73 112.533 1100.57 119.338 1101.12 127C1101.54 132.887 1107.38 138.032 1105.54 144C1100.34 160.933 1081.57 172.673 1072.35 187.09C1066.84 195.714 1070.24 206.755 1080 210M1213 203L1207.06 206.148L1211.33 215L1221 239L1234 230L1223.08 216.624L1222 203C1232.91 201.251 1232.67 184.049 1221.92 181.694C1218.34 180.909 1215.09 185.21 1212 186.454C1208.12 188.016 1202.23 189.032 1204.61 194.87C1206.09 198.502 1210.92 199.518 1213 203z"/>
<path style="fill:#fdfdfd; stroke:none;" d="M1079 210L1080 211L1079 210z"/>
</svg>
