<?xml version="1.0" standalone="yes"?>
<svg xmlns="http://www.w3.org/2000/svg" width="1303" height="1450">
<path style="fill:#010101; stroke:none;" d="M0 0L0 1450L1303 1450L1303 0L0 0z"/>
<path style="fill:#ffffff; stroke:none;" d="M284 1263C295.49 1266 300.033 1280.21 314 1277.33C322.907 1275.49 335.769 1269.54 338.211 1260C339.827 1253.7 335.12 1247.87 341.225 1242.64C352.947 1232.58 370.372 1238 381.61 1229.25C397.989 1216.49 392.362 1191.57 397.933 1175C401.16 1165.41 408.852 1159.45 406.319 1148C405.41 1143.89 403.656 1137.32 399.786 1135.03C395.967 1132.77 389.279 1134 385 1134C374.642 1134 362.677 1128.36 357 1140L348.297 1119.64L324.532 1102.85L315.57 1081.6L300 1086.63L287 1084.36L270 1089C263.281 1065.68 243.969 1072.68 225 1073.44C220.695 1073.61 202.758 1076.63 202.402 1081.06C201.632 1090.63 211.678 1099.42 214.76 1108C217.749 1116.32 215.687 1125.95 219.367 1133.96C222.242 1140.21 230.013 1140.84 233.442 1147C236.655 1152.78 234.94 1158.28 236.693 1163.99C237.606 1166.96 240.588 1168.42 241.803 1171.17C242.997 1173.87 242.008 1177.14 242.97 1180C245.765 1188.31 258.954 1202.53 256.211 1211.77C255.146 1215.36 248.821 1216.11 246.174 1218.39C241.966 1222.03 239.697 1227.67 233.999 1229.45C221.807 1233.25 210.211 1219.9 203.657 1236C202.846 1237.99 201.847 1239.88 201.39 1242C200.761 1244.92 201 1248.04 201 1251C200.999 1262.1 202.413 1288.31 219 1288.7C225.928 1288.86 235.142 1280.32 243 1279.13C257.734 1276.92 281.332 1282.79 284 1263z"/>
</svg>
