<?xml version="1.0" standalone="yes"?>
<svg xmlns="http://www.w3.org/2000/svg" width="1303" height="1450">
<path style="fill:#010101; stroke:none;" d="M0 0L0 1450L1303 1450L1303 0L0 0z"/>
<path style="fill:#ffffff; stroke:none;" d="M446 975C442.76 980.553 442.677 986.617 439.972 992C436.21 999.487 421.637 1007.65 413.039 1006.64C409.012 1006.16 407.185 1001.35 402.996 1001.07C397.414 1000.7 395.129 1005.74 389 1003.4C384.942 1001.85 378.702 1000.13 375.43 997.273C371.917 994.202 371.607 986.278 365.014 988.143C351.519 991.959 359.747 1009.51 361 1018C364.52 1017.37 369.33 1014.29 372.787 1016.07C375.514 1017.47 376.245 1021.09 379.213 1022.17C385.771 1024.55 391.966 1021.04 398.956 1025.36C419.954 1038.34 399.077 1062.29 393.966 1077C392.241 1081.96 393 1087.82 393 1093C404.76 1091.62 421.841 1093.41 428 1105C433.954 1101.38 437.886 1101.15 441 1108C458.179 1101.84 445.781 1077.4 447.969 1066C449.252 1059.31 450.666 1050.64 454.649 1045C457.438 1041.06 462.019 1038.83 464.633 1034.82C466.756 1031.56 466.905 1027.18 469.513 1024.24C474.468 1018.66 481.721 1020.58 485.647 1012C489.865 1002.78 481.301 990.616 483 981L446 975z"/>
</svg>
