<?xml version="1.0" standalone="yes"?>
<svg xmlns="http://www.w3.org/2000/svg" width="1303" height="1450">
<path style="fill:#010101; stroke:none;" d="M0 0L0 1450L1303 1450L1303 0L0 0z"/>
<path style="fill:#ffffff; stroke:none;" d="M728 816L728 821C717.478 821.954 708.911 829.046 700 834L708 854L700 858L700 859L713 866C716.915 863.829 723.425 861.339 726.012 857.61C728.263 854.363 727.016 849.652 730.317 846.998C737.609 841.137 746.38 850.158 749 837C738.931 834.166 743.565 827.393 739.215 821.278C736.914 818.042 731.558 817.158 728 816z"/>
</svg>
