<?xml version="1.0" standalone="yes"?>
<svg xmlns="http://www.w3.org/2000/svg" width="1303" height="1450">
<path style="fill:#010101; stroke:none;" d="M0 0L0 1450L1303 1450L1303 0L0 0z"/>
<path style="fill:#ffffff; stroke:none;" d="M869 654C866.8 663.118 848 669.118 839 671C836.548 660.443 827.461 661.841 818 660L821 665L795.895 679.633L785 688L775 674L765 680C767.339 686.062 778.299 697.123 777.273 702.999C775.467 713.345 760.9 712.68 754 716L765 735C776.607 728 779.322 743.349 781 752C790.486 754.79 789.297 763.338 788 771L809 779C807.066 767.236 816.227 765.288 819.164 755.961C820.714 751.042 816.519 743.668 815 739C821.382 743.605 822.25 746.675 824 754C840.324 747.202 856.329 735.991 872 727.436C875.903 725.305 886.372 724.466 888.4 720.567C891.995 713.66 886.9 704.964 886 698L897 698C896.999 692.141 897.603 683.123 893.03 678.603C889.819 675.43 885.444 677.633 882.839 672.941C879.154 666.304 877.489 655.755 869 654M794 780C796.136 791.984 800.273 793.104 787 796L791 816L798 811L804 818L813 810C817.451 814.313 823.796 816.803 830 817C828.048 811.286 820.677 809.965 818.089 803.999C814.499 795.723 820.419 786.182 813 779L807 787C806.353 778.417 801.091 777.136 794 780z"/>
</svg>
