<?xml version="1.0" standalone="yes"?>
<svg xmlns="http://www.w3.org/2000/svg" width="1303" height="1450">
<path style="fill:#010101; stroke:none;" d="M0 0L0 1450L1303 1450L1303 0L0 0z"/>
<path style="fill:#ffffff; stroke:none;" d="M450 243L450 244C454.192 250.102 450.23 251.743 449.588 258C448.834 265.353 451.298 274.973 449.378 282C447.955 287.209 441.79 289.972 439.801 295C438.199 299.05 443.689 306.571 446.418 309.536C457.986 322.103 477.797 325.685 493 332.012C498.776 334.415 506.045 337.128 510.7 341.39C514.355 344.738 516.259 349.958 521.04 351.991C529.124 355.427 537.918 349.102 546 350.814C553.217 352.343 558.549 359.535 566 361.323C570.672 362.445 576.163 360.766 581 361.043C585.71 361.313 589.433 364.091 594 364.787C599.082 365.562 604.024 364.506 609 366.244C615.745 368.6 617.614 374.154 623.21 377.442C627.021 379.682 632.22 379.667 635.577 382.702C638.603 385.438 637.272 388.534 637.898 392C639.135 398.847 642.033 403.536 642.181 411C642.254 414.688 639.425 418.446 639.994 421.911C641.515 431.177 655.289 435.143 660.304 441.39C663.282 445.101 660.144 448.923 660.41 453C660.802 459.022 667.183 465.478 672 468.574C676.364 471.38 686.245 466.557 692 467.174C703.619 468.418 714.521 473.494 726 472.437C729.525 472.112 731.801 469.443 735 468.309C738.171 467.184 741.661 468.507 744.786 467.106C756.182 461.998 743.14 451.104 739 447C743.666 443.596 740.468 438.546 738.948 434C737.551 429.824 738.008 423.958 735.143 420.43C730.743 415.012 723.549 413.66 719 407L728 406C725.937 397.854 733.628 397.246 736.637 390.957C743.889 375.802 763.689 359.843 781 356.124C787.162 354.801 791.947 358.766 797.896 357.848C803.856 356.928 807.006 351.32 814 351L804.828 309L806.852 293.108L796.024 284.61L794.357 264.225L786.185 258.351L779 248C770.961 249.021 758.233 248.113 764.652 236.148C767.382 231.059 775.364 232.991 780 231.147C789.333 227.434 800.923 214.706 799.532 204C796.826 183.182 771.404 182.06 755 181.502C752.276 181.409 749.717 179.65 747 179.954C743.63 180.331 741.367 183.475 738 183.972C732.305 184.813 725.943 182.455 720 183.109C715.233 183.634 711.804 187.722 707 187.833C702.106 187.946 699.458 183.426 695 182.318C683.337 179.418 665.948 183.904 657 191C654.448 182.142 648.801 181.203 643.699 174.787C634.906 163.73 634.422 152.628 619 147.208C610.13 144.091 604.228 133.642 599 146C593.657 142.521 592.152 134.175 586.867 131.894C579.254 128.608 570.701 133.923 563 128.427C551.054 119.903 539.29 111.613 527 103.33C521.789 99.8182 516.167 94.041 510 92.4298C496.217 88.829 482.425 96.218 469 96.7369C454.372 97.3024 439.87 96.4567 429.702 110.171C426.298 114.761 426.126 121.111 422.914 125.787C420.401 129.447 412.864 130.393 412.161 135.105C410.455 146.537 429.037 150.584 433.637 158.043C442.04 171.672 442.117 185.23 444.623 200C445.181 203.284 448.569 206.299 448.419 209.576C448.177 214.849 443.833 218.869 444.015 225C444.329 235.526 459.635 233.226 450 243z"/>
</svg>
