<?xml version="1.0" standalone="yes"?>
<svg xmlns="http://www.w3.org/2000/svg" width="1303" height="1450">
<path style="fill:#010101; stroke:none;" d="M0 0L0 1450L1303 1450L1303 0L0 0z"/>
<path style="fill:#ffffff; stroke:none;" d="M724 684C714.62 678.526 703.641 677.433 693 676L701 659L684 642C681.124 642.963 677.269 645.095 674.394 643.154C670.168 640.302 668.461 632.299 665.651 628.104C659.334 618.674 636.092 603.301 625.329 612.638C616.909 619.944 625.12 623.617 626.223 630.961C626.83 635.004 622.229 636.564 624.913 640.964C627.531 645.258 633.227 647.02 634.698 652.039C636.766 659.102 634.118 666.404 637.825 672.945C640.461 677.597 648.358 677.379 649.003 683.018C649.488 687.256 645.063 689.265 644.421 693.089C643.459 698.814 644.237 704.997 643.092 711C641.064 721.632 636.072 730.436 639.318 741.816C640.439 745.746 645.179 747.874 647.57 751.015C653.336 758.588 662.314 772.006 674.61 767.307C677.46 766.218 685.104 758.818 687.656 756.442C691.282 753.067 690.104 749.203 691.588 745.039C693.567 739.489 697.417 733.571 699.877 728C706.573 712.83 717.518 699.488 724 684z"/>
</svg>
