<?xml version="1.0" standalone="yes"?>
<svg xmlns="http://www.w3.org/2000/svg" width="1303" height="1450">
<path style="fill:#010101; stroke:none;" d="M0 0L0 1450L1303 1450L1303 0L0 0z"/>
<path style="fill:#ffffff; stroke:none;" d="M794 500C791.71 503.019 788.132 506.167 787.358 510C786.701 513.25 788.89 516.732 787.073 519.786C782.031 528.259 771.128 519.284 768 514C759.172 517.675 735.696 525.57 744.988 539.671C748.085 544.37 754.292 544.788 757 550C752.076 551.422 748.498 553.434 746 558C739.748 555.777 735.977 557.965 730 560C732.765 568.635 750.065 576.21 759 576.613C762.726 576.782 766.292 574.427 770 575.628C784.978 580.478 787.681 597.478 802 601.843C805.557 602.927 822.58 600.704 824.682 597.566C827.147 593.887 825.008 589.011 826.603 585.105C828.187 581.23 837.174 574.482 841.004 572.838C848.733 569.52 858.464 580.744 868 579C868.024 570.147 875.664 556.557 869.987 548.633C864.566 541.067 851.893 540.042 848.04 532.942C844.143 525.761 845.343 508.953 838.941 505.263C828.546 499.272 821.163 503.668 810 503.87C804.515 503.97 799.271 501.219 794 500z"/>
</svg>
