<?xml version="1.0" standalone="yes"?>
<svg xmlns="http://www.w3.org/2000/svg" width="1303" height="1450">
<path style="fill:#010101; stroke:none;" d="M0 0L0 1450L1303 1450L1303 0L0 0z"/>
<path style="fill:#ffffff; stroke:none;" d="M1104 477C1097.78 484.55 1089.98 479.929 1082 483.558C1068.34 489.775 1057.98 510.261 1041 509.863C1037.61 509.784 1030.93 508.499 1029.66 504.775C1028.74 502.08 1035.72 491.311 1027.96 492.971C1018.73 494.942 1011.54 509.962 1002 514.062C996.981 516.219 991.103 513.734 986.17 516.314C976.031 521.615 966.464 527.36 956 532.264C952.546 533.883 949.735 537.388 946 538.306C939.061 540.013 932.913 535.116 925 538L925.498 510L922 497C916.342 496.883 906.909 493.653 903.028 499.533C898.976 505.671 904.741 514.084 899.348 520.867C894.75 526.649 885.871 525.017 880.761 530.39C872.112 539.486 874.37 548.245 872.571 559C871.341 566.354 869.001 572.308 869 580C864.704 580.327 861.047 580.952 857 579.003C852.285 576.732 846.697 571.045 841.015 573.233C837.699 574.51 828.319 581.83 827.318 585.213C826.178 589.065 827.627 593.152 825.683 596.911C822.417 603.225 816.28 606.246 815.316 614C814.629 619.515 818.56 624.722 817.627 630C816.172 638.241 811.368 648.027 816.434 656.721C820.008 662.858 829.462 660.012 834.775 661.773C837.902 662.809 838.806 667.325 840 670C849.973 667.914 866.618 662.253 869 652C877.39 657.028 878.605 664.961 883.452 672.852C885.674 676.469 889.655 675.21 892.61 677.603C898.399 682.294 897.999 692.345 898 699L887 699C889.737 720.174 905.909 707 920 707L920 711C907.65 712.021 913.998 717.999 923 718L923 725L928 725L928 714C937.024 713.814 941.417 712.596 945 704L946 704L947 715L975 712.326L995 718C995 724.124 990.451 738.142 992.816 742.996C1003.72 765.382 1023.54 735.344 1028 725L1029 725L1035.15 737.033L1051 732L1051 733C1042.68 740.69 1042.76 748.923 1054 752L1054 760C1060.14 758.325 1068.03 753.927 1071 762C1060.35 763.353 1042.37 769.552 1037.62 780.39C1036.32 783.351 1037.86 787.853 1038 791L1049 791C1050.97 802.32 1061.15 785.374 1066 785L1067 797L1069 797L1072 784L1075 784C1076.13 792.362 1076.64 801.941 1086 804C1082.22 813.728 1075.67 814.459 1067 819C1068.9 825.33 1076.36 831.489 1083 832L1083 822L1084 822L1092.1 834.214L1107 835C1099.2 846.666 1110.42 857.382 1117 844C1125.76 853.385 1113.81 869.932 1134 872C1133.99 863.919 1131.94 855.527 1136.14 848.015C1139.05 842.807 1145.32 840.21 1146.7 834C1149.05 823.384 1139 821.48 1137.6 813.282C1136.81 808.644 1141.87 803.292 1141.44 798C1141.03 793.101 1136.42 788.336 1134.25 784C1131.64 778.79 1131.53 770.832 1128.14 766.39C1123.8 760.698 1106.8 759.122 1102 764L1101 764C1090.44 750.796 1114.29 750.503 1121 741L1122 741L1126 746L1127 746C1132.34 742.177 1134.55 744.454 1137 750C1143.92 747.596 1151.38 734.34 1145.06 727.644C1141.69 724.071 1138.6 729.213 1138 732C1133.28 731.456 1124.25 731.875 1120 733.835C1116.23 735.567 1113.48 739.763 1109.29 740.604C1105.31 741.4 1102.17 737.277 1098 738.207C1091.86 739.575 1087.84 745.637 1081 744.771C1063.29 742.525 1070.34 723.549 1058 717.277C1049.6 713.006 1045.2 717.665 1037.01 716.812C1033.01 716.395 1030.9 712.303 1026.99 711.913C1017.33 710.951 1007.82 712.164 998 710L1008.43 689.562L1022.35 685.686L1027.27 663L1039 631C1045.18 633.571 1053.95 639.831 1060.91 636.976C1066.85 634.539 1068.63 626.602 1076 626.833C1084.16 627.088 1083.19 634.119 1089.06 636.883C1094.05 639.236 1104.1 637.782 1110 639C1107.8 631.185 1107.8 625.815 1110 618C1098.48 610.614 1097.54 596.364 1081 601C1088.56 582.987 1098.44 602.284 1108.29 606.397C1112.58 608.19 1117.91 606.49 1122 605L1124 624C1129.47 624.177 1136.84 632.297 1141.68 629.577C1144.4 628.044 1143.24 624.628 1144.09 622.169C1145.11 619.255 1147.7 617.186 1148.15 613.996C1148.68 610.169 1145.86 606.937 1146.77 603.004C1147.69 598.989 1152.53 596.256 1152.14 591.985C1151.56 585.589 1146.73 577.12 1140 580L1141 560C1134.78 561.136 1133 564.878 1130 570L1127 564C1120.54 567.004 1120.05 572.414 1120 579L1112 576L1104 577C1102.56 565.832 1101.57 548.455 1091 542C1085.07 552.465 1077.17 539.921 1074 534L1065 536C1069.95 531.715 1075.83 526.081 1082 523.692C1086.88 521.802 1091.17 524.558 1096 523.706C1104.9 522.137 1114.55 511.934 1113 503C1132.05 502.933 1136 484.441 1136 469C1131.62 470.042 1126.84 471.582 1123.99 475.329C1121.37 478.779 1119.85 486.407 1114.04 485.534C1109.87 484.907 1107.59 479.073 1104 477z"/>
<path style="fill:#010101; stroke:none;" d="M1074 549C1074.73 555.911 1070.57 564.686 1076 570L1078 565L1081 567C1084.53 558.318 1082.76 553.182 1074 549z"/>
<path style="fill:#ffffff; stroke:none;" d="M1122 552L1120 559L1125 553L1122 552M890 717L890 722L905 720L905 715L890 717M1037 754L1042 757L1043 752L1037 754M1172 822C1167.59 826.367 1157.04 830.596 1154.74 836.105C1149.71 848.148 1164.35 860.636 1170.78 868.039C1173.63 871.327 1174.35 875.523 1178 878C1180.5 875.055 1187.05 872.44 1188.04 868.787C1189.35 863.977 1184.39 858.365 1185.15 853C1185.75 848.77 1189.58 846.134 1190.32 842.015C1191.6 834.82 1178.93 833.021 1174 832L1172 822M1029 857L1050 849L1050 848L1044 847C1043.95 840.857 1039.8 818.701 1032.03 834.005C1028.91 840.149 1029 850.187 1029 857M1075 860L1078 869L1073 870L1073 877L1081 877L1080 881C1085.57 884.361 1089.29 889.464 1090 896L1113 901C1111.79 897.966 1111.75 893.252 1109.96 890.684C1108.11 888.028 1104.85 886.908 1103.09 883.982C1096.52 873.115 1096.25 865.153 1083 860L1082 863L1075 860z"/>
</svg>
