<?xml version="1.0" standalone="yes"?>
<svg xmlns="http://www.w3.org/2000/svg" width="1303" height="1450">
<path style="fill:#010101; stroke:none;" d="M0 0L0 1450L1303 1450L1303 0L0 0z"/>
<path style="fill:#ffffff; stroke:none;" d="M608 794L615 798C613.343 802.614 609.509 812.228 610.777 816.985C613.154 825.906 623.932 829.294 631 825C634.482 837.905 652.324 827.339 661 828C663.128 818.053 672.95 804.129 679.13 796C681.426 792.981 684.256 788.472 687.946 787.037C692.114 785.416 692.139 791.246 694.563 792.968C700.342 797.076 706.528 789.074 709 785L717 791L722 786C718.16 780.954 713.813 776.56 710.556 771C709.393 769.017 709.195 765.453 707.258 764.071C704.696 762.242 698.374 764.23 695 763.275C691.344 762.242 686.933 759.732 683.043 760.527C677.486 761.663 677.47 768.578 670.996 768.212C664.506 767.845 653.478 758.178 648.432 760.608C643.494 762.986 642.542 773.845 636.911 777.469C633.021 779.972 629.119 776.323 625 776.719C616.338 777.552 608.895 785.749 608 794z"/>
</svg>
