<?xml version="1.0" standalone="yes"?>
<svg xmlns="http://www.w3.org/2000/svg" width="1303" height="1450">
<path style="fill:#010101; stroke:none;" d="M0 0L0 1450L1303 1450L1303 0L0 0z"/>
<path style="fill:#ffffff; stroke:none;" d="M477 1023C467.658 1021.28 468.889 1030.21 464.362 1035.82C460.462 1040.64 455.405 1042.8 453.094 1049C446.901 1065.63 452.939 1079.29 450.221 1096C449.152 1102.57 442.536 1106.69 442.062 1113.01C441.659 1118.4 445.023 1127.54 448.923 1131.36C451.676 1134.05 457.63 1131.33 461 1131.34C465.063 1131.35 468.904 1133.11 473 1132.49C479.193 1131.57 491.467 1123.71 496.566 1119.86C500.279 1117.06 498.217 1111.81 499.603 1108C501.739 1102.13 508.117 1095.75 512.154 1091C520.627 1081.02 513.736 1074.69 512.147 1064C511.264 1058.06 512.896 1051.9 512.262 1046C510.671 1031.2 498.657 1040.78 491 1040.73C487.351 1040.7 474.013 1036.87 473.287 1032.87C472.689 1029.57 475.673 1025.85 477 1023z"/>
</svg>
