<?xml version="1.0" standalone="yes"?>
<svg xmlns="http://www.w3.org/2000/svg" width="1303" height="1450">
<path style="fill:#010101; stroke:none;" d="M0 0L0 1450L1303 1450L1303 0L0 0z"/>
<path style="fill:#ffffff; stroke:none;" d="M173 1031C164.361 1041.11 157.126 1047.23 152.904 1061C150.979 1067.28 153.798 1072.86 153.09 1079C152.319 1085.68 145.784 1092.6 140.961 1096.85C135.546 1101.62 130.024 1097.45 124.043 1100.01C119.439 1101.98 118.007 1107.28 113.957 1110.03C107.94 1114.11 94.139 1116.66 87 1117.32C78.6028 1118.1 70.2363 1113.62 62 1113.54C57.6979 1113.5 54.3417 1117.1 50 1116.71C41.5169 1115.94 36.9417 1110.77 28 1114C31.8738 1123.57 28.2134 1133 30.2855 1143C31.9648 1151.11 38.6379 1160.85 38.1173 1169C37.5209 1178.34 27.2577 1184.42 30.6528 1194.98C33.293 1203.2 45.4172 1204.99 52 1208.93C63.2685 1215.68 80.3753 1231.27 95 1229.04C100.282 1228.23 103.377 1222.4 109 1221.9C114.033 1221.45 118.792 1226.76 123.786 1225.22C129.541 1223.45 127.178 1214.4 129.988 1210.39C132.92 1206.21 140.407 1205.3 145 1204C147.473 1213.04 157.425 1223.76 167 1225.72C171.702 1226.69 176.39 1224.38 181 1225.48C188.996 1227.4 196.187 1232.45 204 1234C207.772 1220.62 222.9 1229.75 232 1229.28C239.528 1228.9 242.585 1220.52 248.015 1216.65C250.159 1215.12 254.31 1214.4 255.303 1211.7C256.625 1208.11 253.225 1202.3 251.938 1199C247.182 1186.81 240.837 1175.51 236.197 1164C233.738 1157.9 236.079 1151.19 231.856 1145.11C227.608 1138.99 220.092 1139.15 217.634 1131C215.267 1123.15 216.564 1114.8 213.76 1107C210.93 1099.13 204.506 1093.01 202.236 1085C200.723 1079.66 204.293 1074.35 201.566 1069.19C198.708 1063.77 191.299 1063.6 187.854 1058.79C180.012 1047.84 189.405 1036.69 173 1031z"/>
</svg>
