<?xml version="1.0" standalone="yes"?>
<svg xmlns="http://www.w3.org/2000/svg" width="1303" height="1450">
<path style="fill:#010101; stroke:none;" d="M0 0L0 1450L1303 1450L1303 0L0 0z"/>
<path style="fill:#ffffff; stroke:none;" d="M1039 632C1029.65 647.766 1026.67 670.225 1023 688L1029 688C1030.48 697.02 1038.33 689.627 1044 689C1043.87 700.136 1036.31 701.617 1027 699L1031 707L1031 708L1028 709L1028 711C1038.59 719.072 1047.95 710.751 1059 717.353C1067.97 722.711 1063.45 731.02 1069.28 736.996C1081.22 749.243 1085.97 739.685 1098.71 737.384C1102.37 736.724 1105.29 740.301 1109 739.958C1113.79 739.514 1118.16 734.54 1122 732L1122 731L1112 727L1117 715C1100.06 709.994 1096.84 735.248 1081 731C1095.27 714.44 1084.76 687.74 1064 682C1067.42 677.843 1070.69 676.438 1076 676L1075 680C1081.52 684.666 1090.94 687.735 1099 688L1100 682L1105 687L1106 687L1109 681C1117.81 680.999 1124.2 678.234 1122 668L1120 668L1119 674C1113.35 674.263 1111.29 672.384 1107 669L1107 668L1112 660L1092 657L1109 640C1102.82 637.686 1095.76 639.926 1090 637.687C1083.41 635.122 1083.49 627.283 1075 627.503C1067.87 627.688 1066.11 635.817 1059.99 637.901C1053.16 640.221 1045.3 633.814 1039 632M1126 656L1128.11 679.857L1135 687L1137 687C1142.02 676.992 1137.33 659.59 1126 656M1190 728C1194.76 738.011 1201.5 725.375 1190 728z"/>
</svg>
