<?xml version="1.0" standalone="yes"?>
<svg xmlns="http://www.w3.org/2000/svg" width="1303" height="1450">
<path style="fill:#010101; stroke:none;" d="M0 0L0 1450L1303 1450L1303 0L0 0z"/>
<path style="fill:#ffffff; stroke:none;" d="M480 949C486.161 948.805 487.426 952.563 486 958L504 966C496.63 971.884 485.605 974.01 483.357 985.129C482.609 988.829 485.211 992.436 485.791 996C486.79 1002.14 486.295 1009.7 490.649 1014.73C496.765 1021.78 508.003 1019.58 516 1021.94C530.992 1026.36 537.912 1030.74 552 1020C552.317 1024.81 549.082 1029.22 549.618 1033.91C550.14 1038.47 559.958 1048.9 564 1051C565.745 1048.43 569.151 1046.29 570.4 1043.59C571.733 1040.7 570.661 1037.06 571.278 1034C573.09 1025.02 584.102 1009.42 592 1021L613 1029L629 989L623 997L615 995L629 980C619.819 975.619 612.594 965.263 609 956C601.917 959.958 611.646 966.23 606.523 969.968C599.066 975.411 584.022 966.228 576.996 964.7C567.285 962.588 557.674 966.143 548 965C547.563 961.165 546.658 959.398 543 958L544.716 950.599L533 945.424L504 932C499.373 937.745 495.109 938.839 488 938C487.91 930.419 481.814 928.259 478.043 936.015C476.116 939.981 478.875 945.111 480 949M629 987L630 988L629 987z"/>
</svg>
