<?xml version="1.0" standalone="yes"?>
<svg xmlns="http://www.w3.org/2000/svg" width="1303" height="1450">
<path style="fill:#010101; stroke:none;" d="M0 0L0 1450L1303 1450L1303 0L0 0z"/>
<path style="fill:#ffffff; stroke:none;" d="M182 1013C187.109 1014.18 192.718 1017.37 198 1017.26C202.376 1017.16 205.676 1013.41 210 1012.79C216.843 1011.81 229.79 1014.19 236.999 1015.19C242.936 1016.02 243.446 1021.54 248.213 1023.36C252.098 1024.84 261.801 1023.52 265.995 1022.85C274.148 1021.56 268.163 1012.7 274.148 1010.56C282.767 1007.47 294.528 1014.85 303 1016C303.624 1024.08 308.88 1021.8 315 1022.33C320.274 1022.79 325.727 1025.73 331 1025.42C339.214 1024.94 344.78 1013.98 352 1023L361 1020C359.193 1011.27 353.3 1001.44 358.879 993.015C360.761 990.174 364.203 986.605 367.985 987.712C372.377 988.999 372.737 993.64 375.559 996.44C378.677 999.532 384.958 1001.23 389 1002.84C399.11 1006.86 402.282 995.818 411 1007C419.919 1004.94 433.045 1002.2 438.397 993.985C441.545 989.148 442.656 980.629 445 975C438.457 969.279 441.131 960.287 438.907 953C434.552 938.725 423.174 935.824 410 932.471C405.654 931.365 398.864 924.941 395 929L394 929L388 921L374.625 910.178L358 908L360 900C353.157 897.047 347.875 891.387 341 888.613C326.777 882.874 314.874 882.534 300 881.621C293.622 881.229 287.408 878.288 281 878.344C271.252 878.429 262.02 885.637 252 885.899C241.603 886.171 233.264 888.481 223 889.934C215.11 891.052 205 890.688 200.027 898.414C196.42 904.019 199.458 915.891 200.41 922C201.494 928.961 200.158 936.078 201.213 943C202.648 952.413 206.439 961.073 206.359 971C206.298 978.512 200.223 983.601 197.51 990C195.62 994.459 196.411 999.799 193.297 1003.79C190.111 1007.87 184.619 1008.39 182 1013z"/>
</svg>
