<?xml version="1.0" standalone="yes"?>
<svg xmlns="http://www.w3.org/2000/svg" width="1303" height="1450">
<path style="fill:#010101; stroke:none;" d="M0 0L0 1450L1303 1450L1303 0L0 0z"/>
<path style="fill:#ffffff; stroke:none;" d="M723 678C725.91 687.915 718.077 692.549 714.613 701C706.525 720.726 696.112 741.493 686 760C690.303 760.995 694.587 763.038 699 763.431C701.73 763.674 705.157 761.926 707.566 763.708C711.16 766.365 717.243 789.709 725.562 783.338C729.453 780.359 725.017 768.981 726 764L731 766C733.183 762.074 733.099 759.954 731 756C740.429 752.081 746.027 750.183 756 753L760 764C764.288 762.419 764.669 760.328 764 756L770 757L763 746C769.458 748.533 772.604 753.286 780 752C778.984 744.131 775.72 727.491 765 736C763.549 732.515 753.616 718.38 755.036 715.789C758.795 708.935 775.496 714.758 776.978 702.996C777.58 698.224 771.845 693.357 769.262 690C767.106 687.197 766.275 683.3 763.581 680.966C752.347 671.232 735.761 673.244 723 678M739 766C740.835 769.111 742.835 769.927 746 768L739 766z"/>
</svg>
