<?xml version="1.0" standalone="yes"?>
<svg xmlns="http://www.w3.org/2000/svg" width="1303" height="1450">
<path style="fill:#010101; stroke:none;" d="M0 0L0 1450L1303 1450L1303 0L0 0z"/>
<path style="fill:#ffffff; stroke:none;" d="M1059 334C1050.09 346.357 1033.96 344.709 1021.16 351.514C1017.47 353.479 1018.65 358.591 1015.6 361.347C1011.91 364.683 1001.9 366.363 997 367C995.577 378.26 996.477 392.045 999.306 403C999.979 405.606 998.706 409.185 1000.12 411.487C1001.86 414.334 1007.05 414.603 1010 415L1002.31 440L1011.43 455.039L1016.3 470.61L1024.68 479.015L1025 492C1036.8 491.822 1028.13 498.622 1030.62 504.722C1032.36 508.968 1040.22 509.345 1044 508.786C1059.54 506.492 1068.84 489.966 1082 483.05C1087.56 480.128 1093.18 482.158 1098.91 480.684C1101.02 480.141 1103.2 477.346 1105.42 477.778C1109.79 478.629 1110.51 486.016 1115.96 485.052C1120.42 484.264 1121.24 478.199 1123.65 475.185C1126.38 471.77 1130.29 470.769 1133.77 468.471C1135.27 467.484 1136.62 466.05 1136.45 464.104C1136.18 460.923 1130.09 460.132 1128 458C1117.86 462.651 1117.38 455.545 1108 453.683C1104.38 452.965 1100.67 454.711 1097 454.316C1091.27 453.698 1085.61 451.285 1080 450L1078 456L1061 452C1062.51 446.834 1064.29 443.789 1069 441L1063 422L1079.99 420.261L1089.44 414.569L1106.4 416.718L1107.27 404L1113 396C1114.1 402.736 1122.13 408.016 1127.06 400.786C1131.45 394.359 1132 384.469 1132 377L1136 377L1137 371L1138 371L1143 381C1149.24 379.887 1160.86 373.269 1163.52 383.719C1165.12 389.973 1156.73 396.59 1166 400C1167.41 390.615 1177.4 375.076 1164 371L1166 360L1169 361C1171.15 349.395 1167.15 337.77 1155 349C1153.79 345.619 1151.76 344.286 1149.49 341.626C1147.47 339.246 1146.75 335.949 1143.87 334.333C1133.97 328.777 1122.72 338.931 1113 338.941C1102.83 338.953 1095.37 329.245 1086.1 329.438C1081.22 329.54 1080.49 336.314 1075.96 337.836C1070.25 339.75 1064.44 335.292 1059 334z"/>
</svg>
