<?xml version="1.0" standalone="yes"?>
<svg xmlns="http://www.w3.org/2000/svg" width="1303" height="1450">
<path style="fill:#010101; stroke:none;" d="M0 0L0 1450L1303 1450L1303 0L0 0z"/>
<path style="fill:#ffffff; stroke:none;" d="M512 1091L500.603 1107L498.142 1119.49L487 1124.42L476 1132.34L457 1132.59L435 1143.54L409.433 1152.64L404.698 1165L398.897 1174L395.671 1204L390 1215C396.273 1217.6 406.019 1212.02 410.667 1217.19C416.588 1223.77 403.452 1231.57 413.105 1237.84C418.765 1241.51 429.703 1237.58 436 1236.76C440.378 1236.2 444.62 1238.09 449 1237.66C459.37 1236.63 470.143 1231.17 479 1226C480.674 1236.15 477.312 1258.16 495.776 1255.5C501.823 1254.63 505.828 1243.97 513.911 1248.69C523.754 1254.44 527.572 1271.09 538 1273C541.811 1256.96 538.224 1243.5 537.47 1227C537.131 1219.58 539.451 1213.54 537.522 1206C535.272 1197.21 529.976 1189.59 527.641 1181C526.458 1176.65 528.632 1172.32 527.298 1168C524.056 1157.52 517.385 1147.54 514.652 1137C510.879 1122.45 522.177 1105.28 512 1091z"/>
</svg>
