<?xml version="1.0" standalone="yes"?>
<svg xmlns="http://www.w3.org/2000/svg" width="1303" height="1450">
<path style="fill:#010101; stroke:none;" d="M0 0L0 1450L1303 1450L1303 0L0 0z"/>
<path style="fill:#ffffff; stroke:none;" d="M661 825C665.303 838.355 677.52 834.101 688 832.931C693.416 832.326 697.513 833.736 703 832L701 830C711.698 825.462 705.883 821.042 698 818C702.285 815.561 722.425 806.21 713.643 798.618C711.044 796.371 705.335 797.147 702 796L704 793C695.093 795.355 693.973 793.855 690 786C674.361 793.313 673.262 814.585 661 825M781 811L785 786C780.505 787.616 771.803 797.275 773.694 802.676C774.778 805.772 778.944 808.422 781 811M760 794L764 802L772 794L760 794M745 800C744.209 805.414 760.508 809.589 766 812L767 811C762.569 801.162 754.197 801.313 745 800z"/>
</svg>
