<?xml version="1.0" standalone="yes"?>
<svg xmlns="http://www.w3.org/2000/svg" width="1303" height="1450">
<path style="fill:#010101; stroke:none;" d="M0 0L0 1450L1303 1450L1303 0L0 0z"/>
<path style="fill:#ffffff; stroke:none;" d="M481 623C476.947 644.908 498.225 643.465 512.961 648.585C520.885 651.338 524.797 658.781 532.004 662.096C538.073 664.887 547.32 668.376 554 668.726C557.66 668.918 561.36 667.154 565 667.8C572.659 669.159 574.187 677.69 583 676L580 664C590.894 663.993 588.742 657.888 597.04 654.117C601.337 652.165 606.63 655.066 611 655.273C620.249 655.711 624.187 651.002 634 655C633.704 646.062 617.758 640.868 627 633L620 624C608.249 638.26 586.11 623.057 577.275 612.83C574.234 609.311 574.019 601.371 568.143 601.086C563.833 600.878 565.101 610.638 558.995 611.772C544.174 614.524 530.042 607.535 515 610.198C502.995 612.324 492.996 621.442 481 623z"/>
</svg>
